<svg xmlns="http://www.w3.org/2000/svg" xml:space="preserve" width="690" height="690" overflow="hidden"><defs><clipPath id="a"><path d="M2737 1107h690v690h-690z"/></clipPath></defs><g fill-rule="evenodd" clip-path="url(#a)" transform="translate(-2737 -1107)"><path fill="#ccd6dd" d="m3015 1383 209.99-210L3359 1307.02 3149 1517Z"/><path fill="#68e090" d="M2890.85 1767.94c-107.96-7.7-127.23-83.65-124.63-124.73 6.2-97.78 300.6-319.21 300.6-319.21l241.18 37.22c.02 0-335.05 412.58-417.15 406.72"/><path fill="#00b050" d="M3357.6 1176.4c-56.26-56.26-119.84-83.92-141.99-61.75-.25.25-.42.6-.65.85-.12.11-.29.15-.41.27l-435.37 435.37c-27.2 27.19-42.18 63.36-42.18 101.85 0 38.46 14.98 74.63 42.18 101.83 27.22 27.21 63.39 42.18 101.85 42.18 38.48 0 74.64-14.97 101.83-42.16l435.37-435.37c.14-.14.18-.31.29-.44.25-.24.58-.39.83-.64 22.17-22.15-5.49-85.73-61.75-141.99m-415.57 537.59c-16.29 16.29-37.94 25.25-60.98 25.25-23.03 0-44.7-8.98-61-25.27-16.29-16.3-25.27-37.95-25.27-61 0-23.04 8.98-44.69 25.25-60.98l404.4-404.38c11.98 22.03 30.05 46.11 52.95 69.03 22.9 22.9 47 40.97 69.03 52.95z"/><path fill="#17bf63" d="M3296.95 1358.46c-1.11 7.31-50.52 14.47-109.45 6.61-58.91-7.86-105.44-23.56-103.92-35.06 1.54-11.51 50.53-14.47 109.46-6.61s105.68 23.58 103.91 35.06m-353.03 194.67c-5.97 5.97-15.64 5.97-21.6 0-5.97-5.98-5.97-15.67 0-21.64 5.96-5.97 15.63-5.97 21.6 0 5.96 5.97 5.96 15.66 0 21.64m63.79 50.38c-9.75 9.77-25.54 9.75-35.29 0-9.73-9.75-9.73-25.59 0-35.34 9.75-9.76 25.54-9.74 35.27 0 9.75 9.75 9.77 25.57.02 35.34m32.25-102.58c-9.15 9.17-24.04 9.17-33.19 0-9.16-9.17-9.16-24.07 0-33.26 9.15-9.17 24.02-9.19 33.17 0 9.2 9.19 9.2 24.09.02 33.26m-132.09 170.67c-11.17 11.2-29.31 11.2-40.48 0-11.2-11.21-11.18-29.36 0-40.55 11.17-11.2 29.29-11.2 40.48 0 11.18 11.19 11.2 29.34 0 40.55m219.18-176.45c-7.94 7.96-20.83 7.96-28.77 0-7.95-7.96-7.93-20.87.02-28.82 7.96-7.98 20.83-7.98 28.77-.02 7.94 7.97 7.94 20.86-.02 28.84m-23.21-82.62c-5.2 5.2-13.62 5.2-18.83 0-5.2-5.2-5.2-13.64 0-18.86 5.19-5.21 13.61-5.23 18.83 0 5.19 5.22 5.19 13.66 0 18.86"/><path fill="#ccd6dd" d="M3312.17 1221.94c-36.44-36.44-58.77-73.2-49.87-82.1s45.66 13.42 82.11 49.86c36.44 36.45 58.76 73.2 49.86 82.11-8.9 8.9-45.66-13.43-82.1-49.87"/></g></svg>