<svg width="526" height="642" xmlns="http://www.w3.org/2000/svg" xmlns:xlink="http://www.w3.org/1999/xlink" xml:space="preserve" overflow="hidden"><defs><clipPath id="clip0"><rect x="1531" y="366" width="526" height="642"/></clipPath></defs><g clip-path="url(#clip0)" transform="translate(-1531 -366)"><path d="M2040.39 871.797C2044.46 871.105 2048.69 871.973 2051.91 874.162 2055.13 876.351 2057 879.628 2057 883.089L2057 1008 1531 1008 1531 966.048C1531 960.572 1535.63 955.851 1542.07 954.756ZM1627.9 869.734C1631.63 869.727 1635.2 871.003 1637.76 873.26 1640.33 875.37 1641.76 878.254 1641.74 881.257L1641.74 914.671 1614.05 919.28 1614.05 881.257C1614.05 874.893 1620.25 869.734 1627.9 869.734ZM1738.63 846.69C1742.36 846.683 1745.94 847.958 1748.5 850.216 1751.07 852.326 1752.5 855.21 1752.47 858.212L1752.47 896.235 1724.79 900.844 1724.79 858.212C1724.79 851.849 1730.99 846.69 1738.63 846.69ZM1849.37 823.646C1853.1 823.638 1856.67 824.914 1859.24 827.172 1861.81 829.281 1863.24 832.166 1863.21 835.168L1863.21 877.8 1835.53 882.409 1835.53 835.168C1835.53 828.805 1841.72 823.646 1849.37 823.646ZM1960.11 800.602C1963.84 800.594 1967.41 801.87 1969.97 804.128 1972.54 806.237 1973.97 809.121 1973.95 812.124L1973.95 859.365 1946.26 863.973 1946.26 812.124C1946.26 805.761 1952.46 800.602 1960.11 800.602ZM1683.26 754.514C1687 754.506 1690.57 755.781 1693.13 758.039 1695.7 760.149 1697.13 763.033 1697.11 766.036L1697.11 788.596 1669.42 794.357 1669.42 766.036C1669.42 759.672 1675.62 754.514 1683.26 754.514ZM2018.34 746.537C2020.37 746.895 2022.31 747.634 2023.99 748.726 2027.35 750.909 2029.32 754.26 2029.32 757.809L2029.32 850.147 2001.63 854.756 2001.63 812.124C2001.53 793.552 1983.91 778.327 1961.61 777.558 1950.07 777.64 1939.04 781.546 1930.96 788.413 1922.89 795.281 1918.43 804.543 1918.58 814.152L1918.58 868.582 1890.9 873.191 1890.9 835.168C1890.8 816.596 1873.17 801.372 1850.88 800.602 1839.33 800.684 1828.3 804.59 1820.23 811.458 1812.15 818.325 1807.69 827.587 1807.84 837.196L1807.84 887.018 1780.16 891.627 1780.16 858.212C1780.06 839.64 1762.43 824.416 1740.14 823.646 1728.6 823.728 1717.57 827.635 1709.49 834.502 1701.41 841.369 1696.96 850.631 1697.11 860.24L1697.11 905.453 1669.42 910.062 1669.42 881.257C1669.32 862.684 1651.7 847.46 1629.4 846.69 1617.86 846.772 1606.83 850.679 1598.75 857.546 1590.68 864.413 1586.22 873.676 1586.37 883.285L1586.37 923.889 1558.68 928.497 1558.98 850.124C1558.99 844.852 1563.31 840.263 1569.45 838.982L2012.11 746.632C2014.18 746.201 2016.31 746.179 2018.34 746.537ZM1794 731.469C1797.73 731.462 1801.3 732.737 1803.87 734.995 1806.44 737.105 1807.87 739.989 1807.84 742.991L1807.84 765.483 1780.16 771.244 1780.16 742.991C1780.16 736.628 1786.36 731.469 1794 731.469ZM1904.74 708.425C1908.47 708.417 1912.04 709.693 1914.61 711.951 1917.17 714.06 1918.61 716.945 1918.58 719.947L1918.58 742.369 1890.9 748.13 1890.9 719.947C1890.9 713.584 1897.09 708.425 1904.74 708.425ZM1990.66 642.792C1992.69 643.15 1994.62 643.889 1996.31 644.981 1999.67 647.164 2001.63 650.515 2001.63 654.064L2001.63 725.052 1946.26 736.574 1946.26 719.947C1946.16 701.375 1928.54 686.151 1906.25 685.381 1894.7 685.463 1883.67 689.369 1875.6 696.237 1867.52 703.104 1863.06 712.366 1863.21 721.975L1863.21 753.926 1835.53 759.687 1835.53 742.992C1835.43 724.419 1817.8 709.195 1795.51 708.425 1783.96 708.507 1772.94 712.414 1764.86 719.281 1756.78 726.148 1752.33 735.41 1752.47 745.019L1752.47 777.039 1724.79 782.8 1724.79 766.036C1724.69 747.464 1707.07 732.239 1684.77 731.469 1673.23 731.551 1662.2 735.458 1654.12 742.325 1646.05 749.192 1641.59 758.454 1641.74 768.064L1641.74 800.164 1586.37 811.686 1586.76 734.903C1586.77 729.634 1591.08 725.047 1597.22 723.761L1984.43 642.887C1986.49 642.456 1988.62 642.434 1990.66 642.792ZM1962.8 527.759C1964.86 528.099 1966.82 528.826 1968.53 529.916 1971.94 532.094 1973.94 535.47 1973.95 539.05L1973.95 621.422 1946.26 627.183 1946.26 570.16C1946.26 563.797 1940.07 558.638 1932.42 558.638 1924.78 558.638 1918.58 563.797 1918.58 570.16L1918.58 632.932 1877.05 641.597 1877.05 581.682C1877.05 575.319 1870.86 570.16 1863.21 570.16 1855.57 570.16 1849.37 575.319 1849.37 581.682L1849.37 647.404 1807.84 656.069 1807.84 604.726C1807.84 598.363 1801.65 593.204 1794 593.204 1786.36 593.204 1780.16 598.363 1780.16 604.726L1780.16 661.841 1738.63 670.506 1738.63 616.248C1738.63 609.885 1732.43 604.726 1724.79 604.726 1717.14 604.726 1710.95 609.885 1710.95 616.248L1710.95 676.29 1669.42 684.955 1669.42 627.77C1669.42 621.407 1663.22 616.248 1655.58 616.248 1647.93 616.248 1641.74 621.407 1641.74 627.77L1641.74 690.739 1614.05 696.5 1614.26 613.126C1614.27 607.92 1618.48 603.367 1624.52 602.019L1956.52 527.931C1958.6 527.468 1960.75 527.419 1962.8 527.759ZM1934.86 424.45C1936.96 424.762 1938.96 425.474 1940.71 426.562 1944.2 428.737 1946.26 432.156 1946.26 435.789L1946.26 506.362 1918.58 512.549 1918.58 466.461C1918.58 460.098 1912.38 454.939 1904.74 454.939 1897.09 454.939 1890.89 460.098 1890.89 466.461L1890.89 518.76 1863.21 524.936 1863.21 477.983C1863.21 471.62 1857.01 466.461 1849.37 466.461 1841.72 466.461 1835.53 471.62 1835.53 477.983L1835.53 531.111 1807.84 537.287 1807.84 489.505C1807.84 483.142 1801.64 477.983 1794 477.983 1786.36 477.983 1780.16 483.142 1780.16 489.505L1780.16 543.463 1752.47 549.651 1752.47 501.027C1752.47 494.664 1746.28 489.505 1738.63 489.505 1730.99 489.505 1724.79 494.664 1724.79 501.027L1724.79 555.826 1697.11 562.002 1697.11 512.549C1697.11 506.186 1690.91 501.027 1683.26 501.027 1675.62 501.027 1669.42 506.186 1669.42 512.549L1669.42 568.178 1641.83 574.342 1642.3 503.701C1642.34 498.622 1646.37 494.162 1652.22 492.72L1928.5 424.739C1930.6 424.225 1932.77 424.137 1934.86 424.45ZM1907.6 366.25C1909.64 366.608 1911.57 367.347 1913.25 368.439 1916.61 370.622 1918.58 373.973 1918.58 377.522L1918.58 403.17 1669.42 464.41 1669.42 423.599C1669.43 418.318 1673.75 413.717 1679.9 412.434L1901.37 366.346C1903.44 365.914 1905.57 365.892 1907.6 366.25Z" fill-rule="evenodd"/></g></svg>