<?xml version="1.0"?>
<svg xmlns="http://www.w3.org/2000/svg" id="Layer_1" data-name="Layer 1" viewBox="0 0 64 64"><path d="M32,2A30,30,0,1,0,62,32,30.037,30.037,0,0,0,32,2ZM5.04,24.44l1.12,1.64a.345.345,0,0,1-.07.47l-1.14.87a1.353,1.353,0,0,0-.51.81l-.36,1.72A27.027,27.027,0,0,1,5.04,24.44ZM54.1,20.99a1.345,1.345,0,0,1,1.21.91l.05.14a1.525,1.525,0,0,0,1.45,1.05h1.73a21.337,21.337,0,0,1,.61,2.07L57.5,26.81a.31.31,0,0,1-.22.09H54.82a.3.3,0,0,1-.3-.31,1.3,1.3,0,0,0-.75-1.18,1.285,1.285,0,0,0-1.39.17L47.8,29.3a6.887,6.887,0,0,0-2.56,5.38v3.59a1.3,1.3,0,0,0,.38.92l3.17,3.18a1.343,1.343,0,0,0,.93.38h1.2a2.9,2.9,0,0,0,2.66-1.73l3.11,4.19A28.027,28.027,0,0,1,32,60c-.14,0-.27,0-.41-.01v-.26a.7.7,0,0,1,.7-.7,2.1,2.1,0,0,0,2.09-2.09V55.09a.69.69,0,0,1,.65-.69,1.683,1.683,0,0,0,1.52-1.28,1.657,1.657,0,0,0-.73-1.85l-5.33-3.4a.688.688,0,0,1-.32-.59v-.99a1.7,1.7,0,0,0-1.7-1.69h-.86a1.95,1.95,0,0,1-1.94-1.95,1.7,1.7,0,0,0-1.7-1.7h-7.8a1.7,1.7,0,0,0-1.69,1.7v.52a.707.707,0,0,1-.17.46L12.54,45.7a1.683,1.683,0,0,0-.14,2l1.16,1.87a1.352,1.352,0,0,0,.33.38l4.24,3.7a.729.729,0,0,1,.24.53v2.27A28,28,0,0,1,4,32c0-.13,0-.27.01-.4a7.053,7.053,0,0,0,2.92,4.5l6.66,5a.539.539,0,0,0,.3.1.507.507,0,0,0,.43-.76l-3.04-5.07c-.05-.1-.05-.14-.06-.14a.534.534,0,0,1,.14-.11l.83-.46a.511.511,0,0,0,.25-.46.5.5,0,0,0-.28-.43l-2.07-1a.345.345,0,0,1-.19-.33l.05-1.2a.319.319,0,0,1,.11-.24.366.366,0,0,1,.25-.09l2.54.11a.3.3,0,0,1,.24.11l2.21,2.4a1.308,1.308,0,0,0,1.44.36,1.35,1.35,0,0,0,.9-1.21l.05-1.34a.339.339,0,0,1,.11-.24l3.24-2.98a.471.471,0,0,1,.26-.1l2.41.11a1.36,1.36,0,0,0,.96-.35,1.343,1.343,0,0,0,.44-.93l.06-1.42a.3.3,0,0,1,.11-.23l2.78-2.56a1.358,1.358,0,0,0,.42-.91l.14-2.35c.03-.67-.47-1.71-1.29-1.75l-2.78-.1a1.389,1.389,0,0,0-1.42,1.4.227.227,0,0,1-.13.18.509.509,0,0,1-.45.03c-.72-.34-1-1.56-1.18-2.36l-.09-.34a.353.353,0,0,1,.07-.3.344.344,0,0,1,.29-.13l4.23.18a3.008,3.008,0,0,0,3.15-2.9l.12-2.83a1.35,1.35,0,0,0-1.29-1.4l-1.31-.05a.338.338,0,0,1-.33-.32c0-2.42-1.24-2.74-1.77-2.76a3.343,3.343,0,0,0-2.26.88,2.007,2.007,0,0,1-1.34.61,1.007,1.007,0,0,1-.89-.6c-.01-.02-.02-.05-.03-.07A27.671,27.671,0,0,1,32,4c.56,0,1.11.02,1.66.06l.73,1.92a1.548,1.548,0,0,0,1.43.99H39.6a.5.5,0,0,1,.34.12l2.63,2.15a.536.536,0,0,1-.1.89l-.3.17a1.512,1.512,0,0,0-.76.97,1.54,1.54,0,0,0,.2,1.22l1.88,2.84a1.539,1.539,0,0,0,.64.55l1.94.88a.541.541,0,0,1,.31.49v3.48a1.555,1.555,0,0,0,.56,1.19.506.506,0,0,1,.07.76l-1.9,2.17a1.863,1.863,0,0,0,2.66,2.6l4.21-3.83a1.555,1.555,0,0,0,.45-1.56,1.011,1.011,0,0,1-.04-.23.864.864,0,0,1,.27-.62.942.942,0,0,1,.64-.25Z"/><path d="M36.11,9.09H33.83a.467.467,0,0,1-.17-.03l-2.07-.64a.525.525,0,0,0-.44.08.488.488,0,0,0-.21.4v1.34a1.973,1.973,0,0,0,.04.35l1.38,6.14a1.593,1.593,0,0,0,1.21,1.21,2.041,2.041,0,0,0,.34.03,1.559,1.559,0,0,0,1.26-.64l2.21-2.96a1.621,1.621,0,0,0,.32-.95V10.67A1.586,1.586,0,0,0,36.11,9.09Z"/></svg>
