<svg width="381" height="687" xmlns="http://www.w3.org/2000/svg" xmlns:xlink="http://www.w3.org/1999/xlink" xml:space="preserve" overflow="hidden"><defs><clipPath id="clip0"><rect x="1724" y="894" width="381" height="687"/></clipPath></defs><g clip-path="url(#clip0)" transform="translate(-1724 -894)"><path d="M1877.57 1346.85 1874.36 1358.34C1868.98 1377.64 1862.1 1403.74 1862.1 1404.87 1862.1 1405.45 1885.29 1405.93 1913.62 1405.93 1941.95 1405.93 1965.14 1405.2 1965.15 1404.29 1965.15 1403.39 1962.01 1390.1 1958.15 1374.75L1951.14 1346.85 1877.57 1346.85ZM1908.37 894 1919.41 894 1919.41 913.95 1927.61 917.366C1947.42 925.63 1938.92 934.082 1942.84 965.041 1946.76 996 1948.47 1063.08 1951.12 1103.12L1961.3 1206.15C1965.33 1233.01 1970.66 1259.64 1977.47 1287.22 1985.45 1319.52 1985.9 1320.59 1991.38 1320.59 1994.49 1320.59 1999.23 1322.13 2001.91 1324 2010.13 1329.74 2007.14 1342.48 1997.58 1342.48 1995.41 1342.48 1993.62 1343.22 1993.6 1344.12 1993.58 1345.02 1998.14 1358.75 2003.72 1374.64L2013.85 1403.52 2024.02 1408.56C2035.9 1414.45 2038.56 1422.36 2031.14 1429.76L2026.74 1434.15 2035.15 1453.51C2044.57 1475.18 2066.71 1517.6 2076.69 1536.38 2086.67 1555.16 2090.33 1558.77 2095.05 1566.2L2105 1580.94 2058.57 1580.91 2012.14 1580.87 2009.46 1563.97C1997.84 1490.45 1920.37 1454.68 1860.57 1495.21 1835.89 1511.94 1823.44 1534.21 1817.2 1572.79L1815.87 1581 1769.93 1581C1744.67 1581 1724 1580.52 1724 1579.95 1724 1579.37 1728.76 1571.74 1734.57 1562.99 1754.64 1532.79 1783.5 1477.74 1796.58 1444.69 1800.69 1434.3 1800.69 1434.16 1796.24 1428.15 1789.83 1419.49 1793.19 1411.43 1804.66 1408 1813.17 1405.46 1813.18 1405.43 1823.41 1376.7 1829.04 1360.89 1833.64 1346.83 1833.63 1345.47 1833.6 1344.1 1831.73 1342.5 1829.44 1341.9 1823.7 1340.4 1820.57 1333.7 1822.82 1327.74 1824.15 1324.24 1827.12 1322.47 1833.35 1321.47L1842.03 1320.09 1846.51 1303.38C1854.59 1273.29 1860.92 1243.86 1865.56 1214.72L1876.54 1120.12C1879.7 1078.84 1883.1 1000.48 1887.1 967.075 1888.06 936.726 1884.1 927.566 1900.54 919.715L1908.55 915.103C1908.49 908.069 1908.43 901.034 1908.37 894Z" fill-rule="evenodd"/></g></svg>