<svg width="3096" height="2064" xmlns="http://www.w3.org/2000/svg" xmlns:xlink="http://www.w3.org/1999/xlink" xml:space="preserve" overflow="hidden"><defs><clipPath id="clip0"><rect x="653" y="139" width="3096" height="2064"/></clipPath></defs><g clip-path="url(#clip0)" transform="translate(-653 -139)"><path d="M3104.42 1558.45C3090.56 1574.24 3078.32 1588.75 3068.32 1604.86 3041.25 1649.98 3031.91 1698.96 3047.38 1738.6 3077.67 1822.72 3089.27 1843.99 3089.27 1910.7L3067.68 1910.7C3066.39 1837.22 3038.67 1787.91 2997.42 1773.09 2979.37 1766.32 2955.85 1769.54 2934.25 1791.78 2907.5 1819.17 2899.77 1894.91 2978.08 1909.41 2969.7 1897.16 2970.67 1870.09 2987.11 1860.74 2999.68 1854.3 3014.18 1856.88 3020.63 1862.36 3031.58 1868.8 3041.9 1889.43 3041.9 1910.7L3004.83 1910.7 3004.83 1952.27 3081.86 1952.27C3080.89 1973.86 3069.29 1990.62 3047.7 1999.97 3050.28 2008.99 3063.49 2027.36 3081.54 2026.07 3085.08 2045.41 3088.31 2056.37 3104.42 2074.09 3120.54 2056.37 3123.76 2045.41 3127.3 2026.07 3145.35 2027.36 3158.57 2008.99 3161.14 1999.97 3139.55 1990.62 3127.95 1973.86 3126.98 1952.27L3204.01 1952.27 3204.01 1910.7 3166.95 1910.7C3166.95 1889.43 3177.26 1868.8 3188.22 1862.36 3194.66 1856.88 3209.17 1854.3 3221.73 1860.74 3238.17 1870.09 3239.14 1897.16 3230.76 1909.41 3309.08 1894.91 3301.34 1819.17 3274.59 1791.78 3253 1769.54 3229.47 1766.32 3211.42 1773.09 3170.17 1787.91 3142.45 1837.22 3141.16 1910.7L3119.57 1910.7C3119.57 1843.99 3131.17 1822.72 3161.47 1738.6 3176.94 1698.96 3167.59 1649.98 3140.52 1604.86 3130.53 1588.75 3118.28 1574.24 3104.42 1558.45ZM1297.58 1558.45C1283.72 1574.24 1271.47 1588.75 1261.48 1604.86 1234.41 1649.98 1225.06 1698.96 1240.53 1738.6 1270.83 1822.72 1282.43 1843.99 1282.43 1910.7L1260.84 1910.7C1259.55 1837.22 1231.83 1787.91 1190.58 1773.09 1172.53 1766.32 1149 1769.54 1127.41 1791.78 1100.66 1819.17 1092.93 1894.91 1171.24 1909.41 1162.86 1897.16 1163.83 1870.09 1180.27 1860.74 1192.83 1854.3 1207.34 1856.88 1213.78 1862.36 1224.74 1868.8 1235.06 1889.43 1235.06 1910.7L1197.99 1910.7 1197.99 1952.27 1275.02 1952.27C1274.05 1973.86 1262.45 1990.62 1240.86 1999.97 1243.43 2008.99 1256.65 2027.36 1274.7 2026.07 1278.24 2045.41 1281.46 2056.37 1297.58 2074.09 1313.69 2056.37 1316.92 2045.41 1320.46 2026.07 1338.51 2027.36 1351.72 2008.99 1354.3 1999.97 1332.71 1990.62 1321.11 1973.86 1320.14 1952.27L1397.17 1952.27 1397.17 1910.7 1360.1 1910.7C1360.1 1889.43 1370.42 1868.8 1381.37 1862.36 1387.82 1856.88 1402.32 1854.3 1414.89 1860.74 1431.33 1870.09 1432.3 1897.16 1423.92 1909.41 1502.23 1894.91 1494.5 1819.17 1467.75 1791.78 1446.15 1769.54 1422.63 1766.32 1404.58 1773.09 1363.33 1787.91 1335.61 1837.22 1334.32 1910.7L1312.73 1910.7C1312.73 1843.99 1324.33 1822.72 1354.62 1738.6 1370.09 1698.96 1360.75 1649.98 1333.68 1604.86 1323.68 1588.75 1311.44 1574.24 1297.58 1558.45ZM2459.84 1429.54 3749 1429.54 3749 2203 2459.84 2203ZM653 1429.54 1942.16 1429.54 1942.16 2203 653 2203ZM1297.58 267.91C1283.72 283.701 1271.47 298.204 1261.48 314.317 1234.41 359.436 1225.06 408.421 1240.53 448.061 1270.83 532.175 1282.43 553.445 1282.43 620.156L1260.84 620.156C1259.55 546.677 1231.83 497.369 1190.58 482.545 1172.53 475.777 1149 478.999 1127.41 501.236 1100.66 528.63 1092.93 604.364 1171.24 618.867 1162.86 606.62 1163.83 579.549 1180.27 570.203 1192.83 563.758 1207.34 566.336 1213.78 571.814 1224.74 578.26 1235.06 598.885 1235.06 620.156L1197.99 620.156 1197.99 661.729 1275.02 661.729C1274.05 683.321 1262.45 700.08 1240.86 709.426 1243.43 718.449 1256.65 736.819 1274.7 735.53 1278.24 754.866 1281.46 765.824 1297.58 783.549 1313.69 765.824 1316.92 754.866 1320.46 735.53 1338.51 736.819 1351.72 718.449 1354.3 709.426 1332.71 700.08 1321.11 683.321 1320.14 661.729L1397.17 661.729 1397.17 620.156 1360.1 620.156C1360.1 598.885 1370.42 578.26 1381.37 571.814 1387.82 566.336 1402.32 563.758 1414.89 570.203 1431.33 579.549 1432.3 606.62 1423.92 618.867 1502.23 604.364 1494.5 528.63 1467.75 501.236 1446.15 478.999 1422.63 475.777 1404.58 482.545 1363.33 497.369 1335.61 546.677 1334.32 620.156L1312.73 620.156C1312.73 553.445 1324.33 532.175 1354.62 448.061 1370.09 408.421 1360.75 359.436 1333.68 314.317 1323.68 298.204 1311.44 283.701 1297.58 267.91ZM3104.42 267.91C3090.56 283.701 3078.32 298.204 3068.32 314.317 3041.25 359.436 3031.91 408.421 3047.38 448.061 3077.67 532.175 3089.27 553.445 3089.27 620.156L3067.68 620.156C3066.39 546.677 3038.67 497.369 2997.42 482.545 2979.37 475.777 2955.85 478.999 2934.25 501.236 2907.5 528.63 2899.77 604.364 2978.08 618.867 2969.7 606.62 2970.67 579.549 2987.11 570.203 2999.68 563.758 3014.18 566.336 3020.63 571.814 3031.58 578.26 3041.9 598.885 3041.9 620.156L3004.83 620.156 3004.83 661.729 3081.86 661.729C3080.89 683.321 3069.29 700.08 3047.7 709.426 3050.28 718.449 3063.49 736.819 3081.54 735.53 3085.08 754.866 3088.31 765.824 3104.42 783.549 3120.54 765.824 3123.76 754.866 3127.3 735.53 3145.35 736.819 3158.57 718.449 3161.14 709.426 3139.55 700.08 3127.95 683.321 3126.98 661.729L3204.01 661.729 3204.01 620.156 3166.95 620.156C3166.95 598.885 3177.26 578.26 3188.22 571.814 3194.66 566.336 3209.17 563.758 3221.73 570.203 3238.17 579.549 3239.14 606.62 3230.76 618.867 3309.08 604.364 3301.34 528.63 3274.59 501.236 3253 478.999 3229.47 475.777 3211.42 482.545 3170.17 497.369 3142.45 546.677 3141.16 620.156L3119.57 620.156C3119.57 553.445 3131.17 532.175 3161.47 448.061 3176.94 408.421 3167.59 359.436 3140.52 314.317 3130.53 298.204 3118.28 283.701 3104.42 267.91ZM653 139 1942.16 139 1942.16 912.459 653 912.459ZM2459.84 139 3749 139 3749 912.459 2459.84 912.459Z" fill="#003DA5" fill-rule="evenodd"/></g></svg>