<svg width="2011" height="2011" xmlns="http://www.w3.org/2000/svg" xmlns:xlink="http://www.w3.org/1999/xlink" xml:space="preserve" overflow="hidden"><defs><clipPath id="clip0"><rect x="2167" y="232" width="2011" height="2011"/></clipPath></defs><g clip-path="url(#clip0)" transform="translate(-2167 -232)"><path d="M1007.15 1923.05 1006.34 1924.63C987.395 1954.91 959.853 1978.65 927.736 1993.1L927.186 1993.3 963.386 2008.31C977.301 2012.08 991.938 2014.09 1007.04 2014.09 1033.48 2014.09 1058.48 2007.93 1080.69 1996.98L1100.76 1985.16 1088.23 1978.79C1065.69 1965.18 1046.16 1946.64 1031.38 1924.31L1030.55 1922.78ZM1382.29 1842.71 1357.74 1853.29 1357.6 1855.03 1357.6 1855.03 1351.25 1880.87 1350.47 1882.77 1350.04 1884.45 1346.94 1891.37 1341.23 1905.29 1339.13 1908.84 1337.73 1911.96 1333.55 1918.22 1327.79 1927.92 1323.84 1932.78 1321.05 1936.97 1316.64 1941.66 1313.43 1945.6 1325.62 1947.21C1350.34 1948.63 1375.75 1944.53 1400.09 1934.22 1423.94 1924.11 1444.2 1909.1 1460.22 1890.87L1473.52 1873.31 1457.12 1872.1C1431.07 1868.24 1405.9 1858.68 1383.64 1843.79ZM658.458 1854.09 657.076 1855.27C635.292 1870.86 610.436 1881.21 584.52 1885.89L562.104 1888.26 569.791 1898.23C586.317 1916.67 607.222 1931.69 631.754 1941.55 656.286 1951.4 681.777 1955 706.467 1953.12L722.759 1950.65 710.113 1935.87C694.499 1914.67 683.552 1890.07 678.438 1863.77L678.259 1862.08ZM1671.79 1637.46 1657.25 1652.18 1657.82 1653.92C1663.93 1680.01 1664.02 1706.93 1658.47 1732.67L1652.35 1753.5 1667 1749.33C1689.79 1740.99 1711.11 1727.52 1729.16 1708.95 1747.59 1690 1760.6 1667.78 1768.23 1644.23L1771.76 1629.75 1752.08 1636.18C1726.52 1642.51 1699.6 1643.24 1673.35 1637.92ZM260.972 1653.71 264.762 1667C273.098 1689.79 286.563 1711.11 305.133 1729.16 324.089 1747.59 346.304 1760.6 369.862 1768.23L385.132 1771.95 378.874 1752.89C372.509 1727.34 371.751 1700.43 377.033 1674.16L377.483 1672.63 363.374 1658.69 361.624 1659.27C335.556 1665.44 308.632 1665.59 282.878 1660.09ZM1950.56 1290.77 1936.14 1303.14C1914.95 1318.77 1890.36 1329.74 1864.07 1334.88L1862.39 1335.06 1853.64 1356.74 1854.81 1358.11C1870.38 1379.92 1880.69 1404.79 1885.34 1430.71L1887.61 1452.48 1898.23 1444.3C1916.67 1427.77 1931.69 1406.86 1941.55 1382.33 1951.4 1357.8 1955 1332.31 1953.12 1307.62ZM1985.16 913.326 1978.79 925.857C1965.18 948.398 1946.64 967.927 1924.31 982.716L1922.78 983.544 1923.04 1006.11 1924.63 1006.92C1954.92 1025.84 1978.69 1053.36 1993.17 1085.46L1993.55 1086.52 1996.98 1080.69C2007.93 1058.48 2014.09 1033.48 2014.09 1007.04 2014.09 980.607 2007.93 955.609 1996.98 933.401ZM68.5457 1312.98 66.8766 1325.62C65.4612 1350.34 69.5533 1375.75 79.8713 1400.09 90.1895 1424.43 105.611 1445.05 124.363 1461.22L141.734 1474.09 141.727 1470.28C144.196 1440.26 154.184 1411 171.148 1385.51L172.203 1384.19 160.794 1357.74 159.064 1357.6C128.872 1352.53 100.699 1339.79 77.1205 1321.05ZM888.551 1078.37 893.104 1086.5 894.082 1087.65 893.104 1086.5ZM1119.08 925.354 1120.98 927.584 1122.31 929.948 1120.98 927.584ZM1030.96 870.425 1033.34 870.644 1036.81 871.673 1033.34 870.644ZM1872.35 539.999 1872.36 543.814C1869.89 573.832 1859.91 603.094 1842.94 628.58L1841.89 629.899 1853.3 656.352 1855.02 656.489C1885.22 661.558 1913.39 674.3 1936.97 693.04L1945.54 701.116 1947.21 688.471C1948.63 663.751 1944.53 638.333 1934.22 613.994 1923.9 589.654 1908.48 569.04 1889.73 552.868ZM20.538 927.572 17.1052 933.401C6.15322 955.609 0 980.607 0 1007.04-0.000360892 1033.48 6.15285 1058.48 17.1049 1080.69L28.9299 1100.77 35.2967 1088.24C48.9117 1065.7 67.4472 1046.17 89.7828 1031.38L91.3061 1030.55 91.0513 1007.98 89.4605 1007.17C59.1651 988.254 35.3978 960.734 20.9238 928.63ZM126.535 562.157 113.247 572.181C95.9999 588.317 81.9244 608.391 72.5415 631.754 62.6899 656.286 59.0831 681.777 60.9702 706.466L63.5243 723.324 77.9513 710.955C99.1429 695.322 123.732 684.353 150.022 679.215L151.698 679.037 160.446 657.353 159.274 655.981C143.713 634.177 133.396 609.307 128.753 583.386ZM1628.95 242.119 1635.21 261.201C1641.58 286.754 1642.34 313.667 1637.06 339.93L1636.61 341.459 1650.72 355.401 1652.46 354.824C1678.53 348.657 1705.46 348.504 1731.21 354.001L1753.09 360.374 1749.84 348.517C1741.55 325.185 1727.91 303.349 1708.95 284.923 1686.84 263.426 1660.29 249.298 1632.34 242.495ZM1414.39 143.234C1405.35 145.861 1396.53 149.245 1388.01 153.365L1368.26 165.094 1369.37 165.542 1077.89 888.078 1082.7 890.586 1088.09 894.867 1620.84 355.665 1626.1 337.723C1639.31 272.057 1612.24 202.047 1552.59 163.468 1509.98 135.913 1459.57 130.101 1414.39 143.234ZM361.484 261.465 339.55 267.731C319.598 276.153 300.968 288.626 284.923 305.132 266.498 324.089 253.486 346.304 245.86 369.862L242.371 384.181 244.011 383.383C255.821 379.108 268.048 376.081 280.473 374.349 291.654 372.79 302.997 372.281 314.342 372.854L341.997 376.936 356.842 361.912 356.27 360.168C350.161 334.086 350.068 307.162 355.622 281.42ZM1291.4 63.5311 1303.98 78.2216C1319.59 99.4277 1330.54 124.026 1335.65 150.322L1335.83 152.011 1355.64 160.002 1357.01 158.824C1378.8 143.234 1403.65 132.885 1429.57 128.208L1451.99 125.837 1444.3 115.858C1427.77 97.4186 1406.87 82.3928 1382.33 72.5408 1356.05 61.9854 1328.66 58.5995 1302.34 61.4578ZM973.444 3.38734C962.591 5.60791 952.123 8.88337 942.15 13.1015 932.177 17.3199 922.7 22.4807 913.83 28.473L913.293 28.9161 925.855 35.2996C948.396 48.9146 967.924 67.4501 982.714 89.7857L983.54 91.3061 1006.94 91.0416 1007.75 89.4631C1026.69 59.1849 1054.24 35.4422 1086.35 20.9974L1086.94 20.7852 1080.69 17.1049C1058.48 6.15285 1033.48 0 1007.04 0 995.534 0 984.297 1.1664 973.444 3.38734ZM646.251 69.8756C635.392 72.0666 624.591 75.3789 613.994 79.8709 589.655 90.1892 569.04 105.611 552.868 124.362L540.695 140.794 556.964 141.996C583.014 145.852 608.185 155.411 630.451 170.304L631.795 171.383 656.351 160.792 656.488 159.067C660.923 132.649 671.232 107.777 686.295 86.1753L700.201 69.0528 686.958 66.7969C673.489 66.1487 659.825 67.1365 646.251 69.8756ZM798.347 24.3512C728.856 39.1092 678.599 94.858 667.508 160.914L667.141 165.524 972.337 873.073 951.403 879.772 933.41 889.843 628.538 183.045 624.236 179.591C600.375 163.632 572.957 154.205 544.817 151.827L518.925 151.818 514.069 152.24 488.412 156.621C469.849 161.454 451.803 169.571 435.117 181.126 384.012 216.515 358.609 275.168 363.289 332.968L366.319 352.319 370.383 348.207 924.522 895.716 923.714 896.406 927.251 893.388 907.169 910.529 897.569 922.603 897.668 922.479 897.48 922.716 894.868 926.002 354.119 391.722 338.522 387.124C319.765 383.327 300.65 382.817 282.01 385.415 235.41 391.91 191.784 417.835 164.173 460.408 130.349 512.561 129.14 576.468 155.432 628.154L165.516 644.783 165.543 644.718 888.078 936.199 878.268 955.014 872.2 975.498 162.28 689.106 152.163 690.183C86.4254 703.03 32.0357 754.756 19.1352 824.615 17.2922 834.595 16.3726 844.532 16.3152 854.337L18.0042 875.089 18.7368 880.386C20.1659 887.351 22.035 894.185 24.3195 900.852L29.4301 912.473 27.7985 915.244 37.4556 936.674C44.3161 949.016 52.7094 960.469 62.4311 970.737L93.5152 996.169 870.033 987.397 870.644 980.749 871.208 978.848 870.644 980.749C868.933 989.605 868.076 998.702 868.144 1007.93L870.14 1026.2 870.531 1029.78 100.02 1038.48 95.9501 1040.7C40.1024 1077.68 9.59035 1146.25 24.3483 1215.74 39.1063 1285.23 94.8559 1335.49 160.911 1346.58L165.517 1346.95 873.073 1041.75 871.199 1035.89C873.19 1045.27 876.085 1054.23 879.773 1062.68L887.418 1076.34 889.843 1080.68 186.594 1384.02 180.449 1391.71C143.334 1447.47 141.833 1522.51 182.407 1580.82 217.91 1631.85 276.62 1657.12 334.409 1652.31L353.798 1649.23 348.207 1643.7 895.717 1089.57 895.815 1089.68 910.529 1106.92 930.457 1122.76 926.002 1119.22 393.253 1658.42 387.987 1676.37C374.782 1742.04 401.844 1812.05 461.497 1850.62 513.694 1884.38 577.602 1885.51 629.254 1859.15L645.902 1849.02 644.718 1848.54 936.199 1126.01 955.014 1135.82 974.799 1141.68 975.498 1141.89 688.522 1853.25 689.408 1861.64C702.196 1927.39 753.872 1981.83 823.72 1994.79 833.699 1996.64 843.634 1997.57 853.44 1997.64L878.347 1995.63 880.387 1995.35C887.351 1993.92 894.185 1992.05 900.852 1989.77L913.665 1984.13 915.644 1985.63 935.795 1976.57C948.143 1969.72 959.604 1961.34 969.882 1951.63L996.158 1919.57 987.398 1144.05 980.749 1143.44 977.803 1142.57 980.749 1143.44C989.605 1145.15 998.702 1146.01 1007.93 1145.94L1025.01 1144.08 1029.78 1143.56 1038.48 1914.08 1040.69 1918.14C1077.67 1973.99 1146.25 2004.5 1215.74 1989.74 1285.23 1974.98 1335.49 1919.24 1346.58 1853.18L1346.95 1848.57 1041.75 1141.01 1042.84 1140.67 1047.9 1139.05 1047.9 1139.05 1062.69 1134.31 1080.68 1124.24 1385.55 1831.05 1389.85 1834.5C1445.53 1871.74 1520.57 1873.41 1578.97 1832.97 1630.08 1797.58 1655.48 1738.93 1650.8 1681.13L1647.77 1661.77 1643.7 1665.88 1089.57 1118.37 1106.92 1103.56 1119.22 1088.09 1659.98 1622.37 1675.57 1626.97C1741.22 1640.26 1811.26 1613.29 1849.92 1553.68 1883.05 1502.6 1884.89 1440.23 1860.23 1389.12L1848.54 1369.37 1126.01 1077.89 1128.24 1073.6 1135.82 1059.07 1140.64 1042.81 1140.29 1043.99 1141.89 1038.59 1141.89 1038.59 1143.44 1033.34 1143.73 1030.22 1143.44 1033.34 1141.89 1038.59 1851.82 1324.99 1861.93 1323.91C1927.66 1311.06 1982.05 1259.34 1994.95 1189.48 1996.8 1179.5 1997.72 1169.56 1997.77 1159.76L1996.08 1139.01 1995.35 1133.7C1993.92 1126.74 1992.05 1119.9 1989.77 1113.23L1984.66 1101.61 1986.29 1098.85 1976.63 1077.42C1969.77 1065.08 1961.38 1053.62 1951.66 1043.36L1920.57 1017.92 1144.05 1026.69 1145.94 1006.16 1143.56 984.307 1914.08 975.603 1918.14 973.397C1973.99 936.418 2004.5 867.84 1989.74 798.35 1974.98 728.859 1919.23 678.601 1853.18 667.511L1848.56 667.143 1141.01 972.336 1142.89 978.194C1140.9 968.816 1138 959.861 1134.32 951.402L1124.24 933.41 1827.5 630.065 1833.64 622.385C1870.76 566.627 1872.26 491.584 1831.68 433.27 1796.18 382.245 1737.47 356.974 1679.68 361.783L1660.3 364.863 1665.88 370.382 1118.37 924.522 1117.42 923.405 1103.56 907.168C1090.72 894.788 1075.6 884.964 1059.07 878.268L1039.04 872.332 1038.59 872.2 1325.57 160.833 1324.68 152.452C1311.89 86.7033 1260.22 32.2667 1190.37 19.3031 1180.39 17.451 1170.45 16.522 1160.65 16.456L1140.88 18.0468 1132.71 18.944C1122.11 21.1847 1111.83 24.4458 1101.98 28.6383L1101.09 29.1211 1099.31 28.0735 1078.29 37.522C1065.95 44.3717 1054.48 52.7545 1044.21 62.4665L1017.93 94.5257 1026.69 870.033 1006.16 868.144 989.176 869.999 984.308 870.53 975.604 100.016 973.395 95.9526C936.415 40.1052 867.838 9.59324 798.347 24.3512Z" fill-rule="evenodd" transform="matrix(-0.978184 0.207739 0.207739 0.978184 3948.46 43.2232)"/></g></svg>