<svg width="2063" height="2062" xmlns="http://www.w3.org/2000/svg" xmlns:xlink="http://www.w3.org/1999/xlink" xml:space="preserve" overflow="hidden"><defs><clipPath id="clip0"><rect x="242" y="-166" width="2063" height="2062"/></clipPath></defs><g clip-path="url(#clip0)" transform="translate(-242 166)"><path d="M1273.5 521.333C1463.39 521.333 1617.33 675.198 1617.33 865 1617.33 1054.8 1463.39 1208.67 1273.5 1208.67 1083.61 1208.67 929.667 1054.8 929.667 865 929.667 675.198 1083.61 521.333 1273.5 521.333ZM1273.5 177.667C893.712 177.667 585.833 485.396 585.833 865 585.833 1244.6 893.712 1552.33 1273.5 1552.33 1653.29 1552.33 1961.17 1244.6 1961.17 865 1961.17 485.396 1653.29 177.667 1273.5 177.667ZM1273.5-166C1843.18-166 2305 295.594 2305 865 2305 1434.41 1843.18 1896 1273.5 1896 703.818 1896 242 1434.41 242 865 242 295.594 703.818-166 1273.5-166Z" fill="#012169" fill-rule="evenodd"/></g></svg>