<svg width="1602" height="1355" xmlns="http://www.w3.org/2000/svg" xmlns:xlink="http://www.w3.org/1999/xlink" xml:space="preserve" overflow="hidden"><defs><clipPath id="clip0"><rect x="1054" y="388" width="1602" height="1355"/></clipPath></defs><g clip-path="url(#clip0)" transform="translate(-1054 -388)"><path d="M883.479 1128.15C869.298 1128.15 855.17 1129.33 841.157 1131.54L801 1140.76 760.844 1131.54C746.83 1129.33 732.703 1128.15 718.521 1128.15 553.502 1128.15 467.554 1272.61 305.973 1176.3 385.045 1272.61 512.247 1279.48 615.384 1214.13 656.639 1186.62 694.456 1148.78 746.024 1148.78L770.242 1151.77 758.929 1155.9C692.353 1184.42 631.653 1230.9 584.382 1276.05 594.695 1286.36 605.009 1296.68 618.761 1307 672.908 1250.25 734.79 1189.63 795.705 1162.86L801 1161.05 806.295 1162.86C867.21 1189.63 929.092 1250.25 983.24 1307 996.991 1296.68 1007.3 1286.36 1017.62 1276.05 970.347 1230.9 909.647 1184.42 843.071 1155.9L831.758 1151.77 855.976 1148.78C907.544 1148.78 945.361 1186.62 986.616 1214.13 1089.75 1279.48 1216.96 1272.61 1296.03 1176.3 1134.45 1272.61 1048.5 1128.15 883.479 1128.15ZM340.352 938.977C398.796 1055.92 419.424 1104.07 515.685 1124.71 515.685 1124.71 488.182 1121.27 474.43 1117.83 371.293 1097.19 247.529 1124.71 171.895 1038.72 202.836 1093.75 261.28 1138.47 316.287 1159.1 405.672 1186.62 498.496 1155.66 581.005 1135.03 591.319 1131.59 605.07 1131.59 618.822 1128.15 570.691 1121.27 525.999 1104.07 491.62 1073.12 440.051 1024.96 395.359 976.811 340.352 938.977ZM1261.65 938.977C1206.64 976.811 1161.95 1024.96 1110.38 1073.12 1076 1104.07 1031.31 1121.27 983.178 1128.15 996.93 1131.59 1010.68 1131.59 1021 1135.03 1103.5 1155.66 1196.33 1186.62 1285.71 1159.1 1340.72 1138.47 1399.16 1093.75 1430.11 1038.72 1354.47 1124.71 1230.71 1097.19 1127.57 1117.83 1113.82 1121.27 1086.32 1124.71 1086.32 1124.71 1182.58 1104.07 1203.2 1055.92 1261.65 938.977ZM226.901 770.442C268.156 887.384 244.091 969.932 343.79 1052.48 326.601 1045.6 309.411 1031.84 295.659 1021.52 216.588 956.174 99.6991 945.855 51.5685 839.232 65.3201 918.34 127.202 987.129 192.522 1031.84 257.843 1073.12 340.352 1069.68 409.11 1093.75 343.79 1038.72 333.476 959.613 305.973 890.824 288.784 846.111 257.843 808.276 226.901 770.442ZM1375.1 770.442C1344.16 808.276 1313.22 846.111 1296.03 890.824 1268.52 959.613 1258.21 1038.72 1192.89 1093.75 1261.65 1069.68 1344.16 1073.12 1409.48 1031.84 1474.8 987.129 1536.68 918.34 1550.43 839.232 1502.3 945.855 1385.41 956.174 1306.34 1021.52 1292.59 1031.84 1275.4 1045.6 1258.21 1052.48 1357.91 969.932 1333.84 887.384 1375.1 770.442ZM175.333 608.787C182.209 660.379 161.581 705.092 158.143 753.245 151.268 818.595 175.333 863.308 192.522 894.263 192.522 894.263 168.457 863.308 158.143 846.111 110.013 770.442 10.3137 718.85 3.4379 625.984-10.3137 828.913 130.64 883.945 254.405 966.492 254.405 966.492 233.777 928.658 226.901 904.582 202.836 811.716 216.588 698.213 175.333 608.787ZM1426.67 608.787C1385.41 698.213 1399.16 811.716 1375.1 904.582 1368.22 928.658 1347.6 966.492 1347.6 966.492 1471.36 883.945 1612.31 828.913 1598.56 625.984 1591.69 718.85 1491.99 770.442 1443.86 846.111 1433.54 863.308 1409.48 894.263 1409.48 894.263 1426.67 863.308 1450.73 818.595 1443.86 753.245 1440.42 705.092 1419.79 660.379 1426.67 608.787ZM20.6274 388.661C-6.8758 467.769-6.8758 529.679 20.6274 612.226 37.8169 674.137 99.6991 718.85 130.64 777.321 130.64 777.321 123.764 711.971 134.078 684.455 161.581 601.908 189.085 512.482 185.647 426.495 158.143 529.679 72.1959 564.074 110.013 705.092 96.2612 677.576 92.8233 646.621 82.5096 619.105 61.8822 543.437 3.4379 478.087 20.6274 388.661ZM1581.37 388.661C1598.56 478.087 1540.12 543.437 1519.49 619.105 1509.18 646.621 1505.74 677.576 1491.99 705.092 1529.8 564.074 1443.86 529.679 1416.35 426.495 1412.92 512.482 1440.42 601.908 1467.92 684.455 1478.24 711.971 1471.36 777.321 1471.36 777.321 1502.3 718.85 1564.18 674.137 1581.37 612.226 1608.88 529.679 1608.88 467.769 1581.37 388.661ZM106.575 182.292C61.8822 230.445 37.8169 292.355 37.8169 354.266 37.8169 436.813 85.9475 495.284 89.3854 574.392 103.137 491.845 171.895 433.374 206.274 364.584 220.026 337.069 226.901 302.674 233.777 271.718 226.901 285.476 220.026 299.234 209.712 309.553 144.392 364.584 106.575 395.54 89.3854 481.526L96.2612 405.858C103.137 330.19 61.8822 247.642 106.575 182.292ZM1495.43 182.292C1540.12 247.642 1498.86 330.19 1505.74 405.858L1512.61 481.526C1495.43 395.54 1457.61 364.584 1392.29 309.553 1381.97 299.234 1375.1 285.476 1368.22 271.718 1375.1 302.674 1381.97 337.069 1395.73 364.584 1430.11 433.374 1498.86 491.845 1512.61 574.392 1516.05 495.284 1564.18 436.813 1564.18 354.266 1564.18 292.355 1540.12 230.445 1495.43 182.292ZM226.901 79.1079C113.451 103.184 106.575 227.005 113.451 319.871 113.451 340.508 116.889 357.705 113.451 378.342 127.202 350.826 151.268 323.311 175.333 302.674 237.215 257.961 299.097 199.49 302.535 123.821 268.156 206.368 161.581 220.126 137.516 306.113 137.516 306.113 151.268 254.521 154.706 244.203 171.895 185.732 168.457 116.942 226.901 79.1079ZM1375.1 79.1079C1433.54 116.942 1430.11 185.732 1447.29 244.203 1450.73 254.521 1464.48 306.113 1464.48 306.113 1440.42 220.126 1333.84 206.368 1299.46 123.821 1302.9 199.49 1364.79 257.961 1426.67 302.674 1450.73 323.311 1474.8 350.826 1488.55 378.342 1485.11 357.705 1488.55 340.508 1488.55 319.871 1495.43 227.005 1488.55 103.184 1375.1 79.1079ZM378.169 0C323.163 24.0763 261.28 44.7132 223.464 103.184 202.836 137.579 199.398 178.853 182.209 213.247 213.15 185.732 250.967 161.655 278.47 127.261 309.411 85.9869 336.914 37.8342 378.169 0ZM1223.83 0C1265.09 37.8342 1292.59 85.9869 1323.53 127.261 1351.03 161.655 1388.85 185.732 1419.79 213.247 1402.6 178.853 1399.16 137.579 1378.54 103.184 1340.72 44.7132 1278.84 24.0763 1223.83 0Z" fill="#009EDC" fill-rule="evenodd" transform="matrix(-1 1.22465e-16 1.22465e-16 1 2656 436)"/><path d="M1741 948.5C1741 885.816 1791.82 835 1854.5 835 1917.18 835 1968 885.816 1968 948.5 1968 1011.18 1917.18 1062 1854.5 1062 1791.82 1062 1741 1011.18 1741 948.5Z" stroke="#009EDC" stroke-width="13.75" stroke-miterlimit="8" fill="none" fill-rule="evenodd"/><path d="M1855 388 1855 835.025M1855 1061.98 1855 1509M1459.91 553.055 1775.98 869.411M1934.02 1027.59 2250.09 1343.94M1295 948.5 1741.63 948.5M1968.37 948.5 2415 948.5M1459.91 1343.94 1775.98 1027.59M1934.02 869.411 2250.09 553.055" stroke="#009EDC" stroke-width="13.75" stroke-miterlimit="8" fill="none" fill-rule="evenodd"/><path d="M1827.94 1086.8C1829.31 1084.05 1832.06 1073.04 1835.49 1076.48 1838.93 1079.92 1840.99 1076.48 1840.99 1076.48 1840.99 1076.48 1842.71 1078.2 1841.68 1081.64 1840.99 1085.08 1839.96 1088.52 1837.9 1089.21 1835.84 1089.55 1834.12 1090.93 1831.37 1091.27 1829.31 1091.61 1827.94 1086.8 1827.94 1086.8ZM1856.11 1082.33C1856.8 1081.64 1857.83 1085.08 1859.55 1084.39 1861.26 1084.05 1861.95 1087.49 1860.23 1087.49 1858.52 1087.49 1858.52 1089.55 1858.52 1090.58 1858.52 1091.61 1858.52 1093.68 1857.14 1095.05 1855.77 1096.43 1854.74 1095.4 1853.02 1094.71 1851.3 1093.68 1850.61 1093.68 1848.21 1093.68 1846.15 1093.68 1847.86 1097.12 1847.86 1097.12 1847.86 1097.12 1838.93 1096.77 1840.65 1095.4 1842.37 1094.02 1844.08 1093.68 1842.71 1092.65 1841.34 1091.61 1842.71 1090.93 1842.71 1089.21 1842.71 1087.49 1846.83 1088.17 1845.8 1087.14 1844.43 1085.77 1845.8 1080.95 1847.86 1083.7L1849.24 1080.61C1847.86 1079.23 1848.89 1078.89 1846.15 1077.86 1843.74 1076.83 1845.8 1071.67 1845.8 1071.67L1846.15 1068.23C1846.83 1063.76 1855.42 1063.41 1856.11 1067.2 1856.45 1070.98 1856.11 1073.73 1856.11 1073.73L1858.52 1074.76C1858.52 1074.76 1858.17 1077.51 1856.11 1077.51 1854.05 1077.51 1856.11 1078.89 1854.74 1080.26ZM2172.56 873.234C2170.15 875.642 2165 876.673 2165 876.673L2163.28 883.208 2160.53 885.615C2160.53 885.615 2161.22 887.335 2160.53 891.461 2159.85 895.588 2154.69 897.995 2154.69 897.995L2152.29 900.747C2152.29 900.747 2138.54 901.435 2136.82 900.747 2131.67 898.34 2135.11 891.461 2138.54 892.149 2141.98 892.837 2137.86 882.176 2137.86 882.176L2142.32 881.488C2142.32 881.488 2143.01 871.171 2144.73 871.171 2146.44 871.171 2144.04 867.732 2141.98 866.013 2139.57 864.293 2136.82 858.447 2134.42 859.134 2132.01 859.822 2123.08 859.134 2123.08 859.134L2121.36 862.573 2115.18 863.605C2115.18 863.605 2115.87 868.076 2114.49 869.452 2111.06 873.578 2098 882.176 2103.5 867.732L2105.21 864.293 2105.21 859.134 2094.91 858.447C2094.91 858.447 2089.75 856.727 2089.75 854.32 2089.75 851.912 2089.07 849.161 2089.07 849.161L2077.04 835.749 2062.61 834.029 2061.58 831.278 2052.99 830.247C2042.68 825.088 2033.4 829.559 2035.12 838.5 2036.84 847.098 2039.59 850.537 2034.09 850.537 2028.25 850.537 2027.22 846.066 2027.22 846.066 2027.22 846.066 2022.75 844.346 2022.75 846.754 2022.75 849.161 2021.03 853.632 2022.75 856.039 2024.47 858.447 2020.35 861.886 2018.63 860.166 2016.91 858.447 2012.44 853.288 2013.48 851.569 2014.51 849.849 2005.57 838.844 2014.51 837.125 2023.78 835.405 2013.82 830.247 2017.25 828.871L2021.72 826.463 2026.19 826.463 2028.94 824.056 2021.38 823.024 2016.91 822.337 2008.32 821.649C1999.73 827.495 1998.01 834.373 1998.01 834.373 1993.55 842.971 1982.55 830.934 1986.68 826.12 1990.8 821.305 1973.96 825.432 1971.21 827.839 1968.46 830.247 1959.87 828.871 1959.87 828.871 1958.16 834.029 1950.25 828.183 1952.32 824.744 1954.72 821.305 1954.72 818.897 1954.72 818.897L1951.97 818.21 1948.54 824.744C1940.63 824.744 1938.23 829.215 1939.95 832.31 1941.66 835.061 1937.54 831.622 1936.51 835.749 1935.48 839.876 1937.2 839.876 1940.63 841.595 1944.07 843.315 1938.92 843.315 1941.32 846.066 1943.73 848.817 1950.6 846.066 1946.47 850.193 1942.35 854.32 1934.45 852.6 1934.45 852.6 1933.76 857.759 1923.11 856.727 1921.74 855.008 1920.71 853.288 1912.12 842.971 1912.12 842.971L1901.12 842.283C1900.09 834.029 1906.27 838.156 1908.68 831.966 1911.08 825.432 1912.12 815.115 1912.12 815.115 1912.12 815.115 1902.84 814.427 1902.49 817.522 1901.81 820.273 1896.31 822.337 1896.31 822.337 1896.31 822.337 1891.84 824.056 1893.56 826.463 1895.28 828.871 1890.13 829.902 1890.13 829.902 1890.13 829.902 1891.16 833.686 1889.44 835.061 1884.97 839.876 1873.29 835.749 1871.57 834.029L1864.7 831.278 1857.83 826.807 1849.93 830.247 1847.52 832.654 1838.93 832.654 1838.24 839.532 1853.7 841.251 1854.74 855.695 1848.55 853.632 1844.43 853.632 1842.71 850.193 1839.27 849.505 1839.27 862.229 1842.71 864.981 1845.46 867.732 1851.3 868.42 1852.33 875.298 1866.76 875.986 1868.48 878.737 1877.07 879.425 1893.56 896.276 1892.53 901.435 1889.78 903.154C1890.81 907.281 1882.22 904.874 1882.22 904.874L1882.22 908.313 1886.35 909 1890.47 911.408 1896.31 901.435C1902.49 897.308 1905.59 903.154 1905.93 906.593 1906.62 910.032 1903.18 909.344 1903.18 909.344L1903.18 917.598 1906.62 918.63C1912.46 925.508 1904.21 929.635 1904.21 929.635L1902.49 935.481C1900.78 940.64 1894.59 939.608 1894.59 939.608L1892.19 943.047 1885.32 944.766 1898.72 946.486C1900.09 941.672 1903.53 940.64 1905.24 943.047 1906.96 945.454 1906.96 949.581 1906.96 949.581L1910.4 950.269 1909.71 956.803 1913.15 957.835 1913.15 976.406 1917.27 980.877C1924.14 978.125 1924.14 982.596 1920.71 985.003 1917.27 987.411 1919.67 997.728 1919.67 997.728L1916.93 1000.48 1916.93 1005.29 1913.49 1007.7 1913.49 1014.24C1907.65 1011.48 1900.78 1012.52 1899.06 1014.24 1893.91 1010.8 1882.91 1011.83 1882.91 1014.92 1886.35 1019.39 1878.79 1020.77 1878.79 1020.77L1874.66 1025.24C1877.41 1031.09 1871.92 1031.77 1871.92 1031.77L1871.92 1042.78 1865.04 1049.31 1865.73 1064.45C1865.73 1068.57 1874.32 1068.92 1876.04 1066.85 1877.76 1064.45 1884.63 1071.67 1884.63 1071.67L1889.78 1071.67 1890.81 1061.35 1887.38 1059.63 1887.38 1042.78 1893.22 1036.24C1900.09 1033.84 1897.68 1051.38 1897.68 1053.1 1898.37 1059.63 1901.12 1058.94 1903.87 1057.57 1909.71 1055.16 1904.9 1064.1 1900.43 1063.41 1895.97 1062.73 1898.72 1069.26 1898.72 1069.26L1901.46 1070.29 1896.31 1074.42 1891.84 1079.58 1886 1077.86 1879.13 1077.17 1876.73 1073.04 1872.6 1072.36 1871.92 1080.61 1869.17 1084.05 1862.29 1090.93C1871.57 1090.93 1861.26 1097.46 1858.86 1097.46 1864.01 1099.18 1858.17 1104.34 1845.12 1100.21L1845.12 1104.34 1840.65 1105.03 1844.77 1109.5 1849.24 1110.18 1847.52 1120.16C1847.52 1127.72 1828.62 1122.57 1826.9 1120.85L1826.22 1131.16 1822.78 1131.85 1823.47 1138.73 1822.78 1148.7 1828.97 1147.67 1828.97 1151.8 1844.43 1152.48 1866.76 1128.76 1879.82 1126C1880.85 1120.16 1886.69 1127.04 1886.69 1127.04 1892.53 1126.35 1893.56 1130.47 1893.56 1130.47L1901.12 1131.51C1907.31 1133.23 1903.53 1133.91 1903.87 1136.32 1904.56 1139.76 1907.31 1138.73 1907.31 1138.73L1908.34 1131.16 1911.77 1131.85 1908.34 1127.72 1902.15 1124.97 1895.28 1122.22C1890.81 1115.69 1896.31 1117.06 1901.12 1117.75L1908.68 1117.75C1908.68 1117.75 1917.27 1129.44 1917.27 1132.19 1917.27 1134.95 1921.39 1135.63 1921.39 1135.63L1926.55 1134.95 1928.26 1139.07 1933.42 1139.07 1935.14 1142.51 1945.44 1142.51 1946.13 1137.35 1936.51 1135.63 1935.82 1129.79 1928.95 1128.07C1926.55 1118.09 1930.67 1115.34 1933.42 1119.81L1936.85 1120.5 1935.82 1111.9 1939.95 1110.87 1938.92 1098.84 1935.48 1097.8 1935.48 1093.68 1949.91 1094.36C1948.88 1086.8 1950.6 1083.36 1950.6 1083.36L1954.72 1083.36 1955.41 1086.11 1972.93 1087.83 1985.3 1073.73C1984.61 1072.7 1986.68 1072.01 1985.3 1070.64 1983.58 1068.92 1981.18 1070.64 1978.43 1068.92 1975.68 1067.2 1978.43 1057.22 1977.74 1055.16 1977.05 1052.75 1987.36 1049.31 1985.64 1054.47 1983.93 1059.63 1985.64 1062.04 1985.64 1062.04 1993.2 1055.16 1999.39 1062.73 1998.7 1064.45 1998.01 1066.16 2002.82 1067.88 2005.57 1066.16 2008.32 1064.45 2011.76 1071.32 2010.73 1074.76 2009.7 1078.2 1999.39 1077.51 1998.7 1074.07 1998.01 1070.64 1996.3 1071.67 1995.26 1073.39 1994.23 1075.11 1989.08 1076.14 1985.99 1074.42 1985.3 1074.07 1985.3 1073.73 1984.96 1073.39L1972.59 1087.49 1973.27 1087.49C1980.15 1091.61 1976.71 1096.77 1974.31 1097.8 1971.9 1098.84 1968.12 1098.84 1968.12 1098.84L1967.09 1101.24 1952.32 1102.27 1951.28 1108.12C1943.73 1107.09 1940.98 1115 1942.7 1119.13 1944.41 1123.25 1942.7 1126.69 1942.7 1126.69L1948.88 1129.44 1956.78 1127.04C1957.81 1121.19 1962.97 1120.16 1967.78 1116.72 1972.24 1113.28 1979.8 1123.25 1977.4 1127.72 1974.99 1132.19 1974.99 1134.26 1974.99 1134.26L1975.68 1139.42 1969.84 1141.82 1965.37 1144.23 1964.69 1146.98 1949.22 1146.98 1946.47 1149.73 1938.92 1150.42 1936.51 1153.86 1931.36 1154.55C1931.36 1154.55 1922.77 1158.67 1926.2 1163.15 1929.64 1167.96 1911.77 1167.27 1907.99 1160.74 1906.96 1166.58 1900.43 1161.43 1900.43 1161.43L1894.25 1159.71 1893.56 1151.11C1892.53 1145.26 1881.54 1145.26 1882.22 1149.39 1882.91 1153.52 1861.61 1151.11 1861.61 1151.11L1854.74 1154.55 1848.55 1158.33 1847.86 1161.08 1837.56 1162.11 1833.09 1164.52 1831.37 1161.08 1826.9 1161.08 1822.44 1167.62C1810.41 1168.3 1799.07 1175.18 1800.1 1177.93 1801.14 1180.68 1795.64 1183.78 1795.64 1183.78L1790.48 1185.5 1787.05 1190.66 1780.18 1193.07 1779.15 1205.1 1775.71 1207.51 1775.71 1212.67 1771.59 1213.7 1771.59 1216.45 1765.75 1217.14 1769.18 1225.74 1773.65 1228.14C1781.55 1229.18 1778.11 1239.15 1778.11 1239.15L1782.58 1239.84 1784.99 1246.37 1789.45 1255.66C1791.17 1262.53 1796.33 1260.81 1798.73 1260.47 1801.14 1259.78 1803.2 1267.35 1803.2 1267.35L1825.87 1268.04C1825.87 1268.04 1824.84 1270.44 1828.62 1271.48 1832.75 1272.51 1858.86 1273.88 1859.89 1272.16 1858.86 1267 1874.32 1265.63 1880.5 1270.44 1886.69 1274.91 1895.28 1272.16 1895.28 1272.16L1903.87 1282.48 1909.71 1295.21 1919.33 1297.96 1926.2 1299.68 1928.61 1309.65 1933.76 1310.34 1935.48 1316.87C1941.66 1321.34 1933.76 1331.31 1933.76 1331.31L1933.76 1344.04 1938.23 1346.45 1937.54 1351.26 1945.1 1358.83 1953.69 1359.52 1975.34 1382.56 1992.52 1387.72 1995.26 1397 1999.73 1396.31 2003.17 1393.56 2016.91 1392.87 2023.78 1386.34 2031.34 1385.31 2094.91 1331.31 2089.07 1327.88 2089.07 1315.15C2099.37 1307.59 2100.06 1294.17 2090.1 1293.14 2082.88 1292.11 2085.97 1284.54 2092.84 1283.17L2096.97 1281.45 2096.97 1276.29 2110.02 1264.25 2110.02 1254.97 2081.51 1231.24C2068.79 1226.77 2081.51 1198.91 2090.1 1199.26 2098.69 1199.94 2089.41 1156.27 2089.41 1156.27L2084.94 1153.86 2085.97 1139.76 2079.79 1139.76 2069.48 1153.17 2066.73 1162.46C2065.7 1174.49 2030.31 1172.43 2028.59 1170.71 2026.88 1168.99 2014.85 1163.83 2014.85 1163.83 2014.85 1163.83 2005.57 1156.27 2003.85 1158.67 2002.14 1161.08 1994.23 1155.92 1994.23 1157.64 1994.23 1159.36 1986.68 1153.52 1986.68 1153.52L1975.34 1149.39 1983.93 1147.67 1982.21 1140.79 1996.98 1148.36C1998.7 1150.77 2006.26 1150.08 2006.26 1150.08L2008.66 1152.83C2008.66 1152.83 2013.13 1152.14 2016.22 1155.58 2018.97 1159.02 2034.09 1156.27 2034.09 1156.27L2038.21 1159.71 2044.4 1162.11 2062.27 1162.8 2062.95 1151.8 2066.39 1148.36 2065.7 1141.48 2069.82 1138.04 2069.82 1132.19 2073.26 1131.16 2073.95 1118.44 2076.7 1117.75 2076.7 1089.89 2068.11 1081.64C2067.42 1084.39 2058.49 1084.39 2058.49 1084.39 2058.49 1084.39 2056.08 1088.52 2054.36 1088.52 2052.64 1088.52 2056.77 1093.68 2055.39 1097.12 2054.36 1100.56 2049.55 1100.56 2049.55 1100.56L2040.96 1102.96 2038.56 1105.71 2029.28 1105.71 2028.25 1098.15 2038.56 1095.4 2044.4 1092.65 2047.15 1086.8C2047.83 1080.95 2054.71 1081.64 2054.71 1081.64 2054.71 1081.64 2067.76 1070.64 2068.45 1065.48 2069.14 1060.32 2073.6 1045.87 2081.51 1045.87L2096.28 1045.87C2102.12 1043.47 2100.4 1035.9 2100.4 1035.9L2107.96 1034.87 2108.99 1039C2108.99 1039 2119.3 1040.03 2120.33 1038.31 2121.36 1036.59 2123.77 1032.46 2126.52 1034.18 2129.27 1035.9 2138.54 1030.05 2138.54 1030.05 2139.23 1025.93 2153.32 1027.65 2153.32 1027.65L2155.04 1022.49C2155.04 1022.49 2145.41 1009.08 2143.7 1009.08 2141.98 1009.08 2132.7 1000.82 2131.67 1003.92 2122.39 1001.51 2123.08 988.786 2123.08 988.786L2119.64 980.532C2119.64 975.718 2111.06 966.089 2109.34 967.12 2100.75 960.586 2106.93 953.364 2109.34 952.676 2111.74 951.989 2117.24 944.079 2117.24 944.079L2119.99 935.825 2129.61 933.074 2130.64 925.508 2125.49 924.82C2125.49 924.82 2131.33 914.503 2134.08 914.503 2136.82 914.503 2155.72 914.503 2157.44 913.471 2159.16 912.439 2162.59 903.154 2162.59 901.435 2162.59 899.715 2167.06 899.027 2168.78 898.683 2170.5 897.995 2174.62 893.525 2175.65 891.117 2178.74 885.271 2174.96 870.827 2172.56 873.234ZM2330.95 1058.6C2330.61 1057.57 2330.27 1056.54 2329.24 1056.19 2326.83 1055.16 2322.36 1056.88 2320.3 1058.25L2322.36 1061.01C2324.43 1059.63 2327.52 1058.94 2327.86 1059.29L2327.86 1058.94ZM2345.73 1127.72 2342.29 1127.38C2341.95 1130.13 2342.64 1133.57 2345.38 1133.91L2346.07 1130.47C2346.07 1130.47 2345.73 1129.1 2345.73 1127.72ZM2358.44 1113.97C2359.47 1117.41 2360.5 1120.85 2360.5 1121.19L2363.59 1119.81C2363.59 1119.81 2362.22 1116.37 2361.53 1112.94ZM2366 1111.22 2366 1110.53C2366 1109.5 2365.66 1108.12 2364.97 1106.75L2361.88 1108.46C2362.22 1109.15 2362.22 1110.18 2362.56 1110.87 2362.56 1111.9 2362.91 1112.94 2363.59 1113.62 2364.28 1113.97 2364.97 1114.31 2366 1113.97L2365.31 1110.53C2365.31 1110.87 2365.66 1110.87 2366 1111.22ZM2336.79 1135.98C2339.2 1134.6 2342.29 1131.51 2341.95 1138.04 2341.6 1144.57 2338.86 1142.51 2336.79 1144.57 2334.73 1146.64 2333.36 1138.04 2336.79 1135.98ZM2199.01 1180.68 2199.36 1175.53 2204.86 1176.21 2204.51 1181.03ZM2199.36 1192.03C2198.67 1188.94 2195.23 1187.91 2194.89 1187.91L2193.86 1191.35C2194.2 1191.35 2194.55 1191.69 2194.89 1192.03L2195.58 1195.13C2195.23 1195.47 2194.89 1195.82 2194.89 1196.16L2197.3 1198.57C2199.01 1195.82 2199.7 1194.1 2199.36 1192.03ZM1772.27 1299.33 1768.84 1302.43 1767.12 1303.8 1768.84 1305.18 1772.96 1307.93 1775.02 1305.18 1772.62 1303.46 1774.34 1302.08ZM1812.82 1340.94 1811.44 1344.04 1814.88 1345.76 1813.85 1347.13 1816.25 1349.54 1820.72 1345.07 1818.66 1343.7ZM1655.11 594.672 1658.54 598.111 1656.14 600.518 1652.7 597.079ZM1758.87 703.002 1762.31 705.753 1760.25 708.504 1756.81 705.753ZM1745.82 705.409 1746.5 711.943 1755.09 711.943C1758.53 711.943 1752.35 707.817 1752.35 707.817 1752.35 707.817 1745.47 708.504 1745.82 705.409ZM1934.11 543.774 1928.26 543.086 1927.92 546.525 1932.73 546.869 1936.51 552.716 1939.26 550.652 1935.48 544.462 1934.79 543.774ZM1949.57 422.032 1947.85 425.127 1952.32 427.879 1953.35 428.566 1954.03 427.879 1960.56 423.752 1958.5 421 1953.35 424.439ZM1980.15 438.539 1977.4 435.444 1974.99 438.196 1980.15 443.354 1981.18 442.323 1987.02 437.508 1984.61 434.757ZM1790.48 559.25C1790.14 557.187 1801.82 556.842 1803.54 558.562 1805.26 560.281 1804.23 563.377 1809.38 563.377 1814.54 563.377 1812.13 566.816 1811.79 568.535 1811.1 570.255 1805.6 569.567 1804.91 567.847 1804.23 566.128 1795.64 565.44 1795.64 565.44 1795.64 565.44 1791.17 562.001 1790.48 559.25ZM1856.11 552.716C1865.04 555.467 1868.14 553.403 1868.82 550.996 1869.51 548.589 1869.85 548.245 1873.29 547.557 1876.73 546.869 1872.6 539.991 1869.17 540.679 1865.73 541.367 1862.29 539.647 1861.61 536.552 1860.92 533.801 1855.42 526.235 1854.74 532.081 1854.05 537.928 1850.61 537.928 1851.3 542.055 1852.33 545.838 1854.05 552.028 1856.11 552.716ZM1912.8 454.703C1911.43 449.544 1904.21 461.237 1911.77 463.301 1919.33 465.708 1926.55 463.301 1926.55 463.301L1928.26 459.861 1956.78 460.549C1959.19 458.142 1960.22 454.703 1960.22 454.703 1960.22 454.703 1967.09 452.296 1969.84 453.671 1972.59 454.703 1970.53 445.417 1967.43 446.793 1964.69 447.825 1958.84 447.481 1958.84 447.481L1948.54 447.481C1947.85 443.354 1938.92 445.074 1938.23 447.481 1937.89 449.544 1934.45 450.232 1934.45 450.232L1921.39 451.264C1920.02 454.703 1913.49 457.11 1912.8 454.703ZM1913.83 483.247 1906.27 475.681 1906.27 469.147 1903.87 466.74 1901.46 458.486 1893.91 456.079 1886.35 458.83 1878.44 463.988 1869.85 465.02 1865.39 470.179 1883.6 471.898 1887.03 477.744 1900.09 478.776 1908.68 487.374C1916.58 490.813 1918.3 487.374 1913.83 483.247ZM1940.29 538.959 1942.7 533.457 1945.79 535.177 1943.38 540.335ZM2111.06 533.113C2110.02 528.642 2122.39 524.515 2125.49 527.954 2128.23 531.394 2136.48 532.081 2137.51 549.277 2137.86 555.467 2127.2 542.743 2127.2 542.743L2118.61 539.991C2113.8 538.959 2111.4 536.208 2111.06 533.113ZM2050.93 548.245C2049.21 553.403 2048.52 560.281 2045.77 560.281 2043.02 560.281 2044.05 567.847 2044.05 567.847 2044.05 567.847 2051.61 567.847 2053.68 568.535 2056.08 569.223 2056.08 575.07 2056.08 575.07 2064.67 574.382 2068.11 586.074 2067.08 589.169 2066.04 591.921 2070.51 591.921 2070.51 591.921 2070.51 591.921 2070.51 601.206 2069.48 603.613 2068.45 606.021 2077.04 607.74 2079.1 611.179 2081.51 614.618 2078.07 626.311 2076.35 626.999 2074.63 627.687 2080.82 629.406 2080.48 632.158 2079.79 634.909 2082.19 632.158 2082.88 636.972 2083.57 641.443 2084.6 651.416 2084.6 651.416L2092.5 652.104C2093.53 644.538 2108.31 644.194 2110.71 645.226 2120.33 648.665 2127.89 663.797 2127.89 667.236 2127.89 670.675 2121.71 671.363 2121.71 671.363L2122.74 688.214C2132.36 690.965 2140.6 705.065 2139.23 707.473 2138.2 709.88 2146.1 709.192 2146.1 709.192 2147.13 698.875 2157.1 702.314 2157.44 705.753 2158.13 709.192 2159.85 716.758 2159.85 716.758L2162.59 721.917 2166.72 726.043 2172.9 725.356 2174.62 728.795 2182.18 729.826C2182.18 729.826 2188.36 736.705 2189.05 738.424 2189.74 740.144 2198.33 739.456 2200.39 740.144 2202.79 740.831 2206.23 742.551 2206.57 745.302 2207.26 748.053 2210.7 752.868 2210.7 752.868 2210.7 752.868 2217.57 754.588 2218.26 756.995 2218.94 759.402 2221.69 764.561 2221.69 764.561L2227.53 769.375 2228.22 774.534 2234.4 775.222 2236.12 782.1 2246.43 781.412 2252.27 777.285C2259.83 773.158 2264.98 768 2265.33 765.593 2266.01 763.185 2267.05 754.588 2272.89 756.307 2278.73 758.027 2274.6 743.583 2274.6 743.583 2274.6 743.583 2266.7 737.736 2267.05 734.985 2267.73 732.234 2259.14 726.387 2259.49 723.98 2260.17 721.573 2251.93 717.102 2252.61 714.695 2253.3 712.287 2248.49 706.097 2248.49 706.097L2239.9 697.843 2238.87 692.685 2232 691.997 2218.26 675.146 2218.94 670.331 2214.82 669.643 2214.82 663.109 2210.7 660.702 2204.51 660.014 2191.8 646.258 2190.77 639.724 2184.58 639.724 2185.61 627.687C2189.74 622.528 2187.33 612.555 2187.33 612.555 2187.33 612.555 2179.43 616.682 2175.31 614.962 2171.18 613.243 2177.02 609.116 2177.02 609.116L2177.02 604.645 2173.59 601.206C2173.59 601.206 2163.97 602.238 2163.28 600.518 2162.59 598.799 2160.88 591.233 2160.88 591.233L2160.19 581.26 2156.07 579.54 2155.38 576.101 2149.19 576.789 2149.19 569.911 2145.76 568.879 2142.32 567.16 2141.63 560.281 2128.92 559.594 2124.8 553.747 2120.33 546.869 2105.9 545.838 2102.47 542.398 2096.62 541.367 2092.5 539.647 2090.78 542.398 2079.79 543.086 2079.1 546.525C2074.29 548.933 2051.61 546.525 2050.93 548.245ZM1945.79 544.806C1946.82 546.525 1953.69 548.245 1953.69 548.245 1958.16 548.245 1961.25 551.684 1961.25 553.403 1961.25 555.123 1967.43 554.435 1967.43 554.435L1968.12 550.308 1963.65 544.462 1959.53 541.711C1959.53 541.711 1953.35 541.023 1953.35 539.304 1953.35 537.928 1946.82 543.086 1945.79 544.806ZM1945.79 564.408 1941.32 563.377 1941.32 568.535 1947.51 569.223ZM2009.35 628.375 2009.35 623.904C2009.35 623.904 2008.66 619.433 2005.92 619.433 2003.17 619.433 1998.01 615.994 1999.04 613.587 2000.07 611.179 1989.42 608.772 1989.42 608.772 1989.42 608.772 1979.8 599.487 1983.24 600.518 1986.68 601.55 1984.96 596.392 1984.96 596.392 1984.96 596.392 1978.08 597.423 1976.37 597.079 1974.65 596.392 1975.34 591.233 1975.34 591.233 1975.34 591.233 1968.46 589.514 1968.46 591.233 1968.46 592.953 1970.87 592.953 1971.9 596.392 1972.93 599.831 1972.59 605.677 1977.74 606.709 1982.9 607.74 1983.93 609.116 1984.61 611.523 1985.3 613.931 1991.49 614.275 1991.49 614.275L1995.95 616.682ZM2013.82 643.85C2013.13 641.443 2012.1 633.533 2015.54 633.877 2018.97 634.565 2016.57 633.877 2020.69 635.597 2024.81 637.316 2025.16 632.845 2025.16 632.845L2031.34 632.845 2039.24 639.38 2038.21 644.538 2032.37 645.226C2029.62 640.755 2023.78 642.475 2024.81 646.258 2025.84 650.384 2022.06 657.95 2019.66 658.294 2017.25 658.982 2010.04 658.982 2010.38 655.543 2011.41 652.104 2013.82 643.85 2013.82 643.85ZM2107.96 722.948 2112.09 710.224C2106.25 709.192 2107.62 702.658 2107.62 702.658 2106.93 697.499 2099.03 691.653 2096.28 693.373 2093.53 695.092 2094.56 681.336 2094.56 681.336 2094.56 681.336 2099.72 677.897 2102.12 679.616 2104.53 681.336 2082.54 650.729 2078.07 653.48 2073.6 656.231 2063.3 650.729 2063.64 645.226 2064.33 640.067 2043.02 622.528 2043.02 622.528 2043.02 622.528 2036.15 618.057 2035.12 621.496 2034.09 624.935 2031.69 627.343 2035.12 629.062 2038.56 630.782 2037.87 626.311 2041.99 630.094 2046.12 634.221 2053.33 639.38 2050.58 642.818 2047.83 646.258 2044.4 647.633 2044.4 647.633L2048.52 652.448 2054.71 652.448 2055.74 662.421C2055.74 662.421 2062.61 665.86 2064.33 669.987 2066.04 674.114 2066.04 676.521 2064.33 678.585 2062.61 680.992 2059.17 685.119 2059.86 688.902 2060.55 693.029 2065.01 694.748 2065.01 694.748L2069.48 695.436 2072.92 697.155 2072.92 704.721C2077.38 703.69 2084.94 709.88 2084.26 714.007 2083.57 718.134 2085.29 715.726 2091.13 719.853 2096.97 723.98 2095.25 724.668 2099.03 727.419 2102.81 729.826 2106.25 728.107 2107.96 722.948ZM1976.71 797.232C1976.71 798.951 1975.68 801.359 1979.12 802.046 1982.55 802.734 1988.74 799.639 1989.42 803.078 1990.11 806.517 1990.11 808.924 1994.58 810.644 1999.04 812.364 2002.14 813.051 2005.57 813.051 2009.01 813.051 2016.57 812.019 2016.57 812.019 2016.57 812.019 2024.81 813.395 2026.19 814.771 2032.37 821.305 2036.5 823.024 2038.21 819.929 2039.93 817.178 2037.53 810.644 2037.18 808.237 2036.5 805.829 2028.59 794.824 2025.84 797.232 2023.1 799.639 2022.41 797.232 2017.25 798.951 2012.1 800.671 2001.11 799.639 2000.76 797.232 2000.07 794.824 1992.17 793.793 1992.17 791.385 1992.17 788.978 1986.33 786.227 1987.02 789.666 1987.71 793.105 1982.9 794.824 1981.86 793.793 1980.15 792.417 1976.71 797.232 1976.71 797.232ZM1948.19 803.422 1947.51 807.549 1953.69 808.237C1953.69 808.237 1956.44 810.644 1956.44 812.364 1956.44 814.083 1960.56 815.802 1962.62 815.802 1965.03 815.802 1971.21 810.988 1971.21 810.988 1971.21 810.988 1973.96 802.734 1971.9 803.422 1969.5 804.11 1965.03 807.549 1964.34 804.11 1963.65 800.671 1956.78 802.39 1956.78 802.39ZM1918.64 809.956 1920.36 809.612 1921.39 812.707 1919.67 813.395ZM1920.71 804.453 1924.14 803.766 1925.17 808.924 1922.08 809.612ZM1930.33 805.141 1930.67 808.58 1943.04 808.237 1943.04 804.798ZM2041.65 802.39 2047.49 801.702 2047.83 805.141 2041.99 805.829ZM2056.77 815.115 2058.49 810.988 2061.58 812.364 2059.86 816.49ZM2106.59 756.995 2112.43 756.651 2112.77 760.09 2106.93 760.434ZM2116.21 760.434 2119.64 760.434 2119.64 763.185 2116.21 763.185ZM2126.52 711.599 2123.08 711.943 2122.39 706.785 2125.83 706.441ZM2123.08 783.819 2126.52 783.819 2126.52 787.946 2123.08 787.946ZM2130.64 785.883 2133.73 787.258 2132.01 791.041 2128.92 789.322ZM2113.8 740.144C2117.24 740.144 2112.77 753.556 2121.71 752.18 2130.98 751.149 2122.39 756.307 2129.27 756.651 2136.14 757.339 2134.42 751.492 2136.82 747.365 2139.23 743.239 2137.86 740.831 2134.08 739.799 2129.95 738.768 2129.95 738.768 2128.92 733.953 2127.89 729.482 2123.08 728.107 2123.08 728.107L2121.36 721.229 2113.8 725.7 2106.25 735.673C2106.25 743.926 2110.37 740.144 2113.8 740.144ZM2136.14 771.783C2140.6 769.375 2150.57 769.375 2149.88 765.936 2149.19 762.497 2155.72 761.466 2155.72 761.466L2157.44 768.344 2162.59 771.783 2163.28 778.317C2163.28 778.317 2165 777.285 2158.81 779.005 2152.63 780.724 2156.41 783.476 2156.41 783.476L2142.67 784.163 2140.95 778.317ZM2062.27 820.273C2065.01 819.585 2071.89 819.242 2073.26 820.961 2074.29 822.681 2069.14 825.088 2069.14 825.088L2062.27 826.12C2060.2 823.368 2059.52 820.961 2062.27 820.273ZM2099.03 815.115C2102.12 818.21 2081.85 817.522 2081.85 815.115 2081.85 812.707 2083.57 804.798 2088.72 806.517 2093.88 808.237 2094.56 796.2 2094.56 796.2 2094.56 796.2 2090.1 796.888 2093.88 794.48 2098 792.073 2093.88 788.634 2092.16 786.915 2090.44 785.195 2088.72 782.1 2088.72 782.1L2096.62 782.1C2100.06 779.692 2101.09 768.688 2101.09 768.688 2107.96 771.095 2111.4 766.28 2111.4 766.28 2111.4 766.28 2112.43 769.719 2114.83 772.814 2117.24 775.566 2108.99 776.941 2112.09 778.661 2114.83 780.38 2116.21 785.539 2114.83 787.258 2113.8 788.978 2107.28 787.946 2107.28 785.539 2107.28 783.131 2104.87 788.29 2107.28 791.385 2109.68 794.136 2104.53 798.263 2103.15 798.263 2102.12 798.263 2094.56 799.295 2100.75 803.078 2106.93 806.517 2113.8 804.798 2113.8 804.798 2113.8 804.798 2118.96 804.11 2120.68 807.205 2122.39 809.956 2119.99 810.644 2117.24 810.644 2114.49 810.644 2100.75 809.612 2100.75 809.612 2100.75 809.612 2097.31 813.395 2099.03 815.115ZM2165.69 749.429C2163.97 747.022 2162.25 745.302 2159.85 744.27 2157.44 743.239 2155.72 741.863 2153.66 741.863 2151.26 741.863 2149.19 739.456 2150.22 736.705 2151.26 733.953 2148.51 732.578 2148.51 730.17 2148.51 727.763 2150.22 727.763 2152.97 729.482 2155.72 731.202 2155.38 731.89 2157.44 734.641 2159.85 737.392 2160.88 740.487 2163.28 739.799 2165.69 739.112 2167.4 744.958 2169.47 743.239 2171.87 741.519 2171.18 747.365 2171.18 747.365ZM2160.19 754.931C2161.91 757.339 2165.34 759.058 2165.34 761.466 2165.34 763.873 2164.31 765.593 2167.75 765.936 2171.18 766.624 2173.59 765.248 2174.62 768.344 2175.65 771.095 2175.65 775.91 2175.31 778.317 2174.62 780.724 2175.99 784.163 2178.74 784.163 2181.49 784.163 2182.18 784.851 2182.18 786.57 2182.18 788.29 2185.61 780.036 2185.61 780.036 2182.87 777.629 2180.46 772.471 2180.46 772.471 2180.46 772.471 2177.71 764.217 2177.71 763.185 2177.71 762.153 2173.59 760.778 2171.87 760.434 2170.15 759.746 2167.4 754.588 2167.4 754.588ZM2197.3 848.817 2194.89 843.659C2194.89 843.659 2194.89 839.188 2195.92 836.781 2196.95 834.373 2193.52 832.31 2191.8 831.622 2190.08 830.934 2190.77 826.463 2190.08 824.056 2189.39 821.649 2185.61 819.929 2185.61 819.929 2185.61 819.929 2184.58 811.332 2184.58 809.612 2184.58 807.893 2179.43 805.485 2181.15 803.766 2182.87 802.046 2183.9 799.639 2185.61 798.607 2187.33 797.575 2183.9 789.322 2186.65 791.041 2189.39 792.761 2189.39 795.856 2190.77 797.919 2191.8 800.327 2190.08 808.237 2193.17 809.956 2195.92 811.676 2192.49 817.522 2197.3 817.522 2201.76 817.522 2199.01 828.527 2199.01 828.527 2199.01 828.527 2197.98 836.781 2200.73 837.125 2203.48 837.812 2201.76 851.569 2201.76 851.569ZM2199.01 893.181 2200.73 889.742 2203.82 891.461 2202.11 894.901ZM2202.79 874.266 2206.23 874.61 2205.89 879.425 2202.45 878.737ZM2195.58 855.008 2191.11 854.32 2180.8 856.039 2174.96 867.044C2174.96 867.044 2177.71 868.764 2180.12 872.891 2182.52 877.017 2183.55 900.747 2176.68 904.874 2169.81 909 2177.37 906.593 2177.37 906.593L2176.34 919.318C2178.06 925.164 2180.8 922.069 2182.52 919.318 2184.24 916.566 2185.96 915.878 2188.36 912.784 2190.77 910.032 2194.2 904.53 2194.55 900.747 2195.23 896.62 2197.98 890.43 2196.27 888.71 2194.55 886.99 2197.98 878.737 2197.98 878.737 2197.98 878.737 2200.39 873.922 2197.98 869.452 2195.58 864.637 2198.67 859.478 2200.39 857.415ZM2170.5 795.856 2161.91 795.856C2161.91 795.856 2164.66 796.888 2156.75 789.322 2148.85 781.756 2143.7 791.041 2143.7 791.041L2134.42 792.073 2134.42 801.359 2129.95 803.078 2130.64 808.924 2136.82 808.237C2136.82 808.237 2136.82 815.115 2138.54 812.364 2140.26 809.612 2154.69 813.051 2153.32 819.929 2152.97 822.681 2167.75 830.247 2166.03 839.532 2173.59 840.564 2171.87 848.13 2171.87 848.13L2181.49 849.161 2184.24 843.315 2186.99 844.003 2186.99 840.564 2180.8 838.844 2179.77 820.273 2175.65 817.522 2176.68 812.707 2172.21 810.988 2174.62 803.422ZM2149.19 938.232 2152.63 936.857 2151.26 934.106 2150.57 932.042 2148.85 933.074 2144.73 935.481 2140.95 933.074 2139.23 936.169 2143.7 938.92 2144.73 939.608 2145.41 938.92 2148.85 937.201ZM2164.31 930.667 2170.5 931.698 2171.18 928.259 2165 927.228ZM2152.63 1004.95C2150.22 1001.51 2163.97 995.664 2166.37 1002.54 2168.78 1009.42 2166.37 1008.39 2163.97 1007.7 2161.91 1007.01 2156.07 1009.42 2152.63 1004.95ZM2093.53 1116.72 2097.65 1116.72 2097.65 1127.72 2093.53 1127.72ZM2119.99 1222.99C2118.96 1227.46 2114.83 1229.86 2112.43 1228.14 2110.02 1226.42 2115.18 1230.89 2116.55 1233.3 2117.58 1235.71 2121.02 1235.71 2122.39 1233.3 2123.42 1230.89 2123.08 1225.74 2124.11 1223.33 2125.14 1221.27 2120.68 1220.58 2119.99 1222.99ZM2132.7 1246.37 2137.86 1248.78 2138.54 1258.75C2145.41 1265.63 2167.75 1259.78 2167.75 1258.06 2167.75 1256.34 2166.72 1236.74 2166.72 1236.74L2163.97 1233.99 2163.28 1219.55C2165.69 1211.98 2152.29 1200.98 2151.26 1203.38 2150.22 1205.79 2142.67 1204.07 2142.67 1206.13 2142.67 1208.54 2138.2 1219.89 2140.26 1224.02 2142.67 1228.14 2138.54 1228.14 2137.86 1232.27 2137.17 1235.71 2131.33 1242.59 2132.7 1246.37ZM1971.9 1122.22 1970.18 1119.47 1965.37 1122.22 1967.43 1125.32ZM1884.63 1133.57C1881.88 1136.32 1882.57 1138.73 1884.63 1140.79M1902.49 1147.67 1906.27 1141.14 1903.18 1140.1 1899.06 1142.86 1900.78 1144.57ZM1899.06 966.433C1901.46 971.591 1900.78 979.157 1909.37 985.003 1912.12 987.067 1907.65 990.85 1904.9 989.13 1902.15 987.411 1893.91 974.686 1893.91 974.686L1893.91 967.12C1895.62 962.649 1898.03 964.369 1899.06 966.433ZM1868.82 996.696C1870.2 1001.85 1869.85 988.443 1872.26 989.13 1874.66 989.818 1872.95 980.877 1872.95 980.877L1862.64 988.443C1867.45 989.13 1868.14 994.289 1868.82 996.696ZM1837.9 1033.84C1837.21 1040.72 1828.62 1043.12 1828.62 1043.12L1822.44 1041.4 1819 1038.65 1818.31 1030.4 1823.47 1029.71 1824.5 1033.15ZM1828.62 963.681 1828.62 955.428 1827.59 947.862 1819 943.735 1812.82 949.581 1811.79 957.835 1811.79 962.994 1805.95 964.025 1804.91 979.845 1800.45 981.564 1801.14 987.411 1788.77 990.85 1787.74 998.416 1783.27 1001.17 1780.86 1008.04 1778.11 1024.9C1778.11 1024.9 1783.27 1034.87 1786.02 1030.05 1788.77 1025.58 1793.58 1024.9 1793.58 1024.9L1795.29 1020.77 1810.76 1021.46C1811.79 1014.92 1819.35 1017.33 1819.35 1020.43 1819.35 1023.18 1825.19 1021.11 1825.19 1021.11L1829.31 1014.58 1835.49 1014.58 1836.18 1007.7 1838.93 1005.98 1838.93 995.664C1848.21 992.913 1846.83 983.972 1846.83 983.972L1849.24 981.22 1848.21 977.093C1843.74 975.374 1845.8 971.247 1848.89 972.279 1851.64 973.311 1844.77 967.12 1844.77 967.12 1841.34 969.872 1838.59 963.681 1838.59 963.681ZM1802.51 939.952 1798.04 940.984 1787.74 950.957 1787.05 955.428 1784.3 959.555 1780.86 968.152 1768.84 968.84 1766.43 979.157 1768.15 988.098 1778.46 992.225 1779.49 986.379 1782.92 984.659 1783.61 978.813 1786.02 974.686 1789.45 970.559 1790.48 966.089 1796.33 962.649 1803.2 961.274 1805.95 957.835 1806.98 950.957 1807.66 945.798 1810.07 942.015 1816.94 939.264 1816.94 928.259 1813.5 928.259 1812.82 924.132 1806.63 923.444 1805.26 926.54 1802.51 926.54 1801.82 931.01 1805.26 931.01 1805.95 934.793 1803.54 936.857ZM1621.09 1009.76C1621.09 1011.14 1620.06 1012.17 1618.69 1012.17 1617.31 1012.17 1616.28 1011.14 1616.28 1009.76 1616.28 1008.39 1617.31 1007.36 1618.69 1007.36 1620.06 1007.36 1621.09 1008.39 1621.09 1009.76ZM1620.75 1076.14C1620.75 1077.51 1619.72 1078.55 1618.34 1078.55 1616.97 1078.55 1615.94 1077.51 1615.94 1076.14 1615.94 1074.76 1616.97 1073.73 1618.34 1073.73 1619.72 1073.73 1620.75 1074.76 1620.75 1076.14ZM1614.56 1066.51C1615.94 1066.51 1616.97 1065.48 1616.97 1064.1 1616.97 1062.73 1615.94 1061.69 1614.56 1061.69 1613.19 1061.69 1612.16 1062.73 1612.16 1064.1 1612.16 1065.48 1613.19 1066.51 1614.56 1066.51ZM1607.69 1080.26 1602.88 1080.95 1602.88 1085.08 1607.69 1084.39ZM1612.85 1050.69 1608.72 1051.38 1608.38 1055.85 1612.85 1056.54ZM1611.82 1019.39 1612.16 1015.27 1603.57 1021.11 1598.07 1017.67 1598.07 1031.43 1607.01 1043.81 1610.44 1035.56 1611.82 1030.4 1607.69 1028.68 1608.38 1020.08ZM1608.38 970.559 1598.07 969.528 1598.76 973.654 1601.51 973.654C1605.98 981.908 1602.2 1001.51 1602.2 1001.51 1602.2 1001.51 1595.32 1002.2 1594.29 998.76 1593.26 995.321 1590.17 1006.33 1592.57 1008.04 1594.98 1009.76 1602.88 1008.04 1603.57 1014.58 1604.26 1021.11 1608.72 1010.45 1608.72 1010.45ZM1838.59 855.695 1832.4 855.695 1831.37 842.971 1834.81 840.564 1834.81 834.029 1814.88 834.029 1814.19 827.495 1816.94 825.776 1812.47 824.056 1809.04 828.527 1808.01 833.686 1802.17 834.717 1802.17 837.468 1798.04 837.468 1798.04 845.034 1781.89 858.447 1749.94 857.415C1747.54 862.573 1742.04 856.727 1742.04 856.727 1741.01 853.288 1732.76 856.727 1732.76 856.727 1732.76 863.261 1721.77 853.976 1721.77 853.976L1701.84 839.532C1690.5 829.215 1673.32 842.283 1672.63 845.378 1673.32 853.632 1659.58 847.098 1659.58 847.098 1659.58 847.098 1648.24 843.659 1646.52 848.13 1644.8 852.6 1637.24 851.569 1637.24 851.569L1636.21 853.976 1630.37 855.008 1629.34 858.447 1622.47 859.478 1639.65 858.79C1644.11 858.103 1637.93 868.764 1635.18 868.076L1627.28 868.764 1624.53 871.515 1616.97 871.515 1613.53 876.33 1602.54 875.642C1602.54 875.642 1596.35 880.8 1596.7 882.52 1597.39 884.239 1595.67 889.398 1593.95 889.398 1592.23 889.398 1588.8 894.556 1589.83 896.276 1590.86 897.995 1586.39 903.842 1586.39 903.842L1585.36 909.688 1581.92 910.72 1581.92 926.54 1575.05 931.354 1575.05 938.232 1564.74 949.237 1565.77 958.523 1557.19 967.808 1558.22 977.093 1553.06 978.813 1552.03 982.94 1549.63 994.976 1555.47 995.664C1558.22 994.633 1557.87 1003.23 1555.47 1004.26 1553.06 1005.29 1546.88 1007.7 1550.31 1010.11 1553.75 1012.52 1541.04 1011.83 1541.04 1008.39 1541.04 1004.95 1534.16 1001.85 1532.45 1003.23 1530.73 1004.26 1527.98 998.072 1527.98 998.072 1521.8 991.537 1502.21 998.76 1502.21 998.76L1499.46 1008.04C1493.28 1009.08 1489.15 1019.74 1489.15 1019.74 1484 1021.46 1479.88 1027.99 1481.6 1029.71 1483.31 1031.43 1478.85 1032.12 1478.85 1032.12L1478.85 1044.84 1476.1 1048.97 1476.78 1062.73C1480.22 1062.73 1479.53 1069.26 1479.53 1069.26 1473.69 1069.95 1475.07 1077.51 1475.07 1077.51L1463.04 1081.64 1460.64 1085.08 1445.86 1084.39 1441.74 1088.52 1437.62 1084.39 1409.1 1084.39 1408.07 1081.64 1402.23 1080.61 1401.54 1074.07 1392.95 1074.76 1391.23 1078.2 1381.95 1078.89C1382.64 1084.74 1372.68 1093.33 1371.65 1090.93 1370.61 1088.52 1364.09 1082.33 1367.18 1080.95 1369.93 1079.92 1377.49 1078.55 1377.49 1078.55L1377.49 1074.42 1356.18 1073.73 1353.78 1077.17 1345.19 1077.86 1345.19 1087.14 1341.07 1088.17C1338.32 1089.89 1341.75 1096.43 1341.75 1096.43 1345.88 1100.56 1341.07 1106.75 1341.07 1106.75 1337.63 1110.18 1343.81 1116.72 1343.81 1116.72 1348.28 1117.75 1341.07 1121.19 1341.07 1121.19 1342.1 1127.04 1345.53 1128.76 1345.53 1128.76 1342.1 1134.6 1347.94 1137.35 1347.94 1137.35L1348.62 1147.33 1352.75 1149.73 1352.75 1156.27 1355.15 1160.39 1364.43 1160.39 1363.74 1145.95C1355.84 1136.67 1370.61 1134.26 1371.3 1137.7 1371.99 1141.14 1378.17 1142.86 1378.17 1142.86 1379.2 1151.45 1389.17 1156.61 1391.92 1148.01 1394.67 1139.42 1397.07 1144.57 1398.79 1148.7 1400.51 1152.83 1411.5 1162.8 1411.5 1162.8L1420.09 1162.8 1421.12 1171.06C1430.74 1170.37 1433.84 1171.74 1437.62 1184.81 1441.74 1198.22 1452.39 1201.66 1452.39 1201.66L1460.29 1200.98C1460.29 1194.1 1468.19 1202.01 1468.19 1205.79 1468.19 1209.23 1483.66 1222.64 1483.66 1222.64L1499.12 1226.08 1513.55 1237.77 1524.54 1236.74 1529.01 1236.74C1531.76 1226.77 1545.5 1237.43 1546.88 1240.87 1547.91 1244.31 1557.19 1250.15 1558.22 1247.4 1559.25 1244.65 1565.77 1246.37 1566.81 1254.97 1567.84 1263.57 1571.96 1261.85 1571.96 1261.85L1604.6 1261.16 1615.94 1251.19 1645.14 1250.5C1659.92 1249.81 1650.99 1229.52 1647.89 1229.52 1642.74 1225.39 1649.61 1208.54 1649.61 1208.54L1608.04 1169.68C1598.42 1169.68 1607.01 1155.58 1607.01 1155.58 1614.56 1150.77 1605.29 1143.54 1605.29 1143.54 1606.32 1136.67 1601.17 1128.41 1601.17 1128.41 1590.86 1121.53 1593.61 1108.12 1593.61 1108.12L1593.61 1098.84C1585.02 1090.58 1597.04 1089.55 1597.04 1089.55 1601.17 1082.67 1594.29 1077.51 1594.29 1077.51L1593.61 1069.95 1584.33 1068.92 1583.3 1041.75 1562.68 1012.17C1558.56 1011.14 1561.65 1003.92 1561.65 1003.92 1566.81 1001.17 1560.62 993.945 1560.62 993.945L1559.93 981.22 1571.96 980.189 1574.71 975.718 1580.55 975.718 1579.86 960.586C1582.61 953.02 1589.48 957.147 1589.48 957.147L1597.39 957.835 1601.85 949.237 1602.88 942.359 1596.7 941.672C1589.83 937.545 1593.26 922.413 1593.26 922.413 1604.26 906.249 1616.63 915.535 1616.63 915.535L1624.53 914.847C1636.55 923.101 1625.56 937.888 1625.56 937.888 1623.15 941.327 1624.53 952.332 1624.53 952.332L1627.28 970.903 1619.72 977.438C1613.53 980.877 1613.53 989.13 1620.41 990.85 1624.87 991.537 1623.15 1002.54 1616.28 994.976 1605.98 994.976 1622.12 1004.26 1617.31 1001.85 1627.62 1007.01 1625.22 997.384 1625.22 997.384L1638.96 986.379C1644.11 982.252 1653.39 994.976 1653.39 996.696 1653.39 998.416 1676.07 997.384 1676.07 997.384 1682.25 1001.51 1684.66 1011.83 1684.66 1011.83 1690.84 1003.57 1704.24 1011.14 1694.28 1015.95 1703.56 1021.8 1703.56 1026.96 1703.56 1026.96 1711.11 1024.55 1711.11 1030.4 1711.11 1032.12 1711.11 1033.84 1713.52 1023.52 1713.52 1023.52 1704.93 1016.99 1724.86 1014.92 1719.36 1026.27L1715.92 1031.43 1721.77 1035.9 1722.45 1049.31C1735.17 1048.28 1731.73 1032.46 1731.73 1032.46L1737.57 1031.43C1737.57 1026.27 1741.69 1029.02 1741.69 1029.02 1737.57 1009.42 1750.97 1005.98 1750.97 1005.98 1758.53 1004.26 1758.87 988.443 1758.87 988.443 1753.72 986.035 1756.47 978.125 1762.31 985.003 1768.15 991.881 1758.87 970.903 1758.87 970.903L1754.41 966.776 1748.22 966.089 1747.54 959.555 1737.23 959.555 1735.51 967.808 1731.73 969.528 1730.7 967.12 1728.98 973.654 1718.67 973.654 1717.99 966.776 1724.17 965.057 1726.58 961.618 1728.29 952.332 1735.85 952.332 1745.47 949.581C1746.16 939.608 1751.31 942.015 1751.31 942.015L1759.9 948.893 1760.59 952.332 1757.16 954.052 1756.47 958.867 1758.19 965.401 1762.65 965.401C1764.37 956.115 1776.4 956.115 1779.83 961.962L1783.27 953.708C1775.37 949.581 1783.27 943.391 1785.33 946.142 1787.74 948.893 1792.89 938.576 1792.89 938.576 1792.89 938.576 1797.01 943.735 1792.89 936.857 1788.77 929.979 1795.64 926.54 1795.64 926.54 1794.61 919.662 1803.2 920.693 1803.2 920.693L1803.88 911.408 1795.98 910.72C1794.26 918.974 1787.39 911.752 1790.83 910.032 1794.26 908.313 1797.7 904.874 1797.7 904.874L1797.7 899.027 1801.14 897.995 1801.82 892.149 1810.41 892.149 1817.97 888.71 1819.69 885.959 1827.59 885.271 1838.93 874.954 1837.9 870.483C1831.03 870.483 1837.9 865.325 1837.9 865.325ZM1528.32 1377.4 1523.86 1370.52 1530.73 1371.55 1537.94 1377.74 1541.04 1385.31 1536.91 1387.72 1534.51 1384.28 1529.01 1382.56ZM1402.23 1203.38 1404.97 1211.29 1409.1 1214.39 1412.88 1222.99 1410.82 1227.11 1404.29 1221.27 1399.82 1214.73 1397.41 1209.57 1393.64 1199.26ZM1367.87 1172.43 1365.12 1172.43 1365.12 1178.28 1369.58 1178.28 1369.58 1185.84 1373.02 1185.84 1372.33 1177.25 1367.87 1175.53ZM1817.28 818.897 1820.72 818.21 1821.41 821.649 1817.97 822.337ZM1821.41 816.834 1822.44 813.395 1826.9 814.771 1826.22 818.21ZM1829.65 813.395 1830 809.956 1826.22 809.268 1825.53 812.707ZM1835.49 805.829 1839.96 805.829 1839.96 809.268 1835.49 809.268ZM1864.7 809.956 1865.04 806.517 1869.17 806.861 1868.48 810.3ZM1876.04 812.364 1876.38 808.924 1872.26 808.237 1871.92 811.676ZM1880.16 812.707 1884.63 812.707 1884.63 816.146 1880.16 816.146ZM1885.32 818.554 1885.32 822.681 1888.75 822.337 1888.75 818.21Z" fill="#009EDC" fill-rule="evenodd"/><path d="M1855 421.011C1563.94 421.011 1327.98 657.176 1327.98 948.5 1327.98 1239.82 1563.94 1475.99 1855 1475.99 2146.06 1475.99 2382.02 1239.82 2382.02 948.5 2382.02 657.176 2146.06 421.011 1855 421.011ZM1855 388C2164.28 388 2415 638.945 2415 948.5 2415 1258.06 2164.28 1509 1855 1509 1545.72 1509 1295 1258.06 1295 948.5 1295 638.945 1545.72 388 1855 388Z" fill="#8FAADC" fill-rule="evenodd"/><path d="M1855 531.267C1623.19 531.267 1435.27 719.188 1435.27 951 1435.27 1182.81 1623.19 1370.73 1855 1370.73 2086.81 1370.73 2274.73 1182.81 2274.73 951 2274.73 719.188 2086.81 531.267 1855 531.267ZM1855 505C2101.32 505 2301 704.681 2301 951 2301 1197.32 2101.32 1397 1855 1397 1608.68 1397 1409 1197.32 1409 951 1409 704.681 1608.68 505 1855 505Z" fill="#8FAADC" fill-rule="evenodd"/><path d="M1855 632.142C1677.24 632.142 1533.14 776.243 1533.14 954 1533.14 1131.76 1677.24 1275.86 1855 1275.86 2032.76 1275.86 2176.86 1131.76 2176.86 954 2176.86 776.243 2032.76 632.142 1855 632.142ZM1855 612C2043.88 612 2197 765.119 2197 954 2197 1142.88 2043.88 1296 1855 1296 1666.12 1296 1513 1142.88 1513 954 1513 765.119 1666.12 612 1855 612Z" fill="#8FAADC" fill-rule="evenodd"/><path d="M1855 740.957C1740.65 740.957 1647.96 833.653 1647.96 948 1647.96 1062.35 1740.65 1155.04 1855 1155.04 1969.35 1155.04 2062.04 1062.35 2062.04 948 2062.04 833.653 1969.35 740.957 1855 740.957ZM1855 728C1976.5 728 2075 826.497 2075 948 2075 1069.5 1976.5 1168 1855 1168 1733.5 1168 1635 1069.5 1635 948 1635 826.497 1733.5 728 1855 728Z" fill="#8FAADC" fill-rule="evenodd"/></g></svg>