<svg width="1301" height="2259" xmlns="http://www.w3.org/2000/svg" xmlns:xlink="http://www.w3.org/1999/xlink" xml:space="preserve" overflow="hidden"><defs><clipPath id="clip0"><rect x="3324" y="60" width="1301" height="2259"/></clipPath><linearGradient x1="3005.32" y1="524.303" x2="4943.68" y2="1854.7" gradientUnits="userSpaceOnUse" spreadMethod="reflect" id="fill1"><stop offset="0" stop-color="#420000"/><stop offset="0.00063" stop-color="#440000"/><stop offset="0.0192" stop-color="#820000"/><stop offset="0.0281" stop-color="#9A0000"/><stop offset="0.2865" stop-color="#FF0000"/><stop offset="1" stop-color="#FF0000"/></linearGradient></defs><g clip-path="url(#clip0)" transform="translate(-3324 -60)"><path d="M3901.14 1208.98 3908.44 1226.84 3922.03 1257.85ZM4086.88 886.771 4109.02 929.774 4140.29 988.718ZM4008.62 730.894 4010.69 735.274C4025.89 766.595 4041.79 798.619 4058.23 831.114L4069.49 852.984ZM4241.41 341.691 4254.16 370.249 4241.42 341.706ZM4219.75 304.691 4228.68 319.936 4219.75 304.696ZM4032.07 192.949C3981.7 188.713 3932.14 204.346 3887.27 228.39L3887.26 228.393 3886.34 243.924C3884.1 297.143 3884.99 464.175 3967.38 643.654L4006.81 727.061 4035.06 672.025C4129.95 485.943 4175.85 327.148 4188.05 281.316L4191.27 268.84 4161.22 241.532C4128.21 216.171 4086.02 197.486 4032.07 192.949ZM4021.66 60.1561C4101.55 56.755 4179.86 108.562 4231.88 250.459 4249.15 297.552 4261.58 350.688 4268.11 408.138 4265.19 398.83 4261.61 388.333 4257.22 377.107L4257.2 377.08 4268.09 408.103C4280.98 521.545 4270.76 651.823 4228.85 785.748 4218.76 818.01 4206.97 852.977 4193.77 890.13L4150.24 1007.49 4162.11 1029.86C4377.72 1431.18 4625 1833.12 4625 1833.12L4424 2284.56C4424 2284.56 4207.42 1890.1 4005.39 1446.78L3974.37 1377.37 3986.43 1404.91C3791.2 1855.83 3566.33 2319 3566.33 2319L3324 1969.29C3324 1969.29 3594.75 1496.13 3835.95 1049.58L3840.96 1061.83 3833.73 1043.94C3781.98 911.475 3737.78 783.948 3707.37 670.686 3682.64 578.598 3687.65 447.989 3713.06 373.402L3713.07 373.385 3737.99 311.289C3764.29 254.314 3792.47 213.987 3801.99 201.101 3860.3 122.166 3941.76 63.5571 4021.66 60.1561Z" fill="url(#fill1)" fill-rule="evenodd"/></g></svg>