<svg xmlns="http://www.w3.org/2000/svg" viewBox="0 0 692 500">
  <defs>
    <linearGradient id="b" x1="467.5" x2="467.5" y1="1550" y2="1241" gradientUnits="userSpaceOnUse" spreadMethod="reflect">
      <stop offset="0" stop-color="#f2f2f2"/>
      <stop offset=".71" stop-color="#c05be9"/>
      <stop offset="1" stop-color="#c05be9"/>
    </linearGradient>
  </defs>
  <g transform="translate(-122, -1222)">
  <g fill-rule="evenodd">
    <path fill="#d182f0" d="M415.522 1493c-52.208 0-94.522-54.66-94.522-136.09 0-83.22 39.176-120.85 55.751-133.04a9.614 9.614 0 0 1 12.84 1.31c17.153 19.05 67.917 79.71 67.917 130.6 0 81.44 10.165 137.22-41.986 137.22m104.956 0c52.209 0 94.522-54.66 94.522-136.09 0-83.22-39.176-120.85-55.751-133.04a9.614 9.614 0 0 0-12.84 1.31c-17.152 19.05-67.917 79.71-67.917 130.6 0 81.44-10.165 137.22 41.986 137.22"/>
    <path fill="#e5acf4" d="M468 1513.05c-99.512-100.98-63.942-125.27-275.132-196.54-4.755-1.61-9.951.7-11.934 5.31-34.724 81.09-26.351 141.55 80.861 171.07-41.21-.26-84.557 4.79-131.137 9.47-5.288.53-9.143 5.25-8.609 10.53l.005.05c6.256 59.61 69.62 145.24 215.848 98.5a51.5 51.5 0 0 0-4.639 21.06c0 51.61 99.398 81.25 127.423 88.58a29.46 29.46 0 0 0 14.628 0c28.026-7.33 127.423-36.97 127.423-88.58 0-7.44-1.713-14.44-4.639-21.04 146.209 46.74 209.573-38.89 215.848-98.5.559-5.29-3.274-10.02-8.559-10.58h-.045c-46.58-4.68-89.908-9.75-131.137-9.47 107.212-29.52 115.566-89.98 80.861-171.07a9.624 9.624 0 0 0-11.933-5.33c-211.191 71.25-175.62 95.56-275.133 196.54"/>
    <path fill="url(#b)" d="M640.061 1270.05c-3.342-4.93-10.039-6.21-14.957-2.86a10.7 10.7 0 0 0-2.944 2.99l-62.662 95.66-8.19-.02c0-.44.096-.85.096-1.29 0-70.9-61.182-111.8-79.045-122.23a9.66 9.66 0 0 0-9.671 0c-17.862 10.43-79.082 51.33-79.082 122.23 0 .44.096.85.096 1.29l-8.191.02-62.682-95.66c-3.273-4.97-9.951-6.35-14.916-3.07a10.8 10.8 0 0 0-2.984 2.96c-27.246 40.22-46.877 90.1-35.763 144.07 21.111 102.64 112.788 153.17 208.368 130.52 95.521 22.65 187.198-27.86 208.31-130.52 11.094-53.99-8.537-103.87-35.783-144.09"/>
    <path fill="#d182f0" d="M468.019 1606c-46.408 0-84.019-44.4-84.019-110.52 0-73.01 60.96-115.21 79.034-126.1a9.7 9.7 0 0 1 9.971 0C491.06 1380.29 552 1422.47 552 1495.5c0 66.1-37.611 110.5-83.981 110.5"/>
    <path fill="#e685ed" d="M737 1388.73a9.677 9.677 0 0 0-9.661-9.7c-.746 0-1.49.08-2.216.25-51.397 12.4-256.949 71.63-257.603 225.99-.674-154.36-206.225-213.59-257.623-225.99-5.152-1.27-10.354 1.89-11.62 7.04-.194.79-.287 1.6-.276 2.41.404 47.2 19.231 217.23 269.461 217.27h.077c250.231-.04 269.057-170.07 269.461-217.27"/>
  </g>
  </g>
</svg>
