<svg width="698" height="541" xmlns="http://www.w3.org/2000/svg" xmlns:xlink="http://www.w3.org/1999/xlink" xml:space="preserve" overflow="hidden"><g transform="translate(-246 -1101)"><path d="M420.916 1374 770.083 1374C831.889 1374 887.81 1394.79 928.291 1449.48L944 1474 247 1474 262.708 1449.49C303.19 1394.79 359.11 1374 420.916 1374Z" fill="#E5ACF4" fill-rule="evenodd"/><path d="M504.425 1534C500.998 1541.15 499 1548.52 499 1556.1 499 1590.86 536.497 1621.83 595 1642 653.503 1621.83 691 1590.86 691 1556.1 691 1548.76 689.112 1541.63 685.894 1534.69L594.995 1486 504.425 1534Z" fill="#D182F0" fill-rule="evenodd"/><path d="M769.5 1414 420.5 1414C349.9 1414 286.982 1430.12 246 1474 286.982 1517.88 349.9 1546 420.5 1546 491.1 1546 554.018 1529.88 595 1486 635.982 1529.88 698.9 1546 769.5 1546 840.1 1546 903.018 1517.88 944 1474 903.02 1430.12 840.102 1414 769.5 1414Z" fill="#E685ED" fill-rule="evenodd"/><path d="M595 1101C524.309 1146.14 479 1215.43 479 1293.19 479 1311.68 481.638 1329.67 486.496 1347L703.507 1347C708.365 1329.67 711 1311.68 711 1293.19 711 1215.43 665.691 1146.14 595 1101Z" fill="#E5ACF4" fill-rule="evenodd"/><path d="M510.696 1317.28C456.14 1273.57 380.79 1244.01 318.039 1245.03 316.804 1302.68 345.098 1364.94 401.127 1413.68 457.157 1462.42 528.722 1487.04 595 1485.97" fill="#E5ACF4" fill-rule="evenodd"/><path d="M595 1485.97C661.278 1487.04 732.845 1462.42 788.873 1413.68 844.901 1364.94 873.195 1302.68 871.962 1245.02 810.071 1244.02 733.46 1274.76 679.305 1317.28" fill="#E5ACF4" fill-rule="evenodd"/><path d="M359.033 1289.03C357.981 1339.5 382.087 1394.01 429.823 1436.69 477.558 1479.36 538.533 1500.91 595 1499.97L511.707 1349.27C465.227 1311 412.495 1288.13 359.033 1289.03Z" fill="#DA95F2" fill-rule="evenodd"/><path d="M678.295 1349.27 595 1499.97C651.468 1500.91 712.443 1479.36 760.178 1436.69 807.913 1394.01 832.019 1339.51 830.967 1289.02 778.239 1288.15 724.434 1312.04 678.295 1349.27Z" fill="#DA95F2" fill-rule="evenodd"/><path d="M498 1346.5C498 1408.6 535.888 1463.95 595 1500 654.112 1463.95 692 1408.6 692 1346.5 692 1284.4 654.112 1229.05 595 1193 535.888 1229.05 498 1284.4 498 1346.5Z" fill="#D182F0" fill-rule="evenodd"/></g></svg>