<svg width="698" height="541" xmlns="http://www.w3.org/2000/svg" xmlns:xlink="http://www.w3.org/1999/xlink" xml:space="preserve" overflow="hidden"><g transform="translate(-246 -1101)"><path d="M504.425 1534C500.998 1541.15 499 1548.52 499 1556.1 499 1590.86 536.497 1621.83 595 1642 653.503 1621.83 691 1590.86 691 1556.1 691 1548.76 689.112 1541.63 685.894 1534.69L594.995 1486 504.425 1534Z" fill="#D182F0" fill-rule="evenodd"/><path d="M769.5 1414 420.5 1414C349.9 1414 286.982 1430.12 246 1474 286.982 1517.88 349.9 1546 420.5 1546 491.1 1546 554.018 1529.88 595 1486 635.982 1529.88 698.9 1546 769.5 1546 840.1 1546 903.018 1517.88 944 1474 903.02 1430.12 840.102 1414 769.5 1414Z" fill="#E685ED" fill-rule="evenodd"/><path d="M595 1101C543.81 1146.14 511 1215.43 511 1293.19 511 1311.68 512.91 1329.67 516.428 1347L673.574 1347C677.092 1329.67 679 1311.68 679 1293.19 679 1215.43 646.19 1146.14 595 1101Z" fill="#E5ACF4" fill-rule="evenodd"/><path d="M510.696 1317.28C456.14 1273.57 380.79 1244.01 318.039 1245.03 316.804 1302.68 345.098 1364.94 401.127 1413.68 457.157 1462.42 528.722 1487.04 595 1485.97" fill="#E5ACF4" fill-rule="evenodd"/><path d="M595 1485.97C661.278 1487.04 732.845 1462.42 788.873 1413.68 844.901 1364.94 873.195 1302.68 871.962 1245.02 810.071 1244.02 733.46 1274.76 679.305 1317.28" fill="#E5ACF4" fill-rule="evenodd"/><path d="M390.029 1317.02C389.115 1357.45 410.055 1401.11 451.52 1435.29 492.985 1469.47 545.95 1486.73 595 1485.98L522.648 1365.27C482.273 1334.62 436.469 1316.31 390.029 1317.02Z" fill="#E685ED" fill-rule="evenodd"/><path d="M667.354 1365.27 595 1485.98C644.05 1486.73 697.016 1469.47 738.481 1435.29 779.946 1401.11 800.885 1357.45 799.972 1317.02 754.17 1316.32 707.432 1335.45 667.354 1365.27Z" fill="#E685ED" fill-rule="evenodd"/><path d="M511 1377.5C511 1421.4 543.81 1460.52 595 1486 646.19 1460.52 679 1421.4 679 1377.5 679 1333.6 646.19 1294.48 595 1269 543.81 1294.48 511 1333.6 511 1377.5Z" fill="#D182F0" fill-rule="evenodd"/></g></svg>