<svg width="467" height="542" xmlns="http://www.w3.org/2000/svg" xmlns:xlink="http://www.w3.org/1999/xlink" xml:space="preserve" overflow="hidden"><defs><clipPath id="clip0"><rect x="1084" y="1103" width="467" height="542"/></clipPath></defs><g clip-path="url(#clip0)" transform="translate(-1084 -1103)"><path d="M1304.59 1292.34 1334.87 1292.34 1334.87 1327.31 1304.59 1327.31ZM1533.46 1165C1543.13 1164.86 1551 1171.61 1551 1179.96L1551 1599.89 1548.3 1605.49 1548.3 1606.76 1546.41 1609.43 1545.94 1610.41 1542.07 1611.8 1542.07 1611.08 1531.23 1613.43C1331.07 1597.6 1180.48 1619.21 1101.55 1635.54L1095 1637 1095 1630.49 1118.52 1620.5C1135.33 1613.89 1152.59 1608.02 1167.57 1603.34 1230.74 1584.31 1298.23 1574.62 1366.39 1574.63L1369.09 1574.76 1372.95 1541.67 1390.61 1541.68 1390.61 1204.93C1421.11 1192.42 1438.24 1179.91 1482.12 1167.4 1503.88 1165.76 1521.49 1165.18 1533.46 1165Z" fill="#1D7FFF" fill-rule="evenodd"/><path d="M17.511 0.00275714C29.4609 0.183074 47.0458 0.764829 68.764 2.39871 112.574 14.9089 129.671 27.4186 160.125 39.9288L160.125 425.359 162.455 425.464C220.905 431.339 277.807 446.807 330.068 471.199 354.822 483.098 386.912 500.549 408 518 352.746 496.411 215.195 451.588 17.2433 449.826 7.72932 449.741 0 443.131 0 434.899L0 14.9602C0 6.60885 7.85998-0.143371 17.511 0.00275714Z" fill="#5AAFFF" fill-rule="evenodd" transform="matrix(-1 0 0 1 1492 1127)"/><path d="M17.8225 0.010469C66.1993 1.55768 203.803 13.3188 315 94.1695L315 542C275.257 514.478 169.924 452.303 17.0745 448.633 7.61774 448.406 0 441.88 0 433.691L0 14.9525C0 6.48914 8.05124-0.301949 17.8225 0.010469Z" fill="#6DBEFF" fill-rule="evenodd" transform="matrix(-1 0 0 1 1400 1103)"/><path d="M7.58162 0.010469C28.161 1.55768 86.6971 13.3188 134 94.1695L134 542C117.093 514.478 72.2851 452.303 7.26344 448.633 3.24056 448.406 0 441.88 0 433.691L0 14.9525C0 6.48914 3.42497-0.301949 7.58162 0.010469Z" fill="#84D1FF" fill-rule="evenodd" transform="matrix(-1 0 0 1 1219 1103)"/></g></svg>