<svg width="702" height="542" xmlns="http://www.w3.org/2000/svg" xmlns:xlink="http://www.w3.org/1999/xlink" xml:space="preserve" overflow="hidden"><defs><clipPath id="clip0"><rect x="517" y="1889" width="702" height="542"/></clipPath></defs><g clip-path="url(#clip0)" transform="translate(-517 -1889)"><path d="M532.15 1913C542.489 1913.18 557.704 1913.76 576.494 1915.4 614.398 1927.91 629.191 1940.42 655.54 1952.93L655.54 2338.36 657.556 2338.46C708.126 2344.34 757.357 2359.81 802.573 2384.2 823.991 2396.1 851.755 2413.55 870 2431 822.194 2409.41 703.186 2364.59 531.919 2362.83 523.687 2362.74 517 2356.13 517 2347.9L517 1927.96C517 1919.61 523.8 1912.86 532.15 1913Z" fill="#1D7FFF" fill-rule="evenodd"/><path d="M611.446 1889.01C653.373 1890.56 772.629 1902.32 869 1983.17L869 2431C834.556 2403.48 743.267 2341.3 610.798 2337.63 602.602 2337.41 596 2330.88 596 2322.69L596 1903.95C596 1895.49 602.978 1888.7 611.446 1889.01Z" fill="#6DBEFF" fill-rule="evenodd"/><path d="M15.1504 0.00275714C25.4895 0.183074 40.7038 0.76483 59.4943 2.39871 97.3985 14.9089 112.191 27.4186 138.54 39.9289L138.54 425.36 140.556 425.464C191.126 431.339 240.357 446.807 285.573 471.199 306.991 483.098 334.755 500.549 353 518 305.194 496.411 186.186 451.588 14.9188 449.826 6.68738 449.741 0 443.131 0 434.899L0 14.9602C0 6.60886 6.80042-0.143371 15.1504 0.00275714Z" fill="#1D7FFF" fill-rule="evenodd" transform="matrix(-1 0 0 1 1219 1913)"/><path d="M15.4461 0.010469C57.3727 1.55768 176.629 13.3188 273 94.1695L273 542C238.556 514.479 147.267 452.304 14.7979 448.633 6.60203 448.406 0 441.88 0 433.691L0 14.9525C0 6.48915 6.97773-0.301949 15.4461 0.010469Z" fill="#5AAFFF" fill-rule="evenodd" transform="matrix(-1 0 0 1 1140 1889)"/></g></svg>