<svg width="702" height="542" xmlns="http://www.w3.org/2000/svg" xmlns:xlink="http://www.w3.org/1999/xlink" xml:space="preserve" overflow="hidden"><defs><clipPath id="clip0"><rect x="1810" y="1889" width="702" height="542"/></clipPath></defs><g clip-path="url(#clip0)" transform="translate(-1810 -1889)"><path d="M1825.11 1913C1835.42 1913.18 1850.59 1913.76 1869.33 1915.4 1907.12 1927.91 1921.87 1940.42 1948.15 1952.93L1948.15 2338.36 1950.16 2338.46C2000.58 2344.34 2049.68 2359.81 2094.76 2384.2 2116.12 2396.1 2143.81 2413.55 2162 2431 2114.33 2409.41 1995.66 2364.59 1824.88 2362.83 1816.67 2362.74 1810 2356.13 1810 2347.9L1810 1927.96C1810 1919.61 1816.78 1912.86 1825.11 1913Z" fill="#84D1FF" fill-rule="evenodd"/><path d="M1904.45 1889.01C1946.37 1890.56 2065.63 1902.32 2162 1983.17L2162 2431C2127.56 2403.48 2036.27 2341.3 1903.8 2337.63 1895.6 2337.41 1889 2330.88 1889 2322.69L1889 1903.95C1889 1895.49 1895.98 1888.7 1904.45 1889.01Z" fill="#6DBEFF" fill-rule="evenodd"/><path d="M15.1504 0.00275714C25.4895 0.183074 40.7038 0.76483 59.4943 2.39871 97.3985 14.9089 112.191 27.4186 138.54 39.9289L138.54 425.36 140.556 425.464C191.126 431.339 240.357 446.807 285.573 471.199 306.991 483.098 334.755 500.549 353 518 305.194 496.411 186.186 451.588 14.9188 449.826 6.68738 449.741 0 443.131 0 434.899L0 14.9602C0 6.60886 6.80042-0.143371 15.1504 0.00275714Z" fill="#1D7FFF" fill-rule="evenodd" transform="matrix(-1 0 0 1 2512 1913)"/><path d="M15.3895 0.010469C57.1625 1.55768 175.982 13.3188 272 94.1695L272 542C237.682 514.479 146.728 452.304 14.7437 448.633 6.57785 448.406 0 441.88 0 433.691L0 14.9525C0 6.48915 6.95217-0.301949 15.3895 0.010469Z" fill="#5AAFFF" fill-rule="evenodd" transform="matrix(-1 0 0 1 2432 1889)"/></g></svg>