<svg xmlns="http://www.w3.org/2000/svg" viewBox="0 0 650 646">
  <g fill-rule="evenodd">
    <path fill="#ccd6dd" d="M518.75 0H650v130.95L340.25 440 209 309.05Z"/>
    <path fill="#9aaab4" d="M650 0v130.95L340.56 440 275 374.52Z"/>
    <path fill="#e22b00" d="M67.87 561.97c-7.42-7.45-11.96-16.42-13.87-25.39l136.95-162.47 18.31-18.41c14.74-14.79 41.02-12.41 58.73 5.38l16.02 16.05c17.68 17.75 20.06 44.14 5.33 58.93l-19.36 19.43L109.31 592c-9.02-1.89-17.98-6.48-25.45-13.95z"/>
    <path fill="red" d="M67.87 562.34c-7.42-7.46-11.96-16.44-13.87-25.41l35.06-41.64L108.31 592c-8.64-2.02-17.26-6.38-24.42-13.6zm86.48-144.54 23.19 116.58-32.91 27.98-21.43-107.62Zm36.6-43.49 18.31-18.43c2.51-2.52 5.43-4.36 8.52-5.88l25.55 128.42-32.92 27.98-25-125.56zM253.67 351c5.1 2.49 9.98 5.9 14.32 10.29L284 377.35c6.64 6.67 11.11 14.55 13.35 22.58 3.71 13.39 1.2 27.17-8.02 36.41l-15.57 15.64zq0-.045 0 0"/>
    <path fill="red" d="M0 574c0-39.76 32.24-72 72-72s72 32.24 72 72-32.24 72-72 72-72-32.24-72-72m166.95-287.05c-10.6 10.59-10.6 27.77 0 38.34l159.76 159.76c10.6 10.6 27.75 10.6 38.34 0 10.6-10.59 10.6-27.74 0-38.34L205.29 286.95c-10.54-10.6-27.75-10.6-38.34 0"/>
    <path fill="red" d="M319 485c0-25.4 20.6-46 46-46 25.41 0 46 20.6 46 46 0 25.41-20.59 46-46 46-25.4 0-46-20.59-46-46M121 287c0-25.41 20.59-46 46-46s46 20.59 46 46-20.59 46-46 46-46-20.59-46-46"/>
    <path fill="#e22b00" d="M339 485.5c0-14.64 11.64-26.5 26-26.5s26 11.86 26 26.5-11.64 26.5-26 26.5-26-11.86-26-26.5M141 287c0-14.36 11.64-26 26-26s26 11.64 26 26-11.64 26-26 26-26-11.64-26-26M54.85 470.86c-7.8 7.8-7.8 20.46 0 28.24l91.06 91.04c7.8 7.81 20.43 7.81 28.24 0 7.8-7.8 7.8-20.43 0-28.24l-91.06-91.04c-7.78-7.81-20.43-7.81-28.24 0"/>
    <path fill="red" d="m416.62 101.42 8.31 5.23c6.62 6.19 10.72 14.73 10.72 24.17 0 18.88-16.38 34.18-36.59 34.18-10.11 0-19.26-3.83-25.88-10.01l-3.18-7.18Zm223.08-12.1 10.3 1.94v39.56l-24.33 24.21-.21-.04c-13.14-5.19-22.35-17.33-22.35-31.49 0-18.88 16.38-34.18 36.59-34.18M518.54 0H650v72.29l-32.07 20.19c-13.37 5.28-28.07 8.2-43.49 8.2l-9.26-.87 5.68 12.82c0 18.88-16.38 34.18-36.59 34.18s-36.59-15.3-36.59-34.18c0-9.44 4.09-17.98 10.72-24.17l8.08-5.09-21.06-13.26-19.79-27.41Z"/>
  </g>
</svg>
