<svg width="563" height="539" xmlns="http://www.w3.org/2000/svg" xmlns:xlink="http://www.w3.org/1999/xlink" xml:space="preserve" overflow="hidden"><defs><clipPath id="clip0"><rect x="1795" y="1103" width="563" height="539"/></clipPath></defs><g clip-path="url(#clip0)" transform="translate(-1795 -1103)"><rect x="1852" y="1309" width="65" height="264" fill="#FF6583"/><rect x="2236" y="1309" width="66" height="264" fill="#FF0000"/><rect x="2108" y="1309" width="65" height="264" fill="#FF3B4D"/><rect x="1980" y="1309" width="65" height="264" fill="#FF556E"/><path d="M2076.93 1103C2167.62 1162.32 2348.26 1263.25 2349 1280.97 2349 1297 2335.99 1310 2319.94 1310L1833.07 1310C1817.02 1310 1804.01 1297 1804.01 1280.97 1802.53 1264.08 1985.95 1162.32 2076.93 1103Z" fill="#FF0000" fill-rule="evenodd"/><path d="M1818.46 1593 2334.57 1593C2347.49 1593 2358 1603.96 2358 1617.5 2358 1631.04 2347.49 1642 2334.54 1642L1818.46 1642C1805.51 1642 1795 1631.04 1795 1617.5 1795 1603.96 1805.51 1593 1818.46 1593Z" fill="#FF0000" fill-rule="evenodd"/><path d="M1840.46 1556 2312.57 1556C2324.39 1556 2334 1567.18 2334 1581 2334 1594.82 2324.39 1606 2312.54 1606L1840.46 1606C1828.61 1606 1819 1594.82 1819 1581 1819 1567.18 1828.61 1556 1840.46 1556Z" fill="#FF6583" fill-rule="evenodd"/><path d="M1840.46 1289 2312.57 1289C2324.39 1289 2334 1299.96 2334 1313.5 2334 1327.04 2324.39 1338 2312.54 1338L1840.46 1338C1828.61 1338 1819 1327.04 1819 1313.5 1819 1299.96 1828.61 1289 1840.46 1289Z" fill="#FF6583" fill-rule="evenodd"/></g></svg>