<svg width="545" height="543" xmlns="http://www.w3.org/2000/svg" xmlns:xlink="http://www.w3.org/1999/xlink" xml:space="preserve" overflow="hidden"><defs><clipPath id="clip0"><rect x="2741" y="1099" width="545" height="543"/></clipPath></defs><g clip-path="url(#clip0)" transform="translate(-2741 -1099)"><path d="M2919.15 1099 3107.85 1099C3123.86 1099 3134.27 1112.26 3127.11 1123.54L3108.72 1152.5C3102.74 1161.91 3099.63 1172.3 3099.63 1182.82L3099.63 1272.59C3099.63 1278.18 3101.35 1283.61 3104.58 1288.52L3178.22 1397.7 3275.76 1542.31C3306.33 1587.58 3264.78 1642 3199.75 1642L3013.5 1642 2827.25 1642C2762.22 1642 2720.67 1587.58 2751.24 1542.31L2848.78 1397.7 2922.42 1288.52C2925.65 1283.61 2927.37 1278.18 2927.37 1272.59L2927.37 1182.82C2927.37 1172.29 2924.26 1161.91 2918.28 1152.5L2899.89 1123.54C2892.73 1112.26 2903.14 1099 2919.15 1099Z" fill="#B6E7FF" fill-rule="evenodd"/><path d="M3144.84 1348 2882.16 1348 2848.78 1397.4 2751.24 1542.19C2720.67 1587.51 2762.22 1642 2827.25 1642L3013.5 1642 3199.75 1642C3264.78 1642 3306.33 1587.51 3275.76 1542.19L3178.22 1397.4Z" fill="#00CC5C" fill-rule="evenodd"/><path d="M2870 1499.5C2870 1483.21 2887.01 1470 2908 1470 2928.99 1470 2946 1483.21 2946 1499.5 2946 1515.79 2928.99 1529 2908 1529 2887.01 1529 2870 1515.79 2870 1499.5Z" fill="#A9D18E" fill-rule="evenodd"/><path d="M3047 1539.5C3047 1523.21 3063.79 1510 3084.5 1510 3105.21 1510 3122 1523.21 3122 1539.5 3122 1555.79 3105.21 1569 3084.5 1569 3063.79 1569 3047 1555.79 3047 1539.5Z" fill="#A9D18E" fill-rule="evenodd"/></g></svg>