<svg width="512" height="543" xmlns="http://www.w3.org/2000/svg" xmlns:xlink="http://www.w3.org/1999/xlink" xml:space="preserve" overflow="hidden"><g transform="translate(-3525 -1099)"><path d="M3525.64 1386.08C3525.64 1244.97 3640.03 1130.58 3781.14 1130.58 3922.25 1130.58 4036.64 1244.97 4036.64 1386.08 4036.64 1527.2 3922.25 1641.58 3781.14 1641.58 3640.03 1641.58 3525.64 1527.2 3525.64 1386.08" fill="#F4900C" fill-rule="evenodd"/><path d="M3525.64 1356.08C3525.64 1214.43 3640.03 1099.58 3781.14 1099.58 3922.25 1099.58 4036.64 1214.43 4036.64 1356.08 4036.64 1497.74 3922.25 1612.58 3781.14 1612.58 3640.03 1612.58 3525.64 1497.74 3525.64 1356.08" fill="#FFCC4D" fill-rule="evenodd"/><path d="M3569.63 1356.08C3569.63 1239.83 3664.1 1145.58 3780.63 1145.58 3897.17 1145.58 3991.63 1239.83 3991.63 1356.08 3991.63 1472.34 3897.17 1566.58 3780.63 1566.58 3664.1 1566.58 3569.63 1472.34 3569.63 1356.08" fill="#FFAC33" fill-rule="evenodd"/></g></svg>