<svg xmlns="http://www.w3.org/2000/svg" viewBox="0 0 654 693">
  <g transform="translate(-3626, -1105)">
  <g fill-rule="evenodd">
    <path fill="#f4900c" d="M3626 1471c0-180.6 146.4-327 327-327s327 146.4 327 327-146.4 327-327 327-327-146.4-327-327"/>
    <path fill="#ffcc4d" d="M3626 1432.5c0-180.87 146.4-327.5 327-327.5s327 146.63 327 327.5-146.4 327.5-327 327.5-327-146.63-327-327.5"/>
    <path fill="#ffe8b6" d="M3683 1451.5c0-148.84 120.66-269.5 269.5-269.5s269.5 120.66 269.5 269.5-120.66 269.5-269.5 269.5-269.5-120.66-269.5-269.5"/>
    <path fill="#ffac33" d="M3683 1432.5c0-148.84 120.66-269.5 269.5-269.5s269.5 120.66 269.5 269.5-120.66 269.5-269.5 269.5-269.5-120.66-269.5-269.5"/>
    <path fill="#ffe8b6" d="M3790 1314.5c0-10.56 10.31-14.79 10.31-14.79l151.84-71.71 153.29 71.71s10.56 2.37 10.56 14.87V1327h-326z"/>
    <path fill="#f4900c" d="M4105.51 1352.39c0-11.27-9.71-20.39-21.67-20.39h-263c-11.99 0-20.33 9.12-20.33 20.39 0 7.65 3.92 14.25 10.17 17.74v12.85h40.66v-10.21h40.67v10.21h40.66v-10.21h40.66v10.21h40.66v-10.21h40.67v10.21h40.68v-13.37c6.1-3.63 10.17-9.97 10.17-17.22m30.49 215.32c0 8.44-6.83 15.29-15.25 15.29h-335.5c-8.42 0-15.25-6.85-15.25-15.29 0-8.45 6.83-15.3 15.25-15.3h335.52c8.4 0 15.23 6.85 15.23 15.3"/>
    <path fill="#f4900c" d="M4116 1340.22c0 5.64-4.55 10.22-10.2 10.22h-305.6c-5.63 0-10.2-4.58-10.2-10.22s4.57-10.22 10.2-10.22l305.6.06c5.65.02 10.2 4.52 10.2 10.16m-275.04 11.86h224.12V1375h-224.12Z"/>
    <path fill="#ffd983" d="M3850.73 1506.65c0 11.24-6.09 20.35-13.58 20.35h-13.57c-7.5 0-13.58-9.11-13.58-20.35v-154.3c0-11.24 6.08-20.35 13.58-20.35h13.57c7.49 0 13.58 9.11 13.58 20.35zm244.27 0c0 11.24-6.06 20.35-13.57 20.35h-13.58c-7.49 0-13.58-9.11-13.58-20.35v-154.3c0-11.24 6.07-20.35 13.58-20.35h13.58c7.49 0 13.57 9.11 13.57 20.35zm-162.84 0c0 11.24-6.09 20.35-13.58 20.35h-13.57c-7.49 0-13.58-9.11-13.58-20.35v-154.3c0-11.24 6.09-20.35 13.58-20.35h13.57c7.49 0 13.58 9.11 13.58 20.35zm81.41 0c0 11.24-6.09 20.35-13.58 20.35h-13.55c-7.49 0-13.58-9.11-13.58-20.35v-154.3c0-11.24 6.09-20.35 13.58-20.35h13.55c7.49 0 13.58 9.11 13.58 20.35z"/>
    <path fill="#ffcc4d" d="M4105 1516.5c0 11.33-9.1 20.5-20.33 20.5h-264.34c-11.23 0-20.33-9.17-20.33-20.5s9.1-20.5 20.33-20.5h264.34c11.21 0 20.33 9.17 20.33 20.5"/>
    <path fill="#ffd983" d="M4126 1536.5c0 11.33-9.11 20.5-20.35 20.5h-305.3c-11.24 0-20.35-9.17-20.35-20.5s9.11-20.5 20.35-20.5h305.28c11.24 0 20.37 9.17 20.37 20.5"/>
    <path fill="#ffd983" d="M4136 1552c0 8.29-6.83 15-15.25 15h-335.5c-8.42 0-15.25-6.71-15.25-15s6.83-15 15.25-15h335.52c8.4 0 15.23 6.71 15.23 15"/>
    <path fill="#ffcc4d" d="M4105 1341.4c0-11.27-9.71-20.4-21.68-20.4h-262.99c-11.98 0-20.33 9.13-20.33 20.4 0 7.66 3.92 14.26 10.18 17.75V1372h40.66v-10.21h40.66V1372h40.66v-10.21h40.66V1372h40.66v-10.21h40.66V1372h40.69v-13.37c6.09-3.63 10.17-9.98 10.17-17.23"/>
    <path fill="#ffd983" d="M3790 1326.3c0-10.54 10.31-14.76 10.31-14.76l151.84-71.54 153.29 71.54s10.56 2.36 10.56 14.83v5.63h-326z"/>
    <path fill="#ffac33" d="M3952.99 1266s-104.92 49.7-115.38 54.19c-10.48 4.46-6.98 11.81.02 11.81h230.22c10.81 0 8.25-8.29-.32-12.78-8.58-4.46-114.54-53.22-114.54-53.22"/>
    <path fill="#ffd983" d="M4116 1331.5c0 5.8-4.55 10.5-10.2 10.5h-305.6c-5.63 0-10.2-4.7-10.2-10.5s4.57-10.5 10.2-10.5l305.6.06c5.65.02 10.2 4.64 10.2 10.44"/>
  </g>
  </g>
</svg>
