<svg width="1547" height="1760" xmlns="http://www.w3.org/2000/svg" xmlns:xlink="http://www.w3.org/1999/xlink" xml:space="preserve" overflow="hidden"><defs><clipPath id="clip0"><rect x="192" y="87" width="1547" height="1760"/></clipPath><linearGradient x1="1430" y1="1015" x2="502" y2="87" gradientUnits="userSpaceOnUse" spreadMethod="reflect" id="fill1"><stop offset="0" stop-color="#56096E"/><stop offset="0.5" stop-color="#82239E"/><stop offset="1" stop-color="#AE3DCF"/></linearGradient><linearGradient x1="1246.61" y1="2079.03" x2="684.393" y2="885.967" gradientUnits="userSpaceOnUse" spreadMethod="reflect" id="fill2"><stop offset="0" stop-color="#56096E"/><stop offset="0.5" stop-color="#82239E"/><stop offset="1" stop-color="#AE3DCF"/></linearGradient></defs><g clip-path="url(#clip0)" transform="translate(-192 -87)"><path d="M530 551C530 310.204 725.204 115 966 115 1206.8 115 1402 310.204 1402 551 1402 791.796 1206.8 987 966 987 725.204 987 530 791.796 530 551Z" fill="#FFFFFF" fill-rule="evenodd"/><path d="M965.5 1154C1353.48 1154 1668 1414.57 1668 1735.99L1664.59 1792 266.414 1792 263 1735.99C263 1414.57 577.52 1154 965.5 1154Z" fill="#FFFFFF" fill-rule="evenodd"/><path d="M966 87C710.15 87 502 295.151 502 551 502 806.849 710.15 1015 966 1015 1221.85 1015 1430 806.849 1430 551 1430 295.151 1221.85 87 966 87ZM966 911.889C767.006 911.889 605.111 749.994 605.111 551 605.111 352.006 767.006 190.111 966 190.111 1164.99 190.111 1326.89 352.006 1326.89 551 1326.89 749.994 1164.99 911.889 966 911.889Z" fill="url(#fill1)" fill-rule="evenodd"/><path d="M1542.93 1318.11C1415.87 1189.07 1247.43 1118 1068.63 1118L862.367 1118C683.575 1118 515.131 1189.07 388.07 1318.11 261.632 1446.53 192 1616.03 192 1795.42 192 1823.91 215.088 1847 243.567 1847L1687.43 1847C1715.91 1847 1739 1823.91 1739 1795.42 1739 1616.03 1669.37 1446.53 1542.93 1318.11ZM297.403 1743.84C323.237 1451.26 566.756 1221.16 862.367 1221.16L1068.63 1221.16C1364.24 1221.16 1607.76 1451.26 1633.6 1743.84L297.403 1743.84Z" fill="url(#fill2)" fill-rule="evenodd"/></g></svg>