<svg id="Слой_1" enable-background="new 0 0 512 512" height="512" viewBox="0 0 512 512" width="512" xmlns="http://www.w3.org/2000/svg"><g><path d="m171.318 437.743c26.454 45.803 75.743 74.257 128.639 74.257 81.91 0 148.549-66.639 148.549-148.549v-131.155c0-13.07-10.634-23.704-23.704-23.704s-23.704 10.634-23.704 23.704v18.963c0 5.236-4.245 9.481-9.481 9.481s-9.481-4.245-9.481-9.481v-42.667c0-13.07-10.634-23.704-23.704-23.704s-23.704 10.634-23.704 23.704v37.926c0 5.236-4.245 9.481-9.481 9.481s-9.481-4.245-9.481-9.481v-56.888c0-13.07-10.634-23.704-23.704-23.704s-23.704 10.634-23.704 23.704v56.889c0 5.236-4.245 9.481-9.481 9.481s-9.481-4.245-9.481-9.481v-175.408c0-13.07-10.634-23.704-23.704-23.704s-23.704 10.634-23.704 23.704v226.204c0 10.255-6.009 19.676-15.308 24-12.514 5.826-27.176 1.197-34.086-10.764l-28.449-49.278c-11.762-20.373-37.91-27.375-58.282-15.618-2.264 1.308-3.042 4.213-1.734 6.479z"/><path d="m183.025 71.111c0-23.526 19.141-42.667 42.667-42.667s42.667 19.141 42.667 42.667v56.889c17.641-13.266 28.444-34.275 28.444-56.889-.001-39.211-31.901-71.111-71.112-71.111s-71.111 31.9-71.111 71.111c0 22.615 10.804 43.623 28.444 56.889z"/></g></svg>