<svg width="1649" height="1650" xmlns="http://www.w3.org/2000/svg" xmlns:xlink="http://www.w3.org/1999/xlink" xml:space="preserve" overflow="hidden"><defs><clipPath id="cosmos-clip0"><rect x="308" y="571" width="1649" height="1650"/></clipPath><linearGradient x1="1" y1="1" x2="0" y2="0" gradientUnits="objectBoundingBox" id="cosmos-fill1"><stop offset="0" stop-color="#56096E"/><stop offset="0.5" stop-color="#82239E"/><stop offset="1" stop-color="#AE3DCF"/></linearGradient></defs><g clip-path="url(#cosmos-clip0)" transform="translate(-308 -571)"><path d="M436 1417.5C436 997.487 776.487 657 1196.5 657 1616.51 657 1957 997.487 1957 1417.5 1957 1837.51 1616.51 2178 1196.5 2178 776.487 2178 436 1837.51 436 1417.5Z" fill="#FFFFFF" fill-rule="evenodd"/><path d="M687.716 1299.77C628.831 1299.77 580.099 1346.99 580.099 1405.64 580.099 1464.28 628.831 1511.5 687.716 1511.5 746.346 1511.5 793.556 1464.28 793.556 1405.64 793.556 1346.99 746.346 1299.77 687.716 1299.77ZM1500.93 1130.96C1548.4 1125.88 1610.84 1136.29 1669.47 1196.71 1728.86 1271.6 1715.66 1321.61 1715.66 1321.61L1382.15 1321.61 1382.15 1486.11 1956.78 1486.11C1952.98 1520.89 1946.88 1555.92 1938.25 1590.95 1911.6 1634.36 1856.27 1703.42 1760.33 1734.64 1615.4 1781.86 1382.15 1739.97 1321.49 1536.12 1272.76 1332.27 1355.75 1190.11 1420.22 1155.83 1420.22 1155.83 1453.22 1135.78 1500.93 1130.96ZM1090.77 572.206C1171.74 567.89 1255.5 574.999 1338.49 596.069 1637.74 671.72 1856.27 901.465 1931.91 1178.68 1944.57 1248.09 1952.07 1278.82 1957 1399.79L1929.37 1269.06C1902.97 1182.24 1852.21 1086.78 1756.27 1017.99 1532.15 857.547 1209.3 969.246 1117.17 1208.38 1024.78 1448.03 1092.8 1789.98 1463.12 1917.68 1573.78 1955.75 1675.81 1954.23 1762.87 1933.41 1564.9 2163.41 1245.85 2275.11 931.63 2195.4 488.979 2083.45 221.206 1634.36 333.646 1192.64 424.765 833.938 738.732 590.738 1090.77 572.206Z" fill="url(#cosmos-fill1)" fill-rule="evenodd"/></g></svg>
