<svg width="512" height="512" xmlns="http://www.w3.org/2000/svg" xmlns:xlink="http://www.w3.org/1999/xlink" xml:space="preserve" overflow="hidden"><defs><linearGradient x1="0" y1="0" x2="1" y2="1" gradientUnits="objectBoundingBox" id="fill0"><stop offset="0" stop-color="#AE3DCF"/><stop offset="1" stop-color="#56096E"/></linearGradient></defs><g transform="translate(-384 -104)"><path d="M896 360C896 501.385 781.385 616 640 616 498.615 616 384 501.385 384 360 384 218.615 498.615 104 640 104 781.385 104 896 218.615 896 360Z" fill="url(#fill0)"/><path d="M729.15 341.54 729.01 341.4 658.45 270.79C658.45 270.79 572.45 356.79 531.01 399.09 525.85 404.35 521.94 411.67 519.62 418.75 512.82 439.54 507.19 460.75 500.93 481.75 499.25 487.38 499.59 492.34 504 496.54 508.16 500.54 512.84 500.68 518.24 499.06 538.24 493.06 558.37 487.35 578.46 481.6 588.791 478.606 598.156 472.954 605.62 465.21 645.1 425.49 729.15 341.54 729.15 341.54ZM770.34 253.81 746.21 229.68C733.325 216.805 712.445 216.805 699.56 229.68L672.21 257 743 327.81 770.35 300.46C783.222 287.572 783.217 266.692 770.34 253.81Z" fill="#FFFFFF"/></g></svg>
