<svg viewBox="0 0 512 512" xmlns="http://www.w3.org/2000/svg"><g id="Layer_2" data-name="Layer 2"><g id="pen"><path d="m256 0c-141.38 0-256 114.62-256 256s114.62 256 256 256 256-114.62 256-256-114.62-256-256-256zm-34.38 361.17a61.5 61.5 0 0 1 -27.16 16.39c-20.09 5.75-40.2 11.47-60.22 17.46-5.4 1.62-10.08 1.44-14.24-2.52-4.41-4.2-4.75-9.16-3.07-14.79 6.26-21 11.89-42.17 18.69-63 2.32-7.08 6.23-14.4 11.39-19.66 41.47-42.3 127.44-128.3 127.44-128.3l70.55 70.65.14.14s-84.04 83.95-123.52 123.63zm164.72-164.71-27.34 27.35-70.79-70.81 27.35-27.35a33 33 0 0 1 46.65 0l24.13 24.13a33 33 0 0 1 0 46.68z"/></g></g></svg>