<svg width="542" height="541" xmlns="http://www.w3.org/2000/svg" xmlns:xlink="http://www.w3.org/1999/xlink" xml:space="preserve" overflow="hidden"><defs><clipPath id="clip0"><rect x="2156" y="106" width="542" height="541"/></clipPath></defs><g clip-path="url(#clip0)" transform="translate(-2156 -106)"><path d="M2327.25 248.081C2344.92 234.274 2364.55 224.701 2384.92 219.212 2392.27 222.408 2384.16 232.479 2383.77 239.112 2367.71 288.708 2375.76 345.14 2410.28 389.309 2444.8 433.479 2497.61 454.933 2549.62 451.328 2556.15 452.56 2568.69 451.214 2569.21 455.023 2558.96 473.463 2544.92 490.197 2527.25 504.004 2456.58 559.233 2354.52 546.714 2299.29 476.043 2244.06 405.372 2256.58 303.31 2327.25 248.081Z" fill-rule="evenodd"/><path d="M2156 376.5C2156 376.224 2156.45 376 2157 376 2157.55 376 2158 376.224 2158 376.5 2158 376.776 2157.55 377 2157 377 2156.45 377 2156 376.776 2156 376.5Z" fill="#D9D9D9" fill-rule="evenodd"/><path d="M2426 106.5C2426 106.224 2426.22 106 2426.5 106 2426.78 106 2427 106.224 2427 106.5 2427 106.776 2426.78 107 2426.5 107 2426.22 107 2426 106.776 2426 106.5Z" fill="#D9D9D9" fill-rule="evenodd"/><path d="M2696 376.5C2696 376.224 2696.45 376 2697 376 2697.55 376 2698 376.224 2698 376.5 2698 376.776 2697.55 377 2697 377 2696.45 377 2696 376.776 2696 376.5Z" fill="#D9D9D9" fill-rule="evenodd"/><path d="M2426 646.5C2426 646.224 2426.45 646 2427 646 2427.55 646 2428 646.224 2428 646.5 2428 646.776 2427.55 647 2427 647 2426.45 647 2426 646.776 2426 646.5Z" fill="#D9D9D9" fill-rule="evenodd"/></g></svg>