<svg width="542" height="541" xmlns="http://www.w3.org/2000/svg" xmlns:xlink="http://www.w3.org/1999/xlink" xml:space="preserve" overflow="hidden"><defs><clipPath id="clip0"><rect x="2156" y="106" width="542" height="541"/></clipPath></defs><g clip-path="url(#clip0)" transform="translate(-2156 -106)"><path d="M2327.25 248.081C2344.92 234.274 2364.55 224.701 2384.92 219.212 2392.27 222.408 2384.16 232.479 2383.77 239.112 2367.71 288.708 2375.76 345.14 2410.28 389.309 2444.8 433.479 2497.61 454.933 2549.62 451.328 2556.15 452.56 2568.69 451.214 2569.21 455.023 2558.96 473.463 2544.92 490.197 2527.25 504.004 2456.58 559.233 2354.52 546.714 2299.29 476.043 2244.06 405.372 2256.58 303.31 2327.25 248.081Z" fill-rule="evenodd"/><path d="M2156 106.5C2156 106.224 2156.45 106 2157 106 2157.55 106 2158 106.224 2158 106.5 2158 106.776 2157.55 107 2157 107 2156.45 107 2156 106.776 2156 106.5Z" fill="#D9D9D9" fill-rule="evenodd"/><path d="M2696 646.5C2696 646.224 2696.45 646 2697 646 2697.55 646 2698 646.224 2698 646.5 2698 646.776 2697.55 647 2697 647 2696.45 647 2696 646.776 2696 646.5Z" fill="#D9D9D9" fill-rule="evenodd"/></g></svg>