<svg width="542" height="541" xmlns="http://www.w3.org/2000/svg" xmlns:xlink="http://www.w3.org/1999/xlink" xml:space="preserve" overflow="hidden"><defs><clipPath id="clip0"><rect x="1184" y="106" width="542" height="541"/></clipPath></defs><g clip-path="url(#clip0)" transform="translate(-1184 -106)"><path d="M1355.42 248.081C1373.09 234.274 1392.72 224.701 1413.09 219.212 1420.44 222.408 1412.32 232.479 1411.94 239.112 1395.87 288.708 1403.93 345.14 1438.44 389.309 1472.96 433.479 1525.77 454.933 1577.78 451.328 1584.31 452.56 1596.86 451.214 1597.37 455.023 1587.12 473.463 1573.09 490.197 1555.42 504.004 1484.75 559.233 1382.69 546.714 1327.46 476.043 1272.23 405.372 1284.75 303.31 1355.42 248.081Z" fill-rule="evenodd"/><path d="M1184 377C1184 362.088 1196.31 350 1211.5 350 1226.69 350 1239 362.088 1239 377 1239 391.912 1226.69 404 1211.5 404 1196.31 404 1184 391.912 1184 377Z" fill-rule="evenodd"/><path d="M1600 204.5C1600 189.312 1612.09 177 1627 177 1641.91 177 1654 189.312 1654 204.5 1654 219.688 1641.91 232 1627 232 1612.09 232 1600 219.688 1600 204.5Z" fill-rule="evenodd"/><path d="M1428 133C1428 118.088 1440.09 106 1455 106 1469.91 106 1482 118.088 1482 133 1482 147.912 1469.91 160 1455 160 1440.09 160 1428 147.912 1428 133Z" fill-rule="evenodd"/><path d="M1256 204.5C1256 189.312 1268.09 177 1283 177 1297.91 177 1310 189.312 1310 204.5 1310 219.688 1297.91 232 1283 232 1268.09 232 1256 219.688 1256 204.5Z" fill-rule="evenodd"/><path d="M1671 377C1671 362.088 1683.31 350 1698.5 350 1713.69 350 1726 362.088 1726 377 1726 391.912 1713.69 404 1698.5 404 1683.31 404 1671 391.912 1671 377Z" fill-rule="evenodd"/><path d="M1256 548.5C1256 533.312 1268.09 521 1283 521 1297.91 521 1310 533.312 1310 548.5 1310 563.688 1297.91 576 1283 576 1268.09 576 1256 563.688 1256 548.5Z" fill-rule="evenodd"/><path d="M1428 620C1428 605.088 1440.31 593 1455.5 593 1470.69 593 1483 605.088 1483 620 1483 634.912 1470.69 647 1455.5 647 1440.31 647 1428 634.912 1428 620Z" fill-rule="evenodd"/><path d="M1600 548.5C1600 533.312 1612.09 521 1627 521 1641.91 521 1654 533.312 1654 548.5 1654 563.688 1641.91 576 1627 576 1612.09 576 1600 563.688 1600 548.5Z" fill-rule="evenodd"/></g></svg>