<svg height="512" viewBox="0 0 32 32" width="512" xmlns="http://www.w3.org/2000/svg"><g id="Sun"><path d="m16 8a8 8 0 1 0 8 8 8.0092 8.0092 0 0 0 -8-8zm0 14a6 6 0 1 1 6-6 6.0066 6.0066 0 0 1 -6 6z"/><path d="m16 7a1 1 0 0 0 1-1v-1a1 1 0 0 0 -2 0v1a1 1 0 0 0 1 1z"/><path d="m8.2217 9.6357a1 1 0 0 0 1.414-1.414l-.707-.7071a1 1 0 0 0 -1.4141 1.4141z"/><path d="m6 15h-1a1 1 0 0 0 0 2h1a1 1 0 0 0 0-2z"/><path d="m8.2217 22.3643-.7071.707a1 1 0 1 0 1.4141 1.4141l.707-.7071a1 1 0 0 0 -1.414-1.414z"/><path d="m16 25a1 1 0 0 0 -1 1v1a1 1 0 0 0 2 0v-1a1 1 0 0 0 -1-1z"/><path d="m23.7783 22.3643a1 1 0 0 0 -1.414 1.414l.707.7071a1 1 0 0 0 1.4141-1.4141z"/><path d="m27 15h-1a1 1 0 0 0 0 2h1a1 1 0 0 0 0-2z"/><path d="m23.0713 7.5146-.707.7071a1 1 0 1 0 1.414 1.414l.7071-.707a1 1 0 0 0 -1.4141-1.4141z"/></g></svg>