<svg width="469" height="542" xmlns="http://www.w3.org/2000/svg" xmlns:xlink="http://www.w3.org/1999/xlink" xml:space="preserve" overflow="hidden"><defs><clipPath id="clip0"><rect x="1714" y="1135" width="469" height="542"/></clipPath></defs><g clip-path="url(#clip0)" transform="translate(-1714 -1135)"><path d="M1767.99 1243.89 1767.99 1279.93C1768.08 1309.75 1792.21 1333.89 1821.99 1333.98L1965.98 1333.98C1995.76 1333.89 2019.88 1309.75 2019.97 1279.93L2019.97 1243.89C2049.75 1243.98 2073.88 1268.13 2073.96 1297.95L2073.96 1622.95C2073.88 1652.76 2049.75 1676.91 2019.97 1677L1767.99 1677C1738.21 1676.91 1714.09 1652.76 1714 1622.95L1714 1297.95C1714.09 1268.13 1738.21 1243.98 1767.99 1243.89ZM1893.69 1189.84C1896.22 1189.81 1898.74 1190.04 1901.22 1190.5 1917.71 1192.67 1932.25 1202.42 1940.53 1216.87L1945.73 1225.87 1965.98 1225.87C1975.92 1225.87 1983.97 1233.94 1983.97 1243.89L1983.97 1279.93C1983.97 1289.88 1975.92 1297.95 1965.98 1297.95L1821.99 1297.95C1812.05 1297.95 1803.99 1289.88 1803.99 1279.93L1803.99 1243.89C1803.99 1233.94 1812.05 1225.87 1821.99 1225.87L1842.24 1225.87 1847.46 1216.87C1855.75 1202.44 1870.29 1192.71 1886.78 1190.58 1889.06 1190.1 1891.37 1189.85 1893.69 1189.84ZM1875.86 1135 2129.21 1135C2158.92 1135 2183 1159.11 2183 1188.85L2183 1550.36C2183 1580.1 2158.92 1604.21 2129.21 1604.21L2108.77 1604.21 2108.77 1279.46C2108.69 1252.77 2092.48 1229.89 2069.38 1220.07L2045.57 1215.2 2045.57 1214.95 2044.34 1214.95 2018.39 1214.95 2018.19 1213.96C2013.65 1203.22 2003.03 1195.68 1990.65 1195.68L1968.83 1195.68 1959.13 1182.55C1945.26 1167.71 1926.54 1157.93 1906 1155.23 1901.88 1154.45 1897.7 1154.08 1893.5 1154.12 1889.65 1154.14 1885.8 1154.55 1882.03 1155.34 1861.49 1158.01 1842.76 1167.76 1828.88 1182.57L1822.07 1191.77 1822.07 1188.85C1822.07 1159.11 1846.15 1135 1875.86 1135Z" fill-rule="evenodd"/></g></svg>