<svg xmlns="http://www.w3.org/2000/svg" viewBox="0 0 546 545"><g transform="translate(2,2)"><g transform="translate(-3818 -102)"><path d="M3949.68 148.387C3902.62 148.387 3864.47 186.466 3864.47 233.438L3864.47 511.562C3864.47 558.534 3902.62 596.613 3949.68 596.613L4228.32 596.613C4275.38 596.613 4313.53 558.534 4313.53 511.562L4313.53 233.438C4313.53 186.466 4275.38 148.387 4228.32 148.387ZM3958.2 102 4219.8 102C4297.23 102 4360 164.654 4360 241.94L4360 503.06C4360 580.347 4297.23 643 4219.8 643L3958.2 643C3880.77 643 3818 580.347 3818 503.06L3818 241.94C3818 164.654 3880.77 102 3958.2 102Z" fill-rule="evenodd"/><path d="M4066.5 508C4054.07 508 4044 497.927 4044 485.5L4044 449.819 3992.41 501.41C3983.62 510.196 3969.38 510.196 3960.59 501.41 3951.8 492.623 3951.8 478.377 3960.59 469.59L4012.18 418 3976.5 418C3964.07 418 3954 407.927 3954 395.5 3954 383.073 3964.07 373 3976.5 373L4066.5 373C4072.47 373 4078.19 375.372 4082.41 379.59 4086.63 383.809 4089 389.533 4089 395.5L4089 485.5C4089 497.927 4078.93 508 4066.5 508Z" fill="#111111" fill-rule="evenodd"/><path d="M4202.33 373 4111.67 373C4099.15 373 4089 362.852 4089 350.333L4089 259.667C4089 247.148 4099.15 237 4111.67 237 4124.19 237 4134.33 247.148 4134.33 259.667L4134.33 295.611 4186.31 243.639C4195.16 234.788 4209.51 234.788 4218.36 243.639 4227.21 252.49 4227.21 266.842 4218.36 275.694L4166.39 327.667 4202.33 327.667C4214.85 327.667 4225 337.815 4225 350.333 4225 362.852 4214.85 373 4202.33 373Z" fill="#111111" fill-rule="evenodd"/></g></g></svg>
