<svg xmlns="http://www.w3.org/2000/svg" viewBox="0 0 546 545"><g transform="translate(2,2)"><g transform="translate(-3163 -102)"><path d="M3294.68 148.387C3247.62 148.387 3209.47 186.466 3209.47 233.438L3209.47 511.562C3209.47 558.534 3247.62 596.613 3294.68 596.613L3573.32 596.613C3620.38 596.613 3658.53 558.534 3658.53 511.562L3658.53 233.438C3658.53 186.466 3620.38 148.387 3573.32 148.387ZM3303.2 102 3564.8 102C3642.23 102 3705 164.654 3705 241.94L3705 503.06C3705 580.347 3642.23 643 3564.8 643L3303.2 643C3225.77 643 3163 580.347 3163 503.06L3163 241.94C3163 164.654 3225.77 102 3303.2 102Z" fill-rule="evenodd"/><path d="M3259.67 434C3272.19 434 3282.33 444.074 3282.33 456.5L3282.33 492.181 3334.31 440.59C3343.16 431.804 3357.51 431.804 3366.36 440.59 3375.21 449.377 3375.21 463.623 3366.36 472.41L3314.39 524 3350.33 524C3362.85 524 3373 534.073 3373 546.5 3373 558.927 3362.85 569 3350.33 569L3259.67 569C3253.65 569 3247.89 566.628 3243.64 562.41 3239.39 558.191 3237 552.467 3237 546.5L3237 456.5C3237 444.074 3247.15 434 3259.67 434Z" fill="#111111" fill-rule="evenodd"/><path d="M3517.67 176 3608.33 176C3620.85 176 3631 186.074 3631 198.5L3631 288.5C3631 300.927 3620.85 311 3608.33 311 3595.81 311 3585.67 300.927 3585.67 288.5L3585.67 252.82 3533.69 304.41C3524.84 313.196 3510.49 313.196 3501.64 304.41 3492.79 295.623 3492.79 281.377 3501.64 272.59L3553.61 221 3517.67 221C3505.15 221 3495 210.927 3495 198.5 3495 186.074 3505.15 176 3517.67 176Z" fill="#111111" fill-rule="evenodd"/></g></g></svg>
