<svg width="542" height="541" xmlns="http://www.w3.org/2000/svg" xmlns:xlink="http://www.w3.org/1999/xlink" xml:space="preserve" overflow="hidden"><defs><clipPath id="clip0"><rect x="2150" y="828" width="542" height="541"/></clipPath><clipPath id="clip1"><path d="M2243.77 899.556 2243.77 1280.48 2610.25 1280.48 2610.25 899.556ZM2150 828 2692 828 2692 1369 2150 1369Z" fill-rule="evenodd" clip-rule="evenodd"/></clipPath></defs><g clip-path="url(#clip0)" transform="translate(-2150 -828)"><path d="M2246.67 1160C2259.19 1160 2269.33 1170.07 2269.33 1182.5L2269.33 1218.18 2321.31 1166.59C2330.16 1157.8 2344.51 1157.8 2353.36 1166.59 2362.21 1175.38 2362.21 1189.62 2353.36 1198.41L2301.39 1250 2337.33 1250C2349.85 1250 2360 1260.07 2360 1272.5 2360 1284.93 2349.85 1295 2337.33 1295L2246.67 1295C2240.65 1295 2234.89 1292.63 2230.64 1288.41 2226.39 1284.19 2224 1278.47 2224 1272.5L2224 1182.5C2224 1170.07 2234.15 1160 2246.67 1160Z" fill="#111111" fill-rule="evenodd"/><path d="M2504.67 902 2595.33 902C2607.85 902 2618 912.074 2618 924.5L2618 1014.5C2618 1026.93 2607.85 1037 2595.33 1037 2582.81 1037 2572.67 1026.93 2572.67 1014.5L2572.67 978.82 2520.69 1030.41C2511.84 1039.2 2497.49 1039.2 2488.64 1030.41 2479.79 1021.62 2479.79 1007.38 2488.64 998.59L2540.61 947 2504.67 947C2492.15 947 2482 936.927 2482 924.5 2482 912.074 2492.15 902 2504.67 902Z" fill="#111111" fill-rule="evenodd"/><g clip-path="url(#clip1)"><path d="M201.889 3.83208e-06 339.112 3.83208e-06C369.837-0.000178755 394.272-0.000323924 413.987 1.61043 434.175 3.25989 451.39 6.71014 467.151 14.7414 492.601 27.7082 513.292 48.399 526.258 73.8479 534.289 89.6099 537.741 106.825 539.391 127.013 541 146.727 541 171.163 541 201.888L541 339.112C541 369.837 541 394.272 539.391 413.987 537.741 434.175 534.289 451.39 526.258 467.151 513.292 492.601 492.601 513.292 467.151 526.258 451.39 534.289 434.175 537.741 413.987 539.391 394.272 541 369.837 541 339.112 541L201.888 541C171.163 541 146.727 541 127.013 539.391 106.825 537.741 89.6099 534.289 73.8479 526.258 48.399 513.292 27.7082 492.601 14.7414 467.151 6.71014 451.39 3.25989 434.175 1.61043 413.987-0.000323924 394.272-0.000178755 369.837 3.83208e-06 339.112L3.83208e-06 201.889C-0.000178755 171.163-0.000323924 146.728 1.61043 127.013 3.25989 106.825 6.71014 89.6099 14.7414 73.8479 27.7082 48.3988 48.3988 27.7082 73.8479 14.7414 89.6099 6.71014 106.825 3.25989 127.013 1.61043 146.728-0.000323924 171.163-0.000178755 201.889 3.83208e-06ZM130.684 46.544C113.284 47.9657 102.663 50.6577 94.3152 54.9108 77.3493 63.5556 63.5556 77.3493 54.9108 94.3152 50.6577 102.663 47.9657 113.284 46.544 130.684 45.1009 148.348 45.0833 170.942 45.0833 202.875L45.0833 338.125C45.0833 370.058 45.1009 392.653 46.544 410.317 47.9657 427.717 50.6577 438.339 54.9108 446.686 63.5556 463.651 77.3493 477.444 94.3152 486.089 102.663 490.342 113.284 493.034 130.684 494.456 148.348 495.899 170.942 495.917 202.875 495.917L338.125 495.917C370.058 495.917 392.653 495.899 410.317 494.456 427.717 493.034 438.339 490.342 446.686 486.089 463.651 477.444 477.444 463.651 486.089 446.686 490.342 438.339 493.034 427.717 494.456 410.317 495.899 392.653 495.917 370.058 495.917 338.125L495.917 202.875C495.917 170.942 495.899 148.348 494.456 130.684 493.034 113.284 490.342 102.663 486.089 94.3152 477.444 77.3493 463.651 63.5556 446.686 54.9108 438.339 50.6577 427.717 47.9657 410.317 46.544 392.653 45.1009 370.058 45.0833 338.125 45.0833L202.875 45.0833C170.942 45.0833 148.348 45.1009 130.684 46.544ZM315.583 157.792C303.134 157.792 293.042 147.7 293.042 135.25 293.042 122.801 303.134 112.708 315.583 112.708L405.75 112.708C418.2 112.708 428.292 122.801 428.292 135.25L428.292 225.417C428.292 237.866 418.2 247.958 405.75 247.958 393.3 247.958 383.208 237.866 383.208 225.417L383.208 189.67 331.523 241.356C322.72 250.158 308.447 250.158 299.644 241.356 290.842 232.553 290.842 218.28 299.644 209.477L351.33 157.792ZM112.708 315.583C112.708 303.134 122.801 293.042 135.25 293.042 147.7 293.042 157.792 303.134 157.792 315.583L157.792 351.33 209.477 299.644C218.28 290.842 232.553 290.842 241.356 299.644 250.158 308.447 250.158 322.72 241.356 331.523L189.67 383.208 225.417 383.208C237.866 383.208 247.958 393.3 247.958 405.75 247.958 418.2 237.866 428.292 225.417 428.292L135.25 428.292C129.272 428.292 123.538 425.916 119.311 421.689 115.083 417.463 112.708 411.728 112.708 405.75Z" fill="#111111" fill-rule="evenodd" transform="matrix(1.00185 0 0 1 2150 828)"/></g></g></svg>