<svg width="542" height="541" xmlns="http://www.w3.org/2000/svg" xmlns:xlink="http://www.w3.org/1999/xlink" xml:space="preserve" overflow="hidden"><defs><clipPath id="clip0"><rect x="2805" y="828" width="542" height="541"/></clipPath><clipPath id="clip1"><path d="M2898.77 899.556 2898.77 1280.48 3265.25 1280.48 3265.25 899.556ZM2805 828 3347 828 3347 1369 2805 1369Z" fill-rule="evenodd" clip-rule="evenodd"/></clipPath></defs><g clip-path="url(#clip0)" transform="translate(-2805 -828)"><path d="M3053.5 1234C3041.07 1234 3031 1223.85 3031 1211.33L3031 1175.39 2979.41 1227.36C2970.62 1236.21 2956.38 1236.21 2947.59 1227.36 2938.8 1218.51 2938.8 1204.16 2947.59 1195.31L2999.18 1143.33 2963.5 1143.33C2951.07 1143.33 2941 1133.19 2941 1120.67 2941 1108.15 2951.07 1098 2963.5 1098L3053.5 1098C3059.47 1098 3065.19 1100.39 3069.41 1104.64 3073.63 1108.89 3076 1114.66 3076 1120.67L3076 1211.33C3076 1223.85 3065.93 1234 3053.5 1234Z" fill="#111111" fill-rule="evenodd"/><path d="M3188.5 1098 3098.5 1098C3086.07 1098 3076 1087.93 3076 1075.5L3076 985.5C3076 973.073 3086.07 963 3098.5 963 3110.93 963 3121 973.073 3121 985.5L3121 1021.18 3172.59 969.59C3181.38 960.804 3195.62 960.804 3204.41 969.59 3213.2 978.376 3213.2 992.623 3204.41 1001.41L3152.82 1053 3188.5 1053C3200.93 1053 3211 1063.07 3211 1075.5 3211 1087.93 3200.93 1098 3188.5 1098Z" fill="#111111" fill-rule="evenodd"/><g clip-path="url(#clip1)"><path d="M201.889 3.83208e-06 339.112 3.83208e-06C369.837-0.000178755 394.272-0.000323924 413.987 1.61043 434.175 3.25989 451.39 6.71014 467.151 14.7414 492.601 27.7082 513.292 48.399 526.258 73.8479 534.289 89.6099 537.741 106.825 539.391 127.013 541 146.727 541 171.163 541 201.888L541 339.112C541 369.837 541 394.272 539.391 413.987 537.741 434.175 534.289 451.39 526.258 467.151 513.292 492.601 492.601 513.292 467.151 526.258 451.39 534.289 434.175 537.741 413.987 539.391 394.272 541 369.837 541 339.112 541L201.888 541C171.163 541 146.727 541 127.013 539.391 106.825 537.741 89.6099 534.289 73.8479 526.258 48.399 513.292 27.7082 492.601 14.7414 467.151 6.71014 451.39 3.25989 434.175 1.61043 413.987-0.000323924 394.272-0.000178755 369.837 3.83208e-06 339.112L3.83208e-06 201.889C-0.000178755 171.163-0.000323924 146.728 1.61043 127.013 3.25989 106.825 6.71014 89.6099 14.7414 73.8479 27.7082 48.3988 48.3988 27.7082 73.8479 14.7414 89.6099 6.71014 106.825 3.25989 127.013 1.61043 146.728-0.000323924 171.163-0.000178755 201.889 3.83208e-06ZM130.684 46.544C113.284 47.9657 102.663 50.6577 94.3152 54.9108 77.3493 63.5556 63.5556 77.3493 54.9108 94.3152 50.6577 102.663 47.9657 113.284 46.544 130.684 45.1009 148.348 45.0833 170.942 45.0833 202.875L45.0833 338.125C45.0833 370.058 45.1009 392.653 46.544 410.317 47.9657 427.717 50.6577 438.339 54.9108 446.686 63.5556 463.651 77.3493 477.444 94.3152 486.089 102.663 490.342 113.284 493.034 130.684 494.456 148.348 495.899 170.942 495.917 202.875 495.917L338.125 495.917C370.058 495.917 392.653 495.899 410.317 494.456 427.717 493.034 438.339 490.342 446.686 486.089 463.651 477.444 477.444 463.651 486.089 446.686 490.342 438.339 493.034 427.717 494.456 410.317 495.899 392.653 495.917 370.058 495.917 338.125L495.917 202.875C495.917 170.942 495.899 148.348 494.456 130.684 493.034 113.284 490.342 102.663 486.089 94.3152 477.444 77.3493 463.651 63.5556 446.686 54.9108 438.339 50.6577 427.717 47.9657 410.317 46.544 392.653 45.1009 370.058 45.0833 338.125 45.0833L202.875 45.0833C170.942 45.0833 148.348 45.1009 130.684 46.544ZM315.583 157.792C303.134 157.792 293.042 147.7 293.042 135.25 293.042 122.801 303.134 112.708 315.583 112.708L405.75 112.708C418.2 112.708 428.292 122.801 428.292 135.25L428.292 225.417C428.292 237.866 418.2 247.958 405.75 247.958 393.3 247.958 383.208 237.866 383.208 225.417L383.208 189.67 331.523 241.356C322.72 250.158 308.447 250.158 299.644 241.356 290.842 232.553 290.842 218.28 299.644 209.477L351.33 157.792ZM112.708 315.583C112.708 303.134 122.801 293.042 135.25 293.042 147.7 293.042 157.792 303.134 157.792 315.583L157.792 351.33 209.477 299.644C218.28 290.842 232.553 290.842 241.356 299.644 250.158 308.447 250.158 322.72 241.356 331.523L189.67 383.208 225.417 383.208C237.866 383.208 247.958 393.3 247.958 405.75 247.958 418.2 237.866 428.292 225.417 428.292L135.25 428.292C129.272 428.292 123.538 425.916 119.311 421.689 115.083 417.463 112.708 411.728 112.708 405.75Z" fill="#111111" fill-rule="evenodd" transform="matrix(1.00185 0 0 1 2805 828)"/></g></g></svg>