<svg width="1631" height="1455" xmlns="http://www.w3.org/2000/svg" xmlns:xlink="http://www.w3.org/1999/xlink" xml:space="preserve" overflow="hidden"><defs><clipPath id="stv-clip0"><rect x="2872" y="1398" width="1631" height="1455"/></clipPath><linearGradient x1="1" y1="1" x2="0" y2="0" gradientUnits="objectBoundingBox" id="stv-fill1"><stop offset="0" stop-color="#56096E"/><stop offset="0.5" stop-color="#82239E"/><stop offset="1" stop-color="#AE3DCF"/></linearGradient></defs><g clip-path="url(#stv-clip0)" transform="translate(-2872 -1398)"><path d="M4154.62 1479.38C4125.23 1429.41 4071.76 1398.51 4013.77 1398L3361.23 1398C3303.24 1398.51 3249.77 1429.41 3220.38 1479.38L2894.11 2044.12C2864.63 2095.16 2864.63 2158.04 2894.11 2209.08L3220.38 2771.62C3249.77 2821.59 3303.24 2852.49 3361.23 2853L4013.77 2853C4071.76 2852.49 4125.23 2821.59 4154.62 2771.62L4480.89 2206.88C4510.37 2155.84 4510.37 2092.96 4480.89 2041.92L4154.62 1479.38Z" fill="url(#stv-fill1)" fill-rule="evenodd"/></g></svg>
