<svg fill="none" height="512" viewBox="0 0 24 24" width="512" xmlns="http://www.w3.org/2000/svg"><path d="m11 21h-.0858c-.2652 0-.5196-.1054-.7071-.2929l-8.85355-8.8535c-.22637-.2264-.35355-.5335-.35355-.8536s.12718-.6272.35355-.8536l8.83575-8.83574c.199-.19891.4687-.31066.75-.31066.5858 0 1.0607.47487 1.0607 1.06066v4.43934c6.0751 0 11 4.9249 11 11v4.9345c0 .3123-.2532.5655-.5655.5655-.2562 0-.4804-.1722-.5464-.4198l-.1958-.734c-.9979-3.7423-4.3871-6.3462-8.2602-6.3462h-1.4321v4.5c0 .5523-.4477 1-1 1z" fill="rgb(0,0,0)"/></svg>