<svg width="65" height="65" xmlns="http://www.w3.org/2000/svg" xmlns:xlink="http://www.w3.org/1999/xlink" xml:space="preserve" overflow="hidden">
	<g transform="translate(-2608 -1407)">
		<circle cx="2640.5" cy="1439.5" r="28" fill="#fff"/>
		<path d="M2628.14 1427.1 2615.47 1427.1C2615.47 1427.43 2615.48 1427.97 2615.48 1428.21 2617.54 1428.19 2620.54 1431.57 2621.4 1433.67 2625.1 1442.25 2628.92 1450.79 2632.6 1459.38 2632.6 1459.39 2633.75 1459.41 2633.76 1459.38 2636.17 1454.45 2638.98 1449.27 2641.52 1444.29L2647.94 1459.39C2647.94 1459.39 2649 1459.4 2649 1459.39 2653.07 1450.1 2659.16 1435.84 2661.15 1431.34 2661.97 1429.42 2663.32 1428.25 2665.52 1428.18L2665.53 1427.18 2665.52 1427.13 2655.52 1427.1C2655.52 1427.47 2655.52 1427.9 2655.51 1428.19 2656.36 1428.2 2658.53 1428.6 2659.22 1430.39L2649.64 1452.5C2649.17 1451.41 2644.71 1441.51 2644.21 1440.24L2648.84 1430.63C2649.79 1429.17 2651.63 1428.23 2653.39 1428.16L2653.39 1427.15 2643.77 1427.14C2643.74 1427.4 2643.77 1427.94 2643.73 1428.2 2646.44 1428.28 2647.41 1428.88 2646.76 1430.5 2645.69 1432.94 2643.44 1437.56 2643 1438.4 2641.62 1435.53 2640.75 1433.31 2639.25 1430.2 2638.6 1428.76 2640.03 1428.2 2641.54 1428.16L2641.54 1427.15 2630.4 1427.11C2630.41 1427.59 2630.39 1427.85 2630.39 1428.2 2631.94 1428.22 2633.96 1428.39 2634.76 1429.74 2635.82 1431.81 2639.38 1440.05 2640.45 1442.26 2639.08 1444.89 2635.75 1451.11 2634.56 1453.44 2632.85 1449.65 2626.52 1434.71 2624.74 1430.85 2624.07 1429.21 2626.64 1428.26 2628.13 1428.19ZM2640.5 1407C2658.45 1407 2673 1421.55 2673 1439.5 2673 1457.45 2658.45 1472 2640.5 1472 2622.55 1472 2608 1457.45 2608 1439.5 2608 1421.55 2622.55 1407 2640.5 1407Z" fill-rule="evenodd"/>
	</g>
</svg>