<svg width="901" height="442" xmlns="http://www.w3.org/2000/svg" xmlns:xlink="http://www.w3.org/1999/xlink" xml:space="preserve" overflow="hidden"><defs><clipPath id="clip0"><rect x="3228" y="1129" width="901" height="442"/></clipPath></defs><g clip-path="url(#clip0)" transform="translate(-3228 -1129)"><path d="M3665.97 1258.01 3673.19 1259.17C3679.12 1260.13 3684.46 1263.55 3687.87 1268.52L3706.8 1296.06C3696.48 1293.6 3684.35 1290.76 3670.14 1287.42L3661.91 1262.87C3661.49 1261.6 3661.74 1260.24 3662.58 1259.26 3663.43 1258.28 3664.71 1257.77 3665.97 1258.01ZM3621.45 1257.28 3631.08 1261.56C3632.11 1261.98 3632.88 1262.86 3633.17 1263.94L3639.94 1288.01C3653.83 1291.24 3731.91 1309.31 3757.61 1316.16 3778.25 1321.69 3782.93 1333.32 3783.9 1339.76 3784.29 1342.47 3783.54 1345.21 3781.84 1347.37 3780.16 1349.49 3777.65 1350.82 3774.99 1351 3759.13 1352.11 3728.05 1344.81 3721.02 1343.09L3661.42 1374.63C3656.94 1377.01 3651.76 1377.62 3646.85 1376.37L3638.59 1374.25C3638.1 1374.1 3637.66 1373.89 3637.25 1373.57 3636.61 1373.07 3636.12 1372.37 3635.92 1371.55 3635.62 1370.24 3636.02 1368.81 3637.03 1367.91L3676.33 1331.86C3666.31 1328.69 3646.27 1322.31 3633.27 1317.76 3623.19 1314.26 3616.97 1309.13 3613.54 1305.46 3609.68 1301.32 3608.14 1295.43 3609.47 1289.7L3616.39 1259.87C3616.65 1258.8 3617.35 1257.89 3618.34 1257.39 3619.33 1256.9 3620.46 1256.88 3621.45 1257.28Z" fill-rule="evenodd"/><path d="M4039 1129 4039 1571 3839 1571 3839 1156.55Z" fill-rule="evenodd"/><path d="M4049 1132 4129 1145.49 4129 1571 4049 1571Z" fill-rule="evenodd"/><path d="M3228.52 1204.8C3229.32 1201.3 3232.8 1199.11 3236.3 1199.9L3591.06 1280.41C3594.55 1281.2 3596.75 1284.68 3595.95 1288.18L3595.95 1288.18C3595.16 1291.68 3591.68 1293.87 3588.18 1293.08L3233.42 1212.57C3229.92 1211.78 3227.73 1208.3 3228.52 1204.8Z" fill-rule="evenodd"/></g></svg>