<svg id="Layer_1" enable-background="new 0 0 512.235 512.235" height="512" viewBox="0 0 512.235 512.235" width="512" xmlns="http://www.w3.org/2000/svg"><path d="m340.502 258.514c-1.32-1.321-1.32-3.471 0-4.792l161.257-161.336c13.789-13.794 13.789-36.24 0-50.035l-31.968-31.984c-6.682-6.686-15.566-10.367-25.016-10.367s-18.335 3.681-25.017 10.366l-161.257 161.338c-.816.816-1.747.988-2.383.988s-1.567-.171-2.383-.988l-161.258-161.338c-6.682-6.685-15.566-10.366-25.017-10.366s-18.334 3.681-25.016 10.366l-31.968 31.985c-13.789 13.795-13.789 36.241 0 50.035l161.257 161.336c1.32 1.321 1.32 3.471 0 4.792l-161.257 161.336c-13.788 13.795-13.788 36.24 0 50.035l31.968 31.984c6.682 6.685 15.566 10.366 25.016 10.366s18.335-3.681 25.017-10.366l161.257-161.336c.816-.817 1.746-.988 2.383-.988s1.566.171 2.383.989l161.257 161.336c6.682 6.685 15.566 10.366 25.017 10.366s18.334-3.681 25.016-10.366l31.968-31.984c13.788-13.794 13.788-36.24 0-50.035z"/></svg>