<svg id="Capa_1" enable-background="new 0 0 512.051 512.051" height="512" viewBox="0 0 512.051 512.051" width="512" xmlns="http://www.w3.org/2000/svg"><g><g id="Layer_2_15_"><g id="Exclamation_1_"><path d="m336.051 432.026c0 44.197-35.829 80.026-80.026 80.026s-80.025-35.829-80.025-80.026 35.829-80.026 80.026-80.026c44.185.028 79.997 35.84 80.025 80.026zm-150.733-406.836 13.568 272.026c.68 12.768 11.227 22.775 24.013 22.784h66.56c12.786-.009 23.333-10.016 24.013-22.784l13.312-272.026c.679-13.216-9.485-24.48-22.701-25.159-.42-.022-.84-.032-1.26-.032h-93.543c-13.234-.017-23.976 10.696-23.993 23.93-.001.421.01.842.031 1.261z"/></g></g></g></svg>