<svg height="512" viewBox="0 0 512 512" width="512" xmlns="http://www.w3.org/2000/svg"><g transform="scale(25.6)"><path clip-rule="evenodd" d="m10.496 2.13198c-.1511-.08629-.322-.13167-.496-.13167-.17397 0-.34494.04538-.496.13167l-7 4c-.19133.10946-.34113.27906-.42612.48244-.08499.20339-.10039.42915-.04383.64219.05657.21305.18195.40143.35663.53586.17469.13444.38889.20739.60932.20751v7.00002c-.26522 0-.51957.1053-.70711.2929-.18753.1875-.29289.4419-.29289.7071s.10536.5196.29289.7071c.18754.1875.44189.2929.70711.2929h14c.2652 0 .5196-.1054.7071-.2929s.2929-.4419.2929-.7071-.1054-.5196-.2929-.7071c-.1875-.1876-.4419-.2929-.7071-.2929v-7.00002c.2204-.00012.4346-.07307.6093-.20751.1747-.13443.3001-.32281.3566-.53586.0566-.21304.0412-.4388-.0438-.64219-.085-.20338-.2348-.37298-.4261-.48244zm-4.496 6.868c-.26522 0-.51957.10536-.70711.2929-.18753.18753-.29289.44189-.29289.7071v3.00002c0 .2652.10536.5196.29289.7071.18754.1875.44189.2929.70711.2929s.51957-.1054.70711-.2929c.18753-.1875.29289-.4419.29289-.7071v-3.00002c0-.26521-.10536-.51957-.29289-.7071-.18754-.18754-.44189-.2929-.70711-.2929zm3 1c0-.26521.10536-.51957.29289-.7071.18754-.18754.44189-.2929.70711-.2929.2652 0 .5196.10536.7071.2929.1875.18753.2929.44189.2929.7071v3.00002c0 .2652-.1054.5196-.2929.7071s-.4419.2929-.7071.2929c-.26522 0-.51957-.1054-.70711-.2929-.18753-.1875-.29289-.4419-.29289-.7071zm5-1c-.2652 0-.5196.10536-.7071.2929-.1875.18753-.2929.44189-.2929.7071v3.00002c0 .2652.1054.5196.2929.7071s.4419.2929.7071.2929.5196-.1054.7071-.2929.2929-.4419.2929-.7071v-3.00002c0-.26521-.1054-.51957-.2929-.7071-.1875-.18754-.4419-.2929-.7071-.2929z" fill-rule="evenodd"/></g></svg>
