<svg width="376" height="540" xmlns="http://www.w3.org/2000/svg" xmlns:xlink="http://www.w3.org/1999/xlink" xml:space="preserve" overflow="hidden"><defs><clipPath id="clip0"><rect x="1171" y="1677" width="376" height="540"/></clipPath></defs><g clip-path="url(#clip0)" transform="translate(-1171 -1677)"><path d="M370.006 238.634 247.281 238.634 243.005 244.041C231.085 256.154 210.897 264.118 187.999 264.118 165.102 264.118 144.914 256.154 132.994 244.041L128.719 238.634 5.99343 238.634 0.230267 352.881C-2.22267 402.128 14.9713 448.905 48.8757 484.607 82.7802 520.31 128.725 540 177.854 540L198.146 540C247.275 540 293.22 520.31 327.124 484.607 361.028 448.905 378.222 402.128 375.769 352.881ZM188 56.0933C170.862 56.0933 156.968 70.0171 156.968 87.1926L156.968 193.829C156.968 211.005 170.861 224.929 188 224.929 205.139 224.929 219.032 211.005 219.032 193.829L219.032 87.1926C219.032 70.0171 205.139 56.0933 188 56.0933ZM168.099 0 164.104 0C79.8202 10.9203 13.851 80.5297 9.57032 167.725L8.0053 198.747 121.665 198.747 121.665 62.4409C121.665 43.579 138.37 27.3959 162.179 20.4831L168.099 19.2213ZM211.896 0 207.9 0 207.9 19.2217 213.82 20.4831C237.629 27.3959 254.334 43.579 254.334 62.4409L254.334 198.747 367.994 198.747 366.429 167.725C362.149 80.5297 296.18 10.9203 211.896 0Z" fill-rule="evenodd" transform="matrix(-1 0 0 1 1547 1677)"/></g></svg>