<svg width="674" height="541" xmlns="http://www.w3.org/2000/svg" xmlns:xlink="http://www.w3.org/1999/xlink" xml:space="preserve" overflow="hidden"><defs><clipPath id="clip0"><rect x="3125" y="828" width="674" height="541"/></clipPath></defs><g clip-path="url(#clip0)" transform="translate(-3125 -828)"><path d="M59.6682 504.348C46.9799 504.348 36.6941 494.074 36.6941 481.4L36.6941 59.6001C36.6941 46.9263 46.9799 36.6523 59.6682 36.6523L614.332 36.6523C627.02 36.6523 637.306 46.9263 637.306 59.6001L637.306 481.4C637.306 494.074 627.02 504.348 614.332 504.348L59.6682 504.348ZM25.0157 541 648.984 541C662.8 541 674 529.813 674 516.013L674 24.9872C674 11.1872 662.8 0 648.984 0L25.0157 0C11.2 0 0 11.1872 0 24.9872L0 516.013C0 529.813 11.2 541 25.0157 541Z" fill-rule="evenodd" transform="matrix(1 0 0 -1 3125 1369)"/><path d="M135.329 196.69C193.638 196.69 244.034 161.425 264.027 110.83 268.09 99.9396 269.267 90.6527 270.443 80.0829L300.852 110.409 334.113 77.238 263.555 6.86996C254.37-2.28987 239.478-2.28987 230.293 6.86996L159.736 77.238 192.997 110.409 223.405 80.0833 220.639 92.9296C207.986 125.652 174.883 149.651 135.329 149.651 97.024 149.651 65.0501 127.325 51.4571 96.3184L48.3458 86.6638 0 86.6638 0.361253 90.1294C13.3667 151.496 69.502 196.69 135.329 196.69Z" fill-rule="evenodd" transform="matrix(0.871327 0.490702 0.490702 -0.871327 3291.42 1114.65)"/></g></svg>