<svg width="674" height="541" xmlns="http://www.w3.org/2000/svg" xmlns:xlink="http://www.w3.org/1999/xlink" xml:space="preserve" overflow="hidden"><defs><clipPath id="clip0"><rect x="2082" y="828" width="674" height="541"/></clipPath></defs><g clip-path="url(#clip0)" transform="translate(-2082 -828)"><path d="M36.6941 390.465 36.6941 59.6001C36.6941 46.9263 46.9799 36.6523 59.6681 36.6523L614.332 36.6523C627.02 36.6523 637.306 46.9263 637.306 59.6001L637.306 390.465ZM25.0157 541 648.984 541C662.8 541 674 529.813 674 516.013L674 24.9872C674 11.1872 662.8 0 648.984 0L25.0157 0C11.2 0 0 11.1872 0 24.9872L0 516.013C0 529.813 11.2 541 25.0157 541Z" fill-rule="evenodd" transform="matrix(1 0 0 -1 2082 1369)"/></g></svg>