<svg width="674" height="541" xmlns="http://www.w3.org/2000/svg" xmlns:xlink="http://www.w3.org/1999/xlink" xml:space="preserve" overflow="hidden"><defs><clipPath id="clip0"><rect x="1374" y="828" width="674" height="541"/></clipPath></defs><g clip-path="url(#clip0)" transform="translate(-1374 -828)"><path d="M234.566 504.348 234.566 36.6523 614.332 36.6523C627.02 36.6523 637.306 46.9263 637.306 59.6001L637.306 481.4C637.306 494.074 627.02 504.348 614.332 504.348ZM25.0157 541 648.984 541C662.8 541 674 529.813 674 516.013L674 24.9872C674 11.1872 662.8 0 648.984 0L25.0157 0C11.2 0 0 11.1872 0 24.9872L0 516.013C0 529.813 11.2 541 25.0157 541Z" fill-rule="evenodd" transform="matrix(1 0 0 -1 1374 1369)"/></g></svg>