<svg width="674" height="541" xmlns="http://www.w3.org/2000/svg" xmlns:xlink="http://www.w3.org/1999/xlink" xml:space="preserve" overflow="hidden"><defs><clipPath id="clip0"><rect x="2790" y="828" width="674" height="541"/></clipPath></defs><g clip-path="url(#clip0)" transform="translate(-2790 -828)"><path d="M3229.43 864.652 3229.43 1332.35 2849.67 1332.35C2836.98 1332.35 2826.69 1322.07 2826.69 1309.4L2826.69 887.6C2826.69 874.926 2836.98 864.652 2849.67 864.652ZM3438.98 828 2815.02 828C2801.2 828 2790 839.187 2790 852.987L2790 1344.01C2790 1357.81 2801.2 1369 2815.02 1369L3438.98 1369C3452.8 1369 3464 1357.81 3464 1344.01L3464 852.987C3464 839.187 3452.8 828 3438.98 828Z" fill-rule="evenodd"/></g></svg>