<svg id="Слой_1" enable-background="new 0 0 512 512" height="512" viewBox="0 0 512 512" width="512" xmlns="http://www.w3.org/2000/svg"><g fill="rgb(0,0,0)"><g><path d="m161.875 434.037c27.773 48.089 79.523 77.963 135.056 77.963 85.996 0 155.96-69.963 155.96-155.959v-122.11c0-21.904-17.82-39.724-39.724-39.724-8.722 0-16.796 2.825-23.355 7.609-4.461-17.056-20.003-29.678-38.438-29.678-9.223 0-17.723 3.16-24.472 8.454-5.57-15.218-20.197-26.109-37.321-26.109-8.159 0-15.753 2.474-22.069 6.709v-77.33c0-21.904-17.82-39.724-39.724-39.724s-39.724 17.82-39.724 39.724v210.602c0 2.708-1.586 5.195-4.042 6.337-3.309 1.539-7.176.316-9.001-2.842l-26.488-45.878c-7.663-13.272-20.035-22.767-34.839-26.734-14.806-3.967-30.267-1.931-43.539 5.732-5.105 2.947-8.758 7.707-10.284 13.402-1.525 5.695-.741 11.643 2.207 16.748zm-84.95-184.987c.176-.659.678-1.885 2.056-2.68 6.121-3.534 12.913-5.339 19.797-5.339 3.449 0 6.923.454 10.345 1.371 10.249 2.746 18.814 9.319 24.12 18.508l26.488 45.878c6.43 11.138 20.076 15.445 31.737 10.024 8.657-4.027 14.251-12.798 14.251-22.346v-210.604c0-12.169 9.9-22.069 22.069-22.069s22.069 9.9 22.069 22.069v163.31c0 4.875 3.952 8.828 8.828 8.828s8.828-3.952 8.828-8.828v-52.965c0-12.169 9.9-22.069 22.069-22.069s22.069 9.9 22.069 22.069v52.965c0 4.875 3.952 8.828 8.828 8.828 4.875 0 8.828-3.952 8.828-8.828v-35.31c0-12.169 9.9-22.069 22.069-22.069s22.069 9.9 22.069 22.069v39.724c0 4.875 3.952 8.828 8.828 8.828 4.875 0 8.828-3.952 8.828-8.828v-17.655c0-12.169 9.9-22.069 22.069-22.069s22.069 9.9 22.069 22.069v122.11c0 76.261-62.043 138.304-138.305 138.304-49.246 0-95.138-26.492-119.766-69.138l-99.803-172.808c-.795-1.377-.617-2.69-.44-3.349z"/><path d="m167.556 129.479c4.202-2.473 5.602-7.884 3.129-12.086-5.957-10.118-9.105-21.713-9.105-33.531 0-36.507 29.7-66.207 66.207-66.207s66.207 29.7 66.207 66.207c0 11.862-3.171 23.497-9.172 33.645-2.482 4.197-1.091 9.611 3.105 12.092 1.41.834 2.958 1.23 4.485 1.23 3.019 0 5.96-1.549 7.607-4.336 7.608-12.867 11.63-27.609 11.63-42.631 0-46.242-37.621-83.862-83.862-83.862s-83.862 37.62-83.862 83.862c0 14.965 3.992 29.657 11.546 42.488 2.472 4.2 7.881 5.604 12.085 3.129z"/></g><path d="m338.132 92.69h66.965l-26.862 26.862c-3.447 3.447-3.447 9.036 0 12.484 1.724 1.724 3.983 2.586 6.242 2.586s4.518-.862 6.242-2.586l41.931-41.931c3.447-3.447 3.447-9.036 0-12.484l-41.931-41.931c-3.448-3.447-9.036-3.447-12.485 0-3.447 3.447-3.447 9.036 0 12.484l26.862 26.862h-66.965c-4.875 0-8.828 3.952-8.828 8.828.001 4.873 3.953 8.826 8.829 8.826z"/></g></svg>