<svg id="Слой_1" enable-background="new 0 0 512 512" height="512" viewBox="0 0 512 512" width="512" xmlns="http://www.w3.org/2000/svg"><g fill="rgb(0,0,0)"><g><path d="m89.539 231.08c-5.105 2.947-8.758 7.707-10.284 13.402-1.525 5.695-.741 11.643 2.207 16.748l99.798 172.808c27.774 48.089 79.524 77.962 135.056 77.962 85.996 0 155.96-69.963 155.96-155.959v-122.11c0-21.904-17.82-39.724-39.724-39.724-8.722 0-16.796 2.825-23.355 7.609-4.461-17.056-20.003-29.678-38.438-29.678-9.223 0-17.723 3.16-24.472 8.454-5.57-15.218-20.197-26.109-37.321-26.109-8.159 0-15.753 2.474-22.069 6.709v-77.33c0-21.904-17.82-39.724-39.724-39.724s-39.724 17.82-39.724 39.724v210.602c0 2.708-1.586 5.195-4.042 6.337-3.308 1.539-7.176.316-9.001-2.842l-26.488-45.878c-7.663-13.272-20.035-22.767-34.839-26.734-14.807-3.967-30.268-1.93-43.54 5.733zm63.089 29.829 26.488 45.878c6.431 11.138 20.075 15.445 31.737 10.024 8.657-4.027 14.251-12.798 14.251-22.346v-210.603c0-12.169 9.9-22.069 22.069-22.069 12.168 0 22.069 9.9 22.069 22.069v163.31c0 4.875 3.952 8.828 8.828 8.828 4.875 0 8.828-3.952 8.828-8.828v-52.965c0-12.169 9.9-22.069 22.069-22.069s22.069 9.9 22.069 22.069v52.965c0 4.875 3.952 8.828 8.828 8.828 4.875 0 8.828-3.952 8.828-8.828v-35.31c0-12.169 9.9-22.069 22.069-22.069s22.069 9.9 22.069 22.069v39.724c0 4.875 3.952 8.828 8.828 8.828s8.828-3.952 8.828-8.828v-17.655c0-12.169 9.9-22.069 22.069-22.069s22.069 9.9 22.069 22.069v122.11c0 76.261-62.043 138.304-138.304 138.304-49.246 0-95.138-26.492-119.766-69.137l-99.803-172.809c-.795-1.377-.618-2.69-.441-3.349.176-.659.678-1.885 2.056-2.68 6.121-3.534 12.913-5.339 19.797-5.339 3.449 0 6.923.454 10.345 1.371 10.25 2.745 18.815 9.318 24.12 18.507z"/><path d="m186.942 129.479c4.202-2.473 5.602-7.884 3.129-12.086-5.957-10.118-9.105-21.713-9.105-33.531 0-36.507 29.7-66.207 66.207-66.207s66.207 29.7 66.207 66.207c0 11.862-3.171 23.497-9.172 33.645-2.482 4.197-1.091 9.611 3.105 12.092 1.41.834 2.958 1.23 4.485 1.23 3.019 0 5.96-1.549 7.607-4.336 7.608-12.867 11.63-27.609 11.63-42.631-.001-46.242-37.621-83.862-83.863-83.862s-83.862 37.62-83.862 83.862c0 14.965 3.992 29.657 11.546 42.488 2.473 4.2 7.882 5.603 12.086 3.129z"/></g><path d="m84.241 132.035c1.724 1.724 3.983 2.586 6.242 2.586s4.518-.862 6.242-2.586c3.447-3.447 3.447-9.036 0-12.484l-26.862-26.861h66.964c4.875 0 8.828-3.952 8.828-8.828s-3.952-8.828-8.828-8.828h-66.964l26.862-26.862c3.447-3.447 3.447-9.036 0-12.484-3.448-3.447-9.036-3.447-12.485 0l-41.93 41.932c-3.447 3.447-3.447 9.036 0 12.484z"/></g></svg>