<svg id="Layer_2_00000045598406649520778360000006502276237705263033_" enable-background="new 0 0 512 512" viewBox="0 0 512 512" xmlns="http://www.w3.org/2000/svg"><g id="Icon"><path id="_47" d="m354.5 222.3c0-9.4 11.3-14.1 17.9-7.4l105.2 105.1c8.2 8.2 8.2 21.5 0 29.7l-105.1 105.1c-6.6 6.6-17.9 1.9-17.9-7.4v-53.4h-136.7c-11.6 0-21-9.4-21-21v-76.2c0-11.6 9.4-21 21-21h136.6zm-197-157.7c0-9.4-11.3-14-17.9-7.4l-105.2 105.1c-8.2 8.2-8.2 21.5 0 29.7l105.1 105.1c6.6 6.6 17.9 1.9 17.9-7.4v-53.4h136.6c11.6 0 21-9.4 21-21v-76.2c0-11.6-9.4-21-21-21h-136.5z"/></g></svg>