<svg width="470" height="572" xmlns="http://www.w3.org/2000/svg" xmlns:xlink="http://www.w3.org/1999/xlink" xml:space="preserve" overflow="hidden"><defs><clipPath id="clip0"><rect x="3076" y="953" width="470" height="572"/></clipPath></defs><g clip-path="url(#clip0)" transform="translate(-3076 -953)"><path d="M3373.96 1019.65C3361.1 1019.65 3350.64 1030.11 3350.64 1042.97L3350.64 1095.34 3350.64 1178.81 3350.64 1194.35 3350.63 1194.35 3350.63 1245.88C3350.63 1251.02 3346.47 1255.18 3341.33 1255.18 3336.19 1255.18 3332.03 1251.01 3332.03 1245.88L3332.03 1194.35 3331.99 1194.35 3331.99 1178.81 3331.99 1095.34 3331.99 1073.04 3331.91 1071.38C3330.71 1059.66 3320.79 1050.49 3308.77 1050.49 3295.94 1050.49 3285.51 1060.93 3285.51 1073.75L3285.51 1295.72C3285.51 1305.79 3279.61 1315.03 3270.49 1319.27 3258.2 1324.99 3243.82 1320.45 3237.04 1308.71L3209.13 1260.36C3203.54 1250.67 3194.51 1243.74 3183.71 1240.85 3180.1 1239.88 3176.44 1239.4 3172.81 1239.4 3165.55 1239.4 3158.39 1241.31 3151.94 1245.03 3150.49 1245.87 3149.96 1247.16 3149.78 1247.86 3149.59 1248.55 3149.4 1249.93 3150.24 1251.39L3255.42 1433.52C3281.38 1478.47 3329.74 1506.39 3381.64 1506.39 3462.01 1506.39 3527.4 1441 3527.4 1360.62L3527.4 1231.92C3527.4 1219.1 3516.96 1208.66 3504.14 1208.66 3491.31 1208.66 3480.88 1219.1 3480.88 1231.92L3480.88 1250.53C3480.88 1255.67 3476.72 1259.83 3471.58 1259.83 3466.44 1259.83 3462.27 1255.67 3462.27 1250.53L3462.27 1208.66C3462.27 1195.83 3451.84 1185.4 3439.01 1185.4 3426.19 1185.4 3415.76 1195.83 3415.76 1208.66L3415.76 1245.88C3415.76 1251.02 3411.59 1255.18 3406.45 1255.18 3401.31 1255.18 3397.15 1251.01 3397.15 1245.88L3397.15 1193.19 3397.27 1193.19 3397.27 1178.81 3397.27 1095.34 3397.27 1042.97C3397.27 1030.11 3386.81 1019.65 3373.96 1019.65ZM3373.96 1001C3397.1 1001 3415.92 1019.83 3415.92 1042.97L3415.92 1095.34 3415.92 1124.67 3416.07 1124.6 3416.07 1140.14 3416.07 1158.83 3416.07 1173.82 3418.89 1171.96C3424.86 1168.67 3431.72 1166.79 3439.01 1166.79 3458.44 1166.79 3474.82 1180.1 3479.52 1198.07 3486.43 1193.03 3494.94 1190.05 3504.14 1190.05 3527.22 1190.05 3546 1208.83 3546 1231.92L3546 1360.62C3546 1451.26 3472.27 1525 3381.64 1525 3323.11 1525 3268.57 1493.51 3239.3 1442.83L3134.13 1260.69C3131.02 1255.31 3130.19 1249.04 3131.8 1243.04 3133.41 1237.04 3137.26 1232.02 3142.64 1228.92 3156.63 1220.84 3172.92 1218.69 3188.53 1222.87 3204.13 1227.05 3217.17 1237.06 3225.24 1251.05L3253.16 1299.41C3255.08 1302.73 3259.16 1304.02 3262.64 1302.4 3265.23 1301.2 3266.9 1298.58 3266.9 1295.72L3266.9 1073.75C3266.9 1050.67 3285.68 1031.88 3308.77 1031.88 3317.42 1031.88 3325.48 1034.52 3332.16 1039.04L3332.19 1039.07 3332.21 1038.68C3334.36 1017.55 3352.26 1001 3373.96 1001Z" fill-rule="evenodd"/><path d="M3371.49 953C3420.29 953 3460 992.738 3460 1041.58 3460 1057.45 3455.75 1073.02 3447.72 1086.62 3445.99 1089.56 3442.88 1091.2 3439.7 1091.2 3438.08 1091.2 3436.45 1090.78 3434.96 1089.9 3430.53 1087.28 3429.07 1081.56 3431.69 1077.12 3438.02 1066.4 3441.37 1054.11 3441.37 1041.58 3442.74 987.202 3396.32 971.779 3371.49 971.649 3341.16 971.519 3322.47 993.693 3317.14 1003.66L3306.51 1002.59C3267.98 1002.59 3236.63 1033.96 3236.63 1072.52 3236.63 1085.01 3239.96 1097.26 3246.24 1107.94 3248.85 1112.38 3247.38 1118.1 3242.94 1120.71 3238.51 1123.32 3232.8 1121.84 3230.19 1117.4 3222.21 1103.85 3218 1088.33 3218 1072.52 3218 1029.78 3248.4 994.017 3288.7 985.743L3305.51 984.041 3308.93 978.975C3324.96 962.935 3347.08 953 3371.49 953Z" fill-rule="evenodd"/><path d="M13.9983 0 69.9915 0C77.7226 0 83.9898 6.26734 83.9898 13.9983L83.9898 69.9915C83.9898 77.7226 77.7226 83.9898 69.9915 83.9898 62.2603 83.9898 55.9932 77.7226 55.9932 69.9915L55.9932 47.7932 23.8965 79.8896C18.4301 85.356 9.56651 85.356 4.10012 79.8896-1.36626 74.4233-1.36626 65.5599 4.10012 60.0931L36.1968 27.9966 13.9983 27.9966C6.26712 27.9966 0 21.7295 0 13.9983 0 6.26734 6.26712 0 13.9983 0Z" fill="#111111" fill-rule="evenodd" transform="matrix(-0.71973 -0.694254 -0.694254 0.71973 3189.24 1036.8)"/></g></svg>