<svg width="470" height="572" xmlns="http://www.w3.org/2000/svg" xmlns:xlink="http://www.w3.org/1999/xlink" xml:space="preserve" overflow="hidden"><defs><clipPath id="clip0"><rect x="3685" y="953" width="470" height="572"/></clipPath></defs><g clip-path="url(#clip0)" transform="translate(-3685 -953)"><path d="M3982.96 1019.65C3970.1 1019.65 3959.64 1030.11 3959.64 1042.97L3959.64 1095.34 3959.64 1178.81 3959.64 1194.35 3959.63 1194.35 3959.63 1245.88C3959.63 1251.02 3955.47 1255.18 3950.33 1255.18 3945.19 1255.18 3941.03 1251.01 3941.03 1245.88L3941.03 1194.35 3940.99 1194.35 3940.99 1178.81 3940.99 1095.34 3940.99 1073.04 3940.91 1071.38C3939.71 1059.66 3929.79 1050.49 3917.77 1050.49 3904.94 1050.49 3894.51 1060.93 3894.51 1073.75L3894.51 1295.72C3894.51 1305.79 3888.61 1315.03 3879.49 1319.27 3867.2 1324.99 3852.82 1320.45 3846.04 1308.71L3818.13 1260.36C3812.54 1250.67 3803.51 1243.74 3792.71 1240.85 3789.1 1239.88 3785.44 1239.4 3781.81 1239.4 3774.55 1239.4 3767.39 1241.31 3760.94 1245.03 3759.49 1245.87 3758.96 1247.16 3758.78 1247.86 3758.59 1248.55 3758.4 1249.93 3759.24 1251.39L3864.42 1433.52C3890.38 1478.47 3938.74 1506.39 3990.64 1506.39 4071.01 1506.39 4136.4 1441 4136.4 1360.62L4136.4 1231.92C4136.4 1219.1 4125.96 1208.66 4113.14 1208.66 4100.31 1208.66 4089.88 1219.1 4089.88 1231.92L4089.88 1250.53C4089.88 1255.67 4085.72 1259.83 4080.58 1259.83 4075.44 1259.83 4071.27 1255.67 4071.27 1250.53L4071.27 1208.66C4071.27 1195.83 4060.84 1185.4 4048.01 1185.4 4035.19 1185.4 4024.76 1195.83 4024.76 1208.66L4024.76 1245.88C4024.76 1251.02 4020.59 1255.18 4015.45 1255.18 4010.31 1255.18 4006.15 1251.01 4006.15 1245.88L4006.15 1193.19 4006.27 1193.19 4006.27 1178.81 4006.27 1095.34 4006.27 1042.97C4006.27 1030.11 3995.81 1019.65 3982.96 1019.65ZM3982.96 1001C4006.1 1001 4024.92 1019.83 4024.92 1042.97L4024.92 1095.34 4024.92 1124.67 4025.07 1124.6 4025.07 1140.14 4025.07 1158.83 4025.07 1173.82 4027.89 1171.96C4033.86 1168.67 4040.72 1166.79 4048.01 1166.79 4067.44 1166.79 4083.82 1180.1 4088.52 1198.07 4095.43 1193.03 4103.94 1190.05 4113.14 1190.05 4136.22 1190.05 4155 1208.83 4155 1231.92L4155 1360.62C4155 1451.26 4081.27 1525 3990.64 1525 3932.11 1525 3877.57 1493.51 3848.3 1442.83L3743.13 1260.69C3740.02 1255.31 3739.19 1249.04 3740.8 1243.04 3742.41 1237.04 3746.26 1232.02 3751.64 1228.92 3765.63 1220.84 3781.92 1218.69 3797.53 1222.87 3813.13 1227.05 3826.17 1237.06 3834.24 1251.05L3862.16 1299.41C3864.08 1302.73 3868.16 1304.02 3871.64 1302.4 3874.23 1301.2 3875.9 1298.58 3875.9 1295.72L3875.9 1073.75C3875.9 1050.67 3894.68 1031.88 3917.77 1031.88 3926.42 1031.88 3934.48 1034.52 3941.16 1039.04L3941.19 1039.07 3941.21 1038.68C3943.36 1017.55 3961.26 1001 3982.96 1001Z" fill-rule="evenodd"/><path d="M3980.49 953C4029.29 953 4069 992.738 4069 1041.58 4069 1057.45 4064.75 1073.02 4056.73 1086.62 4054.99 1089.56 4051.88 1091.2 4048.7 1091.2 4047.08 1091.2 4045.45 1090.78 4043.96 1089.9 4039.53 1087.28 4038.07 1081.56 4040.69 1077.12 4047.02 1066.4 4050.37 1054.11 4050.37 1041.58 4051.74 987.202 4005.32 971.779 3980.49 971.649 3950.16 971.519 3931.47 993.693 3926.14 1003.66L3915.51 1002.59C3876.98 1002.59 3845.64 1033.96 3845.64 1072.52 3845.64 1085.01 3848.96 1097.26 3855.25 1107.94 3857.86 1112.38 3856.38 1118.1 3851.94 1120.71 3847.51 1123.32 3841.8 1121.84 3839.19 1117.4 3831.21 1103.85 3827 1088.33 3827 1072.52 3827 1029.78 3857.4 994.017 3897.7 985.743L3914.51 984.041 3917.93 978.975C3933.96 962.935 3956.08 953 3980.49 953Z" fill-rule="evenodd"/><path d="M3788.07 1048.66 3747.77 1087.53C3742.2 1092.9 3733.34 1092.74 3727.97 1087.17L3689.1 1046.87C3683.73 1041.31 3683.89 1032.45 3689.45 1027.08 3695.02 1021.71 3703.88 1021.87 3709.25 1027.44L3724.66 1043.41 3725.48 998.03C3725.62 990.301 3732 984.147 3739.73 984.287 3747.45 984.426 3753.61 990.805 3753.47 998.535L3752.65 1043.92 3768.63 1028.51C3774.19 1023.14 3783.05 1023.3 3788.42 1028.86 3793.79 1034.43 3793.63 1043.29 3788.07 1048.66Z" fill="#111111" fill-rule="evenodd"/></g></svg>