<svg width="362" height="539" xmlns="http://www.w3.org/2000/svg" xmlns:xlink="http://www.w3.org/1999/xlink" xml:space="preserve" overflow="hidden"><defs><clipPath id="clip0"><rect x="2909" y="989" width="362" height="539"/></clipPath></defs><g clip-path="url(#clip0)" transform="translate(-2909 -989)"><path d="M3212.08 1113.53C3206.46 1113.41 3200.8 1115.44 3196.44 1119.63L3045.38 1264.8C3038.53 1271.38 3028.39 1273.41 3019.55 1269.96 3007.64 1265.32 3001.34 1252.55 3004.9 1240.25L3019.58 1189.59C3022.52 1179.45 3021.34 1168.76 3016.26 1159.5 3014.56 1156.41 3012.5 1153.6 3010.13 1151.12 3005.39 1146.18 2999.42 1142.54 2992.67 1140.58 2991.16 1140.14 2989.93 1140.62 2989.34 1140.95 2988.74 1141.28 2987.68 1142.05 2987.24 1143.58L2931.96 1334.4C2918.32 1381.5 2930.89 1432.73 2964.78 1468.12 3017.25 1522.91 3104.44 1524.73 3159.14 1472.16L3246.72 1387.99C3255.45 1379.61 3255.74 1365.67 3247.37 1356.92 3238.99 1348.18 3225.08 1347.89 3216.35 1356.28L3203.69 1368.45C3200.19 1371.81 3194.64 1371.69 3191.28 1368.19 3187.93 1364.69 3188.04 1359.12 3191.54 1355.76L3220.03 1328.38C3228.76 1319.99 3229.05 1306.05 3220.68 1297.31 3212.31 1288.57 3198.39 1288.28 3189.66 1296.66L3164.34 1321C3160.84 1324.36 3155.29 1324.25 3151.93 1320.75 3148.58 1317.24 3148.69 1311.68 3152.19 1308.32L3190.18 1271.81C3198.91 1263.42 3199.2 1249.48 3190.82 1240.74 3182.45 1232 3168.54 1231.71 3159.81 1240.09L3121.82 1276.6C3118.32 1279.96 3112.77 1279.85 3109.41 1276.34 3106.06 1272.84 3106.18 1267.28 3109.67 1263.91L3226.81 1151.35C3235.54 1142.96 3235.82 1129.02 3227.45 1120.28 3223.27 1115.91 3217.69 1113.65 3212.08 1113.53ZM3212.44 1095.96C3222.55 1096.17 3232.58 1100.24 3240.12 1108.11 3255.19 1123.85 3254.67 1148.93 3238.96 1164.03L3183.49 1217.34C3190.87 1218.95 3197.87 1222.71 3203.49 1228.57 3215.27 1240.87 3217.52 1258.89 3210.44 1273.38 3218.88 1274.58 3226.99 1278.51 3233.34 1285.14 3246.02 1298.39 3247.67 1318.25 3238.5 1333.22 3246.45 1334.63 3254.03 1338.49 3260.03 1344.75 3275.1 1360.49 3274.58 1385.58 3258.87 1400.68L3171.28 1484.85C3109.6 1544.12 3011.28 1542.08 2952.11 1480.28 2913.9 1440.38 2899.72 1382.61 2915.1 1329.5L2970.39 1138.68C2972.02 1133.04 2975.75 1128.38 2980.88 1125.55 2986.01 1122.72 2991.94 1122.06 2997.57 1123.7 3012.2 1127.95 3024.3 1137.66 3031.64 1151.03 3038.98 1164.4 3040.68 1179.84 3036.43 1194.49L3021.75 1245.15C3020.74 1248.64 3022.53 1252.26 3025.91 1253.58 3028.42 1254.55 3031.29 1253.98 3033.23 1252.11L3184.29 1106.95C3192.15 1099.4 3202.33 1095.75 3212.44 1095.96ZM3021.33 989C3024.91 988.998 3028.49 990.364 3031.22 993.099 3036.69 998.567 3036.69 1007.44 3031.23 1012.91L3015.56 1028.62 3060.9 1028.6C3068.62 1028.6 3074.89 1034.87 3074.89 1042.61 3074.89 1050.34 3068.64 1056.62 3060.91 1056.62L3015.57 1056.64 3031.26 1072.34C3036.72 1077.81 3036.72 1086.68 3031.27 1092.15 3025.81 1097.62 3016.95 1097.63 3011.49 1092.16L2971.92 1052.56C2966.46 1047.09 2966.46 1038.22 2971.92 1032.75L3011.45 993.107C3014.18 990.37 3017.76 989.001 3021.33 989ZM3146.83 989C3150.41 989.001 3153.98 990.37 3156.71 993.107L3196.25 1032.75C3201.7 1038.22 3201.7 1047.09 3196.24 1052.56L3156.67 1092.16C3151.21 1097.63 3142.35 1097.62 3136.89 1092.15 3131.44 1086.68 3131.44 1077.81 3136.9 1072.34L3152.59 1056.64 3107.25 1056.62C3099.53 1056.62 3093.27 1050.34 3093.27 1042.61 3093.27 1034.87 3099.54 1028.6 3107.26 1028.6L3152.6 1028.62 3136.93 1012.91C3131.47 1007.44 3131.47 998.567 3136.94 993.099 3139.67 990.364 3143.25 988.998 3146.83 989Z" fill="#111111" fill-rule="evenodd"/></g></svg>