<svg width="362" height="539" xmlns="http://www.w3.org/2000/svg" xmlns:xlink="http://www.w3.org/1999/xlink" xml:space="preserve" overflow="hidden"><defs><clipPath id="clip0"><rect x="2350" y="989" width="362" height="539"/></clipPath></defs><g clip-path="url(#clip0)" transform="translate(-2350 -989)"><path d="M2653.08 1113.53C2647.46 1113.41 2641.8 1115.44 2637.44 1119.63L2486.38 1264.8C2479.53 1271.38 2469.39 1273.41 2460.55 1269.96 2448.63 1265.32 2442.34 1252.55 2445.9 1240.25L2460.58 1189.59C2463.52 1179.45 2462.34 1168.76 2457.26 1159.5 2455.56 1156.41 2453.5 1153.6 2451.12 1151.12 2446.39 1146.18 2440.42 1142.54 2433.67 1140.58 2432.16 1140.14 2430.93 1140.62 2430.34 1140.95 2429.74 1141.28 2428.68 1142.05 2428.24 1143.58L2372.96 1334.4C2359.32 1381.5 2371.89 1432.73 2405.78 1468.12 2458.25 1522.91 2545.44 1524.73 2600.14 1472.16L2687.72 1387.99C2696.45 1379.61 2696.74 1365.67 2688.37 1356.92 2679.99 1348.18 2666.08 1347.89 2657.35 1356.28L2644.69 1368.45C2641.19 1371.81 2635.64 1371.69 2632.28 1368.19 2628.93 1364.69 2629.04 1359.12 2632.54 1355.76L2661.03 1328.38C2669.76 1319.99 2670.05 1306.05 2661.68 1297.31 2653.3 1288.57 2639.39 1288.28 2630.66 1296.66L2605.34 1321C2601.84 1324.36 2596.29 1324.25 2592.93 1320.75 2589.58 1317.24 2589.69 1311.68 2593.19 1308.32L2631.18 1271.81C2639.91 1263.42 2640.2 1249.48 2631.82 1240.74 2623.45 1232 2609.54 1231.71 2600.81 1240.09L2562.82 1276.6C2559.32 1279.96 2553.77 1279.85 2550.41 1276.34 2547.06 1272.84 2547.17 1267.28 2550.67 1263.91L2667.81 1151.35C2676.54 1142.96 2676.82 1129.02 2668.45 1120.28 2664.26 1115.91 2658.69 1113.65 2653.08 1113.53ZM2653.44 1095.96C2663.55 1096.17 2673.58 1100.24 2681.11 1108.11 2696.19 1123.85 2695.67 1148.93 2679.95 1164.03L2624.49 1217.34C2631.87 1218.95 2638.87 1222.71 2644.49 1228.57 2656.27 1240.87 2658.52 1258.89 2651.44 1273.38 2659.88 1274.58 2667.99 1278.51 2674.34 1285.14 2687.02 1298.39 2688.67 1318.25 2679.5 1333.22 2687.45 1334.63 2695.03 1338.49 2701.03 1344.75 2716.1 1360.49 2715.58 1385.58 2699.87 1400.68L2612.28 1484.85C2550.6 1544.12 2452.28 1542.08 2393.11 1480.28 2354.9 1440.38 2340.72 1382.61 2356.1 1329.5L2411.38 1138.68C2413.02 1133.04 2416.74 1128.38 2421.88 1125.55 2427.01 1122.72 2432.94 1122.06 2438.57 1123.7 2453.2 1127.95 2465.29 1137.66 2472.64 1151.03 2479.98 1164.4 2481.68 1179.84 2477.43 1194.49L2462.75 1245.15C2461.74 1248.64 2463.53 1252.26 2466.91 1253.58 2469.42 1254.55 2472.29 1253.98 2474.23 1252.11L2625.29 1106.95C2633.15 1099.4 2643.33 1095.75 2653.44 1095.96ZM2462.38 989C2465.96 989.001 2469.54 990.37 2472.27 993.107L2511.8 1032.75C2517.26 1038.22 2517.25 1047.09 2511.79 1052.56L2472.22 1092.16C2466.76 1097.63 2457.91 1097.62 2452.45 1092.15 2446.99 1086.68 2446.99 1077.81 2452.46 1072.34L2468.14 1056.64 2422.8 1056.62C2415.08 1056.62 2408.82 1050.34 2408.82 1042.61 2408.83 1034.87 2415.09 1028.6 2422.81 1028.6L2468.15 1028.62 2452.48 1012.91C2447.02 1007.44 2447.03 998.567 2452.49 993.099 2455.22 990.364 2458.8 988.998 2462.38 989ZM2587.78 989C2591.36 988.998 2594.94 990.364 2597.67 993.099 2603.13 998.567 2603.14 1007.44 2597.68 1012.91L2582.01 1028.62 2627.35 1028.6C2635.07 1028.6 2641.33 1034.87 2641.34 1042.61 2641.34 1050.34 2635.08 1056.62 2627.36 1056.62L2582.02 1056.64 2597.7 1072.34C2603.17 1077.81 2603.17 1086.68 2597.71 1092.15 2592.25 1097.62 2583.4 1097.63 2577.94 1092.16L2538.37 1052.56C2532.91 1047.09 2532.9 1038.22 2538.36 1032.75L2577.89 993.107C2580.62 990.37 2584.2 989.001 2587.78 989Z" fill="#111111" fill-rule="evenodd"/></g></svg>