<svg id="Solid" height="512" viewBox="0 0 128 128" width="512" xmlns="http://www.w3.org/2000/svg"><path d="m48.312 47.873a1.5 1.5 0 0 1 .219 1.145c-.764 3.384 1.856 3.126 2.889 5.712a7.538 7.538 0 0 1 .32 1.986 1.271 1.271 0 0 1 -.146.688 16.112 16.112 0 0 0 -1.825 6.788.353.353 0 0 0 .646.207c2.447-3.509 8.667-9.97 9.183-10.567a1.569 1.569 0 0 1 2.336-.089 1.514 1.514 0 0 1 .016 1.957c-.59.68-8.143 8.534-10.791 13.067-.282.483-1.274 2.315-1.439 2.647a28.766 28.766 0 0 0 -3.129 12.05.184.184 0 0 0 .357.064 63.955 63.955 0 0 1 4.982-10.648 1.5 1.5 0 1 1 2.55 1.59c-.039.058-11.006 21.105-8.2 36.975a.928.928 0 0 0 1.426.633c4.26-2.837 19.243-12.72 24.088-14.657a4.962 4.962 0 0 1 1.859-.491c2.2-.019 3.869 5.085 5.97 6.01a1.61 1.61 0 0 0 2.48-1.42 23.725 23.725 0 0 0 -.06-3.1c-.01-.17-.769-6.066-1.48-9.8-1.3-6.842-2.81-14.43-2.81-21.04 0-5.91.54-16.5.03-18.58-.019-.074-.047-.149-.07-.223.57-4.288-4.32-15.4-4.32-15.4a3.744 3.744 0 0 0 1.65-3.08v-.006l4.527-1.431a1.552 1.552 0 0 0 1.108-1.66 1.5 1.5 0 0 0 -1.939-1.222l-4.46 1.411a11.02 11.02 0 0 0 -2.016-3.105l3.137-4.016a1.5 1.5 0 1 0 -2.363-1.848l-3.1 3.961a8.056 8.056 0 0 0 -2.438-.929v-4.272c0-.014 0-.026 0-.039v-1.961a1.5 1.5 0 1 0 -3 0v6.2a8.4 8.4 0 0 0 -2.535.879l-3-3.839a1.5 1.5 0 1 0 -2.364 1.848l2.99 3.824a11.068 11.068 0 0 0 -2.149 3.208l-3.92-1.24a1.5 1.5 0 0 0 -1.938 1.222 1.553 1.553 0 0 0 1.109 1.662l3.958 1.256a3.722 3.722 0 0 0 1.65 3.18 49.778 49.778 0 0 1 -2.375 6.607c-1.1-.687-2.032-.919-2.664.463-3.794-5.58-4.62-14.031-4.425-17.856.1-1.971 2.478-1.706 2.278-4.656a2.714 2.714 0 0 0 -2.852-2.438c-3.6 0-4.343 5.537-4.405 6.688-.174 3.212-1.252 10.526 1.294 19.145a28.162 28.162 0 0 0 3.161 6.54zm16.849-3.807a4.662 4.662 0 0 1 -2.81-2.5 2.389 2.389 0 0 0 .159-.366c.04-.11.08-.24.11-.36a5.086 5.086 0 0 0 3.22 1.47 4.76 4.76 0 0 0 2.85-1.16c.03.12.07.25.11.37a6.056 6.056 0 0 0 .365.854 20.022 20.022 0 0 0 -4.004 1.692zm6.109 23.124a99.833 99.833 0 0 0 -2.62 11.04 1.494 1.494 0 0 1 -1.48 1.27 1.785 1.785 0 0 1 -.23-.02 1.5 1.5 0 0 1 -1.26-1.71 103.9 103.9 0 0 1 2.69-11.38c1.63-5.89 3.17-11.45 2.88-16.1a1.5 1.5 0 1 1 2.99-.19c.32 5.15-1.35 11.22-2.97 17.09zm-5.85-40.02a.489.489 0 0 1 .85 0 20.6 20.6 0 0 0 4.89 5.14 1.9 1.9 0 0 1 .74 1.79c-.58 3.76-3.67 6.66-6.06 6.66s-5.47-2.9-6.06-6.66a1.9 1.9 0 0 1 .75-1.79 20.6 20.6 0 0 0 4.89-5.14z"/><path d="m83.77 83a1.6 1.6 0 0 0 2.09-1.15l1.49-6.44a1.5 1.5 0 0 1 -.75-.07c-1.61-.52-1.59-3.83-.66-5.59a2.009 2.009 0 0 1 2.18-.79 3.809 3.809 0 0 1 .66.27l.36-1.54a1.6 1.6 0 0 0 -.95-1.85c-1.5-.62-4.65-1.89-7.37-3-.04 1.72-.07 3.38-.07 4.74a87.119 87.119 0 0 0 1.75 15z"/><path d="m45.528 13.705h6.805a1.5 1.5 0 0 0 0-3h-6.8a1.5 1.5 0 0 0 0 3z"/><path d="m49.3 9.529a3.035 3.035 0 0 0 3.035-3.035c0-1.676-1.889-2.393-2.31-4.2-.38-1.632-3.76 1.635-3.76 4.2a3.035 3.035 0 0 0 3.035 3.035z"/><path d="m90.339 124.4h-4.547l-3.834-18.021a.52.52 0 0 0 -.605-.413 4.6 4.6 0 0 1 -1.013.11 4.85 4.85 0 0 1 -1.81-.35 5.949 5.949 0 0 1 -2.152-1.513.517.517 0 0 0 -.9.369c.287 5.092 1.011 16.937 1.141 19.818h-3c-.133-3.025-1.046-17.828-1.318-23.179a.512.512 0 0 0 -.74-.436c-1.112.545-2.519 1.333-4.141 2.291a.526.526 0 0 0 -.257.409l-1.643 20.915h-3.009l1.428-18.2a.517.517 0 0 0 -.788-.483c-1.827 1.157-3.789 2.433-5.8 3.774a.509.509 0 0 0 -.219.317c-.9 4.132-2.258 10.506-3.094 14.6h-3c.489-2.494 1.536-7.581 2.281-11.1a.516.516 0 0 0 -.8-.534c-2.33 1.588-5.889 4-6.775 4.436a.494.494 0 0 0 -.248.274l-2.512 6.916h-4.323a1.5 1.5 0 0 0 0 3h51.678a1.5 1.5 0 0 0 0-3z"/></svg>