<svg width="65" height="65" xmlns="http://www.w3.org/2000/svg" xmlns:xlink="http://www.w3.org/1999/xlink" xml:space="preserve" overflow="hidden"><defs><clipPath id="clip0"><rect x="2906" y="1732" width="65" height="65"/></clipPath></defs><g clip-path="url(#clip0)" transform="translate(-2906 -1732)">
	<circle cx="2938.5" cy="1764.5" r="28" fill="#fff" />
	<path d="M2926.14 1752.1 2913.47 1752.1C2913.47 1752.43 2913.48 1752.97 2913.48 1753.21 2915.54 1753.19 2918.54 1756.57 2919.4 1758.67 2923.1 1767.25 2926.92 1775.79 2930.6 1784.38 2930.6 1784.39 2931.75 1784.41 2931.76 1784.38 2934.17 1779.45 2936.98 1774.27 2939.52 1769.29L2945.94 1784.39C2945.94 1784.39 2947 1784.4 2947 1784.39 2951.07 1775.1 2957.16 1760.84 2959.15 1756.34 2959.97 1754.42 2961.32 1753.25 2963.52 1753.18L2963.53 1752.18 2963.52 1752.13 2953.52 1752.1C2953.52 1752.47 2953.52 1752.9 2953.51 1753.19 2954.36 1753.2 2956.53 1753.6 2957.22 1755.39L2947.64 1777.5C2947.17 1776.41 2942.71 1766.51 2942.21 1765.24L2946.84 1755.63C2947.79 1754.17 2949.63 1753.23 2951.39 1753.16L2951.39 1752.15 2941.77 1752.15C2941.74 1752.4 2941.77 1752.94 2941.73 1753.2 2944.44 1753.28 2945.41 1753.88 2944.76 1755.5 2943.69 1757.94 2941.44 1762.56 2941 1763.4 2939.62 1760.53 2938.75 1758.31 2937.25 1755.2 2936.6 1753.76 2938.03 1753.2 2939.54 1753.16L2939.54 1752.15 2928.4 1752.11C2928.41 1752.59 2928.39 1752.85 2928.39 1753.2 2929.94 1753.22 2931.96 1753.39 2932.76 1754.74 2933.82 1756.81 2937.38 1765.05 2938.45 1767.26 2937.08 1769.89 2933.75 1776.11 2932.56 1778.44 2930.85 1774.65 2924.52 1759.71 2922.74 1755.85 2922.07 1754.21 2924.64 1753.26 2926.13 1753.19ZM2938.5 1732C2956.45 1732 2971 1746.55 2971 1764.5 2971 1782.45 2956.45 1797 2938.5 1797 2920.55 1797 2906 1782.45 2906 1764.5 2906 1746.55 2920.55 1732 2938.5 1732Z" fill-rule="evenodd"/>
</g></svg>