<svg width="551" height="542" xmlns="http://www.w3.org/2000/svg" xmlns:xlink="http://www.w3.org/1999/xlink" xml:space="preserve" overflow="hidden"><defs><clipPath id="clip0"><rect x="2372" y="1520" width="551" height="542"/></clipPath></defs><g clip-path="url(#clip0)" transform="translate(-2372 -1520)"><path d="M2923 1681.52 2923 1900.53C2923 1923.4 2904.49 1941.99 2881.78 1941.99L2669.8 1941.99C2659.27 1941.99 2650.74 1950.62 2650.74 1961.21L2650.74 2032.6C2650.74 2045.09 2643.79 2055.36 2632.22 2059.88 2620.67 2064.4 2608.65 2061.59 2600.27 2052.4L2379.72 1810.79C2369.43 1799.52 2369.43 1782.47 2379.72 1771.2L2600.27 1529.59C2605.77 1523.57 2613.12 1520 2621.28 1520 2625.03 1520 2628.73 1520.81 2632.22 1522.17 2643.81 1526.7 2650.74 1536.94 2650.74 1549.45L2650.74 1620.78C2650.74 1631.37 2659.27 1640 2669.8 1640L2881.78 1640C2904.52 1640 2923 1658.63 2923 1681.52Z" fill-rule="evenodd"/></g></svg>