<svg width="65" height="65" xmlns="http://www.w3.org/2000/svg" xmlns:xlink="http://www.w3.org/1999/xlink" xml:space="preserve" overflow="hidden"><defs><clipPath id="clip0"><rect x="2909" y="1732" width="65" height="65"/></clipPath></defs><g clip-path="url(#clip0)" transform="translate(-2909 -1732)">
	<!-- White disc, slightly smaller than the black disc -->
	<circle cx="2941.5" cy="1764.5" r="28" fill="#fff" />
	<path d="M2940.7 1748.09 2940.7 1758.55 2928.05 1758.55 2928.05 1770.38 2940.7 1770.38 2940.7 1780.83 2958.86 1764.46 2958.87 1764.47 2958.87 1764.45 2958.86 1764.46ZM2941.45 1732C2941.47 1732 2941.49 1732 2941.51 1732L2941.52 1732 2941.55 1732 2941.55 1732 2948.06 1732.66C2962.86 1735.67 2973.99 1748.74 2974 1764.4 2974 1764.42 2974 1764.43 2974 1764.45 2974.01 1782.35 2959.49 1796.87 2941.56 1796.88L2941.55 1796.88 2941.55 1797 2909 1797 2909 1789.91 2909 1782.99 2909 1764.51 2909 1764.51C2909 1764.5 2909 1764.49 2909 1764.47L2909 1764.47 2909 1746.01 2909 1736.33 2909 1732 2941.45 1732Z" fill-rule="evenodd"/>
</g></svg>