<svg width="551" height="542" xmlns="http://www.w3.org/2000/svg" xmlns:xlink="http://www.w3.org/1999/xlink" xml:space="preserve" overflow="hidden"><defs><clipPath id="clip0"><rect x="3048" y="1520" width="551" height="542"/></clipPath></defs><g clip-path="url(#clip0)" transform="translate(-3048 -1520)"><path d="M551 161.524 551 380.53C551 403.398 532.486 421.995 509.783 421.995L297.798 421.995C287.272 421.995 278.737 430.618 278.737 441.211L278.737 512.603C278.737 525.094 271.793 535.355 260.224 539.882 248.673 544.402 236.653 541.588 228.267 532.4L7.71548 290.794C-2.57183 279.525-2.57183 262.466 7.71548 251.197L228.267 9.59098C233.768 3.56562 241.118 0 249.277 0 253.033 0 256.729 0.806675 260.223 2.17231 271.812 6.69891 278.735 16.941 278.735 29.4517L278.735 100.782C278.735 111.374 287.271 119.998 297.796 119.998L509.781 119.998C532.523 119.998 551 138.631 551 161.524Z" fill-rule="evenodd" transform="matrix(-1 0 0 1 3599 1520)"/></g></svg>