<svg width="422" height="423" xmlns="http://www.w3.org/2000/svg" xmlns:xlink="http://www.w3.org/1999/xlink" xml:space="preserve" overflow="hidden"><defs><clipPath id="clip0"><rect x="1989" y="1026" width="422" height="423"/></clipPath></defs><g clip-path="url(#clip0)" transform="translate(-1989 -1026)"><path d="M2134.37 1026C2214.61 1026.03 2279.63 1091.23 2279.6 1171.64 2279.59 1200.33 2271.13 1228.38 2255.27 1252.26L2284.66 1281.72 2284.97 1281.41C2292.18 1274.22 2303.83 1274.22 2311.03 1281.41L2405.64 1376.21C2412.79 1383.44 2412.79 1395.1 2405.64 1402.33L2364.43 1443.62C2357.22 1450.79 2345.58 1450.79 2338.37 1443.62L2243.94 1348.65C2236.77 1341.42 2236.77 1329.75 2243.94 1322.53L2244.25 1322.22 2214.86 1292.76C2148.08 1337.35 2057.89 1319.25 2013.39 1252.33 1968.9 1185.41 1986.97 1095.02 2053.74 1050.43 2077.62 1034.49 2105.67 1025.99 2134.37 1026ZM2134.37 1058.69C2196.59 1058.69 2247.03 1109.24 2247.03 1171.6 2247.03 1233.95 2196.59 1284.5 2134.37 1284.5 2072.15 1284.5 2021.71 1233.95 2021.71 1171.6 2021.71 1109.24 2072.15 1058.69 2134.37 1058.69Z" fill-rule="evenodd"/></g></svg>