<svg width="1133" height="698" xmlns="http://www.w3.org/2000/svg" xmlns:xlink="http://www.w3.org/1999/xlink" xml:space="preserve" overflow="hidden"><g transform="translate(2012 -1669)"><path d="M-1545.01 1674.09C-1506.24 1671.23-1466.85 1668.73-1416.25 1684.73-1377.11 1691.55-1342.09 1694.16-1310.18 1715.06-1272.27 1745.74-1235.47 1773.95-1233.95 1798.62-1187.9 1799.49-1189.86 1798.5-1143.91 1816.53-1126.27 1834.58-1084.69 1867.93-1126.98 1901.19-1107.77 1913.85-1129.27 1947.13-1116.95 1976.01-1106.32 2002.57-1062.35 2018.89-1076.5 2053.92-1045.79 2089.02-987.542 2148.37-960.208 2174-938.152 2194.01-927.482 2164.18-922.395 2201.5-909.288 2211.31-878.697 2222.2-881.561 2232.89-881.658 2271.62-922.465 2245.31-930.416 2263.37-938.367 2276.67-907.69 2308.82-907.5 2321.81-907.308 2334.8-924.406 2338.57-929.27 2341.29-934.134 2344.01-946.97 2326.79-958.456 2328.99-969.941 2331.19-967.159 2342.48-998.182 2354.48-1032.65 2336.7-1049.82 2370.25-1092.32 2363.89-1119.41 2366.27-1113.75 2341.17-1166.46 2341.29-1172.18 2366.62-1224.64 2346.85-1243.55 2337.11-1231.46 2304.89-1254.55 2316.53-1263.85 2302.33-1307.53 2268.65-1282.8 2267.4-1293.65 2250.77-1338.05 2245.53-1324.37 2224.11-1339.22 2208.3-1357.45 2201.2-1357.09 2227.88-1388.45 2169.64-1414.08 2162.97-1397.68 2227.5-1462.08 2207.23-1489.82 2264.87-1502.04 2238.16-1548.01 2247.37-1605.3 2327.45-1566.45 2256.35-1721.89 2268.24-1787.73 2272.52-1861.05 2241.57-1917.4 2215.21-1968.61 2167.41-1984.25 2088.34-2005.34 2058.69-2013.97 1993.6-2008.37 1980.81-1973.64 1894.64-1925.32 1806.36-1852.96 1730.56-1767.17 1720.41-1707.31 1693.44-1695.05 1698.18-1658.02 1690.46-1620.99 1682.74-1601.45 1670.18-1545.01 1674.09Z" stroke="#172C51" stroke-width="4.58333" stroke-miterlimit="8" fill="#ED7D31" fill-rule="evenodd" fill-opacity="0.219608"/></g></svg>