<svg width="984" height="985" xmlns="http://www.w3.org/2000/svg" xmlns:xlink="http://www.w3.org/1999/xlink" xml:space="preserve" overflow="hidden"><defs><clipPath id="clip0"><rect x="1216" y="253" width="984" height="985"/></clipPath></defs><g clip-path="url(#clip0)" transform="translate(-1216 -253)"><path d="M1708 253C1979.72 253 2200 473.5 2200 745.5 2200 847.5 2169.02 942.258 2115.97 1020.86L2111.86 1026.65 2111.83 1026.61 2111.83 1026.7 2111.86 1026.65 2200 1114.87 2077 1238 1988.86 1149.77 1989.09 1149.61 1988.7 1149.61 1988.86 1149.77 1983.08 1153.89C1904.56 1206.99 1809.9 1238 1708 1238 1592.3 1238 1481.38 1201.81 1389.41 1137.02L1383.11 1132.29 1383.17 1132.22 1383.02 1132.22 1383.11 1132.29 1368.41 1147 1369.35 1153.18C1369.62 1155.77 1369.75 1158.39 1369.75 1161.05 1369.75 1203.55 1335.33 1238 1292.88 1238 1250.42 1238 1216 1203.55 1216 1161.05 1216 1118.55 1250.42 1084.09 1292.88 1084.09 1295.53 1084.09 1298.15 1084.23 1300.73 1084.49L1306.91 1085.43 1316.72 1075.61 1316.87 1075.75 1316.87 1075.47 1316.72 1075.61 1312.13 1071.18C1288.32 1046.8 1266.61 1020.05 1247.37 991.134L1323.62 914.797C1420.02 1015.49 1553.3 1072.42 1692.63 1072.42 1751.64 1072.42 1807.17 1057.45 1855.63 1031.11L1864.9 1025.77 1864.9 1025.69 1538.88 699.328 1446.62 791.672 1308.25 653.156 1551.91 409.247C1606.16 426.106 1665.25 413.565 1708 376.125L1784.88 453.078 1661.88 576.203 1987.95 902.612 1987.9 902.698 1988.04 902.698 1987.95 902.612 1993.32 893.275C2019.64 844.772 2034.59 789.188 2034.59 730.109 2034.59 518.824 1904.84 329.273 1708 253Z" fill="#4472C4" fill-rule="evenodd"/></g></svg>