<svg width="1312" height="555" xmlns="http://www.w3.org/2000/svg" xmlns:xlink="http://www.w3.org/1999/xlink" xml:space="preserve" overflow="hidden"><defs><clipPath id="clip0"><rect x="1612" y="106" width="1312" height="555"/></clipPath></defs><g clip-path="url(#clip0)" transform="translate(-1612 -106)"><path d="M1283.83 294.734C1279.45 296.224 1272.05 290.417 1260.82 276.969 1245.84 258.495 1209.91 205.247 1209.91 201.444 1209.91 197.64 1231.96 202.802 1244.75 209.322 1260.82 217.744 1276.06 233.23 1283.14 248.986 1288.59 260.94 1290.49 282.131 1287.23 290.824 1286.41 292.93 1285.29 294.237 1283.83 294.734ZM197.623 308.261C136.911 302.013 100.702 293.319 92.2624 282.995 85.1837 274.574 102.063 255.285 136.911 232.193 155.152 220.239 182.105 206.656 193.539 203.939L200.89 202.037 200.89 255.285C200.89 296.308 200.074 308.533 197.623 308.261ZM569.213 347.968C570.608 348.104 572.174 347.357 574.624 345.863 577.891 343.689 581.702 337.712 583.608 332.279 587.964 319.782 592.32 266.263 593.137 217.361 593.954 182.587 593.409 178.241 588.781 173.079 581.975 165.472 570.268 165.743 560.739 173.894L553.116 180.414 553.116 243.985C553.116 309.459 556.111 334.996 564.823 344.776 566.592 346.814 567.818 347.832 569.213 347.968ZM732.216 348.477C753.486 348.035 773.905 346.269 781.392 343.417 794.459 338.526 799.088 332.278 795.004 325.758 789.287 316.521 778.397 314.076 729.664 311.359 678.208 308.642 653.978 305.382 647.716 299.949 641.183 294.515 649.078 292.342 696.721 286.637 752.26 279.845 768.051 275.498 779.213 263.545 798.543 243.441 796.909 208.667 775.674 188.563 760.7 174.436 743.548 169.002 713.601 168.73 679.298 168.73 658.334 175.794 638.188 194.268 626.481 205.135 624.303 208.395 623.214 219.534 621.853 231.487 622.397 233.117 630.293 240.452 647.444 256.481 685.832 257.84 726.125 244.256 742.732 238.279 745.999 232.302 735.653 225.782 723.402 217.632 702.167 217.632 681.476 225.511 671.402 229.314 658.334 232.574 652.345 232.574 643.089 232.574 640.91 231.487 638.188 225.782 634.376 217.36 637.915 213.285 652.072 208.395 663.779 204.591 696.994 204.591 715.507 208.395 736.742 212.742 758.25 223.88 762.062 231.759 764.784 237.736 764.239 239.366 757.705 244.799 748.449 252.949 722.041 258.654 670.313 263.545 626.209 267.892 617.769 271.152 613.957 285.007 607.151 310.544 633.287 335.538 677.936 345.59 688.826 348.035 710.947 348.918 732.216 348.477ZM1203.1 348.691C1204.46 348.147 1205.55 342.442 1205.28 335.922 1205.01 327.772 1200.65 317.177 1190.03 298.431 1171.79 266.102 1161.45 235.403 1166.07 227.796 1167.44 225.351 1173.7 231.599 1186.49 248.715 1220.25 294.356 1260.54 330.489 1277.15 330.489 1286.68 330.489 1298.93 320.165 1305.47 306.853 1314.18 289.194 1314.18 254.691 1305.47 232.686 1289.13 191.12 1246.93 159.606 1201.47 154.716L1185.4 153.086 1180.23 135.155C1169.07 97.1211 1166.35 85.9824 1157.91 46.5898 1153.28 24.3126 1147.83 4.20866 1145.93 2.0354 1142.93-1.22485 1140.75-0.681354 1132.32 4.48041 1119.79 12.3589 1115.16 19.4226 1112.98 34.6361 1110.54 53.9251 1121.42 112.606 1134.77 151.728 1146.47 185.687 1146.47 186.773 1142.66 197.912 1129.05 236.761 1148.92 294.628 1191.94 340.812 1196.57 345.702 1201.47 349.234 1203.1 348.691ZM1089.19 354.554C1110.97 354.826 1122.68 349.393 1131.67 334.179 1141.19 317.878 1127.31 311.63 1078.85 311.358L1052.71 311.358 1049.72 302.937C1043.46 284.735 1044 284.191 1072.04 284.191 1100.08 284.191 1103.9 282.289 1103.9 269.249 1103.9 255.937 1100.36 254.307 1068.5 254.307 1049.45 254.307 1038.01 253.221 1035.29 251.047 1030.39 247.244 1020.86 219.533 1023.31 217.088 1024.13 216.001 1038.83 217.36 1055.71 219.805 1095.46 225.781 1100.08 225.781 1104.98 218.446 1115.6 203.504 1106.35 192.365 1068.5 174.707 1049.17 165.47 1042.37 163.568 1027.12 163.568 1005.61 163.297 996.902 168.187 987.645 186.389 979.75 201.331 979.75 211.654 987.101 232.845 991.184 244.527 992.546 252.949 991.456 260.827 989.551 274.139 991.184 277.399 1001.26 281.203 1008.34 283.919 1012.96 291.255 1017.86 308.098 1019.5 312.445 1018.68 314.619 1014.87 315.705 999.624 320.595 994.179 323.855 990.096 329.832 986.011 336.081 986.011 336.624 990.64 339.884 993.09 341.786 1008.88 345.318 1025.76 347.763 1042.64 350.208 1059.25 352.653 1063.06 353.196 1066.87 353.739 1078.58 354.283 1089.19 354.554ZM904.4 375.932C908.114 377.562 914.393 373.691 923.581 364.318 948.356 338.237 963.602 294.498 963.602 248.857 963.602 223.863 962.785 218.43 956.523 204.846 948.9 188.274 936.921 178.222 924.67 178.222 914.596 178.222 897.99 197.51 881.11 228.481 850.618 284.989 848.44 287.706 847.895 268.689 847.351 233.1 842.995 178.493 840.272 173.332 834.283 162.193 818.764 166.812 812.503 181.482 799.435 212.181 821.759 331.717 840.817 335.249 848.984 336.879 857.969 326.284 890.911 276.296 912.691 243.695 923.036 230.112 924.942 232.013 929.57 236.632 923.036 279.556 910.785 327.099 904.796 349.919 900.712 370.295 901.529 372.468 902.209 374.234 903.162 375.389 904.4 375.932ZM643.41 479.041C639.258 478.667 633.949 476.562 625.237 472.487 615.436 467.868 602.913 458.088 587.939 442.874 575.415 430.377 565.342 418.696 565.342 417.066 565.342 411.632 574.326 410.545 593.384 413.805 630.41 420.326 660.629 441.787 660.629 461.62 660.629 468.412 658.724 472.215 654.64 475.203 650.556 478.056 647.562 479.415 643.41 479.041ZM573.663 481.626C563.964 479.092 543.698 465.899 536.756 455.915 529.949 445.863 527.772 432.279 532.4 429.562 533.761 428.748 537.845 432.551 541.656 438.256 545.74 443.689 555.541 455.1 563.981 463.25 572.148 471.4 578.955 479.007 578.955 480.094 578.955 482.131 576.896 482.471 573.663 481.626ZM613.939 516.871C624.965 516.294 635.174 514.189 639.939 510.793 644.022 507.804 653.279 502.371 660.085 498.568 674.242 490.96 685.132 476.834 685.132 465.967 685.132 454.013 671.792 431.464 657.09 418.152 649.195 411.36 632.588 400.765 620.064 394.516 598.012 383.65 595.834 383.106 571.603 383.106 548.462 382.835 545.74 382.291 541.928 376.858 539.751 373.598 536.211 370.881 534.306 370.881 529.133 370.881 521.782 382.835 521.782 391.256 521.782 395.06 518.787 404.297 514.975 411.632 501.908 437.169 507.625 459.99 533.216 483.897 548.462 498.296 563.981 507.533 583.038 513.781 591.07 516.498 602.913 517.449 613.939 516.871ZM128.778 554.737C153.519 553.99 178.974 551.681 195.717 548.149 338.376 517.721 465.789 432.688 511.255 338.145 535.485 287.342 526.501 239.256 484.03 197.147 442.376 155.309 360.157 134.662 282.838 146.616 246.9 152.049 247.172 152.049 247.172 144.714 247.172 133.032 239.822 126.511 226.754 126.511 211.236 126.511 204.429 134.662 201.979 156.124 200.345 171.61 200.074 172.153 187.55 178.13 164.953 188.996 131.194 212.361 111.864 230.563 69.3932 270.77 68.8485 296.851 110.231 318.585 128.199 328.093 162.775 339.776 184.283 343.85 192.45 345.48 200.345 348.197 201.435 350.099 202.523 351.729 203.613 360.694 203.613 369.66 203.885 402.803 211.78 441.653 218.314 441.653 224.304 441.653 233.832 429.156 237.916 415.572 240.094 408.237 242.817 390.85 243.633 377.266L245.267 352.001 261.874 352.001C284.471 352.001 326.125 345.48 349.266 338.145 383.842 327.55 402.355 310.163 402.355 287.886 402.355 267.238 381.664 249.58 360.701 252.297 344.094 254.47 343.005 258.273 355.8 266.152 381.12 282.181 364.24 293.863 300.262 304.458 286.921 306.631 268.953 308.533 260.785 308.533L245.539 308.533 246.628 249.58C247.172 216.979 248.534 189.268 249.895 188.182 250.984 186.823 264.597 184.65 279.843 183.02 348.994 175.413 424.407 195.245 453.81 228.389 474.774 252.297 481.308 285.169 470.69 315.053 452.994 365.041 404.261 415.301 335.109 454.694 284.471 483.49 222.942 504.953 157.33 516.635 111.592 524.513 18.4823 521.796 18.4823 512.288 18.4823 509.571 25.2889 506.855 32.095 506.855 39.7181 506.855 43.8018 500.063 38.9012 495.988 33.4563 491.369 8.68146 493.814 2.96433 499.248-7.6534 509.843 11.9483 537.825 34.8175 544.617 41.6237 546.519 55.7808 550.051 66.1264 551.952 80.0113 554.669 104.037 555.484 128.778 554.737Z" fill-rule="evenodd" transform="matrix(1 0 0 -1 1612 661)"/></g></svg>