<svg width="1401" height="1401" xmlns="http://www.w3.org/2000/svg" xmlns:xlink="http://www.w3.org/1999/xlink" xml:space="preserve" overflow="hidden"><g transform="translate(-6581 -480)"><path d="M6581.58 1184.65 6721.34 1043.28 6752.81 1074.4 6876.88 1197.05 7002.16 1320.9 7035.99 1286.68 7107.29 1214.56 7141.12 1180.34 6891.77 933.835 6860.3 902.72 7277.59 480.614 7418.96 620.37 7387.85 651.844 7265.2 775.906 7141.34 901.191 7175.57 935.025 7247.68 1006.32 7281.91 1040.15 7528.41 790.805 7559.53 759.331 7981.63 1176.62 7841.88 1317.99 7625.22 1103.81 7561.67 1040.98 7561.05 1040.37 7527.22 1074.6 7422.09 1180.94 7422.71 1181.54 7486.26 1244.38 7610.33 1367.02 7702.91 1458.56 7285.62 1880.66 7144.25 1740.91 7358.43 1524.25 7421.27 1460.7 7421.87 1460.08 7387.65 1426.25 7281.31 1321.12 7280.7 1321.74 7217.87 1385.29 7095.22 1509.36 7003.69 1601.95Z" fill="#4472C4" fill-rule="evenodd"/></g></svg>