<svg width="2010" height="2011" xmlns="http://www.w3.org/2000/svg" xmlns:xlink="http://www.w3.org/1999/xlink" xml:space="preserve" overflow="hidden"><defs><clipPath id="clip0"><rect x="2086" y="232" width="2010" height="2011"/></clipPath></defs><g clip-path="url(#clip0)" transform="translate(-2086 -232)"><path d="M1018.55 1900.72 1006.34 1924.63C987.395 1954.91 959.853 1978.65 927.736 1993.1L927.186 1993.3 963.386 2008.31C977.301 2012.08 991.938 2014.09 1007.04 2014.09 1033.48 2014.09 1058.48 2007.93 1080.69 1996.98L1100.76 1985.16 1088.23 1978.79C1065.69 1965.18 1046.16 1946.64 1031.38 1924.31ZM1360.01 1824.82 1357.6 1855.03 1357.6 1855.03 1351.25 1880.87 1350.47 1882.77 1350.04 1884.45 1346.94 1891.37 1341.23 1905.29 1339.13 1908.84 1337.73 1911.96 1333.55 1918.22 1327.79 1927.92 1323.84 1932.78 1321.05 1936.97 1316.64 1941.66 1313.43 1945.6 1325.62 1947.21C1350.34 1948.63 1375.75 1944.53 1400.09 1934.22 1423.94 1924.11 1444.2 1909.1 1460.22 1890.87L1473.52 1873.31 1457.12 1872.1C1431.07 1868.24 1405.9 1858.68 1383.64 1843.79ZM675.844 1839.2 657.076 1855.27C635.292 1870.86 610.436 1881.21 584.52 1885.89L562.104 1888.26 569.791 1898.23C586.317 1916.67 607.222 1931.69 631.754 1941.55 656.286 1951.4 681.777 1955 706.467 1953.12L722.759 1950.65 710.113 1935.87C694.499 1914.67 683.552 1890.07 678.438 1863.77ZM1650.35 1631.14 1657.82 1653.92C1663.93 1680.01 1664.02 1706.93 1658.47 1732.67L1652.35 1753.5 1667 1749.33C1689.79 1740.99 1711.11 1727.52 1729.16 1708.95 1747.59 1690 1760.6 1667.78 1768.23 1644.23L1771.76 1629.75 1752.08 1636.18C1726.52 1642.51 1699.6 1643.24 1673.35 1637.92ZM260.972 1653.71 264.762 1667C273.098 1689.79 286.563 1711.11 305.133 1729.16 324.089 1747.59 346.304 1760.6 369.862 1768.23L385.132 1771.95 378.874 1752.89C372.509 1727.34 371.751 1700.43 377.033 1674.16L383.525 1652.03 361.624 1659.27C335.556 1665.44 308.632 1665.59 282.878 1660.09ZM1950.56 1290.77 1936.14 1303.14C1914.95 1318.77 1890.36 1329.74 1864.07 1334.88L1837.4 1337.72 1854.81 1358.11C1870.38 1379.92 1880.69 1404.79 1885.34 1430.71L1887.61 1452.48 1898.23 1444.3C1916.67 1427.77 1931.69 1406.86 1941.55 1382.33 1951.4 1357.8 1955 1332.31 1953.12 1307.62ZM1047.9 1139.05 1035.89 1142.89 1024.22 1144.16 1024.61 1145.98 1021.19 1146.71 1026.28 1887.89 1028.82 1895.83 1029 1896.16 1028.75 1896.17 1040.69 1918.14C1077.67 1973.99 1146.25 2004.5 1215.74 1989.74 1285.23 1974.98 1335.49 1919.24 1346.58 1853.18L1348.56 1828.25 1348.33 1828.34 1348.36 1827.97C1348.28 1816.89 1347.08 1805.66 1344.69 1794.4L1344.38 1793.41 1060.15 1138.43 1048.3 1140.95ZM968.563 1139.83 968.435 1140.16 968.145 1141.65 967.869 1141.6 693.851 1839.3 686.788 1836.83 689.408 1861.64C702.196 1927.39 753.872 1981.83 823.72 1994.79 833.699 1996.64 843.634 1997.57 853.44 1997.64L878.347 1995.63 880.387 1995.35C887.351 1993.92 894.186 1992.05 900.852 1989.77L913.665 1984.13 915.644 1985.63 935.795 1976.57C960.491 1962.87 981.639 1943.04 996.866 1918.71L1008 1896.9 1000.62 1896.59 1000.88 1896.08 1009.64 1866.96 1004.71 1148.75 991.922 1146.27 992.265 1144.5 980.749 1143.44ZM1104.6 1109.18 1097.04 1114.44 1095.97 1112.9 1086.5 1120.98 1076.13 1126.79 1077.16 1128.27 1074.52 1130.11 1373 1817.91 1370.65 1819.08 1389.85 1834.5C1445.53 1871.74 1520.57 1873.41 1578.97 1832.97 1637.38 1792.52 1662.21 1721.69 1646.94 1656.48L1639.2 1632.88 1638.66 1633.39ZM1985.16 913.326 1978.79 925.857C1965.18 948.398 1946.64 967.927 1924.31 982.716L1901.48 995.124 1924.63 1006.92C1954.92 1025.84 1978.69 1053.36 1993.17 1085.46L1993.55 1086.52 1996.98 1080.69C2007.93 1058.48 2014.09 1033.48 2014.09 1007.04 2014.09 980.607 2007.93 955.609 1996.98 933.401ZM68.5457 1312.98 66.8766 1325.62C65.4612 1350.34 69.5533 1375.75 79.8713 1400.09 90.1895 1424.43 105.611 1445.05 124.363 1461.22L141.734 1474.09 141.727 1470.28C145.019 1430.26 161.678 1391.57 190.417 1361.4L190.612 1361.23 190.153 1360.02 189.834 1360.05C148.165 1360.36 108.558 1346.04 77.1205 1321.05ZM917.639 1115.43 408.042 1638.78 408.688 1639.71 405.306 1641.59 396.65 1650.48 395.626 1652.48 395.458 1653.06 394.955 1652.62 387.987 1676.37C374.782 1742.04 401.844 1812.05 461.497 1850.62 521.151 1889.2 596.101 1885.16 650.57 1846.18L670.527 1829.1 676.109 1822.11 676.882 1812.83 683.234 1814.01 683.831 1813.26 685.69 1814.46 685.866 1814.5 951.763 1137.48 941.127 1130.6 942.105 1129.09 931.386 1123.5 921.803 1115.88 920.783 1117.46ZM1135.82 1064.88 1130.6 1072.96 1129.09 1071.98 1123.5 1082.7 1115.88 1092.28 1117.46 1093.3 1115.33 1096.6 1636.48 1608.13 1638.37 1606.82 1641.78 1612.98 1652.48 1618.46 1653.06 1618.63 1651.87 1619.98 1675.57 1626.97C1741.22 1640.26 1811.26 1613.29 1849.92 1553.68 1894.09 1485.57 1882.63 1397.4 1826.93 1342.6L1820.37 1337.34 1819.53 1337.01 1813.13 1336.48 1813.47 1334.59ZM882.466 1072.34 196.162 1372.4 195.989 1372.63 195.877 1372.4 180.449 1391.71C143.334 1447.47 141.833 1522.51 182.407 1580.82 222.982 1639.14 293.867 1663.81 359.05 1648.39L382.552 1640.63 382.378 1640.44 382.966 1640.25 384.315 1639.5 392.745 1630.84 394.987 1626.47 396.225 1627.27 905.012 1104.75 899.16 1096.34 900.626 1095.32 893.104 1086.5 886.877 1075.38 885.327 1076.46ZM1147.86 1013.97 1146.43 1021.32 1144.58 1020.96 1143.44 1033.34 1140.06 1044.76 1141.82 1045.1 1141.02 1049.2 1837.19 1326.27 1837.09 1326.55 1861.93 1323.91C1927.66 1311.06 1982.05 1259.34 1994.95 1189.48 1996.8 1179.5 1997.72 1169.56 1997.77 1159.76L1996.08 1139.01 1995.35 1133.7C1993.92 1126.74 1992.05 1119.9 1989.77 1113.23L1984.66 1101.61 1986.29 1098.85 1976.63 1077.42C1962.91 1052.74 1943.06 1031.61 1918.71 1016.4L1896.93 1005.3 1896.59 1013.47 1896.08 1013.21 1880.69 1008.58ZM1807.34 667.98 1139.7 959.881 1140.95 965.786 1139.05 966.19 1142.89 978.194 1144.16 989.864 1145.98 989.478 1147.68 997.468 1874.4 992.125 1876.86 991.336 1877.62 987.231 1883.94 989.07 1895.83 985.264 1896.16 985.086 1896.17 985.338 1918.14 973.397C1973.99 936.418 2004.5 867.84 1989.74 798.35 1974.98 728.859 1919.23 678.601 1853.18 667.511L1828.26 665.527 1828.34 665.756 1827.97 665.727ZM141.558 1021.37 137.229 1022.75 136.469 1026.86 130.137 1025.02 118.254 1028.82 117.928 1029 117.914 1028.76 95.9501 1040.7C40.1024 1077.68 9.59035 1146.25 24.3483 1215.74 39.1063 1285.23 94.8559 1335.49 160.911 1346.58L185.834 1348.57 185.745 1348.33 186.115 1348.36 217.914 1344.89 875.103 1057.56 872.959 1047.46 874.777 1047.07 871.199 1035.89 869.83 1023.36 867.927 1023.77 866.286 1016.04ZM1872.35 539.999 1872.36 543.814C1869.07 583.837 1852.41 622.52 1823.67 652.693L1823.48 652.859 1823.94 654.075 1824.25 654.04C1865.92 653.731 1905.53 668.053 1936.97 693.04L1945.54 701.116 1947.21 688.471C1948.63 663.751 1944.53 638.333 1934.22 613.994 1923.9 589.654 1908.48 569.04 1889.73 552.868ZM20.538 927.572 17.1052 933.401C6.15322 955.609 0 980.607 0 1007.04-0.000360892 1033.48 6.15285 1058.48 17.1049 1080.69L28.9299 1100.77 35.2967 1088.24C48.9117 1065.7 67.4472 1046.17 89.7828 1031.38L112.608 1018.97 89.4605 1007.17C59.1651 988.254 35.3978 960.734 20.9238 928.63ZM152.163 690.183C86.4254 703.03 32.0357 754.756 19.1352 824.615 17.2922 834.595 16.3726 844.532 16.3152 854.337L18.0042 875.089 18.7368 880.386C20.1659 887.351 22.035 894.185 24.3195 900.852L29.4301 912.473 27.7985 915.244 37.4556 936.674C51.1767 961.357 71.0283 982.487 95.377 997.692L117.153 1008.79 117.5 1000.62 118.009 1000.88 131.503 1004.94 866.341 999.536 867.819 991.921 869.585 992.264 870.644 980.749 874.273 968.502 872.433 968.145 873.891 960.634 196.027 690.839 195.169 692.163 191.043 688.855 188.175 687.714 180.943 687.118C171.176 687.306 161.553 688.348 152.163 690.183ZM1655.04 365.698 1631.54 373.465 1635.75 377.936 1112.93 914.872 1114.44 917.044 1112.9 918.113 1120.98 927.584 1126.79 937.955 1128.27 936.925 1133.57 944.55 1809.43 649.056 1817.69 641.982 1818.1 641.469 1818.21 641.69 1833.64 622.385C1870.76 566.627 1872.26 491.584 1831.68 433.27 1791.11 374.956 1720.22 350.279 1655.04 365.698ZM126.535 562.157 113.247 572.181C95.9999 588.317 81.9244 608.391 72.5415 631.754 62.6899 656.286 59.0831 681.777 60.9702 706.466L63.5243 723.324 77.9513 710.955C99.1429 695.322 123.732 684.353 150.022 679.215L176.689 676.375 159.274 655.981C143.713 634.177 133.396 609.307 128.753 583.386ZM1628.95 242.119 1635.21 261.201C1641.58 286.754 1642.34 313.667 1637.06 339.93L1630.56 362.062 1652.46 354.824C1678.53 348.657 1705.46 348.504 1731.21 354.001L1753.09 360.374 1749.84 348.517C1741.55 325.185 1727.91 303.349 1708.95 284.923 1686.84 263.426 1660.29 249.298 1632.34 242.495ZM282.01 385.415C235.41 391.91 191.784 417.835 164.173 460.408 125.517 520.012 129.459 594.967 168.369 649.487L184.648 668.551 880.623 945.554 883.017 941.848 884.6 942.871 890.587 931.386 897.668 922.479 896.16 921.504 902.846 911.154 384.788 402.658 388.545 409.416 379.395 404.732 375.722 407.276 372.31 401.105 361.606 395.626 361.011 395.479 362.213 394.107 338.522 387.124C319.765 383.327 300.65 382.817 282.01 385.415ZM1414.39 143.234C1396.32 148.487 1379.08 156.772 1363.52 167.909L1343.58 184.982 1337.21 201.186 1337.21 201.264 1337.18 201.26 1070 881.567 1072.24 883.016 1071.22 884.599 1082.7 890.586 1091.61 897.668 1092.58 896.159 1102.12 902.319 1607.2 383.605 1609.16 379.783 1605.4 374.382 1614.52 369.314 1618.46 361.606 1618.63 361.03 1619.13 361.472 1626.1 337.723C1639.31 272.057 1612.24 202.047 1552.59 163.468 1509.98 135.913 1459.57 130.101 1414.39 143.234ZM361.484 261.465 339.55 267.731C319.598 276.153 300.968 288.626 284.923 305.132 266.498 324.089 253.486 346.304 245.86 369.862L242.371 384.181 244.011 383.383C255.821 379.108 268.048 376.081 280.473 374.349 302.837 371.232 325.843 372.31 348.225 377.855L363.686 382.778 356.27 360.168C350.161 334.086 350.068 307.162 355.622 281.42ZM1291.4 63.5311 1303.98 78.2216C1319.59 99.4277 1330.54 124.026 1335.65 150.322L1338.24 174.891 1357.01 158.824C1378.8 143.234 1403.65 132.885 1429.57 128.208L1451.99 125.837 1444.3 115.858C1427.77 97.4186 1406.87 82.3928 1382.33 72.5408 1356.05 61.9854 1328.66 58.5995 1302.34 61.4578ZM488.412 156.621C469.849 161.454 451.803 169.571 435.117 181.126 376.712 221.57 351.875 292.401 367.149 357.617L374.887 381.208 380.809 375.633 915.661 900.613 917.75 899.159 918.77 900.626 927.584 893.103 938.71 886.876 937.631 885.327 947.37 878.55 660.96 218.547 641.982 196.395 641.445 195.996 643.438 195.006 624.236 179.591C600.375 163.632 572.957 154.205 544.817 151.827L518.925 151.818 514.069 152.24ZM1132.71 18.944C1122.11 21.1847 1111.83 24.4458 1101.98 28.6383L1101.09 29.1211 1099.31 28.0735 1078.29 37.522C1053.6 51.2211 1032.45 71.0532 1017.22 95.3878L1006.09 117.186 1014.13 117.527 1019.27 867.257 1021.32 867.655 1020.96 869.506 1033.34 870.644 1044.76 874.027 1045.1 872.269 1055.15 874.221 1321.78 195.348 1320.88 194.765 1323.1 191.985 1327.64 180.437 1324.68 152.452C1311.89 86.7033 1260.22 32.2667 1190.37 19.3031 1180.39 17.451 1170.45 16.522 1160.65 16.456L1140.88 18.0468ZM973.444 3.38734C962.591 5.60791 952.123 8.88337 942.15 13.1015 932.177 17.3199 922.7 22.4807 913.83 28.473L913.293 28.9161 925.855 35.2996C948.396 48.9146 967.924 67.4501 982.714 89.7857L995.537 113.371 1007.75 89.4631C1026.69 59.1849 1054.24 35.4422 1086.35 20.9974L1086.94 20.7852 1080.69 17.1049C1058.48 6.15285 1033.48 0 1007.04 0 995.534 0 984.297 1.1664 973.444 3.38734ZM646.251 69.8756C635.392 72.0666 624.591 75.3789 613.994 79.8709 589.655 90.1892 569.04 105.611 552.868 124.362L540.695 140.794 556.964 141.996C583.014 145.852 608.185 155.411 630.451 170.304L654.083 189.276 656.488 159.067C660.923 132.649 671.232 107.777 686.295 86.1753L700.201 69.0528 686.958 66.7969C673.489 66.1487 659.825 67.1365 646.251 69.8756ZM798.347 24.3512C728.856 39.1092 678.599 94.858 667.508 160.914L665.525 185.832 665.756 185.744 665.727 186.115 666.015 188.748 963.242 873.678 966.627 872.959 967.013 874.776 978.194 871.198 990.723 869.83 990.319 867.927 1002.76 865.285 998.006 172.835 995.557 150.417 991.283 137.06 988.016 136.454 989.482 131.432 985.264 118.254 985.082 117.928 985.334 117.913 973.395 95.9526C936.415 40.1052 867.838 9.59324 798.347 24.3512Z" fill="#FFD966" fill-rule="evenodd" transform="matrix(-0.978184 0.207739 0.207739 0.978184 3866.55 43.2232)"/></g></svg>