<svg width="3094" height="2062" xmlns="http://www.w3.org/2000/svg" xmlns:xlink="http://www.w3.org/1999/xlink" xml:space="preserve" overflow="hidden"><g transform="translate(-924 -477)"><path d="M924 477 1751.39 1155.84 1762.59 1143.52C1774.26 1131.86 1786.48 1120.75 1799.21 1110.25L1825.88 1090.31 1322.42 477 1609.02 477 1910.44 1040.77 1926.5 1033.04C1941.93 1026.52 1957.73 1020.73 1973.88 1015.7L2001.81 1008.52 1840.53 477 2045.69 477 2096.63 994.071 2127.22 992.527C2145.02 992.527 2162.61 993.429 2179.95 995.189L2191.74 996.988 2242.97 477 2448.13 477 2284.26 1017.06 2327.94 1033.04 2371.21 1053.88 2679.64 477 2966.24 477 2449.76 1106.16 2455.23 1110.25C2467.97 1120.75 2480.19 1131.86 2491.85 1143.52L2517.67 1171.92 3364.66 477 4018 477 2572.74 1249.3 2580.65 1262.32C2588.59 1276.93 2595.84 1291.97 2602.37 1307.39L2617.14 1347.74 4018 922.909 4018 1318.07 2639.98 1453.75 2640.23 1455.34C2641.99 1472.68 2642.89 1490.26 2642.89 1508.05 2642.89 1525.85 2641.99 1543.43 2640.23 1560.76L2640 1562.25 4018 1697.93 4018 2093.09 2617.17 1668.27 2602.37 1708.72C2595.84 1724.14 2588.59 1739.18 2580.65 1753.78L2572.79 1766.72 4018 2539 3364.66 2539 2517.73 1844.13 2491.85 1872.59C2480.19 1884.25 2467.97 1895.35 2455.23 1905.86L2449.82 1909.91 2966.24 2539 2679.64 2539 2371.26 1962.21 2327.94 1983.07 2284.29 1999.04 2448.13 2539 2242.97 2539 2191.75 2019.12 2179.95 2020.92C2162.61 2022.68 2145.02 2023.58 2127.22 2023.58L2096.62 2022.04 2045.69 2539 1840.53 2539 2001.78 2007.58 1973.88 2000.4C1957.73 1995.38 1941.93 1989.59 1926.5 1983.07L1910.39 1975.31 1609.02 2539 1322.42 2539 1825.83 1925.76 1799.21 1905.86C1786.48 1895.35 1774.26 1884.25 1762.59 1872.59L1751.34 1860.21 924 2539 924 2179.48 1685.27 1772.68 1673.79 1753.78C1665.86 1739.18 1658.6 1724.14 1652.08 1708.72L1638.74 1672.3 924 1889.05 924 1631.68 1614.66 1563.68 1614.22 1560.76C1612.46 1543.43 1611.56 1525.85 1611.56 1508.05 1611.56 1490.26 1612.46 1472.68 1614.22 1455.34L1614.68 1452.32 924 1384.32 924 1126.95 1638.78 1343.71 1652.08 1307.39C1658.6 1291.97 1665.86 1276.93 1673.79 1262.32L1685.32 1243.35 924 836.525Z" fill="#FFFFFF" fill-rule="evenodd"/></g></svg>