<svg id="_x34_9_Molotov_Cocktail_1_" enable-background="new 0 0 128 128" height="512" viewBox="0 0 128 128" width="512" xmlns="http://www.w3.org/2000/svg"><g><g><path d="m109 30.2c6.6 5.1 13.4.8 15.2.5-3.5 3.7-5.1 7.4-10.2 9.1l-.1.1c-3 1-6.4.6-9-1.2l-.1-.1c-1.9-1.3-4.3-1.6-6.5-.9l-4.3 1.3c-1.4.5-2.1 1.9-1.6 3.3v.1c.5 1.4 2 2.2 3.4 1.7 1.9-.4 3.6-1.8 5.6-.6l10.4 6.4-7.5-.4c-2.9-.2-4.5 1.4-6.3 2.2-6 3.2-11.5-.3-11.7-.4-3.1-1.5-5.8-3.9-7.7-6.9l-.1-.1c-.5-.8-1.3-1.2-2.2-1.1l-6.3-7.4v-.1c.7-3.9 2.4-7.5 4.8-10.6 2.7-3.5 6.4-6.2 10.7-7.6 1.1-.2 8.7-4.1 18.8-.8-2.6 5.3-8.3 5.2-8.7 5.3-1.5.2-2.5 1.4-2.5 2.9v.2c0 1.6 1.3 2.9 2.9 2.9h.1c3.1 0 4.6-1.8 6.3-3.3 4.1-3.7 9.6-5.1 15-4 1 .2 2.1 0 3-.7l7.6-5.8-2.5 6.8c-.9 2.4-2.9 4.2-5.4 4.6-1.6.4-8.2-1.4-11.1 4.6z"/></g><g><g><path d="m58.9 62.4c1.2 2.9 1.4 6 .8 9-.6 2.9-2 5.7-4.2 7.9l-31.1-11.2 9.9-9.9c4.5-4.4 11.1-5.8 17-3.4l11.8-11.8 7.6 7.6z"/></g><g><g><path d="m22.3 70.3-20.4 20.4c-2.5 2.5-2.5 6.7 0 9.2l11.9 11.9c2.5 2.5 6.7 2.5 9.2 0l30.3-30.3z"/></g></g><path d="m76.3 46.9-2 2c-.4.4-1.1.4-1.5 0l-8-8c-.4-.4-.4-1.1 0-1.5l2-2c.4-.4 1.1-.4 1.5 0l8 8c.4.4.4 1.1 0 1.5z"/></g></g></svg>