<svg id="Layer_1" height="512" viewBox="0 0 64 64" width="512" xmlns="http://www.w3.org/2000/svg" data-name="Layer 1"><path d="m63 32s-2.64.5-7.59 1-12.2 1-21.41 1c0 18.42-2 29-2 29s-.5-2.64-1-7.59-1-12.2-1-21.41c-18.42 0-29-2-29-2s2.64-.5 7.59-1 12.2-1 21.41-1c0-18.42 2-29 2-29s2 10.58 2 29c18.42 0 29 2 29 2z"/><path d="m34 28c6-8 12-10 12-10a43.274 43.274 0 0 1 -10 12"/><path d="m28 30c-8-6-10-12-10-12a43.274 43.274 0 0 1 12 10"/><path d="m30 36c-6 8-12 10-12 10a43.274 43.274 0 0 1 10-12"/><path d="m36 34c8 6 10 12 10 12a43.274 43.274 0 0 1 -12-10"/><circle cx="32" cy="32" r="5"/></svg>