<?xml version="1.0"?>
<svg xmlns="http://www.w3.org/2000/svg" data-name="Layer 1" id="Layer_1" viewBox="0 0 128 128"><title/><path d="M40.44,113.83c.02.01.04.01.06.02.59.24,6.17,2.27,15.6,2.96,1.78.13,3.56.19,5.32.19a68.37665,68.37665,0,0,0,36.86-10.67,62.89851,62.89851,0,0,0,28.54-41A60.618,60.618,0,0,0,116.72,18.26c-5.16-7.33-9.91-10.9-14.96-11.23-7.71-.51-14.28,6.61-22.59,15.63-6.69,7.25-14.26,15.47-24.2,21.77-9.93,6.3-20.84,9.8-30.46,12.89C12.46,61.18,2.95,64.23.55,71.37-.99,75.98.68,81.53,5.81,88.82A65.80468,65.80468,0,0,0,40.44,113.83ZM84,98A16,16,0,1,1,99.99,82,16.0148,16.0148,0,0,1,84,98Zm27.98-31.23a2.00722,2.00722,0,0,1-1.76,2.22,1.69252,1.69252,0,0,1-.23.01,1.998,1.998,0,0,1-1.98-1.77A9.77925,9.77925,0,0,0,97.99,59a2,2,0,1,1,0-4A13.787,13.787,0,0,1,111.98,66.77ZM94.24,37a6,6,0,1,1-5.99,6A6.00476,6.00476,0,0,1,94.24,37ZM62.48,61.7C68.39,54.8,76.03,51,84,51a2,2,0,0,1,0,4c-6.78,0-13.35,3.3-18.48,9.3A2.01579,2.01579,0,0,1,64,65a2,2,0,0,1-1.52-3.3ZM40,68a6,6,0,1,1-6,6A6.00476,6.00476,0,0,1,40,68Zm0,16a6,6,0,1,1-6,6A6.00476,6.00476,0,0,1,40,84ZM24,76a6,6,0,1,1-6,6A6.00476,6.00476,0,0,1,24,76Z"/><path d="M111.44232,104.85748a90.88512,90.88512,0,0,1-11.07275,8.25922,1.99972,1.99972,0,1,0,2.1413,3.37793,94.811,94.811,0,0,0,11.562-8.62445,1.99974,1.99974,0,0,0-2.63049-3.0127Z"/><path d="M25.00378,48.00079a1.9973,1.9973,0,0,0,.68738-.12256A141.449,141.449,0,0,0,50.64679,36.205,134.39418,134.39418,0,0,0,72.3587,19.46576a2,2,0,0,0-2.72229-2.93066A130.423,130.423,0,0,1,48.5719,32.785,137.52151,137.52151,0,0,1,24.31635,44.12238a2.00028,2.00028,0,0,0,.68744,3.87842Z"/><path d="M83,74a6,6,0,1,0,6,6A6.00476,6.00476,0,0,0,83,74Zm0,8a2,2,0,1,1,2-2A1.99947,1.99947,0,0,1,83,82Z"/></svg>
