<svg id="Capa_1" enable-background="new 0 0 512 512" height="512" viewBox="0 0 512 512" width="512" xmlns="http://www.w3.org/2000/svg"><g><path d="m336.989 67.958c-6.354 33.289-32.775 59.526-66.155 65.617.596 8.936-.258 18.004-2.644 26.908-1.245 4.645-2.89 9.111-4.865 13.389 42.053 3.721 75.144 39.122 75.144 82.126 0 43.021-33.117 78.432-75.194 82.13 5.801 12.531 8.433 26.405 7.517 40.288 33.4 6.077 59.84 32.322 66.197 65.625 97.67-6.954 175.011-88.631 175.011-188.041s-77.341-181.087-175.011-188.042zm70.073 152.44h-30v-30h30zm37.469 50.602v-30h30v30z"/><circle cx="188.515" cy="139.117" r="52.469"/><circle cx="188.515" cy="372.875" r="52.469"/><circle cx="256" cy="255.999" r="52.469"/><path d="m263.314 407.583c-1.022 2.197-2.129 4.373-3.363 6.51-11.014 19.077-28.798 32.723-50.076 38.424-2.006.537-4.02.99-6.04 1.374-.202 1.871-.305 3.753-.305 5.64.001 28.931 23.539 52.469 52.47 52.469s52.469-23.538 52.469-52.469c0-26.448-19.675-48.377-45.155-51.948z"/><path d="m209.875 59.48c21.278 5.702 39.062 19.348 50.076 38.425 1.23 2.131 2.344 4.307 3.372 6.511 25.476-3.575 45.146-25.501 45.146-51.947 0-28.931-23.538-52.469-52.469-52.469s-52.469 23.538-52.469 52.469c0 1.892.103 3.779.306 5.655 2.019.384 4.034.819 6.038 1.356z"/><path d="m125.64 85.73c6.047-7.11 13.334-13.205 21.657-18.01 8.322-4.805 17.244-8.069 26.425-9.75-.122-1.829-.19-3.663-.19-5.501 0-7.045.892-13.886 2.562-20.418-15.26-6.989-33.201-6.351-48.093 2.246-14.886 8.595-24.408 23.804-25.99 40.505 6.549 1.849 12.914 4.521 18.962 8.012 1.589.919 3.144 1.895 4.667 2.916z"/><path d="m173.722 454.02c-9.18-1.682-18.102-4.936-26.426-9.742-8.425-4.864-15.657-11.009-21.615-18.036-1.536 1.031-3.105 2.016-4.711 2.943-6.047 3.491-12.413 6.16-18.962 8.008 1.582 16.702 11.104 31.913 25.991 40.509 14.893 8.598 32.835 9.236 48.093 2.247-1.67-6.532-2.562-13.373-2.562-20.418.001-1.841.07-3.678.192-5.511z"/><path d="m43.406 283.738c-3.108-8.674-4.813-18.009-4.813-27.739 0-9.729 1.705-19.064 4.812-27.737-1.66-.815-3.297-1.68-4.903-2.607-6.102-3.523-11.58-7.716-16.402-12.428-13.682 9.72-22.1 25.577-22.1 42.773s8.419 33.053 22.101 42.774c4.822-4.713 10.3-8.905 16.402-12.428 1.605-.927 3.243-1.793 4.903-2.608z"/><path d="m110.75 400.088c-6.891-19.729-6.313-41.945 3.002-61.962-21.992-1.942-41.52-12.548-55.16-28.38-1.74.766-3.438 1.627-5.089 2.58-25.056 14.466-33.671 46.618-19.206 71.674 7.007 12.137 18.322 20.819 31.859 24.447 13.538 3.627 27.677 1.766 39.814-5.242 1.652-.953 3.247-1.994 4.78-3.117z"/><path d="m53.503 199.672c1.651.953 3.349 1.814 5.089 2.58 13.64-15.832 33.169-26.438 55.16-28.38-9.314-20.017-9.893-42.233-3.002-61.962-1.533-1.124-3.128-2.164-4.779-3.117-12.137-7.008-26.277-8.869-39.814-5.242s-24.852 12.31-31.859 24.447c-14.466 25.056-5.851 57.208 19.205 71.674z"/><circle cx="121.062" cy="255.999" r="52.469"/></g></svg>