<?xml version="1.0" encoding="UTF-8"?>
<svg xmlns="http://www.w3.org/2000/svg" id="Icons" viewBox="0 0 60 60" width="512" height="512"><circle cx="56" cy="41" r="1"/><circle cx="5" cy="19" r="1"/><path d="M37.555,22.448A8.145,8.145,0,0,1,30,19.3a8.145,8.145,0,0,1-7.555,3.148,8,8,0,0,1-.541,4.183A8.1,8.1,0,0,1,19.3,30,8.1,8.1,0,0,1,21.9,33.368a8,8,0,0,1,.541,4.184,8.169,8.169,0,0,1,1.093-.074A8.076,8.076,0,0,1,30,40.7a8.072,8.072,0,0,1,6.462-3.221,7.939,7.939,0,0,1,1.092.074A8.009,8.009,0,0,1,38.1,33.37,8.1,8.1,0,0,1,40.7,30,8.117,8.117,0,0,1,38.1,26.63,8.015,8.015,0,0,1,37.555,22.448Z"/><circle cx="41" cy="54" r="1"/><path d="M19.729,53.873,19,52.54l-.729,1.333a.99.99,0,0,1-.4.4L16.54,55l1.333.729a.99.99,0,0,1,.4.4L19,57.46l.729-1.333a.99.99,0,0,1,.4-.4L21.46,55l-1.333-.729A.99.99,0,0,1,19.729,53.873Z"/><circle cx="40" cy="5" r="1"/><path d="M55.729,18.873,55,17.54l-.729,1.333a.99.99,0,0,1-.4.4L52.54,20l1.333.729a.99.99,0,0,1,.4.4L55,22.46l.729-1.333a.99.99,0,0,1,.4-.4L57.46,20l-1.333-.729A.99.99,0,0,1,55.729,18.873Z"/><path d="M35.932,15.737a6.111,6.111,0,0,1-3.438-3.671A70.169,70.169,0,0,1,30,2.564a70.5,70.5,0,0,1-2.5,9.5,6.114,6.114,0,0,1-3.44,3.671,5.962,5.962,0,0,1-4.907-.145A70.219,70.219,0,0,1,10.6,10.6a70.7,70.7,0,0,1,4.989,8.558,5.971,5.971,0,0,1,.145,4.909,6.111,6.111,0,0,1-3.671,3.438A70.169,70.169,0,0,1,2.564,30a70.539,70.539,0,0,1,9.5,2.5,6.117,6.117,0,0,1,3.67,3.438,5.971,5.971,0,0,1-.144,4.909A70.209,70.209,0,0,1,10.6,49.4a70.7,70.7,0,0,1,8.558-4.989,5.973,5.973,0,0,1,4.909-.145,6.111,6.111,0,0,1,3.438,3.671A70.169,70.169,0,0,1,30,57.436a70.5,70.5,0,0,1,2.5-9.5,6.115,6.115,0,0,1,3.439-3.671,5.968,5.968,0,0,1,4.908.144A70.209,70.209,0,0,1,49.4,49.4a70.7,70.7,0,0,1-4.989-8.558,5.971,5.971,0,0,1-.145-4.909,6.114,6.114,0,0,1,3.671-3.438A70.258,70.258,0,0,1,57.442,30a70.313,70.313,0,0,1-9.508-2.494,6.114,6.114,0,0,1-3.671-3.44,5.966,5.966,0,0,1,.145-4.907A70.219,70.219,0,0,1,49.4,10.6a70.7,70.7,0,0,1-8.558,4.989A5.967,5.967,0,0,1,35.932,15.737ZM39.61,22.3a6.035,6.035,0,0,0,.332,3.567,6.122,6.122,0,0,0,2.323,2.791,1.6,1.6,0,0,1,0,2.692,6.115,6.115,0,0,0-2.321,2.791A6.024,6.024,0,0,0,39.61,37.7a1.621,1.621,0,0,1-.441,1.491,1.556,1.556,0,0,1-1.43.421,5.958,5.958,0,0,0-1.276-.136,6.087,6.087,0,0,0-5.128,2.8h0A1.582,1.582,0,0,1,30,43h0a1.579,1.579,0,0,1-1.333-.723,6.089,6.089,0,0,0-5.128-2.8,5.983,5.983,0,0,0-1.275.136,1.562,1.562,0,0,1-1.43-.419,1.616,1.616,0,0,1-.442-1.491,6.031,6.031,0,0,0-.334-3.568,6.118,6.118,0,0,0-2.321-2.791,1.6,1.6,0,0,1,0-2.691,6.118,6.118,0,0,0,2.32-2.79A6.019,6.019,0,0,0,20.39,22.3a1.619,1.619,0,0,1,.443-1.493,1.552,1.552,0,0,1,1.431-.419,5.964,5.964,0,0,0,1.273.136,6.091,6.091,0,0,0,5.128-2.8A1.584,1.584,0,0,1,30,17h0a1.582,1.582,0,0,1,1.333.721,6.091,6.091,0,0,0,5.128,2.8,6,6,0,0,0,1.276-.136,1.558,1.558,0,0,1,1.43.419A1.616,1.616,0,0,1,39.61,22.3Z"/><path d="M19.729,3.873,19,2.54l-.729,1.333a.99.99,0,0,1-.4.4L16.54,5l1.333.729a.99.99,0,0,1,.4.4L19,7.46l.729-1.333a.99.99,0,0,1,.4-.4L21.46,5l-1.333-.729A.99.99,0,0,1,19.729,3.873Z"/><circle cx="5" cy="41" r="1"/></svg>
