<svg id="Layer_1" enable-background="new 0 0 100 100" viewBox="0 0 100 100" xmlns="http://www.w3.org/2000/svg"><g clip-rule="evenodd" fill-rule="evenodd"><path d="m9.2857151 43.2142868h54.2857132c1.8004494 0 3.5262871.7147636 4.7975044 1.9882088 1.2734222 1.2711983 1.988205 2.9970322 1.988205 4.7975044v36.1904755c0 1.8004684-.7147827 3.5263062-1.988205 4.7975082-1.2712173 1.2734375-2.9970551 1.988205-4.7975044 1.988205-13.9062157 0-40.3795013 0-54.285717 0-1.8004541 0-3.526289-.7147675-4.7975059-1.988205-1.2734256-1.2712021-1.988209-2.9970398-1.988209-4.7975082v-36.1904755c0-1.8004723.7147834-3.5263062 1.988209-4.7975044 1.2712207-1.2734452 2.9970556-1.9882088 4.7975097-1.9882088z"/><path d="m74.8809509 59.027256 19.2352371-10.9905815c.6989059-.4003601 1.5607147-.3981018 2.2574158.0067825.6966324.4048844 1.1263962 1.1512986 1.1263962 1.956543v36.1904755c0 .8052444-.4297638 1.5516586-1.1263962 1.956543-.696701.4048843-1.5585098.4071426-2.2574158.0067825l-19.2352371-10.9905777z"/><path d="m18.3333321 38.6904755c-8.737751 0-15.8333311-7.0955944-15.8333311-15.8333302s7.095581-15.8333335 15.8333311-15.8333335 15.8333359 7.0955968 15.8333359 15.833334-7.0955811 15.8333297-15.8333359 15.8333297z"/><path d="m54.5238113 38.6904755c-8.7377548 0-15.8333359-7.0955944-15.8333359-15.8333302s7.0955811-15.833334 15.8333359-15.833334 15.8333282 7.0955968 15.8333282 15.833334-7.0955772 15.8333302-15.8333282 15.8333302z"/></g></svg>