<svg clip-rule="evenodd" fill-rule="evenodd" stroke-linejoin="round" stroke-miterlimit="2" viewBox="0 0 64 64" xmlns="http://www.w3.org/2000/svg"><g transform="translate(-3188 -168)"><path d="m3207 213.477c-.63-.178-1.32-.251-2.04-.215-2.16.109-4.69 1.272-6.74 3.458-2.02 2.143-3.11 4.76-3.21 7.009-.08 1.814.46 3.42 1.54 4.572 1.13 1.201 2.71 1.78 4.49 1.69 2.16-.109 4.69-1.272 6.74-3.458 2.02-2.143 3.11-4.76 3.21-7.009.01-.157.01-.505.01-.524v-29.322l30-5.294v23.093c-.63-.178-1.32-.251-2.04-.215-2.16.109-4.69 1.272-6.74 3.458-2.02 2.143-3.11 4.76-3.21 7.009-.08 1.814.46 3.42 1.54 4.572 1.13 1.201 2.71 1.78 4.49 1.69 2.16-.109 4.69-1.272 6.74-3.458 2.02-2.143 3.11-4.76 3.21-7.009.01-.157.01-.505.01-.524v-41c0-.591-.26-1.152-.72-1.532-.45-.38-1.04-.54-1.63-.438l-34 6c-.95.169-1.65 1-1.65 1.97z"/></g></svg>