<svg id="Layer_1" height="512" viewBox="0 0 512 512" width="512" xmlns="http://www.w3.org/2000/svg" data-name="Layer 1"><path d="m171.97 144.8c63.183-41.064 139.74-61.88 227.568-61.88a49.785 49.785 0 0 1 5.4.191c-3.964-13.351-11.37-23.125-22.075-29.1a45.374 45.374 0 0 0 -24.713-5.4c-150.064 8.437-244.537 95.47-278.189 132.499a21.464 21.464 0 0 0 -.4 28.4l10.526 12.23c11.048-15.86 36.72-47.585 81.883-76.94zm-13.411-16.791c3.414-2.055 6.844-3.972 10.2-5.7a4 4 0 1 1 3.662 7.113c-3.195 1.645-6.47 3.474-9.733 5.438a4 4 0 1 1 -4.125-6.854zm-45.673 45.2a4 4 0 0 1 -2.8-6.852 290.767 290.767 0 0 1 36.656-30.672 4 4 0 0 1 4.573 6.566 282.54 282.54 0 0 0 -35.62 29.809 3.986 3.986 0 0 1 -2.809 1.153z"/><path d="m347.944 41.306a96.935 96.935 0 0 0 -38.394-18.157c-33.558-7.854-73.166-1.082-117.717 20.129-54.191 25.8-99.83 64.953-111.941 83.3q-.6.906-1.168 1.833c-11.138 18.114-10.524 26.189-.964 43.289 36.387-38.79 127.95-119.086 270.184-130.394z"/><path d="m425.654 139.4a10.834 10.834 0 0 0 12.014-15.251l-6.942-14.584c-5.371-11.28-17.793-18.6-30.263-18.638-204.373 0-291.408 116.219-306.64 139.58a1.75 1.75 0 0 0 .389 2.336l20.025 15.916a1.763 1.763 0 0 0 2.456-.262c20.144-24.705 129.742-146.049 308.961-109.097z"/><path d=""/><path d="m424.039 147.232a328.663 328.663 0 0 0 -41.827-5.887c27.306 13.332 42.218 27.113 52.715 36.821.979.906 1.9 1.753 2.8 2.576l2.512-9.471a18.908 18.908 0 0 0 -2.3-15.251 19.609 19.609 0 0 0 -13.422-8.7v-.01c-.161-.026-.317-.046-.478-.078z"/><path d="m350.954 213.257-25.389 255.53a10.087 10.087 0 0 0 10.069 9.9h21.374v-163.333a4 4 0 0 1 8 0v167.36a9.311 9.311 0 0 0 9.3 9.3h15.662a9.312 9.312 0 0 0 9.3-9.224l-9.745-222.617a225.61 225.61 0 0 0 -38.571-46.916z"/><path d="m309.409 144.678a292.059 292.059 0 0 0 -38.639 9.362 261.868 261.868 0 0 1 38.567 18.5c25.637 14.907 61.637 41.64 87.555 84.342a1.784 1.784 0 0 0 1.248.85 1.722 1.722 0 0 0 1.4-.385l17.5-14.733a1.743 1.743 0 0 0 .429-2.16c-8.32-15.783-40.597-69.108-108.06-95.776z"/><path d="m437.365 191.1c-2.484-2.077-5.1-4.5-7.87-7.057-13-12.022-30.782-28.457-69.18-43.567a296.072 296.072 0 0 0 -35.762 2.016c53.014 24.827 82.706 65.11 95.186 85.771a11.513 11.513 0 0 0 12.888-6.453l7.834-16.982a11.6 11.6 0 0 0 -3.096-13.728z"/></svg>