<svg version="1.1" id="Capa_1" xmlns="http://www.w3.org/2000/svg" xmlns:xlink="http://www.w3.org/1999/xlink" x="0px" y="0px" viewBox="0 0 511.997 511.997" style="enable-background:new 0 0 511.997 511.997;" xml:space="preserve">
<g>
	<path style="fill:none;stroke:#000000;stroke-width:30;stroke-miterlimit:10;" d="M123.214,442.89&#10;&#9;&#9;c88.23-19.639,176.752-19.704,265.569,0"/>
	<path style="fill:none;stroke:#000000;stroke-width:30;stroke-miterlimit:10;" d="M455.054,268.299V134.127&#10;&#9;&#9;C455.054,68.335,401.719,15,335.927,15h-6.203c-40.717,0-73.725,33.008-73.725,73.725v0c0,40.717,33.008,73.725,73.725,73.725&#10;&#9;&#9;h6.864c28.827,0,52.195,23.369,52.195,52.195v174.137"/>
	<path style="fill:none;stroke:#000000;stroke-width:30;stroke-miterlimit:10;" d="M421.918,301.435L421.918,301.435&#10;&#9;&#9;c-18.3,0-33.136-14.835-33.136-33.135v-33.136h33.136c18.3,0,33.135,14.835,33.135,33.135v0&#10;&#9;&#9;C455.054,286.599,440.219,301.435,421.918,301.435z"/>
	<path style="fill:none;stroke:#000000;stroke-width:30;stroke-miterlimit:10;" d="M432.457,388.783L432.457,388.783&#10;&#9;&#9;c-24.121,0-43.674-19.554-43.674-43.674v-43.674h43.674c24.121,0,43.674,19.554,43.674,43.674v0&#10;&#9;&#9;C476.131,369.229,456.578,388.783,432.457,388.783z"/>
	<path style="fill:none;stroke:#000000;stroke-width:30;stroke-miterlimit:10;" d="M442.89,496.997L442.89,496.997&#10;&#9;&#9;c-29.883,0-54.107-24.225-54.107-54.107v-54.107h54.107c29.882,0,54.107,24.225,54.107,54.107v0&#10;&#9;&#9;C496.997,472.773,472.773,496.997,442.89,496.997z"/>
	<path style="fill:none;stroke:#000000;stroke-width:30;stroke-miterlimit:10;" d="M56.943,268.299V134.127&#10;&#9;&#9;C56.943,68.335,110.278,15,176.07,15h6.203c40.717,0,73.725,33.008,73.725,73.725v0c0,40.717-33.008,73.725-73.725,73.725h-6.864&#10;&#9;&#9;c-28.827,0-52.195,23.369-52.195,52.195v174.137"/>
	<path style="fill:none;stroke:#000000;stroke-width:30;stroke-miterlimit:10;" d="M90.079,301.435L90.079,301.435&#10;&#9;&#9;c18.3,0,33.136-14.835,33.136-33.135v-33.136H90.079c-18.3,0-33.135,14.835-33.135,33.135v0&#10;&#9;&#9;C56.943,286.599,71.778,301.435,90.079,301.435z"/>
	<path style="fill:none;stroke:#000000;stroke-width:30;stroke-miterlimit:10;" d="M79.54,388.783L79.54,388.783&#10;&#9;&#9;c24.121,0,43.674-19.554,43.674-43.674v-43.674H79.54c-24.121,0-43.674,19.554-43.674,43.674v0&#10;&#9;&#9;C35.866,369.229,55.419,388.783,79.54,388.783z"/>
	<path style="fill:none;stroke:#000000;stroke-width:30;stroke-miterlimit:10;" d="M69.107,496.997L69.107,496.997&#10;&#9;&#9;c29.883,0,54.107-24.225,54.107-54.107v-54.107H69.107C39.225,388.783,15,413.007,15,442.89v0&#10;&#9;&#9;C15,472.773,39.225,496.997,69.107,496.997z"/>
</g>
<g>
</g>
<g>
</g>
<g>
</g>
<g>
</g>
<g>
</g>
<g>
</g>
<g>
</g>
<g>
</g>
<g>
</g>
<g>
</g>
<g>
</g>
<g>
</g>
<g>
</g>
<g>
</g>
<g>
</g>
</svg>