<svg clip-rule="evenodd" fill-rule="evenodd" stroke-linejoin="round" stroke-miterlimit="2" viewBox="0 0 64 64" xmlns="http://www.w3.org/2000/svg"><g transform="translate(-1688 -8)"><path d="m1728 14h-6v-6h-4v6h-6v-6h-4v6h-4c-2.65 0-5.2 1.054-7.07 2.929-1.88 1.875-2.93 4.419-2.93 7.071v4h-6v4h6v6h-6v4h6v6h-6v4h6v4c0 2.652 1.05 5.196 2.93 7.071 1.87 1.875 4.42 2.929 7.07 2.929h4v6h4v-6h6v6h4v-6h6v6h4v-6h4c2.65 0 5.2-1.054 7.07-2.929 1.88-1.875 2.93-4.419 2.93-7.071v-4h6v-4h-6v-6h6v-4h-6v-6h6v-4h-6v-4c0-2.652-1.05-5.196-2.93-7.071-1.87-1.875-4.42-2.929-7.07-2.929h-4v-6h-4zm0 14v24h4v-24zm-20 7v17h4v-7h6v7h4v-17c0-3.866-3.13-7-7-7s-7 3.134-7 7zm10 6v-6c0-1.657-1.34-3-3-3s-3 1.343-3 3v6z"/></g></svg>