<svg id="Layer_1" enable-background="new 0 0 68 68" height="512" viewBox="0 0 68 68" width="512" xmlns="http://www.w3.org/2000/svg"><g><g><path d="m58.6236 34.0007c5.6099-6.3196 7.904-12.5391 5.4739-16.7488-3.0312-5.2522-11.2769-4.8837-17.2416-3.6344-.3572-1.0736-.7433-2.0924-1.1545-3.056.8306-.8181 1.3482-1.954 1.3482-3.2106 0-2.4833-2.0113-4.5056-4.4944-4.5056-.5711 0-1.1129.1178-1.6163.3126-1.7859-1.7123-3.7616-2.6579-5.8527-2.6579-4.8616 0-9.1016 5.0977-11.77 13.1176-5.96-1.2483-14.2081-1.6197-17.2418 3.6344-2.4299 4.2097-.1356 10.4292 5.4744 16.7488-1.3911 1.567-2.5779 3.1274-3.5396 4.6531-.1871-.0239-.3715-.0573-.5649-.0573-2.4828 0-4.5049 2.0221-4.5049 4.505 0 1.6268.8764 3.0381 2.1735 3.8267-.0062 1.3962.3026 2.6842.9604 3.8237 3.0327 5.2519 11.2855 4.8776 17.2428 3.6306 2.6686 8.0199 6.9086 13.1174 11.7701 13.1174 4.8616 0 9.1014-5.0977 11.7697-13.1174 3.2598.6822 6.3641 1.0134 9.5168.6301.8224 1.088 2.1122 1.8032 3.5712 1.8032 2.4832 0 4.5056-2.0225 4.5056-4.5056 0-.5756-.1186-1.1211-.3165-1.6268 2.3682-4.2089.0719-10.3957-5.5094-16.6828zm-23.5374 13.2072c-4.0555-1.882-7.9231-4.1262-11.4572-6.593-.3633-4.225-.3823-8.8041.0117-13.2206 3.5095-2.4665 7.3495-4.699 11.4455-6.6003 4.0866 1.897 7.9274 4.1278 11.4449 6.6.3931 4.4068.376 8.9856.0117 13.2213-3.5272 2.462-7.3946 4.7075-11.4566 6.5926zm11.0054-2.6835c-.3268 2.2598-.7534 4.3644-1.2614 6.2944-1.9732-.5354-4.02-1.2195-6.1034-2.0436 2.5595-1.2962 4.8855-2.6364 7.3648-4.2508zm-14.6461 4.2509c-2.0837.8243-4.1305 1.5083-6.1038 2.0437-.508-1.9302-.9347-4.0348-1.2615-6.2949 2.4667 1.6061 4.7923 2.948 7.3653 4.2512zm-10.9766-10.506c-1.7882-1.4087-3.3932-2.8259-4.8075-4.2267 1.4158-1.4188 3.0195-2.8529 4.8054-4.2738-.1548 2.9092-.1548 5.5787.0021 8.5005zm3.6411-14.8106c.3353-2.2427.7716-4.3362 1.2881-6.2617 1.9559.5334 3.9838 1.2125 6.0482 2.0295-2.5249 1.2789-4.8398 2.6081-7.3363 4.2322zm14.6161-4.2323c2.0642-.817 4.092-1.496 6.0478-2.0293.5164 1.9253.9527 4.0187 1.288 6.2611-2.4292-1.5801-4.7403-2.9171-7.3358-4.2318zm10.979 10.5419c1.7861 1.4211 3.39 2.8552 4.8059 4.2743-1.4145 1.4008-3.0196 2.8182-4.808 4.2271.1576-2.9337.1563-5.6031.0021-8.5014zm11.7947-11.0163c1.6156 2.7988-.1604 7.7041-4.9113 13.0942-2.0778-2.0685-4.4962-4.1238-7.2025-6.1003-.3569-3.3167-.9236-6.426-1.6709-9.2494 4.2846-.8663 11.6137-1.5039 13.7847 2.2555zm-26.4136-15.252c1.1823 0 2.3931.5732 3.567 1.6416-.3732.6558-.6037 1.4028-.6037 2.2094 0 2.483 2.0225 4.5056 4.5056 4.5056.1356 0 .2631-.0282.3956-.04.3351.7905.6551 1.6302.9573 2.5175-2.8443.7808-5.8192 1.8477-8.8219 3.1707-3.0029-1.323-5.9778-2.39-8.8223-3.1708 2.3125-6.7876 5.669-10.834 8.8224-10.834zm-26.4131 15.252c2.1694-3.76 9.5017-3.1212 13.7839-2.2555-.7474 2.8235-1.3141 5.933-1.671 9.2499-2.7061 1.9763-5.1241 4.0315-7.2019 6.1-4.7509-5.3903-6.5269-10.2956-4.911-13.0944zm-.0014 30.5c-.2906-.5034-.4589-1.0856-.5216-1.7277 2.147-.3401 3.7994-2.1815 3.7994-4.4227 0-1.1904-.4733-2.2676-1.231-3.074.7966-1.2302 1.7698-2.5118 2.9155-3.822 2.0664 2.0516 4.4678 4.0897 7.1522 6.0503.3569 3.316.9236 6.4248 1.6709 9.2478-4.2632.8615-11.6143 1.5098-13.7854-2.2517zm26.4145 15.248c-3.2344 0-6.5973-3.9965-8.8902-10.8147 2.8654-.782 5.864-1.8551 8.8902-3.1882 3.0261 1.333 6.0244 2.406 8.8898 3.188-2.2929 6.8183-5.6557 10.8149-8.8898 10.8149zm12.6289-12.9966c.7471-2.8228 1.3138-5.9314 1.6707-9.2473 2.6844-1.9606 5.0861-3.9988 7.1526-6.0505 4.1986 4.8015 6.104 9.2325 5.3583 12.0724-.5933-.287-1.2504-.462-1.9528-.462-2.4001 0-4.3604 1.9009-4.4731 4.2839-2.5628.2271-5.2168-.0832-7.7557-.5965z"/><path d="m35.0845 27.5909c-3.53 0-6.41 2.88-6.41 6.41s2.88 6.4099 6.41 6.4099c3.54 0 6.41-2.8799 6.41-6.4099s-2.87-6.41-6.41-6.41z"/></g></g></svg>