<svg height="512" viewBox="0 0 24 24" width="512" xmlns="http://www.w3.org/2000/svg"><g id="Music"><path d="m15.209 11.1-3.369 3.366a2.425 2.425 0 0 1 -.684 1.69 2.366 2.366 0 0 1 -1.658.685 2.343 2.343 0 1 1 0-4.685h.022l3.369-3.369a5.168 5.168 0 0 0 -2.835-1.059 2.176 2.176 0 0 0 -1.6.631 6.708 6.708 0 0 0 -1.245 1.615 4.812 4.812 0 0 1 -.919 1.262 4.462 4.462 0 0 1 -2.246.92 5.47 5.47 0 0 0 -2.781 1.209c-2.631 2.62-.631 5.722 1.508 7.861a9.45 9.45 0 0 0 4.043 2.641 3.794 3.794 0 0 0 3.818-1.144 5.734 5.734 0 0 0 1.23-2.824c.5-2.213 1.091-2.534 1.968-3.026a7.291 7.291 0 0 0 1.807-1.348c.963-.962.792-2.674-.428-4.425zm-8.042 9.035a.377.377 0 0 1 -.257.107.419.419 0 0 1 -.257-.107l-2.791-2.8a.35.35 0 0 1 0-.514.368.368 0 0 1 .513 0l2.792 2.8a.351.351 0 0 1 0 .514z"/><path d="m11.113 14.5a1.618 1.618 0 0 1 -2.759 1.134 1.613 1.613 0 0 1 0-2.278 1.613 1.613 0 0 1 2.278 0 1.577 1.577 0 0 1 .481 1.144z"/><path d="m20.407 4.862-8.748 8.738a2.417 2.417 0 0 0 -.5-.759 2.318 2.318 0 0 0 -.77-.514l8.738-8.748z"/><path d="m23.026 4.081-.245-.245.547-.547.245.245a.245.245 0 1 0 .347-.347l-.245-.245.315-.315v-1.038l-1.583-1.583h-1.048l-.31.311-.249-.245a.245.245 0 1 0 -.347.346l.247.245-.547.548-.243-.245a.245.245 0 1 0 -.347.346l.245.245-.31.31v1.049l1.583 1.584h1.038l.315-.315.245.245a.245.245 0 1 0 .347-.347z"/></g></svg>