<svg id="Layer_1" viewBox="0 0 48 48" xmlns="http://www.w3.org/2000/svg" data-name="Layer 1"><path d="m47.492.508c-.603-.603-1.555-.678-2.244-.176l-5.282 3.839c-.588.427-1.048 1.007-1.332 1.676l-.312.736c-.1.237-.245.452-.427.634l-18.209 18.209-.483-.483c-.679-.679-1.061-1.6-1.061-2.561s.382-1.882 1.061-2.561l.232-.232c.63-.63.184-1.707-.707-1.707h-.097c-1.615 0-3.187.524-4.479 1.493-1.304.978-2.251 2.355-2.699 3.922l-.051.177c-.77 2.695-3.015 4.713-5.777 5.192l-.236.041c-2.905.504-5.096 2.917-5.319 5.856l-.036.478c-.56 7.389 5.62 13.528 13.006 12.918l.203-.017c3.09-.255 5.576-2.509 6.127-5.506l.038-.207c.453-2.459 2.132-4.516 4.452-5.45l.344-.138c1.258-.507 2.287-1.456 2.893-2.669.669-1.338.779-2.888.306-4.307l-.005-.016c-.118-.353-.565-.458-.828-.195l-.81.81c-.406.406-.902.713-1.447.894-1.33.443-2.797.097-3.789-.894l-.01-.01 20.131-20.131c.232-.232.517-.403.83-.499l1.101-.336c.951-.291 1.76-.925 2.268-1.779l2.91-4.888c.406-.681.297-1.551-.264-2.112zm-35.664 40.553-.707.707c-.391.391-1.024.391-1.414 0l-3.536-3.536c-.391-.391-.391-1.024 0-1.414l.707-.707c.391-.391 1.024-.391 1.414 0l3.536 3.536c.391.391.391 1.024 0 1.414zm2.94-4.353c-.391.391-1.024.391-1.414 0l-2.121-2.121c-.391-.391-.391-1.024 0-1.414.391-.391 1.024-.391 1.414 0l2.121 2.121c.391.391.391 1.024 0 1.414zm3-3c-.391.391-1.024.391-1.414 0l-2.121-2.121c-.391-.391-.391-1.024 0-1.414.391-.391 1.024-.391 1.414 0l2.121 2.121c.391.391.391 1.024 0 1.414z"/></svg>