<svg id="Capa_1" enable-background="new 0 0 512 512" height="512" viewBox="0 0 512 512" width="512" xmlns="http://www.w3.org/2000/svg"><g><path d="m256 4.8c-138.3 0-251 112.5-251 251s112.5 251 251 251 251-112.5 251-251-112.7-251-251-251zm84.1 343c-5.4 10.2-12.8 18.7-21.7 25.5-9 6.6-19 11.5-30.2 14.9-3.1.9-6.3 1.8-9.5 2.3v15.1c0 12.6-10.2 22.8-22.8 22.8s-23-10.2-23-23v-13.8c-7-1.1-14-2.5-20.7-4.5-13.3-4-24.8-10.6-35.2-18-4.5-3.1-10.4-10.1-10.4-10.1-2.3-2.3-5.4-6.1-5.4-14.2 0-11.7 9.5-21.4 21-21.2 7.7 0 15.1 6.3 15.1 6.3 7.5 6.1 11.7 9.9 19.2 13.1 11 4.9 23.7 7.2 37.7 7.2 8.6 0 16.7-1.6 24.3-4.7 7.2-3.1 13.1-7.4 17.8-12.9 4.3-5.4 6.5-11.9 6.5-19.8 0-10.2-3.8-19-11.3-27.1-7.7-8.1-20.8-13.1-39.2-15.3-17.6-1.8-33.4-6.3-46.7-13.3-13.5-7-24.3-16.4-31.6-27.7-7.4-11.3-11.1-24.4-11.1-38.8 0-15.6 4.5-29.3 13.1-40.6 8.6-11 20.1-19.6 34.5-25.3 7.2-2.9 14.6-5.2 22.5-6.6v-15.3c0-12.6 10.2-22.8 22.8-22.8s23 10.2 23 23v14.7c5.7.9 11 2.3 15.8 4.1 10.8 4 20.1 9.7 27.8 16.9 4.3 4.1 8.3 8.6 11.9 13.5.5.7 1.3 1.4 1.8 2.2 2.3 3.2 3.6 7.4 3.6 11.9 0 11.7-11.7 20.1-21.2 21-9 .9-17.4-9.3-17.4-9.3-3.8-4.9-8.1-9-13.1-12.4-7.5-5-18.1-7.7-31.6-7.9-14.4-.2-26.2 2.7-35.6 8.8-8.6 5.6-12.8 13.5-12.8 24.6 0 5.7 1.3 11.5 4 16.9 2.5 5 7.5 9.7 14.9 13.8 7.7 4.3 19.6 7.4 35 9.2 25.9 2.5 46.7 10.8 62.3 24.6 16 14 24.1 33.1 24.1 56.6-.1 13.5-2.8 25.4-8.2 35.6z"/></g></svg>