<svg id="Capa_1" enable-background="new 0 0 512 512" height="512" viewBox="0 0 512 512" width="512" xmlns="http://www.w3.org/2000/svg"><g><path d="m256 69.334c56.559 0 109.482 27.867 141.572 74.543l24.721-16.996c-37.688-54.819-99.853-87.547-166.293-87.547s-128.607 32.728-166.293 87.548l24.723 16.995c32.087-46.676 85.011-74.543 141.57-74.543z"/><path d="m347.65 177.28 24.604-17.165c-26.552-38.06-70.011-60.781-116.254-60.781-46.242 0-89.702 22.722-116.255 60.782l24.604 17.165c20.946-30.023 55.208-47.947 91.651-47.947s70.705 17.924 91.65 47.946z"/><path d="m190.673 192.033 23.986 18.018c9.89-13.166 24.957-20.717 41.34-20.717 16.647 0 32.387 8.134 42.102 21.758l24.426-17.418c-15.333-21.502-40.203-34.34-66.527-34.34-25.526 0-49.948 12.224-65.327 32.699z"/><path d="m273.73 244.332 38.562 77.124-38.593 48.242-16.048 57.978-39.478-61.577 36.402-55.404-66.364-66.362h-188.211v228.333h512v-228.334zm-126.397 64v30h-30v-30zm-51.333 64v30h-30v-30zm245.333 8.334h30v30h-30zm66-42.415v-30h30v30z"/></g></svg>