<svg id="Layer_1" enable-background="new 0 0 500 500" viewBox="0 0 500 500" xmlns="http://www.w3.org/2000/svg"><path clip-rule="evenodd" d="m381.342 89.998c-9.102 61.091-38.599 109.534-87.591 145.886-.156.116-.323.17-.517.169-26.237-.104-48.93 4.588-68.524 13.473-6.461 2.93-10.727 8.301-12.118 15.258-3.656 18.28-6.732 31.983-5.379 50.766 2.332 32.363 21.137 50.334 23.514 84.085 1.018 14.443-.746 29.155-5.405 44.147-.084.27-.039.538.129.766.167.227.41.35.693.35h126.626c.272 0 .505-.113.674-.326s.226-.466.164-.73l-32.097-137.558c-.087-.372.071-.742.4-.936l101.389-59.911c.116-.069.202-.149.277-.261 26.278-39.198 31.547-87.17 27.747-138.931-.007-.094 0-.176.022-.268l8.14-33.171c1.002-4.082-.754-8.178-4.401-10.268l-12.773-7.319c-.188-.108-.384-.14-.596-.097l-45.72 9.144c-.246.049-.44.186-.569.401l-5.219 8.698c-.126.21-.311.343-.55.397l-296.977 66.486c-.019.004-.035.008-.055.01-.271.042-.538.102-.797.178-.019.006-.035.009-.054.014l-41.303 9.178c-2.368.523-4.141 2.29-4.782 4.463-.003.009-.005.017-.008.026-4.301 13.011-6.064 26.065-5.257 39.159.811 13.161 4.209 26.348 10.225 39.558 1.079 2.363 3.411 3.758 5.849 3.76v.022h27.846c3.447 0 6.264-2.703 6.445-6.104.001-.017.002-.032.004-.049l8.662-77.96c.041-.372.302-.663.667-.745l280.178-62.727c.286-.064.56.01.774.21.216.2.31.468.267.757zm-270.877 271.921c19.485 27.119 45.479 49.856 78.183 68.075 3.105 1.727 4.223 5.644 2.496 8.749s-5.644 4.223-8.749 2.496c-68.045-37.871-109.556-95.401-123.868-171.513-.654-3.495 1.648-6.859 5.143-7.514 3.495-.654 6.859 1.648 7.514 5.143 6.779 35.893 19.806 67.46 39.281 94.564zm165.314-176.915c0 21.653-17.553 39.207-39.207 39.207-21.653 0-39.207-17.553-39.207-39.207 0-21.653 17.553-39.207 39.207-39.207 21.653 0 39.207 17.553 39.207 39.207zm-189.682-28.954-7.432 66.891c-.049.438-.415.766-.855.766h-16.526c-.357 0-.662-.205-.797-.536-8.211-20.162-9.711-40.575-3.75-61.303.089-.311.324-.532.64-.602l27.679-6.151c.28-.062.548.008.761.2.213.191.312.45.28.735zm304.887 10.383 9.258-32.403c.015-.054.033-.098.058-.148l13.403-26.807c.122-.245.331-.404.599-.459.268-.054.522.012.73.19 7.277 6.234 10.508 15.017 8.438 27.136-.001.009-.003.016-.005.024l-13.844 69.223c-.05.25-.19.446-.41.574l-44.057 25.737c-.349.204-.78.142-1.059-.151-.278-.294-.316-.727-.094-1.065 12.096-18.342 21.605-41.635 26.978-61.835.002-.006.003-.011.005-.016z" fill-rule="evenodd"/></svg>