<svg height="512" viewBox="0 0 64 64" width="512" xmlns="http://www.w3.org/2000/svg"><g id="Hockey"><path d="m63.81.42a1.009 1.009 0 0 0 -.81-.42h-9a1.016 1.016 0 0 0 -.93.62l-16.74 41.38h-31.61a4.7 4.7 0 0 0 -4.53 6l1.61 5.64a6.015 6.015 0 0 0 5.76 4.36h4.44v-5c0-4.42 6.72-6 13-6 6.13 0 12.68 1.51 12.98 5.69.01.1.02.21.02.31v5h3.13a5 5 0 0 0 4.74-3.39l18.08-53.29a1 1 0 0 0 -.14-.9z"/><ellipse cx="25" cy="53" rx="11" ry="4"/><path d="m14 56.53v3.47c0 2.75 5.7 4 11 4s11-1.25 11-4v-3.47c-2.46 1.77-6.83 2.47-11 2.47s-8.54-.7-11-2.47z"/></g></svg>