<svg height="512pt" viewBox="0 0 512 512" width="512pt" xmlns="http://www.w3.org/2000/svg"><path d="m0 56.886719v184.890625h241.777344v-241.777344h-184.890625c-31.417969 0-56.886719 25.46875-56.886719 56.886719zm78.222656 49.78125h28.445313v-28.445313c0-7.855468 6.367187-14.222656 14.222656-14.222656s14.222656 6.367188 14.222656 14.222656v28.445313h28.445313c7.851562 0 14.222656 6.367187 14.222656 14.222656s-6.367188 14.222656-14.222656 14.222656h-28.445313v28.445313c0 7.851562-6.367187 14.222656-14.222656 14.222656s-14.222656-6.367188-14.222656-14.222656v-28.445313h-28.445313c-7.855468 0-14.222656-6.367187-14.222656-14.222656s6.367188-14.222656 14.222656-14.222656zm0 0"/><path d="m455.113281 0h-184.890625v241.777344h241.777344v-184.890625c0-31.417969-25.46875-56.886719-56.886719-56.886719zm-21.335937 135.113281h-85.332032c-7.855468 0-14.222656-6.367187-14.222656-14.226562 0-7.855469 6.367188-14.222657 14.222656-14.222657h85.332032c7.855468 0 14.222656 6.367188 14.222656 14.222657 0 7.859375-6.367188 14.226562-14.222656 14.226562zm0 0"/><path d="m0 455.113281c0 31.417969 25.46875 56.886719 56.886719 56.886719h184.890625v-241.777344h-241.777344zm80.667969-84.113281c-5.457031-5.652344-5.300781-14.652344.347656-20.109375 5.511719-5.324219 14.25-5.324219 19.761719 0l20.113281 20.109375 20.109375-20.109375c5.652344-5.457031 14.65625-5.300781 20.113281.347656 5.320313 5.511719 5.320313 14.25 0 19.761719l-20.113281 20.113281 20.113281 20.109375c5.648438 5.457032 5.804688 14.460938.347657 20.109375-5.457032 5.652344-14.460938 5.808594-20.109376.351563-.121093-.113282-.234374-.230469-.351562-.351563l-20.109375-20.109375-20.113281 20.109375c-5.648438 5.460938-14.652344 5.304688-20.109375-.347656-5.324219-5.511719-5.324219-14.25 0-19.761719l20.109375-20.109375zm0 0"/><path d="m270.222656 512h184.890625c31.417969 0 56.886719-25.46875 56.886719-56.886719v-184.890625h-241.777344zm78.222656-163.554688h85.332032c7.855468 0 14.222656 6.367188 14.222656 14.222657s-6.367188 14.222656-14.222656 14.222656h-85.332032c-7.855468 0-14.222656-6.367187-14.222656-14.222656s6.367188-14.222657 14.222656-14.222657zm0 56.886719h85.332032c7.855468 0 14.222656 6.367188 14.222656 14.222657 0 7.855468-6.367188 14.222656-14.222656 14.222656h-85.332032c-7.855468 0-14.222656-6.367188-14.222656-14.222656 0-7.855469 6.367188-14.222657 14.222656-14.222657zm0 0"/></svg>