<svg height="512" viewBox="0 0 56 56" width="512" xmlns="http://www.w3.org/2000/svg"><g id="Page-1" fill="none" fill-rule="evenodd"><g id="030---Musket" fill="rgb(0,0,0)" fill-rule="nonzero" transform="translate(0 -1)"><path id="Shape" d="m4.444 54.8c-1.02935161.0013433-2.04379286-.246006-2.957-.721-.18191432.917053.17527819 1.8575323.92010371 2.422611.74482551.5650787 1.74675867.6557308 2.58091193.2335137.83415326-.4222172 1.35434721-1.2833131 1.33998436-2.2181247-.56811282.1747233-1.15775474.2696314-1.752.282z"/><path id="Shape" d="m4.355 24.766 5.145 2.452c.14903395-1.3319241.8888732-2.5263148 2.015-3.253l-2.406-6.779c-.15666096-.4381863-.53519123-.7595094-.99300214-.8429302-.45781091-.0834207-.92535007.0837345-1.22650001.4385s-.39015882.843244-.23349785 1.2814302l.772 2.172c.3954341 1.1198906-.18882161 2.3487498-1.307 2.749l-1.711.61c-.24125243.0869336-.40669545.3102493-.41958852.5663624-.01289307.2561132.12928636.494915.36058852.6056376z"/><path id="Shape" d="m12.858 29.938c1.0601986.5087717 2.3321626.1974501 3.0375424-.7434586.7053797-.9409087.6475613-2.2491405-.1380745-3.1241526-.7856358-.875012-2.0801051-1.072908-3.0912866-.47259-1.0111815.6003181-1.4572238 1.8315207-1.0651813 2.9402012.2161614.6152519.6685025 1.1190527 1.257 1.4z"/><path id="Shape" d="m5.788 14.459c.31048531.1494013.6680658.1674245.992.05.49596053-.1787663.83596242-.6379985.86219115-1.1645403.02622874-.5265418-.2664516-1.0172899-.74219115-1.2444597-.17330153-.0828264-.36292289-.1258756-.555-.126-.6102787.0013995-1.13835489.4249499-1.27218783 1.0203748-.13383293.5954248.1622063 1.2042106.71318783 1.4666252z"/><path id="Shape" d="m48.069 2.586c-.8176657-.45344276-1.5963324-.9738918-2.328-1.556-.0287078-.02600798-.0679204-.03710588-.106-.03-.0422492.00757972-.0789146.03361209-.1.071l-2.473 4.188 4.111-1.465c.2210467-.45482144.5248979-.86447796.896-1.208z"/><path id="Shape" d="m1.277 51.464c1.2442735 1.268447 3.124297 1.674246 4.78099644 1.0319678 1.65669944-.6422783 2.77189653-2.2092807 2.83600356-3.9849678l-8.859.179c.07135728 1.0428395.51164247 2.026214 1.242 2.774z"/><path id="Shape" d="m23.291 16.516c-3.2553235-.8729111-6.7309289-.2195105-9.447 1.776l-1.757 1.294.95 2.679c1.0664093-1.2923885 2.4577497-2.2774755 4.031-2.854.3390381-.1310722.7225001-.0678503 1.0015178.1651217.2790176.232972.4096448.5990002.3411692.9559846s-.3252688.648699-.670687.7618937c-1.1557648.4250051-2.1870028 1.1320907-3 2.057 1.5627909.2697363 2.8536472 1.3711444 3.366 2.872.1422898.4191952.2205038.8574632.232 1.3l2.908-1.036-.093-2.568c-.1673471-2.9679779 1.6156728-5.6996453 4.4-6.741-.72-.236-1.508-.468-2.262-.662z"/><path id="Shape" d="m17.568 30.235c-.4958074.7252863-1.1966859 1.286198-2.013 1.611.3890338.6048596.8452702 1.1637493 1.36 1.666.3993019.3819049.4134049 1.0151981.0315 1.4145s-1.0151981.4134049-1.4145.0315c-.7141557-.6931871-1.3371634-1.4744669-1.854-2.325-.8538579 1.0668907-1.4287997 2.3294944-1.673 3.674.944 1.513 3.474 2.026 5.967 1.138 2.722-.969 4.469-3.348 3.814-5.194-.486-1.366-2.186-2.151-4.218-2.016z"/><path id="Shape" d="m53.151 3.631c-.1843048-.51937331-.7540722-.79173465-1.274-.609l-1.77.622c-1.0538357.37843282-1.6036193 1.53744815-1.23 2.593l1.827 5.148c.1777395.5072797.550331.9228002 1.0353033 1.1545884.4849724.2317883 1.042327.2607273 1.5486967.0804116l1.768-.62c.2499828-.088693.4544866-.2730704.5685121-.5125616.1140256-.2394911.12823-.514473.0394879-.7644384z"/><path id="Shape" d="m46.8 6.052-23.6 8.406c.2.043.4.07.6.122 1.1326599.2897806 2.250065.6362163 3.348 1.038.6605851.2435047 1.0949907.8780658 1.083 1.582.0054732.690187-.4280061 1.307664-1.079 1.537l-.922.329c-1.9633778.7488702-3.2114024 2.6877655-3.08 4.785l.07 1.938 6.175-2.2c1.3104522-.4697617 2.4526934-1.3166137 3.283-2.434l1.536-2.055-2.307.821c-.1077318.0390001-.2214262.0589643-.336.059-.4866526.0001885-.9027809-.3499871-.9857477-.8295153s.1913209-.9491579.6497477-1.1124847l5.421-1.938h.018l12.057-4.295-1.737-4.893c-.0961567-.27864288-.1612184-.56706089-.194-.86z"/><path id="Shape" d="m9.912 29.627-4.6-2.19c-2.96493656 4.0122282-4.68742135 8.8062574-4.954 13.788l-.284 5.463 8.941-.18.879-9.668c.01-.157.033-.321.057-.485.2372631-1.6990218.8986016-3.310927 1.923-4.687-.861219-.4453028-1.5510234-1.1628822-1.962-2.041zm-3.323 5.024c-.79761931 2.4160399-1.2093405 4.9427257-1.22 7.487-.0049391.5487668-.45121096.9910222-1 .991h-.008c-.26521916-.0021133-.51873517-.1095023-.70477308-.2985408-.18603792-.1890385-.28935716-.4442402-.28722692-.7094592.01282957-2.7543632.45929739-5.489527 1.323-8.105.11343182-.3394023.39931613-.5925078.74996307-.6639741.35064693-.0714663.71278489.049564.95.3175s.31346875.6420718.20003693.9814741z"/></g></g></svg>