<svg id="Capa_1" enable-background="new 0 0 512 512" height="512" viewBox="0 0 512 512" width="512" xmlns="http://www.w3.org/2000/svg"><g><path d="m497 90.991h-49.442c-105.278 0-179.228-19.819-276.991-58.931-4.585-1.816-9.829-1.26-13.975 1.509-4.116 2.798-6.592 7.442-6.592 12.422v210c0 6.138 3.735 11.645 9.434 13.931 101.309 40.518 179.008 61.069 288.124 61.069h49.442c8.291 0 15-6.709 15-15v-210c0-8.291-6.709-15-15-15z"/><path d="m15 480.991h331c8.291 0 15-6.709 15-15v-30h-271c-24.814 0-45-20.186-45-45v-150h-30c-8.291 0-15 6.709-15 15v210c0 8.291 6.709 15 15 15z"/><path d="m120 255.991v-90h-30c-8.291 0-15 6.709-15 15v210c0 8.291 6.709 15 15 15h331c8.291 0 15-6.709 15-15v-30.293c-110.931-1.518-191.02-24.245-287.714-62.915-17.197-6.899-28.286-23.305-28.286-41.792z"/></g></svg>