<?xml version="1.0" encoding="iso-8859-1"?>
<!-- Generator: Adobe Illustrator 19.0.0, SVG Export Plug-In . SVG Version: 6.00 Build 0)  -->
<svg version="1.1" id="Layer_1" xmlns="http://www.w3.org/2000/svg" xmlns:xlink="http://www.w3.org/1999/xlink" x="0px" y="0px"
	 viewBox="0 0 512 512" style="enable-background:new 0 0 512 512;" xml:space="preserve">
<g>
	<g>
		<path d="M501.333,128H10.667C4.771,128,0,132.771,0,138.667v234.667C0,379.229,4.771,384,10.667,384h490.667
			c5.896,0,10.667-4.771,10.667-10.667V138.667C512,132.771,507.229,128,501.333,128z M64,362.667H21.333V149.333h21.333v117.333
			c0,5.896,4.771,10.667,10.667,10.667H64V362.667z M149.333,362.667h-64v-85.333H96c5.896,0,10.667-4.771,10.667-10.667V149.333
			H128v117.333c0,5.896,4.771,10.667,10.667,10.667h10.667V362.667z M256,362.667h-85.333v-85.333h10.667
			c5.896,0,10.667-4.771,10.667-10.667V149.333h42.667v117.333c0,5.896,4.771,10.667,10.667,10.667H256V362.667z M341.333,362.667
			h-64v-85.333H288c5.896,0,10.667-4.771,10.667-10.667V149.333H320v117.333c0,5.896,4.771,10.667,10.667,10.667h10.667V362.667z
			 M426.667,362.667h-64v-85.333h10.667c5.896,0,10.667-4.771,10.667-10.667V149.333h21.333v117.333
			c0,5.896,4.771,10.667,10.667,10.667h10.667V362.667z M490.667,362.667H448v-85.333h10.667c5.896,0,10.667-4.771,10.667-10.667
			V149.333h21.333V362.667z"/>
	</g>
</g>
<g>
</g>
<g>
</g>
<g>
</g>
<g>
</g>
<g>
</g>
<g>
</g>
<g>
</g>
<g>
</g>
<g>
</g>
<g>
</g>
<g>
</g>
<g>
</g>
<g>
</g>
<g>
</g>
<g>
</g>
</svg>
