<svg height="512" viewBox="0 0 68 60" width="512" xmlns="http://www.w3.org/2000/svg"><path d="m420 476v-12c-1.104569 0-2-.895431-2-2v-24c0-1.104569.895431-2 2-2v-12h-3c-.552285 0-1-.447715-1-1v-2c0-.552285.447715-1 1-1h66c.552285 0 1 .447715 1 1v2c0 .552285-.447715 1-1 1h-3v52h3c.552285 0 1 .447715 1 1v2c0 .552285-.447715 1-1 1h-66c-.552285 0-1-.447715-1-1v-2c0-.552285.447715-1 1-1zm10-20c.552285 0 1-.447715 1-1v-4.535129c1.195603-.691619 2-1.984306 2-3.464871 0-2.209139-1.790861-4-4-4s-4 1.790861-4 4c0 1.480565.804397 2.773252 2 3.464871v4.535129c0 .552285.447715 1 1 1zm4 8h-10v12h10zm-10-28h10v-12h-10zm14 28v12h10v-52h-10v12c1.104569 0 2 .895431 2 2v24c0 1.104569-.895431 2-2 2zm14-40v52h10v-52zm14 0v52h10v-52z" transform="translate(-416 -420)"/></svg>