<svg clip-rule="evenodd" fill-rule="evenodd" height="512" image-rendering="optimizeQuality" shape-rendering="geometricPrecision" text-rendering="geometricPrecision" viewBox="0 0 43.3492 43.3492" width="512" xmlns="http://www.w3.org/2000/svg"><g id="Layer_x0020_1"><g id="_326928624" fill-rule="nonzero"><path id="_326929944" d="m14.0623 25.9837-.7941-.8011-6.285 3.6285 1.4262 1.4262z"/><path id="_326929968" d="m15.4103 27.3436-.8068-.814-5.6502 4.2517 1.5097 1.5096z"/><path id="_326929440" d="m16.7543 28.6994-.8065-.8136-4.945 4.9449 1.508 1.508z"/><path id="_326929848" d="m14.4505 36.2784 3.6382-6.2328-.7926-.7995-4.2413 5.6366z"/><path id="_326929512" d="m33.6986 5.3269 4.3464 4.3463c-.9568 1.1952-1.8981 2.2649-2.6836 3.0471l-16.795 16.727-1.0237-1.0328c-.0099-.0112-.0205-.0219-.0318-.032l-1.2692-1.2804c-.0075-.009-.0154-.0178-.0239-.0262-.0076-.0077-.0155-.0149-.0236-.0218l-1.2692-1.2804c-.0099-.0111-.0203-.0216-.0311-.0313l-1.0256-1.0347 16.8017-16.7336c.7791-.7758 1.8414-1.7037 3.0286-2.6472z"/><path id="_326929056" d="m38.5211 9.0697-4.2169-4.217c1.449-1.118 3.0357-2.2259 4.498-3.0976 2.0689-1.2332 3.8336-1.9969 4.4429-1.5991.3959.6141-.3783 2.3814-1.6243 4.4507-.8738 1.4513-1.9814 3.0245-3.0997 4.463z"/><path id="_326928936" d="m.2794 41.6649c-.3726.3726-.3726.9768 0 1.3494.3726.3727.9768.3727 1.3495 0l7.546-7.546c.3726-.3726.3726-.9768 0-1.3495-.3727-.3726-.9769-.3726-1.3495 0l-7.546 7.5461z"/><path id="_326928984" d="m.2822 35.9581c-.3726.3727-.3726.9769 0 1.3495s.9768.3726 1.3494 0l3.8788-3.8788c.3727-.3726.3727-.9768 0-1.3494-.3726-.3727-.9768-.3727-1.3494 0l-3.8788 3.8787z"/><path id="_326928648" d="m5.9779 41.6703c-.3726.3726-.3726.9768 0 1.3494.3727.3727.9769.3727 1.3495 0l3.8788-3.8787c.3726-.3726.3726-.9768 0-1.3495-.3726-.3726-.9768-.3726-1.3495 0z"/></g></g></svg>