<svg id="Glyph" height="512" viewBox="0 0 64 64" width="512" xmlns="http://www.w3.org/2000/svg"><path d="m9.62572 47.46956a17.45667 17.45667 0 0 1 13.568.63993.9779.9779 0 0 0 .80989.02.96271.96271 0 0 0 .55991-.58993 49.52805 49.52805 0 0 0 2.50969-10.47846 52.0547 52.0547 0 0 0 -3.89946-26.7361 1.00556 1.00556 0 0 0 -1.91969.37 58.2906 58.2906 0 0 1 -12.74819 35.21479 1.004 1.004 0 0 0 1.11985 1.55977z"/><path d="m58.59861 50.04921a.99462.99462 0 0 0 -.79987-.34993l-51.67251 2.03972a1.01336 1.01336 0 0 0 -.81989.48992.995.995 0 0 0 -.04.95989l3.12955 6.2591a1.00271 1.00271 0 0 0 .89983.54991h38.8244a11.44859 11.44859 0 0 0 6.2591-2.1297 11.60108 11.60108 0 0 0 4.43936-6.969 1.01313 1.01313 0 0 0 -.21997-.84991z"/><path d="m29.13291 20.2835a47.123 47.123 0 0 1 -1.46982 26.87611 1.00881 1.00881 0 0 0 1.39991 1.21981 36.96421 36.96421 0 0 1 15.6977-3.99937 36.50546 36.50546 0 0 1 10.33847 1.17982 1.01 1.01 0 0 0 1.24974-1.06987c-1.71926-19.42-16.54222-35.4439-32.64555-40.43383a1.00606 1.00606 0 0 0 -1.13945 1.50954 45.77649 45.77649 0 0 1 6.569 14.71779z"/></svg>