<svg id="Glyph" enable-background="new 0 0 64 64" viewBox="0 0 64 64" xmlns="http://www.w3.org/2000/svg"><g><path d="m42.0443726 42.6678467c-.0552292-.0648956-9.2354507-9.2174683-9.2706299-9.2808838-1.1087036 2.923584-2.5321655 7.9076538-1.9577026 13.2294922.0397129.1947861-.3281498.2197495-.35256.0039139.000021-.0000076.000021-20.0922928.000021-20.0922928h.8330078v.3759766c.0216827 1.3136311 1.9781303 1.3149548 2-.0000439v-2.7519093c-.0218124-1.3136864-1.9780579-1.3149471-1.9999981.0000439-.0000019-.0000439-.0000019.3759327-.0000019.3759327h-.8330079v-3.7524414h.8330078v.3759766c.0216827 1.3136311 1.9781303 1.3149548 2-.0000439v-2.7519093c-.0218124-1.3136864-1.9780579-1.3149471-1.9999981.0000439-.0000019-.0000439-.0000019.3759327-.0000019.3759327h-.8330078v-3.7524414h.8330078v.3759766c.0216827 1.3136311 1.9781303 1.3149548 2-.0000429v-2.7519102c-.0218124-1.3136854-1.9780579-1.3149471-1.9999981.0000429-.0000019-.0000429-.0000019.3759336-.0000019.3759336h-.8330078v-2.1821289c-.0975761-6.7172284-11.3093433-8.180006-11.6961632.3608513-.0000038-.0000114-1.4542274-.0000114-1.4542274-.0000114-1.3121166.0271597-1.318161 1.9737663.0000439 2.0000029 1.3333969-.0059652 4.1178646.0042953 5.4638329-.0000162.4492092.0000134.8437405-.2997913.9638577-.7324085l.4755859-1.7128906c.0955391-.3762417.6897793-.2790899.6503868.1147861.0051785.2603188-3.1164379 38.4206772-3.0869198 38.6372223.1996956 3.2260666 2.7188263 9.3511581 9.4151134 9.1605339 1.1024742.0000534 5.7089195-.2675247 8.3007164-4.5697708.3730469-.4614258 1.8017578-2.4975586 1.3154297-6.1079102-.2568359-1.9008179.6270142-3.6304321 1.7138062-4.928894-.164795-.1246321-.3318483-.2461531-.4805909-.3947126zm-6.867981-2.8028565c-.0097656.0413818-.9507446 4.1552734-.2424927 7.1380615.2830353 1.2800369-1.6184616 1.7394791-1.9458084.4626617-.8191452-3.4462433.1972122-7.8695831.2411575-8.0561066.3181038-1.2709387 2.2240983-.8319434 1.9471436.4553834z"/><path d="m46.9625244 37.7497559-9.2275391-9.2285156c-.9355469-.9370117-2.5683594-.9365234-3.5039062.0004883-.9658203.9658203-.9658203 2.5380859 0 3.5039062l9.2275391 9.2280273c2.3677444 2.2483177 5.7544593-1.1317634 3.5039062-3.5039062z"/></g></svg>