<svg clip-rule="evenodd" fill-rule="evenodd" height="512" image-rendering="optimizeQuality" shape-rendering="geometricPrecision" text-rendering="geometricPrecision" viewBox="0 0 6.82666 6.82666" width="512" xmlns="http://www.w3.org/2000/svg"><g id="Layer_x0020_1"><path d="m2.92814 2.96221c-.317287.37335-1.62824.658512-1.68378.670469-.0371535.00790157-.073689-.0148858-.0828268-.0515945-.11289-.45213-.428618-.723669-.626665-.854516.129114.344669.348835 1.08115.102067 1.58709.157142-.0575276.391228-.185087.530079-.457681.00914567-.0179921.0257008-.0311535.045189-.0361378.00572441-.00147638.0115709-.00217717.0174252-.00219291.0140039 0 .0277598.00421654.0395787.0122913.195366.133752 1.05431.405146 1.48134.529945.0298583.00872047.0504213.0361732.0504213.0673425.00001968.0432717 0 .129161-.611319.528579.532272-.0931693 1.03787-.404791 1.04359-.408386.0129094-.008.0278858-.0116181.0429921-.0103504 1.32023.110961 1.98633-.110622 2.31617-.325417l-.0862244-.107724c-.0248583-.0310276-.0304606-.0729173-.014748-.109398.0157323-.0364567.0500591-.0610984.0896417-.0642717.133028-.0107441.24872-.0399764.375272-.0948346.198543-.0860945.295366-.20678.335441-.271106-.811917-.633638-2.59948-.657969-2.61775-.658142-.0313031-.00029528-.0585866-.0212992-.0669882-.0514685-.120689-.437134-.383063-.792547-.547736-.983839.00964173.401677-.10987 1.02862-.115835 1.05917-.0021811.0118543-.00755512.0229606-.0153465.0321772zm-.267957.584591c-.0239764 0-.0473898-.0123307-.0605394-.0345197-.0195906-.0333898-.0085315-.0763819.0248425-.0960669.0232835-.0137598.57624-.335465 1.08769-.255047.0382441.00598819.0644331.0419213.0584646.0802047-.00607874.0382559-.0418976.0644685-.0802717.0584055-.462098-.0726299-.989386.234193-.994622.237299-.0111969.00659843-.0235079.00973228-.0355591.00972441zm2.27817.367996c-.0249646 0-.0492165-.0134016-.0618819-.0369843-.131787-.245752-.00548031-.48698 0-.497138.0182835-.0341496.0607795-.0469685.0950039-.0286496.0341063.0182598.0468937.0606457.0287441.094748-.00411811.00783465-.0956142.186638-.00012598.364713.0182874.0341142.00548425.0766732-.0286181.0949764-.0105906.00564961-.0219252.00835827-.033122.00833465zm.353335.0533307c-.0249646 0-.0492047-.0134055-.061874-.037-.16002-.298469-.0065748-.591441 0-.603768.0184134-.0341417.0609016-.0469764.0950079-.0286732.034122.0182638.0470118.0606969.0287402.094815-.00193701.00385827-.123504.241142 0 .471319.0182913.0341378.0053622.0766732-.0287402.0949803-.0104646.00564173-.0219252.00834252-.0331339.00832677z"/></g></svg>