<?xml version="1.0" encoding="iso-8859-1"?>
<!-- Generator: Adobe Illustrator 19.0.0, SVG Export Plug-In . SVG Version: 6.00 Build 0)  -->
<svg version="1.1" id="Layer_1" xmlns="http://www.w3.org/2000/svg" xmlns:xlink="http://www.w3.org/1999/xlink" x="0px" y="0px"
	 viewBox="0 0 512 512" style="enable-background:new 0 0 512 512;" xml:space="preserve">
<g>
	<g>
		<path d="M501.567,213.084c-47.314-18.926-65.537-50.947-80.186-76.67c-11.66-20.479-22.676-39.814-45.117-43.887
			C352.88,88.231,322.617,102.698,271,143.253V87.237C288.422,81.024,301,64.53,301,45c0-24.814-20.186-45-45-45
			c-24.814,0-45,20.186-45,45c0,19.53,12.578,36.024,30,42.237v56.005c-57.025-44.836-76.234-56.044-105.264-50.715
			c-22.441,4.072-33.457,23.408-45.117,43.887c-14.648,25.723-32.871,57.744-80.186,76.67c-6.68,2.666-10.518,9.697-9.17,16.758
			C2.641,236.902,8.823,242,16,242h30c0.645,0,65.391-0.938,98.657-80.771c3.193-7.646,11.982-11.133,19.614-8.086
			c7.646,3.193,11.265,11.982,8.071,19.629c-13.647,32.754-31.882,54.527-50.248,69.229h33.794
			c13.961-11.896,25.112-27.022,25.112-45.001c0-8.291,6.709-15,15-15s15,6.709,15,15c0,17.232-5.861,32.186-14.703,45h44.703v30
			h-45c-24.814,0-45,20.186-45,45c0,24.814,20.186,45,45,45h45v30h-15c-24.814,0-45,20.186-45,45c0,24.814,20.186,45,45,45h15v15
			c0,8.291,6.709,15,15,15c8.291,0,15-6.709,15-15v-15h15c8.291,0,15-6.709,15-15c0-8.291-6.709-15-15-15h-15v-30h15
			c24.814,0,45-20.186,45-45c0-24.814-20.186-45-45-45h-15v-30h45c16.959,0,31.578-9.542,39.247-23.432
			c-8.417-5.437-16.935-11.833-24.705-19.312C329.408,266.408,323.461,272,316,272h-45v-30h44.703
			C306.862,229.186,301,214.232,301,197c0-8.291,6.709-15,15-15c8.291,0,15,6.709,15,15c0,17.979,11.151,33.105,25.111,45h33.794
			c-18.365-14.702-36.601-36.475-50.248-69.229c-3.193-7.646,0.425-16.436,8.071-19.629c7.632-3.047,16.421,0.439,19.614,8.086
			C400.609,241.063,465.356,242,466,242h30c7.178,0,13.359-5.098,14.736-12.158C512.084,222.781,508.247,215.75,501.567,213.084z
			 M241.001,452h-15c-8.262,0-15-6.738-15-15c0-8.262,6.738-15,15-15h15V452z M241.001,332h-45c-8.262,0-15-6.738-15-15
			c0-8.262,6.738-15,15-15h45V332z M286,362c8.262,0,15,6.738,15,15c0,8.262-6.738,15-15,15h-15v-30H286z"/>
	</g>
</g>
<g>
</g>
<g>
</g>
<g>
</g>
<g>
</g>
<g>
</g>
<g>
</g>
<g>
</g>
<g>
</g>
<g>
</g>
<g>
</g>
<g>
</g>
<g>
</g>
<g>
</g>
<g>
</g>
<g>
</g>
</svg>
