<svg id="Layer_1" enable-background="new 0 0 100 100" viewBox="0 0 100 100" xmlns="http://www.w3.org/2000/svg"><path d="m3.567241 94.2880249c-1.4229896-2.1480026-1.4229896-5.3700943 0-7.5449753 1.100961-1.7720566 2.8730199-2.4970779 5.0479012-2.873024.3490696 0 .6981392 0 .6981392-.3490677 1.7989349-2.5239487 3.9738169-5.396965 6.846837-7.894043 3.2220879-3.2488022 6.4441776-5.7458725 9.3171978-7.5449753.375946-.3490677.375946-.7248535 0-.7248535l-8.2431145-8.2699852c-1.7989349-1.7722244-1.7989349-4.6450806 0-6.4441795 1.7989368-1.7989349 4.6719551-1.7989349 6.4441795 0l6.47089 6.4441795c.375946.375946.7250156.375946 1.0740852 0l40.2219467-46.6661263s.375946-.375946.7250137-.375946l23.3597812-9.3170334c1.0740814-.3759458 2.4970779.6981385 1.7722244 1.7720587l-9.3171997 23.3599391c0 .3490696-.3757782.3490696-.3757782.7250156l-46.6930084 40.2219448c-.3490677.3490753-.3490677.698143 0 1.0740891l6.47089 6.4708862c1.799099 1.7720642 1.799099 4.6450806 0 6.4441833-.8859482.8859406-2.0673752 1.3425217-3.2488022 1.3425217-1.1547127 0-2.3092651-.4565811-3.2220879-1.3425217l-8.2431145-8.2431183c-.375946-.375946-.7250156-.375946-.7250156 0-1.7989349 2.873024-4.2960091 6.0949478-7.5449753 9.3170319-2.8730183 2.873024-5.3700924 5.047905-7.894043 6.8468399-.3490696 0-.3490696.3490677-.3490696.6981354 0 1.4500351-.7248516 2.873024-1.7989359 4.3228912-3.5980347 2.4972382-8.6190594 2.1481629-10.7939411-1.4498672z"/></svg>