<svg id="Layer_1" height="512" viewBox="0 0 66 66" width="512" xmlns="http://www.w3.org/2000/svg"><g><g><path d="m32.7 14.4c-.5 0-1 .4-1 1v1.1c0 .5.4 1 1 1s1-.4 1-1v-1.1c-.1-.5-.5-1-1-1z"/><path d="m32.7 10c-.5 0-1 .4-1 1v1c0 .5.4 1 1 1s1-.4 1-1v-1.1c-.1-.5-.5-.9-1-.9z"/><path d="m32.7 5.5c-.5 0-1 .4-1 1v1.1c0 .5.4 1 1 1s1-.4 1-1v-1.1c-.1-.6-.5-1-1-1z"/><path d="m32.7 1c-.5 0-1 .4-1 1v1c0 .5.4 1 1 1s1-.4 1-1v-1c-.1-.6-.5-1-1-1z"/><path d="m38 12.6c-.5-.2-1.1 0-1.3.5-.2.4-.3.8-.5 1.3s.1 1.1.6 1.2c.5.2 1.1-.1 1.2-.6.1-.4.3-.7.4-1.1.3-.5.1-1.1-.4-1.3z"/><path d="m40.1 8.3c-.3.3-.7.7-1 1-.4.4-.3 1 .1 1.4s1 .3 1.4-.1c.3-.3.5-.6.8-.9.4-.4.4-1 0-1.4-.3-.3-.9-.4-1.3 0z"/><path d="m46.5 5.8c-.2-.5-.7-.8-1.2-.6s-.9.3-1.4.6c-.5.2-.7.7-.4 1.2.2.5.8.7 1.3.5.4-.2.8-.3 1.2-.5s.7-.7.5-1.2z"/><path d="m28.6 13.1c-.2-.5-.8-.7-1.3-.5s-.7.8-.5 1.3c.2.4.3.7.4 1.1.2.5.7.8 1.2.6s.8-.7.6-1.2c-.1-.5-.2-.9-.4-1.3z"/><path d="m25.2 8.3c-.4-.4-1-.3-1.4 0-.4.4-.3 1 0 1.4.3.3.6.6.8.9.4.4 1 .4 1.4.1.4-.4.4-1 .1-1.4-.2-.3-.5-.7-.9-1z"/><path d="m21.4 5.7c-.4-.2-.9-.4-1.4-.5-.5-.2-1 .1-1.2.6s.1 1.1.6 1.2c.4.1.8.3 1.2.5.5.2 1.1 0 1.3-.5s0-1-.5-1.3z"/></g><g><path d="m64.3 63.1c-8.1-3.3-13.5-11.7-17-20.1h-16c-.5 0-1-.4-1-1 0-.5.4-1 1-1h15.2c-.8-2.2-1.6-4.4-2.2-6.5l-2 2c-.4.5-1.2.4-1.5-.2l-2.9-5.1-5.4 3.2c-.5.3-1.1.1-1.4-.4l-.8-1.8-3.9 3.4c-.4.3-.9.3-1.3 0l-3-2.7c-1.8 6.6-4.7 14.4-9.2 20.6h23.6c.5 0 1 .4 1 1s-.4 1-1 1h-25.1c-2.7 3.3-6 6-9.8 7.6-.4.2-.7.6-.6 1.1s.5.8 1 .8h62c.5 0 1-.4 1-1 0-.4-.3-.8-.7-.9zm-36.8-20.4c-.4.4-1 .4-1.4 0s-.4-1 0-1.4 1-.4 1.4 0c.3.4.4 1 0 1.4zm14.1 12.5c-.3.4-1 .4-1.4 0s-.4-1 0-1.4 1-.4 1.4 0 .4 1 0 1.4z"/><path d="m25.8 33.7 4.2-3.7c.2-.2.5-.3.8-.2s.5.3.7.5l.9 2 5.3-3.2c.2-.1.5-.2.7-.1.3.1.5.2.6.5l2.7 4.8 1.9-1.9c-1.9-7-2.6-12.5-2.6-12.6-.1-.5-.5-.9-1-.9h-14.2c-.5 0-.9.4-1 .9 0 .1-.6 4.8-2.2 11.1z"/></g></g></svg>