<svg id="Layer_1" enable-background="new 0 0 3000 3000" height="512" viewBox="0 0 3000 3000" width="512" xmlns="http://www.w3.org/2000/svg"><g transform="translate(-2248 -2248)"><g id="Icons"><path clip-rule="evenodd" d="m2341.75 3623.781c7.72-14.423 19.003-22.74 31.219-28.123 120.195-38.822.738-95.133 77.096-142.762 43.362-29.7 96.154-38.042 142.876-57.831 222.686-109.003 214.254-40.115 313.072-84.59 156.839-89.741 124.347-22.655 225.103-34.813 99.874-23.848 77.067-2.314 130.468 14.597 31.028 5.091 64.286-2.535 95.831 1.003 52.116 9.717 104.665 22.595 159.809 17.734 25.035.038 37.313 15.203 52.548 28.527 121.954 55.454 94.525 54.993 164.916 103.067 15.349 13.44 22.299 30.281 43.167 34.634 63.204 13.488 125.126 4.631 186.229 29.684 168.054 18.771 89.746 87.518 186.301 120.427 33.493 6.002 65.023 7.062 94.236 26.684 19.577 9.955 42.033 7.787 62.908 13.958 88.78 41.978 50.353 128.026 193.837 120.039 72.793-.318 142.935 25.719 202.898 64.206 174.683 8.801-58.058 143.696 192.187 128.974 142.357 45.404 122.445 3.148 183.506 72.027 14.989 14.29 34.314 16.352 56.113 28.511 59.322 35.374-46.832 64.733-74.57 67.591-17.882 3.948-31.1 13.061-45.052 26.213-35.124 34.844-60.35 2.488-95.362 17.053-107.214 49.53-150.45-5.545-244.197-3.054-157.423 21.9-156.471 55.441-290.564 34.2-49.073-1.107-182.657 45.003-158.314-44.32 16.546-36.924 88.561-47.347 119.269-58.234 77.413-28.64 10.09-102.267-34.546-118.49-56.909-24.522-132.923-8.042-175.875-33.431-35.833-23.473-56.489-65.134-88.272-93.021-33.371-46.264-31.534-137.069-92.047-161.939-96.963-16.523-57.521 50.192-229.411-8.427-36.225-11.441-73.666-12.382-110.438-18.234-64.384-9.915-92.989-63.955-150.881-81.645-108.244-18.77-100.947 5.075-183.264-31.223-76.866-9.493-104.906 6.96-160.171-34.581-49.367-33.406 7.231-25.507 26.471-42.424 51.737-45.204-23.545-82.828-65.732-87.424-33.162-4.067-69.139 14.437-104.086 13.946-147.964-12.929-111.297 18.271-202.013 82.059-43.153 17.909-73.049-7.034-110.287 22.461-73.166 25.127-60.872 10.359-91.061 75.38-16.983 28.192-54.021 42.948-94.449 54.226-59.666 17.727-93.153-12.846-139.468-32.635zm496.289 78.516c-23.523-28.198-73.309-70.636-14.628-83.726 22.287-6.972 47.163-23.197 71.804-9.092 38.861 18.542 38.729 41.409 59.091 61.758 12.143 13.518 34.402 15.266 28.358 37.085-27.94 64.535-169.636 67.87-202.969 24.765 16.524-10.427 43.608-22.648 58.344-30.79z" fill-rule="evenodd"/></g></g></svg>