<svg enable-background="new 0 0 283.465 283.465" height="512" viewBox="0 0 283.465 283.465" width="512" xmlns="http://www.w3.org/2000/svg"><g id="Layer_1_12_" clip-rule="evenodd" fill-rule="evenodd"><path d="m71.232 168.635c0 2.126-3.341 30.074-6.987 40.099s-14.581 8.203-8.506 16.709 24.302 15.796 30.378 18.227c6.076 2.43 28.252-5.165 30.986 1.215s22.177 12.151 22.177 12.151 14.885-5.468 13.67-7.594 0-21.265 11.544-23.391c11.544-2.127 35.24 16.709 40.1 11.544 4.86-5.164 30.987-22.479 31.595-27.34s-16.709 1.215-15.189-11.848c1.519-13.063-6.075-10.937-4.556-16.708s17.62-3.949 12.152-9.721-9.721-28.556-11.24-29.771-15.797 4.253-10.936-4.556c4.86-8.81 18.531-21.265 18.531-21.265s3.951-16.706 6.989-27.338 19.443-10.329 9.114-14.582-26.43-5.772-30.987-7.29c-4.556-1.519-14.886-5.469-22.48-10.026-7.594-4.556-26.733-16.404-29.163-18.531s-15.19-23.087-20.05-20.657-15.189 4.253-15.189 11.848c0 7.594 0 16.708-3.342 19.746s-22.176 2.734-22.176 7.898-1.216 11.544-5.469 11.544c-4.252 0-11.847-4.86-14.885-6.379s-16.405-17.315-18.835-8.202c-2.43 9.114 4.557 13.974 5.165 20.05s1.824 13.367-7.594 10.936c-9.418-2.43-18.531-10.329-22.784-9.113-4.253 1.215-23.695 3.037-23.999 5.164-.304 2.126-5.773 8.81 1.214 13.063 6.988 4.253 21.265 14.279 28.252 17.924s17.012 5.468 16.709 12.455c-.304 6.987-6.684 6.682 1.822 15.492 8.507 8.81 11.847 2.43 11.24 11.24-.609 8.808 2.729 17.007 2.729 17.007z"/><path d="m251.245 238.336c-.37 1.717-2.826 7.104-2.454 11.694.477 5.88 4.052 11.229 6.099 14.129 3.646 5.162 18.835-3.951 18.835-8.204 0-1.497-4.671-5.362-3.904-11.951.319-2.735 6.562-7.439 6.54-10.258-.074-9.683 1.387-19.325-3.244-20.017-4.369-.652-6.446 5.24-9.191 7.814-6.576 6.172-12.373 9.043-12.681 16.793z"/></g></svg>