<svg id="Layer_1" enable-background="new 0 0 3000 3000" height="512" viewBox="0 0 3000 3000" width="512" xmlns="http://www.w3.org/2000/svg"><g transform="translate(0 -562)"><g transform="matrix(1.089 0 0 1.089 -24.425 -68.496)"><g id="Icons"><path clip-rule="evenodd" d="m111.529 941.961c-2.554-40.575-12.597-135.718 27.588-160.451 20.021 1.33 73.076 74.411 83.765 82.179 86.83 79.196 233.232 118.958 306.938 6.154 12.94-14.95 27.515-27.723 40.177-22.31 81.188 41.481 88.168 181.135 119.682 240.865 25.984 45.768 124.065 128.22 197.211 175.765 71.771 53.619 151.837 47.039 286.03 32.825 175.854-16.148 194.437-123.741 333.712-184.985 30.728-12.463 154.365-32.138 212.729-34.743 49.761-5.157 110.324 60.886 173.296 74.656 168.403 11.405 106.49 29.009 209.826 107.646 35.746 20.273 78.429 19.757 114.054 37.603 157.033 99.061 5.536 285.982-6.855 409.314-8.848 37.129 42.67 50.003 39.463 85.045-9.463 104.111-4.95 71.914 19.503 144.694 17.033 46.491 1.243 93.138 12.807 135.57 16.568 55.184 98.292 28.844 126.324 65.691 30.101 50.377-11.1 100.392-42.635 141.128-56.576 78.718-36.234 63.606 18.863 165.139 92.457 160.789 74.648 109.856 207.011 165.526 84.467 43.439 2.626 129.477 79.503 172.394 78.947 51.067-103.746 92.734-149.339 131.049-54.021 47.986-47.463 112.065-44.293 176.609 1.539 13.827.818 32.854.2 40.778-1.781.675-8.28.888-17.149.806-203.467-6.092-521.685-20.789-631.888-87.211-73.615-54.732-20.212-225.388-164.509-223.549-77.864 7.594-140.819 113.927-206.394 133.725-51.913 16.187-225.496-66.006-285.22-100.506-13.312-6.902-36.937-25.626-51.529-41.9-94.528-110.669-100.834-87.744-175.437-134.533-112.704-87.515-91.364-281.149-248.064-352.481-55.98-28.611-115.606-42.489-144.714-12.022-2.422-.406-8.928-6.618-16.702-14.686-132.038-126.441 9.863-250.383-136.597-359.142-52.12-40.261-123.718-75.404-169.373-139.289-36.286-47.492-51.776-132.56-46.926-172.608 3.932-37.613 27.839-61.235 46.884-83.563 83.797-101.729 80.497-99.608 72.176-117.425-22.123-45.876-83.708-62.75-100.238-114.464-48.471-214.999-89.443-236.379-89.88-369.293z" fill-rule="evenodd"/></g></g></g></svg>