<svg id="Layer_1" enable-background="new 0 0 3000 3000" height="512" viewBox="0 0 3000 3000" width="512" xmlns="http://www.w3.org/2000/svg"><g transform="translate(-562 -1124)"><g id="Icons"><path clip-rule="evenodd" d="m922.363 3678.453c-21.718-23.627-50.506-32.226-75.084-52.774-19.963-34.054 58.311-49.209 71.608-65.449 27.447-19.329 53.639-42.989 85.197-52.592 51.657-16.847 66.904 21.825 101.386 30.244 57.005 14.972 79.179 15.091 81.198 69.042 2.412 12.466 12.041 20.074 20.131 29.802 82.228 87.563-33.727 93.651-38.72 169.792-9.225 48.901 4.826 98.502-20.631 138.355-9.216 15.947-27.354 21.382-41.369 31.344-14.227 11.518-24.301 27.819-37.794 38.79-28.727 24.356-47.541 16.997-48.294-15.973 2.174-15.115 14.626-31.421 16.324-45.812 1.699-9.235-4.745-17.794-17.084-22.689-22.036-7.739-36.034 20.611-50.815 35.279-24.545 24.276-59.075 15.759-57.577-21.637 49.597-130.194-6.764-83.462 95.218-150.42 65.777-80.504-36.578-146.458-83.694-115.302zm381.047-77.226c-5.089-20.235-9.744-38.159 9.914-48.483 48.657-16.385 38.275-83.545 92.611-83.682 30.933-.006 58.742 20.621 90.94 16.378 36.909-3.028 35.015-45.707 66.626-56.392 42.918-17.27 98.429 19.185 102.92 63.887-4.847 89.161-83.152 46.998-91.502 115.043-2.553 7.378-6.135 13.33-13.631 17.463-45.005 15.584-73.836-34.663-109.64 11.523-15.312 21.182-18.407 44.193-26.547 69.285-61.122 95.722-109.164-64.761-121.691-105.022zm-191.338-173.555c29.77-72.755 108.165-85.332 158.689-139.094 170.081-154.698 185.483-67.784 333.836-103.769 50.641-11.306 99.981-26.255 151.574-23.977 165.575 37.799 116.64-57.862 178.903-120.535 60.208-53.926 53.335-70.39 77.743-116.327 16.143-30.375 36.672-38.958 65.764-35.261 54.958 9.111 73.029 8.598 105.266-20.67 24.497-21.108 54.34-34.536 82.158-55.093 31.621-20.985 46.172-55.428 65.5-87.465 18.618-28.984 43.342-53.717 60.538-83.207 52.703-122.432 15.05-119.636 84.906-225.205 30.708-58.681-3.229-81.609-7.982-126.152 29.05-93.431-11.227-101.97 18.705-143.816 12.745-17.603 32.23-31.592 43.845-46.781 25.752-52.155 29.529-53.641 79.256-25.377 60.693 22.138 138.512 121.026 160.541 197.487 16.133 75.484.192 210.144-32.303 278.788-36.86 69.616-98.368 67.595-83.189 157.647 44.006 172.511 6.807 151.901-12.502 286.189 10.296 113.253 16.381 96.157-17.913 179.828-13.205 32.18-6.312 76.209-41.662 95.288-11.99 6.766-37.561 21.362-48.519 9.366-14.44-14.214-9.295-55.198-33.962-55.913-25.207 1.978-45.243 14.838-60.617 32.483-75.15 119.2-77.337 3.662-135.054 17.142-33.769 4.906-66.114 34.664-100.064 44.586-46.421 13.781-97.708-18.24-144.608-24.116-61.609-2.534-82.27 15.409-36.875 67.225 8.027 12.636 12.179 20.139 3.689 32.909-68.541 68.848-66.225-9.715-127.689 140.456-26.48 58.623-90.178 55.028-113.69 13.162-16.156-26.97-15.615-60.239-24.472-88.496-68.574-95.677-19.874-41.871-39.944-104.872-13.677-31.442-51.502-40.576-88.512-39.324-91.533 3.647-156.574 77.549-251.957 78.19-84.901 3.997-88.171 67.638-154.275 67.299-40.61 2.136-87.593-12.581-115.124-32.595zm1352.438-1416.153c-6.091-30.06 4.051-73.066-4.723-101.639-5.251-18.848-23.008-32.375-34.411-47.295-37.164-48.126 20.24-96.865 48.437-134.513 24.207-27.88 16.178-69.071 35.272-89.23 33.803-34.441 114.22 59.724 133.607-34.374 3.222-24.135-.947-47.655 8.817-69.014 32.271-56.749 37.958-78.227 34.117-125.957-4.539-54.209-23.593-104.694-19.113-159.857 20.418-75.607 97.312-3.799 106.646 42.38 59.277 181.933 119.659 124.426 191.434 142.681 37.604 8.534 72.249 25.656 110.837 24.471 56.193 4.151 80.159-84.436 102.235-44.333 4.834 35.884-11.71 69.704 4.797 101.317 15.759 41.819 132.723 48.945 87.059 104.995-45.109 41.073-148.096 30.038-195.032 46.629-134.231 31.612-62.236 144.893-123.812 209.686-78.774 50.802-143.689-61.079-204.482-78.29-108.237-18.545-89.111 49.228-213.593.912-24.23 5.175 11.67 46.862 19.421 51.375 70.679 57.708 27.344 72.945.253 92.687-29.699 21.17-64.812 48.026-87.766 67.369z" fill-rule="evenodd"/></g></g></svg>