<svg id="Layer_1" enable-background="new 0 0 3000 3000" height="512" viewBox="0 0 3000 3000" width="512" xmlns="http://www.w3.org/2000/svg"><g transform="translate(-2248 -1124)"><g transform="matrix(1.027 0 0 1.027 -66.903 -37.866)"><g id="Icons"><path clip-rule="evenodd" d="m2354.111 1729.824c247.721-92.573 475.775 129.936 630.176 115.118 204.146 1.237 143.639-59.842 245.479-39.952 52.833 11.236 99.182 21.158 138.088 46.284 30.139 22.407 46.029 56.188 70.829 86.129 101.921 87.873 48.354 40.391 105.79 112.029 12.563 13.833 30.226 10.373 45.177-2.819 21.67-18.69 38.659-48.548 58.558-53.555 51.73-14.728 145.168 21.287 172.454 54.421 36.148 38.273 53.398 99.466 81.858 135.68 122.584 156.254 123.572 135.703 218.998 162.931 10.97 4.448 41.554 11.243 31.542 21.077-34.523 53.939-37.064 113.6-41.375 172.682-16.598 357.962 32.784 315.807 90.244 400.429 21.493 33.333 32.099 65.783 60.877 91.174 30.209 26.924 68.937 31.742 103.592 46.868 29.547 11.095 46.802 42.867 78.951 46.851 46.92 5.635 88.563-16.243 135.517-21.273 72.1-10.88 113.194-31.202 149.184-90.767 24.055-40.639 43.711-75.538 48.404-115.563 8.876-74.979 98.698-86.758 166.196-86.412 31.399-.262 59.002 2.882 82.94.871 135.078-13.548-17.362 26.612-12.266 178.909-1.577 25.2-3.409 49.837-11.404 71.88-9.532 42.228-102.667 84.135-159.168 108.115-21.364 16.588-135.71-1.112-134.764 36.586 148.698 204.557-50.041 98.279-75.191 178.032-12.093 31.191.807 72.106-23.594 92.595-11.365-2.274-20.658-11.246-30.119-18.902-244.825-212.107-289.131-75.848-409.832-94.32-66.456-8.599-127.829-35.989-189.692-59.571-183.693-51.095-156.962-87.13-282.805-147.668-47.39-19.635-108.207-25.234-140.312-48.321-56.007-39.496-153.281-122.193-157.078-171.516-4.417-25.619 13.833-64.756 10.522-99.907-6.504-52.756-41-156.744-70.325-182.872-75.913-69.55-86.573-124.163-139.84-183.617-44.221-50.951-99.227-65.683-157.733-102.719-7.16-6.591-.853-27.531-6.253-39.99-17.589-77.952-101.029-130.581-162.154-189.009-101.993-88.898-91.129-241.831-195.977-301.324-24.285-13.609-56.702-24.693-79.816-13.839-61.428 72.056 28.898 144.422 67.303 212.776 101.85 206.057 148.222 172.901 196.058 274.559 41.315 84.749 56.629 181.644 110.991 223.609 31.548 27 74.903 55.777 83.116 85.633 5.965 19.956-6.814 41.796-45.813 60.688-51.416 22.665-63.53-62.055-93.171-87.41-134.141-135.168-91.371-104.051-117.767-234.061-24.175-77.952-114.792-67.084-174.964-96.33-94.121-58.159-14.502-70.234-10.173-111.601-1.106-49.398-33.705-80.054-67.693-104.817-13.056-10.254-25.072-20.152-35.266-33.458-17.138-22.284-27.279-47.273-36.653-73.726-41.423-156.035-123.444-144.597-121.646-210.607z" fill-rule="evenodd"/></g></g></g></svg>