<svg id="Layer_1" enable-background="new 0 0 3000 3000" height="512" viewBox="0 0 3000 3000" width="512" xmlns="http://www.w3.org/2000/svg"><g transform="translate(-1124 -562)"><g transform="matrix(1.031 0 0 1.031 -33.065 -26.935)"><g id="Icons"><path clip-rule="evenodd" d="m1874.823 1662.2c-266.301-141.61-109.943-139.205-203.747-258.433-9.266-13.633-17.359-26.861-22.127-42.238-31.911-111.141 127.156-258.321 137.69-194.327 21.902 141.109-57.763 76.017 133.642 215.255 91.989 27.021 181.787-208.033 233.128-260.072 144.276-163.858 235.573-4.46 365.272-251.206 22.853-43.802 46.026-91.429 54.214-141.483-2.37-25.175-32.434-55.773-11.289-64.351 42.355-9.898 79.031 4.605 95.625 17.196 64.111 46.004 144.492 178.763 194.685 239.118 37.519 37.973 36.543 66.889 71.167 78.849 52.168 15.53 95.661-22.433 147.397-12.096 193.936 38.275 304.718-7.621 199.331 125.814-11.626 13.974-18.114 34.294-17.378 51.365 14.239 125.419-151.665 107.298-225.28 149.388-202.523 146.018-115.9 195.994-140.095 261.908-14.535 26.692-43.732 54.868-68.431 83.851-27.012 29.538-61.078 81.088-56.8 104.248 9.638 16.472 76.848 79.72 90.689 100.316 11.059 19.588 41.913 85.895 30.17 101.649-15.539 26.771-23.653 34.27-15.487 45.876 18.555 30.074 115.966 124.097 150.216 145.284 9.146 6.665 37.758 11.746 70.63 14.077 77.27 6.299 66.907-21.986 117.12-44.431 17.99-.08 29.102 31.483 27.225 55.267-3.533 70.65-41.302 176.865 58.266 149.15 79.632-33.904 140.326 9.727 186.584 76.144 79.234 103.416-19.28 91.96-9.513 189.776 1.182 113.297 26.07 158.1-19.104 258.836-30.037 70.736-53.214 80.013-75.075 98.736-10.623 9.173-20.213 23.473-16.566 27.108 6.797 16.377 52.017 52.927 77.117 83.385 57.704 64.423-54.279 109.643-84.451 209.997-18.263 41.877-48.692 104.032-81.985 112.543-54.045 3.922-109.865-38.541-128.498-83.917-29.883-73.239-32.127-65.537-92.723-106.851-66.735-43.389-148.904-94.557-171.546-105.66-210.97-89.087-194.228-43.608-319.214-200.841-199.374-167.886-74.655-173.027-117.804-289.153-16.225-28.701-46.657-45.834-74.177-63.072-87.329-48.005-74.38-115.876-109.063-181.708-128.577-258.36-108.336-179.583-144.195-248.712-117.592-306.432-107.687-234.834-235.62-446.585z" fill-rule="evenodd"/></g></g></g></svg>