<svg enable-background="new 0 0 283.465 283.465" height="512" viewBox="0 0 283.465 283.465" width="512" xmlns="http://www.w3.org/2000/svg"><g id="Layer_1_33_" clip-rule="evenodd" fill-rule="evenodd"><path d="m168.229 217.765s-7.158 1.987-8.204 11.546c-1.047 9.559-2.731 16.444-1.152 18.327 1.579 1.884 11.183 2.798 11.159-2.749-.025-5.547 3.737-17.755 4.754-19.412 1.018-1.656-6.557-7.712-6.557-7.712z"/><path d="m104.679 274.011s4.429 1.266 11.706-7.909 12.971-5.695 16.135-5.695 8.225-6.328 10.124-12.655c1.898-6.327-2.847-15.186-1.266-22.779 1.582-7.593 8.542-20.247 12.022-21.829s12.654-5.379 10.757-11.389c-1.898-6.011-9.174-10.756-15.501-18.349-6.328-7.593-5.695-8.861-3.164-19.618 2.531-10.756 11.39-27.84 16.768-30.687 5.378-2.848 15.185-12.022 15.502-14.553.316-2.531 5.062-9.807 2.531-12.022s1.265-10.124 1.265-10.124 16.137-12.815 17.719-15.821c1.582-3.005-5.378-4.904-6.169-12.813-.792-7.909-1.898-17.558-2.056-20.247-.158-2.69-.316-5.221-2.215-9.808-1.898-4.587-11.39-11.073-12.181-11.389-.79-.316-11.705-11.947-12.891-8.862s-.713 5.615-1.662 8.7-1.661 7.04-1.661 7.04-2.214-1.504-5.536-3.561c-3.322-2.056-5.854-2.847-6.249-.87-.395 1.978-.712 7.198-.791 8.463s-1.582 3.005-1.582 3.005-5.378-1.582-6.09-.079-1.184 6.01-2.766 7.908-7.672 1.581-5.853 4.983 4.429 3.479.87 9.965-3.718 5.298-5.378 9.57c-1.661 4.271-3.876 2.373-6.169 5.22-2.293 2.848 2.137 13.761-1.58 19.219s-7.197 5.537-6.881 8.7c.316 3.164 5.379 3.955 5.062 6.09-.317 2.136-.555 3.48-.475 4.746.08 1.265-3.321-1.347-10.123 1.263s-5.774 4.586-6.406 9.253c-.633 4.667-1.979 34.719-2.137 36.301s7.118 2.848 6.486 6.96c-.632 4.113-4.113 2.373-5.694 6.96-1.582 4.587-1.582 8.066-1.582 8.066s-1.266 7.434-2.215 9.807-5.064 4.586-5.064 9.964-.949 8.7-.949 8.7-5.537.791-5.379 3.322c.159 2.531 3.323 13.605 3.955 19.299s9.964 11.389 10.597 18.348-3.797 8.859-2.847 13.92c.949 5.062 1.898 11.072 3.797 15.818 1.896 4.748 5.216-.531 5.216-.531z"/></g></svg>