<svg width="65" height="64" xmlns="http://www.w3.org/2000/svg" xmlns:xlink="http://www.w3.org/1999/xlink" xml:space="preserve" overflow="hidden"><g transform="translate(-3563 -2357)"><path d="M3564 2389C3564 2371.88 3578.1 2358 3595.5 2358 3612.9 2358 3627 2371.88 3627 2389 3627 2406.12 3612.9 2420 3595.5 2420 3578.1 2420 3564 2406.12 3564 2389Z" fill="#FFFFFF" fill-rule="evenodd"/><path d="M3600.78 2365.11C3601.62 2365.11 3602.04 2365.53 3602.04 2366.36 3601.65 2369.13 3601.46 2371.79 3601.46 2374.35L3601.46 2400.63C3601.46 2402.07 3601.64 2403.25 3602 2404.15 3602.37 2405.05 3602.97 2405.71 3603.82 2406.12 3604.66 2406.54 3605.43 2406.8 3606.12 2406.92 3606.81 2407.04 3607.81 2407.12 3609.11 2407.17 3609.5 2407.36 3609.69 2407.76 3609.69 2408.38 3609.69 2409 3609.5 2409.42 3609.11 2409.66 3601.01 2409.56 3596.89 2409.52 3596.75 2409.52L3584.2 2409.66C3583.81 2409.47 3583.62 2409.06 3583.62 2408.43 3583.62 2407.8 3583.81 2407.38 3584.2 2407.17 3585.48 2407.12 3586.47 2407.04 3587.18 2406.92 3587.88 2406.8 3588.65 2406.54 3589.5 2406.12 3590.34 2405.71 3590.95 2405.06 3591.31 2404.17 3591.67 2403.28 3591.85 2402.1 3591.85 2400.63L3591.85 2377.84C3591.85 2376.13 3591.76 2375.05 3591.57 2374.6 3591.37 2374.15 3591 2373.93 3590.45 2373.93 3588.23 2373.93 3585.67 2374.53 3582.75 2375.74 3581.72 2375.01 3581.18 2373.96 3581.13 2372.61 3582.55 2372.02 3585.14 2371 3588.89 2369.54 3592.64 2368.08 3595.38 2366.96 3597.11 2366.18 3598.62 2365.44 3599.84 2365.09 3600.78 2365.11ZM3595.5 2360.23C3579.36 2360.23 3566.28 2373.11 3566.28 2389 3566.28 2404.89 3579.36 2417.77 3595.5 2417.77 3611.64 2417.77 3624.72 2404.89 3624.72 2389 3624.72 2373.11 3611.64 2360.23 3595.5 2360.23ZM3595.5 2357C3613.45 2357 3628 2371.33 3628 2389 3628 2406.67 3613.45 2421 3595.5 2421 3577.55 2421 3563 2406.67 3563 2389 3563 2371.33 3577.55 2357 3595.5 2357Z" fill-rule="evenodd"/></g></svg>