<svg id="Capa_1" enable-background="new 0 0 512 512" height="512" viewBox="0 0 512 512" width="512" xmlns="http://www.w3.org/2000/svg"><g><path d="m0 0v512h512v-512zm482 482h-452v-452h452z"/><g><path d="m185.264 451.425 13.195-20.246 13.195 20.246h89.059l13.012-19.966 13.012 19.966h89.059l13.723-21.057-43.252-97.998v-35.319h-30v35.319l-42.542 96.388-42.542-96.388v-35.319h-30v35.319l-42.724 96.801-42.724-96.801v-35.319h-30v35.319l-43.252 97.998 13.723 21.057zm186.002-78.743 21.513 48.743h-43.026zm-115.084 0 21.513 48.743h-43.026zm-115.447 0 21.513 48.743h-43.026z"/><path d="m401.191 263.642 21.057-13.723v-175.622l-21.057-13.723-97.998 43.252h-213.441v30h213.441l64.078 28.281-64.078 28.281h-213.441v30h213.441zm-57.686-144.815 48.743-21.513v43.026zm48.743 65.049v43.026l-48.743-21.513z"/></g></g></svg>