<?xml version="1.0" encoding="iso-8859-1"?>
<!-- Generator: Adobe Illustrator 19.0.0, SVG Export Plug-In . SVG Version: 6.00 Build 0)  -->
<svg version="1.1" id="Layer_1" xmlns="http://www.w3.org/2000/svg" xmlns:xlink="http://www.w3.org/1999/xlink" x="0px" y="0px"
	 viewBox="0 0 512 512" style="enable-background:new 0 0 512 512;" xml:space="preserve">
<g>
	<g>
		<path d="M512,133.658c0-8.284-6.716-15-15-15v-13.254c8.284,0,15-6.716,15-15s-6.716-15-15-15H318.002V62.761
			c0-8.284-6.716-15-15-15h-59.495c-8.284,0-15,6.716-15,15v5.258v20H68.361v69.825h160.146v20H87.468v40.083
			c0,8.284,6.716,15,15,15h18.633l-99.538,184.82c-0.153,0.285-0.279,0.577-0.412,0.867H15c-8.284,0-15,6.716-15,15s6.716,15,15,15
			h40.063c8.284,0,15-6.716,15-15c0-8.249-6.661-14.939-14.897-14.995l80.009-148.559v175.337h-5.031c-8.284,0-15,6.716-15,15
			s6.716,15,15,15h40.063c8.284,0,15-6.716,15-15s-6.716-15-15-15h-5.031V270.061l80.009,148.559
			c-8.236,0.057-14.896,6.746-14.896,14.995c0,8.284,6.716,15,15,15h40.062c8.284,0,15-6.716,15-15s-6.716-15-15-15h-6.15
			c-0.133-0.29-0.259-0.582-0.412-0.867l-99.538-184.821h18.634c8.284,0,15-6.716,15-15v-26.014h15.624v6.44c0,8.284,6.716,15,15,15
			h59.495c8.284,0,15-6.716,15-15v-6.44H497c8.284,0,15-6.716,15-15s-6.716-15-15-15v-13.255
			C505.284,148.658,512,141.942,512,133.658z M349.09,161.912h-31.088v-13.254h31.088V161.912z M349.09,118.658h-31.088v-13.254
			h31.088V118.658z M464.834,161.912H379.09v-13.254h85.744V161.912z M464.834,118.658H379.09v-13.254h85.744V118.658z"/>
	</g>
</g>
<g>
	<g>
		<path d="M189.466,50.737c-8.284,0-15,6.716-15,15v2.281h30v-2.281C204.466,57.453,197.75,50.737,189.466,50.737z"/>
	</g>
</g>
<g>
	<g>
		<path d="M90.997,36.603c-8.284,0-15,6.716-15,15v16.416h30V51.603C105.997,43.319,99.281,36.603,90.997,36.603z"/>
	</g>
</g>
<g>
	<g>
		<path d="M15.263,91.158c-8.284,0-15,6.716-15,15v33.546c0,8.284,6.716,15,15,15h33.099V91.158H15.263z"/>
	</g>
</g>
<g>
</g>
<g>
</g>
<g>
</g>
<g>
</g>
<g>
</g>
<g>
</g>
<g>
</g>
<g>
</g>
<g>
</g>
<g>
</g>
<g>
</g>
<g>
</g>
<g>
</g>
<g>
</g>
<g>
</g>
</svg>
