<svg width="721" height="670" xmlns="http://www.w3.org/2000/svg" xmlns:xlink="http://www.w3.org/1999/xlink" xml:space="preserve" overflow="hidden"><defs><clipPath id="clip0"><rect x="225" y="1384" width="721" height="670"/></clipPath></defs><g clip-path="url(#clip0)" transform="translate(-225 -1384)"><path d="M811.224 1443.98C795.581 1548.99 744.888 1632.25 660.691 1694.74 660.436 1694.93 660.122 1695.03 659.802 1695.03 614.712 1694.85 575.711 1702.91 542.037 1718.18 530.934 1723.22 523.602 1732.45 521.212 1744.41 514.928 1775.83 509.642 1799.38 511.967 1831.67 515.975 1887.3 548.293 1918.19 552.378 1976.2 554.128 2001.02 551.096 2026.31 543.089 2052.08 542.943 2052.53 543.026 2053.02 543.311 2053.4 543.598 2053.79 544.016 2054 544.502 2054L762.12 2054C762.588 2054 762.988 2053.81 763.279 2053.44 763.569 2053.07 763.667 2052.64 763.561 2052.18L708.399 1815.74C708.246 1815.11 708.526 1814.46 709.086 1814.13L883.333 1711.16C883.525 1711.05 883.688 1710.89 883.809 1710.71 928.97 1643.33 938.025 1560.88 931.494 1471.91 931.481 1471.75 931.494 1471.59 931.532 1471.44L945.522 1414.43C947.244 1407.41 944.226 1400.37 937.958 1396.78L916.007 1384.2C915.699 1384.02 915.333 1383.96 914.982 1384.03L836.408 1399.75C835.997 1399.83 835.64 1400.08 835.43 1400.44L826.461 1415.39C826.258 1415.74 825.914 1415.99 825.516 1416.07L315.134 1530.35C315.103 1530.36 315.071 1530.37 315.039 1530.37 314.576 1530.44 314.119 1530.54 313.669 1530.67L313.577 1530.7 242.594 1546.47C238.661 1547.34 235.513 1550.28 234.375 1554.15 234.371 1554.16 234.366 1554.18 234.362 1554.19 226.97 1576.55 223.94 1598.99 225.327 1621.5 226.721 1644.12 232.561 1666.79 242.899 1689.49 244.696 1693.43 248.625 1695.96 252.952 1695.96L252.952 1695.99 300.808 1695.99C306.733 1696 311.614 1691.34 311.891 1685.42L326.777 1551.42C326.841 1550.79 327.304 1550.27 327.923 1550.14L809.435 1442.32C809.926 1442.21 810.397 1442.33 810.765 1442.68 811.136 1443.02 811.298 1443.48 811.224 1443.98M629.804 1607.28C629.804 1644.5 599.638 1674.67 562.424 1674.67 525.211 1674.67 495.043 1644.5 495.043 1607.28 495.043 1570.06 525.209 1539.89 562.424 1539.89 599.636 1539.89 629.804 1570.06 629.804 1607.28M827.795 1575.36 843.705 1519.66C843.731 1519.58 843.765 1519.49 843.805 1519.41L866.839 1473.33C867.039 1472.92 867.42 1472.63 867.869 1472.54 868.315 1472.45 868.779 1472.57 869.123 1472.87 881.629 1483.58 887.182 1498.68 883.625 1519.51L883.616 1519.55 859.824 1638.54C859.746 1638.96 859.489 1639.32 859.119 1639.52L783.403 1683.76C782.811 1684.11 782.054 1684.01 781.583 1683.5 781.104 1683.01 781.037 1682.24 781.422 1681.67 802.21 1650.15 818.552 1610.11 827.786 1575.39 827.789 1575.38 827.792 1575.37 827.795 1575.36Z" fill-rule="evenodd"/></g></svg>