<svg xmlns="http://www.w3.org/2000/svg" width="400" height="200" viewBox="-919.565 -817 3922.001 1961"><path fill="currentColor" d="M1532 1005q0 48-48 67c-12 4.667-41.34 10.667-88 18l-313 48q-40.005 6-72 6-92 0-146-71-42-77-85-154-74.001-136-83-157-27-65-40-171L551-293q-2-37.995 27-51c8.001-3.35 29.334-7.02 64-11l296-33c35.333-4 61.667-24.33 79-61h23l32-58-12-114 8-24-12-141c-10.67-1.35-16.34-7.01-17-17-1.33-9.37 7-14.04 25-14 16.01 0 24.68 6 26 18-4 4.7-10 9.04-18 13l12 141 11 24 12 114 36 58h18l42 84 103 978 171 266a9419 9419 0 0 1 39 57c10.67 18.667 16 41.667 16 69m-25 0c0-24.667-4.67-45-14-61l-36-50-175-273-103-979-33-63h-113c-19.33 34.67-50.333 54-93 58q-110 10.005-329 36c-24.667 3.33-36.333 14.67-35 34l1 15 105 866q12 104 39 166 7 17 81 153 39 71 77 143 50 69 132 69c20.67 0 98.33-10 233-30s210-32.666 226-38c24.67-9.333 37-24.667 37-46M1101-225v14c-21.33-42.67-44.67-64-70-64q-56 0-173 18c-117 18-131.667 18-161 18l-11-2 13-18c195.333-26.67 312.33-40 351-40 25.33 0 41.33 6.67 48 20q4.995 12 3 54m-98 29q0 8.003-19 46-21 43-31 43-13-.01-13-13 .006-8 19-46 21.009-42 31-42 13.016 0 13 12m-50 0q0 8.003-19 46-21 43-31 43-13-.01-13-13 .005-8 19-46 21.008-42 31-42 13.016 0 13 12m-50 0q0 8.003-19 46-21 43-31 43-13-.01-13-13 .005-8 19-46 21.007-42 31-42 13.01 0 13 12m218 141c-.02 5.338-3.35 13.005-10 23A12199 12199 0 0 0 946-5Q844 11 780 11q-30 0-42-26-7-25.002-13-50 47 45 63 45 18 0 154.5-15C1079-50 1081-51 1085-53c12.01-5.333 19.68-24.667 23-58 8.67 32.003 13 50.669 13 56M678-313c-34 6-51 21.34-51 46 0 18.67 2.667 66.33 8 143l-11 3c-12.667-94.67-19-148-19-160q.005-30 25-30zm552 841c1.33 28.667-19.34 44.667-62 48l-163 28q-104 22-162 22-57.001 0-74-60-4-18-23-167-16-99-37-298l-1-8q-1.998-47 41-52 379.995-47 384-47 39 0 45 54zm1 99-126 24 2 24-20 2-4-44 142-27zm71 151c0 10-11.67 17-35 21-175.33 34.667-295.667 52-361 52q-13 0-44-34c-31-34-31-38-31-46v-1l38 17q40.002 16 68 16 23 0 143-15c120-15 129-17 147-21 23.34-6 35-11 35-15q0-9-4.5-31.5C1253 698 1253 694 1253 686c32.67 49.333 49 80 49 92m-312-90-22 7-2-27-162 27v-22l182-27zm500 309c0 7.333-3.67 11.666-11 13-326.67 44.667-490.667 67-492 67q-11.015 0-11-12 .01-11 10-13 490.005-67 492-67 12 0 12 12M1131 53c-.01-12.67-10.34-19.003-31-19-35.33.003-53 9.67-53 29 .01 13.336 7.67 20.003 23 20 40.67 0 61-10 61-30m11 87c-.01-13.333-10.35-20-31-20-35.33 0-53 10-53 30 .01 12.667 7.67 19 23 19 40.67 0 61-9.667 61-29m16 92c-.01-13.333-10.35-20-31-20-35.33 0-53 10-53 30 .01 12.667 7.67 19 23 19 40.67 0 61-9.667 61-29M988 83q0-22.005-27-22-54 .005-54 29 0 20.004 29 20 52.003 0 52-27m184 243c-.01-12.667-10.35-19-31-19-35.33 0-53 9.667-53 29 .01 13.333 7.68 20 23 20 40.67 0 61-10 61-30M999 169q0-22.003-27-22-54 .003-54 29 0 20.004 29 20 52.004 0 52-27m191 255c0-12.667-10.67-19-32-19-29.33.001-44 8.334-44 25 0 12.667 10.67 19.001 32 19 29.34 0 44.01-8.333 44-25m-175-163c-.01-14.67-8.67-22.003-26-22q-55 .003-55 29 0 20.003 29 20 52.002 0 52-27M853 103q-.002-27-41-27-54 0-54 34 0 27 41 27 54-.002 54-34m350 393c-.01-12-10.35-18-31-18-29.33.001-44 8.334-44 25 0 12 10.33 18 31 18 29.34 0 44-8.333 44-25m-174-140q0-22-27-22-55 0-55 29 0 19.001 29 19c35.33-.001 53-8.667 53-26M864 189q0-27-42-27-53.003.002-53 35 0 27 41 27 54 0 54-35m225 250c0-12.667-11.67-19-35-19-29.33.001-44 8.334-44 25 0 12.667 10.67 19.001 32 19 31.34 0 47.01-8.333 47-25M880 281q-.002-27-41-27-54 .002-54 35 0 27 41 27 54 0 54-35m220 230c0-12-11.34-18-34-18-29.33.001-44 8.334-44 25 0 12 10.33 18 31 18 31.34 0 47.01-8.333 47-25m-113-52q0-19-31-19-44.003.001-44 25 .006 19.001 31 19 44 0 44-25m-93-83q0-27-42-27-54 0-54 34 0 27 42 27 54 0 54-34m104 155q-.003-19-32-19-44.004 0-44 26 0 18 32 18 44 0 44-25m-120-57q0-19-31-19-44.003.001-44 25 .004 19.001 31 19 44 0 44-25m18 72q-.002-19-32-19-44.003 0-44 26 0 18 32 18 44 0 44-25"/></svg>