<svg xmlns="http://www.w3.org/2000/svg" width="400" height="200" viewBox="-216.5 -431 2462 1231"><path fill="currentColor" d="M1765-6c-30.67-18.67-58.34-28.005-83-28-12.01.01-25.34 3.676-40 11q87 39 87 93 0 26.004-9 55-55.995-64.001-108-64c-38 0-80.67 13-128 39 8.67 39.334 18 70.667 28 94 4.01 9.334 18.67 32.001 44 68 18.67 25.334 28 50.667 28 76q0 29-21 78.5c-21 49.5-21 58.167-21 75.5h123l-20 156q-13.995 93-39 152h-136v-8c.01-34.667 19.67-56.833 59-66.5 39.34-9.667 59.01-26.833 59-51.5q0-20-10.5-47c-10.5-27-24.5-29.333-52.5-34q-54-9-69-20-19.005-14-81-120c-33.33-57.334-67.67-86-103-86q-42 0-42 64c0 54 10.33 102.333 31 145q-57 49-114 99-69 67-75 125H936q8-30 19-41a5075 5075 0 0 1 92-33c52.67-26.667 79-70.667 79-132q0-23-18-77-22.005-66-39-87c-18.67-22.667-47.33-34-86-34q-120 0-156 50-28 38-28 157-.005 6-23 89-24 91-27 108H624q10.002-43 38-56 32-14 42-37 20-44 20-168 0-122-42-122-41.001 0-113 214-80 59-137 169H301q1-28 12-44 9-13 35-17 32-4 40-8 38-20 100-130 77-137 77-310 0-184-22-233-11-25.004-21-53-126 39-182 39-76 0-76-69 0-22.005 30-59 22-26 44-53 11.002-15 14-48.5 3-33.495 14.5-46.5c11.5-13.005 18.5-24 32.5-46-18-30.67-27-59-27-85s11.667-48.67 35-68c11.334 40 34.667 80.67 70 122q26-3 44-3c5.333 0 34.333 2.67 87 8 48.667-42 88.334-74.33 119-97 4.678 14 7.01 26.67 7 38-.001 42-23.667 81.34-71 118-3.343 15.33-5.01 33-5 53q0 48 30 75a14006 14006 0 0 1 67 47Q888.001 32 1002 32c27.34 0 67-8.667 119-26s91.67-26 119-26c24.67 0 63.5 4.333 116.5 13S1451 6 1481 6q93 0 93-54c-.01-11.333-13.34-39-40-83-30.67-50.667-85.34-95.33-164-134 44.67-10.67 82-16 112-16 44.67 0 99 11 163 33-38.67 4.01-74 13.35-106 28 68.67 5.34 138.33 22.002 209 50-11.33-2-23-3-35-3-40.67 0-66 16-76 48 62.67 10.001 105.33 49.668 128 119M527 77q0 33-24 33-23 0-23-33 .002-33 23-33 24 0 24 33m162-181-31-31Q600-59 527-15l28 50q55-62 134-139m-165-60q-14.002-23-28-23-16 0-30 31 15 19 30 19c15 0 19.334-9 28-27M343-25v-6l-53-11q0 51 27 51 26.001-.003 26-34m162-142q-.003 8.015-10 14-10.003-6-10-14 0-8 10-14 10 6.016 10 14"/></svg>