<svg width="65" height="65" xmlns="http://www.w3.org/2000/svg" xmlns:xlink="http://www.w3.org/1999/xlink" xml:space="preserve" overflow="hidden">
		<rect x="4" y="4" width="57" height="57" rx="12" fill="#fff"/>
	<g transform="translate(-3286 -1816)">
		<path d="M32.5 46.7937C23.9083 46.7937 16.9434 40.44 16.9434 32.6021 16.9434 28.6832 18.6847 25.1353 21.4999 22.5672L23.2865 21.4683 22.373 20.8602C19.3478 18.2576 16.4036 14.5199 13.6312 9.64498L11.2871 4.65186 15.8368 4.65186 16.6515 6.356C18.072 9.03794 19.5967 11.3791 21.0864 13.2061 23.5617 16.3486 26.8158 20.1725 29.2206 22.0401L30.2632 22.7437 28.1837 23.3302C24.203 24.8601 21.4099 28.4415 21.4099 32.6158 21.4099 38.1814 26.3755 42.6933 32.5007 42.6933 38.6259 42.6933 43.5914 38.1814 43.5914 32.6158 43.5914 27.7458 39.7897 23.6827 34.7359 22.743L34.7341 22.7428 34.8069 22.7131C37.2399 21.2789 41.0861 16.7976 43.915 13.2061 45.4047 11.3791 46.9294 9.03794 48.3499 6.356L49.1646 4.65186 54.0624 4.65186 52.1329 8.81193C49.742 13.4897 47.1553 17.1759 44.4477 19.8686L42.0098 21.6506 43.5001 22.5672C46.3153 25.1353 48.0565 28.6832 48.0565 32.6021 48.0565 40.44 41.0916 46.7937 32.5 46.7937ZM10.2409 65 54.7591 65C59.001 65 62.6405 62.39 64.1952 58.6704L64.6584 57.1601 64.7919 56.725C64.9283 56.0504 65 55.3519 65 54.6364L65 45.9544 65 45.9544 65 20.5211 65 10.3635C65 4.63989 60.415 0 54.7591 0L10.2409 0C9.53397 0 8.84371 0.0724893 8.17704 0.210562L6.85046 0.627283 6.25472 0.814434 5.12775 1.43344 4.51516 1.76994 4.51512 1.76994C3.97033 2.14241 3.46282 2.56656 2.99951 3.03541L2.33703 3.84797 1.74901 4.56917 1.74901 4.5692 1.74899 4.5692 1.24909 5.50122 0.804798 6.32959 0.305741 7.95645 0.208061 8.27493C0.0716613 8.94956 0 9.64808 0 10.3635L0 20.5211 0 45.9544 0 45.9544 0 54.6364C0 60.3601 4.58504 65 10.2409 65Z" fill-rule="evenodd" transform="matrix(1 0 0 -1 3286 1881)"/>
	</g>
</svg>