<svg width="130" height="130" xmlns="http://www.w3.org/2000/svg" xmlns:xlink="http://www.w3.org/1999/xlink" xml:space="preserve" overflow="hidden">
	<g transform="translate(-1363 -1707)">
		<circle cx="1428" cy="1772" r="36" fill="#fff"/>
		<path d="M1428 1756.78C1436.81 1756.78 1443.95 1763.6 1443.95 1772 1443.95 1780.4 1436.81 1787.22 1428 1787.22 1419.19 1787.22 1412.05 1780.4 1412.05 1772 1412.05 1763.6 1419.19 1756.78 1428 1756.78ZM1428 1742.7C1411.04 1742.7 1397.29 1755.82 1397.29 1772 1397.29 1788.18 1411.04 1801.3 1428 1801.3 1444.96 1801.3 1458.71 1788.18 1458.71 1772 1458.71 1755.82 1444.96 1742.7 1428 1742.7ZM1428 1707C1432.7 1707 1437.3 1707.45 1441.73 1708.32L1443.72 1708.91 1444.06 1725.5 1450.27 1727.83C1452.51 1728.86 1454.67 1730.05 1456.72 1731.37L1462.04 1735.56 1477.41 1727.47 1484.5 1735.66C1486.95 1739.12 1489.06 1742.81 1490.78 1746.7L1493 1753.52 1478.28 1761.99 1478.32 1762.12C1479 1765.31 1479.36 1768.62 1479.36 1772 1479.36 1774.54 1479.16 1777.03 1478.77 1779.46L1478.17 1781.95 1493 1790.48 1490.78 1797.3C1489.06 1801.19 1486.95 1804.88 1484.5 1808.34L1477.41 1816.53 1462 1808.42 1460.67 1809.81C1456.87 1812.81 1452.6 1815.29 1447.99 1817.15L1444.06 1818.31 1443.72 1835.09 1441.73 1835.68C1437.3 1836.55 1432.7 1837 1428 1837 1423.3 1837 1418.7 1836.55 1414.27 1835.68L1412.28 1835.09 1411.94 1818.5 1405.73 1816.17C1403.49 1815.14 1401.33 1813.95 1399.28 1812.63L1393.96 1808.44 1378.59 1816.53 1371.5 1808.34C1369.05 1804.88 1366.94 1801.19 1365.22 1797.3L1363 1790.48 1377.72 1782.01 1377.68 1781.88C1377 1778.69 1376.64 1775.38 1376.64 1772 1376.64 1769.46 1376.84 1766.97 1377.23 1764.54L1377.83 1762.05 1363 1753.52 1365.22 1746.7C1366.94 1742.81 1369.05 1739.12 1371.5 1735.66L1378.59 1727.47 1393.87 1735.51 1395.33 1734.19C1399.13 1731.19 1403.4 1728.71 1408.01 1726.85L1411.94 1725.68 1412.28 1708.91 1414.27 1708.32C1418.7 1707.45 1423.3 1707 1428 1707Z" fill-rule="evenodd"/>
	</g>
</svg>