<svg xmlns="http://www.w3.org/2000/svg" width="400" height="200" overflow="hidden" viewBox="-20.003 0.997 62.006 31.003"><defs><clipPath id="a"><path d="M860 359h22v33h-22z"/></clipPath></defs><g clip-path="url(#a)" transform="translate(-860 -359)"><path fill-rule="evenodd" d="M862.653 378.018c.18 0 .195.006.212.07.02.089-.038.407-.103.534a1.7 1.7 0 0 0-.083.291 1.2 1.2 0 0 1-.086.295 1 1 0 0 0-.075.272 1.1 1.1 0 0 1-.089.309c-.129.28-.08.5.14.62.087.047.525.05 7.196.058 5.173.006 7.147-.003 7.258-.026a.46.46 0 0 0 .24-.118c.081-.081.084-.092.072-.292a1 1 0 0 0-.071-.323 1.3 1.3 0 0 1-.092-.304 1 1 0 0 0-.074-.248 1 1 0 0 1-.075-.245 1.3 1.3 0 0 0-.086-.292c-.063-.127-.129-.482-.103-.552.015-.037.055-.049.186-.049.23 0 .384.078.493.254l.086.136v.939c0 .54.011.956.029.982.02.031.111.046.372.06l.347.018.123.12c.1.102.134.166.197.374l.078.254-.006 4.62-.009 4.619-.077.144a.67.67 0 0 1-.39.358c-.206.084-.893.09-1.094.009-.209-.081-.246-.113-.37-.298l-.117-.176v-2.726c0-2.007-.008-2.744-.034-2.799-.02-.046-.069-.084-.14-.1-.083-.024-.126-.062-.198-.174l-.089-.142.003-1.013c0-.665-.009-1.031-.029-1.069-.031-.058-.071-.058-6.324-.058-4.858 0-6.305.009-6.33.035s-.035.306-.035 1.077c0 .921-.005 1.049-.048 1.112-.092.139-.19.228-.27.246-.045.011-.097.043-.111.075-.02.034-.029.97-.029 2.703 0 1.542-.011 2.72-.029 2.819-.034.216-.174.392-.395.502-.157.075-.183.078-.607.081-.427 0-.45-.003-.587-.078a.8.8 0 0 1-.378-.399c-.05-.124-.052-.349-.052-4.866v-4.736l.066-.162a.6.6 0 0 1 .186-.26c.117-.095.126-.098.435-.107.247-.008.324-.02.353-.058.026-.034.034-.28.034-.993 0-1.017.003-1.034.15-1.167a.7.7 0 0 1 .15-.107.7.7 0 0 1 .279-.049m2.838-3.118c-.103.139-.306.673-.352.921a8 8 0 0 1-.097.43 22 22 0 0 0-.218.896 5 5 0 0 1-.1.381 5 5 0 0 0-.086.367 4 4 0 0 1-.1.396 1 1 0 0 0-.058.245c0 .046-.031.182-.071.306-.095.295-.123.56-.066.61.034.026 1.24.034 5.428.034 2.962 0 5.408-.008 5.436-.017.078-.032.095-.124.055-.298l-.172-.791a15 15 0 0 0-.112-.482 27 27 0 0 1-.243-1.098 3 3 0 0 0-.083-.352 3 3 0 0 1-.075-.347 5 5 0 0 0-.103-.453 1.4 1.4 0 0 1-.054-.26.3.3 0 0 0-.035-.127c-.034-.043-.335-.05-4.076-.055-3.672-.009-4.05-.012-4.153-.055-.063-.029-.183-.075-.27-.11a.8.8 0 0 1-.217-.118c-.069-.066-.137-.075-.178-.023m.075-.6a.3.3 0 0 1 .072.118c.02.075.263.254.423.312.072.025 1.132.034 4.245.043 3.776.006 4.16.011 4.205.055.07.063.152.297.195.554.046.275.129.57.186.656.043.066.055.07.55.075l.507.009.04.115c.023.064.063.168.092.231.029.064.066.205.083.312.014.11.049.228.072.266.023.037.057.156.077.262.017.11.057.263.089.344.031.078.069.22.083.315.017.092.052.217.08.274a1 1 0 0 1 .075.249c.011.078.045.199.074.268.032.067.072.197.086.29.017.089.054.213.083.274a1 1 0 0 1 .075.245c.008.075.048.205.088.289.083.185.072.312-.04.355-.043.014-2.801.026-7.152.026-7.072 0-7.084 0-7.158-.058-.106-.083-.12-.159-.052-.268a1 1 0 0 0 .092-.295 1 1 0 0 1 .072-.26c.02-.032.057-.153.083-.268.023-.116.063-.249.086-.295s.063-.185.085-.306a1 1 0 0 1 .072-.254c.014-.02.046-.13.072-.246.023-.112.066-.26.097-.32.029-.064.063-.182.075-.266s.048-.22.085-.298a1.1 1.1 0 0 0 .084-.297.8.8 0 0 1 .074-.245c.04-.07.115-.359.115-.442 0-.038.283-.07.604-.07.441 0 .461-.008.496-.216.034-.188.16-.592.249-.797.046-.104.083-.202.083-.22s.031-.075.066-.13a.7.7 0 0 0 .086-.173.5.5 0 0 1 .106-.168c.083-.09.088-.092.14-.046m4.265-3.411h4.764l.14.072a.7.7 0 0 1 .215.18l.071.109v1.603l-.123.13-.126.13h-9.842l-.14-.142-.14-.141.008-.823.009-.823.071-.078a1 1 0 0 1 .2-.148l.13-.066Zm6.764-.72c.37-.002.942.01.957.028.011.008.023 1.6.028 3.535l.006 3.514-.089.122c-.123.17-.286.236-.575.236-.333 0-.387-.051-.45-.41a1 1 0 0 0-.072-.23 1 1 0 0 1-.077-.266 1 1 0 0 0-.089-.295c-.052-.09-.054-.194-.052-3.113 0-1.66.01-3.038.018-3.062.008-.026.06-.046.12-.052a5 5 0 0 1 .275-.007m.715-1.062 1.69.003c1.49.006 1.573.009 1.696.064.175.078.304.26.304.421 0 .096-.023.153-.095.249-.174.23.273.21-4.875.21-2.901-.002-4.66-.014-4.74-.031q-.126-.028-.158-.09a.4.4 0 0 0-.103-.118c-.057-.05-.069-.084-.069-.214 0-.138.012-.167.1-.257.055-.058.147-.127.201-.159.098-.052.215-.055 3.137-.069.939-.005 2.005-.008 2.912-.009m-7.422-.58 1.47.006.112.075c.131.086.171.196.111.303-.031.055-.066.075-.126.078-.283.006-.33.032-.561.34-.112.154-.118.376-.012.503a.4.4 0 0 1 .072.113.5.5 0 0 0 .117.138c.11.11.123.116.293.116.097 0 .194.012.214.023.018.014.035.075.035.136 0 .095-.018.124-.12.208l-.12.095-1.456.009c-.951.005-1.495-.003-1.567-.023a.43.43 0 0 1-.2-.13l-.09-.104v-.795c0-.935.01-.973.267-1.062.066-.023.533-.032 1.561-.03m-.248-3.894h.76l.085.092c.049.052.135.13.192.176.149.113.263.321.255.468-.009.202-.123.37-.338.491-.315.18-.312.298.026.601.14.124.223.225.269.33.077.17.074.207-.04.43-.066.127-.103.161-.247.23-.134.064-.18.105-.212.18a.3.3 0 0 0-.025.161c.02.073.154.22.343.373.098.08.132.13.126.173-.008.064-.011.064-.882.072-.862.006-.873.006-.922-.054a.26.26 0 0 1-.052-.142c0-.063-.037-.113-.186-.234-.375-.306-.452-.603-.232-.878a.44.44 0 0 1 .26-.173c.13-.038.158-.06.184-.136.037-.11.04-.214.006-.277a1.5 1.5 0 0 0-.215-.208c-.195-.162-.332-.378-.332-.526 0-.196.232-.485.39-.485a.24.24 0 0 0 .125-.052c.086-.07.095-.346.015-.396a1 1 0 0 1-.126-.092c-.063-.055-.07-.07-.032-.095.026-.017.344-.03.805-.03m.098-4.633a1 1 0 0 1 .21.03q.26.06.421.332c.08.136.083.15.092.615l.012.474.246.237.25.234v.23c0 .209-.01.24-.084.339a.45.45 0 0 1-.158.138c-.194.075-.214.095-.28.283-.06.174-.06.19-.017.223.037.029.653.037 2.812.043 1.521.003 2.799.003 2.839 0 .126-.009.146-.075.14-.47-.005-.347 0-.37.072-.498.095-.161.112-.176.278-.219.174-.05.67-.032.785.026a.7.7 0 0 1 .177.168l.095.127-.006 3.283c-.009 3.134-.011 3.287-.06 3.365-.04.06-.063.072-.086.049-.02-.02-.223-.032-.599-.032-.564 0-.567 0-.61-.07-.04-.057-.046-.328-.051-2.191-.006-1.903-.012-2.132-.052-2.172-.04-.043-.616-.046-6.313-.046-4.629-.003-6.273.006-6.299.032-.023.023-.034 1.605-.046 5.987l-.014 5.955-.066.107a1 1 0 0 0-.094.294 1 1 0 0 1-.08.283.8.8 0 0 0-.072.228c-.032.226-.057.243-.384.251-.35.015-.478-.037-.61-.245l-.083-.136v-14.928l.089-.139c.12-.187.263-.237.664-.222.341.012.421.043.556.22l.094.127v.392c0 .217.012.413.023.433.032.05 5.156.055 5.248.006.077-.04.034-.127-.086-.17-.069-.023-.103-.067-.158-.19-.086-.197-.088-.258-.014-.431a.64.64 0 0 1 .401-.323c.097-.02.143-.084.143-.205 0-.064-.048-.128-.246-.312-.367-.35-.418-.509-.255-.803.063-.113.1-.142.292-.226.158-.069.264-.141.378-.257.12-.12.192-.17.29-.193a1 1 0 0 1 .216-.033"/></g></svg>