<svg xmlns="http://www.w3.org/2000/svg" xml:space="preserve" width="400" height="200" overflow="hidden" viewBox="-656.5 0 4126 2063"><defs><clipPath id="a"><path d="M512 146h2813v2063H512z"/></clipPath></defs><g clip-path="url(#a)" transform="translate(-512 -146)"><path fill-rule="evenodd" d="m2309 146 3.21 1.78 8.17 21.684 3.56 4.62 9.95.363 12.81-5.695 22.03-13.512 22.4-3.908 24.52 5.688 47.64 19.556 89.59 30.931.71 8.18-3.2 4.983-4.98 3.908-4.27 5.688-.35 10.315 9.95 20.98 2.49 11.02-23.82 66.845 2.13 18.488 10.67 17.427 4.97 4.62 51.2 46.223 14.93 20.267 1.06 2.136-.35 2.841-3.56 4.626-1.06 3.197-1.78 11.027-1.78 4.62-8.52 13.156-1.43 4.265 1.43 3.913 4.61 6.75 2.13 2.499 2.14 1.771 2.13 1.781 1.43 3.205-.36 2.482-3.2 5.691.36 3.201 3.2 3.909 4.61 2.129 3.56 3.204.71 6.405 2.84 6.392 6.05 3.917 6.04 3.197 3.91 4.271v3.204l-3.2 6.392.36 3.909 2.13 2.497 7.47 4.975 2.84 3.197 2.84 6.757 3.2 3.909 1.07 2.142 5.69 4.969 11.73 7.829 3.91 4.614 3.91 4.271 6.75 2.485 2.49 3.559-2.13 6.756-3.55 7.469-1.42 5.686 4.97 8.885 9.25 3.205 47.28-1.424 3.55.719 1.06 2.482v6.757l-1.42 1.423.36 2.486 4.26 3.916 7.11 3.194 6.04.358 13.51-1.062 16.36 4.978 19.19 11.374 14.58 15.29 1.78 16.36 6.75 11.02 11.73 8.538 38.75 17.776 6.4 2.135 14.93 1.77 6.04 1.781 5.34 3.559 6.75 7.819-9.6 3.913-6.76-3.552-6.03-4.982-6.41-2.128-1.77 2.128-1.78 3.913-3.56 12.447-2.49.704-7.81-3.197-19.2-4.621-28.43-11.374-7.47-1.424-4.63 14.572.36 88.186v6.395l1.07 7.111 3.2 5.687 10.3 5.697 25.25 2.135 10.66 5.33 68.25 57.245 81.76 68.98 9.96 5.69 11.73 3.2 81.76 7.11 6.05-.71 6.04-4.27 4.26-6.04 3.92-7.11 6.04-8.89 2.13-4.98 1.78-1.78 2.85-.35 2.48 1.06 2.85.36 3.91-2.49 6.04-6.75 3.2-1.78 34.49 2.84 14.57 3.91 9.24 11.02 1.77 7.11 1.43 1.78 3.91 3.91 3.55 3.2 6.76 3.91 3.2 3.92 2.14 4.98 1.42 4.62 2.48 21.69 1.78 4.62 2.85 5.69 2.13 2.85 4.62 4.97 1.42 2.85v1.42l-1.42 3.91v1.78l.71 7.81-2.49 3.92-4.97 1.42-21.33 1.78-1.78-.36-3.91-1.77-1.07-.36-2.13 1.07-2.49 3.56-1.78 1.41-20.26 4.27-5.33 4.63-1.07 10.3 6.75 12.81 13.37 18.72 81.55 114.26 18.84 15.65-3.2 1.77-9.6 33.43-5.33 9.6-13.51 15.29-3.9 10.31v10.3l-1.08 3.21-4.97 4.97-19.19 10.67-25.96 21.34-48.35 49.42-9.59 4.98-12.81-1.07-14.92-6.04-9.25-4.27-4.27-.71-3.55 2.49-6.04-1.78-6.75 1.07-13.87 5.69-6.75.71-16-1.07-5.33 1.78-6.75 3.2-16.36 3.56-6.04 3.19-7.11 2.15-7.47-13.88-6.04.36.36-2.13 1.06-5.34.71-2.5-33.41-2.48-7.11-1.42-5.69-3.21-2.13 4.99-3.55 2.12-4.63 1.43-4.63 3.56-2.84 4.27-.34 3.2 3.18 7.46-5.68 3.57-7.82 3.55-7.46 4.62-2.85 7.11 2.14 6.05 3.19 4.97.71 4.63-6.04 5.33-2.48-2.85-2.5-1.06-2.49 1.06-2.49 2.85-2.13-3.91-4.26-4.63-3.91-2.13-1.78 4.62.71 2.84 3.56 3.21.7 3.55-.7 2.85-4.27 8.53-11.73-5.69-6.05-1.78h-6.39l-3.21.72-1.77 1.06-2.13.72h-2.85l.36-1.78-2.84-4.27-3.21-2.49-3.9 5.69-3.56 3.55-1.78 4.27 6.76 11.02 1.42 12.45 1.78 6.4-3.56-1.43-7.11-3.55h-3.91l-1.42 2.14-2.49 6.4-2.13 1.42-11.73 2.85-1.78.7.36 5.33 1.06-.35 2.49-2.13 3.2.7.36 1.78-.36 4.27v1.78l1.07.71 3.55 1.42h.71l.72 4.27v4.26l.35 3.92 2.48 3.91 3.92 4.27-.36 5.68-1.06 1.78-2.85-2.49-2.48-3.55-.72-1.78-3.91-1.42-11.02-1.06-1.07.35-3.91 1.78-2.48.35-.36-1.07-2.13-3.56-1.07-.7-1.78-.71-1.77-1.78-2.49-1.78-7.82-1.06-1.43-.71-1.77.71-2.14 3.19-2.12 4.27-3.21 4.62-1.06 1.07-.36 3.55v3.92l1.42 3.55 2.85 1.07 1.78 2.13.35 4.27-.72 4.26-1.41 1.78h-6.41l-4.97-.71-10.66-6.04-80.34 1.77-22.4 4.27-44.44 15.65 4.27-15.29-5.69-1.43 1.42-1.77.36-1.43.36-1.42.34-1.42v-1.42l-.7-.71-.72-.36-39.46-8.17-174.19-35.92-18.48-3.91-47.98-9.96-1.08 5.69 1.42 3.56.72 3.2-2.85 5.34-4.26 4.61-18.13 12.81-6.41-7.47-6.74-5.69h-6.76l-6.75 8.88-1.78 5.34-.72 8.18-1.77 3.91-4.27 3.2-9.24 4.62-3.55 4.27-.71.71-1.07 1.07-1.43.36-1.06.35-13.86-.35-7.47.7-4.97 2.14-3.2 6.05-2.85 8.88-3.56 8.18-6.04 3.92-17.06-16.72 1.06-2.49 2.49-2.85 1.42-2.84-1.78-2.49-3.55-.35-2.49.71-1.42-.36-.71-3.91h-2.13l-40.88-.71-1.79-2.85-1.78-.7-2.12.7-2.14 2.85-7.46 1.07-8.18 8.88-6.04.72 2.13-4.98-3.55.35-1.78-1.06-2.49-4.98-2.84-2.13-2.85-.36-49.05-3.91-9.96 1.42-3.2 5.69-88.16-1.06-8.88-1.42-11.74-4.63-8.17-3.2-44.8-1.42-6.04 1.78-2.85 6.39-3.91 2.5-401.7 3.91h-7.82l-.35-3.56-30.58-.71.36 2.13-.71 2.5 2.13 7.11 3.91 6.4 2.14 6.75-2.14 8.53-4.61 4.98-5.69 4.62-4.99 5.34-2.48 7.82-3.91 16.71-6.05 9.6-1.42 8.54-1.78 3.19-3.9 3.92-1.07 2.13 1.07 3.91.35 1.43h.35l1.78.35 1.42.71 1.07 1.78v2.13l-.71 1.78-1.06 1.42-2.14 5.69-4.62 8.89-1.07 3.56 1.42 6.75 10.67 19.2.71 3.56.71 7.83 1.07 3.55 1.42 2.13 4.97 4.62 1.08 1.78 1.06 7.11 2.85 4.63 12.44 11.02 4.26 2.13 6.05 1.07 8.53.35 1.42 1.42-1.42 3.56-3.56 3.21-3.91 1.77-4.62.35-3.2 1.07-2.85 2.49-2.48 3.2-2.49 5.33-1.78 7.47v7.47l2.84 6.05 3.21 1.41 3.55.36 3.2.71 1.06 2.49 1.08 3.91 2.12 1.06h3.21l3.55 1.08 3.56 2.13 2.12 1.06 1.08 2.14.35 4.62-1.07 4.98-2.84 3.2-7.11 5.69-4.63 7.46v7.11l3.56 16.37v30.93l1.78 7.46 8.18 12.09 2.13 6.76-.35 9.24-3.2 16.36 1.42 9.24 8.53 13.86 1.06 3.57-2.48 3.55-12.09 13.87-6.04 12.09-1.42 7.82 2.48 7.46 2.85 3.21 2.13.35 1.78-.35 3.2 1.78 1.78 2.84.35 3.2 1.07 3.56 3.91 2.84-4.27 3.91-3.2 5.33-1.78 6.05-.71 5.69.71 6.04 1.78 3.56 12.8 11.74 12.8 16.35-11.02 10.66-8.53 18.85-6.76 5.69-8.53-.71-8.18-6.05-35.54-48-17.43-34.84-6.39-16.71-4.62-8.54-5.34-5.69-6.75-1.42-12.45 3.55-6.4-.35-6.04-5.34-3.55-8.17-4.63-17.78-7.11-8.53-8.17-2.13h-7.83l-6.39-3.56-1.42-7.47.7-8.53v-7.11l-4.25-2.5-5.69 3.91-12.09 17.43-4.63 4.98-8.52.71-3.56-4.62-.71-7.47.35-7.11-1.77-2.49-3.56 1.42-4.26 2.49-3.21 1.07-3.9-1.78-6.05-6.04-4.62-1.78-55.81-4.62-21.32 2.85-6.05-1.08-3.91-2.85-2.14-2.84-2.84-2.84-4.62-1.42-1.42.71-3.2 4.26-1.78 1.07-2.13-.35-4.98-2.85-2.48-.35-17.43 2.13-4.97 1.78-3.56 2.48-5.69 6.05-3.19 2.13-6.77 2.14-23.45.71h-.71l-6.76 2.14-13.15 8.53-7.82 2.13-5.33 2.84-1.43 5.7-2.13 5.33h-11.37l-3.2 1.06-5.33 2.5-.36 1.06v1.78l-.71 1.78-2.14.71-2.12-.71-3.92-2.14-20.26-6.04-6.044.71-6.401 4.98-10.313 14.57-6.397 3.56-13.51 1.78-6.04 2.13-4.62 4.27 1.423.35 4.263 1.43-10.667 11.37-2.128 3.2v3.21l1.066 8.88-1.066 4.27-4.62 9.24-2.142 2.85-9.594-4.27-5.689-1.42-1.066 5.69.355 6.05-1.417 3.19-4.981-2.13-2.128-3.91-3.204-12.09-3.2-5.33-8.529-2.14-12.794.72-11.375-1.07-4.981-7.47.711-6.76 3.551-9.24.719-6.4-1.076-1.78-2.128-1.07-2.489-.71h-6.748l-1.076.71-.347 1.43-1.076 2.48-1.77 4.99v4.97l-1.424 3.56-4.976 1.77-4.27-1.77-4.976-7.46-4.263-3.56-4.626 4.97-3.907 2.14-4.62.71h-4.975l.349.7-1.423 2.15-2.129 2.48-3.202 2.14-2.84 1.07v-1.79l-1.779-1.78-4.975-2.12-1.78-1.43-.711-2.84-.712-3.91-1.068-2.14-4.263-3.91-2.129-2.49-1.074-2.13-1.772-1.07-3.559-.71-3.552.71-1.423 1.07.712 1.77 2.135 1.79-5.687 1.06-4.626-7.83-4.619 1.43-1.068-2.85-.704-1.41-3.203-2.85v-2.85l3.552.36 2.839-.36 5.694-2.13-3.203-6.04-1.772-8.18-2.847-5.69-6.754 2.48-2.491-7.46-4.975-4.62-7.11-2.13-8.171-.71-3.203-.71-1.067-1.78-1.779-1.78-3.908-.71-2.847 1.77-1.779 3.21-2.129 2.48-2.84-1.42-10.669-9.6-.362-4.27 4.982-14.93-.356-2.14-3.907-8.53-4.271-5.33-1.416-3.56 7.466-.35 1.423-4.99-2.497-6.39-3.908-5.69-4.263-2.84-4.62-2.13-3.914-3.56-1.773-6.4-3.558 2.85-4.27 1.77-3.907-.35-2.841-4.27 4.969-2.49-2.484-.71-2.129-.72-2.135-.7h-3.203l3.203-3.21 8.527-2.84-.705-2.84-8.89-6.05-2.135-3.56 2.135-6.75-9.238.36v-3.92l3.196-6.4-1.068-7.46-1.067 2.49-1.779 2.13-1.78 1.78-2.484 1.06-4.625-.35-.35-1.78 1.424-2.14 1.067-1.77v-19.92l-2.847-5.69-5.686-3.55-6.05-.7-2.484 4.97-3.203.36-17.416-10.32-5.687 1.43-16.355-2.49-6.036-.36-2.847 1.78-1.779 2.48-2.135 2.15-4.27 1.06-3.908.35-1.779-.35-1.773-1.06-1.779-.72-1.423 1.07-1.061 2.13-1.779 1.07-7.11-.36-6.05-1.42-4.968-2.49-3.914-3.21-1.068-2.48-1.067-3.2-1.424-2.84-2.128-1.43h-3.559l-2.484-.35-4.975-1.78-.356-6.4-4.27-9.24-6.399-8.18-6.042-3.56 1.772-5.33 2.847-18.49 1.423-2.85 8.534-13.15 4.619-19.2-1.061-3.2-2.491-2.49.35-5.69 2.497-5.7 3.552-3.55-5.687-2.13-.362-2.84-1.773-6.05v-3.2l3.196-19.56 1.779-5.33 2.491-2.49 2.84-1.42 2.498-1.77.349-3.57v-3.19l4.982-20.98-1.424-4.27-4.27-7.82-6.398-25.24-4.975-9.96-7.822 1.78 2.135-9.25-3.559-18.84-.711-3.21 1.067-5.68 5.331-3.56 35.195-4.62 6.043-1.78 6.049-2.49 8.527-5.33 3.552-4.98 2.142-14.93 3.552-8.54 11.017-11.02 4.264-7.82.718-5.7-2.142-38.04 1.424-6.4 5.331-4.62 7.828-3.91 2.84-3.2-.356-4.62-1.779-8.18v-30.22l-3.552-12.81-12.441-9.95-3.907-.71-3.914.36-3.197-.72-2.497-3.91v-4.26l1.779-3.92 2.847-3.55 1.779-3.91 3.203-14.23.705-7.82-.356-6.4-2.847-7.11-4.264-4.98-5.33-3.56-7.111-3.19-3.551-1.07-3.203-.36-6.042 1.43-1.424-1.43-9.238-5.33-2.135-1.07-2.135-3.91v-1.77l2.135-.72 4.975-.71 1.423.36 4.626 3.2 2.128.71 1.78-.36 2.484-2.84 1.423-.71 12.086-2.14 1.423-.7 1.423-1.43 1.78-1.07h2.134l2.484 1.07 1.78 1.43 2.128 1.06 2.491-.36 2.491-2.13 7.104-9.96 13.871-11.37 9.238-10.67 5.687-4.62 10.662-3.2 11.736-7.11 5.331-2.49 5.687-.36 13.864.36 6.406-.71 4.263.35 3.552-1.07 3.558-2.13 3.196-2.49 7.822-3.2 7.466.71 7.822 1.78h7.11l15.281-5.34h7.473l7.11 6.05 6.036-2.12 9.957-1.79 5.338-2.84 2.484-3.91 2.484-4.27 2.491-4.62 3.914-3.2 3.552-1.07 7.466 1.07 3.552-.36 7.11-3.55.356-.72 1.423-3.91.712-5.69 3.558-7.11 12.798-7.11 10.661-.71 3.559-3.91-8.89-17.07 17.136-14.22h-.001l2.438-2.02 5.847-4.86h.002l5.859-4.86 1.423-1.42.35-2.49-.704-3.91 1.423-5.68v-2.85l.705-2.49 3.912-2.49 5.331-.35 3.552 2.84 2.849 3.91 3.201 2.84 10.312-2.13-3.2-15.29-12.798-30.93 2.839-8.89 6.05-7.11 6.749-6.76 4.974-6.75 2.499-4.98-.365-1.42-1.78-1.07-3.194-4.98-7.466-16.71-6.044-6.04-15.286-11.74-3.198-6.04 2.135-18.85 1.423-1.06 2.128.71 3.909-.71 10.313-3.918 11.729-2.84 12.086-1.069 10.313 2.128 10.306 6.409 4.62 1.42 7.473-1.07 6.745-2.48 4.273-2.855.354-.354 3.551-4.264 7.466-23.474.712-4.617-4.62-16.353 1.069-20.623-2.846-9.96-6.398-8.528-10.67-8.537-4.263-6.406-9.594-20.616-10.313-9.603-2.128-3.205v-4.618l1.777-3.197 2.486-2.847 4.263-12.089 6.043-2.49 22.753 1.066 4.263-1.066 2.485-3.204-1.062-3.191-7.459-4.27-2.496-3.559 1.777-5.333 5.332-6.392 6.407-5.693 5.329-3.917 3.554-.351 3.201.705h3.558l3.554-2.128 6.74-7.822 5.7-8.538 6.04-14.925 3.55-6.757 6.04-5.339 2.85-1.424 9.6-2.486 3.2-2.135 5.33-6.045 4.27-1.777 3.91-1.07 5.34-3.551 4.61-4.264 2.14-3.204-2.85-2.136-4.62-.347-2.13-1.424 4.98-5.69 1.06-1.072 1.42-.351 1.07.351 1.43 1.072 2.12 2.84 1.79 7.468 1.06 2.135 3.2 1.063 8.53 1.781 1.77 1.066v3.909l-2.48 1.424-3.55.354-2.5 1.069-7.46 6.757-2.84 1.777-4.62 4.267 4.62 3.559 8.17 2.128 7.11.354 7.11-.712 5.69 1.077 12.08 4.968 14.58 3.916 6.75 2.84 26.31 20.981 16.35 9.958 28.79 22.751 2.85.719 4.63-.719 2.13.719 5.68 6.037 3.21 2.135 2.48.365 7.83-.365 15.28 2.493 4.27.712 4.26-1.069 3.55-6.045-.34-6.399-4.28-12.443 1.43-10.315 7.82-3.198 58.3-3.558 4.97-3.201-12.79-90.312 5.33-13.512 1.78-8.534 1.78-20.262-2.49-8.534-7.47-5.691 7.11-7.11 9.6 3.552 16 11.731 9.6 1.07 7.82-1.424 7.46-.357 8.89 5.339 6.39 6.038 1.78 3.204 1.07 5.33 2.49 5.69 3.92-1.423 6.39-6.75 3.91-2.135 2.84-.712 8.89.712 2.85 1.066 2.48 1.781 2.49 1.066 2.5-.361 12.44-4.968 12.44-4.628-9.96-34.136-1.78-19.554 5.69-13.87 6.4-10.315 13.87-46.927-.72-.718-.35-.705-1.07-.712-2.13.354 9.24-15.29 52.62-29.157 6.04-6.757 20.26-22.403 7.82-6.749 28.8-16.359 19.55-4.976 27.02 6.044 83.18 39.467 11.38 2.491 5.33-.718 7.11-3.197 17.42-7.823 2.84-2.485 1.43-3.915 6.39-88.893 2.84-9.596 10.67-4.984 17.06-.704 29.15 2.484 25.25-1.423 24.88-4.621 123-79.29 15.29-7.467 67.89-16.353 13.51-5.687 12.44-7.831.36-.349 73.24-64.361 19.19-18.844 10.31-7.824 12.08-3.203Z"/></g></svg>