<svg xmlns="http://www.w3.org/2000/svg" width="400" height="200" viewBox="-83.245 1.097 335.611 167.805"><path d="M78 2.6c-3.6.7-10.3 2.1-14.9 2.9-9.1 1.8-14.4 4-20.6 8.9-2.1 1.7-5.6 3.8-7.6 4.7s-4.9 3.3-6.5 5.4c-1.6 2-5.3 6.1-8.1 9.1C15 39.2 9.5 49.1 8.4 55.2 8 57 6.6 60.9 5.2 63.9c-1.8 3.9-2.6 7.5-2.8 13-.2 4.2-.6 9-.9 10.7s.2 5 1 7.4c.8 2.3 1.5 6.4 1.5 9.1 0 5.8 3 13.7 7.4 19.9 1.8 2.5 3.6 5.7 3.9 7.2 1.1 4.2 6.8 11 12.2 14.6 2.8 1.7 7 5.2 9.5 7.6 6.8 6.7 18.2 11.6 27 11.6 1.9 0 6 .9 9 2.1 4.6 1.7 7.1 2 15 1.7 5.8-.2 10.9-1 13-2 1.9-.9 5.5-1.8 7.8-2.1 2.4-.3 5.4-1.4 6.5-2.5 1.2-1 4.7-2.4 7.8-3.1 3.1-.6 7.6-2.4 10-4 5.1-3.3 12.9-11.4 12.9-13.5 0-.8 1.5-2.7 3.4-4.1 1.8-1.4 4.4-4.6 5.7-7.2s4.1-7.1 6.1-10.1c2.1-3.1 4.2-7.6 4.8-10.7 1.3-6.2 1-17.6-.5-17.3-.5.2-.9 1-.7 1.8.7 3.3.4 13.9-.4 15.1-.5.8-.9 1.6-.9 1.9-.3 2.5-3 8.1-4.5 9.5-1.1 1-3.2 4.2-4.6 7.2-1.5 2.9-3.9 6.1-5.4 7-1.6.9-3.8 3.6-5 6-3.6 7.3-13.8 15.3-20 15.8-1.4.1-5.4 1.5-9 3.2s-9.4 3.6-13 4.3-6.9 1.5-7.4 1.8c-2.4 1.3-17 .2-23.8-1.9-4-1.2-9.3-2.3-11.7-2.6-2.4-.2-4.9-.7-5.5-1-.6-.4-1.7-.8-2.3-.9-.7-.1-2-.9-2.9-1.8-1.9-1.9-2.8-2.1-1.8-.3.4.6-.3.2-1.5-1.1-1.2-1.2-2.8-2.2-3.5-2.2-1.4 0-6.9-5.4-6.2-6.1.3-.2-1.2-1.5-3.2-2.9-8.7-5.6-15.7-14-16.4-19.3-.3-1.6-.8-3.2-1.4-3.5-3.6-2.6-7.7-13-8-20.6-.2-3.7-.9-7.5-1.5-8.2-1.1-1.4-1-6.6.6-20.4.5-4.7 7.1-24.4 9.6-28.3 4.3-7.2 16.1-19.5 21.2-22.1 2-1 3.4-2.3 3.1-2.7-.3-.5.3-.9 1.3-.9 1.1 0 3.5-1.2 5.4-2.6C54.7 9.9 65.2 6.7 83.5 5c9.4-.8 18.7.5 24.5 3.5 1.5.8 3 1.1 3.4.8.3-.4.6-.2.6.4s1.8 1.3 3.9 1.7c2.2.3 5.3 1.7 6.9 3.1 1.6 1.3 3.2 2.2 3.6 1.8.3-.3.6.1.6.9 0 .9 1.4 2.1 3.1 2.8s5.3 3.4 7.9 5.9c2.7 2.5 6.5 5.7 8.4 7.1 2.3 1.6 4.8 4.9 6.8 8.8 1.7 3.4 3.5 6.5 4 6.8s.6 1.4.3 2.4-.1 2.1.5 2.5c2.4 1.5 5.2 8.8 4.7 12.2-.4 2 .1 4.9 1 7 1 2.5 1.4 5.9 1.1 10.5-.3 4.9 0 6.8.9 6.8 1.9 0 2.7-8.7 1.3-13.9-.6-2.5-1.5-7.8-1.9-11.6-.6-6.5-2.8-12.6-5-14-.5-.3-1.7-2.9-2.5-5.8-2-6.9-6.2-12.6-12-16.4-2.6-1.7-5.6-4.3-6.7-5.7-1.2-1.5-4.2-3.7-6.7-5-2.6-1.3-5.6-3.4-6.7-4.6-2.6-2.9-6.8-5-10-5-1.4 0-4.4-.9-6.6-2.1C104.2 3.5 93.1 1 88 1.1c-1.9.1-6.4.7-10 1.5"/><path d="M82.2 19.2c.3 7.5 1.9 9.5 2.8 3.7l.5-3.3 2 3.7c3.1 5.9 4 5.2 5-4.6.6-5.8.5-6.7-.9-6.7-1.1 0-1.6.9-1.6 2.9 0 4.3-1.4 4.5-3.3.6-.9-1.9-2.4-3.5-3.2-3.5-1.3 0-1.5 1.2-1.3 7.2m-12.1-.5c-1.4 7-1.4 10.3-.1 10.3.6 0 1.5-1.1 2-2.5 1.1-2.8 4.4-3.4 5.4-1 .5 1.4 3.6 2.2 3.6.9 0-1.7-7.4-13.4-8.4-13.4-.8 0-1.8 2.3-2.5 5.7m-7-3.6c-11.8 4.7-18.2 8.1-17.8 9.3.2.6 1.3 1 2.5.9 1.5-.2 2.8 1 4.7 4.2 1.4 2.5 3.2 4.5 4 4.5 2 0 1.9-.2-1-5.9-2.3-4.6-2.3-5-.7-6.3.9-.8 2.8-1.4 4.1-1.4 2.1.1 2.7.9 4 4.8.8 2.7 2 4.8 2.8 4.8 1.7 0 1.6-1.8-.2-6.9-1.3-3.7-1.3-4.3 0-4.7.8-.4 1.5-1.5 1.5-2.5 0-2.1-.4-2.2-3.9-.8m44.8 3.6c-3.3 8.4-3.9 10.7-3 11.6.7.7 1.4.1 2.1-1.4.9-2.1 1.7-2.4 4.5-2.1 3 .4 3.6 0 4.7-2.3 1.5-3.3.3-5.4-4.1-7.2-3-1.3-3.2-1.2-4.2 1.4m5.6 3.3c.3.5-.3 1-1.4 1-1.2 0-2.1-.5-2.1-1 0-.6.6-1 1.4-1s1.8.4 2.1 1m3.6 5.5c-1.7 3-3.1 5.9-3.1 6.5 0 1.5 1.6 1.2 3-.5 2-2.4 3-1.7 3 2 0 4.2 1.8 4.7 2.6.7.3-1.5 1.5-3.2 2.7-3.7 3.3-1.5 3.4-5.8.1-8.4-1.5-1.1-3.2-2.1-3.9-2.1s-2.7 2.5-4.4 5.5m7.2 0c.7 1.6-.8 2.9-2.3 2s-1.2-3.5.4-3.5c.8 0 1.6.7 1.9 1.5m-84.7.4c-.9 1.3 4.5 15.4 5.5 14.4.4-.4.9-1.9 1.1-3.3.2-2.1.8-2.5 3.5-2.5 1.7 0 3.4-.3 3.8-.6.8-.8-10.3-8.9-12.1-8.9-.7 0-1.5.4-1.8.9M45 33c0 .5-.2 1-.4 1-.3 0-.8-.5-1.1-1-.3-.6-.1-1 .4-1 .6 0 1.1.4 1.1 1m31.2-.3c-1.2.2-2.7 1.3-3.2 2.4-.6 1-1.7 1.9-2.4 1.9s-4.5 1.6-8.4 3.5C53.7 44.8 45 53.6 41.3 61.9c-1.4 3.1-3 6.4-3.4 7.3-.5.9-1.2 3.5-1.5 5.8-.8 5.1 1.1 5.4 2.1.2 2.4-12.6 14.7-27.6 27-32.8 3.4-1.4 3.7-1.4 3.2 0-1.1 2.9 0 1.7 3.3-3.4 2.9-4.6 3.5-5 7-5 2.2 0 4.2-.5 4.5-1 .6-1-2.8-1.1-7.3-.3m10.4.1c-.4.7 1 1.2 3.6 1.4l4.3.3 11.3 18c6.1 9.9 16.3 25.9 22.6 35.5 6.2 9.6 12.5 19.4 14 21.7l2.6 4.3h-8.3c-4.6 0-8.8-.4-9.5-1-.7-.5-.2.2 1.1 1.5 2.2 2.5 2.7 2.6 12 2.3l9.6-.3-3.1-5c-1.7-2.8-5.9-9.3-9.3-14.5C121.4 72.5 103 43.7 103 42.9c0-.5.4-.9.9-.9 1.9 0 13.3 8.4 16.6 12.3 4.5 5.2 10.1 16.3 11 21.7.4 2.3 1 3.9 1.3 3.5 1-1 .1-9.5-1.4-12.8C128 59 121.1 49 119.2 49c-1.1 0-12.5-8.9-13-10.2-.2-.4-1.8-.8-3.5-.8-1.9 0-4.1-.9-5.7-2.5-2.9-2.8-9.3-4.4-10.4-2.7m43.2.8c-3.2 1.7-4.8 4.3-4.8 7.6 0 5.4 6.5 6.6 11.2 2.1 3.5-3.3 3.7-7.5.6-9.7-2.7-1.9-3.5-1.9-7 0m6.2 4.5c0 2.3-4.4 5.3-6.5 4.5-2.3-.8-1.8-3.2 1.1-5.5s5.4-1.8 5.4 1M32 35.3c0 .7.5 1.8 1.1 2.4.7.7.9 1.9.5 2.8-.6 1.6-.8 1.6-3 .1-2.1-1.3-2.6-1.3-3.6-.1-.9 1.1 0 2.2 4.3 5.4 7 5.3 10.4 5.6 5.6.5-2.1-2.3-1.9-4.4.5-4.4.8 0 1.9.7 2.6 1.5s1.6 1.5 2.1 1.5c2 0 .7-2.7-3.3-6.7-4.2-4.3-6.8-5.4-6.8-3m108.6 11.8c-4.4 3.3-5.6 3.6-5.6 1.4 0-.8-.7-1.5-1.5-1.5-1.9 0-2 3.4 0 5 1.7 1.4 4.5.6 9.8-2.7 3.5-2.2 4.4-4.3 2.1-4.9-.5-.1-2.7 1.1-4.8 2.7m-117.1-1c-.7 1 2 3.6 4 4 .6.1-1 .5-3.5.8-6.8.9-6.5 3.3.9 7.1 7 3.5 7.1 3.5 7.1 1.5 0-.9-1.2-2.1-2.7-2.8-2.7-1.2-2.7-1.2 1.6-1.7 2.5-.3 4.6-1 4.8-1.6s-2.1-2.7-5.2-4.7c-6.1-4.1-6.1-4.1-7-2.6"/><path d="M65 49c-.6 1.1-.8 2-.6 2 .3 0 1-.9 1.6-2s.8-2 .6-2c-.3 0-1 .9-1.6 2m10.6 11.9c-4.7 7.7-8.9 14.7-9.2 15.5-.5 1.4 1.6 1.6 18.5 1.6 10.7 0 19.1-.4 19.1-.9C104 75.7 85.8 47 85 47c-.4 0-4.6 6.3-9.4 13.9M95 63.5l8 13-16.1.3c-8.9.1-16.4 0-16.7-.2-.6-.7 15.1-26.7 16-26.4.4.2 4.3 6.1 8.8 13.3m50.5-12.3c-1.1.6-3.7 2.2-5.7 3.5L136 57l1.7 3.5c.9 1.9 2 3.5 2.4 3.5 1.5 0 2-2 .9-3.9-1.4-2.7.8-4.1 2.6-1.7 1.6 2.2 3.4 1.3 2.7-1.3-.8-3 1.4-3.4 2.9-.5 1.5 3 3.4 2.9 3-.1-.3-2.3-2.9-6.5-4-6.5-.4 0-1.6.6-2.7 1.2m-83.1 2c-.4.7-1.4 2.4-2.2 3.8-1.4 2.4-1.3 2.4.3.5 2-2.4 3.7-5.5 3.1-5.5-.3 0-.8.6-1.2 1.2m-46.6 8.4c-1.9 1.9-.4 4.2 5 7.6C24 71.3 27 73 27.3 73c1.3 0 .7-2.3-.9-3.4-1.9-1.5-.8-4.6 1.6-4.6 1.8 0 3.6-1.7 2.8-2.5-.8-.9-14.3-1.7-15-.9m129.5 1.9c-3.7 1.6-5.1 5.2-3.3 8.4 1 2.1 4 2.8 5.4 1.4.4-.4-.3-1.5-1.6-2.5-2.3-1.8-2.3-1.9-.4-3.3 3.7-2.8 9.3-1.2 6.7 1.9-.8 1-.7 1.7.5 2.7 1.9 1.6 3.4-.2 3.4-4.2 0-4.7-5.3-6.9-10.7-4.4M52 70c-.6 1.1-.8 2-.6 2 .3 0 1-.9 1.6-2s.8-2 .6-2c-.3 0-1 .9-1.6 2m-39.4 2.9c-.4.6.4 2.2 1.8 3.6 3.2 3.2 3.2 3.8.1 5.5-1.4.7-2.5 2.2-2.5 3.2 0 1.6.9 1.8 7 1.8 5.6 0 7-.3 7-1.5q0-1.5-3-1.5c-3.2 0-4-1.4-1.4-2.4 1.5-.6 1.4-1-.7-3.3l-2.4-2.6 4.3.7c3.2.5 4.2.3 4.2-.8 0-1.5-1.7-2.1-9.1-3.1-3-.4-4.9-.3-5.3.4M155 75.8c0 2.1-2.5 3.2-7.7 3.2-2.3 0-3.3.5-3.3 1.5 0 1.1 1.3 1.5 5.4 1.5 4.5 0 5.4.3 5.9 2 .3 1.1 1 2 1.7 2 1.6 0 .9-11.2-.7-11.8-.8-.2-1.3.5-1.3 1.6M47 78c-.6 1.1-.8 2-.6 2 .3 0 1-.9 1.6-2s.8-2 .6-2c-.3 0-1 .9-1.6 2m9.4 14.8c-.6.4-3.6 4.9-6.7 10.1s-6.2 10-6.8 10.7c-1.3 1.6-16.9 2-16.9.5 0-.6.9-2.6 2.1-4.5 1.2-2 1.9-3.6 1.6-3.6s-1.7 2.1-3.2 4.7c-2.7 4.4-2.7 4.7-.9 6 1.1.8 4.7 1.3 10 1.3h8.3l3.3-5.6c1.8-3 5-8.2 7-11.5L58 95h57l4 6.2c2.2 3.4 4.3 6.4 4.7 6.7 1.2 1.1-2.1-4.5-5.9-10.2l-3.9-5.7H85.7c-15.5 0-28.7.4-29.3.8"/><path d="M76.3 98c-3 1.2-4.5 4.5-4.6 10.1-.1 3.4.5 5.4 1.8 6.9 2.3 2.6 7.6 2.7 9.9.1 4-4.4 2.7-15.4-2.1-17.2-1.3-.5-2.5-.9-2.6-.8-.1 0-1.2.4-2.4.9m4.1 4.6c1.3 3.3.6 10.4-1 11.1-2.1.8-3.4-1.4-3.4-5.9s.8-6.8 2.5-6.8c.7 0 1.6.7 1.9 1.6m-22.2 5.1.3 9.8 4.2-.1c2.3 0 4.9-.6 5.7-1.4 1.8-1.4 2.2-7.5.6-8.5-.5-.3-.7-1.9-.3-3.5.8-4.2-1.1-6-6.4-6h-4.4zm6.6-4.5c-.6 1.8-2.8 2.1-2.8.4 0-.9.7-1.6 1.6-1.6s1.4.5 1.2 1.2m1.2 8.3c0 1.6-2.7 2.7-3.6 1.4-.3-.5-.3-1.6 0-2.4.6-1.7 3.6-.9 3.6 1m22-4c0 7.8.3 9.5 1.5 9.5 1 0 1.5-1.1 1.5-3.5 0-3.9.7-4.3 2.6-1.8 1.2 1.7 1.4 1.7 2.8-.2 1.5-1.9 1.5-1.8 1.6 1.7 0 3.1.4 3.8 2 3.8 1.9 0 2-.7 2-9.5 0-8.5-.2-9.5-1.8-9.5-1.1 0-2.5 1.5-3.6 3.7l-1.8 3.8-1.9-3.8c-1.1-2-2.6-3.7-3.4-3.7-1.2 0-1.5 1.8-1.5 9.5m17.2-.3.3 9.3 4.4.3c5.7.4 8.5-1.9 7.6-6.3-.3-1.6-.7-4.6-.8-6.5-.4-5.2-1.3-6-6.8-6h-5zm6.8-4.7c0 .8-.7 1.5-1.5 1.5-1.6 0-2-1.2-.8-2.3 1.1-1.2 2.3-.8 2.3.8m.7 8.1c.7 1.8-1.7 3.8-3.1 2.4-1.1-1.1-.1-4 1.4-4 .6 0 1.3.7 1.7 1.6M31 103c-.6 1.1-.8 2-.6 2 .3 0 1-.9 1.6-2s.8-2 .6-2c-.3 0-1 .9-1.6 2m32.8 18.8c-5.1.3-5.5 1-3.7 6.2.7 2 .7 1.7.3-1.3l-.5-3.8 4 .3c2.2.1 4.4-.1 4.7-.5 1.1-1.1.3-1.2-4.8-.9m35.2.2c-.6.4 2.3.7 6.4.7 4.1-.1 7.3-.4 7-.8-.5-.9-11.9-.8-13.4.1m-29 .4c0 .2.9.6 2 .9s2 .1 2-.4-.9-.9-2-.9-2 .2-2 .4m-41.1 4.4c7.2 10.2 22.3 17.9 28 14.3 1.1-.7.4-1.2-2.5-2-2.1-.6-4.8-1-5.9-.9-2.8.1-11.5-3.9-11.5-5.3 0-1.3-8-8.9-9.3-8.9-.5 0 .1 1.3 1.2 2.8m69.6-.6c.4 1.3 1.1 2.7 1.6 3.3.5.5.4-.5-.2-2.3-1.2-3.6-2.4-4.4-1.4-1m12.2 1.7c-1.9 4.3-2.2 9.1-.6 9.1.7 0 1-1.4.7-3.5-.2-1.9-.1-3.5.3-3.5.6 0 2-5.2 1.5-5.7-.1-.2-1 1.5-1.9 3.6m28.5 2.1c-7.2 6.8-13.5 10-19.9 10-5.1 0-5 1.6.1 2.6 4.9.9 11.5-2.4 18.7-9.3 5.1-4.8 8.8-9.4 7.7-9.3-.2 0-3.1 2.7-6.6 6m-66.5-4.3c-.4.3-.7 1.6-.6 2.7 0 1.9.1 1.9 1-.3 1-2.4.8-3.6-.4-2.4m31.9 5c-1.3 1.3-.6 6.3.9 6.3 1 0 1.5-1 1.5-2.9 0-3-1.2-4.6-2.4-3.4M61 133.4c0 1.4.5 2.8 1 3.1.6.4 1-.7 1-2.4s-.4-3.1-1-3.1c-.5 0-1 1.1-1 2.4m4 .6q0 3 1.5 3t1.5-3-1.5-3-1.5 3m5.2 0c0 1.9.2 2.7.5 1.7.2-.9.2-2.5 0-3.5-.3-.9-.5-.1-.5 1.8m8.2.1c.6 3.1.5 3.1-2.9 2.7-1.9-.2-3.5 0-3.5.4 0 .8.7 1 4 1 4.3 0 5-.3 5-2 0-1-.5-2.3-1.2-3-.9-.9.2-1.1 4.8-.8 3.2.1 6.8-.1 7.9-.5 1.2-.5-1.3-.8-6.4-.8l-8.3-.1zm22.4-.1c.2 1.6.6 3 .8 3s.4-1.4.4-3c0-1.7-.4-3-.8-3-.5 0-.7 1.3-.4 3m-9.8 1.5c0 1.4.6 2.5 1.3 2.6 5.2.4 7.1.3 7.4-.7.2-.6-1-.8-3.1-.6-3.1.4-3.4.2-2.9-1.7.4-1.5.1-2.1-1.1-2.1-1 0-1.6.9-1.6 2.5m-6.3 5.3c-.9 1-1.7 3.3-1.7 5 0 3 .2 3.2 3.5 3.2h3.6l-.7-3.8c-.9-5.2-2.6-6.8-4.7-4.4m2.1 4.1c-.6.2-.4.7.3 1.2 1.1.7 1 .9-.3.9s-1.8-.8-1.8-2.5c0-2.2.2-2.4 1.4-1.3.8.8 1 1.5.4 1.7m-21.4-3.5c-.8 2.1-.1 4.9 1.4 5.4q1.2.3 1.2-2.7c0-3.3-1.7-5.1-2.6-2.7m25.1-.4c.3.5.8 1 1.1 1 .2 0 .4-.5.4-1 0-.6-.5-1-1.1-1-.5 0-.7.4-.4 1m10.8 2.5c0 2.2.2 3 .4 1.7.2-1.2.2-3 0-4-.3-.9-.5.1-.4 2.3m2.7 0c0 2.4.5 3.5 1.5 3.5s1.5-1.1 1.5-3.5-.5-3.5-1.5-3.5-1.5 1.1-1.5 3.5m5 0c0 1.9.5 3.5 1 3.5.6 0 1-1.6 1-3.5s-.4-3.5-1-3.5c-.5 0-1 1.6-1 3.5m-47.1-2.3c-.5 1.6-.3 5.8.3 5.8.4 0 .8-1.4.8-3 0-1.7-.2-3-.5-3s-.5.1-.6.2m8.3 2.8c0 1.9.2 2.7.5 1.7.2-.9.2-2.5 0-3.5-.3-.9-.5-.1-.5 1.8m3.8 0c0 1.6.5 3 1 3 .6 0 1-1.4 1-3 0-1.7-.4-3-1-3-.5 0-1 1.3-1 3m3 0c0 1.6.5 3 1 3 .6 0 1-1.4 1-3 0-1.7-.4-3-1-3-.5 0-1 1.3-1 3m16 0c0 1.6.5 3 1 3 .6 0 1-1.4 1-3 0-1.7-.4-3-1-3-.5 0-1 1.3-1 3m3-1.6c0 2.2 1.1 4.6 2.1 4.6.5 0 .9-1.4.9-3q0-3-1.5-3c-.8 0-1.5.6-1.5 1.4"/><path d="m92.5 150.7 1.6 3.3h-7.6c-7.4 0-7.5-.1-6.5-2.1.7-1.1.9-2.3.6-2.6s-1.1.6-1.7 2.1c-1.2 2.5-1.4 2.6-10.6 2.6-5.1 0-9.3-.3-9.3-.6s.5-1.5 1.1-2.7c1-2.1 1-2.2-.5-.2-.8 1.1-2 2.6-2.6 3.2-.9 1 5.1 1.3 29.2 1.1 16.7-.1 25.5-.4 19.6-.5-6-.2-10.8-.7-10.8-1.1s-1-1.8-2.1-3.2l-2-2.5zm18.5-2.1c0 .5.7 1.9 1.5 3 .8 1 1.5 1.4 1.5.8 0-.5-.7-1.9-1.5-3-.8-1-1.5-1.4-1.5-.8"/><path d="M72.6 150.3c.3 1 .9 1.5 1.2 1.2s0-1.1-.7-1.8c-1-.9-1.1-.8-.5.6"/></svg>