<svg xmlns="http://www.w3.org/2000/svg" width="400" height="200" viewBox="-639 -717 3108 1554"><path fill="currentColor" d="M835-631c0-57.34 26.667-86 80-86s80 28.67 80 86c138.67 14.67 245 75.33 319 182 29.34 42 54.67 100.67 76 176 21.34 75.333 32.01 143.333 32 204V3q0 100 34.5 175.5c23 50.334 70.17 121.834 141.5 214.5l38 50c30.67 40 46 77.333 46 112 0 82-72.17 149.5-216.5 202.5S1137.67 837 915 837q-335 0-551-79.5C148 678 148 637 148 555q0-52 46-112l38-50q107-139 141-214.5C407 103 407 69.667 407 3v-72q0-91 32.5-204c21.667-75.33 47.167-134 76.5-176 74-106.67 180.333-167.33 319-182M280 415q267-108 636-108c245.33 0 457 36 635 108q-109.005-147-144-223.5C1372.005 115 1372 85 1372 25l-3-92c0-130-28.67-244-86-342-71.33-123.33-193.67-185-367-185-173.333 0-296 61.67-368 185q-85 147-85 342l-3 92q0 90-35 165.5C390 266 353.333 315.667 280 415m180-10q-263 77-263 160 0 91 212 157c212 66 309.667 66 505 66 198 0 367.17-22 507.5-66S1632 625 1632 563q0-81-217.5-144c-217.5-63-310.83-63-497.5-63q-43 0-107 3 8 26 8 47-.002 77-51.5 130.5Q715 590 641 590q-78 0-129.5-52.5C460 485 460 458.333 460 405"/></svg>