<svg xmlns="http://www.w3.org/2000/svg" width="400" height="200" viewBox="46 -178 1956 978"><path fill="currentColor" d="M1778 489c0 86-30.34 159.333-91 220q-91.005 91-219 91c-86 0-159.33-30.333-220-91s-91-134-91-220c0-62 16.83-118.333 50.5-169s77.83-88.334 132.5-113l-24-62-340 407-90-9q-19 110-105.5 183.5C694 800 656 800 580 800q-128 0-219-91c-91-91-91-134-91-220q0-128 91-219c91-91 134-91.001 220-91q63 0 120 24l75-166-27-76 5-2-19-56q-33 0-54-6-35.002-9-35-32 0-43.003 30-43 16 0 45 7.5c29 7.5 33 7.5 41 7.5q14 0 37-3c23-3 25-3 29-3q17 0 17 22 0 7-33 25-33 18.005-55 23l19 51 4-3 20 55h466l-39-107v-35h180v35h-146l108 298q48-16.003 99-16c86 .001 159.17 30.167 219.5 90.5C1747.84 329.833 1778 403 1778 489m-34 0q0-114-81-195c-81-81-119-81-195-81-28.67 0-58 5-88 15 32.67 91.333 59 162.667 79 214l23 57c-.03 8-4.37 12-13 12q-15 0-36-56l-81-216c-106.67 49.333-160 132.667-160 250q0 114 81 195c81 81 119 81 195 81s141-27 195-81 81-119 81-195m-439-379-27-73H813l168 460zM951 514 792 81l-61 137q160 89 160 271v20zm-95-9v-16q0-160-140-240L612 482zm-4 35-292-27 127-278q-53-22.003-106-22-114 0-195 81c-81 81-81 119-81 195s26.833 141 80.5 195S504 765 580 765q101 0 177.5-64C834 637 840 604.667 852 540"/></svg>