<svg clip-rule="evenodd" fill-rule="evenodd" height="512" stroke-linejoin="round" stroke-miterlimit="2" viewBox="0 0 32 32" width="512" xmlns="http://www.w3.org/2000/svg"><g id="icon"><path d="m8.949 16c1 0 1.977.108 2.695.622.43.308.627.944 1.07 1.283.589.451 1.518.475 2.017 1.013.915.988 1.218 2.617 1.218 4.082 0 1.336-.527 2.687-1.333 3.53-.65.679-.379 1.864-1.211 2.426-.561.379-1.524.453-2.315.554-.785.1-1.42.49-2.141.49-.848 0-1.947-.082-2.571-.487-.634-.411-.791-1.149-1.404-1.662-.595-.499-1.593-.636-2.091-1.21-.784-.903-.934-2.323-.934-3.641 0-.912.664-1.566.982-2.366.329-.826.243-1.869.774-2.536 1.133-1.421 3.235-2.098 5.244-2.098zm.405 8.805c-.926 0-1.678.751-1.678 1.677s.752 1.678 1.678 1.678 1.677-.752 1.677-1.678-.751-1.677-1.677-1.677zm0 1c.374 0 .677.303.677.677s-.303.678-.677.678-.678-.304-.678-.678.304-.677.678-.677zm8.978-.691 2.755-3.349c.175-.213.144-.528-.069-.703-.213-.176-.528-.145-.704.068l-2.754 3.349c-.176.213-.145.529.068.704s.529.144.704-.069zm-5.56-9.783c-.707-.458-1.642-.556-2.598-.556-.188 0-.377.006-.566.018l-.207-.221s9.958-8.062 14.042-11.368c.12-.098.293-.091.406.014s.131.278.043.405c-.642.916-1.388 1.982-1.888 2.695-.051.073-.043.172.019.236.063.064.162.075.237.025 1.757-1.166 5.885-3.905 7.867-5.22.083-.056.195-.042.262.032.068.074.071.187.008.265-1.783 2.209-6.008 7.443-8.302 10.286-.128.158-.122.386.012.538.135.152.36.185.533.078.889-.553 1.931-1.201 2.852-1.774.219-.136.504-.098.679.092s.19.478.036.685c-2.164 2.914-5.643 7.598-5.643 7.598l-3.244 3.841-.237-.252c.06-.32.091-.647.091-.973 0-1.465-.302-3.094-1.218-4.082-.499-.539-1.428-.562-2.017-1.013-.204-.157-.356-.377-.503-.598l3.424-3.425c.195-.195.195-.512 0-.707s-.512-.195-.707 0zm-3.838 2.116c-1.158 0-2.097.939-2.097 2.097s.939 2.097 2.097 2.097c1.157 0 2.097-.939 2.097-2.097s-.94-2.097-2.097-2.097zm0 1c.606 0 1.097.491 1.097 1.097s-.491 1.097-1.097 1.097-1.097-.491-1.097-1.097.491-1.097 1.097-1.097zm.822-5.755 2.579-2.089c.215-.174.248-.489.074-.703-.174-.215-.489-.248-.703-.074l-2.579 2.089c-.215.174-.248.489-.074.704.174.214.489.247.703.073zm4.463-3.559 5.158-4.179c.214-.173.247-.488.074-.703-.174-.214-.489-.247-.704-.074l-5.158 4.179c-.214.174-.247.489-.073.703.173.215.488.248.703.074z"/></g></svg>