<svg height="512" viewBox="0 0 32 32" width="512" xmlns="http://www.w3.org/2000/svg"><g id="_x30_5"><path d="m16 20c-3 0-5.7-.3-7.9-.7.6 3.8 3.9 6.7 7.9 6.7s7.3-2.9 7.9-6.7c-2.2.4-4.9.7-7.9.7z"/><path d="m29.3 15.1s-1-.3-2.5-.7c-1.1-.3-1.9-1-2.2-1.9-1.1-3.9-4.6-6.5-8.6-6.5s-7.5 2.6-8.6 6.4c-.3.9-1.1 1.7-2.2 1.9-1.6.4-2.5.7-2.5.7-.4.2-.7.6-.7 1s.3.8.7.9c.2.1 6 2.1 13.3 2.1s13.1-2 13.3-2.1c.4-.1.7-.5.7-.9s-.3-.8-.7-.9zm-13.3 1.9c-4 0-8.5-.5-11-1 1.4-.6 3.4-1.7 3.8-3 1-3 3.8-5 7.2-5 3.3 0 6.2 2 7.2 5 .4 1.3 2.5 2.4 3.8 3-2.5.5-7 1-11 1z"/><path d="m16 16c-2.7 0-5.7-.2-8-.5.8-.6 1.5-1.3 1.8-2.2.8-2.6 3.3-4.3 6.2-4.3s5.4 1.7 6.2 4.3c.3.8 1 1.6 1.8 2.2-2.3.3-5.3.5-8 .5z"/></g></svg>