<svg enable-background="new 0 0 512 512" height="512" viewBox="0 0 512 512" width="512" xmlns="http://www.w3.org/2000/svg"><g id="king_crown_queen_royal_party"><path d="m445.671 382.984c-4.957 23.714-8.301 39.112-8.301 39.112-126.924-23.673-234.684-23.673-361.607 0 0 0-3.467-15.461-8.591-39.254 125.55-20.777 252.956-20.728 378.499.142zm66.329-235.547c0 15.34-12.435 27.774-27.774 27.774-.013 0-.017 0-.03 0-7.051 52.325-24.013 137.675-35.466 193.057-127.615-20.989-257.085-21.033-384.706-.127-11.798-55.396-29.21-140.675-36.244-192.93 0 0-.003 0-.005 0-15.34 0-27.775-12.435-27.775-27.774s12.435-27.774 27.774-27.774 27.775 12.435 27.775 27.774c0 11.457-6.938 21.291-16.841 25.537 21.46 38.757 64.155 61.653 109.378 57.567 48.203-4.569 89.369-38.9 103.104-85.512-13.045-2.278-22.965-13.653-22.965-27.352 0-15.34 12.435-27.774 27.774-27.774s27.774 12.435 27.774 27.774c0 13.698-9.919 25.073-22.965 27.352 13.736 46.61 54.902 80.942 103.104 85.512 45.227 4.087 87.918-18.811 109.377-57.568-9.902-4.246-16.84-14.079-16.84-25.536 0-15.34 12.436-27.774 27.775-27.774s27.776 12.434 27.776 27.774zm-403.786 141.541-27.305-28.59-10.229 38.188 27.307 28.591zm174.995-11.443-27.209-41.936-27.207 41.937 27.207 41.937zm158.11 21.041-10.229-38.188-27.305 28.59 10.227 38.189z"/></g><g id="Capa_1"/></svg>