<svg id="svg7727" height="32" viewBox="0 0 32 32" width="32" xmlns="http://www.w3.org/2000/svg" xmlns:cc="http://creativecommons.org/ns#" xmlns:dc="http://purl.org/dc/elements/1.1/" xmlns:inkscape="http://www.inkscape.org/namespaces/inkscape" xmlns:rdf="http://www.w3.org/1999/02/22-rdf-syntax-ns#" xmlns:sodipodi="http://sodipodi.sourceforge.net/DTD/sodipodi-0.dtd" xmlns:svg="http://www.w3.org/2000/svg"><pattern id="EMFhbasepattern" height="6" patternUnits="userSpaceOnUse" width="6"/><pattern id="EMFhbasepattern-6" height="6" patternUnits="userSpaceOnUse" width="6"/><pattern id="EMFhbasepattern-9" height="6" patternUnits="userSpaceOnUse" width="6"/><pattern id="EMFhbasepattern-0" height="6" patternUnits="userSpaceOnUse" width="6"/><pattern id="EMFhbasepattern-1" height="6" patternUnits="userSpaceOnUse" width="6"/><pattern id="EMFhbasepattern-2" height="6" patternUnits="userSpaceOnUse" width="6"/><pattern id="EMFhbasepattern-5" height="6" patternUnits="userSpaceOnUse" width="6"/><pattern id="EMFhbasepattern-19" height="6" patternUnits="userSpaceOnUse" width="6"/><pattern id="EMFhbasepattern-17" height="6" patternUnits="userSpaceOnUse" width="6"/><pattern id="EMFhbasepattern-8" height="6" patternUnits="userSpaceOnUse" width="6"/><pattern id="EMFhbasepattern-22" height="6" patternUnits="userSpaceOnUse" width="6"/><pattern id="EMFhbasepattern-60" height="6" patternUnits="userSpaceOnUse" width="6"/><pattern id="EMFhbasepattern-54" height="6" patternUnits="userSpaceOnUse" width="6"/><pattern id="EMFhbasepattern-4" height="6" patternUnits="userSpaceOnUse" width="6"/><pattern id="EMFhbasepattern-48" height="6" patternUnits="userSpaceOnUse" width="6"/><pattern id="EMFhbasepattern-04" height="6" patternUnits="userSpaceOnUse" width="6"/><pattern id="EMFhbasepattern-14" height="6" patternUnits="userSpaceOnUse" width="6"/><pattern id="EMFhbasepattern-18" height="6" patternUnits="userSpaceOnUse" width="6"/><pattern id="EMFhbasepattern-50" height="6" patternUnits="userSpaceOnUse" width="6"/><pattern id="EMFhbasepattern-91" height="6" patternUnits="userSpaceOnUse" width="6"/><pattern id="EMFhbasepattern-05" height="6" patternUnits="userSpaceOnUse" width="6"/><pattern id="EMFhbasepattern-57" height="6" patternUnits="userSpaceOnUse" width="6"/><pattern id="EMFhbasepattern-59" height="6" patternUnits="userSpaceOnUse" width="6"/><pattern id="EMFhbasepattern-11" height="6" patternUnits="userSpaceOnUse" width="6"/><pattern id="EMFhbasepattern-7" height="6" patternUnits="userSpaceOnUse" width="6"/><pattern id="EMFhbasepattern-96" height="6" patternUnits="userSpaceOnUse" width="6"/><pattern id="EMFhbasepattern-95" height="6" patternUnits="userSpaceOnUse" width="6"/><g id="layer1" fill="#3b3c3d" transform="translate(0 -1020.362)"><path id="path14641" d="m15.99024 1022.8622c-4.97418 0-8.98898 3.9961-8.99024 8.9258v13.5684c.0000333 0 .0000333.01 0 .01h18c-.000033 0-.000033-.01 0-.01v-13.586c-.011-4.9297-4.03557-8.9082-9.00976-8.9082z" text-indent="0" text-align="start" text-decoration-line="none" text-decoration-style="solid" text-decoration-color="#000000" text-transform="none" white-space="normal" isolation="auto" mix-blend-mode="normal" solid-color="#000000" solid-opacity="1"/><path id="path14643" d="m4 1046.3622h24v3.5h-24z" text-indent="0" text-align="start" text-decoration-line="none" text-decoration-style="solid" text-decoration-color="#000000" text-transform="none" white-space="normal" isolation="auto" mix-blend-mode="normal" solid-color="#000000" solid-opacity="1"/></g></svg>