<svg id="Glyph" enable-background="new 0 0 32 32" height="512" viewBox="0 0 32 32" width="512" xmlns="http://www.w3.org/2000/svg"><path d="m11.474 29.769c-4.077.595-7.39-.099-8.268-.976-.88-.88-1.574-4.209-.97-8.301 2.612 3.689 5.706 6.793 9.238 9.277z"/><path d="m20.492 2.236c4.092-.604 7.422.091 8.302.97.877.877 1.571 4.191.976 8.268-2.485-3.532-5.589-6.626-9.278-9.238z"/><path d="m17.758 2.812c-3.143.883-6.498 2.576-9.434 5.512s-4.629 6.291-5.512 9.434c3.056 4.773 6.89 8.612 11.415 11.434 3.147-.882 6.508-2.576 9.448-5.516s4.635-6.302 5.516-9.448c-2.821-4.526-6.66-8.36-11.433-11.416zm.766 6.294c-.366.217-.726.454-1.084.692l.736.736c.293.293.293.768 0 1.061s-.768.293-1.061 0l-.916-.916c-.529.398-1.05.814-1.557 1.257l1.066 1.066c.293.293.293.768 0 1.061s-.768.293-1.061 0l-1.106-1.106c-.21.204-.324.263-1.376 1.438l1.076 1.076c.293.293.293.768 0 1.061s-.768.293-1.061 0l-.984-.984c-.424.528-.823 1.067-1.198 1.616l.775.775c.293.293.293.768 0 1.061s-.768.293-1.061 0l-.544-.544c-.223.373-.451.745-.652 1.126-.193.366-.647.507-1.013.314s-.507-.646-.314-1.013c.272-.516.572-1.022.882-1.524l-.827-.829c-.293-.293-.293-.768 0-1.061s.768-.293 1.061 0l.614.614c.381-.545.784-1.08 1.21-1.604l-.417-.417c-.293-.293-.293-.768 0-1.061s.768-.293 1.061 0l.332.332c1.119-1.242 1.136-1.204 1.377-1.438l-.301-.301c-.293-.293-.293-.768 0-1.061s.768-.293 1.061 0l.337.337c.505-.444 1.023-.863 1.549-1.265l-.479-.479c-.293-.293-.293-.768 0-1.061s.768-.293 1.061 0l.646.646c.462-.315.93-.615 1.405-.896.357-.211.817-.094 1.027.263.21.358.092.818-.264 1.028z"/></svg>