<svg id="a4ca7dc5-a8d1-42dc-81b0-68c22468270a" viewBox="0 0 64 64" xmlns="http://www.w3.org/2000/svg" data-name="glyph"><path d="m15.39778 10.35622h21.2879v-6.35622h-21.2879a1.37449 1.37449 0 0 0 -1.3745 1.3745v3.60722a1.37853 1.37853 0 0 0 1.3745 1.3745z"/><path d="m34.50175 39.057h-22.32016v3.56112a.67124.67124 0 0 0 .66823.66822h21.65193z"/><path d="m16.794 31.837 22.11639.15483 2.69732-19.33759a.56565.56565 0 0 0 -.57851-.66826h-21.88017a3.92119 3.92119 0 0 1 .34229 2.25725zm5.085-16.64027a.81625.81625 0 0 1 .80674-.709h14.91263a.82173.82173 0 0 1 .80673.92085l-1.71126 13.3155a.81732.81732 0 0 1 -.80674.71712h-15.02679a.82916.82916 0 0 1 -.80674-.929z"/><path d="m36.669 16.118h-13.274l-1.598 11.693h13.373z"/><path d="m51.45169 7.56922-8.52388-3.52033-.24647-.04889h-4.36585v6.35622h2.71363a2.227 2.227 0 0 1 2.19206 2.5262l-2.78697 20.04658a.87177.87177 0 0 1 -.1711.39929l-4.13155 5.19908v4.759a2.69941 2.69941 0 0 1 2.75436 2.69733v13.4296a2.00147 2.00147 0 0 1 -.08151.5867h11.8948a1.11919 1.11919 0 0 0 1.1192-1.11919v-50.76557a.59491.59491 0 0 0 -.36672-.54602zm-7.22817 48.63336a.815.815 0 0 1 -1.6298 0v-2.80326a.815.815 0 0 1 1.6298 0zm3.23514 0a.815.815 0 0 1 -1.62981 0v-2.80326a.815.815 0 0 1 1.6298 0z"/><path d="m37.94877 33.62165-21.709-.163-3.17807 3.96857h21.86382zm-19.23165 2.97441a1.06766 1.06766 0 0 1 0-2.13509 1.06766 1.06766 0 0 1 0 2.13509zm5.78578 0a1.0678 1.0678 0 0 1 0-2.13509 1.0678 1.0678 0 0 1 0 2.13509zm5.79393 0a1.06766 1.06766 0 0 1 .00005-2.13509 1.06766 1.06766 0 0 1 -.00005 2.13509z"/><path d="m36.18861 44.91617h-21.269c.7153 1.367.23541 12.29005.36688 13.96465a1.11894 1.11894 0 0 0 1.11907 1.11918h20.26381a.58675.58675 0 0 0 .58675-.58675v-13.42956a1.06751 1.06751 0 0 0 -1.06751-1.06752zm-2.52623 3.39a1.06762 1.06762 0 0 1 0 2.135 1.06762 1.06762 0 0 1 0-2.13499zm-4.10708 0a1.06778 1.06778 0 0 1 0 2.135 1.06778 1.06778 0 0 1 0-2.13499zm5.76135 4.97088h-.83937v3.12109a1.21722 1.21722 0 0 1 -1.21419 1.21419h-3.3085a1.212 1.212 0 0 1 -1.2142-1.21419v-3.12108h-.72527a.815.815 0 0 1 0-1.6298h7.30149a.815.815 0 0 1 .00004 1.6298z"/><path d="m30.37 53.277h2.477v2.705h-2.477z"/></svg>