<svg id="Capa_1" enable-background="new 0 0 512 512" height="512" viewBox="0 0 512 512" width="512" xmlns="http://www.w3.org/2000/svg"><g><g><path d="m484.024 345.569c-16.192 19.115-25.021 43.091-25.021 68.428 0 25.308 8.991 49.5 25.099 68.523 17.257-17.652 27.898-41.799 27.898-68.435 0-26.676-10.673-50.856-27.976-68.516z"/><path d="m343.419 481.857c15.887-19.021 24.542-42.774 24.542-67.86 0-24.939-8.764-48.848-24.468-67.76-16.919 17.599-27.323 41.507-27.323 67.848 0 26.303 10.373 50.18 27.249 67.772z"/><path d="m460.079 500.54c-19.952-24.189-31.075-54.672-31.075-86.543 0-31.906 10.909-62.133 30.958-86.429-13.686-7.272-29.298-11.398-45.876-11.398-16.926 0-32.847 4.295-46.737 11.854 19.655 24.107 30.613 54.392 30.613 85.973 0 31.764-10.811 61.866-30.69 86.106 13.906 7.585 29.856 11.897 46.813 11.897 16.626 0 32.28-4.149 45.994-11.46z"/></g><g><path d="m495.717 16.282c-21.709-21.709-56.906-21.709-78.615 0l-99.424 99.424c-12.088 12.088-23.676 24.665-34.736 37.7l-68.027 89.409c-9.041 11.883-18.494 23.45-28.402 34.621-6.686 7.537-13.472 14.985-20.353 22.344l46.059 46.06c7.359-6.881 14.807-13.667 22.344-20.353 11.17-9.908 22.737-19.361 34.621-28.402l89.409-68.027c13.035-11.06 25.612-22.648 37.7-34.736l99.424-99.424c21.709-21.71 21.709-56.907 0-78.616z"/><path d="m145.386 321.432c-2.162 2.197-4.326 4.392-6.505 6.572l-62.116 62.116c6.228 3.362 12.004 7.646 17.149 12.791l15.173 15.173c5.146 5.145 9.429 10.921 12.792 17.149l62.116-62.116c2.18-2.18 4.375-4.343 6.572-6.505z"/><path d="m67.838 509.656-65.495-65.495c-3.124-3.124-3.124-8.19 0-11.314l8.723-8.723c17.02-17.02 44.615-17.02 61.635 0l15.173 15.174c17.02 17.02 17.02 44.615 0 61.635l-8.723 8.723c-3.123 3.124-8.189 3.124-11.313 0z"/></g></g></svg>