<svg id="Layer_1" enable-background="new 0 0 25 25" height="512" viewBox="0 0 25 25" width="512" xmlns="http://www.w3.org/2000/svg"><g><path d="m3.3 20h5.5l-.5 2h-2.2c-.6 0-1 .4-1 1 0 .5.4 1 1 1h12.8c.6 0 1-.5 1-1 0-.6-.4-1-1-1h-2.1l-.5-2h5.5c1.5 0 2.8-1.3 2.8-2.8 0-4.8 0-8.4 0-13.3 0-1.5-1.3-2.8-2.8-2.8h-18.5c-1.5-.1-2.8 1.2-2.8 2.7v13.3c0 1.6 1.2 2.9 2.8 2.9zm-.8-16.2c0-.4.4-.8.8-.8h18.4c.4 0 .8.4.8.8v10.2h-20z"/><path d="m18.5 10.4c-.5 0-.8-.3-1-.6-.2-.4-.1-.8.2-1.1l.1-.1c.4-.4.4-1 0-1.4l-.7-.7c-.4-.4-1-.4-1.4 0l-.1.1c-.2.4-.6.4-1 .3 0 0 0 0-.1 0-.4-.1-.6-.5-.6-.9v-.1c0-.5-.4-1-1-1h-.9c-.5 0-1 .4-1 1v.1c0 .4-.2.8-.6.9 0 0 0 0-.1 0-.3.1-.7.1-1-.2v-.1c-.4-.4-1-.4-1.4 0l-.7.7c-.4.4-.4 1 0 1.4l.1.1c.3.2.4.6.2 1-.2.4-.5.6-.9.6h-.1c-.5 0-1 .4-1 1v.6h4v-.1c0-1.7 1.3-3 3-3s3 1.3 3 3v.1h4v-.6c0-.5-.5-1-1-1z"/></g></svg>