<svg id="Capa_1" enable-background="new 0 0 512 512" height="512" viewBox="0 0 512 512" width="512" xmlns="http://www.w3.org/2000/svg"><g><path d="m96.369 362.592c-15.933-28.013-28.951-57.614-38.694-87.982-1.95-6.077-3.77-12.192-5.459-18.331-19.865-5.225-52.216-11.863-52.216-11.863v18.38c0 43.691 24.783 111.868 94.629 160.223 28.138 19.48 58.409 31.526 88.673 35.436-32.571-19.449-61.788-51.655-86.933-95.863z"/><path d="m459.786 256.279c-1.69 6.14-3.51 12.254-5.46 18.331-9.743 30.368-22.762 59.969-38.694 87.982-25.144 44.207-54.361 76.413-86.933 95.862 30.264-3.91 60.537-15.956 88.673-35.435 69.846-48.354 94.628-116.532 94.628-160.223v-18.38s-32.351 6.638-52.214 11.863z"/><path d="m187.309 425.167c-23.09-34.783-34.803-80.261-34.803-135.233 0-45.308 6.528-85.324 15.386-118.794-41.852-38.649-76.995-55.274-79.37-56.373l-19.059-8.819-2.161 20.888c-.443 4.283-10.105 106.205 55.144 220.925 19.47 34.23 41.226 60.176 64.863 77.406z"/><path d="m359.495 289.934c0 54.766-12.01 100.456-35.686 135.867 23.978-17.225 46.034-43.385 65.746-78.041 65.249-114.721 55.588-216.642 55.145-220.925l-2.161-20.888-19.059 8.819c-2.376 1.099-37.515 17.723-79.363 56.367 8.883 33.558 15.378 73.544 15.378 118.801z"/><path d="m256 53.545s-24.401 34.433-36.896 62.239c-17.035 37.908-36.598 98.016-36.598 174.15 0 116.966 57.591 150.535 73.494 158.516 13.334-6.012 73.495-41.551 73.495-158.516 0-77.783-20.419-138.838-37.702-176.582-12.041-26.298-35.793-59.807-35.793-59.807z"/></g></svg>