<?xml version="1.0" encoding="iso-8859-1"?>
<!-- Generator: Adobe Illustrator 19.0.0, SVG Export Plug-In . SVG Version: 6.00 Build 0)  -->
<svg version="1.1" id="Capa_1" xmlns="http://www.w3.org/2000/svg" xmlns:xlink="http://www.w3.org/1999/xlink" x="0px" y="0px"
	 viewBox="0 0 512 512" style="enable-background:new 0 0 512 512;" xml:space="preserve">
<g>
	<g>
		<path d="M285.518,286.222c19.295,9.837,38.33,21.298,56.897,34.27c50.676,35.405,80.178,69.605,81.409,71.044l21.298,24.823
			l-1.202,1.031h53.02c8.316,0,15.059-6.742,15.059-15.059V245.221C491.256,244.961,373.672,245.46,285.518,286.222z"/>
	</g>
</g>
<g>
	<g>
		<path d="M213.721,163.112c-48.463,0-89.261,34.135-98.931,80.152c5.389,0.03,10.863,0.159,16.396,0.409
			c39.617,1.788,79.69,10.71,119.107,26.516c0.1,0.04,0.202,0.083,0.302,0.123c18.502-10.693,39.204-20.157,61.806-28.137
			C302.314,196.99,261.902,163.112,213.721,163.112z"/>
	</g>
</g>
<g>
	<g>
		<path d="M400.954,411.133c-0.285-0.333-28.732-33.202-76.493-66.444c-43.557-30.315-112.681-67.23-194.634-70.929
			c-58.049-2.619-110.944,9.065-111.472,9.183L0,286.99v115.341c0,8.316,6.742,15.059,15.059,15.059h391.264L400.954,411.133z"/>
	</g>
</g>
<g>
	<g>
		<path d="M213.721,94.61c-8.317,0-15.059,6.742-15.059,15.059v23.424c0,8.316,6.742,15.059,15.059,15.059
			c8.316,0,15.059-6.742,15.059-15.059v-23.424C228.78,101.352,222.037,94.61,213.721,94.61z"/>
	</g>
</g>
<g>
	<g>
		<path d="M161.199,143.131l-11.713-20.286c-4.158-7.202-13.368-9.67-20.57-5.511c-7.202,4.158-9.67,13.368-5.512,20.57
			l11.713,20.286c2.789,4.832,7.851,7.531,13.055,7.531c2.554,0,5.144-0.651,7.515-2.02
			C162.889,159.543,165.357,150.333,161.199,143.131z"/>
	</g>
</g>
<g>
	<g>
		<path d="M107.691,185.616l-20.286-11.713c-7.204-4.158-16.413-1.691-20.57,5.512c-4.158,7.202-1.691,16.412,5.511,20.57
			l20.286,11.713c2.371,1.369,4.96,2.02,7.515,2.02c5.204,0,10.266-2.701,13.055-7.531
			C117.36,198.984,114.893,189.774,107.691,185.616z"/>
	</g>
</g>
<g>
	<g>
		<path d="M360.609,179.415c-4.157-7.202-13.368-9.67-20.57-5.512l-20.287,11.713c-7.202,4.158-9.67,13.368-5.512,20.57
			c2.789,4.831,7.85,7.531,13.055,7.531c2.554,0,5.144-0.651,7.515-2.02l20.287-11.713
			C362.299,195.827,364.767,186.617,360.609,179.415z"/>
	</g>
</g>
<g>
	<g>
		<path d="M298.526,117.334c-7.203-4.161-16.414-1.692-20.57,5.512l-11.713,20.286c-4.158,7.202-1.691,16.411,5.512,20.57
			c2.371,1.369,4.96,2.02,7.515,2.02c5.204,0,10.267-2.701,13.055-7.531l11.713-20.286
			C308.196,130.703,305.728,121.493,298.526,117.334z"/>
	</g>
</g>
<g>
</g>
<g>
</g>
<g>
</g>
<g>
</g>
<g>
</g>
<g>
</g>
<g>
</g>
<g>
</g>
<g>
</g>
<g>
</g>
<g>
</g>
<g>
</g>
<g>
</g>
<g>
</g>
<g>
</g>
</svg>
