<svg id="Layer_1" height="512" viewBox="0 0 90 90" width="512" xmlns="http://www.w3.org/2000/svg"><path clip-rule="evenodd" d="m51.437 16.729c-3.161-.142-3.161 4.677 0 4.531h3.379l2.52 6.422h-10.806c-3.281 0-5.843 2.337-6.661 5.384-.532 1.984-2 1.911-4.234 1.911h-3.915c-2.224 0-3.328-.968-5.141-2.046-1.599-.948-2.634-1.338-5.036-1.338h-9.953c-2.141 0-3.869 1.724-3.869 3.87v3.316c0 1.276.645 2.396 1.552 3.094-.652.432-1.287.901-1.896 1.401-.646.536-1.25 1.125-1.844 1.718-2.833 2.833 1.125 6.505 3.271 4.167 3.245-3.53 7.609-5.593 12.4-5.593 4.38 0 8.587 1.739 11.687 4.839 2.056 2.061 3.473 4.623 4.249 7.385.188.667.312 1.452.421 2.071l-15.128.115c-2.712.021-2.712 4.422-.037 4.422h5.146c-.948 2.583-3.422 4.437-6.338 4.437-3.724 0-6.75-3.021-6.75-6.75 0-3.724 3.026-6.749 6.75-6.749 1.683 0 3.208.629 4.39 1.651h7.74c-.652-1.557-1.6-2.995-2.818-4.213-2.468-2.469-5.817-3.859-9.312-3.859-7.27 0-13.166 5.901-13.166 13.17 0 7.271 5.896 13.166 13.166 13.166 6.479 0 11.858-4.687 12.958-10.853h12.029c6.896 0 7.974-1.718 9.963-6.567l6.249-15.233 7.849 19.987c1.109 2.819 5.333 1.156 4.224-1.661l-2.203-5.588c3.724.005 6.738 3.025 6.738 6.749 0 3.729-3.025 6.75-6.749 6.75-3.729 0-6.75-3.021-6.75-6.75 0-.817.146-1.593.411-2.317l-2.808-7.13c-2.473 2.39-4.02 5.734-4.02 9.447 0 7.271 5.896 13.166 13.166 13.166s13.171-5.895 13.171-13.166c0-3.488-1.39-6.838-3.859-9.311-2.473-2.469-5.822-3.859-9.312-3.859-.828 0-1.641.089-2.428.235l-3.541-8.999h1.704c1.728 0 2.759-.5 2.759-2.131v-6.21c0-1.629-1.032-2.129-2.759-2.129h-1.048c-1.618 0-3.052.738-4.005 1.891l-4.473-11.411c-.421-1.074-1.266-1.432-2.114-1.432z" fill-rule="evenodd"/></svg>