<svg height="512" viewBox="0 0 64 64" width="512" xmlns="http://www.w3.org/2000/svg"><g id="_x30_4_Rifle"><g><path d="m17.377 28.096-14.564.91c-1.578.098-2.813 1.414-2.813 2.994v9c0 1.033.521 1.979 1.392 2.532.481.306 1.037.468 1.608.468.439 0 .881-.099 1.287-.29l15.942-7.71h2.771c.961 0 1.871-.466 2.434-1.246s.717-1.791.413-2.703c-.121-.364-.271-1.254.04-1.685.175-.242.55-.366 1.113-.366h2v3c0 .552.447 1 1 1h4c.553 0 1-.448 1-1v-3h5c0 .552.447 1 1 1s1-.448 1-1h3c1.654 0 3-1.346 3-3v-3h-25c-2.102 0-4.667 2.912-5.623 4.096zm13.623 1.904h2v2h-2z"/><path d="m63 24v-1c0-.552-.447-1-1-1s-1 .448-1 1v1h-2v-1c0-.552-.447-1-1-1s-1 .448-1 1v1h-7v2h13c.553 0 1-.448 1-1s-.447-1-1-1z"/><path d="m43 21c0-.552-.447-1-1-1h-14c-.379 0-.725.214-.895.553l-.723 1.447h16.618z"/></g></g></svg>