<svg id="Capa_1" enable-background="new 0 0 511.944 511.944" height="512" viewBox="0 0 511.944 511.944" width="512" xmlns="http://www.w3.org/2000/svg"><g><path d="m210.845 359.564-.506-.506c118.325-107.214 190.605-181.309 238.815-234.55 36.724-40.57 20.552-105.93-31.041-124.508 0 0-22.131 94.665-245.847 320.984l-16.907-16.907c-5.855-5.855-5.855-15.387.007-21.249l-21.213-21.213c-17.557 17.557-17.564 46.118-.007 63.675l55.487 55.487c21.178 21.178 21.178 55.642 0 76.82l-8.478 8.478c-21.178 21.178-55.642 21.178-76.82 0l-40.821-40.821-20.647 21.779 40.256 40.256c32.874 32.874 86.373 32.873 119.246 0l8.478-8.478c32.872-32.874 32.872-86.374-.002-119.247z"/><path d="m125.586 444.779 43.942-41.68-43.63-43.63-41.734 44.009c-.001 0 42.339 42.292 41.422 41.301z"/></g></svg>