<svg height="512pt" viewBox="0 -33 512 512" width="512pt" xmlns="http://www.w3.org/2000/svg"><path d="m497 207.847656h-24.816406l4.394531-4.394531c5.859375-5.859375 5.859375-15.351563 0-21.210937-5.859375-5.859376-15.351563-5.859376-21.210937 0l-25.605469 25.605468h-32.578125l34.394531-34.394531c5.859375-5.859375 5.859375-15.351563 0-21.210937-5.859375-5.859376-15.351563-5.859376-21.210937 0l-55.605469 55.605468h-21.070313l24.425782-27.554687c4.289062-4.820313 4.992187-11.851563 1.769531-17.445313-3.234375-5.582031-9.695313-8.511718-15.996094-7.191406l-36.0625 7.375 10.53125-18.246094 75.953125-20.347656c7.996094-2.140625 12.742188-10.371094 10.605469-18.371094-2.125-8.011718-10.371094-12.757812-18.371094-10.601562l-46.976563 12.582031 16.289063-28.210937 34.964844-9.363282c8-2.136718 12.746093-10.371094 10.605469-18.367187-2.140626-8-10.296876-12.730469-18.367188-10.605469l-5.996094 1.601562 11.898438-20.601562c4.144531-7.175781 1.683594-16.347656-5.492188-20.492188-7.164062-4.132812-16.351562-1.683593-20.496094 5.492188l-11.894531 20.605469-1.609375-6c-2.152344-8.011719-10.386718-12.757813-18.367187-10.605469-8 2.140625-12.761719 10.371094-10.605469 18.371094l9.375 34.964844-16.289062 28.214843-12.597657-46.980469c-2.140625-7.996093-10.355469-12.714843-18.371093-10.605468-7.996094 2.140625-12.757813 10.371094-10.605469 18.371094l20.363281 75.953124-10.539062 18.253907-11.640626-34.941407c-2.035156-6.121093-7.761718-10.253906-14.222656-10.253906-6.460937 0-12.1875 4.132813-14.226562 10.253906l-11.648438 34.945313-10.53125-18.246094 20.351563-75.964843c2.136719-7.996094-2.609375-16.230469-10.605469-18.367188-7.953125-2.097656-16.214844 2.621094-18.371094 10.605469l-12.585937 46.984375-16.289063-28.214844 9.363282-34.972656c2.140624-7.996094-2.605469-16.230469-10.605469-18.367188-7.921875-2.125-16.226563 2.605469-18.367188 10.601563l-1.605469 5.992187-11.886718-20.59375c-4.160156-7.179687-13.34375-9.625-20.492188-5.496094-7.175781 4.148438-9.636718 13.316407-5.492187 20.496094l11.894531 20.605469-6.007812-1.609375c-7.921876-2.109375-16.226563 2.625-18.367188 10.605469-2.140625 8.015625 2.605469 16.230469 10.605469 18.371093l34.972656 9.359376 16.285156 28.214843-46.980469-12.585937c-7.941406-2.136719-16.230468 2.609375-18.371093 10.605468-2.136719 7.996094 2.609375 16.230469 10.605469 18.367188l75.953124 20.347656 10.535157 18.246094-36.066407-7.375c-6.328124-1.273438-12.761718 1.609375-15.996093 7.191406-3.222657 5.59375-2.519531 12.625 1.769531 17.445313l24.425781 27.554687h-21.054687l-55.605469-55.605468c-5.859375-5.859376-15.351563-5.859376-21.210937 0-5.859376 5.859374-5.859376 15.351562 0 21.210937l34.394531 34.394531h-32.578125l-25.605469-25.605468c-5.859375-5.859376-15.351563-5.859376-21.210937 0-5.859376 5.859374-5.859376 15.351562 0 21.210937l4.394531 4.394531h-24.761719c-8.285156 0-15 6.714844-15 15s6.714844 15 15 15h24.761719l-4.398438 4.398438c-5.855469 5.855468-5.855469 15.351562 0 21.210937 5.859375 5.855469 15.355469 5.855469 21.210938 0l25.605469-25.605469h32.578124l-34.394531 34.394532c-5.859375 5.859375-5.859375 15.351562 0 21.210937s15.351563 5.859375 21.210938 0l55.605469-55.605469h21.054687l-24.421875 27.554688c-4.292969 4.816406-4.996094 11.851562-1.773438 17.445312 3.238282 5.582032 9.726563 8.539063 15.996094 7.191407l36.066406-7.375-10.535156 18.246093-75.953125 20.34375c-7.996093 2.140626-12.742187 10.371094-10.601562 18.371094 2.136719 8.027344 10.398437 12.832032 18.367187 10.605469l46.984375-12.585937-16.289062 28.210937-34.972657 9.363281c-7.996093 2.140625-12.742187 10.355469-10.605468 18.371094 2.140625 7.996094 10.429687 12.800781 18.371094 10.605469l6.003906-1.609375-11.894532 20.605468c-4.144531 7.179688-1.683593 16.347657 5.492188 20.492188 7.109375 4.105469 16.308594 1.734375 20.496094-5.492188l11.886718-20.59375 1.601563 5.988282c2.15625 8.082031 10.476563 12.734375 18.371094 10.605468 7.996093-2.136718 12.742187-10.371093 10.605469-18.367187l-9.367188-34.972656 16.289062-28.214844 12.589844 46.984375c2.148438 8.066406 10.445313 12.742188 18.367188 10.605469 8-2.136719 12.746094-10.371094 10.605468-18.367188l-20.351562-75.964843 10.53125-18.246094 11.652344 34.941406c2.035156 6.125 7.761718 10.253906 14.222656 10.253906s12.1875-4.128906 14.222656-10.253906l11.640625-34.9375 10.539063 18.253906-20.359375 75.953125c-2.15625 7.996094 2.605469 16.230469 10.601562 18.367188 7.917969 2.136719 16.203125-2.53125 18.371094-10.601563l12.597656-46.984375 16.289063 28.214844-9.375 34.96875c-2.152344 8 2.605468 16.230469 10.605468 18.371094 7.917969 2.132812 16.199219-2.53125 18.367188-10.605469l1.609375-6 11.898437 20.605469c4.148438 7.183593 13.339844 9.625 20.492188 5.492187 7.175781-4.144531 9.636719-13.316406 5.492188-20.492187l-11.894532-20.605469 5.992188 1.605469c8.085937 2.210937 16.230468-2.605469 18.367187-10.605469 2.140625-7.996094-2.605469-16.230469-10.605469-18.367188l-34.964843-9.367187-16.289063-28.210937 46.980469 12.585937c8.011719 2.242187 16.242187-2.59375 18.367187-10.605469 2.140626-7.996094-2.605468-16.230468-10.605468-18.367187l-75.953125-20.347657-10.53125-18.246093 36.066406 7.375c6.253906 1.304687 12.757813-1.609375 15.996094-7.191407 3.222656-5.59375 2.519531-12.625-1.773438-17.445312l-24.425781-27.554688h21.070312l55.605469 55.605469c5.859375 5.859375 15.351563 5.859375 21.210938 0s5.859375-15.351562 0-21.210937l-34.394531-34.394532h32.578124l25.605469 25.605469c5.859375 5.859375 15.351563 5.859375 21.210938 0s5.859375-15.351562 0-21.210937l-4.394531-4.394532h24.820312c8.285156 0 15-6.71875 15-15 0-8.289062-6.714844-15.003906-15-15.003906zm0 0"/></svg>