<svg id="Layer_1" viewBox="0 0 512 512" xmlns="http://www.w3.org/2000/svg" data-name="Layer 1"><path d="m320.024 150.98 41.269 41.269-10.514 10.522-41.273-41.273zm-304.941 313.21c-9.079 9.1-9.084 23.904 0 32.988 9.094 9.095 23.894 9.096 32.989 0l281.586-281.586-32.974-32.973zm321.913-330.181 41.263 41.262 10.498-10.506-41.258-41.259-10.502 10.502zm26.328-28.619 13.288 13.288 47.408-47.408c4.686-4.686 12.284-4.686 16.971 0 4.687 4.687 4.687 12.285 0 16.971l-47.408 47.408 12.752 12.752 58.111-4.258 39.282-136.143-136.147 39.309-4.258 58.082z"/></svg>