<svg id="Layer_2" enable-background="new 0 0 32 32" height="512" viewBox="0 0 32 32" width="512" xmlns="http://www.w3.org/2000/svg"><path d="m30.92999 2.97998h-29.85998c-.59003 0-1.07001.47998-1.07001 1.07001v19.41998c0 .59003.47998 1.06 1.07001 1.06h8.59998l-1.39997 2.97003c-.25.52997-.02002 1.16998.51001 1.41998.53998.25 1.16998.02002 1.41998-.51001l1.83002-3.88h7.93994l1.82001 3.88c.19.38.57001.60999.97003.60999.14996 0 .31-.02997.45001-.09998.53998-.25.76996-.89001.51996-1.41998l-1.39996-2.97003h8.59998c.59003 0 1.07001-.46997 1.07001-1.06v-19.41998c-.00001-.59003-.47999-1.07001-1.07002-1.07001zm-3.36999 18.17999h-2.94c-.58002 0-1.06-.47998-1.06-1.07001 0-.58997.47998-1.06 1.06-1.06h2.94c.59003 0 1.07001.47003 1.07001 1.06-.00001.59003-.47999 1.07001-1.07001 1.07001z"/></svg>