<svg id="Layer_1" enable-background="new 0 0 512 512" height="512" viewBox="0 0 512 512" width="512" xmlns="http://www.w3.org/2000/svg"><g><path d="m311.211 178.149s6.762-11.999 6.762-11.999c1.004-1.781 1.531-3.791 1.531-5.835v-28.905c0-3.93 1.943-7.606 5.19-9.82 0 0 30.293-20.654 30.293-20.654 1.301-.887 2.765-1.507 4.307-1.823 0 0 21.364-4.382 21.364-4.382 5.528-1.134 9.497-5.999 9.497-11.643v-23.011c0-5.325-3.542-10-8.667-11.441 0 0-9.133-2.569-9.133-2.569-5.48-1.541-11.284 1.02-13.839 6.107-2.017 4.015-6.125 6.55-10.618 6.551 0 0-22.006.005-22.006.005-8.817.002-14.566-9.26-10.653-17.161 0 0 4.774-9.639 4.774-9.639 2.981-6.018.387-13.31-5.726-16.092 0 0-32.443-14.769-32.443-14.769-1.548-.705-3.227-1.069-4.926-1.069h-46.582c-1.818 0-3.612.417-5.244 1.219 0 0-37.796 18.583-37.796 18.583-1.506.74-2.838 1.791-3.908 3.083 0 0-22.031 26.591-22.031 26.591-1.766 2.132-2.733 4.814-2.733 7.583v40.092c0 2.154-.585 4.268-1.694 6.115l-13.539 22.565c-19.132 33.269 12.327 50.117.665 81.637-12.803 34.44-11.124 27.178-8.272 63.735.467 5.839-.233 11.713-2.06 17.279 0 0-9.679 29.499-9.679 29.499-3.489 10.632-2.809 22.192 1.902 32.341 0 0 13.979 30.117 13.979 30.117 1.086 2.339 1.381 4.967.842 7.489 0 0-11.639 54.435-11.639 54.435-.729 3.41.076 6.968 2.202 9.732 0 0 13.406 17.428 13.406 17.428.178.231.364.456.558.673l31.916 37.839c2.255 2.523 5.478 3.966 8.862 3.966h29.312c4.362 0 8.373-2.389 10.451-6.225l3.955-7.301c2.268-4.187 1.818-9.323-1.143-13.052l-17.525-24.192c-.383-.482-.802-.934-1.255-1.351l-12.278-11.31c-4.661-4.293-5.134-11.488-1.075-16.355l11.54-13.836c1.619-1.941 2.577-4.348 2.735-6.872l1.074-17.191c.242-3.864-1.414-7.604-4.437-10.022l-6.349-5.079c-6.738-5.39-5.667-15.937 2.016-19.864l17.545-8.967c2.804-1.433 4.925-3.921 5.896-6.916l7.586-23.39c.725-2.234.771-4.633.133-6.893l-2.737-9.703c-2.497-8.853 5.577-17.065 14.471-14.718l2.323.613c3.799 1.003 7.849.062 10.818-2.511l16.119-13.974c1.663-1.442 3.694-2.393 5.866-2.749l35.09-5.742c5.025-.822 8.967-4.753 9.804-9.775l6.094-36.565c.638-3.828-.633-7.726-3.405-10.442l-15.454-15.146c-3.838-3.765-4.673-9.639-2.032-14.324z"/></g></svg>