<svg id="Layer_1" enable-background="new 0 0 3000 3000" height="512" viewBox="0 0 3000 3000" width="512" xmlns="http://www.w3.org/2000/svg"><g transform="translate(0 -2810)"><g transform="matrix(1.054 0 0 1.054 -20.414 -169.341)"><g id="Icons"><path clip-rule="evenodd" d="m427.575 3472.526c-19.83-36.469-199.834-296.788-142.978-289.259 171.001 4.887 118.609.545 222.073-42.845 219.946-78.107 103.063-88.056 281.667-160.556 65.589-28.744 134.51-41.567 193.706-44.74 70.89-18.932 131.008-44.596 141.056 38.389-.112 59.376-39.467 108.072-26.559 167.92 15.117 149.587 39.643 220.294 169.991 332.826 49.367 37.811 98.622 20.238 149.537 23.993 28.158 1.066 55.798 13.164 78.911 30.386 133.401 106.021 161.698 26.301 277.733 139.446 129.95 88.777 217.232-31.46 308.416 162.849 20.791 44.32 58.469 138.791 27.216 151.597-62.629 33.98-67.926 17.777-25.873 110.556 12.381 25.011 18.219 40.368 18.874 68.397 9.472 140.398 273.459 58.471 311.216 90.533 50.054 43.638 22.35 137.178 61.459 188.342 28.246 39.705 77.864 60.455 111.089 97.324 70.208 73.318-25.595 141.653-2.297 220.562 2.612 16.866 4.889 32.922 1.12 48.806-11.647 44.815-68.172 67.555-66.435 108.798 2.169 35.279 32.219 70.642 24.058 103.667-14.362 35.571-127.38-98.959-154.071-92.86-123.48-42.085-382.508-67.347-518.046-26.68-62.984 17.655-109.858 63.376-141.413 130.053-66.368 130.275-66.176 391.413-121.81 401.167-27.337 1.585-67.883-61.002-95.552-81.347-10.367-9.958-22.156-5.77-43.725 2.067-96.917 35.958-178.269 178.483-199.38 165.653-70.376-124.72-117.495-60.006-195.404-106.854-42.746-27.049-99.438-88.298-136.273-86.368-7.359 3.23-20.867 22.773-33.775 41.5-10.054 14.661-19.309 28.388-24.517 33.36-79.218 68.438-119.909 194.943-244.707 183.197-54.414 1.249 13.977-41.888.613-106.557-25.604-60.786-71.471-89.088-71.71-150.001-4.111-159.576-34.435-146.383-114.251-250.262-7.813-10.957-7.899-11.994-8.248-20.467-.559-42.156 46.611-155.795 55.293-203.815 12.308-71.309-73.835-77.075-91.845-133.961-10.979-29.59-10.312-64.383-23.564-92.319-38.428-70.106-146.075-159.162-81.096-248.18 32.922-43.063 97.107-67.135 125.693-100.104 17.009-15.249 17.657-50.826 11.234-83.424-28.53-128.32-189.907-187.054-107.807-273.886 79.928-91.561 67.385-43.031 41.551-199.173-4.808-36.847 42.546-207.77 58.83-247.73z" fill-rule="evenodd"/></g></g></g></svg>