<svg id="Layer_1" enable-background="new 0 0 512 512" height="512" viewBox="0 0 512 512" width="512" xmlns="http://www.w3.org/2000/svg"><path d="m272.066 512c-3.979 0-7.794-1.58-10.606-4.394l-48.2-48.2c-5.857-5.857-5.857-15.355 0-21.213l22.003-22.003c7.381-7.381 6.481-19.584-1.841-25.828l-34.622-25.96c-3.777-2.833-6-7.278-6-12v-38.929l-23.841-11.921c-5.082-2.54-8.292-7.734-8.292-13.416v-21.322l-37.943-12.647c-6.125-2.042-10.257-7.774-10.257-14.23v-23.93l-42.559 21.278c-5.775 2.89-12.749 1.756-17.314-2.81l-48.2-48.199c-2.813-2.812-4.394-6.628-4.394-10.606s1.58-7.794 4.394-10.606l43.806-43.807v-36.669c0-13.008 7.034-25.078 18.356-31.5 11.188-6.339 24.938-6.254 36.025.19 1.178.648 8.677 5.448 17.419.496 5.267-2.978 8.532-8.581 8.532-14.631v-8.073c0-6.456 4.131-12.188 10.257-14.23l48.2-16.066c7.861-2.619 16.354 1.628 18.974 9.487l12.647 37.943h31.175l27.741-27.74c3.177-3.178 7.609-4.759 12.085-4.32 4.472.442 8.51 2.867 11.002 6.606l29.758 44.636c20.321 9.237 114.703 52.137 154.767 70.342 16.32 7.421 26.862 23.796 26.862 41.717 0 11.933-4.645 23.148-13.077 31.581l-35.123 35.123v58.053c0 3.978-1.58 7.794-4.394 10.606l-64.267 64.266c-2.813 2.813-6.628 4.394-10.606 4.394-26.712 0-49.267 21.566-49.267 49.251v16.081c0 3.978-1.58 7.794-4.394 10.606l-48.2 48.2c-2.812 2.814-6.627 4.394-10.606 4.394z"/></svg>