<svg id="Layer_1" enable-background="new 0 0 3000 3000" height="512" viewBox="0 0 3000 3000" width="512" xmlns="http://www.w3.org/2000/svg"><g transform="translate(-562 -562)"><g transform="matrix(1.023 0 0 1.023 -16.711 -19.046)"><g id="Icons"><path clip-rule="evenodd" d="m826.198 2083.644c-290.024-227.925-104.758-139.84-165.155-295.227-4.312-15.956-5.862-30.368 1.833-43.303 39.62-49.57 91.42-21.866 120.349-20.777 44.69-.044 102.316-7.956 149.73-28.849 32.316-13.917 48.056-31.198 70.344-57.898 75.892-82.325-8.112-117.173 50.719-152.941 23.526-11.866 48.266 4.599 73.169-8.425 27.562-14.378 29.774-49.795 51.449-71.77 45.703-41.428 91.584 23.25 130.275-41.159 14.145-21.42 24.303-48.119 42.192-64.568 59.006-58.715 151.895 80.892 170.368 134.122 9.968 21.763-9.249 65.106-4.317 93.621 17.026 62.445 107.056 40.231 147.863 99.236 37.356 40.472 79.517 102.257 119.547 126.714 106.203 46.456 135.276-65.346 297.681 23.352 27.743 11.792 55.585 20.602 86.636 16.184 47.325-8.298 235.756-82.866 283.542-113.13 49.293-42.834-61.706-115.048 85.766-124.971 9.177-2.006 19.328-8.272 27.56-15.177 46.167-43.73 106.481-68.083 165.085-84.87 33.986-9.63 40.561-20.818 22.251-44.736-8.577-19.118-20.452-27.256-37.678-29.147-58.748-4.741-140.655 49.605-157.546-42.811-10.226-75.679 111.132-98.194 160.872-135.206 66.469-49.179-6.019-143.428 70.752-206.076 55.52-43.543 160.13-15.384 217.658 30.588 44.058 32.439 50.596 93.029 91.467 120.574 80.965 39.456 88.084 3.899 139.872 85.103 38.609 38.888 122.62-181.422 164.722 37.371 25.093 200.877-81.513 95.182-85.965 177.482-.343 26.901 18.028 53.163 19.33 80.429.301 63.491-102.188 114.562-141.756 143.97-26.23 15.032-42.774 43.275-57.554 69.463-44.768 60.042-120.659 112.931-187.746 140.438 2.344-21.995 14.054-49.39 13.56-69.747-1.765-21.727-21.463-43.572-36.174-27.876-81.201 72.331-56.939 72.541-131.273 112.211-19.589 6.172 1.207 126.469 31.838 131.987 71.412 4.42 61.814-69.577 162.774-25.061-5.294 18.998-49.718 35.299-61.573 52.152-29.067 34.279-46.422 85.399-29.311 126.456 63.734 95.198 96.036 31.339 158.223 240.022 11.428 44.675 41.647 89.157 45.517 106.929 15.064 70.862-81.473 95.377-92.963 159.947-19.512 124.44-26.058 115.87-93.812 193.729-166.303 158.825-156.082 49.457-235.389 107.367-81.948 46.663-127.784 95.334-243.987 105.047-18.152-3.98-35.332-17.153-50.234-19.094-112.974-8.741-69.88-26.744-125.851-82.164-22.732-18.905-51.12-26.836-79.333-35.088-21.714-10.987-58.562 20.661-100.56 42.457-73.747 39.422-52.36-7.379-80.098 70.45-10.606 21.215-57.95-.031-79.846-2.193-11.909-1.891-44.091.517-61.884-6.21-11.849-3.471-18.354-19.939-20.642-33.52-1.868-107.079-65.371-73.756-73.104-137.043 7.83-91.93 81.654-186.03 6.289-264.425-16.064-13.875-83.101-45.081-128.674-59.009-63.688-30.915-93.469 64.708-160.947 81.14-55.699 15.495-91.732-33.544-141.715-36.184-41.175-.138-72.367 29.15-107.507 23.787-178.344-9.484-180.468-87.466-287.108-205.744-40.041-63.199-210.866-69.852-182.32-137.577 11.621-21.364 45.84-40.755 58.342-57.593 20.7-50.623-30.46-43.649 4.447-152.759z" fill-rule="evenodd"/></g></g></g></svg>