<svg id="Layer_1" height="512" viewBox="0 0 65 65" width="512" xmlns="http://www.w3.org/2000/svg"><path d="m62.856 32.585c-.109-.136-.129-.412-.15-.704-.029-.412-.063-.878-.403-1.299-.359-.361-.843-.38-1.23-.395-.135-.005-.328-.013-.396-.017-.099-.217-.317-.763-.482-1.177-.539-1.348-.572-1.404-.72-1.547-.376-.3-.851-.341-1.307-.341l-.374.003c-.186 0-.395-.007-.6-.071-.555-.111-1.479-.388-1.884-.646.009.003.006-.007-.017-.049-.062-.128-.227-.467-.615-.467-.065 0-.191.029-.252.054-.366.151-.792.379-.839.814-.014.132.01.246.054.345-.104.014-.226.028-.366.043-.084 0-.265-.058-.369-.163-.058-.057-.092-.193-.127-.336-.061-.244-.137-.547-.443-.847-.201-.151-.495-.248-.798-.333.132-.043.25-.061.357-.076.2-.029.504-.072.66-.37.19-.365.033-.692-.56-1.878-.123-.415-.799-.532-1.141-.188-.037.038-.068.081-.093.128-.086.172-.099.355-.109.503-.001.01-.001.021-.002.031-.135.015-.323-.013-.489-.038-.384-.058-.723-.046-1.11.022-.159.028-.321.06-.476.06-.052 0-.104-.012-.101-.003-.243-.081-.609-.297-.997-.525-.887-.522-1.99-1.172-3.104-1.172-.12 0-.239.008-.373.026-.226.038-.406.182-.483.386-.174.458.182.964 1.096 2.095.128.158.283.351.398.501-.131.054-.313.091-.49.126-.35.07-.745.15-1.102.439-.234.234-.315.551-.381.805-.028.114-.077.304-.07.322-.095.038-.183.057-.264.057-.596 0-1.065-1.128-1.318-1.733-.12-.29-.207-.499-.312-.638-.038-.051-.086-.094-.141-.127l-2.087-1.271c.137-.212.503-.466.788-.664.563-.391 1.146-.795 1.095-1.436-.049-.628-.712-1.024-1.244-1.278-.134-.08-.298-.121-.488-.121-.594 0-1.573.426-2.215.74-.01-.214-.054-.474-.252-.701-.229-.333-.722-.293-1.095-.14-.046.019-.093.039-.14.056-.067-.264-.194-.596-.557-.865-.697-.429-1.373-.458-2.027-.487-.749-.032-1.456-.063-2.279-.73-.281-.205-.272-.331-.254-.608.047-.706-.178-1.204-1.398-1.338-.315-.056-.573-.083-.788-.083-.155 0-.626 0-.903.341-.269.331-.184.735-.116 1.06.047.224.095.456.02.564-.041.059-.195.203-.75.285-.162.024-.301.125-.374.271l-.079.162c-.057.117-.134.277-.093.284-.038 0-.073.004-.11.012-.272 0-.984-.877-1.367-1.349-.757-.933-1.472-1.814-2.286-1.814-.591 0-1.047.442-1.35 1.296-.271.678.463 1.077.96 1.342-.572.349-1.242.563-1.894.771-.631.201-1.283.41-1.82.724-.365.183-.379.576-.379.785-.222.054-.562.035-.873.008-.189-.016-.375-.031-.551-.031-.292 0-.722.035-1.073.327-.391.312-.499.747-.586 1.096-.023.091-.043.172-.066.243-.13-.117-.301-.219-.523-.219-.037 0-.134.014-.17.022-.771.171-1.114.804-1.39 1.312-.145.267-.281.519-.435.638-.052 0-.146-.021-.23-.04-.134-.03-.286-.063-.447-.063-.318 0-.521.136-.558.187-.378.251-.378.686-.378.945 0 .084 0 .226-.011.263-.182 0-.539-.185-.775-.307-.295-.153-.524-.271-.807-.256-2.297.368-3.082 1.863-3.71 3.256-.073-.164-.166-.313-.291-.425-.413-.505-1.088-.639-1.699-.759-.036-.008-.148-.021-.185-.021-.298 0-.545.183-.629.465-.278.941 1.735 3.737 3.579 4.931.056.028.138.059.236.092.328.111.5.199.533.394.097.45.036.484-.3.676-.322.185-.809.463-.925 1.125-.247.743 2.568 4.92 2.6 4.952 1.1 1.101 1.788 1.165 2.34 1.218.365.035.586.056.965.436.288.287.466.679.655 1.093.229.502.466 1.021.956 1.438.424.304 1.013.626 1.638.968 1.562.854 3.505 1.918 3.965 3.232.068.194.249.327.454.335.424.229.831.562 1.26.91.872.71 1.772 1.443 2.975 1.443.369 0 .748-.072 1.071-.199.461-.116.614-.549.705-.808.009-.025.02-.057.031-.087.174.048.384.17.59.289.454.264 1.033.553 1.581.394.162-.047.29-.172.34-.333l.734-2.382c.069.022.148.054.214.08.186.075.378.152.582.152.239 0 .449-.11.514-.226.234-.233.266-.579.23-2.469-.006-.328-.015-.748-.023-.951.126.003.301.05.489.129 0 .202.003.614.38.803.069.035.146.053.224.053.41 0 .737-.218 1-.394.167-.11.339-.226.446-.226 1.516 0 2.861.624 4.286 1.285 1.21.562 2.462 1.143 3.872 1.296.135 0 .282.029.434.057.36.065.736.107 1.031.032.036-.009.07-.021.103-.038.427-.213.69-.584.903-.882.14-.195.283-.396.375-.43.234 0 .702.381 1.012.633.365.298.681.555 1.101.628.294 0 .523-.169.726-.318.039-.028.089-.064.124-.093.406.371.406.643.406.737 0 .252.188.465.438.496.259.035.485-.13.547-.373.809-3.181 2.023-2.909 3.391-2.846 1.379.064 2.998.175 4.597-1.853.207-.311.164-.656.132-.909-.01-.082-.025-.206-.043-.206h-.001c.04-.054.222-.09.368-.119.297-.06.704-.141.974-.5.039-.052.067-.111.084-.175.573-2.221.757-2.972.815-3.249.677-1.143 2.326-2.337 4.903-3.55.139-.065.239-.19.274-.34.032-.143-.003-.3-.099-.42z"/></svg>