<svg id="Layer_1" enable-background="new 0 0 3000 3000" height="512" viewBox="0 0 3000 3000" width="512" xmlns="http://www.w3.org/2000/svg"><g transform="translate(-1686 -1124)"><g transform="matrix(1.122 0 0 1.122 -244.699 -173.299)"><g id="Icons"><path clip-rule="evenodd" d="m1804.944 2743.205c-3.748-17.403 23.67-135.683 28.575-154.597-1.301-6.323 32.895-16.078 51.199-12.791 119.491 15.378 99.936-61.861 213.414 3.29 12.165 4.573 27.64 2.99 39.935-2.905 104.672-45.145 205.5-193.491 249.964-293.144 16.331-43.757 4.055-88.142 28.817-128.814 16.487-27.15 41.97-45.294 61.91-69.329 58.55-86.436 10.405-90.829 98.907-156.827 39.485-40.66-60.675-139.326-18.185-236.533 16.237-46.96 46.144-87.517 65.494-133.605 59.544-169.138 16.001-263.639 174.13-259.442 53.52-1.426 67.952 43.773 104.036 58.154 47.382 24.081 215.339 93.926 237.073 67.721 18.674-13.026 35.227-41.668 49.779-58.954 15.977-23.253 42.812-13.062 67.952-13.545 47.372-5.554 95.988-27.595 142.194-42.906 36.25-12.319 47.37-14.021 82.214-18.676 101.992-12.765 286.196-17.127 343.437-.916 17.945 3.987 42.833 24.259 60.814 42.654 69.95 73.758 109.388 42.252 185.821 23.786 51.901-11.099 55.412 2.338 98.714 39.787 55.241 53.277 116.501 118.417 130.845 148.536 16.765 52.958 13.451 139.611-11.822 187.829-34.047 75.095-153.883 141.719-178.83 232.879-11.409 42.973-3.647 85.556-7.98 129.375-3.149 91.79-120.858 172.537-102.402 231.04 7.369 18.293 26.073 42.79 37.014 63.926 20.588 29.814-7.674 88.364-.502 92.558 6.417 38.676 42.681 218.531 60.774 295.405 5.962 61.424 81.172 109.169 123.645 204.71 28.612 91.558-13.687 51.813-31.299 60.943-114.584 40.607-185.973 16.253-232.616 106.924-36.278 67.499 20.654 105.263 32.506 158.003 12.444 65.799-46.893 100.057-55.354 138.946-13.48 36.126 64.235 123.213 72.308 120.368 10.968 2.161 21.874-7.474 34.552-15.541 65.752-44.783 83.03 67.495 75.037 122.368-4.887 37.604-27.847 35.837-54.648 32.755-94.041-16.128-212.521-165.166-275.417-216.439-14.051-22.636-58.237 34.587-74.795 36.09-33.631 7.81-98.693-21.329-116.624-33.253-12.855-7.377-38.848-36.63-57.767-43.642-7.594 2.839-41.883 21.825-70.7 17.874-31.586-2.887-48.374-51.189-70.336-75.262-18.97-25.606-34.333-17.551-60.803-11.755-93.215 30.254-240.731 91.956-231.998-49.633 1.668-20.945.994-39.433-6.723-59.374-80.536-155.71-4.04-107.95-26.294-211.032-38.854-88.584 58.917-172.011-74.33-139.73-109.163 28.038-65.494-106.947-213.842-45.77-42.176 20.044-72.407 47.378-67.455 86.586-1.033 66.454 2.537 62.664-32.138 55.884-75.36-23.736-76.323-4.052-123.069 3.851-127.073 10.722-126.751-283.499-225.641-303.978-68.377-25.669-142.507 12.745-215.142 13.672-104.789 5.84-207.761-15.686-314.348 12.479z" fill-rule="evenodd"/></g></g></g></svg>