<svg enable-background="new 0 0 283.465 283.465" height="512" viewBox="0 0 283.465 283.465" width="512" xmlns="http://www.w3.org/2000/svg"><g id="Layer_1_6_"><path clip-rule="evenodd" d="m26.145 16.649s-6.103-.809-6.103 6.144 4.698 11.651 2.631 14.093c-2.067 2.443-7.704 13.153-7.141 14.093.564.94 7.515 19.354 7.89 30.065.376 10.711 5.856 182.393 5.856 182.393l137.736-.189s2.63-10.334 5.449-7.14 4.135 6.389 6.013 6.765 34.763.188 34.763.188 4.697 5.637 7.516 6.953c2.818 1.315 9.02 1.127 9.02 1.127l3.195-12.402s5.824-2.255 7.892-2.255 7.141-2.066 7.893-5.261c.751-3.195 1.879-10.711 6.577-10.711s10.246-6.411 10.246-6.411c-.47-1.456-2.302-17.052-2.678-19.683s5.074-3.758 5.074-3.758-12.214-10.523-16.16-15.596c-3.946-5.074-24.616-47.353-26.495-51.957s-.562-6.387-1.689-8.736c-1.128-2.349-6.107-9.584-7.893-13.624-1.785-4.04-.468-3.944-.468-6.293s-1.503-3.664-6.107-8.174-13.716-19.166-14.843-21.139c-1.128-1.973-1.973-7.047-4.698-10.805-2.724-3.758-4.416-10.335-4.228-11.368.188-1.034 7.704-6.765 7.704-6.765s6.296 15.127 10.618 18.227 2.725 7.047 3.852 8.832 4.886 10.053 6.953 14.469 6.577 4.417 9.865 6.671c3.289 2.254 1.409 3.476 4.98 6.483 3.57 3.007 4.792-.658 4.792-.658s1.881-9.77 2.068-17.286c.188-7.516 2.819-9.584 2.631-13.53s.376-8.08 1.128-12.214-20.857-45.099-20.857-45.099c-2.819 3.758-12.587 1.318-12.587 1.318s-13.154-3.007-16.912-4.322-12.59.376-15.784-1.127-12.966-3.946-28.187-4.885-17.476 11.274-23.489 15.595-5.637 4.135-11.838 4.135-8.08-2.819-12.026-3.758c-3.947-.94-11.275-6.201-14.845-6.765-3.571-.563-11.65-.376-18.415-3.007s-12.026-4.698-13.53-5.637c-1.503-.94-10.711-2.443-14.657 0s-10.712 3.004-10.712 3.004z" fill-rule="evenodd"/></g></svg>