<svg id="Layer_1" height="512" viewBox="0 0 65 65" width="512" xmlns="http://www.w3.org/2000/svg"><path d="m17.317 32.743c.211-.35.067-.695-.02-.901-.004-.012-.01-.024-.015-.037.061-.022.157-.05.302-.078.02.123.033.292.042.409.027.35.055.711.201 1.004.095.188.25.286.419.354-.143.265-.272.558-.136.853.081.175.24.298.371.32.421.148.732.218.98.218.128 0 .357-.023.544-.173l.067.069c.168.178.436.447.733.44.111.019.211.026.3.026.817 0 1.006-.648 1.098-.96.029-.101.069-.238.07-.255.005-.003.168-.01.338.001.105.007.215.013.325.013.988 0 1.528-.581 1.651-1.789.065-.877-.039-1.412-.339-1.735-.074-.081-.183-.17-.333-.231.154-.261.223-.546.117-.836-.172-.544-.358-1.098-.858-1.098.061-.083.116-.191.13-.33.111-.506.012-1.135-.258-1.626-.097-.214-.305-.344-.557-.344-.062 0-.136.01-.271.034-.053-.019-.139-.089-.222-.157-.179-.146-.423-.347-.758-.394-.027-.004-.143-.014-.17-.014-.229 0-.423.076-.579.137-.113.044-.211.083-.326.089-.032-.007-.118-.051-.175-.081-.167-.086-.375-.193-.625-.193-.166 0-.32.046-.404.107-.288.143-.448.403-.577.612-.028.046-.068.11-.104.161-.009-.011-.02-.024-.03-.038-.095-.126-.243-.201-.401-.201-1.012 0-1.314.741-1.514 1.23-.107.263-.202.495-.376.649-.093-.009-.214-.031-.34-.052-.253-.042-.523-.083-.71-.083-.104 0-.419 0-.606.26-.078.108-.115.313-.093.445.031.181.12.321.226.434-.537.138-1.163.298-1.227.315-.152 0-.295.069-.39.188-.25.312-.059.708.013.857.28.582 1.93 2.941 3.086 2.941h.002c.794-.067 1.2-.23 1.399-.56z"/><path d="m51.746 48.404c-.723-1.01-2.116-1.673-4.145-1.97-.139-.02-.254-.028-.35-.028-.716 0-.86.493-.93.73-.048.162-.09.307-.28.472-.05-.046-.101-.097-.127-.123-.019-.021-.056-.097-.08-.147-.079-.16-.188-.38-.35-.496-.011-.011-.023-.022-.037-.034.034-.013.072-.018.116-.024.243-.034.61-.086 1.05-.523.988-1.043-.038-2.581-.609-3.424.136-.022.278-.102.358-.205.179-.232.124-.518.05-.8-.089-.311-.271-.65-.465-1.01-.264-.492-.588-1.096-.552-1.508.026-.015.058-.031.082-.044.188-.098.58-.302.58-.768 0-1.011-.605-1.178-.896-1.258-.054-.015-.136-.037-.193-.125-.067-.108-.091-.295-.116-.492-.039-.312-.088-.699-.347-1.002-.626-.773-.804-.888-1.192-1.041-.129-.051-.298-.118-.624-.315-.03-.016-.097-.077-.145-.122-.135-.127-.303-.284-.548-.345-.015-.004-.03-.007-.046-.01-.252-1.25-.538-4.168-.588-5.052 0-.306 0-.652.047-.932.005-.027.019-.077.019-.105.036-.105.111-.325-.059-.652-.152-.203-.355-.309-.519-.394-.09-.047-.176-.092-.199-.113-.108-.125-.238-.535-.333-.835-.176-.554-.327-1.033-.597-1.218-.013-.013-1.154-.941-1.972-1.459.284-.025.777-.189.888-.996.074-.525-.367-.805-.604-.955-.034-.021-.078-.049-.117-.073.008-.016.015-.032.021-.048 1.116-.239 3.366-3.707 3.661-4.209.072-.103.124-.255.079-.472.042-.198.12-.38.179-.466l1.228-1.226c.056-.056.097-.124.121-.198.163-.497.049-.964-.071-1.323-.461-1.02-2.199-1.223-3.596-1.387-.45-.053-.876-.103-1.098-.167-.099-.028-.223-.11-.354-.196-.219-.144-.467-.306-.745-.345-.56-.12-1.158.107-1.632.313-.126.055-.248.108-.351.147.096-.088.167-.183.222-.255.032-.042.049-.071.036-.064.044-.033.104-.069.164-.106.273-.169.584-.36.568-.732-.007-.148-.113-.326-.241-.43l.001-.001c-.05-.041-.104-.076-.164-.105.2-.128.419-.268.642-.41 2.414-1.542 2.664-1.744 2.779-2.033.079-.237.079-.459.079-.637 0-.128 0-.239-.003-.251.026-.042.141-.135.209-.191.212-.174.477-.392.493-.733.009-.188-.064-.37-.176-.479-.118-.142-.337-.311-.706-.311-.186 0-.361.04-.532.079-.123.028-.25.058-.351.058l-.366-.056c-1.181-.183-2.784-.396-3.511-.202-.007.001-.014.003-.02.005-.054-.218-.193-.438-.532-.547-.056-.007-.152-.011-.219-.002-.249-.226-.594-.409-.964-.592-.225-.112-.5-.04-.64.17-.056.083-.12.162-.183.24-.19.235-.426.529-.463.841-.019.056-.028.11-.031.161-.147.032-.32.127-.397.23-.186.248-.142.559-.068.826-.111-.109-.276-.209-.405-.209-.249 0-.471.219-.506.465-.036.253.042.489.122.688-.293-.06-.688.207-.712.518-.014.185.004.343.039.479-.092-.035-.18-.052-.268-.052-.138 0-.347.088-.442.188-.048.053-.085.11-.112.169-.086-.055-.189-.09-.315-.09-.065 0-.185.03-.245.054-.452.185-.618.506-.678.743-.192.757.448 1.665 1.027 2.371l.033.025c.022.055.014.242.008.366-.003.087-.007.176-.007.265 0 .153.021.317.045.483.014.1.043.305.035.413-.065-.003-.134-.013-.202-.022-.124-.017-.245-.031-.354-.031-.496 0-.691.284-.764.453-.103.239-.004.517.226.639.184.097.381.232.516.346-.012.003-.024.005-.037.008-.056 0-.176-.058-.273-.105-.236-.115-.63-.24-.894-.163-.385.096-.847.262-.995.687-.105.301.003.57.14.787-.576-.09-1.134-.042-1.413.334-.121.182-.153.389-.091.581-.354.158-.571.344-.554.667.024.442.462.537.751.599.071.015.186.04.284.068-.139.188-.244.324-.323.422-.202-.133-.539-.187-.958-.018l.003.007c-.147.065-.283.197-.337.33-.087.212-.068.44.044.61.148.261.471.55 1.175.55.539 0 1.234-.18 1.784-.411-.07.243-.076.538-.081.847-.005.252-.012.633-.054.724-.051.061-.27.174-.388.234-.325.167-.661.341-.702.715-.02.181.043.357.221.527-.125.179-.18.366-.076.57.04.1.1.184.177.25l-.358.306c-.028.024-.053.051-.075.08-.229.306-.297.664-.357.979-.044.229-.085.446-.201.604-.029.041-.141.14-.215.206-.267.237-.57.505-.52.884.027.203.155.376.399.495.493.184 1.11.092 1.681-.235.135-.068.253-.219.284-.367.039-.181-.021-.327-.101-.45.049-.063.108-.129.173-.199.167-.184.358-.392.45-.645.099-.195.069-.388.028-.546.017-.051.023-.082.023-.136.004-.013.026-.053.017-.057.037-.017.082-.024.125-.035.193-.046.595-.143.706-.588.07-.385-.06-.745-.175-1.063-.05-.137-.125-.345-.147-.359.143-.112.88-.529 1.457-.837-.012.075-.026.149-.041.223-.051.267-.107.559-.054.851-.048.062-.094.137-.134.227-.111.298-.111.596-.111.835 0 .121 0 .237-.02.341-.464.249-.403.612-.329.821.014.029.071.116.16.237.405.55.57.843.634.998-.004.001-.009.003-.013.004-.145.052-.325.116-.455.248-.695.629-.929.841-.783 1.219.008.022.019.043.03.063-.011.013-.023.026-.035.04-.145.165-.269.292-.374.401-.458.472-.647.739-.658 1.541-.278.007-.698.019-.806.428-.049.184-.027.452.359.684.522.308.889.445 1.19.445.1 0 .236-.016.369-.085.124.157.251.323.307.395.051.076.103.188.159.304.2.414.408.841.849.841.205 0 .393-.106.525-.305.102-.163.165-.327.2-.486.04.067.086.134.142.201.12.12.278.198.434.217.209.146.572.145.746.054.195-.079.342-.2.459-.297.098-.082.176-.146.195-.157.037 0 .112.018.179.033.158.037.364.075.553.05-1.111 1.274-1.072 1.74-1.057 1.922.005.062.021.121.047.176l.583 1.21c-.011.037-.026.081-.037.115-.077.231-.194.582-.023.924.107.215.3.369.605.47.021.005.05.011.079.014-.067.291-.09.577.092.815.126.164.344.235.577.254.101-.008.196-.028.287-.059-.004.042-.005.086-.001.131-.521-.041-.801.159-.917.339-.233.365-.076.815.067 1.117.058.171.163.294.282.388-.265.21-.697.573-.78 1.067-.032.173-.042.358-.031.545-.239.068-.352.221-.403.328-.369-.207-.776-.075-1.022.053-.142.074-.226.109-.438.108-.046-.007-.153-.094-.23-.158-.169-.139-.401-.329-.64-.354-.212-.069-.504.021-.624.214-.059.095-.079.188-.077.276-.258.037-.364.009-.498-.008-.117-.014-.229-.025-.345-.025-.03 0-.076.009-.121.019l-.395-.74c.208-.111.32-.352.246-.585-.084-.263-.366-.407-.628-.324-.522.167-.898.351-1.041.706-.145.363.033.687.19.971.078.143.165.3.25.521-.08.119-.176.324-.063.561.019.039.063.063.094.098-.004.03-.013.065-.016.092-.001.014-.003.026-.003.038-.239.151-.538.258-.806.353-.458.162-1.15.408-.974 1.009.056.328.205 1.2.915 1.199.374 0 .665-.274.946-.541.137-.129.391-.37.47-.387l.08.078c.181.278.375 1.834.343 2.088-.266.621-1.857 1.943-2.488 2.105-.029-.004-.111-.041-.165-.065-.151-.068-.354-.155-.638-.148-.426.061-.639.388-.765.583-.029.045-.07.108-.043.117-.081-.001-.19-.014-.316-.027-.231-.024-.506-.052-.774-.052-1.371 0-1.519.807-1.519 1.153 0 .081-.006.165-.012.251-.023.341-.052.765.219 1.168.083.112.199.19.364.251.001.102.026.206.075.307.187.382.697.643.921.683.358.12.791.091 1.382-.104.073-.024.14-.065.195-.119.106-.105.157-.229.19-.354.18-.048.292-.068.362-.076.077.065.168.11.279.133.123 1.21.148 1.461.46 1.615.405.204.927.02 1.316-.167.122-.059.325-.157.313-.194.138.139.212.39.292.655.121.406.258.866.723 1.189 1.221.689 1.813.293 2.208-.067.131-.12.258-.235.438-.333-.261.184-.291.229-.339.326-.1.199-.129.412-.156.6-.018.129-.045.323-.082.354-.407.323-1.041-.002-1.684-.335-.422-.219-.859-.445-1.277-.511-.393-.07-.726-.104-1.02-.104-1.34 0-1.564.761-1.684 1.17-.015.05-.035.12-.028.145-.018-.019-.036-.038-.055-.057-.153-.155-.362-.367-.678-.367-.068 0-.172.019-.234.045-.493.212-.578.856-.653 1.425-.018.136-.04.351-.015.314-.071.086-.219.154-.375.227-.197.091-.421.194-.533.319-.123.083-.199.184-.251.284-.185-.046-.422-.032-.614.098-.276.197-.436.454-.577.682-.061.098-.116.188-.177.266-.163-.027-.381.006-.528.118-.15.101-.236.259-.256.481-.107.133-.192.2-.236.227-.717.008-2.595.111-2.595.98 0 .747.787.848 1.165.896.157.021.449.058.53.14.02.043.035.183.045.267.032.279.098.86.652.951.027.005.054.007.082.007.481 0 .958-.831 1.307-1.631.049.01.101.021.154.034.264.063.509.156.951-.003.299-.15.377-.454.418-.628.315-.017.747.158 1.151.333.27.116.525.224.76.282.197.046.345.048.465.019.018.019.036.036.053.054.647.642 1.367 1.397 2.153 1.065.835-.39 1.373-2.128 1.592-2.983.125-.022.269-.033.427-.033.905 0 2.066.366 2.54.833.179.144.362.292.437.401-.009.038-.022.078-.033.111-.042.144-.107.361.051.572.095.127.247.203.405.203.132 0 .283-.069.376-.162.03-.029.055-.063.077-.098.111-.186.144-.388.17-.55.003-.021.007-.043.011-.066.161.074.405.214.73.419l.164.102c.078.047.24.095.33.095.102.04.228.091.376.091.257 0 .477-.157.577-.479.031-.188-.01-.357-.075-.506.056.008.113.015.173.022.529.068 1.129.146 1.603.146.471 0 .797-.098.975-.282.124.089.258.162.404.212.062.021.139.027.206.028.021.011.043.02.064.027.039.013.097.023.146.028.132.124.304.205.478.22.313.238.796.238.99.238.529 0 1.185-.095 1.711-.171.3-.043.547-.082.618-.091.117.025.427.25.631.398.445.322.866.627 1.29.627.42 0 .656-.29.798-.463.033-.041.083-.102.102-.115.193-.087.391-.114.618-.146.304-.042.643-.088.981-.295.179.184.478.358 1.157.13.415-.171.465-.593.491-.82.002-.015.004-.03.006-.047.123-.03.278-.049.43-.066.483-.056 1.145-.132 1.354-.856.023-.185.028-.361.033-.532.006-.215.011-.401.027-.499.02-.026.091-.089.133-.126.162-.141.406-.354.325-.691-.037-.159-.199-.324-.351-.385-.521-.207-1.161-.103-1.665.021-.085.021-.168.041-.249.059-.046-.131-.142-.279-.316-.44l-.097-.076c-.012-.009-.023-.019-.035-.027.231-.089.464-.245.633-.52.174-.291.268-.572.284-.819.035.005.072.008.111.008.045 0 .172-.02.216-.031.702-.193 1.21-.333 1.239-.808.007-.108-.014-.198-.052-.274 1.136-.562 2.313-3.009 2.478-3.948.187-.995.022-1.859-.487-2.57z"/><path d="m40.636 4.27c.462 0 .844-.234 1.048-.642.123-.247.023-.547-.223-.67-.103-.052-.205-.093-.304-.132-.093-.037-.18-.072-.229-.104-.036-.024-.076-.044-.118-.058-.04-.014-.083-.026-.128-.038.025-.072.04-.157.04-.235h.002c0-.652-.542-1.246-1.173-1.246-.001 0-.002 0-.003 0-1.19.085-1.256.85-1.248 1.083.033.916 1.32 2.042 2.336 2.042z"/><path d="m23.955 8.971c.543 0 .787-.468.932-.748.023-.043.053-.101.082-.153.136.053.38.075.542-.005.109-.054.189-.125.249-.209.092.048.201.084.33.102 1.033 0 1.199-1.407 1.27-2.008.005-.044.01-.083.007-.091.06-.082.247-.242.374-.351.246-.21.524-.449.693-.719.081-.129.092-.306.041-.449-.012-.033-.021-.134-.026-.201-.021-.239-.069-.8-.633-.91-.026-.003-.114-.009-.138-.009-.459 0-.797.319-1.068.576-.057.054-.113.107-.169.156-.02.013-.039.029-.059.047-.099-.055-.234-.117-.409-.117-.355 0-.615.257-.77.447-.09.089-.144.194-.17.308-.144-.093-.305-.161-.493-.161-.607 0-.855.687-.962.992-.045.18-.049.363-.009.555-.053.041-.103.092-.143.159-.08.131-.099.348-.045.492.034.09.08.169.134.239-.269.063-.406.232-.456.32-.206.308-.203.743.007 1.135.201.378.534.603.889.603z"/></svg>