<svg id="Layer_1" enable-background="new 0 0 3000 3000" height="512" viewBox="0 0 3000 3000" width="512" xmlns="http://www.w3.org/2000/svg"><g transform="translate(-1686 -2248)"><g transform="matrix(1.025 0 0 1.025 -49.485 -66.192)"><g id="Icons"><path clip-rule="evenodd" d="m2327.83 4923.119c89.239-13.77 96.563-53.379 119.297-129.843 3.516-11.777 19.336-38.203 15.879-50.508-19.687-69.902-127.559-75.059-162.129-138.574-49.394-90.646-10.43-197.228-14.531-294.492-2.52-58.594-27.891-119.591-22.383-178.067 6.621-70.839 74.531-104.004 103.417-163.945 36.035-74.883 26.426-168.398 73.77-237.657 43.066-62.929 124.453-105.937 136.406-187.031 17.344-117.539-88.945-231.797-105.351-343.886-7.851-53.556 30.469-102.656 29.414-155.567-.879-44.414-30-82.676-32.871-126.27-4.453-66.972 11.367-135.82 8.613-203.496-5.977-146.367-161.191-231.68 64.102-323.379 56.66-23.086 143.027 18.047 202.382 22.031 98.672 6.679 192.364-32.696 289.629-33.633 47.988-.469 87.949 38.496 138.457 38.438 97.851-.059 192.187 3.749 287.402-23.087 44.121-12.421 80.918-63.925 132.247-39.551 91.114 43.243-16.172 128.73-2.344 183.809 15.352 60.878 168.574 120.644 182.461 198.339 5.449 30.587-25.958 194.591-38.965 224.005-10.84 24.551-58.77 72.128-45.644 98.495 22.324 44.884 84.316-13.593 112.324 30.118 19.921 31.112-32.695 96.152-40.371 121.933-8.848 29.649 25.195 62.755 28.301 89.005 3.223 26.426-23.73 46.523-23.027 73.066 1.758 69.55 91.055 102.715 131.367 143.907 16.289 16.581-79.452 69.081-77.637 87.07 6.856 67.676 39.844 127.031 42.071 197.754 1.465 45.117-46.29 91.583-29.766 136.758 11.719 31.992 53.495 30.058 64.395 54.199 4.746 10.489-89.297 102.715-84.492 139.571 8.261 63.515 91.405 183.573 142.148 225.175 5.214 4.277 106.992 65.684 104.706 74.003-11.191 39.903-56.542 46.699-82.558 71.368-35.684 33.866-38.262 82.968-87.071 109.042-35.976 19.161-57.481-12.129-89.883-6.796-53.554 8.789-99.902 43.359-153.925 53.32-29.004 5.333-61.29-10.898-90.234-1.874-100.019 31.171-164.531 109.335-256.054 152.753-149.18 70.723-301.699 108.75-455.45 165.997-74.004 27.539-105.058 117.657-197.578 115.136-52.852-1.465-91.347-91.757-150-107.402-50.099-13.359-123.047-31.465-166.524-60.234z" fill-rule="evenodd"/></g></g></g></svg>