<svg enable-background="new 0 0 283.465 283.465" height="512" viewBox="0 0 283.465 283.465" width="512" xmlns="http://www.w3.org/2000/svg"><g id="Layer_1_13_" clip-rule="evenodd" fill-rule="evenodd"><path d="m200.291 6.941c.844 3.882 8.269 12.487 2.701 16.369-5.567 3.88-10.799 5.567-15.186 5.567s-4.894-1.855-17.38-4.556c-12.486-2.7-21.429-12.149-31.553-3.543-10.123 8.605-41.842 14.004-55.847 16.029s-23.286 11.812-24.467 12.824-11.98-12.655-14.511-2.362c-2.531 10.291.505 13.16-1.688 14.342-1.215.653-9.644 6.952-19.199 15.191-2.499 2.155 1.332 5.902-.236 8.858-3.257 6.146-10.235 12.243-8.408 17.12 6.073 16.196 13.837 18.054 15.525 23.117 1.687 5.063 3.037 12.487 0 16.537-3.037 4.047-6.749 18.221-.675 16.535 6.074-1.687 14.51-15.524 19.235-11.136 4.724 4.387 8.1 11.137 15.861 8.099s14.173-9.112 22.273-4.05c8.099 5.062 23.623 7.761 22.61 11.474-1.012 3.712-3.713 7.087-8.775 5.4s-11.811-6.413-18.56-6.413c-6.75 0-24.973 3.714-27.334 5.738-2.363 2.025-15.524 5.399-11.137 8.774s9.618 0 13.498 12.485c3.881 12.486-4.724 4.05-1.687 13.498 3.038 9.449 6.413 13.331 8.775 15.693 2.361 2.362 4.724 4.049 5.737-4.387 1.012-8.437 7.424-7.424 8.942-2.193 1.518 5.23 5.316 8.856 5.147 14.172-.168 5.315 2.701 9.028 3.966 7.425 1.266-1.603 1.772-11.222 3.797-12.824 2.024-1.602 6.496-.844 8.774 3.966 2.278 4.809 6.159 8.69 6.159 8.69s6.499 1.265 4.811-3.207-2.616-10.547-3.459-13.751c-1.77-6.726-14.102-23.134-9.329-23.93 6.074-1.013 9.875 5.4 12.489 10.124s8.521 7.593 9.364 7.087c.843-.507 6.496-6.328 7.762-7.931s6.748-6.919-1.35-8.184c-8.099-1.265-13.584-6.581-13.584-6.581s1.944-13.499 8.354-10.293c6.411 3.206 10.292 1.012 13.751 6.919 3.46 5.906 8.188 6.666 10.381 5.822 2.194-.844-6.534-20.536-5.691-24.922s6.918 2.532 9.787 5.399c2.869 2.869 25.142 19.911 28.01 23.623 2.869 3.712 5.998-9.747 1.78-14.977s-8.439-8.606-13.5-12.825c-5.061-4.218-16.121-12.356-16.121-12.356s-.506-16.536-9.28-16.369c-8.774.169-17.885-2.698-20.923-6.242-3.037-3.545-3.881-12.149-3.881-12.149s-6.072-5.905-10.965-15.86c-4.893-9.956-7.086-9.112-9.28-16.536-2.194-7.426-1.35-27.506 3.881-26.662 5.23.843 7.448 14.327 10.653 18.547 3.206 4.219 8.699.057 15.616 3.937 6.918 3.881 12.541 9.07 15.24 7.72 3.985-1.992-1.204-9.552.925-12.111 4.35-5.226 9.873-4.595 3.968-8.813s-12.399-3.375-14.086-8.184c-1.688-4.809-3.627-11.136 1.518-8.605 5.664 2.786 16.085-2.434 18.233-1.094 2.343 1.461 5.749 15.4 11.481 18.65 2.082 1.181 8.615-.159 10.031-5.234 2.023-7.253 2.603-25.724 7.495-22.013 8.282 6.282 13.214 15.678 24.813 9.352 7.426-4.049 6.414-6.581 10.125-13.498 3.712-6.919 7.593-5.907 7.761-13.669.173-7.762-4.214-14.512-23.137-17.623z"/><path d="m115.499 244.761s10.554-2.612 16.122 2.45c5.568 5.061 8.267-10.631 11.979-2.194 3.713 8.438 4.179 14.792 12.614 13.274 8.435-1.517 21.158-.852 25.486.498 6.743 2.104 21.641 4.404 25.254 5.208 4.555 1.012 3.882 9.618.001 10.967s-11.98-2.869-16.704-2.025c-4.724.843-18.393 3.374-20.249 3.374s-14.005.844-16.705-.843c-2.699-1.688-3.206-6.074-7.086-7.424-3.882-1.349-21.43-3.037-23.454-4.388-2.025-1.351-14.007-6.918-7.258-18.897z"/><path d="m267.561 230.414c-4.725 2.868-9.787 8.605-10.293 15.186s-.168 12.317 6.412 9.955c6.581-2.362 10.124-16.367 11.811-18.73 1.688-2.362-1.687-8.436-7.93-6.411z"/><path d="m238.71 179.118c-2.193-1.012-9.954-7.93-13.161-4.218-5.857 6.782-18.217-1.022-19.622 1.322-1.013 1.688-13.969 14.413-10.089 13.907s12.953-1.831 15.483-1.661c2.531.169 2.531 7.425 8.437 3.713 5.906-3.713 11.022-5.805 12.71-5.637 1.687.168 10.124-.676 6.242-7.426z"/><path d="m192.309 113.649c1.752-5.582 2.64-4.745 10.57-9.132 7.93-4.388 13.221 6.264 14.739 8.964 1.519 2.699 12.825 13.668 6.076 15.017-6.75 1.348-12.82-3.625-15.351-4.469-2.53-.844-8.606-.001-11.642-1.351s-4.392-9.029-4.392-9.029z"/><path d="m201.59 139.465c4.724 3.881 8.605 7.088 8.605 11.306s.168 10.63-3.375 12.317c-3.543 1.688-10.631-3.206-9.45-7.255 1.182-4.049-3.712-5.736-3.543-9.617.17-3.882 7.763-6.751 7.763-6.751z"/><path d="m7.953 174.252c2.532 4.389 4.221 5.063 6.075 6.413 13.193 9.599 15.706-9.253 13.277-9.253-3.037 0-8.973-7.744-10.49-7.744-1.519 0-11.392 3.499-8.862 10.584z"/></g></svg>