<svg id="Layer_1" enable-background="new 0 0 3000 3000" height="512" viewBox="0 0 3000 3000" width="512" xmlns="http://www.w3.org/2000/svg"><g transform="translate(-1686)"><g transform="matrix(1.061 0 0 1.061 -123.189 -17.905)"><g id="Icons"><path clip-rule="evenodd" d="m2163.064 1289.012c23.906-31.98-42.833-152.918-75.821-199.313-15-21.146-52.324-40.166-46.64-71.643 27.012-149.848 155.918-35.742 224.59-78.475 85.254-53.08 92.344-162.275 142.09-235.506 21.68-31.922 89.766-76.84 99.961-113.373 11.778-42.24-64.805-80.66-77.754-117.422-26.426-75.357-1.23-170.426-11.66-203.25-13.301-42.094-63.047-56.162-58.77-106.617 7.032-82.523 161.367-62.555 208.594-29.672 42.715 29.742 118.125 91.125 162.832 109.143 57.07 23.039 119.355-71.977 170.566-35.045 94.161 67.91-45 137.766-39.902 203.525 1.875 24.369 37.851 79.418 28.652 99.867-16.171 36.129-67.851 43.805-81.327 83.443-19.981 59.104 138.047 110.215 165.293 141.275 34.16 39.047-35.801 90.486-43.125 129.176-.879 4.84 64.277 36.123 69.96 40.564 33.047 25.834 64.102 72.088 103.477 88.09 55.196 22.412 113.32-1.4 169.687 6.211 81.211 10.951 177.891 119.039 262.266 63.264 48.984-32.373-21.503-134.068 25.254-150.229 110.976-38.373 88.828 81.076 128.086 102.434 4.336 2.367 168.632-17.684 185.273-23.326 16.933-5.76 3.984-46.98 15-63.521 29.004-43.752 84.081-114 131.543-139.992 68.613-37.529 266.367 21.627 278.086 111.65 3.575 27.117-44.356 31.588-62.226 41.953-46.992 27.27-116.778 92.514-136.758 142.74-9.317 23.502 18.398 56.262 22.5 80.309 3.984 23.918-19.395 72.088-30.294 93.598-18.867 37.096-86.66 3.182-102.304 61.061-16.113 59.367 72.714 116.414 29.883 172.846-16.23 21.34-64.864-67.916-71.486-84.82-2.636-6.762-1.757-5.045-3.691-10.084-.878-2.309-1.758-4.599-2.695-6.879-.821-2.033-1.934-5.004-3.399-6.633-17.813-19.641-96.738 28.658-112.793-14.414-28.301-75.949-1.347-99.686 25.606-164.385 5.156-12.422-26.543-4.641-39.903-6.293-26.309-3.258-53.086-3.164-78.458-11.414-55.429-18.023-79.335-118.576-133.065-56.256-64.981 75.369 96.386 272.695 45.996 355.049-35.332 57.838-113.965 51.586-159.082 94.465-24.023 22.787-7.266 53.338-30.645 78.557-22.558 24.311-54.668 35.52-77.578 60.029-92.871 99.375-177.891 205.219-271.934 302.361-53.965 55.74-138.633 52.172-184.102 122.818-17.637 27.41 30 118.658 27.773 160.564-2.285 43.775-33.574 88.277-39.082 133.453-3.457 28.412 18.633 75.018 7.5 99.41-23.204 50.713-103.125 86.912-142.442 123.973-32.754 30.861-54.082 102.428-112.617 92.514-107.403-18.217-95.039-201.557-127.441-279.023-16.934-40.4-53.379-72.053-73.066-112.406-30.235-62.139-23.965-133.834-50.391-196.535-32.051-75.996-83.789-137.496-100.781-219.709-27.597-133.887 13.184-237.885-6.094-360.644-.879-5.66-11.426-42.709-20.332-43.822-31.875-3.979-70.313 55.658-97.5 67.84-42.246 18.914-137.343-46.395-167.578-68.537-53.614-39.299-55.547-52.957-16.523-106.729 11.543-15.873-58.536-63.029-66.446-71.748-.879-.979 2.578-8.051 2.637-8.098 12.011-24.434 75.41-57.662 100.43-71.889 30.294-17.226 85.9 16.002 122.17 5.52z" fill-rule="evenodd"/></g></g></g></svg>