<svg id="Layer_1" enable-background="new 0 0 3000 3000" height="512" viewBox="0 0 3000 3000" width="512" xmlns="http://www.w3.org/2000/svg"><g transform="translate(-2248)"><g transform="matrix(1.035 0 0 1.035 -85.628 -5.985)"><g id="Icons"><path clip-rule="evenodd" d="m2346.293 1440.42 682.089-444.053s-11.367-139.547 4.042-211.33c10.489-48.527 65.449-84.65 63.399-135.697-3.692-90.229-72.247-127.307-22.383-218.906 44.297-81.27 167.227-70.447 229.805-137.197 62.344-66.557 60.352-152.092 162.656-180.814 43.067-12.094 98.672 19.98 140.801 27.902 135.996 25.594 176.894-37.213 240.586 91.623 2.05 4.16 9.082-1.846 13.535-3.117 35.331-10.061 69.961-36.785 106.816-39.199 34.57-2.262 77.109 54.316 96.034 79.512 19.512 26.021 12.364 63.34 26.543 90.803 14.355 27.727 43.067 42.656 54.141 73.582 13.653 38.168 3.164 87.855 30.996 119.525 42.657 48.639 114.434 47.32 171.27 38.549 7.383-1.143 93.574-3.82 91.231 4.459-8.555 29.865-49.863 46.412-57.305 76.752-8.087 32.836 24.315 71.777 9.199 101.461-17.813 34.934-58.243 54.381-79.512 87.375-20.449 31.67-16.583 62.707-29.825 95.631-39.551 98.156-116.542 240.082-48.75 348.269 38.027 60.574 109.805 48 156.563 90.879 37.675 34.564 21.503 91.787 59.472 124.025 26.484 22.471 58.183 35.807 83.965 59.824 30.117 28.09 48.046 66.914 81.621 91.629 26.484 19.512 58.77 24.211 87.48 39.129 60.528 31.453 105.41 89.795 142.677 145.178 53.202 78.943-53.673 221.971-20.918 284.947 10.723 20.613 88.36 14.315 111.621 35.625 34.57 31.705-4.981 75.123 6.27 107.918 22.675 66.352 136.348 103.283 123.339 192.961-2.93 20.121-82.558 9.076-94.628 6.222-94.921-22.4-195.411-82.055-286.114-5.854-73.886 62.115-145.546 306.152-232.147 321.065-73.829 12.72-147.364-26.455-217.384-42.194-84.609-19.014-224.414 41.502-276.034-27.41-98.614-131.649-1225.548-932.549-1335.528-867.363-24.433 14.461-111.328-5.432-128.73-28.547-35.274-46.74-21.621-56.373-68.906-91.84-11.308-8.443-9.491-67.166-12.714-83.502-14.824-74.918-65.273-217.822-65.273-217.822z" fill-rule="evenodd"/></g></g></g></svg>