<svg id="Layer_1" enable-background="new 0 0 3000 3000" height="512" viewBox="0 0 3000 3000" width="512" xmlns="http://www.w3.org/2000/svg"><g transform="translate(-1686 -562)"><g transform="matrix(1.055 0 0 1.055 -120.85 -47.836)"><g id="Icons"><path clip-rule="evenodd" d="m2715.902 2139.404c198.271-264.883 124.887-202.969 158.844-307.543 179.441-364.386 177.877-410.467 244.455-741.326 28.275-164.144 40.268-77.219 85.2-151.454 25.409-57.868 1.229-126.616 75.151-139.128 142.935-5.838 137.068 38.386 191.053-94.167 26.497-61.245 77.806-39.879 80.423-7.127 4.863 30.325-6.224 77.58-8.675 103.617.783 24.483-.128 77.631-10.737 98.604-22.032 54.238-53.376 80.547-43 147.432 3.647 24.546 11.839 54.222 19.674 85.189 64.155 236.416-70.081 149.625-74.856 114.766-11.655-53.258-84.294-70.424-135.169-56.56-33.739 10.132-79.157 74.548-88.27 97.128-6.12 14.264-8.938 27.598-11.128 42.646-13.173 140.342-57.682 192.692-50.697 242.005 2.482 24.823 14.176 52.769 41.325 93.583 65.739 103.811 119.078 77.942 93.079 95.182-101.853 64.917-168.247 116.62-179.76 221.488 6.2 45.835 81.856 73.679 115.542 54.183 40.659-18.943 85.521-69.396 122.83-80.072 51.843-18.159 72.445 77.11 62.318 127.299-32.697 158.903 94.023 116.323-7.113 264.546-98.24 208.332-117.486 254.82-138.086 412.553-23.656 137.487 26.377 134.16-7.907 202.933-79.783 159.386 4.813 118.753-89.679 263.96-9.103 16.498-14.859 28.501-18.014 44.113-28.072 133.688-33.948-1.385-51.688-39.829-14.422-43.251-34.604-81.405-47.642-124.7-35.615-204.083-61.915-186.674-125.537-340.675-13.067-33.546-20.821-65.924-27.069-99.841-34.824-268.65-98.862-318.365-174.867-528.805z" fill-rule="evenodd"/></g></g></g></svg>