<svg id="Layer_1" enable-background="new 0 0 3000 3000" height="512" viewBox="0 0 3000 3000" width="512" xmlns="http://www.w3.org/2000/svg"><g transform="translate(-1686 -1686)"><g transform="matrix(1.034 0 0 1.034 -65.433 -65.496)"><g id="Icons"><path clip-rule="evenodd" d="m1855.563 2905.734c-9.038-58.875-89.296-75.915-68.388-145.915 15.46-48.673 70.847-25.595 112.253-39.187 68.63-37.625 142.497-95.198 225.041-111.3 55.537-13.121 78.355-.128 110.645 14.073 19.585 8.727 42.61 8.542 63.462 12.95 58.268 11.302 18.327 83.181 94.935 90.927 45.869 2.004 81.037-14.982 117.951 14.112 21.878 14.916 41.161 32.807 70.52 31.74 27.702-3.859 79.296-21.264 78.602-48.905-24.23-115.632-22.382-85.856 24.839-181.683 25.113-89.751 62.779-14.51 112.738-4.86 53.917 16.416 112.217 24.486 160.615 51.79 56.409 63.26-10.206 101.545 104.865 133.934 28.59 8.671 49.075 18.481 63.57 14.874 15.825-5.015 39.209-23.354 54.254-30.485 29.653-12.065 83.882-12.297 124.471-8.56 166.94 24.05 122.932 127.405 359.357 133.969 68.619 7.399 84.038-16.106 125.787-35.035 22.688-10.762 49.173-8.019 69.785-24.485 23.793-18.918 28.638-49.204 52.125-66.574 108.742-66.891 120.824-20.317 145.44-10.972 43.931 25.488 117.695-82.041 126.816 13.754-1.493 24.574-12.198 39.32-21.732 61.694-8.547 23.634-8.282 42.959-17.522 66.498-55.235 107.287 32.306 111.733 46.943 106.136 43.776-19.521 63.314 4.819 79.891-6.719 8.214-5.215 12.823-12.408 18.062-20.825 54.365-95.102 154.761-7.558 195.621 48.361 73.793 91.732-87.495 69.292-100.807 79.441-44.748 15.741-79.946 38.441-125.844 61.521-91.414 54.486 15.945 92.468-142.488 142.805-17.585 6.585-34.459 13.841-49.832 25.069-18.698 13.658-32.747 33.073-47.994 48.042-70.872 68.458-115.192-23.127-155.83 13.379-17.603 14.154-26.192 41.579-28.268 65.475-6.887 68.942 86.543 79.269-52.848 140.054-15.408 7.02-28.011 14.202-41.337 27.455-25.451 25.508-35.81 55.63-56.862 80.459-77.611 88.93-207.043-6.556-289.038 60.388-40.469 28.58-74.288 74.899-118.941 94.427-85.362 34.821-72.551-38.707-130.188-43.637-162.123 12.31-108.299-23.966-223.4-71.316-26.932-6.978-52.718-5.776-78.938-3.82-214.013 33.591-184.04-42.03-338.043-34.724-128.978-4.423-89.576-57.549-118.484-116.311-11.15-19.356-23.959-33.675-24.673-59.84-.684-83.838-80.768-53.534-117.036-82.724-12.874-9.625-20.406-20.429-28.449-31.889-52.37-87.333-131.157-26.62-197.759-44.988-12.289-3.586-22.851-15.745-34.393-23.261-10.212-6.369-25.277-9.91-32.722-21.052-28.213-46.801 50.087-133.191 60.236-175.452-.111-27.422-39.765-43.25-46.211-66.74-7.926-19.733-3.061-44.134-10.257-59.865-14.04-27.648-77.072-51.143-100.54-62.203z" fill-rule="evenodd"/></g></g></g></svg>