<svg id="Layer_1" enable-background="new 0 0 3000 3000" height="512" viewBox="0 0 3000 3000" width="512" xmlns="http://www.w3.org/2000/svg"><g transform="translate(-562 -2248)"><g transform="matrix(1.059 0 0 1.059 -48.632 -148.722)"><g id="Icons"><path clip-rule="evenodd" d="m1409.474 3447.344c-25.315-86.671 52.689-33.433 30.757-147.352-2.283-19.641-3.72-38.51 1.743-52.49 3.221-16.3 45.843-8.531 62.473-18.422 10.985-6.505-.712-45 4.203-59.111 1.953-15.423 6.694-24.165 14.156-36.698 42.138-61.147 26.119-88.043 20.802-140.936-11.798-29.611 76.691-3.131 79.419-8.005 32.473 3.792 72.364-94.173 86.412-120.893 9.779-17.908 3.026-46.793 4.953-70.269 8.622-40.551 45.155-69.472 59.528-109.297 18.164-58.205-28.528-93.39 23.363-113.125 206.595-114.668 132.92-75.337 209.027-54.651 9.122-85.312-4.482-66.082 48.336-112.823 6.098-10.402 12.718-49.994 18.596-52.366 12.98 8.278 159.883 138.818 173.323 170.299 53.278 103.683-53.4 189.365-53.919 266.268-1.08 7.426-2.979 13.898-7.052 20.487-40.416 45.002-131.376 64.263-91.539 145.654 23.894 35.133 92.522-11.346 124.584 1.327 12.553 4.609 20.671 23.225 23.875 39.905 5.77 104.602 97.683 81.992 109.036 142.695-20.601 87.07-114.955 88.908 135.219 184.087 85.831 18.181 133.993-29.393 77.892 21.407-60.362 42.096-51.021 58.702-80.896 94.266-74.66 85.592-47.154 54.868-129.391 85.354-13.443 6.22-23.281 16.567-31.732 29.404-63.789 106.726-115.495 41.211-187.29 162.371-50.104 38.021-33.165 73.538 8.464 105.885 47.438 34.754 80.768 45.313 77.906 101.049-11.859 150.553 136.406 121.661 5.704 292.705-12.789 18.017-22.419 32.446-21.701 40.918 19.669 93.235 147.185 116.222 150.601 190.223 1.969 34.351-15.368 73.772-13.404 107.199 1.727 41.254 41.903 69.593 55.85 103.865 20.328 54.582-20.25 139.508-55.77 203.194-23.115 41.957-51.781 66.113-70.99 123.201-35.706 82.308 7.273-103.371 13.356-160.355 7.91-54.904-21.233-104.557-28.88-161.727-3.297-18.438-3.97-35.258.353-54.189 34.658-109.734-64.631-123.372-88.702-208.105-93.268-265.265-4.433-281.873-128.907-441.358-8.095-10.141-49.148 66.792-72 100.507-49.583 57.533-147.447 119.58-225.286 113.674-81.716-11.027-82.449-18.777-71.064-86.659 10.48-74.109 37.2-194.659 15.218-275.551-17.045-44.515-61.458-72.085-75.2-117.287-9.586-29.441-11.317-62.071-24.845-90.014-34.798-64.261-131.346-95.078-176.581-154.261z" fill-rule="evenodd"/></g></g></g></svg>