<svg id="Layer_1" height="512" viewBox="0 0 65 65" width="512" xmlns="http://www.w3.org/2000/svg"><path d="m63.827 36.601c-.167-.59-.271-.96-.742-.989-.029-.027-.079-.078-.152-.17-.127-.155-.045-.455-.001-.616.026-.095.048-.177.045-.274-.002-.04-.009-.08-.02-.118-.117-.408-1.009-.764-1.246-.852.051-.128.108-.26.16-.379.062-.141.12-.275.177-.424.013-.039.033-.079.053-.12.058-.123.131-.275.151-.542-.046-.745-.517-.803-.659-.803-.024 0-.048.001-.071.004-.038-.282-.104-.717-.214-1.404-.02-.12-.081-.228-.174-.306-.085-.07-.174-.12-.266-.148.006-.035.02-.071.031-.108.04-.129.089-.29.069-.514-.04-.237-.167-.416-.307-.561.286-.051.606-.188.768-.555.14-.353.109-.736.079-1.05.076.04.169.092.28.16.151.09.42.052.575-.031.142-.076.237-.214.259-.374.021-.159-.034-.318-.15-.429-.313-.299-.834-.736-1.114-.937-.56-.399-1.164-.45-1.862-.363-.211.026-.447.05-.678.046 0-.001 0-.002-.001-.003-.069-.248-.225-.419-.34-.547-.056-.061-.108-.119-.123-.145-.046-.097.071-.389.148-.583.09-.225.184-.457.205-.707.063-.884-.613-1.32-.977-1.554-.039-.026-.087-.057-.121-.074.006-.108.002-.26-.082-.425-.15-.274-.458-.444-.76-.443-.033.003-.065.007-.096.014-.007-.049-.019-.095-.035-.132-.128-.284-.419-.37-.632-.433-.056-.016-.113-.03-.197-.075-.025-.013-.069-.049-.111-.083-.073-.061-.167-.138-.291-.2-.019-.072-.051-.146-.104-.224-.095-.117-.305-.216-.455-.216-.163 0-.29.064-.397.103-.007 0-.097-.003-.104-.003-.09 0-.364 0-.564.214-.133.138-.187.297-.214.459-.124-.011-.284-.019-.433-.04-.405-.054-.824-.061-1.118.058-.182.067-.289.195-.362.322-.037-.015-.073-.029-.109-.04-.087-.027-.177-.046-.271-.065-.071-.015-.146-.029-.291-.074-.222-.064-.452.026-.57.221-.394.65-.718 1.049-1.373 1.389-.015-.006-.246-.059-.442.106-.226.141-.465.361-.719.595-.323.298-.758.696-1.017.785-.003-.002-.007-.005-.011-.008-.104-.081-.263-.203-.536-.227-.154 0-.275.054-.373.119-.05-.029-.11-.059-.18-.08-.132-.041-.287-.018-.384.015-.252-.207-.541-.405-.852-.405-.064 0-.195.025-.255.049-.149.06-.257.152-.323.235-.113-.044-.31-.074-.458-.021-.189.067-.303.188-.372.271-.042.018-.137.025-.22.032-.15.013-.337.028-.542.115-.22.103-.368.212-.487.3-.123.092-.205.152-.373.21-.043.016-.174.054-.453.054-.377 0-.824-.069-1.104-.142-.036-.166-.151-.325-.35-.479-.133-.095-.284-.145-.439-.145-.357 0-.606.251-.768.435-.037-.02-.075-.042-.107-.061-.009-.005-.019-.011-.028-.016-.093-.191-.268-.267-.395-.303-.146-.027-.299-.016-.454.004-.023-.068-.06-.14-.117-.209-.155-.173-.412-.401-.76-.507-.741-.206-1.249.142-1.485.345-.038.033-.089.076-.072.087-.023-.008-.1-.04-.232-.15-.04-.06-.087-.28-.114-.413-.083-.4-.209-1.006-.714-1.073-.012-.003-.025-.007-.04-.01-.083-.097-.201-.173-.316-.196-.244-.046-.5.07-.749.202-.354.188-.761.371-1.135.085-.254-.197-.298-.311-.305-.311.011-.023.055-.069.078-.094.265-.278.222-.519.161-.625-.177-.428-.606-.492-.813-.523-.043-.006-.086-.011-.106-.019-.11-.065-.499-.153-.71.037-.146.13-.214.288-.264.404-.014.032-.025.065-.048.093-.017.01-.185.096-.893.096-.558 0-1.248-.052-1.857-.099-.54-.041-1.036-.078-1.382-.078-.12 0-.224.004-.271.011-.408.011-.771.233-1.09.43-.111.069-.217.135-.338.192-.105.056-.295.077-.479.097-.189.021-.374.045-.575.107-.635.251-1.198.659-1.743 1.054-.331.239-.664.481-1.031.697-.268.169-.507.303-.712.396-.181-.027-.475.088-.578.28-.149.275-.178.496-.186.681-.068-.023-.158-.044-.276-.044-.002 0-.004 0-.005 0-.369.022-.552.09-.691.164-.053-.009-.156-.031-.351-.083-.103-.032-.254-.112-.421-.196-.473-.237-.833-.406-1.19-.406-.001 0-.003 0-.004 0-.253.007-.402.163-.481.268-.177.063-.639.093-1.154-.026-.217-.039-.546-.119-.86-.195-.666-.161-.872-.216-1.036-.196-.273-.169-.631-.293-1.039-.434-.579-.2-1.235-.427-1.54-.774-.501-.568-.447-.732-.366-.981.052-.158.116-.355.101-.605-.013-.208-.154-.388-.354-.448-.026-.008-.114-.032-.141-.036-.055-.007-.107-.023-.16-.038-.123-.033-.259-.043-.503-.074-.268.017-.492.113-.69.198-.054.023-.106.046-.129.059-.06-.055-.115-.113-.172-.173-.279-.294-.614-.681-1.431-.532-.06.011-.116.033-.168.064l-.538.325c-.011-.004-.022-.008-.031-.012-.184-.072-.567-.123-.73-.032-.326.138-.423.434-.438.623-.01-.001-.018 0-.027 0-.194.003-.52.008-.731.283-.141.183-.177.417-.109.698.033.133.118.246.237.314.437.251.728.703.713.822-.085.05-.157.061-.266.076-.327.046-.67.136-.957.668-.037.069-.058.145-.06.223l-.024.806c-.146.165-.489.459-.602.506-.16.036-.292.147-.354.298l-.133.327c-.057.138-.048.294.022.426.082.153.204.246.322.336l.118.091c.118.084.261.134.448.155-.191.123-.345.276-.437.485-.064.209.003.381.081.5-.024.041-.061.093-.097.146-.15.222-.294.435-.261.666-.036.062-.065.131-.089.208-.079.33-.06.594-.045.807.011.156.016.251-.006.333-.013.021-.029.043-.046.069-.159.233-.399.586-.29.978.059.209.209.378.482.5.143.043.061.052 1.237-.112.042-.006.085-.012.13-.018-.091.051-.167.129-.212.225-.073.156-.016.415.077.56.101.156.251.256.41.361.056.037.148.098.216.15-.159.146-.37.412-.224.774.019.047.045.091.077.13.042.052.089.091.14.121-.161.073-.337.17-.463.304-.258-.212-.765-.272-1.016-.004-.239.25-.236.567-.234.778 0 .022.001.045.001.067-.05.07-.082.139-.099.205-.089.026-.174.076-.235.142-.048.052-.128.157-.144.312-.077.063-.149.154-.182.286-.039.153.009.352.109.474.193.236.449.293.619.33.03.007.072.016.097.023.022.026.048.06.077.095.241.3.415.517.712.517.066 0 .142-.016.204-.041.049-.021.095-.045.137-.071.05.132.135.263.285.375.181.106.457.076.616-.001.11.064.267.162.424.264-.009.096-.023.2-.04.282-.062.008-.13.014-.177.018-.302.026-.677.059-.788.433-.064.218.063.509.257.626.142.086.288.131.407.167-.112.213-.251.477-.146.77.031.088.082.166.146.229-.077.047-.144.104-.182.166-.2.313-.052.69.128 1.072.16.301.559.424.859.301.065.109.145.184.229.231-.042.015-.084.03-.125.045-.114.041-.227.082-.37.129-.219.088-.383.344-.343.576.074.428.47.443.854.458.086.003.169.005.167.022.117.085.402.238.658.146.196-.069.301-.205.363-.34.001 0 .003.001.005.001-.027.09-.033.186-.01.274.107.428.718.626 1.021.404.06-.043.292-.189.538-.345.331-.209.536-.339.666-.431.021.078.055.158.108.24.161.199.376.287.55.356.025.011.056.022.084.035.119.246.434.38.675.268.078-.037.143-.08.197-.128-.01.075-.023.16-.042.259-.035.189-.063.339.072.574.451.592.961.72 1.411.832.101.025.205.051.322.088.119.316.339.408.484.423.334.06.843-.149 1.712-.552.094-.045.179-.088.123-.071.067-.012.164-.026.221-.063.007 0 .014 0 .02.001.012.085.037.166.077.221.143.193.446.256.658.143.309-.163.567-.48.675-.829.034-.111.047-.262-.036-.431.061-.064.12-.13.167-.195.213-.297.171-.632.139-.901-.015-.123-.026-.228-.025-.286.443-.001 1.421.103 1.536.117.211.078 2.437 1.025 2.602 1.11.362.233.489.469.65.767.24.442.539.994 1.587 1.406.264.103.413.142.549.142.15 0 .423-.052.535-.361 0 0 .02-.015.062-.019.098.049.245.121.434.121.046 0 .144-.013.188-.025.186-.053.293-.171.357-.288.182.007.398.029.582.049.316.031.502.048.634.001.071-.026.134-.062.188-.102.078.024.144.027.172.027.257 0 .356-.125.619-.461 0-.001.001-.002.002-.003.093.06.203.09.329.09h.001c.118 0 .479 0 .719-.271.229-.26.192-.572.169-.759-.005-.039-.012-.075-.037-.027.168-.344.822-.853 1.213-1.157l.281-.223c.033-.024.084-.053.179-.053.368 0 .918.379 1.283.629.449.31.744.47 1.036.349.18-.076.308-.186.412-.273.018-.015.038-.033.058-.049.104.027.239.059.378.059.326 0 .505-.166.583-.265.117-.149.168-.338.151-.563.002-.005.003-.011.005-.016.049-.021.102-.046.157-.077.183-.132.295-.314.384-.46.007-.011.014-.021.021-.033.062.101.124.266.148.402-.104.096-.271.24-.402.354-.766.657-1.075.939-1.033 1.338.048.35.274.605.455.812.052.059.155.176.199.289-.001 0-.002.001-.003.001-.183.134-.253.373-.171.585.068.179.232.299.417.317.051.029.137.095.191.137.203.153.412.313.672.313.081 0 .213-.035.284-.072.35-.183.377-.539.38-.73.136-.033.313-.098.445-.265.063-.079.101-.176.108-.276l.031-.453c.06-.005.121-.01.181-.015.432-.034.538-.045.659-.109.03-.016.06-.035.086-.058.437-.364.056-.854-.223-1.21l-.032-.016c-.07-.181-.037-.815.031-1.118.133.031.299.079.438.126-.013.123.005.259.088.391.11.173.3.272.521.272.069 0 .142-.009.248-.035.145-.043.242-.126.309-.211.061.006.12.018.181.027.254.043.56.056.708.018.521-.088.988-.422 1.44-.745.511-.365 1.092-.724 1.486-.637.11.025.261.147.406.266.212.171.451.365.767.461.796.245 1.943-.03 2.854-.292l.422-.119c.831-.23 1.502-.703 2.151-1.159.551-.388 1.071-.754 1.647-.953.362-.115.791-.127 1.244-.139.498-.014 1.012-.027 1.5-.174l.13-.034c.471-.124 1.183-.311 1.567-.692.057-.052.126-.139.199-.24.001-.001.002-.002.002-.004.01.035.02.083.025.148.015.167.111.315.259.396.146.078.324.081.474.002.101-.053.249-.137.288-.178l.102-.047c.131-.057.311-.135.46-.324.08-.101.129-.22.217-.438.02-.052.048-.121.076-.189.121.057.34.116.52.085.244-.04.412-.189.534-.299.034-.03.086-.076.115-.081.146 0 .441.081.702.152.701.193 1.559.349 2.027.02.172-.119.298-.242.38-.374-.04.278-.088.687.229 1.093.095.101.274.179.412.179.347 0 .572-.28.885-.667.1-.124.271-.337.369-.43.021.005.043.009.064.014.482.092.679-.076.76-.179.103-.13.141-.348.098-.501zm-53.405-10.546c-.259.192-.313.401-.307.552-.145-.027-.272-.05-.366-.064-.344-.052-.689-.045-.989-.015-.02-.065-.049-.12-.078-.162-.235-.365-.654-.388-.904-.401-.056-.003-.111-.005-.162-.013-.202-.121-.48-.074-.631.107-.103.123-.14.303-.101.458.023.092.062.171.113.254-.093.022-.226.04-.409.041-.084 0-.093 0-.166-.217-.047-.141-.11-.331-.313-.459.071-.05.142-.105.21-.168.229-.213.438-.441.658-.742.061-.122.083-.243.109-.399.064-.039.096-.05.098-.054.023.009.074.042.112.065.168.105.422.265.865.265h.004c.219-.005.39-.118.518-.354.126-.045.227-.064.329-.064l.106.001c.146 0 .231.063.352.166.082.069.187.159.335.194.098.094.207.132.299.142.233.04.862.088 1.201.018.124.112.27.196.401.259 0 .054.009.109.027.162-.57.164-1.158.344-1.311.428z"/></svg>