<svg id="Layer_2" enable-background="new 0 0 512 512" viewBox="0 0 512 512" xmlns="http://www.w3.org/2000/svg"><g transform="translate(-562 -1686)"><g transform="matrix(1.181 0 0 1.181 -146.649 -333.127)"><g id="Icons_00000023277573266533577060000018033199954121601677_"><path clip-rule="evenodd" d="m634.243 1808.114c3.974 1.934 12.059 11.248 14.938 11.158 1.008-.03 1.945-4.547 2.04-5.365.523-4.547 1.324-11.677 7.655-10.799 10.458 1.456 20.171 7.678 30.379 10.37 19.33 5.105 40.502 7.977 60.339 10.47 20.06 2.513 36.437-2.423 55.927-2.264 11.474.09 21.188 5.654 32.14 8.097 6.12 1.366 12.267-.409 18.235.798 6.616 1.336 5.403 11.966 11.984 14.987 4.778 2.204 10.05 2.304 15.225 2.234 1.046-.01 5.112-.598 5.996.828 4.776 7.738-4.911 35.419 13.154 33.804 5.849-.528 8.141-6.711 12.926-8.805 4.8-2.114 11.117.967 16.136-1.745 4.709-2.553 8.079-7.259 12.437-10.35 5.72-4.068 12.644-6.202 17.225-11.756 3.996-4.846 5.222-11.448 9.518-16.064 3.933-4.228 9.307-6.571 13.63-10.311 7.431-6.432 5.819-16.014 10.654-23.583 9.41-14.531 16.21 1.576 21.05 10.092 1.137 1.665 3.979 4.397 3.381 6.531-2.493 8.875-12.105 13.003-15.825 21.309-2.463 5.494 2.702 11.338.379 17.031-2.772 6.781-9.386 9.922-13.047 15.895-3.14 5.115-.103 10.52-2.139 15.635-2.791 7.02-9.661 11.148-11.961 18.886-3.457 11.637 12.398 21.08 7.278 33.295-4.538 10.829-18.645 17.739-25.96 26.644-2.022 2.453-5.77 6.87-6.123 10.211-2.894 20.49 29.819 44.379 23.403 63.489-3.347 5.035-8.245 3.081-11.213-.509-7.49-9.044-13.524-19.345-21.235-28.359-9.286-10.839-20.635-6.123-32.971-7.708-6.25-.798-11.664-4.756-18.266-3.041-7.702 2.004-9.08 14.708-16.274 18.807-20.201 8.637-37.642-8.142-47.543 22.975-1.991 7.428-1.897 17.24-12.649 17.39-3.62.06-7.532-4.896-9.448-7.459-6.491-8.645-8.88-19.664-15.818-28.27-7.581-9.413-15.407 2.044-23.981-2.503-10.019-5.305-12.27-19.315-23.184-26.066-10.128-6.262-21.29 3.42-32.097 2.184-10.414-1.187-18.92-10.291-28.143-14.578-8.216-3.819-18.437-3.789-26.132-8.007-4.339-2.383-6.908-7.06-10.307-10.49-5.427-5.475-12.224-8.984-16.098-15.905-5.754-10.271-4.218-23.174-7.39-34.292-2.874-10.081-9.265-19.494-8.299-30.344 1.412-15.875 10.013-29.815 14.297-44.922 2.77-9.762.852-20.591 5.777-29.625z" fill-rule="evenodd"/></g></g></g></svg>