<svg viewBox="0 0 37 30" xmlns="http://www.w3.org/2000/svg"><g transform="translate(-22 -362)"><path fill-rule="evenodd" d="M47.7 363.3a2.5 2.5 0 0 1-.368c-.305-1.5.152-1.8.221a4 4 0 0 1-.403.1 3 3 0 0 0-.263.1c-.88-.221.1-.298.1-.4.1-.755.2-.797.2a.2.2 0 0 1-.105c-.035-.006-.99-.14a.3.3 0 0 1-.158.1c-.043 0-.88-.99-.1-.63-.115s-.278.1-.499.1c-.22.1-.47.2-.547.2-.8-.176.1-.21.1-.117.1-.443.2-.492.2-.028 0-.49-.49 0 .017-.21-.5a1 1 0 0 0-.217.1c-.94-.179.1-.193.1-.014-.007-.42-.66a.16.2 0 0 1-.106.1c-.049 0-.34.1-.561.2-.28-.288.1-.579.3a7 7 0 0 0-.586.3c-.35-.63-.63s-.028-.007-.6a1 1 0 0 1-.168.1 1 1 0 0 0-.123.1.7.7 0 0 1-.123.1c-.123.1-.347.2-.361.2-.7-.32-.56a.65.7 0 0 0-.302.2c-.25-.63.1-.84.1-.025 0-.81-.127.1-.45-.98.1-.112.1a.7.7 0 0 0-.186.1.8.8 0 0 1-.19.1c-.02 0-.38-.38 0 .017-.24-.52a.1.1 0 0 0-.78c-.14-.112.1-.21.2-.102.1-.186.1-.186.1 0 .018-.21-.5-.027 0-.8-.119.1-.38-.87.1-.105.1-.017-.007-.88-.154.1a3 3 0 0 1-.176.1 7 7 0 0 0-.382.3l-.618.5c-.158.1-.287.2-.287.3-.4-.28-.57-.028 0-.52-.52s-.32-.7.1c-.39-.7-.7.1 0 .025-.4.1-.88.1-.56-.81.1-.67.1q.23.1-.28c-.028-.01-.165.1-.354.3a4 4 0 0 0-.306.3.7.7 0 0 1-.193.2c-.045 0-.126.1-.105.1.1.4-.17-.025 0-.78-.116.1-.42.1-.137.2-.207.2-.74.1-.123.2-.109.2q.15-.1c-.022 0-.99.1-.172.2-.78.1-.172.2-.211.3s-.67.1-.6.1a.5.5 0 0 1-.115.1.5.5 0 0 0-.123.2c0 .02-.32.1-.7.1-.39-.7.1-.7.1 0 .02-.4.1-.92.1-.49.1-.8.1-.7.1s0 .038-.25a.6.6 0 0 0-.13.2.8.8 0 0 1-.112.2c-.17-.28-.28.1a.2.2 0 0 1-.35.1c-.88.1-.207.3-.249.4-.25.1-.6.1-.74.1s-.28-.28.1a.5.5 0 0 1-.7.2.7.7 0 0 0-.8.2.4.4 0 0 1-.46.1.7.7 0 0 0-.84.2 1 1 0 0 1-.74.2c-.5.1-.172.5-.172.5 0 .048-.14.1-.32.1-.17-.38.1-.49.1-.1.1-.42.2-.7.3-.217.9-.256 2.1-.091 2.9.38.2.74.4.8.4.25.2.31.9.425 1.2.67.1.112.2.102.2-.018 0 .91.2.126.2.1.42.1.7.1.28.1.95.2.148.2a.7.7 0 0 1 .98.2c0 .14.69.1.12a.5.5 0 0 1 .87.1c0 .2.1.169.4.494.1.124.2.238.2.255 0 .14.28.28 0 .102.1.183.1.84.1.231.2.333.3.98.1.19.1.203.2.11.36.53.014-.1.1.38.2.104.1.65.2.141.2.172s.204.1.32.2a7 7 0 0 0 .628.3c.56.13.16.036 0 .75.85.1.1.42.7.025-.1.1-.7.1.1.28.4.166.6.21.1.14.2.46.2.66.3.8.6.142.7.152.1.4.2.24.3.49.1.2.2.38.2.38.3.3.17.6.34.3.2.7.02 1.1 0 .32-.17.6-.31.6-.31 0 .182-.2.3-.48.4-.83.9-.17 1-.183.1-.1.1-.31.2-.49-.17.1-.3.1-.3.1 0 .176-.28.4-.108a1 1 0 0 1 .179-.45.4.4 0 0 0 .112-.34.4.4 0 0 1 .102-.038c.08-.17.3-.114.5-.173l.228-.086a6 6 0 0 0 .506-.21.7.7 0 0 1 .185-.066c.025 0 .046-.18-.035 0-.2-.34-.34.1 0 .926-.433-.484-.1.1-.62.2-.114.1-.52.2-.124.3-.162-.38.1-.7.1-.7 0 .07-.27.1-.61-.31.1-.76.1-.97.2-.104.2-.138.3-.197-.31.1-.59.1-.59 0 .077-.38.1-.086s.109-.86.1-.086a.6.6 0 0 0 .158-.114c.067-.59.1-.107.2-.104.7-.14-.041s.014-.52-.052c.06 0 .348-.224.3-.273q.006-.42-.027c.1.13-.76.3-.2s.252-.225.3-.225-.24-.055c0-.28-.45-.35.2.1-.103.1-.131-.014-.01-.003-.2-.2 0 .218-.16.2-.187 0-.7.1-.87.2-.18.4-.46.8-.901.8-.946 0-.1.1-.73.1-.138.1-.66.1-.142.1-.166-.007-.2-.41-.41 0 .07-.49.1-.104-.59.1-.104.1-.104 0 .028-.17-.034 0-.2-.66.1-.104-.34.1-.124.1-.197-.72.1-.155.1-.183.1-.127.6-1.1.645-1.3.025-.76.1-.17.1-.207a1 1 0 0 0 .063-.173l.081-.307c.298-1.1.246-2.6-.12-3.4-.041-.097-.09-.207-.108-.252a1.7 1.7 0 0 0-.137-.283 1 1 0 0 1-.07-.121c-.07-.138-.358-.55-.393-.563-.014-.007-.028-.024-.028-.041 0-.07-.828-.795-.909-.795a.5 0 0 1-.046-.03c-.01-.035-.203-.153-.343-.215a1 1 0 0 1-.14-.069 4.4 4.4 0 0 0-.738-.304 4 4 0 0 1-.245-.08 1 1 0 0 0-.176-.05l-.333-.05c-.607-.092-1.9-.065-2.046a.12.1 0 0 1-.99.5.5 0 0 0-.22l-.432.1a2 2 0 0 0-.298.1 1 1 0 0 1-.2.1c-.95-.169.1-.169.1 0 .014-.24-.56-.053 0-.355.2-.414.2a.2.2 0 0 1-.98c-.036 0-.63-.63 0 .014-.46-.99.1-.13.1-.582.4-.596.4-.7-.32-.56-.025 0-.88-.144.1-.56.1-.12.1-.14.1-.043 0-.965.9-.965.9 0 .024-.148.2-.34.4-.25-.47.1-.47.1 0 .01-.31.1-.7.1a.8.8 0 0 0-.112.2c-.25.1-.56.1-.7.1-.014-.01-.28-.28 0 .025-.39.1-.88.1s-.88.1-.88.1c0 .025-.31.1-.7.1-.38-.7.1-.7.1s-.32.1-.67.1c-.119.1-.319.5-.319.6 0 .62.128.1.152.1.55.2.62.3.14.1-.11.3-.197.3-.239a.7.7 0 0 0 .165-.113.3.3 0 0 1 .098-.063c.017 0 .067-.34.1-.08a.4.4 0 0 1 .112-.078c.1.06-.28.1-.66-.38.1-.97.2-.131a.6.6 0 0 0 .172-.11c.025-.29.1-.53.1-.053a1 1 0 0 0 .203-.12 1 1 0 0 1 .204-.121c.021 0 .077-.38.1-.83-.45.1-.76.1-.66.17.1-.48.2-.124-.28.1-.38.1-.02 0 .13.6.1-.18.1-.66.4-.207.4-.207a.3.3 0 0 0 .11-.031c.182-.9.5-.19.8-.246.1-.2.3-.55.3-.75.1-.052 1.4-.077 1.7-.28.1.2.3.45.4.59.1.1.1.3.1.48.17.31.1.31.1 0 .575.3.779.5.298.3.386.5.404.7.3-.66.7-.126.8a.17.2 0 0 0-.32.1c0 .031-.73.2-.161.4-.91.2-.18.3-.204.4-.2-.49.1-.63.1-.017 0-.28-.28 0 .021-.56.1-.123.2a.7.7 0 0 0-.123.2c0 .017-.77.1-.171.2-.95.1-.218.2-.27.3-.166.2-.923.9-1.93-.42-.2.1-.35.3-.57.1-.123.1-.151.1s-.5-.5c0 .018-.66.1-.147.1a1.6 1.6 0 0 0-.22.2c-.4-.13.1-.2.1a1 1 0 0 0-.176.1.8.8 0 0 1-.169.1c-.66-.186.1-.263.1-.15.1-.772.4-.803.4-.014 0-.102-.204.1a1.2 1.2 0 0 1-.21.1.8.8 0 0 0-.176.1.7.7 0 0 1-.203.1.2.2 0 0 0-.92.7.7 0 0 1-.19.1 5 5 0 0 0-.262.1 2 2 0 0 1-.19.25.3 0 0 0-.119.2.2 0 0 1-.109c-.042 0-.214-.39.1-.301.1-.48.1-1.2.18-.565.1-1.5-.032-2.1-.228-.417-.135-.986-.418-1-.522-.018-.027-.042-.041-.06-.03-.38-.737-.65-.737-.705 0-.024-.028-.07-.06-.107-.087-.094-.378-.677-.431-.864l-.07-.241c-.105-.322-.148-.694-.13-1.2.007-.286-.549-.587s.028-.159-.269a.6.6 0 0 1 .056-.218c.018-.1-.62-.12 0-.56-.128-.163-.3.1-.138.1-.231.1-.26.2-.47.2-.587.1-.197.1-.225.1-.276 0-.28-.52-.52 0 .035-.24-.052 0-.52.1-.19.1-.224a1 1 0 0 0 .08-.121c.032-.59.1-.166.1-.242a3 3 0 0 0 .112-.19.5.5 0 0 1 .074-.1c.024-.28.1-.104.1-.173a1 1 0 0 1 .136-.172c.032-.24.1-.62.1-.08 0-.17.1-.114.2-.21.1-.1.2-.242.3-.318.1-.166 1.7-1.7 1.7-1.7.017 0 .13-.93.3-.207.1-.113.3-.248.4-.296a.7.7 0 0 0 .148-.121c.007-.18-.31.1-.31 0 .102-.56.2-.121a.6.6 0 0 1 .158-.121.8.8 0 0 0 .151-.104c.067-.58.1-.103.2-.103s.046-.18-.035c0-.2-.34.1-.034s.053-.18.1-.035c0-.2-.34.1-.34 0 .063-.21.1-.045s.119-.1.2-.166l.369-.21c.09-.53.2-.122.3-.15.1-.27.1-.68.1-.085 0-.21-.35-.35 0 .604-.266.7-.345.1-.52.4-.173.4-.173 0 .13-.48.3-.104a1.4 1.4 0 0 1 .277-.103.1.13 0 0 0 .088-.49.2.16 0 0 1 .101-.48.6.6 0 0 0 .214-.69.8.8 0 0 1 .218-.076c.035 0 .074-.17.1-.34-.21.1-.35.1-.035a.4.4 0 0 0 .13-.031c.032-.17.1-.52.2-.073a3 3 0 0 0 .21-.062c.393-.141 1.3-.349 1.9-.438.2-.31.4-.73.6-.94.1-.2.3-.4.3-.48.1-.3.3-.24.6-.045a13.6 13.6 0 0 1 2.1 0c.232.47.527a1 1 0 0 1 .238c.74.155.186a.26.3 0 0 1 .13c.42.196.1.34.1.253.1.432.1.58.2.38.133.21.1.77.228.1.333.1.105.225.1.263.1.39.123.186.1.6.112.1.112.1 0 .17.27.1.27 0 .7.7 0 .17.41.1.055a.3.3 0 0 1 .147.1c.32.77.1.102.1s.7.105.1c.35.78.1.95.1s.74.123.1.112.1.14.1q.047-.2.038-.2.1.28.1c.056 0 .87.8.87.9 0 .17.52.1.76.1.55.3.338.3.376 0 .18.49.1.73.24.1.11.1.186.8.1.197.1.263.1.19.2.414.3.621.1.363.2.432.2.515.48.1.117.38.1.339.1.853.1.636-.025 1.6-.193 2.2-.28.1-.67.2-.92.3a4 4 0 0 1-.7.2 8 8 0 0 0-.105.3 5 5 0 0 1-.175.5 13 13 0 0 0-.25.6c-.28.1-.6.1-.73.1-.018 0-.28-.28.1a.17.2 0 0 1-.53.1c-.32-.45.1-.38.1.1-.22.1-.7.1-.5.1-.78.2-.67.2.14.3-.21-.057 0-.134.1-.137.2 0 .034-.14.1-.35.1-.018 0-.35-.35.1 0 .031-.39.1-.88.1a1 1 0 0 0-.133.2c-.22.1-.53.1-.67.1-.018 0-.28-.28 0 .025-.25.1-.53.1a.5.5 0 0 0-.109.2c-.31.1-.7.1-.87.1-.018 0-.32-.32 0 .024-.77.1-.172.2s-.165.2-.158.2c.14-.361.5-.515.6-.57.1-.92.1-.81.1.14 0 .024-.32-.031 0-.6-.6 0 .041-1.3 1.3-1.6 1.6-.105.1-.284.2-.4.3-.28.2-.27.2-.368.3-.299.2-.38.3-.41.3a.6.6 0 0 0-.152.1c-.66.1-.137.1-.158.1-.024 0-.7-.105.1s-.88.1-.116.1c-.031 0-.42-.28.1q.16.1-.24c-.05-.01-.41.2-.41.3 0 .018-.15-.32s-.186.1-.369.2a3 3 0 0 1-.358.2c-.035 0-.379.2-.393.3-.7-.42-.8-.035 0-.67-.67 0 .017-.35-.8.1-.345.2-.446.2-.446.3 0 .02-.22-.5s-.77-.108a1.3 1.3 0 0 1-.285.2 2 2 0 0 0-.29.2c-.36-.78.1-.88-.011-.014-.05 0-.81a4 4 0 0 1-.397.2c-.182.1-.428.2-.547.3a8 8 0 0 1-.39.2.8.8 0 0 0-.2.1c-.14-.45-.73-.028-.01-.053 0-.53 0 .021-.31-.66-.04 0-.81-.92-.2-.98.1-.438.2a3 3 0 0 0-.21.1 1 1 0 0 1-.141.1c-.5-.133.1-.19.1a.5.5 0 0 1-.133.8.8 0 0 0-.176.1 1 1 0 0 1-.175.1.8.8 0 0 0-.175.1 1 1 0 0 1-.176.1c-.014 0-.108-.21.1a1 1 0 0 1-.239.1c-.031 0-.7-.8-.25-.257.1-.587.2-.105-.238.1-.298.1a3 3 0 0 1-.403.1c-.88-.19.1-.228.1a7 7 0 0 1-.228.1c-.88-.19.1-.228.1a6 6 0 0 1-.422.1c-.17-.207.1-.42.1-.211.1-.474.1-.58.1a7 7 0 0 0-.358.1 1 1 0 0 1-.245c-.046 0-.98-.116a.6.6 0 0 1-.193c-.88-.246-.35.1a20.5 20.5 0 0 1-3.1.332c-.969-2.9-.19-3.3-.394a.3.3 0 0 0-.122-.34.3.3 0 0 1-.13-.028 5 5 0 0 0-.228-.08 4 4 0 0 1-.369-.148 3 3 0 0 0-.263-.107.4.4 0 0 1-.088-.038 6 6 0 0 0-.193-.107c-.35-.18-.863-.511-.887-.573-.007-.014-.032-.028-.053-.028-.05 0-1-.967-1-1 0-.017-.032-.069-.074-.114a.4.4 0 0 1-.073-.1c0-.01-.067-.114-.151-.235-.13-.183-.551-.973-.551-1a5 5 0 0 1-.28-.874l-.085-.38c-.133-.573-.162-.883-.158-1.8 0-.932-1.2.242-2.4.074-.418.2-.808.2-.832-.14-.7-.125s.024-.148.1-.203c.028-.6-.128-.156-.01-.24-.9-.141a.5.5 0 0 0 .053-.173c0-.41-.86-.97-.1-.58-.103s.014-.9-.1q.047-.3.1-.439c.017-.148-.166-.085-.231-.09-.066-.108-.066-.172-.024-.38-.8-.94-.01-.01-.021-.003-.21 0 .035-.113.2-.278.3-.24-.38.1-.28.1.7-.31.1-.84.1-.105.1-.453.6-.453.6 0 .007-.84.1-.189.3-.102.2-.221.3-.263.4s-.88.2-.109.2c-.8.1-.35.7-.35.7 0 .027-.15.1-.36.1-.017 0-.35-.35s-.32.1-.7.2a.7.7 0 0 0-.7.2c0 .034-.18.1-.99.2a.4.4 0 0 0-.42.1.25.3 0 0 1-.52.1.3.3 0 0 0-.53.1c0 .035-.14.1-.32.1-.6.1-.178.5-.178.6 0 .045-.14.1-.32.1-.21-.42.1-.5.2a.5.5 0 0 1-.38.2 3 3 0 0 0-.77.4c-.56.4-.105.5-.175.5-.042-.014-.5.2-.05 1.3 0 1.1.011 1.3.046 1.3.07 0 .123.1.165.4.25.1.56.3.8.4.22.1.4.2.43.2.7.24.1.45.2.22.1.57.2.81.3.7.3.18.6.228.6.28.5.1.5.1a.7.7 0 0 0 .7.2c.38.1.7.2.7.2 0 .23.44.44 0 .35.38.1 0 .34.1.169.1.304.1.13.2.293.2.352.62.1.114.1.114 0 .32.32.1 0 .38.69.69 0 .35.35 0 .27.76.1.11.35.1.8.1.1s.46.1.99.1c.172.2.217.3.217.3 0 .1.38.62.24.1.135.2.249.4.428 1.1 1.1 1.2 1.1.031-.7.1.035-.1.2.1.77.1s.168.1.256.2c.88.1.182.1.21.1a.5.5 0 0 1 .99.1c.28.63.8.018-.14 0 .32 0 .27.65.1.86.1.41.1.62.3.19.1.34.1.62.1.062s.63.74.1c.14.45.73.032-.1.1.3.1.031a.1.1 0 0 0 .84.1c.039 0 .77.88.21.45.2.495.2.01 0 .101.2.1.452.2.519.2.565.2.028 0 .6.7.1.56.98.46.214.1.379.1.621.2.863.3.954.3.053 0 .106.116.14.74.137.06-.7.1 0 .147.64.713.2.744.1.018-.1.1.3.2.27.1.28.2.59.4.7.1.13.3.37.4.58.4.07 1.7.148 2.3.145.6 0 2-.097 2.7-.183.1-.17.3-.38.4-.45.1-.1.2-.31.3-.052s.372-.69.6-.11c.26-.42.6-.104.8-.138.2-.38.4-.9.5-.121.1-.31.3-.66.3-.076a1 1 0 0 1 .158-.31.4.4 0 0 0 .137-.049c.021-.2.1-.34.1-.34.1 0 .291-.55.4-.107a.3.3 0 0 1 .127-.031c.031 0 .147-.31.3-.73.1-.38.2-.76.3-.08a.3.3 0 0 0 .13-.05c.028-.25.1-.35.1-.25.1.1-.7.1-.035a.6.6 0 0 1 .165-.048c.035 0 .074-.17.1-.35-.2.1-.34.1-.34 0 .095-.17.1-.35-.2.1-.34.1-.034s.095-.17.1-.035c.01-.2.1-.34.1-.34.1 0 .285-.87.5-.194a.5.5 0 0 1 .15-.48.8.8 0 0 0 .2-.065c.197-.83.5-.215.6-.246-.13.2-.8.3-.148.1-.66.3-.145.4-.176a.5.5 0 0 0 .151-.09c.01-.2-.35.1-.35 0 .154-.48.3-.103a1 1 0 0 1 .25-.104c.027 0 .048-.17-.034 0-.21-.35-.035a1 1 0 0 0 .235-.103c.105-.56.3-.128.3-.163a.6.6 0 0 0 .14-.08c.01-.1.1-.65.2-.123.3-.173.6-.3.6-.332-.14-.28.1-.28 0 .068-.13.1-.03s.028-.39.1-.052c.098-.31.4-.225.5-.3-.35.1-.66.1-.066s.053-.18.1-.035c0-.2-.35-.35 0 .077-.3.1-.69-.38.1-.69.1-.69 0 .256-.141.3-.207a.2.2 0 0 1 .063-.034c.02 0 .69-.45.7-.48a.7.7 0 0 1 .12-.073 1.6 1.6 0 0 0 .27-.2 1.2 1.2 0 0 1 .185-.145c.032 0 .527-.366.6-.477-.2.1-.41.1-.041s.109-.73.2-.166c.334-.29.5-.421.5-.421 0 .133-.104.3-.235.1-.128.3-.228.3-.22.6-.25.1-.7-.45.1-.8.1-.08s.045-.13.1-.034a.7.7 0 0 1 .148-.152c.19-.162 1.1-1 1.2-1.2a4 4 0 0 1 .288-.314c.12-.121.2-.235.2-.25s.07-.1.2-.186c.087-.86.2-.203.2-.265.2-.225.4-.511.4-.522-.7-.34-.062s.018-.48-.048q.034-.2-.035c0-.17.1-.124.2-.238.1-.11.2-.214.2-.225a.4.4 0 0 1 .085-.113c.049-.52.1-.108.1-.125s-.003-.41-.055c.067-.45.3-.342.4-.59a1 1 0 0 1 .081-.139q.033-.27.3-.459a.6.6 0 0 0 .074-.18c0-.27-.51-.51 0 .035-.28-.062a.4.4 0 0 1 .067-.163 4 4 0 0 0 .27-.535c.028-.66.1-.148.1-.18a.3.3 0 0 0 .031-.113c0-.28-.52-.52 0 .035-.21-.045s.039-.128.1-.225c.05-.1.1-.2.1-.228s.017-.62-.072c.02-.1-.55-.1 0-.42-.9-.107-.45.2-.4.2-.622-.186.1-.373.2-.483a.7.7 0 0 0 .046-.156c.01-.48.1-.241.1-.431a6 6 0 0 0 .109-.432 4 4 0 0 1 .049-.259 8 8 0 0 0 .073-.38c.043-.231.1-.3.2-.269.14.1-.249.1-1.9 0-1.5-.008-1.9-.046-1.9-.67-.12-.076-.165-.324a4 4 0 0 0-.175-.636 2 2 0 0 1-.074-.241 1 1 0 0 0-.07-.207c-.018-.018-.032-.063-.032-.104a.2.2 0 0 0-.028-.104 2 2 0 0 1-.13-.276 6.3 6.3 0 0 0-.568-1.1 1 1 0 0 1-.116-.193c0-.018-.032-.06-.07-.094s-.07-.079-.07-.103-.035-.07-.074-.107a2 2 0 0 1-.207-.242c-.179-.235-.85-.898-1.1-1.1a3 3 0 0 1-.27-.214c-.042-.041-.091-.072-.109-.072-.017 0-.06-.031-.095-.07-.035-.037-.077-.069-.094-.069s-.063-.03-.105-.069c-.043-.038-.106-.069-.14-.069-.04 0-.06-.014-.05-.27-.018-.031-.056-.095-.087a6 6 0 0 1-.252-.145 16 16 0 0 0-.948-.466 4 4 0 0 1-.235-.1.8.8 0 0 0-.235-.072c-.035 0-.077-.025-.088-.056-.01-.027-.038-.041-.056-.03-.2-.6-.087-.018a.5.5 0 0 0-.165-.07l-.485-.137a12 12 0 0 0-.508-.138l-.386-.087c-.516-.117-.993-.186-1.8-.262-.516-.048-1.7-.07-1.9-.031"/></g></svg>