<svg viewBox="0 0 34 34" xmlns="http://www.w3.org/2000/svg"><g transform="translate(-111 -358)"><path fill-rule="evenodd" d="M128 386.5c.031-.7.1.3.3.7.2.45.3.1.4.274.2.174.2.257.3.51.84.532 1.4 0 1.3-.007 1.4-.115 1.6-.55.1-.371.4-.492.5-.326.1-.51.2-.736.1-.26-.083-.343-.135-.517-.316-.319-.337-.326-.372-.326-1.9 0-1.3.007-1.4.125-1.6.052-.121.4-.437.5-.493.1-.31.3-.108.4-.132m6.4-1.7c.28.111.184.7.139.149s.45.76c.035 0 .83.111.1s.77.1.104.1c.07 0 .243.2.243.2 0 .28.73.1.101.28.1.77.1.111 0 .35.63.63 0 .34.34.1 0 .38.69.69 0 .35.35.1 0 .38.69.69 0 .52.77.1a1 1 0 0 0 .104.2.2.2 0 0 1 .48.1c-.1.49.2.104.2.32.104.1.16.3.59.1.121.2.139.2.2.66.1.104.2a.8.8 0 0 0 .1.2c.56.143.2.143.3 0 .45.9.1.28.313-.3.5a1 1 0 0 1-.288.5c-.236.3-.468.4-.784.4-.132 0-.25-.017-.26-.035-.01-.02-.052-.034-.09-.034-.035 0-.066-.018-.066-.035 0-.02-.025-.035-.056-.035-.073 0-.465-.389-.465-.462 0-.035-.014-.059-.034-.059-.018 0-.035-.031-.035-.07 0-.038-.014-.069-.031-.069-.014 0-.08-.104-.142-.236a2 2 0 0 0-.205-.33c-.045-.052-.073-.094-.056-.94 0 0-.031-.034-.07-.035-.037-.049-.069-.035-.69 0-.01-.041-.055-.097a1.5 1.5 0 0 1-.184-.292 1 1 0 0 0-.125-.219c-.042-.024-.139-.225-.139-.284 0-.025-.014-.046-.035-.046-.017 0-.034-.03-.034-.07 0-.037-.014-.069-.028-.069-.048 0-.111-.225-.111-.413 0-.281.3-.837.4-.837 0 .06-.24.1-.052a.6.6 0 0 1 .344-.157.3.3 0 0 0 .142-.034c.028-.18.1-.25.1-.01m-12.6 0c.28.1.156.136.31.1.365.2.24.62.1.83.1.073 0 .215.2.326.4.87.2.11.3.11.4 0 .115-.13.2-.34.2-.17-.35.1-.35.1 0 .035-.13.1-.34.1-.017 0-.35-.35 0 .055-.146.3-.215.4a1.3 1.3 0 0 0-.132.2 1.3 1.3 0 0 1-.17.3c-.48.1-.72.1-.55.1.014 0 0 .031-.35.1-.35-.48.1-.35.1.018 0-.1-.55.1a2 2 0 0 0-.205.3c-.62.1-.128.2-.142.2-.017 0-.31-.31.1 0 .038-.14.1-.35.1-.017 0-.35-.35.1 0 .076-.391.5-.468.5-.028 0-.52-.52 0 .017-.31-.66-.038 0-.8-.9-.1-.128-.26-.316 0-.548-.104-.78-.354-.205-.216-.26-.31-.26-.424 0-.049-.014-.097-.035-.108-.042-.027-.045-.344-.004-.427-.31.1-.125.1-.208a.6.6 0 0 1 .09-.188.6.6 0 0 0 .114-.187.7.7 0 0 1 .1-.17 1 1 0 0 0 .13-.22c.051-.107.1-.24.2-.295-.52.1-.94.1-.094-.013 0 0-.3-.7-.37-.69-.069s-.007-.27-.062a1 1 0 0 0 .101-.156c.025-.52.1-.94.1-.94 0 .027-.31-.07 0-.38-.7-.7 0 .035-.3-.069 0-.38-.7-.7 0 .035-.27-.062 0-.34-.83.1-.11-.29.1-.77.1-.105 0-.7.2-.243.2-.243 0 .073-.31.1-.7-.38.1-.7.1-.7 0 .069-.16.1-.34-.2.1-.35.1-.035a.4.4 0 0 0 .163-.034c.028-.18.1-.25.1-.01m-5-4.6c.195-.8.5-.52.7.66.2.11.4.253.4.326 0 .21.6.1.84.1.66.2.243.2.364 0 .6.125.146.28.06 0 .108a.5.5 0 0 0-.38.2c0 .056-.14.1-.35.1-.17-.34-.34.1 0 .035-.31.1-.7.1-.38-.69.1-.69.1 0 .066-.173.2-.236.2-.024 0-.76-.118.1-.41-.97.1-.121.1s-.45-.45c0 .018-.32-.7s-.69-.69c0 .017-.31-.7-.038 0-.69-.69 0 .017-.114.1-.256.2-.143.1-.278.1-.299.2a1.2 1.2 0 0 1-.263.2c-.122.1-.23.1-.24.1a.6.6 0 0 1-.173.1.7.7 0 0 0-.174.1c-.3.1-.228.1-.315.1-.045 0-.9-.1-.29-.313-.466-.004a1 1 0 0 1-.482-.288c-.25-.236-.354-.47-.354-.785 0-.132-.25-.26-.11-.53-.091 0-.35-.66-.66 0 .034-.24-.056 0-.8.4-.465.5-.465 0 .063-.18.1-.035 0-.2-.35.1-.35 0 .07-.14.1-.031 0-.14.1-.8.2-.142a2 2 0 0 0 .33-.205c.052-.46.1-.73.1-.056 0 .14 0 .07-.35-.34.1-.48.1-.034 0 .17-.7.1-.56.1-.49.2-.125.3-.17.1-.45.2-.104.2-.132.1-.7.4-.216.4-.216 0 .045-.13-.027 0-.18-.46.1-.066m22.1-.046c.192 0 .42.1.42.1 0 .14.27.27.1 0 .35.1.433.2.32.139.1.233.1.97.215.1.27.2.52.94.1.94.1 0-.14 0 .7.37.69.69 0-.17.1.1.56.1.48.2.139.3.205.1.62.2.128.2.142 0 .17.31.1.31 0 .68.68 0 .17.35.1.35.1 0 .458.4.458.5 0 .32.56.56 0 .35.35.1 0 .38.8.9.1.129.26 0 .181-.2.3-.83.4-.9.2-.388.5-.54.6-.275.1-.56.1-.688.1a1.4 1.4 0 0 0-.208-.76.6.6 0 0 1-.187-.9.6.6 0 0 0-.187-.115.6.6 0 0 1-.17-.105 1.2 1.2 0 0 0-.24-.139 1.2 1.2 0 0 1-.263-.152c-.021-.032-.156-.112-.299-.181-.142-.07-.256-.139-.256-.156 0-.018-.031-.032-.07-.032-.038 0-.069-.017-.069-.034 0-.021-.031-.035-.07-.035-.037 0-.069-.017-.069-.035 0-.02-.024-.035-.052-.035s-.083-.03-.121-.069c-.038-.038-.087-.07-.111-.07-.063 0-.236-.177-.236-.243 0-.027-.031-.076-.07-.104-.038-.028-.069-.076-.069-.111 0-.031-.014-.07-.035-.08-.017-.01-.034-.07-.034-.125a.5.5 0 0 0-.038-.177c-.028-.049-.028-.08 0-.108-.2-.87-.146 0-.121.1-.298.2-.364-.25.1-.63.1-.084 0-.73.2-.205.4-.32a.9.9 0 0 1 .419-.118m2.8-6.3c1.3-.003 1.4.004 1.7.122.1.45.5.465.5.465-.018 0-.11.13.1.21.45.1.52.1s.28.1.45.2a.6.6 0 0 1 0 .243 3 3 0 0 0-.45.2.3.3 0 0 1-.52.1c-.24-.31.1-.14.1.056 0-.385.4-.489.5-.274.1-.357.1-1.6.125s-1.4-.007-1.6-.125c-.111-.049-.42-.354-.5-.497a.5.5 0 0 1-.055-.156 3 3 0 0 0-.045-.195.6.6 0 0 1 0-.243c.017-.66-.156-.201a.3.3 0 0 1 .052-.129c.024-.28-.52-.052s.062-.94.2-.212c.198-.198.3-.25.5-.333.1-.25.6-.038 1.4-.042m-27.5 0c1.3-.003 1.4.004 1.7.122.1.45.5.465.5.465-.018 0-.11.13.1.56.1.8.2.8.5 0 .246-.2.4-.83.5-.8.1-.389.4-.5.5-.274.1-.357.1-1.6.125s-1.4-.007-1.6-.125c-.104-.045-.545-.465-.49-.465 0 .011-.025-.013-.053a.3.3 0 0 1-.052-.128 3 3 0 0 0-.045-.202.6.6 0 0 1 0-.243c.017-.66-.156-.201a.3.3 0 0 1 .052-.129c.024-.28-.52-.052s.062-.94.2-.212c.197-.198.3-.25.5-.333.1-.25.6-.038 1.4-.042m13.3-5.9a1 1 0 0 0-.245 1.2 1.2 0 0 1-.295 1.4 1.4 0 0 0-.333.1.7.7 0 0 1-.198c-.055 0-.11-.121-.1-.73-.139s-.128-.138c-.1-.66-.122s-.11-.121c-.1-.6-.104-.045 0-.94-.104-.1-.49-.87a.9.9 0 0 0-.26.1 1.3 1.3 0 0 1-.24.1c-.069 0-.367.2-.457.2-.46-.84.1-.84 0-.014-.027-.004-.62-.35-.73-.87-.01-.01-.59-.104.1-.45-.107.1-.132.1-.027 0-.72-.1.1-.28-.7.1-.94.1s-.11.1-.19.1c-.84.1-.164.1-.184.1-.046 0-.92.9-.92.9a.8.8 0 0 1-.138.2c-.77.1-.14.2-.14.2s-.3.1-.69.1c-.38-.69.1-.69.1 0 .025-.35.1-.76.1a.3.3 0 0 0-.84.1.44.4 0 0 1-.152.3c-.38-.7.1-.7.1a.6.6 0 0 1-.69.2.6.6 0 0 0-.7.2 1 1 0 0 1-.103.2 1 1 0 0 0-.104.3c0 .038-.14.1-.35.1-.17-.35.1-.35.1 0 .046-.14.1-.34.1-.18-.35.1-.35.1s-.14.1-.35.1c-.17-.34.1-.34.1s-.14.1-.35.1c-.17-.35.1-.35.1a.7.7 0 0 1-.38.2 1.7 1.7 0 0 0-.52.3 1.2 1.2 0 0 1-.45.3c-.49.1-.014 1.3.048 1.7.28.2.63.4.73.5.14.1.38.2.52.2.18.32.1.32.1 0 .66.129.14.1.65.12 0 .56.112.122.1.6.105s.18.1.35.1c.2.35.35.1 0 .34.153.1.26.1.108.1.219.1.24 0 .7.2.368.2.458.46.1.84.084-.014 0 0 .31.7.37.1.8.09-.1.17.1.66.1.45.83.1.83.1 0 .28.73.1.101.28.1.7.1.094s.62.1.139.2a.8.8 0 0 1 .138.2c0 .45.9.923.9.923 0 .1.1.183.1.8.1.167.1.191.1s.66.94.1.73.1.1.1c.025 0 .87.132.1s.94.1.104.1c.014-.11.1.3.1.37.32.1.42.1.028 0-.17.7.1.49.1.87.4.246.5.246 0 .132.24.1.107.1.225.1.26.1.038 0 .76.87.1.59.104s.93.104c.1.66.121.056 0 .108.118s.7.132c.28.482.1.513.1.21.146.278.135.27.305.76 1.4.018 1.6-.031a1 1 0 0 1 .27-.2.3.3 0 0 0 .163-.4.4.4 0 0 1 .18-.4.3.3 0 0 0 .157-.32.4.4 0 0 1 .163-.042c.048 0 .097-.17.1-.034s.066-.35.1-.35.1-.18.1-.035c.01-.2.1-.35.1-.35 0 .094-.14.1-.034s.049-.35.1-.035c.035 0 .153-.49.3-.104.1-.6.2-.105.2-.105.1 0 .367-.16.5-.246-.42.1-.66.1-.049 0 .14.4.1-.28-.34.1-.48.1-.38.1.1-.2.1-.7-.48.1-.9.1-.9 0 .072-.3.1-.7-.37.1-.69.1-.069s.11-.62.2-.138c.084-.77.2-.14.2-.14 0 .919-.878.9-.923a.8.8 0 0 1 .138-.181c.077-.8.1-.167.1-.191s.03-.66.1-.094c.038-.28.1-.73.1-.1 0-.25-.84.1-.126-.45.1-.9.1-.1-.014-.1-.5-.84-.35.1-.73-.083-.01-.1-.52.1-.9.1-.39.1-.87.1-.108s.03-.9.1-.16a.6.6 0 0 0 .07-.17c0-.28-.14.1-.247a.9.9 0 0 0 .104-.26c0-.39-.77-.87-.1-.6-.104 0-.46-.94-.105-.1-.66-.121 0-.56-.111-.122-.1-.73-.139s.014-.125-.135a.5.5 0 0 0 .052-.167c.01-.83-.299.1-.48.1-.454.1-1.6.004-2-.031-.18-.066-.396-.076-.48a.5.5 0 0 0-.052-.166c-.018-.01-.032-.07-.032-.135 0-.066-.013-.129-.034-.14-.018-.01-.035-.065-.035-.12 0-.056-.014-.112-.035-.122-.017-.01-.034-.06-.034-.105s-.014-.094-.035-.104c-.017-.01-.035-.048-.035-.087a.9.9 0 0 0-.104-.26 1.3 1.3 0 0 1-.104-.24c0-.059-.153-.358-.232-.448-.087-.104-.156-.236-.136-.257-.01-.02-.052-.069-.097-.045-.042-.083-.101-.083-.125 0-.028-.031-.073-.07-.101-.038-.028-.069-.07-.069-.094s-.062-.111-.139-.191a.8.8 0 0 1-.138-.18c0-.046-.874-.925-.92-.925-.02 0-.1-.062-.183-.139-.08-.076-.167-.139-.191-.139s-.066-.03-.094-.069c-.028-.038-.073-.07-.1-.07-.025 0-.087-.041-.132-.09s-.094-.08-.104-.07c-.14-.052-.003-.087-.038-.035-.03-.062-.041-.062-.027 0 .017-.039-.007-.084-.049-.09-.087-.388-.246-.458-.246a1.3 1.3 0 0 1-.239-.105.9.9 0 0 0-.26-.104c-.038 0-.076-.017-.087-.035-.01-.02-.059-.034-.104-.034s-.093-.018-.104-.035c-.01-.021-.066-.035-.121-.035-.056 0-.108-.014-.118-.031s-.07-.038-.132-.049c-.33-.055-.489-.094-.527-.125a.14.1 0 0 0-.111-.017c-.35-.16 0-.274-.021-.213-.04-.975-.063-1.4-.053m-12.4-1.6a.6.6 0 0 1 .229c.3.125.1.208.1.8.163.1.187.1.2.108.1.187.1a.6.6 0 0 1 .17.1c.1.118.1.24.1.121.1.239.1.263.2.21.156.1.299.2.142.1.256.1.256.2s.32.7.69.69c0 .17.35.1.35 0 .69.69 0 .17.34.034s.8.121.1c.42.94.1.118.1.063 0 .236.2.236.2 0 .28.77.1.105.27.1.76.1.11 0 .32.67.77.18.1.233.1.368.181-.97.5-.19.6-.29-.53.1-.53.1 0 .072-.184.2-.423.3a.9.9 0 0 1-.44.1c-.115 0-.22-.017-.23-.034-.01-.021-.052-.035-.09-.035-.034 0-.066-.018-.066-.035 0-.02-.03-.035-.069-.035-.038 0-.07-.017-.07-.034 0-.021-.02-.035-.044-.035-.06 0-.26-.097-.285-.14a1 1 0 0 0-.218-.124 1.5 1.5 0 0 1-.292-.184c-.055-.045-.097-.073-.097-.056 0 .014-.031 0-.07-.035-.037-.034-.069-.048-.069-.034 0 .017-.041-.01-.093-.056a2 2 0 0 0-.33-.205c-.132-.062-.236-.128-.236-.142 0-.018-.03-.031-.069-.031-.038 0-.07-.018-.07-.035 0-.021-.024-.035-.058-.035-.073 0-.462-.392-.462-.466 0-.03-.014-.055-.034-.055-.018 0-.035-.031-.035-.066 0-.038-.014-.08-.035-.09-.017-.01-.034-.129-.034-.26 0-.317.1-.55.4-.786a.99 0 0 1 .73-.323m25.8-.005c.94.203.28a1 1 0 0 1 .482.3c.25.2.353.5.353.8 0 .132-.13.3-.34.3-.18-.35.1-.35.1 0 .036-.14.1-.35.1-.017 0-.34-.34.1 0 .077-.382.5-.458.5-.035 0-.63-.63 0 .017-.3-.69-.038 0-.7-.7 0 .015-.103.1-.232.1a1.8 1.8 0 0 0-.33.2c-.55-.96.1-.96.1 0-.014-.032 0-.7-.38-.7-.7 0-.017-.4-.93.1a1.4 1.4 0 0 1-.27.2 1.5 1.5 0 0 0-.233.1c-.83.1-.378.2-.433.2-.025 0-.45-.45 0 .049-.226.1-.413.1-.281 0-.836-.291-.836-.437 0-.021-.024-.06-.052-.084-.094-.08-.198-.375-.19-.556 0-.135-.35.1-.368-.1-.45-.076 0-.35-.84.1-.111-.28.1-.77.1-.105 0-.93.2-.25.4-.354.1-.24.1-.55.1-.07 0-.13-.27.1-.27 0 .069-.17.1-.035 0-.2-.35.1-.35 0 .069-.14.1-.03 0-.18.1-.88.3-.157.1-.7.3-.15.3-.18a1.1 1.1 0 0 1 .263-.154c.122-.59.2-.121.2-.139a.6.6 0 0 1 .173-.104.7.7 0 0 0 .173-.1c.032-.56.2-.143.3-.143 0 .09-.17.1-.35-.24.1-.35.2-.035m-13.2-.63c.376 1.1.03 1.3.056l.45.1c.98.205.244.1a1 1 0 0 0 .208c.76.2.277.1.77.188.243.1a.4.4 0 0 1 .156.1c.31.9.132.052-.1.1 0 .97q.24.1.1c.05-.14.1 0 .122.24.8.1.125.1.042 0 .9.1.1.49.84.034 0 .184.1.333.1s.291.1.315.1c.028 0 .49.49 0 .17.34.1.34 0 .69.69 0 .17.35.1.35 0 .7.7 0 .17.34.1.34 0 .7.7 0 .17.35.1.35 0 .1.139.1.38.83.1.1.1.021-.1.1.3.1.3.29.1.46.1.36-.7.1.24.1.7.48.1.86.1.086s.84.14.1c.55.1.117.1.138.1.02 0 .83.139.1.55.1.118.1.138.1s.153.1.295.3.274.3.292.3c.048 0 .367.3.367.4 0 .2.1.152.3.295.1.142.3.274.3.295s.5.1.105.1c.59.1.104.1.104.1 0 .2.83.1.139.1.55.1.118.1.139 0 .2.76.1.122.41.1.9.1.104-.1.7.35.1.27.41.1.3.1-.1.22.1.7.1s.9.1.9.1c0 .34.65.65 0 .35.35.1 0 .38.7.7 0 .34.34.1 0 .38.7.7 0 .35.35.1 0 .38.7.7 0 .35.35.1 0 .38.7.7 0 .34.34 0 .27.139.1.246a.9.9 0 0 1 .104.3c0 .36.8.105.2.63.09-.1.7.1.38.1.35.49.1.35.1-.14 0 .76.104q.64.38.1a.13.1 0 0 0 .25.1c.27.59.1.72.2.14.1.39.2.6.2.232.9.322 2.3.211 3.2l-.62.5a1 1 0 0 1-.49.2 1 1 0 0 0-.49.2 2 2 0 0 1-.52.3c-.17.1-.45.2-.59.2a.5.5 0 0 1-.72.2c-.28-.42.1-.28.1.24-.45.3-.111.4a.23.2 0 0 0-.45.1c0 .039-.14.1-.35.1-.17-.35-.35.1a.9.9 0 0 1-.104.3 1 1 0 0 0-.104.2c0 .028-.14-.34-.018 0-.35-.35.1 0 .037-.14.1-.35.1-.017 0-.35-.35.1 0 .037-.13.1-.34.1-.017 0-.35-.35.1 0 .037-.14.1-.34.1-.018 0-.35-.35.1 0 .037-.14.1-.35.1-.017 0-.35-.35.1 0 .038-.41.1-.9.1-.48-.8.1-.7.1.11-.3.1-.3.1-.28-.45.1-.35.1.7-.24.1-.7.1-.48-.86.1-.86.1s-.45.1-.104.1c-.56.1-.104.1-.104.1 0 .02-.45.1-.104.1-.56.1-.104.1-.104.1 0 .02-.118.2-.26.3s-.26.3-.26.3c0 .048-.32.4-.365.4-.02 0-.153.1-.295.3s-.274.3-.294.3c-.021 0-.84-.14.1-.55.1-.117.1-.138.1-.02 0-.83-.139.1-.55.1-.118.1-.138.1s-.77-.122.1c-.41-.9.1-.104.1-.014-.011-.45-.7-.24-.55-.72-.017-.01-.7-.115.1-.45-.107.1-.138.1s-.56-.56c0 .017-.31-.7-.037 0-.69-.69 0 .018-.3-.69-.038 0-.7-.7 0 .017-.3-.69-.038 0-.7-.7 0 .018-.2-.48a2 2 0 0 0-.315.1c-.15.1-.299.1-.333.1s-.73-.83c-.1-.6-.101-.045 0-.1-.121a.12.1 0 0 1-.111c-.042-.014-.87-.115q-.46.1-.107a.12.1 0 0 0-.118.4.4 0 0 1-.16.1l-.243.1c-.76-.201-.277.1a1 1 0 0 0-.208 1 1 0 0 1-.226l-.503.1c-.447.1-1.5.056-1.9 0l-.503-.062a1 1 0 0 1-.226-.049 1 1 0 0 0-.208-.048 2 2 0 0 1-.277-.053c-.077-.017-.184-.045-.243-.059a.5.5 0 0 1-.16-.073c-.03-.024-.08-.038-.11-.027-.28-.101 0-.157-.032-.055-.027-.11-.045-.118-.034-.1-.038-.007-.062-.039a.2.2 0 0 0-.125-.052c-.042 0-.09-.017-.1-.034-.01-.021-.05-.035-.087-.035a1 1 0 0 1-.26-.104 1 1 0 0 0-.247-.105c-.027 0-.048-.017-.048-.034 0-.021-.031-.035-.07-.035-.038 0-.069-.017-.069-.035 0-.02-.031-.035-.07-.035-.037 0-.069-.017-.069-.034 0-.021-.03-.035-.07-.035-.037 0-.068-.017-.068-.035 0-.02-.032-.034-.07-.034s-.07-.018-.07-.035c0-.021-.03-.035-.065-.035-.038 0-.1-.042-.139-.09-.038-.049-.083-.08-.1-.07-.21-.052-.003-.077-.031-.024-.028-.055-.045-.07-.035-.13-.061-.024-.103-.07-.045-.048-.1-.086-.122-.086-.02 0-.083-.045-.138-.104-.056-.06-.118-.104-.14-.104-.02 0-.082-.046-.138-.105-.055-.055-.118-.104-.139-.104-.02 0-.152-.118-.294-.26-.143-.143-.274-.26-.292-.26-.048 0-.367-.32-.367-.366 0-.02-.118-.153-.26-.295s-.26-.274-.26-.295-.046-.084-.105-.14c-.055-.055-.104-.117-.104-.138 0-.02-.045-.083-.104-.139-.055-.056-.104-.118-.104-.139 0-.02-.038-.076-.087-.122-.045-.041-.076-.09-.069-.104-.014-.007-.045-.035-.07-.027-.024-.041-.055-.03-.76-.017-.022-.062-.07-.1s-.09-.101-.09-.14c0-.034-.014-.065-.035-.065-.018 0-.035-.032-.035-.07s-.014-.07-.035-.07c-.017 0-.034-.03-.034-.069 0-.038-.014-.07-.035-.07-.017 0-.035-.03-.035-.069 0-.038-.013-.07-.034-.07-.018 0-.035-.03-.035-.069 0-.038-.014-.07-.035-.07-.017 0-.034-.02-.034-.048a1 1 0 0 0-.104-.246 1 1 0 0 1-.104-.26.2.16 0 0 0-.049-.105c-.028-.021-.042-.063-.031-.9-.028-.007-.08-.038-.115-.035-.035-.049-.087-.035-.122-.038 0-.076-.038-.104q-.064-.046-.038-.108a.13.1 0 0 0-.025-.118.5.5 0 0 1-.073-.16l-.058-.243c-.34-1.3-.34-3 0-4.4.02-.77-.188.1-.244a.4.4 0 0 1 .073-.16.1.13 0 0 0 .025-.118q-.026-.61-.107c.038-.28.1-.66-.104-.014-.035 0-.87-.122-.35-.87-.115-.01-.27-.7-.09a.16.2 0 0 0 .049-.104c0-.35-.153.1-.26a1 1 0 0 0 .104-.247c0-.28-.49-.49 0 .035-.31-.07 0-.38-.69-.69 0 .034-.31-.07 0-.38-.69-.69 0 .035-.31-.07 0-.37-.69-.69 0 .035-.31-.07 0-.38-.69-.69 0 .035-.31-.066 0-.38-.1.1-.139-.38.1-.83.1-.1-.011-.21-.53-.77-.24-.55-.07-.007-.13-.62.1-.103-.46.1-.101.1-.122s.049-.84.1-.14c.06-.55.1-.117.1-.138 0-.2-.83.1-.139.1-.55.1-.118.1-.139 0-.2.1-.153.3-.295.1-.143.3-.275.3-.292 0-.49.3-.368.4-.368 0 .152-.118.3-.26.1-.143.3-.261.3-.261 0 .084-.49.1-.104.1-.6.1-.105.1-.105 0 .083-.48.1-.104.1-.59.1-.104.1-.104s.077-.38.1-.087c.041-.45.1-.76.1-.7.11-.6.1-.34-.28.1-.42.1-.31.1.1-.21.1-.7-.48.1-.9.1-.9 0 .066-.18.1-.035 0-.2-.35.1-.35 0 .069-.17.1-.034 0-.21-.35.1-.35 0 .07-.18.1-.035 0-.2-.35.1-.35 0 .069-.17.1-.034 0-.21-.35.1-.35 0 .069-.17.1-.035 0-.2-.34-.034s.14-.5.2-.105a.9.9 0 0 1 .26-.104c.038 0 .076-.17.1-.35-.2.1-.34.1-.034a.26.3 0 0 0 .138-.053c.038-.24.1-.38.1-.027s.073-.1.1-.042q.046-.64.1-.038a.12.1 0 0 0 .117-.25.5.5 0 0 1 .16-.073c.059-.13.2-.41.2-.058a2 2 0 0 1 .277-.053 1 1 0 0 0 .208-.048c.073-.31.1-.42.7-.104a4 4 0 0 0 .416-.053c.022-.6.1-.8.2-.007M120.6 361c.135-.3.3.1.3.31.18.1.35.1.35 0 .66.66 0 .17.35.1.35.1 0 .469.4.469.5 0 .35.63.63 0 .35.35.1 0 .37.69.69 0 .8.1.142.2a1.8 1.8 0 0 0 .205.3c.45.1.73.1.55.1-.013 0 0 .3.7.37.69.069-.017 0 .1.55.1.49.1.132.2.184.3a1 1 0 0 0 .125.2c.42.139.2.139.3 0 .25.46.46 0 .35.35.1 0 .38.7.7 0 .11.2.11.4 0 .281-.29.8-.436.8-.021 0-.6-.83.1-.8.1-.375.2-.555.2-.136 0-.35-.045-.368-.073-.01-.017-.045-.031-.076-.031-.035 0-.084-.031-.111-.07-.028-.038-.073-.069-.1-.069-.07 0-.247-.174-.247-.243 0-.028-.031-.077-.07-.104-.038-.028-.069-.077-.069-.112 0-.034-.014-.062-.035-.062-.017 0-.034-.031-.034-.07 0-.038-.014-.069-.035-.069-.017 0-.035-.031-.035-.07 0-.038-.014-.069-.027-.069-.018 0-.052-.042-.077-.097a1 1 0 0 0-.1-.156c-.028-.032-.035-.06-.021-.06s0-.03-.035-.07c-.035-.037-.048-.068-.035-.68 0-.01-.042-.055-.098a1.5 1.5 0 0 1-.184-.292 1 1 0 0 0-.128-.218.7.7 0 0 1-.1-.17.6.6 0 0 0-.115-.188.6.6 0 0 1-.09-.188 1.4 1.4 0 0 0-.077-.208c-.07-.132-.031-.414.1-.705.1-.15.4-.435.6-.525a.86.9 0 0 1 .417-.08m14.9-.003a.9.9 0 0 1 .423.1c.19.1.506.4.572.5.115.3.15.6.84.7a1.4 1.4 0 0 0-.77.2.6.6 0 0 1-.9.2.6.6 0 0 0-.114.2.6.6 0 0 1-.104.2c-.18-.8.1-.14.2-.55.1-.127.2-.159.3a.4.4 0 0 0-.118.2.3.3 0 0 1-.48.1c-.2-.63.1-.9.1-.25.1-.6.1-.77.1-.013 0-.27-.27.1 0 .038-.14.1-.35.1-.017 0-.35-.35.1 0 .038-.14.1-.34.1-.018 0-.35-.35.1 0 .034-.31.1-.7.1-.38-.69.1-.69.1 0 .07-.177.2-.246.2-.028 0-.73-.1.1-.29-.77.1-.112.1-.03 0-.66-.76-.17-.232.1-.368.1-.18-.475-.097-.555-.19-.024-.029-.062-.053-.083-.053-.073 0-.215-.184-.326-.424a.9.9 0 0 1-.111-.441c0-.115-.219-.23-.1-.51-.09 0-.34-.65-.65 0 .035-.32-.07s.017-.7-.07c.021 0 .035-.2-.045 0-.59.1-.26.1-.284a1 1 0 0 0 .125-.22 1.6 1.6 0 0 1 .184-.295c.045-.52.1-.93.1-.093-.014 0 0-.32-.7-.38-.7-.07-.017 0 .01-.41.1-.97-.52.1-.198.2-.33.1-.128.1-.232.1-.232 0 .031-.32-.07s.017-.7-.07c.02 0 .034-.27-.062 0-.76.4-.458.5-.458 0 .056-.18.1-.035 0-.2-.35.1-.35 0 .08-.17.1-.35-.2.1-.34.3-.034m-7.2-2c.253.1.336.1.51.3.319.3.326.4.326 1.9s-.007 1.6-.326 1.9c-.174.2-.257.2-.517.3-.226.1-.41.1-.736-.087-.121-.052-.437-.375-.492-.5-.108-.257-.115-.365-.115-1.6 0-1.5.007-1.6.326-1.9.167-.174.3-.226.5-.31a.97 0 0 1 .534-.003"/></g></svg>