<svg viewBox="0 0 36 32" xmlns="http://www.w3.org/2000/svg"><defs><clipPath id="a"><path d="M68 360h36v32H68z"/></clipPath></defs><g clip-path="url(#a)" transform="translate(-68 -360)"><path fill-rule="evenodd" d="M87.318 366.566c.05.067.218.134.29.113.042-.01.074-.003.074.014s.029.042.064.053c.197.064.533.215.594.268.368.314.482.434.636.66.16.228.329.606.429.944.018.064.043.117.06.117.015 0 .022.05.011.106-.007.06.004.13.029.158.071.085.068 1.971-.007 2.013-.015.011-.029.057-.029.106 0 .156-.24.871-.4 1.196-.168.345-.454.74-.54.754q-.406.054-.55-.053c-.211-.155-.222-.211-.233-1.054-.007-.54-.02-.772-.05-.783q-.041-.017-.024-.151c.01-.078.003-.141-.015-.141s-.032-.053-.032-.117c-.004-.099-.107-.356-.243-.578-.079-.138-.172-.222-.243-.222-.036 0-.064-.018-.064-.039 0-.018-.061-.06-.133-.092-.153-.063-.736-.049-.807.022a.17.17 0 0 1-.104.038c-.036 0-.064.018-.064.04 0 .02-.032.027-.072.013s-.071-.007-.071.014-.025.04-.054.04c-.086 0-.447.168-.447.21 0 .022-.014.032-.032.022-.035-.021-.443.183-.46.229-.008.018-.026.032-.044.032a1 1 0 0 0-.128.035c-.072.028-.086.05-.058.078.036.035.526.218.715.264.043.01.079.032.079.05 0 .017.014.031.036.031.057 0 .364.243.475.374.057.067.125.12.154.12s.05.02.05.046c0 .028.05.144.107.264.06.12.107.243.107.272 0 .024.018.06.036.07.021.01.036.067.036.124s.014.109.028.12c.05.028.054 1.004.007 1.064-.025.025-.035.102-.028.17.007.067.003.116-.007.109-.015-.007-.054.084-.09.204-.268.914-.779 2.035-1.25 2.758a5 5 0 0 0-.165.268 5 5 0 0 1-.232.352c-.672.956-1.627 1.918-2.445 2.462a1.3 1.3 0 0 0-.243.186.06.06 0 0 1-.05.029c-.06 0-.529.289-.529.324 0 .021-.032.028-.071.018-.047-.01-.076.003-.093.052q-.024.075-.047.032c-.032-.046-.29.043-.29.102 0 .018-.024.025-.053.015-.028-.014-.06.003-.075.031-.01.032-.043.046-.075.036-.029-.011-.064-.007-.079.01-.017.032-.41.124-.772.187a.7.7 0 0 0-.221.078c-.061.035-.1.038-.143.014-.068-.039-.318-.043-.354-.007-.014.014-.057 0-.1-.028a.34.34 0 0 0-.165-.053c-.05 0-.178-.032-.285-.075l-.304-.109a.4.4 0 0 1-.125-.063 2 2 0 0 0-.161-.106c-.533-.317-1.019-.966-1.233-1.636-.05-.152-.107-.282-.129-.293-.025-.007-.032-.08-.021-.187.01-.105.003-.176-.018-.176-.05 0-.05-1.484-.004-1.544.022-.025.029-.106.015-.19-.015-.092-.011-.156.014-.17.021-.014.054-.078.071-.145.083-.32.233-.807.293-.948.04-.088.104-.247.147-.353.1-.243.25-.352.493-.352.218 0 .447.116.493.254.022.052.054.098.072.098.05 0 .053.483.004.512-.047.028-.047.641 0 .67.02.014.028.074.014.144-.029.162.04.423.19.709.12.24.274.416.332.38.014-.01.053.022.085.068.093.144.368.208.769.186.393-.02.586-.07.686-.169.04-.038.086-.06.104-.05.039.026.25-.077.25-.119 0-.014.043-.046.093-.067.05-.025.078-.06.068-.081q-.021-.034.039-.025c.043.007.068-.01.068-.042 0-.039-.072-.063-.268-.092a4 4 0 0 1-.472-.099c-.114-.035-.222-.052-.243-.038-.018.01-.036 0-.036-.029 0-.028-.046-.07-.103-.095a.6.6 0 0 1-.186-.127c-.043-.046-.1-.084-.125-.084s-.068-.035-.09-.081a1.4 1.4 0 0 0-.143-.19c-.228-.262-.464-1.002-.464-1.457.003-.458.218-1.432.41-1.851.047-.099.097-.215.112-.265.028-.084.128-.278.364-.705.132-.233.336-.54.468-.698.054-.064.122-.159.15-.212.072-.13.326-.451.49-.624.075-.077.207-.229.297-.335.085-.106.36-.391.61-.634.247-.244.462-.47.473-.501.014-.035.042-.053.071-.042s.11-.05.197-.141c.082-.089.15-.152.15-.142 0 .022.168-.095.268-.186.085-.082.654-.445.74-.48.035-.01.153-.077.26-.148.111-.067.208-.123.222-.123.01 0 .129-.06.261-.134.129-.078.282-.149.34-.163a2 2 0 0 0 .257-.095 1 1 0 0 1 .182-.067c.018 0 .072-.039.122-.084.107-.096.207-.142.207-.092 0 .021.025.035.053.035.03 0 .054-.017.054-.039 0-.02.022-.031.05-.02.057.02.522-.114.522-.152 0-.014.04-.018.09-.007.05.007.114-.004.142-.029.036-.028.2-.042.519-.038.357.003.464-.004.464-.04q0-.042.029-.01m7.52-5.566c.412.003.823.02 1.05.052a8 8 0 0 0 .597.064c.103.003.207.024.232.05a.17.17 0 0 0 .1.041c.029 0 .143.032.25.075.107.038.24.074.293.074.054.003.1.017.1.035 0 .046.108.032.108-.018 0-.024.028-.01.064.028.032.043.1.092.15.113s.197.088.332.148c.133.057.24.1.24.089s.025.003.053.031c.029.029.168.117.311.194.358.198.948.628 1.17.853.063.067.131.12.15.113.017-.003.031.014.031.036 0 .024.108.148.236.268.129.123.329.345.443.493.118.152.261.325.322.388a1 1 0 0 1 .107.138c0 .01.082.144.179.296.1.151.179.282.179.293 0 .01.053.095.121.186.064.095.132.208.147.258s.071.176.125.282c.15.303.447 1.072.572 1.498.06.212.125.413.135.441s.025.085.03.124c.017.158.081.497.1.546.017.053.085.554.185 1.358.025.232.05.719.05 1.086 0 .684-.04 1.086-.24 2.493-.01.088-.02.225-.025.306 0 .085-.014.152-.028.152-.018 0-.029.056-.029.123a.45.45 0 0 1-.035.187c-.047.085-.25.917-.25 1.03 0 .05-.015.106-.033.123-.028.032-.146.392-.296.917a1 1 0 0 1-.065.176 4 4 0 0 0-.214.66c0 .031-.014.063-.029.07-.028.01-.221.42-.221.47 0 .013-.072.176-.161.359s-.161.338-.161.349c0 .039-.461.924-.565 1.086a1 1 0 0 0-.114.205 4 4 0 0 1-.24.387c-.296.448-.321.487-.364.582a.3.3 0 0 1-.072.099c-.021.01-.107.12-.189.24a6 6 0 0 1-.24.328c-.496.596-.947 1.079-1.225 1.318-.122.106-.275.24-.336.3-.061.057-.14.102-.172.095s-.082.004-.103.025c-.033.025-.086.021-.172-.007-.204-.07-.307-.155-.375-.307-.036-.077-.075-.14-.093-.14-.014 0-.029-.04-.029-.089 0-.05.011-.088.029-.088.014 0 .09-.13.168-.293.078-.158.186-.36.24-.444.056-.088.1-.18.1-.208s.035-.095.074-.155c.072-.096.358-.709.487-1.033.028-.078.103-.244.16-.364.057-.123.15-.345.208-.493.057-.152.142-.381.193-.511.05-.131.093-.286.093-.343 0-.06.014-.105.032-.105.085 0 .629-1.954.59-2.127-.011-.052-.004-.095.014-.095.078 0 .243-1.04.278-1.78.072-1.368-.01-2.44-.236-3.21l-.11-.37a4 4 0 0 0-.14-.405 11 11 0 0 1-.135-.317c-.09-.219-.172-.247-.208-.074a.8.8 0 0 0 0 .218q.025.089-.014.067c-.04-.024-.05.064-.04.254.008.064-.006.117-.024.117s-.043.053-.05.112c-.011.064-.072.364-.136.663-.068.3-.122.593-.122.653a.3.3 0 0 1-.043.148c-.021.02-.075.18-.117.352-.047.17-.097.353-.119.406a.3.3 0 0 0-.014.162q.021.07-.032.092c-.028.01-.054.038-.054.063 0 .046-.3.98-.357 1.104-.018.039-.05.134-.075.211a.7.7 0 0 1-.071.177.15.15 0 0 0-.033.095.3.3 0 0 1-.05.144 4 4 0 0 0-.182.43c-.075.195-.19.466-.254.607a1.4 1.4 0 0 0-.121.307c0 .032-.014.056-.029.056-.014 0-.06.074-.096.166-.04.095-.197.416-.354.716-.425.818-.515.984-.668 1.234-.076.127-.197.331-.269.458-.071.127-.239.385-.368.575-.128.194-.25.374-.271.406-.018.035-.093.137-.161.232s-.182.265-.257.37c-.23.335-.254.37-.336.462a5 5 0 0 0-.2.254c-.065.092-.215.286-.333.434s-.25.314-.29.37c-.067.092-.321.374-.79.882a2 2 0 0 0-.153.18c0 .017-1.615 1.618-1.637 1.618-.05 0-.543.483-.543.536 0 .039-.022.06-.064.053-.065-.007-.265.141-.55.405a.7.7 0 0 1-.176.134c-.014 0-.05.029-.075.067-.025.036-.06.067-.075.067-.032.004-.307.208-.547.402a1 1 0 0 1-.186.134.6.6 0 0 0-.132.092 5 5 0 0 1-.364.265c-.14.095-.269.204-.28.246q-.026.079-.053.036c-.018-.029-.086.003-.218.109a1.2 1.2 0 0 1-.21.145c-.015-.004-.555.324-1.223.75a2 2 0 0 1-.272.156 1.5 1.5 0 0 0-.253.14 1.4 1.4 0 0 1-.254.142c-.022 0-.036.017-.036.039 0 .017-.014.028-.028.017-.018-.01-.09.021-.161.067a.6.6 0 0 1-.165.088c-.021 0-.039.014-.039.036 0 .017-.025.035-.054.035s-.053.018-.053.042c0 .021-.01.032-.022.018-.032-.032-.521.218-.496.254.007.017-.008.038-.033.05-.028.01-.06.003-.071-.022-.007-.025-.029-.007-.043.039q-.022.084-.05.042c-.018-.032-.093-.01-.265.074-.128.064-.235.127-.235.145 0 .014-.025.028-.058.028-.085 0-.49.18-.54.24-.02.028-.056.038-.074.028s-.097.01-.172.046a8 8 0 0 1-.271.112c-.075.025-.136.067-.136.096 0 .031-.025.046-.072.031a.12.12 0 0 0-.11.032c-.022.028-.054.039-.072.028-.036-.02-.214.032-.425.12a1 1 0 0 1-.175.064c-.029.007-.061.02-.072.039-.01.014-.053.031-.093.031a6 6 0 0 0-.625.177.4.4 0 0 1-.118.031c-.04.004-.079.025-.093.05-.014.02-.054.031-.082.02s-.079 0-.108.029c-.032.032-.089.046-.146.035s-.097-.003-.097.018-.043.039-.096.035c-.14-.007-.654.113-.654.152 0 .017-.036.024-.082.014q-.082-.022-.132.035c-.036.042-.083.05-.2.032a.5.5 0 0 0-.219.007 1.3 1.3 0 0 1-.26.035c-.108.004-.34.025-.519.046-.56.067-2.073.035-2.427-.053-.075-.017-.092-.01-.092.042 0 .04-.015.053-.029.032-.075-.099-.365-.173-.365-.088 0 .042-.103.007-.185-.06a.17.17 0 0 0-.126-.039.12.12 0 0 1-.1-.028c-.05-.056-.604-.197-.675-.17-.04.015-.079-.003-.11-.041-.026-.04-.062-.057-.076-.043s-.043.007-.064-.02c-.061-.075-.536-.248-.55-.198-.008.02-.04.01-.076-.029a1.6 1.6 0 0 0-.307-.2c-.372-.195-.847-.477-.947-.565a5 5 0 0 0-.304-.225c-.218-.152-.89-.787-1.1-1.037l-.24-.286c-.35-.402-.858-1.255-1.144-1.925l-.146-.342a1 1 0 0 1-.068-.176c0-.014-.057-.208-.125-.434a7.7 7.7 0 0 1-.343-1.527c-.026-.169-.054-.307-.065-.307-.071 0-.064-2.355.007-2.574.011-.028.036-.18.061-.335.097-.666.229-1.262.4-1.808.04-.124.061-.261.05-.307q-.02-.086.018-.081c.022.007.165-.3.318-.677.154-.378.336-.808.404-.952a7 7 0 0 0 .19-.424c.089-.222.957-1.914 1.108-2.154a1.4 1.4 0 0 0 .121-.222c0-.014.043-.088.097-.173.139-.208.182-.282.21-.342.015-.028.09-.144.165-.254.075-.109.136-.215.136-.232s.035-.071.075-.117c.043-.046.146-.187.232-.314.322-.469.783-1.065 1.05-1.357.276-.296.994-1.005 1.023-1.005a.7.7 0 0 0 .154-.116c.221-.187.325-.272.343-.272.053 0 .268-.166.268-.204 0-.025.014-.036.035-.025.043.024.5-.219.5-.268 0-.018.058-.032.126-.032s.125.018.125.035c0 .022.029.046.064.06.086.028.33.265.33.318 0 .024.017.046.035.046.021 0 .036.063.036.14s-.015.142-.033.142c-.017 0-.046.035-.06.077a.4.4 0 0 1-.068.134c-.04.046-.293.522-.686 1.27a20 20 0 0 0-.18.37 46 46 0 0 1-.446.966c-.075.162-.132.314-.121.342.01.025-.008.053-.036.063-.029.011-.05.046-.05.078a.4.4 0 0 1-.054.148c-.254.44-1.061 3.015-1.068 3.41-.004.106-.025.19-.054.215-.036.028-.043.074-.029.151.015.071.011.106-.01.092q-.035-.015-.036.01c0 .018-.036.223-.079.452a5.4 5.4 0 0 0-.078.808c0 .232-.015.398-.036.412-.06.039-.054 1.657.007 1.728q.043.053.022.197c-.047.283.243 1.51.471 2.014.376.825.426.85.39.2-.014-.31-.01-.496.01-.525.022-.02.054-.169.08-.324.02-.155.064-.416.092-.575.032-.162.06-.331.064-.374a.3.3 0 0 1 .036-.12c.015-.024.018-.088.007-.133-.014-.05-.01-.082.008-.07.017.01.053-.05.075-.131.232-.787.729-1.594 1.072-1.742.136-.057.325-.088.325-.05 0 .01.071.06.157.103.097.053.175.123.2.186.025.057.058.103.072.103s.025.211.025.465c0 .448.05.762.154 1.005.05.113.089.219.135.36.133.395.687 1.03 1.08 1.237.064.032.085.032.107 0q.027-.046.054.032c.014.05.042.07.075.06.028-.01.05-.003.05.014 0 .07.425.212.647.212.067 0 .139.014.16.032.018.017.3.02.65.007.337-.011.616-.007.616.01 0 .014.068.018.153.007.082-.014.222-.028.311-.039.275-.024.83-.169.847-.218.01-.028.05-.039.104-.025s.086.007.086-.021c0-.025.021-.035.05-.025.078.032.664-.197.664-.257 0-.018.036-.032.083-.025.046.004.075-.01.071-.035-.007-.025.014-.035.043-.025.06.025.447-.144.447-.194 0-.02.025-.028.053-.017.029.014.054.007.054-.014 0-.018.043-.046.093-.057.103-.028.382-.19.4-.236.007-.018.04-.032.072-.032.078 0 .4-.2.4-.247 0-.02.014-.031.032-.024.054.014.508-.296.486-.332q-.015-.025.029-.014c.053.021.346-.173.346-.23 0-.02.022-.034.05-.034a.45.45 0 0 0 .172-.1l.243-.182c.429-.314 1.598-1.337 1.68-1.467.028-.046.068-.085.086-.085.075 0 1.297-1.298 1.397-1.484.018-.04.046-.067.06-.067.058 0 .923-1.108.923-1.185 0-.028.014-.05.032-.05.021 0 .096-.091.168-.204.075-.11.172-.243.21-.293.072-.088.28-.426.67-1.09.096-.165.189-.324.207-.352.053-.081.536-1.047.536-1.072 0-.01.042-.106.093-.208.05-.099.121-.271.164-.377.04-.106.1-.258.132-.335.1-.219.229-.62.207-.642-.014-.01 0-.039.025-.063.065-.067.283-.818.286-.988.004-.077.022-.158.043-.176.047-.039.197-.652.207-.853a1 1 0 0 1 .04-.198.45.45 0 0 0 .003-.2c-.014-.089-.007-.142.022-.149.021-.007.043-.102.05-.208a1.2 1.2 0 0 1 .029-.243 5 5 0 0 0 .057-.437c.039-.395.021-.653-.05-.699q-.042-.029.007-.028c.071 0 .057-.151-.072-.652a2 2 0 0 0-.554-.938c-.196-.183-.5-.384-.593-.395-.043-.003-.096-.028-.114-.053-.022-.024-.09-.046-.15-.053-.065-.003-.118-.024-.118-.046 0-.045-.519-.169-.576-.134a.06.06 0 0 1-.068-.017c-.028-.05-1.537-.057-1.569-.01-.035.049-.146.077-.146.038 0-.063-.661.046-.736.12-.015.014-.065.025-.115.025a.23.23 0 0 0-.153.077c-.04.039-.068.057-.068.035 0-.024-.025-.042-.054-.042s-.054.01-.054.025c0 .017-.053.032-.118.035-.164.007-.632.194-.632.25q0 .048-.072.025c-.096-.032-.564.187-.593.275-.014.046-.032.057-.046.028-.04-.06-.53.198-.558.293-.01.042-.028.057-.04.035-.017-.038-.489.177-.507.237-.007.017-.028.02-.05.01-.018-.014-.075 0-.125.025-.071.039-.1.039-.164 0-.054-.035-.079-.039-.09-.007-.007.02-.078-.025-.157-.106-.336-.342-.318-.652.05-.952.104-.085.197-.166.2-.183.008-.014.032-.025.058-.025.05 0 .425-.268.443-.317.007-.022.035-.036.064-.036.072 0 .332-.187.336-.236 0-.025.021-.035.046-.025.025.007.104-.024.172-.074a.8.8 0 0 1 .186-.109c.032-.014.06-.035.06-.053s.026-.032.054-.032c.029 0 .054-.014.054-.031s.043-.043.093-.053a.5.5 0 0 0 .178-.11.5.5 0 0 1 .165-.105c.129-.04.432-.23.5-.31q.062-.074.064-.032 0 .047.226-.074c.121-.067.325-.184.454-.254.128-.07.26-.138.296-.148.032-.01.061-.043.061-.07 0-.036.021-.043.071-.03q.073.029.072-.034c0-.032.018-.046.036-.036.046.029.357-.116.379-.176.01-.025.05-.039.089-.028.036.01.068.003.068-.014s.021-.036.05-.036c.071 0 .557-.232.557-.267 0-.018.015-.022.032-.011.033.021.458-.138.694-.261a.7.7 0 0 1 .19-.07c.028 0 .05-.015.05-.036 0-.017.035-.031.081-.031.093.003.497-.142.53-.19.014-.019.05-.026.082-.015.035.014.068.003.082-.032.01-.028.043-.046.071-.035.061.025.626-.148.658-.201.014-.018.054-.025.09-.01q.06.02.132-.053.07-.075.089-.04c.018.054.114.057.114.004 0-.017.015-.028.032-.017.043.028.719-.124.7-.156-.006-.014.022-.017.069-.01a.15.15 0 0 0 .136-.039c.043-.042.1-.05.24-.032.106.011.181.008.181-.014 0-.017.1-.035.226-.038.121 0 .343-.018.49-.036.231-.028.645-.04 1.058-.038"/></g></svg>