<svg viewBox="0 0 36 32" xmlns="http://www.w3.org/2000/svg"><g transform="translate(-68 -360)"><path fill-rule="evenodd" d="M87.3 366.6c.5.1.218.1.29.1.042-.1.1-.3.1.014s.29.64.1c.197.1.533.2.594.3.368.3.482.4.636.7.16.2.329.6.429.9.18.1.43.1.6.1.015 0 .22.1.11.1-.7.1.4.1.29.2.71.1.068 2-.007 2-.15-.29.1-.29.1 0 .156-.24.9-.4 1.2-.168.3-.454.7-.54.8q-.406.1-.55-.053c-.211-.155-.222-.211-.233-1.1-.007-.54-.02-.772-.05-.783q-.041-.017-.024-.151c.01-.78-.141-.015-.141s-.032-.053-.032-.117c-.004-.099-.107-.356-.243-.578-.079-.138-.172-.222-.243-.222-.036 0-.064-.018-.064-.039 0-.018-.061-.06-.133-.092-.153-.063-.736-.049-.807a.17.2 0 0 1-.104c-.036 0-.64-.64 0 .02-.32-.72s-.071-.007-.71-.25-.54c-.086 0-.447.2-.447.2 0 .022-.14-.32-.035-.021-.443.2-.46.2-.8-.26-.44a1 1 0 0 0-.128c-.72-.86-.58.1.36.526.2.715.3.43.79.79 0 .17.31.31.1 0 .364.2.475.4.57.1.125.1.154.1s.5.5c0 .28.1.144.1.264.1.12.1.243.1.272 0 .24.6.7.1.67.124s.14.1.28.1c.5.054 1.007 1.1-.25-.35.1-.28.2.7.1.3.1-.7.1-.015-.007-.54.1-.9.2-.268.9-.779 2-1.3 2.8a5 5 0 0 0-.165.3 5 5 0 0 1-.232.4c-.673-1.6 1.9-2.4 2.5a1.3 1.3 0 0 0-.243.2.6.1 0 0 1-.5c-.06 0-.529.3-.529.3 0 .021-.32-.71-.047-.01-.76-.93.1q-.24.1-.47c-.032-.046-.29-.29.1 0 .018-.24-.53-.028-.014-.6-.75-.1-.43-.75-.029-.011-.064-.007-.79-.17-.41.1-.772.2a.7.7 0 0 0-.221.1c-.61-.1-.143-.068-.039-.318-.043-.354-.007-.14-.057 0-.1-.028a.34.3 0 0 0-.165-.053c-.05 0-.178-.032-.285-.075l-.304-.109a.4.4 0 0 1-.125-.063 2 2 0 0 0-.161-.106c-.533-.317-1-.966-1.2-1.6-.05-.152-.107-.282-.129-.293-.025-.007-.032-.08-.021-.187-.105-.176-.018-.176-.05 0-.05-1.5-.004-1.5.022-.25-.106-.19-.015-.092-.011-.156-.17-.14.1-.78.1-.145.1-.32.2-.807.3-.948-.88.1-.247.1-.353.1-.243.3-.352.5-.352.2 0 .447.1.493.3.22.1.54.1.72.1.05 0 .53.5.4.5-.47-.47.6 0 .67.14.74.144-.29.2.4.4.19.7.12.2.274.4.332.4.014-.1.1.22.1.68.1.144.4.208.8.186.4-.2.6-.7.7-.169-.38.1-.6.1-.5.26.3-.77.3-.119 0-.14-.46.1-.67-.25.1-.6.1-.081q-.021-.34-.025c.43.068-.1.1-.042 0-.039-.072-.063-.268-.092a4 4 0 0 1-.472-.099c-.114-.035-.222-.052-.243-.038-.18-.036 0-.036-.029 0-.028-.046-.07-.103-.095a.6.6 0 0 1-.186-.127c-.043-.046-.1-.084-.125-.084s-.068-.035-.09-.081a1.4 1.4 0 0 0-.143-.19c-.228-.262-.464-1-.464-1.5.003-.458.2-1.4.41-1.9.047-.99.1-.215.1-.265-.84.1-.278.4-.705.1-.233.3-.54.5-.698.1-.64.1-.159.2-.212.1-.13.3-.451.5-.624.1-.77.2-.229.3-.335.1-.106.4-.391.6-.634.2-.244.5-.47.5-.501-.35-.53.1-.042s.11-.5.2-.141c.082-.89.2-.152.2-.142 0 .22.2-.95.3-.186.1-.82.7-.445.7-.48-.1.2-.77.3-.148.1-.67.2-.123.2-.123 0 .129-.6.3-.134.1-.78.3-.149.3-.163a2 2 0 0 0 .257-.095 1 1 0 0 1 .182-.067c.018 0 .072-.39.1-.84.1-.96.2-.142.2-.092 0 .21.35.1.35 0 .054-.17.1-.039 0-.2-.31.1-.2.1.2.5-.114.5-.152 0-.14-.18.1-.7.7.1-.4.1-.29-.28.2-.42.5-.38.4.3.5-.4.5-.04q0-.42-.01m7.5-5.6c.412.823 1.1.052a8 8 0 0 0 .597.1c.103.207.232.1a.17.2 0 0 0 .1c.029 0 .143.25.1.107.24.1.293.1.54.1.1 0 .46.1.32.1-.018 0-.24-.1.1.28.43.1.92.2.113s.197.1.332.1c.133.1.24.1.24.1s.25.53c.29.168.1.311.2.358.2.948.6 1.2.853.1.67.1.12.2.113-.3.14.036 0 .24.1.148.2.268.1.123.3.345.4.493.1.152.3.325.3.388a1 1 0 0 1 .107.1c0 .1.1.144.2.296.1.151.2.282.2.293 0 .1.1.95.1.186.1.95.1.208.1.258s.71.2.125.3c.15.3.447 1.1.572 1.5.6.2.125.4.135.4s.25.1.3.1c.17.2.81.5.1.5.17.1.85.6.185 1.4.25.2.5.7.05 1.1 0 .684-.04 1.1-.24 2.5-.1.1-.2.2-.25.3 0 .085-.14.2-.28.2-.018 0-.29.1-.29.1a.45.5 0 0 1-.35.2c-.47.1-.25.9-.25 1 0 .05-.15.1-.33.1-.28-.146.4-.296.9a1 1 0 0 1-.65.2 4 4 0 0 0-.214.7c0 .031-.14.1-.29.1-.28-.221.4-.221.5 0 .013-.72.2-.161.4s-.161.3-.161.3c0 .039-.461.9-.565 1.1a1 1 0 0 0-.114.2 4 4 0 0 1-.24.4c-.296.4-.321.5-.364.6a.3.3 0 0 1-.72.1c-.21-.107.1-.189.2a6 6 0 0 1-.24.3c-.496.6-.947 1.1-1.2 1.3-.122.1-.275.2-.336.3-.61.1-.14.1-.172.1s-.82-.103c-.33-.86-.172-.007-.204-.07-.307-.155-.375-.307-.036-.077-.075-.14-.093-.14-.014 0-.029-.04-.029-.089 0-.5-.88-.88 0 .09-.13.2-.293.1-.158.2-.36.2-.444.1-.88.1-.18.1-.208s.035-.95.1-.155c.072-.96.4-.709.5-1.028-.78.1-.244.2-.364.1-.123.2-.345.2-.493.1-.152.1-.381.2-.511.1-.131.1-.286.1-.343 0-.6-.105-.105.1 0 .629-2.59-2.1-.011-.052-.004-.95-.95.1 0 .243-1.278-1.8.072-1.4-.01-2.4-.236-3.2l-.11-.37a4 4 0 0 0-.14-.405 11 11 0 0 1-.135-.317c-.09-.219-.172-.247-.208-.074a.8.8 0 0 0 0 .218q.25.1-.14.1c-.04-.024-.5.1-.4.3.8.1-.6.1-.24.1s-.43.1-.5.1c-.11.1-.72.4-.136.7-.68.3-.122.6-.122.7a.3.3 0 0 1-.43.1c-.21-.75.2-.117.4-.47.2-.97.4-.119.4a.3.3 0 0 0-.14.2q.21.1-.32.1c-.28-.54-.54.1 0 .046-.4-.357 1.1-.18-.5.1-.75.2a.7.7 0 0 1-.71.2.15.2 0 0 0-.33.1.3.3 0 0 1-.5.1 4 4 0 0 0-.182.4c-.75.2-.19.5-.254.6a1.4 1.4 0 0 0-.121.3c0 .032-.14.1-.29.1-.014 0-.6.1-.96.2-.4.1-.197.4-.354.7-.425.8-.516-.668 1.2-.76.1-.197.3-.269.5-.71.1-.239.4-.368.6-.128.2-.25.4-.271.4-.18-.93.1-.161.2s-.182.3-.257.4c-.23.3-.254.4-.336.5a5 5 0 0 0-.2.3c-.65.1-.215.3-.333.4s-.25.3-.29.4c-.67.1-.321.4-.79.9a2 2 0 0 0-.153.2c0 .017-1.6 1.6-1.6 1.6-.05 0-.543.5-.543.5 0 .039-.22.1-.64.1-.065-.007-.265.1-.55.4a.7.7 0 0 1-.176.1c-.014 0-.5-.75.1-.25-.6.1-.75.1-.32-.307.2-.547.4a1 1 0 0 1-.186.1.6.6 0 0 0-.132.1 5 5 0 0 1-.364.3c-.14.1-.269.2-.28.2q-.26.1-.53c-.018-.029-.86-.218.1a1.2 1.2 0 0 1-.21.1c-.015-.004-.555.3-1.2.75a2 2 0 0 1-.272.2 1.5 1.5 0 0 0-.253.1 1.4 1.4 0 0 1-.254.1c-.022 0-.36-.36 0 .017-.14-.28-.018-.01-.9-.161.1a.6.6 0 0 1-.165.1c-.021 0-.39-.39 0 .017-.25-.54s-.53-.53c0 .021-.1-.22-.032-.032-.521.2-.496.3.7-.8-.33-.28-.6-.071-.022-.007-.025-.029-.007-.43q-.22.1-.5c-.018-.032-.093-.01-.265.1-.128.1-.235.1-.235.1 0 .014-.25-.58-.085 0-.49.2-.54.2-.2-.56-.74s-.97-.172a8 8 0 0 1-.271.1c-.75-.136.1-.136.1 0 .031-.25-.72a.12.1 0 0 0-.11c-.22-.54-.72-.036-.02-.214-.425.1a1 1 0 0 1-.175.1c-.29-.61-.72-.1-.53-.93a6 6 0 0 0-.625.2.4.4 0 0 1-.118c-.4-.79-.93-.14-.54-.82s-.079 0-.108c-.32-.89-.146s-.097-.003-.97-.43-.96c-.14-.007-.654.1-.654.2 0 .017-.36-.82q-.082-.022-.132c-.36-.83-.2a.5.5 0 0 0-.219 1.3 1.3 0 0 1-.26c-.108-.34-.519-.56.1-2.1.035-2.4-.053-.075-.017-.092-.01-.92 0 .04-.15.1-.29-.075-.099-.365-.173-.365-.088 0 .042-.103-.185-.06a.17.2 0 0 0-.126-.39.1.12 0 0 1-.1-.028c-.05-.056-.604-.197-.675-.17-.4-.079-.003-.11-.041-.026-.04-.062-.057-.076-.043s-.43-.064-.02c-.061-.075-.536-.248-.55-.198-.8-.4-.076-.029a1.6 1.6 0 0 0-.307-.2c-.372-.195-.847-.477-.947-.565a5 5 0 0 0-.304-.225c-.218-.152-.89-.787-1.1-1l-.24-.286c-.35-.402-.858-1.3-1.1-1.9l-.146-.342a1 1 0 0 1-.068-.176c0-.014-.057-.208-.125-.434a7.7 7.7 0 0 1-.343-1.5c-.026-.169-.054-.307-.065-.307-.071 0-.064-2.4.007-2.6.011-.28-.18.1-.335.1-.666.2-1.3.4-1.8.04-.124.1-.261.1-.307q-.02-.86-.081c.22.165-.3.3-.677.2-.378.3-.808.4-.952a7 7 0 0 0 .19-.424c.089-.223-1.9 1.1-2.2a1.4 1.4 0 0 0 .121-.222c0-.14-.88.1-.173.1-.208.2-.282.2-.342-.28.1-.144.2-.254.1-.109.1-.215.1-.232s.035-.71.1-.117c.043-.46.1-.187.2-.314.3-.469.8-1.1 1.1-1.4.276-.297-1 1-1a.7.7 0 0 0 .154-.116c.221-.187.3-.272.3-.272.1 0 .268-.166.3-.204 0-.25-.36-.25.24.5-.219.5-.268 0-.18.1-.32.1-.032s.125.125c0 .22.46.1.6.1.28.3.265.3.318 0 .24.46.46 0 .36.1.36.1s-.15.1-.33.1c-.017 0-.46-.6.1a.4.4 0 0 1-.68.1c-.4-.293.5-.686 1.3a20 20 0 0 0-.18.4 46 46 0 0 1-.447c-.75.2-.132.3-.121.3.1-.8.1-.36.1-.29-.5-.5.1a.4.4 0 0 1-.54.1c-.254.4-1.1 3-1.1 3.4-.4.1-.25.2-.54.2-.36-.43.1-.29.2.15.1.11.1-.1.1q-.035-.015-.36c0 .018-.36.2-.79.5a5.4 5.4 0 0 0-.78.8c0 .232-.15.4-.36.4-.6-.054 1.7.007 1.7q.43.1.22.2c-.47.3.243 1.5.471 2.376.8.426.9.39.2-.014-.31-.01-.496-.525-.2.1-.169.1-.324-.155.1-.416.1-.575-.162.1-.331.1-.374a.3.3 0 0 1 .036-.12c.015-.24-.88-.133-.014-.05-.01-.82-.7.1.1-.5.1-.131.2-.787.7-1.6 1.1-1.7.136-.57.3-.88.3-.05 0 .1.1.6.2.103.1.53.2.123.2.186.57.1.103.1.103s.25.2.25.5c0 .448.1.762.2 1.5.1.89.2.135.4.133.4.687 1 1.1 1.2.64.85.107 0q.027-.46.1.032c.14.1.42.1.75.1.028-.1.1-.3.014 0 .7.4.212.6.212.1 0 .139.16.18.3.65.337-.11.6-.7.6.01 0 .14.1.18.2.7.1-.14.2-.28.3-.39.3-.24.8-.169.8-.218-.28.1-.39.1-.025s.86.086-.021c0-.25-.35-.25.1.32.7-.197.7-.257 0-.18-.32.1-.25.4.1-.1.1-.035-.007-.25-.35-.25.1.25.4-.144.4-.194 0-.2-.28.1-.17.14.1.7.1-.014 0-.18-.46.1-.57.1-.28.4-.19.4-.236-.18-.32.1-.32.1 0 .4-.2.4-.247 0-.2-.31-.24.1.14.5-.296.5-.332q-.015-.25-.014c.53.346-.173.3-.23 0-.2-.34-.034a.45.5 0 0 0 .172-.1l.243-.182c.429-.314 1.6-1.3 1.7-1.5.028-.46.1-.85.1-.85.1 0 1.3-1.3 1.4-1.5.018-.4-.67.1-.67.1 0 .923-1.1.923-1.2 0-.28-.5-.5 0 .096-.91.2-.204.1-.11.2-.243.2-.293.1-.88.3-.426.7-1.1.096-.165.2-.324.2-.352.1-.81.5-1.536-1.1 0-.1-.106.1-.208.1-.99.1-.271.2-.377-.106.1-.258.1-.335.1-.219.2-.62.2-.642-.014-.01 0-.39-.63.1-.67.3-.818.3-.988-.77-.158-.176-.39.2-.652.2-.853a1 1 0 0 1 .04-.198.4.45 0 0 0 .003-.2c-.014-.089-.007-.142-.149-.7-.102-.208a1.2 1.2 0 0 1 .029-.243 5 5 0 0 0 .057-.437c.039-.395-.653-.05-.699q-.042-.29-.028c.071 0 .057-.151-.072-.652a2 2 0 0 0-.554-.938c-.196-.183-.5-.384-.593-.395-.043-.003-.096-.028-.114-.053-.022-.024-.09-.046-.15-.053-.065-.003-.118-.024-.118-.046 0-.045-.519-.169-.576-.134a.6.1 0 0 1-.068-.017c-.028-.05-1.5-.057-1.6-.01-.35-.146.1-.146 0-.063-.661-.736.1-.15-.65-.115a.23.2 0 0 0-.153.1c-.4-.68.1-.68 0-.024-.025-.042-.054-.042s-.54-.54c0 .017-.53-.118-.164-.632.2-.632.3q0 .048-.72c-.096-.032-.564.2-.593.3-.14-.32.1-.46-.04-.06-.53.2-.558.3-.1-.28.1-.4-.017-.038-.489.2-.507.2-.7-.28-.5-.018-.014-.075 0-.125-.71-.1-.164 0-.054-.035-.079-.039-.09-.007-.7-.078-.025-.157-.106-.336-.342-.318-.652-.952.1-.85.2-.166.2-.183-.14-.25.1-.25.1 0 .425-.268.4-.317-.22-.36.1-.36.1 0 .332-.187.3-.236 0-.25-.35-.25.7.1-.24.2-.074a.8.8 0 0 1 .186-.109c.032-.14.1-.35.1-.053s.026-.32.1-.032c.029 0 .054-.14.1-.031s.043-.43.1-.053a.5.5 0 0 0 .178-.11.5.5 0 0 1 .165-.105c.129-.4.4-.23.5-.31q.062-.74.1-.032 0 .47.2-.074c.121-.67.3-.184.5-.254.1-.7.3-.138.3-.148-.1.1-.43.1-.07 0-.36-.43.1-.03q.73.072-.034c0-.32-.46-.36.29.4-.116.4-.176-.25.1-.39.1-.28.1.1.3.1-.014s.021-.36-.036c.071 0 .557-.232.6-.267 0-.18-.22-.11.21.5-.138.7-.261a.7.7 0 0 1 .19-.07c.028 0 .05-.15.1-.036 0-.17-.31.1-.31.1.3.5-.142.5-.19-.19.1-.26.1-.15.14.1.3.1-.32-.28-.46.1-.35.1.25.6-.148.7-.201-.18.1-.25.1-.01q.6.132-.53.1-.75.1-.04c.18.1.114.1.114 0-.17-.28-.17.28.7-.124.7-.156-.006-.14-.17.1-.01a.15.2 0 0 0 .136-.039c.043-.42.1-.5.2-.32.1.11.2.8.2-.014 0-.17.1-.35.2-.38.1 0 .343-.18.5-.36.2-.28.6-.04 1.1-.038"/></g></svg>