<svg viewBox="0 0 20 33" xmlns="http://www.w3.org/2000/svg"><g transform="translate(-222 -359)"><path fill-rule="evenodd" d="M230.3 383.2a.74.7 0 0 0-.526.78.8 0 0 0-.44.4c-.77.1-.88.2-.88.4 0 .193.244.1.387.2.399.7.548 1.1.357.2-.77.3-.202.4-.423.1-.134.1-.181.1-.354-.025-.363-.246-.655-.565-.756m-2.8-3.4a.587.6 0 0 0-.374.8c.124.3.432.4.704.3a.59.6 0 0 0 .29-.774.5.54 0 0 0-.29-.298.5.5 0 0 0-.33-.028m3.7-.275a.96 0 0 0-.417.1c-.135.1-.356.3-.359.3 0 .02-.8-.22-.012 0-.48.1-.85.1-.37.1-.74.1-.85.1s-.23.1-.25.2c0 .093-.2.2-.43.2-.28-.28-.3.2.4.1.43.2a.6.6 0 0 0 .25.2c.9.46.1.82.2.74.2.305.4.452.5.164.1.566.2.61.1.012-.12-.2.1-.2.1 0 .348-.14.5-.287a.96 0 0 0 .277-.485c.15-.539-.104-1.1-.59-1.3a1 1 0 0 0-.426-.076m-2.9-3.7a.97 0 0 0-.653c-.427.1-.743.6-.743 1.1 0 .343.2.712.4.93.1.115.4.216.6.216.2 0 .484-.1.6-.217.4-.303.5-.807.4-1.3a1.1 1.1 0 0 0-.695-.741m3.5-1c-.26-.096-.509-.036-.718.2a.6.6 0 0 0-.147.2c-.9-.31.1-.45.1-.017 0-.29.1-.29.3 0 .146.268.268s.4.54.1a.8.8 0 0 0 .147.2c.347.3.876.2 1.1-.215.1-.98.1-.175.1-.348s-.014-.25-.065-.348a.77.8 0 0 0-.395-.378m-5.1-2.4a.74.7 0 0 0-.362.2c-.556.6.017 1.6.766 1.3.291-.1.5-.423.5-.744 0-.313-.219-.64-.496-.738a.7.7 0 0 0-.417-.03m9.3-.83c.28.54.54.1q0 .43.1.041c.062 0 .113.113 0 .15.3.1.3 0 .71.71 0 .32.44.1.044s.113.113c0 .36.45.3.45.2 0 .268.268 0 .17.1.29.3.29.2 0 .297.297s.45.226c.18 0 .226.226 0 .33.45.1.45.1 0 .142.142 0 .14.1.3.2.3.1 0 .155.155 0 .27.44.1.44 0 .74.85.9.54.116.054 0 .99.99 0 .14.3.1.3 0 .79.7-.2.88.1.153.1.03 0 .56.56s.2.43.42.42.17.4c.034 0 .384.4.384.4 0 .03-.534-.551-.012-.011-.018-.283-.03-.724-.03-.607 0-.703-.006-.703-.045 0-.038-.116-.044-.862-.044-.557 0-.862-.012-.862-.03s-.08-.03-.184-.03c-.144 0-.184-.009-.184-.045 0-.032-.03-.044-.113-.044-.082 0-.113-.012-.113-.045 0-.036-.037-.045-.155-.045-.142 0-.156-.005-.156-.065 0-.39.1-.325.2-.637.2-.488.3-.569.3-.557m-11.4-3c.014 0 .2.11-.11-.22-.28s-.011-.021-.011-.45-.45-.045m12.6-1.9c.263 0 .424.424s.84.198c.158 0 .197.197 0 .32.44.1.044s.113.113.32.114c.062 0 .113.113 0 .14.1.3.1.3.1 0 .142.142q.2.8c.045 0 .104.135a.26.3 0 0 0 .138c.049 0 .187.311.1.184.1.325.1.772.1q.544.543-.021c0-.18.1-.3.2-.3.1 0 .184.184 0 .013-.2.1-.45.2-.4.1-.77.2-.215.3-.9.1-.175.2-.184.2-.008-.01-.034 0-.56-.23-.9-.153-.06 0-.11-.11s-.178-.48c-.303 0-.481-.012-.481-.03s-.133-.03-.34-.03c-.282 0-.338-.009-.338-.044 0-.04-.108-.045-.792-.045s-.791-.791c0 .035-.4-.184h-.183v-.52c0-.445-.006-.522-.043-.522q-.44-.042-.107c0-.8-.11.1-.122-.9.1-.27.1-.042s.192-.27.4-.027m-5.3-1.7c-.166-.004-.322-.322 0 .015-.71-.156a.7.7 0 0 0-.257.1.5.5 0 0 1-.124.1.4.4 0 0 0-.12.1c-.5-.106.1-.126.1-.02-.006-.037 0-.37s-.31.1-.68.1a.27.3 0 0 0-.85.1c-.1-.3.1-.45.1-.017 0-.28-.28s-.11-.28c-.015 0-.29-.29a.15.2 0 0 1-.4.1c-.27-.44.1-.47.2-.6.2 0 .205.1.259.1.48.1.53.3.39.1-.1.4-.24.7-.036l.484-.18.4.128a4 4 0 0 1 .492.2c.294.2.367.2.367.3 0 .2.38.1.038a.16.2 0 0 1 .93.7.7 0 0 0 .306.1c.03 0 .084-.48.1-.11.1-.96.1-.146.1-.34 0-.122-.017-.283-.04-.357a2 2 0 0 1-.056-.211 1.6 1.6 0 0 0-.18-.313 3 3 0 0 1-.184-.286c-.009-.027-.031-.05-.048-.05-.014 0-.029-.018-.029-.042s-.03-.05-.07-.06c-.04-.012-.065-.032-.057-.47-.018-.008-.03-.04-.03-.092 0-.143-.033-.143-.092 0-.03-.02-.057-.043-.057s-.42-.42-.28-.07-.006c-.04-.018-.071-.05-.071-.075 0-.02-.032-.038-.071-.038-.04 0-.07-.015-.07-.03 0-.018-.035-.03-.077-.03a.4.4 0 0 1-.15-.044c-.04-.024-.217-.04-.384-.044m-.682-.592c.78.248.614.1l.627.1.467.3c.254.1.508.3.562.3.102.1.803.9.803 1 0 .24.66.96.1.193.3.768.3.789-.9.6.3.1.4.46.1.46.6 0 .465-.8.6-.4.6-.22-.36-.28.1.12-.155.6-.206.7a.2.2 0 0 0-.23.1c-.8.1-1 1.4-1 1.3 0-.01-.26-.57-.34-.65-.73-.006-.003-.37-.68a1 1 0 0 1-.19.1 2 2 0 0 0-.172.1.15.2 0 0 1-.93c-.028 0-.54-.54 0 .012-.277.1-.613.1-.644.1-.692.1-1.2-.039-.04-.009-.178-.041-.305-.068q-.238-.053-.306-.12c-.04-.038-.082-.068-.099-.068-.014 0-.025-.015-.025-.03a.3 0 0 0-.031-.03c-.07 0-.455-.327-.746-.637-.334-.35-.45-.518-.421-.595q.015-.047-.026-.048c-.048 0-.178-.265-.198-.402-.008-.05-.059-.33-.116-.625l-.101-.536-.327c.056-.435.1-.521.3-1a2.9 2.9 0 0 1 .478-.79 8 8 0 0 0 .45-.598c.01-.02 1.3-.482 1.3-.482 0 .06-.15.1-.03 0-.02-.014-.29.1-.025m-7.9-.352c.115 0 .166.163-.5.32.77.1.48.82.76-.6.28.76.1.153.1.458.4.444.5-.6.6.1.28.1.23.4.4.1 0 .27.69.093a.5.5 0 0 1 .77.2.4.4 0 0 0 .53.1c.17.9.2.176.4.25.1.36.1.28.1-.9-.3.11.1.17.65.2.11.3.57.2.94.3.13.3.29.51.51.1 0 .24.42.42 0 .42.42.1 0 .65.118.118 0 .29.29s.17.4q.037 0 .58.2c.2.1.6.2-.214.8-.22.6-.308.8-.308.6 0-.098-.029-.149-.226-.42-.09-.125-.159-.244-.15-.268-.02 0-.038-.017-.038-.068 0-.144-.105-.144-.197 0-.06-.017-.101-.046-.113-.036-.015-.045-.048-.033-.167-.113-.149-.023-.149s-.04-.044-.04-.163c0-.125-.008-.164-.042-.164-.031 0-.042-.036-.042-.146 0-.083-.012-.158-.029-.167-.014-.009-.028-.104-.028-.211 0-.104-.011-.19-.025-.19s-.046-.132-.074-.292c-.06-.346-.305-1.1-.45-1.4a1 1 0 0 1-.101-.244c0-.42-.5.2-.05m8.6-.012c-.4-.234-.438-.2-.373-.381-.9-.142-.297.1-.32-.418.1-.83.2l-.292.1-.3.3c-.163.1-.316.3-.336.3s-.37-.37-.8-.2a1 1 0 0 0-.177.1 1 1 0 0 1-.181.1c-.037 0-.164.2-.325.4a3 3 0 0 1-.198.3c-.34-.6.1-.6.1a.6.6 0 0 1-.53.1c-.31.1-.7.2-.9.2-.18.1-.43.1-.57.1s-.26-.26.1c0 .045-.17.1-.4.1-.03 0-.36-.25.1.14.1.9.1-.3.1-.037 0-.46-.46.2 0 .125-.8.2-.42.2-.031 0-.43-.43.1q0 .147-.34.1c-.028 0-.36.1-.36.6s.8.6.36.6c.026 0 .34.1.34.3 0 .253.28.1.586.2.402.2.515.5.956.3.462.6.801.9.992.1.68.3.145.3.166.24.42.1.42.1 0 .223.1.223.1 0 .18.3.1.3 0 .73.84.9.4.71.028 0 .136.235.1a.8.8 0 0 0 .296.1c.065 0 .127.136.8.99.2s.181.181c0 .17.2.29.4.29.3 0 .424-.12.4-.03s.08-.3.2-.03c.144 0 .184-.9.2-.044 0-.36-.45.2-.45.1 0 .156-.12.2-.027 0-.18.1-.38.1-.47.2-.27.2-.3.4-.18.1-.74.2-.133.3-.133 0 .053-.24.1-.57-.3.1-.95.2-.143.4-.22.4-.247.7-.678.2-.23.3-.414.3-.408.3-.18-.045 0-.3.1-.134.1-.23.1-.118.2-.255.2-.425-.134.1-.247.1-.247 0 .017-.18-.042-.008-.24-.175.1-.34.1-.29.1-.3.1-.967 0-.568-.005-.672-.042-.687-.031-.012-.042-.066-.042-.212 0-.152-.009-.193-.043-.193-.03 0-.042-.033-.042-.12 0-.065-.011-.118-.028-.118-.015 0-.029-.054-.029-.12 0-.065-.011-.119-.028-.119-.014 0-.028-.035-.028-.083 0-.05-.065-.182-.167-.345-.093-.146-.161-.283-.153-.307-.02-.005-.039-.03-.039a.45 0 0 1-.046-.044c0-.024-.011-.045-.025-.045s-.09-.107-.173-.241a1.4 1.4 0 0 0-.274-.33c-.065-.051-.121-.105-.121-.12 0-.012-.02-.024-.043-.024s-.042-.011-.042-.023c0-.015-.023-.04-.054-.054a1 1 0 0 1-.133-.095c-.511-.423-.545-.444-1.1-.661-.317-.113-.608-.206-.648-.203m-.514-1.2h.726l.763.2.764.2.438.2c.746.4.912.5 1.4 1.237.3.444.5.458.5.14.36.1.53.1.026-.18.48.116-.2.15.37.1.23.11.2.195.5.218.6.252.7.232.8q-.21.1.25.1c.037 0 .46.46.2 0 .19.238.238 0 .42.1.42.7 0 .574-.5.7-.42.7-.034 0-.42-.42.3 0 .215-.9.3-.37.3s-.34-.25.2c.1.1.2.2-.34.2s-.46.1-.46.3c0 .191-.8.2-.42.2q-.4-.42.1c0 .045-.17.1-.4.1-.031 0-.37-.25.1.14.1.8.1-.32.1-.03 0-.45-.45.1a.24.2 0 0 1-.42.1.2.2 0 0 0-.43.1c0 .038-.2.1-.45.1s-.4.1-.3.1.2-.15.1a.3.3 0 0 0-.4.1 2 2 0 0 1-.158.4c-.14-.22-.17a1 1 0 0 1-.45.2c-.37.1-.6.1-.76.1q-.026-.04-.26.1c0 .069-.14.1-.4.1-.22-.33-.25.1.9-.5.1-.3.1a.3.3 0 0 0-.46.1c0 .026-.2.1-.42.1-.26-.43.1-.43.1 0 .059-.17.1-.4.1-.22-.33-.25.1.9-.3.1-.3.1-.26-.46-.46.1 0 .044-.17.1-.42.1-.043 0-.57.1-.43.3.3-.11.1-.28.1-.057 0-.113.1-.113.2 0 .048-.17.1-.4.1-.03 0-.36-.25.1s.5.1-.31.1q-.44-.45.1c0 .065-.18.1-.43.1-.22-.42-.42.1 0 .041-.17.1-.4.1-.031 0-.37-.25.1.14.1.8.1-.31.1q-.045 0-.46.1a.6.6 0 0 1-.96.2c-.76.1-.124.3-.24.8-.13.6-.141.6-.124.8.14.2.11.2-.31.2-.037 0-.46-.46.2 0 .145-.1.2-.33.2-.029 0-.37.2-.33.3.5.15.24s.14.1.14.3c0 .158.414.57.154.1.383.1.505s.4.3.57.4.28.2.2.3c-.6 0 .83.83 0 .29.1.4.2.23.2.13.8.226 1.2.2.1.6.3.85.4.28.1.6.3.74.4.14.1.42.2.65.3.121.6.232 1.1.387 1.6.93.3.161.6.153.6-.9-.3.1.018 0 .4.1.49.1.11.1.28.1.42.1.12.31.1.43.2.8.1.28.2.42.2a1 1 0 0 1 .37.2c.11.1.113.6.229 1.2.265 1.4.268 1.5.084 2.1-.115.4-.138.5-.274.6-.147.2-.494.5-.596.5-.023 0-.48-.54-.17.1-.347.1-.918.1l-.486-.662-.164c-.624-.152-.7-.178-1.3-.45-.582-.261-.678-.318-1.2-.681a12 12 0 0 1-1-.798c-.42-.375-1.5-1.5-1.8-1.9-.19-.233-1.2-1.9-1.4-2.4-.187-.381-.905-2.2-1-2.5-.114-.362-.456-2-.543-2.5-.09-.56-.325-2.7-.325-2.9q0-.096-.043-.095c-.036 0-.042-.217-.042-1.8s.006-1.8.042-1.8.043-.86-.595c0-.456-.596-.596 0 .03-.92-.387-.008-.336-.006-.387-.387s.045-.53-.384c0-.312-.387-.402-.8-.53-.107 0-.128.4-2.1.424-2.1a.12.1 0 0 0 .028-.077c0-.27-.66-.084a.13.1 0 0 0 .037-.074c0-.86.3-.914.4-.896q.27.008-.045-.017-.62-.08a.8.1 0 0 0 .045-.069 1 1 0 0 1 .031-.16c.02-.78-.11.1-.11 0 .054-.15-.09-.014-.077-.003-.104.1-.173a.4.4 0 0 0 .097-.116c.005-.18.4-.45.9-.952.8-.834.9-.941 1.2-1.1.17-.113.3-.211.3-.217a.6.6 0 0 0 .116-.8.4.4 0 0 1 .155-.078c.04-.6.1-.27.1-.048-.006-.17-.35-.35 0 .045-.21.1-.45-.24-.45.1-.045s.057-.14.1-.03c0-.17.1-.3.1-.3.1 0 .113-.11.1-.044q0-.44.1-.44.1 0 .084-.045c0-.27-.45.1-.45 0 .07-.15.1-.03 0-.17.1-.3.2-.3.1 0 .184-.8.2-.044 0-.33-.45.1-.045s.113-.12.1-.044c0-.36-.45.2-.45.1 0 .184-.12.2-.03s.093-.3.2-.03c.18 0 .226-.8.2-.044 0-.39.1-.45.7-.045m6.7-2c.53.197.319.212 0 .218 0 .218.1 0 .048-.18.1-.43.1-.023 0-.42-.42 0 .042-.257.2-.325.2-.023 0-.43-.43 0 .012-.48-.104.1a.8.8 0 0 0-.167.1.22.2 0 0 1-.113.1c-.034 0-.4-.17.28.23-.2.1-.34-.73-.87q-.027-.012-.29c0 .021-.84.1-.183.2a1.3 1.3 0 0 0-.184.2c0 .015-.2-.43-.025-.012-.042 0-.42 0 .026-.11-.28-.014 0-.28-.28 0 .02-.37.1-.8.1a1 1 0 0 0-.163.3 1 1 0 0 1-.102.2c-.14-.23-.23.1s-.2.1-.42.1a.9.1 0 0 0-.43.1c0 .032-.45.2-.101.3-.54.1-.94.2-.85.3s.3-.12c-.016 0-.22-.1.1.13.1.1.1-.29.1-.034 0-.45-.45.1 0 .086-.12.1-.43.1s-.42-.42.1-.11.1-.42.1-.4-.26.1c.14.1.6.1-.28.1s-.45-.45.1c0 .214-.65.2-.51-.265l-.406-.408.2-.414c.133-.226.4-.69.5-1.17-.34.3-.61.3-.601.9-.1-.039 0-.3.1-.158.3-.307l.325-.288c.045-.51.6-.307.6-.307 0 .04-.12-.03 0-.15.1-.33.2-.38.1-.7.2-.1.3-.004m-11.7-.136c.113 0 .297.41.192.212.373.2.93.1.217.2.277.3.56.1.104.1.104.1s.11.28c.015 0 .34.46.1.11.1.36.1.56.2.28.1.4.2.4.5 0 .387.456.456s.43.1.37.6l-.9.6-.508.5q-.507.5-.518.4c-.005-.024-.028-.045-.05-.045-.034 0-.04-.098-.04-.58 0-.459-.58-.58s.034-.6-.269c-.011-.226-.005-.27-.286-.11-.53-.134 0-.89-.116-.116 0 .046-.56-.63l-.017-.632-.139-.286-.141-.283-.21-.095-.206-.095Zm6.6-1.7c.029-.5.1.042 0 .06-.255.5-.289.5-.01 0-.22-.22.1 0 .04-.2.1-.43.1a.45 0 0 0-.25.1c.8-.6.1-.28.1a.18.2 0 0 0-.46.1c0 .036-.16.1-.42.1-.025 0-.42-.42.1 0 .041-.12.1-.29.1-.014 0-.28-.28.1 0 .038-.2.1-.42.1a.34.3 0 0 0-.43.2c0 .078-.1.1-.42.1-.031 0-.37-.23.1.15.1.9.2-.3.2-.4-.46.1-.46.5 0 .435.503.518.15.5.212-.14.2-.8.2.23.2.028 0 .4.4.1v.149h-1.1v-.343c0-.28-.348-.36-.15-.119-.685 0-.571-.666-.666 0 .042-.36-.15 0-.112-.148-.148s.04-.21-.075c-.011-.053-.003-.8-.92-.9-.5-.09 0-.44-.7-.07q.041-.1-.075c0-.48-.75-.75 0 .042-.17-.038 0-.33.1-.2.2-.2 0 .085-.74.2-.163.1-.9.2-.164.2-.164 0 .04-.21.1-.45-.24-.45.1-.045s.07-.14.1-.03c0-.17-.3.1-.3 0 .062-.8.1-.02a1.2 1.2 0 0 1 .209-.101c.116-.5.2-.74.2-.078"/></g></svg>