<svg viewBox="0 0 25 34" xmlns="http://www.w3.org/2000/svg"><g transform="translate(-260 -358)"><path fill-rule="evenodd" d="M276.2 383.8a.4.4 0 0 1-.144c-.48-.85-.85 0 .015-.24-.52-.064 0-.348.3-.393.4-.73.2-.104.3-.104.5 0 .163.21.1.438.1.13 3.2 3.3 3.3 3.4.55.14.1.186.1.1.457.534.027-.15.1-.5.2-.077a.96 0 0 0 .415-.42c.137-.302.1-.555-.01-.894-.066-.155-3.2-3.3-3.3-3.4a2 2 0 0 0-.25-.096c-.147-.04-.278-.04-.363-.003m-8.1-3.5c-.15 0-.28-.29-.9-.51-.94-.04 0-.73-.73 0 .016-.19-.4a.7.7 0 0 0-.168.1.7.7 0 0 1-.155.1.5.5 0 0 0-.14.1.5.5 0 0 1-.15.1.8.8 0 0 0-.177.1c-.7-.158.1-.192.1-.33-.1-.152.1-.5-.12-.153.1a2 2 0 0 0-.192.1.8.8 0 0 1-.174.1.8.8 0 0 0-.174.1c-.7-.158.1-.192.1a7 7 0 0 0-.295.1l-.153.1c-.4-.137.1-.222.1a5 5 0 0 1-.23.1 3 3 0 0 0-.158.1c-.48-.85-.85 0-.01-.37-.82-.46-.89.1-.92-.012-.009-.158.1-.463.2-.162.1-.4.3-.4.4 0 .025-.12-.24s-.4.1-.61.2a.8.8 0 0 0-.6.4c.79.3.216.5.512.7.94.1.165.1.424.1q.313.347-.037a.17.2 0 0 1 .095-.037c.027 0 .1-.28.2-.062a.5.5 0 0 1 .167-.061c.034 0 .061-.16.1-.031 0-.19-.31.1-.31 0 .07-.15.1-.3-.2.1-.32.1-.32 0 .073-.15.1-.03 0-.2-.31-.031a.5.5 0 0 0 .152-.62.5.5 0 0 1 .153-.62.5.5 0 0 0 .152-.62.5.5 0 0 1 .165-.061c.034 0 .064-.16.1-.34-.16-.34.1-.04a1 1 0 0 0 .168-.062 1 1 0 0 1 .155-.62.2.2 0 0 0 .086-.046c.027-.22-.3-.022 0 .13.4.1-.21.2-.108.3-.176.4-.176a1 1 0 0 0 .174-.065c.14-.65.2-.96.3-.148.1-.43.2-.102.3-.13a.3.3 0 0 1 .1-.027c.025 0 .047-.16-.031 0-.19-.31-.031s.07-.12.1-.028c.05-.24.1-.46.3-.132.1-.22.1-.5.1-.062 0-.16-.25-.25 0 .245-.204.2-.247 0-.15-.3-.3 0 .043-.47.1-.102.1-.127.1-.766-.787-.018-.006-.036-.037-.036-.071 0-.031-.012-.059-.025-.059-.015 0-.045-.034-.067-.077-.042-.08-.338-.293-.408-.293-.025 0-.055-.015-.064-.03-.01-.02-.14-.032-.29-.032m11.1-3.8c-.116-.21.1-.35.1-.147.1-3.1 3.1-3.2 3.3a.86.9 0 0 0-.165.5c0 .176.241.1.439.104.3.37.3.37 0 .4.4 0 .16.32.1.32 0 .7.8.8.152.32.167 0 .31-.12.3-.3-.2-.31.1-.31 0 .058-.16.1-.031 0-.19-.31-.031s.05-.19.1-.04c.214-.207 2.6-2.6 2.8-2.9.4-.416.5-.601.5-.925 0-.142-.012-.188-.115-.43-.055-.129-.354-.431-.427-.431a.13.1 0 0 1-.083-.028c-.036-.034-.353-.061-.503-.043m-11-4a1.1 1.1 0 0 0-.425.1c-.13.1-.38.3-.448.5-.7.2-.85.6-.27.7.21.6.1.91.2a.7.7 0 0 1 .58.2c0 .16.77.1.14a.5.5 0 0 1 .61.2c0 .34.62.62 0 .31.31s.12.1.28.1c.15.42.1.6.1l.68.2c.21.1.45.1.58.1.12.51.1.88.2.34.1.64.2.64.2 0 .3.59.59 0 .31.31s.12.1.28.1c.27.1.85.2.128.3.51.1.94.2.122.3.15.27.1.27.1s.15.3c.019 0 .31.31 0 .24.7.102.52.1.157.1.29.4.11.1.163.5.1.124.1.16l.55.1c.25.1.116.3.195.4.43.1.36.4.424.4.13.37.52.018 0 .49.7.46.53.1.558.01-.19-.31.1-.31 0 .122-.5.2-.111.1-.99.2-.16.3-.413-.53-.173-.374-.247-.009-.318-.064-.432a3 3 0 0 1-.146-.336 8 8 0 0 0-.147-.34c-.055-.13-.07-.17-.14-.348a3 3 0 0 0-.152-.355.8.8 0 0 1-.064-.176.8.8 0 0 0-.064-.176 3 3 0 0 1-.15-.348 5 5 0 0 0-.15-.361 1 1 0 0 1-.063-.176 1 1 0 0 0-.064-.164 5 5 0 0 1-.152-.358 2 2 0 0 1-.059-.145 6 6 0 0 0-.146-.355l-.104-.24c-.021-.053-.049-.099-.06-.099-.016 0-.025-.018-.025-.04 0-.062-.214-.25-.366-.324a1 1 0 0 0-.408-.082m12.8-4.1c-.277-.009-.311-.003-.503.1a.87.9 0 0 0-.415.4l-.73.2v4.7l.73.2c.11.2.378.5.54.5.03 0 .64.73.46.1.455.686-.74.1-.46.4-.333.4-.398 0-.28-.52-.52.1 0 .073-.337.1-2.5.009-1.7.002-2.3-.025-2.4a1 1 0 0 0-.055-.185.5.5 0 0 1-.06-.99.95 0 0 0-.37-.361c-.103-.053-.198-.075-.38-.084m-10.9-4a1.6 1.6 0 0 0-.345c-.161-.536.3-.536.4 0 .022-.1-.22.1-.15-.57.1-.97.2-.4.1-.82.2-.98.2a.3.3 0 0 0-.27.1c0 .025-.12-.3-.016 0-.31-.31.1 0 .043-.12.1-.3.1-.16-.31-.31.1 0 .03-.12.1-.3.1-.016 0-.31-.31s-.12.1-.28.1a2 2 0 0 0-.6.1l-.68.2c-.2-.48.1-.6.2-.16-.4.1-.59.1-.15-.42.1-.57.1l-.95.2a6 6 0 0 0-.15.4c-.18.1-.48.1-.66.2a1 1 0 0 1-.61.1.3.3 0 0 0-.28.1c0 .025-.12-.3-.016 0-.3-.3.1a.5.5 0 0 1-.62.2.6.6 0 0 0-.6.1.8.8 0 0 1-.65.2 4 4 0 0 0-.94.2c-.19-.43.1-.58.1a.3.3 0 0 0-.28.1c0 .025-.12-.3-.016 0-.3-.3.1 0 .04-.1.1-.22.1-.86.1-.143.7-.7.7.18.3.3.1 0 .87.2.318.3.407.3.235.7.266 1.93.1-.59.4-.327.4-.395 0-.25-.46-.46 0 .03-.22-.046 0-.25-.72-.102-.28-.96.1-.145a3 3 0 0 1 .064-.145.3.3 0 0 0 .028-.102c0-.25-.46-.46 0 .03-.22-.047 0-.24-.7-.102-.58.1-.206.1-.299l.18-.457a2 2 0 0 1 .092-.2 1 1 0 0 0 .064-.164c0-.15-.95.1-.175-.8.1-.173.1-.207a2 2 0 0 1 .089-.195.8.8 0 0 0 .064-.178.5.5 0 0 1 .06-.152.6.6 0 0 0 .062-.139c0-.15-.123.1-.237.1-.25.2-.352.2-.398-.16-.93.1-.167a.8.8 0 0 0 .064-.176c0-.21-.4-.4 0 .028-.3-.07a1 1 0 0 1 .036-.204c.04-.145-.34-.082-.55a1.4 1.4 0 0 0-.445-.456 1.1 1.1 0 0 0-.302-.057m-.47-2.3a3 3 0 0 1 .793 0l.3c.6.121.13.1.49.89s.82.91c.1.43.73.064 0 .625.3.674.3.1.76.1.153.1.143.1.448.4.588.6.43.1.98.1.12.2.2.72.1.115.2.43.1.82.2.91.2.65.1.205.5.308.9.52.2.055 1.1.003 1.2-.18.1-.51.2-.7.3a2 2 0 0 1-.115.3l-.65.2a3 3 0 0 1-.6.2c-.16-.43.1-.58.1l-.95.2a6 6 0 0 0-.94.2c-.16-.4.1-.58.1-.16-.43.1-.58.1-.13-.55.1-.92.2a1 1 0 0 0-.64.2 1 1 0 0 1-.58.2c-.3.1-.73.2-.94.2a.5.5 0 0 0-.43.1l-.34.1a.3.3 0 0 0-.33.1 1 1 0 0 1-.7.2.8.8 0 0 0-.64.2c0 .022-.12-.3-.016 0-.31-.31.1a.5.5 0 0 1-.61.2.5.5 0 0 0-.61.2.5.5 0 0 1-.61.2.5.5 0 0 0-.61.2c0 .025-.12-.3-.016 0-.31-.31.1 0 .043-.12.1-.3.1-.16-.31-.31.1 0 .031-.12.1-.3.1-.016 0-.31-.31.1 0 .061-.305.7-.342.7-.15-.24-.24.1s-.1-.21c-.016 0-.77.1-.14.2-.83.1-.114.2-.98.2.9.33.1.48.1.016 0 .28.28s.15.3c.019 0 .3.3 0 .25.5.56.3.1.133.2.287l.189.4a.6.6 0 0 1 .58.2c0 .22.9.1.152a.5.5 0 0 1 .62.2c0 .33.61.61 0 .3.3.1 0 .34.7.8.1.52.096 0 .4.74.74 0 .3.3s.28.1.62.2c.33.1.6.1.6.2a.5.5 0 0 0 .62.2.5.5 0 0 1 .6.2c0 .31.74.96.19.46.056a.5.5 0 0 0 .49.1c.3.1.58.1.6.2a.24.2 0 0 0 .47.1c.2.3.2-.011 0-.2.25.1.55.1.171.4.171.4 0 .1.83.1.163.1.198.2.383.2.516.86.1.191.2.36.8.1.161.1.18a.3.3 0 0 0 .27.1 1 1 0 0 1 .58.2c.19.1.52.2.73.3.8.3.037 1.2-.07 1.4a.3.3 0 0 0-.27.1c0 .034-.12.1-.3.1-.16-.31-.31.1 0 .08-.323.7-.397.8-.12-.7.1-.13.2-.135.2-.57.6-.696.6-.49-.88-.88.1 0 .015-.22-.46s-.46-.46c0 .015-.21-.46-.067 0-.85.1-.45.3.67.3.94.7.8.9-.2.3-.71.6-.108.7a2 2 0 0 0-.67.2c-.21.1-.52.1-.64.1s-.24-.24.1a.44.4 0 0 1-.92.2.6.6 0 0 0-.6.1 1 1 0 0 1-.62.1 1 1 0 0 0-.58.1c-.45.1-.256.3-.43.5a2.7 2.7 0 0 1-.753.6c-.14.1-.259.1-.271.2a.7.1 0 0 1-.55.6.6 0 0 0-.158.1l-.135.1c-.27-.198.1-.314.1a.6.6 0 0 1-.158.1.8.8 0 0 0-.174.1c-.7-.159.1-.192.1-.34-.125.1-.205.1a.8.8 0 0 1-.176.1.6.6 0 0 0-.138.1.5.5 0 0 1-.149.1.8.8 0 0 0-.177.1 2 2 0 0 1-.198.1c-.4-.104-.146.1-.43-.107-.144.1-.4-.137.1-.222.1a12 12 0 0 1-.357.2 8 8 0 0 0-.305.1l-.162.1c-.42-.112-.158.1a3 3 0 0 1-.147.1l-.137.1c-.8-.201.1-.415.1-.31.1-.97.1-1.4-.028-.081-.018-.188-.04-.237-.052-.046-.01-.091-.028-.1-.043-.01-.016-.043-.028-.077-.028-.03 0-.058-.016-.058-.031 0-.019-.027-.03-.06-.03a.5.5 0 0 1-.19-.078 3 3 0 0 0-.183-.099c-.03-.009-.055-.028-.055-.043s-.018-.028-.04-.028c-.02 0-.07-.028-.106-.061a.3.3 0 0 0-.082-.062c-.016 0-.171-.133-.256-.22-.171-.172-.4-.425-.4-.44 0-.01-.049-.08-.107-.158-.112-.151-.32-.568-.32-.645 0-.024-.012-.055-.03-.064-.016-.01-.03-.047-.03-.08a.3.3 0 0 0-.028-.115c-.107-.207-.156-1.3-.07-1.5l.07-.262c.042-.166.1-.222.1-.385a.8.8 0 0 0 .064-.18c0-.24-.43-.43 0 .042-.49.1-.108-.58.1-.108.1-.108 0 .024-.21-.046s.015-.46-.046c.019 0 .031-.22-.046 0-.25-.47-.047s.05-.43.1-.095c.125-.213.6-.667.9-.787.1-.28.1-.62.1-.077 0-.16-.28-.028s.103-.31.2-.065c.07-.37.2-.77.2-.9-.12.1-.55.2-.092a6 6 0 0 1 .512-.213 2 2 0 0 0 .198-.92.8.8 0 0 1 .177-.65.5.5 0 0 0 .15-.62.5.5 0 0 1 .167-.062c.034 0 .061-.15.1-.03 0-.19-.31-.031a.7.7 0 0 0 .168-.62.7.7 0 0 1 .155-.062c.019 0 .08-.28.1-.062a.5.5 0 0 1 .153-.61.5.5 0 0 0 .152-.62.5.5 0 0 1 .168-.062c.034 0 .061-.15.1-.03 0-.19-.31-.031a.7.7 0 0 0 .167-.62.7.7 0 0 1 .156-.062c.018 0 .08-.28.1-.061a.5.5 0 0 1 .147-.062c.018 0 .1-.31.2-.71.1-.5.1-.87.1-.139 0-.037-.012-.068-.03-.068-.016 0-.031-.028-.031-.058 0-.034-.012-.071-.03-.08-.016-.01-.031-.053-.031-.096 0-.04-.012-.074-.03-.074-.016 0-.031-.028-.031-.059 0-.034-.012-.071-.03-.08-.016-.01-.031-.053-.031-.096 0-.04-.012-.074-.03-.074-.016 0-.031-.022-.031-.046a.5.5 0 0 0-.061-.154.5.5 0 0 1-.061-.155.5.5 0 0 0-.061-.154.5.5 0 0 1-.061-.17c0-.034-.012-.061-.03-.061-.016 0-.031-.019-.031-.04a.7.7 0 0 0-.06-.17.7.7 0 0 1-.062-.158.5.5 0 0 0-.06-.141.5.5 0 0 1-.062-.155.5.5 0 0 0-.06-.154.5.5 0 0 1-.062-.167c0-.034-.015-.065-.033-.07-.016-.007-.034-.031-.04-.056a1 1 0 0 0-.061-.17 1 1 0 0 1-.061-.163.2.2 0 0 0-.043-.75.1.13 0 0 1-.036-.77.3.3 0 0 0-.028-.095 4 4 0 0 1-.189-.454 1 1 0 0 0-.064-.154.2.2 0 0 1-.024-.93.2.2 0 0 0-.025-.092c-.036-.046-.091-.303-.13-.642a3 3 0 0 1 .063-.993c.016-.53-.155.1-.232a.7.7 0 0 1 .064-.17.1.14 0 0 0 .025-.077c0-.9.3-.62.4-.743.1-.9.2-.244.2-.284 0-.025-.021-.062-.046-.084-.024-.021-.04-.049-.03-.61-.013-.012-.046-.046-.077-.07-.065-.341-.611-.405-.818-.14-.441-.193-.892-.144-1.3.052-.435.1-.72.3-1.1.03-.74.1-.138.1-.145s.03-.77.1-.16c.036-.83.1-.167.1-.185a2 2 0 0 1 .098-.232c.048-.108.1-.247.1-.305a.6.6 0 0 1 .067-.139.1.13 0 0 0 .024-.068c0-.24-.102.1-.17a.7.7 0 0 0 .061-.17c0-.2-.4-.4 0 .031-.27-.061s.027-.108.1-.17a.5.5 0 0 0 .061-.154.5.5 0 0 1 .061-.154.5.5 0 0 0 .061-.155c0-.24-.46-.46 0 .031-.34-.074 0-.43-.86-.96-.9-.46-.08 0-.3-.58-.58 0 .03-.34-.075 0-.43-.86-.95-.1-.46-.08 0-.31-.59-.59 0 .03-.28-.059 0-.34-.12.1-.194-.7.1-.16.1-.194.1-.133.1-.229.2-.556.1-.188.2-.345.2-.355-.9.1-.86.1-.17.1-.86.1-.169.1-.187-.19.1-.96.2-.173.1-.77.2-.17.2-.21.1-.4.1-.83.1-.093a1.6 1.6 0 0 1 .329-.216c.018 0 .037-.9-.24-.22.2-.14.4-.195l.137-.055c.183-.77.4-.12.7-.154m6.9-.687c-.12 0-.239-.27l-.155.1a1 1 0 0 0-.411.4 3 3 0 0 1-.76.2c-.37.1-.37.5.3.5.18.3.3.1s.4.1.89.2c.137.2 3.2 3.3 3.3 3.3.027 0 .52.52 0 .15.3.1.03a1 1 0 0 1 .196c.247.1.6-.56.8-.287.3-.3.3-.71.2-1.1-.067-.148-3.2-3.3-3.4-3.4a4 4 0 0 1-.174-.083 1 1 0 0 0-.274-.026m.005-2.4c.2 0 .398.424.22.86.1.15.1.268.344.1.36.1.9.48.88s.82.91c.1.43.77.058 0 .347.1.488.2.45.1.1.118.1.019 0 .34.34 0 .12.1.55.1.96.1.4.9.823 1.8 1.7 1.5 1.5 1.9 1.9 1.9 2 0 .1.5.1.9.4.1.83.1.092 0 .12.59.1.105a.5.5 0 0 1 .6.1.2.2 0 0 0 .37.1c.3.74.1.92.2.9.73.2.103.3.14.4.135 1.4-.009 1.7-.24.1-.33.2-.24.3.3.24.49.024 0 .45.45 0 .16.31.031s.7.107.1a.3.3 0 0 0 .82.1c.058 0 .656.6.656.7a.5 0 0 0 .24c.73.403.6.403.7 0 .3.65.74.1.53.093s.13.1.28.1c.28.4.1.95.5.36.3.036 4.8 0 5.1-.55.4-.8.5-.132.6a.6.6 0 0 0-.51.1c0 .053-.25.6-.311.6-.3-.55.1-.55.1s-.12-.25c-.012 0-.45-.76.1-.7.1-.314.4-.479.5a1 1 0 0 0-.146.1c-.6-.3-.55-.024 0-.43-.43 0 .016-.21-.45-.025 0-.46-.46 0 .013-.3-.67.1-.8-.95.2-.37.3.8.2.107.4.107.9-.3.4-.27.7-.107.9a.4.4 0 0 0-.27.1c.15-.204.5-.308.7a.6.6 0 0 0-.8.1c0 .012-.24.1-.51.1-.3-.92.1-.138.2-.42.1-.725.8-1.5 1.6-.79.8-1.4 1.5-1.4 1.5s.628.7 1.4 1.4c1.3 1.3 1.7 1.7 1.7 1.8a.4.4 0 0 0 .7.1c.31.55.1.55.1a.5.5 0 0 0 .77.1c.43.1.67.1.6.1q-.12.16c.37.128.2.119.3a.3.3 0 0 0 .24.1c.131.3.168.5.168 1 0 .37-.15.5-.52.7-.3.1-.6.2-.67.3-.1-.27.1-.43.1-.15-.27-.27.1 0 .071-.204.5-.256.5-.19-.25-.1.022 0-.121.2-.243.4-.11.1-.455.5-.558.5-.58-.113.1-.122.1a.4.4 0 0 1-.83.1c-.4-.1.1-.137.1a.5.5 0 0 0-.85.1 2 2 0 0 1-.265.1 1 1 0 0 0-.138.1.3.3 0 0 1-.11c-.03 0-.67-.79-.36-.299.1-.424.1-.073 0-.122-.13-.16-.9-.397-.311 0-.384-.01-.397-.046q-.017-.047-.149-.047c-.073 0-.143-.015-.152-.03-.01-.019-.058-.031-.107-.031s-.098-.013-.107-.031c-.009-.016-.052-.031-.091-.031-.04 0-.083-.015-.092-.03-.009-.02-.043-.032-.076-.032-.058 0-.348-.145-.488-.247a.3.3 0 0 0-.119-.061c-.018 0-.033-.013-.033-.025s-.046-.05-.098-.08c-.104-.062-3.5-3.5-3.5-3.5 0-.016-.018-.044-.037-.068a.8.8 0 0 1-.146-.188c0-.01-.04-.074-.085-.145-.101-.152-.22-.405-.22-.466 0-.025-.012-.056-.03-.065-.016-.01-.03-.046-.03-.08a.3.3 0 0 0-.028-.115 1.5 1.5 0 0 1-.12-.45c-.036-.367-.008-1.05-1.2.018-.53-.155.1-.232a2 2 0 0 1 .122-.32c.048-.1.1-.201.1-.223 0-.25-.43-.43 0 .031-.28-.062s.015-.61-.061c.019 0 .031-.22-.047 0-.24-.46-.46 0 .046-.37.1-.086a.7.7 0 0 1 .098-.142c.055-.65.1-.235-.235-.015 0-.03-.018-.03-.04s-.028-.07-.061-.108c-.034-.037-.061-.08-.061-.099 0-.015-.012-.03-.027-.03-.013 0-.07-.093-.125-.207a5 5 0 0 0-.125-.263.3.3 0 0 1-.028-.089c0-.019-.021-.052-.046-.077s-.036-.062-.027-.083c.01-.025-.006-.08-.03-.127-.025-.05-.037-.108-.028-.13-.024 0-.064-.021-.089-.092-.111-.098-1.2-.007-1.4a.3.3 0 0 0 .034-.123c-.003-.142.2-.682.5-1.113-.173.6-.645 1.8-1.9 1.7-1.7 1.9-1.9 1.9-1.9.015 0 .051-.27.1-.62-.33.1-.61.1-.61.1 0 .195-.24.1-.293-.015-.01-.03-.059-.03-.111a.4.4 0 0 0-.028-.145c-.073-.14-.094-.744-.094-2.8.003-2.2.015-2.5.122-2.9.07-.28.1-.336-.36a.4.4 0 0 1-.116-.078c-.034-.03-.073-.055-.089-.055-.064 0-.402-.327-1.9-1.9-1.8-1.8-1.9-1.9-2-2.2-.025-.053-.052-.099-.065-.099-.015 0-.024-.028-.024-.062s-.012-.061-.03-.061c-.016 0-.03-.019-.03-.04a.7.7 0 0 0-.062-.17.6.6 0 0 1-.06-.191.3.3 0 0 0-.028-.118c-.092-.188-.132-.44-.135-.885-.003-.312-.667.1-.7a.17.2 0 0 0 .036-.106c0-.4-.8-.89-.1-.5-.086-.003-.87.1-.3.1-.3 0 .025-.28-.061 0-.62.1-.226.2-.377a.3.3 0 0 0 .058-.114c0-.19-.34-.034s.05-.46.1-.102c.073-.126.5-.577.6-.654.1-.34.1-.7.1-.083s.015-.25-.025a.3.3 0 0 0 .12-.062c.14-.101.4-.246.5-.246 0 .067-.16.1-.31-.19.1-.31.1-.31 0 .08-.1.1-.22-.3.3-.99.4-.101a.18.2 0 0 0 .119-.047c.027-.32.2-.5.4-.05"/></g></svg>