<svg viewBox="0 0 24 25" xmlns="http://www.w3.org/2000/svg"><g transform="translate(-180 -367)"><path fill-rule="evenodd" d="M201.2 382.7q.604 0 1.1.169.5.168.8.46.3.292.4.679t.148.8q0 .394-.71.8a3.2 3.2 0 0 1-.299.8 6.4 6.4 0 0 1-.659 1q-.43.6-1.1 1.3l-1.3 1.4h3.6q.052 0 .1.48.84.1a.4.4 0 0 1 .51.1q.16.1.16.2 0 .115-.16.2a.6.6 0 0 1-.45.1.2.2 0 0 1-.183.1h-4.6a.5.5 0 0 1-.157-.22.3.3 0 0 1-.116-.73.3.3 0 0 1-.071-.146 1 1 0 0 1-.022-.235q0-.127-.222a.5.5 0 0 1 .044-.168 1 1 0 0 1 .082-.146q.05-.74.1-.156l1.7-1.7q.576-.585.9-1t.537-.844a2.7 2.7 0 0 0 .308-1.3 1.4 1.4 0 0 0-.093-.517 1.3 1.3 0 0 0-.269-.429 1.3 1.3 0 0 0-.441-.292 1.6 1.6 0 0 0-.61-.108q-.405 0-.727.1t-.564.2a5 5 0 0 0-.405.2q-.162.1-.242.1a.14.1 0 0 1-.083-.26.2.17 0 0 1-.059-.82.6.6 0 0 1-.037-.152 2 2 0 0 1-.007-.394.6.6 0 0 1 .023-.12.5.5 0 0 1 .042-.96.5.5 0 0 1 .102-.111q.078-.67.3-.181.2-.114.5-.225.3-.11.6-.187.3-.77.7-.077m-11.8-12.6q-1.6 0-2.7.603a5.1 5.1 0 0 0-1.8 1.6q-.69 1-.988 2.3a13 13 0 0 0-.298 2.8q0 1.6.276 3t.93 2.4a4.4 4.4 0 0 0 1.8 1.6q1.1.553 2.8.553 1.6 0 2.8-.603a4.9 4.9 0 0 0 1.8-1.6q.683-1.974-2.4t.29-2.9q0-1.6-.283-2.9-.284-1.4-.944-2.4a4.5 4.5 0 0 0-1.8-1.6q-1.1-.56-2.7-.56m.153-2.1q2.1 0 3.6.617 1.5.618 2.6 1.8 1 1.2 1.5 2.9.502 1.7.502 4t-.539 4.1q-.537 1.8-1.6 3.1T193 386.4q-1.6.682-3.8.682-2.1 0-3.7-.625-1.6-.624-2.6-1.8-1-1.2-1.5-3-.495-1.8-.495-4.1 0-2.2.538-4t1.6-3.1 2.7-1.9q1.6-.682 3.8-.682"/></g></svg>