<svg viewBox="0 0 33 34" xmlns="http://www.w3.org/2000/svg"><g transform="translate(-354 -358)"><path fill-rule="evenodd" d="m366.1 379.4.23.4c.1.2.38.7.058 1.1.24.4.55.9.072 1.3.56.096 1.7.144 2.4.55.9.055 1.5 0 1.8-.55.4-.99.7-.14 1l-.14 1c-.18.1-.49.3-.7.5-.2.2-.5.4-.71.5-.38.3-.76.6-.13 1-.59.5.263.4-2.5.417-1.3 0-2.4-.006-2.4-.017 0-.1-.44-.78-.54.1-.122.1-.329.1-.206.1-.274.1-.329a.3.3 0 0 0 .031-.128c0-.38-.68-.68 0 .035-.3-.068 0-.37-.95-.129-.3-.95.1-.142l.069-.17a4 4 0 0 0 .068-.17c.02-.47.1-.125.1-.18l.076-.186c.02-.5.1-.119.1-.15a.3.3 0 0 0 .031-.125c0-.37-.78-.88-.1-.5-.088 0-.34-.64-.64 0 .034-.31-.068s.014-.95-.13c.031-.57.1-.172.1-.321-.126.1-.275.1-.336a.3.3 0 0 0 .03-.126c0-.37-.78-.88-.1-.5-.088 0-.34-.64-.64 0 .034-.38-.082 0-.47-.95-.105-.1-.5-.088 0-.34-.65-.65 0 .034-.3-.067s.014-.95-.13c.018-.3-.104.1-.159a2 2 0 0 1 .072-.16.3.3 0 0 0 .03-.111.5.5 0 0 1 .07-.17.5.5 0 0 0 .068-.186c0-.34-.75-.85-.1-.5-.088 0-.34-.65-.65 0 .035-.37-.081 0-.47-.95-.105-.1-.51-.088 0-.34-.65-.65 0 .035-.37-.081 0-.48-.95-.105-.1-.44-.072s.031-.115.1-.19a.8.8 0 0 0 .068-.186.6.6 0 0 1 .069-.163.5.5 0 0 0 .068-.186c0-.34-.75-.85-.1-.51-.088 0-.34-.65-.65 0 .034-.37-.081 0-.48-.95-.105-.1-.44-.075 0-.71.3-.746.4-.868-.3-.58-.058-.013 0-.006-.24-.5-.52.2-.4.5-.883.1-.149.2-.325.2-.39-.64.2-.301.3-.525.1-.224.2-.468.3-.543-.75.2-.305.3-.509.1-.207.2-.44.3-.522Zm-2.5-.318c.1.3.1-.17.1a1 1 0 0 0-.55.2c-.7-.35.1-.55.2a2 2 0 0 0-.58.2c-.1.1-.31.1-.48.1s-.31.1-.31.1c0 .054-.14.1-.34.1-.18-.35.1-.35.1s-.13.1-.3.1-.38.1-.48.1c-.1.1-.35.2-.59.2a2 2 0 0 0-.58.2c-.1.1-.3.1-.48.1-.17-.3.1-.3.1 0 .054-.14.1-.35.1-.17-.34.1-.34.1s-.14.1-.31.1-.38.1-.48.1c-.1.1-.34.2-.55.2q-.102.3-.127.5a1 1 0 0 1-.48.2 1 1 0 0 0-.48.2c-.6-.3.1-.51.2-.82.3-.11.4-.144.5-.2.1-.44.2-.55.2-.1.1-.3.1-.48.1-.17-.3.1-.3.1 0 .055-.14.1-.35.1-.017 0-.34-.34.1a.3.3 0 0 1-.3.1 1 1 0 0 0-.63.1c-.2-.51.1-.75.2-.2.1-.51.1-.72.2-.17-.51.1-.72.2l-.75.2a1 1 0 0 1-.62.1.3.3 0 0 0-.3.1c0 .037-.14.1-.35.1-.17-.34.1-.34.1 0 .034-.14.1-.35.1-.017 0-.34-.34.1a.3.3 0 0 1-.3.1c-.31.1-.97.2-.145.3a4 4 0 0 1-.137.3.3.3 0 0 0-.3.1.6.6 0 0 1-.69.2.5.5 0 0 0-.68.2c0 .034-.14.1-.35.1-.17-.34.1-.34.1 0 .034-.14.1-.34.1-.017 0-.35-.35.1a.3.3 0 0 1-.3.1 2 2 0 0 0-.72.2c-.24.1-.55.1-.72.2a.3.3 0 0 0-.31.1.5.5 0 0 1-.69.2.6.6 0 0 0-.68.2.6.6 0 0 1-.69.2.5.5 0 0 0-.68.2c0 .034-.14.1-.34.1-.18-.35-.35.1 0 .034-.13.1-.34.1-.017 0-.34-.34.1 0 .068-.14.1-.1.3-.2-.3.1-.2.1.7-.7-.34.1a.16.2 0 0 0-.52.1c0 .034-.3.1-.68.2a.5.5 0 0 0-.69.2c0 .034-.1.1-.24.1-.14-.27-.3.1a1 1 0 0 1-.7.2 3 3 0 0 0-.64.2l-.35.1a.6.6 0 0 1-.61.1.3.3 0 0 0-.48.1.3.3 0 0 1-.48.1c-.2-.28-.14s.4-.2.1a.3.3 0 0 0-.52.1.14.1 0 0 1-.55.1c-.24-1.3.027-2.8.02l-2.7-.006-.01-.417c-.01-.414-.01-.414.1-.414 0 .099-.34.1-.95-.51.1-.13.1-.177s.106-.118.1-.162c.03-.41.1-.133.2-.204.1-.68.1-.15.2-.18a2 2 0 0 1 .151-.196 21 21 0 0 0 .576-.7l.137-.169c.041-.57.3-.4.5-.56.1-.84.1-.169.2-.186-.4.3-.356.4-.529.1-.136.2-.18.3-.404a9 9 0 0 1 .237-.278 4 4 0 0 0 .171-.203 1 1 0 0 1 .096-.122c.024-.27.1-.102.1-.17.1-.125.2-.285.3-.366-.24-.58-.075 0-.2-.4-.47-.1.2-.2.4-.434.1-.78.1-.163.2-.19-.24-.51-.065 0-.13-.4-.064l.185-.21c.202-.238.3-.299.5-.604.5-.499.6-.61.6-.685-.38.1-.163.2-.272.1-.108.2-.264.3-.339l.309-.339a45 45 0 0 0 .627-.692c.123-.139.2-.278.3-.305-.27.2-.18.3-.34.1-.159.3-.311.3-.338s.167-.18.3-.34c.14-.159.3-.356.4-.44.3-.272.5-.56.5-.59q.001-.27-.01m6.5-.128.1.119c.28.1.62.1.79.2.17.3.1.3.1 0 .38.78.89.1.57.101s.18.1.35.1c.2.34.1.34.1s.17.1.34.1c.2.34.1.34.1 0 .44.81.81 0 .34.34.1 0 .37.77.88.1.57.101s.18.1.35.1c.2.34.1.34.1s.17.1.34.1c.2.35.35.1 0 .34.91.125q.78.1.144.4a.8.8 0 0 0 .72.2c.14.28.1.28.1 0 .44.88.98.1.51.089 0 .33.95.132.37.1.98.1.135.38.92.12 0 .26.8.118.37.1.98.1.136.37.98.132 0 .37.78.88.1.5.088 0 .65.95.1.258a.4.4 0 0 1 .4.1c0 .38.75.085s.48.1.76.2.61.2.75.2.27.1.27.1.18.1.35.1c.2.34.1.34.1 0 .34.95.133.37.1.98.1.135.38.92.119s.17.1.34.1c.2.52.1.69.1.2.34.1.34.1 0 .37.78.88.1.5.088 0 .34.95.132.38.1.99.1.136a.3.3 0 0 1 .35.1c0 .27.78.112.1.98.1.315.1.634.1.43.1.81.1 1.1.45.3.93.7.137 1.2.2.52.4.69.5s.48.4.68.5c.2.2.52.4.69.5s.48.4.68.5.52.4.72.5c.2.1.31.3.24.4l-.1.1h-5.9l-.01-.12c-.007-.64-.23-.366-.132.1-.356.1-.492-.132-.36.1-.498-.14.1-.383.1-.543s.051-.387.1-.509l.068-.508c.02-.16.1-.387.1-.51-.121-.359.1-.525.1-.892.2-1.3.21-1.3.016-.1-.54-.098s.017-.92-.102c.02-.1-.58-.102s.018-.91-.102c.02-.1-.57-.101s.017-.92-.102c.02-.1-.58-.102s.017-.91-.102c.02-.1-.57-.101s.017-.92-.102c.02-.1-.58-.102s.017-.91-.102c.02-.1-.57-.101s.017-.92-.102c.021-.1-.58-.102s.017-.91-.102c.02-.1-.57-.101s.017-.92-.102c.021-.1-.51-.088 0-.34-.92-.126-.3.1-.308.2-.617s.191-.587.2-.617a.3.3 0 0 0 .03-.126c0-.37-.78-.88-.1-.58-.102s.017-.91-.102c.02-.1-.57-.101s.017-.92-.102c.02-.1-.58-.102s.017-.91-.102c.02-.1-.57-.101s.017-.92-.102c.02-.1-.58-.102s.017-.91-.102c.02-.1-.57-.101s.017-.92-.102c.02-.1-.5-.088 0-.34-.92-.126-.81.5-1.5.535-1.6Zm3.8-.541c.17.58.1.89.1.3.1.68.1.86.1s.3.3c0 .17.2.289.4.597.2.309.4.573.4.587 0 .17.54.1.88.34.1.75.1.088 0 .17.2.323.4.682.2.36.4.678.5.706.1.94.1.186.5.736.2.301.4.56.4.58 0 .16.57.1.091s.69.1.69.1c0 .14.1.183.2.38.1.197.2.373.2.394 0 .2.37.37 0 .51.79.1a.7.7 0 0 0 .11.2c.3.58.1.58.1s.13.27c.017 0 .51.79.1.24.1.15.3.277.4.13.2.233.4.233.4 0 .1.5.1.91.4.1.95.1.119s.17.35c.02 0 .34.34s.44.1.103.2c.54.1.102.2.102.3 0 .34.62.62 0 .34.34 0 .37.1.258.2.536.34.85.112s.17.1.34c.02 0 .35.35 0 .37.1.258.2.536.34.85.112s.18.1.35c.02 0 .34.34 0 .24.143.1.262.1.118.1.247.1.284.72.2.502.3.6.35.85.113s.18.1.35c.02 0 .34.34 0 .37.1.258.2.536.34.85.112s.17.1.34c.02 0 .35.35 0 .37.1.258.2.536.34.85.112s.18.1.35c.02 0 .34.34s.28.1.65.2c.185.4.216.4.196.5-.17-.953-3.2.037-3.2 0-3.2 0-3.2-.068a1.5 1.5 0 0 1-.069-.339c-.037-.288-.089-.692-.137-1.1-.1-.733-.11-.804-.205-1.5-.017-.149-.048-.38-.065-.508-.018-.133-.052-.367-.072-.526s-.055-.387-.076-.509c-.024-.146-.04-1.6-.051-4.1-.007-2.6 0-3.9.024-3.9m-12.2-.306c.023 0 .13-.2.1-.34-.58.1-.58.1 0 .024-.14-.34-.017 0-.35-.35 0 .017-.58.1-.13.2s-.15.2-.174.3c-.28.1-.62.1-.8.1-.013 0-.27-.27s-.4.1-.92.2c-.55.1-.117.2-.144.2-.28.1-.62.1-.79.1-.014 0-.27-.27 0 .017-.72.1-.161.3s-.192.3-.227.4a4 4 0 0 1-.178.3c-.65.1-.12.2-.12.2s-.75.1-.17.3c-.93.1-.172.3-.172.3 0 .01-.96.1-.213.3-.116.1-.222.3-.236.3l-.158.2a32 32 0 0 0-.335.4c-.114.1-.25.3-.309.4-.113.1-.103.1-.507.6-.154.2-.301.4-.325.4a4 4 0 0 0-.137.2 2 2 0 0 1-.138.2 4 4 0 0 0-.137.2 3 3 0 0 1-.167.2c-.42-.117.1-.172.2-.51.1-.116.2-.14.2a4 4 0 0 0-.137.2 5 5 0 0 1-.22.3.7.7 0 0 0-.13.2.3.3 0 0 1-.82.1 3 3 0 0 0-.182.2 2 2 0 0 1-.13.2c-.147.2-.223.3-.223.3 0 .01-.34.1-.75.1-.44-.116.1-.164.2a4 4 0 0 1-.151.2c-.34-.103.1-.154.2a2 2 0 0 1-.127.2c-.17-.9.1-.154.2-.62.1-.14.2-.168.2a3 3 0 0 0-.137.2c-.9.1-.148.2-.295.3a.5.5 0 0 0-.82.1c0 .027-.117.2-.144.2-.03 0-.038-6.3-.007-6.4.014-.4-.74.1-.74 0 1.2-.58 2.6-1.3 1.4-.708 2.6-1.3 2.6-1.3.02 0 .044-.1.1-.27-.34.4-.244.5-.244 0 .048-.17-.034 0-.2-.34.1-.034s.068-.17.1-.034c0-.2-.34-.34 0 .309-.119.5-.24a.4.4 0 0 1 .126-.031c.038 0 .08-.17.1-.34-.2.1-.34.1-.034a.4.4 0 0 0 .126-.03c.103-.52.2-.103.4-.153a1 1 0 0 1 .18-.05m16-.143c.24.68.142.1.68.1.219.2.339.3.116.1.243.2.278.2.37.13.1.209.2s.212.2.298.3c.82.1.205.2.274.2.65.1.188.2.274.2.82.1.205.2.274.2.65.1.175.2.24.2.65.205.2.315.3.106.1.23.2.274.2.41.13.1.199.2.65.1.178.2.25.2.75.1.199.2.274.2.79.1.202.2.274.2.216.2.247.2.302.3.27.116.2.202.3a25 25 0 0 1 .59.7c.81.1.157.2.17.2l.172.2c.82.1.226.3.318.4.96.1.24.3.326.4.85.1.168.2.185.2.17.96.1.171.2.79.1.154.2.171.2.21.86.1.151.2.65.1.144.2.175.2.27.106.1.171.2.62.1.14.2.168.2.31.113.1.185.2s.13.1.13.2c.4.8.1.172.2a1 1 0 0 1 .171.2.6.6 0 0 0 .123.2c.69.1.151.2.182.2.27.9.1.13.2l.79.1-.007 2.2-.01 2.2-1.7.01c-.932-1.7 0-1.8-.01-.072-.017-.181-.183-.181-.278 0-.024-.014-.044-.034-.044-.017 0-.035-.02-.035-.048a.6.6 0 0 0-.065-.18c-.034-.071-.096-.196-.133-.281a17 17 0 0 0-.179-.39l-.17-.373-.152-.333c-.048-.105-.13-.281-.178-.39-.048-.105-.12-.258-.154-.339-.034-.078-.096-.207-.13-.288l-.175-.38-.209-.448a2 2 0 0 1-.1-.227c0-.01-.068-.16-.154-.336a4 4 0 0 1-.154-.339c0-.01-.048-.122-.11-.251a3 3 0 0 1-.112-.248l-.1-.22c-.055-.112-.1-.22-.103-.237a.3.3 0 0 0-.037-.85.2.2 0 0 1-.035-.068c0-.01-.058-.136-.13-.282-.068-.149-.127-.295-.127-.332a.3.3 0 0 0-.03-.125 1.3 1.3 0 0 1-.107-.357.3.3 0 0 0-.03-.118 1.3 1.3 0 0 1-.107-.356.3.3 0 0 0-.03-.12 1.3 1.3 0 0 1-.107-.355.3.3 0 0 0-.03-.119 1.3 1.3 0 0 1-.107-.356.3.3 0 0 0-.03-.119 1.3 1.3 0 0 1-.107-.356.3.3 0 0 0-.03-.119 1.3 1.3 0 0 1-.107-.356.3.3 0 0 0-.03-.118 1.3 1.3 0 0 1-.107-.357.3.3 0 0 0-.03-.118 1.3 1.3 0 0 1-.107-.356.3.3 0 0 0-.03-.12 1.3 1.3 0 0 1-.107-.355.3.3 0 0 0-.03-.119 1.3 1.3 0 0 1-.107-.356.3.3 0 0 0-.03-.119 1.3 1.3 0 0 1-.107-.356.3.3 0 0 0-.03-.119 1.2 1.2 0 0 1-.107-.373c0-.037-.014-.081-.034-.091-.017-.01-.035-.058-.035-.102s-.013-.092-.034-.102c-.017-.01-.034-.071-.034-.135s-.014-.126-.034-.136c-.017-.01-.035-.058-.035-.102s-.013-.088-.03-.098-.038-.051-.048-.088q-.02-.7-.061m2.7-1.7c.01-.17.2.34.3.115.2.78.3.136.3.126s.31.69c.38.68.1.68 0-.13.1.7.1.44.1.75.3.13.3.122a.3.3 0 0 1 .95.1c.41.72.1.72 0-.65.9.475.62.1.1.58.1.102s.14.1.168.1c.27.198.2.383.3.182.1.429.3.549.4s.373.3.562.4c.188.1.366.3.393.3s.107.1.172.1c.65.127.1.137.1s.11.1.223.2c.113.1.222.2.243.2.24.103.1.181.1l.14.1v2.2l-.002 2.2-.093-.105a18 18 0 0 1-.418-.488 7 7 0 0 0-.199-.231 4 4 0 0 1-.137-.17 3 3 0 0 0-.209-.25 4 4 0 0 1-.171-.204 2 2 0 0 0-.171-.204 6 6 0 0 1-.172-.203 2 2 0 0 0-.171-.204 6 6 0 0 1-.171-.203 1 1 0 0 0-.09-.116 3 3 0 0 1-.157-.183 5 5 0 0 0-.178-.213 6 6 0 0 1-.172-.204c-.14-.17-.215-.258-.308-.363a1.3 1.3 0 0 1-.13-.163 4 4 0 0 0-.171-.203 2.6 2.6 0 0 1-.429-.6 24 24 0 0 0-.219-.407 26 26 0 0 1-.288-.543 6 6 0 0 0-.192-.356c-.02-.02-.092-.156-.377-.695a22 22 0 0 0-.287-.543 31 31 0 0 1-.336-.624c-.288-.55-.308-.584-.363-.655-.028-.03-.038-.071-.028-.088m-26.2-.488c.229 0 .983 3.6.193l.96.1.941c.528 1.7.1 1.8.103 0-.48.1-.9.1-.016 0-.6-.102.1s-.96.1-.12.1-.44-.44c0 .017-.42.1-.93.1a1 1 0 0 0-.161.1c-.38-.89.1-.113.1s-.45-.45c0 .017-.4-.92.1a1 1 0 0 0-.161.1c-.38-.9.1-.113.1s-.45-.45c0 .017-.4-.92.1a1 1 0 0 0-.161.1c-.38-.9.1-.113.1s-.45-.45c0 .017-.41.1-.92.1a1 1 0 0 0-.161.1c-.38-.9.1-.113.1s-.45-.45c0 .017-.41-.93.1a1 1 0 0 0-.16.1c-.38-.9.1-.114.1s-.44-.44-.874.5-1.9.987a319 319 0 0 0-2.5 1.2c-.295.1-.545.3-.555.2-.027-.027-.024-4.4 0-4.5.008-.7-.12.1-.013m31.9-1.3v1.9c0 1.1-.01 1.9-.024 1.9a.5.5 0 0 1-.137-.094 3 3 0 0 0-.353-.279 2 2 0 0 1-.137-.101 2 2 0 0 0-.137-.102 2 2 0 0 1-.158-.119l-.15-.119-.151-.118a2 2 0 0 0-.158-.119 2 2 0 0 1-.137-.102 2 2 0 0 0-.137-.101 2 2 0 0 1-.158-.12 1 1 0 0 0-.205-.152c-.014 0-.048-.027-.079-.06a1.2 1.2 0 0 0-.175-.143 2 2 0 0 1-.137-.102 2 2 0 0 0-.137-.102 2 2 0 0 1-.157-.119 1.2 1.2 0 0 0-.203-.152c-.047 0-.229-.173-.698-.675l-.514-.553-.185-.197h.287c.158 0 .497-.13.8-.3.3-.17.9-.051 1.3-.71.5-.024 1.1-.051 1.3-.65.2-.17.5-.3.6-.034ZM360.5 359h.596c.329 0 .62.647.31.72.1.96.2.24.1.59.1.72.2.014 0 .28.28 0 .23.1.162.1.308.1.146.1.292.1.326 0 .37.64.64 0 .34.34.1 0 .37.68.68 0 .34.34s.62.2.137.3c.75.2.137.3.137.3 0 .33.6.6 0 .35.35 0 .23.1.162.1.308.1.146.1.292.1.326 0 .37.64.64 0 .34.34.1 0 .37.68.68 0 .35.35s.61.2.137.3c.75.2.137.3.137.3 0 .33.6.6 0 .34.34 0 .38.2.418.3.68.33.84.111s.18.1.35.1c.02 0 .34.34 0 .37.1.257.2.535.34.85.112s.18.1.35.1c.02 0 .34.34 0 .38.2.418.3.68.33.84.111s.18.1.35.1c.02 0 .34.34 0 .86.1.59.2-.47.2-.247.8-.946 1.1-1.2.069-.5.1-.112.1-.129 0-.04-.113-.302-.353-.807a14 14 0 0 1-.178-.39 9 9 0 0 0-.188-.407l-.206-.44c-.04-.096-.12-.262-.171-.374-.055-.112-.134-.288-.182-.39s-.12-.264-.164-.356a4 4 0 0 1-.082-.187c0-.01-.045-.105-.096-.21-.093-.193-.165-.37-.165-.4a.3.3 0 0 0-.058-.082c-.03-.033-.051-.064-.045-.67 0-.048-.14-.13-.306-.079-.166-.133-.325-.127-.349-.34.2-.44.6-.044h.61l.76.1c.41.1.75.2.75.2s.18.35c.02 0 .34.34 0 .23.135.1.244.1.108.1.268.2.352.85.1.255.2.38.1.13.2.333.2.458.1.13.1.288.2.36a.6.6 0 0 1 .65.2c0 .27.47.47 0 .34.34 0 .27.105.1.18.7.1.233.2.365.1.316.3.648.4.808a.6.6 0 0 1 .65.2c0 .67.1.57.3-.2.1-.38.2-.92.2-.123.4-.183.6-.261.6-.288-.17.1-.44.2-.061a.6.6 0 0 1 .144-.044q.159-.024-.017-.346a1 1 0 0 1-.103-.262c0-.033-.014-.064-.034-.064-.018 0-.035-.03-.035-.068 0-.037-.013-.068-.034-.068-.017 0-.034-.02-.034-.047 0-.037-.1-.258-.243-.536a.3.3 0 0 1-.031-.112c0-.027-.014-.05-.035-.05-.017 0-.034-.021-.034-.048 0-.024-.048-.143-.106-.261-.058-.12-.137-.275-.171-.346a.6.6 0 0 1-.065-.18c0-.027-.014-.048-.035-.048-.017 0-.034-.02-.034-.047a1.3 1.3 0 0 0-.106-.261l-.171-.346a.6.6 0 0 1-.065-.18c0-.027-.014-.047-.035-.047-.017 0-.034-.038-.034-.085V359h1.3l.58.1a.5.5 0 0 1 .59.2c0 .27.47.47 0 .28.28 0 .2.1.194.2.38.1.187.2.366.2.397 0 .34.61.61 0 .34.34 0 .23.1.162.1.308s.137.3.137.3c0 .37.64.64 0 .35.35.1 0 .37.68.68 0 .34.34 0 .38.1.258.2.536.34.85.112s.17.1.35.1c.02 0 .34.34 0 .85.1.224.1.24.8.1 0 .172-.16.1-.2.5-.44.9-.054l.798-.02-.024-.106a1 1 0 0 0-.048-.156c-.15-.288-.377-.783-.377-.827 0-.03-.014-.055-.034-.055-.017 0-.034-.02-.034-.04 0-.024-.052-.15-.117-.282a7 7 0 0 1-.175-.373 15 15 0 0 0-.226-.478c-.092-.19-.168-.37-.168-.4s-.013-.055-.034-.055c-.017 0-.034-.03-.034-.064 0-.037-.014-.078-.035-.088-.017-.01-.034-.044-.034-.072 0-.4.1-.47.6-.047h.631l.123.2c.69.1.124.3.124.3 0 .2.4.4 0 .34.34.1 0 .37.78.88.1.51.088 0 .34.65.65 0 .34.34 0 .38.1.258.2.536.34.85.112s.18.1.35.1c.02 0 .34.34 0 .27.135.1.24a1 1 0 0 1 .102.2c0 .27.48.48 0 .34.34.1 0 .37.78.88.1.51.088 0 .34.65.65 0 .34.34 0 .38.1.258.2.536a.3.3 0 0 1 .31.1c0 .54.1.17.2.17 0 .384.1.545.2.41.116.171.1.52.12.1.151.1.34.86.113s.51.51c0 .17.34.34 0 .364.2.75.4.107.1.21.1.227.1.038-.24-.19-.034-.19-.018 0-.031-.02-.031-.044s-.062-.163-.137-.312c-.076-.15-.137-.298-.137-.332 0-.031-.014-.058-.035-.058-.017 0-.034-.02-.034-.044 0-.034-.175-.414-.312-.675a.3.3 0 0 1-.03-.112c0-.027-.014-.05-.035-.05-.017 0-.034-.021-.034-.042a1.5 1.5 0 0 0-.116-.281 7 7 0 0 1-.175-.373c-.031-.075-.12-.265-.195-.424-.076-.16-.151-.319-.165-.356a10 10 0 0 0-.171-.373c-.08-.17-.161-.34-.182-.38-.079-.17-.038-.18.6-.18.5 0 .6.655.1.34.61.1.61.1s.52.1.117.3c.65.1.147.3.185.4l.147.3c.45.1.79.2.79.2a.2.2 0 0 0 .48.1c.2.41.1.41.1 0 .24.85.14.1.169.2.437.2.454 0 .1.1.152.1.315.1.166.1.309.1.32 0 .1.1.142.1.294.1.15.2.336.2.41.1.282.2.414.3.645.1.129.2.332.2.448l.205.4c.58.1.133.3.168.4.68.2.332.7.38.8.17.3.1.3.1s.18.1.35c.02 0 .34.34 0 .24.136.1.244.1.109.1.268.2.353.85.1.319.2.526.1.203.2.403.2.44.38.1.14.1.228a.8.8 0 0 1 .71.2c0 .37.78.88.1.58.105a.4.4 0 0 0 .3.1c.17.48.1.72.2.2.1.55.2.72.3a.8.8 0 0 1 .31.2c0 .41.14.217.1.353.1.706.1 1.3a7.3 7.3 0 0 1-.213 1.8c-.17.1-.44.2-.55.2-.1.1-.3.1-.48.1-.17-.3.1-.3.1s-.14.1-.35.1c-.17-.34.1-.34.1s-.14.1-.34.1c-.17-.34-.34.1a.5.5 0 0 1-.69.2.6.6 0 0 0-.69.2c0 .024-.78.2-.174.4-.96.2-.192.4-.216.4-.2-.48.1-.62.1-.017 0-.27-.27s-.41.1-.93.2c-.54.1-.11.2-.13.2-.106.2-.223.3-.264.4a.5.5 0 0 0-.82.1c-.82.1-.894 1-.95 1a.3.3 0 0 0-.105.1c-.134.1-.295.3-.315.3-.01 0-.38-.66-.82.1-.188.2-.209.2a.4.4 0 0 0-.89.1c-.4-.96.1-.12.1s-.44-.44c0 .017-.41.1-.93.1-.55-.14.1-.195.1-.137.1-1.53-1.1.53a.8.8 0 0 0-.182.1.7.7 0 0 1-.192.1c-.027 0-.58-.68-.1-.62-.114-.54-.157-.233.1a9 9 0 0 1-1.224c-.39.1-1.8.084-2.1.023-.103-.02-.305-.054-.445-.078a1.6 1.6 0 0 1-.316-.7.3.3 0 0 0-.12-.31.6.6 0 0 1-.16-.034l-.268-.075c-.092-.024-.164-.054-.164-.068 0-.013-.038-.027-.086-.027a.5.5 0 0 1-.154-.034c-.038-.02-.1-.05-.137-.068a.3.3 0 0 0-.12-.034c-.028 0-.051-.017-.051-.034 0-.02-.028-.033-.062-.033-.072 0-.83-.373-.898-.441a.7.7 0 0 0-.12-.68.8.8 0 0 1-.168-.112c-.037-.03-.089-.058-.113-.058s-.044-.013-.044-.027c0-.017-.041-.05-.093-.078a.7.7 0 0 1-.14-.091 4 4 0 0 0-.171-.136 3 3 0 0 1-.165-.126c-.02-.02-.12-.101-.22-.186a6 6 0 0 1-.719-.712c-.123-.14-.24-.275-.264-.299s-.044-.058-.044-.068a.3.3 0 0 0-.079-.108c-.113-.126-.46-.658-.627-.967a1.5 1.5 0 0 0-.134-.22c-.075-.088-.356-.668-.335-.692-.1-.02-.018-.02-.024 0-.04-.031-.04-.068s-.014-.068-.035-.068c-.017 0-.034-.02-.034-.044 0-.02-.11-.261-.243-.533-.511-1-.58-1.2-.58-1.2 0-.02-.013-.04-.034-.04-.017 0-.034-.031-.034-.069 0-.037-.014-.067-.034-.067-.017 0-.035-.02-.035-.044 0-.028-.092-.228-.205-.448s-.206-.42-.206-.448c0-.024-.013-.044-.034-.044-.017 0-.034-.02-.034-.044 0-.027-.093-.227-.206-.448-.113-.22-.205-.42-.205-.447 0-.024-.014-.044-.035-.044-.017 0-.034-.031-.034-.068s-.014-.068-.034-.068c-.017 0-.034-.02-.034-.048 0-.023-.062-.162-.137-.308a2 2 0 0 1-.138-.309c0-.027-.013-.047-.034-.047-.017 0-.034-.031-.034-.068s-.014-.068-.034-.068c-.017 0-.035-.02-.035-.044s-.106-.258-.24-.516c-.13-.257-.24-.492-.24-.515s-.013-.044-.034-.044c-.017 0-.034-.03-.034-.068s-.013-.068-.034-.068c-.017 0-.034-.02-.034-.048a1 1 0 0 0-.103-.24 1 1 0 0 1-.103-.241c0-.027-.014-.048-.034-.048-.017 0-.034-.03-.034-.067s-.014-.068-.035-.068c-.017 0-.034-.02-.034-.044 0-.02-.14-.323-.312-.668l-.377-.757a.7.7 0 0 1-.065-.18c0-.027-.013-.047-.034-.047-.017 0-.034-.03-.034-.068 0-.037-.014-.068-.035-.068-.017 0-.034-.02-.034-.044 0-.02-.154-.353-.346-.736s-.39-.787-.445-.895c-.055-.109-.1-.22-.1-.244 0-.028-.013-.048-.034-.048-.017 0-.034-.02-.034-.04 0-.024-.144-.333-.322-.69a52 52 0 0 1-.466-.949c-.079-.17-.23-.475-.333-.685-.102-.21-.178-.397-.164-.417-.24.2-.34.6-.027l.624.274.5c.15.3.346.7.435.9s.25.5.36.7c.106.2.198.4.198.4 0 .1.1.237.2.508.1.272.3.658.4.865.1.204.2.512.3.678.1.17.1.326.1.35 0 .2.4.4 0 .34.34 0 .24.1.326.3.672.2.346.4.719.4.827.1.109.1.22.1.245 0 .27.47.47 0 .35.35.1 0 .37.68.68 0 .34.34.1 0 .37.67.67 0 .35.35 0 .34.5.987.7 1.4.17.3.1.3.1s.18.1.35c.02 0 .34.34.1s.18.1.35.1c.02 0 .34.34.1 0 .37.68.68 0 .35.35.1 0 .37.68.68 0 .34.34 0 .24.1.207.2.407.2.424.3.468.3.187-.95-.261.1-.363a8 8 0 0 0 .059-.315c.01-.68-.136-.146s.031-.48-.085c0-.88.2-.723.2-.736-.7-.48-.088 0-.41-.92-.116-.23-.4-.04-.017 0-.007-.24-.055a.3.3 0 0 0 .052-.095c.007-.2-.84.1-.145-.92-.12-.01-.17-.031-.034-.058-.071-.058-.088 0-.014-.055-.14-.124-.278a1.6 1.6 0 0 1-.12-.306c0-.027-.013-.05-.034-.05-.017 0-.034-.02-.034-.048 0-.037-.1-.258-.243-.536a.3.3 0 0 1-.031-.112c0-.027-.014-.05-.035-.05-.017 0-.034-.021-.034-.048 0-.024-.061-.163-.137-.309-.075-.146-.137-.291-.137-.325 0-.038-.014-.065-.034-.065-.017 0-.034-.03-.034-.068 0-.037-.014-.067-.035-.067-.017 0-.034-.02-.034-.048 0-.037-.1-.258-.243-.536a.3.3 0 0 1-.031-.112c0-.027-.014-.05-.034-.05-.017 0-.035-.021-.035-.048 0-.024-.048-.142-.106-.261l-.171-.346a.6.6 0 0 1-.065-.18c0-.027-.014-.047-.034-.047-.018 0-.035-.02-.035-.048 0-.037-.1-.258-.243-.536a.3.3 0 0 1-.03-.112c0-.027-.015-.05-.035-.05-.017 0-.034-.021-.034-.048 0-.024-.048-.142-.107-.261s-.137-.275-.17-.346a.6.6 0 0 1-.066-.18c0-.027-.014-.047-.034-.047-.017 0-.035-.02-.035-.048a.6.6 0 0 0-.065-.18c-.034-.07-.113-.227-.17-.346a1.3 1.3 0 0 1-.107-.26c0-.028-.014-.048-.034-.048-.018 0-.035-.03-.035-.065 0-.037-.013-.078-.034-.088-.017-.01-.034-.05-.034-.088 0-.034-.014-.065-.034-.065-.018 0-.035-.023-.035-.05a.6.6 0 0 0-.068-.17.6.6 0 0 1-.069-.17c0-.027-.013-.05-.034-.05-.017 0-.034-.038-.034-.085Z"/></g></svg>