<svg xmlns="http://www.w3.org/2000/svg" version="1.0" viewBox="0 0 732 720"><path d="M362.5 1.9c-1.6 1-11.3 6.2-21.5 11.6-74.1 39.1-112.4 69.7-124.4 99.4-3 7.3-3.1 8.2-3 22.1 0 13.2.2 15.2 2.8 22.5 6.5 18.8 14.2 32.7 42.4 75.8 10.6 16.4 19.2 30.1 18.9 30.4-.7.6-41.2-39.8-69.2-69-11.9-12.5-25.4-25.7-29.8-29.2-23.8-19-40.6-20-66.3-3.9-18.7 11.7-37.3 28.4-83.2 74.7C4.1 261.6 0 266.1.4 268.1c.3 1.3 2.8 20.4 5.6 42.4C17.5 401.9 23.1 425 37.3 440.6c13.8 15.1 35.3 17 87.7 7.8 7.9-1.4 29.8-5.4 48.5-9 35.2-6.7 50.5-9.4 50.5-8.8s-10 4.9-48.1 20.9c-64.3 27-78.9 34.4-91.2 46.6-8.9 8.8-11.9 15.4-12.5 26.8-1 18.2 5.9 40.1 27.1 85.6 12.8 27.6 39.8 83 41 84.2.7.6 19.4 4.7 41.7 9.2 77.1 15.3 101.5 18.3 120.6 14.6 22.6-4.3 33.4-16.2 40.9-45.2 3.5-13.4 6.4-30.9 12.9-77.8 7.1-51.1 8.7-61.5 9.6-61.5.8 0 3.5 16.7 11.5 69.5 8.7 57.2 14 76.6 25 92.1 18.3 25.6 51.2 29.2 127.3 13.9 24.6-5 60.5-13.5 62-14.8 2-1.6 39.8-78 48.5-98 13.2-30.5 18.7-49.7 18.7-65.6 0-28.4-17.1-44.6-71.7-68-7.6-3.2-27.6-11.4-44.3-18.1-16.8-6.7-31.2-12.6-32-13.1-3-1.9 7.1.5 57.6 13.1 59.2 14.9 70.8 17.5 86.2 19.1 8.4.8 13.1.9 19 0 34.9-5.1 44.9-33.9 54.6-157.6 1.4-17.6 2.8-33.9 3.1-36.2l.6-4.2-14.3-15.8c-37.4-41.5-68.1-73.2-81.8-84.7-25.7-21.5-42.2-26.1-60.8-17-10.8 5.3-21.3 14.7-52.9 47.2-32.6 33.7-67.5 68.4-68.1 67.8-.5-.6 4.3-8.6 27.4-45.7 39.5-63.4 45.4-76.3 44.2-96.9-1.4-24.2-23-44.3-87.3-81.1C424.1 31.7 365.8-.2 365.6.1c-.1 0-1.4.9-3.1 1.8m27 290c33.9 9 60.7 37 68.2 71.6 2.1 9.3 2 28.8-.1 38.2-3.8 17.3-12.2 32.9-24.5 45.6-11.8 12.3-27 21.3-43.6 25.9-11.6 3.1-35.4 3.1-47 0-34.3-9.4-60.7-37.1-68.2-71.7-1-4.1-1.6-11.9-1.6-19 0-19 4.7-35.1 14.5-50.2 14.4-22 35.5-36.4 61.4-41.8 9.9-2.1 30.5-1.3 40.9 1.4"/></svg>