<svg xmlns="http://www.w3.org/2000/svg" version="1" viewBox="0 0 70 50"><path d="M23 21.1c-1.3.6-4 2.2-5.9 3.7s-6.2 4-9.5 5.7c-5.3 2.6-6.1 3.4-6.4 6-.3 3.6 0 4.1 5.8 8.3l4.5 3.4-4.9-4.4q-4.8-4.5-4.5-6.3c.5-2.3 5.1-5.1 10-5.9 3.4-.6 3.7-.4 4.9 2.4.7 1.7 2.6 4.9 4.1 7 1.6 2.2 2.8 4.5 2.7 5.2-.3 1.1.8 1.3 4.3.9.6 0-.3-1.7-2-3.6-1.7-2-3.1-4-3.1-4.6 0-1.1 8 2.8 9.5 4.6.5.7 2.4 1.6 4 1.9 1.7.4 3.7 1.7 4.6 2.8 1.1 1.4 2.2 1.9 3.4 1.4 1.7-.6 1.7-.7.1-2.5-2.3-2.6-.3-3.8 2.9-1.7 1.7 1.1 2.6 1.2 3.1.5.4-.8 2.9-1 7.3-.6 4.8.5 7.1.2 8.4-.7 1.7-1.3 1.6-1.5-1.5-3.5-1.8-1.1-4.4-3.2-5.7-4.6s-3.5-2.8-5-3.1c-8.4-1.9-10.4-2.8-14.7-6.8-2.5-2.4-6.3-4.9-8.4-5.5-4.4-1.3-4.7-1.3-8 0"/></svg>