<svg viewBox="0 0 34 32" xmlns="http://www.w3.org/2000/svg"><defs><clipPath id="a"><path d="M326 360h34v32h-34z"/></clipPath></defs><g clip-path="url(#a)" transform="translate(-326 -360)"><path fill-rule="evenodd" d="M329.362 360.837c-.025.006-.156.026-.287.049-.538.082-1.267.295-1.471.429a3 3 0 0 1-.15.082c-.141.075-.176.177-.196.556-.012.285-.003.364.055.54.137.407.339.633.825.944.246.154.345.203.857.442.14.065.294.14.342.167a.4.4 0 0 0 .147.049c.038 0 .073.013.083.03.051.085 1.301.428 1.557.428.26 0 .419.122.86.642a11 11 0 0 1 .697 1.002c.055.086.103.164.103.174s.038.079.086.157c.147.236.777 1.556.777 1.624 0 .02.029.092.064.158.035.068.064.14.064.163a.3.3 0 0 0 .032.102c.048.082.288.72.288.763 0 .02.022.075.048.12.025.05.083.2.13.335.151.439.177.507.221.612a.6.6 0 0 1 .048.135c0 .02.023.075.048.127.026.05.1.233.163.403.125.334.128.344.333.835.163.396.636 1.385.88 1.834.095.18.194.363.217.41.022.045.108.19.191.32.084.131.15.243.15.252 0 .017.378.626.49.786.038.053.115.17.173.262.176.282 1.07 1.507 1.16 1.588.01.01.058.076.112.148.051.072.214.265.358.432.147.164.266.318.266.334 0 .02.013.036.029.036.035 0 .47.517.597.714.122.18.19.52.221 1.07.013.197.035.42.055.492s.05.249.073.393.074.422.112.622c.083.426.144.79.208 1.26.025.19.06.417.08.502.016.085.032.232.032.327 0 .203.022.246.128.246.166 0 .86.082 1.186.14.185.033.377.063.428.063.048 0 .205.023.349.049.595.108 1.477.187 1.522.131.013-.016.022-.232.022-.478 0-.406.007-.459.07-.567a.6.6 0 0 1 .087-.117c.01 0 .093.036.182.078.25.115.86.301 1.206.364.166.032.47.065.671.078.502.033.515.043.56.38.025.21.105.4.176.42.278.075 1.813-.207 2.212-.407.03-.016.141-.059.25-.095.105-.036.355-.15.553-.252.659-.34 1.193-.753 1.78-1.372.426-.445.628-.698.877-1.087.214-.331.26-.321.227.065-.013.167-.035.331-.054.364a1 1 0 0 0-.058.213 2.7 2.7 0 0 1-.204.612.5.5 0 0 0-.052.128c0 .085-.444.7-.69.953-.32.334-.387.386-.7.596l-.304.203c-.131.091-.617.32-.828.396a2 2 0 0 0-.253.098c-.102.056-.633.206-1.078.305a12.7 12.7 0 0 1-3.277.255 63 63 0 0 0-.991-.065 15 15 0 0 1-1.446-.17 9 9 0 0 0-.52-.063 3 3 0 0 1-.372-.05 2.3 2.3 0 0 0-.39-.065 38 38 0 0 1-1.285-.18 51 51 0 0 0-1.679-.213c-.892-.104-2.392-.14-3.39-.078-.626.04-1.54.193-2.126.354l-.415.117c-.176.046-.247.072-.672.236-.716.282-1.225.52-1.672.793a2 2 0 0 1-.182.101c-.007 0-.096.056-.199.125l-.374.252c-.105.069-.204.137-.224.15-.019.017-.192.151-.387.302-.191.147-.463.38-.604.514-.256.249-.754.851-.754.913a.8.8 0 0 1-.093.174 2 2 0 0 0-.163.32c-.039.1-.087.224-.112.28a2 2 0 0 0-.08.294 3 3 0 0 1-.074.301c-.05.154-.006.18.199.115.204-.066.524-.35.741-.665.314-.449.589-.74.988-1.054.646-.505 1.484-.93 2.463-1.248.511-.167.84-.259 1.103-.301l.431-.079c.726-.134 1.12-.167 2.047-.173 1.061-.007 1.567.006 1.78.045.084.017.27.046.41.063.38.042 1.049.176 1.423.281.31.089.62.184.735.226.496.184.672.259.685.301.022.06-.007.4-.061.682-.042.216-.058.32-.16.95-.022.143-.073.432-.109.638-.038.206-.09.53-.115.72s-.057.38-.067.426c-.038.167-.07 1.031-.035 1.07.022.034.316.043 1.266.043.943 0 1.25-.01 1.289-.042.025-.02.108-.24.185-.482.074-.242.144-.478.16-.524.013-.045.058-.193.093-.327a22 22 0 0 1 .348-1.146 7 7 0 0 1 .237-.675.7.7 0 0 0 .058-.167c0-.02.022-.052.047-.075.052-.043.27-.007.496.082.118.042.313.088.688.16.124.023.297.06.383.079.15.036.323.065.8.137.326.05.978.128 1.23.148.132.01.32.033.42.052.099.017.303.036.457.046.153.007.288.023.304.03.031.02.105.317.195.789l.102.54c.02.098.054.363.077.59.06.576.08.697.115.743.025.033.313.042 1.24.042.928 0 1.215-.01 1.241-.042.016-.02.038-.275.048-.563.013-.289.035-.777.058-1.081.019-.308.025-.698.016-.871-.023-.364-.016-.373.22-.406.09-.013.234-.043.32-.069.09-.023.304-.082.48-.124a7 7 0 0 0 1.138-.37 3 3 0 0 1 .39-.131c.109-.017.112-.017.134.12a1 1 0 0 0 .067.223c.026.05.045.105.045.128 0 .02.016.079.039.131a19 19 0 0 1 .4 1.205 6.3 6.3 0 0 1 .23 1.53c.003.219.012.258.067.288.044.023.47.032 1.33.026 1.071-.01 1.266-.017 1.292-.06.096-.16-.077-3.67-.224-4.55a15 15 0 0 1-.067-.554 3 3 0 0 0-.064-.452.8.8 0 0 1-.03-.223c0-.157-.015-.13.449-.783.15-.212.287-.409.303-.438.02-.03.077-.128.131-.22a9 9 0 0 0 .483-.884c.246-.51.298-.625.298-.681 0-.03.012-.059.028-.069a1.5 1.5 0 0 0 .115-.308l.128-.416c.023-.072.064-.242.09-.376.195-.937.227-1.71.102-2.423a3 3 0 0 1-.028-.23c-.058-.5-.407-1.467-.74-2.046a8 8 0 0 1-.159-.295 3 3 0 0 0-.224-.344 4 4 0 0 1-.195-.285 1.2 1.2 0 0 0-.147-.18 5 5 0 0 1-.211-.255c-.106-.144-.656-.704-.962-.983-.39-.35-1.283-1.011-1.634-1.211l-.4-.23a13 13 0 0 0-1.071-.556l-.432-.18a5 5 0 0 0-.63-.23 2 2 0 0 1-.214-.078.3.3 0 0 0-.128-.036.5.5 0 0 1-.154-.04c-.092-.039-.316-.094-.7-.173a5 5 0 0 1-.351-.079 4 4 0 0 0-.413-.065l-.528-.069c-.316-.049-2.155-.049-2.622-.003-.2.02-.61.059-.91.085-.298.026-.66.062-.8.079-.394.052-1.621.101-1.999.082-.645-.033-1.474-.148-1.592-.223a1 1 0 0 0-.173-.05c-.156-.032-.831-.314-.952-.396a1 1 0 0 0-.128-.072 7 7 0 0 1-.39-.262c-.493-.347-.992-.848-1.551-1.565q-.568-.732-.752-1.07a5 5 0 0 0-.21-.328 8 8 0 0 1-.27-.42 11 11 0 0 0-.268-.441 11 11 0 0 1-.205-.334 20 20 0 0 0-.415-.698 5 5 0 0 1-.157-.265 9 9 0 0 0-.24-.39 6 6 0 0 1-.163-.255c-.182-.315-1.04-1.647-1.125-1.742a3 3 0 0 1-.167-.23 2 2 0 0 0-.13-.18 5 5 0 0 1-.177-.229c-.31-.416-.853-.933-1.346-1.287a5.8 5.8 0 0 0-1.052-.53 6 6 0 0 1-.268-.089 5 5 0 0 0-.384-.098c-.26-.056-.445-.069-1.154-.078a19 19 0 0 0-.896.003"/></g></svg>