<svg viewBox="0 0 34 32" xmlns="http://www.w3.org/2000/svg"><g transform="translate(-326 -360)"><path fill-rule="evenodd" d="M329.4 360.8c-.25-.156-.287-.538.1-1.3.295-1.5.429a3 3 0 0 1-.15.1c-.141.1-.176.2-.196.6-.12.3-.3.4.55.5.137.4.339.6.825.9.246.2.345.2.857.4.14.1.294.1.342.2a.4.4 0 0 0 .147c.038 0 .73.83.51.1 1.3.428 1.6.428.3 0 .419.1.86.6a11 11 0 0 1 .697 1c.55.1.103.2.103.2s.38.1.86.2c.147.2.777 1.6.777 1.6 0 .2.92.1.158.68.1.14.1.163a.3.3 0 0 0 .32.1c.48.1.288.7.288.8 0 .2.75.12.5.1.2.1.335.2.439.2.507.2.612a.6.6 0 0 1 .48.1c0 .2.75.127.5.1.233.2.403.1.334.1.344.3.835.2.396.6 1.4.88 1.8.95.2.194.4.217.4.22.108.2.191.3.84.1.15.2.15.3 0 .17.4.626.5.786.53.1.17.2.262.2.282 1.1 1.5 1.2 1.6.1.58.1.112.1.51.1.214.3.358.4.147.2.266.3.266.3 0 .2.36.36 0 .47.5.597.7.122.2.19.5.221 1.1.13.2.35.4.55.5s.5.2.73.4.74.4.112.6c.83.4.144.8.208 1.3.25.2.6.4.8.5.16.1.32.2.32.3 0 .203.246.1.246.2 0 .86.1 1.2.14.2.33.4.63.4.63 0 .205.349.595.1 1.5.187 1.5.131-.16-.232-.478 0-.406-.459.1-.567a.6.6 0 0 1 .087-.117c.01 0 .93.182.1.25.1.86.3 1.2.364.2.32.5.65.7.78.5.33.5.43.6.38.21.1.4.2.42.3.075 1.8-.207 2.2-.407-.16.1-.59.3-.95.1-.36.4-.15.6-.252.7-.34 1.2-.753 1.8-1.4.426-.445.6-.698.9-1.1.214-.331.3-.321.2.065-.13.2-.35.3-.54.4a1 1 0 0 0-.58.2 2.7 2.7 0 0 1-.204.6.5.5 0 0 0-.52.1c0 .085-.444.7-.70-.32.3-.387.4-.7.6l-.304.2c-.131.1-.617.3-.828.4a2 2 0 0 0-.253.1c-.102.1-.633.2-1.1.305a12.7 12.7 0 0 1-3.3.255 63 63 0 0 0-.991-.065 15 15 0 0 1-1.4-.17 9 9 0 0 0-.52-.063 3 3 0 0 1-.372-.05 2.3 2.3 0 0 0-.39-.065 38 38 0 0 1-1.3-.18 51 51 0 0 0-1.7-.213c-.892-.104-2.4-.14-3.4-.078-.626-1.5.193-2.1.354l-.415.1c-.176-.247.1-.672.2-.716.3-1.2.52-1.7.793a2 2 0 0 1-.182.1c-.007 0-.96.1-.199.1l-.374.3c-.105.1-.204.1-.224.2-.19-.192.2-.387.3-.191.1-.463.4-.604.5-.256.2-.754.9-.754.9a.8.8 0 0 1-.93.2 2 2 0 0 0-.163.3c-.39.1-.87.2-.112.3a2 2 0 0 0-.8.3 3 3 0 0 1-.74.3c-.5.2-.6.2.199.1.204-.66.5-.35.7-.665.3-.449.6-.75-1.1.646-.505 1.5-.93 2.5-1.2.511-.167.8-.259 1.1-.301l.431-.079c.726-.134 1.1-.167 2-.173 1.1-.007 1.6.006 1.8.45.1.17.3.46.4.63.4.042 1.176 1.4.281.3.89.6.184.7.226.5.184.7.259.7.301.06-.7.4-.61.7-.42.2-.58.3-.16.9-.22.1-.73.4-.109.6-.38.2-.9.5-.115.7s-.57.4-.67.4c-.38.2-.07 1-.035 1.1.22.316 1.3.43.9 0 1.3-.01 1.3-.42-.2.1-.24.2-.482.1-.242.1-.478.2-.524-.45.1-.193.1-.327a22 22 0 0 1 .348-1.1 7 7 0 0 1 .237-.675.7.7 0 0 0 .058-.167c0-.2-.52-.75.1-.43.3-.7.5.82.1.42.3.88.7.16.1.23.3.6.4.79.2.36.3.65.8.137.3.6.128 1.2.148.1.1.3.33.4.52.1.17.3.36.5.46.2.7.3.23.3.3.2.1.317.2.789l.102.5c.2.1.54.4.77.6.6.6.8.7.115.7.25.313 1.2.42.9 0 1.2-.01 1.2-.42-.2-.275-.563-.289-.777.1-1.1.019-.308-.698-.871-.023-.364-.016-.373.2-.406.1-.13.2-.43.3-.69.1-.23.3-.82.5-.124a7 7 0 0 0 1.1-.37 3 3 0 0 1 .39-.131c.109-.17.1-.17.1.12a1 1 0 0 0 .67.2c.26.1.45.1.45.1 0 .2.79.131a19 19 0 0 1 .4 1.2 6.3 6.3 0 0 1 .23 1.5c.3.2.12.3.67.3.44.47 1.3.026 1.1-.01 1.3-.017 1.3-.6.1-.16-.077-3.7-.224-4.5a15 15 0 0 1-.067-.554 3 3 0 0 0-.064-.452.8.8 0 0 1-.03-.223c0-.157-.015-.13.4-.783.1-.212.3-.409.3-.438-.3.1-.128.1-.22a9 9 0 0 0 .483-.884c.246-.51.3-.625.3-.681 0-.3-.59-.069a1.5 1.5 0 0 0 .115-.308l.128-.416c.023-.72.1-.242.1-.376.2-.937.2-1.7.102-2.4a3 3 0 0 1-.028-.23c-.058-.5-.407-1.5-.74-2a8 8 0 0 1-.159-.295 3 3 0 0 0-.224-.344 4 4 0 0 1-.195-.285 1.2 1.2 0 0 0-.147-.18 5 5 0 0 1-.211-.255c-.106-.144-.656-.704-.962-.983-.39-.35-1.3-1-1.6-1.2l-.4-.23a13 13 0 0 0-1.1-.556l-.432-.18a5 5 0 0 0-.63-.23 2 2 0 0 1-.214-.78.3.3 0 0 0-.128-.36.5.5 0 0 1-.154-.04c-.092-.039-.316-.094-.7-.173a5 5 0 0 1-.351-.079 4 4 0 0 0-.413-.065l-.528-.069c-.316-.049-2.2-.049-2.6-.003-.2-.61.1-.91.1-.298-.66.1-.8.1-.394.1-1.6.101-2.082-.645-.033-1.5-.148-1.6-.223a1 1 0 0 0-.173-.05c-.156-.032-.831-.314-.952-.396a1 1 0 0 0-.128-.072 7 7 0 0 1-.39-.262c-.493-.347-.992-.848-1.6-1.6q-.568-.732-.752-1.1a5 5 0 0 0-.21-.328 8 8 0 0 1-.27-.42 11 11 0 0 0-.268-.441 11 11 0 0 1-.205-.334 20 20 0 0 0-.415-.698 5 5 0 0 1-.157-.265 9 9 0 0 0-.24-.39 6 6 0 0 1-.163-.255c-.182-.315-1-1.6-1.1-1.7a3 3 0 0 1-.167-.23 2 2 0 0 0-.13-.18 5 5 0 0 1-.177-.229c-.31-.416-.853-.933-1.3-1.3a5.8 5.8 0 0 0-1.1-.53 6 6 0 0 1-.268-.089 5 5 0 0 0-.384-.098c-.26-.056-.445-.069-1.2-.078a19 19 0 0 0-.896"/></g></svg>