<svg viewBox="0 0 37 20" xmlns="http://www.w3.org/2000/svg"><defs><clipPath id="a"><path d="M287 373h37v20h-37z"/></clipPath></defs><g clip-path="url(#a)" transform="translate(-287 -373)"><path fill-rule="evenodd" d="M287.433 373.907c0 .02.027.038.061.038s.075.014.096.031c.017.014.14.07.272.12.18.07.252.115.265.17.017.062.028.065.052.027.027-.044.071-.034.282.049.136.052.327.13.419.172.095.045.33.149.524.235.235.103.371.183.398.238.041.072.045.072.048.01.004-.065.007-.065.048-.01.024.034.05.051.064.041.01-.01.045-.003.082.014.034.02.164.083.293.141.126.059.228.121.228.138s.03.024.068.014.068 0 .068.02c0 .021.02.039.045.039.02 0 .078.02.126.044.047.028.3.163.561.3.262.139.484.266.487.283.007.014.041.028.078.028.038 0 .065.024.065.055 0 .028.014.042.034.031.03-.017.106.017.433.21.06.038.112.076.112.09 0 .017.02.028.044.028s.184.093.358.207c.173.114.326.207.337.207.02 0 .762.5.93.627l.425.314c.79.583 1.15.88 1.123.925-.013.017.007.03.041.03.072 0 .878.753 1.243 1.156.388.431.674.807 1.304 1.721.252.362 1.004 1.528 1.004 1.556 0 .01.058.11.13.217.07.107.19.303.262.438.068.131.14.255.153.276.078.11.378.697.64 1.259.507 1.086.636 1.486.674 2.093.03.483 0 .61-.276 1.2-.228.487-.422.752-.63.863-.132.069-.589.138-.606.09-.017-.052-.109-.049-.173.01-.068.058-.787.114-.787.058 0-.02-.044-.038-.102-.038-.054 0-.102.018-.102.042 0 .062-.8.01-.906-.059-.092-.062-.19-.065-.241-.014-.028.028-.12.01-.33-.055-.16-.052-.317-.086-.348-.08-.095.018-.133.187-.068.287.15.231.644.431.94.38.102-.018.136-.01.136.024q-.002.046.027.007c.014-.025.146-.06.296-.08.15-.024.358-.055.46-.072.419-.07 1.008-.104 1.668-.097.385.007.732-.003.776-.017.062-.024.075-.017.075.045 0 .214-.173.38-.636.603-.184.087-.368.176-.409.197-.037.02-.088.024-.109.014-.02-.014-.037-.01-.037.007 0 .034-.426.207-.746.303-.14.042-.19.045-.208.014-.02-.031-.034-.024-.06.017-.052.097-.709.259-1.04.259a1.3 1.3 0 0 0-.333.034c-.088.052-.082.194.017.287.15.141.606.21.824.127.068-.027.099-.027.12.007.02.031.033.028.05-.017.034-.09 1.437-.793 1.536-.77q.075.023.085-.034c.01-.058.112-.1.63-.255.187-.059.367-.093.398-.083q.055.022.054-.034c0-.066.103-.076.103-.014.003.028.024.017.05-.02a.4.4 0 0 1 .127-.104c.17-.093.405-.228.66-.39.552-.341.647-.38 1.086-.441.225-.028.524-.073.664-.093s.31-.042.375-.042c.064-.003.129-.017.143-.034.01-.018.163-.07.34-.114.245-.062.477-.086 1.032-.114.395-.017.83-.052.97-.072.14-.025.303-.045.357-.049a.8.8 0 0 0 .198-.044c.123-.052.15-.052.17 0 .01.034.027.03.061-.014a.44.44 0 0 1 .201-.09c.085-.02.276-.069.426-.11a2 2 0 0 1 .35-.076c.041 0 .075-.017.075-.042 0-.02.062-.065.133-.1.075-.034.255-.176.409-.317.15-.141.316-.266.368-.28a.7.7 0 0 0 .204-.103c.095-.072.109-.107.119-.265l.01-.18.272-.145c.15-.079.293-.137.314-.13.024.006.054-.007.068-.032.078-.13.725-.21.933-.113.153.072.286.21.415.43.068.121.126.232.126.246s.085.086.19.162c.11.072.358.296.559.496.2.2.535.504.742.673.211.169.382.32.382.334s.017.028.034.028c.03 0 .187.11.46.32.016.015.142.104.272.197.132.097.275.204.316.242a.4.4 0 0 0 .099.069c.007 0 .109.072.225.162.115.09.286.217.38.283.093.065.324.234.512.376.435.327.64.434.731.386.103-.055.239-.204.239-.262 0-.028-.014-.045-.03-.035-.018.01-.069-.041-.12-.117a19 19 0 0 0-.708-.87c-.34-.403-.736-.872-.875-1.04-.143-.17-.324-.384-.402-.473-.401-.47-.759-.963-.759-1.056 0-.044.211.014.555.149.259.107.398.179.398.214 0 .037.01.04.048.01.037-.031.075-.028.16.024.065.034.177.086.252.117.238.097 1.157.556 1.168.587a.06.06 0 0 0 .044.027c.017 0 .323.149.684.331s.81.407.998.5.368.187.398.204c.044.024.068.017.095-.031.052-.1.045-.117-.102-.307-.14-.176-1.052-.997-1.634-1.473a88 88 0 0 1-.752-.645c-.344-.296-.671-.58-.729-.627-.054-.049-.126-.107-.15-.132l-.293-.251c-1.208-1.028-1.126-.942-1.174-1.228-.051-.297-.163-.445-.381-.51-.242-.073-.42-.197-.627-.442a13 13 0 0 0-.395-.448c-.109-.118-.197-.242-.197-.28 0-.041.262-.376.636-.807.767-.886 1.21-1.386 1.236-1.4.01-.004.014-.062.007-.128-.013-.1 0-.124.065-.151a.25.25 0 0 1 .16 0c.044.017.119.03.167.03.092 0 .092.01.034-.362-.004-.02.044-.03.105-.024.12.007.133-.017.058-.117a.33.33 0 0 1-.051-.173c0-.09.065-.172.395-.524.545-.58 1.256-1.224 1.757-1.59.228-.172.439-.327.463-.348.078-.069.45-.273.453-.248a.1.1 0 0 1 0 .051c-.004.018.01.018.03.007.02-.014.03-.045.02-.072-.02-.055.48-.37.552-.342.02.007.041-.003.041-.027 0-.042.63-.37.708-.37.02 0 .041-.013.048-.027.01-.027.463-.217.793-.334.095-.031.201-.073.238-.087.11-.048.361-.13.562-.19.453-.134.562-.158.572-.12.017.052.075.041.075-.017 0-.028.01-.052.027-.052l.16-.031c.075-.017.26-.055.409-.086.517-.107.797-.19.98-.283l.106-.059-.075-.058c-.04-.035-.075-.08-.075-.1 0-.056-.204-.045-.225.01-.023.065-.153.096-.207.048-.034-.027-.058-.024-.089.014-.024.034-.218.093-.483.148a7 7 0 0 0-.521.125.5.5 0 0 1-.16.03c-.044 0-.092.018-.106.038-.01.021-.058.028-.102.018-.044-.014-.082-.007-.082.01 0 .048-1.01.359-1.065.324-.014-.01-.048.007-.068.035-.024.027-.194.107-.382.176a9 9 0 0 0-.401.162c-.034.017-.079.024-.1.01-.016-.014-.043-.007-.057.01-.017.032-.177.107-.82.4-.351.16-.732.349-.92.46-.102.058-.31.172-.46.255-.694.382-.806.444-.87.503a.17.17 0 0 1-.093.048c-.024 0-.04.014-.04.035a.034.034 0 0 1-.035.034c-.047 0-.65.394-1.63 1.07a2 2 0 0 1-.28.172c-.017 0-.03.014-.03.027 0 .035-.399.318-.446.318a.03.03 0 0 0-.03.03c0 .05-.406.356-.444.332-.017-.01-.034 0-.034.024-.003.024-.098.117-.214.207-.116.086-.586.455-1.042.817-.456.363-.84.66-.854.66-.01 0-.31-.28-.664-.622-.423-.403-.657-.607-.678-.586-.099.1.055.545.51 1.5.083.17.15.342.15.38 0 .045-.227.29-.653.707-.36.348-1.107 1.076-1.655 1.617a31 31 0 0 1-1.082 1.039c-.044.027-.082.062-.082.075 0 .073-.276.018-.494-.093-.49-.255-.776-.524-1.876-1.762-.473-.535-.527-.614-.745-1.062a6 6 0 0 0-.317-.58c-.235-.32-.333-.438-.398-.469-.14-.065-.416-.352-.51-.531a8.5 8.5 0 0 0-.62-.924c-.082-.104-.324-.425-.542-.707-.517-.68-.735-.9-1.205-1.218a5 5 0 0 1-.402-.29c-.007-.017-.027-.027-.047-.027s-.184-.1-.365-.221c-.572-.383-1.348-.9-1.382-.917l-.323-.207a6 6 0 0 0-.511-.307 2 2 0 0 1-.272-.162c-.028-.024-.065-.045-.086-.045a6 6 0 0 1-.408-.19c-.204-.103-.507-.248-.67-.328-.164-.079-.304-.155-.317-.175-.01-.018-.041-.025-.069-.01q-.05.015-.05-.042c0-.031-.018-.045-.035-.035-.02.014-.153-.034-.3-.107a13 13 0 0 0-.772-.358 3 3 0 0 1-.262-.118 12 12 0 0 0-.555-.245 14 14 0 0 1-.494-.213 6 6 0 0 0-.579-.238c-.14-.049-.279-.124-.31-.162-.034-.042-.06-.056-.068-.028-.01.028-.177 0-.561-.1a6 6 0 0 0-.647-.138.5.5 0 0 1-.194-.052c-.051-.027-.116-.041-.143-.027-.096.034-.358-.024-.358-.083 0-.041-.02-.048-.092-.028-.129.038-.357.038-1.464.004-.718-.024-.963-.02-.963.01"/></g></svg>