<svg viewBox="0 0 37 20" xmlns="http://www.w3.org/2000/svg"><g transform="translate(-287 -373)"><path fill-rule="evenodd" d="M287.4 373.9c0 .2.38.1.038s.75.96c.17.14.1.272.1.18.1.252.1.265.2.17.1.28.1.52.027-.44.1-.34.3.49.1.52.3.13.4.172.1.45.3.149.5.235.2.103.4.183.4.238.72.72.1-.65-.65-.1.34.51.1.41-.1-.3.1.14.2.2.83.3.141.1.59.2.121.2.138s.3.68.068 0 .68c0 .21.39.39 0 .78.126.47.3.2.561.3.262.1.484.3.487.3.7.41.78.038 0 .65.65.1 0 .28.42.31-.17.1.17.4.21.1.38.1.76.1.09 0 .17.28.028s.184.1.358.2c.173.1.326.2.337.2.02 0 .762.5.93.6l.425.3c.79.6 1.1.88 1.1.925-.13.7.41.072 0 .878.8 1.2 1.2.388.4.674.8 1.3 1.7.252.4 1 1.5 1 1.6 0 .1.1.11.1.217.1.107.2.303.3.438.1.131.1.255.2.276.1.11.4.697.6 1.3.507 1.1.636 1.5.674 2.1.3.5 0 .61-.276 1.2-.228.5-.422.8-.63.9-.132.1-.589.1-.606.1-.017-.052-.109-.049-.173-.68.1-.787.1-.787.1 0-.02-.044-.038-.102-.038-.054 0-.102-.102 0 .062-.8-.906-.059-.092-.062-.19-.065-.241-.014-.28-.12-.33-.055-.16-.052-.317-.086-.348-.08-.95-.133.2-.68.3.15.2.644.4.94.4.102-.18.1-.1.1.024q-.2.27c.014-.25.1-.6.3-.8.2-.24.4-.55.5-.72.4-.07 1-.104 1.7-.97.4.7.7-.3.8-.17.1-.24.1-.17.1.045 0 .214-.173.4-.636.6-.184.1-.368.2-.409.2-.37-.88-.109-.02-.014-.037-.01-.37 0 .034-.426.2-.746.3-.14-.19-.208-.02-.031-.034-.024-.6-.52.1-.709.3-1.259a1.3 1.3 0 0 0-.333c-.88.1-.82.2.17.3.15.1.606.2.824.1.068-.27.1-.27.1.7.31.28.1-.17-.09 1.4-.793 1.5-.77q.75.085-.034c.01-.58.1-.1.6-.255.2-.59.4-.93.4-.083q.55.054-.034c0-.66.1-.76.1-.14.28.17.1-.02a.4.4 0 0 1 .127-.104c.17-.93.4-.228.7-.39.6-.341.6-.38 1.1-.441.2-.28.5-.73.7-.093s.31-.42.4-.042c.064-.3.1-.17.1-.34-.18.2-.7.3-.114.2-.62.5-.086 1-.114.4-.17.8-.53-.72.1-.25.3-.45.4-.049a.8.8 0 0 0 .198-.044c.123-.52.1-.52.2 0 .1.27.061-.014a.44.4 0 0 1 .201-.09c.085-.2.3-.69.4-.11a2 2 0 0 1 .35-.076c.041 0 .075-.17.1-.042 0-.2.1-.65.1-.1.1-.34.3-.176.4-.317.1-.141.3-.266.4-.28a.7.7 0 0 0 .204-.103c.095-.72.1-.107.1-.265l.01-.18.3-.145c.15-.79.3-.137.3-.13.6.1-.7.1-.32.1-.13.7-.21.9-.113.2.72.3.21.4.43.1.121.1.232.1.246s.85.1.19.2c.11.1.358.3.559.5.2.2.535.5.742.7.211.2.382.3.382.3s.17.34c.03 0 .187.1.46.3.16.142.1.272.2.132.1.275.2.316.2a.4.4 0 0 0 .99.1c.007 0 .109.1.225.2.115.1.286.2.38.3.93.1.324.2.512.4.435.3.64.4.731.4.103-.55.2-.204.2-.262 0-.028-.014-.045-.03-.035-.18-.069-.041-.12-.117a19 19 0 0 0-.708-.87c-.34-.403-.736-.872-.875-1-.143-.17-.324-.384-.402-.473-.401-.47-.759-.963-.759-1.1 0-.44.2.14.6.149.3.107.4.179.4.214 0 .37.4.1-.31.1-.28.2.24.1.34.2.86.3.117.2.097 1.2.556 1.2.587a.6.1 0 0 0 .44c.017 0 .323.1.684.3s.81.4.998.5.368.2.398.2c.44.68.095-.31.1-.1-.117-.102-.307-.14-.176-1.1-.997-1.6-1.5a88 88 0 0 1-.752-.645c-.344-.296-.671-.58-.729-.627-.054-.049-.126-.107-.15-.132l-.293-.251c-1.2-1-1.1-.942-1.2-1.2-.051-.297-.163-.445-.381-.51-.242-.073-.42-.197-.627-.442a13 13 0 0 0-.395-.448c-.109-.118-.197-.242-.197-.28 0-.41.3-.376.6-.807.8-.886 1.2-1.4 1.2-1.4.01-.4-.62-.128-.013-.1 0-.124.1-.151a.25.3 0 0 1 .16 0c.44.119.167.092 0 .92.034-.362-.004-.2-.3.1-.24.1.7.1-.17.1-.117a.33.3 0 0 1-.051-.173c0-.9.1-.172.4-.524.5-.58 1.3-1.2 1.8-1.6.228-.172.4-.327.5-.348.1-.69.5-.273.5-.248a.1.1 0 0 1 0 .051c-.4.1.3.02-.14-.45-.072-.02-.55.5-.37.6-.342.7-.3-.027 0-.42.6-.37.7-.37 0 .041-.13-.27-.27.5-.217.8-.334.1-.31.2-.73.2-.87.1-.48.4-.13.6-.19.5-.134.6-.158.6-.12.52.1.41.1-.017 0-.28-.52-.052l.16-.031c.075-.17.3-.55.4-.86.5-.107.8-.20-.283l.106-.059-.075-.058c-.04-.035-.075-.08-.075-.1 0-.056-.204-.045-.225-.23.1-.153.1-.207-.034-.027-.058-.024-.89-.24-.218.1-.483.1a7 7 0 0 0-.521.1.5.5 0 0 1-.16c-.044 0-.92-.106-.1-.58-.102-.044-.014-.082-.007-.82 0 .048-1.359-1.1.324-.014-.01-.48-.68-.24-.194.1-.382.2a9 9 0 0 0-.401.2c-.34-.79-.1-.016-.014-.043-.007-.57-.17-.177.1-.82.4-.351.2-.732.3-.92.5-.102.1-.31.2-.46.3-.694.4-.806.4-.87.5a.17.2 0 0 1-.93c-.024 0-.4-.4a.34 0 0 1-.35c-.047 0-.65.4-1.6 1.1a2 2 0 0 1-.28.2c-.017 0-.3-.3 0 .035-.399.3-.446.3a.3 0 0 0-.3c0 .05-.406.4-.444.3-.017-.01-.034 0-.34-.3-.98.1-.214.2-.116.1-.586.5-1.817-.456.4-.84.7-.854.7-.01 0-.31-.28-.664-.622-.423-.403-.657-.607-.678-.586-.99.1.55.5.51 1.5.83.2.15.3.15.4 0 .045-.227.3-.653.7-.36.3-1.1 1.1-1.7 1.6a31 31 0 0 1-1.1 1c-.44-.82.1-.82.1 0 .073-.276-.494-.093-.49-.255-.776-.524-1.9-1.8-.473-.535-.527-.614-.745-1.1a6 6 0 0 0-.317-.58c-.235-.32-.333-.438-.398-.469-.14-.065-.416-.352-.51-.531a8.5 8.5 0 0 0-.62-.924c-.082-.104-.324-.425-.542-.707-.517-.68-.735-.9-1.2-1.2a5 5 0 0 1-.402-.29c-.007-.017-.027-.027-.047-.027s-.184-.1-.365-.221c-.572-.383-1.3-.9-1.4-.917l-.323-.207a6 6 0 0 0-.511-.307 2 2 0 0 1-.272-.162c-.028-.024-.065-.045-.086-.045a6 6 0 0 1-.408-.19c-.204-.103-.507-.248-.67-.328-.164-.079-.304-.155-.317-.175-.01-.018-.041-.025-.069-.01q-.5-.05-.042c0-.031-.018-.045-.035-.035-.2-.153-.034-.3-.107a13 13 0 0 0-.772-.358 3 3 0 0 1-.262-.118 12 12 0 0 0-.555-.245 14 14 0 0 1-.494-.213 6 6 0 0 0-.579-.238c-.14-.049-.279-.124-.31-.162-.034-.042-.06-.056-.068-.028-.1-.177 0-.561-.1a6 6 0 0 0-.647-.138.5.5 0 0 1-.194-.052c-.051-.027-.116-.041-.143-.027-.96-.358-.024-.358-.083 0-.041-.02-.048-.092-.028-.129-.357-1.5.004-.718-.024-.963-.02-.963"/></g></svg>