<svg xmlns="http://www.w3.org/2000/svg" version="1.0" viewBox="0 0 588 234"><path d="M464.2 3.2c-.7.7-2.4 1.3-4 1.4-1.5.1-3.7.2-5 .3-1.6.1-2.6 1-3.3 3-.6 1.6-1.7 3.2-2.5 3.5s-1.4 1.4-1.4 2.5-.8 2.5-1.9 3c-1.3.7-1.7 1.8-1.3 3.6.3 1.8-.2 3.3-1.6 4.8-1.5 1.6-1.8 2.7-1.2 3.7.5.8 1 2.9 1 4.5 0 1.7.5 3.6 1.1 4.2 1.6 1.6 2.1 8.6.6 7.9-.7-.2-4.3-1.4-8.2-2.6-3.8-1.2-13.1-4.8-20.5-8-19.7-8.4-27.1-10.4-46-11.9-5.8-.5-13.5-1.4-17.1-2.1-7.9-1.3-48-.7-58.4.9-3.8.6-10.8 1.5-15.5 2s-11.6 1.6-15.5 2.5c-3.8.9-11.9 2.8-18 4.2-11.8 2.8-34.8 9.6-40.5 12.1-8.7 3.7-12.9 5.9-18.2 9.5-3.1 2.1-6 3.8-6.4 3.8-.5 0-1.9 1.1-3.3 2.4-6.5 6-40 23.2-56.2 28.7-3.5 1.2-8 3-9.9 4s-7.8 3.3-13 5c-8.8 3.1-10.7 3.3-25.2 3.7-23.6.6-35.2-2-58-13.3-16.2-8-17.3-7.5-7.1 3.1 8 8.3 20.1 18 29.3 23.5 9.3 5.5 38.2 15.6 48.3 16.9 13.1 1.6 28.1 1.2 37.7-.9 4.7-1.1 11.9-2.7 16-3.5s11.8-2.5 17-3.7c12.9-3.1 35.3-3.3 45-.5 11.1 3.3 19 8.3 27.4 17.4 3.5 3.8 8.4 6.2 12.7 6.2 3.1 0 4.6 1.5 3.1 3.3-.6.7-2.4 4.1-4.2 7.6-4.9 9.5-14.1 18.7-25.3 25-11.1 6.3-11.9 7.7-11.6 20.3.1 4.6-.2 9.9-.6 11.9-.4 2.3-.2 4.5.4 5.8.9 1.7.9 2.1-.2 2.1-1 0-1.3.8-1 2.5.7 3.3 1.8 4 8.3 5.8 3 .8 6.3 1.8 7.3 2.2s1.7.3 1.7-.4c0-.9.5-.9 2-.1 1.1.6 2.4.8 2.9.5s1.1.1 1.4.7c.3.9.7.8 1.2-.4.5-1.3 1.2-1.4 4.3-.6 2.6.7 3.7.7 4-.1.2-.6.8-.9 1.3-.5.5.3.9 0 .9-.5 0-.6.9-1.1 2-1.1 3.2 0 2.4-1.7-3.7-8.1-5.1-5.4-5.7-6.4-6-11.2-.5-6.9 2-11.1 8.5-13.9 7.1-3 22.5-10.8 24.2-12.2 1.8-1.5 11.8-7.6 12.5-7.6.3 0-.5 2.3-1.6 5.2-1.7 4.3-1.8 5.7-.9 7.8.7 1.4 2.3 5.9 3.5 10 1.3 4.1 3 9.1 3.9 11.1.8 2 1.2 4 .8 4.4-.4.5-.2.6.4.2.5-.3 1.8 1 2.9 2.8 2.5 4.9 5.1 6.2 13.9 7.4 4.3.6 8.8 1.4 10 1.7 1.4.3 2.9-.1 3.8-1 1.1-1.1 1.8-1.2 2.6-.4.7.7 1.4.9 1.8.6.9-.9-2.5-7.6-4.2-8.2-.8-.3-1.4-1-1.4-1.5 0-.6-1.1-2.6-2.4-4.6-3.3-4.7-6.6-14.9-6.6-20.1 0-2.6.8-5.3 2.3-7.5 1.2-1.9 2.7-4.5 3.3-5.9s2.7-4.4 4.5-6.6c1.9-2.3 5.1-6.9 7.1-10.3l3.7-6.1H342l-2.1 4.2c-4.8 9.5-4.9 10.6-2.4 23.5 1.3 6.6 2.6 16.5 3 22.1s1.1 10.4 1.5 10.7c.4.2.6 1.7.4 3.2-.3 3.4 1.1 5.3 4.3 5.3 1.4 0 2.1.4 1.8 1-.3.5.2 1.1 1.2 1.2 9.6.9 24.5 1 25.3.2.3-.3-.8-1.7-2.5-3-1.6-1.3-4.3-3.6-5.9-4.9l-2.9-2.5.6-17.8c.3-9.7 1.1-19.4 1.7-21.5 1.2-4 9.4-15.7 11.1-15.7.5 0 .9 1.6.9 3.7 0 7.4 10.6 19.5 24.3 27.5 11.1 6.5 18.5 12.6 19.9 16.4.7 1.9 1.5 3.4 1.8 3.4.4 0 1.3 1.8 2 4s1.9 4 2.6 4 1.9.9 2.7 2.1c.8 1.1 2.6 2.1 3.9 2.3 1.3.1 2.9.6 3.6 1s1.2.2 1.2-.3c0-.6 1.2-1.1 2.6-1.1s2.3.4 1.9 1c-1 1.7.7 1.1 2-.6 1.1-1.5 1.4-1.5 4 .2 2.7 1.7 2.8 1.7 4.1-.1.7-1 1.1-2.2.8-2.6-.3-.5.2-.9 1-.9s1.8.5 2.1 1c.3.6 1.1 1 1.7 1 .5 0 0-.9-1.3-1.9-1.3-1.1-2-2.3-1.6-2.7.4-.5 1.2-.2 1.7.6s1.2 1.1 1.6.7c.4-.3.2-1.3-.4-2-.7-.8-1-1.6-.7-1.9.3-.2-.5-1-1.8-1.7-3-1.7-11-12-16.3-21.2-2.9-4.8-8.5-11.7-15.9-19.4-6.3-6.5-11.5-12.3-11.5-12.8 0-1 4.2-6.8 9-12.3 1.9-2.2 5.6-7 8.2-10.7 2.5-3.6 5.8-7.3 7.3-8.3 5.2-3.4 15.4-5.5 26.2-5.5 10.9.1 14.2.6 28 4.6 17.7 5.1 21.5 6.8 31.2 13.7 10.7 7.7 21.4 11.8 30.4 11.8 7.4 0 12.8-4 7.3-5.4-1.3-.3-3.9-2.3-5.7-4.3l-3.3-3.8 3.1-.3c5.5-.5 11.1 1.6 12.8 4.8.8 1.6 2.1 2.7 2.8 2.5 1.9-.8 7.5-9.6 8.6-13.8 1.4-5.5.2-14.6-2.9-20.7l-1.7-3.5 4.3-9.2c2.4-5 4.6-11.5 5-14.4l.7-5.3-2.4 1.5c-8.4 5.3-14.8 8.8-17.6 9.4-2.9.6-3.5.2-7.1-4.4-2.6-3.2-4.2-6.5-4.6-9.1-.3-2.2-.9-5.8-1.2-8-.6-4.2-2.2-5.1-4.4-2.5-.7.8-2.2 1.5-3.4 1.5-2.8 0-12.2-12.6-17.1-22.9-2.3-4.7-5.8-9.6-9.8-13.8-6.6-7-18.2-16.3-20.2-16.3-.7 0-2.5-1-4.1-2.2-1.5-1.2-3.4-2.3-4.3-2.5-.8-.1-2.7-1.1-4.3-2.3-1.8-1.3-3.6-1.9-4.9-1.5-1.1.4-2.7.1-3.6-.6-.8-.8-2.9-1.9-4.7-2.5-1.7-.6-3.8-1.4-4.6-1.8-.9-.3-2.1-.1-2.8.6M238.5 224.9c1 1.7-1.2 2.1-2.5.6-1-1.2-1-1.5.3-1.5.9 0 1.8.4 2.2.9M214 228c0 .5-.5 1-1.1 1-.5 0-.7-.5-.4-1 .3-.6.8-1 1.1-1 .2 0 .4.4.4 1"/></svg>