<svg xmlns="http://www.w3.org/2000/svg" version="1" viewBox="0 0 472 394"><path d="M50 7.4c-1.9 1.4-6.3 3.9-9.6 5.5-5.9 2.8-6.2 3.1-7.3 7.8-.7 2.7-1.2 6.7-1.2 8.9.1 2.1-.2 5.9-.5 8.3l-.6 4.3L33 40c2.1-2.1 2.4-2.2 3.5-.6 1 1.4 1 2.6-.3 6.5-1.7 5.6-1.1 9.1 1.3 7.1 1-.9 1.5-.9 1.5-.1 0 .6.7 1.1 1.5 1.1 1.2 0 1.3.4.5 1.9-.5 1.1-1 3.5-1 5.3l.1 3.3 2.1-2.8c1.6-2.2 2.3-2.5 2.9-1.5s1.1.9 2.2-.6c1.3-1.8 1.4-1.6 1.4 2.3 0 4.1 1.2 6.7 2 4.5.2-.6 1-2 1.8-3 1.4-1.8 1.4-1.8 1.5.8 0 3.7 1.4 3.5 3-.2 2-4.8 2.7-4.3 2.2 1.7-.4 5.3-.4 5.5 1.7 4.8 1.7-.5 2.1-.2 2.1 1.5 0 1.2.4 1.9.9 1.6s1.1.7 1.4 2.2c.4 2 2 3.7 5.1 5.7 2.5 1.6 4.6 3.2 4.6 3.6s-3.1 1.7-7 3c-6.7 2.1-17.8 9.8-16.3 11.3 1 1-4.6 5.6-6.1 5-.8-.3-1.7-.1-2 .5-.4.6-1.3.8-2.1.5-.7-.3-1.8.4-2.5 1.6-.6 1.2-1.4 1.9-1.7 1.6-.4-.3-1.4.1-2.3.9-1.5 1.4-1.8 1.4-3 0-1.6-1.9-3-1.9-3 0 0 .8-.9 1.9-2 2.5-1.7.9-2.2.7-3.2-1.5-1.3-2.9-2.8-3.3-2.8-.6 0 2.6-4.8 3.5-6.2 1.1-.7-1-1.8-1.6-2.5-1.3s-1.3 0-1.3-.6-.4-1.1-1-1.1c-.5 0-1 1.8-1 4 0 3-.4 4-1.6 4-1.4 0-1.6.8-1.1 5.2 1 9.7 2.7 12.9 7.9 15.5 2.5 1.3 7.6 3.1 11.2 4 6.2 1.7 7.5 1.6 26.3-.1 10.9-1 23.1-1.9 27.2-2l7.4-.1 3.3 7.9c3.9 9.3 4.6 10.1 14.6 17.7 4.2 3.3 8 6.4 8.3 7 .4.5 0 1.8-1 2.9-1.1 1.3-1.7 4-1.9 9.6-.1 4.4-.8 8.9-1.5 10.2s-1 3-.7 3.8c.8 2-.2 1.8-5.4-1.2-3.8-2.2-5.3-2.5-9.8-2-6.9.8-12.8 3.3-15.2 6.4-2.7 3.3-2.7 6.3 0 3.1l1.9-2.4.1 2.4c0 2.2.1 2.3 1.3.8 1.9-2.5 8.1-4.7 12.6-4.3 3 .2 5.2 1.4 8.7 4.5 6.1 5.4 9.4 5.4 10.7.1.4-1.4 2.1-4.2 3.8-6.3l3.1-3.8 1.6 2.3c.8 1.3 3.3 4.1 5.4 6.4l3.9 4.1-6 2.3c-6.7 2.5-13.4 7.7-15.7 12.2-1.8 3.6-1.1 4.8 1.4 2.5 2.8-2.6 3.1-2.1 1.4 2.9-1.2 3.5-1.2 4.8-.3 5.7.8.8 1.1.8.9.1-.3-1 2-4.5 7-10.5 3.4-4.2 12.6-8.8 18.1-9.1 4.4-.3 5.1 0 10 4.4l5.2 4.7-1.6 14.3c-2.9 24.6-2.1 38.7 2.6 48 2.4 4.7 5.2 7.4 10.9 10.3 6.1 3.1 25 21.1 25 23.7 0 2.4-10.8 14.9-16.4 19-2.2 1.5-7.3 3.9-11.5 5.2-4.2 1.4-9.2 3.1-11.1 3.9-2.8 1.2-4.5 1.3-8.3.4-4.2-.9-5.3-.8-9.7 1.3-2.8 1.3-5 2.9-5 3.6 0 .6-2.1 1.7-4.7 2.3-5.6 1.5-11.3 6.7-11.3 10.5 0 2.8.9 3.3 2.9 1.3 1-1 1.1-.7.6 1.5-.4 1.5-.4 3.5-.1 4.6.6 1.9.8 1.8 3.6-.9 3.2-3.3 5.2-3.5 10.5-1.4 3.9 1.7 6.5 1.3 9-1.2 2-2 3-1.1 1.6 1.5-1.3 2.4-1.5 8.2-.3 8.2.5 0 1.7-.9 2.8-2.1 3-3.3 5-4 7.7-2.8 2 .9 4.8.3 16.8-3.6 11.2-3.7 16.8-4.9 25.4-5.7 6.1-.6 12.2-1.6 13.6-2.3 3.1-1.7 4.8-6.9 4.2-12.8-.7-6.3 1.2-16.3 4.8-24.8 3.7-8.6 4-13 1.3-16.3-1-1.3-3.2-4-4.7-6-2.2-2.6-3.1-5.2-3.7-9.9-.8-6.6-4.6-15.5-8.2-19.3-1.1-1.3-3.8-2.5-6.4-2.9-5.4-.8-6.4-2.2-3.4-4.7 2.1-1.7 2.5-1.7 4-.3 2.6 2.3 11.5 1.9 17.5-.8 7.3-3.4 9.9-3.9 17.9-3.1 7 .7 7.2.8 11.6 5.8 8.7 10.1 24.6 25.2 27.5 26.3 1.7.7 4.9 1.7 7.2 2.3 5.4 1.4 12.3 6.6 14.6 11 3 5.7 1.9 15.1-3 25.2-6.6 13.7-11.8 19.9-21 24.8-4.3 2.4-8.4 4.8-9.2 5.4-.7.6-4 1.1-7.3 1.1-4.8 0-6.2.4-7.6 2.1-.9 1.2-3 2.4-4.5 2.8-4.4 1-9.7 6.5-10.4 10.9l-.6 3.7 5.7-2.6c3-1.4 6.8-2.4 8.3-2.2 2.5.3 2.8.6 2.5 3.8-.3 4 .5 8 1.6 8 .4 0 1.2-1.3 1.8-2.9 1.2-3 4.6-4.3 8-3 3.5 1.4 9.1 1 10.5-.8 1.2-1.4 1.5-1.1 1.9 3.2.6 5.8 1.9 6.5 4.3 2.4 1.6-2.8 2-3 5.5-2.5 4.5.8 11.3-1.1 16.6-4.7q3.9-2.7 7.8-2.7c7.9 0 13.3-9.1 16.5-27.8 1.3-7.9 1.4-11 .4-18.8-1.6-13.1-1.4-16.8 1-21.4 2.8-5.4 2-9-3.6-17-2.5-3.5-4.5-7.4-4.5-8.7 0-7-5.3-12.7-16.7-17.9-4-1.8-7.3-3.7-7.3-4.3 0-.5 3.5-1.2 7.8-1.6 4.2-.4 12-1.3 17.2-2.1 35.6-5.2 65.7-3.8 93.9 4.6 14.3 4.3 36.5 13.1 50.4 20.1 7.2 3.6 11.7 5.4 11.7 4.6 0-2.4-17.3-18.2-25.3-23.1-15.6-9.7-53.9-26.1-93.6-40.1-39.9-14.1-43.4-16.1-62.4-37.7-4.4-5.1-10.6-10.4-18.5-15.9-8.5-6-16-12.6-27.2-24-17-17.1-20.3-19.3-36-24.4-7.6-2.5-9.9-2.7-22-2.7l-13.5.1-9-10.1c-12-13.5-12.1-13.7-9.4-18.9 1.6-3.2 1.9-5.2 1.5-8.8-.4-2.5-.7-5.7-.7-7.1-.2-6-1.1-9-3.9-12.5-1.7-2.1-3-5-3-6.4 0-3.5-1.7-9.3-3.3-11.6-.9-1.2-2.6-1.8-4.7-1.7-8 .2-24.9-7.9-34.2-16.4C93.7 20 80.2 10.1 75 7.7c-3-1.4-7.3-2.2-13-2.5-7.9-.4-8.7-.2-12 2.2"/></svg>