<svg xmlns="http://www.w3.org/2000/svg" version="1.0" viewBox="0 0 1044 479"><path d="M44 1.6c-1.4.2-6.1 1.5-10.5 2.9-4.4 1.3-9.8 2.7-11.9 3-5.2.9-9.7 5.4-12.4 12.8-1.2 3.1-3.3 7.9-4.7 10.6C1.4 37.1.4 43 2 45.9c1.4 2.6 6.7 6.1 9.4 6.1 1.1 0 3.4-1.1 5.3-2.6 4.5-3.4 8.5-5 18.9-7.3 16.6-3.7 23.5-4.2 32.6-2.6 19.1 3.3 38.4 12.5 66.3 31.4 29.4 19.9 59.5 47.6 91.5 84.4 8.5 9.8 43.3 44 73.4 72.3 15.5 14.5 34.8 35.1 43.4 46.3C351.3 285 355.6 296 357 311c1.6 16.5 6.8 28 16.2 35.5 2.7 2.2 5.6 5.2 6.3 6.6 1.3 2.4 5.1 26 6.2 38.1.4 4.1-.2 8.3-2 15.5-1.4 5.4-2.8 11.7-3.1 14-.8 6.1-3.3 16.3-5 20.3-.8 1.9-1.9 6.7-2.4 10.6-1 7.1-4.7 17.4-6.3 17.4-.5 0-.9 1.5-.9 3.4 0 5.3 2.9 6.6 15 6.6h10v-3.9c0-6.7 2.7-18.6 5.8-25.2 1.6-3.5 4.9-11.7 7.3-18.1 2.4-6.5 4.7-11.4 5-11 .4.4 1.9 4.7 3.3 9.7 1.5 4.9 3.6 11.9 4.8 15.5 2.2 6.7 3 19.6 1.5 25.2l-.7 2.8h10.2c13.7-.1 14.5-.6 12.4-9-.9-3.4-1.6-10.1-1.6-14.9 0-5.4-1.1-14.9-3-25.1-1.7-9.1-3.3-19.4-3.7-23-.3-3.6-1.4-8.5-2.6-11-6.5-14.4-7.7-17.3-7.7-18 0-.5 5.1 1.6 11.4 4.5 12.5 6 25.3 10.6 36.7 13.1 9.9 2.3 31.9 2.3 41.2 0 3.8-.9 7-1.6 7.1-1.6.2 0 .6 4.8 1 10.7.8 12.3 2.6 22.2 5.5 31.8 2.5 8 2.8 20.9.7 26-1.7 3.9-4.8 6.2-9.7 7.1-6.7 1.2-11.9 4.3-13.5 7.9-.8 1.9-1.4 3.9-1.4 4.5s7.2 1 20.9 1h20.9l2.1-3.4c1.2-1.8 2.1-4.7 2.1-6.5 0-1.7.3-3.1.8-3.1.4 0 .6-5.1.4-11.2-.2-9 .2-13.9 2.2-24.1 1.5-7.1 2.6-14.2 2.6-15.8s.3-2.9.7-2.9c.3 0 3.1 2.4 6.2 5.3s8.5 6.9 12.1 8.8 9.5 6.3 13.2 9.7c8.2 7.7 9.1 10.6 5.9 18.8-2 5.4-2.7 12.6-1.5 15.8.9 2.4 5.4 2.1 5.4-.4 0-1.3 1.4-2.7 4.2-4.1 4.8-2.5 14.4-11.2 16.3-14.9 1.3-2.5 1.8-5.6 1.6-9.7-.1-2.8-5.3-8.9-12.9-15.2-6.5-5.4-9.8-9.8-15.4-20.1-3.9-7.4-6.7-11.9-8.5-13.8-2.3-2.4-1-16.8 1.6-18.2.9-.4 7.2-1.4 13.9-2.1 18.4-1.8 52.4.8 90.1 7 37 6.1 76.2 7.8 107.1 4.7 27.1-2.8 47.1-3.8 61-3.3 20.2.9 26.2 2.1 70.5 14.7 30.6 8.7 35.3 9.4 55.7 8.7 22.2-.7 32.9-4.1 46.3-14.7 2.8-2.1 7.8-5.8 11.2-8.1 3.4-2.4 6.1-4.4 6-4.6-.9-.8-8.3 2.3-13.8 5.9-7.5 4.8-16 8.8-24.4 11.4-4.9 1.5-9.2 1.9-24 1.8-16.1 0-19.1-.3-28.1-2.6-12.4-3.2-20.8-6.2-33.9-12.1-20.8-9.3-45-17.2-62-20.2-5.5-1-10.4-2.1-11-2.4-.5-.4-3.2-.6-6-.5-2.7.2-6.7 0-8.8-.3l-3.9-.5 2.9-3.1c2.3-2.4 2.4-2.9.8-2.3-3.5 1.4-11 3.6-11.9 3.6-.5 0-.1-.9.9-2q4.35-4.8-5.1 0c-4.5 2.3-7.3 3-11.6 3-3.2 0-5.8-.3-5.8-.8 0-.4 1.8-1.8 4-3.2s4-2.8 4-3.2c0-.6-1.6-.2-14.5 3.6-6 1.8-7 1.2-3-1.9 1.6-1.3 2.7-2.6 2.5-2.9-.3-.2-4.6 1.1-9.5 3-5 1.8-10.7 3.4-12.7 3.4-3.5 0-17.8-2.6-18.6-3.4-.2-.2 3.5-2.7 8.2-5.5 8.5-5.2 11.7-7.9 8-6.8-1.1.3-4.8 1.3-8.4 2.2s-7.3 1.8-8.3 2.1c-1.6.5-1.7.3-.8-1.5l1.2-2.1-5 2c-2.8 1-6.7 2.6-8.7 3.5-2 .8-4.7 1.5-5.9 1.5-2.9 0-15.8-4.3-26.2-8.7l-8.3-3.5 5.8-3.8c5.8-3.8 9.9-7.6 9-8.5-.2-.3-3.6.4-7.4 1.5s-7 2-7.2 2 .6-1.2 1.8-2.7 1.7-2.9 1.2-3.1c-.5-.1-4.6 1.3-9 3.3-4.4 1.9-8.4 3.5-9 3.5-1.6 0-28.2-12.9-28.2-13.7 0-.5 2.3-2.1 5-3.6 4.6-2.6 7.1-5.7 3.4-4.3-.9.3-4 .9-7 1.2-4.8.6-5.4.5-4.8-1 .8-2 0-2-6-.2-4.5 1.4-5 1.3-10.4-1.1-3.1-1.4-7.3-3.1-9.2-3.8s-5.3-2.1-7.4-3l-4-1.7 2.5-1.9 2.4-1.9h-6.7c-3.9 0-6.8-.4-6.8-1s-1.3-1-2.8-1c-2.6 0-23.7-7.7-27.2-9.9-1.2-.9-1.2-1.2.3-2.9.9-1 1.7-2 1.7-2.3 0-.2-3-.3-6.7-.1-6 .3-7.9-.2-16.3-3.6-6.9-2.8-9.5-4.4-9.4-5.5.1-1.3-.7-1.7-3.8-1.7-4.4 0-10.1-2.3-34.8-14.2-32-15.3-46.6-22.6-57.5-28.9-6-3.4-13.5-7.6-16.5-9.2s-10-6-15.5-9.6-10.4-6.8-11-7c-.5-.2-5.2-3.3-10.4-6.8-5.1-3.6-12.3-8.3-16-10.5-3.6-2.2-8.4-5.3-10.6-6.9-8.5-6.2-19.1-12.9-20.2-12.9-.7 0-1.3-.4-1.3-.8 0-.5-6.6-5.3-14.7-10.7-16-10.8-40.7-28.1-46.3-32.6-22-17.7-61.5-47.5-75.4-56.8-24-16.2-48.3-29.8-63.1-35.6-3.8-1.5-8.3-3.3-10-4-8.6-3.8-29.7-9.6-44-12.1C84.7 2 48.9.7 44 1.6"/></svg>