<svg viewBox="0 0 37 26" xmlns="http://www.w3.org/2000/svg"><defs><clipPath id="a"><path d="M441 366h37v26h-37z"/></clipPath></defs><g clip-path="url(#a)" transform="translate(-441 -366)"><path fill-rule="evenodd" d="M441 380.202c0-.027.127.01.286.092.072.035.145.055.162.045q.032-.014.034.013c0 .02.031.038.066.038.038 0 .072.017.08.034.006.02.05.041.102.048.049.004.11.03.138.058s.228.134.445.236c.213.103.413.209.444.232.028.024.176.127.331.226.438.284.49.325.875.704.38.373.441.448.603.735.2.36.266.588.283 1.009.02.458-.045.762-.255 1.186-.12.246-.672.968-.738.968-.017 0-.03.023-.03.05s-.01.052-.028.052a.8.8 0 0 0-.162.12 1 1 0 0 1-.159.12c-.013 0-.03.03-.04.068a.095.095 0 0 1-.087.068.15.15 0 0 0-.107.048 2 2 0 0 1-.282.191c-.131.079-.238.161-.238.182s-.01.027-.02.013c-.025-.024-.635.277-.635.315 0 .013-.048.027-.107.027-.062 0-.127.024-.148.055a.15.15 0 0 1-.11.048c-.038-.004-.062.01-.055.037.003.031-.017.038-.08.02q-.084-.019-.086.018c0 .024-.034.03-.093.017-.127-.03-.13-.034-.065-.103.034-.03.107-.16.162-.283l.13-.277c.077-.14.245-1.074.252-1.371.018-.954-.017-1.955-.069-1.973-.017-.003-.024-.075-.017-.153.017-.164-.151-1.146-.282-1.62-.104-.384-.304-.92-.417-1.125a1 1 0 0 1-.083-.168m3.689-6.013c.026.012.066.058.108.133.034.065.13.24.217.39.51.91.92 1.894 1.047 2.512a1.3 1.3 0 0 0 .07.257c.013.017.027.226.03.461.007.469-.038.742-.172 1.016-.104.208-.617.728-.72.728q-.033.002-.035.034c0 .017-.024.024-.051.014-.028-.014-.052-.007-.052.01s-.066.048-.145.068c-.083.02-.193.058-.251.082a1 1 0 0 1-.204.055c-.058.007-.11.024-.12.038s-.09.027-.173.03c-.082 0-.158.014-.172.031-.048.072-2.164.069-2.215-.003-.014-.017-.142-.03-.283-.03-.145 0-.262-.015-.262-.028 0-.017-.062-.028-.138-.028s-.138-.01-.138-.02c0-.028.094-.116.128-.116.031 0 .276-.168.503-.346.369-.29 1.334-1.299 1.334-1.398 0-.017.013-.034.027-.034.017 0 .09-.086.165-.191a3 3 0 0 1 .176-.233c.076-.085.527-.817.527-.861 0-.024.014-.048.031-.055.031-.01.317-.598.366-.745a.5.5 0 0 1 .051-.12c.038-.055.2-.588.259-.872.034-.164.048-.321.034-.437-.017-.127-.01-.178.017-.178q.042 0 .021-.089c-.017-.063-.006-.086.02-.075m4.686-3.804c.039.05.092.146.15.278.204.461.476 1.377.476 1.603 0 .037.01.068.028.068.013 0 .024.236.024.527 0 .29-.01.52-.02.512-.015-.006-.032.052-.046.127-.038.24-.165.554-.3.752-.124.185-.42.475-.482.475-.017 0-.03.02-.03.041 0 .024-.035.048-.077.052-.11.006-.489.147-.503.184-.007.017-.024.024-.041.014a4 4 0 0 0-.524-.034c-.73-.028-.748-.028-.73-.058.01-.014-.004-.028-.028-.028a3 3 0 0 1-.32-.085c-.152-.048-.293-.079-.32-.069a.05.05 0 0 1-.063-.03c-.01-.024-.107-.076-.213-.11a.7.7 0 0 1-.218-.096c-.013-.017-.04-.017-.062-.006-.02.013-.037.01-.037-.01 0-.038-.131-.09-.197-.08-.024.008-.045-.006-.045-.027a.04.04 0 0 0-.034-.034c-.02 0-.072-.03-.114-.068-.041-.038-.093-.062-.114-.055-.024.01-.051-.007-.062-.034-.01-.03-.034-.041-.055-.03-.017.01-.034.01-.034-.008 0-.034-.197-.147-.262-.147-.028 0-.048-.017-.048-.037s-.024-.031-.052-.017c-.03.01-.052 0-.052-.031 0-.024-.027-.055-.065-.068a.3.3 0 0 1-.12-.082c-.056-.062-.052-.065.13-.086.107-.014.2-.041.21-.058.014-.017.052-.03.09-.03.034 0 .066-.018.066-.038 0-.021.024-.031.051-.018.055.02.224-.04.262-.092.01-.017.031-.027.045-.024.045.014.33-.11.33-.14 0-.017.021-.03.049-.03.065 0 .455-.206.537-.281.038-.034.087-.062.11-.062.025 0 .087-.037.139-.085.051-.048.117-.085.148-.085a.08.08 0 0 0 .072-.052c.014-.027.041-.051.066-.051.1 0 .844-.609 1.295-1.056.448-.448.927-1.064.927-1.194 0-.058.024-.056.063-.007m22.798-.751c.017 0 .031.02.031.048 0 .027.062.184.141.352.08.164.155.331.173.369s.044.092.062.12c.017.027.069.126.113.222.228.472.893 1.593.962 1.617.017.007.03.027.03.04 0 .052.21.343.245.343.017 0 .031.017.031.04 0 .07.359.51.758.927.259.274.755.68.8.653.014-.01.027.003.027.027 0 .045.328.25.397.25.02 0 .051.02.069.044.02.024.148.086.289.14l.255.1-.141.072c-.08.04-.145.088-.145.109 0 .02-.014.024-.034.014-.018-.01-.138.024-.266.078-.13.055-.29.12-.355.144a1 1 0 0 0-.155.072.8.8 0 0 1-.2.047c-.09.014-.19.048-.213.076a.12.12 0 0 1-.12.027c-.042-.014-.09-.01-.115.007a.8.8 0 0 1-.248.04c-.113.004-.21.025-.217.042-.017.044-.344.038-.358-.007-.007-.017-.093-.038-.193-.038-.097-.003-.18-.017-.18-.034 0-.013-.03-.027-.065-.027-.09 0-.534-.253-.682-.386-.376-.335-.665-1.022-.806-1.904-.062-.39-.073-.602-.073-1.385 0-.51.018-1.063.035-1.23.027-.226.024-.315-.004-.332q-.045-.029 0-.028c.038 0 .059-.082.097-.454.014-.106.038-.195.055-.195m-18.765-1.304c.01.014-.075.438-.144.694-.148.564-.42 1.06-.72 1.316a1.5 1.5 0 0 0-.183.175c-.007.017-.034.03-.062.03s-.048.014-.048.035c0 .017-.021.024-.042.017-.048-.017-.313.065-.29.089.008.007-.178.013-.413.013s-.427-.01-.427-.027c0-.014-.055-.024-.12-.024a.5.5 0 0 1-.183-.034c-.11-.062-.383-.137-.43-.116-.028.01-.06-.007-.073-.038-.01-.034-.041-.051-.072-.038-.028.01-.052.004-.052-.017 0-.02-.024-.03-.052-.017a.07.07 0 0 1-.076-.024.7.7 0 0 0-.19-.12c-.092-.04-.165-.088-.165-.109 0-.017.056-.04.121-.054.065-.01.12-.035.12-.055 0-.017.018-.02.039-.01.055.034.21-.014.182-.055q-.021-.04.055-.014.075.022.104-.017c.013-.024.093-.048.175-.051.083-.007.155-.028.162-.048s.045-.038.086-.038c.042 0 .118-.02.17-.048.048-.027.144-.064.213-.088.069-.02.124-.055.124-.072 0-.02.014-.027.034-.014.018.01.059.004.094-.014.034-.017.217-.106.406-.194.19-.09.407-.205.483-.253.075-.052.161-.1.196-.113.072-.024.579-.37.8-.544.092-.071.171-.126.178-.123m5.957-.93c.02.012.046.089.088.238.289 1.036.668 1.794 1.123 2.252.186.185.44.366.475.336.01-.014.042.003.066.037.03.041.09.058.2.058.086 0 .158.014.158.031 0 .051.624 0 .658-.051.014-.024.038-.034.052-.02.028.027.496-.213.496-.254 0-.017.024-.03.052-.03s.1-.042.162-.096c.151-.127.64-.612.775-.77.217-.246.544-.762.786-1.237.134-.263.258-.475.279-.472.045.01.058.144.02.192-.02.027-.02.174-.003.4.017.198.031.403.031.458.003.126.086.742.152 1.097.1.533.355 1.289.561 1.655.142.253.324.512.39.56.03.02.062.055.062.069.007.061.42.393.613.492.569.294 1.296.29 2.064-.01a4 4 0 0 0 .469-.212l.344-.198c.603-.35 1.44-1.088 2.199-1.939.217-.24.396-.43.403-.424.01.007 0 .12-.018.25q-.036.232 0 .273.037.041-.01.055c-.03.01-.045.1-.045.287 0 .147-.013.28-.03.29-.042.031-.046 2.113 0 2.144.017.014.03.116.034.23.003.427.203 1.124.451 1.596.176.335.565.724.875.875.138.065.255.102.29.089.034-.014.069-.004.086.02s.083.048.152.048c.065.004.13.017.144.03.035.032.634.032.634-.003 0-.013.08-.023.18-.027.096 0 .182-.017.189-.037.007-.018.052-.028.096-.018q.086.014.107-.037c.014-.041.048-.052.12-.034.07.013.1.003.1-.024 0-.028.028-.035.073-.024q.068.016.09-.034c.01-.028.045-.045.086-.035.083.024.493-.14 1.089-.43.23-.11.293-.1.258.058-.041.17-.196.718-.31 1.08-.065.215-.141.462-.165.547a25 25 0 0 1-.431 1.214c-.017.037-.114.276-.217.53a34 34 0 0 1-.303.717c-.197.435-.807 1.614-.893 1.727-.014.017-.069.11-.12.205-.11.198-.135.243-.59.92-.423.628-.537.79-.885 1.216a4 4 0 0 0-.12.154c-.31.424-1.575 1.737-2.127 2.209-.072.065-.172.15-.213.191a.3.3 0 0 1-.11.079.6.6 0 0 0-.149.126.8.8 0 0 1-.141.137c-.048.01-.679.502-.679.53 0 .017-.02.027-.045.027a.4.4 0 0 0-.151.075c-.055.045-.145.11-.2.147a3 3 0 0 0-.138.11c-.028.024-.062.044-.083.044-.02 0-.055.031-.079.069-.024.037-.072.068-.107.068a.09.09 0 0 0-.079.051c-.014.028-.041.051-.065.051a.16.16 0 0 0-.094.045 2 2 0 0 1-.21.126c-.093.048-.193.11-.224.137a1 1 0 0 1-.179.11 13 13 0 0 0-.327.18 2 2 0 0 1-.266.144c-.034.01-.061.031-.061.048s-.025.03-.052.03c-.028 0-.052.018-.052.042 0 .02-.007.03-.02.02-.025-.027-.428.171-.428.212 0 .017-.024.024-.051.014-.028-.014-.052-.003-.052.017s-.024.038-.052.038-.052.013-.052.034c0 .017-.024.024-.051.014-.028-.014-.059.003-.073.03a.053.053 0 0 1-.068.035c-.028-.01-.049 0-.049.02s-.024.027-.051.017c-.028-.013-.052-.003-.052.017s-.024.038-.052.038a.3.3 0 0 0-.113.034c-.17.096-1.155.465-1.506.568-.114.034-.224.078-.245.102s-.065.038-.103.027c-.048-.013-.083.004-.107.062-.024.044-.041.058-.041.034-.004-.044-.107-.058-.107-.01 0 .014-.038.02-.086.01q-.087-.015-.107.041c-.014.038-.045.048-.086.038-.073-.024-.341.04-.341.082 0 .014-.045.02-.1.01-.055-.007-.11.004-.121.024-.014.02-.069.038-.127.038-.056 0-.1.013-.1.03s-.028.024-.066.014a.16.16 0 0 0-.117.038c-.028.03-.08.044-.107.034a.2.2 0 0 0-.114.003.6.6 0 0 1-.158.034.3.3 0 0 0-.138.045c-.024.02-.08.03-.12.017q-.075-.016-.097.034c-.014.041-.048.051-.12.034-.056-.01-.121 0-.152.024-.028.02-.066.031-.083.02-.045-.027-.213.014-.193.045.007.014-.03.017-.086.01a.4.4 0 0 0-.162.01.6.6 0 0 1-.13.035c-.232.03-.483.089-.494.113-.003.013-.062.02-.127.013-.069-.006-.141 0-.166.018-.02.02-.103.037-.179.037-.075.004-.14.017-.148.034-.003.014-.062.02-.127.014a.3.3 0 0 0-.2.038.3.3 0 0 1-.172.034.3.3 0 0 0-.152.007 1 1 0 0 1-.23.037c-.094.004-.18.02-.19.038-.01.013-.097.03-.193.03-.317.01-.62.052-.631.086-.007.017-.062.024-.12.014a3 3 0 0 0-.49.034c-.207.03-.503.061-.654.072-.149.007-.283.027-.293.04-.031.049-.138.076-.138.035 0-.055-.5-.017-.572.044-.048.038-.062.038-.076.004-.01-.034-.09-.038-.327-.02a3 3 0 0 0-.369.037c-.224.075-4.373.079-4.5.003-.052-.034-.545-.044-.593-.013-.024.013-.069.006-.1-.017-.034-.031-.151-.048-.317-.048-.144 0-.272-.014-.282-.028-.01-.013-.117-.03-.241-.034a1 1 0 0 1-.255-.03c-.059-.035-.273-.045-.324-.014q-.043.024-.076-.017c-.017-.031-.086-.048-.186-.045-.086 0-.155-.007-.155-.02 0-.028-.3-.079-.5-.082-.076-.004-.158-.024-.186-.048-.03-.031-.086-.041-.148-.028-.052.01-.097.007-.097-.01 0-.03-.186-.068-.396-.082a.3.3 0 0 1-.12-.027c-.031-.041-.552-.171-.59-.147-.02.01-.048.007-.062-.01-.027-.045-.72-.264-.82-.26-.045.003-.079-.01-.079-.028 0-.017-.02-.03-.045-.03a.8.8 0 0 1-.182-.065 1.5 1.5 0 0 0-.242-.093.7.7 0 0 1-.168-.068c-.038-.02-.207-.1-.38-.171a7 7 0 0 1-.544-.26c-.127-.075-.248-.123-.262-.113-.017.007-.038-.003-.048-.027a.6.6 0 0 0-.183-.13 1 1 0 0 1-.186-.102 4 4 0 0 0-.24-.168 8 8 0 0 1-1.245-1.05l-.127-.136.203-.041c.114-.02.203-.055.203-.069 0-.017.031-.023.07-.013s.075-.004.089-.038c.01-.03.038-.044.055-.034.017.014.069.007.107-.014a2 2 0 0 1 .179-.068c.059-.017.1-.051.093-.075s.01-.034.041-.024c.07.027.331-.086.331-.14 0-.024.014-.035.035-.024.044.027.31-.11.334-.175.01-.027.038-.044.062-.034.024.007.072-.01.11-.04.035-.032.097-.076.134-.1.035-.02.063-.055.059-.075-.007-.02.01-.028.038-.017s.069-.01.093-.045a.5.5 0 0 1 .148-.113c.117-.058.707-.625.89-.854a4 4 0 0 0 .523-.94c.103-.287.165-.636.12-.684-.04-.041-.04-.212 0-.236.031-.02.01-.297-.027-.328a.2.2 0 0 1-.028-.103c-.007-.143-.227-.653-.355-.834-.337-.465-1.185-1.25-1.354-1.25-.02 0-.062-.032-.086-.07-.024-.037-.062-.057-.093-.047-.03.014-.052 0-.052-.027 0-.028-.12-.11-.265-.185a3 3 0 0 1-.286-.154.7.7 0 0 0-.293-.133c-.027 0-.051-.017-.051-.038s-.018-.03-.042-.024c-.02.007-.069-.013-.107-.051-.034-.034-.086-.055-.113-.045a.06.06 0 0 1-.073-.023c-.034-.052-.268-.161-.344-.161-.048 0-.048-.007.01-.051.086-.065.152-.065.29.003.09.048.168.051.416.034q.307-.02.307.014c0 .02.203.034.586.034.324 0 .586-.014.586-.027 0-.017.11-.028.248-.028.162.004.251-.01.258-.037.01-.028.052-.034.114-.02.055.01.127.006.162-.008a.6.6 0 0 1 .145-.03c.048-.004.09-.024.1-.048.006-.024.048-.031.113-.017.062.01.1.003.1-.02 0-.021.031-.038.069-.038.09 0 .417-.158.606-.291.448-.321.69-.731.772-1.299.038-.274.045-.544.014-.574-.014-.01-.028-.12-.034-.236-.018-.376-.242-1.111-.538-1.771-.13-.294-.617-1.244-.686-1.337a.4.4 0 0 1-.065-.126c0-.02-.01-.041-.024-.048-.045-.017-.186-.3-.152-.3.042 0 .255.109.28.143.01.013.247.14.526.28.317.164.528.25.566.236.03-.014.048-.007.034.01-.028.045.203.13.255.096q.036-.02.02.01c-.027.041.07.09.118.058.017-.01.03 0 .03.02 0 .025.028.032.073.018s.086-.003.11.027c.056.065.459.171.559.147.048-.013.086-.003.093.02.01.025.103.042.244.045.124 0 .242.014.252.027.038.038.248.028.272-.01.01-.017.107-.03.21-.024.131.004.197-.007.217-.04.018-.025.049-.035.07-.025.051.035.382-.078.406-.133.007-.027.038-.037.062-.03.024.01.069-.018.1-.062.03-.041.055-.065.055-.051 0 .013.038 0 .086-.031s.086-.079.086-.103c0-.027.02-.048.045-.048.069 0 .286-.3.403-.56.162-.363.28-1.057.197-1.187-.028-.047-.031-.071 0-.102.02-.02.03-.1.02-.178-.076-.749-.182-1.172-.468-1.87a3 3 0 0 0-.131-.29c-.018-.017-.031-.062-.031-.1 0-.05.01-.058.038-.03.02.02.062.03.086.02.027-.01.048 0 .048.024s.024.034.052.02c.027-.01.051-.003.051.014 0 .062.748.363.83.335.028-.01.07.007.097.034a.17.17 0 0 0 .131.031c.045-.007.09 0 .104.017.01.02.1.028.217.014.127-.014.21-.01.224.014.027.048.19.044.19-.004q0-.042.05.004c.066.054.428-.031.683-.16.355-.185.686-.585.886-1.07.04-.103.09-.22.106-.257.045-.106.159-.558.204-.814.024-.126.055-.229.069-.229.013 0 .051.055.09.12.034.065.075.12.089.12.017 0 .027.016.027.037 0 .085.641.773.941 1.015.186.15.49.328.551.325.031-.003.059.01.059.027s.072.065.165.106c.09.038.197.086.238.106.038.017.09.02.11.01.021-.013.038-.006.038.01 0 .021.045.038.1.038.059 0 .114.018.128.038.013.024.082.03.172.02.083-.006.151-.003.151.014s.11.031.242.031c.134 0 .24-.014.24-.03 0-.021.056-.025.122-.014.072.01.14.003.172-.024a.34.34 0 0 1 .165-.052c.207-.013.593-.239.882-.523.149-.143.31-.318.359-.383.248-.335.579-1.159.682-1.688.02-.113.036-.167.057-.155m-.156-.185c.038.038-.196.927-.344 1.32-.09.229-.414.776-.507.854a6 6 0 0 0-.165.178c-.083.089-.148.154-.148.144s-.052.02-.11.065c-.176.13-.407.246-.587.293-.093.028-.165.059-.165.069 0 .014-.224.02-.496.02s-.49-.01-.479-.027c.014-.024-.062-.038-.169-.03-.034.003-.062-.008-.062-.025 0-.027-.186-.085-.265-.082-.024 0-.045-.01-.045-.027s-.031-.03-.069-.03-.069-.014-.069-.028c0-.017-.065-.058-.144-.096a.8.8 0 0 1-.193-.106c-.025-.024-.062-.044-.08-.044-.017 0-.062-.031-.103-.072-.038-.038-.093-.062-.12-.051-.028.01-.049.006-.049-.01 0-.018-.145-.175-.32-.35-.262-.266-.734-.864-.776-.987-.014-.034.117-.02.362.04.083.021.21.028.286.014.086-.013.138-.006.138.014s.265.034.74.034c.407 0 .742-.013.742-.027 0-.017.09-.02.203-.014.124.01.23-.003.282-.03a.6.6 0 0 1 .231-.035c.09.007.145-.007.145-.03 0-.024.041-.031.114-.017.086.017.134.006.172-.035.031-.03.076-.044.096-.034.049.03.486-.085.535-.143.02-.024.062-.038.09-.028.075.03.781-.27.933-.393.024-.02.12-.096.214-.168a1 1 0 0 1 .182-.126m5.65-.005c.006-.007.072.058.144.147.183.23.441.458.486.434.02-.013.045.004.052.038.024.079.279.263.327.236.017-.014.031 0 .031.027 0 .048.196.15.252.133.013-.003.024.01.024.031s.024.03.051.017a.07.07 0 0 1 .076.028c.031.054.33.205.469.239q.092.02.096-.02c0-.024.017-.01.038.027.042.089.18.157.255.126.031-.01.069 0 .086.028.028.04.035.04.062 0 .024-.038.035-.035.052.02.024.072.327.181.496.181.041 0 .076.014.076.031 0 .024.193.075.344.089a1 1 0 0 1 .149.044c.055.024.11.035.127.024.017-.01.038-.003.048.014.021.03.38.089.462.075a.14.14 0 0 1 .097.034c.027.024.103.031.186.02q.13-.014.148.021c.007.024.09.041.183.045a1 1 0 0 1 .22.027c.086.034.541.062 1.292.075l.7.014c.024 0-.776.903-.99 1.111-.134.13-.244.257-.244.28s-.02.045-.048.045c-.024 0-.066.024-.09.051-.069.082-.685.568-.999.79-1.092.762-2.157.964-2.943.55-.19-.096-.568-.434-.761-.673-.138-.168-.434-.81-.551-1.193-.128-.414-.293-1.176-.293-1.354 0-.058-.01-.116-.021-.127a1.3 1.3 0 0 1-.034-.287 1.6 1.6 0 0 0-.035-.29c-.02-.034-.041-1.087-.02-1.108m-.256-.21c.066-.007-.176.632-.406 1.074-.4.758-1.051 1.534-1.568 1.866-.197.127-.49.27-.552.27-.017 0-.034.014-.034.027 0 .017-.152.028-.334.028-.276-.004-.376-.02-.541-.09-.545-.225-1.04-.953-1.41-2.05-.158-.472-.316-1.057-.292-1.08a1 1 0 0 1 .22.085c.269.133.455.198.79.284.15.04.31.085.35.106a.4.4 0 0 0 .18.013c.058-.013.107-.007.114.017.006.017.106.041.217.045.113.007.234.02.265.034.059.024.482.01 1.023-.03.142-.011.27-.038.283-.059.014-.024.051-.03.082-.017.073.027.462-.061.759-.17.037-.014.09-.028.117-.035a.11.11 0 0 0 .072-.051c.014-.02.041-.031.062-.017.055.034.21-.052.234-.127.018-.048.028-.055.049-.024.02.034.055.028.162-.027a1 1 0 0 1 .158-.072"/></g></svg>