<svg viewBox="0 0 37 26" xmlns="http://www.w3.org/2000/svg"><g transform="translate(-441 -366)"><path fill-rule="evenodd" d="M441 380.2c0-.27.1.1.3.92.1.35.1.55.2.045q.032-.14.013c0 .2.38.1.38 0 .72.8.6.5.102.49.11.138.1s.228.1.445.2c.213.1.413.2.444.2.28.176.1.331.2.438.3.49.3.875.7.38.4.441.4.603.7.2.4.266.6.283 1.2.5-.45.8-.255 1.2-.12.2-.673-.739-.017 0-.3-.3s-.1.1-.28.1a.8.8 0 0 0-.162.1 1 1 0 0 1-.159.1c-.013 0-.3-.4.1a.95.1 0 0 1-.87.1.15.2 0 0 0-.107 2 2 0 0 1-.282.2c-.131.1-.238.2-.238.2s-.1-.2c-.025-.024-.635.3-.635.3 0 .013-.48-.107-.062 0-.127-.148.1a.15.2 0 0 1-.11c-.038-.004-.62-.55.3-.17-.8q-.084-.019-.86c0 .024-.34-.93-.127-.03-.13-.034-.065-.103-.3.1-.16.2-.283l.13-.277c.077-.14.2-1.1.252-1.4.018-.954-.017-2-.069-2-.017-.003-.024-.075-.017-.153-.164-.151-1.1-.282-1.6-.104-.384-.304-.92-.417-1.1a1 1 0 0 1-.083-.168m3.7-6c.26.66.1.108.1.34.1.13.2.217.4.51.9.92 1.9 1 2.5a1.3 1.3 0 0 0 .7.3c.13.27.2.3.5.7.5-.38.7-.172 1-.104.2-.617.7-.72.7q-.33-.35c0 .017-.24-.51-.028-.014-.052-.007-.52s-.66-.145.1c-.83-.193.1-.251.1a1 1 0 0 1-.204.1c-.58-.11-.12s-.9-.173c-.082 0-.158-.172-.48.1-2.2.069-2.2-.003-.014-.017-.142-.03-.283-.03-.145 0-.262-.015-.262-.028 0-.017-.062-.028-.138-.028s-.138-.01-.138-.02c0-.28.1-.116.1-.116 0 .276-.168.5-.346.4-.29 1.3-1.3 1.3-1.4 0-.17-.34-.34 0 .09-.86.2-.191a3 3 0 0 1 .176-.233c.076-.85.5-.817.5-.861 0-.24-.48-.55-.1.3-.598.4-.745a.5.5 0 0 1 .051-.12c.038-.55.2-.588.3-.872-.164-.321-.437-.017-.127-.01-.178-.178q.042 0 .021-.089c-.017-.063-.006-.86-.075m4.7-3.8c.39.92.1.15.3.204.5.476 1.4.476 1.6 0 .37.68.68 0 .24.2.24.5 0 .29-.1.5-.2.5-.015-.006-.32.1-.46.1-.38.2-.165.6-.3.8-.124.2-.42.5-.482.5-.017 0-.3-.3 0 .024-.35-.77.1-.11-.489.1-.503.2-.7-.24-.41a4 4 0 0 0-.524-.034c-.73-.028-.748-.028-.73-.58-.014-.004-.028-.028-.028a3 3 0 0 1-.32-.085c-.152-.048-.293-.079-.32-.069a.5 0 0 1-.063-.03c-.01-.024-.107-.076-.213-.11a.7.7 0 0 1-.218-.096c-.013-.017-.04-.017-.062-.006-.2-.37-.037-.01 0-.038-.131-.09-.197-.08-.24-.045-.006-.045-.027a.4 0 0 0-.034-.034c-.02 0-.072-.03-.114-.068-.041-.038-.093-.062-.114-.055-.24-.051-.007-.062-.034-.01-.03-.034-.041-.055-.03-.17-.34-.034-.008 0-.034-.197-.147-.262-.147-.028 0-.048-.017-.048-.037s-.024-.031-.052-.017c-.3-.052 0-.052-.031 0-.024-.027-.055-.065-.068a.3.3 0 0 1-.12-.082c-.056-.062-.052-.65.1-.86.1-.14.2-.41.2-.58-.17.1-.3.1-.3 0 .066-.18.1-.038 0-.21-.31.1-.18.1.2.2-.4.3-.92-.17-.27-.24.14.3-.11.3-.14 0-.17-.3-.3.1 0 .455-.206.5-.281-.34.1-.62.1-.62 0 .087-.37.1-.85.1-.48.1-.85.1-.085a.8.1 0 0 0 .072-.052c.014-.27-.51.1-.51.1 0 .844-.609 1.3-1.1.448-.448.9-1.1.927-1.2 0-.58-.56.1-.007m22.8-.751c.017 0 .31.31 0 .27.1.184.1.352.1.164.2.331.2.369s.44.1.62.1c.17.69.1.113.2.228.5.893 1.6.962 1.6.17.3.3 0 .52.2.343.2.343 0 .31.31 0 .7.4.51.8.927.3.274.8.68.8.653-.1.3.027 0 .45.3.25.4.25 0 .51.69.2.148.1.289.1l.255.1-.141.1c-.8-.145.1-.145.1 0 .02-.14-.34-.018-.01-.138-.266.1-.13.1-.29.1-.355.1a1 1 0 0 0-.155.1.8.8 0 0 1-.2c-.9-.19-.213.1a.12.1 0 0 1-.12c-.042-.014-.09-.01-.115a.8.8 0 0 1-.248c-.113-.21-.217-.17-.344-.358-.007-.007-.017-.093-.038-.193-.038-.097-.003-.18-.017-.18-.034 0-.013-.03-.027-.065-.027-.09 0-.534-.253-.682-.386-.376-.335-.665-1-.806-1.9-.062-.39-.073-.602-.073-1.4 0-.51-1.1.035-1.2.027-.226-.315-.004-.332q-.045-.029 0-.028c.038 0 .059-.82.1-.454-.106-.195.1-.195m-18.8-1.3c.1-.75.4-.144.7-.148.6-.42 1.1-.72 1.3a1.5 1.5 0 0 0-.183.2c-.7-.34-.62s-.48-.48c0 .017-.21-.42-.048-.017-.313.1-.29.1.8-.178-.413s-.427-.01-.427-.027c0-.014-.055-.024-.12-.024a.5.5 0 0 1-.183-.034c-.11-.062-.383-.137-.43-.116-.28-.06-.007-.073-.038-.01-.034-.041-.051-.072-.038-.28-.52-.052-.017 0-.02-.024-.03-.052-.017a.7.1 0 0 1-.076-.24.7.7 0 0 0-.19-.12c-.092-.04-.165-.088-.165-.109 0-.17.1-.4.1-.54.1-.1.1-.35.1-.055 0-.17-.2-.1.1.34.2-.14.2-.055q-.021-.4.1-.14.1.22.1-.017c.013-.24.1-.48.2-.51.1-.7.2-.28.2-.048s.045-.38.1-.038c.042 0 .118-.2.2-.48-.27.1-.64.2-.88.1-.2.1-.55.1-.072 0-.2-.27-.14.1.1.4.1-.14-.17.2-.106.4-.194.2-.9.4-.205.5-.253.1-.52.2-.1.2-.113.1-.24.6-.37.8-.544.1-.71.2-.126.2-.123m6-.93c.2.46.1.88.2.289 1.668 1.8 1.1 2.3.186.2.44.4.475.3.01-.14.3.1.37.41.1.58.2.58.1 0 .158.158 0 .51.6 0 .658-.51-.24-.34.1-.2.27.5-.213.5-.254 0-.17-.3.1-.03s.1-.42.2-.096c.151-.127.6-.612.8-.77.2-.246.5-.762.8-1.2.134-.263.3-.475.3-.472.1.1.144.192-.2-.2.2-.3.4.17.2.31.4.31.5.3.1.86.7.152 1.1.1.5.355 1.3.561 1.7.142.3.324.5.39.6.3.62.1.62.1.7.1.42.4.613.5.569.3 1.3.29 2.1-.01a4 4 0 0 0 .469-.212l.344-.198c.603-.35 1.4-1.1 2.2-1.9.217-.24.4-.43.4-.424.007 0 .12-.18.3q-.36.2 0 .273.041-.1.1c-.3-.45.1-.45.3 0 .147-.13.3-.3.3-.42-.046 2.1 0 2.1.17.3.1.34.2.3.4.203 1.1.451 1.6.176.3.565.7.875.9.138.1.255.1.29.1.034-.14.1-.4.1.02s.83.152c.65.13.144.35.634.634-.003 0-.13.1-.23.2-.27.1 0 .182-.17.2-.37-.18.1-.28.1-.018q.86.107-.037c.014-.41-.52.1-.34.1.13.1.3.1-.024 0-.28-.35.1-.024q.68.09-.034c.01-.28-.45.1-.35.1.24.5-.14 1.1-.43.2-.11.3-.1.3.058-.41.2-.196.7-.31 1.1-.65.2-.141.5-.165.5a25 25 0 0 1-.431 1.2c-.17-.114.3-.217.5a34 34 0 0 1-.303.7c-.197.4-.807 1.6-.893 1.7-.14-.69.1-.12.2-.11.2-.135.2-.59.9-.423.6-.537.8-.885 1.2a4 4 0 0 0-.12.2c-.31.4-1.6 1.7-2.1 2.2-.72.1-.172.2-.213.2a.3.3 0 0 1-.11.1.6.6 0 0 0-.149.1.8.8 0 0 1-.141.1c-.48-.679.5-.679.5 0 .017-.2-.45a.4.4 0 0 0-.151.1c-.55-.145.1-.2.1a3 3 0 0 0-.138.1c-.28-.62-.83-.02 0-.55-.79.1-.24-.72.1-.107.1a.9.1 0 0 0-.79.1c-.14-.41.1-.65.1a.16.2 0 0 0-.94 2 2 0 0 1-.21.1c-.93-.193.1-.224.1a1 1 0 0 1-.179.1 13 13 0 0 0-.327.2 2 2 0 0 1-.266.1c-.34-.61-.61s-.25-.52c-.028 0-.52-.52 0 .02-.7-.2-.025-.027-.428.2-.428.2 0 .017-.24-.51-.028-.014-.052-.003-.52s-.24-.52-.52-.52c0 .017-.24-.51-.028-.014-.59-.73a.53.1 0 0 1-.68c-.028-.01-.049 0-.49s-.24-.51c-.028-.013-.052-.003-.52s-.24-.52a.3.3 0 0 0-.113c-.17.1-1.2.465-1.5.568-.114-.224.1-.245.1s-.65-.103c-.048-.013-.83-.107.1-.24-.41.1-.41-.004-.044-.107-.058-.107-.01 0 .014-.38-.86q-.087-.015-.107c-.14-.45-.86-.073-.024-.341-.341.1 0 .014-.45-.1-.055-.007-.11-.121-.14-.69-.127-.056 0-.1-.1s-.28-.66a.16.2 0 0 0-.117c-.28-.8-.107a.2.2 0 0 0-.114.6.6 0 0 1-.158.3.3 0 0 0-.138c-.24-.8-.12q-.075-.016-.97c-.14-.48.1-.12-.056-.01-.121 0-.152-.28-.66-.83-.045-.027-.213-.193.7-.3-.86a.4.4 0 0 0-.162.6.6 0 0 1-.13c-.232-.483.1-.494.1-.3-.62-.127-.069-.006-.141 0-.166-.2-.103-.179-.75-.14-.148-.3-.62-.127a.3.3 0 0 0-.2.3.3 0 0 1-.172.3.3 0 0 0-.152 1 1 0 0 1-.23c-.94-.18-.19-.1-.97-.193-.317-.62.1-.631.1-.7-.62-.12a3 3 0 0 0-.49c-.207-.503.1-.654.1-.149-.283-.293-.31-.138.1-.138 0-.055-.5-.017-.572-.48-.62-.76-.01-.034-.09-.038-.327-.02a3 3 0 0 0-.369c-.224.1-4.4.079-4.5.003-.052-.034-.545-.044-.593-.013-.24-.69-.1-.017-.034-.031-.151-.048-.317-.048-.144 0-.272-.014-.282-.028-.01-.013-.117-.03-.241-.034a1 1 0 0 1-.255-.03c-.059-.035-.273-.045-.324-.014q-.43-.076-.017c-.017-.031-.086-.048-.186-.045-.086 0-.155-.007-.155-.02 0-.028-.3-.079-.5-.082-.076-.004-.158-.024-.186-.048-.03-.031-.086-.041-.148-.028-.52-.97-.097-.01 0-.03-.186-.068-.396-.082a.3.3 0 0 1-.12-.027c-.031-.041-.552-.171-.59-.147-.2-.48-.062-.01-.027-.045-.72-.264-.82-.26-.45-.079-.01-.079-.028 0-.017-.02-.03-.045-.03a.8.8 0 0 1-.182-.065 1.5 1.5 0 0 0-.242-.93.7.7 0 0 1-.168-.068c-.038-.02-.207-.1-.38-.171a7 7 0 0 1-.544-.26c-.127-.075-.248-.123-.262-.113-.17-.038-.003-.048-.027a.6.6 0 0 0-.183-.13 1 1 0 0 1-.186-.102 4 4 0 0 0-.24-.168 8 8 0 0 1-1.2-1.1l-.127-.136.2-.041c.114-.2.2-.55.2-.069 0-.17-.23.1-.013s.075-.4.1-.038c.01-.3-.44.1-.34.14.1.7.1-.014a2 2 0 0 1 .179-.068c.059-.17.1-.51.1-.075s.01-.34-.024c.7.331-.86.3-.14 0-.24-.35-.24.27.3-.11.3-.175-.27-.44.1-.34.7.1-.1.1-.4-.32.1-.76.1-.1-.2.1-.55.1-.075-.007-.2-.28-.017s.069-.1.1-.045a.5.5 0 0 1 .148-.113c.117-.58.7-.625.9-.854a4 4 0 0 0 .523-.94c.103-.287.2-.636.1-.684-.04-.041-.04-.212 0-.236-.2-.297-.027-.328a.2.2 0 0 1-.028-.103c-.007-.143-.227-.653-.355-.834-.337-.465-1.2-1.3-1.4-1.3-.02 0-.062-.032-.086-.07-.024-.037-.062-.057-.093-.047-.3-.052 0-.052-.027 0-.028-.12-.11-.265-.185a3 3 0 0 1-.286-.154.7.7 0 0 0-.293-.133c-.027 0-.051-.017-.051-.038s-.018-.03-.042-.024c-.2-.069-.013-.107-.051-.034-.034-.086-.055-.113-.045a.6.1 0 0 1-.073-.023c-.034-.052-.268-.161-.344-.161-.048 0-.048-.7-.51.1-.65.2-.65.3.3.1.48.2.51.4.034q.307-.2.3.014c0 .2.2.34.6.34.3 0 .586-.14.6-.027 0-.17.1-.28.2-.28.2.4.3-.1.3-.37-.28.1-.34.1-.2.1.1.1.6.2-.008a.6.6 0 0 1 .145-.03c.048-.4.1-.24.1-.48-.24-.31.1-.17.1.1.1.3.1-.02 0-.21-.38.1-.38.1 0 .417-.158.6-.291.4-.321.7-.731.8-1.3.038-.274-.544-.574-.014-.01-.028-.12-.034-.236-.018-.376-.242-1.1-.538-1.8-.13-.294-.617-1.2-.686-1.3a.4.4 0 0 1-.065-.126c0-.02-.01-.041-.024-.048-.045-.017-.186-.3-.152-.3 0 .255.1.28.1.1.247.1.526.3.317.2.528.3.566.2.03-.14-.7.01-.28.203.1.255.1q.036-.2.01c-.27.7.1.118.1.017-.1 0 .3 0 .25.32.1.018s.086-.3.1.027c.56.1.459.2.559.1.048-.13.1-.3.1.2.25.1.42.2.45.1 0 .242.252.38.248.272-.1-.17.1-.3.2-.24.1.4.2-.7.2-.4-.25-.35.1-.25.1.35.4-.78.4-.133-.27-.37.1-.3.1.1-.18.1-.62-.41.1-.65.1-.051 0 .13 0 .086-.031s.086-.79.1-.103c0-.27-.48-.48.1 0 .286-.3.4-.56.2-.363.3-1.1.197-1.2-.028-.047-.031-.071 0-.102-.2-.1-.178-.076-.749-.182-1.2-.468-1.9a3 3 0 0 0-.131-.29c-.018-.017-.031-.062-.031-.1 0-.5-.58-.3.2.1.3.1.2-.1 0 .48s.24.52c.027-.1.1-.3.1.014 0 .62.7.363.8.335-.1.1.7.1.034a.17.2 0 0 0 .131c.045-.7.1 0 .104.1.1.217.127-.14.2-.1.2.14.48.2.44.2-.004q0-.42.004c.66.1.428-.31.7-.16.4-.185.7-.585.9-1.1.04-.103.1-.22.1-.257-.106.2-.558.2-.814-.126.1-.229.1-.229 0 .51.1.9.1.34.1.75.1.89.1.017 0 .27.27 0 .85.6.773.9 1.186.2.49.3.551.3.031-.3.1.1.1.027s.72.1.165.1c.9.197.1.238.1.38.9.11.021-.13-.6.01 0 .21.38.1.38.1 0 .114.128.13.82.172.083-.6.2-.3.2.014s.11.242c.134 0 .24-.14.2-.03 0-.21.1-.25.1-.14.1.1.1.3.2-.024a.34.3 0 0 1 .165-.052c.207-.13.6-.239.9-.523.1-.143.3-.318.4-.383.2-.335.6-1.2.682-1.7.02-.113-.167.1-.155m-.156-.185c.38-.196.9-.344 1.3-.9.2-.414.8-.507.9a6 6 0 0 0-.165.2c-.83.1-.148.2-.148.1s-.52-.11.1c-.176.1-.407.2-.587.3-.93-.165.1-.165.1 0 .014-.224-.496s-.49-.01-.479-.027c.014-.024-.062-.038-.169-.03-.34-.062-.008-.062-.025 0-.027-.186-.085-.265-.082-.024 0-.045-.01-.045-.027s-.031-.03-.069-.03-.069-.014-.069-.028c0-.017-.065-.058-.144-.096a.8.8 0 0 1-.193-.106c-.025-.024-.062-.044-.08-.044-.017 0-.062-.031-.103-.072-.038-.038-.093-.062-.12-.051-.28-.49-.049-.01 0-.018-.145-.175-.32-.35-.262-.266-.734-.864-.776-.987-.014-.34.1-.2.4.4.1.21.2.28.3.14.1-.13.1-.6.1.014s.265.74c.407 0 .742-.13.7-.027 0-.17.1-.2.2-.14.1.1.2-.3.3-.03a.6.6 0 0 1 .231-.035c.9.145-.7.1-.03 0-.24-.31.1-.17.1.17.1.6.2-.35-.3.1-.44.1-.34.3.5-.85.5-.143-.24.1-.38.1-.28.1.3.8-.27.9-.393-.2.1-.96.2-.168a1 1 0 0 1 .182-.126m5.7-.005c.006-.7.1.58.1.147.2.23.4.458.5.434-.13.4.1.38.79.3.263.3.236-.14 0 .31 0 .48.2.15.3.133-.3.1.031s.24.51a.7.1 0 0 1 .76c.31.1.33.2.469.2q.92.096-.02c0-.24-.1.27.89.2.157.3.126-.1.1 0 .86.28.35.062 0 .024-.38-.35.1.2.72.3.181.5.181 0 .76.76 0 .24.2.75.3.089a1 1 0 0 1 .149c.55.11.127.017-.1-.3.14.3.4.89.5.075a.14.1 0 0 1 .97c.27.103.186q.13-.14.1.021c.7.9.183a1 1 0 0 1 .22c.86.541.1 1.3.075l.7c.024 0-.776.9-.99 1.1-.134.1-.244.3-.244.3s-.2-.48c-.024 0-.66-.9.1-.69.1-.685.6-.999.8-1.1.762-2.2.964-2.9.55-.19-.096-.568-.434-.761-.673-.138-.168-.434-.81-.551-1.2-.128-.414-.293-1.2-.293-1.4 0-.058-.01-.116-.021-.127a1.3 1.3 0 0 1-.034-.287 1.6 1.6 0 0 0-.035-.29c-.02-.034-.041-1.1-.02-1.1m-.256-.21c.066-.007-.176.6-.406 1.1-.4.8-1.1 1.5-1.6 1.9-.197.1-.49.3-.552.3-.017 0-.34-.34 0 .017-.152-.334-.276-.004-.376-.02-.541-.09-.545-.225-1-.953-1.4-2-.158-.472-.316-1.1-.292-1.1a1 1 0 0 1 .22.1c.269.1.455.2.79.3.15.31.1.35.1a.4.4 0 0 0 .18c.058-.13.1-.7.1.17.17.1.41.2.45.1.7.2.2.3.34.1.24.5.01 1-.3.1-.11.3-.38.3-.59-.24.1-.3.1-.17.1.27.5-.61.8-.17-.14.1-.28.1-.035a.11.1 0 0 0 .072-.051c.014-.2-.31.1-.17.1.34.2-.52.2-.127-.48-.55-.24.34.1.28.2-.027a1 1 0 0 1 .158-.072"/></g></svg>