<svg xmlns="http://www.w3.org/2000/svg" version="1.0" viewBox="0 0 546 500"><path d="M220 1.6c-1.4.3-9.2 2.3-17.5 4.5-8.2 2.2-19.9 5-26 6.3-12.5 2.8-19 4.8-25.6 8.2-3.2 1.6-4.9 2-5.7 1.2-.7-.7-2.5-.5-6.1.7-5.7 1.9-21.2 10.9-22.4 13.1-.4.8-2.7 2.4-5 3.5C104.2 43 88.6 53.8 83 59c-3 2.8-8.4 7.3-12 10-7.3 5.4-34.7 33.7-40.2 41.5-2 2.7-4.8 7.5-6.3 10.5s-5.1 9.3-8 14-5.8 10.1-6.3 12c-.6 1.9-1.8 6-2.7 9-.8 3-2.2 6.2-3.1 7.1-2 2.2-2.9 16.8-1.6 27.4.7 6.4.6 8.2-.4 8.8-2.9 1.7-1 20.4 2.5 24.1 2.5 2.7 5.1 9.1 5.1 12.5 0 4.4 14.4 26.1 17.4 26.1 1.5 0 8.6 7.2 8.6 8.8 0 .6 2.6 3 5.8 5.4 3.1 2.3 7.2 5.5 9 7s3.9 2.8 4.7 2.8 4.3 2.1 7.7 4.6c8.9 6.6 30.1 16.8 33.5 16.1 2.8-.5 14.8 2.7 15.8 4.2 1.1 1.9 17.5 3.3 34.3 2.9 15.7-.3 17.5-.5 18.8-2.2 1.2-1.7 2.3-1.8 10.6-1.3 5.3.4 15.6 2.2 23.8 4.2 18.9 4.6 29.4 5.4 37.3 2.8 6.8-2.4 6.7-2.4 8.7 7.2 1.6 7.5 2.6 9.5 4.7 9.5 1.3 0 1.5.9.9 5.7-.4 3.7-1.2 6.1-2.3 6.6-1.3.8-1.5 3.5-1.3 20.1.1 10.5-.3 24.3-1 30.6-1 10.1-1 11.5.4 12.6.9.6 1.6 2.2 1.6 3.5s.9 3.8 1.9 5.5q1.95 3.15.9 4.2c-1.4 1.4.2 4 6.1 9.5 2.9 2.7 6 4.7 7.3 4.7 2.9 0 7.8 4.8 7.8 7.6 0 3.1 8 9.9 14.6 12.4 6.2 2.3 8.5 2.5 10.1.9 1.3-1.3 11.9.5 14.2 2.5.9.8 4.5 1.7 8.1 2.1 15.8 1.6 41.9 10.5 75.3 25.5 20.5 9.2 23.7 9.9 45.2 10.7 19.7.6 31.1-.4 41.6-3.6 6.1-1.9 7.4-2.9 19.5-14.8 7.1-7.1 14.6-15.3 16.6-18.4 5-7.6 12.8-23.7 12.8-26.5 0-1.3.5-2.6 1-2.9 2.1-1.3 4.7-8.2 5.9-15.5.8-5 1.9-8.2 3.3-9.7 1.9-2 2.2-3.8 2.5-13.6.3-6.1.9-12.4 1.5-13.9 1.4-3.7-.7-9.8-9.7-27.8-12.4-24.7-15.7-37.2-15.9-59-.1-13.3.2-14.3 6.6-25.1 1.9-3.2 2-3.9.8-6.8-.7-1.7-4.8-7.1-9.2-11.9-5-5.5-9.2-11.4-11.5-16-3.3-6.6-3.7-8.1-3.6-15 0-8.2 1.4-14 5.8-23.7 9.1-20.4 11.5-45.7 5.5-57.5-2.6-5.1-6.3-7.6-13.1-8.8-3.1-.6-8.2-2-11.5-3-3.2-1.1-7.8-2.5-10.2-3.2-3.5-.9-6.7-3.4-15.9-12.3-6.3-6.2-15.8-16.5-21-22.9-5.8-7.2-10.3-11.8-11.6-12-1.5-.2-3.5-3-7.2-9.9-8.6-16-16.3-25.3-27.6-33.2-4.2-2.9-8.3-6-9.3-6.9-2.6-2.7-14.8-9.7-20.8-12-2.9-1.1-7.3-2.2-9.8-2.3s-7.6-1-11.5-1.9c-3.8-.9-14-2.8-22.5-4.1-14.2-2.3-19.1-2.5-57.5-2.9-23.1-.3-43.1-.2-44.5 0"/></svg>