<svg viewBox="0 0 26 32" xmlns="http://www.w3.org/2000/svg"><g transform="translate(-488 -360)"><path fill-rule="evenodd" d="M501.7 360.8q0 .045-.93c-.065 0-.87-.74.21.1-.78.1-.183.1-.056 0-.72-.72.1.3.1-.15.1-.96.1-.84-.102-.102.1 0 .074-.53.1-.174.1-.053 0-.68-.53.22.1-.4.1-.149.1-.062 0-.77-.77.1.3.1-.15.1-.8.1-.66-.84-.94.1-.6.1-.3.1-.87.1-.43-.77-.8.1-.6.1-.16.1-.9.1-.062 0-.78-.78.1 0 .065-.15.1-.96.1-.074 0-.93-.77.28.1-.13.1-.9.1-.053 0-.78-.84.1q-.1.1-.87.1-.77-.78.1-.1.1-.77.1a.13.1 0 0 0-.93.1c-.13.1-.44.1-.84.1a.9.1 0 0 0-.77.1c-.7-.35.1-.97.1-.46-.83-.8.1.1-.6.1-.72.1q-.66-.86.1c-.13.1-.44.1-.84.1a.9.1 0 0 0-.78.1q-.7.1-.9.1c-.65-.8-.68.1.13-.6.1-.71.1-.5-.9.1-.93.1-.6.1-.16.1-.9.1-.062 0-.78-.78.1 0 .061-.15.1-.77.1s-.78-.78.1c0 .04-.22.1-.5.1-.27-.46-.46.1.1-.3.1-.62.1-.34-.59-.56.1.13.1-.6.1-.84.1-.043 0-.7-.59.35.1-.15.2-.77.2q-.57-.68.1c-.7-.34.1-.93.1q-.81-.69c.1-.3.1-.24.1a.2.2 0 0 0-.4.1q-.2.1-.72.1-.75-.56.1c.28.1-.15.1-.9.1-.056 0-.68-.56.1.13-.6.1-.65.1-.46-.74-.65.1.1.6-.12-.016 0-.35.1-.4.1-.7.1-.22.1-.78.1-.53-.72-.72.1 0 .04-.12.1-.3.1-.016 0-.32-.32.1 0 .065-.12.1-.62.1-.052-.012-.062 0-.62.1 0 .092-.9.1-.77.1-.075 0-.78-.78.2 0 .16-.3.2-.84.2-.8-.86-.86.1 0 .071-.19.1-.44.2-.22-.3.1-.15.1.012 0 .6-.13-.3-.46-.068-.006-.022-.031-.31-.31.2 0 .195-.6.2-.78.2-.68-.77-.77.2 0 .12-.1.2-.5.2-.03 0-.43-.34.25.1-.12.1-.62-.034-.028-.4-.4.2 0 .204-.3.2-.78.2-.71-.77-.77.2 0 .3-.28.4-.96.4-.053 0-.6-.6.2 0 .126-.12.3-.27.3a1 1 0 0 0-.47.1q-.17.1-.65c-.04-.016-.46-.46.4 0 .29-.13.4-.44.5l-.46.1-.031-.077c-.022-.056-.31.3-.031 1l-.004 1.1.78.74.1.5c.1.5.12.5.74.5.84.106.1.106.5 0 .274.287.1.315l.78v.436c0 .37.432.401.1-.65.1.133.1.673 0 .309.494.47-.71.1-.16.1.11.152 1.6.003 1.7-.15.1-.37.1-.93.1-.71-.74-.74.3 0 .226-.3.2-.78.2-.068 0-.77-.77.1 0 .16-.25.2-.96.2-.044 0-.6-.6.1 0 .061-.15.1-.74.1s-.71-.59.1q.15.1-.5.1c-.37-.64.1-.64.1 0 .055-.63.1-.156.1q-.57-.68.1c-.1.1-.3.1-.17.1-.134-.159-.143.1q.52.1-.338.1c-.199 0-.236-.223q.4.1-.425.1c-.292 0-.416-.037-.388-.11-.035-.019-.044-.146-.044-.183 0-.291-.055-.26-.136-.04-.004-.05-.118-.05-.134 0-.155-.015-.143-.113-.019-.034-.04-.08-.047-.063-.006-.09-.028-.097-.077-.006-.046-.04-.077-.087-.09-.071-.018-.087-.046-.077-.13-.018-.028-.036-.068-.036-.069 0-.078-.019-.097-.151-.015-.127-.03-.155-.09-.164-.055-.006-.07-.034-.086-.164-.01-.086-.022-.13-.022-.099-.3-.22-.4-.019-.012-.025-.04-.016-.64-.025-.003-.044-.028-.044-.03 0-.046-.046-.053-.163-.009-.14-.018-.16-.077-.17-.068-.01-.071-.025-.071-.293 0-.306-.013-.35-.109-.365-.059-.012-.062-.043-.078-.429-.012-.337-.024-.417-.062-.417-.024 0-.052-.034-.065-.077-.037-.13-.03-1.5.006-1.6.035-.1.1-.124.1-.59.22-.53-.17-.114-.207-.207 0 .031-.34-.074 0-.102-.126.1-.4.65.65.006a.6.6 0 0 0-.012-.2c-.019-.112-.038-.142-.093-.149-.05-.009-.78-.1.1-.24.1-.5.1-.136.1s-.109-.118.1c-.6.1-.34.1-.96.1-.47-.78-.68.37.1-.19.2-.93.2-.053 0-.78-.84.1q-.1.1-.78.1a.86.1 0 0 0-.77.1c-.6-.34.1-.96.1q-.91-.72.1c.28.1-.15.1-.93.1-.056 0-.74-.74.1a.8.1 0 0 1-.6.1c-.33-.52-.46.1.1-.12.1-.46.1a.12.1 0 0 0-.65.1c0 .074-.28.1-.115.1-.022-.003-.34-.31.1.6.1-.1.1-.62.1a.86.1 0 0 0-.78.1.86.1 0 0 1-.74.1c-.62-.75-.121.2a.4.4 0 0 0-.1.1c-.2-.34-.8-.071-.015-.074-.006-.59.1.12.1.6.1-.43.1-.093 0-.134.1-.134.2 0 .12-.6.1-.77.1-.065 0-.78-.81.1a2 2 0 0 1-.25.2c0 .025-.3-.65-.05 0-.65-.8.2-.2.1-.28.2-.94.2-.068 0-.74-.74.2 0 .16-.3.2-.78.2-.074 0-.77-.77.2 0 .13-.1.2-.47.2-.024 0-.46-.46.1 0 .043-.6-.28-.04-.059-.71.1-.62.2a.8.8 0 0 1-.56.3c-.1-.34-.059-.012-.037-.031-.43-.43.3 0 .385-.3.4-.13.4-.016 0-.25.3-.25.6 0 .488-.7.6-.47.6s-.46.1-.046 1.1c0 .939 1.1.046 1.1s.47.1.5.5c.3.3.9.4.18.4.019-.71.1-.68.1.01 0 .33.61.61 0 .32.1.35.3.3.2.1.3.18.2.01-.3-.49-.43.1.16.1.173.1.374-.3.2 0 .179.142.1-.65.1-.3.1.24.208.223.1.223.1 0 .75.75.2 0 .157.17.1.17.1 0 .75.93.2.2.1.35.2.9.2.6.69.78.2.1.1.19.1.84.1.068 0 .74.83.2.1.1.19.2.87.2.6.78.78.1-.3.1.12.1.65.1.059 0 .71.9.2.19.1.3.2.102.2.6.87.93.1.7.31.1.69.1.062 0 .99.1.74.1q-.18.56.1.7.8.1a.15.2 0 0 0 .72.1c.3.59.1.59.1s.37.1.8.1c.5.75.1.66.1-.1.12.1.77.1.75.9.78.1-.1.6.1.77.1.56.1.109.1s.56.1.114.1c.66.97.97.1 0 .4.62.1.74.1.13.1.34.1.84.46.7.1.077s.87.93.1c.6.4.1.109.1.68.99.99.1 0 .47.62.1.74.1.13.1.28.1.84.52.7.1.7.1 0 .152.165.1.1.43.1.152.1.12.14.136.1-.3.1.13.1.19.1.195 0 .294.1.248.1-.13.17.573.404 0 .587-.8.6-.03-.012-.019-.003-.53-.77-.34.1-.47.3-.47.2 0 .255-.3.3-.07-.003-.62-.68.2-.84.2-.12.2-.25.2-.07q.001-.114.2-.115c.093 0 .111-.1.1-.05-.025-.64-.105.2-.105.1 0 .1-.15.1-.04-.01-.83-.114.1-.114.1 0 .155-.34.1-.077-.023-.5.1-.108.2-.108.1 0 .075-.13.1-.05-.023-.58-.105.1-.105 0 .062-.15.1-.061-.013-.5-.71.1-.96.1-.22.1-.56.1-.99-.43-.74.1-.83-.1.1-.34.1-.56-.9-.99.1-.99.1 0 .077-.18.1-.86-.59-.87.1-.093a.9.1 0 0 0 .078-.077c.006-.43-.74.1-.83-.1.1-.34.1-.56-.86-.99.1-.099q.061-.1.1-.058c0-.31-.74-.096a.15.2 0 0 0 .047-.096q.001-.57.1-.058c.043 0 .065-.25.1-.87-.58-.86.1-.92-.7.1-.34.1-.093s.031-.87.1-.093a.9.1 0 0 0 .077-.077c.006-.4-.74.1-.86-.13.1-.22-.025-.056-.003-.05-.96-.96 0 .05-.37.1-.102-.74-.102.1-.108-.9.1-.3.1-.086 0-.59-.74.1-.074q.112.112-.266c0-.55-.74.1-.74.1 0 .078-.22.1-.148-.12-.145.1-.142.1 0 .065-.16.1-.093-.003-.74-.96.1-.111.1-.15.1-.37.1-.16-.12-.146.1-.155.1-.1.1-.3.1-.173-.148-.16.1-.16.1 0 .115-.71.1-.229-.009-.74-.96.1-.111.1-.19.1-.3.1-.256-.229-.238.1-.238.1 0 .078-.6.1-.247 0-.24-.247.1-.247.1 0 .112-.62.1-.395 0-.148-.253-.253 0 .032-.31-.071 0-.38-.5-.31.1.123.1-.1.1-.42 0-.408-.463.1-.485-.12.1-.22.1-.19.4-.373-.836-.673-.862.1-.948l.047-.108.108c.22.1.031-.22-1.1.003-.797-.01-1.2-.028-1.3-.015-.01-.3-.3 0 .037-.13.1-.26.1-.037 0-.099-.405-.099-.649 0-.12-.015-.243-.037-.277-.022-.031-.028-.068-.019-.8-.35.1.21.1.098 0 .59.74.1.074s.77.77.1c0 .56.77.1.087q.68.77.1c.6.1.31.1.78.1q.66.68.1c0 .34.8.1.102.1.43.1.96.102-.22-.6.37.47.81.87.1a.9.1 0 0 0 .78.1c.46.71.77.1s.31.1.78.1c.5.68.65.1 0 .55.7.1.7 0 .75.75.3.1.1.12.1.3.25.1.47.1s.28.18.1c-.12.1.56.1.5.8.1.8.1q.1.1.72.1c.5.68.68.1q.1.1.62.1c.44.72.1.9.2.25.1.4.1.1.1.071 0 .114.1.87.1q-.19.55.1c.53.69.65.1-.6.7.1.22.1.019 0 .31.31.1 0 .55.77.1.86.1.1.1.34.1.164s.25.2.87.2c.6.68.68.1 0 .74.146.158q.29.012-.012-.015-.32-.053c.016-.1 0 .31 0 .24.55.65.15.43.11-.15.1-.6.1.43.1q.61.63.1c0 .34.62.62 0 .35.1.4.2.1.1.2.2.81.2.62.69.69.2 0 .145.164.1.148.1-.21.1.34.1.318 0 .143.266.275.1-.3-.03 0-.28-.4-.31.9.46.08 0 .3.58.58 0 .3.2.34.4 0 .219.376.355-.53.1-.47.1.009 0 .25.46.46 0 .04 1.6-.003 1.7-.34.1-.78.2-.1.1-.009-.028-.15.2-.18.4-.3.4-.6.5-.65.5-.093 0-.124.1-.118.4.3.2-.6.2-.53.3-.3-.68-.8-.016-.009-.28.1-.28.2 0 .096-.13.2-.31.2-.016 0-.31-.31 0 .056-.5.1-.72-.009-.018-.18-.21.1a1.4 1.4 0 0 1-.16.2l-.1.1c-.2-.33-.67q-.065-.001-.69.1c-.6.1-.12.2-.21.2 0 .022-.38-.81-.075 0-.78-.78.2s-.3.2-.77.2c-.072 0-.78-.78.2 0 .136-.9.2-.62.2-.074 0-.96-.102.2-.6.1-.19.1-.84.1-.68-.77-.87.2-.6.1-.21.2-.52.2q-.43-.25.1.23.1-.31c-.044-.015-.053 0-.53.1 0 .102-.12.1-.96.2-.93-.96-.78.2s.16.1-.74.2c-.84-.93-.96.2-.3.2-.37.3-.96.3-.038-.003-.56-.72.2-.22.2-.87.2-.142.2-.02-.028-.28-.28.1 0 .173-.7.2-.69.2-.68-.71-.96.5-.12.3-.15.6-.6.7.19.2.25.2.102.2.6.87.93.1q.1.1.72.1c.03 0 .59.59 0 .4.1.47.9.047s.946-.7.9-.047c0-.37.1-.46.3-.46.3 0 .292-.6.3-.05-.027-.74-.104.3-.104.2 0 .205-.4.2-.071-.003-.65-.68.2-.78.2-.9.2-.12.2-.08-.019-.86-.111.3-.111.1 0 .158-.1.1-.05-.028-.74-.104.3-.104.2 0 .189-.7.2-.071-.003-.62-.68.2-.78.2-.9.2-.15.2-.068-.025-.74.1-.123.3-.123.1 0 .12-.12.1-.059 0-.7.1-.95.2-.95.1 0 .13-.1.1-.071-.003-.62-.68.2-.78.1-.6.2-.18.2-.065 0-.86.1-.126.2-.126.1 0 .127-.1.1-.05q-.034-.102.2-.104c.112 0 .124-.1.1-.072-.003-.58-.7.1-.83.1-.12.1-.28.1-.07q.002-.114.2-.115c.093 0 .108-.1.1-.071-.003-.59-.71.1-.84.1-.12.1-.27.1-.077s.024-.65.1-.077c.093-.12.1-.3.1-.07 0-.72.1-.115.2-.115.1 0 .093-.13.1-.071-.003-.56-.71.1-.84.1-.12.1-.3.1-.077 0-.46-.65.1-.86.1-.13.1-.4.1-.056-.028-.46-.12.1-.12q.73.08-.071c.007-.5-.71.1-.84.1-.12.1-.34.1-.077q.002-.57.1-.077t.086-.086c.007-.47-.71.1-.87.1-.12.1-.3.1-.065-.022-.55-.102.1-.102.1 0 .065-.9-.043-.037-.043-.003-.9.1-.117a.8.1 0 0 0 .046-.074q.002-.57.1-.068c.046-.6.1-.34.1-.093q.008-.85.1-.092c.046-.7.1-.34.1-.093s.031-.87.1-.093c.05-.9.1-.3.1-.086 0-.59-.74.1-.74.1 0 .077-.16.1-.065 0-.37-.71.1-.08q.058-.14-.074c-.013-.04 0-.6-.06q.049 0 .06-.101c.006-.74-.102.1-.108-.1.1-.31.1-.087 0-.52-.74.1-.74.1 0 .124-.105.1-.25 0-.74-.9.1-.9.1 0 .078-.15.1-.077 0-.43-.77-.77 0 .029-.3-.07-.003-.5-.69.1-.69 0 .06-.21.1-.092 0-.71-.93.1-.108.1-.16.1-.37.1-.18-.148-.16.1-.16.1 0 .074-.12.1-.154 0-.133-.155.1-.155.1 0 .127-.92.1-.219-.01-.83-.105.1-.12-.1.1-.44.1-.78-.395-.416.1-.416.1 0 .06-.22.1-.17 0-.93-.17-.17 0 .031-.28-.065 0-.5-.59.1-.43.1.18.1.6.1-.263v-.284l.78.74.01-.327c.009-.306-.33.1-.358.1-.28.1-.47.1-.408 0-.318-.38-.38s.046-.225-1.8-.006-1.8-.046-1.8-.047-.065-.047-.398c0-.392 0-.402-.068-.41-.068-.01-.071-.026-.08-.325-.01-.309-.01-.318-.084-.337-.075-.018-.078-.027-.078-.274 0-.142-.012-.27-.03-.278-.016-.01-.032-.003-.32q-.1-.3c-.016-.009-.032-.046-.032-.08 0-.03-.012-.058-.03-.058-.02 0-.032-.09-.032-.21 0-.142-.01-.192-.03-.16-.5.1-.097-.01-.119-.236-.018-.188-.028-.213-.09-.222-.074-.01-.09-.08-.074-.29-.043-.01-.09-.025-.102-.019-.01-.034-.003-.34q-.1-.31c-.015-.01-.031-.046-.031-.08 0-.031-.012-.06-.031-.06-.015 0-.031-.07-.031-.154 0-.142-.006-.154-.075-.154-.07 0-.077-.012-.086-.16-.01-.142-.019-.164-.087-.18-.06-.015-.078-.04-.08-.11-.007-.22-.01-.23-.09-.23-.072 0-.078-.008-.078-.154 0-.145-.007-.154-.078-.154s-.077-.01-.077-.154c0-.149-.004-.158-.094-.176-.068-.013-.092-.034-.092-.084 0-.037-.028-.077-.069-.095-.04-.019-.071-.06-.074-.093-.013-.238-.01-.232-.09-.232-.068 0-.078-.012-.078-.108 0-.09-.012-.108-.065-.108-.05 0-.062-.015-.05-.062q.014-.06-.027-.061c-.025 0-.044-.031-.044-.074 0-.056-.018-.077-.068-.087-.056-.006-.075-.034-.08-.11-.01-.078-.026-.1-.075-.1-.047 0-.06-.015-.047-.58-.037-.003-.068-.028-.078-.024-.009-.043-.043-.043-.077q-.002-.061-.068-.07c-.05-.007-.078-.038-.09-.103-.013-.052-.022-.08-.025-.068 0 .013-.31-.068-.012q-.065-.033-.05-.093c.01-.3-.067-.012-.077-.016-.01-.028-.043-.028-.074q-.002-.057-.068-.068-.067-.01-.087-.086-.021-.076-.087-.087c-.05-.006-.068-.03-.068-.083s-.019-.077-.069-.083q-.07-.012-.087-.087c-.009-.043-.034-.077-.052-.08-.093-.006-.103-.016-.103-.087q0-.076-.065-.095-.064-.022-.05-.078t-.043-.07a.8.1 0 0 1-.059-.078q-.001-.065-.068-.074-.066-.01-.087-.086t-.087-.087c-.05-.006-.068-.03-.068-.086 0-.059-.015-.074-.077-.074-.075 0-.084-.01-.09-.102-.003-.019-.038-.043-.081-.053-.056-.012-.08-.04-.087-.102-.01-.064-.028-.083-.087-.083s-.074-.015-.074-.074-.019-.077-.084-.087c-.062-.006-.09-.027-.096-.077a.86.1 0 0 0-.078-.077c-.05-.006-.07-.034-.077-.096-.01-.061-.028-.083-.08-.083-.081 0-.143-.053-.125-.105-.022-.03-.05-.087-.065-.055-.018-.102-.052-.102-.077s-.05-.062-.109-.08c-.083-.028-.105-.05-.102-.1-.052-.012-.064-.093-.073-.074-.006-.1-.025-.1-.071 0-.043-.024-.065-.092-.077-.072-.013-.093-.031-.09-.087q.001-.069-.053-.068-.153 0-.152-.111c0-.059-.015-.074-.084-.074-.115 0-.177-.043-.155-.102-.037-.006-.052-.096-.059-.096-.009-.115-.021-.112-.08 0-.052-.015-.068-.08-.068-.1 0-.165-.065-.137-.133-.04-.009-.049-.118-.058-.108-.006-.133-.022-.133-.071 0-.047-.025-.065-.108-.077-.084-.013-.112-.031-.118-.087-.01-.059-.028-.068-.15-.068h-.136v.232c0 .219.231.1.25.1.18.1.34.1.182 0 .151.16.1.148.1-.12.1 0 .9.1a.5.5 0 0 1 .3.2c-.1-.1.1 0 .105.52.74.1.74.1 0 .77.77.2s0 .247.1.247.1.3.1.26c0 .24.259.1.243.1-.21.1.25.1.355.278.3.1.31.1.8.1.27.1.323.3.315.1.325.1.9.1.18.1.407 0 .392 0 .395.1.414.1.25.1.157.1 1.2l-.1.8-.77c-.65-.78-.8.1-.7.2-.1.2-.84.2-.056 0-.72-.72.1.3.1-.12.1-.214.1-.118-.198-.177.19.38.38 0 .077-.233.1-.348-.065-.034-.065-.037-.01-.77-.37-.044-.238-.044-.341 0-.397-.012-.397-.095 0-.05-.025-.059-.149-.059-.183 0-.288-.062-.226-.133-.43-.05-.143-.058-.164-.01-.18-.016-.177-.8-.062-.012-.068-.146-.068-.105 0-.151-.013-.164-.05-.01-.028-.012-.059-.003-.74-.012-.047-.034-.121-.043-.136-.022-.205-.087-.133-.133-.015-.019-.03-.103-.04-.114-.012-.14-.028-.14-.077 0-.044-.024-.065-.092-.078-.066-.009-.097-.034-.103-.08q-.01-.06-.108-.092c-.075-.022-.1-.047-.096-.1 0-.052-.016-.067-.081-.067-.093 0-.158-.053-.137-.108-.022-.024-.053-.08-.074-.056-.019-.093-.05-.087-.71-.022-.028-.065-.078-.096-.068-.04-.083-.065-.058-.9-.24-.043-.035-.07-.037-.02-.065-.06-.059-.87-.037-.012-.053-.07-.053-.063 0-.079-.015-.079-.074 0-.052-.021-.08-.077-.092-.062-.016-.077-.04-.077-.111 0-.065-.013-.087-.044-.075-.43-.093-.034-.096-.095-.01-.1-.059-.192-.118-.216-.043-.019-.065-.056-.062-.93-.139-.025-.232-.102-.232-.069 0-.075-.009-.075-.17 0-.16-.003-.17-.077-.17-.075 0-.078-.009-.078-.175 0-.096-.01-.164-.019-.155-.12-.46-.077-.012-.05-.025-.059-.068-.059-.272 0-.225-.003-.24-.068-.237-.87-.112-.078-.115-.405-.003-.204-.012-.25-.046-.238-.81-.112-.17-.115-.725-.003-.3-.013-.513-.019-.473-.18.1-.77.1-.112-.052-.012-.059-.021-.568-.015-1.1.01-.868-1.056-1.1q.044-.27.1.01c.12.025-.238-.575 0-.639 0-.633.1-.61 0 .022-.18-.4 0-.246-.4-.4 0 .032-.38-.08 0-.66-.75.1-.6.1.19.1 0 .068-.33-.34-.349.1-.346.1.3.1-.9.1-.256 0-.151-.256-.256 0 .031-.28-.065 0-.47-.59-.47.13-.15-.145 0-.28-.386.1-.404.1-.19.1-.34.1-.247 0-.216-.229.1-.247.1-.19.1-.28.1-.296v-.278h-.186c-.146 0-.186-.186"/></g></svg>