<svg xmlns="http://www.w3.org/2000/svg" version="1.0" viewBox="0 0 314 350"><path d="M112.5 1.5c-8 1.5-27.7 9.3-40 15.8C62.4 22.8 51.2 31 44.4 38.1c-6.2 6.5-24.7 33.6-29.7 43.6-3.8 7.5-7.7 19.9-7.7 24.5 0 1.5-.9 4.9-1.9 7.6C1.4 123 .8 130.4.9 158.9l.2 27.4 3.4 6.6c4.4 8.3 12.3 17.1 27.3 30.4 10.7 9.4 12.4 10.6 19 12.6 4 1.2 14.1 4.9 22.5 8.2 17.5 7 23.1 7.9 30.6 5.4l5.3-1.7 6.9 3.2c9.5 4.3 18.7 5 32.3 2.2 11.2-2.4 14.3-4.4 15.2-10.4.4-2.1 1-3.6 1.4-3.3 1.6 1 2.3 7.6 2.5 23.5.3 17.8 1.8 28 6.2 41.5 4.7 14.5 6.2 16.8 14 20.2 8.3 3.7 22.8 7.4 43.1 10.8 16.7 2.9 24.5 4.9 33.7 8.8 3.3 1.5 10.2 3.4 15.3 4.3 9.1 1.6 9.4 1.6 12-.3 1.5-1.1 3.7-3.7 5-5.9 2.1-3.6 2.3-4.6 1.6-12.4-1.1-12.7-.9-16.2 1.2-19.9 1.1-1.8 2.6-4.6 3.5-6.2.9-1.5 3.3-5.3 5.4-8.4 3.5-5 3.9-6.3 4.5-14.2.4-4.9.3-10.2-.2-11.8-.4-1.7-.8-10.3-.7-19.3.1-18.7.4-18-9.1-20.8-8.1-2.4-8.9-3.4-6.2-8.6 1.2-2.4 4-7.2 6.2-10.8 2.2-3.5 4.5-8.2 5.1-10.5.5-2.2 1.9-5.9 3-8.2 1.1-2.4 2.1-5.1 2.1-6 .1-1-1.9-4.7-4.4-8.3-2.4-3.6-5.9-10.3-7.8-14.9-3.3-8.2-3.3-8.5-2-14 2.2-9.2 2.4-17.5.5-20.4-3-4.6-3.6-9.2-3.6-25.3.1-14.8-.1-17.1-3-28.5-3.7-15-8.4-24.3-15.9-31.9-10-10.2-18.7-14.5-56.3-28.4-8.2-3-16.9-6.7-19.5-8.3-4.5-2.7-5.2-2.8-19.7-2.9-8.2-.1-19.9-.7-26-1.3-14.4-1.4-34.2-1.3-43 .4"/></svg>