<svg xmlns="http://www.w3.org/2000/svg" width="178.667" height="172" version="1.0" viewBox="0 0 134 129"><path d="M49 2.5C34.1 5.2 26.1 9.5 15 21 3.9 32.4-.9 42.6.5 52s8.9 19.6 17.6 24.1c7.8 3.9 24.7 5.7 26.5 2.8.3-.5 1.9-.9 3.5-.9 1.7 0 3.9-.5 5-1 3-1.7 3.9 2.3 3.9 17 0 12.2.1 13 2.4 15.7 4.5 5.3 9.6 8 16.5 8.7 4.4.4 9.2 1.9 15 4.6 8.9 4 19.1 6 24.6 4.6 3.3-.8 10-7.7 12.7-13.1 1.2-2.2 2.9-7.3 3.9-11.4l1.8-7.4-3.4-6.4c-4.1-7.7-5.2-13.8-3.5-19.7 1.1-4 1-4.5-1.5-8.2-2.9-4.3-3-7.7-.5-18.4 1.8-7.7.3-10.6-6.8-13.2-4.5-1.7-6.1-3.1-11.1-9.6C96 5.7 91.6 3.2 75.1 1.9c-13.4-1-18-.9-26.1.6"/></svg>