<svg viewBox="0 0 18 32" xmlns="http://www.w3.org/2000/svg"><defs><clipPath id="a"><path d="M561 233h18v32h-18z"/></clipPath></defs><g clip-path="url(#a)" transform="translate(-561 -233)"><path fill-rule="evenodd" d="M570.182 233.559c-.038.038-.06.041-.139.011-.078-.032-.104-.03-.179.015-.063.042-.118.048-.225.033-.124-.015-.168-.003-.39.103-.249.122-.252.122-.59.122-.37 0-.48.032-.494.14-.008.064.012.076.18.103.112.018.075.083-.09.163-.22.106-.5.335-.5.403 0 .03.038.077.087.103.087.05.11.116.06.17-.057.064-.291.559-.291.621q0 .113.127.137c.107.02.121.1.04.225-.135.207-.127.423.018.423.037 0 .09-.026.118-.059.064-.074.185-.077.208-.009a.35.35 0 0 0 .09.119l.075.065-.058.068a.7.7 0 0 0-.092.151.55.55 0 0 1-.162.172c-.153.112-.211.272-.15.424.075.183.208.216.225.056.006-.065.026-.086.09-.092.1-.012.132.062.069.169-.032.053-.046.166-.05.373-.005.38-.008.37.047.37.06 0 .13-.183.159-.426.037-.308.121-.368.266-.184q.078.105.078.213c0 .077.023.137.09.21l.086.104-.018.303c-.023.322-.054.405-.182.474a.6.6 0 0 0-.135.106c-.15.169-.861.593-.997.593a.3.3 0 0 0-.124.059.3.3 0 0 1-.101.06c-.018 0-.136.103-.269.227-.13.128-.257.24-.283.25-.09.035-.162.147-.373.574-.147.296-.156.343-.234.992-.008.089-.006.228.009.311.043.214.04.762-.003.847a2.6 2.6 0 0 0-.092.415c-.035.19-.07.37-.081.403-.032.08-.483.628-.879 1.072-.199.223-.37.442-.416.537-.043.089-.095.198-.118.243a.3.3 0 0 0-.04.121c0 .044-.113.326-.191.471a.4.4 0 0 0-.04.166.54.54 0 0 1-.145.355.4.4 0 0 0-.087.143c0 .017-.026.056-.057.085s-.058.066-.058.08c0 .06-.335.46-.653.78a12 12 0 0 0-.376.414c-.364.42-.554.605-.702.676-.138.07-.138.07-.228.317-.046.127-.063.27-.08.637-.012.308-.033.5-.059.554a.4.4 0 0 0-.04.165c0 .05-.026.146-.058.217a.63.63 0 0 0 .03.58c.048.086.1.157.115.157.017 0 .13.098.254.22.271.266.396.373.43.373.018 0 .052.026.081.059s.067.06.087.06c.046 0 .173.144.243.28.052.101.06.17.06.475 0 .266-.011.379-.046.444a1 1 0 0 0-.072.252c-.072.412-.075.489-.038.604.023.062.04.14.04.169 0 .03.027.104.056.166.046.095.057.204.069.702.017.598-.006.96-.078 1.203-.081.26-.116.61-.081.734.05.166.043.45-.009.51a2 2 0 0 0-.118.192l-.075.149v.731c.003.679-.003.738-.055.806a.34.34 0 0 0-.055.187c0 .1.02.133.18.29.317.314.588.646.698.859.06.116.142.249.18.302a.4.4 0 0 1 .069.133c0 .042.179.202.228.202.063 0 .32.154.32.192 0 .027-.043.05-.115.063a.4.4 0 0 0-.133.044.4.4 0 0 1-.107.074q-.255.124-.286.172c-.06.092.032.364.176.527.081.095.136.101.43.048a.9.9 0 0 1 .356-.003c.148.03.168.026.341-.057l.188-.088.173.094c.208.113.399.14.587.09.075-.024.289-.042.47-.045.263-.003.367-.018.506-.071a3 3 0 0 1 .361-.11c.104-.024.228-.056.278-.074.049-.015.257-.027.462-.027.303 0 .401.012.525.06a1 1 0 0 0 .226.059 1.2 1.2 0 0 1 .271.071q.193.075.494.092c.278.02.31.018.425-.045a.6.6 0 0 0 .196-.174c.07-.104.07-.119.07-.708 0-.519-.009-.634-.058-.815-.118-.43-.182-.613-.208-.631a.6.6 0 0 1-.084-.142 3 3 0 0 0-.133-.255c-.124-.213-.184-.486-.153-.681.015-.09.04-.311.06-.49.021-.18.05-.358.07-.399a1 1 0 0 0 .058-.207 1 1 0 0 1 .058-.208c.052-.11.13-.352.162-.5a.6.6 0 0 1 .052-.163c.011-.018.04-.107.06-.196a1 1 0 0 1 .075-.222.25.25 0 0 0 .04-.124c0-.036.027-.134.059-.217a1 1 0 0 0 .057-.225c0-.038.026-.148.058-.24.081-.237.084-.865.006-1.07-.087-.227-.18-.53-.18-.592a.6.6 0 0 0-.048-.171c-.07-.17-.096-1.342-.03-1.399.067-.059.177.095.151.216-.052.27-.05.427.009.525.031.053.08.178.107.275.063.223.086.252.199.252.133 0 .185-.053.2-.207.008-.074.037-.199.063-.276.058-.163.112-.174.188-.035.063.124.228.204.332.163.078-.03.08-.036.066-.217-.023-.248.026-.42.119-.42.052 0 .09.035.15.148a.7.7 0 0 1 .08.21.2.2 0 0 0 .061.116c.052.047.058.092.058.417v.362l.101.092c.11.097.28.127.324.053a.7.7 0 0 0 .011-.22c-.002-.1 0-.21.012-.242.026-.089.098-.077.116.018.008.047.034.148.057.23.024.08.05.235.058.341.015.181.11.48.18.57.017.02.06.12.092.221.055.17.06.255.06.933 0 .412.015.797.026.854.047.183.208.628.278.773.072.145.323.423.572.634.13.112.482.601.482.672 0 .018.026.077.06.134.067.11.064.177-.02.394-.04.103-.051.219-.051.518 0 .385 0 .385.106.613l.107.225-.043.172a2 2 0 0 0-.043.24c0 .039-.026.145-.058.237a1 1 0 0 0-.058.252c0 .044-.014.089-.029.098a.5.5 0 0 0-.09.139.33.33 0 0 0-.04.228c.052.296.05.435-.011.54-.061.1-.078.25-.038.31a.7.7 0 0 0 .15.1c.122.069.16.075.59.075h.459l.029-.089c.014-.05.043-.13.066-.184a.5.5 0 0 0 .04-.124c0-.042.142-.1.194-.08q.04.02.035.145c-.006.148.012.19.098.231.035.015.096.048.136.071.101.062.514.06.6-.003.036-.023.065-.065.065-.089 0-.088.086-.077.202.03.063.06.133.107.156.107.058 0 .185-.11.205-.178q.036-.111.202 0c.098.068.243.077.31.02a.5.5 0 0 0 .095-.13c.049-.086.049-.106.014-.216a1 1 0 0 0-.119-.228 2 2 0 0 1-.09-.121.6.6 0 0 0-.115-.098c-.104-.071-.283-.293-.283-.347 0-.015-.026-.05-.055-.077-.115-.106-.26-.474-.28-.705a1 1 0 0 0-.058-.281 1.6 1.6 0 0 1-.173-.542 1 1 0 0 0-.07-.282 1.3 1.3 0 0 1-.072-.296.7.7 0 0 0-.043-.207.5.5 0 0 1-.043-.134.6.6 0 0 0-.06-.163.3.3 0 0 1-.041-.154c0-.139-.05-.243-.127-.275-.073-.027-.168-.142-.148-.178.006-.012.026-.154.04-.314.018-.16.05-.427.073-.59.052-.352.063-2.097.017-2.266a5 5 0 0 1-.072-.308 1.3 1.3 0 0 0-.08-.266.6.6 0 0 1-.062-.181.8.8 0 0 0-.12-.26.7.7 0 0 1-.1-.173.3.3 0 0 0-.057-.106.3.3 0 0 1-.058-.125.2.2 0 0 0-.04-.106.6.6 0 0 1-.06-.163.5.5 0 0 0-.076-.175c-.075-.095-.075-.24 0-.24.029 0 .06.018.07.039.014.038.268.23.413.31a.8.8 0 0 0 .248.051c.144.009.194 0 .26-.047.092-.069.101-.13.038-.285-.061-.145-.02-.183.115-.118.312.154.633-.071.448-.314a.3.3 0 0 1-.058-.125.4.4 0 0 0-.06-.154c-.044-.07-.053-.11-.032-.136a1 1 0 0 1 .274-.151c.06-.02.064-.095.003-.21a1.2 1.2 0 0 1-.07-.208l-.043-.183c-.017-.05-.003-.075.067-.11.049-.027.098-.074.107-.11.037-.118-.018-.743-.09-1.03a4 4 0 0 0-.32-.818 2 2 0 0 1-.105-.326c-.057-.22-.06-.323-.063-1.289 0-.906.006-1.07.046-1.17.026-.065.06-.172.078-.237.015-.065.04-.16.058-.207.017-.05.058-.184.09-.296.031-.116.086-.29.118-.394.072-.232.072-.382 0-.495a.4.4 0 0 1-.058-.163c0-.042-.026-.154-.058-.249-.046-.127-.063-.263-.069-.557-.011-.379-.011-.385-.098-.477-.081-.089-.087-.112-.107-.406-.035-.574-.043-.654-.06-.687a1.4 1.4 0 0 1-.064-.228 2.6 2.6 0 0 1-.012-.88 9 9 0 0 0 .05-.726c.014-.524-.012-.805-.09-.936a.3.3 0 0 1-.04-.115c0-.09-.191-.347-.475-.643-.153-.16-.277-.302-.277-.317s-.029-.036-.06-.044a.8.8 0 0 1-.183-.13c-.179-.167-.25-.211-.352-.211a.3.3 0 0 1-.188-.083l-.095-.08-.939.006c-.612.003-.97.018-1.026.038-.075.027-.098.024-.158-.03-.246-.2-.39-.254-.853-.325a.6.6 0 0 1-.193-.05c-.015-.015.006-.113.052-.231.04-.116.08-.25.086-.303.02-.139.067-.166.211-.127a.4.4 0 0 0 .162.018c.072-.03.035-.228-.087-.462a1 1 0 0 1-.06-.19.5.5 0 0 0-.06-.178c-.064-.095-.05-.192.03-.23.114-.054.16.008.16.216 0 .165.006.177.095.233.052.036.13.057.176.054.087-.01.087-.01.078-.187a.7.7 0 0 0-.066-.296.4.4 0 0 1-.04-.258c.017-.124.011-.148-.07-.24-.167-.195-.084-.423.087-.234q.137.155.303.113.145-.042-.017-.199c-.104-.097-.208-.29-.185-.343.006-.021.043-.039.084-.039.133 0 .112-.062-.096-.266-.17-.166-.205-.217-.205-.294 0-.086.006-.095.067-.074.15.05.179.036.188-.11.008-.133.002-.144-.165-.316-.098-.101-.211-.19-.254-.202a1.4 1.4 0 0 1-.217-.074.8.8 0 0 0-.217-.056.26.26 0 0 1-.136-.044.2.2 0 0 0-.1-.045c-.027 0-.096-.053-.157-.116a.45.45 0 0 0-.216-.136.5.5 0 0 1-.162-.062.24.24 0 0 0-.119-.041.4.4 0 0 1-.141-.045c-.133-.071-.286-.086-.335-.032m4.073 11.014a.4.4 0 0 0 .064.192.5.5 0 0 1 .06.187c.012.074.032.192.05.266.014.074.037.46.046.86.014.616.026.746.072.856a.6.6 0 0 1 .055.192c0 .033.02.127.043.204.064.214.078.738.026.97-.023.106-.055.24-.066.298a.6.6 0 0 1-.07.178.26.26 0 0 0-.049.133c0 .113-.031.16-.104.16-.08 0-.127-.091-.127-.26 0-.071-.04-.187-.115-.326a1.4 1.4 0 0 1-.116-.255c0-.02.04-.083.09-.14.106-.12.257-.343.257-.381 0-.015-.18-.214-.396-.445l-.396-.42-.008-.507c-.01-.299-.027-.539-.047-.578-.023-.053-.023-.091.006-.162.02-.054.046-.143.06-.199a1 1 0 0 1 .096-.237c.04-.074.095-.175.118-.222.027-.05.073-.13.105-.178.031-.05.08-.136.112-.198.104-.193.214-.19.234.012m-6.433 1.137.031.293a2.6 2.6 0 0 1-.092.61c-.029.078-.19.235-.24.235-.014 0-.084.088-.156.198-.07.113-.2.281-.286.38-.153.171-.196.275-.234.547l-.011.092a.4.4 0 0 1-.096.062c-.052.027-.15.095-.216.157-.107.092-.119.116-.093.17a.4.4 0 0 0 .13.118c.081.047.098.077.098.157a.3.3 0 0 1-.069.183c-.113.14-.133.205-.133.424v.21l.133.057c.072.032.142.059.153.059a.5.5 0 0 0 .101-.148c.078-.145.148-.19.18-.107.008.024 0 .281-.018.572-.066.98-.066 1.238-.014 1.546.026.157.063.323.086.374.084.192.188.589.188.713 0 .074.014.16.029.193.017.03.063.169.101.305.095.338.124.755.081 1.129-.058.494-.038.788.07.948.048.077.046.317-.01.518-.022.089-.057.29-.072.444a20 20 0 0 1-.052.49c-.026.24.026.82.14 1.51l.06.385c.014.113.043.302.063.418.032.195.03.219-.034.385-.04.095-.093.207-.122.246a.25.25 0 0 0-.052.106c0 .069-.225.27-.531.474-.174.113-.367.246-.436.297-.5.358-.486.358-.509.03a2 2 0 0 0-.049-.341 2 2 0 0 1-.055-.394c-.017-.267-.011-.297.043-.377a.3.3 0 0 0 .064-.124c0-.02.026-.08.055-.13a.8.8 0 0 0 .075-.217c.017-.106.009-.142-.055-.24a.6.6 0 0 1-.075-.157c0-.059-.263-.317-.324-.317-.034 0-.083-.053-.132-.142a1.3 1.3 0 0 0-.188-.246l-.107-.106.026-.382c.026-.323.023-.41-.017-.545a1.8 1.8 0 0 0-.29-.605.5.5 0 0 1-.095-.169c0-.03-.029-.11-.063-.18a.8.8 0 0 1-.072-.335 2 2 0 0 0-.038-.293.8.8 0 0 1-.029-.21c0-.19-.127-.655-.24-.878l-.1-.198-.01-.468c-.002-.305-.02-.507-.046-.572a.7.7 0 0 1-.037-.186c0-.098-.078-.29-.119-.29-.063 0-.017-.14.078-.24a.35.35 0 0 0 .119-.255.6.6 0 0 1 .043-.178c.015-.02.046-.1.067-.178.02-.077.066-.213.098-.302a.6.6 0 0 0 .043-.24.5.5 0 0 1 .029-.22c.043-.13.043-.15-.012-.367a3 3 0 0 0-.158-.43.7.7 0 0 1-.102-.337c0-.121.015-.148.125-.258.199-.198.482-.444.551-.477.035-.017.125-.074.2-.127.078-.05.147-.095.159-.095.011 0 .072-.05.135-.112.067-.06.197-.178.295-.261.275-.234.558-.59.558-.7 0-.132.635-.674.794-.674.052 0 .17-.166.254-.359a3 3 0 0 0 .139-.486c.066-.329.182-.619.24-.598.017.006.04.103.055.216"/></g></svg>