<svg viewBox="0 0 18 32" xmlns="http://www.w3.org/2000/svg"><g transform="translate(-561 -233)"><path fill-rule="evenodd" d="M570.2 233.6c-.38-.6-.139-.078-.032-.104-.03-.179-.63-.118-.225-.124-.015-.168-.003-.39.1-.249.1-.252.1-.59.1-.37 0-.48-.494.1-.8.1.12.1.18.1.112.75.1-.9.2-.22.1-.5.3-.5.4 0 .3.77.1.103.1.5.1.116.1.17-.57.1-.291.6-.291.6q0 .113.1.137c.107.121.1.4.2-.135.2-.127.4.18.4.037 0 .09-.26.1-.59.1-.74.2-.77.2-.009a.35.4 0 0 0 .9.1l.75.1-.58.1a.7.7 0 0 0-.92.2.55.5 0 0 1-.162.2c-.153.1-.211.3-.15.4.75.2.208.2.225.1.006-.65-.86.1-.92.1-.12.1.62.1.169-.32.1-.46.2-.5.4-.5.4-.8.4.47.4.06 0 .13-.183.2-.426-.308.1-.368.3-.184q.78.1.78.2c0 .77.137.1.21l.86.1-.18.3c-.23.3-.54.4-.182.5a.6.6 0 0 0-.135.1c-.15.2-.861.6-.997.6a.3.3 0 0 0-.124.1.3.3 0 0 1-.101.1c-.018 0-.136.1-.269.2-.13.1-.257.2-.283.3-.9-.162.1-.373.6-.147.3-.156.3-.235-.8.1-.6.2.9.3.43.2.4.8-.3.8a2.6 2.6 0 0 0-.92.4c-.35.2-.7.4-.81.4-.32.1-.483.6-.879 1.1-.199.2-.37.4-.416.5-.43.1-.95.2-.118.2a.3.3 0 0 0-.4.1c0 .044-.113.3-.191.5a.4.4 0 0 0-.4.2.54.5 0 0 1-.145.4.4.4 0 0 0-.87.1c0 .017-.26.1-.57.1s-.58.1-.58.1c0 .06-.335.5-.653.8a12 12 0 0 0-.376.4c-.364.4-.554.6-.702.7-.138.1-.138.1-.228.3-.46.1-.63.3-.8.6-.12.3-.33.5-.59.6a.4.4 0 0 0-.4.2c0 .05-.26.1-.58.2a.63.6 0 0 0 .3.6c.48.1.1.2.115.2.017 0 .13.1.254.2.271.3.396.4.43.4.018 0 .52.81.1s.67.1.87.1c.046 0 .173.1.243.3.52.1.6.2.6.5 0 .266-.11.4-.46.4a1 1 0 0 0-.72.3c-.72.4-.75.5-.38.6.23.1.4.1.4.2 0 .3.104.1.166.95.1.204.1.702.598-.7-.078 1.2-.81.3-.116.6-.81.7.5.2.43.5-.9.5a2 2 0 0 0-.118.2l-.75.1v.731c.3.7-.3.7-.55.8a.34.3 0 0 0-.55.2c0 .1.133.2.29.3.314.6.646.7.859.1.116.1.249.2.302a.4.4 0 0 1 .69.1c0 .42.2.202.2.202.1 0 .32.2.32.2 0 .027-.43-.115.1a.4.4 0 0 0-.133.4.4 0 0 1-.107.1q-.255.1-.286.2c-.6.1.32.4.176.5.81.1.136.1.43a.9.9 0 0 1 .356-.003c.148.168.341-.057l.188-.88.2.094c.208.1.399.1.587.1.075-.24.3-.42.5-.45.3-.3.4-.18.5-.071a3 3 0 0 1 .361-.11c.104-.24.2-.56.3-.74-.15.3-.27.5-.27.3 0 .401.525.1a1 1 0 0 0 .226.1 1.2 1.2 0 0 1 .271.1q.193.1.494.1c.278.31.425-.045a.6.6 0 0 0 .196-.174c.07-.104.1-.119.1-.708 0-.519-.009-.634-.058-.815-.118-.43-.182-.613-.208-.631a.6.6 0 0 1-.084-.142 3 3 0 0 0-.133-.255c-.124-.213-.184-.486-.153-.681-.9-.311.1-.49-.18.1-.358.1-.399a1 1 0 0 0 .058-.207 1 1 0 0 1 .058-.208c.052-.11.1-.352.2-.5a.6.6 0 0 1 .052-.163c.011-.18-.107.1-.196a1 1 0 0 1 .075-.222.3.25 0 0 0 .04-.124c0-.36-.134.1-.217a1 1 0 0 0 .057-.225c0-.38-.148.1-.24.1-.237.1-.865-1.1-.087-.227-.18-.53-.18-.592a.6.6 0 0 0-.048-.171c-.07-.17-.096-1.3-.03-1.4.067-.59.2.95.2.216-.52.3-.5.4.9.5.31.1.8.2.107.3.63.2.86.3.199.3.133 0 .185-.53.2-.207-.74-.199.1-.276.1-.163.1-.174.2-.35.1.124.2.204.3.163.1-.3.1-.36.1-.217-.023-.248-.42.1-.42.1 0 .9.15.1a.7.7 0 0 1 .8.2.2.2 0 0 0 .61.1c.52.58.1.58.4v.362l.101.1c.11.1.28.1.324.1a.7.7 0 0 0 .011-.22c-.002-.1 0-.21-.242-.89.1-.77.1.18.47.148.1.23.8.1.235.1.341.181.1.48.2.57.2.1.12.1.221.1.17.1.255.1.933 0 .412.797.854.183.2.628.3.773.1.145.3.423.6.634.1.112.5.601.5.672 0 .18.77.1.134.1.11.1.177-.2.4-.4.1-.51.2-.51.5 0 .385 0 .385.1.613l.107.2-.43.2a2 2 0 0 0-.43.2c0 .039-.26.1-.58.2a1 1 0 0 0-.58.3c0 .044-.14.1-.29.1a.5.5 0 0 0-.9.1.33.3 0 0 0-.4.2c.52.3.5.4-.11.5-.61.1-.78.3-.38.3a.7.7 0 0 0 .15.1c.122.1.16.1.59.1h.459l.029-.089c.014-.5-.13.1-.184a.5.5 0 0 0 .04-.124c0-.42.1-.1.2-.08q.4.35.1c-.6.1.12.2.98.2.35.96.136.1.101.1.514.1.6-.3-.23.1-.65.1-.089 0-.88.1-.77.2.3.1.6.1.107.2.107.1 0 .185-.11.2-.178q.036-.111.2 0c.98.1.243.1.31a.5.5 0 0 0 .095-.13c.049-.86-.106-.216a1 1 0 0 0-.119-.228 2 2 0 0 1-.09-.121.6.6 0 0 0-.115-.098c-.104-.071-.283-.293-.283-.347 0-.015-.026-.05-.055-.077-.115-.106-.26-.474-.28-.705a1 1 0 0 0-.058-.281 1.6 1.6 0 0 1-.173-.542 1 1 0 0 0-.07-.282 1.3 1.3 0 0 1-.072-.296.7.7 0 0 0-.043-.207.5.5 0 0 1-.043-.134.6.6 0 0 0-.06-.163.3.3 0 0 1-.041-.154c0-.139-.05-.243-.127-.275-.073-.027-.168-.142-.148-.178-.12-.154-.314-.16.1-.427.1-.59.1-.352.1-2.1.017-2.3a5 5 0 0 1-.072-.308 1.3 1.3 0 0 0-.08-.266.6.6 0 0 1-.062-.181.8.8 0 0 0-.12-.26.7.7 0 0 1-.1-.173.3.3 0 0 0-.057-.106.3.3 0 0 1-.058-.125.2.2 0 0 0-.04-.106.6.6 0 0 1-.06-.163.5.5 0 0 0-.076-.175c-.075-.095-.075-.24 0-.24 0 .6.7.14.268.2.413.3a.8.8 0 0 0 .248.1c.144.194 0 .26-.47.1-.69.1-.13-.285-.061-.145-.02-.183.1-.118.3.154.6-.71.4-.314a.3.3 0 0 1-.058-.125.4.4 0 0 0-.06-.154c-.044-.07-.053-.11-.032-.136a1 1 0 0 1 .274-.151c.06-.2.1-.95-.21a1.2 1.2 0 0 1-.07-.208l-.043-.183c-.017-.05-.003-.75.1-.11-.27.1-.74.1-.11-.118-.018-.743-.09-1a4 4 0 0 0-.32-.818 2 2 0 0 1-.105-.326c-.057-.22-.06-.323-.063-1.3 0-.906-1.1.046-1.2.026-.65.1-.172.1-.237-.65-.16.1-.207-.5.1-.184.1-.296-.116.1-.29.1-.394.1-.232.1-.382 0-.495a.4.4 0 0 1-.058-.163c0-.042-.026-.154-.058-.249-.046-.127-.063-.263-.069-.557-.011-.379-.011-.385-.098-.477-.081-.089-.087-.112-.107-.406-.035-.574-.043-.654-.06-.687a1.4 1.4 0 0 1-.064-.228 2.6 2.6 0 0 1-.012-.88 9 9 0 0 0 .05-.726c.014-.524-.012-.805-.09-.936a.3.3 0 0 1-.04-.115c0-.09-.191-.347-.475-.643-.153-.16-.277-.302-.277-.317s-.029-.036-.06-.044a.8.8 0 0 1-.183-.13c-.179-.167-.25-.211-.352-.211a.3.3 0 0 1-.188-.083l-.095-.08-.939c-.612-.97-1.038-.75-.98-.158-.03-.246-.2-.39-.254-.853-.325a.6.6 0 0 1-.193-.05c-.015-.15-.113.1-.231-.116.1-.25.1-.303-.139.1-.166.2-.127a.4.4 0 0 0 .162c.072-.3-.228-.087-.462a1 1 0 0 1-.06-.19.5.5 0 0 0-.06-.178c-.064-.095-.05-.192-.23.1-.54.2.8.2.216 0 .165.177.1.233.1.36.1.57.2.54.1-.1.1-.1.1-.187a.7.7 0 0 0-.066-.296.4.4 0 0 1-.04-.258c.017-.124-.148-.07-.24-.167-.195-.084-.423.1-.234q.137.2.303.1.145-.042-.017-.199c-.104-.097-.208-.29-.185-.343-.21-.39.1-.39.1 0 .112-.062-.096-.266-.17-.166-.205-.217-.205-.294 0-.86-.95.1-.74.2.5.2.36.2-.11-.133-.144-.165-.316-.098-.101-.211-.19-.254-.202a1.4 1.4 0 0 1-.217-.74.8.8 0 0 0-.217-.56.3.26 0 0 1-.136-.44.2.2 0 0 0-.1-.045c-.027 0-.096-.053-.157-.116a.45.5 0 0 0-.216-.136.5.5 0 0 1-.162-.62.2.24 0 0 0-.119-.41.4.4 0 0 1-.141-.045c-.133-.071-.286-.086-.335-.032m4.1 11a.4.4 0 0 0 .64.2.5.5 0 0 1 .6.2c.12.1.32.2.5.3.14.1.37.5.46.9.14.6.26.7.72.9a.6.6 0 0 1 .55.2c0 .33.127.204.1.214.1.738.97-.23.1-.55.2-.66.3a.6.6 0 0 1-.7.2.26.3 0 0 0-.49.1c0 .113-.31.2-.104.2-.08 0-.127-.091-.127-.26 0-.071-.04-.187-.115-.326a1.4 1.4 0 0 1-.116-.255c0-.2-.83.1-.14.1-.12.3-.343.3-.381 0-.015-.18-.214-.396-.445l-.396-.42-.008-.507c-.01-.299-.027-.539-.047-.578-.023-.053-.023-.91-.162-.54-.143.1-.199a1 1 0 0 1 .096-.237c.04-.74.1-.175.1-.222-.5.1-.13.1-.178-.5.1-.136.1-.198.1-.193.2-.19.2.012m-6.4 1.1.31.3a2.6 2.6 0 0 1-.92.6c-.29.1-.19.2-.24.2-.014 0-.84.1-.156.2-.7.1-.2.3-.286.4-.153.2-.196.3-.234.5l-.11.1a.4.4 0 0 1-.96.1c-.52-.15.1-.216.2-.107.1-.119.1-.93.2a.4.4 0 0 0 .13.1c.81.98.1.98.2a.3.3 0 0 1-.69.2c-.113.1-.133.2-.133.4v.21l.133.1c.72.142.1.153.1a.5.5 0 0 0 .101-.148c.078-.145.1-.19.2-.107.024 0 .281-.18.6-.67-.066 1.2-.014 1.5.26.2.63.3.86.4.84.2.188.6.188.7 0 .74.16.193.3.1.169.1.305.1.338.1.755.1 1.1-.58.5-.38.8.7.9.48.1.46.3-.1.5-.22.1-.57.3-.72.4a20 20 0 0 1-.52.5c-.26.2.26.8.14 1.5l.6.4c.14.1.43.3.63.4.32.2.3.2-.34.4-.4.1-.93.2-.122.2a.25.3 0 0 0-.52.1c0 .069-.225.3-.531.5-.174.1-.367.2-.436.3-.5.4-.486.4-.509a2 2 0 0 0-.049-.341 2 2 0 0 1-.055-.394c-.017-.267-.011-.297-.377a.3.3 0 0 0 .064-.124c0-.2-.8.1-.13a.8.8 0 0 0 .075-.217c.017-.106-.142-.055-.24a.6.6 0 0 1-.075-.157c0-.059-.263-.317-.324-.317-.034 0-.083-.053-.132-.142a1.3 1.3 0 0 0-.188-.246l-.107-.106-.382c.026-.323-.41-.017-.545a1.8 1.8 0 0 0-.29-.605.5.5 0 0 1-.095-.169c0-.03-.029-.11-.063-.18a.8.8 0 0 1-.072-.335 2 2 0 0 0-.038-.293.8.8 0 0 1-.029-.21c0-.19-.127-.655-.24-.878l-.1-.198-.01-.468c-.002-.305-.02-.507-.046-.572a.7.7 0 0 1-.037-.186c0-.098-.078-.29-.119-.29-.063 0-.017-.14.1-.24a.35.4 0 0 0 .119-.255.6.6 0 0 1 .043-.178c.015-.2-.1.1-.178-.77.1-.213.1-.302a.6.6 0 0 0 .043-.24.5.5 0 0 1 .029-.22c.043-.13-.15-.012-.367a3 3 0 0 0-.158-.43.7.7 0 0 1-.102-.337c0-.121-.148.1-.258.2-.198.5-.444.6-.477-.17.1-.74.2-.127.1-.5.1-.95.2-.95 0 .072-.5.1-.112.1-.6.2-.178.3-.261.3-.234.6-.59.6-.7 0-.132.6-.674.8-.674.1 0 .17-.166.3-.359a3 3 0 0 0 .139-.486c.066-.329.2-.619.2-.598.6.103.1.216"/></g></svg>