<svg xmlns="http://www.w3.org/2000/svg" version="1.0" viewBox="0 0 361 346"><path d="M134.1 1.6c-13.9 1.3-14.7 1.5-23 5.8-4.7 2.4-15.3 7.1-23.6 10.4C66.4 26.3 60 29.3 51.8 34.6c-18.6 12-25.5 20.5-40.4 49.9L0 107.1v12.2c0 16.6 2.8 26 11.7 39.7 2.9 4.6 4.6 6 10.2 8.7 3.9 1.9 10.1 6.3 15.1 10.8C57.3 196.6 68.4 204 75.2 204c2.2 0 3.4 1 6.1 5.2 7 10.8 12.6 13.6 30.8 15.4 8.8.9 13.9 1.9 16.7 3.3l4 2 6.3-2.1c5.1-1.7 7.6-3.3 12.1-8 5.5-5.6 6-5.8 10.8-5.8 3.2 0 5.2.5 5.4 1.2s1.4 9.1 2.7 18.6c2.2 16.7 2.2 17.4.5 25.1-2.6 12.3-2.4 16.5 1.1 21.4 1.6 2.3 5.5 8.8 8.6 14.3 6.2 11.1 12.9 19.2 19 23.1 5.3 3.3 49.2 18.7 65.2 22.8 15 3.9 29.6 5.8 40.9 5.3l8-.3 3.2-5.5c1.8-3 7.9-10.5 13.6-16.6 9.8-10.6 13.8-16.7 15.2-23.6.3-1.4 3.3-6.3 6.6-10.7 7.3-9.9 7.5-11.4 2.8-31.3l-3.2-13.8 2.2-4.5c2.9-5.9 2.9-9.9 0-11.9-1.5-1.1-2.6-1.2-3.2-.6-3.6 3.6-9.6-2.1-9.6-9.1 0-7.1 7.3-24.5 14.9-35.9 7.4-10.9 6.8-12.9-6.4-22.5-10.3-7.5-18.5-15.4-18.5-17.7 0-.7 2.5-3.3 5.6-5.8 8.1-6.4 8.8-9.2 5.4-20.2-2.3-7.4-7.8-14.5-14.9-18.9-4-2.6-4.9-4-11.4-18.4l-7-15.5-13.6-13.3C269.9 25.4 248.5 12.8 225.5 9c-3.8-.7-9.7-2.2-13-3.5-11-4.3-20.9-5.5-43.4-5.4-11.3.1-27.1.8-35 1.5"/></svg>