<svg xmlns="http://www.w3.org/2000/svg" viewBox="0 0 1627 1852"><g transform="translate(-1173 -71)"><path fill-rule="evenodd" d="M2187 1559c-7 1-13 2-14 4s-5 4-10 6l-15 7a40 40 0 0 1-13 4c-3 0-6 0-7 2h-4c-1-2-4-2-7-2l-7-3c-4-3-14-3-19 0-5 2-15 4-34 6-21 2-31 7-39 21-3 8-3 37 0 42 2 2 3 5 3 7 0 3 13 24 19 29 8 7 14 10 22 10s15-4 15-10c0-3 1-3 10-2h11l2-6c1-5 2-6 8-5l10 2c9 5 15 0 17-16 2-13 7-18 15-14 9 3 15 0 28-14 18-21 22-26 22-28l3-4c4-4 3-29-1-33-2-2-9-3-15-3m-357 0-5 1c-2 0-4 1-5 3-4 4-5 14-2 16l1 5c0 3 2 8 5 11l4 8c0 2 39 37 42 37l7 8c6 7 12 11 24 14 6 1 13 8 13 11 0 2 4 6 9 10 9 8 9 8 21 8 11 0 13 0 17-4l7-4 2-3 2-7c3-4 5-27 4-41l-1-12-10-5a32 32 0 0 1-15-13c-7-10-16-19-27-24-7-4-10-4-31-5h-23l-9-6c-8-6-10-6-23-7a196 196 0 0 0-7-1m19-53c-5 0-9 2-10 4l-4 6c-3 3-4 5-4 15 0 8 1 12 3 13l2 4c0 3 9 6 22 9 15 3 21 3 28-1 5-2 5-2 5-11 0-20-2-26-9-32l-13-7a71 71 0 0 0-20 0m254-5h-5a10 10 0 0 0-5 3 14 14 0 0 1-5 3 8 8 0 0 0-4 4 78 78 0 0 1-3 9c-5 10-4 19 4 28 9 10 15 12 50 11 29-1 32-1 40-9 3-2 4-4 3-13l-3-11-7-5c-3-2-6-4-9-4l-16-4-16-6a30 30 0 0 1-7-3 26 26 0 0 0-10-3zm-60-8c-15 0-35 2-41 5a123 123 0 0 1-12 3l-7 4c-2 2-7 2-38 0-51-3-47-3-47 3-2 14 24 40 40 42l18 2 17 2c8 1 28-5 32-8 5-4 15-6 18-4 2 2 9 3 10 1l9-3a37 37 0 0 0 24-20c4-10 3-19 0-23a24 24 0 0 0-11-4h-13Zm-127-85c-2-1-5 0-10 2-6 2-7 4-8 9-1 4 0 7 3 12 8 13 8 13 4 21-5 10-5 21 1 27s22 8 49 7c18 0 20-1 26-5 7-6 12-15 10-22-1-6-8-15-12-15l-4-2a9 9 0 0 0-6-3l-5-1a49 49 0 0 0-13-5c-15-3-20-5-20-9 0-2-3-6-7-10-3-4-5-6-8-6m-658-382h2l-1 4c-2 2-2 1-2 0zm311-181-7 1v23l5 2 9 1c22 2 30-2 30-12 0-4-1-7-4-10-4-3-7-4-18-5zm551-329c-5 0-9 1-9 4 0 5-5 8-17 8-11 0-13 0-18 4-9 8-11 9-19 7-9-2-11-1-14 6-2 5-2 7 0 11 3 6 11 8 35 7 19-1 21-2 32-7a43 43 0 0 1 20-6c10 0 14-4 14-12 0-7-1-9-8-15-4-4-11-6-16-7m-511-242a61 61 0 0 0-18 15l-6 8-6 8-2 4-6 9a38 38 0 0 1-6 10 8 8 0 0 0-3 5l-1 4c-1 0-5 4-8 10s-9 14-12 17a29 29 0 0 0-6 8 61 61 0 0 1-9 10l-10 13c-3 6-5 10-11 17-6 9-8 13-10 20l-2 7-2 9c0 11 6 17 16 17 6 0 8-1 11-5 5-6 11-16 13-21l8-10 6-7c0-3 9-13 12-13 4 0 4-2 4-6l3-12 4-11c1-3 2-5 4-5l5-7 7-9c1-1 7-5 12-11 10-9 10-9 10-19 0-9 1-11 6-16 6-6 6-7 6-21 1-12 0-15-2-16a7 7 0 0 0-7-1Zm467-24-7 2c-1 3-3 34-1 34s8 17 10 29a31 31 0 0 0 2 9 32 32 0 0 1 3 9 460 460 0 0 0 19 59l3 11c0 3 1 7 3 9l4 17c5 30 11 55 15 64 7 13 18 19 27 14 5-4 11-4 15 0 3 3 3 5 1 17a458 458 0 0 0-3 31h-6c-8-1-11 2-12 10 0 10-2 15-5 17a56 56 0 0 1-19 6c-6 1-9 7-9 16 0 7 0 9 4 13 5 5 6 5 18 5h13l7 6 7 9c0 2 7 10 12 12l6 3v32a313 313 0 0 0 0 38c-1 2-2 1-7-3a28 28 0 0 1-6-11l-2-5-2-8a20 20 0 0 0-2-11 14 14 0 0 1-3-7c0-4-12-23-14-23a22 22 0 0 1-7-5c-11-11-29-15-36-7l-5 10c-1 7-3 7-11 2-6-4-7-8-8-19l-2-8-1-4c0-3-6-6-17-8-7-2-9-6-11-25-2-13-2-14-6-15-3 0-8 2-13 5l-11 8-6 4c-2 3-7 3-26 4l-44-1h-21l-9-8a36 36 0 0 0-11-9c-4 0-8 6-9 13 0 4-1 11-3 16a550 550 0 0 0-3 27 66 66 0 0 1-3 19l-2 9a73 73 0 0 1-2 14c-2 9 1 27 5 29l2 4c0 5 14 20 26 28l19 17c17 17 21 26 9 24l-6-2-4-1a8 8 0 0 1-5-3 17 17 0 0 0-6-4 134 134 0 0 1-30-23l-11-9-4-4-3-4-3-5-2-3c-2 0-9-12-12-21-2-6-2-9 2-25 8-32 10-41 10-50l-1-9h-10c-9 0-12 1-18 5l-10 7-7 4c-5 4-19 4-23 1a9 9 0 0 1-2-6l-1-26v-24l-6-1c-4 0-6 1-13 7a59 59 0 0 1-13 11c-8 3-23 3-39 0-17-4-22-3-32 7-6 7-8 10-9 17-2 18 2 24 19 24 12 0 34-4 39-6 7-4 20-3 28 2l7 6c0 2-6 10-9 13a137 137 0 0 0-20 25l-3 4a9 9 0 0 0-2 6l-2 5-3 13a148 148 0 0 0 2 52c3 12 3 50 1 52l-2 5c0 8-2 10-9 7a18 18 0 0 1-9-6l-5-8a37 37 0 0 1-5-8 98 98 0 0 1-9-26c0-4-7-16-10-19l-2-4-2-7c-1-2-4-10-5-17l-5-21-4-15c-2-11-8-21-13-24s-5-2-7 1c-5 6-7 16-7 41a156 156 0 0 1-3 30 90 90 0 0 0-3 19c0 8-2 13-3 13-2 1-2-4-1-25a275 275 0 0 1 14-99l4-12a33 33 0 0 0 3-10 8 8 0 0 1 3-6l2-4 5-11 5-12 3-5a68 68 0 0 0 7-22c1-7-3-11-15-13-13-1-15-2-22-9-3-4-7-6-9-6-5 0-11 8-11 14a36 36 0 0 1-3 10l-4 17a39 39 0 0 1-3 13l-2 8c0 3-1 8-3 9a14 14 0 0 0-2 7 25 25 0 0 1-3 8 37 37 0 0 0-3 12 20 20 0 0 1-4 8 11 11 0 0 0-2 7l-3 10a123 123 0 0 0-5 10 139 139 0 0 1-16 29 61 61 0 0 0-6 11l-4 5-3 5-4 6a44 44 0 0 0-6 9 125 125 0 0 1-16 18l-18 19a26 26 0 0 0-4 11l1 2h40l3-2c9-8 13-11 14-10l3 14a151 151 0 0 0 5 20 50 50 0 0 1 2 10c0 2 4 7 8 12l8 8h16l16 1 7-7c9-10 11-9 10 3a70 70 0 0 1-2 12l-2 7c0 3-1 7-3 9a49 49 0 0 0-2 20c0 19 2 21 24 23 12 1 17 2 20 4 4 4 4 6 0 16l-4 7h-20c-16-1-20 0-23 2-4 4-7 14-8 27-1 6-2 11-4 12-4 2-21-5-29-12-11-11-22-17-28-17l-5 1-1 17c0 14 0 18 3 19l2 4c0 4 11 13 18 15l8 3 16 2c8 0 19 1 24 3 6 2 17 2 35 3 22 0 26-1 30-3 6-4 30-4 36 0 2 1 7 3 11 3l12 3a36 36 0 0 0 24 1c5-2 4-2 23 7a73 73 0 0 0 13 5c6 0 25 13 31 22 6 8 6 8 6 29 0 16-1 22-2 24a25 25 0 0 0-4 8c-1 6-4 7-5 2-2-15-4-23-7-24-4-1-13 1-17 5-2 2-7 2-19 2-15 1-17 1-21 5-3 4-5 5-12 5-10 0-14 3-14 13 0 13-2 22-7 27s-6 5-16 5l-11-1-6-2-6 2-6 1a36 36 0 0 0-11 3 40 40 0 0 1-29 0c-3-1-13-10-22-20a157 157 0 0 0-18-16l-9-5c-9-6-20-6-27-1-6 5-11 20-11 33a92 92 0 0 0 10 40l3 7a16 16 0 0 1 4 6l4 6c3 2 4 4 4 5l9 15c5 7 9 14 9 17l3 3 2 4 7 11 7 12 11 17 3 5 4 5 3 5 3 5a371 371 0 0 1 25 34l4 5a95 95 0 0 1 8 12l8 11 3 4 1 2 20 24 6 11 2 5c2 1 3 2 3 4a409 409 0 0 1 14 34c8 16 12 16 31 0 33-28 40-33 59-41l14-10c6-7 6-7 5-17-1-9-1-11-7-16a31 31 0 0 1-6-8c0-1-2-4-5-6-4-5-4-6-4-21 0-14 0-16 4-23 3-4 6-7 7-6 2 0 11 17 12 22a22 22 0 0 0 3 8l4 10c3 15 17 33 29 35l7 2 17 2c21 1 26-2 39-24 3-4 4-4 13-4 8 1 11 0 12-2a9 9 0 0 1 6-2 94 94 0 0 0 26-13c6-4 8-9 8-26 0-19-2-22-17-28a63 63 0 0 1-17-11 67 67 0 0 0-7-5 41 41 0 0 1-8-12c-4-8-4-10-4-28 0-20 0-20 5-24 4-4 14-5 16-2l1 14 2 14a41 41 0 0 1 6 7c9 15 19 21 26 15 2-3 3-2 8 2l6 8 3 6c3 6 7 15 7 19l2 7c2 2 3 6 3 8l1 7c3 3 6 29 5 37l-4 7a4 4 0 0 0-2 3 33 33 0 0 1-8 10c-4 4-9 10-10 13-3 7-3 25 0 27l2 4c0 2 5 7 7 7l4 2 13 5 14 4 23 2 26 2a147 147 0 0 1 29 13l17 15c18 16 23 20 35 21 15 2 20 0 26-9l5-7v-42c0-37 1-43 3-48l3-11c0-2 1-6 3-8l2-6 4-10 3-11c0-5 3-10 15-29l11-16 3-6a43 43 0 0 0 3-7l7-13a179 179 0 0 0 8-13l6-10c2-2 8-15 12-28 1-6 4-12 5-14l2-11c1-4 2-8 4-9l2-5c0-4 6-18 11-25l8-13 6-12c2-2 3-8 4-22 1-24 4-40 7-47 3-5 4-15 1-15l-4-2c-2-3-9-3-36-4-30-1-34-1-38 2a17 17 0 0 1-8 3l-5 2c0 2-2 3-3 3a63 63 0 0 0-20 14l-8 11a100 100 0 0 0-15 21 32 32 0 0 1-21 15h-9l-4 1c-5 4-18 6-26 4a33 33 0 0 1-8-4l-6-1c-5 0-8-5-6-10 4-7 3-13-2-15-2-2-6-2-7-2l-5-2c-6-5-57-7-75-2l-26 3c-14 0-20 2-23 4a39 39 0 0 1-8 4c-3 1-8 5-21 21-4 4-6 5-11 5-7 0-11 5-11 14 0 15-8 21-11 8l-6-39a580 580 0 0 0-10-51c-3-2-2-6 3-15 4-11 14-20 27-26a71 71 0 0 0 12-7l5-2 12-3 14-4 8-2 38-2a184 184 0 0 0 68-9l18-3c30-2 62-6 67-8a30 30 0 0 1 10-3 109 109 0 0 0 23-6 66 66 0 0 0 19-14c4-5 5-7 6-23 1-14 2-19 5-24 11-19 11-17 11-37 0-32-7-43-20-32-6 5-15 6-18 1-3-6-2-23 2-28 4-6 4-15 1-18l-6-8c-3-6-3-7-1-11l5-9c9-9 16-27 23-53 5-23 4-27-5-37a115 115 0 0 0-29-24l-7-7c-5-8-4-23 3-35l5-9-1-38c0-38-1-52-8-83a363 363 0 0 0-9-37 443 443 0 0 1-13-40l-3-6c-2 0-3-2-3-3l-3-6a16 16 0 0 1-4-8l-1-4-6-10-12-22-4-7a86 86 0 0 0-5-10 137 137 0 0 1-7-13 48 48 0 0 0-6-10 31 31 0 0 1-5-7l-6-7-3-6c0-3-8-3-11 0v15l4 17 5 10 6 12a161 161 0 0 1 8 14l4 7 2 5c0 2 1 5 3 6a8 8 0 0 1 2 5c0 2 1 3 2 3l3 8c1 4 3 8 5 8l2 5 3 11c3 10 3 41 0 45-5 7-24-5-32-21l-5-10a213 213 0 0 1-15-48 239 239 0 0 0-5-20 55 55 0 0 1-3-13l-3-9-2-10c0-10-14-40-23-49-5-5-8-7-12-7m-275-39c-11 0-16 12-12 28l3 17a34 34 0 0 0 2 10l1 6c-1 3 0 7 2 11l5 14 1 7-10-9c-14-14-21-11-16 7l3 19c1 11 1 12 9 21 11 12 13 17 10 22v17l4 16c1 3 0 7-2 7s-14-19-17-25a67 67 0 0 0-5-10l-6-9c-1-3-3-3-7-3-4 1-5 1-6 7l-1 19c0 12 0 12 7 19l7 7v19c0 18 0 20-4 25l-7 6-9 9a28 28 0 0 0-7 18c-2 16-1 18 12 18 15 1 19 0 21-4l3-5 4-5 5-9a218 218 0 0 0 6-10c5-9 7-6 7 14 0 11 0 14-3 18-2 2-4 4-5 3l-4 3a32 32 0 0 1-11 6 90 90 0 0 0-10 4l-9 3-12 3a22 22 0 0 1-9 3l-7 2-7 3-6 2-4 3-6 4c-6 6-7 16-2 19 3 3 15 2 24-3l11-3a42 42 0 0 0 10-3l12-2 12-4 8-3 5-3c3-2 3-2 7 0a19 19 0 0 0 9 3c3 0 4-1 5-5 1-6 5-9 15-12 6-2 6-2 8-14 3-16 2-16 17-12a69 69 0 0 1 15 7c4 3 26 7 45 8l19 3q9 4.5 18 0c5-3 15-3 19-1a158 158 0 0 0 41 9l14-2 9-3c8 0 12-12 6-17-2-2-8-3-18-4-14-1-15-1-20-7-4-3-6-6-6-7 0-4-9-5-14-2s-15 5-17 3l-22-3c-10-2-22-3-26-5-8-3-26-3-29 0a24 24 0 0 1-8 3c-7 2-13 0-13-4 0-2-1-3-2-3-3 0-6-5-11-18a68 68 0 0 1-2-7 514 514 0 0 1 23-11l7-3v-13c0-13-5-35-9-42l-2-6c0-2-1-3-2-3l-4-6-9-14a62 62 0 0 1-6-10 87 87 0 0 0-5-9 90 90 0 0 1-7-21l-3-11-3-13a241 241 0 0 0-10-42 27 27 0 0 1-2-9 8 8 0 0 0-3-5l-2-5a37 37 0 0 0-4-9c-3-6-4-7-8-7m216-140c42 0 43 0 43 3s1 5 5 6a258 258 0 0 0 52 13l12 3c5 0 11 2 13 3l8 2c5 0 28 8 43 15l10 4 4 3a8 8 0 0 0 5 2c4 0 27 12 27 14l3 1a49 49 0 0 1 19 10 54 54 0 0 0 9 5c11 4 25 15 27 21l8 8a1005 1005 0 0 1 99 108c3 5 3 10 2 35 0 30-1 33-8 49a41 41 0 0 0-3 11c0 5-3 6-7 2l-6-4-12-10a66 66 0 0 0-12-10c-2 0-35-33-36-36-1-2-15-16-22-21-4-3-7-4-12-3-7 0-7 1-8 6a23 23 0 0 0 2 11l3 6a47 47 0 0 0 5 10 101 101 0 0 1 7 10c2 5 6 10 9 12l3 4c0 2 1 4 4 6l4 4c0 2 13 18 25 31 14 17 21 28 21 37 0 6-6 20-9 20l-1 1-2 7a71 71 0 0 0-4 14c-2 10 1 9-27 13-6 1-13 4-14 5a24 24 0 0 1-6 4l-5 9c-2 6-2 9 0 15l4 10c1 1 3 3 3 5 2 6 12 2 19-7l11-7c7-4 7-4 11-1 5 3 11 12 15 21l3 8 2 6 2 7 3 4c0 4 15 34 20 40l9 15c1 4 16 22 22 27 7 6 15 10 18 9s4-2 4-16c-1-9-1-16-3-19a22 22 0 0 1-3-7l-3-11a32 32 0 0 1-3-10l-2-4-3-8c-1-7-7-22-15-39a121 121 0 0 1-12-35c-3-14-2-36 2-41a15 15 0 0 0 3-8c0-2 1-5 3-6 2-2 3-5 3-7 0-3 1-5 2-5 1-1 2-5 2-11 1-13 8-27 16-34 3-2 6-6 6-9l3-13 3-22c2-14 3-19 6-19a56 56 0 0 1 13 19l3 6a46 46 0 0 1 3 13c0 7 0 9-3 11l-6 4c-9 0-18 17-21 35a55 55 0 0 0-1 16c3 7 18-1 22-10 1-2 2-4 4-4 1 0 3-1 3-3 0-3 3-4 13-4 7 0 9 1 14 7a84 84 0 0 1 19 44l2 9 3 8a108 108 0 0 0 37 35c3 3 14 3 15-1s-2-19-6-28c-4-10-2-14 5-8 8 6 15 9 21 8 10-2 24-12 34-23a53 53 0 0 1 11-11l8 10c7 10 8 11 16 13 10 2 28-1 34-6l8-3 5-1c2-3 19-2 22 1 4 4 3 5-4 9a173 173 0 0 1-36 17 8 8 0 0 0-5 2 8 8 0 0 1-5 3c-3 0-20 8-24 11-7 6-2 12 14 15l13 5c0 1-2 4-5 6a93 93 0 0 0-13 12c-3 5-7 8-8 8s-2 2-2 5l-2 6a56 56 0 0 0-4 17l-1 14-8 3-28 12a22 22 0 0 1-7 2l-9 4a33 33 0 0 1-10 3l-5 2 36 49a231 231 0 0 1 23-17c0-1 2-3 5-4a25 25 0 0 0 8-5l4-3 25-23c20-20 29-28 44-36 2-1 8-3 14-3 9-1 9-1 10 3 3 13-7 25-19 25-8 0-14 4-14 9 0 6-2 9-10 13-9 4-17 13-17 20 0 5-5 9-12 9-6 0-8 3-8 11s0 8-13 10c-12 2-14 6-14 27-1 15 0 19 2 21l3 5 6 7 6 8 4 6 7 9a136 136 0 0 0 7 12c5 8 4 7 9 23l5 13c1 0 2 2 2 5l1 5a21 21 0 0 1 4 6l8 11a63 63 0 0 1 8 11l5 9 1 13c0 15 0 17 9 16 9 0 11 1 8 5a49 49 0 0 0-9 19l4 7c3 2 5 5 5 6l3 6c3 4 3 7 3 14 0 8-1 9-4 9l-6-1-11-3c-8-1-9-1-10 4-1 6 4 30 7 34a11 11 0 0 1 2 6l3 6 4 8 2 7 2 10c0 8-1 10-5 14-3 3-6 5-8 5-1 0-5 3-8 7-5 5-6 8-6 12 0 9-7 28-13 37-8 11-9 17-9 38 0 16 0 21 5 35l8 23a82 82 0 0 1 5 10 255 255 0 0 0 21 42 349 349 0 0 0 36 63c2 0 7 12 8 18 2 8-2 11-7 6-6-5-12-4-17 1-12 12-6 55 7 63 9 4 13 3 17-7a143 143 0 0 0 5-12c2-5 4-3 5 4 1 6-1 30-3 34a103 103 0 0 0-1 34c2 7 3 19 4 60l2 40c1 4 0 8-3 15-5 8-5 9-4 26 1 16 3 29 8 46l3 15a87 87 0 0 0 4 13 56 56 0 0 1 2 15c2 20 6 35 11 35 7 0 8 33 2 60l-5 20c-7 18-8 20-7 54v34h-7c-3 0-7-2-8-3l-4-2c-6 0-23-25-23-34 0-7-8-15-20-21-13-6-18-6-25 0l-5 4-3-4a13 13 0 0 1-3-6l-3-4a9 9 0 0 1-2-6l-2-5v-8c0-6 0-10-4-17a52 52 0 0 1-5-13l-1-4-3-12a59 59 0 0 0-4-17 32 32 0 0 1-3-9 34 34 0 0 0-3-8l-4-11-16-18c-11-12-13-14-11-16 2-3 8-4 9-1l12 2c14 0 15-2 14-19-1-7-2-19-1-27 0-12 0-15-2-17l-3-4-12-14c-11-10-17-14-38-24a372 372 0 0 1-28-15c-3-3-4-4-15-10l-9-6a81 81 0 0 0-16-9 243 243 0 0 1-22-11 18 18 0 0 1-5-3 16 16 0 0 0-5-4l-6-3c-12-7-26-12-33-12-2 0-5 1-6 3-2 5 1 24 6 34l4 11c0 2 2 3 3 4a5 5 0 0 1 2 4l2 4a140 140 0 0 1 19 26l17 24a35 35 0 0 0 5 8 12 12 0 0 1 3 7l2 4c8 5 20 50 13 50-4 0-24-21-33-35 0-2-3-5-6-8a113 113 0 0 1-8-11 225 225 0 0 0-31-36c-13-14-17-16-21-16s-6 1-6 3a97 97 0 0 0 2 31l4 11 3 11 3 9 3 12a105 105 0 0 1 4 29 120 120 0 0 0 2 25l1 8c0 5 6 19 20 45 3 6 3 15 1 15l-7 4c-7 6-10 6-15 0l-6-4a22 22 0 0 1-8-5 39 39 0 0 0-7-5c-2 0-15-10-19-13l-5-4-12-9c-14-12-22-18-26-18a8 8 0 0 1-5-2c-3-4-36-4-39-1-1 2-4 3-6 3-5 1-16 14-16 20a10 10 0 0 1-2 5c-2 2-10 29-10 35a24 24 0 0 1-3 8 24 24 0 0 0-2 10l-3 9a20 20 0 0 0-4 8l-1 3-14-7c-6-5-17-4-17 2l-3 6a16 16 0 0 0-4 7l-1 2-2 2c0 3-13 24-19 30a32 32 0 0 0-5 8 9 9 0 0 1-4 4l-7 4c-5 5-15 5-30 2-18-3-24-2-34 7a34 34 0 0 0-8 10c0 1-1 4-3 5a22 22 0 0 0-5 11c-1 8-5 10-5 3q0-4.5-3-6c-1 0-2-2-2-5 0-2-3-6-7-10-8-7-15-7-20-1-5 5-10 5-11 1-1-2-3-2-12-2-9 1-13 1-17-2l-9-4a81 81 0 0 0-31-8h-10l-14-14c-13-13-34-37-34-39l-13-15-13-13-11 1-11 1-4-6-3-7v-3a43 43 0 0 1-11-17l-1-3-3-4-4-7-3-4c0-3-14-19-19-22a33 33 0 0 1-14-12 205 205 0 0 0-7-8 73 73 0 0 1-11-19l-2-1-3-5-2-4-4-5-7-13-10-18a419 419 0 0 0-9-16l-16-34a899 899 0 0 0-19-36 502 502 0 0 1-6-11l-6-10a240 240 0 0 1-5-9c-5-8-12-11-16-6-2 2-4 14-5 31l-6 47a1713 1713 0 0 0-11 89c-1 17-1 17-18 31-13 10-15 10-14 0l3-21a179 179 0 0 1 10-49l2-5c4-3 8-21 8-31l2-17c1-9 0-12-5-12-4 0-10 9-10 15l-2 4c-1 0-3 3-4 7-3 6-23 27-27 27l-28 26a254 254 0 0 1-32 29 40 40 0 0 1-14 2q-7.5 0-9 3l-3 2c-3 0-11 10-11 14l-2 4-2 10c-2 12-5 15-10 10a26 26 0 0 1-4-9c0-3-2-5-4-5a4 4 0 0 1-3-2c-1-2-3-3-6-4a45 45 0 0 1-24-14c-11-11-15-17-14-19l14-1h12l12-12c10-11 12-12 18-12l7-2 7-2 8-1 6-3c3 0 10-5 16-12 11-10 23-17 28-17l7-4 7-3 5-4 5-3c4 0 28-25 28-28 0-6 11-25 16-28 5-2 5-3 6-15 1-7 1-13-1-14-4-4-16 2-32 17a84 84 0 0 1-35 21c-10 2-15 4-22 9-14 10-18 11-38 12-15 1-19 1-24-2a54 54 0 0 0-21-2c-18 0-21 1-30 10-4 4-4 4-9 2-7-4-11-1-20 13a61 61 0 0 1-9 14l-2 3c0 3-9 12-24 26-22 20-24 21-43 24-4 1-7 0-8-1l-9-2-11-1-9-3c-3 0-5-2-5-4l-2-8a24 24 0 0 1-3-6c0-1-1-6-4-10a128 128 0 0 1-5-16c-6-20-6-22-4-23l1-8c0-10 7-22 25-40a194 194 0 0 0 39-50l2-8c0-9-5-12-14-9-6 2-9 1-9-2s6-10 10-10l6-2 8-6c7-5 18-19 18-23l2-6c7-7 13-41 13-66 0-9-3-19-7-29a22 22 0 0 1-3-8l-3-6c-2-2-4-4-4-6l-1-6c-4-6-9-18-9-20l-2-4c-2-1-3-3-2-3 2-2-3-7-7-7-5 0-8 6-13 22-4 12-5 13-13 13-4 0-6-1-9-8-5-9-5-11 3-32a124 124 0 0 0 5-21l3-11c2-3 1-21-2-23l-2-5c0-2-2-6-5-9-4-5-5-7-5-18l-1-14c-1-4-14-3-22 1-7 3-8 3-11 1-3-3-7-18-7-27l-2-9c-3-6-9-6-16 2-5 5-6 6-8 4-6-6-5-31 2-39 6-7 13-23 13-30s-1-7-6-7l-8-1c-3-2-2-6 2-8l3-4 8-8c4-4 7-8 7-10l2-4c5-3 12-27 12-37-1-7-1-7-9-7-7-1-8 0-12 5l-4 7c0 2-1 3-2 3s-2 1-2 3l-2 4-3 6c-1 4-5 5-5 2l8-30 5-17c0-3 2-6 3-7 2-1 3-4 3-7 0-2 1-7 3-10a23 23 0 0 0 3-9 10 10 0 0 1 3-5l2-5a79 79 0 0 1 8-21c2-2 3-5 3-7l2-6 3-3c0-3 9-21 10-22 1 0 2-1 2-3l3-10 3-9a13 13 0 0 1 3-6l2-7 4-8 3-9c0-2 1-4 3-5l2-5 9-27a34 34 0 0 0 3-12l2-8c2-4 5-19 6-34 1-13-3-25-8-27-4-1-7-7-7-14 0-6-6-14-11-14-4 0-14 8-14 11l-3 5a40 40 0 0 0-6 9l-9 13c-3 4-6 8-6 10l-3 5c-9 14-14 21-14 23l-3 5c-2 1-3 4-3 6l-2 3-6 10-6 10-2 4-1 5-5 7-6 10-5 10a131 131 0 0 1-6 11 39 39 0 0 0-5 8l-3 2c-3-1-3-6-1-10s6-24 8-37c1-7 10-26 14-29a50 50 0 0 0 6-8l10-13 6-8a52 52 0 0 1 8-10 294 294 0 0 0 17-20l9-16c6-12 7-16 7-25 0-13-3-18-11-18-2 0-7 1-10 3-6 3-16 17-16 22a9 9 0 0 1-3 6 9 9 0 0 0-3 6l-1 7a37 37 0 0 0-3 6c-1 4-3 2-5-5a114 114 0 0 0-5-24c-2-4-13-2-20 5-4 4-8 6-9 6l-5 4c-4 4-12 4-13 0-2-4 0-12 3-19l3-6 9-9a61 61 0 0 0 21-26l6-9 2-2 5-8c8-13 2-27-14-36-7-4-7-6 0-7 4-1 5-2 6-5 0-4-2-6-9-13a140 140 0 0 0-13-10l-13-12c-11-9-11-9-7-11 8-3 7-11-2-21-2-3-5-4-6-4s-2-1-2-3l-6-8-6-8-4-8c-6-12-3-17 5-9 3 2 5 5 5 6l5 6 4 6c0 1 2 4 5 6l8 10c1 3 3 5 5 5l2 2c0 2 3 5 7 9 8 7 18 9 33 7 19-3 38-18 40-33 2-9-2-24-9-33l-5-9-6-10a54 54 0 0 1-6-9 27 27 0 0 0-6-8 37 37 0 0 1-5-8l-11-16-11-17c0-2-2-4-3-4a5 5 0 0 1-2-4 26 26 0 0 0-3-9 62 62 0 0 1-7-24c0-5 1-6 6-6 6-1 7 0 10 5l12 14c5 4 9 9 9 10s1 4 4 6l4 6 1 3c1 0 4 4 6 9a268 268 0 0 0 9 17l6 10 5 8 6 11c4 8 34 38 45 43l10 9 10 8 15 13c8 8 15 14 17 14l5 1 12 2c10 0 12-1 16-5a21 21 0 0 0 5-9l3-6c2-1 2-20 0-21a102 102 0 0 1-10-13c-8-13-26-34-29-34s-29-18-38-28c-15-14-14-18 3-9l7 3c3 1 10 6 15 11 5 4 18 10 23 10 3 0 14 10 14 12l5 7c3 3 6 4 12 4 11 0 16-5 28-25a213 213 0 0 1 10-18 533 533 0 0 1 28-57l5-9a156 156 0 0 1 23-27l4-5c0-2 22-25 24-25s6-4 6-6l6-6 6-5a398 398 0 0 1 53-48c1-2 38-27 49-33a897 897 0 0 1 44-26 398 398 0 0 1 52-27 8 8 0 0 1 5-2l8-3a23 23 0 0 1 8-3l6-2c2-2 9-3 22-4a250 250 0 0 1 85 9c13 4 20 3 33-8l17-12c11-5 12-6 12-9 1-4 1-4 44-4"/></g></svg>