<svg viewBox="0 0 31 33" xmlns="http://www.w3.org/2000/svg"><g transform="translate(-591 -359)"><path fill-rule="evenodd" d="M611.1 371.9c.083 0 .071 1.1-.018 1.8-.143-.5 1.8-.986 2.2-.235.2-1.1.66-1.8 1l-.717.4.006 3.1.009 3.1.4.1c.895.1 1.7.395 2.4.775.4.213.7.39 1.3.823 1.2.81 1.8 1.2 2.3 1.3.249.1.918.1 1.1.076l.077-.017-.003-3.3v-3.3l-.731-.36c-1.3-.63-1.9-1-2.1-1.4-.45-.66-.645-1.5-.672-2.8-.015-.675-.012-.758-.758.2 0 1.2.392 1.8.666 1.3.61 2.1 1.3 2.5 2.1.177.3.24.6.257 1l.18.4h.332l.127-.277c.433-.929 1.5-1.8 3.1-2.5.448-.185 1.2-.436 1.2-.406.32 1.2-.018 1.5-.139 1.1-.453 1.9-.96 2.4-.281.3-1.3.837-2.1 1.2l-.423.2v5.6l.216.1c.696.3 1.2 1 1.6 2.1a7.6 7.6 0 0 1 .35 1.9l.2.4h-25.9l-.036-.127c-.154-.569-.222-1.3-.175-1.8.122-1.3.759-2.3 1.8-2.8l.294-.142v-5.3l-.495-.236c-.815-.389-1.6-.852-2-1.1-.284-.219-.575-.655-.75-1.1a6.6 6.6 0 0 1-.275-1.2c-.039-.31-.053-1.6-.018-1.6.03-.27.8.247 1.3.436 1.1.454 2 1.1 2.5 1.7.223.3.463.6.557.9l.74.2.166.166v-.203c0-.767.3-1.4.99-2.1.456-.448 1-.846 1.8-1.2.709-.345 1.8-.74 1.8-.681.44 1.3-.033 1.7-.142 1-.46 1.8-.933 2.2-.273.2-1.2.767-2.1 1.2l-.513.2v6h.101c.053 0 .27-.15.5-.03a13 13 0 0 0 3.4-.725 12 12 0 0 0 1.8-.864c.593-.368.9-.518 1.6-.68l.124-.033v-5.2l-.628-.31c-1.1-.527-1.8-.976-2.1-1.3-.392-.421-.664-1.1-.803-2-.054-.342-.095-1.8-.05-1.8.014-.14.2.24.4.104.33 1.9.787 2.6 1.3.56.4 1.2 1.1 1.3 1.5l.71.2h.341v-.233c0-.413.1-.84.3-1.2.566-1 1.9-2 3.8-2.6.228-.76.4-.141.4-.141m-18.9-.362c.012 0 .166.344.1 1.4.472 2.8 1.3 3.5 2.359.4.575.8.679 1.2.53.2.6.3.06 1.3 0 .59-.013 1.1-.028 1.1-.047 0-.74-.292-1.3-.53a20 20 0 0 1-1.7-.909c-.486-.286-.818-.601-1-.976-.267-.477-.46-1.2-.528-2-.032-.395-.038-1.1-.011-1.2.011-.58-.109-.109m28.8 0c.048 0 .05 1.1.003 1.5-.68.6-.24 1.3-.432 1.7a2.7 2.7 0 0 1-.519.7c-.423.4-2.4 1.4-3.5 1.8l-.8.009-1.1c.011-1.1.017-1.1.077-1.3.148-.49.4-.902.8-1.3.717-.74 1.9-1.4 3.3-1.9a5 5 0 0 1 .334-.1m-19.5-1c.074-.4.1.244.1.866-.044 1.2-.27 2.1-.72 2.7-.234.3-.48.5-1.4 1-.658.4-2.1 1-2.4 1.1l-.68v-.922c0-1.024-1.3.151-1.7.394-1.2 1.8-2.3 3.9-3.246-.85.5-.156.5-.156m10.2-.1.1.02c.62.3.1.527.2 1.6.59 2.9 1.4 3.5 2.3.101.2.226.4.276.5.16.4.175.6.175 1.7 0 .566-.006 1-.012 1-.01 0-.225-.085-.483-.191-.999-.413-2.6-1.3-3-1.6-.566-.46-.93-1.3-1-2.5a11 11 0 0 1-.033-.893Zm-9.8-1.5c.05 0 .921.3 1.2.427 1.6.664 2.7 1.5 3.1 2.5.202.4.205.5.217 1.7l.011 1.1-.157-.061c-1.4-.53-3.2-1.5-3.5-1.9-.403-.433-.678-1.1-.82-2-.051-.313-.101-1.7-.066-1.8.012-.27-.48-.048m9.3-1c.057 0 .77.6.042 1.1-.092 1.3-.394 2.2-.933 2.7-.406.4-1.9 1.2-3.3 1.8a4 4 0 0 1-.379.1c-.018 0-.023-.418-.018-1.1.015-1.2.021-1.3.229-1.7.488-1.1 1.9-2.1 3.9-2.8a6 6 0 0 1 .45-.141m9.8-.32c.053-.2.1.27.77-.12.6-.3.9-.077 1.1-.163.9-.435 1.6-.877 2-.394.4-2 1.2-3.3 1.8l-.35.1.01-1.1.011-1.1.095-.28c.163-.484.4-.881.9-1.3.68-.672 1.8-1.3 3.1-1.7.246-.86.5-.156.5-.156m-28.7-.002c.077 0 .865.3 1.3.46 1.8.76 2.9 1.8 3.2 2.9.6.2.66.3.08 1.3l.012 1.1-.157-.062c-1.3-.507-3-1.4-3.5-1.8-.346-.324-.616-.831-.779-1.5-.148-.587-.237-1.5-.193-2.1.012-.176-.285.1-.285m9.2-1c.036-.2.1.3.1.107.141-.009 1.3-.047 1.6-.14 1-.468 1.8-.945 2.2-.374.3-1.8 1.1-3 1.6-.294.1-.566.2-.605.2l-.68.015-1.1c.012-.99-1.1.077-1.3.077-.291.3-.672.4-.925.6-.894 2-1.7 3.6-2.3.18-.62.4-.113.4-.113m10.2-.002c.068 0 .5.1.862.3 2.766 3.2 1.8 3.6 3.62.2.68.3.08 1.3.6.6.003 1.1-.01 1.1-.011 0-.26-.103-.556-.227-1-.44-2.6-1.3-3-1.6a2.4 2.4 0 0 1-.545-.723c-.373-.728-.521-1.6-.5-2.9.002-.228-.286-.286m-9.8-1.6c.041 0 .497.2.844.3 1.7.655 2.9 1.5 3.4 2.5.249.5.249.5.26 1.8l.01 1.2-.083-.032c-.966-.366-2.8-1.3-3.4-1.7-.314-.23-.634-.723-.815-1.3a6.7 6.7 0 0 1-.266-1.4c-.036-.391-.045-1.2-.015-1.3a.5.5 0 0 1 .027-.092m9.3-1c.09-.3.1 1-.009 1.7-.133 1-.456 1.8-.945 2.2-.308.3-1.5.932-2.4 1.4-.456.2-1.1.469-1.1.469-.018 0-.023-.413-.015-1.1.01-.893-1.1.063-1.3.343-1.3 1.9-2.5 4.2-3.3.163-.53.3-.97.3-.1m-14.7-1.5.86.1c.142.1.578.7.80.668.958 1.9.833 2.6-.65.4-.438 1.3-.891 2.3-.21.4-.711 1.4-.741 1.4-.009 0-.308-.356-.66-.793-.833-1-.958-1.3-1-2-.104-1.1.394-2.6 1.4-4.1Zm20.2 0c.024 0 .418.6.614.717 1.3 1.1 2.5 1 3.4-.38.8-.174 1.1-1 2.2l-.648.8a5 5 0 0 1-.223-.383c-.699-1.3-1.4-2.8-1.4-3.4-.112-.896.4-2 1.4-3.3.143-.17.3-.312.3-.312M606.1 360c.042 0 .477.5.711.9.714 1 1 1.9.999 2.6-.21.3-.196.9-.513 1.6-.216.5-.74 1.6-.984 2l-.154.3-.068-.08c-.447-.533-1.2-1.5-1.3-1.7a2.8 2.8 0 0 1-.28-.778c-.057-.277-.048-.988-1.3.175-.97.7-2.1 1.3-3.1.118-.18.2-.33.2-.33"/></g></svg>