<svg viewBox="0 0 31 33" xmlns="http://www.w3.org/2000/svg"><defs><clipPath id="a"><path d="M591 359h31v33h-31z"/></clipPath></defs><g clip-path="url(#a)" transform="translate(-591 -359)"><path fill-rule="evenodd" d="M611.053 371.898c.083 0 .071 1.144-.018 1.769-.142.996-.5 1.798-.986 2.193-.235.191-1.055.66-1.793 1.026l-.717.356.006 3.11.009 3.11.4.068c.895.15 1.668.395 2.43.775.426.213.713.39 1.333.823 1.158.81 1.81 1.179 2.296 1.303.249.065.918.112 1.063.076l.077-.017-.003-3.34v-3.337l-.731-.36c-1.286-.63-1.858-1.01-2.14-1.423-.45-.66-.645-1.463-.672-2.78-.015-.675-.012-.758.03-.758.157 0 1.19.392 1.754.666 1.262.61 2.127 1.344 2.533 2.15.177.35.24.592.257 1.007l.018.363h.332l.127-.277c.433-.929 1.526-1.795 3.108-2.459.448-.185 1.188-.436 1.215-.406.033.032.02 1.223-.018 1.535-.139 1.135-.453 1.905-.96 2.362-.281.253-1.291.837-2.145 1.238l-.423.197v5.648l.216.106c.696.34 1.22 1.041 1.555 2.082a7.6 7.6 0 0 1 .35 1.933l.02.363h-25.929l-.036-.127c-.154-.569-.222-1.267-.175-1.79.122-1.305.759-2.272 1.84-2.79l.294-.142v-5.277l-.495-.236c-.815-.389-1.639-.852-2.012-1.137-.284-.219-.575-.655-.75-1.138a6.6 6.6 0 0 1-.275-1.203c-.039-.31-.053-1.586-.018-1.624.03-.027.827.247 1.268.436 1.064.454 2.045 1.1 2.533 1.663.223.259.463.624.557.851l.074.177.166.01.166.008v-.203c0-.767.308-1.415.99-2.088.456-.448 1.043-.846 1.78-1.205.709-.345 1.757-.74 1.814-.681.044.044.02 1.282-.033 1.668-.142 1.038-.46 1.793-.933 2.22-.273.242-1.185.767-2.068 1.188l-.513.248v6.043h.101c.053 0 .27-.015.48-.03a13 13 0 0 0 3.395-.725 12 12 0 0 0 1.76-.864c.593-.368.948-.518 1.606-.68l.124-.033v-5.241l-.628-.31c-1.078-.527-1.816-.976-2.082-1.262-.392-.421-.664-1.078-.803-1.954-.054-.342-.095-1.772-.05-1.816.014-.014.174.024.408.103.996.33 1.917.787 2.628 1.3.56.404 1.155 1.094 1.33 1.545l.071.18h.341v-.233c0-.413.113-.84.314-1.209.566-1.025 1.944-1.975 3.79-2.603.228-.076.43-.141.447-.141m-18.937-.362c.012 0 .166.048.344.106 1.44.472 2.8 1.271 3.451 2.02.359.416.575.813.679 1.244.053.218.06.348.06 1.309 0 .59-.013 1.07-.028 1.07-.047 0-.74-.292-1.253-.53a20 20 0 0 1-1.727-.909c-.486-.286-.818-.601-1.028-.976-.267-.477-.46-1.2-.528-1.992-.032-.395-.038-1.061-.011-1.233.011-.058.03-.109.041-.109m28.766 0c.048 0 .05 1.106.003 1.527-.068.625-.24 1.286-.432 1.672a2.7 2.7 0 0 1-.519.704c-.423.383-2.411 1.421-3.531 1.843l-.08.032.009-1.126c.011-1.055.017-1.144.077-1.341.148-.49.4-.902.814-1.327.717-.74 1.93-1.426 3.325-1.883a5 5 0 0 1 .334-.1m-19.515-1.02c.074-.004.095.244.074.866-.044 1.238-.27 2.084-.72 2.715-.234.333-.48.51-1.386 1.014-.658.365-2.086 1.029-2.439 1.135l-.068.017v-.922c0-1.038.024-1.31.151-1.683.394-1.18 1.79-2.25 3.893-2.987.246-.085.468-.156.495-.156m10.187-.01.11.02c.062.013.3.086.527.169 1.65.59 2.91 1.424 3.505 2.32.101.153.226.383.276.513.16.412.175.569.175 1.704 0 .566-.006 1.028-.012 1.028-.01 0-.225-.085-.483-.191-.999-.413-2.622-1.265-3.016-1.586-.566-.46-.93-1.327-1.049-2.494a11 11 0 0 1-.033-.893Zm-9.795-1.545c.05 0 .921.31 1.203.427 1.576.664 2.684 1.548 3.122 2.497.202.433.205.451.217 1.713l.011 1.14-.157-.061c-1.36-.53-3.179-1.504-3.543-1.896-.403-.433-.678-1.108-.82-1.992-.051-.313-.101-1.69-.066-1.78.012-.027.024-.048.033-.048m9.283-1.024c.057 0 .077.613.042 1.144-.092 1.297-.394 2.172-.933 2.703-.406.398-1.882 1.19-3.26 1.757a4 4 0 0 1-.379.144c-.018 0-.023-.418-.018-1.114.015-1.22.021-1.277.229-1.728.488-1.076 1.925-2.102 3.869-2.765a6 6 0 0 1 .45-.141m9.829-.32c.053-.002.053.027.038.77-.012.599-.03.858-.077 1.13-.163.937-.435 1.553-.877 1.974-.394.377-1.952 1.209-3.283 1.757l-.35.144.01-1.143.011-1.141.095-.28c.163-.484.421-.881.85-1.306.68-.672 1.766-1.288 3.082-1.748.246-.086.468-.156.5-.156m-28.746-.002c.077 0 .865.283 1.277.46 1.78.76 2.885 1.76 3.19 2.886.06.218.066.324.08 1.335l.012 1.1-.157-.062c-1.3-.507-3.04-1.427-3.484-1.837-.346-.324-.616-.831-.779-1.477-.148-.587-.237-1.547-.193-2.12.012-.176.033-.285.054-.285m9.242-1.022c.036-.002.056.03.071.107.027.141-.009 1.255-.047 1.556-.14 1.029-.468 1.801-.945 2.232-.374.336-1.82 1.114-2.951 1.591-.294.124-.566.233-.605.245l-.068.02.015-1.084c.012-.99.018-1.108.077-1.324.077-.291.258-.672.438-.925.634-.894 1.959-1.73 3.639-2.305.18-.062.35-.113.376-.113m10.229-.002c.068 0 .5.141.862.28 1.991.766 3.244 1.807 3.603 2.995.062.206.068.283.08 1.344.006.622.003 1.129-.01 1.129-.011 0-.26-.103-.556-.227-1.046-.44-2.628-1.277-2.978-1.574a2.4 2.4 0 0 1-.545-.723c-.373-.728-.521-1.582-.5-2.938.002-.228.011-.286.044-.286m-9.834-1.552c.041 0 .497.154.844.286 1.724.655 2.93 1.548 3.437 2.544.249.49.249.493.26 1.79l.01 1.158-.083-.032c-.966-.366-2.812-1.306-3.399-1.73-.314-.23-.634-.723-.815-1.262a6.7 6.7 0 0 1-.266-1.36c-.036-.391-.045-1.155-.015-1.302a.5.5 0 0 1 .027-.092m9.28-1.024c.09-.003.083 1.005-.009 1.701-.133 1.023-.456 1.78-.945 2.21-.308.275-1.484.932-2.444 1.369-.456.206-1.09.469-1.132.469-.018 0-.023-.413-.015-1.1.01-.893.021-1.132.063-1.282.343-1.315 1.872-2.518 4.15-3.267.163-.053.311-.097.332-.1m-14.66-1.469.086.083c.142.132.578.68.79.996.667.99.958 1.904.833 2.62-.065.363-.438 1.315-.891 2.27-.21.449-.711 1.371-.741 1.371-.009 0-.308-.356-.66-.793-.833-1.034-.958-1.276-1.029-2.025-.104-1.105.394-2.609 1.375-4.145Zm20.208 0c.024 0 .418.616.613.967.717 1.27 1.07 2.456 1.022 3.44-.038.79-.174 1.076-1.043 2.152l-.648.802a5 5 0 0 1-.223-.383c-.699-1.274-1.354-2.827-1.422-3.376-.112-.896.385-2.046 1.428-3.29.143-.17.267-.312.273-.312M606.057 360c.042 0 .477.522.711.855.714 1.005 1.049 1.878.999 2.609-.021.312-.196.852-.513 1.594-.216.513-.74 1.58-.984 2.01l-.154.272-.068-.08c-.447-.533-1.23-1.535-1.31-1.677a2.8 2.8 0 0 1-.28-.778c-.057-.277-.048-.988.014-1.327.175-.97.652-2.09 1.34-3.148.118-.18.23-.33.245-.33"/></g></svg>