<svg viewBox="0 0 34 32" xmlns="http://www.w3.org/2000/svg"><g transform="translate(-559 -360)"><path fill-rule="evenodd" d="M582.7 360.8c0 .022-.31-.66-.043 0-.62-.62.1 0 .048-.22.1-.63.1-.59-.62-.62.5 0 .386.458.458.1 0 .65.3.12.3q-.38 0 .053c.5.44.2-.1.3-.43.1-.46.1-.077-.028a.6.6 0 0 1-.034-.166c0-.04-.02-.075-.038-.075-.022 0-.081-.073-.134-.16a.8.8 0 0 0-.163-.208c-.04-.028-.071-.075-.071-.107 0-.031-.013-.066-.032-.075-.015-.01-.03-.003-.3s-.29-.7c-.087-.025-.15-.15.1 0 .041-.12.1-.3.1-.057 0-.32.1.3.1.48.63.63.1 0 .053-.12.1-.31.1-.06 0-.31.1.34.1.56.63.5.1-.12.1 0 .129.17.1.56.1.191.226q-.38.28c.5.68.1.78.2.6.1-.3.2-.22.2q-.32.12c.06-.12.1.296.1.314-.5-.45.1.12.1.062 0 .9.1.65.3-.12.1-.6.2.28.2.66.1.069 1 0 1.1-.3-.4.1-.25.2.1.1.4.1-.18.2-.2-.35.1-.35.1a.3.3 0 0 1-.46.1.25.3 0 0 0-.47.1.5.5 0 0 1-.29.1 1 1 0 0 0-.46.2q-.21.1-.75.1-.06-.001-.13c.53.16.3-.43.3-.063 0-.85.1-.44.1.25.31.1.19.1-.13.1-.35.2-.53.3-.16.1-.5.2-.72.2-.32-.38.1-.25.3.1.2.3.2-.35.3-.37-.46.1-.43.4.6.3 0 .39-.5.4-.38-.53.1-.53.2 0 .72.144.156.26.437-.1.5-.1-.37.1-.62.1-.05 0-.63.2-.13.2.47.38.3-.12.3-.25-.38.1-.28.1.21.1-.16.3-.63.3-.022 0-.4.1-.4.1-.1.2-.44.4-.11.4-.43-.53-.4.1.15.1-.81.3-.206.5-.35-.82.1-.106.2-.32.1-.7.1-.135.1-.53-.84-.78.1.1-.14.3-.175.3a.4.4 0 0 0-.115.1.7.7 0 0 1-.178.1c-.5-.87.1-.87.1 0 .047-.12.1-.163.1-.015-.003-.25-.25 0 .067-.16.1-.19.1q-.025-.038-.44c-.25.1-.162.2-.181.1-.01-.038-.022-.028-.53-.4.1-.94.1-.94.1 0-.016-.018-.022-.043-.013a.5 0 0 0-.32.1c.22.1-.5.1-.84-.019-.031-.034-.019-.6-.18.1-.46.1-.74.1a.5 0 0 0-.63c-.1-.3-.53a.3.3 0 0 0-.112.1q-.148.1-.175-.014-.055-.38c-.18.1-.34.1-.96.1-.063-.016-.075-.007-.75 0 .044-.16.1-.4.1-.023-.01-.73-.113.1-.5.1-.94.1-.144.1-.056-.012-.072-.006-.68.3-.16.1-.41.1s-.78-.122.1q-.13.1-.128c0-.025-.012-.047-.031-.047-.016 0-.31-.31.1 0 .047-.22.1-.53.1a.2.2 0 0 0-.72 1 1 0 0 1-.1.1c-.75-.87-.87 0-.025-.013-.047-.032-.047-.015 0-.3-.3.1 0 .088-.104.2-.2.1-.066-.016-.079-.004-.97.1-.13.1-.38.1-.6.1s-.94-.156.1c-.65.1-.137.1-.162.1s-.44-.44a.6.6 0 0 1-.156.1c-.112.1-.175.1-.228.1-.056-.016-.072-.006-.78.1-.3.1-.16.2-.496.6-.272.3-.51.5-.528.5-.022 0-.47-.56.1-.28.1-.231.4-.284.4-.025 0-.57-.79.1-.3.1-.156.3-.156.2 0-.053-.9.1-.93.2 0 .032-.35.1-.78.1a.4.4 0 0 0-.78.1c0 .041-.253.4-.297.4a.1.1 0 0 0-.47.1c0 .062-.72.1-.1.1-.01-.01-.25-.34.1-.22.1-.353.6-.4.6-.015 0-.28-.28.1a.2.2 0 0 1-.53.1.7.7 0 0 0-.11.2c-.3.1-.112.2-.18.3a6 6 0 0 0-.144.3l-.75.2c-.31.1-.65.2-.75.2-.9-.37.1-.62.1-.031 0-.4-.31.18-.188.6-.244.7a.2.2 0 0 0-.25.1.17.2 0 0 1-.28.1c-.12-.5.1-.84.2a1 1 0 0 1-.81.2.2.2 0 0 0-.25.1.26.3 0 0 1-.47.1.3.3 0 0 0-.47.1c0 .048-.13.1-.28.1-.16-.38.1-.47.1-.12.1-.34.1-.5.1-.019 0-.31-.31.1a.6.6 0 0 1-.34.2c-.2-.5.1-.66.2s-.5.1-.75.2a.4.4 0 0 0-.44.1c0 .031-.12.1-.3.1s-.32-.32.1a.6.6 0 0 1-.6.2 9 9 0 0 0-.127.3c-.147.3-.2.4-.266.5-.34-.9.1-.119.2a.4.4 0 0 1-.93.1.5.5 0 0 0-.94.1c-.68.2-.306.5-.356.5-.19-.62-.96.1-.35-.79.1-.1.1s-.32-.22c.15-.138.2-.178.2-.04-.009-.116.1-.125.1-.1.1-.212.2-.231.2-.016-.054-.069-.016-.69 0 .053-.118.2-.147.1-.009-.01-.4-.71a.2.2 0 0 1-.144.1q-.09 0-.9c0 .028-.29-.7q-.066-.007-.8.1c-.16.1-.28.1-.66-.037-.032-.047-.029-.62-.22.1-.172.1-.256.1-.05-.013-.072 0-.85-.1-.4.1-.96.1-.044 0-.82-.82 0 .066-.93-.096-.04-.004-.05-.007-.057-.02-.016-.5-.34.1-.58.1-.025 0-.44-.44s-.28-.63c-.034 0-.062-.015-.062-.03 0-.06-.066-.032-.94-.28.1-.162.1-.215.1q-.036-.038-.35 0 .052-.78.1c-.059 0-.078-.016-.078-.066 0-.035-.015-.054-.03-.044-.2-.26-.16.1.12-.4-.29-.028 0-.5-.5 0 .075-.128.1-.177-.022-.03-.041-.037-.041-.015s-.13-.28c-.019-.01-.47-.66-.37.1-.178.1-.165.003-.02-.019-.03-.053-.02-.35-.63-.63.1 0 .057-.128.1-.171.1-.053-.053-.163-.031-.181-.22.1-.138.1-.122-.013q.02-.117-.116c-.6.1-.128.1-.253.1-.93-.203-.24.1-.6-.72-.072-.053 0-.07-.003-.066-.81-.84.1-.178.1-.215.1-.032-.051-.1-.035-.12-.15.1-.202.1-.252.1-.044-.045-.081-.038-.81 0 .06-.103.1-.216.1-.065-.013-.093-.006-.106-.22.1-.209.1-.209 0-.057-.069-.031-.84-.22.1-.15.1-.219.1-.04-.038-.056-.035-.97-.53.1-.193.1-.193 0-.038-.019-.028-.75-.66.1-.9.1-.203.1-.1-.016-.128-.01-.128 0 .044-.66.1-.144.1-.025 0-.043-.022-.043-.047 0-.062-.085-.025-.103-.2.1-.116.1-.116 0-.063-.128-.022-.147-.15.1-.124.1-.153.1-.025-.044-.106-.035-.106 0 .088-.175.1-.196-.01-.041-.02-.035-.47-.28.1-.56.1-.11.1-.037-.006-.065-.028-.062-.47-.02-.019-.029-.053-.02-.31-.5-.44.1.25.1-.75.1-.118.1-.06-.06-.12-.044-.12 0 .057-.12.1-.108-.088-.015-.11-.01-.11 0 .028-.25.1-.62-.034 0-.062-.013-.062-.031 0-.054-.88-.103.1-.13-.35.1-.82-.037-.01-.68-.78-.18.1-.112.1-.112 0-.016-.022-.022-.047-.013-.25-.4-.37.3-.16-.41.1-.25-.78-.116.1a.3.3 0 0 1-.106c-.018 0-.53-.78s-.65-.9c-.028-.012-.047 0-.47 0 .053-.231.2-.297.1q-.046-.017-.47c0 .028-.12.1-.3-.016 0-.32-.32.1 0 .03-.5.1-.11.2a.8.8 0 0 0-.162.3c-.28.1-.71.2-.93.2-.056 0-.5.1.6.1.25.53.1.66.1.43.2.287.6.53.8.4.75.1.75.1 0 .63.1.139.2.85-.19.13.1.66.104.1.132.1.72-.44.1 0 .15.1 0 .26.45.1.45.1 0 .79.66.1-.1-.3.1.13.1.015 0 .028-.16-.031 0-.47.1-.38.1.12.25.41.1.32-.1.1.6.1.34.25.1.47.1.47 0 .53.53.1q0 .62.1.063c.034 0 .062-.16.1-.031 0-.54.1-.35.1.22.81.1.103.1.53-.53.2-.25.2.038q.2.94c.053 0 .093-.13.1-.029 0-.34.1-.81.2-.72.1.13-.113-.025-.15-.037-.02-.062-.067-.062-.117 0-.122.1-.326.1-.345a.7.1 0 0 0 .041-.06c0-.22.1-.113.2-.204.1-.141.2-.154.2-.104.57.54.1-.6-.38-.75-.085-.01-.12-.34.1-.5-.16.1-.44.1-.6-.44.2-.78.2-.037q-.1.063 0c.034-.2.1-.54.1-.079 0-.57.1-.75.1-.35.29.1.2.1-.37-.72.2-.94.2-.38.35.1.6.2-.53.1-.63.5-.57.5.1.37.1.43.2.27.2-.25.3 0 .278.1 0 .25.44.044s.72.94.1c.37.1.4.044-.016 0-.75.1-.91.1-.31.22.1.34.1.28.1-.3.1.6.1.022s.27.1.62.1c.62.1.62.1.62 0-.38-.7-.7.1 0 .143.143.1 0 .6.1.82.1.25-.56.2-.34.3.041a.4.4 0 0 0 .194c.068 0 .13.137.1.19.019-.16-.44-.53.2-.53.1 0 .155.155 0 .37.3.3.3-.44-.25.1-.44.1-.44 0 .087-.1.1-.2.1-.18.1-.12.1.048s.6.1.62c.035-.22.1-.56.1-.078 0-.54.2-.94.2-.47.6.1.44.1-.25-.44-.63.1-.63.1 0 .102.109q.18.037-.028c.025-.78.1-.12.2-.72.47.1.38.1-.35-.53-.62.1-.053q.84.082-.28-.44.1-.035c.28.5.43.1-.9 0 .34 0 .028-.22.1-.57-.079 0-.63.1-.148.2-.126.13.1.7.1-.028 0-.28-.5-.5 0 .084-.38.1-.82.1-.47.1-.72.1-.63.1.16.1-.43.1-.113-.6.5-.405.5-.364.47.2-.148.2-.223 0-.34-.97.1-.144.1-.48.2-.198.4-.333.3-.245.4-.358.5-.32.12.65.122 0 .81.1.88-.2.1.19.1.191-.4-.25.1-.5.1-.53-.66.2-.16.2.019 0 .31.31.1 0 .069-.237.6-.28.6-.2-.32-.32.1a.9.1 0 0 1-.47.1c-.25-.47-.47.1s-.12.1-.3.1c-.016 0-.32-.32.1 0 .034-.13.1-.31.1-.16-.31.1-.31.1a.2.2 0 0 1-.38.1c-.25-.4.1-.4.3 0 .172.232.1.31a.4.4 0 0 1 .69.1c0 .18.56.8.45.45 0 0-.78.1-.59.1.3.84.1.106.1.03 0-.78.1-.53.1.35.76.79.1.28-.62.1-.4.1.035 0 .38.4.1.25.1-.19.1-.12.1.47.66.1.94.1.035 0-.47.2-.38.2.006a.4.4 0 0 1 0 .088c-.6-.3.025 0 .038-.53.3-.66.3-.16.16.1.32.1.35.2.6.3.16.3.75.35.63.1.063s.5.6q.14.009-.022c-.01-.94.2-.107.3-.2.1.7.3.92.3.032 0-.47.3-.3.3.5.48.3.8.3.035 0-.5.5 0 .55.1.28.118.583.478 0 .553-.6.6-.53-.35.1-.57.2-.66.2-.13.2-.7.2.044 0 .34.43.18-.18-.37.1-.37 0 .043-.16-.032 0-.56.2-.103.2-.66.1.47.1.44.1-.01 0-.24-.53-.62.1-.31.2-.22.2.016 0 .19.28.19-.7-.32-.057 0-.5.3-.97.3-.53.44.1.28.1-.02 0-.27.1-.53.1-.65.1-.19.1-.13.2.028q.35.1.59c.01-.19.1-.34.1-.034s.115-.16.1-.032c.009-.19.2-.31.3-.031s.319.328c.1.75.144.072 0 .122.122 0 .2.13-.22.1-.66.2-.44.3.41.44.47.1.16.1-.54.3-.19.3.66.56.1.6.1.25.1-.57.2-.47.2.025q.58.1.165.1c.091 0 .135-.22.2-.116.1-.85.1-.104.1-.079s.15.328h.29l.04-.104c.05-.113.1-.191.2-.166.1-.3-.32-.31-.44.1-.34.1.22.1-.47.1-.503 0-.33-.009-.399-.062-.493-.038-.06-.084-.116-.11-.126-.024-.009-.046-.037-.046-.06 0-.024-.022-.062-.047-.084q-.047-.041-.047-.003c0 .075-.6-.078-.06-.022-.107-.078-.129-.078-.031 0 .09-.6.1-.097-.02-.028-.08-.03-.08-.09-.027-.75.1-.275-.334-.035-.028-.038-.078-.047-.234-.038-.147-.207-.003-.238-.037-.034-.041-.037-.038-.3.8.1-.13.1-.429.1-.384-.44 0-.474-.047-.022-.029-.04-.041-.04-.022 0 .015-.173-.425-.344-.009-.431-.003-.46-.43.1-.402.1-.64.1-.127-.013-.162-.029-.155-.7-.28-.53.1-.62-.6.1-.25.1-.47-.25-.25.1 0 .53.1.147.168-.6-.63-.63.1-.13.1.7.1.66.1-.009s.085-.116.1-.066c.53.1.84.084-.031 0-.57-.66.1-.54.1.1.1 0 .11-.47-.56-.56.1-.22.38.1.38.1-.1-.43.3-.21.4-.21 0 .19.25.1.1.22.056-.47.1-.113.1-.126.1-.48.44.41-.21-.11.3-.258.4-.24.1.13.1.7.1-.078 0-.5-.9-.9 0 .406-.368.5-.46-.4.1-.75.1-.75 0 .044-.22-.047s.044-.116.1-.204a.8.8 0 0 0 .094-.192c0-.15-.37-.047a.1.1 0 0 0 .047-.078c0-.35-.85-.116a1.4 1.4 0 0 0 .085-.189c.03-.72.1-.132.1-.132 0 .026-.34-.075 0-.44-.88-.98-.9-.47-.081 0-.6-.82.1-.274a.5.5 0 0 0 .053-.166c0-.31-.6-.6 0 .03-.28-.06 0-.103.2-.58.3-.646a.4.4 0 0 0 .094-.123c.019-.56-.56.1-.003s.62.1.62c0-.82.1-.47.1.38.75.1.9.1.034q.035-.32.1-.003c.7.238.1.381.1.53.1.1.1 0 .22.66.1.63.63 0-.007-.37-.65-.72-.6.1.1.1.057 0 .53.63.038s.063-.22.1.009l.169.1a.32.3 0 0 1 .124.1c.2.1.38.1.38.003-.75-.66.1.038q.193.2.253.3c.153.3.172.4.91.5-.69-.69.6.3.6.4.44.1.25.2-.1.1-.4.2-.62.2-.32-.38.1-.22.2.12.1.3.2-.22.2-.22-.38.1-.38.2 0 .144.235.2.48.6.1.135.1.163 0 .29.63.73.15.9.216-.19.2-.12.2.28.2.66.1.66.2 0 .248-.4-.47.1-.31.1.25.1.25.4 0 .458-.1-.38.1-.62.1-.072 0-.57.1.18.2.35.63.63.1a.3.3 0 0 0 .62.1.3.3 0 0 1 .63.1c0 .35.6.06s.6.75.1a.6.6 0 0 0 .153.1c.69.135.1.144.2.12.1.25.1.56.053-.53.1-.47.1.022 0 .79.113.1.5-.6.1-.6.1 0 0 .25.6.1.079q.64.063 0c0-.16-.32.1-.032s.62.62.22.1.47.1c.4.47.047 0 0-.76.2-.66.2.12.66.2.88.2.028 0-.5.3-.1.4.44.6.3.88.3.38-.47.3-.44.4.3.54.2.13.2-.63-.56.1-.6.1-.25.1.35.1.35.1.3-.34.1-.28.1.25.1.7.2.117.2.066 0-.22.1-.25.2-.12.1.16.2.1.3-.28.1-.44.1-.44.1 0 0 .75.56.1-.48.1-.11.1-.116.2-.3.1.65.1.65.1.002q.015-.62.1-.081c.09-.2.1-.38.1-.098 0-.038-.022-.085-.047-.1-.028-.016-.056-.091-.069-.189-.01-.09-.031-.163-.043-.163-.016 0-.029-.038-.029-.088v-.085l1-.01c.718-.006 1 0 1.023 0 .19.34.1.34.1 0 .1-.15.1-.66-.37.1-.69.1-.81.1-.16.1-.29.1-.154 0-.1-.013-.138-.047-.138-.06 0-.093-.136-.05-.214-.88-.1-.028-.1-.065 0-.09-.104-.031-.142.1-.34-.072-.081-.138-.081-.05-.106-.085-.1-.135-.054-.013-.076-.084-.098-.2-.062-.328-.128-.328-.17 0-.046-.081-.056-.11-.009-.3.1-.168-.234-.031q-.061-.062-.184-.063c-.069 0-.134-.015-.147-.037q-.021-.035-.5c-.25.1-.5.1-.262-.016-.122-.05-.293-.226-.293-.298a.15.2 0 0 0-.05-.094q-.051-.041-.031-.129c.009-.53-.085-.013-.072-.38-.094-.085-.094-.186 0-.4-.84-.09q.035-.02-.011-.02c-.029-.003-.063-.025-.072-.053-.032-.078-.022-.257-.28-.28-.14-.012-.14s-.066-.045-.097-.258q-.02-.148-.214c.034-.56-.072-.022-.113-.053-.04-.063-.085-.066-.32 0-.151-.018-.305-.037-.343-.047-.081-.05-.31-.006-.339-.31-.141-.016-.141-.06 0-.11-.098-.11-.217 0-.05-.015-.104-.034-.116-.022-.013-.028-.07-.018-.142q.015-.116-.025-.135c-.053-.018-.097-.28-.05-.295.1-.16-.1-.01-.1-.062 0-.103-.333-.053-.415s.044-.34-.01-.34c-.068 0-.08-.219-.08-1.4 0-1.1 0-1.1.062-1.1.069-.2.1-.57-.088-.05-.032-.037-.182-.267a.8.8 0 0 0 .085-.173.2.16 0 0 1 .109-.11c.044-.1.1-.38.1-.63-.25-.62-.81-.63.2-.198.3-.18.1.13.1 0 .084-.72-.56.1-.128.1-.185.1-.53.1-.12.2-.15a.3.3 0 0 1 .078-.054c.028 0 .103-.85.1-.1-.009-.1-.63.1-.123a4 4 0 0 0 .552-.782l.125-.236c.066-.113.3-.735.3-.829 0-.122-.191.1-.191 0 .063-.142-.17-.031-.022-.028-.945-.98-.44-.232-.022-.232-.06 0-.09-.158-.065-.343-.12-.157-.025-.17-.063-.021-.103-.26-.053-.32-.34-.056-.029-.107-.068-.069-.087-.204-.034-.238.1-.35-.11-.031-.11-.053 0-.062-.022-.062-.126a.45.5 0 0 0-.054-.207c-.04-.066-.043-.094-.015-.142.1-.84-.113-.028-.132-.06-.015-.066-.034-.05-.144-.72-.122-.01-.113-.37-.093-.088-.093-.185 0-.044-.013-.088-.032-.098-.015-.01-.03-.053-.03-.094 0-.04-.013-.085-.032-.094-.015-.01-.031-.066-.031-.123 0-.06-.022-.122-.047-.144a.17.2 0 0 1-.047-.113c0-.038-.012-.082-.031-.091-.016-.01-.031-.054-.031-.094 0-.041-.013-.082-.028-.095-.016-.01-.04-.062-.053-.116a1 1 0 0 0-.044-.15 4 4 0 0 1-.144-.356.6.6 0 0 0-.078-.166c-.015-.01-.028-.04-.028-.07a1 1 0 0 0-.075-.21c-.134-.282-.206-.455-.206-.496a.3.3 0 0 0-.04-.1 5 5 0 0 1-.225-.534c-.11-.324-.172-.764-.11-.801-.22-.38-.073-.028-.03-.031-.113-.019-.27-.179-.232.1-.257-.25.1-.44-.07-.043-.043-.043-.169-.003-.194-.1-.47-.082 0-.78.2-.436.2-.436 0 .031-.2-.041 0-.57.2-.242.3-.242 0 .05-.16.1-.031 0-.2-.32.1-.032a.2.2 0 0 0 .115-.05c.047-.47.1-.47.1.019l.56.1v-.082c0-.6-.84.1-.1a.2.2 0 0 1 .14c.54.63.079-.31-.6-.66.2-.5.1.16.2.1.2-.025 0-.25-.54.1-.66.1-.2.2.6.1.047-.31.1.16-.1.2-.66-.57.3-.85.3-.028 0 .37.2 0 .203-.48-.53.3-.87.3-.47.5.1.41.1-.01-.01-.024-.004-.52-.65-.1.3.1.28.66.1.32.1-.047 0-.75.1-.78.1-.006q.15.1.037-.047c.013-.54-.1-.1.1 0 .281-.265.4-.422.1-.229.1-.37-.012-.458-.05-.038-.094-.088-.094-.113 0-.05-.081-.06-.11-.013-.3-.109-.109-.016a.8.1 0 0 0-.053-.69.2.22 0 0 1-.134-.175c0-.092-.09-.101-.181-.016-.47-.112.1-.144.1-.56-.59-.043-.28-.38-.07-.01-.07-.037 0-.84.1-.68.1.18.1-.53.1-.94-.028-.029-.05-.02-.9-.47.1-.63.1-.116-.09-.053-.15-.047-.169-.18.1-.224.1-.28.1-.05-.05-.432-.048-.422.6-.6-.256-.197 0-.262-.009-.256-.4-.05-.216-.054-.265-.003-.54.1-.188-.207-.07-.015-.053-.028-.06-.08-.028-.76-.129-.129-.05 0-.025-.015-.038-.034-.028-.19-.05-.004-.075-.035-.038-.053-.034-.63-.78-.1.1-.35.1-.054q-.005-.35-.037c.016 0 .031-.2-.045 0-.6.2-.153.2-.135q.56.075-.05c.012-.53-.56.1-.25.1.44.1.22.1-.044 0-.56.1-.97.2-.047q.22.04-.028c.016-.66.1-.94.1-.035 0 .16.32.32 0 .041-.25-.057-.003-.4-.53.1-.5.1.3.1-.7.1-.022 0-.16-.44.1-.57-.22.1-.15.1.22.44.41-.019 0-.81.1-.94.1-.015 0 .34.4.15-.18-.37.1-.37 0 .062-.32.1-.66-.57-.66.1-.47.1.15.1.1.1-.44-.88.1-.82.1.006 0 .63.6.1-.31-.57.1-.101.1-.101s.072-.16.1-.035c.01-.18.1-.25.1-.15.1.15.1.6.1-.044q.002-.11.1-.025c.28.38.038-.032q0-.7.1-.069c.034 0 .084-.28.1-.063a1 1 0 0 1 .166-.132c.081-.5.1-.56.1-.025q.23.047-.06c.012-.56-.116.1-.138-.18.1-.47.1-.062 0-.13-.82.1-.151a.7.7 0 0 0 .106-.32q.023-.187.1-.217c.056-.32.1-.23-.26-.028-.02-.021-.161-.403-.91-.116-.028-.116-.05 0-.084-.063-.084-.154a.5.5 0 0 0-.038-.135c-.034-.072-.062-.085-.212-.094q-.173-.01-.197c-.37.1-.137.1-.175-.016-.028-.047-.03-.04-.34 0 .06-.22.1-.69.1-.4-.75-.08-.015-.017-.05-.104-.044-.144-.44.1-.456.1-.456.1 0-.02-.035-.035-.078-.035-.05 0-.78-.78 0 .063-.153.1-.2.1-.05-.05-.103-.038-.122-.1-.44.1-.75.1a.16.2 0 0 0-.94c-.4-.146-.118-.31-.16-.04-.016-.05-.018-.013-.031-.01-.28a.5.5 0 0 1 0 .1c-.3.1-.16.1-.78.1-.056-.013-.078-.003-.9-.1-.32.1-.5-.02-.01-.029-.035-.016-.5-.02-.01-.016-.47-.37-.65.1-.65.1 0 .031-.25-.94-.069-.013-.094-.006-.94 0 .05-.11.1-.156.1-.019-.013-.025-.035-.015-.05q.012-.024-.032-.01a.24.2 0 0 0-.8.1c-.26-.67.1-.2.1a.7.7 0 0 1-.229-.029l-.168-.084c-.066-.032-.119-.08-.119-.101q-.002-.043-.05-.025-.51-.065-.044c-.01-.035-.044-.063-.078-.063-.063 0-.316-.132-.403-.207a.16.2 0 0 0-.085-.044c-.018 0-.046-.02-.059-.041-.012-.019-.053-.04-.087-.044-.128-.013-.294-.088-.306-.141-.022-.085-.272-.079-.344-.56.1-.302.1-.302 0-.037-.1-.003-.14.1-.45.1-.191.1-.216-.035-.057-.103-.041-.122-.19.1-.144.1-.203-.031-.031-.044-.025-.56-.25.1-.138.1-.14-.003-.004-.05-.007-.056-.02-.015-.6-.24.1-.4.1s-.22-.13c.13 0 .047-.28s-.056-.025-.062-.056c-.013-.05-.016-.05-.019 0-.3-.31.1-.156.1-.122 0-.16-.012-.168-.056-.013-.05-.016-.05-.02 0-.2.1-.65.1-.65 0-.037-.018-.047-.075-.031-.62-.096-.006-.19-.116-.1-.113-.113-.148-.1-.249-.75-.116-.019-.11-.19-.047-.037-.062-.088-.057-.175-.075-.22-.306-.69-.128-.261-.247-.487-.269-.503-.022-.019-.043-.072-.047-.123-.006-.053-.028-.097-.059-.103a.22.2 0 0 1-.094-.098 3 3 0 0 0-.268-.358c-.125-.15-.228-.295-.228-.323 0-.035-.019-.044-.075-.028-.66-.78-.09-.073-.007-.047-.016-.069-.02-.05m3.3 26.5c.24.2.46.5.46.7 0 .28.4.1.4 0 .116.203.1.9.175.1.187.1.035 0 .178.2.222.2.22.34.3.34.7v.619l-.371-.02c-.49-.021-.575-.065-.73-.382-.147-.299-.194-.581-.194-1.1.003-.487-.694.1-.942.1-.195.2-.647.2-.81 0-.133-.126.1.15.72.1.305.1.512"/></g></svg>