<svg viewBox="0 0 37 29" xmlns="http://www.w3.org/2000/svg"><g transform="translate(-656 -363)"><path fill-rule="evenodd" d="M680.2 370c-.43-.89-.129.1-.45.1-.62.1-.62 0-.046-.01-.049-.045-.019a.14.1 0 0 0-.45.1c0 .03-.2.1-.47.1-.39-.45-.3.2.18.1.12.2-.3.2-.41-.47-.3.2.15.1.1.2-.26.2-.5-.63.2-.15.2.5.33.1-.33.1-.6-.62-.48.2.12.1.6.2-.3.2-.38-.4.1-.26.2.15.1.9.2-.3.2-.41-.47-.33.2.12.1.6.2-.3.2-.35-.44.1-.32.2.12.1.3.2-.2.2-.54-.84.3-.43.3.27.21-.17.1-.45-.48-.33.2.15.1.9.2-.24.2-.6-.83.2-.39.3.3.1.27.1-.17.1-.63-.108.3-.54.3.048 0 .39.1-.12.1-.62-.92.2-.42.3.33.3.1-.12.1-.68-.1.2-.53.3.3.24.1-.24.1-.68.1-.86.3-.24.3q.36-.35.1c-.6.1-.66.1-.5.2.11.1.5.2-.3.2-.36-.45.1-.33.2.14.1.9.2-.3.2-.36-.42-.27.2.18.1.12.2-.3.2-.41-.47-.3.2.15.1.1.2-.3.2s-.47-.29.2c.15.1.9.2-.3.2-.41-.47-.3.2.15.1.1.2-.3.2s-.47-.32.2c.12.1.6.2-.3.2-.35-.41.1-.32.2.11.1.2.2-.3.2-.36-.42.1-.27.2.12.1.6.2-.2.2-.051 0-.96.3-.48.3.44.35.1-.12.1-.06 0-.96.3-.42.3.3.3-.9.1-.65-.95.2-.57.2.24.18.1-.32.1s-.6.1-.45.2a.23.2 0 0 1-.3.2.25.3 0 0 0-.3.2.23.2 0 0 1-.3.2c-.35.1-.44.1-.29.2.15.1.6.1-.3.2-.35-.44.1-.3.2.13.1.7.1-.26.2-.54-.6.2-.1.2.28.22-.29.1-.71.1-.92.3-.33.3q.3-.3.1c-.65.1-.86.3-.32.3.45.36.1-.12.1-.024 0-.5-.6-.3.1-.2.2.15.3.24.15-.3.1q-.106.1-.26.2c.33.1.27.1-.33.1-.62-.68.1-.48.2.15.1.12.2-.32.2-.42-.48-.33.2.12.1.6.2-.3.2-.32-.41.1-.32.2.12.1.3.2-.3.2s-.39.1-.27.2c.12.1.6.2-.3.2-.35-.41.1-.32.2.11.1.2.2-.21.2-.5-.9.3-.45.3s.36.1-.12.1c-.62-.95.3-.44.3.35.32-.1.1-.62-.103.3-.56.3.48.42.1-.9.1-.062 0-.9.2-.42.2.33.1.33.1-.8.1a.21.2 0 0 0-.54.3c.36.1.33.1-.18.1-.47-.6.1-.53.2q.4.2-.42.2c-.33-.42.1-.27.2.12.1.6.1-.3.2-.35-.44.1-.32.2.9.1.3.1-.3.2-.33-.42.1-.3.2a.4.4 0 0 1-.2.2c-.24-.24.1 0 .73.6.43.082-.12.1.3.1.48.1.36.62.1.62.1 0 .34.4.1.27-.15.1-.6.1.019q.29.45c.006-.18-.37.1-.037s.071-.18.1-.04q0-.36.01c.24.36.48.006-.18-.37.1-.037a.4 0 0 0 .042-.04q0-.35.01c.23.35.47.01-.25-.34.1-.022q.73.089-.03c.012-.34-.43.1-.31.1.15.1.6.1-.46-.73-.79.1-.3.4.1.12.1-.052 0-.48-.58.1-.12.4.1.3.1-.049 0-.3-.36.1-.024q.9.089-.015c0-.22-.58-.82-.43-.43 0 0 .27.48.048s.044-.2-.048c0-.37-.43.1-.28.1.16.1.1.1-.024 0-.24-.52-.64-.9-.3.012 0 .18.3.03a.44 0 0 0 .044-.042q0-.41.1-.024c.53.074 0 .074-.037 0-.36-.42.1-.3.1.15.1.9.1-.03 0-.37-.43.1-.31.1.15.1.1.1-.033 0-.4-.5.1-.34.1.15.1 0 .135-.82.1-.88.1-.91.1-.03 0 .85.1.9.1.9-.61.1-.86.1-.03 0 .14.3.03a.44 0 0 0 .045-.043c0-.67.1-.88.1-.46.3.28.1-.2-.83.1-.156.1-.09 0 .25.46.46 0 .03-.2-.045s.018-.46-.046c.023 0 .05-.18.1-.04q.016-.3.016c.3.1.63.1.63 0-.4-.43-.15.1.42.1.12.1-.049 0-.36-.4-.12.1.46.1.15.2-.067q.017-.64-.03c.21.1.128.128-.006 0-.34-.4.1-.28.1.15.1.1.1-.03 0-.37-.43.1-.03q.9.09-.016c0-.21-.58-.82-.43-.43 0 0 .7.6.1-.34.1-.6.1-.66.1-.03q.2.1.101-.012c.045-.55.1-.58.1-.24.33.27.1-.028s.074-.64.1-.033c.33.44.056-.01q.02-.44.1-.3.1.17.1-.036c0-.37-.43.1-.3.1.14.1.8.1-.034 0-.4-.49.1-.34.12.1-.6.1-.64.1-.6.1-.67.1-.03 0 .3.52.052s.045-.15-.034c0-.18-.51-.76-.42-.42 0 0 .28.49.049a.44 0 0 0 .044-.043c0-.54.1-.88.1-.45.21.1-.6.1-.064q.085-.96.1-.049c0 .64.6.1-.018q.063-.66.1-.03c.18.1.66.066-.013 0-.4-.42-.15.43.1.12.1-.046 0-.3-.36.1-.24.1.15.1.1.1-.03 0-.37-.43.1-.3.1.14.1.8.1-.031 0-.37-.43.1-.3.1.15.1.9.1-.031 0-.37-.43.1-.03q.89.089-.016c0-.2-.57-.82-.42-.42 0 0 .28.49.049s.045-.15-.034c0-.18-.51-.76-.42-.42 0 0 .7.61.1-.33.1-.61.1-.67.1-.03 0 .7.63.1-.13-.48.1-.54.1-.27.3.24.1-.34-.4-.54-.36.67.1.43.1-.03q.018-.62-.03c.2.1.92.128-.25-.49-.55.1-.28.43.1.16.1-.048 0-.25-.43-.043s.45.45c0 .52.1.34.1-.24-.82.1-.97.1-.42.48.45.1-.1-.9.1-.109.1-.51.48.45.1-.15-.64.1-.122.1-.067 0 .15.27.27 0 .03-.21-.046s.017-.45-.45-.18.1-.04c.009-.21-.15.15.58.1.8.1.022 0-.19-.25.1-.15.1.2.1-.7.1-.104-.55-.6-.24.91.1.67.1-.03q.021-.9-.031c.18.1.9.1.13-.012q.038-.66.1-.03c.18.1.116.14-.034q.018-.62-.03c.18.128.1.128 0-.19-.52-.77-.42-.42 0 0 .28.5.05a.44 0 0 0 .044-.043c0-.55.1-.89.1-.4.21.3.1-.52.1-.64.1-.76.1-.04 0 .7.65.1-.11-.5.1-.55.1-.28.3.28.1-.9-.27-.4.1-.3.9.1-.3.1-.34-.33-.42.1-.03q.73.088-.034c.015-.33-.45.1-.033q.67.095-.03c.018-.31-.46.1-.34.1.3.2-.46.2-.146q.02-.95-.04c.18.1.45.1.122-.51.1-.128.1-.472-.472q-.04-.002-.027-.046c.012-.024-.056-.158-.157-.31a8 8 0 0 1-.218-.353 1 1 0 0 0-.11-.16c-.038-.043-.068-.09-.068-.107 0-.016-.024-.052-.05-.082a.5.5 0 0 1-.093-.128 2 2 0 0 0-.182-.305.6.6 0 0 1-.059-.1c-.024-.046-.054-.082-.068-.082-.012 0-.024-.015-.024-.03 0-.019-.08-.156-.179-.305a3 3 0 0 1-.178-.295c0-.015-.027-.042-.06-.064-.036-.02-.053-.051-.045-.67-.015-.005-.051-.035-.082a.5.5 0 0 1-.09-.14c-.02-.045-.05-.082-.068-.082-.015 0-.03-.018-.03-.04a1 1 0 0 0-.119-.212 1 1 0 0 1-.119-.201c0-.012-.026-.049-.06-.08-.032-.03-.059-.07-.059-.09s-.024-.061-.05-.095a.7.7 0 0 1-.098-.143.7.7 0 0 0-.105-.155 1 1 0 0 1-.098-.14l-.098-.191c-.03-.061-.071-.113-.086-.113-.018 0-.03-.021-.03-.046s-.024-.07-.05-.1a.7.7 0 0 1-.096-.137c-.024-.046-.053-.082-.068-.082-.012 0-.024-.015-.024-.037a1 1 0 0 0-.12-.21 1.3 1.3 0 0 1-.118-.194.3.3 0 0 0-.06-.082c-.032-.037-.06-.085-.06-.107s-.011-.04-.029-.04c-.015 0-.048-.048-.071-.106-.024-.058-.06-.106-.075-.106-.018 0-.033-.022-.033-.046s-.026-.073-.059-.106c-.033-.034-.06-.07-.06-.086 0-.012-.05-.097-.113-.188a3 3 0 0 1-.151-.253c-.024-.045-.054-.082-.069-.082-.012 0-.024-.018-.024-.04a.23.2 0 0 0-.05-.1.7.7 0 0 1-.098-.143.7.7 0 0 0-.105-.155 1.4 1.4 0 0 1-.196-.331c-.018-.046-.045-.083-.06-.083s-.044-.048-.068-.106-.06-.106-.074-.106c-.018 0-.033-.019-.033-.04a1 1 0 0 0-.119-.213 1 1 0 0 1-.119-.2c0-.013-.027-.05-.06-.08-.032-.03-.059-.07-.059-.091 0-.022-.027-.061-.06-.091-.032-.03-.06-.073-.06-.098 0-.021-.02-.04-.044-.04s-.044-.027-.044-.06a.18.2 0 0 0-.06-.113c-.033-.03-.06-.07-.06-.091s-.023-.064-.05-.094a.5.5 0 0 1-.092-.128 1.5 1.5 0 0 0-.158-.265.6.6 0 0 1-.08-.14c-.018-.045-.048-.082-.066-.082-.014 0-.03-.018-.03-.04a1 1 0 0 0-.118-.212 1 1 0 0 1-.12-.204c0-.018-.02-.03-.044-.03s-.045-.025-.045-.055c0-.034-.026-.082-.056-.11a.3.3 0 0 1-.075-.128c-.012-.04-.032-.073-.047-.073s-.048-.048-.072-.106-.06-.107-.074-.107c-.018 0-.033-.018-.033-.04a1 1 0 0 0-.119-.212 1 1 0 0 1-.119-.2c0-.013-.027-.05-.06-.08-.032-.03-.059-.07-.059-.091 0-.022-.027-.061-.06-.091-.032-.03-.059-.073-.059-.098 0-.021-.012-.04-.03-.04-.015 0-.047-.048-.071-.106s-.057-.106-.068-.106c-.015 0-.042-.037-.063-.085q-.108-.243-.173-.271c-.023-.01-.041-.04-.041-.07s-.021-.07-.048-.091a.5.5 0 0 1-.086-.143c-.024-.055-.057-.1-.072-.1a.33 0 0 1-.032-.034c0-.022-.063-.131-.14-.25a4 4 0 0 1-.185-.292.6.6 0 0 0-.08-.115.3.3 0 0 1-.056-.1c-.01-.034-.033-.062-.048-.062s-.027-.015-.027-.033-.06-.122-.134-.231a2 2 0 0 1-.134-.207c0-.01-.047-.082-.104-.164a.7.7 0 0 1-.104-.18c0-.018-.05-.058-.11-.088a.35.4 0 0 1-.152-.14c-.028-.058-.068-.085-.111-.083m-.614-3.4c.086 0 .173.202.6.1.102.1.102-.003 0-.42-.42-.12.21.55.073s.48.1.104.1c.9.104.104 0-.36-.36-.6.21.52.064-.18.134.3.17.3.017 0 .29.29s.24.1.54.1a1 1 0 0 1 .92.1c.24.62.1.86.1s.36.27c-.1.15.1.5.1.4.78.1.9.1.12.35.1.5.1.018 0 .45.6.1.18.44.1.6.1.014 0 .44.68.1.24.1.56.1.74.1.015 0 .57.1.92.1.36.1.78.1.93.1s.26.26c0 .24.66.1.096s.6.1.6.1c0 .21.58.079s.6.1.74.1c.15.69.1.117.2.163.2.267.4.267.4 0 .16.46.1.067a.35.4 0 0 1 .86.1c.2.5.1.66.1.014 0 .35.44.1.1.45.1.78.1.32.6.1.6.1 0 .34.73.1.91.19.1.52.1.073 0 .4.4.71.5.764a.4.4 0 0 1 .68.1c.21.1.51.1.69.1.015 0 .3.3 0 .25.7.1.1a.5.5 0 0 1 .87.1c.2.5.1.68.1.015 0 .3.3 0 .28.8.1.116a.4.4 0 0 1 .9.1c.11.32.1.47.1.012 0 .54.1.9.1.35.1.77.1.92.1s.26.26c0 .2.7.1.106s.6.1.6.1c0 .16.59.1.098s.74.1.74.1c0 .21.6.1.088a.3.3 0 0 1 .74.1c.12.33.1.48.1s.5.77.1.6.1.74.1c.015 0 .27.27 0 .22.8.1.128.49.1.113.1.143.33.58.1.58 0 .47.59.1.9.1.36.1.6.1.02 0 .5.62.1.9.3.1.42.1.11.86.1.163.2.78.1.152.2.167.2.018 0 .3.3.1 0 .33.67.79.9.1.152.2.32.1.167.2.304.2.304s.26.26.24.1.54.1a.5.5 0 0 1 .86.1c.21.51.1.69.1.015 0 .3.3 0 .49.4.602.4.602 0 .24.24s.24.1.54.1c.27.68.1.92.1s.53.1.68.1c.012 0 .24.24 0 .21.8.1.128.48.1.112.1.143.33.58.58 0 .44.59.1.18.1.45.1.6.1s.44.68.1.56.1.71.1c.018 0 .39.48.1.9.45.1.77.1.33.6.1.6.1 0 .27.85.1.127a1 1 0 0 1 .107.2c.24.54.1.69.1.012 0 .24.24 0 .2.66.1.1.3.1.94.1.14.48.1.85.1.85 0 .39.6.1.2.53.1.7.1.019 0 .51.72.1q.109.2.173.3c.24.42.42.1s.3.1.65.1a.3.3 0 0 1 .74.1c.3.33.1.66.1.36.62.1.62.1 0 .42.5.885.6.94a.4.4 0 0 1 .69.1c.2.5.1.68.1.015 0 .3.3s.27.1.57.1.65.1.77.1c.9.44.1.77.1.3.57.1.57.1 0 .33.67.076s.72.1.105.2c.35.1.77.1.92.1s.27.27c0 .2.66.1.1.3.1.94.1.14.48.1.85.1.85 0 .24.24 0 .22.73.1.113.4.1.11.1.155.49.1.85.1.85 0 .23.23s.24.1.54.1c.27.68.1.86.1.21.5.1.69.1.015 0 .3.3 0 .21.73.1.113.4.1.103.1.14.39.7.1.7 0 .41.41.1 0 .34.98.1.146a11 11 0 0 1 .274.4c.83.1.17.3.193.3.34.5.45.7.467.7.36.188.3.188.4 0 .27.6.7.9.106.213 0 .106-.12.2-.3.2-.15-.3.1-.3.1 0 .04-.11.1-.26.1s-.36.1-.48.1c-.12.1-.3.1-.44.1-.051 0-.209.2-.209.3 0 .048-.15.1-.86-.05-.01-.095-.006-.107-.1-.45-.78-.032 0-.65-.74s-.45-.86q-.073-.014-.92c-.1-.4-.78-.036-.009-.77-.95-.18-.72-.122-.057-.003-.86-.83.6-.18-.8-.075-.015-.093-.009-.117.1-.15-.3.1-.3-.003-.024-.03-.036-.068-.03q-.67-.66.1c.6.1-.32.1-.62-.033-.052-.104-.033-.13q-.23.1-.45c-.036-.06-.108-.04-.137-.3.1-.66.1-.54.015-.068-.098-.065-.116-.15.1-.68.1-.68 0-.052-.087-.034-.117-.2-.53.1-.125-.077-.013-.092-.006-.77.15 0 .046-.86-.077-.012-.101-.006-.101 0 .03-.24-.9q-.091-.014-.89c0 .031-.24-.86-.069-.009-.086 0-.104.1-.12.1-.24.1-.45-.03-.051-.14-.033-.128.3-.18-.71q-.081-.021-.113c-.18-.66-.107-.054 0-.75-.72.1.3-.6.1-.2.1-.016 0-.028-.015-.028-.033s-.03-.028-.065-.022c-.42-.68-.65.1.3-.6-.69-.062-.028-.08-.025-.113q-.38-.9c-.032-.015-.065-.003-.86-.17-.7-.122-.05-.003-.89-.89 0 .042-.2-.92-.03-.012-.065 0-.86s-.6-.99c-.044-.008-.07 0-.83s-.38-.9c-.05-.012-.076-.002-.88q-.17.1-.87c-.05-.012-.077 0-.104s-.41.1-.6c-.03-.05-.118-.016-.118 0 .025-.12-.3a.3 0 0 1-.03-.03c0-.05-.053-.037-.119-.3-.65-.74-.021-.04-.134-.003-.134 0 .024-.33-.9q-.091-.014-.89c0 .031-.26-.89q-.091-.015-.9c0 .03-.23-.86-.068-.008-.086 0-.104.1-.12.1-.23.1-.44-.03-.049-.14-.033-.131q.9-.8c-.063-.016-.093-.006-.105q-.2-.89-.074-.012-.9c-.11-.44-.89q-.074-.014-.92-.17.1-.8c-.042-.012-.074 0-.113.1-.3-.57.1-.57 0-.06-.083-.042-.122q-.36.1-.5c-.018-.058-.09-.042-.128-.24-.39.1-.57-.033-.052-.134-.021-.13.5.1-.22.1-.66-.042-.042-.131-.005-.131.1 0 .036-.9-.42-.05-.043-.137-.012-.137 0 .037-.8-.41-.054-.046-.125-.016-.152.1q-.18.1-.36c-.02-.052-.128-.046-.128 0 .033-.26-.11-.089-.015-.104-.012-.89.15 0 .046-.86-.078-.012-.101-.006-.101 0 .03-.24-.87-.068-.01-.9-.104.1q-.2.1-.39c-.023-.06-.119-.042-.143q-.17.1-.35c-.021-.052-.128-.046-.128q-.1-.95-.096-.002-.93c.6-.17-.8-.062-.015-.092-.006-.104-.12-.45-.9q-.074-.014-.92-.14-.89c-.05-.012-.077-.003-.9q-.15.1-.88c-.051-.011-.078-.002-.9q-.17.1-.8c-.042-.011-.074 0-.113.1-.3-.57.1-.57 0-.06-.083-.043-.119-.26-.41.1-.77-.053-.046-.13-.019-.13 0 .04-.1-.43-.05-.043-.136-.013-.136 0 .037-.1-.42-.048-.042-.137-.012-.137 0 .049-.5.1-.65-.015-.043-.113 0-.113 0 .031-.24-.9-.062-.015-.092-.006-.104q-.19-.104c-.066-.01-.09 0-.9s-.26-.89q-.091-.014-.89c0 .03-.24-.86-.069-.008-.9-.104.1q-.2.1-.39c-.02-.05-.128-.045-.128q-.1-.95c-.06 0-.95-.92.3-.33-.9q-.092-.001-.89c.6-.18-.8-.063-.015-.092-.006-.104s-.45-.9q-.075-.012-.92-.17.1-.86c-.05-.011-.078 0-.104-.27.1-.42.1-.6-.03-.049-.119-.015-.119 0 .024-.12-.3-.014 0-.03-.015-.03-.03 0-.052-.086-.034-.124q-.36.1-.72c-.047-.039-.137 0-.119.1.18-.18.1-.6s-.13-.006-.13.1q0 .054-.33c-.048-.048-.137-.012-.16.1q-.19.1-.36c-.021-.052-.128-.046-.128 0 .033-.24-.9-.068-.012-.089-.006-.89 0 .04-.2-.9-.062-.015-.091-.006-.103s-.45-.9c-.047-.008-.8-.89q-.18-.104c-.068-.009-.09 0-.9s-.2-.86c-.068-.015-.086-.006-.104.1q-.19.1-.38c-.018-.042-.146-.048-.173-.005-.9-.116-.238s-.23-.015-.238-.03c-.009-.019-.045-.03-.077-.03-.03 0-.057-.016-.057-.031 0-.019-.027-.03-.06-.03-.032 0-.059-.01-.059-.025 0-.012-.03-.04-.062-.064-.054-.03-.069-.033-.09 0-.18-.32-.053-.036-.033-.089-.11-.134-.131-.08-.1-.027 0-.045-.042-.038-.097-.116-.137-.134-.064-.9-.18-.033-.03-.026-.092-.104-.137-.142-.08-.18-.3-.054-.006a.2.2 0 0 1-.03-.088c0-.021-.017-.033-.044-.021-.27-.045 0-.045-.027 0-.052-.107-.12-.149-.092-.17-.03-.003-.03-.027 0-.067-.118-.128-.151-.076q-.23-.042-.04c-.024-.091-.101-.137-.137-.079q-.24-.041-.042c-.021-.089-.101-.137-.134-.086-.12-.036-.003-.054-.048q-.038-.079-.08-.061c-.24-.045 0-.045-.021s-.03-.055-.062-.08c-.054-.033-.069-.033-.9q-.28-.026-.022c0-.082-.116-.161-.152-.103q-.23-.042-.04c-.02-.079-.134-.143-.134-.076-.3-.02 0-.044-.042-.048-.092-.125-.134-.143-.08-.9-.03 0-.045-.045-.024-.058-.047-.08-.08-.067-.24-.45-.045-.018 0-.064-.098-.122-.14-.085-.3-.38-.038-.03 0-.065-.125-.123-.143-.068-.18-.66-.066-.06 0-.065-.089-.11-.121-.058q-.2-.042-.037c-.03-.091-.078-.125-.125-.085-.27-.42-.057-.046-.009-.042-.03-.079-.044-.079a.3.3 0 0 1-.113-.064c-.048-.036-.102-.054-.12-.045-.17-.032 0-.032-.025 0-.024-.027-.06-.057-.079-.08-.042-.1-.04-.8.9.3-.12-.018 0-.03-.033-.03-.076s-.024-.088-.056-.106c-.072-.037-.101-.04-.078-.004a.35 0 0 1-.12c-.14-.035-.024-.047-.076-.018-.079-.03-.091-.092-.076-.57-.75-.09-.058-.009-.042-.032-.073-.05-.067s-.063-.021-.101-.058c-.042-.04-.093-.06-.116-.051s-.042-.003-.042-.03c0-.05-.08-.098-.14-.086a.33 0 0 1-.039-.033c0-.022-.026-.058-.06-.08-.05-.03-.059-.03-.59 0 .04-.6-.38a.3.3 0 0 1-.06-.094c-.02-.055-.08-.073-.08-.022 0 .064-.6-.077-.045-.01-.043-.036-.076-.06-.076s-.042-.013-.042-.03c0-.016-.03-.043-.062-.065-.05-.024-.069-.024-.9q-.23-.041-.04c-.024-.09-.101-.136-.137-.078q-.23-.042-.043c-.018-.076-.134-.143-.134-.079 0 .015-.17-.35-.021-.006-.036-.033-.03-.6-.058-.101-.131-.12-.077-.17.1-.082-.003-.082-.073q0-.061-.045-.042c-.27-.045 0-.045-.028 0-.024-.018-.045-.041-.045s-.05-.019-.057-.04c-.012-.027-.024-.024-.47-.24-.36-.06-.034-.033-.088-.11-.134-.13-.08-.1-.028 0-.046-.042-.038-.097-.115-.137-.133-.064-.1-.18-.033-.03-.024-.082-.113-.143-.131-.088-.12-.095-.037-.095-.086 0-.018-.021-.033-.045-.033a.46 0 0 1-.045-.046c0-.042-.041-.057-.14-.054-.2-.038-.016-.038-.04 0-.064-.122-.119-.152-.07q-.23-.041-.04c-.024-.09-.102-.136-.137-.079q-.23-.042-.042c-.02-.082-.11-.143-.128-.088-.12-.68-.62.014-.091-.006-.134-.063-.119-.36-.06 0-.06-.021 0-.046-.113-.116-.148-.094-.18-.3-.03-.019 0-.036-.086-.115-.125-.118-.015 0-.24-.27.1 0 .034-.18-.041-.04-.042-.097-.134-.16-.134-.094 0 .022-.027-.009-.063-.066-.047-.08-.074-.098-.134-.086q-.73-.071-.033a.7.7 0 0 0-.09-.195 1 1 0 0 1-.089-.176c0-.018-.012-.03-.026-.03-.021 0-.051-.165-.063-.35-.009-.143.1-.524.2-.572a.1.1 0 0 0 .036-.073c0-.28-.8.1-.116a2 2 0 0 0 .14-.18c.042-.6.1-.16.2-.222a.4.4 0 0 0 .08-.149c0-.24-.42-.042s.066-.61.1-.137c.045-.76.1-.137.1-.137s.027-.43-.091c.011-.52-.92.1-.092s.056-.36.1-.085a.4.4 0 0 1 .063-.097c.044-.37.2-.338.2-.377 0-.22-.64.1-.092s.074-.7.1-.94-.55-.067c.053-.33.3-.347.3-.395a.4 0 0 1 .039-.04c.023 0 .06-.36.1-.085a.7.7 0 0 1 .083-.128.6.6 0 0 0 .084-.143c.02-.55-.1.1-.1s.054-.46.1-.1l.097-.159c.021-.33.1-.106.1-.16-.56.1-.12.1-.144s.015-.46-.046c.017 0 .047-.36.1-.082a.6.6 0 0 1 .08-.134 1.2 1.2 0 0 0 .209-.286c.027-.51.1-.118.1-.152.1-.143.2-.3.2-.353 0-.33-.57-.57 0 .062-.43.1-.92-.51-.9.1-.9 0 .265-.375.3-.408 0-.16-.52.1-.086s.074-.76.1-.1c0-.21-.46-.52-.15.2-.31.3-.359a.24.2 0 0 1 .077-.1c.036-.3.1-.7.1-.085 0-.19-.67.1-.113s.074-.106.1-.134c0-.3-.67.1-.085a.2.2 0 0 0 .077-.106c.01-.43-.77-.77 0 .143-.164.2-.331-.43.1-.106.1-.14.2-.192.2-.304.2-.353 0-.33-.58-.58 0 .063-.36.1-.082a.6.6 0 0 1 .075-.13c.113-.134.2-.293.2-.356-.37-.7.1-.7 0 .047-.34.1-.077a.2.2 0 0 1 .053-.1c.06-.36.3-.332.3-.383 0-.28-.49-.049s.06-.43.1-.091c.021-.52-.91.1-.091s.05-.61.1-.137.1-.137.1-.137c.015 0 .054-.46.1-.1l.151-.22c.051-.67.1-.155.1-.197a.5.5 0 0 1 .057-.092 2.6 2.6 0 0 0 .235-.322c0-.6-.43.1-.076a.6.6 0 0 0 .099-.14 1 1 0 0 1 .08-.13c.128-.15.2-.29.2-.342 0-.33-.66.1-.076s.068-.48.1-.088c.01-.4-.73-.73 0 .268-.365.3-.417a.4 0 0 1 .038-.04c.024 0 .06-.36.1-.084a.5.5 0 0 1 .077-.12c.027-.33.2-.352.4-.516-.28.1-.82.1-.122a.6.6 0 0 0 .087-.137.3.3 0 0 1 .06-.11c.175-.206.2-.267.2-.288 0-.16-.67.1-.119a.3.3 0 0 0 .074-.13c0-.25-.55-.68.1-.3.2-.21.2-.337-.52.1-.98.1-.98 0 .048-.36.1-.082a.6.6 0 0 1 .074-.13c.17-.208.2-.274.2-.344-.46-.83.1-.83 0 .086-.85.1-.146a.32 0 0 1 .033-.036c.041-.3.3-.307.3-.362 0-.18-.46.1-.064a.17.2 0 0 0 .077-.91.5.5 0 0 1 .093-.143c.038-.43.1-.1.1-.125s.027-.73.1-.11c.098-.103.2-.282.2-.304 0-.12-.51.1-.088a.35.4 0 0 0 .077-.134c.011-.4-.7-.7 0 .083-.82.2-.298a1 1 0 0 1 .099-.125.6.6 0 0 0 .083-.133.3.3 0 0 1 .06-.107c.151-.182.2-.277.2-.353-.45-.79-.67.25.3-.23.3-.283 0-.33-.33-.003s.47.062-.009a.54.1 0 0 1 .068-.03c.3.075-.6.1-.34-.32.1-.48.2-.05m-9.5-3.6c.38.74.74s.21.45.044-.15-.03c0-.18-.3.1-.03s.6.6c0 .64.1.94.1.043q.026-.5.024c0 .4.7.7 0 .31.3.348.4.21.5.1.69.1.015 0 .3.3s.26.1.56.1.66.1.77.1.45.1.78.1c.3.56.1.56.1 0 .55.6.959.6.959 0 .27.27s.24.1.53.1a.5.5 0 0 1 .87.1c.2.5.1.68.1.015 0 .3.3s.24.1.53.1a.5.5 0 0 1 .87.1c.2.5.1.65.1s.57.1.93.1c.35.1.77.1.92.1s.26.26.24.1.54.1c.27.69.1.92.1.24.54.1.69.1.012 0 .24.24s.32.1.74.1.74.1.74.1c0 .21.6.1.91.3.1.7.1.092 0 .2.6.1.9.31.1.74.1.098 0 .22.64.1.91.3.1.67.1.086 0 .21.67.1.103.4.1.104.1.143.4.73.1.73 0 .44.44.1 0 .33.1.1.149a.4.4 0 0 1 .74.1c0 .18.36.42.1.2.265.4.545.48.1.88.1.088s.27.27.24.1.53.1a.5.5 0 0 1 .87.1c.2.5.1.65.1s.36.45.1c.9.44.1.77.1.33.6.1.6.1 0 .24.73.1.11.1.7.1.3.1.3-.015 0-.54.1-.84.1-.32.1-.8.1-.11.2-.125.1-.229.3-.229.4 0 .034-.2.1-.44.1-.027 0-.63-.8.1a1 1 0 0 1-.129.2l-.9.1-.118-.195c-.066-.106-.128-.194-.14-.194-.015 0-.024-.016-.024-.034 0-.052-.265-.453-.297-.453-.018 0-.03-.028-.03-.061a.2.2 0 0 0-.057-.113.3.3 0 0 1-.074-.124c-.012-.037-.036-.067-.05-.067s-.027-.018-.027-.04c0-.021-.027-.07-.06-.106a.3.3 0 0 1-.06-.082c0-.022-.458-.746-.511-.806a.6.6 0 0 1-.075-.131c-.02-.046-.05-.083-.068-.083-.015 0-.03-.018-.03-.039a1 1 0 0 0-.113-.204 3 3 0 0 1-.152-.252c-.023-.046-.053-.082-.068-.082-.012 0-.024-.016-.024-.03 0-.02-.125-.22-.274-.451a8 8 0 0 1-.312-.499c-.02-.049-.05-.085-.068-.085-.015 0-.03-.019-.03-.04s-.027-.07-.06-.106a.3.3 0 0 1-.06-.089c0-.012-.053-.1-.118-.194a1.3 1.3 0 0 1-.12-.198c0-.046-.1-.134-.151-.134-.033 0-.063-.03-.074-.076-.015-.058-.04-.076-.105-.076-.053 0-.86-.86 0 .024-.3-.65.1-.9-.161.2-.105.3.3.1.27.1-.11.1-.66-.102.2-.54.3.3.27.1-.15.1-.68.1-.98.3-.44.3.35.32-.12.1-.69.1-.102.2-.54.3.3.24-.18.1s-.53.1-.53.2c0 .088-.12.2-.3.2-.15-.27.1-.24.2q.4.2-.42.2c-.32-.41.1-.26.2.12.1.6.1-.3.2-.36-.45.1-.33.2.1.1.3.1-.3.2-.32-.41.1-.3.2.1.1.4.2-.3.2-.35-.4.1-.26.2.15.1.9.2-.3.2-.41-.47-.32.2.12.1.6.2-.3.2-.39-.45.1-.3.2.12.1.6.2-.3.2-.35-.41.1-.32.2.11.1.3.2-.3.2-.36-.39.1-.24.2.15.1.9.2-.3.2-.41-.47-.3.2.15.1.1.2-.3.2s-.47-.32.2c.12.1.6.2-.3.2-.38-.44.1-.3.2.12.1.6.2-.2.2-.5-.93.3-.48.3s.36.1-.12.1c-.6-.89.2-.42.3.3.27.1-.11.1-.63-.107.3-.57.3.018 0 .33.33s-.21-.45c-.056 0-.95.2-.47.3.26.2.1-.27.1-.66.1-.83.3-.21.3.24.15-.3.1-.68.1-.95.2-.38.2.05 0 .32.1-.3.2-.69.1-.78.1-.24.2.33.27.1-.3.1q-.107.1-.32.3c.26.2.1-.33.1-.54.1-.63.1-.45.2.15.1.12.1-.33.2-.41-.47-.3.2.16.1.1.2-.3.2s-.47-.32.2c.12.1.6.2-.3.2-.38-.44.1-.3.2.13.1.7.2-.3.2-.38-.44.1-.29.2.12.2.6.2-.3.2-.038 0-.44-.3.2.13.1.7.2-.3.2-.35-.4.1-.26.2.18.1.12.2-.3.2-.41-.47-.3.2.15.1.1.2-.3.2-.4-.47-.29.2.12.1.9.2-.24.2-.62-.89.2-.41.3.32.1.3.1-.15.1-.63-.107.3-.54.3.018 0 .33.33s-.12-.27c-.027 0-.155.2-.163.3a.3.3 0 0 1-.57.1c-.125.1-.23.3-.23.3a.4.4 0 0 1-.74.1.3.3 0 0 0-.74.1.1.1 0 0 1-.36.1c-.47-.232.3-.232.3a.7.7 0 0 1-.89.1c-.5.1-.9.1-.9.1s-.11-.23c-.015 0-.68.1-.122.2-.113.2-.14.2-.197.2-.035-.03-.044-.027-.47 0 .045-.9-.036-.019-.05-.115-.119-.16-.143-.097-.14-.23-.041-.03-.024-.092-.101-.137-.137-.08q-.23-.042-.045c-.012-.046-.039-.082-.062-.082-.024 0-.069-.028-.105-.064-.032-.034-.08-.055-.104-.046s-.041-.003-.041-.027c0-.052-.107-.119-.15-.091q-.27-.029-.028c0-.067-.119-.127-.152-.076q-.23-.041-.04c-.024-.09-.101-.136-.137-.078q-.23-.042-.046c-.012-.046-.041-.082-.065-.082-.021 0-.072-.028-.107-.061-.036-.034-.08-.055-.102-.049-.2-.038 0-.038-.021s-.03-.055-.063-.08c-.053-.033-.068-.033-.89q-.28-.027-.021a.13.1 0 0 0-.06-.098c-.047-.033-.062-.03-.83-.23-.32-.06-.046-.035-.1-.062-.116-.115-.061-.27-.42-.057-.046-.009-.042-.03-.079-.044-.079-.015 0-.054-.027-.087-.06-.074-.077-.11-.077-.127-.01-.1-.18-.036-.036-.03-.107-.069-.143-.14-.119q-.54-.054-.03c0-.064-.11-.125-.128-.07-.9-.26-.044-.043-.03-.079-.125-.143-.125-.088 0 .064-.6-.078-.046-.008-.042-.03-.076-.047-.076-.015 0-.057-.027-.09-.06-.038-.037-.086-.055-.118-.043-.33-.054 0-.054-.025 0-.057-.11-.124-.128-.076-.9-.027 0-.045-.042-.035-.091-.125-.143-.125-.073 0 .073-.47.1-.05-.022a.17.2 0 0 0-.057-.106c-.041-.03-.056-.03-.86-.33-.39-.057-.03-.008-.046-.032-.082-.047-.082a.4.4 0 0 1-.11-.08c-.075-.07-.084-.072-.101-.02-.21-.24-.024-.01a.2.2 0 0 0-.075-.115c-.068-.043-.074-.043-.86q-.12.1-.033-.03c-.026-.092-.104-.138-.14-.08q-.23-.041-.043c-.021-.085-.11-.142-.128-.085-.15-.095-.021-.095-.079a.44 0 0 0-.045-.042c-.024 0-.045-.01-.045-.025 0-.012-.03-.04-.062-.064-.054-.033-.068-.033-.9q-.28-.026-.02c0-.083-.116-.162-.152-.104q-.25-.053-.037c-.033-.088-.11-.134-.131-.079-.1-.027 0-.045-.043-.039-.097-.125-.14-.128-.063 0 .03-.2-.045-.049q-.046-.104-.086-.085c-.24-.45-.045-.006 0-.016-.074-.104-.163-.198s-.164-.198-.164-.231c0-.034-.012-.07-.03-.08-.038-.024-.038-.35 0-.35 0 .03-.2-.045 0-.4.1-.237.1-.304-.18-.4-.055a.3.3 0 0 1 .05-.076c.122-.137.2-.295.2-.344 0-.33-.57-.057s.063-.43.1-.092c.018-.51-.9.1-.9 0 .265-.378.3-.42 0-.22-.37-.37 0 .06-.37.1-.085a1 1 0 0 1 .092-.14.5.5 0 0 0 .072-.116.4.4 0 0 1 .08-.128c.116-.124.2-.246.2-.286 0-.18-.36-.36 0 .125-.14.1-.195a.3.3 0 0 1 .062-.1c.033-.34.1-.113.1-.174s.11-.16.2-.222a.4.4 0 0 0 .08-.149c0-.21-.42-.48-.19.2-.295.3-.375-.42-.76.1-.76 0 .056-.36.1-.085a.4.4 0 0 1 .062-.097c.045-.34.3-.383.3-.42 0-.18-.37-.037s.05-.33.1-.076a.2.2 0 0 1 .054-.1c.06-.36.3-.332.3-.383 0-.28-.49-.49 0 .059-.36.1-.085a.7.7 0 0 1 .083-.128.6.6 0 0 0 .083-.143c.021-.55.1-.1.1-.1s.054-.46.1-.1l.097-.159a2 2 0 0 1 .122-.161.4.4 0 0 0 .08-.143c0-.21-.46-.52-.12.2-.292.2-.328 0-.19-.3-.03s.057-.62.1-.138.1-.137.1-.137c.033 0 .24-.328.2-.38 0-.24-.46-.46 0 .062-.36.1-.082a.6.6 0 0 1 .095-.149 2 2 0 0 0 .134-.194 2 2 0 0 1 .158-.228.5.5 0 0 0 .08-.12c0-.11-.48.1-.84-.37.1-.85.1-.107s.012-.4-.4.1-.63.1-.145c.05-.8.1-.17.1-.201-.34.1-.94.1-.137a.3.3 0 0 0 .065-.13c0-.31-.68.1-.086a.17.2 0 0 0 .077-.97.4.4 0 0 1 .092-.131c.04-.37.1-.82.1-.098 0-.18-.51-.073a.5.5 0 0 0 .09-.143c.02-.51-.97.1-.097s.054-.46.1-.1l.098-.159c.02-.33.1-.106.1-.16a.4.4 0 0 0 .08-.128c0-.19-.55-.86.1-.127.2-.295.2-.362-.36-.7.1-.7 0 .047-.33.1-.76-.42-.88.1-.1-.27.3-.338.3-.377 0-.19-.58.1-.092s.074-.79.1-.103-.43-.043c.015 0 .044-.36.1-.082a1 1 0 0 1 .107-.155.5.5 0 0 0 .087-.14.3.25 0 0 1 .074-.103.1.14 0 0 0 .057-.1c0-.31-.58-.58 0 .066-.52.1-.116a.5.5 0 0 1 .08-.125c.022-.9.1-.143.2-.304-.27.1-.88.1-.134a.34.3 0 0 0 .066-.128c0-.24-.57.1-.076a.17.2 0 0 0 .077-.94.5.5 0 0 1 .12-.155c.056-.49.1-.116.1-.152-.8.1-.131.2-.107.1.28.1.25.1-.009l.008-.045c.004-.16-.2.1-.016m-8.1-.001c.2.39.39s.1.23.024-.8-.016c0-.1-.16-.016s.31.31c0 .33.49.1.022q.014-.26.013c0 .2.36.36 0 .162.1.182.2.11.27.36s.16.16.14.3.1a.2.2 0 0 1 .4.1.8.1 0 0 0 .4c.16.3.3 0 .28.3.501.3.501 0 .14.14s.12.28.1a.3.3 0 0 1 .45.1c.1.27.36q.14.15c0 .12.36.052a.3.3 0 0 1 .45.1c.1.26.34s.3.48.1.4.1.49.1c.007 0 .14.14s.12.28.1c.14.36.48.1.13.28.36.006 0 .12.12 0 .13.39.6.2.46.055 0 .11.32.48.16.36.048 0 .1.31.48.16.38.05s.14.31c.17.31.31 0 .11.35.54.2.54.75.2.38.038s.24.24c0 .18.53.079a.2.2 0 0 1 .39.1q.1.14c.1.103.1.193.3.17.36.44.007 0 .14.14s.12.28.1a.3.3 0 0 1 .45.1c.1.26.34s.19.24c.4.23.4.1s.31.31.14.33.1c.36.6.2.33.2-.008 0-.28-.44.1a1 1 0 0 1-.58.1c-.65.1-.12.2-.12.2q-.2-.23c-.014 0-.33-.42a.5.5 0 0 1-.67.1l-.47.1-.062-.102a.5.5 0 0 0-.074-.102q-.011-.002-.012-.018a1 1 0 0 0-.156-.237c-.01 0-.015-.015-.015-.032a.1.1 0 0 0-.03-.6.2.2 0 0 1-.039-.065c-.006-.019-.019-.035-.027-.035-.007 0-.014-.01-.014-.02 0-.012-.014-.037-.03-.056a.2.2 0 0 1-.032-.043c0-.011-.24-.39-.268-.422a.3.3 0 0 1-.039-.069c-.01-.024-.026-.043-.036-.043-.008 0-.015-.01-.015-.02a.5.5 0 0 0-.06-.107 2 2 0 0 1-.08-.133c-.012-.024-.027-.043-.035-.043q-.01-.002-.012-.016c0-.01-.066-.115-.144-.236a4 4 0 0 1-.164-.261c-.01-.025-.026-.045-.035-.045-.008 0-.016-.01-.016-.02 0-.012-.014-.037-.031-.056a.14.1 0 0 1-.031-.46.6.6 0 0 0-.063-.102 1 1 0 0 1-.062-.104c0-.024-.053-.07-.08-.07-.017 0-.032-.016-.039-.04-.007-.03-.02-.04-.054-.04q-.043 0-.45c0 .012-.16-.35-.46-.84.1-.54.2.15.14-.6-.35-.53.1-.28.2.15.14-.8-.36-.52.1-.24.2.2.17-.6-.36-.53.1-.28.2.16.13-.1-.21-.27-.27.1 0 .046-.7.1-.16.1-.8-.14.1-.12.1q.1.1-.22.1c-.17-.22-.14.1.6.1.3.1-.16.1-.19-.23-.17.1.5.2.1-.16.1-.17-.21-.15.1.5.1.1-.16.1s-.22-.14.1c.8.1.5.1-.15.1-.22-.25-.17.1.6.1.3.1-.16.1-.2-.23-.16.1.7.1.3.1-.15.1-.19-.22-.17.1.6.1.1.1-.16.1-.19-.2-.12.1.7.1.4.1-.16.1-.22-.25-.16.1.8.1.5.1-.15.1-.22-.25-.17.1.6.1.3.1-.16.1-.2-.23-.16.1.7.1.4.1-.1.1-.27-.49.1-.25.1.023 0 .18-.7.1-.3-.46.1-.21.1.15.14-.7-.32-.56.2-.3.2.01 0 .18.18a.25 0 0 1-.24c-.03 0-.5.1-.24.1.14.1-.15.1-.34-.43.1-.1.1q.18-.16c-.36-.5.1-.2.1.026 0 .17.1-.16.1-.36-.4.1-.12.1.17.14-.16.1q-.57.1-.17.1c.14.1-.17.1s-.33-.24.1c.8.1.7.1-.17.1-.22-.25-.15.1.7.1.4.1-.16.1-.22-.25-.17.1.6.1.3.1-.16.1-.2-.23-.15.1.6.1.3.1-.16.1-.2-.23-.15.1.6.1.3.1-.16.1-.02 0-.23-.16.1.7.1.3.1-.15.1-.19-.22-.14.1.1.1.6.1-.16.1-.22-.25-.15.1.7.1.4.1-.16.1-.22-.25-.16.1.7.1.5.1-.12.1-.33-.47.1-.22.1.17.16-.8.1-.32-.56.1-.28.1.01 0 .17.17s-.6-.14c-.014 0-.8.1-.85.1a.1.1 0 0 1-.3 1 1 0 0 0-.12.2.2.2 0 0 1-.39.1.2.2 0 0 0-.39.1c0 .012-.1-.19a.7.7 0 0 0-.121.2.4.4 0 0 1-.47.1.2.2 0 0 0-.47.1q-.1-.12c-.008 0-.36-.64.1-.6.1-.73.1-.103.1-.019-.016-.023-.015-.25q.1-.019-.01c-.026-.06-.062-.084-.074-.05q-.1-.022-.017c-.013-.047-.053-.071-.072-.041q-.13-.022-.024c-.006-.024-.02-.043-.033-.043-.012 0-.035-.014-.054-.033-.017-.018-.042-.03-.055-.024s-.022-.002-.022-.015c0-.027-.056-.062-.077-.047q-.15-.016-.015c0-.035-.062-.067-.08-.04q-.11-.021-.02c-.013-.048-.053-.072-.072-.042q-.12-.022-.024c-.006-.024-.022-.043-.034-.043-.011 0-.038-.014-.056-.032-.019-.017-.042-.028-.053-.025q-.18-.02-.011c0-.011-.016-.029-.033-.042-.028-.017-.036-.017-.47q-.15-.014-.011a.7.1 0 0 0-.031-.051c-.025-.018-.033-.016-.44-.12-.17-.031-.024-.019-.053-.033-.06-.06-.032q-.21-.03-.024c-.005-.022-.016-.042-.024-.042s-.028-.014-.045-.031c-.04-.04-.058-.04-.067-.005q-.7-.019-.02c-.015-.055-.036-.074-.073-.061q-.28-.028-.016c0-.034-.058-.066-.067-.037q-.8-.024-.022c-.015-.042-.065-.075-.065-.047 0 .034-.31-.04-.023-.005-.023-.016-.04-.025-.04-.008 0-.03-.015-.047-.032-.02-.02-.045-.029-.063-.023q-.27-.028-.012c0-.03-.057-.066-.067-.04-.4-.014 0-.023-.022-.019-.048-.066-.075-.066-.039 0 .039-.25-.026-.01a.1.1 0 0 0-.03-.057c-.022-.016-.03-.016-.45-.17-.2-.03-.016-.004-.024-.017-.043-.024-.043a.2.2 0 0 1-.058-.042c-.04-.036-.044-.038-.053-.01q-.15-.013-.006a.1.1 0 0 0-.039-.06c-.035-.023-.039-.023-.45q-.6-.017-.016c-.014-.048-.055-.072-.073-.041q-.12-.022-.023c-.01-.044-.058-.075-.067-.044-.8-.05-.011-.05-.042a.23 0 0 0-.023-.022c-.013 0-.024-.005-.024-.013 0-.006-.015-.02-.032-.033-.028-.018-.036-.018-.47q-.15-.014-.01c0-.044-.061-.085-.08-.055q-.13-.028-.02c-.017-.045-.057-.07-.068-.04q-.8-.024-.023c-.02-.05-.065-.073-.067-.033 0 .016-.1-.023-.026q-.024-.053-.045-.045c-.13-.24-.024-.003a.6.6 0 0 0-.085-.103c-.047-.05-.086-.104-.086-.121s-.006-.037-.016-.042c-.02-.012-.02-.183 0-.183 0 .016-.11-.024 0-.2-.124.1-.16q.013-.15-.028a.1.1 0 0 1 .026-.4.5.5 0 0 0 .116-.18c0-.17-.3-.3 0 .032-.22-.48-.27-.48-.048a1 1 0 0 0 .138-.22c0-.1-.19-.19 0 .032-.19-.045l.049-.073a.2.2 0 0 0 .037-.6.2.2 0 0 1 .042-.067c.061-.66.1-.13.1-.15 0-.1-.2-.2 0 .065-.72.1-.101a.2.2 0 0 1 .033-.053 1 1 0 0 0 .07-.09c.021-.32.1-.85.1-.117a.2.2 0 0 0 .042-.078q.002-.18-.026a.6.6 0 0 0 .136-.196c.005-.22-.4-.4 0 .03-.19-.044a.2.2 0 0 1 .033-.051c.023-.18.1-.2.1-.22 0-.1-.2-.02s.027-.17-.039a.1.1 0 0 1 .028-.53.6.6 0 0 0 .134-.2c0-.15-.26-.26 0 .032-.19-.044a.4.4 0 0 1 .044-.67.3.3 0 0 0 .044-.075c.01-.29-.53-.053s.028-.24-.053l.051-.082a1 1 0 0 1 .064-.085c.023-.29-.62-.075 0-.1-.24-.027a.7.7 0 0 0 .126-.172q.002-.15-.016c.008 0 .03-.32-.72-.4-.71-.071a.6.6 0 0 0 .126-.2c0-.12-.23-.023s.032-.2-.043a.3.3 0 0 1 .05-.079 1 1 0 0 0 .07-.101 1 1 0 0 1 .083-.12.3.3 0 0 0 .042-.062c0-.7-.26-.045s.031-.44-.056c0-.1-.2-.02s.036-.34.1-.077c.026-.41.1-.9.1-.105a1 1 0 0 1 .056-.72.2.15 0 0 0 .034-.068c0-.16-.35-.045a.1.1 0 0 0 .04-.5.2.2 0 0 1 .049-.07c.02-.18-.42-.05 0-.1-.28-.039a.3.3 0 0 0 .047-.075c.011-.27-.5-.5 0 .028-.24-.053l.052-.083a1 1 0 0 1 .064-.84.2.2 0 0 0 .042-.067c0-.1-.3-.045a.7.7 0 0 0 .124-.19c.007-.19-.36-.36 0 .024-.18-.04s.02-.46-.053a.8.8 0 0 0 .133-.197c0-.1-.3-.048s.039-.42-.054q.001-.21-.023c.008 0 .024-.19-.043a.5.5 0 0 1 .056-.81.3.3 0 0 0 .045-.73.1.13 0 0 1 .04-.55.1.07 0 0 0 .029-.052c0-.16-.3-.3 0 .035-.27.1-.06a.2.2 0 0 1 .042-.066 1 1 0 0 0 .112-.16l.051-.07a.2.2 0 0 0 .035-.067c0-.12-.3-.04a.1.1 0 0 0 .04-.49.3.3 0 0 1 .062-.081c.03-.26.1-.6.1-.8-.41-.68.1-.56.15.13.1-.004q.002-.16-.024c.001-.8-.1-.008"/></g></svg>