<svg viewBox="0 0 22 33" xmlns="http://www.w3.org/2000/svg"><g transform="translate(-860 -359)"><path fill-rule="evenodd" d="M862.7 378c.18 0 .195.212.1.2.1-.38.4-.103.5a1.7 1.7 0 0 0-.83.3 1.2 1.2 0 0 1-.86.3 1 1 0 0 0-.75.3 1.1 1.1 0 0 1-.89.3c-.129.3-.8.5.14.6.87.525 7.2.058 5.2.006 7.1-.003 7.3-.026a.46.5 0 0 0 .24-.118c.081-.81.1-.92.1-.292a1 1 0 0 0-.071-.323 1.3 1.3 0 0 1-.092-.304 1 1 0 0 0-.074-.248 1 1 0 0 1-.075-.245 1.3 1.3 0 0 0-.086-.292c-.063-.127-.129-.482-.103-.552-.37.1-.49.2-.49.2 0 .384.1.493.3l.86.1v.939c0 .54.956.982.31.1.46.4.06l.347.123.1c.1.1.134.2.197.4l.78.3-.006 4.6-.009 4.6-.77.1a.67.7 0 0 1-.39.4c-.206.1-.893.1-1.1.009-.209-.081-.246-.113-.37-.298l-.117-.176v-2.7c0-2-.008-2.7-.034-2.8-.02-.046-.069-.084-.14-.1-.083-.024-.126-.062-.198-.174l-.089-.142-1c0-.665-.009-1-.029-1.1-.031-.058-.071-.058-6.3-.058-4.9 0-6.3.009-6.3.035s-.35.3-.035 1.1c0 .921-.005 1-.048 1.1-.92.1-.19.2-.27.2-.45-.97-.111.1-.2-.30-.029 2.7 0 1.5-.011 2.7-.029 2.8-.34.2-.174.4-.395.5-.157.1-.183.1-.607.1-.427 0-.45-.003-.587-.078a.8.8 0 0 1-.378-.399c-.05-.124-.052-.349-.052-4.9v-4.7l.066-.162a.6.6 0 0 1 .186-.26c.117-.95.1-.98.4-.107.2-.8.3-.2.4-.58-.34-.28-.993 0-1.003-1.15-1.2a.7.7 0 0 1 .15-.107.7.7 0 0 1 .279-.049m2.8-3.1c-.103.1-.306.7-.352.9a8 8 0 0 1-.97.4 22 22 0 0 0-.218.9 5 5 0 0 1-.1.4 5 5 0 0 0-.86.4 4 4 0 0 1-.1.4 1 1 0 0 0-.58.2c0 .046-.31.2-.71.3-.95.3-.123.6-.66.6.34 1.2.034 5.4.034 3 0 5.4-.008 5.4-.17.1-.32.1-.124.1-.298l-.172-.791a15 15 0 0 0-.112-.482 27 27 0 0 1-.243-1.1 3 3 0 0 0-.083-.352 3 3 0 0 1-.075-.347 5 5 0 0 0-.103-.453 1.4 1.4 0 0 1-.054-.26.3.3 0 0 0-.035-.127c-.034-.043-.335-.05-4.1-.055-3.7-.009-4-.012-4.2-.055-.063-.029-.183-.075-.27-.11a.8.8 0 0 1-.217-.118c-.069-.066-.137-.075-.178-.023m.075-.6a.3.3 0 0 1 .72.1c.2.1.263.3.423.3.72 1.1.034 4.2.043 3.8.006 4.2.011 4.2.55.1.63.2.297.2.554.275.1.57.2.656.66.1.7.5.075l.507.4.1c.23.1.63.2.92.2.29.1.66.2.83.3.14.1.49.2.72.3.23.57.2.77.3.17.1.57.3.89.3.31.1.69.2.83.3.17.1.52.2.8.3a1 1 0 0 1 .75.2c.11.1.45.2.74.3.32.1.72.2.86.3.17.1.54.2.83.3a1 1 0 0 1 .75.2c.8.1.48.2.88.3.83.2.72.3-.4.4-.43-2.8.026-7.2.026-7.1 0-7.1 0-7.2-.058-.106-.083-.12-.159-.052-.268a1 1 0 0 0 .092-.295 1 1 0 0 1 .072-.26c.02-.32.1-.153.1-.268-.116.1-.249.1-.295s.063-.185.1-.306a1 1 0 0 1 .072-.254c.014-.2-.13.1-.246-.112.1-.26.1-.32-.64.1-.182.1-.266s.048-.22.1-.298a1.1 1.1 0 0 0 .084-.297.8.8 0 0 1 .074-.245c.04-.7.1-.359.1-.442 0-.38.3-.7.6-.7.4 0 .461-.8.5-.216-.188.2-.592.2-.797-.104.1-.202.1-.22s.031-.75.1-.13a.7.7 0 0 0 .086-.173.5.5 0 0 1 .106-.168c.083-.9.1-.92.1-.046m4.3-3.4h4.8l.14.1a.7.7 0 0 1 .215.2l.71.1v1.6l-.123.1-.126.1h-9.8l-.14-.142-.14-.141-.823-.823.1-.078a1 1 0 0 1 .2-.148l.13-.066Zm6.8-.72c.37-.2.9.2.28.8 1.6.028 3.5l.006 3.5-.89.1c-.123.2-.286.2-.575.2-.333 0-.387-.051-.45-.41a1 1 0 0 0-.072-.23 1 1 0 0 1-.077-.266 1 1 0 0 0-.089-.295c-.052-.09-.054-.194-.052-3.1 0-1.7.01-3.018-3.1.008-.26.1-.46.1-.052a5 5 0 0 1 .275-.007m.715-1.1 1.7.003c1.5.006 1.6.009 1.7.64.2.78.3.26.3.421 0 .096-.23.2-.95.2-.174.2.273.2-4.9.21-2.9-.002-4.7-.014-4.7-.031q-.126-.028-.158-.09a.4.4 0 0 0-.103-.118c-.057-.05-.069-.084-.069-.214 0-.138-.167.1-.257.1-.58.1-.127.2-.159.1-.52.2-.055 3.1-.69.9-.005 2-.008 2.9-.009m-7.4-.58 1.5.6.1.075c.131.1.171.2.111.3-.31.1-.66.1-.126.1-.283-.33-.561.3-.112.2-.118.4-.12.5a.4.4 0 0 1 .72.1.5.5 0 0 0 .117.1c.11.1.123.1.293.1.097 0 .194.214.18.35.1.35.1 0 .095-.18.1-.12.2l-.12.1-1.5.009c-.951-1.5-.003-1.6-.023a.43.4 0 0 1-.2-.13l-.09-.104v-.795c0-.935-.973.3-1.1.066-.23.5-.032 1.6-.03m-.248-3.9h.76l.85.1c.49.1.135.1.192.2.149.1.263.3.255.5-.9.2-.123.4-.338.5-.315.2-.312.3.26.6.14.1.223.2.269.3.77.2.74.2-.4.4-.66.1-.103.2-.247.2-.134.1-.18.1-.212.2a.3.3 0 0 0-.25.2c.2.1.154.2.343.4.98.1.132.1.126.2-.8.1-.11.1-.882.1-.862-.873-.922-.054a.26.3 0 0 1-.052-.142c0-.063-.037-.113-.186-.234-.375-.306-.452-.603-.232-.878a.44.4 0 0 1 .26-.173c.13-.38.2-.6.2-.136-.11-.214-.277a1.5 1.5 0 0 0-.215-.208c-.195-.162-.332-.378-.332-.526 0-.196.2-.485.4-.485a.24.2 0 0 0 .125-.052c.086-.7.1-.346-.396a1 1 0 0 1-.126-.092c-.063-.055-.07-.07-.032-.95-.17.3-.3.8-.03m.098-4.6a1 1 0 0 1 .21q.26.1.421.3c.8.1.83.2.92.6l.12.5.246.2.25.2v.23c0 .209-.1.2-.84.3a.45.5 0 0 1-.158.1c-.194.1-.214.1-.28.3-.6.2-.6.2-.17.2.37.653 2.8.043 1.5.003 2.8.003 2.8 0 .126-.9.1-.75.1-.47-.005-.347 0-.37.1-.498.1-.161.1-.176.3-.219.2-.5.7-.32.8.026a.7.7 0 0 1 .177.2l.95.1-.006 3.3c-.009 3.1-.011 3.3-.06 3.4-.4.1-.63.1-.86-.02-.02-.223-.032-.599-.032-.564 0-.567 0-.61-.07-.04-.057-.046-.328-.051-2.2-.006-1.9-.012-2.1-.052-2.2-.04-.043-.616-.046-6.3-.046-4.6-.003-6.3.006-6.3.032-.23-.034 1.6-.046 6l-.014 6-.66.1a1 1 0 0 0-.94.3 1 1 0 0 1-.8.3.8.8 0 0 0-.72.2c-.32.2-.57.2-.384.3-.35-.478-.037-.61-.245l-.083-.136v-14.9l.089-.139c.12-.187.3-.237.7-.222.3.12.4.43.6.22l.94.1v.392c0 .217.413.433.05 5.2.055 5.2.6.1-.4-.127-.086-.17-.069-.023-.103-.067-.158-.19-.086-.197-.088-.258-.014-.431a.64.6 0 0 1 .401-.323c.097-.2.1-.84.1-.205 0-.064-.048-.128-.246-.312-.367-.35-.418-.509-.255-.803.1-.113.1-.142.3-.226.2-.69.3-.141.4-.257.1-.12.2-.17.3-.193a1 1 0 0 1 .216-.033"/></g></svg>