<svg viewBox="0 0 37 25" xmlns="http://www.w3.org/2000/svg"><g transform="translate(-796 -368)"><path fill-rule="evenodd" d="M816.8 368.9c-.9-.301-.47-.165-.456-.644.1-.536-2.1.186-2.5.238-.106-.347.1-.54.1a4 4 0 0 0-.37.1c-.13-.201-.413.1-.214-.492.1-.621.1a37 37 0 0 1-.579.1c-.191-.466.1-.611.1-.146-.38.1-.523.1a2 2 0 0 0-.313.1 2 2 0 0 1-.282.1c-.122-.264.1-.31.1-.5-.195.1-.324.1a15 15 0 0 0-1.1.294l-.446.1c-.324.1-.599.2-1.1.343-.265.1-.533.2-.595.2a.6.6 0 0 0-.15.1 1 1 0 0 1-.164.1 15 15 0 0 0-.86.3c-.44.2-1.1.546-1.3.627-.9.1-.208.1-.265.1a2 2 0 0 0-.162.1c-.36-.145.1-.24.1-.196.1-.186.1-.239.6-.4.4-.66.4-.251.6l-.397.3c-.145.1-.33.2-.41.3-.142.1-.31.1-.35.1-.01-.016-.066-.039-.126-.052a3 3 0 0 1-.344-.105c-.132-.045-.257-.075-.284-.065-.36-.423.5-.618.9-.26-.149.2-.268.4a7 7 0 0 0-.32.5c-.268.5-.248.4-.305 1.4-.2.3-.43.7-.5.8-.6.1-.22.4-.32.8-.1.3-.27.7-.33.9a99 99 0 0 0-.133 2.5c-.1.3-.33.7-.5.9-.16.2-.45.8-.065 1.3-.2.5-.05 1.1-.066 1.4-.2.3-.4.6-.5.7s-.33.7-.05 1.2c-.2.5-.4.9-.46.9s-.23.3-.33.5c-.33.8-.36.8-.228.9a.7.7 0 0 0-.241.2c-.142.1-.146.2-.146.4 0 .16.208.208 0 .79.115.1.11.2.33.2.813.3.238.49.562.1.73.357.629.1.274.71.1.975.1.264.664.1.892.1s.585.794c.611.843.1 1.4.82.3.1.8.032 1.1.50.052 2.1.094 3.1.114.5.01 1.4.036 2.1.055 1.9.066 14.3.046 14.5-.2-.6.6-.022 1.3-.032 1.5-.026 3.3-.078 3.5-.101.1-.1.7-.04 1.4-.065a46 46 0 0 0 1.3-.066c.026-.6.3-.29.6-.49.6-.42.6-.52.8-.267.1-.124.1-.144.1-.34 0-.134-.013-.209-.036-.209-.02 0-.096-.059-.169-.127a.56.6 0 0 0-.228-.15c-.053-.013-.109-.046-.125-.076-.017-.032-.034-.277-.034-.545a17 17 0 0 0-.02-.67 73 73 0 0 1-.098-2.5c-.01-.43-.027-.878-.034-.996a88 88 0 0 1-.115-2.4c-.05-1.5-.179-2-.612-2.5-.112-.11-.486-.343-.552-.343a.5.5 0 0 1-.135-.046 6 6 0 0 0-.734-.244 4 4 0 0 1-.298-.085c-.32-.101-.73-.216-1.4-.395a20 20 0 0 1-.523-.147 1.2 1.2 0 0 0-.244-.062c-.03 0-.152-.03-.271-.062a17 17 0 0 0-.83-.22 31 31 0 0 1-.81-.205 7 7 0 0 0-.397-.101c-.089-.023-.221-.059-.29-.075a.3.3 0 0 0-.232c-.208.1-.228.1-.466-.11-.258-.203-.271-.206-.846-.147-.55.1-1.1.094-1.1.075-.05-.02-.179-.239-.179-.307a.5.5 0 0 0-.05-.137 5 5 0 0 1-.102-.252c-.132-.362-.165-.444-.188-.48a2 2 0 0 1-.086-.212 10 10 0 0 0-.136-.353 9 9 0 0 1-.135-.352 2 2 0 0 0-.086-.213 1.4 1.4 0 0 1-.08-.186c-.03-.081-.089-.251-.135-.375-.08-.212-.086-.28-.106-1-.013-.44-.036-.943-.053-1.1-.023-.284-.036-.33-.119-.414-.05-.053-.112-.095-.139-.095a.8.8 0 0 1-.185-.062 8 8 0 0 0-.29-.13c-.17-.07-.192-.102-.751-.95-.162-.243-.436-.664-.615-.931a190 190 0 0 1-.86-1.3 4 4 0 0 1-.175-.324 5 5 0 0 0-.191-.352l-.08-.124-.274c-.149-.344-.436m.925 5.2c.427.1.939.4 1.2.872.2.343.2.425.2 1.9.6.8 0 1.4-.02 1.4-.23-.205.1-.883.1-1.5.069-2.5.088-2.5.05-.013-.02-.023-.657-.02-1.4 0-1.5.013-1.6.205-2.228-.444.8-.813 1.2-.878.2-.3.3-.26.6.016m-5.549c.483.1.946.7 1 1.2.16.1.33.7.036 1.4.003 1.1-.003 1.2-.05 1.2-.26-.35.1-.753.1-.387-.777.1-.87.1a7 7 0 0 1-.495c-.182-.4-.483-.102-.162-.179-.02-.013-.023-.023-.65-.02-1.4.007-1.3.01-1.4.077-1.6.086-.281.2-.464.4-.673.4-.405.8-.545 1.3-.411m-4.1.552c.33.1.589.5.74.9.8.2.8.2.074 1.5l-.01 1.3-.232c-.44.1-.86.1-1.2.212-.192-.42.1-.506.1-.268-.314-.337-.062-.01-.052-.01-.722 0-1.5.016-1.4.016-1.4.102-1.6.11-.313.2-.503.4-.686.3-.29.6-.376-.231m-3.7 1.1c.149.1.35.3.443.5.172.4.202.6.222 1.7.13.8.01 1.1-.024 1.1-.46.1-.228.1-.81.2-.234.1-.499.1-.585.1a.8.8 0 0 1-.264l-.11-.01v-1.3c0-1.1.007-1.3.064-1.5a1.7 1.7 0 0 1 .102-.343 1 1 0 0 0 .066-.15c.033-.108.3-.395.4-.483a.5.5 0 0 1 .5-.007m-3.1 1.3c.122.1.248.3.344.7.82.3.86.3.089 1.3l.003 1-.116.1a5 5 0 0 1-.628.2 1 1 0 0 0-.221.1c-.2-.8-.132l-.093-.01-.01-.866c-.003-.477-1.023-1.3.03-.392.1-.833.2-.934a.16.2 0 0 0 .046-.094c0-.69.2-.262.3-.262a.3.3 0 0 1 .163.1m-2.3 1.7c.5.89.1.89.1a.5.5 0 0 0 .63.2c.86.2.168.8.191 1.3l.2.5-.129.1a1 1 0 0 1-.211.1 4 4 0 0 0-.32.1c-.341.1-.341.1-.338-.476-.918.1-1.5.245-1.8.125-.257.2-.3.4-.146m18.3 1c.515.2.856.5 1.1 1l.96.2.01 1.7c.01 1.2 0 1.7-.026 1.8-.36.1-.43.1-1.7.062l-1.7-.01-.01-1.7c-.006-1.7-.006-1.7.06-1.9.04-.108.1-.261.2-.343.1-.16.5-.59.6-.59 0 .063-.2.1-.46.1-.5.3-.148.5-.187s.542-.1.8.066m4.5.006c.126.252.1.282.1a.16.2 0 0 0 .82c.04 0 .337.3.43.4.36.1.86.2.112.2a1 1 0 0 0 .7.1c.76.1.96.5.096 2.1v1.7l-.73c-.43-.678-1.4.01l-1.3-.01-.01-1.7c-.006-1.5 0-1.8.043-1.9a.7.7 0 0 0 .05-.163c0-.98.2-.366.3-.585.2-.264.6-.465-.47.1-.3.2.26.4.065m-9.5.29c.27.1.515.3.68.6.255.4.248.4.248 2.2v1.6l-.562c-1.4.051-2.2.061-2.2.025-.013-.02-.02-.777-.02-1.7l.007-1.6.086-.234c.05-.13.1-.294.2-.366a1.8 1.8 0 0 1 .634-.565c.189-.88.3-.1.5-.1.2-.4.3.9.5.094m-4.2.54c.318.2.569.5.691 1.53.2.6.4.063 1.6.3.8-.003 1.4-.013 1.4s-.185-.39.1c-.205-.48-.612.1-.45.1-1.3.079-1.3.036-.014-.023-.024-.682-.02-1.5.003-1.1.013-1.5.056-1.7.026-.137.1-.261.1-.28a.3.3 0 0 0 .053-.115c.082-.284.4-.647.8-.758.1-.49.5-.3.6.089m18.4 0c.317.2.568.6.697 1.63.2.7.3.073 1.2v.98l-.198-.01a7 7 0 0 1-.596-.069 30 30 0 0 0-1.1-.157c-.162-.022-.231-.114-.3-.391-.034-.124-.073-.275-.093-.337-.056-.166-.037-.946-1.2.122-.572.5-.996.9-1.1.136-.49.5-.3.6.089m-22.1.79c.274.2.486.6.555 1.2.63.5.063 2.3.003 2.4-.5-.605.1-1.1.15a5 5 0 0 0-.443.1c-.245.1-.235.1-.235-1.3 0-1.2.004-1.3.07-1.5.04-.15.1-.369.2-.486.1-.219.3-.47.5-.5.1-.36.4 0 .473.1m25.5-.043c.222.1.434.4.576.8.83.2.83.3.1 1.5.1.7.006 1.3-.004 1.4-.23.1-.23.1-.261.1l-.585-.052q-.804-.075-.883-.134c-.036-.033-.043-.225-.04-1.1.007-1.2.027-1.5.133-1.8.079-.235.3-.532.4-.66a.53.5 0 0 1 .569-.094m-28.6.84c.103.1.317.5.317.6 0 .45.143.1.222.1.205.1 2.3.014 2.4-.83-.764.1-.976.1h-.198v-1c0-1.2.046-1.6.238-2.179-.359.4-.45.6-.297m-2.3.865c.115.1.234.6.265.16.2.26.7.023 1l-.3.7-.83-.406.1c-.483.1-.453.1-.453-.712-.921-1.4.132-1.7.155-.506.3-.627.5-.372m23 3.4q.485.2.757.9l.96.2.017 1.3c.1.7.01 1.3.003 1.3-.7-.36.1-.7.1-.59-2.7.053-2.8.023-.01-.01-.014-.59-.014-1.3.007-1.2.01-1.3.086-1.5.162-.53.6-.993 1.1-1.1.261-.49.6-.6.8.098m-9.8.02c.33.1.661.4.83.7.221.4.221.4.221 1.8v1.3l-1.4.007c-.753-1.4-.003-1.4-.02-.07-.042-.053-2.5.017-2.7l.08-.22c.042-.136.2-.427.4-.554a1.3 1.3 0 0 1 .606-.327c.234-.62.4-.55.7.02m5.003c.615.2 1.2.745 1.2 1.3.47.3.037 2.4-.01 2.4-.53.1-3.3.055-3.3.003-.014-.017-.02-.578-.017-1.2.003-1.2.003-1.2.086-1.4.208-.568.7-.983 1.2-1.1l.248-.05c.093-.19.4.1.6.066m8.8.239c.433.2.71.7.777 1.3.4.4.042 2.003 2-.27-.235.1-1.1.071-1.026-1.1.023-1.1-.029-.036-.046-.043-.271-.03-1.1.014-1.1.017-1.1.096-1.3.199-.571.4-.852.9-1.1-.35.4.7.5.076m-17.9.045c.198.1.472.4.594.6.47.1.113.3.149.4.63.2.66.3.06 1.3l-.01 1.1-.364c-.198 0-.698-.01-1.1-.026-.571-.02-.753-.04-.79-.075-.066-.066-.052-1.9.017-2.3.1-.522.4-.999.8-1.1a.75.8 0 0 1 .631m21.8.124c.225.1.453.4.588.8.9.3.93.3.11 1.2.13.9.14-.047 1-.36-.327-.651-.512-.595-.648-.04-.036-.029-.142-.199-.238-.378l-.178-.327-.004-.424c-.01-.914.1-1.3.443-1.7.169-.21.4-.285.6-.2m-25.5.147c.195.1.297.3.476.7.102.2.152.8.142 1.6l-.1.8-.84-.006c-.568-.007-.853-.02-.882-.046-.037-.03-.047-.206-.043-.908 0-.477-.934-1.095-.477.2-.745.5-.986.2-.226.4-.258.7-.105m-3.1.278c.14.1.252.4.34.7.7.3.77.4.077 1.1l.3.8h-.248c-.466-.004-.89-.053-.949-.108-.046-.046-.05-.134-.033-.725-.395-.797.1-.98.1-.519.3-.946.6-.946 0 .12.175.1m-2.3.336c.172.3.241.7.271 1.4.2.6.17.6-.36.7-.43-.9.1-.156-.05-.01-.215-.03-.367-.04-.396-.032-.386-.022-.386-.398-.813.1-1.4.284-1.7.126-.2.3-.193.4.016"/></g></svg>