<svg viewBox="0 0 37 31" xmlns="http://www.w3.org/2000/svg"><g transform="translate(-697 -361)"><path fill-rule="evenodd" d="M732.4 386H734v1.8l-1.3-.007-1.3-.011-.023-.278c-.044-.481-.184-.93-.47-1.5-.007-.15.7-.026 1.6-.026m-21.4 0h6.9c3.8 0 6.9.007 6.9.015 0 .007-.52.1-.115.2-.218.4-.326.8-.348 1.2a1.6 1.6 0 0 1-.37.3c-.15-2.4.037-6.4.037h-6.4l-.026-.14a3 3 0 0 1-.04-.341c-.012-.252-.167-.752-.334-1.1Zm-9.6 0h1.8c1 0 1.8.007 1.8.015 0 .007-.67.2-.152.3-.162.4-.330-.329 1.3v.177l-1.5.008c-.931-1.6-.004-1.6-.023-.019-.022-.034-.41-.034-.918Zm26.7-1.3c.277.536.1.696.1.61.3.913.4 1.3.792a3.2 3.2 0 0 1 .477 3.9c-.203.3-.788.9-1.1 1.1-.11.1-.214.1-.225.1a.7.1 0 0 1-.56c-.063-.004-.274.1-.274.1 0 .015-.14-.3a1.2 1.2 0 0 0-.284.1c-.2.1-.377.1-.777.1-.285-.54-.004-.573-.023a5 5 0 0 0-.374-.122 3.3 3.3 0 0 1-.526-.207 1 1 0 0 0-.21-.1c0 .018-.222-.17-.492-.419a3.2 3.2 0 0 1-.881-1.5c-.07-.24-.085-.404-.089-.863-.003-.307-.563-.563 0 .055-.118.1-.263.2-.592.6-1.3 1.1-1.6.24-.181.8-.485.9-.485a.5.5 0 0 0 .144-.044c.056-.26.3-.7.4-.104a3.7 3.7 0 0 1 .807-.029m-20.1-.015c.358.858.1.953.1.22.14.1.27.1.621.2 1.3.785 1.6 1.4.126.2.289.7.326.9.14.1.33.2.44.2.33.1.15.8-.27a3.5 3.5 0 0 1-.562 1.3 3.1 3.1 0 0 1-1.8 1.2c-.1-.2.1-.222.1-.19-.27-.555-.403-.004-.574-.026-.773-.086-.141-.044-.267-.07-.285-.062-.15-.34-.041-.008-.004-.018-.104-.07-.215-.122-.803-.37-1.5-1.1-1.7-1.9a3.1 3.1 0 0 1-.037-1.7 3 3 0 0 1 .836-1.5c.237-.233.6-.503.8-.578.1-.25.1-.55.1-.07s.034-.26.1-.03a.7.7 0 0 0 .193-.062c.114-.52.3-.93.7-.163.1-.11.2-.16.3-.015M703.7 361c.371 0 .717.717 0 .3.2.37.4.7.2.4.4.52.4.03 0-.23-.12.1.18.3.3.107.5.178.2.66.6.177.7.248.4.177 1.3.622 1.7.907.3.226.9.648 1.722a48 48 0 0 0 1.9 1.4c.418.3.959.6 1.611.7.1.22.1.33.1.063 1.1.448 1.1.419-.11-.4.015 0 .33.5.177.5.163-.8.7.1.25.34.3.115.4.13.7.1.19.1.34.1.2.48.3.77.2.3.3.63.4.78.1.26.7.122.7.126.4.2.37.5.78.2.4.4.66.5.55-.1.1 0 .104.14.7.122a.5.5 0 0 1 .155c.6.718.1.999.1.92.226.296.7.388.703.1.314.614.1.666.1l.629.1c.296.736.1.98.1.244.485.1.537.1.144.392.832.1.226.459.1.518.1a1 1 0 0 1 .167c.44.38.1.444.1a.3.3 0 0 1 .74c.3.13.222.1.92.292.1.444.1.151.1.484.2.732.2.252.1.477.1.5.1l.155-.059a.5.5 0 0 1 .178-.037c.33.063-.4.1-.022 0-.089 1.7-.085 1.9.004a.2.2 0 0 0 .93.16.2 0 0 1 .88c.7.322.1.381.1.296.1.855.4 1.2.714.6.537 1.2 1.5 1.5 2.5.96.3.215.8.219.4.34.3.7.6.38.3.78.6.86.7.44.5.103 1.122 1.1a1 1 0 0 1 .15.2c-.8.1.1.2.33.2.22.3.1.19.1s.3.5.33.9c.3.4.4.8.22.8-.15-.651-1.4.052l-1.4.022-.025-.978c-.034-1.3-.082-2.2-.156-2.8-.007-.081-.022-.233-.03-.333-.07-.833-.259-1.8-.47-2.3-.203-.526-.436-.97-.617-1.2-.17-.182-.596-.434-.762-.452a.4.4 0 0 1-.13-.037c-.048-.034-.625-.09-.651-.067-.8.85.1.203.3a6.7 6.7 0 0 1 1.2 2.3c.33.1.7.2.78.3.1.25.1.37.3.7.1.3.4.48.6.3.3.26.4-.19.7-.59.3-.274.9-.373 1a1.4 1.4 0 0 0-.1.3c-.3.1-.86.4-.13.6-.44.2-.74.4-.67.4.8-.3.1-.3.1-.21-.7.1-.11.2-.63.2-.67.2-.22.5.26.2.89.4.14.5.226.6.785 1.5 1.3 2.407.4.462.5.388.9a6 6 0 0 0-.81.5l-.56.4c-.55.4-.092 1.2-.078 1.7.15.6.3.7.97.9.81.2.151.4.17.6.7.1.52.2.103.4.52.1.104.3.119.4.22.1.18.2-.45.2a.2.2 0 0 1-.107-.033c-.018-.023-.2-.082-.403-.134a3.5 3.5 0 0 0-1.7 0 3 3 0 0 0-.407.1.2.2 0 0 1-.6 1 1 0 0 0-.14.1c-.67-.13-.14-.015-.011-.004-.1-.2-.167.1-.73.2-1.011-.75-.545-1.019-1.026-1-.358-1.8a6 6 0 0 1-.241-.519c-.081-.285-.3-.796-.392-.914-.337-.44-1-1.5-1-1.6 0-.026-.822-1.4-.97-1.7-.13-.2-.325-.374-.425-.382-.048 0-.415.1-.814.1-.404.1-.866.2-1.203s-.322.1-.351.1a.6.6 0 0 1-.13c-.163-.54.1-.558.1-.8-.41-.67a.7.1 0 0 0-.78c-.1-.4-.59-.018-.015-.166-.325.1-.326.1-.685.2-1.4.266a8 8 0 0 0-.518.1 1 1 0 0 1-.185c-.7-.289-.481.1s-.414.1-.492.1a.5.5 0 0 0-.178c-.11.1-2.2.097-3.1.041-.785-.044-.837-.052-1.2-.111a10 10 0 0 0-.61-.074c-.14-.011-.514-.052-.829-.093-.31-.04-.577-.074-.592-.07a.4.4 0 0 1-.13-.04c-.155-.064-.21-.03-.207.1 0 .077-.7.2-.18.3l-.74.6a4 4 0 0 0-.37.8c.11.2.4.6.63.9.18.3.33.6.33.8-.4.1.4.3.19.3.77.1.081 1.3.003 1.4a.5.5 0 0 0-.3.2c0 .067-.7.4-.18.8-.22.8-.3.9.285 1.7.7.2.93.5.37.6-.26-.52-.137-.022-.255-.181-.991-.477-1.1-.452a.4.4 0 0 1-.144-.037c-.248-.103-1.3-.044-1.5.082-.67-.063-.45-.222.1-.385.3-1.3.411-1.8.026-.204-.04-.655-.092-.655-.015 0-.026-.322-.03-.715-.015-1.4-.081-2.6-.163-2.9a3 3 0 0 0-.103-.315 2 2 0 0 1-.093-.24c-.06-.186-.144-.397-.559-1.4-.159-.381-.144-.351-.418-.955-.192-.43-.255-.526-.492-.781-.662-.715-.78-1.2-.788-3.4-.003-1.7-.033-2.3-.148-2.8a5.4 5.4 0 0 0-.496-1.4c-.28-.559-.244-.533-.554-.381-.145.1-.263.1-.263.2q-.2-.26c-.019-.011-.85-.155-.119.1-.134.1-.215.4a9 9 0 0 1-.2.6c-.352-.362 1-.38 1.8-.5.2-.3.4-.53.4a.56.6 0 0 1-.373.3c-.74-.226.1-.337.1s-.318.1-.455.2c-.274.1-.34.1-.744-.1a1.1 1.1 0 0 1-.521-.397c-.134-.166-.197-.337-.23-.61-.033-.293-.04-.341-.081-.875-.022-.296-.052-.644-.063-.777a93 93 0 0 1-.033-2.4c-.008-1.2-.03-2.3-.052-2.5-.022-.185-.04-.345-.04-.356s-.145-.14-.323-.289a15 15 0 0 1-.418-.348 17 17 0 0 0-.4-.322c-.295-.233-.3-.24-.203-.263.2-.04 1.1-.037 1.5.4.2.22.6.7.8.115.2.4.4.63.5.048a15 15 0 0 0 .614-.278c.592-.285.9-.392 1.3-.44.1-.13.5-.2.9-.02"/></g></svg>