<svg xmlns="http://www.w3.org/2000/svg" width="400" height="200" viewBox="-64.396 1 310 155"><path d="M96.6 2.7c.5 1 1 12.8 1.2 26.2l.3 24.5-9.5 9.3-9.4 9.3H57.6c-11.9 0-21.6-.2-21.6-.4 0-.3 3.3-5.4 7.3-11.3 5.1-7.4 8-10.9 9.5-11.1 3.6-.5 1.4-2.2-2.8-2.2-3.8 0-6.2 1.4-3.8 2.2 1.2.4-10.9 20.8-12.4 20.8-.4 0-.8-1.5-.8-3.4 0-1.8-.3-6-.6-9.3-.6-5.2-.4-6.3 1.4-8.1l2-2-3.1-.6c-1.8-.4-8.6-1.1-15.2-1.7-9.4-.8-12.6-.8-15 .2-2.8 1.2-2.1 1.3 8 2 6.1.3 12.2 1 13.6 1.3l2.6.7.7 19.2c1 29.2-.7 34.7-11 34.7-8.3 0-11.1 2-5.7 4.1 3.8 1.4 9.8.2 13.4-2.8 5.1-4.3 7.1-9.7 7.7-20.1.3-5 .8-9.2 1.3-9.2.4 0 3 3.5 5.8 7.7 2.7 4.3 5.7 8.8 6.6 10 1.8 2.6 7.5 4 10.2 2.4 1.6-.9 1.5-1.1-1.2-2.1-2.1-.7-4.7-3.6-8.7-9.5L40 75h37.8l8.6 11.5c4.7 6.3 8.6 11.8 8.6 12.2 0 .3-.8 1.5-1.7 2.6-1.3 1.5-1.5 2.1-.5 2.4 1.4.5 1.6 13.1.6 30.6-.6 9.3-.9 10.6-2.6 11.1-3.5.9-.8 2.6 4 2.6 7.3.1 19.5 1.9 20.6 3.1.8.7.4 1.6-1.3 3-1.4 1.2-1.8 1.9-.9 1.9 1.9 0 3.8-2 3.8-4.2 0-2.5-2.7-3.6-11.5-4.9l-7.7-1.2.7-22.6.8-22.6 9.4-11.3 9.5-11.2h22.3c12.3 0 23.4.4 24.7.9 3.8 1.5 7.8 5.8 7.8 8.5 0 4.8-6.7 7.2-11.5 4-2.3-1.5-2.5-1.5-3.1 0-1.3 3.3.3 4.6 5.5 4.6 8.8 0 14.1-3.5 14.1-9.3 0-4.2-2.2-7.2-6.8-9.6-2-1-4.6-2.9-5.7-4.1l-2-2.2 2.4-1.9c2.7-2.2 5.9-2.4 9.6-.7 2.2 1 2.8.9 3.6-.3 2.2-3.5 1.1-4.2-5.6-3.7-7.2.6-9.2 1.8-11.2 6.5L161 74h-41.9l-6.3-8.3C103.1 53 103 52.7 103 37c0-15.6.7-17.6 4.5-14 3.1 2.9 8.7 19.4 8.9 26.2l.1 4.8h8.4l-1.8-3.3c-1-1.7-3.1-6.9-4.5-11.3-1.5-4.5-4.2-10.7-6.1-13.8-3.5-5.9-3.5-6 .7-7 4.1-.9 8.8-5.4 8.8-8.3 0-6.7-5-9.3-17.6-9.3-7.9 0-8.5.2-7.8 1.7M114 4c4.9 4.9 3 11.1-4.1 13-6.1 1.7-6.9 1-6.9-5.9 0-3.3.3-6.6.6-7.5.9-2.4 7.9-2.1 10.4.4m-11.6 54.2c2.1 3 2 4.4-.5 7.9-2.6 3.7-4.4 3.7-6.4-.1-1.7-3.2-1.5-4.1 1.8-7.8 2.5-2.8 3.2-2.8 5.1 0m-8.3 10.5c1.3 2 2.2 4.8 2.1 6.2-.1 2.3.5 1.9 5.3-3.4l5.5-6 2 2.5c1.1 1.4 2.8 3.8 3.6 5.3 1.8 3.3.9 5.2-4.1 9.7-5.6 5.1-8.1 7.6-9.6 9.9l-1.5 2.4-7.5-9.7c-4.1-5.3-7.5-10.1-7.7-10.6-.4-1 7.6-10 8.8-10 .5 0 1.9 1.7 3.1 3.7"/></svg>