<svg viewBox="0 0 46 18" xmlns="http://www.w3.org/2000/svg"><defs><clipPath id="a"><path d="M1165 374h46v18h-46z"/></clipPath></defs><g clip-path="url(#a)" transform="translate(-1165 -374)"><path fill-rule="evenodd" d="M1197.49 375.108a.1.1 0 0 0 .063.088c.045.021.062.093.062.273 0 .139.017.248.042.248s.041.084.041.189c0 .138.017.189.063.189.041 0 .062.046.062.147 0 .08.02.147.042.147.025 0 .041.046.041.105 0 .067.025.105.063.105.033 0 .062.03.062.063s.02.063.042.063c.024 0 .041.038.041.08 0 .041.03.092.067.104.033.013.05.043.037.068-.012.02.004.042.037.042.042 0 .067.038.067.088 0 .08.087.206.146.206.041 0 .145.117.145.163 0 .026.02.047.046.047.07 0 .162.113.162.205 0 .05.02.089.041.089.025 0 .042.197.042.504 0 .373.013.503.054.503.037 0 .046.093.037.358-.012.302-.004.356.05.356.038 0 .067.017.067.042 0 .021-.046.042-.104.042s-.104.017-.104.042c0 .021-.03.042-.062.042-.034 0-.063-.02-.063-.042 0-.025-.083-.042-.187-.042s-.187.017-.187.042-.112.042-.25.042c-.195 0-.249.013-.249.063 0 .047-.05.063-.187.063-.104 0-.187.017-.187.042 0 .021-.091.042-.208.042-.158 0-.208.017-.208.063a.064.064 0 0 1-.062.063c-.046 0-.062-.046-.062-.168 0-.121.016-.168.062-.168.054 0 .062-.071.054-.495-.013-.475-.017-.492-.104-.504-.054-.008-.096-.034-.096-.055s-.045-.037-.104-.037-.104-.022-.104-.043c0-.025-.045-.041-.103-.041-.067 0-.104-.026-.104-.064 0-.037-.038-.062-.104-.062-.059 0-.104-.021-.104-.042 0-.026-.067-.042-.146-.042-.1 0-.145-.021-.145-.063 0-.038-.038-.063-.104-.063-.059 0-.104-.021-.104-.042 0-.026-.038-.042-.083-.042s-.083-.021-.083-.042c0-.026-.067-.042-.146-.042-.091 0-.158-.026-.17-.063-.017-.038-.08-.063-.167-.063-.079 0-.141-.021-.141-.042 0-.026-.104-.042-.229-.042s-.228.016-.228.042c0 .02-.067.042-.146.042q-.148 0-.146.063c0 .042-.045.063-.145.063-.079 0-.146.016-.146.042 0 .02-.091.042-.207.042h-.208v.462c0 .39-.009.462-.067.462-.054 0-.062.08-.05.587.013.546.009.588-.062.588-.042 0-.062-.02-.05-.042.013-.025-.004-.042-.037-.042-.038 0-.067-.02-.067-.042 0-.025-.037-.042-.083-.042s-.096-.029-.108-.063a.13.13 0 0 0-.104-.063c-.042 0-.08-.02-.08-.042 0-.025-.111-.042-.249-.042-.137 0-.249.017-.249.042 0 .021-.075.042-.166.042s-.167-.02-.167-.042c0-.025-.037-.042-.083-.042s-.083-.029-.083-.063c0-.037-.037-.063-.104-.063-.058 0-.104-.02-.104-.042 0-.025-.02-.042-.045-.042-.046 0-.163-.105-.163-.147s-.116-.147-.162-.147a.046.046 0 0 1-.045-.046c0-.046-.104-.163-.146-.163s-.146-.118-.146-.164c0-.03-.095-.046-.232-.046-.225 0-.35-.06-.35-.164 0-.026-.02-.046-.041-.046-.058 0-.275-.219-.258-.26.004-.018-.008-.034-.033-.034-.054 0-.483-.433-.466-.47.004-.022-.037-.034-.095-.034s-.104-.021-.104-.042c0-.026-.021-.042-.046-.042-.058 0-.162-.105-.162-.164 0-.025-.038-.046-.088-.046-.091 0-.203-.093-.203-.164 0-.025-.021-.046-.042-.046-.058 0-.25-.193-.25-.252 0-.021-.02-.042-.045-.042-.058 0-.162-.105-.162-.164 0-.025-.038-.046-.088-.046s-.166-.084-.27-.19c-.1-.104-.216-.188-.266-.188-.046 0-.083-.03-.083-.063 0-.046-.05-.063-.187-.063s-.187.017-.187.063c0 .054-.096.063-.603.063s-.603-.009-.603-.063c0-.05-.054-.063-.25-.063-.137 0-.249-.017-.249-.042s-.208-.042-.536-.042c-.316 0-.55-.017-.566-.042s-.299-.042-.71-.042c-.579 0-.683-.009-.683-.063 0-.055-.22-.063-1.725-.063s-1.725.008-1.725.063c0 .054-.117.063-.79.063-.5 0-.79.017-.79.042s-.241.042-.645.042c-.403 0-.644.017-.644.042s-.283.042-.77.042c-.585 0-.764.012-.756.05.004.03-.033.059-.083.067-.054.009-.096.034-.096.055s-.062.038-.141.038c-.087 0-.15.025-.166.063-.013.038-.075.063-.146.063-.066 0-.137.017-.15.042-.012.02-.108.042-.212.042-.1 0-.183.016-.183.042 0 .02-.066.042-.145.042q-.148 0-.146.063c0 .042-.041.063-.14.063-.08 0-.159.017-.171.042-.013.02-.125.042-.25.042-.158 0-.224.017-.245.063-.013.033-.062.063-.108.063s-.083.017-.083.042c0 .02-.092.042-.208.042-.113 0-.208.017-.208.042 0 .02-.067.042-.146.042-.1 0-.145.02-.145.063 0 .038-.038.063-.104.063-.058 0-.104.016-.104.042 0 .02-.067.042-.146.042-.1 0-.145.02-.145.063q.002.063-.146.063c-.079 0-.145.016-.145.042 0 .02-.046.042-.104.042s-.104.016-.104.042c0 .02-.066.042-.145.042q-.148 0-.146.063c0 .037-.037.063-.104.063-.058 0-.104.016-.104.042 0 .02-.066.042-.145.042-.08 0-.146.016-.146.042 0 .02-.037.042-.083.042s-.096.029-.108.063c-.017.033-.07.063-.125.063s-.1.016-.1.042c0 .02-.066.042-.145.042q-.148 0-.146.063c0 .037-.037.063-.095.063a.22.22 0 0 0-.154.084.22.22 0 0 1-.154.084c-.054 0-.096.02-.096.046 0 .071-.112.163-.203.163-.05 0-.088.026-.088.063s-.037.063-.095.063a.22.22 0 0 0-.154.084c-.033.047-.083.084-.112.084-.03 0-.05.026-.046.05.008.03-.03.06-.08.068-.053.008-.095.034-.095.055s-.045.037-.104.037c-.066 0-.104.026-.104.063s-.037.063-.095.063a.22.22 0 0 0-.154.084.22.22 0 0 1-.154.084c-.054 0-.096.021-.096.047 0 .058-.103.163-.162.163-.025 0-.045.03-.045.063 0 .038-.038.063-.104.063-.075 0-.104.021-.104.084s-.03.084-.104.084c-.058 0-.1.013-.096.03.017.046-.237.306-.295.306-.108 0-.254.206-.254.357 0 .135.009.147.125.147q.125 0 .125-.063c0-.05.066-.063.332-.063.196 0 .333-.016.333-.042 0-.025.333-.042.919-.042.553 0 .906-.016.89-.037-.042-.072.074-.101.124-.034.042.059.138.071.62.071.35 0 .565.017.565.042s.112.042.25.042c.195 0 .25.013.25.063 0 .046.049.063.207.063.116 0 .208.017.208.042 0 .021.066.042.145.042.08 0 .146.017.146.042 0 .021.046.042.104.042.066 0 .104.025.104.063s.037.063.104.063c.058 0 .104.017.104.042 0 .021.037.042.083.042s.083.03.083.063c0 .034.03.063.062.063.034 0 .063.017.063.042 0 .021.037.042.087.042.079 0 .204.088.204.147 0 .042.116.147.162.147.025 0 .046.025.046.055s.037.08.083.113a.22.22 0 0 1 .083.155c0 .055.02.097.046.097.07 0 .162.113.162.206 0 .05.025.088.058.088.046 0 .054.038.037.147-.024.147-.02.147.13.147.082 0 .149-.021.149-.042 0-.025.046-.042.104-.042.066 0 .104-.025.104-.063 0-.034.029-.063.062-.063.034 0 .063.03.063.063 0 .034.037.063.083.063.062 0 .083-.03.083-.105 0-.097.012-.105.208-.105.116 0 .208-.021.208-.042 0-.025.262-.042.706-.042.445 0 .707.017.707.042 0 .021.067.042.146.042s.145.017.145.042c0 .021.067.042.146.042.1 0 .145.021.145.063 0 .038.038.063.104.063.058 0 .104.017.104.042 0 .021.038.042.088.042.091 0 .203.092.203.164 0 .025.03.046.063.046s.062.017.062.038.042.046.096.054c.05.009.087.038.083.068-.009.025.016.05.05.05.033 0 .062.017.062.042 0 .02.037.042.087.042.08 0 .204.088.204.147 0 .042.117.147.162.147.025 0 .046.02.046.046 0 .046.104.164.145.164.034 0 .146.113.146.147 0 .042.116.147.162.147.025 0 .046.02.046.046 0 .046.104.164.145.164.059 0 .146.126.146.206 0 .05.02.088.042.088.024 0 .041.03.041.063s.02.063.042.063c.058 0 .274.218.262.26-.009.017.033.034.091.034s.104-.021.104-.042c0-.105.208-.252.353-.252.1 0 .146-.017.146-.063q-.002-.063.145-.063c.08 0 .146-.021.146-.042 0-.025.083-.042.183-.042.125 0 .191-.021.208-.063.016-.05.1-.063.357-.063.196 0 .333-.017.333-.042s.2-.042.52-.042.52.017.52.042.124.042.29.042c.233 0 .291.012.291.063 0 .05.058.063.287.063.162 0 .304.017.316.042.013.02.083.042.15.042.07 0 .133.025.145.063.017.038.08.063.167.063.079 0 .141.017.141.042 0 .02.046.042.104.042s.104.017.104.042c0 .02.066.042.145.042.1 0 .146.02.146.063 0 .038.037.063.104.063.058 0 .104.017.104.042 0 .02.037.042.083.042s.083.03.083.063c0 .038.038.063.104.063.058 0 .104.017.104.042 0 .02.037.042.087.042.092 0 .204.092.204.163 0 .026.037.047.083.047.096 0 .254.126.225.176-.013.017.025.034.083.034s.108.016.108.042c0 .02.03.042.062.042.034 0 .063.016.063.037s.041.047.095.055c.05.008.088.038.083.067-.008.025.009.05.034.05.058 0 .162.106.162.164 0 .026.02.047.041.047.059 0 .275.218.262.26-.008.017.034.034.092.034s.104.016.104.042c0 .02.029.042.062.042s.063.02.063.046c0 .05.207.247.261.247.017 0 .03.021.03.047 0 .117.124.163.453.163.27 0 .336.013.336.063q-.002.063.146.063c.079 0 .146.017.146.042 0 .021.066.042.145.042.08 0 .146.017.146.042 0 .021.029.042.062.042s.062.03.062.063c0 .034.021.063.042.063.025 0 .041.034.041.08 0 .042.046.114.104.156.059.042.104.113.104.155 0 .084.092.197.162.197.03 0 .038.042.021.105-.02.08-.008.105.042.105.041 0 .066.038.066.105 0 .06.021.105.042.105.025 0 .042.067.042.147 0 .143.004.147.166.147.137 0 .195-.025.307-.147.08-.08.183-.147.23-.147.05 0 .086-.025.086-.063s.038-.063.088-.063c.091 0 .203-.092.203-.163 0-.026.042-.047.096-.047a.22.22 0 0 0 .154-.084.22.22 0 0 1 .154-.084c.054 0 .095-.02.095-.046 0-.067.109-.164.188-.164.037 0 .1-.029.137-.067.054-.054.07-.059.087-.012.008.029-.004.063-.03.071-.028.008-.049.063-.049.118 0 .063-.025.1-.066.1-.055 0-.063.038-.05.19.008.13-.005.188-.038.188-.029 0-.054.046-.054.105 0 .06.02.105.042.105.025 0 .041.046.041.105 0 .06.021.105.046.105.058 0 .162.105.162.164 0 .025.067.046.146.046.1 0 .145-.02.145-.063 0-.038.038-.063.088-.063.103 0 .203-.092.203-.189 0-.08.096-.189.162-.189.025 0 .046-.067.046-.15 0-.148.075-.27.162-.27.025 0 .046-.02.046-.042 0-.025.137-.042.328-.042.254 0 .333-.012.354-.063.016-.046.091-.063.316-.063.166 0 .29-.016.29-.042 0-.025.067-.042.146-.042.08 0 .146-.016.146-.037s.05-.047.108-.06l.108-.02-.104.1c-.062.055-.129.101-.154.101-.02 0-.041.047-.041.101s-.03.114-.067.126c-.05.021-.062.059-.041.151.016.093.008.126-.038.126-.037 0-.062.042-.062.105s.025.105.058.105c.046 0 .054.042.037.168-.037.265.067.336.466.336.179 0 .312-.017.312-.042s.046-.042.104-.042.104-.02.104-.046c0-.059.104-.164.162-.164.025 0 .046-.03.046-.063s.029-.063.066-.063c.046 0 .058-.025.038-.084s-.009-.084.037-.084c.05 0 .067-.046.067-.21 0-.117.02-.21.041-.21.025 0 .042-.037.042-.088 0-.046.025-.113.058-.147.07-.067.274-.08.274-.017 0 .026.113.042.25.042.195 0 .25.013.25.063s.057.063.29.063c.167 0 .291.017.291.042 0 .021.067.042.146.042s.145.017.145.042c0 .021.096.042.217.042.19 0 .207.009.137.055-.042.034-.063.08-.046.105.017.03.004.05-.033.05-.046 0-.067.042-.067.143 0 .088-.025.151-.062.168-.038.013-.062.076-.062.151 0 .076.024.139.062.151a.13.13 0 0 1 .062.105c0 .042.021.08.042.08.025 0 .041.046.041.105 0 .067.025.105.063.105.033 0 .062.03.062.063 0 .05.058.063.291.063.179 0 .291-.017.291-.046 0-.071.112-.164.204-.164.062 0 .087-.025.087-.088 0-.092.092-.206.162-.206.025 0 .046-.075.046-.168 0-.092.02-.168.042-.168.025 0 .041-.071.045-.16 0-.083.013-.125.025-.092q.068.17.258.168c.07 0 .129.017.129.038 0 .025.07.046.158.055.096.008.15.033.146.063-.009.029.016.054.05.054.033 0 .062.017.062.042 0 .021.033.042.079.042.041 0 .112.046.154.105s.112.105.153.105c.084 0 .196.093.196.164 0 .025.02.046.046.046.058 0 .162.105.162.164 0 .025.037.046.083.046s.083-.02.083-.046c0-.118.125-.164.453-.164.279 0 .333-.012.35-.075.016-.068.02-.068.024 0 .005.067.059.075.545.075.333 0 .54.017.54.042s.125.042.292.042c.224 0 .299.017.316.063.016.038.078.063.166.063.079 0 .141.017.141.042 0 .021.067.042.146.042s.145.017.145.042c0 .021.067.042.146.042.1 0 .145.021.145.063q-.002.063.146.063c.079 0 .145.017.145.042 0 .021.046.042.104.042.067 0 .104.025.104.063s.038.063.104.063c.058 0 .104.017.104.042 0 .021.046.042.104.042s.104.017.104.038.042.046.096.054c.05.009.087.038.083.068-.009.03.033.05.091.05s.104.017.104.042c0 .021.03.042.063.042s.062.03.062.063c0 .038.041.063.108.063.058 0 .096.017.079.042s.02.042.079.042.108.017.108.042c0 .021.046.042.104.042.066 0 .104.025.104.063 0 .046.046.063.15.063.079 0 .137-.017.124-.034-.029-.05.13-.176.225-.176.046 0 .083-.021.083-.042 0-.025.046-.042.104-.042.062 0 .1-.021.091-.055-.004-.029.05-.054.15-.063.083-.008.154-.029.154-.054 0-.021.133-.038.29-.038.234 0 .292-.013.292-.063s.062-.063.312-.063.312.013.312.063.058.063.286.063c.163 0 .304.017.317.042.012.021.09.042.17.042.1 0 .141.021.141.063 0 .046.05.063.187.063.104 0 .188.017.188.042 0 .021.066.042.145.042s.145.017.145.042c0 .021.046.042.104.042.059 0 .104.025.104.059 0 .059.2.109.433.109h.12l-.025-.554c-.02-.429-.041-.571-.091-.605-.033-.025-.062-.105-.062-.18 0-.072-.017-.13-.042-.13-.02 0-.042-.068-.042-.148 0-.105-.016-.147-.062-.147s-.058-.03-.037-.105c.02-.08.008-.105-.042-.105-.037 0-.066-.033-.066-.08 0-.046-.017-.096-.042-.109-.02-.012-.042-.063-.042-.109 0-.042-.029-.08-.062-.08a.064.064 0 0 1-.062-.063c0-.033-.017-.063-.042-.063-.02 0-.042-.037-.042-.08 0-.041-.024-.088-.058-.1-.037-.017-.05-.06-.037-.11.016-.062.004-.088-.046-.088-.041 0-.066-.037-.066-.096a.18.18 0 0 0-.104-.156c-.059-.029-.104-.08-.104-.113 0-.03-.017-.055-.042-.055-.02 0-.041-.046-.041-.105 0-.063-.025-.105-.059-.105q-.056 0-.037-.084.024-.085-.046-.084c-.037 0-.066-.025-.066-.054 0-.034-.046-.084-.104-.114a.18.18 0 0 1-.104-.155c0-.054-.017-.096-.042-.096-.02 0-.041-.047-.041-.105 0-.084-.021-.105-.104-.105-.08 0-.104-.021-.104-.089 0-.08-.088-.205-.146-.205-.041 0-.145-.118-.145-.164a.046.046 0 0 0-.046-.046c-.046 0-.162-.105-.162-.147s-.117-.147-.162-.147c-.03 0-.038-.042-.021-.105.02-.093.012-.105-.087-.105-.1 0-.229-.08-.229-.147 0-.034-.112-.147-.146-.147-.041 0-.145-.118-.145-.164 0-.025-.03-.046-.062-.046-.034 0-.063-.021-.063-.042 0-.025-.037-.042-.083-.042-.062 0-.083-.03-.083-.105 0-.059-.02-.105-.046-.105-.087 0-.162-.122-.162-.269 0-.084-.017-.151-.042-.151-.02 0-.041-.038-.041-.084 0-.067-.033-.08-.258-.093-.183-.008-.258-.029-.25-.067.005-.033-.062-.05-.24-.05-.138 0-.25-.017-.25-.042s-.075-.042-.166-.042c-.12 0-.167-.017-.167-.063 0-.034-.037-.063-.083-.063-.045 0-.083-.021-.083-.042 0-.025-.046-.042-.104-.042-.091 0-.104-.017-.104-.147 0-.08-.016-.147-.041-.147-.021 0-.042-.046-.042-.105 0-.067-.025-.105-.062-.105-.042 0-.063-.046-.063-.147 0-.08-.016-.147-.041-.147-.021 0-.042-.046-.042-.105 0-.067-.025-.105-.066-.105-.046 0-.059-.025-.038-.084q.025-.083-.037-.11c-.042-.016-.067-.075-.067-.167 0-.08-.016-.143-.041-.143-.021 0-.042-.067-.042-.147q0-.148-.062-.147c-.042 0-.062-.046-.062-.147 0-.08-.017-.147-.042-.147-.02 0-.042-.046-.042-.105 0-.067-.025-.105-.062-.105-.033 0-.062-.02-.062-.042 0-.025.029-.042.062-.042s.062-.03.062-.063.021-.063.042-.063c.025 0 .042-.046.042-.105 0-.067.024-.105.062-.105.033 0 .062-.038.062-.084s.021-.084.042-.084c.025 0 .041-.075.041-.168 0-.126.017-.168.067-.168.058 0 .066-.033.05-.189-.017-.142-.009-.189.033-.189q.057 0 .058-.147c0-.08.021-.147.042-.147.025 0 .041-.046.041-.105 0-.067.025-.105.067-.105.054 0 .062-.033.05-.147q-.019-.148.037-.147c.03 0 .054-.046.054-.1s.03-.114.067-.126q.062-.026.037-.11-.03-.086.038-.084c.05 0 .066-.041.066-.147 0-.08.02-.147.042-.147.025 0 .041-.029.041-.062 0-.034.03-.063.063-.063q.062.002.062-.148c0-.138-.008-.146-.146-.146-.1 0-.145.02-.145.063 0 .037-.037.063-.096.063a.22.22 0 0 0-.154.084c-.033.046-.083.084-.112.084s-.054.02-.054.046c0 .058-.104.163-.162.163-.025 0-.046.042-.046.089 0 .05-.05.134-.108.185-.091.08-.108.121-.087.226.02.097.012.13-.033.13-.034 0-.063.038-.063.084s-.016.084-.041.084-.042.147-.042.357c0 .298-.012.357-.066.357s-.063.042-.05.252c.008.18-.004.252-.038.252-.029 0-.054.021-.054.046 0 .026-.029.072-.062.105-.054.06-.062.055-.062-.025 0-.096-.088-.21-.163-.21-.029 0-.037-.042-.02-.105.02-.08.008-.105-.042-.105-.042 0-.066-.038-.066-.105 0-.058-.021-.105-.046-.105-.083 0-.162-.122-.162-.248 0-.07-.017-.13-.042-.13-.02 0-.042-.029-.042-.063 0-.033-.02-.063-.045-.063-.059 0-.162-.105-.162-.163 0-.026-.03-.047-.067-.047-.033 0-.05-.02-.037-.042.012-.025-.013-.042-.063-.042-.091 0-.445-.323-.428-.386.008-.017-.017-.034-.05-.034s-.062-.02-.062-.041c0-.026-.038-.043-.088-.043-.079 0-.203-.088-.203-.147 0-.041-.117-.147-.162-.147-.025 0-.046-.012-.046-.033 0-.05.162-.176.229-.176.033 0 .062-.022.062-.043 0-.025.046-.041.104-.041s.104-.026.104-.055c0-.034.045-.084.104-.113.058-.03.104-.072.104-.093 0-.054.108-.16.162-.16.025 0 .046-.037.046-.088 0-.092.091-.205.162-.205.025 0 .045-.038.045-.089 0-.092.092-.205.163-.205.024 0 .045-.089.045-.21v-.21h-.25c-.149 0-.249.017-.249.046 0 .071-.112.164-.203.164-.05 0-.088.017-.088.042 0 .02-.029.042-.062.042s-.058.025-.05.05c.004.034-.05.059-.145.067-.088.009-.158.03-.158.055 0 .02-.038.038-.08.038a.13.13 0 0 0-.103.063c-.013.033-.063.063-.108.063-.046 0-.084.016-.084.042 0 .02-.045.042-.104.042s-.103.016-.103.042c0 .067-.08.05-.175-.042-.05-.047-.125-.084-.166-.084s-.075-.03-.075-.063c0-.038-.042-.063-.108-.063h-.104l.012.546c.009.415 0 .546-.037.546-.034 0-.054.058-.054.15 0 .185-.08.27-.245.27-.071 0-.13.016-.13.041 0 .022-.045.042-.103.042-.067 0-.104.026-.104.063s-.038.063-.104.063c-.058 0-.104.017-.104.042 0 .021-.03.042-.062.042-.046 0-.063-.05-.063-.188 0-.106-.017-.19-.042-.19-.024 0-.041-.365-.041-1.007 0-.87-.008-1.008-.062-1.008a.064.064 0 0 1-.063-.063c0-.034-.016-.063-.041-.063-.021 0-.042-.03-.042-.063 0-.038-.046-.11-.104-.164s-.104-.139-.104-.189c0-.067-.025-.088-.108-.088-.087 0-.1-.017-.079-.084.02-.059.008-.084-.037-.084a.065.065 0 0 1-.067-.063c0-.034-.02-.063-.046-.063-.058 0-.162-.105-.162-.164 0-.025-.016-.046-.041-.046-.021 0-.042-.038-.042-.084s-.029-.084-.062-.084a.064.064 0 0 1-.063-.063c0-.034-.016-.063-.041-.063-.021 0-.042-.046-.042-.105s-.02-.105-.041-.105c-.071 0-.25-.197-.25-.273 0-.046-.05-.063-.208-.063s-.208.017-.208.063m3.435 4.07a.24.24 0 0 1 .058.146c0 .05.025.088.062.088.034 0 .063.021.063.047 0 .046.103.163.145.163s.146.118.146.164c0 .025.037.046.087.046.091 0 .204.093.204.164 0 .025.074.046.17.046.1 0 .158.017.142.042s.02.042.078.042c.059 0 .109.017.109.042 0 .021.045.042.103.042.067 0 .104.026.104.063s.038.063.104.063c.08 0 .104.021.104.089 0 .08.088.205.146.205s.145.126.145.206c0 .05.021.088.042.088.025 0 .042.046.042.105 0 .067.024.105.066.105.046 0 .054.025.037.08q-.025.082.05.13c.054.034.058.055.025.067a.1.1 0 0 0-.054.084c0 .047-.1.06-.536.06-.316 0-.549.016-.565.041-.013.021-.175.042-.358.042-.191 0-.329.017-.329.042 0 .067-.411.05-.482-.017-.033-.033-.058-.117-.058-.189 0-.071-.017-.13-.042-.13-.02 0-.041-.03-.041-.063s-.025-.063-.058-.063q-.056-.001-.038-.084c.017-.059 0-.084-.046-.084a.065.065 0 0 1-.066-.063c0-.033-.02-.063-.046-.063-.058 0-.162-.105-.162-.163 0-.026-.017-.047-.042-.047-.02 0-.041-.03-.041-.063 0-.038-.046-.109-.104-.163s-.104-.14-.104-.19c0-.046-.017-.088-.042-.088-.02 0-.041-.037-.041-.084 0-.046-.03-.084-.062-.084-.046 0-.063-.046-.063-.168 0-.15.013-.168.104-.168.058 0 .104-.02.104-.042 0-.025.067-.042.146-.042s.145-.02.145-.042c0-.025.067-.042.145-.042q.148 0 .146-.063c0-.033.03-.063.062-.063.034 0 .063-.037.063-.084 0-.088.079-.205.137-.21.02 0 .062.026.096.06m-1.522 1.053c0 .06.025.105.058.105q.058 0 .033.105c-.008.063 0 .105.034.105.074 0 .166.114.166.206 0 .05.02.088.046.088.058 0 .162.105.162.164 0 .025.02.046.041.046.08 0 .25.202.25.294 0 .046.025.084.054.084.033 0 .054.055.054.147v.147h-.22c-.12 0-.22-.02-.22-.042 0-.025-.121-.042-.275-.042-.266 0-.39-.054-.39-.164 0-.029-.1-.046-.25-.046-.18 0-.246.017-.237.05.004.038-.075.06-.262.068-.15.008-.287.03-.308.054a.15.15 0 0 1-.083.038c-.02 0 .029-.067.112-.147s.17-.147.196-.147c.02 0 .041-.03.041-.063s.038-.063.083-.063.083-.02.083-.042c0-.025.021-.042.042-.042.087 0 .212-.155.183-.222q-.026-.073.042-.072c.041 0 .066-.037.066-.096 0-.05.037-.122.083-.156.046-.033.083-.084.083-.113 0-.03.021-.055.046-.055.07 0 .162-.113.162-.206 0-.05.025-.088.063-.088.037 0 .062.038.062.105m3.575 1.87a.04.04 0 0 1-.041.041c-.02 0-.042.038-.042.088 0 .093-.091.206-.162.206-.025 0-.045.038-.045.088 0 .093-.092.206-.163.206-.025 0-.041.025-.033.05.004.038-.046.055-.158.055q-.167.001-.154-.055c.004-.033-.045-.05-.158-.05-.091 0-.166-.021-.166-.042 0-.025.042-.042.096-.042.05 0 .128-.046.17-.105s.112-.105.154-.105c.046 0 .079-.02.079-.042 0-.025.046-.042.104-.042s.104-.02.104-.046c0-.067.129-.16.22-.164.038 0 .07-.02.07-.042 0-.025.03-.042.063-.042s.063.017.063.042m.595.188c-.017.118-.008.147.046.147.041 0 .066.038.066.105 0 .059.021.105.042.105.025 0 .041.067.041.147q0 .149.063.147c.041 0 .062.046.062.147q0 .149-.062.147c-.038 0-.063.038-.063.105 0 .097-.012.105-.207.105-.113 0-.208-.017-.208-.038s-.042-.046-.092-.054c-.054-.009-.091-.038-.083-.068.004-.025-.02-.05-.054-.05-.037 0-.062-.038-.062-.105s.025-.105.062-.105q.063.001.062-.13c0-.13.08-.248.167-.248.033 0 .041-.038.025-.105-.021-.076-.009-.105.037-.105.033 0 .062-.038.062-.084 0-.071.071-.202.113-.21a1 1 0 0 1-.017.147"/></g></svg>