<svg viewBox="0 0 46 18" xmlns="http://www.w3.org/2000/svg"><g transform="translate(-1165 -374)"><path fill-rule="evenodd" d="M1197.5 375.1a.1.1 0 0 0 .63.1c.45.62.1.62.3 0 .139.248.248s.41.1.41.2c0 .138.189.1.189 0 .62.62.1 0 .8.147.147 0 .41.41.1 0 .67.105.1.105 0 .62.62.1s.2.1.42.1c.024 0 .41.41.1 0 .41.92.1.104.13.1.43.068-.12.4.37.042 0 .67.67.1 0 .8.1.206.1.206 0 .145.1.145.2 0 .26.47.47.1 0 .162.1.162.2 0 .5.89.89 0 .42.2.42.5 0 .373.503.1.503 0 .46.1.37.4-.12.3-.4.4.5.4.038 0 .67.67 0 .021-.46-.104s-.104-.104c0 .021-.3-.62-.034 0-.063-.02-.063-.042 0-.025-.083-.042-.187-.042s-.187-.187-.112-.25c-.195 0-.249-.249.1 0 .047-.5.1-.187.1-.104 0-.187-.187 0 .021-.91-.208-.158 0-.208-.208.1a.64.1 0 0 1-.62.1c-.046 0-.062-.046-.062-.168 0-.121-.168.1-.168.1 0 .062-.71.1-.495-.013-.475-.017-.492-.104-.504-.054-.008-.096-.034-.096-.055s-.045-.037-.104-.037-.104-.022-.104-.043c0-.025-.045-.041-.103-.041-.067 0-.104-.026-.104-.064 0-.037-.038-.062-.104-.062-.059 0-.104-.021-.104-.042 0-.026-.067-.042-.146-.042-.1 0-.145-.021-.145-.063 0-.038-.038-.063-.104-.063-.059 0-.104-.021-.104-.042 0-.026-.038-.042-.083-.042s-.083-.021-.083-.042c0-.026-.067-.042-.146-.042-.091 0-.158-.026-.17-.063-.017-.038-.08-.063-.167-.063-.079 0-.141-.021-.141-.042 0-.026-.104-.042-.229-.042s-.228-.228c0 .02-.67-.146q-.148 0-.146.1c0 .042-.45.1-.145.1-.079 0-.146-.146 0 .02-.91-.207h-.208v.462c0 .39-.9.5-.67.5-.054 0-.62.1-.5.6.13.5.9.6-.62.6-.042 0-.062-.02-.05-.42-.025-.004-.042-.037-.042-.038 0-.067-.02-.067-.042 0-.025-.037-.042-.083-.042s-.096-.029-.108-.063a.13.1 0 0 0-.104-.063c-.042 0-.08-.02-.08-.042 0-.025-.111-.042-.249-.042-.137 0-.249-.249 0 .021-.75-.166s-.167-.02-.167-.042c0-.025-.037-.042-.083-.042s-.083-.029-.083-.063c0-.037-.037-.063-.104-.063-.058 0-.104-.02-.104-.042 0-.025-.02-.042-.045-.042-.046 0-.163-.105-.163-.147s-.116-.147-.162-.147a.46 0 0 1-.045-.046c0-.046-.104-.163-.146-.163s-.146-.118-.146-.164c0-.03-.095-.046-.232-.046-.225 0-.35-.06-.35-.164 0-.026-.02-.046-.041-.046-.058 0-.275-.219-.258-.26-.018-.008-.034-.033-.034-.054 0-.483-.433-.466-.47-.022-.037-.034-.095-.034s-.104-.021-.104-.042c0-.026-.021-.042-.046-.042-.058 0-.162-.105-.162-.164 0-.025-.038-.046-.088-.046-.091 0-.203-.093-.203-.164 0-.025-.021-.046-.042-.046-.058 0-.25-.193-.25-.252 0-.021-.02-.042-.045-.042-.058 0-.162-.105-.162-.164 0-.025-.038-.046-.088-.046s-.166-.084-.27-.19c-.1-.104-.216-.188-.266-.188-.046 0-.083-.03-.083-.063 0-.046-.05-.063-.187-.063s-.187-.187.1c0 .054-.96.1-.603.1s-.603-.009-.603-.063c0-.05-.054-.063-.25-.063-.137 0-.249-.017-.249-.042s-.208-.042-.536-.042c-.316 0-.55-.017-.566-.042s-.299-.042-.71-.042c-.579 0-.683-.009-.683-.063 0-.055-.22-.063-1.7-.063s-1.7.008-1.7.063c0 .054-.117.1-.79.1-.5 0-.79-.79s-.241-.645c-.403 0-.644-.644s-.283-.77c-.585 0-.764-.756.4-.33.1-.83.1-.54-.96-.96.1s-.62-.141c-.087 0-.15-.166.1-.13-.75.1-.146.1-.066 0-.137-.15-.12-.108-.212-.1 0-.183-.183 0 .02-.66-.145q-.148 0-.146.1c0 .042-.41.1-.14.1-.08 0-.159-.171-.13-.125-.25-.158 0-.224-.245.1-.13-.62.1-.108.1s-.83-.83c0 .02-.92-.208-.113 0-.208-.208 0 .02-.67-.146-.1 0-.145-.145.1 0 .038-.38.1-.104.1-.058 0-.104-.104 0 .02-.67-.146-.1 0-.145-.145.1q.2.1-.146.1c-.079 0-.145-.145 0 .02-.46-.104s-.104-.104c0 .02-.66-.145q-.148 0-.146.1c0 .037-.37.1-.104.1-.058 0-.104-.104 0 .02-.66-.145-.08 0-.146-.146 0 .02-.37-.83s-.96-.108.1c-.17-.7.1-.125.1s-.1-.1c0 .02-.66-.145q-.148 0-.146.1c0 .037-.37.1-.95.1a.22.2 0 0 0-.154.1.22.2 0 0 1-.154.1c-.054 0-.96-.96 0 .071-.112.2-.203.2-.05 0-.88-.88.1s-.37.1-.95.1a.22.2 0 0 0-.154.1c-.33-.83.1-.112.1-.03 0-.5-.46.8-.3.1-.8.1-.53-.95-.95.1s-.45-.104c-.066 0-.104-.104.1s-.37.1-.95.1a.22.2 0 0 0-.154.1.22.2 0 0 1-.154.1c-.054 0-.96-.96 0 .058-.103.2-.162.2-.025 0-.45-.45.1 0 .038-.38.1-.104.1-.075 0-.104-.104.1s-.3.1-.104.1c-.058 0-.1-.96.17-.237.3-.295.3-.108 0-.254.2-.254.4 0 .135.147.1.147q.125 0 .125-.063c0-.5.1-.63.3-.63.2 0 .333-.16.3-.042 0-.25.3-.42.9-.42.6 0 .906-.16.9-.037-.042-.72.1-.101.1-.34.59.1.71.6.71.3 0 .565.565s.112.25c.195 0 .25.25.1 0 .46.63.2.63.1 0 .208.208 0 .21.1.42.1.42.1 0 .146.146 0 .21.42.1.42.1 0 .104.104.1s.37.1.104.1c.058 0 .104.104 0 .21.42.1.042s.83.83.1c0 .34.63.1.63 0 .63.63 0 .21.42.1.42.1 0 .204.1.204.1 0 .42.1.147.2.147 0 .46.46.1s.37.1.83.1a.22.2 0 0 1 .83.2c0 .55.97.97.1 0 .162.1.162.2 0 .5.88.1.88 0 .54.37.1-.24.1-.2.1.13.1.082 0 .149-.21.1-.042 0-.25-.42.1-.42.1 0 .104-.25.1-.063 0-.34-.63.1-.63 0 .63.63.1 0 .34.63.1.63.1 0 .083-.3.1-.105 0-.97-.105.2-.105.1 0 .208-.21.2-.042 0-.25.3-.42.7-.42.4 0 .707.707 0 .21.1.42.1.042s.145.145c0 .21.1.42.1.42.1 0 .145.145.1 0 .38.63.1.63.1 0 .104.104 0 .21.42.1.42.1 0 .203.1.203.2 0 .25.46.1.046s.62.62.42.96.1c.5.87.83.1-.9.16.1.5.033 0 .62.62 0 .2.42.1.42.1 0 .204.1.204.1 0 .42.1.147.2.147 0 .46.46 0 .46.1.164.1.164 0 .146.1.146.1 0 .42.1.147.2.147 0 .46.46 0 .46.1.164.1.164.1 0 .146.1.146.2 0 .5.88.88 0 .41.41.1s.2.1.42.1c.058 0 .274.2.262.3-.9.33.91s.104-.21.1-.042c0-.105.2-.252.4-.252.1 0 .146-.17.1-.063q-.002-.63.1-.063c.08 0 .146-.21.1-.042 0-.25.1-.42.2-.42.1 0 .191-.21.2-.63-.5.1-.63.4-.63.2 0 .333-.17.3-.042s.2-.42.5-.42.5.17.5.42.1.42.3.042c.233 0 .291.291.1 0 .5.1.63.3.63.2 0 .304.316.13.83.15.07 0 .133.145.1.17.8.1.167.1.079 0 .141.141 0 .2.42.1.042s.104.104c0 .2.1.42.1.42.1 0 .146.146.1 0 .38.63.1.63.1 0 .104.104 0 .2.42.1.042s.83.83.1c0 .38.63.1.63.1 0 .104.104 0 .2.42.1.42.1 0 .204.1.204.2 0 .26.47.1.47.1 0 .254.1.225.2-.13.25.83s.108.108c0 .2.42.1.42 0 .63.63s.41.95.1c.5.88.83.1-.8.9.1.34.058 0 .162.1.162.2 0 .26.47.47.1 0 .275.2.262.3-.8.34.92s.104.104c0 .2.42.1.042s.63.63c0 .5.2.247.3.247 0 .3.3 0 .117.1.163.5.163.3 0 .336.336.1q-.2.1.146.1c.079 0 .146.146 0 .21.1.42.1.42.1 0 .146.146 0 .21.42.1.042s.62.62.1c0 .34.63.63 0 .41.41.1 0 .42.114.1.156.1.42.1.113.1.155 0 .84.1.197.2.197 0 .38.21.1-.2.1-.8.1.42.1.041 0 .66.66.1 0 .6.105.105 0 .42.1.42.1 0 .143.147.2.147.1 0 .195-.25.3-.147.1-.8.2-.147.2-.147.1 0 .086-.25.1-.063s.038-.63.1-.063c.091 0 .203-.92.2-.163 0-.26-.47.1-.047a.22.2 0 0 0 .154-.84.2.22 0 0 1 .154-.084c.054 0 .095-.2.1-.046 0-.67.1-.164.2-.164 0 .1-.29.1-.67.1-.54.1-.59.1-.12.029-.4.1-.3.1-.28-.49.1-.49.1 0 .063-.25.1-.66.1-.055 0-.63-.5.2.8.1-.5.2-.38.2-.029 0-.54-.54.1 0 .6.105.105 0 .41.41.1 0 .6.105.105.1 0 .162.1.162.2 0 .25.1.46.1.46.1 0 .145-.2.1-.063 0-.38-.63.1-.63.1 0 .203-.92.2-.189 0-.8.1-.189.2-.189 0 .046-.67-.15 0-.148.1-.27.2-.27 0 .046-.2-.042 0-.25.1-.42.3-.42.3 0 .333-.12.4-.63-.46.1-.63.3-.63.2 0 .29-.16.3-.042 0-.25.1-.42.1-.42.1 0 .146-.16.1-.037s.05-.47.1-.06l.108-.02-.104.1c-.62.1-.129.1-.154.1-.02 0-.41-.41.1s-.3.1-.67.1c-.5-.62.1-.41.2.16.1.8.1-.38.1-.037 0-.62-.62.1s.25.1.58.1c.046 0 .54.37.2-.37.3.67.3.466.3.179 0 .312-.17.3-.042s.046-.42.1-.42.1-.2.1-.046c0-.59.1-.164.2-.164 0 .046-.3-.063s.029-.63.1-.063c.046 0 .058-.25-.084s-.009-.84-.084c.05 0 .067-.46.1-.21 0-.117-.21-.21 0 .042-.37-.088 0-.46-.113.1-.147.1-.67.3-.8.3-.017 0 .26.1.42.3.42.2 0 .25.25.1s.57.1.29.1c.167 0 .291.291 0 .21.1.42.1.042s.145.145c0 .21.1.42.2.42.2 0 .207.137.1-.42-.63.1-.46.1.17.4-.33-.046 0-.67-.67.1 0 .088-.25.2-.62.2-.38-.62.1-.62.2 0 .76.139.1.151a.13.1 0 0 1 .62.1c0 .42.8.8 0 .41.41.1 0 .67.105.1.105 0 .62.62.1 0 .5.1.63.3.63.2 0 .291-.17.3-.046 0-.71.1-.164.2-.164.1 0 .087-.25.1-.088 0-.92.1-.206.2-.206 0 .046-.75-.168 0-.92-.168-.168 0 .041-.71-.16 0-.83-.125-.092q.68.2.258.2c.07 0 .129.129 0 .25.1.46.2.55.1.8.2.33.1.063-.9.16.1.5.1.033 0 .62.62 0 .21.42.1.42 0 .112.154.1s.112.1.153.1c.084 0 .196.1.196.2 0 .25.46.46.1 0 .162.1.162.2 0 .25.46.1.046s.083-.2.1-.046c0-.118.1-.164.5-.164.3 0 .333-.12.3-.75-.68-.68 0 .5.1.59.1.545.1.333 0 .54.54s.125.292c.224 0 .299.316.1.16.78.1.166.1.079 0 .141.141 0 .21.1.42.1.042s.145.145c0 .21.1.42.1.42.1 0 .145.145.1q-.2.1.146.1c.079 0 .145.145 0 .21.42.1.42.1 0 .104.104.1s.38.1.104.1c.058 0 .104.104 0 .21.42.1.042s.104.104.42.96.1c.5.87.83.1-.9.33.91s.104.104c0 .21.42.1.042s.62.62.1c0 .38.63.1.63.1 0 .96.79s.2.79.108.108c0 .21.42.1.42.1 0 .104.104.1 0 .46.63.1.63.1 0 .137-.17.1-.034-.029-.5.1-.176.2-.176 0 .083-.21.1-.042 0-.25-.42.1-.42.1 0 .1-.21.1-.055-.004-.29.1-.54.1-.63.1-.8.2-.29.2-.054 0-.21.1-.38.3-.38.2 0 .292-.13.3-.063s.062-.63.3-.63.3.13.3.63.1.63.3.063c.163 0 .304.317.12.9.17.1 0 .141.141.1 0 .46.63.2.63.1 0 .188.188 0 .21.1.42.1.042s.145.145c0 .21.42.1.42.1 0 .104.104.1 0 .59.2.109.4.109h.12l-.025-.554c-.02-.429-.041-.571-.091-.605-.033-.025-.062-.105-.062-.18 0-.072-.017-.13-.042-.13-.02 0-.042-.068-.042-.148 0-.105-.016-.147-.062-.147s-.058-.03-.037-.105c.02-.8-.105-.042-.105-.037 0-.066-.033-.066-.08 0-.046-.017-.096-.042-.109-.02-.012-.042-.063-.042-.109 0-.042-.029-.08-.062-.08a.64.1 0 0 1-.062-.063c0-.033-.017-.063-.042-.063-.02 0-.042-.037-.042-.08 0-.041-.024-.088-.058-.1-.037-.017-.05-.06-.037-.11-.62-.088-.046-.088-.041 0-.066-.037-.066-.096a.18.2 0 0 0-.104-.156c-.059-.029-.104-.08-.104-.113 0-.03-.017-.055-.042-.055-.02 0-.041-.046-.041-.105 0-.063-.025-.105-.059-.105q-.056 0-.037-.84-.085-.046-.084c-.037 0-.066-.025-.066-.054 0-.034-.046-.084-.104-.114a.18.2 0 0 1-.104-.155c0-.054-.017-.096-.042-.096-.02 0-.041-.047-.041-.105 0-.084-.021-.105-.104-.105-.08 0-.104-.021-.104-.089 0-.08-.088-.205-.146-.205-.041 0-.145-.118-.145-.164a.46 0 0 0-.046-.046c-.046 0-.162-.105-.162-.147s-.117-.147-.162-.147c-.03 0-.038-.042-.021-.105-.93-.105-.087-.105-.1 0-.229-.08-.229-.147 0-.034-.112-.147-.146-.147-.041 0-.145-.118-.145-.164 0-.025-.03-.046-.062-.046-.034 0-.063-.021-.063-.042 0-.025-.037-.042-.083-.042-.062 0-.083-.03-.083-.105 0-.059-.02-.105-.046-.105-.087 0-.162-.122-.162-.269 0-.084-.017-.151-.042-.151-.02 0-.041-.038-.041-.084 0-.067-.033-.08-.258-.093-.183-.008-.258-.029-.25-.67-.033-.062-.05-.24-.05-.138 0-.25-.017-.25-.042s-.075-.042-.166-.042c-.12 0-.167-.017-.167-.063 0-.034-.037-.063-.083-.063-.045 0-.083-.021-.083-.042 0-.025-.046-.042-.104-.042-.091 0-.104-.017-.104-.147 0-.08-.016-.147-.041-.147-.021 0-.042-.046-.042-.105 0-.067-.025-.105-.062-.105-.042 0-.063-.046-.063-.147 0-.08-.016-.147-.041-.147-.021 0-.042-.046-.042-.105 0-.067-.025-.105-.066-.105-.046 0-.059-.025-.038-.084q.025-.083-.037-.11c-.042-.016-.067-.075-.067-.167 0-.08-.016-.143-.041-.143-.021 0-.042-.067-.042-.147q0-.148-.062-.147c-.042 0-.062-.046-.062-.147 0-.08-.017-.147-.042-.147-.02 0-.042-.046-.042-.105 0-.067-.025-.105-.062-.105-.033 0-.062-.02-.062-.042 0-.25-.42.1-.042s.062-.3.1-.63-.63-.063c.025 0 .042-.46-.105 0-.67-.105.1-.105 0 .062-.38.1-.084s.021-.84-.084c.025 0 .041-.75-.168 0-.126-.168.1-.168.1 0 .066-.33-.189-.017-.142-.009-.189-.189q.057 0 .058-.147c0-.8-.147-.147 0 .041-.46-.105 0-.67-.105.1-.105.1 0 .062-.33-.147q-.019-.148-.147c.03 0 .054-.46.1-.1s.03-.114.1-.126q.062-.26-.11-.03-.86-.084c.05 0 .066-.41.1-.147 0-.8-.147-.147 0 .041-.29-.062 0-.34-.63.1-.063q.62.062-.148c0-.138-.008-.146-.146-.146-.1 0-.145-.145.1 0 .037-.37.1-.96.1a.22.2 0 0 0-.154.1c-.33-.83.1-.112.1s-.54-.54c0 .058-.104.2-.162.2-.025 0-.46-.46.1 0 .05-.5.1-.108.2-.91.1-.108.1-.87.2.2.1.12.1-.33.1-.034 0-.63-.63.1s-.16.1-.41.1-.42.1-.42.4c0 .298-.12.4-.66.4s-.63-.5.3c.8.2-.4.3-.38.3-.029 0-.54-.54 0 .026-.29.1-.62.1-.54.1-.62.1-.062-.025 0-.096-.088-.21-.163-.21-.029 0-.037-.042-.02-.105-.8-.105-.042-.105-.042 0-.066-.038-.066-.105 0-.058-.021-.105-.046-.105-.083 0-.162-.122-.162-.248 0-.07-.017-.13-.042-.13-.02 0-.042-.029-.042-.063 0-.033-.02-.063-.045-.063-.059 0-.162-.105-.162-.163 0-.026-.03-.047-.067-.047-.033 0-.05-.02-.037-.42-.025-.013-.042-.063-.042-.091 0-.445-.323-.428-.386-.017-.017-.034-.05-.034s-.062-.02-.062-.041c0-.026-.038-.043-.088-.043-.079 0-.203-.088-.203-.147 0-.041-.117-.147-.162-.147-.025 0-.046-.012-.046-.033 0-.5.2-.176.2-.176 0 .062-.22.1-.043 0-.25-.41.1-.041s.104-.26.1-.055c0-.34-.84.1-.113.1-.3.1-.72.1-.093 0-.54.1-.16.2-.16 0 .046-.37-.088 0-.92.1-.205.2-.205 0 .045-.38-.089 0-.92.1-.205.2-.205 0 .045-.89-.21v-.21h-.25c-.149 0-.249-.249 0 .071-.112.2-.203.2-.05 0-.88-.88 0 .02-.29-.62s-.58-.5c.4-.5.1-.145.1-.88-.158-.158.1 0 .02-.38-.8a.13.1 0 0 0-.103.1c-.13-.63.1-.108.1-.046 0-.84-.84 0 .02-.45-.104s-.103-.103c0 .067-.8.1-.175-.042-.05-.047-.125-.084-.166-.084s-.075-.03-.075-.063c0-.038-.042-.063-.108-.063h-.104l.12.5c.9.4 0 .546-.37.5-.034 0-.54.1-.54.1 0 .185-.8.3-.245.3-.071 0-.13-.13 0 .022-.45-.103-.067 0-.104-.104.1s-.38.1-.104.1c-.058 0-.104-.104 0 .021-.3-.62-.046 0-.063-.05-.063-.188 0-.106-.017-.19-.042-.19-.024 0-.041-.365-.041-1 0-.87-.008-1-.062-1a.64.1 0 0 1-.063-.063c0-.034-.016-.063-.041-.063-.021 0-.042-.03-.042-.063 0-.038-.046-.11-.104-.164s-.104-.139-.104-.189c0-.067-.025-.088-.108-.088-.087 0-.1-.017-.079-.84-.59-.084-.037-.084a.65.1 0 0 1-.067-.063c0-.034-.02-.063-.046-.063-.058 0-.162-.105-.162-.164 0-.025-.016-.046-.041-.046-.021 0-.042-.038-.042-.084s-.029-.084-.062-.084a.64.1 0 0 1-.063-.063c0-.034-.016-.063-.041-.063-.021 0-.042-.046-.042-.105s-.02-.105-.041-.105c-.071 0-.25-.197-.25-.273 0-.046-.05-.063-.208-.063s-.208-.208.1m3.4 4.1a.24.2 0 0 1 .58.1c0 .5.88.1.88 0 .63.63 0 .46.1.163.1.163s.146.1.146.2c0 .25.46.1.46.1 0 .204.1.204.2 0 .25.1.46.2.46.1 0 .158.142s.2.78c.059 0 .109.109 0 .21.42.1.42.1 0 .104.104.1s.38.1.104.1c.08 0 .104.104.1 0 .8.1.205.1.205s.145.1.145.2c0 .5.88.88 0 .42.42.1 0 .67.105.1.105 0 .54.37.1q-.25.1.5.1c.54.58.1.25.1a.1.1 0 0 0-.54.1c0 .047-.1.1-.536.1-.316 0-.549-.565-.13-.175-.358-.191 0-.329-.329 0 .067-.411.1-.482-.017-.033-.033-.058-.117-.058-.189 0-.071-.017-.13-.042-.13-.02 0-.041-.03-.041-.063s-.025-.063-.058-.063q-.056-.001-.038-.084c.017-.059 0-.084-.046-.084a.65.1 0 0 1-.066-.063c0-.033-.02-.063-.046-.063-.058 0-.162-.105-.162-.163 0-.026-.017-.047-.042-.047-.02 0-.041-.03-.041-.063 0-.038-.046-.109-.104-.163s-.104-.14-.104-.19c0-.046-.017-.088-.042-.088-.02 0-.041-.037-.041-.084 0-.046-.03-.084-.062-.084-.046 0-.063-.046-.063-.168 0-.15-.168.1-.168.1 0 .104-.2.1-.042 0-.25.1-.42.1-.042s.145-.2.1-.042c0-.25.1-.42.1-.042q.148 0 .146-.063c0-.33-.63.1-.63 0 .063-.37.1-.084 0-.88.1-.205.1-.21 0 .62.96.1m-1.5 1.1c0 .6.105.1.105q.058 0 .33.1c-.8.1 0 .105.105.1 0 .166.1.166.2 0 .5.88.88.1 0 .162.1.162.2 0 .25.46.46.1 0 .25.2.25.3 0 .46.84.1.84 0 .54.1.54.1v.147h-.22c-.12 0-.22-.02-.22-.042 0-.025-.121-.042-.275-.042-.266 0-.39-.054-.39-.164 0-.029-.1-.046-.25-.046-.18 0-.246-.237.1.4-.75.1-.262.1-.15-.287-.308.1a.15.2 0 0 1-.83c-.02 0 .029-.67.1-.147s.17-.147.2-.147c.02 0 .041-.3-.063s.038-.63.1-.63.1-.2.1-.042c0-.25-.42-.42.1 0 .212-.155.2-.222q-.026-.73-.072c.041 0 .066-.37.1-.096 0-.5-.122.1-.156-.33.1-.84.1-.113 0-.3-.55-.55.1 0 .162-.113.2-.206 0-.5-.88.1-.88 0 .62.62.1m3.6 1.9a.4 0 0 1-.41c-.02 0-.42-.42.1 0 .093-.91.2-.162.2-.025 0-.45-.45.1 0 .093-.92.2-.163.2-.025 0-.41-.33.4-.46.1-.158.1q-.167-.154-.055c.004-.033-.045-.05-.158-.05-.091 0-.166-.021-.166-.042 0-.25-.42.1-.42 0 .128-.46.2-.105s.112-.105.2-.105c.046 0 .079-.2.1-.042 0-.25-.42.1-.042s.104-.2.1-.046c0-.67.1-.16.2-.164 0 .07-.2.1-.042 0-.25-.42.1-.042s.63.63m.595.2c-.17.1-.8.1.46.1.041 0 .66.66.1 0 .59.105.105 0 .41.1.41.1q0 .149.1.147c.041 0 .62.62.1q0 .149-.62.1c-.038 0-.63-.63.1 0 .097-.12.1-.207.1-.113 0-.208-.017-.208-.038s-.042-.046-.092-.054c-.054-.009-.091-.038-.083-.68-.025-.02-.05-.054-.05-.037 0-.062-.038-.062-.105s.025-.105.1-.105q.63.062-.13c0-.13.1-.248.2-.248 0 .041-.38-.105-.021-.076-.009-.105-.105 0 .062-.38.1-.084 0-.71.1-.202.1-.21a1 1 0 0 1-.17.1"/></g></svg>