<svg viewBox="0 0 32 34" xmlns="http://www.w3.org/2000/svg"><g transform="translate(-1074 -358)"><path fill-rule="evenodd" d="M1093.9 381.5c-.81-.206.2-.294.3-.129.3-.169.3-.213.4-.7.1-.419.8-.419.8 0 .03-.37.1-.84.2a.34.3 0 0 0-.85.2.4.4 0 0 1-.27.2c-.6.1-.152.5-.131.6.16.1.3.1-.48.2-.6.1-.67.1-.4.2q.69.3.28-.03a4 4 0 0 1 .226-.32 1 1 0 0 0 .112-.159c0-.1.1-.104.1-.208.1-.108.1-.213.1-.233 0-.24-.67.1-.101-.34.1-.8.1-.101 0-.24-.6-.84.1-.88.2-.344.2-.502a.7.7 0 0 1 .051-.24.6.6 0 0 0 .05-.229c0-.77-.168-.202.1-.131.1-.3.1-.441-.118 0-.158-.047-.196-.065-.047-.065-.047-.17-.016m4.8-1.2c-.121-.216-.243.1a.2.2 0 0 1-.108.17.2 0 0 0-.115.1c-.24-.6-.84s-.78-.122.1a.5.5 0 0 1-.2.1c-.161-.503.2-.506.2 0 .02-.3.1-.7.1a1 1 0 0 0-.153.2c-.47.1-.105.2-.132.2-.023 0-.6-.84a1 1 0 0 1-.213.1 2.6 2.6 0 0 0-.402.3c-.128.1-.26.2-.29.2s-.95-.142.1a.3.3 0 0 1-.145.1c-.088 0-.517.2-.71.4a1 1 0 0 1-.196.1c-.016 0-.3-.3s-.37.1-.84.1a.5.5 0 0 0-.85.1c0 .013-.202.2-.446.5-.435.4-.658.7-.706.8a.6.6 0 0 1-.128.2.5.5 0 0 0-.104.1c0 .017-.88.1-.193.3-.108.1-.216.3-.243.3-.27-.91.1-.139.2-.9.1-.236.4-.236.4 0 .044-.19.3-.24.4-.17-.3.1-.3.1 0 .044-.2.1-.48.1a.6.6 0 0 0-.1.1 3 3 0 0 0-.19.4c-.37.1-.91.2-.118.2a.9.1 0 0 0-.51.1.6.6 0 0 1-.101.2 4 4 0 0 0-.22.4 7 7 0 0 1-.206.4c-.44.1-.98.2-.115.2-.2-.101.2-.185.3-.321.6-.352.7-.173.7.112.213-.67.4-.296.2-.236.3-.367.5-.458.1-.47.2-.111.2-.145a1.6 1.6 0 0 1 .23-.138c.23-.118.3-.138.4-.263a.7.7 0 0 1 .169-.108c.017 0 .118-.9.2-.202.1-.111.2-.202.2-.202 0 .104-.37.2-.084a1 1 0 0 1 .203-.085c.02 0 .088-.37.1-.084a.5.5 0 0 1 .142-.84.6.6 0 0 0 .155-.118c.101-.94.2-.118.3-.118.1 0 .138-.13.1-.3-.47.8-.081 1.8-.68.5.007 1.1.014 1.5.14.6-.4.6-.7.7-.78-.4.1-.74.1-.074a.5.5 0 0 0 .17-.047c.155-.77.3-.121.5-.121.1 0 .145-.14.2-.3-.14.2-.38.4-.51.5-.3.8-.88.8-.165.1-.7.1-.421-.458-.06-.037-.21-.337-.21-.425 0-.044-.016-.09-.037-.101-.067-.044-.1-.162-.209-.724-.027-.138-.074-.36-.105-.489a2.5 2.5 0 0 1-.054-.394c0-.088-.013-.165-.03-.175s-.04-.152-.05-.314a3 3 0 0 0-.051-.38 3 3 0 0 1-.071-.337 2 2 0 0 0-.088-.364 1.3 1.3 0 0 1-.047-.398c0-.239-.014-.313-.085-.451a.8.8 0 0 1-.084-.23.2.16 0 0 0-.051-.107.2.17 0 0 1-.05-.115.2.2 0 0 0-.031-.107 1 1 0 0 1-.088-.192.9.9 0 0 0-.138-.243c-.044-.047-.098-.08-.122-.08m-19.2-2.1c-.183-.01-.196-.002-.227.1a1 1 0 0 0-.33.3c0 .101-.14.2-.34.2-.17-.34.1-.37.1a.4.4 0 0 1-.68.2 2 2 0 0 0-.98.2c-.44.1-.523.6-.584.6-.024 0-.91-.152.1-.88.1-.108.1-.108.3 0 .101.162.1.192.1.54.3.6.5.1.1-.37.3-.229.4-.377-.5.1-.91.1-.91 0 .308-.263.4-.421.1-.112.1-.2.2-.684-.2-.357-.438-.03-.125-.03-.125-.226-.135m12.5-.802c-.047-.003-.72-.95a.3.3 0 0 1-.122c-.037 0-.105-.149.1s-.98.1-.118.1-.84-.138.1a1.6 1.6 0 0 1-.443.3.34.3 0 0 0-.145.1c-.5.1-.206.2-.257.2-.02 0-.7-.115.1-.43-.9.1-.108.1-.047 0-.395.2-.415.2a.7.7 0 0 1-.176.1c-.175.1-.246.1-.246-.087 0-.064-.024-.088-.102-.104-.057-.01-.111-.034-.121-.048-.01-.016-.047-.03-.085-.03-.08 0-.084-.088-.003-.131a1 1 0 0 1 .236-.058c.098-.13.2-.33.2-.05a.5.5 0 0 1 .159-.091c.078-.34.2-.128.3-.209.1-.128.2-.162.2-.286 0-.169-.027-.186-.284-.186-.155 0-.203-.378.1-.186.1-.213.1-.399.1-.108-.003-.213-.02-.233-.04a.2.2 0 0 0-.111-.38.2.17 0 0 1-.115-.05c-.034-.04-.098-.05-.267-.044l-.223-.1.1c-.7.1.7.2.47.2.54.1.54.1.14.1a.5.5 0 0 1-.21c-.148 0-.168-.243.1-.118.2-.186.2-.388.3a.9.9 0 0 0-.321.1 2 2 0 0 1-.247.1c-.246.1-.287.4-.6.5.77.253.3.253.4 0 .38.95.129a.3.3 0 0 1 .51.1c0 .34.105.1.159.57.1.124.1.151 0 .3.64.74.1.68.122 0 .141.2.471.3.616.1.67.2.185.2.263.74.1.165.1.199.33.1.145.1.246.104.1.188.1.188s.44.1.67.1c.27.1.68.2.95.2.78.1.4.4-.71.6-.95.1-.314.3-.544.3a3 3 0 0 0-.24.1c-.196.1-.418.2-.449.2a.4.4 0 0 0-.115.1.6.6 0 0 1-.182.1 1 1 0 0 0-.2.1 1 1 0 0 1-.185.1c-.108-.341-.027-.388-.087a.23.2 0 0 0-.109-.71.3.34 0 0 1-.138-.132c-.05-.084-.105-.12-.263-.168a1.6 1.6 0 0 0-.301-.57.4.44 0 0 1-.186-.05l-.135-.072a1 1 0 0 1-.145-.104.3.33 0 0 0-.162-.078c-.081 0-.233-.094-.233-.144 0-.58.1-.122.2-.125.1 0 .134.219.1.21.2.574.3.861.2a1 1 0 0 1 .179-.05c.068 0 .31-.243.4-.357-.101.1-.108.3-.122.2-.1.3-.3.4-.138.1-.67.2-.125.3-.125a.26.3 0 0 0 .129-.5.3.3 0 0 1 .128-.05c.034 0 .122-.54.2-.122.2-.158.2-.337.1-.57a.8.8 0 0 1-.071-.201c0-.02-.03-.068-.068-.101-.088-.081-.375-.054-.483a.45.5 0 0 1-.182.1c-.6-.118-.129.1-.4.1-.118-.006-.097-.87-.06-.004-.104-.085-.178a.5.5 0 0 1-.105-.122c0-.013-.03-.06-.067-.108a.33.3 0 0 1-.068-.161.2.2 0 0 0-.047-.118.4.4 0 0 1-.088-.155c-.02-.064-.057-.115-.077-.118a1 1 0 0 0-.122-.007c-.058-.007-.091-.04-.132-.138-.047-.118-.047-.145-.286-.91.1-.34.1-.617-.438-.471-.054-.623a1.6 1.6 0 0 0-.155-.266.4.4 0 0 1-.078-.135c0-.02-.06-.094-.135-.165l-.139-.135-.31-.01c-.41-.013-.49-.632.4-.105.2-.29.4-.51.4-.132 0-.365-.104-.412-.188-.017-.03-.085-.047-.183-.047-.121 0-.172-.233.1a.26.3 0 0 1-.165.1.4.4 0 0 0-.155c-.152.1-.46-.125-.602-.4-.06-.119-.087-.142-.169-.142-.054 0-.114-.135-.47.1-.54.7-.6.8a.26.3 0 0 0 .128.1c.54.132.1.179.1l.84.1-.84.1c-.57-.98.1-.135-.027-.017-.095-.06-.152-.094a.7.7 0 0 1-.196-.199c-.054-.077-.115-.141-.138-.141-.027 0-.068-.024-.092-.054-.064-.078-.287-.216-.348-.216-.023 0-.064-.024-.087-.05a.18.2 0 0 0-.122-.051c-.084 0-.192.1-.155.2.1.3.5.45l.2.9.125.2c.78.1.121.3.121.4 0 .7.202.1.293a1 1 0 0 1 .84.2c0 .26.93.1.144a.5.5 0 0 1 .5.2c0 .47.115.1.149s.68.1.68.1.37.1.84.1.85.1.85.1c0 .34.115.1.179.1.145.222-.78.2-.074 0-.169.1-.44.3-.192.2-.347.4-.347.4 0 .037-.91.2-.375.5-.206.2-.368.5-.422.7a.6.6 0 0 1-.85.2c-.16-.3-.3.1a.8.8 0 0 1-.81.2c-.47.1-.145.3-.22.4-.77.2-.152.3-.168.3s-.71.1-.122.2a10 10 0 0 1-.2.4c-.3.1-.77.2-.104.2a3 3 0 0 0-.118.2 13 13 0 0 1-.186.4 1 1 0 0 0-.115.3.2.2 0 0 1-.54.1c-.4-.5.1-.44.3l.1.2 1.7.01c1.2.007 1.7-.003 1.8-.03s.091-.27.1 0c.37.233.436.1.361.618.1.726.2a.2.2 0 0 0 .95c.04 0 .25.1.327.1.18.1.341.2.379.3a.4.4 0 0 0 .152.1c.6.145.1.192.1a.7.7 0 0 0 .203.1c.253.1.466.2.49.2.1.121.1.243.1.121.1.266.1.32.2.55.122.1.153.1a.4.4 0 0 1 .155.1c.19.1.274.2.49.2l.21v-.14a.9.9 0 0 0-.052-.264.8.8 0 0 1-.05-.26c0-.077-.017-.157-.034-.174-.02-.02-.04-.145-.047-.28-.014-.266-.075-.374-.21-.374-.044 0-.145-.057-.23-.128a3 3 0 0 0-.283-.205 2.5 2.5 0 0 1-.331-.263 2 2 0 0 0-.29-.233c-.051-.027-.095-.067-.095-.09 0-.024-.044-.088-.098-.139-.132-.125-.23-.347-.18-.397-.3.1-.1.1.77.118.4.478.6.57.1.77.7.88.13.3-.64.3-.121.2-.25-.03-.057-.023-.1-.215-.8.1-.155.1-.168.1-.3.2.87.3.283.2.407.2.471.4.471a.42.4 0 0 0 .385-.232c.135-.28.2-.33.3-.432a1.5 1.5 0 0 0 .138-.171c.02-.37.1-.142.1-.23.1-.154.1-.185.1-.464-.01-.405-.03-.425-.412-.425-.159 0-.344-.017-.408-.037-.162-.05-.477-.064-.554-.024a1.5 1.5 0 0 1-.321.1c-.142-.324-.409.1a.8.8 0 0 0-.277.1.5.5 0 0 1-.206.1c-.118 0-.294-.097-.328-.181a.3.3 0 0 0-.08-.118c-.068-.057-.072-.283-.004-.354a.3.3 0 0 1 .128-.07 1 1 0 0 0 .142-.051c.233-.104.4-.135.5-.135.1 0 .206-.17.2-.33-.2.1-.34.2-.034s.176.186c.27.344.371.01-.17.1-.4.1-.054a.3.3 0 0 0 .142-.7.1.14 0 0 1 .098-.48.2.16 0 0 0 .101-.5.7.7 0 0 1 .21-.125c.152-.64.2-.78.2-.195 0-.091-.017-.135-.058-.152-.141-.05-.982-1.1.121-.43-.28-.361-.007-.054-.026-.105-.026-.203-.111-.168-.402-.017-.26-.06-.283-.06-.435-.007a1.4 1.4 0 0 1-.416.1c-.155 0-.29-.351a2 2 0 0 1-.21.1.72.7 0 0 0-.378.3c-.37.1-.84.1-.108.1-.064-.02-.067-.155-.01-.243a.3.3 0 0 0 .054-.124q0-.57.4-.472c.074-.84.2-.111.3-.64.2.54.3.47.5-.4.1-.61.2-.75.5-.71.2.3.3.2.4.44.2.1.37.3.37.2 0 .253-.1.3-.71.1-.115.2-.165.4-.165.1 0 .24-.24.3-.05a2 2 0 0 1 .442-.051c.264 0 .315-.1.4-.68.1-.6.1-.67.5-.67.4 0 .49-.1.6-.7.2-.85.4-.75.5.2.1.94.1.383-.16.5-.112.1-.183.1-.743.2-.44-.473-.483.1-.7-.102.2-.213.3-.216.2-.25.3-.135.4.57.1.88.1.24.094-.2.3-.37.5-.37.3 0 .287.35.1.68.1.68.3 0 .33-.63.1-.3.2.65.3.192.2.277.3.304.5.23.2.27.2.132.2.84.131-.1.2-.085a.8.8 0 0 0 .118-.161 2 2 0 0 1 .145-.22.7.7 0 0 0 .119-.188.4.4 0 0 1 .07-.121 1 1 0 0 0 .122-.25.8.8 0 0 1 .115-.232c.101-.118.1-.142.1-.937-.428-.852.1-.943-.152-.169-.074-.33a.7.7 0 0 1-.125-.364c-.01-.175 0-.202.1-.38.1-.105.2-.21.2-.233.1-.58.1-.165.2-1.1.01-.62-.761.1-.825a.3.3 0 0 0 .054-.118c0-.44.1-.236.2-.394-.58.1-.142.1-.196-.5.1-.94.1-.94 0 .034-.24-.05 0-.3.1-.115.1-.196a2 2 0 0 0 .159-.195c.02-.3.1-.122.1-.2a1.1 1.1 0 0 0 .129-.265.6.6 0 0 1 .084-.179c.078-.84.1-.815 0-.974-.067-.148-.148-.215-.277-.245a2 2 0 0 0-.225-.042m-15.9-.257c-.156-.005-.252 0-.276a.8.8 0 0 1-.209.6.6 0 0 0-.226.1c-.68.1-.112.3-.78.4.2.1.37.1.135.1.064 0 .125-.17.1-.34-.67.1-.3.1.74.125.1.23.2.23 0 .91.135.1s.95.1.112.1c.016 0 .9.1.162.1.118.1.152.1.317.1.26 0 .49-.11.5-.235 0-.3-.91.1-.135.1-.105.1-.246-.006-.263-.092-.013-.105-.111-.027-.175.1-.5.1-.334-.415-.034-.043-.139-.064-.45-.09-.26-.024-.474-.038-.63-.043m1.8-.834q-.111-.208.1a.4.4 0 0 0-.94.1.4.4 0 0 1-.71.1c-.102.1-.105.3-.7.4.6.64.1.34.1-.3.1-.27.1.2.2.3.1.7.1.91.1.064 0 .34.1-.54.2-.64-.91.1-.105.2-.2.2.17.2.206.2l.135.7.2c.7.1.3.2.54.2.75.23.25-.23-.27-.5.1-.5.1 0 .57.1-.1.1-.71-.142.1-.348.3-.88.1-.176.1-.196.1-.04 0-.88.2-.68.3.14.1.196.1.392.1.31-.4.8-.358.8-.51 0-.26-.83.1-.124a.4.4 0 0 0 .097-.145l.061-.168c.034-.81-.125-.185a1 1 0 0 1-.06-.233.4.37 0 0 0-.102-.232c-.047-.044-.085-.098-.085-.118 0-.024-.054-.098-.118-.165-.064-.071-.118-.159-.118-.2a.27.3 0 0 0-.05-.137.3.3 0 0 1-.051-.139c0-.04-.03-.1-.068-.134-.037-.034-.067-.088-.067-.118a.15.2 0 0 0-.051-.101.2.17 0 0 1-.05-.115c0-.04-.051-.121-.112-.182q-.118-.111-.228-.108m18.9-1.1c-.08 0-.182-.296a1.5 1.5 0 0 1-.25c-.109 0-.284.1-.494.2-.222.1-.466.1-.8-.003l-.26-.084-.139.1c-.192.1-.236.2-.236.4 0 .195-.1.2-.118.3-.112.1-.118.1-.118.4 0 .21.24.1.408.1.101.1.195.1.212 0 .58.2.142.4.142.2-.3.3-.57.3-.192 0-.74-.145.2-.3.2-.192.2-.209.2-.384l.006-.185.1.01c.7.148-.4.2-.027a.7.7 0 0 1 .223-.58.5.54 0 0 0 .27-.1.4.4 0 0 1 .122-.078c.013 0 .05-.2.1-.047a.7.7 0 0 1 .159-.081c.057-.17.2-.74.2-.121.1-.88.1-.95.1-.27q0-.183-.054-.236-.05-.048-.173-.048m-17.7-.713c-.07 0-.135-.166.1-.98.1-.165.3-.165.4 0 .057-.14.1-.34.1-.17-.34.1-.34.2 0 .1-.13.2-.33.2-.48-.4.3.1.4.67.1.169.2.216.2.105 0 .213-.108.2-.216 0-.134.2-.916.2-.997.1-.101-.286-.027-.347a.28.3 0 0 0-.182-.057m15-2c0-.2-.17.1.3.1.4.1.135.135-.044 0-.088-.067-.088-.138m-16.9-.05a.32.3 0 0 0-.198.1c-.118.1-.145.3-.145.8 0 .512.59.2.744.1.7.2.132.2.132 0 .55.68.1a1 1 0 0 0 .125.2c.159.2.186.2.257.5.67.2.131.3.236.3.091 0 .203-.87.2-.161 0-.2-.122.1-.223.1-.145.1-.239.1-.445 0-.171-.017-.28-.048-.313-.07-.084-.185-.438-.21-.66-.043-.38-.246-.593-.421-.435-.54-.64.1-.64.3 0 .225.29.1.414.1.162.1.219-.33.2-.115 0-.196-.111-.213-.293a.8.8 0 0 0-.05-.236.2.2 0 0 1-.011-.135 1.4 1.4 0 0 0 .054-.296c.014-.132-.28-.33-.68-.112-.033-.159a.21.2 0 0 0-.18-.067m24.6-.05c-.078-.013-.132-.01-.145-.14-.102-.193-.149 0-.172-.2.1-.94.2-.16.3.325.3.149.304.351s.139.203a.64.6 0 0 1 .27.2c.21.2.274.2.365.2.044 0 .128.186.1a.56.6 0 0 0 .29.1l.19.145-.171c.222-.273.2-.36-.18-.587a2 2 0 0 0-.287-.155.5.5 0 0 1-.148-.07c-.098-.058-.21-.075-.585-.098-.256-.017-.52-.04-.587-.05m-3.1-.617a.8.8 0 0 0-.187c-.152-.236-.304-.179-.067-.436-.027-.517.1-.4.1-.23.2.24.2.017 0 .3.3 0 .04-.57-.327a2 2 0 0 1-.389-.47.3.3 0 0 0-.135-.3.5.5 0 0 1-.189-.067c-.142-.088-.216-.085-.304-.121.1-.94.2.128.4l.207.2.31-.004c.196 0 .368-.23.5-.57.1-.4.3-.57.5-.57.3 0 .391.58.1.217.1.527.4.599.6.16.47.1.64.1.016 0 .84.1.148.2.68.1.156.2.203.3a.6.6 0 0 1 .125.2c.24.1.54.2.7.2a1 1 0 0 1 .38.2c.1.1.27.1.206.1.118.216-.6.2-.3.1-.6.1-.408-.02-.56a1 1 0 0 1-.088-.235.3.3 0 0 0-.067-.148c-.027-.02-.047-.054-.047-.071s-.075-.108-.17-.202a1.1 1.1 0 0 1-.202-.276 2 2 0 0 0-.07-.156 1 1 0 0 1-.052-.1c-.02-.058-.118-.125-.435-.297a1 1 0 0 1-.213-.142c-.007-.02-.047-.033-.091-.033-.115 0-.145-.071-.058-.128.1-.71.1-.226-.013-.297a.2.2 0 0 0-.108-.041m-7.1-.584c.02 0 .37.37 0 .016-.7-.14-.01 0-.027-.017-.037-.033q-.013-.32-.034m2.7-.23c-.105-.253.1-.27.2a.47.5 0 0 0 .111.4c.37.68.1.68.1s.3.1.67.1c.95.1.85.1-.5.3-.98.1-.118.1-.118.2v.135l-.078-.07a.3.3 0 0 0-.159-.082c-.08-.01-.084-.003-.84.2 0 .235.252.3.582.1.78.1.182.2.233a.3.3 0 0 0 .121.1c.38.75.85.1s.8.1.155.1a.7.7 0 0 1 .186.2c.27.108.1.176.1.7.152.1.182.1q.54.27c.196-.1.2-.17.2-.88-.097-.074-.202-.219-.266-.128-.054-.159-.161-.034-.128l.21.1c.74.212.1.304.1.94.196.1.23.1.03 0 .84.118.3.104.158.1.18.1.453.3.497.4.23.9.1.152.2.121.1.135.2.175.6.34.3.95.6.146.7.16.43.2.64.4.44.4.101.5.32.5.166 0 .19-.24.2-.253-.303.1-.397.1-.845-.401-.455-.02-.607-.065-.175-.102-.215-.565-.677-.165-.162-.297-.31-.297-.33 0-.024-.03-.054-.068-.071-.037-.017-.246-.206-.462-.421-.22-.216-.433-.404-.477-.418-.04-.01-.098-.067-.125-.121-.03-.054-.064-.098-.08-.098-.031 0-.41-.37-.41-.4a1.6 1.6 0 0 0-.185-.223 1.3 1.3 0 0 1-.186-.236c0-.03-.05-.067-.32-.23-.156-.094-.322-.265-.322-.33 0-.03-.054-.104-.118-.161a.5.5 0 0 0-.162-.105m4.9-.718c-.24.1-.264.2-.85.3a.6.6 0 0 0 .149.1c.04 0 .104.2.104.3 0 .05-.33.1-.84.2-.98.1-.118.3-.34.4.71.1.64.1-.2.1-.115 0-.2.1-.2.2 0 .6.1.175.3.421.2.189.3.36.3.38 0 .24.1.105.1.186.1.8.1.192.2.25.124.2.178.4.144l.122-.023v-.213c0-.168-.014-.225-.068-.272a.4.4 0 0 1-.088-.128 1 1 0 0 0-.179-.23c-.178-.182-.26-.31-.226-.363-.54.2-.44.3.26.1.68.3.65.6-.6.1-.37.1-.44.1-.179q0-.249-.23-.25c-.127 0-.276-.063-.276-.12 0-.61.2-.216.3-.216.1 0 .169-.121.2-.209 0-.104-.213-.185-.665-.25-.082-.013-.162-.043-.183-.067a.13.1 0 0 0-.084-.047c-.068 0-.18-.067-.304-.178a.7.7 0 0 0-.22-.125c-.121-.037-.186-.037-.266-.01m-8.7-3a.7.7 0 0 0-.217c-.34-.7.1-.84.1-.2.1-.17.3-.372.5a.6.6 0 0 0-.111.2c0 .07-.527.5-.629.6a.3.3 0 0 0-.152.1c-.1.2-.432.4-.587.5a5 5 0 0 0-.213.1 1 1 0 0 1-.247.63.6 0 0 0-.314.1c-.125.1-.189.1-.493.1-.338-.425-.642.1-.199.1-.199.1-.33-.014-.142-.132-.369-.21-.517-.179-.71-.142 0-.237-.047-.152-.08-.304-.088-.641-.03-.196-.26.1-.382.2-.81.1-.18.1-.216.1-.04 0-.81-.91-.1-.48-.82a.16.2 0 0 0-.104c-.54.1-.17.1-.29 0-.203-.104-.453-.01-.453.2 0 .108-.44.1-.22.2-.2-.405.1-.436.2-.4.1-.2.2.48.3.7.1.9.1.34.1-.109 0-.298.2-.386.4-.118.2-.3.4-.594.5a13 13 0 0 0-.659.3 7 7 0 0 1-.537.3.4.4 0 0 1-.138c-.02 0-.74-.118.1s-.102.1-.125.1c-.027 0-.54-.68.1a.4.4 0 0 1-.64.1.8.8 0 0 0-.81.2c-.2.1-.6.2-.88.3-.34.1-.47.3-.48 0 .738.832.1 1.1.45.2.106.4.136.4.3.1.54.2.54.3 0 .8.158.171.14.21.435.465.509.2.502.1-.7.3-.84.3-.175 0-.3-.101.1-.162.1-.9.1-.108.3-.108.1 0 .185.212.1.24.61.1.81.1.024 0 .88.1.146.1a.8.8 0 0 0 .199.2c.54.149.1.206.1.6.145.1.186.111-.13.1-.199-.297-.156-.155-.276.2-.128.1.118.2.162.3.162.1 0 .162.237.1a.7.7 0 0 0 .172.1c.02 0 .84.142.1.6.172.1.253.1.78.206.1.287.1.118.233.1.713.314-.14.6-.34.6-.5-.14.2-.48.4-.72.3-.43.7-.155.9-.28l.22-.144.2-.121c.047-.34.1-.71.1-.085a1 1 0 0 0 .183-.135.6.6 0 0 1 .172-.11c.02 0 .074-.38.1-.085s.098-.84.1-.084c.02 0 .057-.24.1-.05a.16.2 0 0 1 .099-.051c.034 0 .094-.37.1-.081a.37.4 0 0 1 .172-.98.6.6 0 0 0 .21-.118c.06-.5.2-.128.3-.171.1-.4.2-.112.3-.159.1-.84.1-.84.6-.74.5.1.5.17.6.84.1.68.1.78.4.78.3 0 .33-.1.4-.78-.4.2-.1.2-.135.1-.43.1-.74.1-.151a.46.5 0 0 0-.088-.212 1 1 0 0 1-.2-.486.6.6 0 0 0-.087-.232c-.064-.08-.088-.303-.037-.337-.1.1-.101.1-.202a.55.5 0 0 1 .125-.26c.04-.43.1-.9.1-.107s.047-.84.1-.149c.135-.151.1-.343-.471-.098-.095-.078-.135.1-.152.1-.1.1-.27.1-.121a.5.5 0 0 0-.04-.216c-.065-.124-.071-.367-.014-.424.1-.81.3-.17.4.9.31.1.152.2.274.2.202.2.222.4.262.1.27.3.54.4.64.2.17.2.1.3-.06a.26.3 0 0 0 .08-.152c0-.08-.144-.215-.232-.215a1 1 0 0 1-.19-.048 2 2 0 0 0-.253-.07c-.189-.03-.273-.118-.293-.297l-.02-.158h.175a.7.7 0 0 1 .25c.94.557.659-.003a.14.1 0 0 0 .074-.125c0-.08-.132-.323-.2-.367-.043-.024-.172-.31-.172-.377 0-.024-.064-.115-.142-.2-.314-.326-.368-.393-.35-.437-.27-.44.1-.04q.44.054-.142c.01-.145 0-.162-.179-.337-.192-.192-.216-.236-.142-.3-.27.1-.7.2.084a.85.8 0 0 0 .379.2c.3.57.57.1 0 .105.2.448.3.546.2.145.4.28.5.28q.19.189-.31c0-.152-.014-.196-.084-.263-.048-.044-.085-.098-.085-.118s-.06-.08-.132-.138a.8.8 0 0 1-.189-.192c-.03-.05-.07-.091-.09-.091a.6.6 0 0 1-.177-.121 17 17 0 0 0-.293-.243 20 20 0 0 1-.49-.411c-.321-.28-.493-.37-.682-.37-.082 0-.193.1-.166.2.1-.7.1-.34.1-.77.1-.7.9.7.9.27.5.1.5.1 0 .13.77.1.138.6.1.125.1.141 0 .2.4.54.1.24.1.078-.17.2-.8.1-.84.2-.1.4.44.1.47.1.17.2-.6.1-.223-.034-.236-.135-.007-.04-.075-.125-.149-.192-.105-.088-.172-.118-.267-.118-.128 0-.138-.213.2-.23.1-.1.1-.182-.017-.037-.04-.121-.135-.186-.21l-.118-.134-.328c-.266 0-.337-.371.1-.24-.5.1-.64.1-.01 0-.85-.166.1-.199.1-.381.1-.432.1-.03-.036-.024-.5-.067a.8.8 0 0 0 .165-.094 3 3 0 0 1 .254-.152c.084-.47.2-.11.2-.145a.3.3 0 0 1 .136-.06c.087-.4.6-.25.7-.357.3-.23.4-.381.4-.506 0-.209-.044-.249-.27-.249-.186 0-.254-.034-.17-.84-.1-.47-.081 0-.3.1-.108.1-.172a.5.5 0 0 0 .118-.145.6.6 0 0 1 .102-.148c.057-.6.1-.142.1-.172 0-.34-.74-.94-.47.1-.293-.347-.014-.024-.085-.043-.164-.053m.326-2.7a6 6 0 0 0-.705l-.389-.408.2c-.405.2-.5.3-.753.5a.5.5 0 0 1-.17.1c-.05 0-.61.5-.61.6 0 .024-.38.1-.85.1a.34.3 0 0 0-.84.2c0 .175.1.205.3.172.2-.24.2-.4.3-.145.1-.64.2-.159.3-.206a1.5 1.5 0 0 0 .294-.192 1.6 1.6 0 0 1 .537-.28c.047-.13.1-.47.2-.7.1-.5.3-.3.3.034 0 .067-.2.2-.284.2-.101 0-.223.1-.223.2 0 .8.8.4.9.4.1.4.14.5.2.8.9.3.127.2.2.4.5.5.68.4.54.5.161.3.28-.98.1-.122.2-.47.3.57.293.4.293.4 0 .44.2.27.7.657.3.263.4.337.5.324.1-.1.1-.2.1-.236-.3-.115-.728-.264-.886-.08-.084-.08-.088-.02-.189.1-.151.1-.357-.04-.606a1.3 1.3 0 0 0-.173-.28c-.04-.037-.07-.08-.07-.104 0-.054-.237-.277-.376-.35-.118-.065-.162-.156-.108-.21-.2.1-.3.1.44.1.68.1.78.4.078h.337l-.006-.118a.21.2 0 0 0-.091-.179c-.048-.034-.088-.084-.088-.111 0-.088-.608-.485-.743-.485a.4.4 0 0 1-.152-.06 1 1 0 0 0-.2-.088 2 2 0 0 1-.233-.088q-.12-.058-.399-.076m-.608-1.5c0 .04-.68.1-.91.1-.01-.01-.007-.34-.54-.47.1-.47.1-.007m-1.4-.142a.4.4 0 0 0-.118 1 1 0 0 1-.122.19.2 0 0 0-.132.1.6.6 0 0 1-.125.2.8.8 0 0 0-.155.2 2.4 2.4 0 0 1-.186.3c-.44-.9.3-.128.6-.1.1-.3.2.2.4.24.1.5.3.58.3.3.2.155.3.347.2.15-.27.2-.162.2-.596-.422-.489.3-.957.1-.3.2-.378.2-.556-.199 0-.21-.081-.216m-5.7-.441c-.054-.054-.159-.05-.263a.5.5 0 0 1-.156.1.17.2 0 0 0-.118.1c-.23-.159.1-.3.2a2 2 0 0 0-.328.2c-.78.1-.112.1-.338.2-.142.1-.405.3-.533.5a1.6 1.6 0 0 1-.183.2.4.4 0 0 0-.105.1c0 .02-.33.1-.77.1-.115.1-.22.4-.264.7-.2.1-.5.3-.7.4a.6.6 0 0 0-.14.2c.13.1.37.2.5.3.14.1.58.3.98.4a.7.7 0 0 1 .75.2c0 .47.101.125s.51.1.51.1c0 .72.2.392.2.486.1.74.4.29.4.29 0 .55.78.34.129.1.463.1.398 0 .422.5.1.47.84.1.84.1 0 .067-.138.2-.253.2a.5.5 0 0 0-.186.1c-.118.1-.223.1-.638.2-.125-.43-.037-.605-.115-.132-.057-.378-.286-.378-.35a.17.2 0 0 0-.047-.094c-.085-.098-.217-.556-.24-.83-.03-.404-.037-.42-.145-.42a.3.3 0 0 0-.129c-.67-.317.5-.338.7a.4.4 0 0 1-.5.1c-.44-.37.7.3.8a.4.4 0 0 1 .85.1c.27.1.8.2.118.2.34.1.88.1.118.2a.6.6 0 0 0 .105.1c.27.47.1.47.1 0 .081-.3.1-.176.1-.33-.05-.425-.037-.537.1a.5.5 0 0 0-.98.1c0 .014-.47.1-.1.1-.106.1-.109.1-.28.3.2.27.1.17.1-.2-.37-.155-.017-.196-.1-.257-.077-.254.1.4.2.75.3.247.3a.5.5 0 0 1 .155.1c.2.132.254.1.121.236.26.1.23.114.202.835-.95.9-.111 1.1-.246a6 6 0 0 1 .52-.283c.257-.128.5-.253.5-.28a.6.6 0 0 1 .139-.087c.121-.54.2-.105.4-.22.1-.114.2-.175.3-.208a1 1 0 0 0 .142-.85.5.5 0 0 1 .226-.6.6.6 0 0 0 .2-.03c.03-.17.1-.51.3-.71.1-.24.3-.64.3-.91.2-.84.7-.34.8-.398a2 2 0 0 1 .203-.1c.307-.139.4-.206.4-.415-.95-.122-.088-.212-.111-.105-.358-.233-.45-.233-.026 0-.06-.017-.07-.034-.01-.02-.06-.033-.108-.033a.8.8 0 0 1-.254-.085 1 1 0 0 0-.209-.084c-.027 0-.08-.027-.125-.064a.6.6 0 0 0-.2-.088 2 2 0 0 1-.347-.138.9.9 0 0 0-.355-.11 2 2 0 0 1-.287-.021c-.131-.02-.172-.014-.226-.6.1-.81.1-.2a.7.7 0 0 1-.242-.155c-.061-.065-.129-.115-.152-.115-.024 0-.082-.05-.132-.111a9 9 0 0 0-.203-.233c-.064-.067-.118-.144-.118-.171s-.03-.075-.068-.108c-.057-.05-.067-.105-.067-.337 0-.206-.29.1-.32a1 1 0 0 0 .136-.216c.05-.94.1-.232.2-.307-.74.1-.165.1-.202a.8.8 0 0 1 .129-.168c.05-.57.1-.162.2-.236.1-.158.3-.354.3-.354 0 .057-.33.1-.077s.142-.199.3-.347a6 6 0 0 0 .324-.364c.081-.108.1-.317-.384m7.4-.139a.4.4 0 0 0-.193.5.5 0 0 1-.19.1c-.057 0-.124-.148.1-.24-.54.1-.7.1a.7.7 0 0 0-.166.1.6.6 0 0 1-.186.1c-.03 0-.6-.74.1a1 1 0 0 1-.115.2c-.54.1-.129.2-.166.3a.6.6 0 0 1-.101.2c-.17-.34.1-.34.1s-.3.1-.67.2c-.38-.68.1-.68.1 0 .064-.193.5-.233.5-.54-.44.4.1.5.34.81.1.159.1.101-.1.1-.34.3-.327.1-.175.2-.353.2-.397 0-.95.1-.34.2-.435a.7.7 0 0 0 .131-.182c.071-.141.3-.37.4-.37.1 0 .51.1-.4.2-.206.2-.105.5.149.5.09-.17.2-.87.4-.283.1-.145.3-.286.4-.313.2-.74.4-.111.5-.091l.111-.74.1c-.44-.98.1-.135.1-.098-.027-.493.1-.571.2-.37-.68.1-.68.1 0 .67.1.185.2.205.1.1.48.2.085a.7.7 0 0 0 .216.1c.142 0 .3.1.256.2a.4.4 0 0 1-.131.1c-.88-.115.1-.115.1 0 .54.94.1.105.13.1.47.2.84.1.34.2.7.2.84.1.1.34.1.5.18.31.1.31.2 0 .95.5 1 .657a.6.6 0 0 0 .135.2c.95.1.142.1.264.1.152 0 .256-.6.3-.148a.3.3 0 0 0-.067-.131.3.33 0 0 1-.068-.175c0-.78-.88.1-.078q.93.135.1c.82.2.207.3.389.3.179 0 .263-.64.3-.195 0-.135-.6-.58-.702-.516-.17-.068-.007-.112-.04a1 1 0 0 0-.23-.105c-.215-.06-.712-.3-.712-.34 0-.017-.027-.034-.06-.034-.082 0-.19-.118-.16-.168-.47.2-.17.3.5.24.2.98.3.169.2.67.3.138.3.155a.3.3 0 0 0 .129c.034 0 .118.185.1a.5.5 0 0 0 .18.1c.03 0 .135.226.1.429.3.49.3.49-.017 0-.182-.03-.232-.203-.313a2.4 2.4 0 0 0-.507-.132c-.135-.017-.463-.158-.547-.236-.128-.114-.027-.357.2-.363.3-.14.2-.337-.212-.52a4 4 0 0 1-.257-.13c-.32-.183-.763-.27-1.5-.297-.317-.014-.45-.007-.567-.206.1-.22.1-.22-.044 0-.054-.024-.125-.054-.152-.032-.034-.092-.05-.158-.05m-.406-1.6c-.7-.125.1-.125.1 0 .09-.4.1-.284.3-.94.1-.23.2-.3.2-.112.1-.139.1-.193.1-.111-.068-.23-.047-.425.1-.105.1-.227.1-.287.1a.8.8 0 0 0-.223.1q-.244.1-.385-.013l-.078-.64.1-.182c.098-.145.1-.212.1-.3-.01-.104-.02-.114-.138-.124-.095-.007-.132-.149.1a1.4 1.4 0 0 1-.135.2.7.7 0 0 0-.111.2c-.4-.24.2-.264.2-.007-.1-.84.1-.165.1-.141.1-.161.1-.39 0-.23-.004-.243-.088-.273-.129-.051-.25-.405.3-.34.1-.75.1-.88.1-.014 0-.27-.27 0 .087-.247.3-.422.4-.102-.2.1-.22.1a.8.8 0 0 1-.196.1c-.88-.23.1-.317.2a.9.9 0 0 1-.372.1 1 1 0 0 0-.253.1c-.48-.135-.135-.152-.293-.01-.094-.02-.101-.139-.094a.5.5 0 0 0-.236.1c-.6-.23.1-.378.2a2 2 0 0 0-.345.2 1 1 0 0 1-.138.1c-.196.1-.341.2-.42.3a2 2 0 0 1-.151.2.7.7 0 0 0-.108.2c-.24.1-.61.1-.78.1s-.37-.5.1a1.4 1.4 0 0 1-.129.2c-.29.4-.375.8-.179.9.142.1.264.257-.135-.004-.107.1-.326.2-.427.1-.88.1.4.178-.61.1-.71.2-.71.5 0 .388.755.1.815.17.58.095 0 .34.111.1.168.6.1.132.1.162.3.1.138.2.24.1.195.1.185 1.4.825.1.74.3.151.3.172.2.117.5.245.6.235.1-.1.1-.124.1-.242-.01-.037-.067-.101-.124-.135a3 3 0 0 1-.389-.347c-.152-.155-.297-.28-.324-.28-.054 0-.331-.27-.331-.323 0-.02-.054-.084-.118-.148s-.119-.142-.119-.172c0-.034-.013-.068-.03-.081-.02-.01-.074-.105-.128-.212-.112-.226-.122-.475-.024-.583.1-.7.1-.162.2-.317a.5.5 0 0 1 .1-.148c.035-.24.1-.64.1-.84-.88.2-.36.4-.411.3-.122.3-.166.4-.27.1-.118.2-.165.4-.199.1-.17.2-.47.3-.188.2-.186.4-.32.6-.304a.3.3 0 0 1 .155.1c.101.1.287.1.385-.2-.48.1-.85.1-.085s.071-.17.1-.037c.048-.47.2-.115.3-.182.2-.101.4-.192.5-.222.1-.5.1-.37.3.087a.6.6 0 0 0 .186.1c.064 0 .399-.141.6-.232.1-.6.3-.138.4-.159.1-.13.1-.33.1-.05a.5.5 0 0 1 .162-.095c.119-.5.2-.84.2-.175-.144-.038-.198-.227-.171-.104-.135-.121-.27-.44.2-.169.3-.226a.7.7 0 0 0 .146-.101c.054-.44.1-.78.1-.78.1 0 .156-.192.1-.33-.01-.114-.02-.125-.125-.135a.25.3 0 0 1-.179-.94.2.21 0 0 0-.206-.073m-2.9-1.5c.115.372.3.372.4 0 .156.1.2.4.2.4 0 .497.1.558.2a.44.4 0 0 0 .9.2c.25.45.1.45.1 0 .74.97.1.11a.35.4 0 0 0 .19-.3.5.5 0 0 1 .148-.047c.064 0 .375-.161.5-.25-.36.1-.83.1-.11 0-.5.2-.61.2-.1.64.3.37.3-.034a.6.6 0 0 1 .182-.121 3 3 0 0 0 .186-.088q.061-.3.1.003c.2.64.94.068 0 .335.3.335.4 0 .78.2.68.3-.017a.4.4 0 0 1 .132-.87.9.9 0 0 0 .23-.172.6.6 0 0 1 .334-.192c.321-.74.7.47.9.28.2.215.3.434.4.508.37.68.1.68 0 .115.1.21.1.98.1.2.2.226.2.27.81.118.1.142.1.412.3.527.3.64.28.2.48.4s.412.4.48.4c.64.1.118.1.118.1 0 .47.9.9.9.9 0 .95.1.169.1.108.1.145.2.162.3s.58.2.159.3c.74.1.172.2.216.3a1 1 0 0 0 .149.2c.4.7.1.7.1 0 .2.1.175.3.343.3.344.4.418.5.593a.7.7 0 0 0 .114.2c.3.54.1.54.1 0 .62.1.338.2.435.51.1.159.1.243.84.1.162.1.172s.6.1.105.2c.4.1.98.2.125.2.6.1.118.2.186.3a.4.4 0 0 0 .8.1c.17.99.2.176.3.78.2.159.3.176.3.128.2.368.7.368.8 0 .6.134.168.3.1.101.1.159.1.161.1.259.3.434.1.162.2.297.2.526.8.1.168.2.276l.156.2h.31c.264 0 .325-.1.4-.078a.8.8 0 0 0 .256-.327c.034-.74.2-.27.3-.27 0 .065-.3.1-.66.1-.98.4-.125.6-.54.2.87.3.138.3.387v.222l.32c.365.1.551.1.693.3.54.1.118.1.145.1.054 0 .321.3.375.4.34.1.34.1-.3.1-.95.1-.183.2-.3.2-.126 0-.268.1-.268.2 0 .63.2.215.2.215.1 0 .335.3.46.5.88.2.101.2.101.4q0 .271.1.38c.78.2.78.3-.3.5-.37-.81.1-.101.1-.17-.65.1-.105.2a.83.8 0 0 0-.149.5c0 .095-.2.2-.54.2-.54.1-.101.4-.135.9-.1.1-.34.3-.5.3-.18-.31.1-.31.1a.4.4 0 0 1-.85.2.5.5 0 0 0-.84.1c0 .068-.409.4-.483.4-.047 0-.135.1-.226.2-.81.1-.166.2-.19.2-.02 0-.57-.8.1-.78.1-.402.3-.483.3-.044 0-.98-.119s-.138.1-.26.1c-.125-.23.1-.24.1-.1-.172-.364h-.345l-.44.1c-.27.1-.5.3-.57.5s-.27.4-.47.4a.4.4 0 0 0-.34.1c0 .084-.166.3-.294.3a2 2 0 0 0-.149.1.6.6 0 0 1-.202.1c-.318.1-.507.1-.612.2-.77.1-.128.1-.192.1-.078-.017-.125-.058-.277-.246-.024-.027-.098-.04-.21-.034-.155-.175-.185.1a.6.6 0 0 0 .57.2c.4.1.71.2.71.2s.24.1.5.1c.28.1.75.2.102.2s.5.1.5.1.38.1.85.2c.47.1.85.2.85.2 0 .24.78.1.125a.33.3 0 0 1 .68.2c0 .4.84.97.37.1.267.1.408.74.165.202.1.128.2.809.2 1.1.1.1.3.3.47.3a.6.6 0 0 1 .5.2c.11.1.31.2.48.2s.4.1.5.2c.1.1.31.3.48.4.14.1.44.3.64.4.2.1.54.2.75.3.23.1.84.3.138.4.54.1.98.2.98.2s.27.1.6.1c.35.95.2.136.3.57.2.64.2.4.4a1.4 1.4 0 0 0-.33.2c0 .07-.4.2-.102.3-.111.2-.192.2-.307.2-.064 0-.21-.351.1a2 2 0 0 0-.135.1c-.85.1-.17.1-.54.1-.51-.72-1.22l-.234.1-1.8-.01c-1.3-.01-1.8 0-1.8.027-.37-.172.1-.304.1-.129-.267.1-.304.1s-.19.1-.338.2c-.203.1-.284.2-.32.2-.65.1-.26.3-.7.5-.466.2-.473.2-.54.3a1 1 0 0 1-.196.1c-.145.1-.422.3-.422.4 0 .024-.105.1-.233.3-.16.2-.26.2-.318.2-.044 0-.101-.121-.51.1-.213.1-.595.1-.166-.317-.338-.17-.77-.138a.9.9 0 0 0-.304.1c-.2.1-.378.1-.47-.043-.043-.267-.036-.31-.4-.22-.493-.034a.46.5 0 0 0-.244-.004c-.77-.84.1-.84.2 0 .189-.1.2-.108.3-.61.1-.135.1-.166.1-.033 0-.7-.8.1-.31.1-.322.1-.379 0-.024-.037-.098-.074-.169-.085a.6.6 0 0 1-.186-.53.4.4 0 0 0-.135-.03 1 1 0 0 1-.28-.122 6 6 0 0 0-.304-.165c-.054-.03-.125-.064-.152-.081a14 14 0 0 0-.439-.199 2 2 0 0 0-.243-.94.3.33 0 0 1-.149-.084c-.03-.034-.084-.064-.115-.064a.14.1 0 0 1-.098-.48.7.7 0 0 0-.22-.1 2 2 0 0 1-.33-.152 2 2 0 0 0-.206-.115.3.33 0 0 1-.118-.124.3.28 0 0 0-.142-.125 1.4 1.4 0 0 1-.22-.098 2 2 0 0 0-.22-.114c-.047-.024-.128-.061-.178-.088a.6.6 0 0 0-.23-.47.5.5 0 0 1-.21-.04q-.073-.035-1-.051c-.52-.007-1.6-.027-2.3-.044l-1.4-.03-.091-.105c-.109-.118-.115-.178-.044-.347a1 1 0 0 0 .05-.3c0-.229.1-.42.2-.555a.4.4 0 0 0 .08-.155c0-.61.1-.253.1-.277-.13-.6-.108 0-.87.2-.434.2-.468-.1-.4-.07 0-.28-.95.1-.152-.54.1-.118.1-.145 0-.4.1-.185.3-.472-.74.1-.175.1-.229-.5-.9.1-.9 0 .034-.28-.61-.3-.81-.108.1-.138.1-.21.1-.277 0-.43-.107-.141a.3.3 0 0 0 .051-.111c0-.37.1-.314.2-.509-.44.1-.165.2-.276.1-.108.2-.212.2-.23 0-.16-.53.1-.077a.5.5 0 0 0 .095-.141c.02-.5.1-.202.3-.34.1-.135.2-.263.2-.28s.054-.81.1-.145c.065-.64.1-.145.1-.182 0-.078-.061-.276-.112-.374-.145-.266-.294-.596-.294-.647a.25.3 0 0 0-.05-.125.3.3 0 0 1-.051-.11.7.7 0 0 0-.068-.186.7.7 0 0 1-.067-.202c0-.098-.162-.33-.233-.33-.034 0-.118.1-.193.2-.118.2-.179.2-.554.4-.49.2-.61.3-.803.3-.075 0-.149-.16-.36.1-.337-.425-.027a.54.5 0 0 0-.24-.085c-.179-.023-.584-.141-.685-.202-.037-.02-.267-.044-.524-.05-.462-.014-.783-.081-.915-.196a.17.2 0 0 0-.091-.047c-.024 0-.04-.02-.04-.047a.4.4 0 0 0-.075-.145 1.5 1.5 0 0 1-.216-.347c-.027-.064-.071-.148-.088-.185a.6.6 0 0 1-.044-.22.6.6 0 0 0-.044-.225.3.3 0 0 1-.04-.111c0-.088-.146-.236-.314-.32-.44-.22-.666-.411-.666-.56 0-.05-.013-.1-.03-.11-.014-.01-.037-.115-.047-.233-.017-.189-.01-.236.1-.398.1-.252.3-.478.4-.593.1-.97.3-.377.3-.465 0-.27-.57.1-.7-.1.1-.4.1-.061 0-.6.1-.168.3-.222.1-.34.1-.34.2-.4.24.2.37.4.03l.32-.01v-.36l-.151-.06c-.149-.058-.335-.26-.338-.365a.3.3 0 0 0-.05-.12c-.048-.072-.045-.82-.139.1-.64.2-.128.3-.182a1 1 0 0 0 .186-.128c.064-.5.2-.125.2-.158.2-.132.2-.108.2-.725-.004-.438-.014-.572-.05-.623a.3.3 0 0 1-.052-.128.6.6 0 0 0-.067-.202c-.058-.118-.068-.209-.068-.55 0-.3-.013-.424-.05-.474-.037-.054-.051-.23-.068-.708-.007-.35-.024-.903-.034-1.2-.013-.368-.006-.613-.657-.37-.186.1-.334-.276.1-.438.2-.613a.4.4 0 0 0 .078-.155c0-.88.1-.276.2-.39.1-.62.1-.125.1-.146 0-.67.5-.657.6-.7.1-.27.2-.95.2-.156.1-.57.2-.138.3-.178a1 1 0 0 0 .176-.111.7.7 0 0 1 .196-.115c.152-.7.2-.1.2-.219-.9.1-.151.1-.172.1-.37.1-.168.1-.272-.023-.04-.053-.23-.067-.415-.037-.515-.077-.836-.121-.916q-.111-.202.1-.496c.064-.1.1-.195.1-.212 0-.47.3-.313.3-.313a.24.2 0 0 0 .115-.5.3.3 0 0 1 .125-.051c.06 0 .166-.169.2-.266a.7.7 0 0 1 .084-.19c.152-.248.2-.356.2-.599 0-.256-.374.2-.663.1-.18.2-.412.3-.432-.6-.3-.05 0-.5.3-.327.3-.327 0 .057-.2.1-.44.1-.98.3-.189.6-.205.2-.14.3-.34.4-.135q.184-.122.3-.122c.06 0 .128-.13.1-.03a.4.4 0 0 1 .17-.044l.134-.1-.276c.01-.27-.28.1-.364a.4.4 0 0 1 .233-.084c.068 0 .132-.17.1-.34-.2-.34.1-.034a.8.8 0 0 0 .226-.08c.23-.118.4-.189.4-.189 0 .12.1.219.2.98.1.206.2.243.2.094 0 .277.1.277.2 0 .24.61.85.23.1.67.1.097s.98.2.22.3l.223.2h.263c.257 0 .385-.38.5-.149-.27.1-.7.1-.098 0-.23-.1.1-.168l.09-.209a.78.8 0 0 1 .38-.354.7.7 0 0 0 .215-.131c.024-.3.1-.54.1-.054s.138-.98.3-.219c.182-.185.2-.219.3-.202"/></g></svg>