<svg xmlns="http://www.w3.org/2000/svg" version="1.0" viewBox="0 0 205 395"><path d="M90.8 1.7c8.4.2 21.9.2 30 0 8.1-.1 1.2-.3-15.3-.3s-23.1.2-14.7.3m-32.5 1c.9.2 2.3.2 3 0 .6-.3-.1-.5-1.8-.5-1.6 0-2.2.2-1.2.5m7.4.7c.3.5-3.7.7-9.2.4-5.3-.2-8.9 0-7.9.4 1.2.5.2.7-2.8.5-2.5-.1-4.4.1-4.2.4.3.6-8.6 1.8-17.1 2.4-9.1.6-18.3 8.4-20.9 17.7-2 7.3-2.5 74.8-1.7 224.3.7 131.3.1 121.8 7.4 129.3 9.1 9.5 22.4 12.2 71.2 14.3 43.7 1.9 93.5-1.5 106.4-7.2 9.3-4.1 14.8-10.8 16.4-19.9.4-1.9.7-77.8.8-168.5.1-120.2-.2-166.4-1.1-170-.6-2.8-2.2-6.7-3.6-8.8-2.9-4.4-10.2-10-12.1-9.2-.8.2-1.2.1-.9-.4.8-1.3-2.1-2.2-5.2-1.6-2.2.4-2.3.4-.7-.3 1.8-.8 1.7-1-1-1.6-5.9-1.2-17.1-2.6-20.5-2.4-3.3.1-3.2.2 1 .8 3.3.6 2.6.7-2.9.4-4.1-.2-9.9-.5-13-.6-4.9-.1-4.6-.2 2.4-.7 4.4-.3-12.1-.6-36.7-.6-25.2 0-44.4.4-44.1.9m109.8 2.7c2 .5.9.6-3 .2-3.3-.3-6.2-.7-6.4-.9-.8-.7 6.3-.2 9.4.7M22.5 12c-2.7 1.2-4.3 1.2-2.5 0 .8-.5 2.2-.9 3-.9 1 0 .8.3-.5.9M13 16.4c0 .2-.8 1-1.7 1.7-1.6 1.3-1.7 1.2-.4-.4s2.1-2.1 2.1-1.3M7.7 30.2c-.2 1.3-.4.3-.4-2.2s.2-3.5.4-2.3c.2 1.3.2 3.3 0 4.5m0 5c-.3.8-.6.5-.6-.6-.1-1.1.2-1.7.5-1.3.3.3.4 1.2.1 1.9m0 41.5c-.1 6.5-.3 1.2-.3-11.7s.2-18.2.3-11.8c.2 6.5.2 17.1 0 23.5m142.6-31.8 43.7.1v151.5c0 83.3-.3 151.5-.7 151.5-.5 0-41.4.3-91 .6l-90.3.5V43.9l47.3.5c25.9.3 66.9.5 91 .5"/></svg>