<svg xmlns="http://www.w3.org/2000/svg" version="1" viewBox="0 0 351 457"><path d="M68.2 1c-14 2-26 6.3-33.4 12.2C26.9 19.4 15.6 38.1 9.5 55 2.2 75.5-.7 101.1 1.9 124.1c6.7 59.6 18.5 111.3 29.6 130.3 6.6 11.3 27.9 27.4 55.1 41.7 6.5 3.4 13.1 7.1 14.6 8.1 3.7 2.5 6.6 9.1 8.3 18.8.8 4.6 2.1 9.3 3 10.6 1.8 2.8 7.1 4.4 14.6 4.4 3.1 0 7.7.3 10.3.6 4.5.7 4.6.7 4.6 4.3 0 2-.4 4.2-.8 4.8-.4.7-4.4 1.8-8.7 2.4-17.3 2.3-23.2 4.4-26 9.2-2.2 3.7-3.1 18.3-3.7 56.3-.2 19.8 0 24.4 1.1 25.8 5.6 6.7 32.9 13.3 62.6 15.2 25.4 1.6 68.3-5.6 78.2-13.2l3.3-2.5-.1-23.2c0-12.8-.4-30.5-.8-39.5-.7-13.8-1.1-16.8-2.8-19-2.8-3.9-8-6.1-18-7.8-18.8-3.2-16.8-2.3-17.1-7.5l-.3-4.6 4.7-.7c2.6-.3 7.3-.6 10.5-.6 6.6 0 13.5-2.3 14.9-5.1.6-1 1.7-5.7 2.5-10.4 1.8-9.9 4.3-15.5 8.2-18.3 1.6-1 8.2-4.7 14.8-8.1 29.1-15.2 51-32.8 57.2-46.1 9.1-19.5 18.1-57 24.4-102.2 4.2-30.4 4.8-50.2 2.1-66.3-4.8-27.8-19-58.1-32.2-68.5-5.2-4.1-13.5-7.7-23.9-10.2C278.8-.5 262.7-.1 228 4.4c-46.2 6-58.3 6-109.9-.5C91.2.6 77.2-.3 68.2 1M49.3 98.4c8.6 1.7 23.9 7.5 45.3 17.2 23.6 10.6 31.6 15.6 39.4 24.1 18.5 20.3 16.8 48-4.5 72.2-8.6 9.8-18.2 17.3-28.5 22.4-8.2 4-8.9 4.2-18 4.2s-9.8-.2-18-4.2c-13.8-6.7-22.9-17.7-28.3-34-6.1-18.7-15-65.9-15.1-80.8-.1-11.3 1.1-14.7 6.5-18.6 5.6-4 10.4-4.5 21.2-2.5m269.5 1.5c8.3 4.2 10.3 14.8 6.7 36.5-2.6 16.1-10.2 52.5-12.6 60.1-3.2 10.7-9.7 22.3-15.6 28.3-3.7 3.8-7.9 6.5-14 9.4-20.4 9.6-37 4.7-59.5-17.4-8.4-8.3-11.2-11.9-14.5-18.3-9.7-18.8-10-37-.9-51.3 4-6.4 12.8-14.6 20.3-19.1 6.9-4.1 31.4-15.6 45.8-21.5 23.3-9.6 35.1-11.4 44.3-6.7"/></svg>