<svg viewBox="0 0 30 31" xmlns="http://www.w3.org/2000/svg"><g transform="translate(-994 -154)"><path fill-rule="evenodd" d="M1008.9 164.4q-.795 0-1.4.392-.63.4-1.1 1c-.31.4-.58.9-.8 1.4s-.4 1.1-.53 1.6q-.21.8-.3 1.6c-.5.5-.9-.08 1.4 0 .943.2 1.7.5 2.2q.495.8 1.7.765c.31 0 .61-.54.9-.162.3-.109.6-.274 1-.498.4-.223.7-.516 1.1-.879.4-.363.8-.794 1.3-1.3l.9-5q-.72-1.2-1.5-1.9a2.5 2.5 0 0 0-1.7-.65m2.1-9.4q3.1 0 5.3.755t3.7 2.1a8.4 8.4 0 0 1 2.2 3.4q.72 2.72 4.4a22 22 0 0 1-.16 2.7 17.6 17.6 0 0 1-.52 2.6c-.24.9-.55 1.7-.94 2.4a8.2 8.2 0 0 1-1.4 2 6.2 6.2 0 0 1-2 1.3c-.75.3-1.6.488-2.6.488q-.78 0-1.4-.182a3.9 3.9 0 0 1-1.2-.526 3 3 0 0 1-.86-.889 3.6 3.6 0 0 1-.48-1.3c-.5.5-.99.9-1.5 1.3-.47.4-.93.7-1.4.889-.45.2-.89.4-1.3.497-.43.1-.85.2-1.3.153a5.7 5.7 0 0 1-1.4-.163 3.7 3.7 0 0 1-1.1-.478c-.32-.21-.59-.468-.82-.774q-.345-.459-.57-1a6 6 0 0 1-.32-1.3q-.09-.688-.09-1.5c0-.548-1.2.13-1.9s.23-1.4.43-2.2c.21-.752.5-1.5.83-2.2.36-.72.8-1.4 1.3-1.9a6.2 6.2 0 0 1 1.9-1.4c.72-.35 1.6-.526 2.5-.526.4 0 .78 1.1.144s.73.2 1.1.449.7.460.765q.465.5.96 1.1l.32-1.7a.62.6 0 0 1 .34-.401c.17-.9.5-.135-.134.2 0 .42.57.16.28.1.37.1q.135.1.18.2c.3.1.3.1.1.2l-1.7 8.8q-.3 1.7.15 2.5c.3.5.88.8 1.7.793.5 0 .98-.131 1.4-.392.4-.261.8-.615 1.1-1.1.32-.446.6-.966.8-1.6.21-.593.4-1.2.52-1.9.14-.657.2-1.3.31-2q.09-1.09-2c0-1.1-.15-2.2-.44-3.2a6.5 6.5 0 0 0-1.5-2.6c-.72-.758-1.7-1.4-2.9-1.8s-2.7-.678-4.5-.678c-1.5 0-2.8.165-4.497q-1.7.497-3.1 1.3c-.88.6-1.6 1.2-2.3 2a12.8 12.8 0 0 0-1.6 2.4 15 15 0 0 0-1 2.6 21 21 0 0 0-.603 2.5 22 22 0 0 0-.273 2.3 30 30 0 0 0-.066 1.8q0 2.1.481 3.9a7.2 7.2 0 0 0 1.7 3c.79.9 1.9 1.5 3.2 2 1.3.471 3 .707 5.707.9 0 1.7-.054 2.5-.162s1.4-.224 1.9-.345c.55-.122-.235 1.3-.344s.57-.162.7-.162c.08 0 .14.2.1.5.1.1.13.2s.5.2.7.4c.1.1.2.3.2.5 0 .179-.1.3-.1.4-.1.1-.3.2-.5.3-.3.1-.6.2-.11.3a.8.8 0 0 1-.17.2c-.8.1-.3.2-.65.3-.36.1-.85.3-1.5.382-.6.1-1.3.236-2.1.325q-1.2.134-2.7.134c-2.4 0-4.3-.28-6-.841q-2.4-.841-4-2.4-1.5-1.6-2.2-3.8-.678-2.2-.678-4.9 0-.995.1-2.3t.395-2.8q.292-1.5.82-3a17.3 17.3 0 0 1 1.4-3 15.2 15.2 0 0 1 2-2.7c.8-.861 1.7-1.6 2.8-2.3 1.1-.643 2.3-1.1 3.7-1.5 1.4-.369 3-.554 4.8-.554"/></g></svg>