<svg viewBox="0 0 2813 2063" xmlns="http://www.w3.org/2000/svg"><g transform="translate(-512 -146)"><path fill-rule="evenodd" d="m2309 146 3.2 1.8 8.2 21.7 3.6 4.6 9.9.363 12.8-5.7 22-13.5 22.4-3.9 24.5 5.7 47.6 19.6 89.6 30.9.71 8.2-3.2 5-5 3.9-4.3 5.7-.35 10.3 9.9 21 2.5 11-23.8 66.8 2.1 18.5 10.7 17.4 5 4.6 51.2 46.2 14.9 20.3 1.1 2.1-.35 2.8-3.6 4.6-1.1 3.2-1.8 11-1.8 4.6-8.5 13.2-1.4 4.3 1.4 3.9 4.6 6.8 2.1 2.5 2.1 1.8 2.1 1.8 1.4 3.2-.36 2.5-3.2 5.7.36 3.2 3.2 3.9 4.6 2.1 3.6 3.2.71 6.4 2.8 6.4 6 3.9 6 3.2 3.9 4.3v3.2l-3.2 6.4.36 3.9 2.1 2.5 7.5 5 2.8 3.2 2.8 6.8 3.2 3.9 1.1 2.1 5.7 5 11.7 7.8 3.9 4.6 3.9 4.3 6.8 2.5 2.5 3.6-2.1 6.8-3.5 7.5-1.4 5.7 5 8.9 9.3 3.2 47.3-1.4 3.5.719 1.1 2.5v6.8l-1.4 1.4.36 2.5 4.3 3.9 7.1 3.2 6.358 13.5-1.1 16.4 5 19.2 11.4 14.6 15.3 1.8 16.4 6.8 11 11.7 8.5 38.8 17.8 6.4 2.1 14.9 1.8 6 1.8 5.3 3.6 6.8 7.8-9.6 3.9-6.8-3.6-6-5-6.4-2.1-1.8 2.1-1.8 3.9-3.6 12.4-2.5.704-7.8-3.2-19.2-4.6-28.4-11.4-7.5-1.4-4.6 14.6.36 88.2v6.4l1.1 7.1 3.2 5.7 10.3 5.7 25.3 2.1 10.7 5.3 68.3 57.2 81.8 69 10 5.7 11.7 3.2 81.8 7.1 6-.71 6-4.3 4.3-6 3.9-7.1 6-8.9 2.1-5 1.8-1.8 2.9-.35 2.5 1.1 2.9.36 3.9-2.5 6-6.8 3.2-1.8 34.5 2.8 14.6 3.9 9.2 11 1.8 7.1 1.4 1.8 3.9 3.9 3.5 3.2 6.8 3.9 3.2 3.9 2.1 5 1.4 4.6 2.5 21.7 1.8 4.6 2.9 5.7 2.1 2.9 4.6 5 1.4 2.9v1.4l-1.4 3.9v1.8l.71 7.8-2.5 3.9-5 1.4-21.3 1.8-1.8-.36-3.9-1.8-1.1-.36-2.1 1.1-2.5 3.6-1.8 1.4-20.3 4.3-5.3 4.6-1.1 10.3 6.8 12.8 13.4 18.7 81.5 114.3 18.8 15.7-3.2 1.8-9.6 33.4-5.3 9.6-13.5 15.3-3.9 10.3v10.3l-1.1 3.2-5 5-19.2 10.7-26 21.3-48.4 49.4-9.6 5-12.8-1.1-14.9-6-9.3-4.3-4.3-.71-3.5 2.5-6-1.8-6.8 1.1-13.9 5.7-6.8.71-16-1.1-5.3 1.8-6.8 3.2-16.4 3.6-6 3.2-7.1 2.1-7.5-13.9-6.36.4-2.1 1.1-5.3.71-2.5-33.4-2.5-7.1-1.4-5.7-3.2-2.1 5-3.5 2.1-4.6 1.4-4.6 3.6-2.8 4.3-.34 3.2 3.2 7.5-5.7 3.6-7.8 3.5-7.5 4.6-2.9 7.1 2.1 6 3.2 5.71 4.6-6 5.3-2.5-2.9-2.5-1.1-2.5 1.1-2.5 2.9-2.1-3.9-4.3-4.6-3.9-2.1-1.8 4.6.71 2.8 3.6 3.2.7 3.5-.7 2.9-4.3 8.5-11.7-5.7-6-1.8h-6.4l-3.2.72-1.8 1.1-2.1.72h-2.9l.36-1.8-2.8-4.3-3.2-2.5-3.9 5.7-3.6 3.5-1.8 4.3 6.8 11 1.4 12.4 1.8 6.4-3.6-1.4-7.1-3.5h-3.9l-1.4 2.1-2.5 6.4-2.1 1.4-11.7 2.9-1.8.7.4 5.3 1.1-.35 2.5-2.1 3.2.7.4 1.8-.36 4.3v1.8l1.1.71 3.5 1.4h.71l.72 4.3v4.3l.35 3.9 2.5 3.9 3.9 4.3-.36 5.7-1.1 1.8-2.9-2.5-2.5-3.5-.72-1.8-3.9-1.4-11-1.1-1.1.35-3.9 1.8-2.5.35-.36-1.1-2.1-3.6-1.1-.7-1.8-.71-1.8-1.8-2.5-1.8-7.8-1.1-1.4-.71-1.8.71-2.1 3.2-2.1 4.3-3.2 4.6-1.1 1.1-.36 3.5v3.9l1.4 3.5 2.9 1.1 1.8 2.1.35 4.3-.72 4.3-1.4 1.8h-6.4l-5-.71-10.7-6-80.3 1.8-22.4 4.3-44.4 15.7 4.3-15.3-5.7-1.4 1.4-1.8.36-1.4.36-1.4.34-1.4v-1.4l-.7-.71-.72-.36-39.5-8.2-174.2-35.9-18.5-3.9-48-10-1.1 5.7 1.4 3.6.72 3.2-2.9 5.3-4.3 4.6-18.1 12.8-6.4-7.5-6.7-5.7h-6.8l-6.8 8.9-1.8 5.3-.72 8.2-1.8 3.9-4.3 3.2-9.2 4.6-3.5 4.3-.71.7-1.1 1.1-1.4.36-1.1.35-13.9-.35-7.5.7-5 2.1-3.2 6-2.9 8.9-3.6 8.2-6 3.9-17.1-16.7 1.1-2.5 2.5-2.9 1.4-2.8-1.8-2.5-3.5-.35-2.5.71-1.4-.36-.71-3.9h-2.1l-40.9-.71-1.8-2.9-1.8-.7-2.1.7-2.1 2.9-7.5 1.1-8.2 8.9-6.72 2.1-5-3.5.35-1.8-1.1-2.5-5-2.8-2.1-2.9-.36-49-3.9-10 1.4-3.2 5.7-88.2-1.1-8.9-1.4-11.7-4.6-8.2-3.2-44.8-1.4-6 1.8-2.9 6.4-3.9 2.5-401.7 3.9h-7.8l-.35-3.6-30.6-.71.4 2.1-.71 2.5 2.1 7.1 3.9 6.4 2.1 6.8-2.1 8.5-4.6 5-5.7 4.6-5 5.3-2.5 7.8-3.9 16.7-6 9.6-1.4 8.5-1.8 3.2-3.9 3.9-1.1 2.1 1.1 3.9.35 1.4h.35l1.8.35 1.4.71 1.1 1.8v2.1l-.71 1.8-1.1 1.4-2.1 5.7-4.6 8.9-1.1 3.6 1.4 6.8 10.7 19.2.71 3.6.71 7.8 1.1 3.5 1.4 2.1 5 4.6 1.1 1.8 1.1 7.1 2.9 4.6 12.4 11 4.3 2.1 6 1.1 8.5.35 1.4 1.4-1.4 3.6-3.6 3.2-3.9 1.8-4.6.35-3.2 1.1-2.9 2.5-2.5 3.2-2.5 5.3-1.8 7.5v7.5l2.8 6 3.2 1.4 3.5.36 3.2.71 1.1 2.5 1.1 3.9 2.1 1.1h3.2l3.5 1.1 3.6 2.1 2.1 1.1 1.1 2.1.35 4.6-1.1 5-2.8 3.2-7.1 5.7-4.6 7.5v7.1l3.6 16.4v30.9l1.8 7.5 8.2 12.1 2.1 6.8-.35 9.2-3.2 16.4 1.4 9.2 8.5 13.9 1.1 3.6-2.5 3.5-12.1 13.9-6 12.1-1.4 7.8 2.5 7.5 2.9 3.2 2.1.35 1.8-.35 3.2 1.8 1.8 2.8.35 3.2 1.1 3.6 3.9 2.8-4.3 3.9-3.2 5.3-1.8 6-.71 5.7.71 6 1.8 3.6 12.8 11.7 12.8 16.4-11 10.7-8.5 18.9-6.8 5.7-8.5-.71-8.2-6-35.5-48-17.4-34.8-6.4-16.7-4.6-8.5-5.3-5.7-6.8-1.4-12.4 3.5-6.4-.35-6-5.3-3.5-8.2-4.6-17.8-7.1-8.5-8.2-2.1h-7.8l-6.4-3.6-1.4-7.5.7-8.5v-7.1l-4.3-2.5-5.7 3.9-12.1 17.4-4.6 5-8.5.71-3.6-4.6-.71-7.5.35-7.1-1.8-2.5-3.6 1.4-4.3 2.5-3.2 1.1-3.9-1.8-6-6-4.6-1.8-55.8-4.6-21.3 2.9-6-1.1-3.9-2.9-2.1-2.8-2.8-2.8-4.6-1.4-1.4.71-3.2 4.3-1.8 1.1-2.1-.35-5-2.9-2.5-.35-17.4 2.1-5 1.8-3.6 2.5-5.7 6-3.2 2.1-6.8 2.1-23.4.71h-.71l-6.8 2.1-13.2 8.5-7.8 2.1-5.3 2.8-1.4 5.7-2.1 5.3h-11.4l-3.2 1.1-5.3 2.5-.36 1.1v1.8l-.71 1.8-2.1.71-2.1-.71-3.9-2.1-20.3-6-6.71-6.4 5-10.3 14.6-6.4 3.6-13.5 1.8-6 2.1-4.6 4.3 1.4.35 4.3 1.4-10.7 11.4-2.1 3.2v3.2l1.1 8.9-1.1 4.3-4.6 9.2-2.1 2.9-9.6-4.3-5.7-1.4-1.1 5.7.355 6-1.4 3.2-5-2.1-2.1-3.9-3.2-12.1-3.2-5.3-8.5-2.1-12.8.72-11.4-1.1-5-7.5.711-6.8 3.6-9.2.719-6.4-1.1-1.8-2.1-1.1-2.5-.71h-6.7l-1.1.71-.347 1.4-1.1 2.5-1.8 5v5l-1.4 3.6-5 1.8-4.3-1.8-5-7.5-4.3-3.6-4.6 5-3.9 2.1-4.6.71h-5l.349.7-1.4 2.1-2.1 2.5-3.2 2.1-2.8 1.1v-1.8l-1.8-1.8-5-2.1-1.8-1.4-.711-2.8-.712-3.9-1.1-2.1-4.3-3.9-2.1-2.5-1.1-2.1-1.8-1.1-3.6-.71-3.6.71-1.4 1.1.712 1.8 2.1 1.8-5.7 1.1-4.6-7.8-4.6 1.4-1.1-2.9-.704-1.4-3.2-2.9v-2.9l3.6.36 2.8-.36 5.7-2.1-3.2-6-1.8-8.2-2.8-5.7-6.8 2.5-2.5-7.5-5-4.6-7.1-2.1-8.2-.71-3.2-.71-1.1-1.8-1.8-1.8-3.9-.71-2.8 1.8-1.8 3.2-2.1 2.5-2.8-1.4-10.7-9.6-.362-4.3 5-14.9-.356-2.1-3.9-8.5-4.3-5.3-1.4-3.6 7.5-.35 1.4-5-2.5-6.4-3.9-5.7-4.3-2.8-4.6-2.1-3.9-3.6-1.8-6.4-3.6 2.9-4.3 1.8-3.9-.35-2.8-4.3 5-2.5-2.5-.71-2.1-.72-2.1-.7h-3.2l3.2-3.2 8.5-2.8-.705-2.8-8.9-6-2.1-3.6 2.1-6.8-9.2.36v-3.9l3.2-6.4-1.1-7.5-1.1 2.5-1.8 2.1-1.8 1.8-2.5 1.1-4.6-.35-.35-1.8 1.4-2.1 1.1-1.8v-19.9l-2.8-5.7-5.7-3.5-6-.7-2.5 5-3.2.36-17.4-10.3-5.7 1.4-16.4-2.5-6-.36-2.8 1.8-1.8 2.5-2.1 2.1-4.3 1.1-3.9.35-1.8-.35-1.8-1.1-1.8-.72-1.4 1.1-1.1 2.1-1.8 1.1-7.1-.36-6-1.4-5-2.5-3.9-3.2-1.1-2.5-1.1-3.2-1.4-2.8-2.1-1.4h-3.6l-2.5-.35-5-1.8-.356-6.4-4.3-9.2-6.4-8.2-6-3.6 1.8-5.3 2.8-18.5 1.4-2.9 8.5-13.2 4.6-19.2-1.1-3.2-2.5-2.5.35-5.7 2.5-5.7 3.6-3.5-5.7-2.1-.362-2.8-1.8-6v-3.2l3.2-19.6 1.8-5.3 2.5-2.5 2.8-1.4 2.5-1.8.349-3.6v-3.2l5-21-1.4-4.3-4.3-7.8-6.4-25.2-5-10-7.8 1.8 2.1-9.3-3.6-18.8-.711-3.2 1.1-5.7 5.3-3.6 35.2-4.6 6-1.8 6-2.5 8.5-5.3 3.6-5 2.1-14.9 3.6-8.5 11-11 4.3-7.8.718-5.7-2.1-38 1.4-6.4 5.3-4.6 7.8-3.9 2.8-3.2-.356-4.6-1.8-8.2v-30.2l-3.6-12.8-12.4-9.9-3.9-.71-3.9.36-3.2-.72-2.5-3.9v-4.3l1.8-3.9 2.8-3.5 1.8-3.9 3.2-14.2.705-7.8-.356-6.4-2.8-7.1-4.3-5-5.3-3.6-7.1-3.2-3.6-1.1-3.2-.36-6 1.4-1.4-1.4-9.2-5.3-2.1-1.1-2.1-3.9v-1.8l2.1-.72 5-.71 1.4.36 4.6 3.2 2.1.71 1.8-.36 2.5-2.8 1.4-.71 12.1-2.1 1.4-.7 1.4-1.4 1.8-1.1h2.1l2.5 1.1 1.8 1.4 2.1 1.1 2.5-.36 2.5-2.1 7.1-10 13.9-11.4 9.2-10.7 5.7-4.6 10.7-3.2 11.7-7.1 5.3-2.5 5.7-.36 13.9.36 6.4-.71 4.3.35 3.6-1.1 3.6-2.1 3.2-2.5 7.8-3.2 7.5.71 7.8 1.8h7.1l15.3-5.3h7.5l7.1 6 6-2.1 10-1.8 5.3-2.8 2.5-3.9 2.5-4.3 2.5-4.6 3.9-3.2 3.6-1.1 7.5 1.1 3.6-.36 7.1-3.5.356-.72 1.4-3.9.712-5.7 3.6-7.1 12.8-7.1 10.7-.71 3.6-3.9-8.9-17.1 17.1-14.2h-.001l2.4-2 5.8-4.9h.002l5.9-4.9 1.4-1.4.35-2.5-.704-3.9 1.4-5.7v-2.9l.705-2.5 3.9-2.5 5.3-.35 3.6 2.8 2.8 3.9 3.2 2.8 10.3-2.1-3.2-15.3-12.8-30.9 2.8-8.9 6-7.1 6.7-6.8 5-6.8 2.5-5-.365-1.4-1.8-1.1-3.2-5-7.5-16.7-6-6-15.3-11.7-3.2-6 2.1-18.9 1.4-1.1 2.1.71 3.9-.71 10.3-3.9 11.7-2.8 12.1-1.1 10.3 2.1 10.3 6.4 4.6 1.4 7.5-1.1 6.7-2.5 4.3-2.9.354-.354 3.6-4.3 7.5-23.5.712-4.6-4.6-16.4 1.1-20.6-2.8-10-6.4-8.5-10.7-8.5-4.3-6.4-9.6-20.6-10.3-9.6-2.1-3.2v-4.6l1.8-3.2 2.5-2.8 4.3-12.1 6-2.5 22.8 1.1 4.3-1.1 2.5-3.2-1.1-3.2-7.5-4.3-2.5-3.6 1.8-5.3 5.3-6.4 6.4-5.7 5.3-3.9 3.6-.351 3.2.705h3.6l3.6-2.1 6.7-7.8 5.7-8.5 6-14.9 3.5-6.8 6-5.3 2.9-1.4 9.6-2.5 3.2-2.1 5.3-6 4.3-1.8 3.9-1.1 5.3-3.6 4.6-4.3 2.1-3.2-2.9-2.1-4.6-.347-2.1-1.4 5-5.7 1.1-1.1 1.4-.351 1.1.351 1.4 1.1 2.1 2.8 1.8 7.5 1.1 2.1 3.2 1.1 8.5 1.8 1.8 1.1v3.9l-2.5 1.4-3.5.354-2.5 1.1-7.5 6.8-2.8 1.8-4.6 4.3 4.6 3.6 8.2 2.1 7.1.354 7.1-.712 5.7 1.1 12.1 5 14.6 3.9 6.8 2.8 26.3 21 16.4 10 28.8 22.8 2.9.719 4.6-.719 2.1.719 5.7 6 3.2 2.1 2.5.365 7.8-.365 15.3 2.5 4.3.712 4.3-1.1 3.5-6-.34-6.4-4.3-12.4 1.4-10.3 7.8-3.2 58.3-3.6 5-3.2-12.8-90.3 5.3-13.5 1.8-8.5 1.8-20.3-2.5-8.5-7.5-5.7 7.1-7.1 9.6 3.6 16 11.7 9.6 1.1 7.8-1.4 7.5-.357 8.9 5.3 6.4 6 1.8 3.2 1.1 5.3 2.5 5.7 3.9-1.4 6.4-6.8 3.9-2.1 2.8-.712 8.9.712 2.9 1.1 2.5 1.8 2.5 1.1 2.5-.361 12.4-5 12.4-4.6-10-34.1-1.8-19.6 5.7-13.9 6.4-10.3 13.9-46.9-.72-.718-.35-.705-1.1-.712-2.1.354 9.2-15.3 52.6-29.2 6-6.8 20.3-22.4 7.8-6.7 28.8-16.4 19.6-5 27 6 83.2 39.5 11.4 2.5 5.3-.718 7.1-3.2 17.4-7.8 2.8-2.5 1.4-3.9 6.4-88.9 2.8-9.6 10.7-5 17.1-.704 29.1 2.5 25.3-1.4 24.9-4.6 123-79.3 15.3-7.5 67.9-16.4 13.5-5.7 12.4-7.8.36-.349 73.2-64.4 19.2-18.8 10.3-7.8 12.1-3.2Z"/></g></svg>