<svg xmlns="http://www.w3.org/2000/svg" version="1.0" viewBox="0 0 873 964"><path d="M516.6 2.2c-.8 1.3-2.2 4.8-3 7.9-2.1 8.4-4.1 11.5-9 14.4-4.4 2.6-54.5 19.8-81.6 28-14.4 4.3-31.4 8.7-54.5 14-12.5 2.8-25 6.7-29.7 9.1-8.9 4.6-14.8 14-14.7 23.4 0 5.9 1.7 12.1 3.5 12.7.6.2 3-2.6 5.3-6.1C343 90 356 83.8 381.5 82.5c38.7-1.9 70.8-6.9 91.5-14.2 6.4-2.2 27.2-2.1 30.7.3 2.5 1.6 2.6 1.9 2 8.9-.4 3.9-.9 7.9-1.3 8.8-.3.9-5.4 3.1-12.7 5.5-40 13-62.7 25.7-82.7 46.5-23.5 24.5-36 58.4-34.7 94.2.7 21.2 5.4 35.5 16.8 52.1 5.6 8.1 8.7 10.8 11.1 9.9.8-.3 4.1-3.7 7.2-7.5 9-10.8 27.2-27.8 37.6-35.2 15.6-11 37.8-20.7 48.5-21.1l5-.2.9 16c.6 10.8.5 19.5-.2 27-1.4 13.7-2.6 17.8-5.5 19.3-1.2.7-10.1 2.5-19.7 4.2-24.7 4.1-30.9 5.5-44.5 10.1-57.3 19.1-94.2 57.1-110.5 113.6-11 38.2-11.3 89.9-.9 143.3 5.4 27.8 19.2 73.8 28 93.3 7.1 16 16.3 29.7 19.8 29.7 1 0 4.9-2.5 8.7-5.5 22.3-17.8 48.9-32.6 73.4-40.8 12.4-4.2 31.1-8.7 35.9-8.7 2.1 0 2.1.1 1.5 50.2-.6 61.8-2.3 86.6-6.2 90.5-1.3 1.2-3.3 1.4-11.6.8-14.7-1.1-26.5-3.8-33.8-7.7-3.5-1.9-44.1-26.1-90.3-53.9s-85.1-51-86.5-51.6-58.5-34.2-127-74.8C43.1 532.9 7.1 512.1 6.1 512.7.9 516-.6 528.3 3.3 535.3c2 3.6 23.8 24 103.2 96.6 41.1 37.6 43.7 41.1 47.5 62.6 2.9 17.1 6.1 26.9 14.5 44 11.9 24.4 15.2 37.3 20 78 4.6 39.1 6.1 48.7 10 62 5.2 18.3 12 30.8 22.9 42.2 11.2 11.9 24.1 19.6 40.7 24.2 12.1 3.3 80.6 12.6 114.9 15.6 61.6 5.2 125.8 4.3 182-2.5 83.6-10.3 160.1-32.1 235.7-67.2 33-15.3 35.9-18.5 44.7-48.6 12.3-42 22.4-94.3 23.3-121.2.5-14.3.3-16-1.7-21.3-1.4-3.7-4-7.7-7.2-11-5.9-6.2-6-2 1.3-46.6 2.7-16.8 7.4-45.7 10.4-64.1s5.8-35.5 6.3-38.1c1.6-8.6-.1-8.9-10.7-2-8.9 5.7-96.2 60.1-96.6 60.1-.1 0-.2-7.8-.1-17.3 0-9.4-.5-24.5-1.2-33.4-1.3-16.6-.4-36 1.8-41.9 1.1-2.7 1.1-2.7 8.8-2 4.2.3 16 1.5 26.2 2.5 14.8 1.6 18.8 1.7 19.8.7s.6-3.1-2.4-11.2c-9.4-26-15.3-46.1-17.5-60.4-.7-4.7-1-14-.6-25 .4-15.1.9-19.1 3.5-29 4.7-18.3 15.2-41.9 27.8-62.9 4.2-6.9 4.4-9.8.7-11.2-11.1-4.2-30.9-4.9-53.3-2-7.4 1-14 1.6-14.7 1.4-2.3-.8-2.8-11.4-2.5-50.3.3-41.5-.5-54.2-4.6-66.4-1.6-4.8-1.9-5.1-5.4-5.4-4.4-.4-3.9-1.9-7.7 21.2-1.7 9.9-3.4 18.3-3.8 18.7s-5.7-2.6-11.8-6.7c-19.7-13.5-30.9-18-42.3-17.1-13.5 1.1-20.8 10.6-23.6 31-.7 5.3 1.3 5.7 6.6 1.4 6.3-5 8.7-6 14.8-6.1 7.2 0 13 3 37.3 19.1 15.8 10.4 19.1 13.1 20.4 16.1 1.3 3.2 1.3 5.3-.6 21.1-1.2 9.7-2.1 19.4-2.1 21.6 0 5.2-1.8 11.5-3.8 13.8-.9 1-5.8 4.3-10.8 7.2-23.3 13.7-48.2 36.4-62.8 57-33.1 46.8-44.2 110.5-28.5 163.6 1 3.7 2.6 7.2 3.3 7.9 1.2.9 5.7-1.7 23.8-13.7 22.2-14.8 39.1-24 51.8-28.1 8.5-2.8 20.1-5.4 20.8-4.8.6.6-1.4 68.6-2.8 95l-.9 17-5.5 5.5c-6.5 6.6-10.2 14.1-11.6 23.6-.5 3.9-1 22.4-1 41.1 0 26.1-.3 34.4-1.2 35.2-3.1 2.5-58.9 18.8-94.3 27.6-24 5.9-66.1 15.2-73.7 16.2-5.8.8-5.5 1.7-6.3-19.6-.3-8.5-1.5-37.3-2.6-63.8-1.1-26.6-1.8-49-1.5-49.8.7-1.9 3.3-1.8 13.2.6 22.7 5.5 46.6 16.8 92.8 44 25.8 15.2 31.1 18 32.2 16.8 1.1-1.1.7-2.5-2.4-8.6-2-4-7.3-12.7-11.6-19.5-23-35.3-45.5-90.1-53.6-130.7-12.5-62.2-.1-122 34.6-167.1 14.3-18.6 24.9-28.5 50.9-48.2 8.8-6.6 16.3-12.5 16.7-13.1 1.1-1.6 1-3-.6-5.1-1.2-1.7-7.6-2.3-84.1-7.1-63.9-4-83-5.5-84.1-6.5-1.1-1.2-1.4-7.3-1.4-32.3-.1-17 .3-31.3.7-31.7.5-.5 3.5-.1 6.8.7 16.5 4.3 47.8 11.3 48.6 10.8 1.6-1 .9-3.2-2.6-8.6-10-15-19.1-36.8-22.1-52.5-2-10.5-1.4-28.4 1.1-37.8 3.7-13.7 15.6-33.5 26.4-44 5.1-4.9 5.2-6.8.4-8.8-9.2-3.6-14.2-4-36.4-3.4-19 .6-22 .5-23.3-.9-1.2-1.2-1.6-3.8-1.6-11.2 0-15.3-1.9-37.9-4-47.7-2.3-11-6.2-22.7-7.8-23.3-.6-.2-1.8.7-2.6 2"/></svg>