<svg xmlns="http://www.w3.org/2000/svg" version="1.0" viewBox="0 0 396 337"><path d="M186.3 1.9c-4.6.4-8.7 1.1-9.3 1.7-1.5 1.5-2.4 14.4-1.2 17.5 1 2.5 1.4 2.6 11.4 3.2 13 .7 19.5 2.3 20.3 4.9 1 2.9-.5 9.7-3.4 16.3-3.6 7.8-9.2 12.8-26 23-21.4 13-25.4 18.3-28.6 37.9-1.6 10-2 27.2-.6 28 .4.3 2.5-2.2 4.6-5.5 4.5-7.3 16.6-19.5 24.8-24.9 6.1-4.1 19.6-9 24.8-9 1.8 0 3.2.6 3.6 1.7 1.1 2.8-1.6 15.4-4.6 21.9-5.9 12.6-11.9 16.7-35.5 24.4-26.8 8.6-34.1 12.5-40.1 21.5-6 9.1-6.9 12.9-6.9 30 0 10.6.5 17 1.7 21.7 6.1 24.6 24.2 49.1 44.8 60.7 3.1 1.7 5.9 3.1 6.2 3.1.4 0 .7-1.6.7-3.6 0-7.3 10.9-12.9 25-12.9h7.5v11.7c0 15.4-.2 15.7-14.7 17.1-14.2 1.3-28.5-.2-37.1-4.1-7.5-3.5-12.4-8.7-17.1-18.7-1.8-3.9-4.1-7.6-4.9-8.4-.9-.7-6.7-1.9-12.9-2.7-13.7-1.8-17.5-3.5-20.6-9.1-2.6-4.7-3.9-14-2.3-16.3.9-1.3 1.6-1.3 5.7.3 2.6.9 4.9 1.5 5.1 1.3s-1.4-4.8-3.5-10.2c-9.1-22.9-11.6-35.7-9.3-48.5 2.2-13.1 8.2-24.2 20.6-38.1 3.5-4 6.3-7.4 6.1-7.5-.3-.4-6.4 1.5-19.1 6.1-7.7 2.7-10.1 3.2-10.7 2.2-.4-.7-1.2-5.3-1.8-10.2-1.3-11.3-3.8-23.1-5.6-26.7-1.6-3-4.3-3.5-9-1.7-1.5.6-6.2 1.5-10.3 2.1-12 1.5-13.7 2.6-8.1 4.9 3.1 1.3 3.1 1.7 1.3 6.6-.6 1.6 11.2 3.8 18.9 3.6 9-.3 10 1.2 10 13.7 0 4.9-.3 9.4-.6 10-.4.6-8.9 5.2-18.9 10.3-15.7 8-19 10.1-24.3 15.4-13.1 13.3-14.7 29.9-4.9 49.9 5 10.3 16.4 24.7 20.3 25.7.7.2 2.5-1.9 4-4.6 4-7.4 6.9-9 16-9.4 10-.5 11.5.8 12 10.9.5 8.4-.2 11.5-2.6 12.2-1.1.2-7-.4-13.3-1.3-6.3-1-15.4-2.1-20.3-2.5l-9-.8L24.1 233C12.8 225.5 2.8 219 2 218.6c-2.5-1.2 18.5 18.8 33 31.6 7.4 6.6 16.2 13.5 19.5 15.5 7.4 4.4 12.9 9.5 16.1 14.9 1.3 2.2 4.9 11 7.9 19.5C87 323.9 91.6 329 106.1 331c25.4 3.3 79.1 5.3 128.9 4.7 38.6-.4 44.9-.7 55.5-2.6 15.6-2.8 23.3-5.4 28.2-9.6 5-4.3 13.4-16.5 24.7-36 11.3-19.4 14.4-24 17.5-25.8 1.4-.8 9.5-3.1 18-5.1s15.9-4 16.4-4.5c.6-.6-2.4-4.6-7.5-10.3-12.2-13.6-18.4-21.7-25.4-33.5-13.7-22.7-20.4-47.7-20.4-76 0-11.4 1.6-25.3 3.2-26.8 1.2-1.2 7.7 5.8 14.8 16.2 7.6 10.8 6.9 13.4-5.1 20.2-9 5-9.4 6.6-.9 3.5 16.8-6 20.5-8.4 21.6-13.8.8-4.4-1.3-9.7-9-23-7.3-12.5-9.3-14.6-14.3-14.6-3.9 0-5.2-2-4.6-7.2.3-2.1.3-3.8 0-3.8s-6.3 7.1-13.3 15.7c-19.2 23.7-30.7 37.3-31.5 37.3-.4 0-1.1-1.7-1.6-3.8l-1-3.7-1.7 6c-5.5 19.2-12.7 38-26.6 69.5-11.1 25.1-16.1 35-17.5 35-2.6 0-8.7-7.8-13-16.5-5.7-11.4-7.7-21.7-7.7-38.5.1-28.3 8.2-46.1 29.8-65.3 6.3-5.5 11.4-10.1 11.4-10.2 0-.6-9.8 2-32.9 8.6-13.4 3.9-25.3 6.9-26.4 6.7-3-.4-4-5.4-3.5-17.1.3-7.2.8-10.1 1.8-10.7 4.8-3.1 19-2 41.4 3.1 7 1.6 13.2 2.9 13.7 2.9s-1.7-3.7-4.8-8.2c-9-13.4-11.4-19.9-13.9-39-2-15.3-.4-14.6-20.4-8.8-15.4 4.4-17.5 4.7-18.4 2.4-.3-.9-.6-11.9-.6-24.5V1l-8.2.2c-4.6 0-12 .4-16.5.7m155.5 228.2c16.6 1.8 29.3 5.7 41.5 12.7 6.2 3.7 8.5 6.4 6.4 7.9-1.4 1.2-21.9 5.3-26 5.3-2.7 0-2.8-.1-2.6-5 .2-2.7 0-5.3-.4-5.6-.3-.3-11.5 1.5-24.9 4.1-43.3 8.3-40.9 7.9-41.9 6.4-.5-.8-.9-5.3-.9-10.2V237l3.2-2c7.8-4.7 27.7-6.9 45.6-4.9m-53.4 11.6c.7 3.1-.8 12.2-2.4 15.3-.6 1-2.6 3.1-4.6 4.6-3.2 2.5-3.7 2.6-6 1.3-1.5-.7-4.8-3.8-7.5-6.7-6.2-6.8-5.7-7.9 5.4-13.3 9.9-4.8 14.3-5.1 15.1-1.2M250 266.1c18.1 2.6 20.5 3.2 20.5 4.9 0 1-3.9 2.7-12.3 5.2-9.6 2.9-13.6 4.6-17.8 7.8-7.5 5.6-11.2 7-19 7h-6.7l.7-4.6c.3-2.6.6-8.9.6-14.2v-9.5l10.3.7c5.6.4 16.3 1.6 23.7 2.7"/></svg>