<svg xmlns="http://www.w3.org/2000/svg" version="1.0" viewBox="0 0 551 628"><path d="M203 3.2c0 1.9.5 3.9 1.1 4.5s1.3 6 1.6 12l.5 11-2.9 2.9c-14 13.9-41.2 38.5-50.3 45.4-2.5 1.9-5 3.9-5.6 4.5-.6.5-5.3 3.5-10.3 6.5-24.7 14.7-30.9 19.7-39.6 32.1-9.9 14.1-15.3 17.6-33.5 21.4-18.8 4.1-22 4.9-30.5 8.2-9.8 3.9-20.7 10.8-27 17.3-3.6 3.6-3.9 4.6-4.3 10.2-.7 10.6 1.2 20 5.7 29.2 4 8 6.2 14.7 7.6 23.3.4 2.4 1.1 4.6 1.7 4.9.5.3 2.3-.7 3.9-2.4 4.6-4.7 16.5-14.2 17.8-14.2.6 0 1.1-.3 1.1-.8 0-1 11.1-6.6 17.5-8.7 3.1-1.1 10.5-2 19.5-2.5 18.3-1.1 33.6-3.7 41-7.1 7.3-3.4 9.9-5 20.2-12.7 6.2-4.6 12.9-9.3 14.8-10.6 4.6-3 18.4-10 23.8-12 17.9-6.7 46.1-10.1 65-7.8 5.7.7 5.9.9 12.7 14.2.7 1.4 2.5 5 4.1 8s4.1 8 5.7 11c1.5 3 3.3 6.4 4 7.4 4.3 7 7.5 12.3 8.1 13.6.4.8 1.2 2.4 1.9 3.5 7.2 12 9.2 15 9.9 15.3.4.2.8.8.8 1.3 0 .8 15.8 25.6 21.1 33.1 1 1.5 1.9 3 1.9 3.4 0 .3.9 1.7 2 3.2l2.1 2.6-4.5 4.5c-3.7 3.9-8.6 12.5-11.6 20.6-3.8 10.3-15.7 30.1-20.1 33.5-1.4 1.1-8.9 12.4-8.9 13.4 0 .6-1.7 3.1-3.8 5.5-2.7 3.1-4.3 4.3-5.5 3.8-2.4-.9-3.2-5.3-1.7-9.7 1.7-5.2.7-9-2.4-9-1.3 0-4.4-1.1-6.7-2.5-8.7-4.9-18.9-2.6-25.3 5.8-5 6.5-2.6 19.7 4.8 26.6 3.1 2.9 3.3 6.1.6 8.6-1.7 1.5-3.5 1.8-10.3 1.7-8.5-.2-13.7.9-15.7 3.3-.6.8-2.3 8.1-3.6 16.2-5 30.9-4.9 30.7-16.5 36-2.8 1.3-9.1 6.6-15.9 13.1l-11.3 11 .6 4.3c.5 3.4.2 5-1.3 6.9-1.9 2.5-1.9 2.5.5 6.6l2.4 4.1-4.3 5.7c-2.3 3.1-5.4 8-6.9 10.9-6.5 12.5-12 21-16.2 25.2-1.8 1.8-8.3 6.5-9 6.5-2.6 0-15.5 10.3-22.9 18.2-4.8 5.2-12.1 12.1-16.1 15.2s-9.1 7.7-11.4 10.1c-2.2 2.4-7 6.3-10.6 8.7-4 2.6-6.8 5.2-7.2 6.6-.5 2.2 1.9 6.7 7.4 13.6 2.7 3.2 6.3 10.8 6.3 13 0 .8-.9 2-2.1 2.6-1.1.7-3.2 2.1-4.6 3.3-1.3 1.2-5.2 2.9-8.6 3.7-5.1 1.2-6.3 1.9-6.5 3.7l-.3 2.3H549v-2.4c0-4.6-2.9-9.5-6.8-11.5-4.1-2.1-10.4-8.4-17.7-17.6-5.6-7-8.5-9.1-14-9.9-4.2-.7-5-.2-22.1 12.4-2.7 2-5.8 3.2-9 3.6-2.7.3-6.2 1-7.9 1.4-1.6.5-6.5 1.1-10.7 1.4-8.9.7-9.6 0-5.5-5.7 1.6-2.1 3-6.4 4.1-12.2.9-5 2.1-10.4 2.6-12 .5-1.7 2.1-8 3.6-14 1.5-6.2 3.7-12.7 5.1-14.9 2.2-3.3 2.4-4.6 1.9-9-.4-2.8-.7-5.6-.7-6.1-.3-2.9 5.1-14.8 9.2-20.6 5.6-8 6.3-9.2 8.3-15 2.1-5.9 2-8.7-.4-13.7-2.6-5.4-2.5-5.9.9-5.9 1.7 0 4.4-1.3 7-3.3l4.2-3.4 4.5 2.4c3.8 2 4.7 2.1 5.5.9.5-.8.9-1.9.9-2.6 0-.6.4-1.3.8-1.5.5-.2 2.3-2.3 4-4.7 2.2-3 3.2-5.5 3.2-8-.1-8.1-5.3-16.4-12.6-20-6.5-3.4-10.1-2.8-21.9 3.7-1.1.6-2.8 1.3-3.8 1.6-.9.3-2.2 1.7-2.7 3.1-1.2 3.3-2.2 3.2-6-.6-3.5-3.6-5.3-6.8-7.6-13.6-2.1-6.3-6.7-13.1-11.5-16.8-2.1-1.7-4.9-3.8-6.1-4.9-7.3-6.1-28.1-18.4-34.6-20.5-7.3-2.5-15.7-7.3-17.5-10.2-1.9-3 0-6.6 4.8-8.9 4.9-2.4 5.7-3.9 2.5-4.7-1.2-.3-3-2.4-4.2-4.7-2.7-5.4-7.2-9.4-12.2-10.7-3.9-1.1-12.8-.7-18.8.7-2.7.6-2.8.5-2.8-3.2-.1-8-3.4-17.1-11.8-31.8-2.7-4.8-3.1-6.5-2.3-7.8 1.6-2.5 1.4-5.5-.4-6.2-.8-.3-1.5-1.2-1.5-2.1 0-.8-.3-1.5-.7-1.5-.5 0-1.5-1.3-2.4-2.9s-2.9-3.1-4.5-3.5-3.5-1.3-4.2-1.9c-1.1-.9-8.2-14.9-8.2-16.2 0-.4-3.8-8.8-9.1-20.3-1.6-3.4-2.9-6.4-2.9-6.6 0-.3-1.6-4-3.6-8.3-6.7-14.6-8.2-17.8-11.9-26.3-3.5-7.8-5.3-11.9-11.4-25.2-1.1-2.6-2.1-4.9-2.1-5.2s-1.5-3.9-3.4-7.8c-1.9-4-4.1-8.9-4.9-10.8-1.8-4.1-5.7-12.7-10.3-22.8-1.9-4.1-3.4-7.5-3.4-7.7s-1.5-3.6-3.4-7.7c-5.7-12.4-8.8-19.4-13.6-30.3-1-2.2-3-6.7-4.5-10s-3.5-7.9-4.6-10.3c-1-2.3-2.8-6.1-3.8-8.5-1.1-2.3-2.9-6.5-4.1-9.2-1.2-2.8-2.7-6.4-3.5-8-.7-1.7-2.5-5.7-4-9-3.7-8.3-5.9-13-9.1-20-1.7-3.6-3.1-8.4-3.4-12l-.5-6-4.2-.3c-4.3-.3-4.3-.3-4.3 3M219.5 45c1 2.5 3.4 7.8 5.2 11.8 1.8 4.1 3.3 7.5 3.3 7.7s1.3 3.2 2.9 6.7C236.2 82.7 243 98 243 98.4c0 .3 1.5 3.7 3.4 7.8 6.5 14.2 8.6 18.9 11.2 25.1 3.5 8.3 5.9 13.8 9.9 22.2 1.8 3.8 5.6 12.4 8.4 19 5.4 12.5 5.7 13.2 11.5 25.7 2 4.2 3.6 7.9 3.6 8.2s1.8 4.4 4.1 9.3c2.2 4.8 4.4 9.7 4.9 10.8 1.4 3.2 6 13.7 7.7 17.5 3 6.9 6.6 14.5 7.9 17.2 1.6 3 1.8 4.8.5 4.8-1 0-20.7-31.3-32.6-52-11.7-20-26.8-50.3-29.7-59.5-.5-1.7-1.3-3.9-1.8-5-.4-1.1-1.5-3.8-2.3-6-6.4-16.5-11.1-28.5-12.2-31-.7-1.7-3.2-8-5.5-14-2.3-6.1-4.6-11.9-5-13-3.9-9.2-12-39.9-12-45.1 0-2.4.2-2.6 1.3-1.4.7.8 2.2 3.5 3.2 6m235.2 458.4c1.6 1.5.6 11.6-1.2 11.6-.6 0-4-2.2-7.4-5-3.3-2.7-6.9-5.3-7.8-5.8-.8-.5-1.3-1.3-1-1.8.8-1.3 15.9-.5 17.4 1m-255.4 2.5c1.7 1.7-13.8 30.4-19 35.2-1.5 1.5-5.9 4.8-9.8 7.4-8.4 5.8-14.2 11.1-19.8 18.5-11.7 15.5-18.9 21.9-31.6 28.6-4.3 2.3-7.1 4.3-7.1 5.3 0 .9 1.4 3.3 3.1 5.4s2.8 4.1 2.4 4.5c-.6.6-6.2 1.8-17.7 3.8-4 .7-11.8-.9-15.5-3.3-2.7-1.6-5.3-7.3-5.3-11.5 0-4.6 2.1-11.9 3.7-12.5.7-.3 3.7.6 6.5 2.1 5.8 3 5 3.4 14.2-6.4 13.4-14.5 30.6-31 39.1-37.5 10.9-8.4 9.8-7.6 31.4-26.5 16.7-14.5 17.6-15.2 20.9-14.6 2 .3 4 1 4.5 1.5m109.3 10.7c4.9 2.6 11 6 13.7 7.5 2.6 1.6 5 2.9 5.4 2.9 1.3 0 7.3 5.2 7.3 6.4 0 1.6-4.1 5.4-10.3 9.5-2.6 1.8-6.2 5.2-8 7.5-5.6 7.7-6.3 7.7-12.4 1.2-4.8-5.1-5.1-5.8-4.1-8.1.8-1.9.8-3.8 0-7.7-.6-2.9-1.4-8.8-1.7-13.1s-.8-8.4-1.2-9.2c-.9-2.5 2-1.7 11.3 3.1m91.3 10.3c11.7 4.2 14.1 5.5 14.1 7.5 0 2.3-11.6 13.4-16.6 15.9-2.8 1.4-8.2 3.6-12 4.8-7.3 2.3-14.4 6.3-14.4 7.9 0 .6 1.2 2.8 2.6 5l2.6 3.9-3.2 3.9c-1.8 2.4-4.6 4.4-7 5.2-2.1.7-6.2 3-9.1 5.2-2.8 2.2-7 4.6-9.2 5.4-4.4 1.5-19.7 1.9-19.7.5 0-.5 1.7-3.2 3.8-6 3.7-4.8 7.3-8.7 37-39.4 12.1-12.5 15.2-17 15.2-22.3 0-3.2.2-3.2 15.9 2.5m48.6 35.1c.7 2.1.5 12.3-.2 15.3-.9 3.7-7.3 4.5-7.3.8 0-.9-.9-4-2-6.9-2.7-7.1-2.6-7.7 1.8-9.5 5.1-2.1 7-2 7.7.3m-16 13.2c1.4 4.6 3.2 9.6 4 11.3.7 1.6 2 5.2 3 8 .9 2.7 2.1 6 2.7 7.2 2 4.2-.1 4.4-7 .7-3.7-2-8-4.8-9.7-6.2-3.5-2.9-10.8-6.2-13.8-6.2-2.3 0-10.4-8.4-10.7-11.1-.4-2.8 0-3.9 1.5-3.9 2.3 0 17.6-4.9 20.5-6.5 5.3-3 6.5-2.2 9.5 6.7"/></svg>