<svg xmlns="http://www.w3.org/2000/svg" version="1" viewBox="0 0 522 152"><path d="M260 2.1c-22.1 2.5-43.5 9.4-51 16.4-2.4 2.3-2.8 2.3-14 1.5-16.1-1.2-46.9-1.2-63.5 0C72.6 24.4 27.2 37.8 8.6 56.5c-8 8-8.8 11-8.4 30.6.3 15.7.4 16.6 3 21 19.6 33.3 122.1 52.2 218.8 40.3 24.9-3.1 53.3-10 69.6-17l8.1-3.4 12.9 3.5c16.4 4.5 43.2 9.7 64.9 12.6 23.1 3.1 71.9 3.4 88.8.6 25.4-4.3 42.9-12.4 48.4-22.5 1.1-2 3.3-10 4.8-17.7 2.4-12.3 2.6-14.6 1.5-19.2-8-36-102-75-200.5-83.3C306.4.8 270.8.9 260 2.1m79.5 6.8c62 8.4 117.7 26.4 151.4 48.9 15.6 10.3 26.1 23 26.1 31.4-.3 36.7-114.1 42.2-216.5 10.5-56-17.4-95.9-43.4-95.9-62.6.1-8.6 5.3-15 16.9-20.6 9.5-4.6 19.3-7 41-9.9 1.7-.2 16.3-.3 32.5-.1 22.7.3 32.9.8 44.5 2.4M199.7 25.6c1.8.5 2 1 1.3 2.8-.4 1.2-2 8.3-3.4 15.8-2.3 11.5-2.5 14.3-1.6 18.4 3.3 14.9 21 30.6 50.2 44.7 7 3.4 12.8 6.5 12.8 6.8 0 .4-6.2 1.9-13.7 3.3-57.8 11-126.5 9.7-178-3.4C19.6 101.8-2.9 83.3 8.1 65.3 13 57.4 27.4 48 44.5 41.5c20.8-7.8 55-14.2 88.5-16.5 13.1-.9 62.9-.5 66.7.6"/></svg>