<svg xmlns="http://www.w3.org/2000/svg" version="1" viewBox="0 0 196 146"><path d="M8.1 13c-.1 1.4-.8 10.1-1.6 19.5C5.7 41.8 5 53.4 5 58.1c0 7.9-.2 8.8-2.2 10.1-2.3 1.5-2.3 1.6-.5 5.2 1 2.3 1.7 6 1.7 10 0 5.5-.3 6.6-2.3 7.9l-2.2 1.4L1.9 97c2.4 4.3 2.4 4.3 1.7 26.6L2.8 146H192v-22.8c.1-18.4.3-23.1 1.5-24.6 2.2-2.9 1.9-6.7-.5-7.3-1.8-.5-2-1.4-2-7.2.1-4.2.6-7.3 1.5-8.5 1.9-2.5 1.9-5.3.1-6.3-.9-.6-1.5-4.5-2-13.8-.9-18.4-3.2-41.3-3.8-39.5-.7 1.9-2.8 36.2-2.8 45.6 0 5.5-.4 7.3-1.5 7.8-1.7.6-2 4.2-.5 5.1.6.3 1 4.2 1 8.6 0 6.2-.3 8.1-1.5 8.5-1.9.8-1.9 3.3.1 5.9 1.2 1.6 1.5 4.9 1.3 16.2 0 7.9-.3 14.3-.6 14.3s-2.3-.5-4.3-1.1c-5.3-1.6-10.3-.4-13.9 3.3-2.8 2.9-3.3 3-5.5 1.9-1.3-.7-3.9-1.6-5.7-2-3.2-.6-3.4-.9-3.7-5.4-.2-3.1.2-5.5 1.2-6.9 2-2.8 2-5.4.1-6.2-1.9-.7-2-7.5-.3-12.3 1-2.8 1-3.6-.1-4.3-1.1-.6-1.3-2.7-.8-8.9.3-4.5.1-8.4-.4-8.7s-.9-3.6-.9-7.3c0-11.6-1.3-28.2-2.1-27.4-.4.4-1.1 8-1.4 16.8-.4 8.8-1.1 17-1.7 18.2-.8 1.6-.8 3-.1 4.6 1.3 2.7.5 11.9-1.1 12.9-.7.5-.7 1.7.2 4.1 1.7 4.8 1.6 11.6-.3 12.3-1.9.8-1.9 3.3 0 5.8.9 1.2 1.5 4.2 1.5 7.8 0 5.5-.1 5.8-2.5 5.8-1.3 0-3.6-.5-5-1.2-2.1-.9-2.5-1.8-2.5-5.5 0-2.4.5-5.3 1.1-6.4.7-1.3.7-2.4.1-3.2-.6-.7-1-5.5-.9-10.7 0-5.2-.3-14.5-.8-20.5-.7-9.2-1-10.4-1.6-7.3-.8 3.6-1.9 22.7-1.9 33.3 0 5.1-2 9.2-3.9 8-.6-.3-1.1-1.4-1.1-2.4 0-2.1-2.7-4.8-5.5-5.3-1.5-.2-2.1-1.2-2.3-4-.4-4.7-2.3-6.4-5.2-4.8-2 1.1-2.6.8-5.1-2.3-1.6-2-4.6-4.6-6.7-5.8-2-1.2-4.7-3.1-5.9-4.2-1.4-1.2-2.3-1.5-2.3-.8 0 .6-1.9 2-4.3 3-2.3 1-5.9 3.7-8 6-2.3 2.6-4.6 4.1-6.1 4.1-2.9 0-4.3 1.6-4.8 5.5-.2 2.4-.8 3.1-3.1 3.3-1.6.2-3.4 1.4-4.3 2.8-.9 1.3-2.3 2.4-3 2.4-.8 0-1.4.8-1.4 1.7 0 1.3-.4 1-1.4-.9-.9-1.7-1.5-6.3-1.6-12.5-.2-17-1.1-28.4-2.1-27.8-.5.4-.9 4.4-.9 9s-.4 8.6-.9 8.9c-.5.4-.5 2.3 0 4.8.6 2.6.6 4.5 0 5.1-.5.5-.7 3.2-.4 5.8.3 2.9.1 5.4-.5 6.2-.7.8-.7 1.8-.2 2.7.6.8 1 3.7 1 6.3 0 4.7-.1 4.8-2.7 4.5-2.7-.3-2.8-.6-3.1-6.5-.2-4.1.2-7.2 1.2-9.1 1.4-2.7 1.4-3.1-.4-4.7-2.4-2.2-2.7-8.3-.5-12.4 1.3-2.6 1.3-3 0-4.1-1.9-1.5-2-11.2-.3-14 1-1.5 1-2.2 0-3.2-.7-.7-1.2-4.1-1.3-8.2 0-3.9-.6-13.4-1.2-21.1l-1.2-14L38.2 48c-.7 9.1-1.2 18.5-1.2 21.1 0 2.5-.5 5-1.2 5.7-.9.9-.9 1.8 0 3.7 1.9 4 1.5 12.2-.5 13.4-1.6.8-1.6 1.2.1 5 2.1 4.4 1.7 9.3-1 12.2-1.4 1.6-1.4 2 0 4.8 1 1.9 1.6 5.6 1.6 10.1v7h-5.4c-3.8 0-6 .6-7.9 2-1.4 1.1-4 2-6.1 2h-3.5l-.3-17.3c-.3-15.4-.1-17.6 1.6-21.1l2-3.9-2.2-1.5c-1.9-1.3-2.2-2.3-2.2-8.6 0-4.8.5-7.9 1.5-9.2 1.8-2.4 1.8-2.9.1-4.6-.9-1-1.5-5.3-1.9-13.8-.5-12.3-2.5-38.6-3.1-42.5-.2-1.5-.4-1.4-.5.5"/></svg>