<svg xmlns="http://www.w3.org/2000/svg" version="1" viewBox="0 0 148 146"><path d="M65.2 4C36.8 7.9 12.6 30 6.4 57.6 3.9 68.9 4.8 85.9 8.5 95.8c8.1 22.1 24 37.5 46.5 44.9 7.4 2.4 25.4 2.9 34.4.9 47.9-10.7 70.9-66.5 43.8-106.3C117.7 12.5 91.5.5 65.2 4m21.3 17.5c14.9 3.8 28.5 14.3 35.2 27.1 20.4 38.7-11.6 83.6-55.1 77.3-32.7-4.8-53.5-39.4-42.2-70.4 9.2-25.4 36.8-40.5 62.1-34"/><path d="M62.4 36c-7.1 2.3-14.2 8.1-18 14.6-7.8 13.3-7.1 34.2 1.5 46.7 11.6 17 40.3 19.3 53.8 4.4 4-4.5 8.9-14.5 7.7-15.6-.5-.5-3.8-1.6-7.4-2.5-3.6-1-7.2-1.9-8.2-2.2-1.2-.4-2 .5-2.8 3.3C86.3 92.8 81.3 97 74.5 97c-4.7 0-9.9-2.5-12-5.6-4.8-7.4-5.7-24.7-1.7-33.7 3.7-8.4 12.2-11.6 20.6-7.8 4 1.7 5 2.8 6.9 7 1.2 2.8 2.7 4.9 3.3 4.7.5-.2 4.5-1 8.7-1.6 8.7-1.4 8.6-1.2 4.1-10.1-2.7-5.5-8.1-10.4-14.3-13.2-6.7-3-19.7-3.3-27.7-.7"/></svg>