<svg xmlns="http://www.w3.org/2000/svg" version="1" viewBox="0 0 474 246"><path d="M215.2 2.9c-2.9 1-8.3 3.9-12 6.4-5.9 4.1-21.9 16.9-23.2 18.6-1 1.3-9.7 6.9-21.5 13.9-8.5 5-13.8 9-18.3 13.6-5.1 5.3-7.1 6.7-10.3 7.2-3.3.6-3.9 1-3.9 3 0 1.7.7 2.5 2.4 3 4.2 1 9.5-1.6 16.4-8 3.7-3.4 12-9.5 18.4-13.5C177 38.7 181.8 35 196.1 22c17.3-15.7 26.6-20.7 26.3-14-.1 1.4.4 2.8 1 3.2 2.5 1.7 11.2.7 17.1-1.9 3.3-1.4 7.3-2.6 8.9-2.7 2.4-.1 3 .4 4 3.4 1 3.1 1.6 3.6 5.3 4.1 5.8.7 10.4 4.2 17.9 13.6 7.6 9.6 11.5 13 24.2 20.7 5.2 3.2 10.8 7.7 12.9 10.2 2.1 2.4 4.5 4.4 5.4 4.4 1.7 0 4.2 2.5 5.2 5.2.3 1 1.9 2 3.4 2.4s3.7 1.4 4.8 2.3c1.1 1 3.8 2.6 5.9 3.7 6.8 3.4 14.1 10.9 17.7 18.2 3.9 7.6 4.4 8.2 8 8.2 6.5 0 11.5 3.7 21.7 16.1 7.4 9 10.4 11.2 23.2 17.2 9.2 4.3 15.8 9.5 19.7 15.3 1.9 2.9 1.3 3.7-4 5.4-2 .6-4.5 2.3-5.5 3.6-4.9 7.1-6.4 8.4-9.6 8.4-2.3 0-4.3.9-6.5 3.1l-3.3 3.1-10.3-.7-10.4-.7-4.3 4.7c-11.1 12.2-10.5 11.7-14 11-2.9-.6-3.5-.3-5 2.3-1 1.7-1.8 3.7-1.8 4.6 0 2.4-3.7 3.8-10.1 3.9-4.3 0-6.4-.5-7.9-1.8s-2.9-1.6-5.9-1.1c-3.6.5-4.4.2-7.8-2.9-2.1-1.9-4.3-3.5-5-3.5s-2.8 1.4-4.6 3c-1.9 1.7-4.6 3-6 3-2.8 0-3.7.9-5.2 5.5-.5 1.6-2.2 3.6-3.7 4.4-3.5 2-7.6.2-8.4-3.7-.4-2.1-1.4-3-4.2-3.9-2-.6-4.1-.8-4.7-.4-.5.5-2.9 1.1-5.3 1.5-6 .9-11.8-1.1-14.8-5-3.4-4.4-5-4.8-9.5-2.4-3.5 1.7-4.8 1.9-12.2 1.1-4.5-.4-9.9-1.6-12-2.4-2.1-.9-5-1.4-6.5-1.1-2.2.4-3 0-4.5-2.7-1.6-2.9-2-3.1-5.5-2.4-2 .5-6.2.9-9.2.9-7.3.2-8.3 1-7.7 5.7.7 5.2-1.6 5.2-6.6.3-3.5-3.6-3.7-3.6-6.1-2-4 2.6-7.5 2-11.2-1.9-3.5-3.8-6.4-4.4-8.5-1.9-.7.9-2.2 2-3.3 2.4-2.2.8-8.8-.4-12.4-2.2-2.4-1.2-2.8-1-4.7 2.7-.3.6-.7.5-1.1-.3-1.1-2.5-5.5-3.4-8-1.7-4.2 2.7-12.1 1.6-13-1.9-.5-2-1.2-2.2-7.2-2.2-3.8-.1-7.8-.7-9.1-1.3-1.8-1-3-1-6.2.3-5.2 2.1-5.8 2-6.9-.9-1.3-3.4-3.4-4.1-8.7-2.7-4.5 1.2-6 .8-11.5-3.1-1.2-.8-2.2-.9-3.2-.2-6 4.4-6.4 4.6-10.6 3.9-2.4-.4-5.1-1.5-6.2-2.6-1-1-2.2-1.8-2.6-1.8s-1.2-1.5-1.7-3.3c-.8-2.4-1.6-3.3-3.7-3.5-2.1-.3-3 .3-4.3 2.7-.8 1.7-2.7 3.4-4.1 3.7-3.6.9-10.8-.2-15.1-2.4-3.6-1.9-3.6-2-1.5-3.1 2.5-1.3 2.9-3.6.8-4.4s-5 1.7-4.3 3.6c.5 1.4.3 1.5-1.3.4-1.4-.8-2-2.3-2-4.9 0-3.4.3-3.8 2.4-3.8 1.4 0 3.6.4 5 1 3.6 1.3 5.3.4 6.6-3.6 1.7-5 5.3-6.4 18.3-7.3 6.2-.4 12.2-1.3 13.4-1.9 3.3-1.8 4.6-7.1 3.4-13.8-1.7-9.1-1.4-12.1 1.2-13.9 1.6-1 3.5-1.3 5.5-.9 2.9.6 3.2.4 3.2-1.9 0-2.6 3.2-5.7 5.9-5.7.8 0 2.5 1 3.7 2.1 3.1 2.9 10.5 3.7 13.8 1.5 2.2-1.4 10.6-16.8 10.6-19.4 0-1.8 6-9.2 7.5-9.2 2.3 0 4.5-5.4 4.5-10.8 0-9.1 2.6-13.2 8.4-13.2 1.4 0 2.6-.5 2.6-1 0-.6-2.2-1-4.9-1-4.3 0-5.2.4-7.9 3.5-1.7 1.9-3.4 5.1-3.7 7.2-1.5 9.1-1.6 9.3-5.4 11.2-4.4 2.3-5.6 3.6-6.5 7.4-.4 1.5-2.4 6.6-4.6 11.3-4.4 9.5-5.7 10.1-13 6.4-6-3.1-9.4-2.7-12.7 1.5-1.5 2-4.6 4.4-6.8 5.4-7.1 3.2-7.9 4.9-8.5 16.9l-.5 10.7-9.5.8c-10.5.8-17.5 2.8-21.6 5.9-2.1 1.7-3 1.9-4.5 1-3.4-2.2-8.5-1.5-10.8 1.4-3.8 4.8-4 15.8-.3 17.1.9.3 4.9 2.5 8.7 4.9 8.2 5 14.4 6.8 20.2 6 2.5-.3 4.3-.2 4.3.4 0 1.4 5.5 4 8.7 4 1.5 0 3.7.7 4.7 1.5 2.4 1.8 6.1 1.9 10.5.4 2.9-1 3.5-.9 5.7 1.2 2.1 2 3.7 2.4 9.2 2.5 3.7.1 8.4.9 10.4 1.8 4.7 2 9.8 2 14.5.1 5.1-2.2 7.8-1.9 9.7 1 2.5 3.8 9.1 6.8 14 6.2 2.9-.3 5.6.3 9.1 1.9 4.3 2 5.7 2.2 8.7 1.4 2-.6 4.1-1.7 4.8-2.5.9-1 2.4-1.3 5.5-.8 2.9.4 5.3 0 7.4-1 2.8-1.4 3.4-1.4 6.2 0 2.1 1 4.4 1.3 7.3.9 4.1-.6 4.2-.6 5.5 2.9 2.9 8.2 16.1 8.8 19.1.9.6-1.4 1.5-2.6 2.2-2.8s2.8-.8 4.7-1.4c4-1.3 10.2 0 13.6 2.8 5.3 4.6 12.6 5.8 20.5 3.5 10.7-3.2 10.8-3.1 14.5 1.2 5.6 6.6 13.1 7.8 22.9 3.8 3.3-1.3 6-2.3 6.1-2.2 3 6.2 8.3 9.7 14.7 9.7s9.4-1.6 11.7-6.3c1.2-2.4 3.2-4.6 4.8-5.2 2.5-1.1 3.2-.9 6.2 1.8 2.9 2.5 4 2.8 7.2 2.3 2.9-.5 4.9 0 8.5 1.9 6.3 3.4 14.7 3.5 19.5.2 2.9-2 7.2-7.1 8.1-9.7.2-.5 1.7-1.2 3.5-1.6l3.2-.6-1.1 3c-.9 2.4-.9 3.4.1 4.6 1.6 1.9 6 2.1 6.5.3 1.7-5.4 1.6-6.9-.4-7.4-2.4-.6-2.4-.6-.2-6.6 2.9-7.6 3.7-8.1 16.1-8.7 9.9-.5 11.1-.8 14.5-3.4 2.1-1.5 5.9-3.6 8.6-4.5 5.9-2.1 8.3-4.1 11.3-9.3 1.1-2.2 3.6-4.8 5.4-5.9 4.2-2.6 5.1-5.9 2.7-10.2-3.1-5.6-10.6-11.4-21.5-16.8-13.4-6.6-15.4-8.1-24.3-19.2-9.7-12.2-12.5-14.6-18.8-16.7-4.8-1.6-5.6-2.3-7.8-6.8-4-8-8.4-12.6-17.6-18.8-4.7-3.1-9.1-6.8-9.7-8.1-.9-2.1-2.4-2.8-5.4-2.4-.7.1-1.9-1.2-2.8-2.9-.8-1.6-2.3-3-3.3-3s-4.1-2.1-7-4.6-8.7-6.9-13-9.6c-4.8-3.2-12.7-10.1-20.9-18.4-11.2-11.4-13.9-13.6-17.7-14.6-3.7-1-4.6-1.6-4.6-3.5 0-1.2-1-2.9-2.2-3.7-3.7-2.6-9.6-2-17.8 1.9-8.4 4.1-11.3 4.2-11.9.5-.6-4.5-3.5-5-11.9-2.1m159.5 200.7c.8 2-1.3 4.2-2.7 2.8-1.2-1.2-.3-4.4 1.1-4.4.5 0 1.2.7 1.6 1.6"/><path d="M236.6 16.7c-1.1 1.1-.6 2.3.9 2.3.8 0 1.5-.4 1.5-.9 0-1.3-1.6-2.2-2.4-1.4m16.6 4.5c.2 1.2 1.1 2.4 2.1 2.6 1.4.3 1.8-.1 1.5-2-.2-1.2-1.1-2.4-2.1-2.6-1.4-.3-1.8.1-1.5 2M269 32c0 .5.5 1 1.1 1 .5 0 .7-.5.4-1-.3-.6-.8-1-1.1-1-.2 0-.4.4-.4 1m-2.8 8.1c.1 1.3.8 2.3 1.3 2.1 1.5-.3 1.2-3.5-.3-4-.9-.3-1.3.3-1 1.9M254 43.5c0 .8.5 1.5 1 1.5.6 0 1-.7 1-1.5s-.4-1.5-1-1.5c-.5 0-1 .7-1 1.5m16.4 4c-.4.9-.2 2.1.4 2.7 1.5 1.5 4.4.1 4-1.9-.4-2.3-3.6-2.9-4.4-.8m-2.1 11.2c-1.8.6-1.6 3 .2 3.7.9.3 1.8-.1 2.2-1 .7-1.8-.7-3.3-2.4-2.7M383 129.6c0 .8.5 1.2 1 .9.6-.4.8-1.1.5-1.6-.9-1.4-1.5-1.1-1.5.7m-315.4 4.1c-1.1 1.1-.6 2.3.9 2.3.8 0 1.5-.4 1.5-.9 0-1.3-1.6-2.2-2.4-1.4m307.9 4.3c-.8 1.2 2 2.4 3.5 1.5.5-.3 1-1 1-1.6 0-1.2-3.7-1.2-4.5.1m22.1.5c.4.8 1 1.5 1.5 1.5s.9-.7.9-1.5-.7-1.5-1.5-1.5c-.9 0-1.2.6-.9 1.5m6.4.5c0 .5.5 1 1 1 .6 0 1-.5 1-1 0-.6-.4-1-1-1-.5 0-1 .4-1 1m-16 2.1c0 .5.5.7 1 .4.6-.3 1-.8 1-1.1 0-.2-.4-.4-1-.4-.5 0-1 .5-1 1.1m8.6 1.6c-1.1 1.1-.6 2.3.9 2.3.8 0 1.5-.4 1.5-.9 0-1.3-1.6-2.2-2.4-1.4M64 145.5c-1.5 1.8-.5 3.5 2.1 3.5 2.4 0 3.7-2.9 1.8-4.1s-2.5-1.1-3.9.6m346.6.4c-.7 1.1 1.8 3.3 2.7 2.4.4-.3.7-1.2.7-2 0-1.5-2.6-1.8-3.4-.4m-35.9.7c-1.4 1.5-.6 3.4 1.4 3.4 1.4 0 1.9-.5 1.7-1.7-.3-1.8-2-2.7-3.1-1.7m70.9 3c-.3.8-.1 2.4.5 3.5 1.4 2.6 5.3 2.2 5.6-.6.1-1.6.1-1.6-.3-.3-.7 2.3-4 2.3-4.8.2-.4-.9-.1-2.3.5-3 .7-.9.8-1.4.1-1.4-.5 0-1.3.7-1.6 1.6m-56 .1c-1.1 1.1-.6 2.3.9 2.3.8 0 1.5-.4 1.5-.9 0-1.3-1.6-2.2-2.4-1.4m18.1.9c-.8.8.1 2.4 1.4 2.4.5 0 .9-.7.9-1.5 0-1.5-1.2-2-2.3-.9M75.5 153c.3.5 1.4 1 2.3 1 1.5 0 1.5-.2.2-1-2-1.3-3.3-1.3-2.5 0m323.5 2c0 .5.5 1 1.1 1 .5 0 .7-.5.4-1-.3-.6-.8-1-1.1-1-.2 0-.4.4-.4 1m13 .1c0 .5.5.7 1 .4.6-.3 1-.8 1-1.1 0-.2-.4-.4-1-.4-.5 0-1 .5-1 1.1m-382.3.5c-.4.4-.7 1.6-.7 2.6 0 1.4.6 1.9 2.3 1.6 1.4-.2 2.2-1 2.2-2.3 0-2-2.5-3.2-3.8-1.9m27.8 2.4c-.3.5-.1 1 .4 1 .6 0 1.1-.5 1.1-1 0-.6-.2-1-.4-1-.3 0-.8.4-1.1 1m9.5 1.1c0 1.4.5 1.9 1.7 1.7 2.6-.5 2.9-3.8.4-3.8-1.5 0-2.1.6-2.1 2.1m322.5-.1c-.9 1.5.4 3 2.6 3 1.2 0 1.9-.7 1.9-2 0-2.1-3.3-2.9-4.5-1m13.2-.4c-1.5 1.5-.7 4.5 1.1 4.2.9-.2 1.7-1.2 1.7-2.2 0-2-1.6-3.1-2.8-2m-368 4.1c-1.2 1.1-.8 2.2 1.4 3.4 2.8 1.4 4.8-.3 2.9-2.6-1.3-1.6-3.2-2-4.3-.8m394 2.1c-1 1.1-1.4 2.7-1 4.2 1.2 5.3 7.1 6.8 9.9 2.5 2-3 1-6.3-2.3-7.6-3.5-1.3-4.8-1.1-6.6.9m5.3 4.2c0 .5-.5 1.2-1.2 1.6-1.2.8-4-2.4-3.2-3.8.6-1 4.4.9 4.4 2.2m-410.3-4.3c-1.2 1.1-.8 2.3.8 2.3.8 0 1.5-.7 1.5-1.5 0-1.6-1.2-2-2.3-.8m440.7.5c-.4.6.3 1.9 1.5 2.9 2.7 2.2 6.1 1 6.1-2.1 0-1.6-.7-2-3.4-2-1.9 0-3.8.5-4.2 1.2m4.3 1.4c-.3.3-1.2.4-1.9.1-.8-.3-.5-.6.6-.6 1.1-.1 1.7.2 1.3.5m-400 .8c-.7 1.8.1 2.6 2.5 2.6 1.1 0 1.8-.7 1.8-2 0-2.3-3.5-2.8-4.3-.6m291.3 2.8c0 1.9.2 2 1 .8 1.3-1.9 1.3-3 0-3-.5 0-1 1-1 2.2m4.2 8.9c.2.6.8 1 1.3 1s1.1-.4 1.3-1-.4-1.1-1.3-1.1-1.5.5-1.3 1.1M343 186c0 .5.5 1 1 1 .6 0 1-.5 1-1 0-.6-.4-1-1-1-.5 0-1 .4-1 1M93.5 202.5c-3.4 3.3-3.2 6.1.8 8.5 3.5 2.2 4.7 2.5 4.7 1.1 0-.5-1.1-1.2-2.4-1.5-2.5-.6-4.1-4.2-3-7 .3-.8 1.8-1.9 3.2-2.5 1.8-.6 2.1-1 .9-1-1-.1-2.9 1-4.2 2.4m7.9-.6c1.4 1.5 1.7 3 1.3 5.6-.7 4.1.9 4.8 1.9.9.9-3.6-.7-7.8-3.1-8.3-2-.3-2-.3-.1 1.8m64.4 3.2c-3.7 2.1-.8 10.9 3.5 10.9 3.8 0 6.3-8 3.5-10.8-1.5-1.5-4.7-1.5-7-.1m6.2 4.5c0 2.9-1.4 3.8-4 2.4-2.5-1.3-2.6-4.6-.3-5.9 2.3-1.2 4.3.4 4.3 3.5m134.8 19.5c-4.2 2.4.4 10.4 5.2 9.2 2.2-.6 6-4.9 6-6.8 0-1.4-4.3-3.5-6.8-3.4-1.3 0-1.2.3.6 1.1 1.2.6 2.2 1.5 2.2 2 0 1.1-3.8 4.8-4.9 4.8-1.6 0-2.3-3.8-1.1-6 1.2-2.3 1.2-2.3-1.2-.9m-52.9 7.6c-1.6 4.3-.8 6.8 2.4 7.1 3.6.4 5.7-1.3 5.7-4.8 0-1.9-.7-3-2.5-3.8-3.7-1.7-4.4-1.5-5.6 1.5m6.9 2.3c.4 2.4-1.2 4-4 4-1.4 0-1.8-.8-1.8-3.3 0-1.9.3-3.6.6-4 1.2-1.2 4.9 1.1 5.2 3.3"/></svg>