<svg viewBox="0 0 2141 1183" xmlns="http://www.w3.org/2000/svg"><g transform="translate(-1129 -646)"><path fill-rule="evenodd" d="M1812.3 1123.9c26.6 1.2 58.5 18.8 66.4 45.4-6.5 33.1 38.7 44.1 28.8 77.9 1.1 18.5-19.8 45.5-39.5 30.4-23.2-6.3-25.9 20.9-16 35.2 8.8 47.4-11.6 110 37 141.3 47.3 46.5 108.8 75.3 157.8 119 19.4 17.2 21.2 50.2 4.8 69.2-33.5-4.7-47.9-13.2-60.1-49-23-23.6-52.5-47.1-85.8-52.5 17.5 65.3 66 122.5 76.3 190.6-.392 23.4 12.1 63.3-23 60.7-41.7 11.5-68.3-40.6-40.5-69.3 17.6-37.9-21.3-72.3-39.8-102.6-29.7-43.9-70.1-78.6-106.5-116.2-4.1-36.8-19-77.4-56.2-92.2-22.5 15.6-69 43.2-49.9 75.9 27.8 52.7 67.7 110.5 49.6 173.1-6 44.4-16 112.1 39.7 128.3 10.7 3.2 36.9 14.7 11.3 23.9-64.5 30.2-139.1 11.8-112.2-68.2-2.7-49.8 8.5-115.7-34.4-151.7-40 37.3-80.7 77.2-113.6 121.8-17.8 28.1 10.7 55.8 23.9 78-48.9 28.1-107.9-52.7-95.4-93.5 25.5-37.8 58.1-69.8 86.6-104.7-18.9-63.5-84.7-129.6-34.1-198.2 53.4-83.8 125.7-161.2 218.7-200.6 31.2-27.5 62-69.4 106.3-71.8m609.6-258.3c56.2-5.2 54.6 51.4 61.2 87.1 18.2 61.3-45.2 52.3-81.5 51.2-18.7 36.1 13.3 82.3 2.4 120.8-36.4 59.5-10.9 110.5 11.9 170 13 33.4 21 116.1-28.9 111.6-7-8.3-31.6-19.1-14.3-29.8 39.5-30.6.71-74.7-17.2-104.7-26.6-42.7-38.4 84-38 62.2-10.7 54.2 41.7 91 55.8 139.5 34.9 78.5 9.3 166.3 28.2 248.3 18.3 45.2 79.5 52.8 102.7 91.1-30.6 17.3-101.8 8.7-135.4 4.7-8.7-43.2-12.7-89-33.9-129.4-27.1-56.4 4.3-125-34.7-177.9-9-25.6-33-44.4-33.8-3.6-6.8 64.1-60.8 100.6-96.3 149.1-27.1 28.5-49.9 80.6-13.1 111.4 43.1 24.2 33.4 90.1-18.3 43.2-14.2-26.3-53.3-25.4-64.7-50.3-1.2-28.6 25.6-52 29.5-80.3 11.6-40.9 11.1-88.2 45.5-118.7 35.3-32.1 41.1-80.1 36.4-125.1 2-45.4-23.4-87.3-15.4-133.3 10.8-64.4 38.4-125.8 39.1-192.4 6-47.1 14.5-103.2 59-130 39.7-31 62.1-80 109.6-102 13-8.5 28.4-13.1 43.9-12.9M2828.3 646c33.1-2.1 57.9 32 50.3 64.1 7.1 33.1.478 66-16.7 94.7-36.2 2.5-46 38.7-19.1 64.5 31 56.1 6.1 119.9 4.3 179.1 25.9 46.5 72.8 82.8 82.7 137.4-17.1 13.5-56.1 5.5-52-22.8-6.2-14.3-42.8-44-44.2-12.8-7.5 66.9-.7 134.5 25.7 197 23.8 72.2 34.1 148.7 24.8 224.2.278 50.9-3 102.2 1.9 152.8 19.1 29.9 61 13.9 90.3 13.7 20.4-8.8 16.4 36.5.801 37.4-37.5 10.7-103.2 55.2-135.2 23.9-.506-60.5-3.6-122.5-32.4-177.3-5.2-50.3 15.7-102.4-9.4-150.1-11.1-11.1-18.9-97.2-34.4-71.8-20.9 65.8-40.6 132.7-84.3 187.3-23.9 52-65.1 101.3-58.2 161.6 7.3 28.6 44.6 35.1 55.9 60.1-39.8 16.5-115.8 9-146.4-25.1 3.6-38.9 36.3-71.4 40.4-111.1 16-58.7 31.3-118.7 69-167.9 28.6-67.9 23.6-144.8 28.5-217.1-.748-65.7.097-131.1 18.3-195-22.8-44.7 3.2-96.8 1.3-144.7-1.2-51.5 15.2-101.2 44.1-143.4 21.3-48.1-9-124.4 49.9-149.6 14.2-5.2 28.7-9.4 44-9.1"/></g></svg>