<svg xmlns="http://www.w3.org/2000/svg" version="1" viewBox="0 0 309 262"><path d="M183.7 57.1c-8.7 28.8-16.7 55.5-17.8 59.3-1.4 4.8-2.4 6.5-2.9 5.5-.4-.8-4.7-12-9.5-24.9-7.7-21-10.5-27.5-10.5-24.5 0 3.4-6.2 58-6.6 58.5-.3.2-.9-.2-1.4-1s-9.6-14.3-20.2-30-25.1-37.2-32.3-47.7c-9.2-13.7-13.1-18.7-13.3-17.2-.2 1.1.8 28.3 2.3 60.4s2.5 59.5 2.3 60.9c-.3 2.2-3.4-.5-26.7-23-14.5-14-26.5-25.3-26.7-25.1-.3.2 7.2 23.1 16.5 50.8 9.4 27.7 16.9 50.5 16.7 50.7s-11.6-7.5-25.2-17.1c-13.7-9.6-25-17.4-25.2-17.2-.1.1 2.8 6.7 6.6 14.6 3.7 7.9 12.8 27.3 20.2 43.1L43.4 262h53.3l-1.8-11.8c-1-6.4-2-13.2-2.3-14.9-.3-1.8-.1-3.3.4-3.3s7.1 4.3 14.5 9.6c7.5 5.3 14 9.3 14.3 8.9.4-.4.9-13.9 1.2-30.1s.9-29.4 1.3-29.5c.5 0 7.8 9.3 16.4 20.6 8.5 11.4 15.6 20.5 15.9 20.2.2-.2 1.1-5.7 2-12.3.8-6.5 1.7-12 1.9-12.2s3.4 4.3 7 9.9c4.7 7.3 6.9 9.9 7.4 8.8.4-.7 1.9-5.1 3.2-9.6 1.3-4.6 2.7-8.3 3-8.3s1.6 7.1 2.8 15.7c2.8 20.2 3.2 22.3 4 22.3.4 0 9-7.4 19.2-16.4 12.9-11.6 18.5-16 18.7-14.8.1.9-1.5 11.9-3.6 24.5l-3.9 22.7 29.4-.2 29.4-.3 13.3-22.5c7.3-12.4 12.8-22.6 12.2-22.8-.6-.1-11.2 3.6-23.6 8.2s-22.6 8-22.8 7.5c-.2-.4 10.9-34 24.7-74.6S306 83.1 306 82.6s-11.7 10.6-26.1 24.5c-32.2 31.4-48.3 46.8-48.7 46.4-.1-.1.5-10.5 1.3-23 .9-12.5 1.4-23 1.1-23.2-.5-.5-2 1.2-18.4 20-6.4 7.3-11.4 12.3-11.6 11.5-.2-.7-1-27.6-1.6-59.8-.7-32.2-1.5-62.1-1.9-66.4l-.6-8z"/></svg>