<svg xmlns="http://www.w3.org/2000/svg" width="686.667" height="276" version="1.0" viewBox="0 0 515 207"><path d="M259.4 2c-1.7 1.7-136.9 65.2-138.9 65.2-1.1 0-26.8-7.7-57.1-17.1S7.8 33 7.3 33c-1 0-7 18.6-6.2 19.4.4.4 114.8 36 119.5 37.2 1.5.4 21.9-8.7 70.4-31.6 68-32 68.3-32.1 70.9-30.4 7.6 5 127.8 86.8 128.8 87.8 1 .9.1 3-4.3 9.5-3 4.5-5.4 8.4-5.2 8.6.6.6 68.2 9.5 68.6 9 .5-.5-32.9-60.5-33.7-60.5-.3.1-3 3.7-6 8.1s-5.9 7.8-6.5 7.6c-.6-.3-32.9-22.1-71.8-48.6C292.9 22.7 261 1 260.8 1s-.8.4-1.4 1"/></svg>