<svg xmlns="http://www.w3.org/2000/svg" version="1.0" viewBox="0 0 70 44"><path d="M37.5 3.5c-3.6 3.5-3.4 8.8.4 12.6 3.7 3.7 7.9 3.8 12 .3 2.5-2.1 3.1-3.3 3.1-6.5C53 4.4 49.6 1 44 1c-3 0-4.7.6-6.5 2.5m-34.3.8C.4 7.2.3 13 2.8 15.3c2.1 1.9 4.8 2.2 5.7.7s4.5-1.2 5.1.3c.6 1.7 6.4 1 6.4-.7 0-.7-.7-2.1-1.5-3.2-.8-1-1.5-2.8-1.5-4-.1-5.8-9.6-8.6-13.8-4.1m12.4 3.8c.9 1.5-1.1 3.3-3 2.6-.9-.4-1.3-1.3-1-2.2.7-1.7 3-2 4-.4M8.3 19.6c-1.7.7-1.7 4.9 0 6.1.6.5 4.6 1 8.7 1.1 7.5.2 19 1.2 19 1.6 0 .2-.6 1.6-1.4 3.2s-1.7 5.1-2 7.7l-.6 4.8 10.8-.3 10.7-.3.3-4.3c.3-4-2.1-13.6-3.8-15.5-.8-.9-1.4-1-12.5-2.6-9.2-1.3-27.7-2.2-29.2-1.5"/></svg>