<svg viewBox="0 0 29 33" xmlns="http://www.w3.org/2000/svg"><g transform="translate(-1228 -359)"><path fill-rule="evenodd" d="M1234 382.7c-.33-.26.7.2.7.6.47 1.1 1.3 1.8.182.1.367.3.41.4a.495.5 0 0 1-.66.7.65.7 0 0 1-.467.1c-.202-.046-.754-.452-1.3-.979-.14-.13-.285-.244-.322-.253-.162-.052-1.8.656-2.7 1.2-.878.5-1.5.953-1.7 1.2-.79.1-.95.2-.95.3.3.4.195.6.533.7 1.1.335 5.4.89 7.7 1.192.721 1.2.066 1.2.068 4.097 5.4.052 3.3-.101 6.3-.39 9.1-.865 1.4-.23 1.7-.328 1.8-.523.2-.309.2-.598-.043-.914-.427-.549-2.7-1.9-4-2.3l-.325-.104-.318.3c-1.4 1.3-3.1 2.1-5.8 2.5-.734.1-1.9.162-3.1.117-1.1-.04-1.3-.062-2.1-.218-1-.201-1.9-.429-2.2-.569a.66.7 0 0 1-.308-.38c-.053-.143-.348.1-.494.1-.15.4-.137 1.1.065 1.5.416 2.5.553 4.553 1.8 0 3.2-.205 4.5-.64 1.4-.462 2.5-1.2 3.1-1.9.152-.198.3-.448.3-.728.1-.227.1-1.07-1.1-.03-.072-.08-.046-.487.3a12 12 0 0 1-1.9 1.2c-1.6.78-2.9 1.1-4.7 1.3-.428-1.5.03-1.9-.003-1.5-.11-3.2-.562-4.5-1.2-.72-.364-1.1-.595-1.8-1.1-.526-.38-.586-.42-.613-.39m17.7-4.7c-.017 0-.17.1-.338.3-.63.5-1.2.865-2 1.3-1.3.615-2.5.995-4 1.2q-2.9.479-5.7.15c-3-.354-5.4-1.3-7.1-2.7-.285-.238-.364-.274-.328-.153.1.494.9 1.8 1.3 2.4.513.7 1.5 1.6 2.1 2 1.1.758 2.4 1.4 3.8 1.7 1.6.384 3.7.37 5.3-.036a12 12 0 0 0 2.2-.809c1.1-.536 1.7-.972 2.6-1.8.913-.894 1.3-1.4 1.9-2.5.348-.685.5-.975.4-.975m-1.5-2.4q.244-.146.5.025c.202.1.242.2.242.5 0 .198-.4.2-.156.4-.248.3-.665.6-1.3.927-.943.6-2.1 1-3.4 1.3-.35.1-.917.1-1.5.179-.579-.649.1-.903.3a1.5 1.5 0 0 1-.917.3q-.651-1.1-.403c-.212-.202-.268-.332-.268-.618 0-.338.1-.497.2-.682.3-.3.7-.442 1.2-.416.4.22.7.107 1.1.419l.133.1.563-.015c1-.033 2-.244 3.1-.69.5-.198 1.4-.666 1.7-.868-.32.2-.162.4-.286.2-.123.4-.253.4-.289m-11.9-3.4c.799-.004 2.2.02 2.3.05a.5.5 0 0 1 .364.4c.2.1.1.2-.53.3-.136.3-.192.3-.742.3l-.473-.23.2c-.2.2-.43.2-.146.3-.242.2-.609.2-.867-.003-.1-.091-.13-.147-.133-.231-.01-.264-.238-.493-.257-.503-.016-.556-.03-.698-.185-.126-.13-.163-.215-.163-.37q.002-.416.6-.488c.066-.9.3-.13.5-.014m6-.003c.89-.004 2.2.025 2.2.59.23.1.107.1.185.2.26.1.543-.15.7-.82.1-.155.1-.592.1l-.503-.36.2c-.53.2-.123.3-.288.4a.634.6 0 0 1-.904-.425c-.013-.062-.043-.124-.063-.137s-.179-.026-.354-.026c-.42 0-.513-.023-.646-.15a.51.5 0 0 1-.013-.74l.126-.13.4-.023c.154-.1.4-.15.7-.017m-3.2-4.4c.946-.062 2.3.013 3.3.182 2.2.358 3.9 1.1 5.2 2.3.741.7 1.3 1.8 1.3 2.6.4.5-.145.7-.509.7-.328 0-.45-.123-.526-.523-.173-.94-.414-1.4-1.1-2-1.2-1.1-3.1-1.9-5.5-2.1-.616-.065-2.3-.055-2.9.016-1.4.16-2.6.514-3.7 1-.798.4-1.3.744-1.8 1.3-.526.5-.711.9-.874 1.7-.53.3-.122.5-.155.5a.55.5 0 0 1-.636.1c-.215-.11-.347-.445-.294-.748-.71-.24.1-.373.2-1.3 1.3-2.4 2.9-3.3.202-.11.4-.199.4-.199a3 3 0 0 0 .225-.094c1.2-.53 2.8-.904 4.5-1m.777-6.8c-2.3.049-4.5.79-6.3 2.2a13.3 13.3 0 0 0-1.6 1.5 10.3 10.3 0 0 0-2 3.9c-.112.4-.162.8-.11.8a3 3 0 0 0 .286-.292c.496-.549 1.3-1.2 1.7-1.4.212-.94.5-.88.6.016s.219.3.192.5c-.26.2-.152.3-.566.6-.394.3-.903.8-1.2 1.2-.553.7-.967 1.6-1 2.2-.57.5-.047 2.5.013 2.8.73.4.357 1 .682 1.4.192.2.662.7.973.9.897.7 2.1 1.3 3.6 1.7 1.7.504 2.5.608 5.608 1.7 0 2-.017 2.7-.143 2.1-.352 4-1.1 5.3-2 1.1-.78 1.9-1.8 2-2.7.043-.394-1.9 0-2.4-.07-.822-.374-1.6-.963-2.3-.288-.377-1-1.1-1.5-1.4-1.5-1.1-3.3-1.8-5.6-2.1-1.1-.152-3.2-.156-4.2-.003-1.2.172-2.6.52-3.5.93-.642.3-.917.3-1.1.026-.053-.068-.07-.133-.07-.293 0-.185-.218.1-.325.3-.367 2.3-1 4-1.3.946-.166 1.4-.195 2.8-.182 1.7.02 2.2.068 3.4.312a14.5 14.5 0 0 1 3.2 1.1c1.1.527 1.9 1.1 2.8 1.9.308.3.576.5.596.5.063-.22-.253-.11-.783a10 10 0 0 0-3.1-5 10.2 10.2 0 0 0-6.2-2.6c-.285-.017-.6-.03-.699-.027m-.947-1c1.5-.17 3.2.049 4.8.605 1.5.5 2.9 1.4 4.1 2.5 1.9 1.8 3 4 3.3 6.5.11.8.122 5.8.016 6.8a9 9 0 0 1-.32 1.6c-.332 1.1-.785 2-1.5 3l-.308.4-.2.3c-.14.2-.24.8-.027 1.4l-.003 1.1.324.1c2.1.79 4.1 2 4.5 2.8.301.6.265 1.3-.093 1.8-.125.2-.41.5-.592.5-.255.1-.782.3-1.3.354l-.775.1c-4.2.719-9.3 1-13.6.865a60 60 0 0 0-1.2-.042 2 2 0 0 1-.242-.017c-.12-.01-.46-.035-.761-.055a64 64 0 0 1-7.4-.93c-.61-.113-.87-.21-1.1-.432-.778-.63-.9-1.7-.295-2.5.48-.64 2.5-1.8 4.2-2.5l.46-.176-.02-1a52 52 0 0 1-.017-1.4l.004-.406-.288-.387c-.788-1.1-1.2-1.8-1.6-2.9-.169-.517-.318-1.1-.357-1.5-.017-.166-.04-1.6-.053-3.1-.023-3.4 0-3.8.238-4.9.275-1.2.934-2.8 1.6-3.8 1.3-1.9 3.2-3.4 5.3-4.2a12.2 12.2 0 0 1 3-.721"/></g></svg>