<svg viewBox="0 0 1504 620" xmlns="http://www.w3.org/2000/svg"><g transform="translate(-764 -569)"><path fill-rule="evenodd" d="M1691.2 674.4c-46.8 0-84.8 37.7-84.8 84.2 0 23.3 9.5 44.3 24.9 59.6l22.1 14.8v115.3h1.4l1.6 7.3c5.9 12.5 19.8 21.3 35.9 21.3s30-8.8 35.9-21.3l1.6-7.3h1.4V831.5l19.9-13.3c15.3-15.2 24.8-36.3 24.8-59.6 0-46.5-38-84.2-84.8-84.2M1488.3 569c195.3.631 265.5 41.8 318.6 120.4 195.4 343.5 286.6 363.5 455.9 472.5 8.2 15.5 7.2 26.4-5.3 25.8-463.8-43.2-1025.1-54.2-1470.6 1.1-20.2 1.3-15.2-8.8-22.8-13.2 18-30.3 156.7-83.8 245.2-178.1 82.8-71.4 152.2-197.5 203.4-284.4 56.9-77.4 99.9-143.6 275.7-144.1"/></g></svg>