<svg viewBox="0 0 112 83" xmlns="http://www.w3.org/2000/svg"><g transform="translate(-3672 -1931)"><path fill-rule="evenodd" d="m3734.4 1982.8-1.1.27c-1.7.35-3.5.53-5.3.53-2 0-4-.23-6-.67l-.45-.12-.14.6q-.45 2.1-.45 4.4c0 6 2.4 11.4 6.4 15.4l.6.5.6-.54c4-3.9 6.4-9.4 6.4-15.4 0-1-.07-2-.21-3Zm8.4-3.8-2.2 1.4-1.9.89.2 1c.38 1.8.57 3.6.57 5.5 0 7.3-3 13.8-7.7 18.6l-.12.1.74.4c3.1 1.7 6.6 2.6 10.4 2.6 12 0 21.8-9.7 21.8-21.8 0-1.5-.15-3-.44-4.4l-.16-.6-1.1.28c-1.7.35-3.5.53-5.3.53-5.5 0-10.5-1.6-14.7-4.5Zm-29.7-.01-1.1.79a26.3 26.3 0 0 1-13.7 3.8c-1.8 0-3.6-.18-5.3-.53l-1.1-.28-.16.6c-.29 1.4-.44 2.9-.44 4.4 0 12 9.8 21.8 21.8 21.8 3.8 0 7.3-.95 10.4-2.6l.74-.44-.12-.11c-4.8-4.8-7.7-11.3-7.7-18.6 0-1.8.18-3.6.53-5.3l.3-1.1-.73-.32c-1.1-.55-2.3-1.2-3.3-1.9Zm14.9-7.2-.6.5a22.2 22.2 0 0 0-3.8 5l-.53 1.1 2.1.41c.91.1 1.8.17 2.8.17 1.5 0 3-.15 4.4-.44l.48-.13-1.1-2c-1-1.6-2.2-3.1-3.6-4.5Zm24-3.8-.7.2c-.91 2-2.1 3.9-3.4 5.5l-2 2.2.75.5c3.1 1.7 6.6 2.6 10.4 2.6 1.5 0 3-.15 4.4-.44l.49-.13-.53-1.1a21.9 21.9 0 0 0-8.8-8.8Zm-48.1 0-2.1 1.1c-3.3 2-6 4.8-7.9 8.2l-.53 1.1.49.1c1.4.29 2.9.44 4.4.44 3.1 0 6.1-.65 8.7-1.8l2.4-1.3-.12-.11a26.7 26.7 0 0 1-4.5-6.1Zm18.4-.01-.86 1.8a26.4 26.4 0 0 1-4.1 5.6l-.58.5.76.5 1.2.56.9-1.8c1.2-2.2 2.8-4.3 4.5-6.1l.11-.09-.73-.45Zm11.2 0-1.2.58-.76.5 2 2.2c.72.9 1.4 1.9 2 2.9l1.5 2.9 1.2-.58.7-.45-.1-.09a26.7 26.7 0 0 1-4.5-6.1Zm9.2-2c-1.5 0-3.15-4.4.44l-.49.1.53 1.1c1 1.8 2.3 3.5 3.8 5l.6.5.22-.19c1.6-1.5 2.9-3.2 4-5.1l.7-1.4-.5-.13c-1.4-.29-2.9-.44-4.4-.44m-29.7 0c-1 0-2.07-3.21l-1.8.39.5 1.1c1 1.8 2.3 3.5 3.8 5l.58.5.98-.91c1.3-1.4 2.5-2.9 3.4-4.6l.53-1.1-.49-.13c-1.4-.29-2.9-.44-4.4-.44m29.7-24.6-.6.5a21.7 21.7 0 0 0-6.4 15.4c0 1.5.15 3.44 4.4l.16.6 1.1-.28c1.7-.35 3.5-.53 5.3-.53 1.8 0 3.6.18 5.3.53l1.1.28.1-.47c.31-1.4.47-3.47-4.5 0-6-2.4-11.4-6.4-15.4Zm-29.7 0-.59.5a21.7 21.7 0 0 0-6.4 15.4c0 1.5.15 3.44 4.4l.15.6.92-.22c1.8-.38 3.6-.57 5.5-.57 1.8 0 3.6.18 5.3.53l1.1.28.2-.6c.29-1.4.44-2.9.44-4.4 0-6-2.4-11.4-6.4-15.4Zm-14.8-5.8c-12.1 0-21.8 9.7-21.8 21.8 0 8.3 4.6 15.4 11.4 19.1l1.2.58.9-1.8a26.5 26.5 0 0 1 9.5-9.9l3-1.5-.29-1.1c-.35-1.7-.54-3.5-.54-5.3 0-7.3 3-13.8 7.7-18.6l.11-.11-.73-.44a21.7 21.7 0 0 0-10.4-2.6m29.6 0c-3.8 0-7.3.95-10.4 2.6l-.73.4.11.1c4.8 4.8 7.7 11.3 7.7 18.6 0 1.8-.19 3.6-.54 5.3l-.3 1.1 1.9.9 2.2 1.4.12-.09c.7-.48 1.4-.92 2.2-1.3l1.9-.9-.3-1.1c-.35-1.7-.54-3.5-.54-5.3 0-7.3 3-13.8 7.7-18.6l.11-.11-.73-.44a21.7 21.7 0 0 0-10.4-2.6m29.6 0c-3.8 0-7.3.95-10.4 2.6l-.73.4.11.1c4.8 4.8 7.7 11.3 7.7 18.6 0 1.6-.14 3.1-.4 4.6l-.41 1.9 1.9.89c4.5 2.4 8.2 6.1 10.6 10.6l.86 1.8 1.2-.58c6.8-3.7 11.4-10.9 11.4-19.1 0-12-9.8-21.8-21.8-21.8m0-4.5c14.6 0 26.4 11.8 26.4 26.3 0 10-5.6 18.6-13.8 23.1l-1.9.9.3 1.1c.35 1.7.53 3.5.53 5.3 0 14.5-11.8 26.3-26.3 26.3-5.5 0-10.5-1.6-14.7-4.5l-.09-.07-.9.1a26.3 26.3 0 0 1-14.7 4.5c-14.6 0-26.3-11.8-26.3-26.3 0-1.8.18-3.6.53-5.3l.3-1.1-1.9-.9c-8.2-4.5-13.8-13.1-13.8-23.1 0-14.5 11.8-26.3 26.4-26.3 5.5 0 10.5 1.6 14.7 4.5l.9.1.1-.07c4.2-2.8 9.3-4.5 14.7-4.5s10.5 1.6 14.7 4.5l.1.1.09-.07c4.2-2.8 9.3-4.5 14.7-4.5"/></g></svg>