<svg xmlns="http://www.w3.org/2000/svg" version="1" viewBox="0 0 474 348"><path d="M387.1 4.7c-.6 2.1-1.1 4.4-1.1 5 0 .7-.7 3.1-1.6 5.3-2.6 6.3-4.7 7-19.1 5.7-10.9-.9-12.7-.8-16.8.7-2.9 1.2-5 2.7-5.5 4.1-1 2.6-5.4 3.8-11.3 3-3.5-.5-3.7-.4-3.1 1.9.5 2.1.1 2.4-3.1 3-2.1.4-6.5.7-9.9.6-8.4-.2-8.6-.2-8.6 1.4 0 .9-1.9 1.9-5.2 2.6-5.9 1.2-7.9 2.4-9.7 5.7-1.5 2.9-.9 2.9 3.7-.1 4.8-3.2 8.1-4 11.5-2.7 3.7 1.4 3.4 2.8-1 4.7-10.4 4.5-23.1 5.7-30.8 2.9-5.1-1.9-5.2-1.9-5.8.5-.4 1.4-1.4 2-3.4 2l-2.8.1 3.5 1.8c1.9 1 6.4 2.4 10 3 12.9 2.4 13.1 3.1 1.5 5.6-8.5 1.8-12 3.5-7 3.5 1.7 0 2.5.5 2.3 1.2-.7 1.9-3.6 2.2-9.6.7-4.4-1-6-1-8.5 0-1.8.8-6.7 1.7-11 2.1-7.2.8-10.7 2.1-10.7 4.1 0 .4 1.2.1 2.8-.7 6.3-3.2 11.9-1.8 27 7 12.5 7.3 10 8-10.8 3.2-12.1-2.9-15-2.1-4.1 1 12.3 3.6 16.6 7 8.3 6.7-3.5-.2-3.4-.1 1.1 1 2.7.7 5.5 2.1 6.2 3 1.3 1.8 1.8 1.8 9.7.3 14.7-2.8 17.2-2.1 13.7 4-6.5 11.2-13.7 18.6-21 21.7-1.9.8-7.3 2-12 2.7-8.8 1.3-17 .8-37.9-2.5-5.2-.9-15.2-1.8-22.2-2.2-20.1-1-28 1.3-48.6 14-10.5 6.4-12.2 7.2-17.7 7.5-8 .5-9.3-.8-7.7-7.9 1.8-7.7 1.5-8.9-3-13.2-6.6-6-14.2-10.5-25.9-15.2-12.2-4.9-21.7-7.1-34.4-8-14.5-1-18.3-2.6-31.7-13.3C21.2 78.5 13 75 9.4 75c-1.4.1-1.1.5 1.1 1.7 3.6 1.9 6.5 4.3 6.5 5.5 0 .4-1.5.8-3.2.8l-3.3.1 2.4 1.9c2 1.8 2.1 2 .5 2-1.1 0-3.2-.8-4.9-1.8C5.8 83.5 1 81.8 1 82.4c0 .2 6.1 5.6 13.5 12.1S28 106.7 28 107.2c0 1.3-2.3.9-4.4-.7-1.1-.8-2.9-1.5-3.9-1.5-2 0-2 0-.1 2.2 1 1.1 5.8 4.7 10.7 7.9 4.8 3.2 9.9 6.7 11.4 7.9 2.5 1.9 2.5 2.1.8 3.4-1.8 1.3-1.8 1.4.1 1.9 1 .3 3.7.8 5.8 1.2 2.2.4 9.1 2.7 15.5 5.2 16.1 6.3 15.9 6.3 32.3 7.7 15.8 1.5 20.6 3 24.1 7.7 1.9 2.6 1.9 2.7-.2 10.3-4.4 16.2-1.3 32.1 8.7 44.5 7.7 9.4 13.1 13.9 35.2 28.9 12.7 8.6 16.2 12.6 18.4 21.3 1.8 7 .9 11.6-3.3 17.4-1.7 2.4-3.1 4.8-3.1 5.3 0 1.2 4.7 2.8 11 3.7 20.5 3.1 46.3 24.3 60.5 49.8 2.1 3.8 4.8 7.3 6.1 7.9s3.3 2.6 4.4 4.5c1.9 3.2 2.1 3.3 8.3 3.3 3.9 0 7.1-.5 8.3-1.4 1.9-1.4 1.9-1.5-.1-5.2-1.1-2-7.7-8.8-14.8-15.1-11.9-10.7-16.7-16.7-16.7-20.8 0-2.6 3.6-1.6 6.9 2 2.3 2.6 4 3.5 6.4 3.5 2.6 0 4 .9 7.5 5 2.5 2.9 5.2 5 6.3 5 3.2 0 11.9-4.9 11.9-6.7 0-2-3.9-5.4-12-10.3-5.2-3.1-8.2-4.1-14.7-5-9.4-1.4-19.5-5.9-22.7-10.3-1.9-2.6-2-3.9-1.6-12 .6-11.6.6-36.2 0-44.7l-.5-6.5 14.5.3c19 .4 28.5-1 44.5-6.4 15-5.1 14.3-5.1 26 2 3.9 2.4 12 7.2 18 10.6 6.1 3.5 12.9 7.8 15.1 9.6 7.6 6.1 9.1 13.1 5.3 25.2-3 9.2-4.6 12.1-9.1 16.2-3.6 3.4-3.7 3.7-2.6 6.8 1.5 3.9.6 5-5.3 6.3-2.4.6-5.5 1.7-6.8 2.6-2.3 1.5-2.4 1.8-1.7 10.6.3 5 1.1 9.6 1.6 10.1.6.6 2.1.4 4.2-.6 2.4-1.1 4.7-3.9 8.2-9.9 2.7-4.6 6.1-9.8 7.6-11.4 1.5-1.7 3.5-5.5 4.5-8.5.9-3 4.3-11.4 7.6-18.5 3.2-7.2 6.1-14.8 6.5-17.1.7-4.9.3-5.9-11.6-24.5-8.3-13.1-13.9-24.3-12.7-25.5 1.1-1.1 12.4 2.9 24.2 8.5 6.6 3.2 15.1 6.8 18.9 8.1 5.1 1.7 8.3 3.6 12.5 7.4 3.1 2.8 9.7 8.4 14.6 12.5 18.2 15 25.7 23.4 29.2 33 1.6 4.3 2.7 5.7 5.4 7 2.9 1.4 3.5 2.2 4 6 .8 6.2 3.4 8.1 11.4 8.1 7.9 0 9.5-.6 9.5-3.6s-3-6.5-9.7-11.5c-3.5-2.6-5.3-4.8-5.8-6.8-.4-1.8-2.8-5-5.8-7.9-19.9-18.7-23.4-22.5-28.6-30.2-4.2-6.5-6.7-9.1-10.2-11-2.5-1.4-7.4-4.7-11-7.4-17.5-13.5-22.2-18.9-23.5-27.6-.4-2.5-2.1-7.2-3.9-10.5-4-7.3-6.7-16.3-9.5-31.5-3.7-20.3-3.7-20.8.9-37.5 2.3-8.2 4.5-15.2 4.9-15.6.4-.3 3-2.4 5.8-4.7 3.9-3.2 6-4.2 8.7-4.2 2 0 3.8.4 4.1.9 1 1.5 8.8 4.8 16.9 7 10.1 2.7 15.2 5.3 20.3 10.3 3.8 3.6 4.5 3.9 9 3.6 4.6-.3 5-.6 8.6-5.7 5.8-8.3 5.6-9.1-7.6-25.4C424.9 57.8 424 56.3 424 52.2c0-2.3-1.6-4.5-7.7-10.5l-7.8-7.7-.5-14.7c-.3-8.4-.9-14.8-1.5-14.9-.5-.2-2.8 2.5-5 5.9-5.1 8-7.1 8.5-7.7 2-.5-5.2-2.6-10.4-4.5-11-.7-.3-1.6 1.2-2.2 3.4"/></svg>