<svg xmlns="http://www.w3.org/2000/svg" version="1.0" viewBox="0 0 449 368"><path d="M141.5 25.5C97 39.5 54.2 53 46.5 55.4s-20 6.3-27.3 8.6C8.6 67.3 5.7 68.6 4.3 70.7-.1 77.3 4.8 86 13 86h4v28.8c0 27.9.1 28.9 2.2 33.2 3 5.7 6.5 8.2 12.7 8.8l5.1.5v149.6l-3.4.7c-1.9.3-4.3 1.6-5.5 2.7C24.5 314.2 0 355.4 0 357.7c0 3.6 2.2 7.3 5.1 8.9 3.3 1.6 101.8 1.9 314.3.7l123.9-.6 2.6-2.3c2.1-1.8 2.6-3.1 2.5-6.6 0-3.6-1.9-7.5-12.2-25.3-6.8-11.6-13.2-21.8-14.3-22.7-1.1-1-4.3-2-7-2.4l-4.9-.7.2-74.6.3-74.6 4.3-.6c4.6-.6 8.4-3 11.6-7.3 2-2.6 2.1-4.2 2.4-33.2l.3-30.4h3c4.1 0 8.3-2.3 9.7-5.5 1.7-3.6 1.5-5.5-.7-9.2-2.1-3.3-2.5-3.5-35.1-13.8-17.6-5.6-82-26.1-108-34.5-13.5-4.3-35.1-11.3-48.1-15.4-13-4.2-24.4-7.6-25.5-7.6-1 .1-38.3 11.5-82.9 25.5m-20.7 206.7.2 74.8H76V157l22.3.2 22.2.3zm83.2-.2v75h-44V157h44zm84 0v75h-45V157h45zm83.8.2.2 74.8h-45V157l22.3.2 22.2.3z"/></svg>