<svg xmlns="http://www.w3.org/2000/svg" version="1.0" viewBox="0 0 345 174"><path d="M291.9 36.9c-5.9 1.9-6.9 2.9-6.9 7.6 0 4.5 0 4.5 3.4 4.5 3 0 3.5-.4 3.8-2.6.4-3.7 3.2-5.4 5.4-3.2 2.8 2.8.9 6.7-6.7 13.9-5.7 5.4-6.9 7.1-6.9 9.7V70h25V59h-3.4c-2.5 0-3.5.5-3.9 2s-1.4 2-3.7 2h-3.2l5.5-5.3c5.8-5.5 7.9-10.1 6.9-15.2-.9-5-8.2-7.7-15.3-5.6M53 50.4c0 3.9.3 4.5 2.3 4.8 2.2.3 2.2.3 2.2 19.8s0 19.5-2.2 19.8c-2 .3-2.3.9-2.3 4.8v4.4h46V86h-5.5c-5.1 0-5.5.2-5.5 2.4 0 3.6-2.2 4.7-8.2 4.4l-5.3-.3-.3-6.3-.3-6.2H92V69.1l-8.7-.3-8.8-.3-.3-5.8-.3-5.7h5.4c5.5 0 7.7 1.2 7.7 4.2 0 1.5.9 1.8 5.5 1.8H98V46H53zm55 15.1V72h46V59h-46zm80.4-3.4c-1.7.5-3.9 1.8-4.9 2.9-2.3 2.5-3.5 2.5-3.5 0 0-1.8-.7-2-6.2-2-3.5 0-8 .3-10 .6-3.6.6-3.8.8-3.8 4.5 0 3.1.4 3.8 2.3 4.1 2.1.3 2.2.7 2.2 11.3s-.1 11-2.2 11.3c-2 .3-2.3.9-2.3 4.8v4.4h25v-4.5c0-3.8-.3-4.5-2-4.5-1.9 0-2-.7-2-9.4 0-10 1-12.6 5-12.6 3.2 0 4 3.3 4 17.4V104h21v-4.4c0-3.9-.3-4.5-2.2-4.8-2.1-.3-2.3-.9-2.6-8.3-.3-9.4 1-12.8 5.1-13.3 3.9-.5 4.7 2.6 4.7 17.9V104h20v-4.5c0-3.8-.3-4.5-2-4.5-1.9 0-2-.7-2-11.3 0-12-1.8-18.5-5.7-20.5-6.1-3.2-15.3-1.6-19.2 3.4l-1.8 2.3-2.1-2.9c-1.3-1.7-3.8-3.3-5.9-3.9-4.3-1.2-4.7-1.2-8.9 0m67.6 0c-9.2 2.8-14.3 10.4-14.4 21.4-.1 9.5 3 15.8 9.4 19.3 3.9 2.1 5.5 2.3 12.5 2 4.9-.3 9.3-1.1 11.3-2.1 3-1.7 3.2-2.1 3.2-7.2 0-3-.1-5.5-.2-5.5-.2 0-2.1.7-4.3 1.5-6.7 2.4-11.2 1.9-14.6-1.4-2.5-2.5-2.9-3.7-2.9-8.4 0-6.2 2.7-10.7 6.4-10.7 3.1 0 4.6 1.9 4.6 5.7V80h11V64.3l-4.2-1.2c-5.9-1.8-13.7-2.2-17.8-1M108 85.5V92h46V79h-46z"/></svg>