<svg xmlns="http://www.w3.org/2000/svg" version="1.0" viewBox="0 0 70 50"><path d="M35.5 5.7c-11.1 1.4-17.3 2.9-23.3 5.8C3.3 15.7 2 18.2 2 31.2c0 5.1-.4 11-.9 13-.7 2.8-.5 3.8.5 4.2 2.8 1.1 41.2 1.9 53.7 1.1 10.5-.6 12.7-1 12.3-2.1-.3-.8-.9-8.2-1.2-16.5-.7-14.3-.9-15.3-3.3-18.2C59.2 8.1 51.6 5 44.5 5.2c-3.3 0-7.3.3-9 .5m5.3 10.5c.7.7 1.2 2.7 1.2 4.5 0 3.1-.2 3.3-3.5 3.3-3.2 0-3.5-.2-3.5-2.9s2.1-6.1 3.9-6.1c.4 0 1.2.5 1.9 1.2M32 21c0 2.2-.6 2.9-2.5 3.2-2.3.5-2.5.2-2.5-3.3 0-3.9 1.5-5.4 3.8-3.6.6.5 1.2 2.2 1.2 3.7m18.4-1.7c.7 1.8.6 3.1-.1 3.8-1.6 1.6-5.3.1-5.3-2.1 0-5.4 3.7-6.6 5.4-1.7M24 22c0 1.9-.6 2.9-1.9 3.3-1.1.3-2.2.2-2.5-.1-1-1-.6-5.8.6-7 1.7-1.7 3.8.4 3.8 3.8m33.4-3.4c.3.9.6 2.7.6 4.1 0 3.2-3.4 2.8-3.8-.5-.6-4.4 1.8-7.1 3.2-3.6m6.6 4.5c0 1.9-.5 2.9-1.5 2.9-1.5 0-2.2-5-.9-6.3 1.2-1.2 2.4.4 2.4 3.4m-47.4-.7c.7 2.9-.1 4.6-2.2 4.6-.9 0-1.4-1-1.4-2.8 0-4.7 2.5-5.9 3.6-1.8M10 24.9c0 1.7-.4 3.3-1 3.6-.6.4-1-.8-1-2.9 0-2 .5-3.6 1-3.6.6 0 1 1.3 1 2.9m-4 3.2c0 1-.4 1.9-1 1.9-.5 0-1-1.2-1-2.6s.4-2.3 1-1.9c.6.3 1 1.5 1 2.6m34.8.1c.7.7 1.2 2.9 1.2 5.1 0 3.7-.1 3.8-3.2 3.5-2.9-.3-3.3-.7-3.6-3.4-.2-1.9.3-3.8 1.3-4.8 2-1.9 2.7-2 4.3-.4m9.2 4.4c0 4-.2 4.4-2.5 4.4s-2.5-.4-2.5-4.4c0-2.7.5-4.6 1.3-4.9 2.6-.9 3.7.6 3.7 4.9m-18.2.2c.3 4.2.2 4.3-2.5 4-3.2-.3-4.2-3.3-2.3-6.8 1.9-3.6 4.5-2.1 4.8 2.8m-8.4-2.2c.3.9.6 2.7.6 4 0 1.9-.5 2.4-2.5 2.4s-2.5-.5-2.5-2.4c0-3.4 1-5.6 2.5-5.6.7 0 1.6.7 1.9 1.6m35.2.9c.8 3.4-.1 5.5-2.6 5.5-1.6 0-2-.6-2-3.3 0-1.9.3-3.7.7-4 1.4-1.5 3.3-.6 3.9 1.8m-41.8 4c-.2 1.1-1.1 2.1-2 2.3-1.4.3-1.8-.4-1.8-3.1 0-1.8.3-3.7.7-4.1 1.1-1.1 3.4 2.6 3.1 4.9m48-.6c.3 2.7 0 3.2-1.5 2.9-1.9-.3-2.8-3-1.9-5.4 1-2.6 3.1-1 3.4 2.5m-54.8.6c0 1.9-.4 3.5-1 3.5-.5 0-1-1.6-1-3.5S8.5 32 9 32c.6 0 1 1.6 1 3.5m-4 1.6c0 1-.4 1.9-1 1.9-.5 0-1-1.2-1-2.6s.4-2.3 1-1.9c.6.3 1 1.5 1 2.6m24.8 4.1c.7.7 1.2 2.5 1.2 4 0 2.3-.4 2.8-2.5 2.8-3.1 0-4.2-2.3-2.7-5.6 1.3-2.7 2.2-3 4-1.2m10 0c.7.7 1.2 2.5 1.2 4 0 2.5-.3 2.8-3.5 2.8-2.9 0-3.5-.4-3.5-2.1 0-4.7 3.2-7.3 5.8-4.7m9 3.1c.3 3.4.1 3.7-2.2 3.7s-2.6-.4-2.6-3.3c0-3.8.7-4.9 3-4.5.9.2 1.6 1.6 1.8 4.1m-33 1.7c-.2.8-1 1.5-1.8 1.5-1.7 0-2.5-2.8-1.5-5.3.6-1.5.8-1.5 2.1.3.8 1.1 1.3 2.6 1.2 3.5m7-1.2c.3 2.9.1 3.2-2.2 3.2-1.9 0-2.6-.5-2.6-1.9 0-5.8 4.3-7 4.8-1.3m33.8-1.4c.7 3.1-.1 4.6-2.7 4.6-1.4 0-1.9-.7-1.9-2.8 0-4.8 3.5-6.1 4.6-1.8m7.2.9c.3 2.2-.1 2.7-1.7 2.7q-3.15 0-1.5-4.5c.9-2.3 2.9-1.3 3.2 1.8m-54.8.2c0 1.4-.4 2.5-1 2.5-.5 0-1-1.1-1-2.5S8.5 42 9 42c.6 0 1 1.1 1 2.5m-4.8 1.7c-.9.9-1.2.7-1.2-1.2s.3-2.1 1.2-1.2.9 1.5 0 2.4"/></svg>