<svg xmlns="http://www.w3.org/2000/svg" version="1" viewBox="0 0 109 97"><path d="M31.3 3.3c-4.2 2.2-6.6 4.1-7.4 6-1.3 3.1-.8 12.1 1.2 20.7l1.3 5.5.8-5.5c1.5-10.5 1.9-11.7 4.8-16.3C34.9 9.5 40.4 6 44.4 6c.7 0 3.1-.7 5.2-1.6 4.8-2 3.4-2.9-5.6-3.7-5.9-.5-7-.3-12.7 2.6"/><path d="M51 7.4c-8.3 4.6-9.9 6-12.7 10.6-1.8 3-3.3 6.8-3.4 8.5 0 1.6-.2 3.7-.4 4.6-.1.9.1 2.3.6 3 1.4 2.3 3.8-.1 6.4-6.4 2.9-7.2 6.4-11.9 11.2-14.9 3.1-1.9 5.2-2.3 11.3-2.3 6.4 0 8.2.4 12.2 2.7 5 3 8.6 6.9 9.3 10.2.2 1.2.9 4.7 1.5 7.9 1.8 9 3.4 6.1 2.7-4.8-.6-10-2.9-16.3-7-18.9C80 5.8 66.2 2 62.9 2c-1.3.1-6.7 2.5-11.9 5.4"/><path d="M55.5 17.8c-1.6 1.1-4.2 3.2-5.7 4.8-3.6 3.9-8 12.9-7.6 15.6.5 3.2 5 6 10.5 6.5l4.9.5 6.1-7c7.2-8.4 8.7-12.7 5.3-15.4-2.3-1.8-8.5-2.5-9.4-1-.3.5.8.6 2.4.4 3.1-.4 7 2.6 7 5.4 0 2.5-5.6 7.4-8.5 7.4S52 30.2 52 27.7c0-2.7 5-7.6 8.8-8.6 3.8-1.1 9-.3 13 1.8 1.7.9 2.2 2.1 2.2 5.2 0 5.1-1.7 8.3-7.4 13.9-2.5 2.4-4.6 4.8-4.6 5.2s1.6.8 3.5.8C73.4 46 81 36.6 81 29.3c0-7-6.4-11.9-16.7-12.9-4.7-.4-6.4-.2-8.8 1.4"/><path d="M93 20.4c0 .8.4 1.7.9 2.1 2 1.2 2.3 10.8.6 15.5-1 2.5-2.3 7.6-3.1 11.4-1.6 8.3-4.9 14.1-10.8 19.3-9.3 8.2-20.5 12.2-34.3 12.3-5 0-5.2.8-2 6.5 3.4 5.9 7.8 8.5 14.8 8.5 5.3 0 6.1-.3 10.9-4.4 2.9-2.4 7.7-5.5 10.8-6.8 12.9-5.4 19.6-9.3 21.5-12.6 2-3.4 1.8-4.8-1.5-9.4-1.1-1.5-.8-2.2 2.1-4.5 3.8-3.3 5-7.7 5.1-19.2 0-8.9-2-12.9-8.9-17.2-5.1-3.3-6.1-3.5-6.1-1.5m-80.8 4.2C8.2 27.4 3 40.6 1.3 52c-.6 4.7 1.5 7.3 12 14.3 9.9 6.7 13.4 8.2 20.6 9.2l5.4.7-4.4-4.4c-2.4-2.4-6.8-7.7-9.7-11.8-5.7-7.8-5.9-9-3.1-15.7 1.1-2.7 1-4.3-.6-11-1-4.3-2.3-8.4-2.8-9.1-1.3-1.6-3.8-1.5-6.5.4m48.4 1.6c-1 2.1 0 3.8 2.2 3.8 1.1 0 1.3-.3.6-.8-.7-.4-1.4-1.6-1.6-2.7-.4-1.8-.6-1.8-1.2-.3"/><path d="M83.7 33.7c-.3.5-.8 2.2-1.1 3.9-.9 4.1-6.6 10.7-11 12.8-5.1 2.4-10.8 2-22.7-1.9-6-1.9-11.8-3.5-13-3.5-3 0-8.7 3.7-9.4 6.1-.7 2.2 1 4.9 3 4.9 1.5 0 4.4 3.4 8.5 10.1 9.5 15.6 33.2 9.9 43.8-10.6 2-3.9 2.6-6.9 3-13.8.4-7.9.1-10-1.1-8"/></svg>