<svg xmlns="http://www.w3.org/2000/svg" width="400" height="200" viewBox="14.066 -41.873 2183.934 1091.967"><path d="M2106 16c-6.9 1.6-17 3.8-22.5 5-14.5 3-26.4 5.8-40 9.2-6.6 1.6-12.7 3.2-13.5 3.4-20.5 4.9-72.8 20.1-134 39-3 1-35 11.5-71 23.5-98.3 32.6-158.3 53.9-299.5 106.2-8.2 3-29.4 11-47 17.7s-37.8 14.4-45 17c-7.1 2.7-21.3 8.1-31.5 12s-21.9 8.4-26 10-15.1 5.8-24.5 9.5c-9.3 3.7-22.6 8.8-29.5 11.5-46 17.7-187.9 73.6-205.5 81-3.8 1.6-27.7 11.2-53 21.4-25.3 10.1-57.2 23-71 28.6-13.7 5.6-29.7 12.1-35.5 14.5-5.8 2.3-19.5 7.9-30.5 12.5-11 4.5-24.7 10.1-30.5 12.5-5.8 2.3-18.8 7.8-29 12-10.2 4.3-22.3 9.3-27 11.2s-8.7 3.7-8.9 3.9c-.5.5 7.5 19.7 19.4 45.9 1.3 2.7 3.9 8.6 5.8 13 6.4 14.7 7.4 16.9 16.1 36.5 4.8 10.7 9.8 21.8 11.2 24.7 1.3 2.8 2.4 5.5 2.4 5.8s1.1 3 2.5 5.8c4.2 8.8 21.7 48.1 22.2 49.9.9 2.9 3.1 2.8 9.1-.1 3.1-1.6 14.3-7 24.7-11.9 10.5-4.9 24.9-11.8 32-15.2 7.2-3.4 16.6-7.9 21-10s16.6-7.9 27-13c10.5-5.1 23.7-11.5 29.5-14.2 30-14.3 100.9-48.9 180.5-88.1 73.2-36.1 226.4-113.1 281.5-141.5 59.4-30.6 73.6-37.9 85.5-44.2 13-6.9 25.9-13.6 43-22.5 8.3-4.3 15.5-8.1 16-8.5.6-.4 7.8-4.2 16-8.5 8.3-4.3 23.9-12.7 34.8-18.7 11-5.9 20.1-10.8 20.3-10.8.1 0 9.4-5 20.6-11.1s23.7-12.9 27.8-15.2c18.9-10.2 58.1-31.9 80.5-44.7 9.9-5.6 19.8-11.2 22-12.5 18.2-10.2 71.2-41.2 74.5-43.5 1.4-.9 4.5-2.8 7-4.2 4.3-2.4 13.2-7.9 44-26.8 17.9-11 54.6-35.1 69.5-45.8 11.4-8.1 30.4-22.1 31.5-23.2.3-.3 3.3-2.8 6.7-5.5 9.6-7.6 9.2-7.7-9.7-3.5m1.8 128.3c-2.1 3.9-8.8 16.2-14.9 27.2-35.1 63-53 107.2-62.8 155.2-6.2 30.2-7.1 41.3-5 60.1 4.1 37.1 16.4 64.9 37.8 85.5 10 9.7 20.7 16.4 32.6 20.4 35.6 12.3 77.5-16.7 93.6-64.7 5.3-16.1 8.9-37.9 8.9-54.7 0-15.8-10.8-60.7-23.5-97.3-9.6-28-17.6-46.2-41.7-95-9.6-19.5-18.3-37.4-19.4-39.7l-1.9-4.3zM690.7 385.1c-1.6 1-26 11.2-45.7 19.2-4.1 1.6-8.1 3.5-8.7 4.1-1 .9-.3 2.8 3.4 8.6 11.6 18.7 33.7 61.8 51.8 101 3.2 6.9 8 17.2 10.7 22.9s4.8 11.1 4.6 11.9c-.2 1-2.4 2.1-5.8 2.9-3 .8-13.8 3.6-24 6.4-63.6 17.4-117.3 34.3-150 47.1-61.8 24.2-107.9 47-166 81.8-8 4.8-20.6 12.6-28 17.4-7.4 4.7-14.2 8.9-15 9.3-1.9.8-52.3 34.4-53 35.3-.3.4-4.1 3.1-8.5 6-13.8 9.2-46.7 32.9-56.5 40.7-15.7 12.3-22.1 16.3-35.5 21.6-18.6 7.3-43.7 15.3-53.9 17.1-1.6.3-5.5 1.1-8.5 1.8-8.2 1.9-35.4 1.6-40.7-.4-5.9-2.3-9-1.4-10.7 3.1-3 7.5-4 14.3-3.5 24.2.3 5.4.2 10.2-.1 10.7-.6.9-4.8 3.4-14.4 8.6-15.4 8.1-22.2 25.8-16.8 43.6 1.2 4 4.4 11.2 7.2 16.1 2.7 4.9 4.9 9.2 4.9 9.7 0 1.3 7.2 11.6 9.9 14.2 7.3 7 14.1 10.1 22.4 10.1 8.3.1 12.1-.7 19.2-4 10-4.7 9.4-4.8 16 2 8.1 8.1 21.4 16.8 26.2 16.9.6 0 2.8-3 4.8-6.6 3.7-6.5 10.7-15.9 15.2-20.1 15.6-14.8 39.3-30.6 64.7-43.1 17-8.5 18.9-9.2 31.6-11.6 49.6-9.7 134.7-30 170-40.6 5.8-1.8 11.6-3.4 13-3.7 9.1-1.6 59.7-18.1 89-28.9 37.6-13.8 60.1-23.7 107.5-47 23.6-11.6 37.7-19.1 62.3-33.3 13.4-7.6 24-13.9 36.7-21.8 28.8-17.7 35.4-21.8 45-28.1 5.5-3.6 10.6-6.5 11.4-6.6 1.3-.1 6.2 9.9 12.2 24.9 1.1 2.7 2.7 6.3 3.4 8 1.4 2.8 8.7 20.4 19.7 47 11.9 29 20.8 53.6 21.8 60.9.5 3.2 1.1 6 1.3 6.3.4.4 7.7-2.7 24.2-10.2 2.8-1.2 8.8-3.9 13.5-6 4.7-2 10.9-4.8 13.9-6.2l5.4-2.6-.6-5.6c-.5-6.3-9.8-31.9-23.2-64.6-14.9-36-15.6-37.9-18.1-43.3-1.3-2.9-2.4-5.5-2.4-5.7 0-.3-3.6-8.7-7.9-18.8-9.7-22.3-18.2-42.2-25.1-58.7-2.8-6.9-6.3-14.8-7.6-17.7-1.3-2.8-2.4-5.4-2.4-5.7 0-.5-2.9-7.2-20.2-46.6-4.9-11.3-15-32.7-22.3-47.5-7.4-14.9-19-38.6-25.9-52.8-16.2-33.5-36-70.6-39.4-73.9-.4-.3-1.5-.2-2.5.3"/></svg>