<svg viewBox="0 0 248 204" xmlns="http://www.w3.org/2000/svg"><path d="M221.9 51.3c.15 2.2.15 4.3.15 6.5 0 66.7-50.8 143.7-143.7 143.7v-.04c-27.4.04-54.3-7.8-77.4-22.6 4.48 8 .72 12.73 22.7.02 44.8-7.6 62.7-21.7-21.6-.41-40.6-14.5-47.2-35.1a50.3 50.3 0 0 0 22.8-.87C27.8 117.2 10.8 96.5 10.8 72.5v-.64a50.2 50.2 0 0 0 22.9 6.3C11.6 63.3 4.7 33.8 18.1 10.7a143.3 143.3 0 0 0 104.1 52.8 50.5 50.5 0 0 1 14.6-48.3c20.3-19.1 52.3-18.1 71.5 2.2 11.3-2.2 22.1-6.4 32.1-12.3a50.7 50.7 0 0 1-22.2 27.9c10-1.2 19.8-3.9 29-8a102.6 102.6 0 0 1-25.2 26.2"/></svg>