<svg viewBox="0 0 89 89" xmlns="http://www.w3.org/2000/svg" xmlns:xlink="http://www.w3.org/1999/xlink"><g transform="translate(-3936 -2172)"><path d="M4025 2212 4025 2221 4016.1 2221 4016.2 2219.5 4016 2212Z" fill-rule="evenodd"/><path d="M4021 2235.3 4016.5 2243 4009 2238.7 4011.4 2235 4013.5 2231Z" fill-rule="evenodd"/><path d="M4007 2252.5 3998.7 2257 3994 2249.5 4001.1 2245.8 4002.4 2245Z" fill-rule="evenodd"/><path d="M3985 2252 3985 2261 3976 2261 3976 2252.1 3977.5 2252.2Z" fill-rule="evenodd"/><path d="M3966 2249.5 3961.7 2257 3954 2252.5 3958.3 2245 3962 2247.4Z" fill-rule="evenodd"/><path d="M3952 2238.7 3944.5 2243 3940 2235.3 3947.5 2231 3951.2 2237.5Z" fill-rule="evenodd"/><path d="M3945 2221 3936 2221 3936 2212 3944.9 2212 3944.8 2213.5Z" fill-rule="evenodd"/><path d="M3952 2194.7 3949.6 2198.7 3947.5 2203 3940 2198.3 3944.5 2190Z" fill-rule="evenodd"/><path d="M3966 2183.5 3959.5 2187.2 3958.3 2188 3954 2180.5 3961.7 2176Z" fill-rule="evenodd"/><path d="M3985 2172 3985 2180.9 3983.5 2180.8 3976 2181 3976 2172Z" fill-rule="evenodd"/><path d="M4007 2180.5 4002.3 2188 3998.3 2185.6 3994 2183.5 3998.7 2176Z" fill-rule="evenodd"/><path d="M4021 2198.3 4013.5 2203 4009.8 2195.9 4009 2194.6 4016.5 2190Z" fill-rule="evenodd"/></g></svg>