<svg width="640" height="480" viewBox="0 0 19 10" xmlns="http://www.w3.org/2000/svg">
  <path d="M0 0.488536C0.0298799 0.183761 0.191231 0.0612538 0.501982 0.14193 0.935241 0.248003 1.37896 0.288341 1.83313 0.259955 2.88192 0.194219 3.19864-0.209159 4.38039 0.14193 6.00586 0.655864 7.6119 1.13394 9.08797 1.37746 11.1736 1.22508 12.6407 0.336149 14.1242 0.103086 15.4165-0.222605 16.2457 0.551284 17.8861 0.103086 18.2611 0.0717118 18.3956 0.128484 18.3492 0.605068 18.2506 2.44418 17.9937 5.43964 16.5475 7.04568 15.3657 8.35741 13.2233 8.35741 11.5127 9.1313L9.32103 9.94403C8.31707 9.81853 7.32954 9.44802 6.34948 8.95949 5.09751 8.47543 4.11745 8.22594 3.20462 8.03321 0.427283 6.80216 0.179279 3.1344 0 0.488536L0 0.488536ZM2.30075 2.23502C3.9561 2.20663 6.89479 2.25145 7.54169 4.21456 7.66121 4.5776 7.66121 4.94811 7.5372 5.34253 4.18169 5.53077 3.11797 4.52382 2.30075 2.23502L2.30075 2.23502ZM16.0575 2.72355C14.2871 2.02735 10.6821 1.85704 10.1024 4.21456 10.0113 4.58656 9.92909 4.94811 10.0516 5.34253 13.3264 5.38735 14.934 4.91226 16.0575 2.72355L16.0575 2.72355Z"
    fill="#DAABAB" fill-rule="evenodd"/>
</svg>
