<svg width="65" height="64" xmlns="http://www.w3.org/2000/svg" xmlns:xlink="http://www.w3.org/1999/xlink" xml:space="preserve" overflow="hidden"><g transform="translate(-3886 -2357)"><path d="M3887 2389C3887 2371.88 3900.88 2358 3918 2358 3935.12 2358 3949 2371.88 3949 2389 3949 2406.12 3935.12 2420 3918 2420 3900.88 2420 3887 2406.12 3887 2389Z" fill="#FFFFFF" fill-rule="evenodd"/><path d="M3920.1 2365.11C3924.96 2365.11 3928.31 2365.91 3930.17 2367.51 3932.03 2369.12 3932.96 2370.97 3932.96 2373.08 3932.96 2375.46 3931.78 2377.84 3929.42 2380.2 3928.26 2381.37 3926.85 2382.33 3925.19 2383.07 3928.23 2383.26 3930.61 2384.34 3932.34 2386.33 3934.08 2388.31 3934.94 2390.66 3934.94 2393.38 3934.94 2397.16 3933.69 2400.53 3931.17 2403.49 3929.39 2405.62 3927.13 2407.27 3924.41 2408.46 3921.69 2409.64 3919.02 2410.23 3916.38 2410.23 3912.63 2410.23 3909.23 2409.48 3906.2 2407.99 3904.56 2407.16 3903.74 2406.02 3903.74 2404.58 3903.74 2403.84 3904.09 2403.14 3904.79 2402.46 3905.49 2401.78 3906.36 2401.45 3907.39 2401.45 3909.27 2401.45 3910.87 2402.36 3912.19 2404.18 3913.78 2406.27 3915.58 2407.31 3917.57 2407.31 3919.45 2407.31 3921.22 2406.53 3922.86 2404.97 3924.51 2403.4 3925.34 2400.77 3925.34 2397.07 3925.34 2390.48 3922.26 2387.17 3916.09 2387.15 3915.11 2387.15 3913.93 2387.35 3912.56 2387.76 3912.75 2387.33 3912.84 2386.61 3912.84 2385.61 3912.84 2385.28 3912.58 2385.01 3912.05 2384.82 3915.49 2384.06 3918.24 2382.63 3920.28 2380.53 3922.33 2378.42 3923.35 2375.99 3923.35 2373.22 3923.35 2369.76 3921.8 2368.03 3918.69 2368.03 3917.9 2368.03 3917.23 2368.06 3916.69 2368.13 3916.15 2368.21 3915.55 2368.39 3914.88 2368.68 3914.22 2368.97 3913.67 2369.45 3913.22 2370.12 3912.78 2370.8 3912.46 2371.68 3912.27 2372.76 3912.03 2374.09 3911.58 2375.09 3910.93 2375.78 3910.28 2376.46 3909.2 2376.81 3907.68 2376.81 3905.8 2376.81 3904.86 2375.92 3904.86 2374.14 3904.86 2372.48 3905.55 2371.02 3906.92 2369.77 3907.96 2368.84 3908.88 2368.1 3909.7 2367.55 3910.52 2366.99 3911.87 2366.44 3913.75 2365.91 3915.62 2365.38 3917.74 2365.11 3920.1 2365.11ZM3918.5 2360.23C3902.36 2360.23 3889.28 2373.11 3889.28 2389 3889.28 2404.89 3902.36 2417.77 3918.5 2417.77 3934.64 2417.77 3947.72 2404.89 3947.72 2389 3947.72 2373.11 3934.64 2360.23 3918.5 2360.23ZM3918.5 2357C3936.45 2357 3951 2371.33 3951 2389 3951 2406.67 3936.45 2421 3918.5 2421 3900.55 2421 3886 2406.67 3886 2389 3886 2371.33 3900.55 2357 3918.5 2357Z" fill-rule="evenodd"/></g></svg>