<svg width="65" height="64" xmlns="http://www.w3.org/2000/svg" xmlns:xlink="http://www.w3.org/1999/xlink" xml:space="preserve" overflow="hidden"><defs><clipPath id="clip0"><rect x="3724" y="2357" width="65" height="64"/></clipPath></defs><g clip-path="url(#clip0)" transform="translate(-3724 -2357)"><path d="M3726 2389C3726 2371.88 3739.88 2358 3757 2358 3774.12 2358 3788 2371.88 3788 2389 3788 2406.12 3774.12 2420 3757 2420 3739.88 2420 3726 2406.12 3726 2389Z" fill="#FFFFFF" fill-rule="evenodd"/><path d="M3758.6 2365.11C3763.17 2365.11 3766.86 2366.4 3769.65 2368.97 3771.79 2370.95 3772.86 2373.55 3772.86 2376.75 3772.86 2377.63 3772.8 2378.44 3772.68 2379.18 3772.56 2379.91 3772.44 2380.55 3772.3 2381.08 3772.17 2381.62 3771.86 2382.23 3771.37 2382.93 3770.87 2383.64 3770.52 2384.17 3770.3 2384.54 3770.08 2384.91 3769.52 2385.53 3768.61 2386.41 3767.7 2387.29 3767.04 2387.9 3766.63 2388.26 3766.23 2388.62 3765.34 2389.41 3763.97 2390.63 3762.61 2391.85 3761.6 2392.75 3760.95 2393.32L3756.61 2397.27C3754.57 2399.13 3753.43 2401.29 3753.18 2403.76L3762.87 2403.76C3764.57 2403.76 3765.99 2403.22 3767.13 2402.16 3768.28 2401.09 3769.25 2399.33 3770.05 2396.86 3771.18 2396.86 3772.29 2397.09 3773.37 2397.56 3772.72 2402.8 3771.96 2406.79 3771.09 2409.52L3742.39 2409.52 3742.1 2407.17C3742.2 2406.1 3742.92 2404.74 3744.28 2403.09 3745.64 2401.44 3748.47 2398.6 3752.75 2394.57L3759.03 2388.65C3760.86 2386.94 3762.03 2385.26 3762.52 2383.61 3763.01 2381.96 3763.26 2379.76 3763.26 2377 3763.26 2374.34 3762.61 2372.19 3761.31 2370.56 3759.96 2368.85 3758.48 2368 3756.87 2368.03 3755.23 2368.03 3753.8 2368.62 3752.57 2369.81 3751.34 2371.01 3750.73 2372.09 3750.73 2373.07 3750.73 2373.66 3750.89 2374.3 3751.2 2374.96 3751.44 2375.7 3751.56 2376.22 3751.56 2376.5 3751.56 2377.62 3751.13 2378.55 3750.26 2379.29 3749.39 2380.03 3748.39 2380.4 3747.26 2380.4 3745.99 2380.4 3744.94 2379.98 3744.12 2379.15 3743.3 2378.32 3742.89 2377.42 3742.89 2376.45 3742.89 2373.77 3744.3 2371.21 3747.12 2368.77 3749.93 2366.33 3753.76 2365.11 3758.6 2365.11ZM3756.5 2360.23C3740.36 2360.23 3727.28 2373.11 3727.28 2389 3727.28 2404.89 3740.36 2417.77 3756.5 2417.77 3772.64 2417.77 3785.72 2404.89 3785.72 2389 3785.72 2373.11 3772.64 2360.23 3756.5 2360.23ZM3756.5 2357C3774.45 2357 3789 2371.33 3789 2389 3789 2406.67 3774.45 2421 3756.5 2421 3738.55 2421 3724 2406.67 3724 2389 3724 2371.33 3738.55 2357 3756.5 2357Z" fill-rule="evenodd"/></g></svg>