<svg width="64" height="64" xmlns="http://www.w3.org/2000/svg" xmlns:xlink="http://www.w3.org/1999/xlink" xml:space="preserve" overflow="hidden"><g transform="translate(-4046 -2357)"><path d="M4047 2389C4047 2371.88 4060.88 2358 4078 2358 4095.12 2358 4109 2371.88 4109 2389 4109 2406.12 4095.12 2420 4078 2420 4060.88 2420 4047 2406.12 4047 2389Z" fill="#FFFFFF" fill-rule="evenodd"/><path d="M4075.35 2373.04C4072.98 2376.29 4068.51 2383.37 4061.94 2394.3L4075.35 2394.3ZM4077.93 2365.11 4084.8 2365.11 4084.8 2394.3 4091.55 2394.3C4092.24 2394.3 4092.59 2394.69 4092.59 2395.47 4092.59 2395.9 4092.37 2396.38 4091.94 2396.91 4091.5 2397.45 4091.06 2397.71 4090.61 2397.71L4084.8 2397.71 4084.8 2400.63C4084.8 2402.07 4084.94 2403.25 4085.22 2404.15 4085.5 2405.05 4085.97 2405.71 4086.62 2406.12 4087.28 2406.54 4087.9 2406.8 4088.5 2406.92 4089.1 2407.04 4089.99 2407.12 4091.17 2407.17 4091.52 2407.36 4091.7 2407.76 4091.7 2408.38 4091.7 2409 4091.52 2409.42 4091.14 2409.66 4089.61 2409.66 4088.06 2409.65 4086.49 2409.62 4084.92 2409.6 4083.68 2409.58 4082.78 2409.55 4081.87 2409.53 4081 2409.52 4080.16 2409.52L4069.01 2409.66C4068.64 2409.47 4068.45 2409.06 4068.45 2408.43 4068.45 2407.8 4068.63 2407.38 4068.98 2407.17 4070.16 2407.12 4071.05 2407.04 4071.65 2406.92 4072.25 2406.8 4072.88 2406.54 4073.53 2406.12 4074.19 2405.71 4074.65 2405.06 4074.93 2404.17 4075.21 2403.28 4075.35 2402.1 4075.35 2400.63L4075.35 2397.71 4062.78 2397.71C4061.56 2397.71 4060.78 2397.55 4060.43 2397.22L4059.39 2395.9C4059.3 2395.71 4059.16 2395.48 4058.96 2395.21 4058.76 2394.93 4058.62 2394.73 4058.53 2394.58 4058.43 2394.44 4058.39 2394.32 4058.39 2394.23 4058.39 2394.09 4058.55 2393.77 4058.88 2393.27 4059.83 2391.78 4061.36 2389.41 4063.47 2386.18 4065.58 2382.94 4067.31 2380.27 4068.66 2378.16 4070.02 2376.05 4071.58 2373.73 4073.35 2371.21 4075.12 2368.68 4076.65 2366.65 4077.93 2365.11ZM4078 2360.23C4062.11 2360.23 4049.23 2373.11 4049.23 2389 4049.23 2404.89 4062.11 2417.77 4078 2417.77 4093.89 2417.77 4106.77 2404.89 4106.77 2389 4106.77 2373.11 4093.89 2360.23 4078 2360.23ZM4078 2357C4095.67 2357 4110 2371.33 4110 2389 4110 2406.67 4095.67 2421 4078 2421 4060.33 2421 4046 2406.67 4046 2389 4046 2371.33 4060.33 2357 4078 2357Z" fill-rule="evenodd"/></g></svg>