<svg width="65" height="65" xmlns="http://www.w3.org/2000/svg" xmlns:xlink="http://www.w3.org/1999/xlink" xml:space="preserve" overflow="hidden"><g transform="translate(-2786 -2323)"><path d="M2833 2371.93 2841.57 2371.93 2841.57 2378.45 2841.57 2378.57 2833 2378.57 2833 2378.45ZM2821.76 2371.93 2829.05 2371.93 2829.05 2378.45 2829.05 2378.57 2821.76 2378.57 2821.76 2378.45ZM2804 2371.93 2817.82 2371.93 2817.82 2378.45 2817.82 2378.57 2804 2378.57 2804 2378.45ZM2795.43 2371.93 2795.54 2371.93 2800.06 2371.93 2800.06 2378.45 2800.06 2378.57 2795.54 2378.57 2795.43 2378.57 2795.43 2378.45ZM2833 2361.34 2841.57 2361.34 2841.57 2367.98 2833 2367.98ZM2821.76 2361.34 2829.05 2361.34 2829.05 2367.98 2821.76 2367.98ZM2804 2361.34 2817.82 2361.34 2817.82 2367.98 2804 2367.98ZM2795.43 2361.34 2795.54 2361.34 2800.06 2361.34 2800.06 2367.98 2795.54 2367.98 2795.43 2367.98ZM2833 2350.75 2841.57 2350.75 2841.57 2357.39 2833 2357.39ZM2821.76 2350.75 2829.05 2350.75 2829.05 2357.39 2821.76 2357.39ZM2804 2350.75 2817.82 2350.75 2817.82 2357.39 2804 2357.39ZM2795.43 2350.75 2795.54 2350.75 2800.06 2350.75 2800.06 2357.39 2795.54 2357.39 2795.43 2357.39ZM2833 2340.16 2841.57 2340.16 2841.57 2346.8 2833 2346.8ZM2821.76 2340.16 2829.05 2340.16 2829.05 2346.8 2821.76 2346.8ZM2804 2340.16 2817.82 2340.16 2817.82 2346.8 2804 2346.8ZM2795.43 2340.16 2795.54 2340.16 2800.06 2340.16 2800.06 2346.8 2795.54 2346.8 2795.43 2346.8ZM2791.48 2328.48 2791.48 2328.49 2791.48 2331.3 2791.48 2378.45 2791.48 2382.51 2791.48 2382.52 2795.54 2382.52 2842.7 2382.52 2845.51 2382.52 2845.51 2382.51 2845.52 2382.51 2845.52 2378.45 2845.52 2331.3 2845.52 2328.49 2845.51 2328.49 2845.51 2328.48 2842.7 2328.48 2795.54 2328.48ZM2786 2323 2851 2323 2851 2388 2786 2388Z" fill-rule="evenodd"/></g></svg>