<svg xmlns="http://www.w3.org/2000/svg" width="400" height="200" viewBox="-1.4 19.7 71.4 35.7"><path d="M30 28c-2.8 2.4-4.5 3-8.5 3-4.7.1-13.7 1.8-17.8 3.5-1.1.5-1.6 1.4-1.2 2.3.3.8.1 1.8-.5 2.2-3.4 2.1 15 8 25.1 8 3.4 0 7.3.7 9.4 1.7 2.8 1.3 3.8 1.4 4.8.4.9-.9.9-1.4-.1-2-1.1-.7-1-1 .3-1.5 2.7-1 5.4-.7 8 1 1.4.9 3.2 1.3 4.1 1 1.5-.6 1.5-.8 0-2.5-1.6-1.8-1.5-1.8 3.4-.8 4.7.9 5.3.8 9-1.8 2.2-1.5 4-3.3 4-3.9 0-.7-1.3-2.5-2.9-4-3.2-3.1-5-3.3-14.6-2.1l-6 .8 2.8-2.2c5.3-4.3 2.3-5.7-3.3-1.6-2.2 1.6-4.7 2.5-7.2 2.5-3.7 0-3.8-.1-3.8-3.5 0-1.9-.3-3.5-.7-3.5-.5 0-2.4 1.4-4.3 3"/></svg>