<svg xmlns="http://www.w3.org/2000/svg" width="400" height="200" viewBox="-567 -680 2960 1480"><path fill="currentColor" d="M173 60c0-204.667 72.167-379.17 216.5-523.5S708.333-680 913-680c204.67 0 379.17 72.17 523.5 216.5S1653-144.667 1653 60s-72.17 379.167-216.5 523.5S1117.67 800 913 800q-307 0-523.5-216.5C173 367 173 264.667 173 60m474 452q52.002 16 115 24.5 63 8.502 138 8.5 166.005 0 261-73c63.34-48.667 95-116 95-202-.01-58.667-18.34-111-55-157-36.67-46.001-84-76.334-142-91 110.67-40.667 166-115.667 166-225 0-75.33-26.34-131.67-79-169-52.67-37.34-132-56.01-238-56-43.333.02-86.333 3.35-129 10-42.667 6.68-84.667 17.01-126 31v191h89l1-24c4.004-58.67 14.338-92.33 31-101 33.333-17.34 68-26.01 104-26q160 0 160 165Q1038-9 786-9h-54v81h64q268 0 268 206 0 84-51 135c-51 51-78.333 51-133 51q-62.001 0-116-30-26.004-13-31-93l-2-24h-84z"/></svg>