<svg xmlns="http://www.w3.org/2000/svg" width="400" height="200" overflow="hidden" viewBox="-21.999 -0.001 64 32"><defs><clipPath id="a"><path d="M222 359h20v33h-20z"/></clipPath></defs><g clip-path="url(#a)" transform="translate(-222 -359)"><path fill-rule="evenodd" d="M230.305 383.185a.74.74 0 0 0-.526.012.78.78 0 0 0-.44.39c-.077.143-.088.193-.088.387 0 .193.011.244.087.387.215.399.662.548 1.083.357.164-.077.282-.202.387-.423.065-.134.073-.181.062-.354-.025-.363-.246-.655-.565-.756m-2.817-3.422a.587.587 0 0 0-.374.802c.124.286.432.417.704.298a.59.59 0 0 0 .29-.774.54.54 0 0 0-.29-.298.5.5 0 0 0-.33-.028m3.683-.275a.95.95 0 0 0-.417.097c-.135.075-.356.26-.359.301 0 .02-.008.039-.022.039-.012 0-.048.065-.085.149-.037.08-.074.148-.085.148s-.023.069-.025.152c0 .093-.02.164-.043.179-.028.02-.028.033-.003.05.02.012.04.09.043.17a.6.6 0 0 0 .025.164c.009.009.046.08.082.164.074.166.305.42.452.497.164.086.566.155.61.104.012-.012.049-.02.08-.02.11 0 .348-.14.486-.287a.95.95 0 0 0 .277-.485c.15-.539-.104-1.12-.59-1.346a1 1 0 0 0-.426-.076m-2.912-3.731a.96.96 0 0 0-.653.003c-.427.142-.743.604-.743 1.083 0 .343.178.712.446.93.144.115.438.216.627.216.19 0 .484-.1.628-.217.376-.303.528-.807.39-1.274a1.1 1.1 0 0 0-.695-.741m3.527-1.024c-.26-.096-.509-.036-.718.17a.6.6 0 0 0-.147.205c-.009.047-.031.083-.045.083-.017 0-.029.113-.029.268 0 .146.012.268.026.268s.04.038.054.09a.8.8 0 0 0 .147.205c.347.348.876.247 1.107-.215.051-.098.065-.175.065-.348s-.014-.25-.065-.348a.77.77 0 0 0-.395-.378m-5.13-2.408a.74.74 0 0 0-.362.216c-.556.587.017 1.557.766 1.295.291-.1.51-.423.51-.744 0-.313-.219-.64-.496-.738a.7.7 0 0 0-.417-.03m9.266-.83c.028.008.054.035.054.056q0 .043.113.041c.062 0 .113.012.113.03 0 .015.031.03.07.03.046 0 .071.018.071.045 0 .032.031.044.113.044s.113.012.113.045c0 .036.048.045.269.045.16 0 .268.011.268.03 0 .017.119.029.297.029.246 0 .297.009.297.045s.045.044.226.044c.18 0 .226.01.226.045 0 .033.034.045.141.045.08 0 .142.012.142.03 0 .014.07.03.155.03.119 0 .155.008.155.044 0 .027.026.044.068.044.037 0 .074.021.085.045.009.027.054.045.116.045.054 0 .099.012.099.03 0 .014.04.03.088.03.045 0 .079.011.07.023-.02.036.088.125.153.125.03 0 .056.021.056.045s.02.045.043.045.042.02.042.044.017.045.04.045c.034 0 .384.39.384.429 0 .03-.534.017-.551-.012-.011-.018-.283-.03-.724-.03-.607 0-.703-.006-.703-.045 0-.038-.116-.044-.862-.044-.557 0-.862-.012-.862-.03s-.08-.03-.184-.03c-.144 0-.184-.009-.184-.045 0-.032-.03-.044-.113-.044-.082 0-.113-.012-.113-.045 0-.036-.037-.045-.155-.045-.142 0-.156-.005-.156-.065 0-.039.11-.325.243-.637.21-.488.252-.569.297-.557m-11.427-2.972c.014 0 .02.021.011.045-.011.024-.022.045-.028.045s-.011-.021-.011-.045.011-.045.028-.045m12.605-1.867c.263 0 .424.012.424.03s.084.03.198.03c.158 0 .197.009.197.045 0 .032.031.044.113.044s.113.012.113.045.032.045.114.045c.062 0 .113.012.113.03 0 .014.065.03.14.03.108 0 .142.011.142.044q.002.044.08.044c.045 0 .104.021.135.045a.26.26 0 0 0 .138.045c.049 0 .187.03.311.065.184.054.325.066.772.075q.544.012.543-.021c0-.018.076-.03.183-.03.102 0 .184.009.184.02 0 .013-.02.1-.045.191-.04.143-.077.203-.215.343-.09.092-.175.16-.184.152-.008-.01-.034 0-.056.024-.023.023-.09.044-.153.044-.06 0-.11.012-.11.03s-.178.03-.48.03c-.303 0-.481-.012-.481-.03s-.133-.03-.34-.03c-.282 0-.338-.009-.338-.044 0-.04-.108-.045-.792-.045s-.791.006-.791.045c0 .035-.04.044-.184.044h-.183v-.52c0-.445-.006-.522-.043-.522q-.044.002-.042-.107c0-.08.014-.11.056-.122.031-.009.057-.027.057-.042s.192-.027.424-.027m-5.343-1.668c-.166-.004-.322.003-.322.026 0 .015-.071.038-.156.047a.7.7 0 0 0-.257.093.5.5 0 0 1-.124.071.4.4 0 0 0-.12.09c-.05.05-.106.083-.126.074-.02-.006-.037 0-.037.018s-.031.06-.068.089a.27.27 0 0 0-.085.131c-.01.042-.03.075-.045.075-.017 0-.028.02-.028.044s-.011.045-.028.045c-.015 0-.029.018-.029.041a.15.15 0 0 1-.04.087c-.027.027-.044.116-.047.244-.006.181 0 .205.062.259.056.048.096.053.251.039.102-.01.402-.024.667-.036l.484-.018.364.128a4 4 0 0 1 .492.208c.294.173.367.227.367.26 0 .02.026.038.054.038a.16.16 0 0 1 .093.036.7.7 0 0 0 .306.143c.03 0 .084-.048.127-.11.06-.096.07-.146.07-.34 0-.122-.017-.283-.04-.357a2 2 0 0 1-.056-.211 1.6 1.6 0 0 0-.18-.313 3 3 0 0 1-.184-.286c-.009-.027-.031-.05-.048-.05-.014 0-.029-.018-.029-.042s-.03-.05-.07-.06c-.04-.012-.065-.032-.057-.047.009-.018-.008-.03-.04-.03-.092 0-.143-.033-.143-.092 0-.03-.02-.057-.043-.057s-.042.012-.042.03-.028.015-.07-.006c-.04-.018-.071-.05-.071-.075 0-.02-.032-.038-.071-.038-.04 0-.07-.015-.07-.03 0-.018-.035-.03-.077-.03a.4.4 0 0 1-.15-.044c-.04-.024-.217-.04-.384-.044m-.682-.592c.078.004.248.02.614.055l.627.06.467.262c.254.142.508.282.562.31.102.056.803.949.803 1.023 0 .024.011.066.025.096.093.193.288.768.266.789-.009.012.006.038.03.065.04.042.046.134.046.622 0 .465-.008.584-.04.614-.022.018-.036.05-.028.071.012.033-.155.566-.206.652a.2.2 0 0 0-.023.084c-.008.107-1.031 1.363-1.031 1.265 0-.01-.026.006-.057.036-.034.026-.065.047-.073.041-.006-.003-.037.018-.068.045a1 1 0 0 1-.19.128 2 2 0 0 0-.172.11.15.15 0 0 1-.093.039c-.028 0-.054.009-.054.024 0 .012-.277.053-.613.092-.644.071-.692.071-1.167-.039-.04-.009-.178-.041-.305-.068q-.238-.053-.306-.12c-.04-.038-.082-.068-.099-.068-.014 0-.025-.015-.025-.03a.03.03 0 0 0-.031-.03c-.07 0-.455-.327-.746-.637-.334-.35-.45-.518-.421-.595q.015-.047-.026-.048c-.048 0-.178-.265-.198-.402-.008-.05-.059-.33-.116-.625l-.101-.536.045-.327c.056-.435.085-.521.316-1.033a2.9 2.9 0 0 1 .478-.79 8 8 0 0 0 .45-.598c.01-.02 1.285-.482 1.336-.482.034 0 .06-.015.06-.03 0-.02-.014-.029.064-.025m-7.905-.352c.115 0 .166.012.163.036-.005.021.032.042.077.054.048.009.082.026.076.041-.006.012.028.045.076.072.153.09.458.405.444.458-.006.027.006.057.028.066.023.009.04.038.04.062 0 .027.02.069.042.093a.5.5 0 0 1 .077.17.4.4 0 0 0 .053.14c.017.014.09.193.176.434.025.068.036.13.028.143-.009.009-.003.033.011.053.017.021.065.164.11.319.057.2.094.283.13.295.029.006.051.032.051.053 0 .024.02.042.043.042.03 0 .042.033.042.12 0 .065.014.118.028.118.017 0 .029.021.029.045s.017.044.04.044q.037 0 .058.152c.02.14.006.19-.214.79-.22.598-.308.755-.308.559 0-.098-.029-.149-.226-.42-.09-.125-.159-.244-.15-.268.008-.02 0-.038-.017-.038-.068 0-.144-.105-.144-.197 0-.06-.017-.101-.046-.113-.036-.015-.045-.048-.033-.167.01-.113.005-.149-.023-.149s-.04-.044-.04-.163c0-.125-.008-.164-.042-.164-.031 0-.042-.036-.042-.146 0-.083-.012-.158-.029-.167-.014-.009-.028-.104-.028-.211 0-.104-.011-.19-.025-.19s-.046-.132-.074-.292c-.06-.346-.305-1.105-.45-1.379a1 1 0 0 1-.101-.244c0-.042.031-.05.17-.05m8.638-.012c-.04.003-.234.012-.438.015-.2.006-.373.021-.381.033-.009.015-.142.039-.297.06-.32.041-.418.059-.83.17l-.292.074-.3.268c-.163.149-.316.267-.336.267s-.037.021-.037.045-.008.045-.02.045a1 1 0 0 0-.177.149 1 1 0 0 1-.181.149c-.037 0-.164.154-.325.401a3 3 0 0 1-.198.274c-.034.036-.06.08-.06.096a.6.6 0 0 1-.053.128c-.031.053-.07.16-.09.238-.018.08-.043.143-.057.143s-.026.033-.026.074c0 .045-.017.075-.04.075-.03 0-.036.03-.025.119.014.098.009.119-.03.119-.037 0-.046.033-.046.164 0 .125-.008.163-.042.163-.031 0-.043.036-.043.15q0 .147-.034.148c-.028 0-.036.14-.036.596s.008.595.036.595c.026 0 .034.071.034.265 0 .253.006.28.136.586.17.402.226.515.463.956.25.462.566.801.927.992.133.068.252.145.263.166.012.024.048.042.08.042.07 0 .223.08.223.119 0 .018.03.03.068.03.036 0 .073.02.084.044.009.024.04.045.071.045.028 0 .136.039.235.09a.8.8 0 0 0 .296.089c.065 0 .127.012.136.03.008.014.099.03.2.03s.181.011.181.03c0 .017.162.029.424.029.263 0 .424-.012.424-.03s.08-.03.184-.03c.144 0 .184-.009.184-.044 0-.036.037-.045.155-.045.085 0 .156-.012.156-.027 0-.018.059-.038.135-.047.19-.027.195-.03.441-.18.125-.074.238-.133.255-.133.014 0 .053-.024.084-.057.034-.03.13-.095.215-.143.385-.22.413-.247.71-.678.155-.23.296-.414.31-.408.014.003.026-.018.026-.045 0-.03.06-.134.127-.23.088-.118.15-.255.2-.425.04-.134.085-.247.1-.247.01 0 .017-.018.008-.042-.008-.024.023-.175.07-.34.088-.29.088-.3.088-.967 0-.568-.005-.672-.042-.687-.031-.012-.042-.066-.042-.212 0-.152-.009-.193-.043-.193-.03 0-.042-.033-.042-.12 0-.065-.011-.118-.028-.118-.015 0-.029-.054-.029-.12 0-.065-.011-.119-.028-.119-.014 0-.028-.035-.028-.083 0-.05-.065-.182-.167-.345-.093-.146-.161-.283-.153-.307.009-.02-.005-.039-.03-.039a.045.045 0 0 1-.046-.044c0-.024-.011-.045-.025-.045s-.09-.107-.173-.241a1.4 1.4 0 0 0-.274-.33c-.065-.051-.121-.105-.121-.12 0-.012-.02-.024-.043-.024s-.042-.011-.042-.023c0-.015-.023-.04-.054-.054a1 1 0 0 1-.133-.095c-.511-.423-.545-.444-1.144-.661-.317-.113-.608-.206-.648-.203m-.514-1.167h.726l.763.158.764.16.438.215c.746.37.912.488 1.41 1.015.237.253.444.492.458.53.014.04.036.06.053.051.026-.018.043.048.031.116-.002.012.015.039.037.06.023.017.11.226.195.464.218.616.252.735.232.804q-.021.061.025.06c.037 0 .046.041.046.238 0 .19.008.238.042.238.037 0 .042.095.042.67 0 .574-.005.67-.042.67-.034 0-.042.05-.042.282 0 .215-.009.283-.037.283s-.034.045-.025.179c.01.143.002.182-.034.196s-.046.066-.046.253c0 .191-.008.236-.042.236q-.04.001-.042.074c0 .045-.017.075-.04.075-.031 0-.037.03-.025.119.014.098.008.119-.032.119-.03 0-.045.026-.045.086a.24.24 0 0 1-.042.134.2.2 0 0 0-.043.12c0 .038-.02.094-.045.121s-.04.057-.03.066.002.044-.015.08a.3.3 0 0 0-.04.104 2 2 0 0 1-.158.393c-.014.01-.022.03-.017.045a1 1 0 0 1-.045.188c-.037.113-.06.145-.076.119q-.026-.04-.026.071c0 .069-.014.12-.04.128-.022.009-.033.039-.025.074.009.03-.005.09-.03.131a.3.3 0 0 0-.046.12c0 .026-.02.053-.042.062-.026.012-.043.057-.043.12 0 .059-.017.11-.04.118-.022.01-.033.039-.025.075.009.032-.003.062-.03.074-.026.009-.046.05-.046.09 0 .044-.017.07-.042.07-.043 0-.057.117-.043.334.003.048-.011.084-.028.084-.057 0-.113.08-.113.16 0 .048-.017.078-.04.078-.03 0-.036.027-.025.104s.005.107-.031.122q-.044.02-.045.12c0 .065-.018.11-.043.118-.022.012-.042.05-.042.09 0 .041-.017.071-.04.071-.031 0-.037.03-.025.12.014.097.008.118-.031.118q-.045 0-.046.072a.6.6 0 0 1-.096.226c-.076.122-.124.27-.24.76-.13.553-.141.624-.124.83.014.2.011.226-.031.226-.037 0-.046.036-.046.209 0 .145-.01.208-.033.208-.029 0-.037.211-.032.97.003.536.014.98.023.989s.014.143.014.3c0 .158.02.414.045.57.023.154.054.383.068.505s.04.304.057.402.028.215.02.26c-.006.047 0 .083.01.083.012 0 .029.077.04.17.023.202.13.803.226 1.244.02.098.06.286.085.417.028.13.06.291.074.357.014.065.042.211.065.327.121.608.232 1.075.387 1.629.093.342.161.631.153.649-.009.015-.003.03.01.03.018 0 .04.053.049.119.011.065.028.128.042.134.012.009.031.08.043.158.008.077.028.16.042.187a1 1 0 0 1 .037.164c.011.062.113.62.229 1.233.265 1.408.268 1.476.084 2.122-.115.405-.138.462-.274.637-.147.188-.494.456-.596.456-.023 0-.048.015-.054.036-.017.05-.347.08-.918.08l-.486.003-.662-.164c-.624-.152-.7-.178-1.294-.45-.582-.261-.678-.318-1.198-.681a12 12 0 0 1-1.018-.798c-.42-.375-1.534-1.53-1.823-1.89-.19-.233-1.181-1.918-1.407-2.385-.187-.381-.905-2.168-1.003-2.49-.114-.362-.456-1.958-.543-2.527-.09-.56-.325-2.694-.325-2.93q0-.096-.043-.095c-.036 0-.042-.217-.042-1.771s.006-1.772.042-1.772.043-.086.043-.595c0-.456.008-.596.037-.596.025 0 .03-.092.025-.387-.008-.336-.006-.387.034-.387s.045-.053.045-.384c0-.312.009-.387.043-.402.025-.008.042-.053.042-.107 0-.128.393-2.063.424-2.096a.12.12 0 0 0 .028-.077c0-.027.017-.066.034-.084a.13.13 0 0 0 .037-.074c0-.086.33-.914.359-.896q.027.018.008-.045-.017-.062.026-.08a.08.08 0 0 0 .045-.069 1 1 0 0 1 .031-.16c.02-.078.042-.11.082-.11.045 0 .054-.015.037-.09-.014-.077-.003-.104.067-.173a.4.4 0 0 0 .097-.116c.005-.018.395-.45.864-.952.772-.834.882-.941 1.156-1.129.17-.113.32-.211.334-.217a.6.6 0 0 0 .116-.08.4.4 0 0 1 .155-.078c.04-.006.068-.027.065-.048-.006-.017.009-.035.031-.035.023 0 .045-.021.057-.045.008-.024.042-.045.073-.045s.057-.014.057-.03c0-.017.05-.03.113-.03.082 0 .113-.011.113-.044q0-.044.085-.044.084 0 .084-.045c0-.027.026-.045.071-.045.04 0 .07-.015.07-.03 0-.017.08-.03.184-.03.145 0 .184-.008.184-.044 0-.033.031-.045.113-.045s.113-.012.113-.044c0-.036.04-.045.184-.045.105 0 .184-.012.184-.03s.093-.03.226-.03c.18 0 .226-.008.226-.044 0-.039.099-.045.729-.045m6.694-2.023c.053.007.197.012.319.012.212 0 .218 0 .218.075 0 .048-.018.074-.043.074-.023 0-.042.018-.042.039 0 .042-.257.2-.325.2-.023 0-.043.008-.043.023 0 .012-.048.048-.104.08a.8.8 0 0 0-.167.126.22.22 0 0 1-.113.071c-.034 0-.04.01-.017.018.028.012.023.027-.02.06-.034.023-.073.032-.087.023q-.027-.012-.029.021c0 .021-.084.125-.183.23a1.3 1.3 0 0 0-.184.214c0 .015-.02.018-.043.009-.025-.012-.042 0-.042.03 0 .026-.011.047-.028.047-.014 0-.028.018-.028.039 0 .02-.037.074-.08.119a1 1 0 0 0-.163.268 1 1 0 0 1-.102.193c-.014.006-.023.036-.023.069s-.02.065-.042.074a.09.09 0 0 0-.043.075c0 .032-.045.152-.101.268-.054.116-.094.229-.085.253s.003.041-.012.041c-.016 0-.022.048-.01.12.013.098.01.119-.029.119-.034 0-.045.03-.045.119 0 .086-.012.119-.043.119s-.042.033-.042.119-.011.119-.042.119-.04.02-.026.074c.014.057.006.075-.028.075s-.045.03-.045.116c0 .214-.065.179-.51-.265l-.406-.408.243-.414c.133-.226.379-.69.546-1.03.17-.34.316-.61.33-.601.011.009.023-.01.023-.039 0-.03.118-.158.285-.307l.325-.288c.045-.051.571-.307.622-.307.023 0 .04-.012.04-.03 0-.015.073-.033.163-.038.088-.007.207-.01.26-.004m-11.732-.136c.113 0 .297.015.41.033.192.032.212.041.373.205.093.092.217.214.277.268.056.054.104.113.104.137s.011.042.028.042c.015 0 .034.047.046.11.011.06.036.143.056.184.028.057.04.209.04.53 0 .387.005.456.042.456s.043.077.037.586l-.009.587-.508.47q-.507.47-.518.426c-.005-.024-.028-.045-.05-.045-.034 0-.04-.098-.04-.58 0-.459.009-.58.037-.58s.034-.06.025-.269c-.011-.226-.005-.27.034-.286.031-.011.045-.053.045-.134 0-.089.012-.116.048-.116.043 0 .046-.056.029-.63l-.017-.632-.139-.286-.141-.283-.21-.095-.206-.095Zm6.588-1.705c.029-.005.029.01.029.042 0 .06-.255.545-.289.545-.01 0-.022.033-.022.071 0 .04-.02.078-.043.09a.045.045 0 0 0-.025.056c.008.024-.006.063-.028.09a.18.18 0 0 0-.046.107c0 .036-.016.062-.042.062-.025 0-.042.027-.042.075 0 .041-.012.074-.029.074-.014 0-.028.03-.028.069 0 .038-.02.095-.042.128a.34.34 0 0 0-.043.166c0 .078-.01.114-.042.114-.031 0-.037.03-.023.148.015.12.009.152-.03.167-.04.015-.046.084-.046.518 0 .435.006.503.045.518.04.015.046.05.034.212-.014.151-.008.193.023.193.028 0 .04.042.04.149v.149h-1.131v-.343c0-.28.008-.348.042-.36.037-.015.043-.119.043-.685 0-.571.005-.666.042-.666.031 0 .042-.036.042-.15 0-.112.012-.148.043-.148s.04-.021.025-.075c-.011-.053-.003-.08.029-.092.025-.009.045-.05.045-.09 0-.044.017-.07.042-.07q.041-.001.043-.075c0-.048.017-.075.042-.075.023 0 .042-.017.042-.038 0-.033.15-.2.178-.2.006 0 .085-.074.176-.163.093-.09.183-.164.2-.164.02 0 .04-.021.051-.045.009-.024.048-.045.088-.045s.07-.014.07-.03c0-.017.023-.03.051-.03.029 0 .062-.008.074-.02a1.2 1.2 0 0 1 .209-.101c.116-.05.174-.074.203-.078"/></g></svg>