<svg xmlns="http://www.w3.org/2000/svg" width="400" height="200" viewBox="-276.05 1 834 417"><path d="M33 16v15h12v363H.9l.3 12c.2 6.6.6 12 1.1 12H281v-24h-44V31h12V1H33zm47.1 24.6c-.2 5 0 11 .4 13.1.6 4 .7 4.1 12.3 9.5 59.7 28.1 106.1 49.8 107.1 50 .8.2 1.2-10.4 1.4-40.7l.2-41h10l.3 181.3.2 181.3-5.2-.3c-3.3-.2-5.3-.8-5.4-1.6-.1-.6-.2-34.5-.3-75.2l-.1-74H81l-.5 2.2c-.3 1.3-.4 35.3-.3 75.6l.3 73.2H70V30.9l5.3.3 5.2.3zm72.3 229.8c2.3 1.3 5.6 4.4 7.2 6.7 2.6 3.8 2.9 5 2.9 12.4 0 7.2-.3 8.6-2.7 12.3-8.7 13.1-28.9 13.1-37.6 0-2.4-3.7-2.7-5.1-2.7-12.2s.3-8.6 2.6-11.8c7.2-10.5 19.8-13.6 30.3-7.4"/></svg>