<svg xmlns="http://www.w3.org/2000/svg" width="400" height="200" overflow="hidden" viewBox="-15 1 60 30"><defs><clipPath id="a"><path d="M994 154h30v31h-30z"/></clipPath></defs><g clip-path="url(#a)" transform="translate(-994 -154)"><path fill-rule="evenodd" d="M1008.89 164.369q-.795 0-1.44.392-.63.392-1.11 1.013c-.31.415-.58.883-.8 1.406s-.4 1.058-.53 1.606q-.21.822-.3 1.596c-.05.517-.08.972-.08 1.368 0 .943.17 1.669.5 2.179q.495.765 1.68.765c.31 0 .61-.054.93-.162.31-.109.64-.274 1-.498.35-.223.72-.516 1.12-.879.39-.363.83-.794 1.31-1.291l.9-4.971q-.72-1.224-1.47-1.874a2.54 2.54 0 0 0-1.71-.65m2.15-9.369q3.09 0 5.34.755t3.72 2.132a8.4 8.4 0 0 1 2.18 3.356q.72 1.978.72 4.407a22 22 0 0 1-.16 2.658 17.6 17.6 0 0 1-.52 2.639c-.24.853-.55 1.66-.94 2.418a8.2 8.2 0 0 1-1.43 1.998 6.2 6.2 0 0 1-1.97 1.348c-.75.325-1.61.488-2.57.488q-.78 0-1.44-.182a3.9 3.9 0 0 1-1.16-.526 3 3 0 0 1-.86-.889 3.6 3.6 0 0 1-.48-1.252c-.5.51-.99.946-1.46 1.31-.47.363-.93.659-1.39.889-.45.229-.89.395-1.33.497-.43.102-.85.153-1.27.153a5.7 5.7 0 0 1-1.43-.163 3.7 3.7 0 0 1-1.1-.478c-.32-.21-.59-.468-.82-.774q-.345-.459-.57-1.033a6 6 0 0 1-.32-1.262q-.09-.688-.09-1.491c0-.548.04-1.176.13-1.883s.23-1.438.43-2.19c.21-.752.48-1.488.83-2.208.36-.72.79-1.364 1.31-1.931a6.2 6.2 0 0 1 1.86-1.377c.72-.35 1.55-.526 2.51-.526.4 0 .78.048 1.15.144s.73.245 1.07.449.66.459.98.765q.465.459.96 1.09l.32-1.683a.62.62 0 0 1 .34-.401c.17-.09.5-.134.98-.134.22 0 .42.013.57.038.16.026.28.06.37.105q.135.067.18.163c.03.063.03.14.01.229l-1.68 8.796q-.3 1.664.15 2.457c.3.529.88.793 1.72.793.51 0 .98-.131 1.39-.392.42-.261.78-.615 1.09-1.061.32-.446.58-.966.8-1.558.21-.593.39-1.218.52-1.874.14-.657.24-1.329.31-2.017q.09-1.033.09-1.989c0-1.109-.15-2.164-.44-3.164a6.46 6.46 0 0 0-1.52-2.639c-.72-.758-1.67-1.364-2.87-1.817s-2.71-.678-4.52-.678c-1.48 0-2.8.165-3.95.497q-1.74.497-3.06 1.348c-.88.567-1.63 1.22-2.26 1.96a12.8 12.8 0 0 0-1.589 2.361 15 15 0 0 0-1.046 2.562 21 21 0 0 0-.603 2.524 22 22 0 0 0-.273 2.285 30 30 0 0 0-.066 1.817q0 2.121.481 3.881a7.2 7.2 0 0 0 1.666 3.04c.79.854 1.85 1.517 3.19 1.989 1.33.471 3 .707 5.03.707.91 0 1.74-.054 2.48-.162s1.39-.224 1.93-.345c.55-.121.99-.235 1.33-.344s.57-.162.7-.162c.08 0 .14.022.2.067.05.044.1.114.13.21s.05.217.07.363c.01.147.02.329.02.545 0 .179-.01.325-.01.44-.01.115-.03.22-.05.316-.03.095-.06.181-.11.258a.8.8 0 0 1-.17.21c-.08.064-.3.159-.65.287-.36.127-.85.255-1.46.382-.6.128-1.32.236-2.13.325q-1.23.134-2.7.134c-2.35 0-4.34-.28-5.96-.841q-2.443-.841-3.978-2.409-1.534-1.568-2.214-3.767-.678-2.199-.678-4.914 0-.995.104-2.285t.395-2.753q.292-1.464.82-2.983a17.3 17.3 0 0 1 1.366-2.974 15.2 15.2 0 0 1 2.035-2.743c.8-.861 1.74-1.613 2.83-2.257 1.08-.643 2.33-1.15 3.73-1.52 1.4-.369 2.98-.554 4.76-.554"/></g></svg>