<svg xmlns="http://www.w3.org/2000/svg" width="400" height="200" viewBox="0.7 -372.923 1987.6 993.8"><path d="M1659.6 2.2c-7.5 11.9-18.6 30.3-18.6 31 0 .5 3.6 8.5 8 17.9l8 17.1v19.5l-62.7.6c-175.1 1.9-420 2.8-607.3 2.2-275.9-.8-652.7-3.7-869.5-6.6-45.6-.6-90.6-.9-99.9-.7l-16.9.3 6.1 8.1c10.3 13.6 24.2 25.6 41.7 35.9 33.5 19.7 83.1 32.2 151 37.9 46 3.9 63.8 4.4 273.5 6.7 181.8 2 538-1.1 834-7.1 92.3-1.9 230-5 265.5-6 19.3-.5 46.8-1 61.3-1h26.2v22.7l-8 11.7c-4.4 6.4-8 12.2-8 12.9.1.7 5.6 10.4 12.3 21.7 11.5 19.2 12.5 20.5 15.4 20.8 3 .3 3.5-.3 11.7-12.1l8.5-12.4 16.3-.6c9-.4 27.8-1 41.8-1.3l25.5-.7 10.2 8.1c5.7 4.5 10.8 8.2 11.5 8.2s5.4-4.2 10.6-9.3l9.2-9.2 44.8-.3 44.7-.3 11.3 9.2 11.4 9.3 20-4.9c10.9-2.7 20.3-5.2 20.7-5.5.5-.3 4.8-15.3 9.6-33.4l8.8-32.9-9.9-29.6c-9-26.9-10.1-29.6-12.4-30.2-1.4-.4-14.1-3.9-28.2-7.8L1912 85h-37.7c-20.8 0-68.6.7-106.3 1.5s-73.2 1.5-78.8 1.5h-10.4l.8-12.3c.7-11.9.8-12.5 6.2-24.7 3-6.9 6-13.9 6.7-15.5 1.3-2.9 1-3.5-9-19l-10.2-16-6.1-.3c-5.4-.3-6.3 0-7.6 2m242.7 148.5c.7 1.5-2.5 43.8-3.4 44.8-.6.6-16.8 1.1-41.4 1.3l-40.4.4-10.9-8-11-8-8.1 4.6c-6.9 4-8.1 5.1-8.1 7.4 0 6-1 6.1-56 7.3l-26.5.6-8.2-10.7-8.3-10.6v-11.4c0-6.3.1-11.5.3-11.5.2-.1 201.9-6.4 215.9-6.8 3.1 0 5.9.2 6.1.6"/></svg>