<svg xmlns="http://www.w3.org/2000/svg" width="400" height="200" viewBox="-739.5 -680 2960 1480"><path fill="currentColor" d="M815 149q141-46 187-188h-88l-82-36q-19 35.003-53 53l36 82zM328-39H173v-148h155q66-271.995 339-339v-154h148v155c181.333 45.33 294.33 158 339 338h154v148h-154c-44.67 181.333-157.667 294.333-339 339v500H667V300Q394 233 328-39m240 0h-88q43 141 187 188V60l36-82q-35-18-54-53zm81-112q19-34.003 54-53l-36-82v-88c-95.333 30.67-157.667 93-187 187h88zm130-53q34.002 19 53 53l82-36h88c-24-72.67-76.333-131.33-157-176l-30-10v87z"/></svg>