<svg xmlns="http://www.w3.org/2000/svg" width="400" height="200" viewBox="-587 -717 2556 1278"><path fill="currentColor" d="M222 385q-49-119.001-49-237 0-121 54-236h117q40 0 59-13.5t64-74.5l28-37c30.667-42 52.334-70.33 65-85l186-197 50-222 28 7q158 37.005 158 186-.003 54-53 153l-15 28q-44.003 84-56 174h28c96.667 0 174.67 16.833 234 50.5 59.34 33.667 89 77.5 89 131.5 0 47.333-18.34 90.333-55 129 14.67 23.333 22 45.333 22 66q0 77.001-81 99 3 18 3 29 0 93-108 102 2 13.001 2 19-.003 52-36.5 78Q919 561 845 561h-44l-35-18q-66.002 18-116 18-18.002 0-56-3-120-55-223-173zm544 105 40 19q25.002 5 38 5 49 0 73.5-19c24.5-19 24.5-31.333 24.5-56q0-21-3-49 111 0 111-60 0-12-9-57c54.67-11.333 82-32 82-62 0-18.667-12.34-43.667-37-75q72-63 72-129 0-64.002-79.5-95.5Q999-120 840-120h-36l1-28c0-78.67 26-161.33 78-248l13-22c22.668-38 34.002-73.33 34-106 0-62.67-33.333-105.33-100-128l-40 185-201 214c-34.001 42.67-59.667 75.667-77 99q-65 90-96.5 105C384-34 342-34 258-34q-34 95-34 193 0 83 31 174h138q85 113 214 185l28-1q78 0 131-27"/></svg>