<svg xmlns="http://www.w3.org/2000/svg" width="400" height="200" viewBox="-587 -441 2556 1278"><path fill="currentColor" d="M1160-265c49 119 49 119 49 237 0 121 0 121-54 236h-117c-40 0-40 0-59 13.5S960 235 915 296l-28 37c-46 63-46 63-65 85L636 615l-50 222-28-7c-158-37-158-37-158-186 0-54 0-54 53-153l15-28c44-84 44-84 56-174h-28c-145 0-145 0-234-50.5S173 188 173 107c0-71 0-71 55-129-22-35-22-35-22-66 0-77 0-77 81-99-3-18-3-18-3-29 0-93 0-93 108-102-2-13-2-13-2-19 0-52 0-52 36.5-78S463-441 537-441h44l35 18c66-18 66-18 116-18 18 0 18 0 56 3 120 55 120 55 223 173zM616-370l-40-19c-25-5-25-5-38-5-49 0-49 0-73.5 19S440-356 440-319c0 21 0 21 3 49-111 0-111 0-111 60 0 12 0 12 9 57-82 17-82 17-82 62 0 28 0 28 37 75-72 63-72 63-72 129 0 64 0 64 79.5 95.5S383 240 542 240h36l-1 28c0 118 0 118-78 248l-13 22c-34 57-34 57-34 106 0 94 0 94 100 128l40-185 201-214c51-64 51-64 77-99 65-90 65-90 96.5-105s31.5-15 157.5-15c34-95 34-95 34-193 0-83 0-83-31-174H989c-85-113-85-113-214-185l-28 1c-78 0-78 0-131 27"/></svg>