<svg xmlns="http://www.w3.org/2000/svg" width="400" height="200" viewBox="-947.985 -720 3698 1849"><path fill="currentColor" d="M790-595c4 11.33 6 23 6 35-.001 52-24.667 86.34-74 103q-17.002 6-35 6c-52.001 0-86.667-24.67-104-74-3.342-11.34-5.009-23.01-5-35q.001-76.995 73-102 18-6 36-6c52.001 0 86.334 24.34 103 73m49-12q9 25.995 9 54-.003 66-47 114c-14.667-12.01-32-17.68-52-17q61.003-34.995 61-105 0-19.995-6-39c-19.333-55.34-58.333-83-117-83-14 .05-27.333 2.38-40 7-56 19.33-84 58-84 116 0 14.01 2 27.34 6 40 20.667 60.67 63 88 127 82-22.667 14.01-34.333 30.34-35 49q-99-10.005-134-111-9-25.995-9-54c0-78 37-129.67 111-155 20-7.37 39.667-11.03 59-11 74.667 0 125 37.67 151 113m427 481c5.31 24.003 3.65 38.669-5 44q-24-5-60-3c-16.67 15.334-46 34.667-88 58L667 127q-23.003 8.007-62 8h-43q-7 1-23 19.5c-16 18.5-18.333 18.833-23 19.5q-9 1.994-23-11-13-10-15-18-3-9.004 15-31 23.001-28 63-44 22.002-9 43-9 33 .004 56 20A9888 9888 0 0 0 831 7q0-6.013-12-13-15.005-8-17-11l-17 6q-65-131-81-177-24-64.005-39-171c5.333-26.67 11.333-44.33 18-53 5.333-6.01 18-13.68 38-23 34-9.99 65-1.66 93 25 48 74.67 77 129 87 163q16 92 33 185l-14 4q0 5-5.5 16.5C909-30 909-28.333 909-25q.02 6.01 7 8 31 7.998 179-53c2.02-10.003 5.68-19.337 11-28 12.67-20 32.33-34 59-42q24-7.02 45-7c32.67 0 51.33 7 56 21m58 1058q-12 88-54 197-58.005-39-150-124-67.004-87-327-810 12.004-6 31-33 9-27.001-10-70l170-62c8 21.334 21.67 43.001 41 65q16.995 3 57 1c168.67 504 249.33 782.667 242 836m-73 153L942 199h-53l-29 40c90.667 235.333 186.67 475.667 288 721 9.34 8.667 43.67 50.333 103 125"/></svg>