<svg xmlns="http://www.w3.org/2000/svg" width="400" height="200" viewBox="275 -153.25 1495 747.5"><path fill="currentColor" d="M1770 217c-.01 35.333-18.34 54.333-55 57h-78v43h30v81h-30v28h30v116h-55v-50h-89v50h-60V426h25v-28h-25v-81h25v-43H795q-19 36-43 36-23.002 0-37-36h-28v36q-56.003 0-56-36h-21q10.002 18 26 54 10.008 29 10 80 0 68-49.5 117c-49.5 49-71.167 49-114.5 49q-207 0-207-202 0-77 62-142-18-20-39-63-21-43.003-21-61 0-239 205-239 65 0 114.5 49C646-35 646-12.333 646 33q0 51-37 120h20q-1-25.004 17-32 9-4 38-3v35h29q13.002-35 37-35 24 .002 45 35h923c12.67.002 24.5 6.669 35.5 20q16.5 20.003 16.5 44M571 24q0-77-103-77-110 0-110 88 0 66 35 66 22 0 43-23 3 59 3 66-.003 13-13 40-15 31-17 39 1 5.001 17 35 13 24 13 39-.003 48-10 68-13-25-36-25-43 0-43 51 0 104 124 104 96 0 96-93 0-52-15-52-21 .002-24 25-3.002 30-32 30-30 0-30-45 0-63 68-68-26.004-20-26-70 0-52.001 26-73-68-5-68-68 0-45 30-45 29 0 32 30 3 25 24 25 16.003-.001 16-67"/></svg>