<svg xmlns="http://www.w3.org/2000/svg" width="400" height="200" viewBox="234.5 -178 1576 788"><path fill="currentColor" d="M1800 94c-59.33 100.667-126 186.667-200 258-178 172-378.33 258-601 258q-296 0-555-264Q336 236 245 82q100-.001 205-67 82-63 165-126 89-67.002 151-67 67 .008 137 23 48 19 96 39c88.67-38.669 169.33-58.003 242-58q84 0 262.5 134c119 89.334 217.83 134 296.5 134m-265 33q-136.005 3.008-381 14-34.995 3-87 16c-30.67 7.34-53.33 11.007-68 11q-20.003 0-64-15-49-16.004-91-19-135-12.016-346-7 102 56 205 112 167 82 296 82c136.67 0 315.33-64.667 536-194"/></svg>