<svg xmlns="http://www.w3.org/2000/svg" width="400" height="200" viewBox="-489 -709 3018 1509"><path fill="currentColor" d="M1638-518 381-60l-70-192 1257-457zm91 1318H383V-50h1346zM1561-517v-163l-89 32v164zm-177 65v-164l-89 32v165zm-183 63v-162l-89 32v163zm503 519-56-154h-95l56 154zm-194 0-56-154h-95l56 154zm-487-450v-164l-89 32v164zm300 450-56-154h-95l56 154zM840-257v-163l-90 32v164zm289 387-56-154h-95l56 154zM665-190v-164l-90 33v163zm273 320L882-24h-95l56 154zM481-127v-163l-89 32v164zm264 257L688-24h-94l55 154zm-189 0L499-24h-95l56 154z"/></svg>