<svg xmlns="http://www.w3.org/2000/svg" width="400" height="200" viewBox="-567 -680 2960 1480"><path fill="currentColor" d="M173 60c0-204.667 72.167-379.17 216.5-523.5S708.333-680 913-680c204.67 0 379.17 72.17 523.5 216.5S1653-144.667 1653 60s-72.17 379.167-216.5 523.5S1117.67 800 913 800q-307 0-523.5-216.5C173 367 173 264.667 173 60m575-26q-180 97-180 255 0 118 91.5 187c91.5 69 143.833 69 248.5 69 102.67 0 186-25.667 250-77s96-118.667 96-202q0-161-204-267c107.33-58.668 161-130.334 161-215 0-64-26-115.33-78-154s-121.33-58-208-58c-91.334 0-165.167 22.67-221.5 68-56.334 45.33-84.501 104.67-84.5 178q0 125 129 216m228-74-52-28q-150-80-150-157 0-52.005 41-87c27.333-23.34 61-35 101-35 90 0 135 47.67 135 143q0 89-75 164M807 77l81 43q131.003 69 164.5 102c22.34 22 33.5 52.333 33.5 91 0 44-15.84 80.167-47.5 108.5-31.67 28.333-72.167 42.5-121.5 42.5q-174 0-174-195 .002-96 64-192"/></svg>