<svg xmlns="http://www.w3.org/2000/svg" width="400" height="200" viewBox="-567 -680 2960 1480"><path fill="currentColor" d="M173 60c0-204.667 72.167-379.17 216.5-523.5S708.333-680 913-680c204.67 0 379.17 72.17 523.5 216.5S1653-144.667 1653 60s-72.17 379.167-216.5 523.5S1117.67 800 913 800q-307 0-523.5-216.5C173 367 173 264.667 173 60m1102-2q0-216-100.5-351C1074-428 1020.33-428 913-428c-107.333 0-194.333 45.17-261 135.5S552-84.667 552 60q0 215 100.5 350C753 545 806.333 545 913 545c107.33 0 194.5-45 261.5-135S1275 202.667 1275 58m-199 0c0 270.667-54.67 406-164 406q-162 0-162-406 0-405 164-405 162 0 162 405"/></svg>