<svg xmlns="http://www.w3.org/2000/svg" width="400" height="200" viewBox="-704 -678 3456 1728"><path fill="currentColor" d="M1600-294q0 192-249 343-135 82-135 216v209H832V282q0-111 61.5-212.5T1054-77q162-74 162-217 0-81-55.5-136.5C1105-486 1078-486 1024-486s-99.5 18.5-136.5 55.5S832-348 832-294v114H448v-114c0-122 68.667-219.67 206-293 113.333-60.67 236.667-91 370-91 134 0 257.67 30.34 371 91 136.67 72.67 205 170.33 205 293M1216 858q0 81-55.5 136.5C1105 1050 1078 1050 1024 1050s-99.5-18.5-136.5-55.5S832 912 832 858s18.5-99.5 55.5-136.5S970 666 1024 666s99.5 18.5 136.5 55.5S1216 804 1216 858"/></svg>