<svg xmlns="http://www.w3.org/2000/svg" width="400" height="200" viewBox="-567 -680 2960 1480"><path fill="currentColor" d="m913 48 1 24q7.002 143 105.5 238c65.67 63.333 145.5 95 239.5 95 97.33 0 179.17-34.167 245.5-102.5 66.34-68.333 99.5-152.833 99.5-253.5 0-185.333-68.17-345-204.5-479S1101-631 913-631c-192.667 0-353.167 64.17-481.5 192.5S233.333-144 222 60q22-170 110-258c58.667-58.67 137.333-88 236-88 94 0 173.667 31.84 239 95.5Q905-95 913 48m444 12c0 27.335-9.67 50.668-29 70q-28.995 29.004-69 29c-27.33 0-50.67-9.667-70-29s-29-42.667-29-70c.01-27.333 9.68-50.667 29-70 19.34-19.333 42.67-29 70-29 27.34.005 50.5 9.67 69.5 29q28.5 29 28.5 70m-691 0q0-41-28.5-70-28.501-29-69.5-29-41 .006-70 29-29 29-29 70 .002 41.002 29 70 29 29.004 70 29 40-.004 69-29.5 29-29.502 29-69.5m987 0c0 204.667-72.17 379.167-216.5 523.5S1117.67 800 913 800q-307 0-523.5-216.5C173 367 173 264.667 173 60s72.167-379.17 216.5-523.5S708.333-680 913-680c204.67 0 379.17 72.17 523.5 216.5S1653-144.667 1653 60"/></svg>