<svg id="flat" height="512" viewBox="0 0 340 340" width="512" xmlns="http://www.w3.org/2000/svg"><path d="m76.905 30.5s13.63 6.656 22.386-5.93l3.042-6.674a10.075 10.075 0 0 0 -1.177-3.875 10.286 10.286 0 0 0 -8.356-5.237 18.517 18.517 0 0 0 -10.027 1.945l-5.869 9.2z" fill="#7a7a92"/><path d="m88.493 19.616c-2.066-5.5-4.629-8.006-5.716-8.879a18.334 18.334 0 0 0 -7.895 8.627v11.674s15.687 8.756 24.442-3.83c2.542-3.654 3.239-6.763 3.006-9.31a18.987 18.987 0 0 1 -3.286 4.188 6.522 6.522 0 0 1 -10.551-2.47z" fill="#40486f"/><path d="m90.386 26.5s6.2 17.329-6.019 26.449-24.077 5.651-24.077 5.651l-7.114-12.04 7.114-7.844s17.51-10.944 30.096-12.216z" fill="#40486f"/><path d="m44.988 45.19c-1.658-2.719-3.021-5.469-3.021-5.469a24.981 24.981 0 0 1 7.379-19.445c6.514-6.514 12.97-8.339 17.34-8.7a13.714 13.714 0 0 1 11.137 3.979c2.577 2.713 4.629 7.182 2.531 14.2-1.934 6.477-7.2 10.86-12.323 13.7l-11.754 4.545z" fill="#7a7a92"/><path d="m43.144 46.36 13.133 1.64a47.331 47.331 0 0 0 11.752-4.54 18.228 18.228 0 0 0 -26.059-3.739 25.349 25.349 0 0 0 1.174 6.639z" fill="#40486f"/><path d="m61.026 50.56s-.137-.274-.414-.723a14.805 14.805 0 0 0 -22.781-2.879c-8.331 7.918-23 27.283-22.81 65.381a120.464 120.464 0 0 0 2.687 25.008c15.362 36.821 42.1 43.792 76.552 30.512 0 0-48.482-7.3-53.956-52.392s20.722-64.907 20.722-64.907z" fill="#fce2cb"/><path d="m61.026 50.56s-7.015 1.771-14.293 9.024l-4 4.582a54.332 54.332 0 0 0 -8.657 17.475l-1.552 6.182a96.911 96.911 0 0 0 -1.767 21.534 25.062 25.062 0 0 1 .382 7.581 71.92 71.92 0 0 0 5.13 21.985l2.688 5.716a66.025 66.025 0 0 0 4.49 7.28c10.7 7.785 30.438-2.661 30.438-2.661s1.39-16.681-13.9-18.419c0 0 6.084-17.724-10.338-23.284 0 0 5.777-11.9-4.258-18.767 0 0 11.106-4.734 7.814-17.376-.003 0 16.163-4.518 7.823-20.852z" fill="#7a7a92"/><path d="m17.717 137.345c5.508 25.374 18.141 41.757 25.271 49.329a69.536 69.536 0 0 1 14.062 21.7 57.523 57.523 0 0 1 3.976 15.008l33.234-55.523s-18.607-2.806-34.068-15.66c-20.092 2.517-33.522-4.56-42.475-14.854z" fill="#e2a083"/><path d="m43.5 151.994c19.371 27.205 54.213 33.06 54.213 33.06l-5.062-28.154s-5.213-11.816-18.767-7.646c-11.952 3.574-21.972 4.182-30.384 2.74z" fill="#40486f"/><path d="m53.2 71.412a17.411 17.411 0 0 0 6.713-3.976c-2.4-2.916-7.209-7.673-13.18-7.851a44.5 44.5 0 0 0 -4 4.583c4.516.621 7.783 2.311 10.467 7.244z" fill="#40486f"/><path d="m45.387 88.788a15.709 15.709 0 0 0 6.219-5.388c-4.431.821-13.379 1.894-17.526-1.76-.583 1.942-1.1 4-1.553 6.182 4.782 3.591 12.86.966 12.86.966z" fill="#40486f"/><path d="m49.645 107.555a19.4 19.4 0 0 0 1.655-7.679c-7.133 5.36-15.614 8.021-20.539 9.481q.077 3.642.38 7.581a66.028 66.028 0 0 0 18.507-9.383z" fill="#40486f"/><path d="m38.956 144.639c9.818-3.185 21.027-13.8 21.027-13.8a24.894 24.894 0 0 0 .97-9.707c-7.738 9.12-20.387 15.715-24.68 17.789q1.227 2.979 2.683 5.718z" fill="#40486f"/><path d="m261.4 307.946s7.018 3.626 8.884 14.906a7.227 7.227 0 0 1 -7.114 8.421h-37.737v-24.855z" fill="#753662"/><path d="m97.714 292.747a111 111 0 0 1 2.566 19.364 24.944 24.944 0 0 0 4.122 13.262 13.956 13.956 0 0 0 11.446 5.9h16.171a6.422 6.422 0 0 0 6.252-7.94c-1.046-4.246-2.565-9.467-6.731-13.757a12.818 12.818 0 0 1 -3.266-11.454 21.179 21.179 0 0 1 7.128-11.951l-25.79-21.652z" fill="#753662"/><path d="m109.413 268.034s39.137 47.728 91.105 36.742l-3.744-17.55-86.053-41.826z" fill="#e2a083"/><path d="m79.739 186.7s-15.322 9.914-18.927 26.439c0 0-6.61 31.547 9.463 50.775 0 0-15.773 20.13-19.679 37.556a59.587 59.587 0 0 0 -.038 21.08 10.666 10.666 0 0 0 10.5 8.726h21a7.6 7.6 0 0 0 7.539-8.623 18.757 18.757 0 0 0 -5.084-10.587 5.2 5.2 0 0 1 .251-7.561l.17-.146a49.418 49.418 0 0 1 7.187-5.057c7.214-4.225 28.482-19.055 23.975-44.915l9.359 9.7c10.739 9.266 31.139 22.274 63.349 25.432l11.717-39.7z" fill="#aa6162"/><path d="m187.577 289.386-5.071-16.353a2.226 2.226 0 0 0 -4.266.041 39.246 39.246 0 0 0 -1.61 14.7q5.223.992 10.947 1.612z" fill="#753662"/><path d="m200.518 249.822-120.778-63.122a51.788 51.788 0 0 0 -11.522 11.03l.5 8.095a7.522 7.522 0 0 0 6.238 6.954l17.407 2.98a2.113 2.113 0 0 1 1.575 1.213 109.535 109.535 0 0 0 10.389 17.99 7.449 7.449 0 0 0 5.453 3.038 120.712 120.712 0 0 0 21.5-.123 2.126 2.126 0 0 1 2.209 1.276 79.709 79.709 0 0 0 16.211 24.286 7.525 7.525 0 0 0 4.5 2.155c5.559.6 18.942 1.717 27.867-.305a136.613 136.613 0 0 0 9.9 13.492z" fill="#753662"/><path d="m269.617 254.384h-43.624l-17.459 20.607c.81 10.726 5.6 21.3 12.88 31.77l15.742 4.293s10.332 2.6 24.642.116a57.943 57.943 0 0 1 24.377.77c8.425 2.172 20.178 2.963 30.285-4.543a.983.983 0 0 0 -.289-1.728c-6.223-2.016-13.545-7.141-21.1-12.933z" fill="#e2a083"/><path d="m304.631 291.611s10.317-.134 18.559 3.308a1.188 1.188 0 0 0 1.646-1.013c.308-4.265.582-15.73-4.32-24.043a43.98 43.98 0 0 0 -15.885 21.748z" fill="#753662"/><path d="m269.617 276.75 2.994-8.983 11.528-16.767a86.926 86.926 0 0 1 9.04-.246 20.88 20.88 0 0 1 10.336 2.977c4.9 2.942 12.2 8.284 17 16.131a71.874 71.874 0 0 0 -18.442 28.038s-11.5.551-17.934-7.383z" fill="#aa6162"/><path d="m269.617 276.75a39.731 39.731 0 0 0 -9.88 17.215s13.623 5.39 24.4-3.443c.002 0-1.346-10.928-14.52-13.772z" fill="#753662"/><path d="m188.868 250.735-8.215 14.838c-2.039 15.929 1.531 38.779 32.758 52.232l.614 4.859a9.844 9.844 0 0 0 9.766 8.609h16.226a7.9 7.9 0 0 0 7.668-9.777 31.77 31.77 0 0 0 -15.792-20.958c-18.482-10.214-12.4-35.263-12.4-35.263z" fill="#aa6162"/><path d="m219.491 265.275-33.8-17.51a61.473 61.473 0 0 0 -5.031 17.808h.014a2.127 2.127 0 0 1 2.169.913 133.7 133.7 0 0 0 13 16.693 7.206 7.206 0 0 0 5.078 2.285 147.849 147.849 0 0 0 18.919-.613 43.767 43.767 0 0 1 -.349-19.576z" fill="#753662"/><path d="m225.433 268.782c-17.76 4.461-34.758-8.737-38.793-16.253 0 0-19.593 1.347-30.274.16 0 0-10-12.29-15.934-26.769 0 0-17.187 1.105-26.681-.319 0 0-9.851-11.938-13.886-21.67l-19.185-4.3s-2.133-15.395.478-29.637c0 0 9.642-17.757 21.51-25.353l6.537-.209 11.946 3.355a6.786 6.786 0 0 0 4.041-.111c3.907-1.338 12.791-4.3 19.485-5.952a5.527 5.527 0 0 1 5.417 1.632 143.161 143.161 0 0 1 10 12.284 6.81 6.81 0 0 0 7.927 2.423 155.1 155.1 0 0 1 15.279-5.013 5.534 5.534 0 0 1 6.227 2.7c1.667 3.052 4.132 7.521 6.287 11.257a6.783 6.783 0 0 0 7.363 3.232 141.673 141.673 0 0 1 17.538-2.905 5.472 5.472 0 0 1 5.2 2.705 69.166 69.166 0 0 1 6.611 15.178 6.807 6.807 0 0 0 7.213 4.9 100.846 100.846 0 0 1 13.937-.51 5.541 5.541 0 0 1 4.946 3.591 91.9 91.9 0 0 1 3.959 13.308 6.885 6.885 0 0 0 4.863 5.3 45.281 45.281 0 0 1 5.706 2 6.321 6.321 0 0 1 3.788 5.542c.178 4.5.433 12.667.355 21.145-.002-.006-47.399 27.168-51.86 28.289z" fill="#7a7a92"/><path d="m226.3 273.661a24.612 24.612 0 0 0 12.026-6.2c14.135-13.19 32.041-11.813 32.041-11.813l6.409-1.266c.322-4.338.468-9.165.512-13.9-18.559-2.994-32.742 6.31-39.511 12.077a41.369 41.369 0 0 1 -21.731 9.713c-1.812.223-3.427.352-4.691.427a4.4 4.4 0 0 1 -4.128-2.282l-9.417-17.217a4.391 4.391 0 0 0 -4.123-2.281c-12.438.783-25.073.742-30.3.68a4.4 4.4 0 0 1 -3.762-2.216c-5.231-9.114-9.272-17.209-11.251-21.3a4.394 4.394 0 0 0 -4.435-2.443 98.589 98.589 0 0 1 -21.247-.01 4.389 4.389 0 0 1 -3.588-2.8l-6.045-15.812a4.4 4.4 0 0 0 -3.389-2.771l-12.932-2.153a4.4 4.4 0 0 1 -3.648-3.815l-1.855-15.365c2.171-13.713 12.736-24.091 17.971-28.484l-7.127-2c-11.869 7.593-23.974 26.82-23.974 26.82-2.175 11.86-.728 26.518-.183 31.089a2.117 2.117 0 0 0 1.566 1.8l17.321 4.591a2.13 2.13 0 0 1 1.4 1.209c3.625 8.194 10.8 18.149 12.823 20.882a2.1 2.1 0 0 0 1.421.844c7.876 1 20.188.284 24.439-.01a2.128 2.128 0 0 1 2.094 1.291 100.021 100.021 0 0 0 15.223 23.835 2.088 2.088 0 0 0 1.388.719c9.1.833 23.889-.513 28.427-.97a2.1 2.1 0 0 1 2.028 1.027c3.894 6.6 12.355 16.655 14.656 19.351a2.12 2.12 0 0 0 1.487.745 99.165 99.165 0 0 0 24.105-1.992z" fill="#40486f"/><g fill="#753662"><path d="m264.528 249.953a69.074 69.074 0 0 0 8.083 17.814 68.529 68.529 0 0 0 12.276 0s1.2-9.73-.748-16.766a97.228 97.228 0 0 0 -19.611-1.048z"/><path d="m125.453 264.086c-1.777-8.65-5.93-13.8-8.779-16.438a1.228 1.228 0 0 0 -2.021 1.215l1.44 5.521a61.74 61.74 0 0 0 9.36 9.702z"/><path d="m84.347 236.493c-.874-.506-1.752-1.066-2.6-1.642l-1.335-.976a1.363 1.363 0 0 1 -.531-1.374l.948-4.611a3.464 3.464 0 0 0 2.9-6.206 76.157 76.157 0 0 1 -6.869-5.529 3.464 3.464 0 1 0 -4.652 5.134c.071.065.8.718 1.843 1.615a1.363 1.363 0 0 1 .459 1.317l-.922 4.486a3.456 3.456 0 0 0 -3.59 5.789 77.251 77.251 0 0 0 10.881 7.993 3.465 3.465 0 0 0 3.473-6z"/><path d="m96.4 251.255a3.449 3.449 0 0 1 -1.919-.582l-1.424-.949a3.465 3.465 0 0 1 3.844-5.765l1.424.95a3.464 3.464 0 0 1 -1.925 6.346z"/><path d="m61.5 245.961a44.808 44.808 0 0 0 8.771 17.95l4.786-6.956a3.074 3.074 0 0 0 -2-4.77 20.6 20.6 0 0 1 -11.557-6.224z"/><path d="m63.055 291.722a3.464 3.464 0 0 0 2.945-6.273 31.8 31.8 0 0 1 -6.782-4.734c-1.132 2.009-2.249 4.12-3.3 6.288a35.721 35.721 0 0 0 7.137 4.719z"/><path d="m65.236 307.545a3.505 3.505 0 0 0 .6.052 3.464 3.464 0 0 0 .592-6.877c-5.252-.916-10.639-3.982-13.8-6.038a54.755 54.755 0 0 0 -2.031 6.785s-.008.038-.023.113c3.746 2.267 9.149 5.004 14.662 5.965z"/><path d="m223.284 323.142a4.545 4.545 0 0 0 -3.957-4.054 34.782 34.782 0 0 1 -5.916-1.283l.614 4.859a9.844 9.844 0 0 0 9.766 8.609h2.526a16.385 16.385 0 0 1 -3.033-8.131z"/></g><path d="m300.068 269.781a3.445 3.445 0 0 1 -1.715-.456l-1.8-1.029a3.464 3.464 0 1 1 3.437-6.015l1.8 1.028a3.464 3.464 0 0 1 -1.722 6.472z" fill="#40486f"/><path d="m248.358 235.953-3.775-7.17a5.4 5.4 0 0 0 -4.963-2.9 118.989 118.989 0 0 0 -15.888 2.012 6.757 6.757 0 0 1 -7.055-3.179c-3.918-6.6-8.809-13.722-11.255-17.215a5.413 5.413 0 0 0 -4.3-2.317 106.6 106.6 0 0 0 -22.332 2.356 6.765 6.765 0 0 1 -7.44-3.715c-2.966-6.19-6.142-12.4-7.94-15.875a5.444 5.444 0 0 0 -4.652-2.934c-8.553-.285-16.46-.152-21.021-.021a6.7 6.7 0 0 1 -5.923-3.177 101.158 101.158 0 0 0 -6.949-9.781 5.419 5.419 0 0 0 -4.568-2.027l-11.117.663a.934.934 0 0 1 -.391-1.8 178.11 178.11 0 0 1 16.96-5.655 5.446 5.446 0 0 1 6.15 2.562l4.157 7.3a6.768 6.768 0 0 0 6.58 3.391 149.792 149.792 0 0 1 21.8-.664 5.44 5.44 0 0 1 4.338 2.494 119.711 119.711 0 0 1 8.058 14.885 6.754 6.754 0 0 0 7.166 3.87 137.638 137.638 0 0 1 23.919-1.487 5.466 5.466 0 0 1 4.373 2.4 159.337 159.337 0 0 1 9.318 15.7 6.748 6.748 0 0 0 6.621 3.619c3.957-.369 9.981-.81 16.045-.792a5.422 5.422 0 0 1 5.27 4.35 54.5 54.5 0 0 1 1.147 14.658 1.24 1.24 0 0 1 -2.333.449z" fill="#40486f"/><path d="m241.507 278.266c2.9-3.268 8.84-8.807 16.773-10.232v4.458a9.914 9.914 0 0 1 -1.709 5.576 50.281 50.281 0 0 0 -7.947 20.782s-10.084-4.1-10.121-12.982a11.477 11.477 0 0 1 3.004-7.602z" fill="#fce2cb"/></svg>