<?xml version="1.0" encoding="iso-8859-1"?>
<!-- Generator: Adobe Illustrator 19.0.0, SVG Export Plug-In . SVG Version: 6.00 Build 0)  -->
<svg version="1.1" id="Capa_1" xmlns="http://www.w3.org/2000/svg" xmlns:xlink="http://www.w3.org/1999/xlink" x="0px" y="0px"
	 viewBox="0 0 512 512" style="enable-background:new 0 0 512 512;" xml:space="preserve">
<path style="fill:#3081AA;" d="M510.438,194.233c-0.529-0.438-1.187-0.545-1.902-0.456c-4.485,2.927-9.035,5.775-13.604,8.598
	c-5.564,4.695-10.508,10.529-15.401,15.917c-5.735,9.22-12.974,18.601-21.572,24.894c-4.953,3.625-10.702,3.59-16.336,1.856
	c-1.84-0.42-3.717-1.057-5.631-1.91c-6.196-2.763-12.356-5.815-18.024-9.516c-21.246-13.875-43.281-25.925-68.229-31.827
	c-1.975-0.467-3.833-1.424-5.745-2.154c-5.394-2.061-10.684-5.937-13.759-10.916c-1.058-1.713-1.652-3.574-1.996-5.506
	c-1.071-1.454-1.113-3.282-0.447-4.946c-0.067-2.365-0.014-4.743-0.169-7.009c-0.041-0.601-0.134-1.189-0.252-1.77
	c-0.078-0.308-0.156-0.616-0.232-0.925c-0.046-0.188-0.091-0.374-0.138-0.563c-1.313-4.398-4.159-8.405-4.103-13.276
	c0.09-7.643,3.552-15.318,6.334-22.302c1.439-3.614,4.778-7.977-1.454-7.849c-4.002,0.082-7.652,2.917-11.44,3.927
	c-7.361,1.963-14.216,5.472-20.517,9.708c-5.659,3.805-10.819,8.662-16.937,11.418c-22.331,10.061-44.991,19.393-65.685,32.721
	c-18.358,3.56-34.193,13.307-51.01,20.667c-4.953,2.168-10.296,3.52-15.55,4.907c-10.542,2.783-21.234,5.027-31.702,8.057
	c-12.447,3.603-24.918,6.56-37.799,8.535c-13.396,2.053-26.766,4.772-39.998,7.605c-5.497,1.177-11.038,2.108-16.513,3.404
	c-4.255,1.006-15.71,2.335-18.218,6.057c7.367,2.838,16.028,2.325,23.789,3.339c18.762,2.45,37.489,3.795,56.068,7.078
	c1.34-0.092,2.684-0.153,4.035-0.145c0.77,0.004,1.405,0.281,1.902,0.704c2.748,0.198,5.567,0.696,6.719,2.821
	c1.812,3.352-2.131,2.931-4.51,3.015c-10.261,0.365-19.976,3.466-29.831,6.227c-5.809,1.627-11.744,2.257-17.665,3.332
	c-5.906,1.072-11.402,2.949-17.071,4.909c-1.279,0.442-9.933,2.451-10.188,4.399c-0.218,1.678,18.535,1.172,37.601,0.276
	c3.497-0.361,6.996-0.624,10.445-0.888c5.081-0.388,12.395-2.198,17.912-0.632c5.758-0.328,9.834-0.557,10.888-0.557
	c1.845,0,3.642,0.056,5.416,0.158c2.146-0.025,4.282,0.076,6.359,0.318c3.624,0.424,7.073,1.512,10.51,2.666
	c0.395,0.121,0.786,0.228,1.183,0.356c0.869,0.282,1.721,0.582,2.561,0.893c1.748,0.57,3.507,1.104,5.301,1.52
	c7.159,1.661,15.006,2.906,22.226,5.463c0.472,0.134,0.938,0.289,1.392,0.48c0.115,0.049,0.226,0.104,0.34,0.155
	c2.716,1.063,5.314,2.354,7.741,3.94c0.107,0.042,0.211,0.09,0.319,0.131c2.414,0.902,4.516,1.83,6.572,3.075
	c0.553,0.235,1.061,0.568,1.5,0.967c0.35,0.243,0.7,0.496,1.052,0.763c-0.021,0.176-0.042,0.343-0.064,0.518
	c0.458,0.897,0.601,1.961,0.208,3.121c-0.341,1.011-0.66,2.018-0.969,3.024c-0.418,3.349-0.818,6.608-1.161,9.86
	c-1.384,13.165-0.975,26.514,1.485,39.529c1.242,6.571,3.297,12.785,5.175,19.177c0.743,2.528,1.109,6.744,2.689,9.517
	c0.244,0.285,0.473,0.582,0.726,0.858c0.816,0.554,1.609,1.119,2.39,1.691c3.282,0.364,4.345-7.319,5.23-9.902
	c1.587-4.629,1.871-9.308,4.145-13.684c0.987-1.899,2.341-3.607,3.246-5.549c0.841-1.807,1.33-3.616,1.562-5.426
	c-0.117-0.575-0.057-1.183,0.141-1.742c0.04-1.044,0.01-2.088-0.094-3.131c-1.104-3.093-1.729-6.417-2.626-9.531
	c-0.582-2.018-1.216-4.021-1.854-6.021c-0.76-2.127-1.469-4.242-1.99-6.339c-0.011-0.045-0.026-0.102-0.039-0.15
	c-0.129-0.431-0.266-0.86-0.391-1.292c-0.61-2.104-1.582-5.203-1.989-8.229c-0.375-1.99-0.626-3.991-0.587-5.75
	c-0.883-1.205-1.035-2.904-0.252-4.243c1.057-1.806,3.125-2.19,4.938-1.497c4.166-0.157,6.654,2.18,7.852,5.497
	c0.291,0.7,0.492,1.417,0.599,1.945c0.132,0.651,0.188,1.292,0.21,1.93c0.411,3.839,0.405,7.728,0.809,11.57
	c0.03,0.288,0.071,0.574,0.104,0.862c0.546,1.926,1.071,3.851,1.652,5.724c1.761,5.68,3.486,11.383,5.663,16.921
	c0.581,1.478,1.198,2.918,1.845,4.329c1.091,1.814,2.267,3.581,3.534,5.286c6.672,8.972,15.148,17.438,25.022,22.807
	c0.102,0.055,0.208,0.1,0.311,0.153c0.562-0.322,1.271-0.397,2.094-0.054c3.255,1.358,6.484,2.873,9.751,4.29
	c1.979,0.543,3.951,1.076,5.866,1.68c1.911,0.603,5.685,2.167,9.464,3.096c2.635,0.337,5.24,0.377,7.834,0.294
	c1.178-0.426,2.093-1.199,2.583-2.461c1.171-3.011-1.379-8.506-2.216-11.604c-1.277-4.727-3.133-8.668-5.726-12.884
	c-2.705-4.398-5.229-8.84-7.51-13.398c-2.413-4.823-5.964-8.682-9.301-12.961c-2.633-3.376-4.727-6.896-6.907-10.398
	c-0.528-0.713-1.04-1.439-1.529-2.183c-0.193-0.294-0.328-0.592-0.432-0.892c-0.12-0.183-0.236-0.367-0.357-0.549
	c-1.841-2.763-6.873-6.152-5.999-9.828c0.355-1.491,6.965,1.173,7.571,1.389c4.614,1.651,7.81,2.483,12.742,3.012
	c6.472,0.693,13.012,1.531,19.529,1c0.313-0.025,0.619-0.077,0.929-0.112c2.176-0.7,4.529-1.099,6.886-1.359
	c3.96-1.077,7.841-2.487,11.832-3.507c3.27-0.836,6.782-1.375,10.125-1.16c2.865,0.185,5.106-0.508,7.853-0.743
	c4.062-0.346,8.167,0.795,12.27,0.409c1.363-0.128,2.691-0.31,3.996-0.529c8.09-2.425,16.002-5.493,24.146-7.639
	c2.389-0.865,4.813-1.703,7.339-2.438c3.234-0.942,7.246-2.775,10.614-2.847c1.401-0.03-0.225,8.34-0.361,9.743
	c-0.002,0.083-0.007,0.167-0.009,0.25c0.013,3.188,1.622,5.891,2.622,8.859c2.342,6.95,6.538,13.194,12.022,18.094
	c2.72,2.43,5.495,3.271,8.464,4.218c1.305-0.062,2.542-0.374,3.651-1.049c0.793-1.792,0.141-4.653-0.245-7.326
	c-0.077-0.248-0.109-0.481-0.095-0.696c-0.257-2.078-0.249-3.965,0.876-5.035c0.691,0.505,1.32,0.998,1.913,1.473
	c5.902,4.732,11.615,9.495,18.385,12.499c1.996,0.702,4.042,1.296,6.004,1.981c0.247,0.086,0.49,0.177,0.735,0.267
	c0.305,0.069,0.604,0.147,0.914,0.209c1.824,0.363,4.072,0.813,6.23,0.947c0.754-0.132,1.526-0.238,2.32-0.317
	c0.705-0.07,1.351-0.082,1.967-0.051c2.1-0.647,3.553-2.164,3.455-5.292c-0.214-6.859-5.55-12.339-9.225-17.825
	c-2.161-3.227-4.41-5.939-6.066-9.398c-1.556-3.249-2.574-6.686-5.801-8.615c-3.36-2.009-11.982-2.22-13.613-6.361
	c-0.881-2.237,0.656-4.015,3.263-5.439c0.4-0.323,0.89-0.592,1.479-0.782c0.123-0.04,0.233-0.061,0.352-0.095
	c5.602-2.37,13.922-3.582,16.37-4.275c2.74-0.777,5.346-1.734,8.173-2.189c13.764-2.216,28.287,3.38,37.867,13.244
	c3.398,3.5,16.654,20.318,19.796,9.151c0.313-1.113,0.52-2.275,0.65-3.467c0.001-0.116,0.002-0.231,0.002-0.348
	c-0.152-0.986-0.072-1.878,0.172-2.666c0.06-4.585-0.694-9.417-1.02-13.663c-0.852-11.104-0.866-21.391-0.144-32.444
	c0.527-8.075,3.958-12.753,7.983-19.329c3.599-5.88,6.395-12.198,9.146-18.506c0.539-1.234,2.278-4.08,3.881-7.142
	c0.546-1.518,1.029-3.045,1.416-4.586c0.13-1.354,0.73-2.341,1.568-2.986C511.21,195.683,511.065,194.751,510.438,194.233z"/>
<g>
	<path style="fill:#28718E;" d="M505.968,195.422c-4.095,2.634-8.231,5.218-12.381,7.784c-3.927,3.11-7.768,6.345-11.195,9.932
		c-0.135,0.465-0.326,0.933-0.597,1.397c-6.047,10.359-14.065,21.499-23.836,28.65c-10.542,7.717-24.69-1.147-33.665-7.686
		c-1.443-1.051-2.307-2.436-2.681-3.888c-0.561,0.005-1.137-0.063-1.722-0.22c-8.437-2.254-16.465-8.995-24.002-13.344
		c-7.654-4.416-15.478-8.539-23.88-11.345c-8.439-2.819-17.273-4.105-25.33-8.045c-3.378-1.652-6.756-3.549-9.657-5.958
		c-1.586-1.317-2.947-2.727-4.11-4.436c-0.733-1.079-1.195-2.532-2.326-3.251c-4.35-1.909-3.864-6.434-1.236-9.128
		c-0.918-2.348-1.596-4.821-2.213-7.322c-1.485-6.012-2.864-11.589-1.819-17.805c0.88-5.229,3.109-9.446,5.082-14.265
		c1.063-2.597,3.719-8.59,1.324-10.977c-0.734-0.732-1.136-1.618-1.257-2.527c-2.218,0.372-4.434,0.761-6.633,1.236
		c-1.192,0.257-2.383,0.535-3.573,0.809c-0.577,0.216-1.151,0.439-1.73,0.654c-2.074,1.524-3.974,3.319-5.803,5.17
		c-0.908,0.919-1.829,1.825-2.757,2.725c-0.661-0.925-1.455-1.757-2.339-2.488c-5.056,2.552-10.168,4.994-15.323,7.35
		c-0.422,0.193-0.859,0.274-1.293,0.279c-5.466,4.183-11.523,7.574-17.464,11.109c-6.015,3.581-12.452,8.938-19.8,8.728
		c-0.046-0.001-0.083-0.013-0.129-0.015c-8.425,5.268-17.644,9.317-26.21,14.378c-1.727,2.705-2.247,6.185-1.749,9.433
		c-11.07,1.747-21.988,3.884-33.019,6.35c-1.339,0.299-2.723,0.503-4.134,0.666c-2.792,1.42-5.769,2.581-8.825,3.592
		c-0.23,0.251-0.501,0.487-0.854,0.683c-3.177,1.766-6.545,2.854-9.978,3.827c-0.335,0.41-0.779,0.774-1.345,1.064
		c-7.844,4.016-16.888,6.236-25.481,8.024c-3.022,0.628-6.103,1.335-9.202,1.847c-9.481,4.149-19.9,6.945-29.76,9.373
		c-9.407,2.317-20.108,4.951-30.226,5.319c-2.289,0.411-4.575,0.809-6.83,1.236c0.124,1.539,1.047,3.067,2.634,3.507
		c5.894,1.631,12.539,2.302,18.638,2.07c7.927-0.301,14.986-2.611,22.568-4.646c5.832-1.565,11.949-2.76,17.922-3.59
		c3.24-0.45,6.556-0.206,9.812-0.581c2.985-0.344,5.939-1.159,8.904-1.736c-0.077,1.317,0.133,2.702,0.709,4.132
		c7.453,18.488,31.98,14.696,47.503,11.065c8.813-2.061,17.334-4.665,26.376-5.613c9.911-1.039,19.873-1.564,29.793-2.529
		c5.283-0.515,10.552-0.831,15.81-1.596c4.788-0.696,9.726-2.218,14.551-2.451c8.263-0.399,17.393,2.104,25.443,3.884
		c9.774,2.162,19.568,4.245,29.356,6.343c9.149,1.962,17.686,4.835,26.498,7.932c21.227,7.461,44.11,11.611,66.53,12.417
		c0.912,0.032,1.782-0.072,2.61-0.272c0.106,0.018,0.213,0.034,0.319,0.052c3.631,1.311,7.253,2.651,11.036,3.5
		c6.784,1.523,11.872-0.37,16.824-3.511c1.175-0.189,2.325-0.41,3.454-0.661c2.32,0.187,4.684-0.358,6.488-1.864
		c7.176-2.553,13.56-6.529,19.877-11.896c1.713-1.455,3.505-2.986,5.303-4.588c1.294-3.105,2.704-6.129,3.915-8.998
		c3.431-8.129,8.437-16.3,10.59-24.867c0.044-0.457,0.147-0.868,0.289-1.243C508.706,197.3,507.426,196.199,505.968,195.422z"/>
	<path style="fill:#28718E;" d="M434.319,328.241c-0.381-0.919-0.781-1.835-1.188-2.75c-9.396-3.633-19.414-6.133-27.363-12.41
		c-5.451-4.305-8.542-9.458-11.187-15.812c-1.447-3.477-2.633-7.022-4.343-10.392c-1.552-3.061-4.436-4.896-5.567-8.074
		c-1.208-3.395-6.66-1.932-5.438,1.5c0.434,1.216,0.485,2.509,0.377,3.838c-0.454-0.61-1.036-1.165-1.768-1.629
		c-10.423-6.611-24.074-1.821-35.488-0.076c-6.46,0.988-12.87,1.978-19.209,3.597c-6.015,1.537-12.233,3.703-18.465,3.939
		c-6.402,0.242-12.697-0.182-19.084,0.585c-6.284,0.754-12.527,1.975-18.846,2.406c-6.29,0.429-12.345-0.461-18.566-1.215
		c-1.279-0.155-2.592-0.193-3.867-0.375c-0.935-1.202-2.223-2.144-3.47-2.948c-5.25-3.385-12.06,0.057-13.769,5.602
		c-5.033,16.331,13.964,21.352,26,23.266c4.333,0.689,8.636,0.845,12.927,0.741c4.847-3.56,12.112-3.894,18.175-4.27
		c1.207-0.259,2.407-0.522,3.591-0.807c7.788-1.869,17.672-4.042,25.61-1.61c14.632-2.776,28.155-9.669,42.834-12.041
		c0.255-0.041,0.497-0.037,0.729-0.006c0.63-0.532,1.359-0.976,2.212-1.286c0.61-0.222,1.238-0.26,1.851-0.173
		c1.803-1.355,5.094-0.233,4.888,2.372c-0.41,5.187-0.773,10.39,0.999,15.379c1.79,5.041,5.213,9.299,8.561,13.388
		c2.398,2.93,4.974,5.423,8.058,7.298c3.608,0.944,7.364,1.305,10.022-1.275c0.145-0.141,0.3-0.258,0.457-0.371
		c-0.024-0.214-0.032-0.428-0.012-0.639c-0.165-0.903-0.351-1.794-0.657-2.673c-0.313-0.614-0.61-1.242-0.889-1.884
		c-0.023-0.038-0.039-0.076-0.062-0.114c0.003-0.001,0.006-0.003,0.009-0.005c-0.074-0.173-0.156-0.338-0.228-0.513
		c-1.002-2.426,2.671-3.531,3.961-1.67c0.256,0.37,0.474,0.755,0.679,1.147c0.338,0.537,0.76,1.166,1.242,1.835
		c0.454-0.056,0.912-0.043,1.357,0.069c3.614,0.91,6.112,2.985,9.3,4.723c3.251,1.772,6.999,2.688,10.478,3.902
		c1.828,0.638,3.59,1.367,5.376,2.007c1.509-0.452,3.119-0.733,4.823-0.902c2.062-0.205,3.636,0.077,5.37,0.514
		C435.057,336.315,435.952,332.186,434.319,328.241z M376.712,295.188c-0.135-0.092-0.272-0.179-0.412-0.264
		c0.819-0.712,1.604-1.537,2.438-2.508c0.037,1.482,0.128,2.963,0.26,4.442C378.268,296.186,377.503,295.626,376.712,295.188z"/>
	<path style="fill:#28718E;" d="M271.464,380.931c-2.083-7.477-5.001-14.678-8.55-21.576c-2.258-4.388-4.745-8.747-7.374-13
		c-1.384-0.563-2.866-0.884-4.416-0.902c-0.515-0.643-1.022-1.292-1.499-1.963c-1.007-1.419-1.667-3.215-2.719-4.563
		c-0.139-0.519-0.255-0.907-0.354-1.191c0.146-0.547,0.266-1.1,0.338-1.666c0.117-0.632,0.183-1.269,0.219-1.903
		c-3.444-4.16-7.229-8.037-10.212-12.571c-0.114-0.173-0.19-0.35-0.272-0.525c-7.4-1.085-12.74,3.048-18.498,7.433
		c0.022-0.018,0.038-0.03,0.061-0.049c-0.97,0.636-1.933,1.281-2.889,1.937c-0.489,0.341-0.966,0.699-1.448,1.05
		c-0.102-0.363-0.206-0.726-0.272-1.1c-1.004-5.631-3.328-11.028-4.729-16.586c-1.391-5.516-2.867-11.1-3.732-16.727
		c-0.957-6.23-2.871-12.308-3.701-18.499c-0.475-3.538-5.047-3.549-5.52,0c-0.531,3.986-1.581,7.818-2.446,11.702
		c-0.256-0.574-0.534-1.14-0.857-1.688c-0.179-0.303-0.372-0.581-0.564-0.862c0.657-2.137,1.303-4.283,1.937-6.444
		c2.425-8.276,5.196-16.179,2.678-24.786c-0.625-2.135-3.469-1.962-4.166,0c-1.249,3.519-2.616,6.998-4.003,10.471
		c1.458-8.565-0.272-17.749-1.88-26.166c-0.713-3.733-7.209-2.934-6.718,0.909c0.177,1.384,0.352,2.771,0.515,4.157
		c-2.076-0.508-4.561,0.51-5.298,2.903c-2.635,8.55-2.548,16.354-9.842,22.706c-0.407,0.355-0.83,0.687-1.261,1.004
		c-4.664-0.905-9.463-0.874-14.168-0.397c-5.507,0.559-10.814,1.919-16.375,1.982c-6.277,0.071-12.485-0.272-18.758,0.197
		c-0.684,0.052-1.304,0.183-1.873,0.369c-0.247-0.649-0.758-1.22-1.569-1.501c-10.416-3.616-20.863-3.511-31.737-3.447
		c-5.009,0.029-9.87,0.584-14.784,1.547c-4.64,0.91-10.274,1.323-14.422,3.637c-1.189,0.664-1.269,2.101-0.583,3.115
		c4.667-0.589,9.369-0.938,13.981-1.291c6.258-0.478,15.902-3.114,21.405,1.061c6.04-2.076,12.866-2.51,19.17-1.772
		c6.774,0.793,12.938,3.899,19.554,5.435c11.973,2.779,25.872,4.386,35.522,12.959c3.077-0.729,6.997,2.006,5.764,5.655
		c-4.178,12.369-5.926,24.364-4.929,37.447c0.678,8.895,2.414,17.614,4.021,26.36c0.337,0.423,0.634,0.91,0.852,1.496
		c1.112,2.992,2.043,6.042,3.058,9.053c1.262,1.796,2.386,3.702,3.324,5.696c0.513,0.661,1.055,1.298,1.62,1.914
		c1.538,1.043,3.006,2.115,4.416,3.235c1.207-4.801,3.313-9.609,4.795-13.712c1.519-4.204,3.173-8.354,4.642-12.577
		c0.581-1.67,1.035-3.415,1.803-5.013c0.398-0.83,1.158-1.869,1.86-2.917c-0.21-0.357-0.403-0.696-0.574-0.96
		c-0.764-1.181-0.457-2.858,0.473-3.841c-1.644-3.61-2.331-7.704-3.421-11.488c-1.334-4.628-2.933-9.18-4.274-13.802
		c-0.972-3.351-2.865-9.218-1.914-13.304c-1.43-1.161-1.861-3.297-0.914-4.918c1.118-1.912,3.373-2.246,5.256-1.378
		c1.236,0.57,2.523,1.058,3.733,1.685c0.514,0.267,0.958,0.578,1.416,0.934c0.181,0.141,0.508,0.342,0.684,0.552
		c1.311,0.621,2.049,2.916,2.3,4.154c0.414,2.045,0.291,4.018-0.408,5.974c-0.166,0.461-0.442,0.878-0.781,1.247
		c1.635,4.167,2.657,8.646,3.966,12.865c1.761,5.68,3.486,11.383,5.663,16.921c1.586,4.034,3.44,7.796,5.462,11.423
		c1.604,1.962,3.122,4.014,4.662,6.05c0.637,0.081,1.278,0.143,1.93,0.169c6.297,5.627,13.71,10.242,21.449,12.791
		c0.417,0.137,0.839,0.251,1.26,0.375c0.729,1.204,1.504,2.401,2.319,3.577c5.93,2.65,11.865,5.45,18.217,6.778
		c4.616,0.965,9.116,0.829,13.616,0.57c0.02-0.131,0.029-0.256,0.05-0.388c0.264-1.604,0.454-3.375,0.964-4.988
		C271.627,381.618,271.558,381.269,271.464,380.931z"/>
	<path style="fill:#28718E;" d="M142.702,236.797c-0.11-4.676-2.771-8.799-7.092-10.623c-3.734-1.576-7.731-1.072-11.208,0.947
		c-3.949,2.293-7.111,6.33-8.355,10.717c-1.262,4.447-0.018,9.44,3.298,12.679c5.521,5.392,16.222,5.257,20.111-2.141
		c0.776-1.476,1.242-3.124,1.38-4.792C142.08,241.553,142.758,239.162,142.702,236.797z"/>
	<path style="fill:#28718E;" d="M25.357,245.282c0.296,0.144,0.596,0.279,0.894,0.419c5.574,0.77,11.096,1.758,16.418,2.589
		c11.354,1.773,22.713,2.236,33.9,4.221c0.077-0.007,0.154-0.011,0.23-0.018c3.958-0.361,5.152-5.985,0.974-7.189
		c-1.656-0.478-3.319-0.861-4.988-1.183c1.739-0.671,3.369-1.638,5.046-2.458c1.065-0.521,0.866-0.408,1.836-0.772
		c0.979-0.368,1.912-0.729,2.663-1.48c0.2-0.2,1.461-1.982,0.984-1.471c1.289-1.38,1.305-3.452,0-4.837
		c-0.288-0.305-0.443-0.736-0.984-1.277c-1.089-1.089-2.342-1.392-3.792-1.571c-1.387-0.171-2.781-0.294-4.18-0.216
		c-4.007,0.223-8.067,1.754-10.114,5.405c-1.535,2.738-0.73,5.796,1.232,7.652c-6.229-0.589-12.524-0.588-18.843-0.876
		c-4.984-0.227-9.963-0.803-14.93-1.271c-4.509-0.424-10.868,0.891-14.598-2.053c-1.003-0.791-2.431,0.53-1.442,1.443
		C18.307,242.78,22.159,243.731,25.357,245.282z"/>
	<path style="fill:#28718E;" d="M111.763,239.811c0.791-1.318,1.107-3.32,0.628-4.801c-0.531-1.643-1.495-2.693-2.863-3.724
		c-1.585-1.193-3.562-1.404-5.509-1.278c-0.522-0.095-1.039-0.144-1.528-0.122l-2.408,0.323c-1.535,0.431-2.868,1.208-3.999,2.33
		c-0.089,0.07-0.177,0.14-0.266,0.209c-1.851,1.452-2.564,4.193-2.665,6.434c-0.127,2.841,1.415,5.467,3.586,7.145
		c3.988,3.081,10.967,2.42,13.368-2.553c0.087-0.182,0.164-0.36,0.246-0.54c0.523-0.929,0.932-1.926,1.14-2.956
		C111.583,240.123,111.669,239.965,111.763,239.811z"/>
	<path style="fill:#28718E;" d="M488.021,300.404c0.006-0.743,0.011-1.485,0.017-2.229c-0.153-0.988-0.072-1.881,0.173-2.67
		c-1.808-1.578-3.816-2.956-5.763-4.648c-4.052-3.52-7.658-7.537-11.312-11.449c-7.323-7.84-15.033-13.926-26.004-15.024
		c-10.169-1.018-21.291,0.124-30.817,3.827c-5.118,1.989-10.378,4.155-14.233,8.247c-2.185,2.318-5.724,7.403-2.536,10.336
		c1.298,1.193,2.834,1.896,4.502,2.284c0.264-1.253,1.136-2.393,2.781-2.923c1.396-0.45,2.521-0.515,3.596-0.414
		c7.791-1.117,15.273-4.882,23.27-4.678c0.653,0.017,1.325,0.059,2.001,0.115c0.436-0.239,0.9-0.461,1.414-0.656
		c1.246-0.471,2.901-0.47,4.415-0.044c0.838-0.264,1.807-0.271,2.883,0.106c5.215,1.831,10.025,2.436,14.694,5.634
		c4.166,2.854,7.576,6.054,10.809,9.933c3.733,4.478,6.931,8.711,12.292,11.33c1.5,0.733,3.061,1.29,4.548,1.902
		c0.965-1.018,2.089-1.969,2.91-2.978c0.241-0.295,0.461-0.603,0.694-0.903c0.119-0.857,0.213-1.712,0.24-2.561
		C488.215,302.247,487.999,301.403,488.021,300.404z"/>
</g>
<g>
	<path style="fill:#1D5A6D;" d="M424.293,235.5c-1.448-1.055-2.313-2.446-2.684-3.903c-0.562,0.005-1.134-0.048-1.719-0.204
		c-8.437-2.254-16.465-8.995-24.002-13.344c-7.654-4.416-15.478-8.539-23.88-11.345c-8.439-2.819-17.273-4.105-25.33-8.045
		c-3.378-1.652-6.756-3.549-9.657-5.958c-1.586-1.317-2.947-2.727-4.11-4.436c-0.733-1.079-1.195-2.532-2.326-3.251
		c-4.344-1.906-3.865-6.423-1.246-9.119c-0.918-2.35-1.585-4.83-2.204-7.332c-1.485-6.012-2.864-11.589-1.819-17.805
		c0.88-5.229,3.109-9.446,5.082-14.265c1.063-2.597,3.719-8.59,1.324-10.977c-0.735-0.733-1.137-1.62-1.257-2.53
		c-2.219,0.372-4.434,0.763-6.633,1.239c-1.167,0.252-2.331,0.524-3.495,0.791c-1.258,0.47-2.517,0.936-3.774,1.403
		c-7.936,4.298-16.04,8.272-24.256,12.025c-0.422,0.193-0.859,0.274-1.293,0.279c-5.466,4.183-11.523,7.574-17.464,11.109
		c-6.015,3.581-12.452,8.938-19.8,8.728c-0.045-0.001-0.083-0.013-0.128-0.015c-8.461,5.295-17.728,9.352-26.327,14.445
		c-0.466,0.276-0.936,0.39-1.389,0.399c-3.397,2.038-6.926,3.866-10.541,5.464c-2.853,2.202-6.112,3.914-9.42,5.003
		c-1.624,0.535-3.158,0.034-4.292-0.964c-3.876,1.35-7.561,2.965-11.195,4.706c-0.243,0.599-0.681,1.133-1.381,1.5
		c-2.832,1.486-5.868,2.699-8.99,3.749c-0.191,0.1-0.382,0.198-0.572,0.298c-0.196,0.182-0.417,0.354-0.685,0.502
		c-0.9,0.5-1.82,0.934-2.748,1.338c-2.737,1.504-5.449,3.062-8.196,4.545c-1.633,0.882-3.225,1.845-4.87,2.702
		c-1.65,0.858-4.308,2.922-5.959,3.327c-2.195,0.539-2.38,4.214,0,4.629c2.045,0.356,3.53,1.503,5.553,1.827
		c1.948,0.312,4.193,0.104,6.147-0.078c4.769-0.444,9.632-1.49,14.3-2.537c4.886-1.095,9.729-2.622,14.459-4.264
		c4.613-1.602,9.194-2.509,13.949-3.585c9.294-2.104,18.942-1.704,28.427-2.728c4.967-0.536,9.878-1.284,14.892-1.037
		c4.708,0.232,9.339,0.679,14.064,0.744c18.972,0.259,38.18,5.065,56.246,10.563c9.643,2.935,19.009,6.676,28.615,9.702
		c8.144,2.565,17.069,5.997,25.785,6.446c4.088,1.778,8.318,3.266,12.436,4.585c6.653,2.131,12.873,4.929,18.967,8.337
		c6.394,3.575,12.928,4.576,20.206,3.722c0.695-0.081,1.354-0.315,1.966-0.641C429.858,239.434,426.863,237.372,424.293,235.5z"/>
	<path style="fill:#1D5A6D;" d="M493.604,203.191c-3.934,3.115-7.781,6.354-11.213,9.946c-0.135,0.465-0.325,0.933-0.597,1.397
		c-4.368,7.481-9.768,15.362-16.108,21.861c5.286-3.547,10.575-7.063,15.736-10.848c3.703-2.716,7.414-5.204,10.408-8.735
		c3.104-3.659,4.955-7.71,7.385-11.784c1.262-2.115,1.276-4.074,0.555-5.66C497.721,200.652,495.662,201.921,493.604,203.191z"/>
	<path style="fill:#1D5A6D;" d="M190.004,350.004c-0.764-1.181-0.457-2.858,0.473-3.841c-1.644-3.61-2.331-7.704-3.421-11.488
		c-1.334-4.628-2.933-9.18-4.274-13.802c-0.972-3.351-2.865-9.218-1.914-13.304c-1.43-1.161-1.861-3.297-0.914-4.918
		c0.439-0.75,1.056-1.25,1.753-1.537c-3.062-1.893-6.406-1.732-9.745-0.214c2.463-1.12-2.158-0.774-2.951-0.827
		c-1.285-0.084-2.563-0.2-3.846-0.303c-0.021,0.072-0.024,0.14-0.049,0.212c-1.484,4.396-2.656,8.744-3.513,13.11
		c1.778,1.501,4.005,2.721,6.321,3.624c0.166,0.637,0.332,1.275,0.486,1.916c1.047,4.345,1.801,8.767,2.704,13.143
		c1.806,8.749,4.137,16.99,8.686,24.746c1.61,2.744,4.432,3.519,6.933,2.88c0.059-0.169,0.122-0.337,0.182-0.507
		c0.581-1.67,1.035-3.415,1.803-5.013c0.398-0.831,1.158-1.871,1.858-2.919C190.366,350.606,190.174,350.268,190.004,350.004z"/>
	<path style="fill:#1D5A6D;" d="M190.899,287.593c-6.896-4.63-13.695-6.906-22.072-6.525c-3.694,0.168-7.142,0.978-10.743,1.697
		c-2.978,0.595-5.745,0.33-8.061,2.428c-0.931,0.844-0.7,2.181,0,3.055c0.077,0.096,0.16,0.177,0.239,0.27
		c2.638,1.201,5.14,2.656,7.444,4.439c3.266,0.859,6.836,1.009,10.245,1.4c7.371,0.846,14.339,4.815,21.772,2.228
		C193.812,295.162,194.498,290.009,190.899,287.593z"/>
	<path style="fill:#1D5A6D;" d="M247.398,383.394c0.205,0.2,0.422,0.378,0.638,0.559c2.625,1.034,5.296,1.922,8.036,2.566
		c2.718-0.169,5.358-1.247,7.305-3.158c0.839-0.314,1.668-0.672,2.48-1.074c2.212-1.096,3.744-2.635,4.706-4.395
		c-1.892-6.068-4.329-11.945-7.192-17.622c-1.158-0.41-2.4-0.636-3.713-0.615c-0.73-0.733-1.452-1.476-2.183-2.206
		c-4.515-4.513-12.201-4.515-16.715,0c-0.745,0.744-1.339,1.533-1.826,2.347c-0.611-0.129-1.224-0.26-1.841-0.397
		c-7.43-1.656-13.189-5.986-18.321-11.56c-5.131-5.572-8.479-12.871-10.602-20.071c-1.157-3.923-2.112-7.905-3.276-11.829
		c-1.312-4.429-2.867-8.338-4.602-12.543c-1.08-2.617-5.625-2.668-5.421,0.733c0.255,4.244-0.096,8.267,0.493,12.542
		c0.644,4.676,1.341,9.383,2.16,14.032c1.493,8.497,4.537,17.088,9.339,24.296c4.819,7.234,10.804,15.074,18.67,19.102
		c4.018,2.057,8.353,3.528,12.619,4.972C241.246,380.12,245.04,381.096,247.398,383.394z"/>
	<path style="fill:#1D5A6D;" d="M394.803,326.271c-1.168-1.125-2.3-2.106-2.935-2.908c0.204,0.13-0.992-2.232-0.949-2.144
		c-0.19-0.399-0.325-0.675-0.42-0.865c-0.106-0.283-0.288-0.749-0.584-1.483c-2.593-6.441-3.067-13.732-6.815-19.66
		c-1.931-3.054-5-4.547-8.167-4.795c-1.3-0.84-2.76-1.374-4.407-1.516c0.656-1.327,0.034-3.311-1.887-3.279
		c-2.172,0.036-3.632-1.824-5.973-2.011c-2.751-0.219-5.164,0.857-7.61,2.028c-2.788,1.334-5.541,2.751-7.719,4.562
		c-0.068,0.005-0.132,0.005-0.202,0.013c-9.13,1-18.332,1.413-27.5,1.895c-9.394,0.494-18.655,1.602-28.016,2.432
		c-9.43,0.835-18.618,0.304-28.044,0.088c-4.181-0.096-8.322-0.245-12.473,0.33c-3.892,0.539-8.193,0.127-11.672,2.057
		c-2.037,1.13-1.43,4.076,0.62,4.745c2.2,0.718,4.012,2.115,6.254,2.775c2.043,0.602,4.15,0.779,6.244,1.108
		c4.399,0.691,8.665,1.968,13.007,2.933c3.686,0.818,7.392,1.414,11.113,1.812c2.549-0.333,5.123-0.475,7.517-0.623
		c1.205-0.258,2.402-0.521,3.583-0.805c7.788-1.869,17.672-4.042,25.61-1.61c14.632-2.776,28.155-9.669,42.834-12.041
		c0.255-0.041,0.497-0.037,0.729-0.006c0.63-0.532,1.358-0.976,2.212-1.286c0.613-0.224,1.244-0.268,1.856-0.176
		c1.804-1.349,5.088-0.227,4.883,2.375c-0.41,5.187-0.773,10.39,0.999,15.379c1.79,5.041,5.213,9.299,8.561,13.388
		c2.398,2.93,4.974,5.423,8.058,7.298c3.608,0.944,7.364,1.305,10.022-1.275c0.145-0.141,0.3-0.258,0.457-0.371
		c-0.024-0.214-0.032-0.428-0.012-0.639c-0.165-0.903-0.351-1.794-0.657-2.673c-0.313-0.614-0.61-1.242-0.889-1.884
		c-0.023-0.038-0.039-0.076-0.062-0.114c0.003-0.001,0.006-0.003,0.009-0.005c-0.074-0.173-0.156-0.338-0.228-0.513
		C391.4,326.989,393.274,325.914,394.803,326.271z"/>
	<path style="fill:#1D5A6D;" d="M396.113,327.137c0.026,0.038,0.044,0.08,0.07,0.119c0.778,1.002,1.607,1.951,2.493,2.836
		c0.24,0.008,0.479,0.037,0.715,0.096c3.614,0.91,6.112,2.985,9.3,4.723c1.661,0.906,3.452,1.587,5.27,2.199
		c2.603-0.423,4.484-3.41,2.154-5.703c-5.807-5.714-12.622-10.356-17.11-17.304c-5.643-8.737-10.475-18.156-15.602-27.206
		c-1.097-1.936-3.722-0.234-2.901,1.696c4.801,11.294,7.395,27.687,15.41,38.308C395.982,326.975,396.052,327.049,396.113,327.137z"
		/>
	<path style="fill:#1D5A6D;" d="M129.047,237.592c-0.109,0.109-0.196,0.191-0.257,0.249c-0.233,0.12-0.514,0.255-0.672,0.407
		c-0.038-0.002-0.072-0.003-0.117-0.004c-0.533-0.011-1.063-0.021-1.596-0.048c-0.322-0.017-0.658-0.015-0.979-0.044
		c-0.055-0.025-0.131-0.058-0.247-0.101c-2.71-1.017-5.456,2.057-4.65,4.65c0.982,3.162,3.795,5.122,6.813,6.173
		c4.443,1.548,8.372-0.466,10.752-4.302C141.566,238.975,133.654,232.992,129.047,237.592z"/>
	<path style="fill:#1D5A6D;" d="M94.563,257.781c0.288-2.221-1.04-4.754-3.956-4.938c-0.727-0.045-1.467-0.089-2.21-0.126
		c0.692,0.694,1.046,1.708,0.998,2.671c0.583,0.702,0.281,2.077-0.907,2.077h-0.077c-0.334,0.276-0.754,0.485-1.271,0.592
		c-6.928,1.439-13.951,2.529-20.951,3.745c-6.924,2.509-14.602,2.996-21.802,4.852c0.086,0.153,0.232,0.28,0.461,0.339
		c3.121,0.801,6.084,0.339,9.245,0.039c0.287-0.027,0.564-0.045,0.846-0.066c0.405,0.95,1.196,1.713,2.407,1.954
		c4.223,0.84,7.393-0.005,11.477-1.072c3.644-0.951,7.098-1.014,10.738-1.57c3.7-0.565,15.292-3.429,15.062-8.229
		C94.62,257.954,94.586,257.87,94.563,257.781z"/>
</g>
<g>
	<path style="fill:#154854;" d="M218.168,246.505c-0.599-1.854-2.309-2.778-3.079-4.396c-0.062-0.13-0.124-0.169-0.183-0.162
		c0.395-0.685,1.275-1.384,1.635-2.133c1.763-3.673-0.874-10.758-5.543-10.795c0.009-0.019,0.02-0.042,0.028-0.059
		c1.081-2.288,1.077-4.753-0.177-6.971c-0.59-1.042-1.375-1.898-2.306-2.558c2.041-2.264,3.718-5.147,3.693-8.003
		c-0.043-4.954-3.499-7.295-7.635-8.069c1.48-1.27,2.814-2.644,3.803-4.276c2.022-3.336,0.283-8.922-3.921-9.636
		c-2.812-0.479-5.236-0.129-7.673,0.642c0.37-0.326,0.746-0.61,1.123-0.857c1.118,0.413,2.524-0.321,2.723-1.839
		c0.04-0.308,0.08-0.615,0.12-0.922c0.117-0.9-0.769-1.96-1.629-2.139c-2.528-0.527-5.548,0.328-8.468,1.866
		c0.077,1.126-0.382,2.262-1.601,2.901c-1.84,0.966-3.774,1.806-5.752,2.576c-1.342,1.338-2.461,2.693-3.195,3.919
		c-1.938,3.239-0.835,7.269,2.357,8.611c-0.489,0.649-0.942,1.32-1.313,2.034c-2.031,3.914-0.308,8.792,3.536,10.883
		c3.49,1.898,7.002,0.861,10.59,0.046c0.069-0.016,0.135-0.022,0.204-0.037c-0.017,0.036-0.035,0.076-0.052,0.109
		c-1.336,2.84-1.685,6.065,0.371,8.677c0.875,1.112,1.841,1.728,2.873,2.084c-0.116,0.213-0.213,0.428-0.282,0.644
		c-0.671,2.095-0.478,4.4,0.455,6.371c1.094,2.311,2.742,3.334,4.565,4.122c-0.269,2.025-0.059,3.863,0.755,5.753
		c0.817,1.899,2.019,3.094,3.535,4.44c0.026,0.022,0.063,0.061,0.105,0.105c-0.117,2.291,1.515,4.762,4.136,4.621
		C216.08,253.835,219.633,251.043,218.168,246.505z"/>
	<path style="fill:#154854;" d="M257.279,218.417c2.367-1.755,3.947-5.44,3.983-8.039c0.031-2.22-0.758-4.19-2.067-5.769
		c0.277-0.222,0.557-0.44,0.825-0.671c3.463-2.982,6.371-7.752,4.505-12.448c-1.042-2.624-2.574-4.265-4.771-5.156
		c0.664-1.565,0.864-3.314,0.314-4.981c-1.068-3.234-3.187-5.23-5.927-6.253c0.282-1.493,0.075-3.112-0.7-4.611
		c-1.999-3.872-5.386-5.067-9.225-4.969c-0.166-0.444-0.407-0.857-0.698-1.239c-5.434,2.861-10.956,5.589-16.224,8.71
		c-0.464,0.274-0.931,0.389-1.383,0.398c-3.343,2.007-6.815,3.806-10.371,5.387c2.018-0.762,4.039-1.517,6.069-2.248
		c0.439,3.288,3.755,6.34,7.778,5.672c0.401-0.067,0.797-0.167,1.195-0.256c0.956,2.158,2.217,3.871,3.85,5.137
		c-1.132,1.198-2.066,2.609-2.673,4.384c-0.871,2.544,0.054,6.04,2.067,7.823c1.436,1.271,2.867,2.097,4.304,2.617
		c-0.252,0.512-0.483,1.044-0.667,1.625c-1.32,4.165,0.167,8.816,3.993,11.094c0.25,0.149,0.501,0.281,0.752,0.402
		c-0.684,2.459-0.673,4.934,0.507,7.397c1.092,2.276,2.778,3.641,4.746,5.127c2.555,1.929,2.495,1.528,0.766,4.583
		c-2.766,4.887-3.319,8.627-1.304,13.998c1.399,3.729,1.064,1.518-0.456,4.88c-1.093,2.417-1.202,5.479-0.935,8.063
		c0.691,6.684,10.648,4.317,8.485-1.149c-0.383-1.014-0.798-2.014-1.245-3.002c0.707-0.114,1.378-0.34,2.011-0.678
		c1.625-0.845,2.744-2.251,3.418-3.9c0.814-1.988,0.687-3.669,0.124-5.712c-0.332-1.206-1.623-2.971-1.453-4.292
		c0.288-2.248,4.123-5.225,4.925-7.893c1.067-3.547,0.568-7.259-1.337-10.41C259.609,220.623,258.488,219.506,257.279,218.417z"/>
	<path style="fill:#154854;" d="M249.232,216.335c0.025-0.001,0.052,0.003,0.078,0.001
		C251.302,216.204,250.807,217.197,249.232,216.335z"/>
	<path style="fill:#154854;" d="M352.585,204.674c0.764-0.91,1.341-1.919,1.68-3.024c-2.579-0.829-5.12-1.785-7.586-2.992
		c-3.378-1.652-6.756-3.549-9.657-5.958c-1.586-1.317-2.947-2.727-4.11-4.436c-0.733-1.079-1.195-2.532-2.326-3.251
		c-4.344-1.906-3.865-6.423-1.246-9.119c-0.918-2.35-1.585-4.83-2.204-7.332c-1.485-6.012-2.864-11.589-1.819-17.805
		c0.88-5.229,3.109-9.446,5.082-14.265c0.512-1.252,1.392-3.294,1.9-5.34c-1.232-0.989-2.697-1.78-4.32-2.303
		c-0.519-0.167-1.045-0.306-1.576-0.426c-0.003-1.539-0.552-3.126-1.458-4.423c-0.371,0.075-0.743,0.144-1.113,0.224
		c-1.178,0.254-2.354,0.529-3.531,0.799c-1.238,0.463-2.477,0.922-3.715,1.382c-7.943,4.304-16.056,8.282-24.279,12.039
		c-0.423,0.193-0.86,0.274-1.293,0.279c-5.464,4.185-11.523,7.574-17.463,11.109c-0.102,0.061-0.205,0.126-0.308,0.188
		c0.478,1.104,1.19,2.086,2.127,2.805c-2.499,3.127-1.816,7.661,0.729,10.588c1.698,1.954,3.927,2.883,6.312,3.302
		c-0.418,0.673-0.758,1.406-0.988,2.218c-1.54,5.429,1.344,9.403,5.693,12.157c0.535,0.339,1.18,0.665,1.873,0.992
		c-2.313,1.373-4.374,3.11-5.8,6.019c-0.983,2.002-1.491,4.866,0,6.823c1.396,1.833,2.751,3.219,4.688,4.263
		c-0.204,0.429-0.379,0.877-0.505,1.355c-1.291,4.877,1.549,9.169,4.941,12.334c0.712,0.665,1.456,1.305,2.194,1.942
		c-0.77,0.518-1.524,1.316-1.919,1.733c-3.199,3.368-2.81,7.988-0.634,11.774c0.21,0.366,0.538,0.95,0.891,1.499
		c-1.235,0.857-2.488,2.333-2.96,3.105c-2.319,3.786-0.232,7.975,0.976,11.722c0.5,1.548,0.433,0.505,0.237,1.361
		c-0.214,0.938-1.009,1.994-1.431,2.897c-0.93,1.993-1.729,3.841-1.746,6.067c-0.029,3.783,5.475,5.477,7.305,1.979
		c0.982-1.878,3.871-2.758,5.077-4.876c1.373-2.412,2.141-5.001,1.761-7.771c-0.215-1.574-0.783-3.611-1.498-5.248
		c0.4-0.21,0.781-0.436,1.06-0.594c4.679-2.645,5.317-8,2.743-12.401c-0.262-0.449-0.566-0.966-0.897-1.456
		c0.964-0.555,1.821-1.293,2.525-2.153c3.146-3.841,3.013-9.958,0.452-14.025c-0.832-1.322-2.162-2.984-3.527-4.25
		c3.215-2.632,5.087-6.459,2.881-10.718c-0.666-1.286-1.704-2.339-2.9-3.176c0.992-0.346,1.918-0.691,2.671-1.086
		c2.544-1.333,4.375-5.255,3.279-8.058c-1.265-3.24-3.25-5.318-5.503-7.085c0.547-0.154,1.09-0.322,1.624-0.518
		c5.603-2.054,10.655-7.625,8.021-13.758c1.571,1.058,3.34,1.842,5.122,2.649c0.793,0.358,1.587,0.768,2.388,1.187
		c-2.714,3.545-2.538,8.207-0.382,12.085c1.84,3.31,4.787,5.976,7.46,8.596c0.631,0.618,1.243,1.246,1.849,1.881
		c-0.271,0.81-0.437,1.65-0.501,2.433c-0.365,4.366,2.65,7.845,6.279,9.825c0.219,0.119,0.456,0.251,0.698,0.386
		c-0.907,1.208-1.45,2.643-1.258,4.104c0.307,2.336,0.891,4.94,2.354,6.908c-0.38,0.309-0.73,0.628-1.019,0.925
		c-3.754,3.869-3.18,9.714,0.235,13.492c-1.758,1.547-2.874,3.893-3.085,6.096c-0.233,2.436,0.552,4.685,1.304,6.983
		c0.273,0.836,0.595,1.658,0.856,2.499c0.11,0.351,0.187,0.624,0.251,0.86c-1.613,1.364-2.581,3.435-1.827,5.658
		c1.427,4.211-3.758,6.423-6.019,10.343c-2.779,4.82,3.449,9.128,7.413,5.72c2.14-1.84,5.366-4.438,6.682-6.938
		c0.958-1.82,0.867-3.564,0.802-5.39c4.58-1.451,6.352-6.701,5.283-12.199c-0.207-1.064-0.434-2.262-0.796-3.327
		c1.057-0.644,2.123-1.458,2.428-1.729c1.501-1.334,2.496-2.973,3.001-4.926c0.859-3.322-0.107-6.471-1.954-9.195
		c2.417-2.214,3.924-5.235,3.77-8.631C354.241,208.131,353.588,206.303,352.585,204.674z M314.277,143.017
		c-0.3-0.802-0.694-1.513-1.153-2.154c1.127,0.345,2.298,0.573,3.48,0.751C315.845,142.107,315.057,142.558,314.277,143.017z"/>
	<path style="fill:#154854;" d="M399.219,220.087c-1.12-0.715-2.232-1.404-3.331-2.038c-7.138-4.118-14.43-7.967-22.194-10.745
		c-0.273,1.095-0.296,2.273,0.012,3.459c0.985,3.788,3.074,6.478,5.312,9.384c-1.316,0.589-2.555,1.525-3.668,2.969
		c-3.254,4.224-2.032,7.639-0.358,11.212c-1.234,0.963-2.035,2.397-1.886,4.287c0.138,1.754,0.553,4.002,1.18,6.11
		c-2.088,0.276-4.047,1.489-4.507,3.789c-0.996,4.981-1.116,8.698,0.977,13.34c1.061,2.352,4.9,2.195,6.01,0
		c0.708-1.401,1.202-2.764,1.617-4.132c0.08,0.023,0.154,0.055,0.237,0.074c2.499,0.585,5.208,0.094,7.006-1.869
		c1.92-2.096,2.243-4.979,1.994-7.692c-0.128-1.393-0.625-2.754-1.166-4.103c0.041-0.027,0.08-0.049,0.12-0.078
		c2.487-1.733,3.35-4.085,2.855-7.016c-0.146-0.861-0.514-2.069-1.025-3.279c0.095,0.059,0.195,0.116,0.278,0.175
		c3.857,2.714,8.196-0.373,9.668-3.933c1.248-3.019,0.605-5.739-0.866-8.316C398.149,221.234,398.731,220.691,399.219,220.087z"/>
	<path style="fill:#154854;" d="M424.293,235.5c-1.443-1.051-2.307-2.436-2.681-3.888c-0.561,0.005-1.137-0.063-1.722-0.22
		c-0.296-0.079-0.591-0.176-0.886-0.267c-2.08,1.292-3.599,3.74-3.462,6.033c0.035,0.573,0.103,1.108,0.195,1.627
		c-2.595,0.806-4.725,2.678-5.781,6.187c-2.132,7.08,1.427,18.571,9.884,18.917c2.944,0.12,6.127-2.781,5.84-5.84
		c-0.141-1.504-0.315-2.827-0.984-4.187c-0.034-0.068-0.094-0.191-0.172-0.347c1.948,0.108,3.95-0.762,5.324-2.067
		c1.576-1.497,2.429-3.338,2.642-5.315c2.011-0.27,3.843-1.106,5.172-2.581C432.727,241.386,428.055,238.241,424.293,235.5z"/>
	<path style="fill:#154854;" d="M165.156,229.69c-0.291-1.421-0.6-2.814-1.245-4.126c-0.086-0.176-0.167-0.32-0.243-0.449
		c0.971-4.137-1.649-9.331-5.976-10.43c0.147-0.4,0.26-0.74,0.312-0.916c0.777-2.668,0.202-5.803-1.824-7.794
		c-0.813-0.799-1.841-1.395-2.955-1.788c0.076-0.115,0.153-0.237,0.23-0.355c-3.805,1.066-7.658,1.946-11.429,2.73
		c-2.41,0.501-4.857,1.051-7.321,1.514c-1.181,2.162-0.866,5.086,0.917,6.919c2.227,2.286,4.549,2.786,7.643,2.35
		c0.028,1.413,0.36,2.82,1.039,4.056c0.96,1.75,2.68,3.096,4.395,4.039c0.471,0.259,0.958,0.492,1.455,0.703
		c0.268,1.554,1.182,2.668,1.763,4.13c1.342,3.376,1.846,7.389,2.872,10.994c1.834,6.442,13.138,5.498,12.178-1.648
		C166.52,236.28,165.832,232.988,165.156,229.69z"/>
	<path style="fill:#154854;" d="M120.758,212.918c-3.319,1.059-6.669,2.011-10.004,2.898c-0.48,1.723,0.383,3.892,1.922,4.699
		c0.002,0.001,0.005,0.003,0.007,0.004c-0.284,1.17-0.316,2.432,0.004,3.595c0.346,1.254,1.051,2.266,1.953,3.148
		c-0.024,0.364-0.051,0.728-0.071,1.091c-0.416,6.736,10.065,6.711,10.479,0c0.106-1.714,0.217-3.38-0.362-5.034
		c-0.121-0.344-0.266-0.658-0.426-0.962c0.731-1.291,0.953-2.594,1.055-4.069C125.519,215.307,123.289,213.439,120.758,212.918z"/>
	<path style="fill:#154854;" d="M98.347,218.933c-3.323,0.799-6.759,1.582-10.235,2.255c-0.004,0.079-0.017,0.157-0.02,0.235
		c-0.053,2.255,0.766,4.342,2.193,5.939c0.022,0.667,0.038,1.333,0.021,2.001c-0.061,2.223-0.532,3.583-0.022,6.213
		c1.087,5.61,8.488,5.447,11.228,1.467c2.954-4.292,1.874-12.972-1.252-16.794C99.768,219.647,99.095,219.213,98.347,218.933z"/>
	<path style="fill:#154854;" d="M71.811,227.959c-0.051-0.03-1.7-0.854-2.672-1.105c-0.132-0.135-0.269-0.264-0.396-0.403
		c0.185,0.305,0.185,0.337,0.014,0.115c-0.013-0.096-0.027-0.199-0.042-0.331c-0.067-0.589-0.144-1.136-0.457-1.662
		c-0.118-0.198-0.269-0.392-0.441-0.571c-2.255,0.412-4.484,0.845-6.666,1.336c-0.949,1.13-1.539,2.563-1.557,4.059
		c-0.017,1.455,0.21,3.043,0.614,4.449c0.194,0.674,0.473,1.239,0.797,1.758c-0.301,0.965-0.453,1.924-0.485,2.99
		c-0.072,2.355,1.909,5.472,4.434,5.824c3.757,0.524,7.064-0.369,9.259-3.716c1.79-2.729,2.324-5.965,0.896-8.98
		C74.374,230.172,73.324,228.844,71.811,227.959z"/>
	<path style="fill:#154854;" d="M46.557,227.75c-3.099,0.475-6.165,1.049-9.104,1.922c-0.553,0.779-0.965,1.572-1.19,2.57
		c-0.995,4.409,2.07,8.86,6.749,8.86c4.564,0,7.884-4.46,6.749-8.86C49.283,230.39,48.152,228.761,46.557,227.75z"/>
</g>
<path style="fill:#FFFFFF;" d="M133.536,231.009c-0.541-0.463-1.246-0.754-1.948-0.788c-0.336-0.227-0.706-0.411-1.108-0.534
	c-2.169-0.667-4.694,0.826-6.18,2.31c-0.769,0.768-1.373,1.526-1.828,2.516c-0.248,0.54,0.045-0.146-0.2,0.346
	c-0.35,0.701-0.542,1.364-0.526,2.147c0.059,2.797,2.991,4.506,5.528,4.329c2.288-0.159,3.963-1.61,5.401-3.271
	C134.347,236.135,135.952,233.08,133.536,231.009z"/>
<path d="M127.342,247.639c2.576-0.106,4.481-1.101,6.717-2.216c0.227-0.113,0.127-0.517-0.133-0.491
	c-2.351,0.235-4.689,1.263-7.104,0.53c-1.584-0.48-3.079-2.212-4.099-3.698c-0.029-0.132-0.063-0.264-0.085-0.394
	c1.699,1.616,4.782,1.896,6.918,1.177c4.604-1.551,7.804-6.378,5.758-10.835c0.121,0.07,0.221,0.164,0.337,0.24
	c0.778,1.898,1.252,3.638,0.993,5.91c-0.21,1.835-0.857,3.557-1.296,5.341c-0.132,0.539,0.546,0.768,0.85,0.358
	c1.378-1.854,1.972-4.16,2.03-6.481c0.036-1.433-0.272-2.53-0.78-3.538c0.819,1.622,2.079,2.535,2.444,4.385
	c0.377,1.91,0.135,3.951-0.687,5.715c-0.701,1.504,0.166,2.295,1.369,1.111c0.888-0.875,1.115-3.219,1.269-4.391
	c0.355-2.709-0.042-5.277-1.22-7.42c-1.044-1.901-2.703-3.468-4.993-4.504c-4.072-1.843-8.956-1.117-11.856,2.429
	c-3.549,4.338-5.355,8.119-2.612,13.435C122.199,246.311,125.112,247.73,127.342,247.639z M125.718,232.998
	c1.236-1.352,4.837-4.048,6.428-2.151c2.546,3.037,0.724,7.609-2.417,9.142c-1.989,0.971-6.064,0.921-6.754-1.811
	C122.496,236.282,124.599,234.222,125.718,232.998z"/>
<path d="M134.758,250.667c-2.346,0.291-4.565,1.493-6.948,1.422c-3.26-0.098-5.058-2.539-7.396-4.391
	c-0.277-0.219-0.653,0.128-0.397,0.397c1.902,2,3.425,4.818,6.345,5.39c2.967,0.581,6.036-0.516,8.675-1.787
	C135.513,251.469,135.302,250.6,134.758,250.667z"/>
<path d="M125.58,237.442c0.076,0.09,0.154,0.174,0.233,0.245c1.078,0.966,2.757,0.161,2.814-1.246
	c0.035-0.847-0.491-1.659-1.236-2.042c-0.578-0.297-1.246-0.268-1.759,0.145c-0.549,0.441-0.684,1.053-0.762,1.719
	C124.813,236.758,125.148,237.202,125.58,237.442z"/>
<path d="M79.557,231.414c-1.222,0.11-2.892,0.396-3.888,1.166c-0.105,0.081-0.12,0.225,0,0.303c0.933,0.609,2.457,0.28,3.517,0.299
	c0.47,0.009,1.096,0.041,1.515,0.333c0.004,0.057,0.027,0.188-0.01,0.374c-0.027,0.136-0.063,0.248-0.113,0.355
	c-0.014-0.002-0.027-0.007-0.042-0.009c-0.644-0.075-1.259,0.114-1.888,0.238c-0.643,0.127-1.492,0.116-2.026,0.528
	c-0.722,0.557-1.492,2.108-1.324,3.012c0.209,1.123,1.276,1.706,2.351,1.441c0.835-0.206,2.135-0.852,2.781-1.408
	c0.46-0.396,0.778-0.95,1.192-1.394c0.395-0.422,0.782-0.838,1.018-1.371c0.36-0.814,0.523-2.338-0.136-3.052
	C81.813,231.483,80.484,231.33,79.557,231.414z"/>
<path d="M85.147,230.293c-0.146-0.034-0.276,0.153-0.153,0.264c1.814,1.639,0.735,4.292-0.108,6.128
	c-0.588,1.278-1.029,2.778-1.761,3.961c-0.161,0.262,0.11,0.651,0.417,0.542c0.765-0.273,1.295-1.126,1.685-1.813
	c0.729-1.28,1.334-2.898,1.689-4.334C87.35,233.286,87.338,230.805,85.147,230.293z"/>
<path d="M89.206,232.387c0.667,2.772-0.896,5.637-2.118,8.061c-0.131,0.26,0.087,0.611,0.396,0.516
	c0.653-0.202,0.677-0.539,1.049-1.12c0.501-0.784,1.058-1.492,1.321-2.401c0.531-1.829,0.604-3.44-0.124-5.2
	C89.601,231.928,89.122,232.037,89.206,232.387z"/>
<path d="M160.966,258.491c-0.026-0.401-0.631-0.661-0.834-0.226c-3.507,7.521-11.289,11.401-17.763,15.737
	c-0.544,0.365-0.193,1.136,0.433,1.027c4.521-0.788,8.457-3.844,11.74-6.935C156.83,265.942,161.193,261.937,160.966,258.491z"/>
<path d="M146.188,263.602c0.154-0.23-0.202-0.509-0.386-0.298c-3.39,3.876-7.423,6.306-11.863,8.773
	c-0.315,0.175-0.197,0.764,0.195,0.72C139.169,272.224,143.536,267.553,146.188,263.602z"/>
<path d="M168.783,278.178c10.052-6.381,14.807-17.731,13.843-29.45c-0.416-5.044-2.466-10.817-4.464-15.438
	c-0.791-1.827-2.011-4.356-4.348-4.407c-0.269-0.006-0.424,0.354-0.224,0.54c2.013,1.872,2.647,5.572,3.191,8.122
	c0.924,4.33,2.442,8.449,2.303,12.952c-0.172,5.526-1.154,11.014-4.227,15.7c-2.349,3.583-5.242,6.856-7.642,10.415
	C166.573,277.564,167.839,278.777,168.783,278.178z"/>
<path d="M179.849,273.667c4.694-3.755,7.492-9.659,9.692-15.131c2.217-5.516,4.62-10.826,3.976-16.872
	c-0.053-0.496-0.7-0.485-0.763,0c-1.489,11.205-8.976,21.245-14.312,30.918C177.925,273.522,179.082,274.28,179.849,273.667z"/>
<path d="M187.456,272.856c0.521-0.703-0.504-1.705-1.207-1.207c-3.54,2.51-6.764,5.31-10.096,8.079
	c-3.926,3.262-8.284,4.305-12.671,6.548c-0.274,0.14-0.137,0.564,0.153,0.564c4.619,0,8.871-1.055,12.639-3.804
	C180.174,280.19,184.578,276.748,187.456,272.856z"/>
<path d="M194.98,272.221c-2.871,2.051-5.295,5.297-7.847,7.769c-2.885,2.795-5.679,5.532-8.914,7.926
	c-0.343,0.253-0.058,0.739,0.332,0.568c3.553-1.56,6.479-3.505,9.37-6.141c1.635-1.49,3.35-2.935,4.826-4.588
	c1.395-1.563,1.824-3.13,2.864-4.903C195.831,272.476,195.368,271.943,194.98,272.221z"/>
<path d="M222.175,271.064c-3.299-2.798-7.609-3.679-11.796-3.279c-0.343,0.033-0.333,0.483,0,0.527
	c3.597,0.47,7.879,2.144,10.522,4.664c2.031,1.938,3.042,4.572,4.578,6.866c0.161,0.241,0.477,0.177,0.578-0.076
	C227.313,276.635,224.397,272.947,222.175,271.064z"/>
<path d="M306.566,300.798c-8.928,0.075-17.881,1.289-26.813,1.587c-9.266,0.31-18.323,1.323-27.415-1.21
	c-0.949-0.265-1.346,1.189-0.406,1.473c8.974,2.702,17.617,2.375,26.881,2.128c9.277-0.248,18.865-0.475,27.937-2.607
	C307.521,301.987,307.35,300.791,306.566,300.798z"/>
<path d="M339.821,288.54c-20.732,3.76-40.69,9.013-61.925,8.64c-0.406-0.007-0.513,0.642-0.098,0.724
	c10.392,2.054,20.768,1.272,31.143-0.597c10.318-1.858,21.556-3.31,31.265-7.371C341.055,289.581,340.758,288.37,339.821,288.54z"/>
<path d="M511.291,192.04c-0.397-0.628-1.12-0.927-1.844-0.75c-3.009,0.738-5.55,3.322-8.086,4.988
	c-2.72,1.787-5.529,3.476-8.202,5.331c-5.918,4.108-11.205,9.727-16.155,14.932c-5.304,5.578-10.166,11.589-15.396,17.249
	c-2.589,2.802-8.083,8.522-13.044,9.751c-3.49-1.832-7.858-2.359-11.524-3.84c-4.692-1.895-8.854-3.908-13.031-6.822
	c-9.502-6.631-19.699-12.401-29.675-18.216c-9.015-5.254-18.832-8.534-28.646-11.989c-6.232-2.194-12.752-3.708-19.047-5.706
	c-1.871-0.594-3.633-1.429-5.313-2.412c-4.211-4.277-9.039-8.885-10.207-15.042c-0.487-2.568,0.109-5.259-0.388-7.886
	c-0.468-2.475-1.381-5.085-2.409-7.387c-1.298-2.911-3.15-4.962-3.085-8.335c0.071-3.719,1.639-7.682,2.645-11.229
	c1.005-3.545,1.986-6.799,3.423-10.212c0.762-1.81,3.111-5.635,3.277-7.8c0.604-7.885-14.439-2.783-17.895-1.332
	c-0.486,0.204-0.972,0.397-1.457,0.589c-6.467,1.171-12.036,3.89-17.279,7.215c-0.475,0.236-0.94,0.486-1.386,0.767
	c-0.672,0.423-1.19,0.593-1.631,1.168c-0.041,0.052-0.065,0.078-0.101,0.122c-6.746,4.632-13.139,9.966-20.487,13.867
	c-8.365,4.442-17.858,6.85-26.623,10.393c-8.265,3.341-15.644,8.137-22.927,13.204c-6.465,4.498-12.852,7.671-20.451,9.458
	c-6.657,1.566-13.402,3.201-19.512,6.361c-7.657,3.959-14.882,8.321-22.955,11.516c-3.681,1.457-7.328,3.041-11.131,4.162
	c-1.916,0.565-4.146,0.711-5.962,1.571c-7.53,0.219-15.84,3.428-22.339,5.269c-6.669,1.888-13.509,3.089-20.066,5.456
	c-5.69,2.055-11.145,3.269-16.918,4.106c-2.904,0.168-5.826,0.315-8.796,0.8c-1.587,0.26-3.139,0.618-4.675,1.014
	c-10.543,1.727-20.885,4.337-31.382,6.553c-2.099,0.235-4.191,0.517-6.262,0.94c-6.212,1.269-12.351,2.958-18.481,4.615
	c-4.021,1.086-13.298,1.981-15.706,5.881c-0.259,0.42-0.216,1.147,0.19,1.479c0.282,0.229,0.589,0.42,0.907,0.593
	c0.014,0.021,0.017,0.045,0.031,0.065c1.719,2.227,3.869,1.938,6.596,2.449c3.773,0.707,7.524,1.152,11.283,1.912
	c8.204,1.657,16.887,2.024,25.187,3.163c0.758,0.104,1.517,0.199,2.274,0.298c1.134,0.263,2.274,0.495,3.425,0.657
	c4.345,0.614,8.803,1.025,13.265,1.271c1.887,0.235,3.786,0.426,5.676,0.627c1.672,0.255,3.456,0.513,5.212,0.641
	c0.509,0.073,1.023,0.137,1.527,0.221c4.57,0.757,9.061,1.447,13.571,2.532c0.422,0.102,0.846,0.205,1.269,0.304
	c-0.573,0.021-1.149,0.044-1.717,0.063c-4.708,0.158-9.519,0.636-14.025,2.03c-4.776,1.478-9.688,1.837-14.57,2.886
	c-9.406,2.022-18.366,5.418-27.635,7.765c-7.065,1.79-14.411,3.716-21.111,6.634c-1.145,0.499-0.795,2.378,0.344,2.633
	c9.593,2.148,19.631,2.505,29.446,1.224c11.596-1.514,23.12-1.218,34.823-1.705c10.776-0.448,22.334-2.217,32.903,0.549
	c4.879,1.277,9.475,3.643,14.212,5.359c0.491,0.178,0.985,0.33,1.481,0.469c1.381,0.769,2.985,1.252,4.428,1.601
	c3.528,0.851,7.086,1.479,10.65,1.4c1.032,0.119,2.081,0.248,3.172,0.473c2.58,0.531,4.844,2.038,7.145,3.364
	c1.592,1.065,3.374,1.966,5.206,2.749c2.458,1.266,4.851,2.398,7.568,3.173c-2.962,16.925-4.004,34.546-1.465,51.552
	c1.434,9.605,2.667,18.465,6.538,27.394c1.454,3.354,6.072,14.958,11.565,10.331c1.92-1.617,2.876-5.348,3.505-7.659
	c1.252-4.602,1.805-9.366,3.055-14c1.083-4.012,2.587-7.479,4.051-11.351c1.276-3.375,1.164-5.815,0.679-9.331
	c-1.968-14.25-9.677-27.192-9.379-41.701c1.345,0.474,2.907,0.994,4.374,1.138c1.704,0.613,3.432,1.332,5.217,1.305
	c-0.037,1.922-0.03,3.858,0.067,5.826c0.474,9.655,0.664,20.561,4.352,29.615c1.593,3.911,3.044,8.22,5.251,11.827
	c2.618,4.279,6.295,8.033,9.693,11.681c7.011,7.526,14.226,13.315,23.879,17.17c8.615,3.44,17.561,5.622,26.553,7.69
	c5.85,1.346,12.123,2.298,11.38-5.62c-0.925-9.864-5.359-19.27-10.062-27.811c-5.465-9.924-13.312-18.284-18.979-28.129
	c-3.061-5.318-7.403-9.97-10.189-15.408c-0.067-0.132-0.125-0.265-0.189-0.397c1.552,0.829,3.347,1.358,4.977,1.922
	c5.479,1.896,11.058,3.436,16.824,4.146c13.65,1.683,26.989-0.712,40.277-3.598c7.104-1.543,13.885-0.318,21.029-0.835
	c5.869-0.424,11.89-1.28,17.548-2.903c6.775-1.943,12.768-5.33,19.326-7.787c2.62-0.981,5.414-1.789,8.173-2.677
	c1.477-0.096,2.919-0.369,3.546-0.469c0.086-0.014,0.186-0.026,0.273-0.04c-0.674,2.341-1.225,7.294-1.159,8.244
	c0.17,2.498,0.839,5.034,1.593,7.406c2.139,6.725,6.94,14.275,12.653,18.398c2.919,2.106,12.187,9.259,16.145,5.213
	c1.948-1.993,0.737-8.669-0.861-11.889c-0.005-0.046-0.007-0.092-0.014-0.138c0.022,0.023,0.044,0.047,0.067,0.068
	c5.526,5.199,12.646,9.163,19.71,11.835c3.62,1.369,7.327,2.839,11.175,3.416c2.491,0.373,6.143,1.32,8.651,0.801
	c5.652-1.169,4.287-9.377,3.259-13.464c-0.892-3.55-3.291-4.964-5.471-7.799c-2.713-3.527-5.222-7.459-7.496-11.277
	c-2.719-4.563-4.735-12.938-10.37-14.71c-2.427-0.764-4.357-0.5-6.5-2.003c-1.439-1.009-2.884-2.316-3.929-3.795
	c4.603-0.437,9.259-2.827,13.487-4.204c7.929-2.582,16.21-4.064,24.583-3.7c8.637,0.375,15.541,3.929,21.861,9.727
	c2.468,2.264,4.478,4.98,7.003,7.196c2.592,2.275,5.709,3.863,8.425,6.003c2.452,1.933,7.894,5.116,10.496,1.334
	c1.075-1.562,0.92-4.926,1.075-6.762c0.4-4.718,0.419-9.647-0.162-14.341c-1.035-8.364-1.913-17.123-0.787-25.562
	c1.153-8.643,5.127-16.988,9.099-24.653c3.863-7.453,6.788-15.4,10.193-23.057c1.587-3.569,2.55-7.422,3.417-11.22
	C511.493,197.633,512.816,194.452,511.291,192.04z M59.806,265.584c4.366-1.023,8.87-1.452,13.144-2.89
	c4.994-1.68,9.534-3.008,14.883-3.407c2.984-0.222,5.983-0.366,8.988-0.471c-1.693,0.52-3.389,1.034-5.078,1.554
	c-4.383,1.349-8.819,2.19-13.334,2.942c-4.927,0.819-9.683,1.911-14.575,2.968c-5.006,1.082-10.118,1.562-15.053,2.973
	c-1.932,0.349-3.861,0.725-5.787,1.15C48.568,268.724,54.122,266.916,59.806,265.584z M138.896,282.989
	c-4.884-0.831-10.082-0.856-14.645-2.627c-4.974-1.93-9.917-4.432-15.14-5.591c-9.919-2.203-20.097-1.093-30.157-0.563
	c-10.641,0.561-21.438,0.107-31.96,1.797c-8.816,1.417-17.815,2.596-26.625,1.456c1.7-0.273,3.388-0.783,5.003-1.19
	c4.987-1.258,10.243-1.651,15.322-2.423c8.826-1.341,17.666-2.682,26.47-4.219c7.337-1.281,14.751-2.652,22.017-4.275
	c7.77-1.735,16.167-2.883,23.631-5.612c0.188,0.041,0.367,0.099,0.558,0.134c4.453,0.817,9.655,0.281,14.117-0.249
	c0.803-0.095,0.981-1.119,0.192-1.414c-4.414-1.649-8.833-0.901-13.376-1.722c-3.862-0.697-7.153-3.169-10.971-3.742
	c-2.356-0.354-4.711-0.256-7.07-0.464c-2.054-0.181-3.781-1.098-5.667-1.848c-1.684-0.67-3.676-0.734-5.449-1.042
	c-2.977-0.515-5.984-0.743-9.015-0.737c-2.087,0.004-4.178-0.029-6.27-0.075c-2.774-0.214-5.54-0.395-8.315-0.696
	c-6.503-0.705-12.972-1.466-19.481-2.189c-0.617-0.113-1.234-0.214-1.854-0.283c-0.947-0.104-1.911-0.178-2.88-0.241
	c-7.02-0.755-13.987-1.485-20.938-2.663c-2.301-0.39-4.689-0.367-6.989-0.678c-1.096-0.147-3.927,0.015-4.644-0.456
	c-0.12-0.079-0.201-0.149-0.25-0.214c4.718-0.188,10.042-2.039,14.422-2.937c6.787-1.392,13.442-3.133,20.151-4.862
	c1.201-0.31,2.413-0.615,3.624-0.92c5.341-0.499,10.827-0.699,15.938-2.154c4.294-1.224,8.317-2.638,12.477-3.792
	c2.925-0.44,5.848-0.825,8.756-1.107c4.754-0.462,9.602-0.912,14.289-1.978c0.962-0.193,1.93-0.432,2.905-0.746
	c0.199-0.064,0.396-0.134,0.594-0.199c0.33-0.102,0.662-0.191,0.989-0.301c6.918-2.325,13.699-4.764,20.849-6.351
	c7.188-1.595,14.393-4.262,21.695-5.983c3.195-0.589,6.42-1.036,9.753-1c0.768,0.138,1.54,0.208,2.317,0.209
	c0.905-0.23,1.129,0.136,0.672,1.1c0.727,1.448-0.417,4.234-0.673,5.667c-0.364,2.033-0.776,3.83-0.74,5.887
	c0.077,4.417,1.574,7.528,5.008,10.36c4.365,3.6,11.848,5.479,12.158,11.901c0.331,6.841-1.234,12.378-3.953,18.481
	c-0.742,1.666-1.427,3.281-2.169,4.835c-2.837,3.595-5.444,7.185-9.188,9.982c-1.237,0.926-2.557,1.772-3.919,2.549
	c-1.096,0.425-2.231,0.792-3.424,1.102C145.935,281.194,141.621,282.579,138.896,282.989z M184.315,331.213
	c2.403,6.027,5.306,15.148,2.841,21.47c-2.721,6.979-6.178,13.777-8.047,21.078c-0.548,2.142-1.118,3.929-2.019,5.974
	c-0.22,0.5-0.384,0.858-0.51,1.131c-2.523-3.298-4.088-7.593-5.597-11.389c-3.085-7.761-3.964-16.493-5.227-24.708
	c-1.216-7.92-1.25-15.485-0.788-23.488c0.256-4.456,0.139-8.905,0.237-13.358c0.073-3.355,0.734-6.638,0.855-9.96
	c0.298,0.059,0.598,0.116,0.892,0.178c3.553,1.094,7.131,2.083,10.677,3.229c0.1,0.032,0.203,0.058,0.303,0.089
	c-1.477,3.601-0.204,8.771,0.37,12.155C179.355,319.808,182.01,325.433,184.315,331.213z M390.522,334.489
	c-1.506,0.698-5.79-2.729-7.084-3.486c-3.756-2.202-5.996-4.297-8.542-7.819c-3.15-4.359-5.867-8.682-7.214-13.928
	c-0.847-3.298,0.559-7.271,0.001-10.541c3.313-0.454,7.149-1.065,9.588-2.562c0.127,0.769,0.276,1.537,0.48,2.302
	c0.959,3.605,2.332,7.238,3.77,10.684c1.951,4.679,4.868,9.569,8.296,13.666c-0.301,1.258-0.249,2.18,0.159,3.513
	c0.143,0.466,0.266,0.997,0.433,1.505C390.513,330.586,391.32,334.12,390.522,334.489z M408.551,299.793
	c1.88,0.364,3.224-0.181,4.823,0.904c2.064,1.4,2.469,4.278,3.559,6.346c3.587,6.807,8.115,13.25,12.631,19.463
	c1.339,1.841,1.703,3.13,1.934,5.366c0.082,0.797,0.487,5.097,0.014,5.449c-0.742,0.553-6.963-0.623-8.017-0.803
	c-8.273-1.411-16.693-5.43-23.576-10.096c-6.568-4.452-11.946-11.515-15.339-18.675c-2.434-5.136-3.961-10.691-6.052-15.942
	c0.042-4.465-0.02-9.064,3.186-12.639c3.798-4.234,8.44-3.265,12.155,0.462c2.623,2.633,1.917,5.746,2.848,9.098
	c0.851,3.062,2.681,5.482,5.028,7.56C403.743,298.055,405.894,299.279,408.551,299.793z M506.248,202.679
	c-1.303,3.859-3.177,7.083-5.096,10.625c-3.536,6.526-6.268,13.52-9.624,20.147c-3.206,6.329-5.891,12.674-7.439,19.591
	c-1.555,6.944-0.742,13.356-0.34,20.354c0.495,8.602,2.264,16.934,2.068,25.626c-0.097,4.329-0.158,7.336-5.148,4.159
	c-2.626-1.672-5.239-4.426-7.275-6.75c-4.275-4.881-7.534-9.612-12.975-13.431c-5.31-3.727-11.167-5.238-17.521-5.652
	c-6.825-0.444-14.103,0.293-20.764,1.908c-4.104,0.996-8.226,2.486-12.213,3.882c-3.029,1.061-5.993,2.712-9.156,3.358
	c-0.855-2.492-1.166-5.139-2.915-7.216c-4.491-5.334-11.006-8.146-17.041-3.682c-5.144,3.805-5.85,10.565-4.546,16.333
	c-0.436,0.004-0.872,0.056-1.258,0.131c-3.164,0.616-6.322,1.708-9.477,2.447c-0.225,0.052-1.43,0.26-2.875,0.601
	c-9.748,1.488-18.827,5.881-28.197,8.841c-5.998,1.895-12.292,3.059-18.559,3.563c-6.378,0.513-12.601-0.611-18.939,0.553
	c-13.465,2.471-26.274,6.033-40.157,5.026c-6.275-0.455-12.685-1.835-18.775-3.423c-2.171-0.566-4.562-1.988-6.82-2.501
	c-1.215-4.295-1.449-8.727-2.374-13.212c-0.311-1.509-0.819-2.999-1.487-4.423c0.264-1.941,0.049-4.073-0.252-5.681
	c-0.116-0.62-0.49-1.928-1.099-2.85c-1.184-2.055-3.368-3.802-5.136-5.032c-4.617-3.212-9.142-4.914-14.709-3.62
	c-0.308,0.072-0.234,0.539,0.074,0.543c4.575,0.059,8.903,2.109,12.466,4.898c1.42,1.112,3.052,2.266,4.088,3.766
	c0.488,0.707,0.881,1.425,1.278,2.141c0.044,0.327,0.082,0.656,0.115,0.986c-2.874-3.241-6.795-5.477-11.3-5.602
	c-1.113-0.031-1.418,1.817-0.269,1.991c11.651,1.773,11.115,12.032,12.274,21.021c1.101,8.534,5.064,14.333,10.07,21.116
	c4.807,6.512,8.761,13.567,13.829,19.936c6.519,8.19,12.629,16.511,16.07,26.545c1.364,3.978,3.179,8.357,3.542,12.579
	c0.278,3.238-0.508,4.351-3.888,3.734c-1.658-0.303-3.293-0.798-4.949-1.129c-8.086-1.617-16.825-3.795-24.241-7.547
	c-7.676-3.883-13.64-9.841-19.478-16.017c-3.135-3.317-6.44-6.604-9.121-10.317c-2.373-3.286-3.691-7.025-5.359-10.678
	c-4.281-9.373-5.041-20.199-5.833-30.42c-0.729-9.396-0.204-18.749,0.108-28.137c0.031-0.921-1.437-1.146-1.629-0.221
	c-1.31,6.318-2.331,12.463-2.764,18.732c-4.354,0.013-9.801-2.431-13.932-3.55c-0.993-0.269-1.989-0.521-2.985-0.769
	c-1.139-0.337-2.284-0.611-3.437-0.839c-1.838-0.447-3.673-0.91-5.498-1.424c-0.324-0.242-0.725-0.365-1.09-0.305
	c-2.898-0.847-4.686-1.406-7.454-2.358c-3.542-1.218-6.198-3.284-9.187-5.064c3.066-1.136,6.303-2.908,9.242-5.145
	c2.665-1.637,5.044-3.746,7.097-6.499c2.062-2.765,3.034-6.102,4.365-9.231c1.223-2.877,2.987-5.523,3.813-8.523
	c1.395-5.063,2.88-13.751-0.146-18.409c-4.102-6.313-14.276-6.068-16.205-14.282c-0.954-4.063,3.475-13.851,0.072-16.905
	c-0.17-0.153-0.386-0.277-0.621-0.389c3.152-1.006,6.239-2.192,9.345-3.343c7.387-2.739,14.075-6.486,21.057-10.053
	c6.654-3.4,14.261-4.708,21.52-6.212c6.988-1.449,12.881-4.6,18.875-8.524c7.5-4.91,14.508-10.368,22.631-14.289
	c8.083-3.901,16.838-6.383,24.996-10.138c7.196-3.312,13.945-8.012,19.907-13.206c1.981-1.726,3.993-3.272,6.047-4.704
	c2.823-1.287,5.649-3.064,8.096-3.89c3.551-1.199,7.371-1.407,10.931-2.622c2.254-0.77,3.87-1.504,6.3-1.776
	c0.042-0.005,2.307-0.172,3.765-0.334c-2.51,6.077-4.3,12.483-5.9,18.839c-0.921,3.657-2.019,7.493-1.695,11.313
	c0.243,2.874,1.706,4.919,2.674,7.616c2.354,6.556,0.616,13.279,3.281,19.629c1.941,4.626,4.607,8.12,8.413,10.475
	c5.112,5.17,13.671,7.378,20.094,9.438c11.65,3.737,23.874,7.581,34.523,13.683c10.5,6.016,21.715,11.212,31.666,18.187
	c3.62,2.537,7.445,4.832,11.534,6.531c2.062,0.856,4.16,1.399,6.291,2.03c3.373,0.998,6.749,3.167,10.342,2.858
	c3.265-0.28,6.257-2.037,8.819-3.969c5.428-4.094,9.52-9.601,13.807-14.802c5.416-6.569,10.472-13.092,16.624-19.025
	c3.366-3.246,6.737-6.049,10.517-8.802c2.44-1.777,5.902-5.111,9.003-6.509C508.679,197.334,506.771,201.128,506.248,202.679z"/>
<path d="M385.011,270.444c-4.672,1.452-8.151,3.438-11.25,7.33c-1.277,1.604-2.21,3.226-2.805,5.183
	c-0.295,0.97-0.499,1.955-0.607,2.961c-0.059,0.444-0.099,0.89-0.118,1.337c-0.002,0.229,0.12,0.36,0.347,0.405
	c-0.002,0.004-0.008,0.006-0.01,0.011l-0.049,0.108c-0.147,0.327,0.278,0.585,0.485,0.283c2.09-3.043,2.448-6.72,4.985-9.647
	c2.616-3.019,5.917-5.284,9.266-7.394C385.548,270.836,385.365,270.334,385.011,270.444z"/>
<path d="M373.957,273.571c0.76-0.98,1.284-2.171,2.276-2.958c0.266-0.211,0.046-0.696-0.279-0.674
	c-1.229,0.084-2.536,1.217-3.521,1.9c-1.75,1.211-3.717,2.887-5.146,4.468c-1.367,1.513-4.477,5.805-2.272,7.667
	c0.263,0.222,0.727,0.169,0.814-0.215c0.58-2.545,2.748-5.099,4.639-6.743C371.673,275.969,372.974,274.838,373.957,273.571z"/>
<path d="M389.733,268.995c-0.517,0.093-0.487,0.902,0,1.015c2.086,0.486,4.054,0.863,5.888,2.043
	c1.962,1.263,3.146,3.375,4.884,4.891c0.578,0.504,1.673,0.035,1.386-0.807C400.375,271.681,394.369,268.155,389.733,268.995z"/>
<path d="M354.011,291.054c-9.771,2.583-20.809,8.355-31.033,7.814c-0.384-0.021-0.468,0.586-0.091,0.672
	c4.879,1.109,9.828-0.332,14.552-1.655c5.722-1.602,11.532-3.488,16.947-5.941C354.899,291.712,354.531,290.917,354.011,291.054z"/>
<path d="M319.061,285.531c9.162-1.275,18.686-3.038,27.237-6.652c0.465-0.197,0.231-1.004-0.26-0.957
	c-9.173,0.882-18.248,4.553-27.453,5.883C317.447,283.969,317.935,285.688,319.061,285.531z"/>
<path d="M255.062,184.745c9.408-0.209,18.466,1.027,27.82,1.433c0.679,0.029,0.827-1.034,0.162-1.189
	c-9.728-2.275-18.99-3.283-28.991-3.051c-7.817,0.181-18.612-0.017-25.619,4.08c-0.395,0.231-0.209,0.815,0.226,0.834
	C237.331,187.227,246.318,184.939,255.062,184.745z"/>
<path d="M256.706,178.306c14.753,1.024,29.015,1.603,43.442,5.238c0.744,0.188,1.26-0.899,0.537-1.275
	c-12.835-6.686-29.991-5.78-43.979-4.805C256.165,177.501,256.164,178.269,256.706,178.306z"/>
<path d="M288.313,187.541c4.849,3.069,10.293,4.448,15.658,6.354c6.043,2.147,11.802,5.483,17.977,7.151
	c0.823,0.222,1.313-0.934,0.578-1.372c-5.03-3.002-10.388-5.163-15.898-7.11c-5.902-2.085-12.209-3.154-17.956-5.637
	C288.261,186.749,287.915,187.289,288.313,187.541z"/>
<path d="M438.279,273.107c-11.519-0.874-25.652,1.871-35.88,7.156c-0.312,0.161-0.079,0.58,0.224,0.529
	c11.948-1.986,23.569-5.415,35.656-7C438.708,273.735,438.729,273.141,438.279,273.107z"/>
<path d="M442.035,267.651c-10.125-2.219-19.729,0.513-29.725,1.77c-0.358,0.045-0.382,0.594,0,0.579
	c5.088-0.198,10.128-0.915,15.213-1.056c4.746-0.132,9.592,0.696,14.287,0.363C442.706,269.242,443.018,267.866,442.035,267.651z"/>
<path d="M268.22,294.957c0.372-0.064,0.275-0.646-0.088-0.646c-6.6,0-13.033-0.412-19.549-1.547
	c-4.988-0.869-11.804-1.707-16.232-4.213c-0.365-0.207-0.631,0.305-0.319,0.546c4.467,3.45,11.566,4.506,16.993,5.425
	C255.602,295.634,261.622,296.104,268.22,294.957z"/>
<path d="M297.93,283.821c-8.941,1.914-17.978,3.624-27.149,3.546c-4.146-0.035-8.278,0.165-12.414,0.442
	c-4.325,0.29-11.132,1.764-14.723-1.297c-0.319-0.271-0.766,0.159-0.465,0.465c5.307,5.412,18.129,2.151,24.91,2.069
	c10.459-0.126,20.055-1.227,30.08-4.363C298.719,284.511,298.492,283.7,297.93,283.821z"/>
<path d="M456.34,273.931c-3.678-1.62-7.198-2.554-11.205-2.333c-0.773,0.042-0.786,1.204,0,1.211
	c6.492,0.065,12.672,4.052,18.184,7.188c0.494,0.281,1.196-0.313,0.829-0.829C462.371,276.674,459.074,275.136,456.34,273.931z"/>
<g>
</g>
<g>
</g>
<g>
</g>
<g>
</g>
<g>
</g>
<g>
</g>
<g>
</g>
<g>
</g>
<g>
</g>
<g>
</g>
<g>
</g>
<g>
</g>
<g>
</g>
<g>
</g>
<g>
</g>
</svg>
