<?xml version="1.0" encoding="iso-8859-1"?>
<!-- Generator: Adobe Illustrator 19.0.0, SVG Export Plug-In . SVG Version: 6.00 Build 0)  -->
<svg version="1.1" id="Capa_1" xmlns="http://www.w3.org/2000/svg" xmlns:xlink="http://www.w3.org/1999/xlink" x="0px" y="0px"
	 viewBox="0 0 512.006 512.006" style="enable-background:new 0 0 512.006 512.006;" xml:space="preserve">
<path style="fill:#AC9E7F;" d="M502.651,421.879c-0.469-7.523-2.529-15.955-5.705-22.753c-6.126-13.114-13.357-24.454-25.551-32.588
	c-3.064-2.043-6.334-3.769-9.332-5.906c-2.047-1.457-5.337-2.584-6.998-4.298c-3.609-3.724-8.299-5.208-13.119-6.679
	c-4.634-1.414-8.471-3.396-12.736-5.559c-8.48-4.301-14.56-11.462-20.023-19.057c-4.852-6.745-12.453-12.044-18.744-17.408
	c-9.061-7.725-19.025-14.327-27.907-22.322c-9.36-8.425-19.267-16.34-30.222-22.606c-11.529-6.594-23.252-9.708-36.25-12.164
	c-15.178-2.869-30.525-4.787-45.654-7.927c-9.461-1.964-18.764-3.994-28.344-5.103c-7.837-0.908-14.461,1.673-22.066-1.507
	c-7.326-3.063-12.747-8.255-18.352-13.797c-7.055-6.975-12.958-14.834-19.787-21.994c-7.77-8.147-11.405-18.123-16.084-28.167
	c-3.373-7.241-7.16-14.327-10.02-21.8c-5.191-13.563-9.088-27.72-10.984-42.122c-2.313-17.554-5.586-34.98-8.397-52.469
	c-2.196-13.664-8.313-28.184-19.209-37.031c-3.868-3.141-7.989-5.44-12.206-8.108c-4.443-2.812-8.947-5.745-13.967-7.43
	c-2.525-0.848-5.004-1.12-7.499-1.174c-2.684-0.058-5.388,0.135-8.194,0.135c-3.689,1.592-7.357,3.238-11.072,4.765
	c-6.432,2.645-12.409,5.547-18.896,7.963c-5.256,1.958-12.324,4.726-14.843,10.2c-1.491,3.242,0.506,6.291,2,9.055
	c3.318,6.141,5.382,9.658,12.646,7.753c2.079-0.545,12.309-4.179,11.697,0.661c-0.607,4.801-13.095,4.522-11.27,10.491
	c1.383,4.521,7.347,1.09,9.89,0.161c5.819-2.126,12.19-3.88,18.431-3.794c8.406,0.117,9.818,3.581,13.113,10.452
	c0.964,2.013,2.577,4.606,4.624,5.698c0.97,0.517,2.612,0.258,3.416,0.844c4.806,3.51,5.647,15.645,4.815,20.745
	c-0.299,1.839,0.951,3.926,1.465,5.903c3.082,11.869,6.436,23.675,9.168,35.624c3.795,16.6,5.634,33.341,6.195,50.505
	c0.711,21.716,4.336,43.353,7.08,64.976c0.588,4.622,2.01,9.509,4.385,13.471c13.063,21.784,21.14,45.662,30.666,69.005
	c6.152,15.076,6.988,28.514-0.03,43.078c-10.94,22.701-20.464,45.97-26.44,70.587c-1.402,5.78-4.941,10-8.674,14.308
	c-2.078,2.397-7.92,9.535-6.021,13.007c1.869,3.416,11.275,2.088,14.15,1.843c3.971-0.338,7.995-0.407,11.994-0.291
	c3.258,0.094,8.064,1.225,11.003-0.851c4.16-2.938,2.408-9.345,2.932-13.547c0.939-7.53,4.247-14.377,8.055-20.845
	c1.88-3.194,3.735-6.506,5.583-9.653c1.866-3.178,4.958-5.285,6.91-8.386c1.826-2.9,1.662-6.385,3.019-9.43
	c3.067,0.565,4.313,19.764,4.538,23.49c0.518,8.618-1.486,17.031-5.823,24.497c-3.2,5.509-6.215,10.966-9.927,16.078
	c-1.93,2.658-7.297,9.583-3.293,12.596c1.295,0.973,5.229,0.691,6.825,0.829c4.286,0.37,8.526,0.097,12.807,0.236
	c5.199,0.17,14.915,2.563,17.673-2.878c2.043-4.027,2.996-9.752,4.312-14.104c2.481-8.209,5.55-15.144,9.409-22.907
	c6.162-12.398,7.547-24.283,2.242-37.377c-2.113-5.213-5.537-11.318-1.033-17.877c6.798-0.614,11.379,3.695,15.091,8.338
	c7.407,9.266,17.159,13.037,28.461,13.957c8.228,0.67,15.714,3.537,24.155,7.316c0.572,11.842,1.676,23.661,1.859,35.52
	c0.075,4.77,0.373,9.819,0.18,14.528c-0.187,4.581-3.542,7.623-5.799,11.349c-1.007,1.662-3.646,5.725-2.814,7.857
	c1.638,4.203,16.32,1.845,19.916,1.66c3.244-0.167,6.48-0.164,9.736-0.28c2.338-0.083,8.402-0.03,10.347-1.296
	c3.973-2.587,2.307-10.032,1.524-13.762c-1.023-4.876-2.156-10.079-2.517-15.075c-0.589-8.137,1.304-16.115,0.865-24.217
	c-0.171-3.167-1.859-14.831,2.102-16.007c0.536-0.159,4.119,0.677,5.087,0.614c1.053-0.069,3.199-0.528,4.146-0.324
	c5.521,1.19,7.78,7.844,9.786,12.217c2.845,6.203,5.803,12.358,8.312,18.708c3.81,9.644,3.021,16.734-4.129,24.44
	c-1.532,1.653-7.827,7.201-5.959,9.843c1.043,1.475,7.078,1.479,8.862,1.64c4.017,0.363,8.356-0.229,12.361-0.588
	c7.368-0.662,19.596,1.09,21.661-8.198c2.499-11.238-4.666-22.491-8.495-32.66c-2.181-5.789-4.008-11.689-6.32-17.431
	c-1.604-3.984-4.715-9.321-3.549-13.764c1.277-4.865,7.248-6.552,11.275-8.292c5.5-2.377,9.148-1.941,15.065-2.296
	c7.991-0.479,15.23-2.71,22.954-4.623c4.044-1.001,7.9-2.749,12.027-3.417c12.748-2.065,27.645,5.011,39.424,9.17
	c5.75,2.03,11.735,3.851,16.918,6.936c10.941,6.512,13.127,14.523,8.178,26.061c-3.889,9.066-10.176,16.199-18.361,21.458
	c-18.92,12.153-38.029,24.009-57.033,36.032c-2.613,1.653-4.875,3.663-7.352,5.378c-3.316,2.295-7.547,3.189-11.028,5.236
	c-1.444,0.849-8.028,3.896-4.31,5.334c2.058,0.795,8.527-2.016,10.906-2.57c5.61-1.307,10.841-2.762,16.564-3.506
	c8.694-1.131,17.514-3.495,25.759-6.373c7.892-2.754,16.016-4.777,23.909-7.522c8.003-2.784,14.13-6.803,21.112-11.201
	c6.66-4.195,13.311-7.906,18.493-13.979C498.431,453.372,503.607,437.29,502.651,421.879z M61.47,18.824
	c-3.082,3.541-8.705,2.661-10.305-1.863c-0.294-0.83,0.164-1.629,0.844-2.069c0.549-2.17,2.916-3.375,5.104-3.089
	c0.354,0.046,0.689,0.142,1.015,0.26c1.397-0.178,2.866-0.003,3.868,1.057C63.627,14.848,62.855,17.232,61.47,18.824z"/>
<g>
	<path style="fill:#897958;" d="M502.651,421.879c-0.469-7.523-2.529-15.955-5.705-22.753
		c-6.126-13.114-13.357-24.454-25.551-32.588c-3.064-2.043-6.334-3.769-9.332-5.906c-2.047-1.457-5.337-2.584-6.998-4.298
		c-3.609-3.724-8.299-5.208-13.119-6.679c-4.634-1.414-8.471-3.396-12.736-5.559c-8.48-4.301-14.56-11.462-20.023-19.057
		c-4.852-6.745-12.453-12.044-18.744-17.408c-9.061-7.725-19.025-14.327-27.907-22.322c-9.36-8.425-19.267-16.34-30.222-22.606
		c-11.529-6.594-23.252-9.708-36.25-12.164c-15.178-2.869-30.525-4.787-45.654-7.927c-9.461-1.964-18.764-3.994-28.344-5.103
		c-7.837-0.908-14.461,1.673-22.066-1.507c-7.326-3.063-12.747-8.255-18.352-13.797c-7.055-6.975-12.958-14.834-19.787-21.994
		c-7.77-8.147-11.405-18.123-16.084-28.167c-3.373-7.241-7.16-14.327-10.02-21.8c-5.191-13.563-9.088-27.72-10.984-42.122
		c-2.313-17.554-5.586-34.98-8.397-52.469c-2.196-13.664-8.313-28.184-19.209-37.031c-3.868-3.141-7.989-5.44-12.206-8.108
		c-4.443-2.812-8.947-5.745-13.967-7.43c-2.195-0.737-4.354-1.026-6.52-1.128c-2.813,2.917-5.047,6.403-6.233,10.095
		c1.362-0.154,2.78,0.036,3.755,1.068c1.632,1.729,0.859,4.113-0.525,5.705c-1.068,1.227-2.441,1.911-3.847,2.109
		c0.175,0.878,0.415,1.752,0.748,2.617c2.048,3.072,5.12,6.144,9.216,7.168c7.168,1.024,14.336-4.096,20.48-1.024
		c13.312,6.144-10.24,16.384-2.049,24.576c3.072,3.072,10.24,1.024,13.313,5.12c3.072,4.096-4.096,8.192-4.096,13.312
		c0,7.168,14.336,5.12,13.313,13.312c-1.025,6.144-13.313,12.288-7.169,17.408c6.144,5.12,16.384,7.168,13.312,17.408
		c-3.071,7.168-12.287,13.312-9.215,21.504c2.047,8.192,17.407,2.048,19.455,6.144c8.192,12.288-18.432,21.504-7.168,36.864
		c6.145,8.192,17.408-1.024,18.433,5.12c2.048,15.36,2.048,26.624,19.456,30.72c10.24,3.072-3.072,16.384,1.023,23.552
		c5.12,11.264,14.336-3.072,22.528-2.048c5.12,0,6.144,7.168,5.12,11.264c-2.049,17.408-20.48,44.032,2.048,55.296
		c4.097,2.048,8.192-1.024,12.288-3.072c9.216-6.144,9.216-18.432,14.336-27.648c4.096-7.168,15.359-9.216,20.48-2.048
		c1.023,2.048,3.072,4.096,3.072,7.168c1.023,10.24-4.097,20.48-2.049,30.72c3.072,10.24,14.336,6.144,19.456,0
		c4.097-4.096,3.072-13.312,8.192-14.336c16.384-4.096,1.023,22.528,7.168,28.672c4.096,5.12,16.384-5.12,18.432,1.024
		c4.096,11.264-15.359,40.96,8.191,39.936c4.097,0,7.168-5.12,9.217-9.216c3.072-13.312,1.023-33.792,18.432-34.816
		c4.096,0,7.168,3.072,10.24,6.144c8.191,10.24,0,28.672,14.336,33.792c3.072,1.024,6.145-2.048,8.191-4.096
		c5.121-6.144,7.168-14.336,13.313-20.48c3.072-3.072,8.192-5.12,11.264-2.048c9.217,8.192,4.097,23.552,15.36,28.672
		c12.288,6.144,17.408-11.264,28.672-11.264c9.216,0,4.097,16.384,11.265,16.384c9.215,1.024,22.527-11.264,27.647,4.096
		c1.024,5.12-3.071,9.216-2.048,13.312c1.023,8.192,12.288,2.048,16.384,4.096c6.144,2.048,2.048,11.264,3.071,17.408
		c1.025,2.048,4.098,3.072,6.145,5.12c4.096,5.12,3.072,12.288-4.096,12.288c1.023,9.216,1.023,19.456-4.096,28.672
		c-6.145,8.192-13.313,11.264-22.528,15.36c-1.024,0-2.048,3.072-4.096,5.12c-3.072,3.072-6.144-2.048-10.24-1.024
		c-4.096,1.024-3.071,6.144-5.12,8.192c-9.216,5.12-24.576,1.024-28.672,11.264c-0.932,2.422-2.141,4.603-3.541,6.619
		c6.74-1.278,13.46-3.189,19.837-5.415c7.892-2.754,16.016-4.777,23.909-7.522c8.003-2.784,14.13-6.803,21.112-11.201
		c6.66-4.195,13.311-7.906,18.493-13.979C498.431,453.372,503.607,437.29,502.651,421.879z"/>
	<path style="fill:#897958;" d="M223.98,283.606c-3.19-1.297-5.99,3.152-7.66,5.395c-5.727,7.686-7.99,13.854-1.963,21.802
		C224.934,324.75,240.593,286.942,223.98,283.606z"/>
	<path style="fill:#897958;" d="M260.388,318.224c-2.665-0.53-6.496,2.367-9.281,4.874c-3.002,2.702-11.255,9.21-10.85,13.159
		c0.625,6.092,11.342,5.818,15.049,3.853c5.812-3.083,8.801-10.716,8.084-17.012C263.028,319.918,261.894,318.524,260.388,318.224z"
		/>
	<path style="fill:#897958;" d="M223.04,330.903c4.662,4.424,11.61,3.217,13.316-3.412c1.73-6.726-8.391-8.399-12.661-5.068
		C220.734,324.732,220.2,328.208,223.04,330.903z"/>
	<path style="fill:#897958;" d="M171.169,252.991c-7.078,2.937-18.756,28.973-9.683,27.709c3.517-0.49,6.495-4.862,8.432-7.36
		c2.382-3.073,5.683-6.229,7.677-9.542c2.239-3.723,2.787-11.532-1.839-13.968C174.085,250.343,172.812,251.397,171.169,252.991z"/>
	<path style="fill:#897958;" d="M142.075,227.343c-1.922,2.957-2.229,8.853-1.57,11.805c0.967,4.33,3.586,8.808,8.434,5.627
		c5.291-3.472,4.115-13.35-0.153-17.235C145.593,224.634,143.433,225.256,142.075,227.343z"/>
	<path style="fill:#897958;" d="M124.858,196.732c-3.919,5.626-3.156,25.882,6.898,21.19c10.688-4.988-0.256-28.69-6.529-21.66
		C125.101,196.405,124.978,196.562,124.858,196.732z"/>
	<path style="fill:#897958;" d="M331.657,352.861c0.534-3.12,1.485-9.544-1.167-12.126c-2.604-2.536-9.77-1.712-12.837-0.581
		c-5.16,1.903-5.696,6.391-6.786,11.166c-1.262,5.528-0.908,12.998,5.282,15.347C324.673,369.902,330.466,359.819,331.657,352.861z"
		/>
	<path style="fill:#897958;" d="M374.765,345.962c-6.264,0.11-14.16,12.532-6.633,19.607c8.821,8.292,13.964-8.95,11.548-15.447
		C378.566,347.127,376.747,345.928,374.765,345.962z"/>
	<path style="fill:#897958;" d="M421.067,372.002c-5.703-2.278-17.406-0.05-14.713,7.114c3.229,8.585,20.954,1.594,17.33-5.074
		C423.208,373.165,422.271,372.483,421.067,372.002z"/>
</g>
<g>
	<path style="fill:#EDE4C0;" d="M196.044,387.698c2.473-7.723-2.552-17.609-4.525-25.071c-1.803-6.809-0.694-19.951,5.588-24.151
		c3.9,3.846,3.742,12.613,6.639,17.549c4.443,7.569,6.41,4.78,13.273,4.356c5.961-0.369,8.231,4.614,10.162,9.429
		c3.212,8.007,4.109,12.825,13.075,14.469c5.856,1.074,7.872,1.88,11.919,6.033c2.97,3.046,8.088,6.67,12.479,5.717
		c1.449-0.314,4.593-3.791,6.327-2.546c1.319,0.946,0.235,5.545,0.116,6.778c-0.479,4.946-2.633,11.357-6.867,14.569
		c-2.913,2.208-5.789,1.003-9.211,0.226c-9.875-2.24-21.174-3.407-30.281-8.223c-4.439-2.349-8.822-5.625-12.717-8.784
		C208.191,394.942,201.749,391.293,196.044,387.698z"/>
	<path style="fill:#EDE4C0;" d="M205.61,342.158c-1.742,4.354,6.67,17.263,10.549,11.599c1.649-2.409-1.812-12.065-3.332-13.778
		C211.085,338.017,205.514,335.353,205.61,342.158z"/>
	<path style="fill:#EDE4C0;" d="M229.72,363.588c1.047,5.084,3.801,9.683,7.412,13.399c2.188,2.253,10.809,8.696,13.213,3.317
		c1.521-3.406-5.688-9.99-7.408-11.987C238.745,363.451,232.524,353.7,229.72,363.588z"/>
	<path style="fill:#EDE4C0;" d="M270.285,391.908c-2.155-0.388-4.724-0.435-6.832-1.117c-4.401-1.424-11.56-8.703-5.94-12.649
		c5.818-4.085,11.92,5.08,15.354,8.516C272.158,387.762,271.796,389.056,270.285,391.908z"/>
	<path style="fill:#EDE4C0;" d="M136.728,323.023c-2.145-9.926-7.643-19.131-9.845-29.161c-1.937-8.82-6.495-15.258-11.229-22.751
		c-2.953-4.676-5.561-8.09-7.05-13.475c-1.671-6.041-2.919-12.211-4.034-18.38c-0.963-5.334-1.482-10.708-2.164-16.08
		c-0.818-6.43-3.102-12.808-3.515-19.278c-0.53-8.316,0.011-16.535-0.91-24.85c-0.64-5.786-0.743-11.578-1.019-17.382
		c-0.205-4.321-0.569-8.031-1.355-12.261c-0.426-2.292-1.214-4.571,0.138-6.655c6.017,1.729,7.267,20.996,8.071,25.998
		c1.969,12.236,2.977,24.938,5.598,37.035c1.89,8.721,1.908,17.176,3.131,26.047c0.688,4.983,1.631,11.284,4.422,15.617
		c1.518,2.358,3.332,3.319,5.258,5.281c4.656,4.745,6.203,12.794,10.134,18.375c2.778,3.944,4.876,7.681,6.56,12.19
		c2.875,7.703,2.924,12.972,2.018,20.907C140.134,311.215,141.429,320.576,136.728,323.023z"/>
	<path style="fill:#EDE4C0;" d="M90.038,129.765c0.194-7.548-3.236-15.831-4.723-23.188c-0.586-2.908-3.961-18.111,2.041-14.663
		c2.619,1.505,3.75,12.217,4.429,14.702c1.494,5.469,2.304,11.199,3.992,16.593C97.662,129.232,101.233,140.797,90.038,129.765z"/>
	<path style="fill:#EDE4C0;" d="M60.954,48.252c1.996,3.587,3.021,8.792,5.319,11.904c1.444,1.957,4.724,3.609,6.647,4.889
		c2.412,1.604,3.013,1.433,4.106,4.669c1.431,4.234-0.805,13.223,2.69,16.047c6.045,4.883,4.227-13.679,4.201-16.637
		c-0.061-7.29-2.231-12.223-5.22-18.779c-1.512-3.316-2.952-8.357-7.258-8.572C67.498,41.576,62.519,46.592,60.954,48.252z"/>
	<path style="fill:#EDE4C0;" d="M115.59,219.637c-0.042,0.346-0.07,0.669-0.085,0.959c-0.215,4.014,0.027,8.395,0.455,12.433
		c0.453,4.296,1.996,19.504,9.346,17.662c5.569-1.405,0.781-20.429,0.025-23.718c-0.639-2.784-1.935-12.201-5.191-13.329
		C117.203,212.627,115.933,216.838,115.59,219.637z"/>
	<path style="fill:#EDE4C0;" d="M131.369,254.522c-0.2,4.532,2.509,10.05,4.347,13.893c1.719,3.592,5.916,11.407,8.289,5.12
		c1.636-4.336-3.3-15.519-5.367-19.11C135.513,248.996,131.308,248.112,131.369,254.522z"/>
	<path style="fill:#EDE4C0;" d="M313.529,406.45c-3.493,0.411-12.321,5.587-11.793,10.218c0.434,3.812,7.752,2.677,10.731,2.037
		c7.146-1.536,13.521-5.487,20.165-8.41c3.706-1.63,7.009-4.124,10.902-5.205c3.609-1.002,7.405-0.718,11.06-1.405
		c3.891-0.732,7.351-2.923,11.381-2.516c5.061,0.511,7.668,0.771,13.025-0.728c5.368-1.503,10.736-2.49,15.865-4.696
		c2.31-0.993,12.98-2.756,12.526-6.975c-0.617-5.723-14.854-5.005-18.03-4.666c-6.707,0.716-15.58,3.533-22.333,1.642
		c-3.651-1.022-5.007-4.069-8.804-4.301c-4.602-0.281-7.798,2.684-10.972,5.493C338.2,394.951,327.2,400.514,313.529,406.45z"/>
	<path style="fill:#EDE4C0;" d="M381.648,372.008c-4.6,0.488-15.551,1.705-16.938,6.581c5.402,3.538,17.518,2.97,23.558,1.022
		C395.194,377.377,393.415,373.007,381.648,372.008z"/>
	<path style="fill:#EDE4C0;" d="M421.83,397.265c1.341,0.225,2.599,0.732,3.904,1.196c5.565,1.978,10.806,2.105,16.501,3.444
		c3.938,0.925,14.813,9.06,18.744,6.704c6.741-4.04-7.39-10.806-9.949-11.829c-6.861-2.74-24.847-9.14-30.711-2.622
		C420.776,395.525,421.79,396.305,421.83,397.265z"/>
	<path style="fill:#EDE4C0;" d="M459.094,392.36c1.126-0.227-4.196-4.342-4.467-4.515c-2.092-1.333-4.224-2.595-6.486-3.621
		c-3.37-1.528-10.032-4.432-13.003-0.674C440.31,387.359,452.564,393.676,459.094,392.36z"/>
	<path style="fill:#EDE4C0;" d="M471.2,437.386c-3.167,1.527-7.218,7.774-8.785,9.167c-2.85,2.53-9.449,6.948-9.118,11.395
		c0.483,6.472,9.408-1.678,11.319-3.34c3.47-3.017,11.639-9.369,10.251-14.768C474.148,437.04,472.784,436.622,471.2,437.386z"/>
	<path style="fill:#EDE4C0;" d="M414.853,483.809c-0.682,5.371,11.235-1.222,12.811-2.085c5.096-2.791,14.992-7.279,17.201-12.833
		c-5.932-5.968-17.258,4.112-21.955,7.536C421.681,477.321,415.167,481.32,414.853,483.809z"/>
</g>
<g>
	<path style="fill:#938569;" d="M207.218,325.125c-0.391,0.238-0.887,0.688-1.444,1.25c0.713-1.666,1.288-3.332,1.799-5.005
		c1.007-2.884,1.838-5.858,2.552-8.987c0.965-4.226-4.984-7.109-7.216-3.042c-2.812,5.125-4.284,11.111-6.766,16.484
		c0.253-3.478,0.118-6.993-0.446-10.504c-0.217-1.344-2.4-1.61-2.969-0.388c-0.915,1.97-1.922,3.497-2.438,5.643
		c-0.626,2.604-0.771,5.287-1.323,7.9c-1.135,5.365-4.187,10.563-6.295,15.606c-0.715,1.712-1.332,3.683-1.75,5.743
		c-0.339,0.737-0.49,1.608-0.408,2.59c-0.344,3.173-0.103,6.388,1.086,9.092c0.262,3.124,0.496,6.253,1.022,9.35
		c0.228,1.336,0.526,2.668,0.845,3.999c-4.221,0.274-9.115,1.935-11.891,1.562c-3.734-0.503-5.353,5.215-1.578,5.724
		c4.777,0.644,10.25,1.858,15.284,1.357c0.08,0.651,0.142,1.303,0.17,1.956c0.044,0.959,0.03,1.894,0,2.819
		c-1.735,0.267-3.428,0.626-5.351,1.12c-4.142,1.066-7.876,0.037-11.783-1.405c-3.856-1.423-6.653,5.064-2.827,6.704
		c5.012,2.147,10.034,4.431,15.621,3.775c1.334-0.157,2.789-0.4,4.202-0.798c0.083,0.812,0.195,1.631,0.386,2.471
		c1.206,5.32,3.142,10.423,4.505,15.69c-1.481-0.313-3.018-0.266-4.656-0.1c-2.324,0.235-5.207,1.263-7.445,0.405
		c-1.385-0.531-2.602,0.181-3.282,1.271c-0.14-0.037-0.278-0.057-0.419-0.097c-0.715-0.206-1.105,0.792-0.496,1.177
		c0.139,0.087,0.27,0.179,0.405,0.267c-0.206,1.17,0.167,2.388,1.44,2.96c2.157,0.968,4.186,1.515,6.403,1.853
		c1.101,0.439,2.278,0.767,3.601,0.905c1.635,0.169,3.399,0.227,5.127,0.058c0.01,0.245,0.021,0.486,0.033,0.729
		c-0.15,0.56-0.363,1.12-0.607,1.686c-1.855-0.363-3.78-0.272-5.727-0.044c-2.695,0.315-4.49,1.028-6.955-0.298
		c-4.188-2.253-7.811,3.911-3.73,6.383c2.529,1.532,4.793,2.666,7.75,3.105c1.017,0.151,1.999,0.347,2.972,0.535
		c-0.252,0.454-0.495,0.912-0.739,1.37c-1.648,0.365-3.365,0.334-5.109,0.076c-2.196-0.325-4.424,0.548-5.063,2.875
		c-0.54,1.967,0.669,4.701,2.876,5.063c1.098,0.18,2.191,0.354,3.276,0.493c-1.729,4.396-2.681,8.742-3.484,13.469
		c-0.998,5.877-4.771,10.503-5.877,16.208c-1.048,5.4,4.923,9.008,9.126,5.313c3.273-2.878,5.145-6.548,6.43-10.539
		c7.752-11.64,14.946-24.274,15.34-37.994c2.183-4.2,2.529-8.393,1.791-13.38c-0.924-6.229-3.498-11.913-5.359-17.882
		c-0.915-2.934-2.178-6.217-1.988-9.318c0.161-2.616,0.348-4.331,0.043-6.925c-0.632-5.379-2.455-10.227-3.43-15.576
		c-0.404-2.213-0.661-4.442-0.882-6.674c0.237-0.54,0.384-1.108,0.403-1.677c0.133-3.678-0.682-7.625-1.967-11.06
		c-0.054-0.142-0.126-0.257-0.187-0.39c0.018-0.146,0.034-0.297,0.051-0.438c0.13-1.114,0.377-2.227,0.685-3.333
		c1.493-0.952,2.963-1.909,4.264-3.178c6.547,0.879,15.92-9.96,16.638-14.746C211.802,326.058,209.566,323.692,207.218,325.125z"/>
	<path style="fill:#938569;" d="M160.578,408.508c-0.255-3.092-1.719-5.767-2.916-8.556c-0.502-0.909-0.875-1.872-1.118-2.889
		c-0.029-0.109-0.054-0.202-0.078-0.292c0.137,0.091,1.231-1.853,1.356-2.261c1.709-5.571-1.778-13.126-3.333-18.418
		c-1.061-3.608-2.085-7.125-2.88-10.805c-0.724-3.35-2.114-5.763-3.362-8.758c-0.013-0.412-0.133-0.82-0.398-1.187
		c-0.074-0.104-0.148-0.207-0.224-0.31c-1.28-1.772-4.608-1.914-5.128,0.67c-0.482,2.391,0.398,4.438,0.895,6.784
		c0.74,3.496,1.029,7.07,1.795,10.561c0.715,3.252,1.539,6.483,2.27,9.733c0.576,2.562,2.258,6.553,1.471,9.095
		c-0.324,1.042-0.809,1.793-1.192,2.591c-2.757-1.341-5.382-2.727-7.866-4.55c-3.314-2.434-6.503,3.104-3.222,5.513
		c3.828,2.811,7.573,6.091,11.96,7.203c0.273,0.642,0.561,1.283,0.841,1.935c-1.177-0.468-2.387-0.893-3.443-1.371
		c-2.981-1.349-5.941-2.621-8.743-4.328c-2.863-1.745-5.307,2.597-2.6,4.449c3.4,2.325,6.818,4.624,10.206,6.966
		c0.937,0.647,2.174,1.261,3.437,1.574c-0.119,0.136-0.241,0.276-0.367,0.426c-0.135,0.161-0.275,0.311-0.413,0.467
		c-4.335-1.263-8.581-2.463-12.865-4.046c-0.87-0.322-8.313-2.479-6.552,1.373c0.703,1.539,2.482,2.295,3.841,3.19
		c2.53,1.667,5.04,3.55,7.749,4.913c0.82,0.413,1.721,0.805,2.648,1.11c-5.108,8.491-9.764,17.656-12.302,27.128
		c-0.724,2.699-1.588,5.363-2.312,8.058c-0.215,0.801-0.461,1.664-0.563,2.487c-2.027-0.134-6.224,0.422-6.76,0.595
		c-2.758,0.891-4.452,2.607-5.084,5.418c-0.646,2.876,1.355,6.117,4.563,5.99c2.332-0.092,4.354-0.614,6.722-0.523
		c2.938,0.113,5.302,0.138,7.659-1.928c3.462-3.034,3.996-8.734,5.18-12.93c0.744-2.641,1.221-5.402,2.004-8.021
		c0.711-2.375,2.08-4.754,3.061-7.127c2.322-5.619,4.59-11.658,8.431-16.378C156.185,418.078,161.05,414.219,160.578,408.508z"/>
	<path style="fill:#938569;" d="M353.091,370.239c-4.162,4.327-10.918,7.509-16.086,10.574c-5.798,3.439-11.893,6.058-17.945,8.995
		c-6.459,3.135-13.535,5.648-19.133,10.215c-1.689,1.378-3.545,2.746-5.31,4.218c-4.786-0.838-9.565-1.78-14.351-2.594
		c-3.75-0.638-5.406,5.042-1.594,5.778c3.615,0.697,6.807,2.206,10.123,3.315c-0.393,0.697-0.734,1.424-1.006,2.192
		c-1.629-0.512-3.337-0.771-4.972-1.365c-2.3-0.834-4.404-1.594-6.806-2.105c-3.045-0.646-5.065,3.505-2.18,5.169
		c2.512,1.448,4.444,3.425,7.182,4.617c1.819,0.793,3.578,1.307,5.36,1.287c-0.265,3.47-0.194,7.033-0.194,10.258
		c0,0.305,0.021,0.611,0.027,0.917c-2.564-0.397-4.955-0.051-7.504-0.19c-3.592-0.196-4.515,5.823-0.863,6.38
		c2.978,0.454,5.787,1.822,8.725,2.461c-0.002,0.264,0.013,0.528,0.004,0.792c-0.007,0.225-0.025,0.448-0.039,0.672
		c-0.354-0.037-0.701-0.083-1.066-0.091c-1.902-0.046-3.722,0.508-5.611,0.408c-4.332-0.229-4.864,6.077-0.99,7.315
		c2.262,0.723,4.574,1.41,6.893,2.035c0.207,2.428,1.021,5.021,0.903,7.37c-0.144,2.881-1.429,5.688-1.534,8.657
		c-0.1,2.827,0.169,7.113,1.579,9.619c0.047,0.141,0.093,0.281,0.14,0.421c-0.965,0.705-1.478,3.466-1.643,4.345
		c-0.732,3.891,2.691,9.103,7.255,7.255c2.481-1.004,4.228-2.592,5.447-4.572c2.729-0.547,5.296-3.202,4.468-6.398
		c-2.434-9.4-2.281-19.533-3.447-29.203c0.002-0.016,0.002-0.034,0.004-0.05c-0.004,0-0.007,0.001-0.011,0.001
		c-0.062-0.5-0.122-0.999-0.189-1.496c-0.099-0.724-0.362-1.342-0.73-1.871c0.144-3.137,0.361-6.28,0.16-9.45
		c-0.36-5.693-0.646-12.067,0.248-17.723c0.496-3.14,2.909-4.418,5.203-6.35c2.478-2.086,4.61-4.468,7.421-6.123
		c5.822-3.426,12.07-6.41,18.086-9.492c5.712-2.927,11.533-6.035,16.458-10.217c2.339-1.986,4.7-4.415,6.663-6.781
		c1.699-2.05,2.48-4.608,3.934-6.821C357.398,370.746,354.624,368.645,353.091,370.239z"/>
	<path style="fill:#938569;" d="M361.071,466.379c-2.293-9.926-6.395-19.382-9.375-29.082c-1.563-5.086-1.729-10.747-4.063-15.571
		c-0.996-2.06-2.424-3.926-3.59-5.889c-1.006-1.693-1.717-3.28-3.699-4.11c-3.054-1.277-7.664,0.847-10.537,2.001
		c-4.699,1.888-9.698,3.564-14.119,6.02c-2.067,1.148-1.6,4.414,0.654,5.015c3.719,0.992,8.293-0.015,11.965-0.987
		c2.277-0.603,4.957-1.805,7.511-2.32c1.431,2.724,2.349,5.829,3.061,8.874c-4.155,0.489-8.132,2.361-12.288,2.994
		c-3.181,0.485-2.094,5.05,0.715,5.28c4.475,0.367,8.877-0.119,13.297-0.705c0.09,0.311,0.189,0.616,0.283,0.923
		c-1.235,0.287-2.398,0.802-3.637,1.452c-1.687,0.885-3.289,1.393-4.206,2.943c-1.407,0.179-1.425,2.417,0.003,2.239
		c0.61-0.076,1.442,0.813,2.167,0.864c1.022,0.072,2.231-0.25,3.232-0.403c1.591-0.243,3.103-0.508,4.624-0.895
		c0.855,2.277,1.704,4.561,2.369,6.943c1.457,5.215,3.109,10.296,4.676,15.491c1.154,3.831,1.162,4.755-1.273,7.86
		c-1.428,1.821-3.047,3.554-4.178,5.578c-1.707,3.054,1.657,6.152,4.635,4.635C357.425,481.391,363.324,476.134,361.071,466.379z"/>
</g>
<g>
	<path style="fill:#75654A;" d="M341.275,304.496c-0.097-0.042-0.195-0.075-0.292-0.116c2.574-0.29,3.814-3.196,2.014-5.467
		c-5.568-7.021-16.01-8.31-24.434-7.612c-9.438,0.781-17.955,4.766-26.505,8.531c-1.684,0.741-0.473,3.378,1.229,2.917
		c7.932-2.15,16.086-3.59,24.338-3.206c4.418,0.206,8.549,1.307,12.68,2.458c-6.594-0.382-13.396,0.834-19.765,2.208
		c-9.163,1.978-17.546,6.275-23.03,13.87c-1.567,2.169,1.684,4.183,3.474,2.681c6.692-5.619,15.831-7.396,24.254-8.228
		c4.416-0.436,8.806-0.639,13.241-0.45c3.992,0.169,7.842,0.77,11.799,0.039C343.638,311.501,344.517,305.919,341.275,304.496z"/>
	<path style="fill:#75654A;" d="M361.287,300.523c-2.89-2.939-6.935,1.369-4.435,4.435c3.883,4.763,6.447,9.67,8.1,15.02
		c-2.939-5.161-7.461-7.892-12.137-11.324c-1.885-1.383-4.004,1.579-2.443,3.167c4.029,4.095,6.462,8.372,7.789,13.995
		c1.025,4.35-0.011,9.761,2.493,13.64c2.502,3.878,7.498,1.923,8.047-2.179c0.122-0.912,0.163-1.842,0.17-2.776
		c2.478,2.242,6.806,2.04,7.988-2.123C380.447,319.757,369.24,308.615,361.287,300.523z"/>
	<path style="fill:#75654A;" d="M305.625,266.636c-2.2-1.947-3.956-4.123-6.69-5.385c-3.121-1.441-6.676-2.268-9.899-3.479
		c-6.37-2.395-13.839-3.171-20.578-2.56c-3.509,0.319-7.081,0.698-10.608,0.624c-3.646-0.077-7.158-1.266-10.638-2.298
		c-6.919-2.054-14.56-4.779-21.669-1.917c-4.006,1.613-3.918,6.455,0,8.1c5.795,2.433,12.391,3.748,18.41,5.637
		c6.895,2.164,12.943,2.7,20.107,2.054c6.526-0.588,12.381-1.097,18.951-0.508c3.25,0.292,6.389,1.139,9.629,1.559
		c3.354,0.434,7.113,0.167,10.135,1.868C305.031,271.6,307.685,268.458,305.625,266.636z"/>
	<path style="fill:#75654A;" d="M120.23,75.11c-0.785-5.892-1.395-11.683-3.084-17.406c-1.631-5.525-3.486-10.774-6.204-15.868
		c-1.21-2.267-2.539-4.436-4.168-6.429c-1.857-2.274-4.419-3.46-6.329-5.596c-0.384-0.429-1.092-0.078-1.1,0.456
		c-0.067,4.727,2.976,9.28,4.448,13.656c1.888,5.611,3.081,11.359,4.282,17.142c2.413,11.62,2.105,23.485,7.809,34.24
		c1.733,3.271,7.119,1.787,6.991-1.894C122.66,87.23,121.043,81.226,120.23,75.11z"/>
</g>
<g>
	<path style="fill:#938569;" d="M66.942,16.516c-0.137-1.293-0.66-2.525-1.699-3.501c-2.484-2.334-6.133-2.197-9.211-1.221
		c0.359-0.031,0.721-0.038,1.08,0.009c0.354,0.046,0.689,0.142,1.015,0.26c1.397-0.178,2.866-0.003,3.868,1.057
		c1.632,1.729,0.859,4.113-0.525,5.705c-3.082,3.541-8.705,2.661-10.305-1.863c-0.294-0.83,0.164-1.629,0.844-2.069
		c0.181-0.713,0.57-1.309,1.071-1.795c-0.495,0.291-0.972,0.605-1.411,0.954c-0.88,0.309-1.789,0.564-2.4,0.816
		c-2.084,0.862-3.944,1.494-6.188,1.865c-3.79,0.628-7.861,1.371-10.797,4.09c-2.947,2.73-3.029,6.814-0.701,9.968
		c2.449,3.319,6.947,4.615,10.914,3.871c3.922-0.735,8.984-2.807,11.867-5.638c0.061-0.06,0.115-0.125,0.175-0.188
		c0.999,0.375,2.062,0.576,3.14,0.559c3.525-0.054,7.239-2.749,8.979-5.706C68.136,21.18,68.048,18.604,66.942,16.516z"/>
	<path style="fill:#938569;" d="M68.894,37.084c-3.354,1.124-6.314,2.733-9.562,4.07c-3.64,1.498-7.401,1.27-11.169,2.096
		c-3.236,0.71-6.163,2.224-9.04,3.826c-1.219,0.679-2.577,1.329-3.663,2.215c-0.811,0.661-1.722,2.323-2.625,2.857
		c-0.34,0.2-0.152,0.635,0.184,0.678c3.248,0.414,4.912-0.008,8.055-1.126c4.163-1.482,7.885-1.959,12.302-2.109
		c7.063-0.24,12.152-2.874,18.021-6.57C74.392,41.134,72.519,35.869,68.894,37.084z"/>
</g>
<path style="fill:#FFFFFF;" d="M61.677,12.075c-0.842-0.217-1.574-0.184-2.322-0.06c0.986,0.052,1.931,0.353,2.641,1.104
	c1.632,1.729,0.859,4.113-0.525,5.705c-0.506,0.582-1.084,1.032-1.699,1.378c1.888-0.567,3.516-1.854,4.307-3.899
	C64.739,14.588,63.335,12.503,61.677,12.075z"/>
<g>
	<path style="fill:#5A4938;" d="M319.507,321.315c-0.308-0.287-0.703-0.472-1.145-0.447c-3.743,0.211-8.014,4.214-9.363,7.566
		c-0.708,1.755-1.39,3.8-0.515,5.603c1.093,2.254,3.687,2.465,5.888,2.085c4.358-0.752,10.219-1.371,11.6-6.42
		C327.089,325.62,323.537,321.567,319.507,321.315z"/>
	<path style="fill:#5A4938;" d="M343.88,316.356c-0.089-1.146-0.658-2.241-1.625-2.988c-1.387-1.072-3.296-1.098-4.793-0.375
		c-2.251,0.064-4.399,1.401-3.812,3.984c0.401,1.771,1.93,2.587,3.507,3.137c0.54,0.188,1.13,0.342,1.732,0.44
		c1.027,0.295,2.104,0.369,2.965,0.097c1.252-0.396,2.316-1.59,2.26-2.968C344.095,317.219,344.011,316.776,343.88,316.356z"/>
	<path style="fill:#5A4938;" d="M369.321,318.58c-0.934-0.808-2.202-1.282-3.508-1.246c-2.061-0.441-4.049,0.745-5.68,2.406
		c-0.637,0.554-1.184,1.19-1.588,1.884c-0.734,1.005-1.332,2.021-1.742,2.854c-2.955,6.002,8.492,5.063,11.406,4.224
		C373.291,327.236,373.207,320.632,369.321,318.58z"/>
	<path style="fill:#5A4938;" d="M351.23,288.924c-0.286-0.13-0.588-0.235-0.904-0.305c-0.239-0.318-0.613-0.541-1.007-0.513
		c-0.591,0.042-1.167,0.263-1.726,0.545c-0.899,0.19-1.757,0.534-2.439,0.992c-0.471,0.315-0.889,0.703-1.246,1.135
		c-1.01,0.654-1.975,1.448-2.424,2.414c-1.199,2.574,1.277,4.096,3.646,4.485c0.416,0.199,0.846,0.359,1.29,0.469
		c2.059,0.942,4.916,0.272,6.29-1.688c0.041-0.043,0.092-0.075,0.133-0.12C355.107,293.841,354.238,289.873,351.23,288.924z"/>
	<path style="fill:#5A4938;" d="M330.765,297.715c-1.284-1.792-3.367-3.112-5.553-1.913c-0.023,0.013-0.043,0.031-0.066,0.044
		c-0.752,0.299-1.434,0.823-1.991,1.425c-0.716,0.772-1.065,1.699-1.498,2.636c-0.449,0.974-0.985,1.869-0.675,2.998
		c0.676,2.455,3.148,2.457,5.23,2.446c0.465-0.003,0.967-0.007,1.48-0.033c0.07,0.015,0.141,0.033,0.212,0.046
		c1.167,0.224,2.313-0.084,3.075-0.835c0.684-0.408,1.219-1.016,1.463-1.938C332.873,300.969,331.712,299.036,330.765,297.715z"/>
	<path style="fill:#5A4938;" d="M336.595,280.811c-0.17-0.187-0.361-0.337-0.555-0.487c-0.041-0.057-0.088-0.125-0.142-0.215
		c-0.191-0.32-0.419-0.619-0.607-0.94c-0.276-0.471-0.44-0.827-0.616-1.319c-0.603-1.681-1.326-3.103-3.203-3.603
		c-1.721-0.458-2.836,0.208-3.829,1.134c-2.03,0.638-4.919,3.527-4.689,5.542c0.18,1.572,1.347,3.213,2.962,3.372
		c1.531,1.296,4.068,1.912,6.049,2.138c1.483,0.871,3.283,0.948,4.631-0.399C338.066,284.562,337.939,282.292,336.595,280.811z"/>
	<path style="fill:#5A4938;" d="M343.343,258.872c-0.348-1.142-0.951-2.106-2.361-2.494c-1.055-0.291-2.299-0.031-3.368-0.005
		c-1.121,0.027-2.259-0.121-3.361,0.15c-1.147,0.282-2.222,0.979-2.554,2.185c-0.352,1.281,0.218,2.656,1.341,3.342
		c0.628,0.383,1.347,0.465,2.034,0.667c0.006,0.165,0.044,0.33,0.079,0.495c-0.091,0.407,0.156,1.069,0.303,1.48
		c0.504,1.408,1.552,2.483,3.097,2.667c0.752,0.089,1.577-0.054,2.285-0.41c0.619,0.003,1.234-0.132,1.758-0.422
		C345.083,265.152,345.095,260.948,343.343,258.872z"/>
	<path style="fill:#5A4938;" d="M307.333,248.119c-1.469-5.184-8.304-4.547-13.333-3.193c-0.521,0.141-0.95,0.381-1.291,0.689
		c-1.169-0.109-2.334-0.226-3.517-0.34c-1.268-0.123-2.97,0.241-4.084-0.32c-2.538-1.276-2.136-4.744-5.746-5.455
		c-2.486-0.49-4.533,1.007-6.471,2.354c-0.514,0.263-1.006,0.672-1.424,1.301c-0.025,0.037-0.049,0.074-0.074,0.111
		c-2.278,3.428,2.548,6.405,5.332,4.113c2.381-1.961,3.461,0.717,5.24,1.885c1.979,1.296,4.741,0.98,6.948,1.646
		c5.142,1.552,10.849,2.596,16.227,3.137C308.179,254.354,309.599,249.809,307.333,248.119z"/>
	<path style="fill:#5A4938;" d="M252.997,238.167c-0.474-0.555-1.074-0.957-1.736-1.274c-1.291-1.411-3.113-2.528-4.6-3.176
		c-3.102-1.351-6.896-0.063-9.95,0.879c-3.255,1.004-2.782,4.987,0,6.159c1.816,0.765,4.457,0.47,6.413,0.911
		c1.252,0.283,2.543,0.474,3.782,0.798c1.032,0.269,1.885,0.911,2.914,1.161C253.124,244.426,255.076,240.607,252.997,238.167z"/>
	<path style="fill:#5A4938;" d="M222.63,232.678c-2.171-4.47-8.611-2.802-12.394-1.121c-1.541,0.685-2.026,2.876-1.405,4.288
		c0.73,1.661,2.314,2.287,4.051,1.988c0.144-0.025,0.287-0.049,0.431-0.074c0.979-0.168,1.644-0.756,2.021-1.51
		c0.922-0.535,2.159-0.966,3.064-1.097c1.178-0.17,2.023,0.568,3.218,0.55C223.267,235.679,223.802,233.652,222.63,232.678z"/>
	<path style="fill:#5A4938;" d="M196.534,228.371c-0.111-0.552-0.318-1.09-0.583-1.614c-0.229-1.069-0.626-2.113-1.206-3.101
		c-1.279-2.179-4.718-4.097-7.266-3.802c-1.383,0.16-2.574,0.728-3.129,2.104c-0.469,1.167-0.355,2.875,0.709,3.739
		c2.199,1.786,3.961,3.986,6.093,5.806c0.545,0.465,1.143,0.719,1.737,0.815c0.008,0.011,0.014,0.021,0.021,0.032
		c0.757,1.053,2.485,1.014,2.866-0.375c0.082-0.298,0.146-0.598,0.202-0.898C196.499,230.379,196.754,229.445,196.534,228.371z"/>
	<path style="fill:#5A4938;" d="M171.655,202.323c-0.35-1.744-1.961-3.458-3.508-4.282c-1.609-0.857-3.868-0.458-4.772,1.251
		c-0.728,1.377-0.557,3.551,0.833,4.516c0.191,0.19,0.385,0.379,0.572,0.576c0.005,0.018,0.007,0.03,0.02,0.058
		c0.084,0.209,0.262,0.424,0.385,0.609c0.611,0.927,1.533,1.537,2.547,1.691c0.025,0.016,0.054,0.029,0.081,0.042
		c0.575,0.895,2.349,0.656,2.503-0.47c0-0.005,0.002-0.01,0.002-0.016c0.131-0.144,0.244-0.269,0.25-0.277
		c0.037-0.065,0.068-0.144,0.104-0.216C171.578,204.943,171.921,203.646,171.655,202.323z"/>
	<path style="fill:#5A4938;" d="M155.955,182.506c-0.378-0.576-0.847-1.004-1.45-1.328c-0.129-0.056-0.259-0.106-0.388-0.161
		c-0.882-1.868-3.597-2.499-5.321-1.489c-2.039,1.193-2.576,4.284-0.768,5.953c0.468,0.432,0.891,0.852,1.428,1.217
		c0.59,0.4,1.274,0.532,1.948,0.463c0.519,1.337,1.151,2.661,2.376,3.433c0.33,0.208,0.863,0.232,1.191,0
		c1.66-1.179,1.668-3.207,1.705-5.069C156.699,184.421,156.583,183.464,155.955,182.506z"/>
	<path style="fill:#5A4938;" d="M138.074,184.735c-0.697-1.027-1.496-1.925-2.749-2.247c-1.475-0.377-2.857,0.258-3.775,1.384
		c-0.525,0.338-1,0.772-1.371,1.22c-1.412,1.702-1.515,4.323-0.838,6.354c0.728,2.19,2.375,4.129,4.848,4.169
		c2.714,0.044,4.09-2.371,4.635-4.684C139.324,188.803,139.345,186.608,138.074,184.735z"/>
	<path style="fill:#5A4938;" d="M134.105,165.021c-0.387-1.778-2.127-3.099-3.909-3.141c-3.208-0.076-4.643,3.55-3.358,5.953
		c0.004,0.113-0.011,0.222,0.004,0.337c0.225,1.667,1.535,2.913,3.244,2.975c1.444,0.053,2.754-1.09,3.416-2.298
		C134.151,167.66,134.396,166.355,134.105,165.021z"/>
	<path style="fill:#5A4938;" d="M126.65,143.288c-0.683-0.905-1.767-1.586-2.953-1.202c-0.452,0.146-0.879,0.422-1.22,0.776
		c-0.551,0.471-0.918,1.146-0.881,1.958c0.043,0.953-0.053,1.837,0.168,2.787c0.357,1.53,2.506,2.562,3.861,1.57
		c0.67-0.49,1.217-1.043,1.402-1.88c0.107-0.488,0.201-1.008,0.23-1.505C127.304,145.019,127.13,143.923,126.65,143.288z"/>
	<path style="fill:#5A4938;" d="M122.357,120.121c-0.283-1.559-1.671-2.674-3.231-2.747c-1.158-0.054-2.23,0.651-2.859,1.581
		c-0.315,0.469-0.401,0.944-0.53,1.463c-0.377,1.518-0.287,3.002,0.833,4.192c1.237,1.316,3.415,1.218,4.65-0.024
		c0.14-0.14,0.246-0.304,0.359-0.463c0.303-0.355,0.544-0.773,0.686-1.242C122.534,121.989,122.523,121.028,122.357,120.121z"/>
	<path style="fill:#5A4938;" d="M115.155,106.581c-0.461-1.223-1.314-1.852-2.598-1.978c-1.648-0.162-2.826,1.253-3.349,2.628
		c-0.321,0.843-0.457,1.625-0.29,2.544c0.294,1.623,2.346,2.424,3.783,1.816C114.663,111.148,115.823,108.353,115.155,106.581z"/>
	<path style="fill:#5A4938;" d="M113.618,91.239c0.009-1.285-0.379-2.625-1.041-3.39c-0.561-0.648-1.514-0.783-2.301-0.608
		c-1.324,0.293-2.189,1.567-2.394,2.837c-0.038,0.244-0.066,0.49-0.098,0.736c-0.003,0.015-0.009,0.054-0.024,0.161
		c-0.127,0.828-0.238,1.662,0.002,2.487c0.569,1.959,2.619,3.278,4.547,2.17C113.755,94.801,113.978,92.749,113.618,91.239z"/>
	<path style="fill:#5A4938;" d="M111.63,62.588c-0.878-1.537-2.621-2.311-4.349-1.86c-1.548,0.404-2.63,1.854-2.978,3.354
		c-0.176,0.764-0.197,1.61,0.022,2.37c0.347,1.199,1.392,2.364,2.664,2.594c1.496,0.271,2.976-0.184,3.787-1.541
		c0.095-0.158,0.173-0.314,0.245-0.47C112.247,65.895,112.468,64.056,111.63,62.588z"/>
	<path style="fill:#5A4938;" d="M103.181,40.389c-0.057-0.328-0.183-0.636-0.242-0.962c-0.124-0.676-0.789-1.486-1.386-1.801
		c-0.608-0.322-1.236-0.45-1.921-0.358c-0.77,0.104-1.479,0.525-1.968,1.123c-0.228,0.204-0.433,0.437-0.591,0.717
		c-0.391,0.695-0.534,1.442-0.574,2.232c-0.029,0.563,0.02,1.182,0.148,1.723c0.492,2.08,2.982,3.175,4.844,2.123
		c1.123-0.636,1.6-1.729,1.762-2.94C103.341,41.593,103.296,41.044,103.181,40.389z"/>
	<path style="fill:#5A4938;" d="M149.052,209.101c-1.084-0.972-3.076-1.271-4.121,0c-0.524,0.638-0.848,1.313-1.037,2.011
		c-0.594,1.383-0.504,3.387-0.174,4.763c0.422,1.761,1.754,3.51,3.761,3.379c0.979-0.064,2.058-0.496,2.517-1.443
		C151.247,215.228,151.362,211.169,149.052,209.101z"/>
	<path style="fill:#5A4938;" d="M163.964,222.651c-0.17-0.103-0.349-0.168-0.527-0.233c-0.389-0.473-0.836-0.867-1.34-1.131
		c-3.108-1.623-5.565,1.591-5.187,4.498c-0.3,0.537-0.579,1.084-0.78,1.657c-1.044,2.984,1.773,4.682,4.402,4.647
		c0.449-0.006,0.885-0.078,1.309-0.179c0.368,0.146,0.772,0.227,1.219,0.227c1.666,0,2.939-1.339,2.98-2.981
		c0.006-0.224-0.018-0.434-0.054-0.638C166.427,226.415,165.835,223.774,163.964,222.651z"/>
	<path style="fill:#5A4938;" d="M169.86,246.132c-0.073-1.943-1.077-3.72-2.876-4.677c-0.275-0.146-0.556-0.237-0.835-0.305
		c-2.129-1.034-4.507,0.371-5.383,2.443c-0.459,1.091-0.574,2.321-0.387,3.492c-0.084,0.757-0.008,1.508,0.389,2.184
		c0.342,0.58,0.82,0.99,1.359,1.272c0.827,0.785,1.913,1.289,3.225,1.307c0.203,0.003,0.385-0.032,0.574-0.055
		c0.244,0.057,0.496,0.104,0.762,0.13c1.437,0.143,3.086-0.447,3.761-1.807C171.183,248.637,170.827,247.092,169.86,246.132z"/>
	<path style="fill:#5A4938;" d="M195.314,249.472c-0.063-0.036-0.131-0.059-0.195-0.091c-0.489-0.459-1.077-0.831-1.73-1.106
		c-1.668-0.704-3.609-0.453-4.873,0.919c-1.012,1.099-1.644,2.664-1.582,4.164c0.145,3.604,3.994,5.857,7.31,4.676
		c1.942-0.692,3.26-2.203,3.332-4.312C197.632,252.036,196.791,250.329,195.314,249.472z"/>
	<path style="fill:#5A4938;" d="M188.028,269.657c-1.418,0.052-2.678,0.666-3.71,1.586c-0.331,0.256-0.65,0.532-0.951,0.826
		c-2.903,0.61-6.459,1.841-6.459,4.918c0,3.887,4.616,5.922,7.954,5.937c1.643,0.007,3.309-0.454,4.725-1.296
		c0.678-0.364,1.275-0.848,1.777-1.415c0.858-0.904,1.5-2.007,1.789-3.281C193.956,273.38,191.998,269.513,188.028,269.657z"/>
	<path style="fill:#5A4938;" d="M226.907,250.138c-0.467-1.3-1.441-2.252-2.762-2.5c-0.115-1.078-0.707-2.099-1.662-2.658
		c-2.047-1.198-4.114,0.019-5.695,1.358c-1.336,1.132-2.984,2.382-3.455,4.132c-0.471,1.754,0.59,3.475,2.28,4.015
		c0.193,0.062,0.384,0.103,0.571,0.129c1.955,1.179,4.263,1.518,6.49,1.021C225.169,255.079,227.962,253.08,226.907,250.138z"/>
	<path style="fill:#5A4938;" d="M220.831,265.501c-0.089-0.093-0.189-0.173-0.285-0.258c-0.363-0.742-0.906-1.387-1.674-1.83
		c-1.959-1.128-3.986-0.187-5.466,1.221c-3.214,2.018-5.728,6.455-2.04,9.243c2.018,1.526,4.814,0.941,6.797-0.375
		c0.28-0.186,0.534-0.394,0.773-0.611c0.043-0.02,0.088-0.036,0.132-0.057C221.929,271.463,223.229,268.006,220.831,265.501z"/>
	<path style="fill:#5A4938;" d="M251.423,258.296c-0.468-0.42-0.981-0.789-1.517-1.048c-0.187-0.239-0.401-0.468-0.668-0.674
		c-1.021-0.792-2.096-0.947-3.128-0.722c-0.953-0.248-2.045-0.002-2.612,0.987c-0.153,0.268-0.312,0.532-0.468,0.797
		c-0.264,0.25-0.514,0.512-0.74,0.779c-1.01,1.182-1.713,2.611-1.895,4.089c-0.096,0.219-0.204,0.43-0.293,0.654
		c-0.903,2.295-0.413,5.12,2.35,5.804c0.796,0.196,1.548,0.124,2.251-0.122c1.054,0.194,2.192-0.152,3.151-0.895
		c-0.305,0.236,0.566-0.18,0.646-0.219c0.514-0.254,1.028-0.516,1.531-0.792c0.945-0.518,1.881-1.158,2.551-2.01
		C254.403,262.615,253.39,260.064,251.423,258.296z"/>
	<path style="fill:#5A4938;" d="M236.749,288.788c-0.467-2.333-2.38-3.503-4.48-3.572c-0.19-0.339-0.407-0.659-0.686-0.925
		c-0.678-0.647-1.393-0.958-2.115-1.019c-0.812-0.376-1.763-0.484-2.742-0.201c-1.937,0.562-3.569,2.334-4.807,3.833
		c-1.557,1.887-3.035,4.284-1.836,6.741c0.631,1.297,1.724,1.951,2.954,2.209c0.63,0.553,1.41,0.977,2.296,1.223
		c2.598,0.722,5.528-0.186,7.701-1.646C235.195,293.977,237.31,291.584,236.749,288.788z"/>
	<path style="fill:#5A4938;" d="M177.373,299.268c-0.011-0.002-0.021-0.002-0.03-0.004c-0.983-0.873-2.278-1.36-3.614-1.18
		c-3.804,0.511-5.007,6.077-1.55,7.965c0.598,0.326,1.225,0.509,1.848,0.569h0.004c0.525,0.05,1.045,0,1.545-0.145
		c0.344,0.022,0.689-0.02,1.023-0.137c0.798-0.28,1.39-0.739,1.773-1.458c0.18-0.109,0.352-0.23,0.506-0.374
		C180.697,302.806,179.658,299.851,177.373,299.268z"/>
	<path style="fill:#5A4938;" d="M230.935,316.972c-0.17-0.755-0.533-1.458-1.094-2.138c-0.508-0.615-1.171-0.857-1.847-0.853
		c-0.653-0.578-1.569-0.866-2.417-0.575c-0.502,0.172-0.925,0.419-1.322,0.695c-0.256,0.117-0.503,0.258-0.73,0.438
		c-0.838,0.661-1.052,1.168-1.639,1.863c-0.375,0.443-0.709,0.913-1.047,1.382c0.498-0.693-0.296,0.343-0.438,0.601
		c-0.754,1.364-0.629,3.086,0.525,4.204c0.875,0.846,1.938,0.815,2.892,0.98c2.021,0.35,4.104,0.046,5.593-1.468
		c0.546-0.235,1.028-0.653,1.362-1.287c0.391-0.742,0.547-1.39,0.596-2.224C231.402,318.021,231.228,317.466,230.935,316.972z"/>
	<path style="fill:#5A4938;" d="M255.431,306.784c-0.133-0.438-0.332-0.86-0.619-1.252c-0.586-0.802-1.5-1.338-2.477-1.625
		c-0.092-0.115-0.185-0.229-0.283-0.338c-1.162-1.286-2.595-2.144-4.389-1.636c-1.75,0.494-2.471,2.162-3.072,3.698
		c-1.136,2.897-0.453,6.138,2.45,7.677c1.388,0.736,2.911,1.071,4.429,0.614c1.578-0.142,3.149-1.034,3.949-2.405
		C256.257,310.077,256.241,308.227,255.431,306.784z"/>
	<path style="fill:#5A4938;" d="M285.433,297.736c-0.004-0.001-0.006-0.002-0.008-0.004c-0.513-0.818-1.338-1.378-2.278-1.595
		c-0.192-0.387-0.438-0.75-0.765-1.073c-2.643-2.606-5.812-0.06-7.262,2.406c-1.644,2.796-2.086,6.669,1.143,8.558
		c0.551,0.322,1.127,0.503,1.709,0.577c0.545,0.164,1.131,0.204,1.725,0.054c0.398-0.101,0.736-0.261,1.039-0.458
		c0.254-0.102,0.505-0.216,0.749-0.346c1.831,0.201,3.817-0.405,5.007-1.687C288.326,302.191,287.779,299.034,285.433,297.736z"/>
	<path style="fill:#5A4938;" d="M295.312,267.665c-0.144-0.172-0.287-0.339-0.449-0.494c-0.155-0.149-0.22-0.203-0.251-0.221
		c-0.036-0.047-0.066-0.086-0.125-0.16c-0.409-0.511-0.829-0.972-1.437-1.263c-0.205-0.099-0.435-0.175-0.67-0.238
		c-0.385-0.383-0.848-0.695-1.416-0.874c-1.131-0.356-2.645,0.156-3.332,1.169c-0.744,0.325-1.369,0.919-1.48,1.743
		c-0.275,2.034-1.813,4.397,0.246,6.12c0.761,0.636,1.602,0.911,2.474,0.802c0.206,0.09,0.418,0.169,0.642,0.225
		c1.312,0.326,2.654-0.017,3.834-0.588c0.191-0.093,0.359-0.205,0.513-0.327c0.858-0.227,1.623-0.719,2.104-1.54
		C296.812,270.567,296.321,268.872,295.312,267.665z"/>
	<path style="fill:#5A4938;" d="M276.327,274.586c-0.003-0.103-0.006-0.206-0.009-0.309c-0.052-1.789-1.327-3.014-2.802-3.455
		c-0.235-0.098-0.479-0.177-0.735-0.224c-0.112-0.189-0.241-0.364-0.377-0.535c-0.138-1.096-0.545-2.103-1.335-2.864
		c-2.807-2.709-6.253-0.083-8.057,2.331c-1.16,1.554-2.119,3.569-2.199,5.513c-0.799,2.054-0.455,4.328,1.629,5.536
		c1.75,1.013,3.867,1.007,5.797,0.692c1.908-0.311,3.934-1.069,5.488-2.239c0.705-0.531,1.137-1.119,1.406-1.748
		C275.874,276.618,276.358,275.673,276.327,274.586z"/>
	<path style="fill:#5A4938;" d="M314.99,277.262c-0.514-1.631-1.96-2.712-3.541-2.883c-0.01-1.607-1.411-2.669-2.912-2.881
		c-0.958-0.414-2.104-0.256-2.876,0.827c-3.551,2.687-6.898,10.296-2.344,13.132c1.395,0.868,2.92,0.829,4.324,0.295
		c2.996,1.264,6.621-1.026,7.365-4.311C315.312,280.087,315.41,278.595,314.99,277.262z"/>
	<path style="fill:#5A4938;" d="M268.689,325.309c-0.746-1.368-2.208-2.119-3.754-2.127c-1.891-0.011-4.057,0.917-5.461,2.166
		c-1.463,1.302-1.957,3.287-1.058,5.072c1.037,2.061,3.289,2.136,5.25,1.841c2.493-0.375,5.323-1.751,5.417-4.403
		C269.238,327.004,269.125,326.108,268.689,325.309z"/>
	<path style="fill:#5A4938;" d="M349.316,343.278c-0.051-0.028-0.106-0.045-0.157-0.071c-0.126-0.144-0.245-0.289-0.396-0.428
		c-1.236-1.166-2.8-1.397-4.266-1.021c-2.55,0.372-5.218,2.779-5.876,5.18c-0.522,1.908,0.388,3.907,2.106,4.825
		c1.172,0.626,2.567,0.655,3.854,0.356c0.624,0.066,1.272,0.038,1.921-0.11c1.42-0.326,2.775-1.04,3.715-2.163
		C351.923,347.802,351.816,344.692,349.316,343.278z"/>
	<path style="fill:#5A4938;" d="M394.773,339.767c0.087-3.288-2.635-5.197-5.715-4.571c-2.295,0.466-4.354,2.016-5.32,4.16
		c-0.09,0.199-0.165,0.401-0.232,0.606c-0.626,0.689-1.093,1.47-1.289,2.304c-0.502,2.119,0.766,4.308,2.896,4.861
		c1.142,0.297,2.254,0.178,3.2-0.268c2.189,0.029,4.477-0.967,5.565-2.918c0.399-0.715,0.587-1.495,0.585-2.266
		C394.649,341.054,394.757,340.408,394.773,339.767z"/>
	<path style="fill:#5A4938;" d="M391.679,321.478c-0.72-0.96-1.536-1.986-2.432-2.793c-0.148-0.733-0.574-1.402-1.279-1.815
		c-1.168-0.684-3.207-0.39-3.8,0.997c-0.126,0.294-0.247,0.581-0.37,0.869c-0.724,0.928-0.838,2.149-1.104,3.309l0.03,0.004
		c-0.049,0.262-0.108,0.519-0.137,0.793c-0.152,1.463,1.256,2.786,2.6,2.945c0.297,0.035,0.578,0.02,0.851-0.021
		c0.298,0.009,0.599-0.032,0.882-0.138c0.622,0.868,1.336,1.54,2.506,1.829c1.346,0.333,2.948-0.424,3.272-1.858
		C393.06,323.995,392.643,322.765,391.679,321.478z"/>
	<path style="fill:#5A4938;" d="M388.963,295.542c-0.776-0.673-1.564-1.057-2.555-1.202c-0.035-0.019-0.083-0.042-0.163-0.072
		c-0.004-0.001-0.009-0.003-0.014-0.004c-0.307-0.302-0.68-0.56-1.115-0.744c-1.266-0.534-2.732-0.495-4.034-0.103
		c-0.999,0.301-2.125,1.181-2.291,2.291c-0.202,1.352-0.087,2.51,0.966,3.527c0.656,0.635,1.476,0.923,2.316,1.23
		c0.102,0.038,0.207,0.07,0.311,0.108c0.063,0.118,0.106,0.245,0.186,0.355c1.076,1.51,3.425,2.674,5.171,1.356
		c0.579-0.437,1.151-0.81,1.507-1.481c0.036-0.086,0.073-0.173,0.109-0.26C390.458,299.158,390.261,296.667,388.963,295.542z"/>
	<path style="fill:#5A4938;" d="M366.897,279.692c-0.802-0.936-1.774-1.865-2.733-2.641c-1.769-1.429-3.534-2.495-5.85-1.361
		c-1.227,0.601-1.819,2.177-1.649,3.443c0.108,0.809,0.469,1.459,0.995,1.965c-0.016,0.006-0.03,0.013-0.045,0.019
		c0.613,0.543,1.164,1.156,1.73,1.746c0.008,0.007,0.006,0.005,0.012,0.011c0.001,0.001,0.002,0.001,0.002,0.002
		c0.146,0.199,0.296,0.398,0.445,0.595c0.45,0.594,0.926,1.314,1.492,1.822c1.543,1.381,4.1,1.635,5.601,0
		C368.44,283.612,368.339,281.376,366.897,279.692z"/>
	<path style="fill:#5A4938;" d="M422.698,331.421c0.355-0.607,0.57-1.296,0.551-2.095c-0.059-2.293-1.748-3.621-3.885-3.885
		c-1.631-0.202-4.184,0.704-5.264,1.926c-1.483,1.676-1.707,3.915-0.857,5.929c1.15,2.728,4.77,4.642,7.646,4.11
		c1.406-0.26,2.812-2.023,2.651-3.483C423.437,332.968,423.208,332.138,422.698,331.421z"/>
	<path style="fill:#5A4938;" d="M421.142,354.512c0.049-0.285,0.074-0.589,0.07-0.918c-0.055-4.223-6.453-5.885-9.408-3.431
		c-0.457,0.077-0.896,0.222-1.293,0.461c-2.565,1.55-1.766,5.019,0.637,6.208c0.126,0.063,0.269,0.12,0.406,0.178
		c0.283,0.389,0.602,0.75,0.946,1.071c1.027,0.96,2.205,1.443,3.579,1.628c1.771,0.238,3.07-0.203,4.46-1.306
		C421.833,357.376,421.79,355.796,421.142,354.512z"/>
	<path style="fill:#5A4938;" d="M451.614,348.425c-0.339-1.778-2.304-3.198-4.053-3.169c-1.178,0.02-2.187,0.532-2.898,1.455
		c-0.761,0.985-0.874,2.017-0.661,3.218c0.25,1.413,1.688,2.747,3.029,3.08c1.3,0.323,2.667-0.001,3.625-0.958
		C451.653,351.053,451.869,349.761,451.614,348.425z"/>
	<path style="fill:#5A4938;" d="M453.819,370.437c-0.179-1.138-0.994-2.155-2.021-2.761c-0.355-0.527-0.878-0.964-1.459-1.251
		c0.229-1.425-0.713-2.808-2.123-3.312c-1.529-0.547-3.791,0.585-4.927,1.657c-1.323,1.248-2.013,3.202-1.519,4.99
		c0.574,2.076,2.568,3.339,4.706,3.674c0.696,0.804,1.603,1.435,2.575,1.771c1.283,0.443,2.841-0.067,3.771-0.997
		C453.884,373.147,454.04,371.848,453.819,370.437z"/>
	<path style="fill:#5A4938;" d="M474.206,360.352c-0.91-1.601-2.578-2.794-4.217-3.568c0.021,0.01-0.018-0.001-0.075-0.021
		c-0.286-0.278-0.633-0.504-1.031-0.646c-0.325-0.116-0.64-0.268-0.976-0.354c0.887,0.226-0.372-0.175-0.469-0.209
		c-0.299-0.087-0.614-0.127-0.926-0.123c-2.478,0.04-3.49,2.697-2.403,4.661c0.452,0.817,1.129,1.276,1.802,1.871
		c0.297,0.263,0.575,0.561,0.838,0.866c0.026,0.054,0.244,0.361,0.305,0.466c0.179,0.309,0.342,0.624,0.526,0.93
		c1.034,1.72,3.492,2.509,5.249,1.376C474.593,364.465,475.269,362.22,474.206,360.352z"/>
	<path style="fill:#5A4938;" d="M467.439,355.555c0.004,0.001,0.008,0.001,0.012,0.002
		C467.427,355.551,467.427,355.551,467.439,355.555z"/>
	<path style="fill:#5A4938;" d="M476.274,384.514c-0.059-0.246-0.139-0.487-0.244-0.72c-0.078-1.35-1.111-2.434-2.389-2.933
		c-1.739-0.943-4.012-0.693-5.406,0.768c-1.078,1.128-1.307,2.819-0.555,4.192c0.414,0.758,1.041,1.252,1.728,1.747
		c0.005,0.003,0.01,0.005,0.015,0.008c0.242,0.181,0.506,0.334,0.778,0.475c0.131,0.07,0.267,0.13,0.403,0.194
		c0.021,0.009,0.041,0.02,0.063,0.028c0.896,0.413,1.895,0.707,2.781,0.732c1.063,0.031,2.254-0.616,2.746-1.575
		C476.718,386.404,476.679,385.384,476.274,384.514z"/>
	<path style="fill:#5A4938;" d="M484.685,439.689c-0.898,0.179-1.604,0.607-2.212,1.159c-0.915,0.471-1.691,1.35-2.366,2.058
		c-0.992,1.043-1.752,2.192-2.256,3.539c-0.149,0.396-0.162,0.827-0.078,1.249c-0.274,0.94-0.088,1.933,0.49,2.669
		c0.636,1.209,2.168,1.933,3.59,1.1c0.412-0.241,0.797-0.54,1.158-0.873c0.278-0.191,0.549-0.398,0.803-0.618
		c1.047-0.906,1.833-2.01,2.332-3.225c0.824-1.076,1.755-2.326,2.008-3.589C488.589,440.975,486.866,439.254,484.685,439.689z"/>
	<path style="fill:#5A4938;" d="M466.19,463.468c-1.554-0.71-3.022-0.522-4.439,0.054c-2.091,0.094-4.718,1.348-5.094,3.571
		c-0.614,0.756-1.052,1.612-1.084,2.581c-0.097,2.876,2.819,4.092,5.215,3.207c1.86-0.688,3.978-1.656,4.983-3.474
		c0.186-0.167,0.375-0.333,0.541-0.516c-0.461,0.279-0.33,0.162,0.394-0.351c0.213-0.257,0.414-0.523,0.604-0.797
		C468.218,466.459,467.632,464.126,466.19,463.468z"/>
</g>
<g>
	<path style="fill:#EDE4C0;" d="M280.699,479.884c-0.239-0.283-0.548-0.486-0.881-0.651c-0.013-0.015-0.022-0.029-0.035-0.044
		c-1.331-1.523-3.681-1.2-5.056,0c-0.146,0.127-0.271,0.269-0.395,0.411c-0.29-0.399-0.66-0.704-1.037-1.038
		c-0.019-0.123-0.027-0.247-0.048-0.37c-0.185-1.091-1.261-1.978-2.267-2.266c-4.104-1.178-10.736,5.408-10.333,9.465
		c0.223,2.239,2.024,3.913,4.368,3.328c0.105-0.026,0.201-0.062,0.303-0.094c0.74,0.827,1.686,1.494,2.678,1.906
		c2.301,0.956,5.424,1.034,7.492-0.415c1.139,0.004,2.239-0.213,3.224-0.764c0.876-0.192,1.669-0.722,2.163-1.704
		c0.137-0.273,0.274-0.546,0.412-0.819c0.167-0.333,0.283-0.709,0.352-1.102C282.362,483.755,282.159,481.619,280.699,479.884z"/>
	<path style="fill:#EDE4C0;" d="M333.485,477.234c-0.503-1.537-0.579-3.586-1.844-4.753c-1.199-1.106-3.549-1.244-4.847-0.271
		c-0.521,0.39-0.942,0.877-1.344,1.392c-0.247,0.102-0.49,0.238-0.722,0.43c-0.656,0.542-1.443,1.276-2.014,2.088
		c-1.402,0.734-2.66,1.898-3.451,3.163c-1.088,1.737-0.051,4.221,1.918,4.718c0.293,0.073,0.568,0.112,0.838,0.136
		c0.965,1.022,2.389,1.313,3.854,1.181c0.653-0.059,1.384-0.287,2.02-0.272c0.862,0.019,1.71,0.381,2.589,0.375
		c1.885-0.012,3.972-1.055,4.505-2.992C335.521,480.491,334.048,478.95,333.485,477.234z"/>
	<path style="fill:#EDE4C0;" d="M171.525,476.786c-2.454-2.113-5.229-2.573-7.871-1.853c-0.764,0.098-1.517,0.332-2.435,0.663
		c-0.592,0.213-1.26,0.628-1.889,1.04c-1.308-2.417-3.052-5.014-5.814-5.04c-3.394-0.032-6.549,3.868-7.981,6.581
		c-0.505,0.958-0.675,2.312,0,3.254c2.756,3.847,6.96,1.379,10.726,1.938c4.576,0.679,10.221,2.914,14.898,1.381
		C175.286,483.397,174.149,479.045,171.525,476.786z"/>
	<path style="fill:#EDE4C0;" d="M120.587,464.503c-0.439-0.765-0.721-1.578-1.092-2.366c-0.383-1.827-1.732-2.523-3.152-2.41
		c-0.563-0.795-1.428-1.347-2.496-1.499c-0.797-0.113-1.558,0.071-2.279,0.413c-0.402,0.19-0.795,0.615-1.192,0.989
		c-0.228-0.141-0.459-0.269-0.692-0.381c0.025-0.044,0.049-0.085,0.078-0.137c0.287-0.499,0.295-1.148,0.325-1.708
		c0.099-1.844-1.579-3.146-3.26-3.26c-2.979-0.201-4.428,2.578-6.085,4.553c-1.84,2.194-3.513,4.004-2.98,7.06
		c0.188,1.085,1.291,2.08,2.328,2.329c2.047,0.492,4.961,0.715,7.1,0.761c2,0.042,3.91-0.437,5.83-0.867
		c1.318,0.991,2.994,1.675,4.514,1.848C120.302,470.142,121.806,466.621,120.587,464.503z"/>
</g>
<path style="fill:#FFFFFF;" d="M60.38,12.61c-0.66-0.258-1.377-0.377-2.05-0.311c-0.88,0.087-1.685,0.384-2.367,0.835
	c-0.731,0.192-1.431,0.474-2.015,0.818c-0.227,0.134-0.434,0.293-0.627,0.465c-1.041-0.045-2.02,0.997-1.729,2.125
	c-0.218,0.579-0.189,1.231,0.232,1.82c0.073,0.103,0.161,0.184,0.239,0.279c0.194,0.613,0.56,1.184,1.131,1.646
	c0.927,0.748,1.963,0.785,2.747,0.357c0.824,0.089,1.677,0.051,2.516-0.114c2.846-0.561,4.747-2.676,5.75-5.286
	C65.123,12.861,62.12,11.472,60.38,12.61z"/>
<path d="M77.459,38.734c1.29-1.793,2.165-3.789,3.024-5.815c0.393-0.922-0.925-1.75-1.38-0.807c-0.952,1.97-1.987,3.886-3.142,5.747
	C75.363,38.824,76.819,39.623,77.459,38.734z"/>
<path d="M60.38,10.636c-2.094-0.61-4.115-0.069-6.102,0.711c-4.214,1.654-5.197,4.249-7.066,7.942
	c-0.09,0.178,0.024,0.345,0.211,0.367c0.564,0.067,1.104-0.151,1.622-0.522c0.156,5.131,4.53,9.832,10.097,7.789
	c0.589-0.215,0.559-1.218-0.158-1.17c-2.621,0.172-5.285-0.782-6.776-2.998c-0.621-0.924-1.307-1.861-1.582-2.954
	c-0.157-0.625-0.208-1.268-0.272-1.908c0.035-0.041,0.072-0.08,0.107-0.121c0.035,0.943,0.426,1.921,0.975,2.618
	c1.292,1.637,3.567,2.672,5.639,2.632c2.064-0.041,4.123-1.105,5.566-2.542c0.641-0.638,0.604-1.19,1.084-1.886
	c0.256-0.369,0.756-0.611,1.164-0.427c0.431,0.193,0.565,0.736,0.582,1.207c0.078,2.312-2.019,3.556-1.978,5.819
	c0.009,0.468,0.708,0.721,0.935,0.253c1.015-2.104,2.35-3.558,2.679-6.016c0.268-1.998-0.509-3.929-1.802-5.493
	C64.006,12.366,62.187,11.164,60.38,10.636z M62.707,14.926c-0.935,2.59-2.354,5.186-5.493,5.477
	c-1.541,0.143-3.392-0.599-4.33-1.83c-0.77-1.01-1.404-2.423,0.021-3.167c0.193-0.101,0.688,1.468,0.74,1.559
	c0.723,1.26,2.293,1.204,3.301,0.341c0.761-0.652,1.189-1.808,1.139-2.802c-0.022-0.425-0.137-0.809-0.314-1.144
	c0.932-0.088,1.865-0.031,2.758,0.242c0.897,0.274,1.584,0.733,2.354,1.026C62.81,14.713,62.748,14.811,62.707,14.926z"/>
<path d="M23.774,27.698c-0.751-0.731-1.882-0.668-2.669-0.04c-0.374,0.3-0.738,0.879-0.705,1.394
	c-0.11,0.204-0.201,0.411-0.248,0.607c-0.178,0.74,0.019,1.535,0.564,2.074c0.01,0.009,0.02,0.015,0.029,0.024
	c0.057,0.508,0.442,0.819,0.942,0.876c0.446,0.051,0.866-0.148,1.233-0.45c0.207-0.071,0.411-0.163,0.604-0.285
	c0.568-0.358,0.768-1.018,0.671-1.611C24.509,29.392,24.523,28.427,23.774,27.698z"/>
<path d="M25.427,23.814c-0.811-0.383-1.527,0.804-0.711,1.217c2.507,1.268,2.393,4.265,2.571,6.713c0.081,1.116,1.647,1.115,1.733,0
	C29.275,28.478,28.64,25.333,25.427,23.814z"/>
<path d="M29.807,24.113c0.892,2.327,1.183,4.764,1.301,7.246c0.026,0.546,0.915,0.739,1.011,0.137
	c0.434-2.727-0.737-5.063-1.764-7.535C30.218,23.631,29.674,23.767,29.807,24.113z"/>
<path d="M85.46,70.667c-0.036-0.34-0.564-0.353-0.542,0c0.726,11.164,1.609,22.752,6.296,33.064c0.283,0.622,1.361,0.177,1.114-0.47
	C88.317,92.757,86.636,81.8,85.46,70.667z"/>
<path d="M92.151,78.155c-0.168-1.058-1.733-0.594-1.594,0.439c1.975,14.601,3.924,28.944,9.706,42.595
	c0.373,0.881,1.806,0.25,1.536-0.647C97.577,106.511,94.448,92.637,92.151,78.155z"/>
<path d="M191.937,268.298c-2.555-1.354-5.051-0.644-7.535,0.458c-1.444,0.641-3.215,1.317-4.613,2.325
	c-1.857,0.971-3.738,1.96-4.451,4.126c-0.794,2.407,0.594,5.453,2.035,7.346c1.794,2.355,5.785,3.572,8.572,4.144
	c3.047,0.624,6.292-0.687,8.477-2.839C198.613,279.731,197.097,271.033,191.937,268.298z M189.554,281.372
	c-2.607,1.293-8.059-0.228-9.663-2.583c-1.247-1.831-1.254-2.706,0.215-4.518c0.295-0.363,0.585-0.694,0.868-1.026
	c0.977-0.533,2.161-0.889,2.965-1.212c1.857-0.749,4.399-2.069,6.393-0.987C194.228,273.159,193.148,279.589,189.554,281.372z"/>
<path d="M208.958,310.945c-1.851,10.073-5.875,18.986-10.074,28.268c-0.462,1.021,0.885,1.85,1.521,0.889
	c5.845-8.834,8.146-18.467,9.966-28.768C210.532,310.415,209.13,310.017,208.958,310.945z"/>
<path d="M142.224,399.103c-3.166-0.323-6.223-1.338-9.35-1.902c-1.34-0.242-1.928,1.786-0.568,2.064
	c3.328,0.682,6.496,1.822,9.918,1.952C143.605,401.269,143.55,399.239,142.224,399.103z"/>
<path d="M176.523,382.695c-2.32-0.226-4.6-0.472-6.938-0.507c-1.32-0.02-1.29,1.936,0,2.032c2.354,0.175,4.576,0.548,6.938,0.264
	C177.659,384.347,177.684,382.809,176.523,382.695z"/>
<path d="M115.022,451.075c-0.877-0.647-1.838-1.176-2.72-1.821c-0.271-0.198-0.498,0.207-0.328,0.426
	c0.639,0.828,1.33,1.555,2.066,2.292c0.703,0.703,1.072,1.64,1.779,2.339c0.643,0.635,1.877-0.227,1.299-1.001
	C116.511,452.497,115.845,451.682,115.022,451.075z"/>
<path d="M119.827,450.005c-1.551-0.458-2.99-1.205-4.422-1.942c-0.359-0.186-0.644,0.312-0.314,0.538
	c1.199,0.826,1.94,2.08,3.223,2.817c1.144,0.657,2.506,1.046,3.548,1.862c0.987,0.773,2.349-0.469,1.418-1.417
	C122.292,450.856,121.155,450.398,119.827,450.005z"/>
<path d="M171.398,467.777c-3.627-0.554-6.621,0.067-9.98,1.476c-0.326,0.137-0.208,0.664,0.15,0.549
	c3.357-1.074,6.166-0.37,9.56-0.029C172.255,469.886,172.53,467.95,171.398,467.777z"/>
<path d="M175.169,463.149c-3.141-1.49-6.424-1.596-9.822-2.001c-1.172-0.14-1.459,1.895-0.281,2.076
	c3.111,0.479,6.234,1,9.228,2.005C175.499,465.635,176.342,463.706,175.169,463.149z"/>
<path d="M363.646,376.871c6.693-7.825,7.782-15.531,6.544-25.653c-0.091-0.74-1.237-0.783-1.192,0
	c0.255,4.406,0.359,8.861-0.852,13.156c-1.186,4.2-3.696,7.722-5.84,11.462C361.839,376.651,362.998,377.628,363.646,376.871z"/>
<path d="M375.116,357.384c-1.565,12.531-9.997,20.383-17.297,29.87c-0.811,1.056,0.885,2.23,1.788,1.379
	c4.382-4.128,8.762-8.431,11.659-13.772c3.123-5.759,4.053-11.054,4.365-17.477C375.648,357.045,375.156,357.065,375.116,357.384z"
	/>
<path d="M304.502,310.158c-7.749,3.536-14.98,7.146-21.72,12.44c-0.611,0.479,0.201,1.547,0.836,1.085
	c6.799-4.942,14.674-7.698,21.582-12.332C305.948,310.849,305.306,309.791,304.502,310.158z"/>
<path d="M250.013,400.336c-7.764-2.526-15.166-4.694-21.85-9.619c-6.3-4.642-11.502-10.448-16.701-16.248
	c-0.785-0.875-2.039,0.405-1.283,1.284c11.095,12.916,21.744,24.602,39.564,26.579C250.929,402.464,251.05,400.674,250.013,400.336z
	"/>
<path d="M251.126,393.171c-8.172-1.729-15.714-4.488-22.004-10.157c-0.773-0.697-1.896,0.406-1.149,1.149
	c6.174,6.153,13.882,11.196,22.927,10.684C251.812,394.796,252.116,393.381,251.126,393.171z"/>
<path d="M226.486,280.854c-2.411,0.39-4.241,2.411-5.353,4.46c-1.357,2.503-3.683,6.05-3.298,9.037
	c0.36,2.788,2.462,5.275,5.136,6.001c3.375,0.916,6.982-0.856,10.018-2.157c2.764-1.185,5.992-4.323,6.252-7.486
	C239.691,285.243,231.351,280.068,226.486,280.854z M231.334,284.775c1.898,0.932,3.474,1.754,3.804,3.994
	c0.283,1.922,0.012,1.862-1.185,3.11c-0.884,0.922-1.481,1.532-2.737,2.108c-1.394,0.64-3,1.24-4.433,1.74
	c-1.854,0.648-4.903,0.952-5.6-1.613c-0.06-0.221-0.074-0.459-0.068-0.703c0.056-2.416,2.055-5.356,3.131-7.448
	C225.705,283.126,228.94,283.6,231.334,284.775z"/>
<path d="M210.636,275.065c4.104,1.523,12.571,1.058,13.649-4.429c0.898-4.574-3.665-10.536-8.563-9.883
	c-3.441,0.459-5.799,3.587-7.221,6.496c-0.614,1.255-1.792,3.425-1.686,4.865C206.945,273.853,209.191,274.529,210.636,275.065z
	 M214.817,264.564c3.248-2.002,8.739,3.662,5.244,6.25c-1.858,1.375-5.564,1.236-7.625,0.542
	C208.786,270.126,212.903,265.743,214.817,264.564z"/>
<path d="M323.771,321.786c-0.625-0.88-1.576-1.586-2.582-2.019c-2.643-1.139-5.215,0.011-7.307,1.691
	c-3.389,2.722-10.488,10.957-5.595,15.074c4.455,3.747,13.462,2.165,17.655-1.16c2.555-2.025,3.112-4.749,2.188-7.836
	C327.288,324.726,326.006,323.407,323.771,321.786z M323.663,331.369c-2.389,2.157-6.729,3.003-9.846,3.208
	c-0.834,0.054-3.092,0.25-3.689-0.372c-1.127-1.17-0.753-3.565-0.086-4.834c0.33-0.626,0.744-1.23,1.16-1.801
	c1.624-2.229,4.101-4.655,6.91-5.204C322.53,321.502,327.418,327.977,323.663,331.369z"/>
<path d="M290.05,300.675c-0.266-1.07-0.869-2.161-1.735-3.187c-1.015-1.2-2.015-2.325-3.119-3.446
	c-1.741-1.767-3.642-3.542-6.313-3.242c-4.994,0.561-5.979,6.988-6.1,11.494c-0.578,1.554-0.791,3.196,0.243,4.701
	c1.36,1.98,3.848,2.007,5.979,1.624c2.922-0.525,5.963-1.353,8.568-2.801C289.872,304.541,290.536,302.644,290.05,300.675z
	 M285.146,301.7c-1.223,0.529-2.43,1.083-3.646,1.629c-1.692,0.759-5.266,3.3-5.981,0.317c-0.395-1.652,0.602-3.629,1.055-5.148
	c0.32-1.07,0.63-2.785,1.524-3.543c2.602-2.206,6.003,3.835,7.45,5.265C286.585,301.243,286.63,301.059,285.146,301.7z"/>
<path d="M277.364,278.235c1.152-2.603-0.338-5.494-1.594-7.747c-2.251-4.036-5.577-9.463-10.838-6.054
	c-3.386,2.194-5.352,6.348-5.883,10.246c-0.412,3.022-0.117,9.003,3.817,9.434c3.267,0.357,6.423-0.4,9.296-1.918
	C273.959,281.248,276.493,280.205,277.364,278.235z M274.614,276.669c-0.669,1.706-2.587,2.033-4.273,2.518
	c-1.912,0.551-3.601,0.597-5.562,0.465c-4.991-0.337-1.544-7.176-0.156-9.354c0.938-1.474,2.729-3.802,4.741-2.894
	c1.452,0.656,2.498,2.673,3.34,3.943C273.749,272.922,275.362,274.762,274.614,276.669z"/>
<path d="M241.739,270.831c2.829,0.349,6.116-0.345,8.674-1.586c1.789-0.868,4.852-2.943,5.202-5.083
	c0.667-4.062-6.302-10.188-10.019-10.191c-2.746-0.002-4.626,3.153-5.783,5.238c-1.255,2.263-3.65,6.253-2.719,8.816
	C237.81,269.99,239.847,270.598,241.739,270.831z M241.802,261.171c0.631-1.793,1.727-4.319,3.971-4.364
	c2.641-0.052,4.98,2.845,6.014,4.985c0.786,1.628,0.301,2.004-1.011,3.069c-1.399,1.137-2.956,1.685-4.688,2.091
	c-1.154,0.271-3.678,1.086-4.76,0.331C239.723,266.164,241.28,262.65,241.802,261.171z"/>
<path d="M315.554,283.937c0.998-2.721-0.362-5.574-1.495-8.026c-0.946-2.048-2.345-6.222-4.777-6.937
	c-2.356-0.693-4.948,1.644-6.287,3.313c-1.044,1.301-1.723,2.868-2.274,4.492c-0.027,0.031-0.056,0.054-0.082,0.089
	c-3.254,4.198-4.42,9.179,1.793,11.04C306.821,289.222,313.676,289.061,315.554,283.937z M306.259,284.502
	c-0.975-0.077-2.729-0.188-3.525-0.76c-1.848-1.327-0.251-3.414,0.415-4.938c0.044-0.102,0.074-0.207,0.097-0.313
	c0.774-1.427,1.307-2.933,2.294-4.241c0.722-0.957,1.267-1.693,2.476-1.861c1.439-0.2,1.445,0.433,2.145,1.766
	c0.887,1.695,1.7,3.603,2.091,5.484C313.087,283.669,309.581,284.767,306.259,284.502z"/>
<path d="M287.946,275.944c3.375-0.02,10.668-0.662,10.51-5.477c-0.068-2.085-1.789-3.657-3.243-4.93
	c-1.511-1.322-3.569-3.125-5.657-3.315c-2.479-0.226-3.66,2.353-4.34,4.306c-0.684,1.971-2.33,5.395-1.525,7.362
	C284.407,275.644,286.246,275.954,287.946,275.944z M286.783,271.48c0.03-0.95,0.13-1.92,0.333-2.849
	c0.33-1.506,1.083-3.783,3.056-3.437c1.974,0.346,4.753,2.521,5.47,4.418c1.289,3.413-5.153,3.636-7.237,3.561
	C286.868,273.119,286.737,272.92,286.783,271.48z"/>
<path d="M259.044,311.292c0.957-2.222-0.052-4.832-1.729-6.625c-0.832-0.889-1.827-1.577-2.828-1.917
	c-1.084-0.369-1.701-0.893-2.712-1.501c-2.105-1.266-4.554-1.74-6.652-0.182c-2.966,2.201-3.483,7.242-2.048,10.43
	c1.9,4.223,6.635,4.229,10.597,3.483C255.899,314.561,258.113,313.454,259.044,311.292z M253.089,311.477
	c-1.143,0.385-2.483,0.37-3.688,0.559c-1.752,0.276-2.979-0.168-3.725-1.845c-0.846-1.897-0.709-5.367,1.036-6.767
	C250.802,300.143,259.202,309.418,253.089,311.477z"/>
<path d="M335.253,303.055c-0.092-2.124-2.273-3.851-3.347-5.553c-1.026-1.628-2.17-3.446-4.217-3.789
	c-2.499-0.418-3.202,0.843-4.661,2.437c-0.967,1.055-1.893,2.159-2.666,3.366c-0.572,0.895-1.814,2.421-1.986,3.472
	c-0.414,2.54,3.249,3.827,5.105,4.221c2.646,0.562,5.482-0.093,8.076-0.667C333.38,306.139,335.348,305.233,335.253,303.055z
	 M331.884,303.205c-0.508,0.547-3.684,0.704-4.32,0.796c-1.506,0.217-3.145,0.288-4.578-0.332c-2.705-1.17,0.525-4.748,1.635-5.889
	c0.945-0.973,1.65-2.044,3.041-1.239c1.25,0.724,1.955,2.455,2.715,3.613C330.812,300.816,332.589,302.442,331.884,303.205z"/>
<path d="M339.389,297.639c1.821,2.164,6.04,2.236,8.644,2.387c2.389,0.138,5.516-0.229,7.023-2.351
	c2.268-3.192-0.434-8.597-3.062-10.804c-2.927-2.457-6.36,0.32-8.888,3.249C340.457,291.843,336.746,294.5,339.389,297.639z
	 M342.198,294.199c0.902-1.039,1.818-2.063,2.829-3.006c0.967-0.903,3.567-3.096,5.005-2.36c1.4,0.718,3.451,5.085,2.726,6.498
	c-0.729,1.421-3.62,0.886-4.954,0.702c-0.546-0.075-5.588-0.566-5.781-1.105C341.966,294.769,342.043,294.511,342.198,294.199z"/>
<path d="M196.935,248.151c-1.006-2.028-4.053-2.761-6.405-2.012c-1.993,0.635-4.103,2.773-5.218,4.49
	c-1.131,1.74-1.229,3.9,0.072,5.563c2.504,3.202,9.512,5,13.016,2.548C201.831,256.339,200.388,249.847,196.935,248.151z
	 M196.933,255.184c-0.684,2.35-5.949,1.161-7.549,0.249c-1.352-0.771-2.377-1.856-1.289-3.396c0.543-0.77,1.359-1.523,2.041-2.172
	C193.593,246.575,198.046,251.353,196.933,255.184z"/>
<path d="M170.207,243.208c-0.106-0.175-0.22-0.356-0.341-0.539c-1.514-2.313-4.06-5.092-7.014-3.791
	c-3.037,1.338-6.182,7.139-4.433,10.322c2.134,3.886,8.101,4.375,11.739,2.848C174.362,250.285,171.913,246.005,170.207,243.208z
	 M169.398,248.927c-0.713,0.858-3.098,0.913-4.105,0.813c-1.2-0.119-3.715-0.921-4.154-2.234c-0.52-1.558,2.127-6.589,4.006-5.974
	C166.982,242.134,171.106,246.869,169.398,248.927z"/>
<path d="M161.603,234.434c2.396,0.184,5.158,0.606,7.109-1.144c3.068-2.75,1.011-7.006-1.559-9.774
	c-0.719-0.776-1.479-1.435-2.179-1.911c-2.083-1.418-5.15-5.214-7.58-2.118c-1.606,2.047-2.429,5.28-3.417,7.662
	c-0.715,1.724-1.373,3.654,0.121,5.176C155.885,234.143,159.235,234.253,161.603,234.434z M158.033,225.445
	c0.312-0.731,0.979-3.682,1.608-3.9c0.988-0.338,2.758,1.68,3.518,2.186c1.49,0.99,2.541,2.581,2.706,4.368
	c0.048,0.512,0.022,0.914-0.067,1.23c-0.319,1.143-1.464,1.167-2.979,1.229c-1.521,0.062-4.092,0.486-5.485-0.265
	C155.47,229.286,157.42,226.885,158.033,225.445z"/>
<path d="M217.546,257.101c3.461,0.394,9.766,0.639,11.039-3.581c1.285-4.264-4.131-8.959-7.967-9.611
	c-2.811-0.478-5.089,2.622-6.882,4.418c-1.595,1.6-4.295,4.531-2.47,6.875C212.525,256.818,215.716,256.892,217.546,257.101z
	 M214.404,251.734c0.669-1.809,2.78-3.017,4.051-4.367c1.526-1.624,3.241-0.616,4.776,0.607c1.16,0.926,3.34,2.761,2.711,4.5
	c-0.749,2.07-4.205,1.636-5.932,1.598C218.296,254.032,213.421,254.393,214.404,251.734z"/>
<path d="M334.153,287.975c2.236,0.305,4.122-0.609,5.024-2.864c1.015-2.536-1.256-4.358-2.493-6.351
	c-1.28-2.065-2.452-5.101-4.841-6.127c-2.224-0.955-4.474,0.352-5.999,1.965c-0.531,0.561-2.43,3.504-2.975,5.607
	c-0.192,0.124-0.361,0.279-0.47,0.482C318.759,287.481,330.567,287.485,334.153,287.975z M326.292,279.027
	c0.542-0.784,1.1-1.526,1.816-2.166c1.703-1.52,3.134-1.135,4.354,0.75c0.807,1.249,1.528,2.557,2.332,3.809
	c0.495,0.77,2.196,2.296,1.102,3.246c-0.15,0.13-2.148-0.378-2.717-0.421c-1.604-0.121-3.438-0.279-4.994-0.706
	C325.431,282.786,324.564,281.527,326.292,279.027z"/>
<path d="M374.078,328.916c1.478-2.276-0.093-4.792-0.929-7.065c-0.953-2.599-2.316-5.312-4.976-6.498
	c-7.113-3.173-19.313,12.089-11.677,15.098c3.078,1.212,6.689,1.151,9.938,1.098C369.054,331.506,372.502,331.344,374.078,328.916z
	 M361.08,327.587c-0.684-0.069-3.343-0.126-3.754-0.946c-0.8-1.599,1.5-4.138,2.409-5.231c1.588-1.909,3.294-3.891,6.063-3.734
	c3.303,0.188,6.829,6.305,5.06,8.971C369.48,328.722,363.444,327.825,361.08,327.587z"/>
<path d="M345.361,339.317c-4.81,0.049-9.338,8.617-7.112,12.771c1.055,1.967,3.175,2.067,5.195,2.045
	c1.123-0.013,2.201-0.125,3.262-0.495c1.102-0.385,2.393-0.541,3.416-1.105c1.8-0.994,2.604-2.702,2.861-4.684
	C353.478,344.051,349.287,339.277,345.361,339.317z M350.274,347.778c-0.582,2.204-3.379,2.621-5.401,3.011
	c-1.571,0.303-4.003,0.392-4.573-1.51c-0.703-2.343,1.766-6.079,3.781-7.12C346.976,340.665,351.024,344.936,350.274,347.778z"/>
<path d="M389.277,347.905c4.128-0.323,8.358-1.914,7.292-6.677c-0.511-2.287-3.18-8.048-6.201-7.557
	c-3.883,0.631-11.537,7.223-8.534,11.717C383.332,347.63,386.816,348.098,389.277,347.905z M389.142,337.122
	c1.273-0.918,1.864-1.59,3.109-0.085c0.643,0.777,1.067,1.862,1.405,2.8c0.47,1.303,0.951,2.875-0.392,3.695
	c-0.965,0.59-2.728,0.801-3.805,0.915c-1.218,0.128-4.178,0.314-4.844-1.047C383.452,341.023,387.675,338.178,389.142,337.122z"/>
<path d="M268.187,322.269c-0.759-0.243-1.281,0.215-1.447,0.811c-3.835-1.138-7.507-0.504-9.344,3.542
	c-1.531,3.369-0.066,6.167,3.425,6.957c3.38,0.765,7.95,0.792,9.937-2.59c1.002-1.704,1.225-3.807,0.651-5.699
	C270.872,323.518,269.89,322.815,268.187,322.269z M267.173,329.343c-1.057,1.246-2.969,1.458-4.482,1.505
	c-1.109,0.034-2.762,0.202-3.324-1.057c-0.314-0.704,0.07-1.977,0.359-2.585c1.355-2.849,3.999-3.18,6.771-2.618
	c0.229,0.046,0.422,0,0.574-0.097C268.142,325.904,268.461,327.823,267.173,329.343z"/>
<path d="M144.327,219.719c1.436,0.917,3.826,0.924,5.34,0.203c1.611-0.767,2.227-2.609,2.519-4.249
	c0.28-1.572,0.021-3.607-0.735-5.315c-0.875-1.978-2.416-3.518-4.56-3.396c-4.007,0.229-6.372,4.093-5.647,7.845
	C141.566,216.474,142.857,218.778,144.327,219.719z M145.343,209.807c1.02-1.092,2.404-1.175,3.022,0.118
	c0.53,1.11,1.198,2.242,1.39,3.477c0.273,1.77-0.767,4.609-3.078,3.503C144.733,215.974,143.906,211.344,145.343,209.807z"/>
<path d="M128.595,186.53c-0.926,4.296,1.008,9.097,5.662,10.045c5.014,1.021,6.924-4.049,6.646-8.129
	c-0.158-2.323-0.642-4.784-2.504-6.356C134.241,178.576,129.566,182.021,128.595,186.53z M135.473,183.49
	c1.823,0.669,2.124,4.309,1.938,5.932c-0.237,2.07-1.112,4.304-3.604,3.693c-2.61-0.641-3.41-3.388-3.105-5.761
	C130.981,185.198,132.79,182.507,135.473,183.49z"/>
<path d="M126.585,162.28c-0.902,1.184-1.31,2.798-1.267,4.27c0.04,1.397,0.335,2.797,1.276,3.879
	c1.641,1.889,4.686,2.376,6.488,0.477c1.816-1.912,2.274-5.433,1.119-7.785c-0.664-1.352-2.059-2.19-3.531-2.39
	C129.157,160.528,127.56,160.998,126.585,162.28z M130.936,163.195c1.774,1.054,1.587,3.826,0.756,5.405
	c-0.651,1.239-1.819,1.498-3.052,0.632c-1.045-0.732-1.302-2.032-1.353-3.232C127.206,164.107,129.092,162.1,130.936,163.195z"/>
<path d="M86.136,28.219c-1.885,6.965-5.91,13.167-10.318,18.819c-0.451,0.579,0.137,1.641,0.871,1.128
	c5.955-4.163,8.809-13.01,9.865-19.831C86.597,28.065,86.211,27.943,86.136,28.219z"/>
<path d="M85.353,63.346c0.229-8.556,0.313-16.274,2.782-24.596c0.097-0.324-0.379-0.439-0.497-0.137
	c-3.158,8.117-6.021,16.187-4.121,24.98C83.745,64.65,85.325,64.373,85.353,63.346z"/>
<path d="M103.586,129.629c-0.036-0.357-0.588-0.372-0.569,0c0.53,10.566-0.186,21.041-0.024,31.601
	c0.134,8.773,1.031,16.962,2.394,25.604c0.113,0.722,1.248,0.53,1.25-0.169c0.027-8.8-0.887-17.751-1.375-26.545
	C104.694,149.924,104.614,139.807,103.586,129.629z"/>
<path d="M108.968,159.303c-0.028-0.343-0.557-0.353-0.542,0c0.774,19.326-0.548,39.703,6.392,58.137
	c0.555,1.474,2.883,0.897,2.402-0.663C111.521,198.245,110.53,178.519,108.968,159.303z"/>
<path d="M121.166,235.848c-0.088-0.598-1.134-0.464-1.065,0.144c1.805,15.917,3.566,31.9,10.211,46.675
	c0.404,0.899,1.802,0.252,1.56-0.658C127.772,266.595,123.493,251.687,121.166,235.848z"/>
<path d="M136.816,270.081c-5.031-12.274-7.801-25.548-10.862-38.411c-0.094-0.395-0.672-0.224-0.601,0.166
	c2.346,12.832,3.467,27.339,10.027,38.851C135.806,271.436,137.161,270.925,136.816,270.081z"/>
<path d="M150.937,275.149c-2.988,2.358-5.496,5.072-7.797,8.104c-2.434,3.207-3.547,6.881-5.436,10.381
	c-0.201,0.374,0.323,0.667,0.562,0.328c2.214-3.143,3.948-6.551,6.422-9.514c2.36-2.826,5.045-5.326,7.321-8.226
	C152.614,275.45,151.708,274.54,150.937,275.149z"/>
<path d="M154.159,268.456c-7.305,4.393-12.837,9.642-17.6,16.707c-0.195,0.289,0.27,0.658,0.49,0.377
	c5.111-6.522,11.141-11.048,17.902-15.728C155.774,269.245,155.038,267.927,154.159,268.456z"/>
<path d="M232.784,375.227c-4.404-2.396-9.021-4.387-13.287-7.039c-4.854-3.019-8.156-7.417-11.549-11.924
	c-0.523-0.696-1.715-0.035-1.193,0.698c2.91,4.083,5.711,8.435,9.646,11.625c4.704,3.814,10.224,5.887,15.798,8.026
	C233.007,376.923,233.53,375.632,232.784,375.227z"/>
<path d="M503.585,411.361c-1.246-10.672-4.473-20.519-10.812-29.188c-4.35-5.947-10.359-11.207-16.434-15.822
	c0.292-1.726-0.028-3.767-0.226-5.24c-0.322-2.417-1.51-4.429-3.588-5.75c-2.219-1.412-5.322-2.396-7.841-1.254
	c-1.008,0.458-2.228,1.393-2.987,2.5c-2.365-1.342-4.777-2.606-7.201-3.844c0.002-0.018,0.002-0.038,0.005-0.057
	c0.147-1.094,0.222-2.168-0.003-3.262c-0.439-2.144-1.898-4.354-4.051-5.076c-2.109-0.707-6.104,0.52-7.326,2.802
	c-0.736-0.354-1.475-0.708-2.209-1.063c-4.93-2.38-9.939-4.809-14.556-7.78c0.157-0.38,0.258-0.792,0.281-1.203
	c0.237-4.119,0.537-11.21-3.987-13.279c-1.99-0.91-4.177-0.405-6.123,0.356c-0.982,0.384-2.387,0.898-3.541,1.59
	c-5.607-8.308-13.016-15.272-21.015-21.479c0.354-1.807,0.464-3.81,0.36-5.42c-0.166-2.564-0.912-5.357-3.271-6.759
	c-2.115-1.257-4.442-0.738-6.65-0.036c-1.157,0.368-2.363,0.701-3.449,1.257c-0.49,0.251-0.87,0.534-1.209,0.837
	c-3.021-2.045-5.842-4.254-8.576-6.549c0.588-4.086,2.143-8.144-0.912-11.856c-3.749-4.555-9.134-2.632-13.784-0.81
	c-2.54-1.928-5.192-3.583-7.909-5.326c0.461-1.115,0.141-2.295,0.221-3.732c0.087-1.532,0.656-3.127,0.313-4.655
	c-0.693-3.094-2.563-6.156-5.752-7.026c-3.029-0.826-7.154-0.163-9.867,1.42c-0.176,0.103-0.739,0.527-1.307,1.062
	c-5.752-3.293-12.418-4.163-19.045-5.235c-0.635-4.569-2.842-8.952-7.517-10.111c-2.626-0.652-5.097-1.306-7.621-0.106
	c-2.587,1.23-3.932,3.196-5.323,5.258c-0.273-0.083-0.547-0.16-0.82-0.241c-1.121-1.48-2.42-2.867-3.545-4.345
	c-1.443-1.896-2.974-3.654-5.291-4.461c-5.027-1.752-8.415,2.063-10.531,6.12c-4.588-0.283-9.174-0.579-13.688-1.391
	c-0.044-0.454-0.117-0.904-0.214-1.329c-0.812-3.535-3.104-6.371-6.097-8.354c-3.102-2.057-7.285-3.709-10.883-1.949
	c-2.061,1.009-4.84,3.398-6.013,5.902c-2.146-0.61-4.3-1.178-6.474-1.628c-2.744-4.042-5.773-8.802-11.241-8.61
	c-2.923,0.103-8.372,4.237-8.765,7.872c-2.416,0.086-4.818-0.005-7.086-0.599c-0.996-2.934-0.781-6.165-2.031-9.138
	c-1.082-2.577-3.625-6.119-6.236-7.265c-2.673-1.172-6.312,1.017-7.932,3.167c-0.039,0.053-0.166,0.268-0.314,0.562
	c-3.973-3.209-7.191-7.223-10.338-11.342c1.097-2.224,1.082-4.604,0.581-7.266c-0.491-2.613-0.967-5.072-3.743-6.047
	c-1.205-0.422-5.227-0.315-7.193,0.888c-0.434-0.417-0.869-0.829-1.32-1.228c-1.18-1.044-2.29-2.107-3.341-3.201
	c0.106-1.17-0.188-2.303-0.034-3.512c0.16-1.238,0.49-2.45,0.609-3.696c0.226-2.339-0.246-4.511-2.148-6.022
	c-1.787-1.419-5.258-2.147-7.699-1.2c-1.135-2.657-2.203-5.364-3.386-8.001c-2.167-8.933-6.505-17.303-8.913-26.177
	c-3.416-12.597-6.527-25.37-7.992-38.359c-1.344-11.909-3.467-23.638-5.074-35.496c-0.609-4.494-1.725-8.492-3.037-12.595
	c-0.359-6.98-2.38-14.038-4.877-20.427c-2.948-7.542-7.898-12.331-13.848-17.578c-4.929-4.348-9.73-9.111-16.096-11.178
	c-2.645-0.859-5.25-1.523-7.803-2.423C71.87,2.1,65.827-0.334,58.341,0.037c-3.19,0.158-6.099,0.83-9.046,2.035
	c-3.854,1.576-7.748,2.043-11.582,3.529c-6.558,2.542-12.234,6.992-18.521,10.132c-3.821,1.908-10.025,4.904-10.579,9.725
	c-0.294,0.603-0.501,1.24-0.587,1.908c-0.227,1.744,0.605,3.901,1.404,5.426c1.604,3.059,3.6,5.279,4.672,8.674
	c1.256,3.972,3.186,5.564,7.508,4.609c4.754-1.051,9.332-2.557,14.011-3.826c-0.435,0.235-0.872,0.466-1.323,0.676
	c-2.316,1.079-4.902,1.63-7.102,2.981c-2.823,1.734-4.711,5.346-3.031,8.488c1.834,3.433,4.653,4.461,8.029,2.955
	c3.259-1.455,5.531-2.844,9.237-3.506c1.935-0.345,3.559-0.793,5.126-1.441c2.291-0.211,4.599-0.362,6.807-0.754
	c1.22-0.216,2.413-0.493,3.587-0.808c0.375,0.287,0.794,0.543,1.24,0.827c1.792,1.137,3.104,1.788,4.087,3.853
	c0.477,1.002,0.754,2.156,1.195,3.19c1.328,3.117,3.565,6.177,6.641,7.751c1.334,0.682,2.566,0.602,3.625,1.719
	c3.646,3.853,2.424,9.564,2.275,14.443c-0.254,8.389,4.598,14.924,6.082,22.979c1.495,8.11,3.995,15.843,5.588,23.898
	c1.773,8.971,2.8,17.835,6.094,26.451c0.061,0.16,0.156,0.3,0.256,0.436c-0.285,7.076-0.661,14.191-0.455,21.254
	c0.479,16.457,1.41,32.819,4.398,48.996c1.541,8.342,1.844,17.12,3.996,25.318c1.998,7.605,6.878,13.511,10.255,20.485
	c3.468,7.163,8.133,13.689,10.841,21.226c1.911,5.318,3.598,10.359,5.826,15.286c0.826,2.945,1.862,5.832,2.703,8.776
	c1.705,5.963,3.736,11.583,7.34,16.506c0.48,2.063,0.982,4.128,1.467,6.212c0.621,2.679,1.279,5.261,1.984,7.804
	c-1.211,8.849-5.312,17.679-8.83,25.736c-3.211,7.35-8.67,14.667-10.104,22.633c-0.803,4.457-1.434,7.541-3.698,11.544
	c-1.854,3.279-3.612,6.627-4.896,10.178c-3.416,9.435-2.901,20.233-8.646,28.765c-2.247,3.335-4.481,6.481-6.244,10.115
	c-1.02,2.1-3.936,6.497-3.768,9.148c0.087,1.39,0.484,2.285,1.906,2.892c1.027,0.438,2.51,0.177,3.563,0.323
	c2.126,0.296,4.156,1.125,6.287,1.443c4.072,0.606,8.254-0.227,12.375-0.021c4.295,0.214,8.936,0.245,13.194-0.396
	c8.194-1.233,6.952-6.867,8.304-13.898c1.918-9.99,4.274-20.529,10.376-28.861c2.436-3.325,5.425-6.213,7.245-9.982
	c0.813-1.683,1.207-3.391,1.445-5.121c1.369,5.274,1.76,10.708,1.895,16.23c0.082,3.415,0.312,6.806,0.063,10.23
	c-0.345,4.74-2.366,8.535-4.834,12.466c-3.966,6.318-7.952,12.563-11.419,19.18c-2.004,3.822-6.714,9.858-2.104,13.646
	c3.38,2.776,10.372,2.667,14.413,2.375c3.604-0.261,7.146-0.307,10.756-0.397c3.975-0.1,8.086,0.491,12.006,0.313
	c4.843-0.22,5.001-5.086,6.894-8.716c3.251-6.232,4.935-12.681,7.305-19.249c4.72-13.073,14.408-24.39,12.259-39.085
	c-0.723-4.935-2.736-9.614-4.325-14.313c-1.55-4.588-2.554-9.314-4.075-13.903c-0.055-0.164-0.098-0.328-0.148-0.492
	c0.402,0.16,0.805,0.325,1.201,0.512c3.652,1.732,6.859,3.951,9.736,6.801c4.57,4.529,8.12,10.431,14.285,12.962
	c6.68,2.743,13.926,2.75,20.959,3.777c6.445,0.94,11.059,5.534,17.822,3.956c0.051-0.012,0.094-0.035,0.143-0.049
	c0.32,3.795,1.15,7.634,1.338,11.292c0.335,6.523-0.898,13.12-0.295,19.565c0.238,2.534,0.861,4.815,1.438,7.25
	c1.297,5.473,0.868,8.737-2.067,13.436c-2.424,3.882-12.33,17.622-3.86,19.89c5.411,1.449,12.866,1.654,18.476,1.233
	c3.378-0.254,6.727-0.907,10.105-1.122c3.488-0.222,7.006,0.364,10.453,0.202c10.74-0.507,6.109-16.648,4.956-22.94
	c-1.321-7.212-2.413-14.217-2.55-21.569c-0.074-3.978,0.092-7.892,0.699-11.828c0.441-2.861,1.273-5.702,1.02-8.614
	c-0.174-2.01-0.484-3.773-0.525-5.416c2.712,1.469,5.979,1.661,9.257,0.997c2.78,3.584,4.423,8.031,6.638,11.928
	c2.663,4.683,4.807,9.492,6.466,14.643c1.318,4.094,4.136,9.1,4.075,13.512c-0.08,5.893-5.846,10.828-8.854,15.338
	c-3.031,4.548-4.552,7.761,1.553,9.121c8.791,1.957,17.043,0.824,25.877,0.714c6.373-0.079,13.98,0.071,16.035-7.521
	c2.217-8.191-0.353-17.648-3.571-25.1c-4.29-9.93-8.573-19.14-10.932-29.738c-0.65-2.921-1.491-8.997-3.673-12.986
	c2.154-0.368,4.273-0.845,6.396-1.677c4.047-1.586,7.244-4.163,10.805-6.517c2.525,0.395,5.113,1.07,7.541,0.997
	c3.879-0.117,7.734-0.854,11.527-1.637c8.808-1.818,17.947-6.59,26.99-6.584c4.732,0.003,8.344,3.166,12.476,5.073
	c3.4,1.57,6.942,2.793,10.544,3.815c8.226,2.335,16.877,3.168,24.568,7.147c3.357,1.737,6.922,4.2,9.605,6.882
	c5.225,5.22,3.502,11.589,0.572,17.548c-4.299,8.747-10.4,15.283-18.652,20.407c-14.186,8.808-27.406,18.919-41.794,27.393
	c-8.638,5.087-17.754,9.284-26.306,14.514c-3.383,2.068-12.923,6.829-11.73,11.923c0.14,0.594,0.719,1.234,1.34,1.339
	c3.256,0.553,7.003-1.256,10.264-1.734c5.389-0.79,10.635-2.258,16.004-3.209c5.525-0.979,11.171-1.513,16.578-3.059
	c5.718-1.634,11.129-4.031,16.697-6.065c5.174-1.89,10.447-1.69,15.756-2.766c4.746-0.962,9.197-3.604,13.483-5.754
	c9.782-4.906,20.364-9.167,27.818-17.472c6.965-7.759,11.496-17.358,14.251-27.343C503.324,434.332,504.809,421.838,503.585,411.361
	z M465.517,357.582c1.801-0.751,4.564,0.45,5.705,1.971c0.777,1.035,0.834,2.295,0.752,3.584c-0.227-0.162-0.455-0.332-0.681-0.492
	c-2.217-1.574-4.504-3.04-6.833-4.436C464.792,357.966,465.136,357.741,465.517,357.582z M446.716,347.645
	c1.261-0.342,2.512-0.319,3.297,0.849c0.465,0.689,0.562,1.47,0.53,2.277c-1.714-0.845-3.432-1.68-5.15-2.508
	C445.985,347.961,446.554,347.69,446.716,347.645z M418.11,327.527c1.283-0.281,2.402-0.481,3.223,0.699
	c0.682,0.982,0.697,2.502,0.721,3.644c0.019,0.873-0.145,2.056-0.211,3.25c-1.939-1.519-3.93-2.871-5.785-4.331
	c-0.418-0.762-0.863-1.504-1.311-2.244C415.88,328.229,417.001,327.77,418.11,327.527z M383.044,295.659
	c1.889-0.25,3.748-0.679,4.056,1.777c0.126,1-0.005,2.054-0.191,3.09c-2.175-1.57-4.372-3.099-6.572-4.589
	C381.329,295.811,382.317,295.755,383.044,295.659z M357.829,277.719c1.525-0.307,3.17-1.133,4.757-0.644
	c3.177,0.98,2.639,4.063,2.011,6.615c-2.244-1.98-4.484-3.984-6.78-5.97L357.829,277.719z M333.975,258.482
	c2.25-0.497,6.28-1.573,7.725,0.886c1.12,1.907,0.337,4.434,0.051,6.741c-2.724-2.228-5.293-4.641-7.999-6.911
	c-0.192-0.162-0.391-0.307-0.586-0.46C333.442,258.633,333.715,258.539,333.975,258.482z M302.585,245.116
	c2.293,0.827,3.707,2.542,4.213,4.995c0.051,0.241,0.078,0.46,0.105,0.678c-3.399-0.579-6.799-1.25-10.054-2.284
	c-1.478-0.469-2.956-0.962-4.443-1.438C295.449,244.992,299.14,243.873,302.585,245.116z M276.39,241.085
	c3.163-1.626,5.549,1.306,7.033,3.7c-3.43-0.532-6.893-0.804-10.363-1.028C274.134,242.781,275.142,241.727,276.39,241.085z
	 M239.325,235.28c3.078-1.963,5.927-1.401,8.709,0.869c1.828,1.491,2.494,3.032,2.842,4.72c-3.473-0.935-6.908-2.006-10.425-2.765
	c-1.255-0.27-2.545-0.675-3.829-0.917C237.511,236.53,238.398,235.872,239.325,235.28z M219.852,232.621
	c0.351,0.334,0.664,0.769,0.962,1.25c-2.73-0.276-5.482-0.353-8.26-0.132c-0.541,0.042-1.088,0.088-1.639,0.133
	C213.722,231.598,216.665,229.579,219.852,232.621z M187.048,221.677c0.964-0.464,2.441-1.23,3.523-0.778
	c0.771,0.322,1.645,1.813,2.181,2.454c1.526,1.827,2.5,4.069,2.479,6.502c-0.004,0.439-0.055,0.857-0.118,1.265
	c-0.156-0.121-0.315-0.232-0.468-0.363c-1.688-1.437-2.867-3.313-4.525-4.783c-1.389-1.231-2.918-2.338-4.424-3.456
	C186.161,222.206,186.612,221.887,187.048,221.677z M165.618,199.27c1.229-0.08,2.869-0.167,3.566,1.096
	c0.59,1.07,0.643,3.088,0.588,4.674c-1.533-1.979-3.11-3.919-4.798-5.754C165.22,199.284,165.445,199.282,165.618,199.27z
	 M155.144,184.401c-0.068,1.114-0.449,2.443-0.748,3.784c-1.648-2.229-3.096-4.623-4.326-7.294
	c-0.051-0.111-0.098-0.226-0.148-0.338C152.587,180.541,155.334,181.265,155.144,184.401z M104.929,466.83
	c-2.066-0.274-4.24-0.633-4.492-0.949c-0.619-0.778,3.743-7.56,4.563-8.98c0.518-0.899,1.045-1.769,1.572-2.622
	c0.809,0.556,1.748,0.853,2.493,1.557c0.437,0.413,0.802,0.857,1.163,1.304c-1.271,0.941-2.287,2.291-3.078,3.631
	C106.249,462.301,104.692,464.859,104.929,466.83z M108.687,467.261c-0.143-0.013-0.43-0.041-0.795-0.08
	c0.309-1.213,1.465-2.673,2.089-3.696c1.319-2.163,2.788-4.296,5.479-3.085c1.891,0.85,3.187,1.939,3.498,3.956
	c0.146,0.954,0.291,1.75,0.672,2.468C115.98,467.091,112.116,467.561,108.687,467.261z M155.933,416.764
	c-1.743,3.227-4.441,5.786-6.676,8.646c-4.548,5.82-7.27,12.056-9.963,18.854c-1.383,3.489-2.15,7.276-2.914,10.944
	c-0.539,2.586-0.213,8.441-2.072,9.981c-1.771,1.467-7.631,1.439-10.824,1.466c-0.066-2.384-0.871-5.633-2.738-7.19
	c-2.016-1.682-4.684-3.765-7.448-3.544c-0.095,0.008-0.181,0.037-0.274,0.048c-0.119-0.804-0.523-1.593-1.031-2.257
	c-0.553-0.724-1.155-1.473-1.941-1.958c-0.496-0.306-1.018-0.424-1.543-0.552c2.816-4.442,5.443-8.706,6.813-14.271
	c2.197-8.925,4.182-16.425,8.975-24.365c0.61-1.013,1.236-2.034,1.822-3.078c1.123,1.374,2.797,2.53,3.957,3.21
	c3.561,2.089,6.698,2.294,10.566,1.034c1.384-0.451,1.127-2.463-0.342-2.528c-2.725-0.12-5.178,0.151-7.81-0.821
	c-1.882-0.695-3.677-1.734-5.312-2.943c0.431-0.914,0.809-1.849,1.091-2.818c0.042-0.147,0.069-0.296,0.106-0.443
	c3.921,1.729,7.992,3.44,12.309,3.068c1.02-0.088,1.27-1.476,0.244-1.81c-4.017-1.307-8.191-1.708-12.203-2.976
	c0.447-2.885,0.362-5.834,1.398-8.642c3.105-8.413,7.363-16.348,10.26-24.887c1.369-4.038,3.327-8.821,4.168-13.53
	c0.924,2.81,1.937,5.622,3.07,8.502c1.287,3.271,2.581,6.459,4.123,9.613c1.882,3.848,2.229,6.835,1.932,11.15
	c-0.549,7.957,2.233,14.795,5.181,22.06C158.21,410.111,157.524,413.819,155.933,416.764z M155.281,482.426
	c-1.257-0.063-2.486-0.244-3.641-0.675c-3.7-1.382-2.429-2.849-0.64-6.042c0.504-0.901,1.02-1.794,1.53-2.691
	c0.84,0.156,1.732,0.722,2.343,1.102c0.764,0.475,1.526,0.974,2.143,1.631c0.271,0.29,0.492,0.542,0.746,0.754
	C156.251,478.325,155.204,480.474,155.281,482.426z M163.564,481.97c-1.631,0.063-3.375,0.279-5.127,0.403
	c0.234-0.498,0.474-0.996,0.77-1.466c1.102-1.747,3.17-4.416,5.182-5.209c4.485-1.767,6.365,2.764,8.229,6.094
	C169.605,481.83,166.566,481.853,163.564,481.97z M262.111,486.19c-0.177-0.263,3.431-6.288,5.617-9.985
	c0.651,0.443,1.258,0.994,1.93,1.375c1.136,0.645,2.409,1.045,3.591,1.608c-0.572,0.731-1.08,1.482-1.512,2.125
	c-0.934,1.387-2.953,4.22-2.93,6.373C266.316,487.566,262.841,487.281,262.111,486.19z M280.294,487.458
	c-3.105,0.449-6.174,0.548-9.299,0.328c-0.01-0.001-0.024-0.001-0.034-0.002c2.579-2.894,6.757-9.276,8.624-8.107
	c1.224,0.765,1.104,3.868,1.264,5.102c0.117,0.901,0.237,1.769,0.548,2.532C281.028,487.359,280.655,487.406,280.294,487.458z
	 M330.264,483.523c-2.469,0.003-9.253,0.613-9.731-2.417c-0.367-2.313,6.836-7.306,8.852-9.259c0.633,0.803,1.359,1.546,1.797,2.589
	c0.762,1.82,1.221,3.707,1.588,5.64c0.129,0.674,0.336,2.119,0.775,3.364C332.452,483.488,331.358,483.522,330.264,483.523z
	 M346.952,433.332c2.265,7.784,6.365,14.878,9.372,22.378c2.944,7.341,7.487,24.663-4.505,25.917
	c-4.709,0.493-9.425,1.148-14.156,1.545c-0.395-4.598-2.455-10.995-6.998-12.724c4.142-4.829,5.305-9.395,2.983-15.706
	c-1.54-4.19-2.971-8.573-4.782-12.742c0.885-0.206,1.773-0.391,2.668-0.563c1.381-0.267,2.655-0.723,4.006-1.082
	c0.994-0.265,0.806-1.833-0.244-1.81c-1.43,0.032-2.682,0.433-4.057,0.771c-1.08,0.265-2.156,0.521-3.224,0.819
	c-0.458-0.968-0.933-1.925-1.45-2.856c1.162-0.223,2.316-0.485,3.461-0.817c2.04-0.591,4.355-0.978,5.854-2.577
	c0.667-0.711-0.167-1.687-1.002-1.298c-1.783,0.831-3.975,1.168-5.842,1.884c-1.153,0.441-2.307,0.807-3.475,1.11
	c-0.307-0.495-0.604-0.996-0.936-1.474c-2.859-4.14-5.939-9.779-10.035-13.376c8.76-2.844,16.262-7.168,25.527-8.607
	c0.217-0.033,0.43-0.063,0.646-0.096c1.481,1.551,2.743,7.374,3.089,8.6C345.04,424.826,345.733,429.145,346.952,433.332z
	 M497.903,426.438c-1.293,11.398-3.473,21.772-9.357,31.773c-6.029,10.247-13.982,15.799-24.158,21.389
	c-8.982,4.935-17.095,11.092-27.362,12.787c-11.448,1.889-21.644,8.021-33.152,10.051c-5.692,1.004-11.395,1.936-16.999,3.373
	c-2.944,0.754-5.83,1.306-8.842,1.772c-1.371,0.212-3.096,0.738-4.702,0.889c2.576-1.949,8.433-4.197,9.659-4.83
	c4.633-2.39,9.195-4.913,13.844-7.275c8.77-4.455,16.826-9.96,24.798-15.696c6.995-5.034,13.233-10.829,20.37-15.71
	c7.306-4.998,15.092-8.941,20.79-15.919c5.046-6.178,9.899-14.448,11.069-22.432c0.852-5.809-1.359-9.757-4.926-13.187
	c-2.607-4.992-6.683-9.019-11.376-12.583c-6.487-4.927-13.245-9.437-21.147-11.619c-0.693-0.191-0.977,0.858-0.297,1.071
	c7.145,2.244,13.809,8.045,19.557,12.693c1.561,1.262,3.006,2.588,4.358,3.978c-5.866-3.116-12.292-4.588-18.94-5.923
	c-4.412-0.887-8.853-1.741-13.158-3.063c-4.489-1.378-8.297-3.917-12.603-5.623c-8.765-3.473-18.963,1.816-27.317,4.291
	c-5.223,1.546-10.553,2.983-15.922,3.928c-1.716,0.302-3.461,0.297-5.205,0.231c0.719,0.027,2.193-1.042,2.885-1.339
	c1.156-0.498,2.325-0.958,3.498-1.41c2.259-0.867,4.537-1.68,6.775-2.597c2.211-0.905,4.417-1.892,6.455-3.147
	c3.155-1.945,5.599-2.945,9.298-3.597c8.583-1.514,17.207-1.612,25.823-2.693c1.639-0.206,1.633-2.333,0-2.547
	c-13.705-1.798-28.145,0.553-40.995,5.752c-5.146,1.452-10.327,2.937-15.073,5.246c-8.17,3.977-13.77,9.986-23.129,11.421
	c-7.352,1.128-13.77,3.14-20.504,6.203c-3.369,1.532-6.758,3.602-10.245,4.82c-3.114,1.088-5.648,0.865-8.28,0.108
	c0.459-1.269,1.302-2.512,2.776-3.8c3.046-2.658,6.953-4.481,10.563-6.199c6.361-3.025,13.003-5.526,19.154-8.979
	c12.502-7.019,22.576-19.079,28.758-31.855c0.782-1.616-1.575-3.04-2.433-1.423c-6.067,11.448-14.733,21.47-25.862,28.283
	c-10.01,6.127-21.876,8.755-31.646,15.247c-3.152,2.095-5.96,4.529-7.223,8.222c-0.728,2.128-0.717,4.076-0.516,6.267
	c0.304,3.307,0.264,6.018-0.188,9.309c-1.681,12.246,0.466,24.691,2.139,36.798c0.538,3.893,3.71,14.708-1.479,16.026
	c-3.776,0.958-8.039,1.436-12.158,1.915c-0.069-2.048-0.87-4.485-1.531-6.207c-0.826-2.149-2.605-4.229-5.031-4.593
	c-1.051-0.157-2.012,0.144-2.886,0.688c-1.362-1.28-3.027-1.504-4.935-2.069c-0.598-0.177-1.24-0.464-1.885-0.635
	c0.114-0.203,0.211-0.376,0.268-0.485c2.256-4.37,3.521-7.312,2.305-12.19c-1.119-4.495-1.598-8.211-1.533-12.175
	c3.175,1.912,6.619,3.453,10.377,2.727c0.854-0.165,0.853-1.557,0-1.725c-1.93-0.378-3.868-0.247-5.799-0.59
	c-1.623-0.29-3.085-0.888-4.529-1.62c0.043-1.001,0.115-2.022,0.219-3.08c0.588,0.236,1.169,0.442,1.709,0.602
	c2.348,0.695,4.883,0.806,7.283,0.391c0.988-0.171,1.005-1.855,0-2.012c-2.018-0.315-4.072-0.211-6.082-0.547
	c-0.778-0.13-1.723-0.325-2.66-0.584c0.047-0.349,0.09-0.693,0.142-1.052c0.103-0.703,0.188-1.407,0.263-2.111
	c3.824,1.276,8.018,1.253,11.937,0.225c1.617-0.425,1.349-3.206-0.407-3.007c-3.803,0.43-7.581,0.916-11.319,0.068
	c0.21-3.77,0.06-7.551-0.355-11.318c-0.38-3.449-1.274-6.937-1.007-10.416c0.08-1.037,0.294-2.027,0.574-2.997
	c3.908,3.161,8.77,4.564,13.974,3.092c1.321-0.375,1.062-2.384-0.324-2.396c-4.665-0.041-9.093-0.495-12.848-3.01
	c0.4-1.009,0.839-2.014,1.27-3.028c0.493,0.363,1.094,0.613,1.579,0.688c0.127,0.019,0.252,0.02,0.374,0.008
	c4.841,1.639,10.169,4.639,15.093,2.336c1.012-0.473,0.229-1.799-0.699-1.659c-4.535,0.685-9.314-0.953-13.691-2.272
	c-0.031-0.036-0.05-0.082-0.087-0.111c-0.478-0.379-1.157-0.683-1.844-0.805c1.848-5.257,1.265-10.399,1.473-16.003
	c0.265-7.132,0.935-14.4,2.208-21.423c1.233-6.81,2.928-13.613,4.938-20.234c1.262-4.159,2.783-8.199,4.621-12.142
	c0.498-1.067,1.048-2.377,1.684-3.696c0.309-0.284,0.615-0.608,0.975-0.976c1.988-2.043,3.863-4.038,6.115-5.815
	c4.312-3.401,9.238-5.527,13.803-8.507c1.477-0.963,0.2-3.079-1.367-2.339c-6.068,2.863-12.306,6.153-16.913,11.009
	c-3.031,1.627-4.514,4.966-6.232,7.999c-3.489,6.156-5.88,12.784-7.972,19.523c-4.094,13.191-6.736,26.812-7.428,40.624
	c-0.189,3.809-0.125,7.146-1.729,10.722c-0.987,2.199-2.192,4.408-2.931,6.706c-0.341,1.058-0.551,2.136-0.677,3.226
	c-0.274-0.074-0.573-0.112-0.909-0.077c-5.653,0.583-10.508-3.493-16.069-4.256c-7.84-1.077-17.272-0.35-23.888-5.443
	c-4.448-3.426-7.698-8.169-12.377-11.385c-2.333-1.603-4.892-2.879-7.555-3.837c-1.201-0.433-2.768-0.511-4.176-0.738
	c-1.425-6.954-0.76-13.867-3.269-20.691c-1.46-3.97-3.399-8.035-3.474-12.361c-0.013-0.801,0.077-1.599,0.208-2.395
	c2.849,4.14,5.222,8.446,8.874,12.092c4.184,4.175,9.143,6.229,14.473,8.551c1.416,0.617,2.678-1.363,1.244-2.129
	c-5.034-2.693-10.192-4.894-14.473-8.77c-3.67-3.323-6.818-6.921-9.947-10.689c1.625-7.307,5.92-13.581,7.924-20.798
	c1.976-7.111,2.684-14.514,2.422-21.879c-0.02-0.539-0.832-0.542-0.841,0c-0.097,5.964-1.28,11.441-2.813,16.85
	c0.181-2.992,0.112-6.025-0.3-9.142c-0.246-1.851-3.188-1.891-2.955,0c0.997,8.036-0.198,15.509-2.844,23.125
	c-2.01,5.785-4.985,11.172-4.412,17.433c0.516,5.656,3.646,10.515,4.543,16.035c0.551,3.382-0.625,7.483-0.377,10.95
	c0.27,3.784,1.427,7.185,2.336,10.847c1.705,6.874,3.557,13.598,5.553,20.398c2.529,8.615,1.306,15.781-2.475,23.754
	c-2.738,5.774-5.658,11.159-7.797,17.209c-2.181,6.165-3.424,12.358-6.293,18.29c-0.636,1.311-1.891,5.977-2.847,6.82
	c-0.954,0.841-2.768,0.822-4.521,0.667c0-0.096-0.003-0.194-0.017-0.294c-0.314-2.313-3.173-4.247-4.772-5.842
	c-2.195-2.187-4.219-3.982-7.615-3.647c-1.457,0.144-3.18,1.063-4.732,2.384c-0.475-1.868-2.057-3.393-3.629-4.462
	c-0.399-0.273-0.882-0.532-1.398-0.746c0.43-0.752,0.855-1.506,1.285-2.259c3.324-5.83,7.51-11.486,10.096-17.678
	c2.07-4.957,2.254-9.969,1.753-15.281c-0.024-0.262-0.046-0.522-0.069-0.783c1.15,0.363,2.408,0.48,3.639,0.631
	c2.834,0.346,5.619,0.41,8.334-0.581c1.387-0.506,1.32-2.901-0.375-2.768c-1.921,0.151-3.825,0.389-5.756,0.373
	c-1.527-0.014-4.586,0.153-6.105-0.635c-0.123-1.431-0.238-2.859-0.355-4.289c4.613,0.623,8.883,1.009,13.259-1.78
	c1.431-0.912,0.188-2.947-1.313-2.246c-4.154,1.938-7.93,2.099-12.119,1.903c-0.27-3.308-0.541-6.616-0.852-9.926
	c-0.587-6.25-2.821-12.384-4.695-18.351c-0.036-0.114-0.064-0.223-0.098-0.336c2.098,1.099,4.211,1.941,6.789,2.293
	c3.373,0.46,6.463-0.334,9.693-1.234c1.539-0.429,1.219-2.74-0.374-2.768c-2.789-0.048-5.444,0.81-8.218,0.773
	c-3.336-0.044-5.926-0.913-8.699-2.381c-0.242-1.341-0.362-2.667-0.393-4.04c2.193,0.576,4.369,1.222,6.615,1.55
	c2.133,0.311,3.817,0.133,5.914-0.208c1.041-0.169,0.662-1.609-0.23-1.703c-1.912-0.202-3.854-0.08-5.779-0.24
	c-2.219-0.184-4.347-0.623-6.513-1.08c0.019-0.567,0.048-1.143,0.097-1.743c0.303-3.712,0.346-7.07-1.076-10.588
	c-2.742-6.788-6.391-13.323-9.307-20.066c-3.305-7.64-5.057-16.678-7.021-24.777c-4.238-17.473,0.636-35,10.871-49.544
	c0.693-0.986-0.896-2.226-1.682-1.297c-9.141,10.82-15.421,24.452-15.387,38.74c0.001,0.076,0.007,0.149,0.008,0.225
	c-0.234-0.605-0.471-1.212-0.705-1.818c0.015-0.189-0.002-0.39-0.063-0.604c-2.289-7.926-4.539-16.006-7.166-23.83
	c-0.623-1.854-1.382-3.63-2.212-5.366c-2.458-8.168-5.747-15.985-7.328-24.522c-2.198-11.861-4.542-23.95-5.015-36.02
	c-0.016-0.383-0.587-0.385-0.597,0c-0.384,15.45,0.929,30.892,4.897,45.658c-3.838-6.982-9.271-13.681-10.94-21.465
	c-1.788-8.334-2.023-17.058-3.577-25.468c-1.665-9.011-2.574-17.444-2.834-26.597c-0.223-7.862-1.513-15.654-1.785-23.517
	c-0.218-6.317,0.662-13.659-1.42-19.645c-1.057-3.038-1.365-6.276-1.873-9.449c-0.535-3.347-1.676-7.093-1.676-10.477
	c-0.556-3.471-0.914-7.047-1.677-10.477c-0.6-2.697-1.722-5.326-2.491-8.021c-1.26-4.411-1.715-9.001-2.848-13.441
	c-1.199-4.697-3.736-8.271-5.445-12.703c-1.916-4.969-0.668-10.252-1.037-15.397c-0.421-5.851-2.23-16.886-8.073-19.991
	c-0.294-0.157-0.546,0.149-0.427,0.426c0.928,2.142,3.642,7.312,2.359,9.638c-1.886-1.174-3.529-2.29-5.037-3.992
	c-1.686-1.905-2.309-4.161-3.404-6.387c-0.595-1.21-1.436-2.259-2.533-3.047c-0.269-0.192-1.24-0.537-1.332-0.847
	c-0.418-1.429,1.809-1.051,2.492-1.11c1.373-0.118,2.78-0.604,4.045-1.126c2.605-1.076,4.943-2.721,7.125-4.484
	c0.923-0.746-0.324-2.388-1.281-1.66c-2.896,2.203-5.769,4.25-8.967,5.431c2.541-1.695,4.759-3.882,6.5-6.717
	c0.487-0.792-0.541-1.972-1.353-1.353c-6.552,4.996-12.577,7.285-20.602,8.809c-3.214,0.61-6.13,1.581-8.979,2.702
	c-1.367,0.273-2.728,0.572-4.067,0.959c-2.124,0.615-8.914,5.827-9.976,1.945c-0.779-2.852,6.297-5.23,8.249-6.378
	c2.313-1.359,5.666-3.507,6.197-6.421c0.437-2.389-1.868-2.149-3.712-2.38c-2.317-0.291-4.654-0.341-6.979-0.094
	c-2.648,0.281-9.506,3.507-11.383,2.348c-1.816-1.122-3.152-5.366-4.688-7.224c-1.983-2.398-4.258-3.631-2.993-7.441
	c3.754-3.528,10.188-4.764,14.558-7.009c5.208-2.675,9.827-6.633,15.487-8.395c5.612-1.747,10.441-5.531,16.413-6.142
	c5.597-0.572,10.714,0.862,15.834,2.56c1.19,0.919,2.478,1.763,4.071,2.419c7.24,2.984,12.103,6.484,17.626,12.005
	c6.017,6.013,11.773,10.942,14.671,19.241c2.646,7.58,4.633,15.513,6.565,23.3c0.101,0.406,0.309,0.677,0.556,0.872
	c2.083,15.496,3.394,31.149,5.47,46.664c1.563,11.68,4.823,22.918,8.728,34.012c1.811,5.149,4.1,10.035,6.066,15.117
	c1.836,4.739,3.274,9.617,5.289,14.277c2.056,8.29,6.422,16.522,11.91,22.333c4.617,4.889,9.219,9.243,13.147,14.79
	c3.726,5.26,6.692,10.116,11.751,14.232c8.371,6.811,13.936,14.696,25.714,14.638c6.772-0.033,13.118-1.605,19.896-0.269
	c4.804,0.947,9.373,1.754,14.184,2.013c1.484,0.546,2.982,1.067,4.456,1.635c2.804,1.082,5.606,2.139,8.479,2.987
	c0.195,0.094,0.4,0.154,0.607,0.174c0.901,0.255,1.809,0.496,2.729,0.7c8.828,1.96,18.028,1.36,26.884,3.171
	c8.558,1.75,16.452,5.175,25.192,6.474c9.771,1.452,17.809,2.134,25.715,8.54c6.604,5.351,14.167,9.481,20.228,15.435
	c5.679,5.577,11.11,11.337,17.63,15.957c7.721,5.472,15.195,10.988,22.412,17.132c4.816,4.099,8.881,8.545,12.755,13.295
	c2.755,6.277,8.694,10.54,14.298,14.563c3.875,2.783,8.408,4.794,12.639,6.986c4.866,2.522,9.787,5.459,14.783,7.666
	c8.634,3.812,16.521,8.457,24.029,14.243c7.802,6.013,15.709,13.11,20.383,21.92C498.382,403.416,499.155,415.393,497.903,426.438z"
	/>
<path d="M284.88,474.265c-0.551-1.258-2.006-2.069-3.232-2.489c-1.783-0.61-3.506-0.126-5.314,0.036
	c-1.017,0.091-1.039,1.54,0,1.599c1.906,0.108,3.559,0.329,5.166,1.437c1.058,0.728,3.795,3.083,3.6,0.303
	C285.075,474.833,284.999,474.538,284.88,474.265z"/>
<path d="M276.546,466.83c-0.992-0.327-1.365,1.176-0.426,1.542c2.549,0.99,5.41,1.601,7.415,3.589
	c1.154,1.144,2.964-0.67,1.782-1.782C282.861,467.868,279.598,467.834,276.546,466.83z"/>
<path d="M182.302,416.587c-3.6,0.394-7.166,0.841-10.789,0.974c-1.412,0.052-1.415,2.146,0,2.195
	c3.757,0.13,7.469,0.367,11.136-0.614C184.019,418.775,183.798,416.423,182.302,416.587z"/>
<path d="M434.202,376.894c-17.364-3.358-34.342-1.352-51.589,1.77c-0.399,0.072-0.223,0.657,0.166,0.601
	c16.957-2.44,33.94-2.832,50.919-0.542C434.872,378.881,435.426,377.131,434.202,376.894z"/>
<path d="M453.023,385.712c-0.786-0.67-1.922,0.424-1.148,1.149c3.951,3.708,7.98,7.378,11.287,11.693
	c3.516,4.589,6.051,9.796,8.765,14.876c0.577,1.081,2.414,0.343,2.005-0.846C470.017,401.185,461.983,393.345,453.023,385.712z"/>
<path d="M480.376,434.844c-0.127,1.125,1.609,1.273,1.916,0.26c2.19-7.263,2.803-15.261,1.578-22.768
	c-1.125-6.906-4.867-12.988-8.17-19.028c-0.369-0.675-1.381-0.078-1.029,0.602c3.554,6.869,6.572,13.67,6.91,21.508
	C481.859,421.915,481.104,428.401,480.376,434.844z"/>
<path d="M457.187,458.77c-8.148,6.124-16.473,12.009-24.254,18.603c-0.767,0.65,0.252,1.991,1.084,1.405
	c8.242-5.808,16.4-11.732,24.483-17.762C459.828,460.025,458.525,457.765,457.187,458.77z"/>
<path d="M412.157,359.743c3.04,1.221,9.938,3.059,11.453-1.303c0.557-1.6-0.021-3.845-0.715-5.306
	c-1.424-3.004-7.313-7.307-10.768-5.913c-2.129,0.859-3.316,3.002-4.414,4.876C405.328,356.169,408.645,358.332,412.157,359.743z
	 M410.739,353.43c2.934-8.093,11.85,0.352,9.516,3.098c-1.032,1.214-5.168,0.231-6.301-0.073c-0.83-0.224-2.178-0.489-2.876-1.038
	C410.163,354.699,410.334,354.545,410.739,353.43z"/>
<path d="M383.399,326.986c0.936,0.281,1.73,0.662,2.646,1.02c2.62,1.024,9.839,1.74,8.771-3.074c-0.428-1.934-2.14-3.595-3.01-5.369
	c-0.787-1.604-2.049-3.892-3.682-4.789c-3.285-1.806-4.799,3.329-5.605,6.174c-0.008,0.011-0.018,0.019-0.025,0.03
	c-0.842,1.35-1.938,3.052-1.041,4.667C381.873,326.398,382.619,326.751,383.399,326.986z M385.31,319.336
	c0.604-1.211,1.18-2.659,2.3-1.141c1.481,2.007,2.547,4.269,3.937,6.335c0.771,1.145,0.506,0.817-0.691,0.708
	c-1.633-0.148-2.872-0.507-4.299-1.3c-1.082-0.601-1.955-0.415-2.102-1.874C384.362,321.156,384.943,320.071,385.31,319.336z"/>
<path d="M451.574,363.706c-0.094-0.135-0.216-0.242-0.347-0.333c-0.463-0.842-1.254-1.449-2.15-1.776
	c-2.156-0.787-4.182,0.34-5.867,1.63c-1.416,1.083-3.113,2.337-3.43,4.216c-0.313,1.857,1.361,3.581,2.514,4.845
	c2.581,2.831,7.747,4.911,11.326,2.787C458.523,372.166,453.663,366.692,451.574,363.706z M451.857,372.057
	c-0.334,0.391-1.254,0.411-1.693,0.415c-1.363,0.011-2.797-0.555-3.943-1.256c-1.015-0.621-2.07-1.504-2.645-2.57
	c-0.762-1.415,0.367-2.036,1.457-2.926c0.965-0.788,3.012-2.322,4.075-0.875c0.362,0.492,0.413,1.84,0.784,2.501
	c0.517,0.922,1.219,1.728,1.683,2.683C451.917,370.736,452.502,371.298,451.857,372.057z"/>
<path d="M478.534,388.859c1-1.522,0.758-3.144-0.059-4.564c-0.914-1.591-2.549-2.929-3.971-3.592
	c-2.654-1.236-6.195-1.48-7.783,1.477c-1.513,2.815,1.959,6.214,4.329,7.235C473.195,390.339,476.975,391.236,478.534,388.859z
	 M473.776,387.307c-1.879-0.203-3.25-0.981-4.463-2.441c-1.432-1.724,0.1-2.958,1.871-3.194c2.795-0.373,3.498,1.102,4.131,3.529
	c0.126,0.486,0.758,1.603,0.42,1.994C475.421,387.558,474.177,387.351,473.776,387.307z"/>
<path d="M483.542,438.986c-3.285,1.055-4.894,4.679-5.889,7.694c-0.78,2.369-2.588,7.332,1.564,7.452
	c1.807,0.052,3.627-1.302,4.951-2.365c1.589-1.277,4.252-2.975,4.802-5.079C489.769,443.634,487.677,437.659,483.542,438.986z
	 M486.624,445.763c-0.396,0.905-1.684,1.5-2.424,2.102c-1.041,0.847-2.033,1.741-3.191,2.43c-0.27,0.16-0.667,0.445-0.979,0.525
	c-0.241,0.062-0.472,0.199-0.7,0.289c-0.64-2.039,1.108-5.992,2.255-7.718c0.732-1.101,2.081-2.961,3.646-2.364
	C486.714,441.591,487.221,444.4,486.624,445.763z"/>
<path d="M466.557,461.971c-3.354-1.101-8.542,0.894-10.504,3.656c-1.851,2.606-3.401,6.943,0.171,8.735
	c3.689,1.852,8.178,0.067,10.861-2.771c1.637-1.732,2.62-6.134,1.079-8.406C467.788,462.63,467.261,462.202,466.557,461.971z
	 M464.265,468.77c-1.327,1.301-3.807,2.996-5.695,2.964c-3.035-0.051-1.4-3.731-0.403-5.249c0.847-1.288,2.351-1.936,3.834-2.128
	c0.375-0.048,4.34,0.029,4.341,0.047C466.413,465.935,465.17,467.881,464.265,468.77z"/>
<path d="M345.086,321.464c2.767-3.869,0.705-7.442-2.636-9.178c-2.68-1.392-6.181-1.602-8.678,0.165
	c-3.729,2.639-2.123,6.367,1.262,8.493C337.786,322.67,342.668,324.846,345.086,321.464z M337.21,318.782
	c-0.928-0.387-2.135-0.954-2.664-1.856c-0.799-1.359,0.446-2.336,1.633-2.933c1.881-0.945,3.899-0.484,5.79,0.172
	c0.169,0.229,0.353,0.45,0.548,0.723c0.785,1.091,0.916,2.38,0.446,3.669C342.101,320.923,338.972,319.516,337.21,318.782z"/>
<path d="M229.414,312.938c-1.597-0.802-3.791-1.135-5.452-0.334c-1.133,0.546-1.771,1.477-2.27,2.516
	c-1.088,1.715-2.793,2.883-3.234,4.986c-0.326,1.563-0.156,3.157,1.459,3.795c3.695,1.462,9.039,1.232,12.176-1.438
	c1.625-1.384,1.551-2.841,0.811-4.699C232.126,315.811,231.398,313.934,229.414,312.938z M227.817,321.553
	c-1.369,0.423-2.771,0.709-4.205,0.474c-0.502-0.082-1.17-0.227-1.648-0.427c-0.875-0.365-0.916-0.078-0.865-1.132
	c0.152-3.18,5.02-7.65,7.846-4.682c0.644,0.677,1.247,2.092,1.438,2.999C230.801,320.773,229.407,321.062,227.817,321.553z"/>
<path d="M181.372,303.656c1.094-3.262-1.398-5.722-4.479-6.605c-2.959-0.848-6.457-0.242-7.841,2.504
	c-0.769,1.524-1.306,3.929-0.757,5.59c0.592,1.794,2.201,2.575,3.814,3.249C176.374,310.172,179.951,307.894,181.372,303.656z
	 M178.642,303.39c-1.272,2.208-3.032,3.233-5.526,2.325c-0.919-0.334-1.714-0.572-2.093-1.522c-0.368-0.923-0.084-2.217,0.26-3.159
	C172.744,297.023,180.79,299.66,178.642,303.39z"/>
<path d="M120.847,143.441c-0.686,2.136-0.133,5.085,1.52,6.663c0.811,0.774,1.85,1.174,2.948,0.843
	c1.229-0.371,1.739-1.376,2.271-2.449c1.108-2.242,1.014-5.107-0.456-7.239C125.37,138.707,121.563,141.211,120.847,143.441z
	 M124.5,142.955c1.743,0.289,1.481,3.364,0.887,4.483c-0.921,1.731-2.063,0.119-2.486-0.987
	C122.464,145.308,122.612,142.643,124.5,142.955z"/>
<path d="M99.337,46.759c2.781,1.096,5.814-1.555,6.069-4.315c0.222-2.412-2.269-6.805-4.951-6.932
	C94.291,35.219,94.501,44.853,99.337,46.759z M97.587,39.93c0.531-0.961,1.452-2.073,2.297-2.072
	c1.161,0.001,2.861,2.938,2.918,3.984c0.076,1.435-1.346,3.103-2.808,2.968C97.248,44.555,97.302,42.081,97.587,39.93z"/>
<path d="M104.286,60.63c-1.534,2.436-1.398,5.755,0.268,8.021c1.771,2.411,5.615,1.961,7.477-0.128
	c2.341-2.628,1.201-5.887-0.703-8.374C109.313,57.517,105.92,58.035,104.286,60.63z M109.727,62.132
	c0.874,1.551,1.476,3.856-0.36,5.063c-0.516,0.339-1.414,0.585-2.042,0.531c-1.157-0.1-1.904-1.359-2.2-2.438
	C104.419,62.731,108.003,59.073,109.727,62.132z"/>
<path d="M108.744,96.984c2.6,2.091,5.145,0.724,6.264-2.062c1.212-3.017,0.696-6.8-1.659-9.147
	c-1.005-1.002-2.488-1.628-3.869-1.014C105.383,86.581,105.622,94.473,108.744,96.984z M108.794,90.927
	c0.598-2.222,2.406-4.231,3.491-1.034c0.479,1.413,0.394,2.971-0.187,4.34c-0.655,1.546-1.984,0.909-2.843-0.063
	C108.357,93.152,108.449,92.211,108.794,90.927z"/>
<path d="M122.777,117.496c-0.743-1.216-1.8-2.275-3.231-2.604c-7.892-1.819-6.362,16.4,1.86,11.4
	C124.694,124.292,124.566,120.426,122.777,117.496z M119.875,124.198c-1.577,1.064-2.919-0.026-3.584-1.536
	c-1.236-2.808,1.946-7.391,4.079-3.759C121.341,120.559,121.746,122.935,119.875,124.198z"/>
<path d="M114.698,111.499c2.375-1.796,2.275-5.571,0.384-7.678c-0.86-0.958-2.237-1.823-3.558-1.401
	c-2.631,0.842-4.206,5.977-2.865,8.266C109.884,112.777,112.911,112.851,114.698,111.499z M113.807,105.772
	c0.905,1.344,0.889,3.557-0.642,4.445C107.323,113.608,110.813,101.328,113.807,105.772z"/>
<g>
</g>
<g>
</g>
<g>
</g>
<g>
</g>
<g>
</g>
<g>
</g>
<g>
</g>
<g>
</g>
<g>
</g>
<g>
</g>
<g>
</g>
<g>
</g>
<g>
</g>
<g>
</g>
<g>
</g>
</svg>
