<?xml version="1.0" encoding="iso-8859-1"?>
<!-- Generator: Adobe Illustrator 19.0.0, SVG Export Plug-In . SVG Version: 6.00 Build 0)  -->
<svg version="1.1" id="Layer_1" xmlns="http://www.w3.org/2000/svg" xmlns:xlink="http://www.w3.org/1999/xlink" x="0px" y="0px"
	 viewBox="0 0 512.001 512.001" style="enable-background:new 0 0 512.001 512.001;" xml:space="preserve">
<path style="fill:#869CD6;" d="M504.396,236.028v1.237l-15.117,2.727l-58.277,10.524c0,51.22-31.034,94.908-70.727,109.102
	l-63.701,17.104c-0.193,0.061-0.375,0.122-0.568,0.172c-41.984,12.207-83.958,11.639-122.363,0.983l-58.855-1.136
	C51.352,337.365,7.604,267.104,7.604,184.282V56.292c20.409,158.162,76.678,197.693,76.678,197.693l28.125-28.125
	c11.406-11.406,23.907-21.048,37.158-28.936c10.331-6.144,21.119-11.223,32.21-15.228h0.01l1.146-0.416
	c16.708-5.911,34.086-9.409,51.585-10.493c0.679-0.041,1.359-0.071,2.038-0.112c3.224-0.162,6.448-0.243,9.672-0.243
	c9.186,0,18.361,0.659,27.465,1.987c2.058,0.304,4.116,0.639,6.174,1.004c14.052,2.525,27.881,6.651,41.183,12.369h0.01
	c2.707,1.166,5.394,2.393,8.05,3.69c7.584,3.69,14.965,7.918,22.102,12.694c10.179,6.793,19.851,14.691,28.844,23.684l19.578-19.578
	c11.882-11.882,29.209-16.536,45.451-12.207l34.056,9.084C494.034,207.123,504.396,220.617,504.396,236.028z"/>
<path style="fill:#BFC8E2;" d="M489.279,233.821l-58.277,10.524c0,51.22-31.034,94.908-70.727,109.102l-63.701,17.104
	c-0.193,0.061-0.375,0.122-0.568,0.172c-41.984,12.207-83.958,11.639-122.363,0.983l-58.855-1.135
	C51.352,331.192,7.604,260.932,7.604,178.109V97.609c0.72,4.704,1.399,9.885,2.028,15.553C28.895,285.518,105.949,335.197,256,328.1
	c114.314-5.407,142.717-62.596,149.762-89.53c2.105-8.046,9.754-13.369,18.042-12.671
	C440.99,227.345,468.805,230.05,489.279,233.821z"/>
<g>
	<path style="fill:#738AC7;" d="M114.792,292.079v152.839c0,9.368,7.595,16.963,16.963,16.963h68.68l0,0
		c0-13.521-10.961-24.481-24.481-24.481h-2.308v-73.608l0,0c25.494,0,46.159-20.667,46.159-46.159v-25.553
		c0-22.662-18.371-41.033-41.033-41.033h-22.947C133.164,251.047,114.792,269.418,114.792,292.079z"/>
	<path style="fill:#738AC7;" d="M360.319,334.367v108.288h1.813c10.618,0,19.227,8.608,19.227,19.227l0,0h-53.939
		c-7.358,0-13.322-5.965-13.322-13.322v-66.433l0,0c-10.512,0-19.032-8.521-19.032-19.032v-28.727
		c0-18.019,14.608-32.627,32.627-32.627l0,0C345.712,301.74,360.319,316.347,360.319,334.367z"/>
</g>
<g>
	<path style="fill:#D14E19;" d="M337.231,83.08l8.871,61.552l-22.122,9.429l4.005,22.863l1.125,6.387
		c-2.656-1.298-5.343-2.525-8.05-3.69h-0.01c-13.302-5.718-27.131-9.845-41.183-12.369c-2.058-0.365-4.116-0.7-6.174-1.004
		l4.157-4.157l26.533-26.533l-13.048-20.987L337.231,83.08z"/>
	<path style="fill:#D14E19;" d="M130.21,183.016l19.355,7.736c-10.007,5.962-19.588,12.917-28.591,20.886l-20.642-2.829
		l-4.522-48.432l35.769,13.677L130.21,183.016z"/>
	<path style="fill:#D14E19;" d="M236.554,164.503c-0.679,0.041-1.359,0.071-2.038,0.112c-17.499,1.085-34.877,4.583-51.585,10.493
		l7.097-17.732l-22.356-15.613l8.445-58.682l44.944,30.832l-13.454,21.646l27.516,27.516L236.554,164.503z"/>
</g>
<g>
	<path style="fill:#E26A3B;" d="M190.028,157.376l-7.097,17.732l-1.146,0.416h-0.01c-11.092,4.005-21.879,9.084-32.21,15.228
		l-19.355-7.736l1.369-8.963l7.918-51.971l28.175,19.679L190.028,157.376z"/>
	<path style="fill:#E26A3B;" d="M380.675,129.9l-3.417,61.531l-26.046,4.573c-7.138-4.775-14.518-9.003-22.102-12.694l-1.125-6.387
		l-4.005-22.863l22.122-9.429L380.675,129.9z"/>
	<path style="fill:#E26A3B;" d="M291.333,114.571l13.048,20.987l-26.533,26.533l-4.157,4.157c-9.104-1.328-18.28-1.987-27.465-1.987
		c-3.224,0-6.448,0.081-9.672,0.243l-1.43-1.43l-27.516-27.516l13.454-21.646L256,57.723L291.333,114.571z"/>
</g>
<path d="M481.098,189.638l-34.056-9.08c-18.805-5.015-39.031,0.421-52.789,14.18l-14.299,14.3c-3.223-2.986-6.547-5.854-9.949-8.612
	l8.568-1.505c3.481-0.611,6.082-3.539,6.277-7.068l3.417-61.531c0.146-2.624-1.074-5.137-3.225-6.647
	c-2.151-1.51-4.93-1.801-7.347-0.771l-25.476,10.856l-7.461-51.766c-0.375-2.602-2.066-4.824-4.473-5.879
	c-2.407-1.055-5.188-0.793-7.355,0.694l-39.336,26.988L262.457,53.71c-1.387-2.233-3.829-3.59-6.457-3.59l0,0
	c-2.628,0-5.069,1.358-6.457,3.589l-30.735,49.435L180.42,76.809c-2.168-1.486-4.95-1.748-7.356-0.693
	c-2.407,1.055-4.098,3.279-4.472,5.88l-6.686,46.462l-18.054-12.609c-2.154-1.506-4.934-1.79-7.349-0.755
	c-2.416,1.035-4.125,3.245-4.522,5.843l-6.5,42.644l-26.955-10.307c-2.455-0.939-5.22-0.543-7.314,1.046
	c-2.093,1.589-3.217,4.147-2.973,6.763l4.522,48.432c0.328,3.518,3.038,6.347,6.538,6.826l5.012,0.686l-20.338,20.339
	c-5.282-5.28-14.429-15.903-24.513-34.195c-9.731-17.649-17.538-37.274-23.807-57.215l22.878-29.113
	c2.595-3.302,2.022-8.083-1.281-10.677c-3.301-2.594-8.083-2.023-10.677,1.281l-16.148,20.549c-0.89-3.306-1.742-6.606-2.555-9.895
	l21.47-47.428c1.732-3.826,0.034-8.331-3.792-10.064c-3.827-1.733-8.332-0.034-10.063,3.792L22.366,93.385
	c-3.158-15.834-5.498-30.894-7.221-44.239c-0.513-3.977-4.017-6.871-8.029-6.615C3.115,42.788,0,46.11,0,50.119v127.99
	c0,80.082,39.988,153.273,107.188,196.646v26.815c0,4.199,3.405,7.604,7.604,7.604c4.199,0,7.604-3.405,7.604-7.604V294.643
	c0-4.199-3.405-7.604-7.604-7.604c-4.199,0-7.604,3.405-7.604,7.604v61.746c-57.848-41.085-91.981-106.741-91.981-178.279v-47.888
	c25.189,94.952,62.754,122.443,64.704,123.813c3.024,2.124,7.137,1.768,9.748-0.846l28.125-28.125
	c10.731-10.731,22.732-20.076,35.668-27.777c9.745-5.795,20.072-10.685,30.702-14.538c0.076-0.024,0.151-0.051,0.226-0.078
	l1.089-0.395c15.926-5.634,32.587-9.023,49.5-10.072l1.969-0.107c11.914-0.598,23.957-0.033,35.644,1.672
	c1.982,0.293,3.987,0.618,5.941,0.965c13.577,2.439,26.874,6.433,39.524,11.87c0.072,0.031,0.146,0.061,0.219,0.09
	c2.596,1.122,5.121,2.281,7.518,3.452c7.305,3.555,14.438,7.652,21.208,12.182c9.879,6.592,19.194,14.242,27.689,22.736
	c2.97,2.97,7.784,2.97,10.753,0l19.573-19.573c9.936-9.935,24.54-13.859,38.118-10.239l34.056,9.08
	c9.892,2.637,17.229,10.719,19.13,20.494l-66.656,12.035c-3.619,0.654-6.252,3.804-6.252,7.483c0,19.29-4.749,38.339-13.733,55.089
	c-1.985,3.701-0.594,8.311,3.106,10.295c3.701,1.986,8.311,0.594,10.295-3.106c9.171-17.1,14.442-36.301,15.385-55.896l67.294-12.15
	c3.619-0.654,6.252-3.804,6.252-7.483v-1.234C512,211.028,499.292,194.489,481.098,189.638z M181.903,96.269l28.867,19.803
	l-9.62,15.472c-1.866,3.001-1.417,6.892,1.081,9.39l17.504,17.504c-8.039,1.088-15.998,2.668-23.838,4.734l1.189-2.972
	c1.313-3.282,0.193-7.035-2.705-9.06l-18.516-12.932L181.903,96.269z M123.135,178.966l-0.443,2.905
	c-0.532,3.495,1.413,6.895,4.695,8.206l5.749,2.297c-5.005,3.523-9.851,7.282-14.521,11.265l-11.274-1.545l-2.825-30.248
	L123.135,178.966z M148.956,182.32l-10.319-4.124l0.435-2.856c0.009-0.051,0.015-0.101,0.023-0.152l6.076-39.866l35.554,24.833
	l-3.598,8.992C167.431,172.772,157.98,177.189,148.956,182.32z M239.586,156.781l-22.334-22.333l38.747-62.321l38.739,62.322
	l-23.76,23.76c-8.179-1.029-16.486-1.551-24.751-1.551C244.033,156.656,241.814,156.707,239.586,156.781z M289.28,161.412
	l20.478-20.478c2.499-2.499,2.947-6.39,1.081-9.391l-9.209-14.815l29.819-20.459l6.293,43.662l-16.743,7.136
	c-3.25,1.385-5.118,4.827-4.509,8.307l2.674,15.245C309.479,166.762,299.473,163.689,289.28,161.412z M335.943,178.254
	l-3.433-19.564l39.894-17.001L370,184.984L352.827,188C347.369,184.474,341.717,181.212,335.943,178.254z"/>
<path d="M406.911,318.324c-3.185-2.738-7.984-2.378-10.724,0.806c-8.244,9.585-17.874,17.29-28.264,22.687v-10.677
	c0-4.199-3.405-7.604-7.604-7.604c-4.199,0-7.604,3.405-7.604,7.604v111.514c0,4.199,3.405,7.604,7.604,7.604h1.813
	c3.504,0,6.651,1.558,8.784,4.019H327.42c-3.153,0-5.718-2.565-5.718-5.718v-66.433c0-4.199-3.405-7.604-7.604-7.604
	c-6.301,0-11.428-5.127-11.428-11.428v-10.876c0-4.199-3.405-7.604-7.604-7.604s-7.604,3.405-7.604,7.604v10.876
	c0,0.694,0.033,1.381,0.086,2.062c-31.505,8.152-64.159,9.17-95.651,3.038c20.687-7.49,35.513-27.32,35.513-50.56v-30.004
	c0-4.199-3.405-7.604-7.604-7.604c-4.199,0-7.604,3.405-7.604,7.604v30.004c0,21.26-17.296,38.556-38.555,38.556
	c-4.199,0-7.604,3.405-7.604,7.604v73.608c0,4.199,3.405,7.604,7.604,7.604h2.308c6.572,0,12.279,3.777,15.065,9.273h-59.264
	c-5.161,0-9.359-4.198-9.359-9.359v-18.003c0-4.199-3.405-7.604-7.604-7.604c-4.199,0-7.604,3.405-7.604,7.604v18.003
	c0,13.546,11.021,24.567,24.567,24.567h68.68c4.199,0,7.604-3.405,7.604-7.604c0-15.888-11.608-29.116-26.789-31.648v-48.76
	c16.955,3.917,34.27,5.881,51.633,5.881c20.176,0,40.41-2.649,60.2-7.93c3.369,4.325,8.032,7.595,13.411,9.2v59.934
	c0,11.539,9.387,20.926,20.926,20.926h53.939c4.199,0,7.604-3.405,7.604-7.604c0-12.807-9.019-23.547-21.04-26.201v-77.075
	c14.805-6.272,28.478-16.4,39.794-29.558C410.457,325.864,410.095,321.063,406.911,318.324z"/>
<path d="M433.185,217.756c1.816,2.757,5.382,4.008,8.53,3.051c2.917-0.888,5.054-3.499,5.363-6.529
	c0.309-3.023-1.318-6.018-3.987-7.446c-2.975-1.591-6.762-0.986-9.089,1.459C431.573,210.843,431.255,214.823,433.185,217.756z"/>
<g>
</g>
<g>
</g>
<g>
</g>
<g>
</g>
<g>
</g>
<g>
</g>
<g>
</g>
<g>
</g>
<g>
</g>
<g>
</g>
<g>
</g>
<g>
</g>
<g>
</g>
<g>
</g>
<g>
</g>
</svg>
