<svg width="65" height="65" xmlns="http://www.w3.org/2000/svg" xmlns:xlink="http://www.w3.org/1999/xlink" xml:space="preserve" overflow="hidden"><defs><clipPath id="clip0"><rect x="1527" y="2233" width="65" height="65"/></clipPath></defs><g clip-path="url(#clip0)" transform="translate(-1527 -2233)"><path d="M23.0508 16.8221C20.3852 16.8221 18.2242 14.6931 18.2242 12.0669L18.2242 4.52872 27.6414 4.52872 29.4552 4.52872 46.7759 4.52872 46.7759 12.0669C46.7759 14.6931 44.6149 16.8221 41.9492 16.8221L33.7397 16.8221 28.1999 16.8221ZM58.1128 59.559 58.1128 39.5228 53.3628 39.5228 53.3628 39.5229 40.1866 39.5229 40.1866 39.5228 11.6372 39.5228 6.88717 39.5228 6.88717 59.559 6.16374 59.0785C5.2903 58.218 4.75005 57.0292 4.75005 55.7161L4.75005 51.1721 4.75005 14.7909 4.75005 10.2469C4.75005 7.62071 6.91104 5.49177 9.5767 5.49177L13.4741 5.49177 13.4741 11.2616C13.4741 16.8337 18.0591 21.3508 23.715 21.3508L28.1999 21.3508 33.7397 21.3508 41.285 21.3508C46.9409 21.3508 51.5259 16.8337 51.5259 11.2616L51.5259 5.49177 55.4233 5.49177C58.089 5.49177 60.2499 7.62071 60.2499 10.2469L60.2499 14.7909 60.2499 51.1721 60.2499 55.7161C60.2499 57.0292 59.7097 58.218 58.8363 59.0785ZM11.6372 60.4712 11.6372 44.2025 23.8987 44.2025 23.8987 44.2025 53.3628 44.2025 53.3628 60.4712 28.8269 60.4712 27.0131 60.4712ZM10.2409 65 27.0131 65 28.8269 65 54.7591 65C60.415 65 65 60.4829 65 54.9108L65 51.1721 65 14.7909 65 11.0523C65 5.48013 60.415 0.963045 54.7591 0.963045L51.5258 0.963045 51.5258 0 29.4552 0 27.6414 0 13.4741 0 13.4741 0.963045 10.2409 0.963045C4.58502 0.963045 0 5.48013 0 11.0523L0 14.7909 0 51.1721 0 54.9108C0 60.4829 4.58502 65 10.2409 65Z" fill-rule="evenodd" transform="matrix(1 0 0 -1 1527 2298)"/></g></svg>