<svg fill="none" height="24" viewBox="0 0 24 24" width="24" xmlns="http://www.w3.org/2000/svg"><g clip-rule="evenodd" fill="#000" fill-rule="evenodd"><path d="m13 21v-10h-2v10z"/><path d="m11.2929 21.7071c.3905.3905 1.0237.3905 1.4142 0l3-3-1.4142-1.4142-2.2929 2.2929-2.29288-2.2929-1.41421 1.4142z"/><path d="m11.0625 4c-2.6903 0-4.9375 2.2796-4.9375 5.175 0 .0924.0023.18416.00684.2752.01364.27352-.08549.54067-.27426.7391-.18876.1984-.45064.3107-.7245.3107h-.00808c-1.137 0-2.125.97-2.125 2.25s.988 2.25 2.125 2.25h1.875v2h-1.875c-2.31478 0-4.125-1.9401-4.125-4.25 0-1.972 1.31933-3.67445 3.1456-4.13035.27325-3.67181 3.23284-6.61965 6.9169-6.61965 2.4515 0 4.5886 1.31194 5.8188 3.26668.1424-.01106.2863-.01668.4312-.01668 3.1777 0 5.6875 2.66766 5.6875 5.875 0 2.4859-1.4994 4.6344-3.6506 5.4868-.525.2491-1.1098.3882-1.7244.3882h-.625v-2h.625c.3175 0 .6169-.0731.8866-.2045.025-.0122.0506-.0234.0767-.0335 1.3913-.5394 2.4117-1.9507 2.4117-3.637 0-2.17743-1.6876-3.875-3.6875-3.875-.2593 0-.5113.02797-.7539.08088-.4484.09781-.9059-.12222-1.1094-.53362-.8302-1.67817-2.4948-2.79726-4.3867-2.79726z"/></g></svg>