<svg id="Capa_1" enable-background="new 0 0 512 512" height="512" viewBox="0 0 512 512" width="512" xmlns="http://www.w3.org/2000/svg"><g><g><path d="m297.055 283.99c0 23.16-18.842 42-41.995 42-23.163 0-42.005-18.84-42.005-42 0-23.15 18.842-41.99 42.005-41.99 23.153 0 41.995 18.84 41.995 41.99z"/><path d="m92.021 247.18c-19.852 0-36.014 16.15-36.014 36.01s16.162 36.02 36.014 36.02c19.862 0 36.024-16.16 36.024-36.02s-16.162-36.01-36.024-36.01zm0 0c-19.852 0-36.014 16.15-36.014 36.01s16.162 36.02 36.014 36.02c19.862 0 36.024-16.16 36.024-36.02s-16.162-36.01-36.024-36.01zm-38.915-141.17c-29.283 0-53.106 23.82-53.106 53.1v193.78c0 29.28 23.823 53.1 53.106 53.1h297.955v-299.98zm104.943 234.98c0 8.28-6.721 15-15.002 15s-15.002-6.72-15.002-15v-2.52c-10.371 6.78-22.733 10.74-36.024 10.74-36.404 0-66.018-29.62-66.018-66.02s29.613-66.01 66.018-66.01c13.292 0 25.653 3.95 36.024 10.73v-2.52c0-8.28 6.721-15 15.002-15s15.002 6.72 15.002 15zm97.011 15c-15.702 0-30.234-5.06-42.075-13.62-.7 7.63-7.111 13.62-14.932 13.62-8.281 0-15.002-6.72-15.002-15v-169.98c0-8.28 6.721-15 15.002-15s15.002 6.72 15.002 15v54.56c11.831-8.53 26.333-13.57 42.005-13.57 39.705 0 71.998 32.29 71.998 71.99s-32.293 72-71.998 72zm-163.039-108.81c-19.852 0-36.014 16.15-36.014 36.01s16.162 36.02 36.014 36.02c19.862 0 36.024-16.16 36.024-36.02s-16.162-36.01-36.024-36.01zm366.873-141.17h-17.822v299.98h17.822c29.283 0 53.106-23.82 53.106-53.1v-193.78c0-29.28-23.823-53.1-53.106-53.1zm-366.873 141.17c-19.852 0-36.014 16.15-36.014 36.01s16.162 36.02 36.014 36.02c19.862 0 36.024-16.16 36.024-36.02s-16.162-36.01-36.024-36.01zm0 0c-19.852 0-36.014 16.15-36.014 36.01s16.162 36.02 36.014 36.02c19.862 0 36.024-16.16 36.024-36.02s-16.162-36.01-36.024-36.01z"/></g><path d="m432.912 449.386c-12.043 0-21.841-9.797-21.841-21.839v-343.094c0-12.042 9.798-21.839 21.841-21.839 8.285 0 15.002-6.716 15.002-15s-6.717-15-15.002-15c-14.398 0-27.44 5.903-36.843 15.411-9.404-9.508-22.445-15.411-36.843-15.411-8.285 0-15.002 6.716-15.002 15s6.717 15 15.002 15c12.043 0 21.841 9.797 21.841 21.839v343.094c0 12.042-9.798 21.839-21.841 21.839-8.285 0-15.002 6.716-15.002 15s6.717 15 15.002 15c14.398 0 27.44-5.903 36.843-15.411 9.404 9.508 22.445 15.411 36.843 15.411 8.285 0 15.002-6.716 15.002-15s-6.716-15-15.002-15z"/></g></svg>