<svg width="1602" height="1704" xmlns="http://www.w3.org/2000/svg" xmlns:xlink="http://www.w3.org/1999/xlink" xml:space="preserve" overflow="hidden"><defs><clipPath id="clip0"><rect x="3364" y="-419" width="1602" height="1704"/></clipPath><linearGradient x1="-49.3794" y1="1651.48" x2="1651.38" y2="52.5233" gradientUnits="userSpaceOnUse" spreadMethod="reflect" id="fill1"><stop offset="0" stop-color="#56096E"/><stop offset="0.5" stop-color="#82239E"/><stop offset="1" stop-color="#AE3DCF"/></linearGradient></defs><g clip-path="url(#clip0)" transform="translate(-3364 419)"><path d="M1536.72 1006.82C1481.46 974.987 1447.14 915.693 1447.14 852.003 1447.14 788.344 1481.46 729.05 1536.56 697.253 1593.11 664.748 1616.63 597.209 1592.47 536.674 1562.18 460.208 1520.93 388.788 1470.18 324.369 1429.74 273.08 1359.5 259.648 1302.95 292.362 1247.85 324.369 1179.21 324.465 1123.95 292.603 1068.85 260.741 1034.7 201.351 1034.86 137.547 1034.86 72.2758 988.134 18.1066 923.53 8.76442 842.209-3.00158 759.612-2.92039 678.315 9.00511 613.869 18.4126 567.148 72.5508 567.307 137.691 567.307 201.416 533.148 260.772 478.05 292.603 422.786 324.431 354.315 324.365 299.055 292.393 242.506 259.679 172.26 273.176 131.821 324.465 106.496 356.652 83.5063 390.608 63.0258 426.074 42.5636 461.497 24.68 498.625 9.5361 536.365-14.7934 596.996 8.73195 664.631 65.2809 697.219 120.545 729.016 154.861 788.341 154.861 852 154.861 915.659 120.545 974.936 65.4426 1006.78 8.89329 1039.29-14.6285 1106.79 9.5361 1167.31 39.7755 1243.64 80.969 1315.17 131.821 1379.63 172.26 1430.92 242.506 1444.35 299.055 1411.64 354.157 1379.63 422.79 1379.57 478.05 1411.4 533.148 1443.26 567.307 1502.65 567.307 1566.45 567.145 1631.71 614.027 1685.88 678.473 1695.24 718.756 1701.07 759.407 1704 800.111 1704 841.358 1704 882.602 1701 923.684 1694.99 988.13 1685.57 1034.85 1631.48 1034.85 1566.34 1034.69 1502.58 1068.84 1443.22 1123.95 1411.4 1179.21 1379.57 1247.68 1379.63 1302.94 1411.61 1359.49 1444.32 1429.74 1430.85 1470.17 1379.53 1495.48 1347.35 1518.47 1313.4 1538.97 1277.96 1559.27 1242.54 1577.48 1205.41 1592.46 1167.64 1616.8 1107 1593.27 1039.35 1536.72 1006.82Z" fill="url(#fill1)" fill-rule="evenodd" transform="matrix(-1 1.22465e-16 1.22465e-16 1 4966 -419)"/></g></svg>