<svg width="224" height="225" xmlns="http://www.w3.org/2000/svg" xmlns:xlink="http://www.w3.org/1999/xlink" xml:space="preserve" overflow="hidden"><defs><linearGradient x1="-1.43825" y1="222.99" x2="222.56" y2="-0.00792876" gradientUnits="userSpaceOnUse" spreadMethod="reflect" id="fill0"><stop offset="0" stop-color="#56096E"/><stop offset="0.5" stop-color="#82239E"/><stop offset="1" stop-color="#AE3DCF"/></linearGradient></defs><g transform="translate(-3014 -929)"><path d="M3029 1042C3029 988.981 3072.2 946 3125.5 946 3178.8 946 3222 988.981 3222 1042 3222 1095.02 3178.8 1138 3125.5 1138 3072.2 1138 3029 1095.02 3029 1042Z" fill="#FFFFFF" fill-rule="evenodd"/><path d="M68.1558 68.7585 24.6882 68.7585C24.6882 69.896 24.7228 71.7567 24.7228 72.5838 31.7904 72.5147 42.0827 84.1629 45.0326 91.4 57.727 120.968 70.832 150.398 83.458 180.001 83.458 180.035 87.4031 180.104 87.4373 180.001 95.7054 163.011 105.346 145.16 114.06 127.998L136.085 180.035C136.085 180.035 139.722 180.07 139.722 180.035 153.686 148.02 174.579 98.8781 181.406 83.3702 184.219 76.7539 188.851 72.7217 196.399 72.4807L196.433 69.0346 196.399 68.862 162.091 68.7585C162.091 70.0335 162.091 71.5158 162.057 72.5147 164.973 72.5495 172.418 73.9279 174.785 80.0966L141.918 156.291C140.305 152.535 125.004 118.418 123.289 114.041L139.174 80.9237C142.433 75.8925 148.745 72.6529 154.783 72.4116L154.783 68.9311 121.779 68.8967C121.676 69.7925 121.779 71.6533 121.642 72.5495 130.939 72.8251 134.267 74.8928 132.037 80.4758 128.366 88.884 120.647 104.806 119.138 107.7 114.404 97.8101 111.418 90.1594 106.272 79.4418 104.043 74.4793 108.948 72.5495 114.129 72.4116L114.129 68.9311 75.9095 68.7932C75.9438 70.447 75.8753 71.3432 75.8753 72.5495 81.1931 72.6182 88.1234 73.2043 90.8681 77.8563 94.5049 84.9903 106.718 113.387 110.389 121.003 105.689 130.066 94.2646 151.501 90.1823 159.53 84.3156 146.469 62.5985 94.9837 56.4916 81.6817 54.1932 76.03 63.0098 72.7564 68.1216 72.5147ZM110.561-0.509054C172.143-0.509054 222.061 49.6326 222.061 111.491 222.061 173.349 172.143 223.491 110.561 223.491 48.9784 223.491-0.939365 173.349-0.939365 111.491-0.939365 49.6326 48.9784-0.509054 110.561-0.509054Z" fill="url(#fill0)" fill-rule="evenodd" transform="matrix(-1 0 0 1 3237 930)"/></g></svg>