<?xml version="1.0" encoding="iso-8859-1"?>
<!-- Generator: Adobe Illustrator 19.0.0, SVG Export Plug-In . SVG Version: 6.00 Build 0)  -->
<svg version="1.1" id="Capa_1" xmlns="http://www.w3.org/2000/svg" xmlns:xlink="http://www.w3.org/1999/xlink" x="0px" y="0px"
	 viewBox="0 0 218.453 218.453" style="enable-background:new 0 0 218.453 218.453;" xml:space="preserve">
<g>
	<g>
		<path d="M109.227,35.84c-28.232,0-51.2,22.968-51.2,51.2v61.44c0,1.884,1.529,3.413,3.413,3.413h22.849
			c1.884,0,3.413-1.529,3.413-3.413s-1.529-3.413-3.413-3.413H64.853V87.04c0-24.467,19.905-44.373,44.373-44.373
			S153.6,62.573,153.6,87.04v58.027h-19.582c-1.884,0-3.413,1.529-3.413,3.413s1.529,3.413,3.413,3.413h22.996
			c1.884,0,3.413-1.529,3.413-3.413V87.04C160.427,58.808,137.458,35.84,109.227,35.84z"/>
	</g>
</g>
<g>
	<g>
		<path d="M85.333,145.067H3.413c-1.884,0-3.413,1.529-3.413,3.413v51.2c0,1.884,1.529,3.413,3.413,3.413h81.92
			c1.884,0,3.413-1.529,3.413-3.413v-51.2C88.747,146.596,87.218,145.067,85.333,145.067z M81.92,196.267H6.827v-44.373H81.92
			V196.267z"/>
	</g>
</g>
<g>
	<g>
		<path d="M215.04,145.067h-81.92c-1.884,0-3.413,1.529-3.413,3.413v51.2c0,1.884,1.529,3.413,3.413,3.413h81.92
			c1.884,0,3.413-1.529,3.413-3.413v-51.2C218.453,146.596,216.924,145.067,215.04,145.067z M211.627,196.267h-75.093v-44.373
			h75.093V196.267z"/>
	</g>
</g>
<g>
	<g>
		<path d="M133.12,110.933H85.333c-1.884,0-3.413,1.529-3.413,3.413v85.333c0,1.884,1.529,3.413,3.413,3.413h47.787
			c1.884,0,3.413-1.529,3.413-3.413v-85.333C136.533,112.462,135.004,110.933,133.12,110.933z M129.707,196.267h-40.96V117.76h40.96
			V196.267z"/>
	</g>
</g>
<g>
	<g>
		<path d="M133.12,83.627h-10.24c-1.884,0-3.413,1.529-3.413,3.413v27.307c0,1.884,1.529,3.413,3.413,3.413h10.24
			c1.884,0,3.413-1.529,3.413-3.413V87.04C136.533,85.156,135.004,83.627,133.12,83.627z M129.707,110.933h-3.413v-20.48h3.413
			V110.933z"/>
	</g>
</g>
<g>
	<g>
		<path d="M95.573,83.627h-10.24c-1.884,0-3.413,1.529-3.413,3.413v27.307c0,1.884,1.529,3.413,3.413,3.413h10.24
			c1.884,0,3.413-1.529,3.413-3.413V87.04C98.987,85.156,97.457,83.627,95.573,83.627z M92.16,110.933h-3.413v-20.48h3.413V110.933z
			"/>
	</g>
</g>
<g>
	<g>
		<path d="M13.653,117.76H3.413c-1.884,0-3.413,1.529-3.413,3.413v27.307c0,1.884,1.529,3.413,3.413,3.413h10.24
			c1.884,0,3.413-1.529,3.413-3.413v-27.307C17.067,119.289,15.538,117.76,13.653,117.76z M10.24,145.067H6.827v-20.48h3.413
			V145.067z"/>
	</g>
</g>
<g>
	<g>
		<path d="M34.133,131.413h-10.24c-1.884,0-3.413,1.529-3.413,3.413v13.653c0,1.884,1.529,3.413,3.413,3.413h10.24
			c1.884,0,3.413-1.529,3.413-3.413v-13.653C37.547,132.942,36.017,131.413,34.133,131.413z M30.72,145.067h-3.413v-6.827h3.413
			V145.067z"/>
	</g>
</g>
<g>
	<g>
		<path d="M215.04,117.76H204.8c-1.884,0-3.413,1.529-3.413,3.413v27.307c0,1.884,1.529,3.413,3.413,3.413h10.24
			c1.884,0,3.413-1.529,3.413-3.413v-27.307C218.453,119.289,216.924,117.76,215.04,117.76z M211.627,145.067h-3.413v-20.48h3.413
			V145.067z"/>
	</g>
</g>
<g>
	<g>
		<path d="M20.48,165.547c-5.647,0-10.24,4.593-10.24,10.24v23.893c0,1.884,1.529,3.413,3.413,3.413h13.653
			c1.884,0,3.413-1.529,3.413-3.413v-23.893C30.72,170.139,26.127,165.547,20.48,165.547z M23.893,196.267h-6.827v-20.48
			c0-1.882,1.531-3.413,3.413-3.413s3.413,1.531,3.413,3.413V196.267z"/>
	</g>
</g>
<g>
	<g>
		<path d="M44.373,165.547c-5.647,0-10.24,4.593-10.24,10.24v23.893c0,1.884,1.529,3.413,3.413,3.413H51.2
			c1.884,0,3.413-1.529,3.413-3.413v-23.893C54.613,170.139,50.021,165.547,44.373,165.547z M47.787,196.267H40.96v-20.48
			c0-1.882,1.531-3.413,3.413-3.413s3.413,1.531,3.413,3.413V196.267z"/>
	</g>
</g>
<g>
	<g>
		<path d="M68.267,165.547c-5.647,0-10.24,4.593-10.24,10.24v23.893c0,1.884,1.529,3.413,3.413,3.413h13.653
			c1.884,0,3.413-1.529,3.413-3.413v-23.893C78.507,170.139,73.914,165.547,68.267,165.547z M71.68,196.267h-6.827v-20.48
			c0-1.882,1.531-3.413,3.413-3.413s3.413,1.531,3.413,3.413V196.267z"/>
	</g>
</g>
<g>
	<g>
		<path d="M150.187,165.547c-5.647,0-10.24,4.593-10.24,10.24v23.893c0,1.884,1.529,3.413,3.413,3.413h13.653
			c1.884,0,3.413-1.529,3.413-3.413v-23.893C160.427,170.139,155.834,165.547,150.187,165.547z M153.6,196.267h-6.827v-20.48
			c0-1.882,1.531-3.413,3.413-3.413s3.413,1.531,3.413,3.413V196.267z"/>
	</g>
</g>
<g>
	<g>
		<path d="M174.08,165.547c-5.647,0-10.24,4.593-10.24,10.24v23.893c0,1.884,1.529,3.413,3.413,3.413h13.653
			c1.884,0,3.413-1.529,3.413-3.413v-23.893C184.32,170.139,179.727,165.547,174.08,165.547z M177.493,196.267h-6.827v-20.48
			c0-1.882,1.531-3.413,3.413-3.413s3.413,1.531,3.413,3.413V196.267z"/>
	</g>
</g>
<g>
	<g>
		<path d="M197.973,165.547c-5.647,0-10.24,4.593-10.24,10.24v23.893c0,1.884,1.529,3.413,3.413,3.413H204.8
			c1.884,0,3.413-1.529,3.413-3.413v-23.893C208.213,170.139,203.621,165.547,197.973,165.547z M201.387,196.267h-6.827v-20.48
			c0-1.882,1.531-3.413,3.413-3.413c1.882,0,3.413,1.531,3.413,3.413V196.267z"/>
	</g>
</g>
<g>
	<g>
		<path d="M17.009,120.544l-5.12-27.307c-0.304-1.613-1.712-2.784-3.355-2.784c-1.643,0-3.052,1.171-3.355,2.784l-5.12,27.307
			c-0.186,0.998,0.08,2.028,0.729,2.809c0.649,0.782,1.611,1.234,2.627,1.234h10.24c1.015,0,1.978-0.452,2.627-1.234
			C16.928,122.571,17.195,121.542,17.009,120.544z M7.526,117.76l1.007-5.371l1.007,5.371H7.526z"/>
	</g>
</g>
<g>
	<g>
		<path d="M218.395,120.544l-5.12-27.307c-0.304-1.613-1.712-2.784-3.355-2.784c-1.644,0-3.052,1.169-3.355,2.784l-5.12,27.307
			c-0.186,0.998,0.08,2.028,0.729,2.809c0.649,0.782,1.611,1.234,2.627,1.234h10.24c1.015,0,1.978-0.452,2.627-1.234
			C218.315,122.571,218.581,121.542,218.395,120.544z M208.913,117.76l1.007-5.371l1.007,5.371H208.913z"/>
	</g>
</g>
<g>
	<g>
		<path d="M136.475,86.41l-5.12-27.307c-0.304-1.613-1.712-2.784-3.355-2.784c-1.643,0-3.052,1.169-3.355,2.784l-5.12,27.307
			c-0.186,0.998,0.08,2.027,0.729,2.809c0.648,0.782,1.611,1.234,2.627,1.234h10.24c1.016,0,1.978-0.452,2.627-1.234
			S136.661,87.409,136.475,86.41z M126.993,83.627L128,78.256l1.007,5.371H126.993z"/>
	</g>
</g>
<g>
	<g>
		<path d="M98.929,86.41l-5.12-27.307c-0.304-1.613-1.712-2.784-3.355-2.784c-1.644,0-3.052,1.169-3.355,2.784l-5.12,27.307
			c-0.186,0.998,0.08,2.027,0.729,2.809s1.611,1.234,2.627,1.234h10.24c1.015,0,1.978-0.452,2.627-1.234
			C98.848,88.438,99.115,87.409,98.929,86.41z M89.446,83.627l1.007-5.371l1.007,5.371H89.446z"/>
	</g>
</g>
<g>
	<g>
		<path d="M37.444,133.999l-5.12-20.48c-0.379-1.519-1.744-2.586-3.311-2.586s-2.93,1.065-3.311,2.586l-5.12,20.48
			c-0.256,1.019-0.026,2.101,0.621,2.929c0.647,0.828,1.638,1.312,2.69,1.312h10.24c1.051,0,2.043-0.483,2.69-1.312
			C37.47,136.098,37.699,135.018,37.444,133.999z M28.266,131.413l0.748-2.993l0.749,2.993H28.266z"/>
	</g>
</g>
<g>
	<g>
		<path d="M194.56,131.413h-10.24c-1.884,0-3.413,1.529-3.413,3.413v13.653c0,1.884,1.529,3.413,3.413,3.413h10.24
			c1.884,0,3.413-1.529,3.413-3.413v-13.653C197.973,132.942,196.444,131.413,194.56,131.413z M191.147,145.067h-3.413v-6.827h3.413
			V145.067z"/>
	</g>
</g>
<g>
	<g>
		<path d="M197.871,133.999l-5.12-20.48c-0.379-1.519-1.744-2.586-3.311-2.586c-1.567,0-2.93,1.065-3.311,2.586l-5.12,20.48
			c-0.256,1.019-0.026,2.101,0.621,2.929c0.647,0.828,1.638,1.312,2.69,1.312h10.24c1.051,0,2.043-0.483,2.69-1.312
			C197.897,136.098,198.125,135.018,197.871,133.999z M188.692,131.413l0.747-2.993l0.749,2.993H188.692z"/>
	</g>
</g>
<g>
	<g>
		<path d="M109.227,15.36c-1.884,0-3.413,1.529-3.413,3.413v20.48c0,1.884,1.529,3.413,3.413,3.413s3.413-1.529,3.413-3.413v-20.48
			C112.64,16.889,111.111,15.36,109.227,15.36z"/>
	</g>
</g>
<g>
	<g>
		<path d="M109.227,131.413c-1.884,0-3.413,1.529-3.413,3.413v64.853c0,1.884,1.529,3.413,3.413,3.413s3.413-1.529,3.413-3.413
			v-64.853C112.64,132.942,111.111,131.413,109.227,131.413z"/>
	</g>
</g>
<g>
	<g>
		<path d="M116.053,22.187H102.4c-1.884,0-3.413,1.529-3.413,3.413s1.529,3.413,3.413,3.413h13.653c1.884,0,3.413-1.529,3.413-3.413
			S117.937,22.187,116.053,22.187z"/>
	</g>
</g>
<g>
	<g>
		<path d="M109.227,131.413c-9.411,0-17.067,7.656-17.067,17.067v51.2c0,1.884,1.529,3.413,3.413,3.413h27.307
			c1.884,0,3.413-1.529,3.413-3.413v-51.2C126.293,139.069,118.637,131.413,109.227,131.413z M119.467,196.267h-20.48V148.48
			c0-5.647,4.593-10.24,10.24-10.24c5.647,0,10.24,4.593,10.24,10.24V196.267z"/>
	</g>
</g>
<g>
</g>
<g>
</g>
<g>
</g>
<g>
</g>
<g>
</g>
<g>
</g>
<g>
</g>
<g>
</g>
<g>
</g>
<g>
</g>
<g>
</g>
<g>
</g>
<g>
</g>
<g>
</g>
<g>
</g>
</svg>
