<svg width="400" height="200" xmlns="http://www.w3.org/2000/svg" xmlns:xlink="http://www.w3.org/1999/xlink" xml:space="preserve" overflow="hidden"><g transform="translate(-351 -451)"><path d="M418.478 453.282C418.33 455.363 417.289 468.297 416.1 482.271 414.911 496.096 413.87 513.341 413.87 520.328 413.87 532.072 413.573 533.41 410.599 535.342 407.18 537.572 407.18 537.721 409.856 543.073 411.343 546.492 412.383 551.992 412.383 557.939 412.383 566.115 411.937 567.75 408.964 569.683L405.694 571.764 409.261 578.156C412.829 584.549 412.829 584.549 411.789 617.7L410.599 651 691.865 651 691.865 617.105C692.013 589.752 692.31 582.765 694.094 580.535 697.365 576.224 696.919 570.575 693.351 569.683 690.675 568.94 690.378 567.602 690.378 558.979 690.526 552.736 691.27 548.127 692.608 546.343 695.432 542.627 695.432 538.464 692.756 536.978 691.418 536.086 690.526 530.288 689.783 516.463 688.445 489.109 685.026 455.066 684.134 457.742 683.094 460.566 679.972 511.557 679.972 525.531 679.972 533.707 679.377 536.383 677.742 537.126 675.215 538.018 674.769 543.37 676.998 544.708 677.89 545.154 678.485 550.952 678.485 557.493 678.485 566.71 678.039 569.534 676.255 570.129 673.431 571.318 673.431 575.035 676.404 578.9 678.188 581.278 678.634 586.184 678.336 602.983 678.336 614.727 677.89 624.241 677.444 624.241 676.998 624.241 674.025 623.498 671.052 622.606 663.173 620.227 655.74 622.011 650.388 627.512 646.226 631.823 645.482 631.971 642.212 630.336 640.279 629.296 636.414 627.958 633.738 627.363 628.981 626.471 628.684 626.025 628.238 619.335 627.941 614.727 628.535 611.159 630.022 609.078 632.995 604.915 632.995 601.05 630.17 599.861 627.346 598.82 627.197 588.711 629.724 581.576 631.211 577.413 631.211 576.224 629.576 575.183 627.941 574.291 627.643 571.169 628.387 561.953 628.833 555.263 628.535 549.465 627.792 549.019 627.049 548.573 626.454 543.667 626.454 538.167 626.454 520.922 624.521 496.245 623.332 497.434 622.737 498.029 621.697 509.327 621.251 522.409 620.656 535.491 619.616 547.681 618.724 549.465 617.534 551.844 617.534 553.925 618.575 556.303 620.508 560.317 619.318 573.994 616.94 575.481 615.899 576.224 615.899 578.008 617.237 581.576 619.764 588.711 619.616 598.82 616.791 599.861 613.967 601.05 613.967 604.767 616.791 608.483 618.129 610.267 619.021 614.727 619.021 620.079 619.021 628.255 618.872 628.701 615.304 628.701 613.372 628.701 609.953 627.958 607.871 626.917 604.75 625.579 604.155 624.241 604.155 618.741 604.155 615.173 604.898 610.862 605.79 609.227 606.831 607.294 606.831 605.659 605.939 604.469 605.047 603.429 604.452 596.293 604.601 588.563 604.601 580.832 604.155 567.007 603.412 558.087 602.371 544.411 601.925 542.627 601.033 547.235 599.844 552.587 598.209 580.981 598.209 596.739 598.209 604.321 595.235 610.416 592.411 608.632 591.519 608.186 590.776 606.551 590.776 605.064 590.776 601.942 586.762 597.928 582.599 597.185 580.369 596.888 579.477 595.401 579.18 591.239 578.585 584.252 575.761 581.724 571.45 584.103 568.477 585.738 567.585 585.292 563.868 580.684 561.49 577.711 557.03 573.845 553.908 572.061 550.935 570.278 546.921 567.453 545.137 565.818 543.056 564.034 541.718 563.588 541.718 564.628 541.718 565.52 538.893 567.602 535.325 569.088 531.906 570.575 526.554 574.589 523.432 578.008 520.013 581.873 516.594 584.103 514.364 584.103 510.053 584.103 507.972 586.481 507.229 592.279 506.931 595.847 506.039 596.888 502.62 597.185 500.241 597.482 497.566 599.266 496.228 601.347 494.89 603.28 492.808 604.915 491.768 604.915 490.579 604.915 489.687 606.105 489.687 607.443 489.687 609.375 489.092 608.929 487.605 606.105 486.267 603.577 485.375 596.739 485.227 587.522 484.929 562.25 483.592 545.303 482.105 546.195 481.362 546.789 480.767 552.736 480.767 559.574 480.767 566.412 480.172 572.359 479.429 572.805 478.686 573.399 478.686 576.224 479.429 579.94 480.321 583.806 480.321 586.63 479.429 587.522 478.686 588.265 478.388 592.279 478.834 596.144 479.28 600.456 478.983 604.172 478.091 605.361 477.05 606.551 477.05 608.037 477.794 609.375 478.686 610.564 479.28 614.876 479.28 618.741 479.28 625.728 479.132 625.876 475.267 625.43 471.253 624.984 471.104 624.538 470.658 615.768 470.361 609.672 470.955 605.064 472.442 602.239 474.523 598.226 474.523 597.631 471.847 595.252 468.28 591.982 467.834 582.914 471.104 576.819 473.037 572.953 473.037 572.359 471.104 570.724 468.28 568.494 468.131 554.074 470.658 549.911 472.145 547.681 472.145 546.641 470.658 545.154 469.617 544.113 468.874 539.059 468.726 532.964 468.726 527.166 467.834 513.043 466.942 501.596L465.158 480.784 463.225 505.313C462.184 518.841 461.441 532.815 461.441 536.68 461.441 540.397 460.698 544.113 459.657 545.154 458.319 546.492 458.319 547.83 459.657 550.654 462.482 556.601 461.887 568.791 458.914 570.575 456.535 571.764 456.535 572.359 459.063 578.008 462.184 584.549 461.59 591.833 457.576 596.144 455.495 598.523 455.495 599.118 457.576 603.28 459.063 606.105 459.955 611.605 459.955 618.295L459.955 628.701 451.927 628.701C446.278 628.701 443.007 629.593 440.183 631.674 438.102 633.309 434.236 634.647 431.114 634.647L425.911 634.647 425.465 608.929C425.019 586.036 425.317 582.765 427.844 577.562L430.817 571.764 427.547 569.534C424.722 567.602 424.276 566.115 424.276 556.749 424.276 549.614 425.019 545.005 426.506 543.073 429.182 539.505 429.182 538.762 426.655 536.234 425.317 534.748 424.425 528.355 423.83 515.719 423.087 497.434 420.114 458.336 419.222 452.539 418.924 450.309 418.627 450.457 418.478 453.282" fill="#FFFFFF"/></g></svg>