<svg width="1547" height="1760" xmlns="http://www.w3.org/2000/svg" xmlns:xlink="http://www.w3.org/1999/xlink" xml:space="preserve" overflow="hidden"><defs><clipPath id="clip0"><rect x="2071" y="87" width="1547" height="1760"/></clipPath><linearGradient x1="3309" y1="1015" x2="2381" y2="87.0002" gradientUnits="userSpaceOnUse" spreadMethod="reflect" id="fill1"><stop offset="0" stop-color="#56096E"/><stop offset="0.5" stop-color="#82239E"/><stop offset="1" stop-color="#AE3DCF"/></linearGradient><linearGradient x1="3125.61" y1="2079.03" x2="2563.39" y2="885.967" gradientUnits="userSpaceOnUse" spreadMethod="reflect" id="fill2"><stop offset="0" stop-color="#56096E"/><stop offset="0.5" stop-color="#82239E"/><stop offset="1" stop-color="#AE3DCF"/></linearGradient></defs><g clip-path="url(#clip0)" transform="translate(-2071 -87)"><path d="M2845 87C2589.15 87 2381 295.151 2381 551 2381 806.849 2589.15 1015 2845 1015 3100.85 1015 3309 806.849 3309 551 3309 295.151 3100.85 87 2845 87Z" fill="url(#fill1)" fill-rule="evenodd"/><path d="M3421.93 1318.11C3294.87 1189.07 3126.43 1118 2947.63 1118L2741.37 1118C2562.57 1118 2394.13 1189.07 2267.07 1318.11 2140.63 1446.53 2071 1616.03 2071 1795.42 2071 1823.91 2094.09 1847 2122.57 1847L3566.43 1847C3594.91 1847 3618 1823.91 3618 1795.42 3618 1616.03 3548.37 1446.53 3421.93 1318.11Z" fill="url(#fill2)" fill-rule="evenodd"/></g></svg>