<svg width="640" height="480" viewBox="0 0 65 65" xmlns="http://www.w3.org/2000/svg">
  <path d="M64.63 31.16 64.84 32.2C64.99 33.56 65.01 34.67 65 35.33ZM14.96 28.71C12.64 28.71 10.72 30.57 10.72 32.88 10.72 35.19 12.64 37.05 14.96 37.05 17.27 37.05 19.13 35.19 19.13 32.88 19.13 30.57 17.27 28.71 14.96 28.71ZM47 22.06C48.87 21.86 51.33 22.27 53.64 24.65 55.98 27.6 55.46 29.57 55.46 29.57L42.32 29.57 42.32 36.05 64.96 36.05C64.81 37.42 64.57 38.8 64.23 40.18 63.18 41.89 61 44.61 57.22 45.84 51.51 47.7 42.32 46.05 39.93 38.02 38.01 29.99 41.28 24.39 43.82 23.04 43.82 23.04 45.12 22.25 47 22.06ZM30.84 0.05C34.03-0.12 37.33 0.16 40.6 0.99 52.39 3.97 61 13.02 63.98 23.94L64.63 31.16 63.88 27.5C62.84 24.08 60.84 20.32 57.06 17.61 48.23 11.29 35.51 15.69 31.88 25.11 28.24 34.55 30.92 48.02 45.51 53.05 49.87 54.55 53.89 54.49 57.32 53.67 49.52 62.73 36.95 67.13 24.57 63.99 7.13 59.58-3.42 41.89 1.01 24.49 4.6 10.36 16.97 0.78 30.84 0.05Z"
    fill="#1F4E79" fill-rule="evenodd"/>
</svg>
