<svg id="Layer_1" enable-background="new 0 0 100 100" viewBox="0 0 100 100" xmlns="http://www.w3.org/2000/svg"><path d="m4.1860757 60.7175064 20.8789845-20.8448677c.2144413.2533722.4386349.5067482.6725731.7503738l33.4141693 33.3966179c.2436829.2436295.4873695.4677734.7505493.6821594l-21.7172585 21.702446c-1.4616699 1.4610214-3.8311806 1.4610214-5.2928505 0l-3.7040215-3.7031631c-.6774921-.6748123-.806282-1.7250214-.3119164-2.5434799l6.0628967-10.0667419c.1137657-.2077103.0375633-.4682922-.1701965-.5820312-.1327934-.0726929-.2940941-.070015-.4243965.0070724l-9.688942 6.3440933c-.8227501.5437469-1.9145756.4337769-2.6123085-.2631149l-9.3867712-9.3845749c-.6580687-.6582184-.7975054-1.6738739-.3411598-2.4850159l3.0801859-5.5254974c.1129055-.2081757.0356312-.4684448-.172596-.5813217-.1252737-.0679092-.2761049-.0691833-.402503-.0033798l-5.6340094 3.0112381c-.8080635.4289932-1.8017654.278595-2.4466033-.3703156l-2.5538254-2.5434799c-1.9326241-1.9191971-1.9431505-5.0413399-.0235109-6.9735107.0078102-.007866.0156475-.0156976.0235106-.0235063zm79.9288764-58.2175059c-5.0400467-.0013537-9.6401596 2.8692632-11.8528671 7.3965669-2.6488953 5.6755371-6.0201721 10.985116-10.030098 15.7968817l-1.5790825 1.8320866c-3.0773163 3.5725498-8.4687691 3.9746017-12.0421524.8980064-.1598625-.1376362-.3145638-.281147-.4637947-.4302406l-4.8737106-4.8725719c-1.2048225-1.2082825-3.1612587-1.2113113-4.3698196-.0067711-.0022621.0022526-.0045204.0045109-.0067711.0067711l-7.6224861 7.6207027c-1.2085648 1.2045422-1.2115936 3.1605186-.0067711 4.3688011.0022526.0022583.004509.0045166.0067711.0067673l33.3459396 33.3966255c1.2048264 1.2082748 3.1612549 1.2113037 4.3698196.0067596.0022659-.0022507.0045166-.0045013.0067673-.0067596l7.6224899-7.6207085c1.2085571-1.2045403 1.2115936-3.1605186.0067673-4.3687973-.0022583-.0022621-.004509-.0045166-.0067673-.0067711l-4.8737183-4.8725739c-3.3330536-3.335331-3.3305817-8.7405014.0055313-12.0727844.1457443-.1455765.2967072-.2858353.4525986-.4204903 5.5216675-4.6156769 11.5598755-8.5759029 17.9937515-11.8013763 6.4492722-3.3727074 8.9426804-11.3337708 5.569191-17.7815342-2.2691345-4.3369861-6.7559662-7.0589853-11.6515884-7.0685897z"/></svg>