<svg id="Layer_1" enable-background="new 0 0 100 100" viewBox="0 0 100 100" xmlns="http://www.w3.org/2000/svg"><g><path d="m96.8545914 51.560585-21.8626252 21.8626251c-.8605423.8605423-2.2606277.8605423-3.12117 0l-21.8626251-21.8626251c-.8605461-.8605423-.8605461-2.2606277 0-3.12117l21.8626251-21.862627c.8605423-.8605423 2.2606277-.8605423 3.12117 0l21.8626251 21.862627c.8605424.8605423.8605424 2.2606277.0000001 3.12117z"/><path d="m45.3235779 51.5567741 14.058979 14.058979-7.8197556 7.8079147c-.8623314.8622589-2.2633476.8622589-3.1255302 0l-21.8549061-21.8668937c-.8621864-.8621864-.8621864-2.2513618 0-3.1135483l21.8549061-21.8668918c.8621826-.8622589 2.2631989-.8622589 3.1255302 0l7.8197556 7.8198261-14.058979 14.0470657c-.8621865.8621865-.8621865 2.2513619 0 3.1135483z"/><path d="m21.8879986 51.5567741 14.0589771 14.058979-7.8197517 7.8079147c-.8503456.8622589-2.2515068.8622589-3.1136913 0l-21.8668926-21.8668937c-.862186-.8621864-.862186-2.2513618 0-3.1135483l21.8668925-21.8668918c.8621845-.8622589 2.2633457-.8622589 3.1136913 0l7.8197517 7.8198261-14.058977 14.0470658c-.8621865.8621864-.8621865 2.2513618 0 3.1135482z"/></g></svg>