<svg width="1260" height="1226" xmlns="http://www.w3.org/2000/svg" xmlns:xlink="http://www.w3.org/1999/xlink" xml:space="preserve" overflow="hidden"><defs><clipPath id="clip0"><rect x="2425" y="423" width="1260" height="1226"/></clipPath><linearGradient x1="17.2293" y1="1242.76" x2="1242.77" y2="-16.7644" gradientUnits="userSpaceOnUse" spreadMethod="reflect" id="fill1"><stop offset="0" stop-color="#56096E"/><stop offset="0.5" stop-color="#82239E"/><stop offset="1" stop-color="#AE3DCF"/></linearGradient></defs><g clip-path="url(#clip0)" transform="translate(-2425 -423)"><path d="M1260 92.7336 1260 266.457 656.696 266.457 656.696 0 1167.32 0C1218.45 0 1260 41.5884 1260 92.7336ZM1167.32 1226 984.227 1226 984.227 959.541 1260 959.541 1260 1133.27C1260 1184.41 1218.45 1226 1167.32 1226ZM0 1133.27 0 959.539 274.137 959.539 274.137 1226 92.6793 1226C41.5543 1226 0 1184.41 0 1133.27ZM92.6793 0 603.305 0 603.305 266.457 0 266.457 0 92.7336C0 41.5884 41.5543 0 92.6793 0ZM984.227 586.305 984.227 319.845 1260 319.845 1260 586.307 984.227 586.307ZM655.313 906.153 656.57 639.693 1260 639.693 1260 906.153ZM930.835 959.541 930.835 1226 327.531 1226 327.531 959.541ZM603.179 639.691 601.919 906.15 0 906.15 0 639.691ZM274.137 586.305 0 586.305 0 319.845 274.137 319.845ZM930.835 319.845 930.835 586.307 327.531 586.307 327.531 319.845Z" fill="url(#fill1)" fill-rule="evenodd" transform="matrix(-1 0 0 1 3685 423)"/></g></svg>