<svg width="661" height="441" xmlns="http://www.w3.org/2000/svg" xmlns:xlink="http://www.w3.org/1999/xlink" xml:space="preserve" overflow="hidden"><defs><clipPath id="clip0"><rect x="2386" y="1327" width="661" height="441"/></clipPath></defs><g clip-path="url(#clip0)" transform="translate(-2386 -1327)"><path d="M2516.22 1423.28 2532.71 1425.92C2546.26 1428.1 2558.48 1435.85 2566.28 1447.1L2609.55 1509.54C2585.96 1503.96 2558.23 1497.53 2525.74 1489.96L2506.94 1434.31C2505.97 1431.43 2506.54 1428.35 2508.48 1426.13 2510.42 1423.9 2513.33 1422.75 2516.22 1423.28ZM2414.46 1421.65 2436.47 1431.33C2438.82 1432.29 2440.58 1434.29 2441.25 1436.72L2456.73 1491.3C2488.47 1498.6 2666.95 1539.57 2725.68 1555.08 2772.86 1567.63 2783.55 1594 2785.77 1608.6 2786.67 1614.73 2784.94 1620.95 2781.06 1625.83 2777.23 1630.64 2771.48 1633.65 2765.41 1634.06 2729.16 1636.57 2658.1 1620.05 2642.05 1616.15L2505.82 1687.63C2495.58 1693.01 2483.75 1694.4 2472.51 1691.57L2453.64 1686.76C2452.52 1686.43 2451.5 1685.96 2450.57 1685.24 2449.1 1684.1 2448 1682.5 2447.52 1680.64 2446.84 1677.67 2447.75 1674.43 2450.07 1672.39L2539.9 1590.67C2517 1583.5 2471.2 1569.05 2441.48 1558.72 2418.42 1550.79 2404.21 1539.16 2396.37 1530.85 2387.54 1521.47 2384.04 1508.11 2387.07 1495.12L2402.9 1427.5C2403.49 1425.08 2405.09 1423.02 2407.35 1421.89 2409.6 1420.76 2412.18 1420.73 2414.46 1421.65Z" fill-rule="evenodd"/><path d="M2864.94 1583.39C2855.82 1583.39 2848.45 1590.74 2848.45 1599.85L2848.45 1628.04C2848.45 1637.14 2855.82 1644.5 2864.94 1644.5 2874.06 1644.5 2881.43 1637.14 2881.43 1628.04L2881.43 1599.85C2881.43 1590.74 2874.06 1583.39 2864.94 1583.39ZM2864.94 1507.4C2855.82 1507.4 2848.45 1514.76 2848.45 1523.86L2848.45 1552.05C2848.45 1561.15 2855.82 1568.51 2864.94 1568.51 2874.06 1568.51 2881.43 1561.15 2881.43 1552.05L2881.43 1523.86C2881.43 1514.76 2874.06 1507.4 2864.94 1507.4ZM2993.06 1431.43C2983.94 1431.43 2976.57 1438.79 2976.57 1447.89L2976.57 1476.06C2976.57 1485.16 2983.94 1492.52 2993.06 1492.52 3002.18 1492.52 3009.55 1485.16 3009.55 1476.06L3009.55 1447.89C3009.55 1438.79 3002.18 1431.43 2993.06 1431.43ZM2929 1431.43C2919.88 1431.43 2912.51 1438.79 2912.51 1447.89L2912.51 1476.06C2912.51 1485.16 2919.88 1492.52 2929 1492.52 2938.12 1492.52 2945.49 1485.16 2945.49 1476.06L2945.49 1447.89C2945.49 1438.79 2938.12 1431.43 2929 1431.43ZM2864.94 1431.43C2855.82 1431.43 2848.45 1438.79 2848.45 1447.89L2848.45 1476.06C2848.45 1485.16 2855.82 1492.52 2864.94 1492.52 2874.06 1492.52 2881.43 1485.16 2881.43 1476.06L2881.43 1447.89C2881.43 1438.79 2874.06 1431.43 2864.94 1431.43ZM2993.06 1355.44C2983.94 1355.44 2976.57 1362.8 2976.57 1371.9L2976.57 1400.09C2976.57 1409.19 2983.94 1416.55 2993.06 1416.55 3002.18 1416.55 3009.55 1409.19 3009.55 1400.09L3009.55 1371.9C3009.55 1362.8 3002.18 1355.44 2993.06 1355.44ZM2929 1355.44C2919.88 1355.44 2912.51 1362.8 2912.51 1371.9L2912.51 1400.09C2912.51 1409.19 2919.88 1416.55 2929 1416.55 2938.12 1416.55 2945.49 1409.19 2945.49 1400.09L2945.49 1371.9C2945.49 1362.8 2938.12 1355.44 2929 1355.44ZM2864.94 1355.44C2855.82 1355.44 2848.45 1362.8 2848.45 1371.9L2848.45 1400.09C2848.45 1409.19 2855.82 1416.55 2864.94 1416.55 2874.06 1416.55 2881.43 1409.19 2881.43 1400.09L2881.43 1371.9C2881.43 1362.8 2874.06 1355.44 2864.94 1355.44ZM2811 1327 3046.98 1327 3047 1327 3047 1618.97 3047 1618.97 3047 1656.97 3047 1768 2856.27 1768 2811 1768 2811 1656.97 2811 1656.97Z" fill-rule="evenodd"/></g></svg>