<svg width="550" height="180" xmlns="http://www.w3.org/2000/svg" xmlns:xlink="http://www.w3.org/1999/xlink" xml:space="preserve" overflow="hidden"><defs><clipPath id="clip0"><rect x="889" y="577" width="550" height="180"/></clipPath></defs><g clip-path="url(#clip0)" transform="translate(-889 -577)"><path d="M1081.28 739.581 1081.28 757 1063 757 1063 739.691 1066.06 739.917ZM1116.13 725.355 1124.78 740.385 1109.13 749.452 1100.42 734.326 1113.62 727.068ZM1028.05 725.355 1035.72 730.31 1043.86 734.468 1035.03 749.742 1019.21 740.629ZM1139.4 695.452 1154.66 704.193 1145.55 719.839 1130.29 711.097 1135.24 703.503ZM1004.74 695.452 1011.99 708.67 1013.7 711.179 998.684 719.839 989.626 704.167ZM915.134 666.4 915.134 700.623C915.134 707.149 919.218 710.435 927.385 710.483 937.713 710.483 944.727 708.744 948.426 705.267 952.126 701.79 953.975 696.979 953.975 690.835 953.975 683.691 951.585 677.832 946.805 673.26 942.025 668.687 934.855 666.4 925.294 666.4ZM1144.5 658 1161.91 658 1161.91 676.29 1144.61 676.29 1144.84 673.231ZM982.085 658 999.667 658 999.435 661.059 999.777 676.29 982.085 676.29ZM927.898 625.137C923.691 625.137 920.691 625.35 918.899 625.777 917.106 626.204 916.03 626.784 915.672 627.519 915.314 628.254 915.134 629.546 915.134 631.396L915.134 661.053 926.033 661.053C939.944 661.053 946.9 655.481 946.9 644.339 946.9 637.654 944.988 632.782 941.164 629.724 937.339 626.666 932.917 625.137 927.898 625.137ZM1277.38 619.789C1287.21 619.999 1293.06 620.104 1294.93 620.104 1298.6 620.104 1305.28 619.999 1314.98 619.789 1315.28 620.313 1315.43 621.217 1315.43 622.502 1315.43 623.787 1315.24 624.665 1314.86 625.137 1309 625.329 1305.28 626.132 1303.71 627.546 1302.14 628.96 1301.35 632.615 1301.35 638.511L1301.35 675.9C1301.35 680.022 1301.45 683.414 1301.64 686.074 1301.83 688.735 1302.53 691.779 1303.73 695.206 1304.94 698.634 1306.67 701.426 1308.92 703.582 1314.02 708.472 1319.86 710.941 1326.44 710.989 1331.25 710.989 1335.38 710.222 1338.84 708.688 1342.3 707.154 1344.97 705.285 1346.85 703.079 1348.72 700.874 1350.2 698.022 1351.28 694.523 1352.36 691.024 1353.02 687.836 1353.26 684.96 1353.5 682.084 1353.62 678.681 1353.62 674.749L1353.62 638.511C1353.62 635.347 1353.48 632.962 1353.19 631.356 1352.9 629.75 1352.12 628.504 1350.84 627.618 1349.57 626.731 1348.28 626.167 1346.98 625.928 1345.68 625.688 1343.37 625.424 1340.05 625.137 1339.67 624.717 1339.47 623.852 1339.47 622.541 1339.47 621.23 1339.67 620.313 1340.07 619.789 1349.93 619.999 1355.62 620.104 1357.16 620.104 1357.55 620.104 1362.58 619.999 1372.25 619.789 1372.63 620.313 1372.83 621.217 1372.83 622.502 1372.83 623.787 1372.63 624.665 1372.25 625.137 1368.69 625.52 1366.29 625.927 1365.07 626.359 1363.84 626.791 1362.84 627.917 1362.07 629.738 1361.3 631.56 1360.92 634.484 1360.92 638.511L1360.92 672.089C1360.92 679.045 1360.37 685.101 1359.29 690.257 1358.21 695.414 1356.31 700.078 1353.6 704.252 1350.88 708.425 1347.01 711.59 1341.99 713.749 1336.96 715.907 1330.75 716.987 1323.34 716.987 1319.48 716.987 1315.75 716.471 1312.15 715.44 1308.56 714.409 1304.87 712.669 1301.11 710.223 1297.34 707.776 1294.32 704.021 1292.05 698.96 1289.78 693.899 1288.65 687.842 1288.65 680.789L1288.65 638.511C1288.65 632.71 1287.95 629.079 1286.54 627.618 1285.14 626.156 1282.09 625.329 1277.38 625.137 1277 624.717 1276.81 623.852 1276.81 622.541 1276.81 621.23 1277 620.313 1277.38 619.789ZM1176.04 619.789 1196.03 620.077 1246.71 685.218C1247.39 686.082 1248.12 687.066 1248.92 688.17 1249.71 689.273 1250.31 690.063 1250.72 690.54 1251.13 691.016 1251.55 691.505 1251.99 692.005 1252.42 692.506 1252.78 692.851 1253.07 693.042 1253.36 693.232 1253.6 693.328 1253.79 693.328 1254.46 693.328 1254.82 691.85 1254.87 688.896L1254.87 640.004C1254.87 636.573 1254.72 633.964 1254.4 632.177 1254.09 630.39 1253.34 628.984 1252.17 627.959 1250.99 626.935 1249.76 626.28 1248.48 625.994 1247.21 625.709 1245.05 625.423 1242.02 625.137 1241.54 624.717 1241.29 623.852 1241.26 622.541 1241.24 621.23 1241.49 620.313 1242.02 619.789 1251.89 619.999 1257.35 620.104 1258.41 620.104 1259.81 620.104 1265.32 619.999 1274.94 619.789 1275.33 620.313 1275.52 621.217 1275.52 622.502 1275.52 623.787 1275.33 624.665 1274.94 625.137 1269.41 625.709 1265.88 626.769 1264.37 628.318 1262.85 629.866 1262.09 633.762 1262.09 640.004L1262.09 712.079C1262.09 715.351 1260.96 716.987 1258.7 716.987 1256.53 716.987 1254.56 715.723 1252.78 713.196L1201.16 648.368C1198.61 645.127 1196.94 643.519 1196.14 643.542 1195.35 643.566 1194.95 645.961 1194.95 650.727L1194.95 695.544C1194.95 698.974 1195.11 701.583 1195.42 703.37 1195.73 705.157 1196.48 706.563 1197.66 707.588 1198.84 708.612 1200.06 709.268 1201.34 709.553 1202.62 709.84 1204.77 710.149 1207.8 710.483 1208.19 711.015 1208.39 711.933 1208.42 713.237 1208.44 714.54 1208.23 715.405 1207.8 715.83 1197.94 715.617 1192.47 715.511 1191.41 715.511 1190.02 715.511 1184.51 715.617 1174.88 715.83 1174.4 715.405 1174.15 714.54 1174.12 713.237 1174.1 711.933 1174.35 711.015 1174.88 710.483 1180.42 709.911 1183.94 708.838 1185.46 707.266 1186.97 705.693 1187.73 701.786 1187.73 695.544L1187.73 634.501C1187.25 632.356 1185.93 630.307 1183.76 628.353 1181.59 626.399 1179.02 625.327 1176.04 625.137 1175.55 624.717 1175.31 623.852 1175.31 622.541 1175.31 621.23 1175.55 620.313 1176.04 619.789ZM889.719 619.789C899.549 619.993 905.879 620.095 908.708 620.095 910.873 620.095 914.072 620.044 918.305 619.942 922.538 619.84 925.497 619.789 927.181 619.789 948.124 619.789 958.596 627.38 958.596 642.562 958.596 646.364 957.27 650.024 954.619 653.541 951.969 657.058 948.702 659.792 944.821 661.74L944.821 662.047C951.437 664.021 956.734 667.175 960.713 671.509 964.692 675.843 966.681 681.356 966.681 688.049 966.681 691.549 966.107 694.843 964.959 697.929 963.811 701.016 961.948 703.957 959.37 706.752 956.792 709.547 953.032 711.759 948.087 713.387 943.143 715.016 937.25 715.83 930.408 715.83 925.506 715.83 921.085 715.782 917.145 715.685 913.204 715.588 910.441 715.539 908.854 715.539 905.689 715.539 899.311 715.636 889.719 715.83 889.24 715.405 889 714.54 889 713.237 889 711.933 889.238 711.015 889.714 710.483 895.19 710.292 898.678 709.48 900.178 708.048 901.678 706.617 902.428 702.965 902.428 697.093L902.428 638.309C902.428 632.438 901.678 628.799 900.178 627.391 898.678 625.983 895.19 625.184 889.714 624.992 889.238 624.584 889 623.742 889 622.467 889 621.192 889.24 620.299 889.719 619.789ZM1408.79 618.127C1414.43 618.127 1419.28 618.789 1423.36 620.113 1427.43 621.437 1430.14 622.201 1431.49 622.405 1432.84 629.193 1433.73 635.547 1434.16 641.468 1433.44 641.995 1431.83 642.283 1429.33 642.331 1428.84 640.796 1428.37 639.416 1427.92 638.193 1427.46 636.97 1426.89 635.686 1426.22 634.343 1425.54 632.999 1424.81 631.823 1424.01 630.816 1423.22 629.808 1422.26 628.825 1421.16 627.865 1420.05 626.905 1418.84 626.113 1417.54 625.49 1416.24 624.866 1414.73 624.374 1413.02 624.014 1411.31 623.655 1409.44 623.475 1407.42 623.475 1403.14 623.475 1399.39 625.178 1396.14 628.585 1392.9 631.991 1391.28 635.782 1391.28 639.956 1391.28 642.259 1391.81 644.431 1392.86 646.47 1393.92 648.509 1395.17 650.213 1396.61 651.58 1398.05 652.947 1399.94 654.303 1402.27 655.646 1404.6 656.989 1406.55 657.985 1408.14 658.632 1409.72 659.28 1411.69 660.06 1414.05 660.971 1416.4 661.883 1417.89 662.459 1418.51 662.699 1421.39 663.946 1423.97 665.278 1426.25 666.693 1428.53 668.109 1430.69 669.836 1432.72 671.876 1434.75 673.915 1436.31 676.326 1437.38 679.109 1438.46 681.891 1439 684.962 1439 688.321 1439 692.99 1437.74 697.467 1435.22 701.751 1432.7 706.035 1429.3 709.501 1425.03 712.149 1419.79 715.374 1413.66 716.987 1406.63 716.987 1401.78 716.987 1396.69 716.413 1391.37 715.265 1386.04 714.118 1381.93 713.544 1379.03 713.544 1377.6 707.345 1376.65 699.872 1376.19 691.127 1377.73 690.311 1379.34 690.168 1381.03 690.696 1384.22 704.658 1393.16 711.639 1407.85 711.639 1413.76 711.639 1418.31 710.092 1421.5 706.997 1424.7 703.903 1426.29 699.404 1426.29 693.503 1426.29 690.816 1425.87 688.357 1425.03 686.126 1424.19 683.895 1423.23 682.095 1422.15 680.728 1421.07 679.36 1419.53 678.041 1417.54 676.769 1415.55 675.498 1413.89 674.575 1412.57 673.999 1411.25 673.423 1409.37 672.667 1406.95 671.731 1404.52 670.796 1402.86 670.136 1401.95 669.752 1397.47 667.881 1393.71 665.926 1390.69 663.887 1387.67 661.848 1385.06 659.101 1382.87 655.646 1380.68 652.191 1379.58 648.305 1379.58 643.987 1379.58 636.314 1382.44 630.086 1388.16 625.302 1393.87 620.518 1400.75 618.127 1408.79 618.127ZM1145.31 614.161 1154.37 629.833 1139.26 638.549 1132 625.33 1130.29 622.821ZM998.73 614.161 1013.99 623.007 1009.04 630.692 1004.88 638.839 989.626 629.993ZM1109.26 584.548 1125.07 593.661 1116.23 608.936 1108.56 603.981 1100.42 599.823ZM1035.05 584.548 1043.86 599.674 1030.5 606.932 1027.96 608.645 1019.21 593.615ZM1063 577 1081.28 577 1081.28 594.598 1078.22 594.368 1063 594.71Z" fill="#0088B8" fill-rule="evenodd"/></g></svg>