<svg width="766" height="180" xmlns="http://www.w3.org/2000/svg" xmlns:xlink="http://www.w3.org/1999/xlink" xml:space="preserve" overflow="hidden"><defs><clipPath id="clip0"><rect x="1153" y="643" width="766" height="180"/></clipPath></defs><g clip-path="url(#clip0)" transform="translate(-1153 -643)"><path d="M1728.55 805.581 1728.55 823 1710.29 823 1710.29 805.691 1713.35 805.917ZM1763.37 791.355 1772.01 806.385 1756.37 815.452 1747.67 800.326 1760.86 793.068ZM1675.37 791.355 1683.04 796.31 1691.17 800.468 1682.34 815.742 1666.54 806.629ZM1786.61 761.452 1801.86 770.193 1792.76 785.839 1777.52 777.097 1782.46 769.503ZM1652.08 761.452 1659.32 774.67 1661.03 777.179 1646.03 785.839 1636.98 770.167ZM1791.72 724 1809.1 724 1809.1 742.29 1791.83 742.29 1792.05 739.231ZM1629.45 724 1647.02 724 1646.78 727.059 1647.13 742.29 1629.45 742.29ZM1486.28 699.375 1471.2 737.676C1471.06 737.965 1471.01 738.23 1471.06 738.471 1471.11 738.712 1471.2 738.904 1471.35 739.049 1471.49 739.193 1471.73 739.314 1472.07 739.41 1472.4 739.507 1472.8 739.567 1473.26 739.591 1473.71 739.615 1474.28 739.627 1474.95 739.627L1501.06 739.627 1487.21 699.375ZM1293.9 699.375 1278.83 737.676C1278.69 737.965 1278.64 738.23 1278.69 738.471 1278.73 738.712 1278.83 738.904 1278.97 739.049 1279.12 739.193 1279.36 739.314 1279.7 739.41 1280.03 739.507 1280.43 739.567 1280.89 739.591 1281.34 739.615 1281.91 739.627 1282.58 739.627L1308.69 739.627 1294.84 699.375ZM1541.8 685.789C1551.62 685.999 1557.94 686.104 1560.77 686.104 1563.95 686.104 1570.36 685.999 1580.01 685.789 1580.31 686.313 1580.46 687.217 1580.46 688.502 1580.46 689.787 1580.27 690.665 1579.89 691.137 1574.42 691.33 1570.94 692.136 1569.44 693.558 1567.94 694.979 1567.19 698.652 1567.19 704.578L1567.19 768.823C1567.19 771.087 1567.8 772.882 1569.03 774.206 1570.25 775.531 1571.94 776.194 1574.1 776.194L1584.9 776.194C1592.1 776.194 1597.49 774.495 1601.07 771.099 1604.64 767.702 1607.27 762.945 1608.95 756.826 1610.63 756.537 1612.24 756.778 1613.78 757.549 1612.82 765.974 1611.55 774.068 1609.96 781.83 1600.87 781.638 1595.01 781.541 1592.36 781.541L1560.92 781.541C1552.96 781.638 1546.59 781.734 1541.8 781.83 1541.32 781.405 1541.08 780.541 1541.08 779.237 1541.08 777.933 1541.32 777.015 1541.79 776.483 1547.26 776.292 1550.75 775.482 1552.25 774.053 1553.75 772.623 1554.5 768.978 1554.5 763.116L1554.5 704.431C1554.5 698.57 1553.75 694.937 1552.25 693.531 1550.75 692.125 1547.26 691.327 1541.79 691.137 1541.32 690.717 1541.08 689.852 1541.08 688.541 1541.08 687.23 1541.32 686.313 1541.8 685.789ZM1351.52 684.922C1361.48 685.693 1372.96 686.078 1385.96 686.078L1398.66 686.078C1411.75 686.078 1422.8 685.693 1431.8 684.922 1432.09 684.922 1432.23 685.062 1432.23 685.341 1432.33 691.628 1432.95 698.639 1434.11 706.372 1433 706.863 1431.34 707.108 1429.13 707.108 1427.93 701.41 1425.66 697.372 1422.33 694.993 1419 692.615 1414.43 691.426 1408.62 691.426L1405.38 691.426C1402.84 691.426 1401.08 692.677 1400.09 695.18 1399.11 697.683 1398.62 701.462 1398.62 706.517L1398.62 762.98C1398.62 768.901 1399.45 772.571 1401.1 773.991 1402.76 775.411 1406.68 776.242 1412.87 776.483 1413.35 777.015 1413.6 777.933 1413.62 779.237 1413.65 780.541 1413.39 781.405 1412.87 781.83 1402.99 781.618 1396.15 781.511 1392.35 781.511 1388.2 781.511 1381.27 781.618 1371.57 781.83 1371.28 781.405 1371.14 780.541 1371.14 779.237 1371.14 777.933 1371.33 777.015 1371.71 776.483 1377.85 776.29 1381.76 775.472 1383.43 774.027 1385.09 772.583 1385.93 768.901 1385.93 762.98L1385.93 706.083C1385.93 701.269 1385.41 697.623 1384.37 695.144 1383.34 692.665 1381.53 691.426 1378.93 691.426L1371.72 691.426C1366.62 691.426 1362.44 692.641 1359.17 695.07 1355.9 697.499 1353.59 701.656 1352.24 707.541 1350.17 707.541 1348.49 707.3 1347.19 706.818 1349.17 698.339 1350.39 691.185 1350.87 685.355 1350.87 685.066 1351.09 684.922 1351.52 684.922ZM1874.83 684.127C1881.65 684.127 1888.21 685.223 1894.52 687.417 1900.83 689.61 1905.07 690.707 1907.24 690.707 1908.11 700.033 1909.19 707.645 1910.49 713.541L1905.44 714.411C1903.17 706.776 1899.6 700.711 1894.74 696.216 1889.89 691.722 1882.55 689.475 1872.74 689.475 1862.58 689.475 1854.13 693.534 1847.39 701.653 1840.65 709.772 1837.28 720.259 1837.28 733.114 1837.28 738.118 1838.17 743.193 1839.95 748.341 1841.73 753.488 1844.25 758.275 1847.5 762.701 1850.75 767.127 1854.99 770.723 1860.21 773.489 1865.43 776.256 1871.2 777.639 1877.5 777.639 1886.79 777.639 1893.94 775.259 1898.95 770.5L1898.95 748.502C1898.95 745.761 1898.09 743.994 1896.38 743.201 1894.67 742.407 1891.53 741.818 1886.97 741.434 1886.59 740.952 1886.4 740.073 1886.4 738.796 1886.4 737.519 1886.54 736.616 1886.82 736.086 1896.18 736.279 1902.34 736.375 1905.29 736.375 1908.1 736.375 1912.43 736.279 1918.29 736.086 1918.76 736.568 1919 737.459 1919 738.76 1919 740.061 1918.76 740.952 1918.29 741.434 1915.98 741.626 1914.3 742.239 1913.24 743.273 1912.17 744.307 1911.64 746.05 1911.64 748.502L1911.64 765.09C1911.64 766.58 1912.44 767.951 1914.02 769.201 1903.26 778.391 1889.95 782.987 1874.11 782.987 1859.74 782.987 1847.89 778.434 1838.57 769.328 1829.25 760.223 1824.59 749.142 1824.59 736.086 1824.59 725.632 1827.05 716.382 1831.99 708.336 1836.92 700.29 1843.16 694.244 1850.71 690.197 1858.25 686.15 1866.29 684.127 1874.83 684.127ZM1493.56 684.127 1524 768.361C1524.58 770.133 1525.28 771.559 1526.13 772.637 1526.97 773.716 1528.12 774.518 1529.59 775.045 1531.05 775.572 1532.16 775.884 1532.91 775.98 1533.65 776.076 1535.11 776.244 1537.27 776.483 1537.75 777.015 1537.99 777.933 1537.99 779.237 1537.99 780.541 1537.75 781.405 1537.27 781.83 1529.96 781.618 1524.33 781.511 1520.39 781.511 1514.77 781.511 1508.32 781.618 1501.06 781.83 1500.68 781.405 1500.48 780.541 1500.48 779.237 1500.48 777.933 1500.68 777.015 1501.06 776.483 1501.64 776.483 1502.4 776.447 1503.33 776.376 1504.27 776.305 1504.99 776.246 1505.5 776.198 1506 776.151 1506.65 776.08 1507.45 775.985 1508.24 775.89 1508.83 775.795 1509.21 775.701 1509.6 775.607 1510.05 775.464 1510.58 775.274 1511.11 775.085 1511.48 774.848 1511.7 774.563 1511.92 774.279 1512.1 773.935 1512.24 773.532 1512.39 773.129 1512.43 772.691 1512.39 772.217 1512.34 771.744 1512.22 771.175 1512.03 770.511L1503.44 745.842 1472.28 745.842C1470.5 745.842 1469.29 746.02 1468.64 746.375 1467.99 746.73 1467.48 747.382 1467.09 748.331L1458.94 769.445C1458.84 770.393 1458.7 771.234 1458.51 771.968 1458.32 772.703 1458.59 773.319 1459.34 773.817 1460.08 774.314 1460.67 774.706 1461.1 774.99 1461.54 775.274 1462.35 775.535 1463.56 775.772 1464.76 776.009 1465.7 776.151 1466.37 776.198 1467.04 776.246 1467.98 776.34 1469.18 776.483 1469.57 777.015 1469.76 777.933 1469.76 779.237 1469.76 780.541 1469.57 781.405 1469.18 781.83 1461.87 781.618 1455.57 781.511 1450.29 781.511 1448.79 781.511 1444.4 781.618 1437.09 781.83 1436.61 781.405 1436.36 780.541 1436.36 779.237 1436.36 777.933 1436.61 777.015 1437.09 776.483 1440.84 776.195 1443.79 775.429 1445.96 774.183 1448.12 772.938 1450.09 770.207 1451.87 765.992L1485.41 687.09C1487.57 687.09 1490.29 686.102 1493.56 684.127ZM1301.19 684.127 1331.63 768.361C1332.2 770.133 1332.91 771.559 1333.75 772.637 1334.6 773.716 1335.75 774.518 1337.22 775.045 1338.68 775.572 1339.79 775.884 1340.53 775.98 1341.28 776.076 1342.73 776.244 1344.9 776.483 1345.38 777.015 1345.62 777.933 1345.62 779.237 1345.62 780.541 1345.38 781.405 1344.9 781.83 1337.59 781.618 1331.96 781.511 1328.02 781.511 1322.39 781.511 1315.95 781.618 1308.69 781.83 1308.31 781.405 1308.11 780.541 1308.11 779.237 1308.11 777.933 1308.31 777.015 1308.69 776.483 1309.27 776.483 1310.02 776.447 1310.96 776.376 1311.9 776.305 1312.62 776.246 1313.13 776.198 1313.63 776.151 1314.28 776.08 1315.07 775.985 1315.87 775.89 1316.46 775.795 1316.84 775.701 1317.22 775.607 1317.68 775.464 1318.21 775.274 1318.74 775.085 1319.11 774.848 1319.33 774.563 1319.54 774.279 1319.73 773.935 1319.87 773.532 1320.01 773.129 1320.06 772.691 1320.01 772.217 1319.97 771.744 1319.85 771.175 1319.65 770.511L1311.07 745.842 1279.91 745.842C1278.13 745.842 1276.92 746.02 1276.27 746.375 1275.62 746.73 1275.1 747.382 1274.72 748.331L1266.57 769.445C1266.47 770.393 1266.33 771.234 1266.14 771.968 1265.94 772.703 1266.22 773.319 1266.96 773.817 1267.71 774.314 1268.3 774.706 1268.73 774.99 1269.16 775.274 1269.98 775.535 1271.18 775.772 1272.39 776.009 1273.32 776.151 1274 776.198 1274.67 776.246 1275.61 776.34 1276.81 776.483 1277.19 777.015 1277.39 777.933 1277.39 779.237 1277.39 780.541 1277.19 781.405 1276.81 781.83 1269.5 781.618 1263.2 781.511 1257.91 781.511 1256.42 781.511 1252.02 781.618 1244.71 781.83 1244.23 781.405 1243.99 780.541 1243.99 779.237 1243.99 777.933 1244.23 777.015 1244.71 776.483 1248.46 776.195 1251.42 775.429 1253.59 774.183 1255.75 772.938 1257.72 770.207 1259.5 765.992L1293.04 687.09C1295.2 687.09 1297.92 686.102 1301.19 684.127ZM1199.7 684.127C1206.78 684.127 1213.7 685.199 1220.46 687.344 1227.23 689.488 1231.11 690.609 1232.12 690.705 1233.81 701.08 1234.89 708.729 1235.37 713.651 1233.49 714.616 1231.86 714.857 1230.46 714.375 1225.46 697.775 1214.67 689.475 1198.11 689.475 1189.5 689.475 1181.63 693.866 1174.5 702.648 1171.71 706.075 1169.55 710.274 1168.01 715.244 1166.46 720.215 1165.69 725.812 1165.69 732.037 1165.69 739.662 1166.87 746.78 1169.23 753.391 1171.59 760.002 1175.39 765.588 1180.64 770.148 1185.89 774.709 1192.15 776.989 1199.41 776.989 1206.3 776.989 1212.43 775.722 1217.82 773.188 1223.22 770.655 1228.51 766.517 1233.71 760.774 1235.2 760.774 1236.33 761.522 1237.1 763.019 1226.95 776.331 1214.43 782.987 1199.56 782.987 1189.56 782.987 1180.95 780.599 1173.72 775.822 1166.49 771.046 1161.23 765.099 1157.94 757.983 1154.65 750.866 1153 743.158 1153 734.86 1153 718.983 1158.14 706.258 1168.43 696.684 1177.43 688.313 1187.86 684.127 1199.7 684.127ZM1792.52 680.161 1801.57 695.833 1786.47 704.549 1779.23 691.33 1777.52 688.821ZM1646.08 680.161 1661.32 689.007 1656.38 696.692 1652.23 704.839 1636.98 695.993ZM1756.5 650.548 1772.3 659.661 1763.47 674.936 1755.8 669.981 1747.67 665.823ZM1682.37 650.548 1691.17 665.674 1677.82 672.932 1675.28 674.645 1666.54 659.615ZM1710.29 643 1728.55 643 1728.55 660.598 1725.49 660.368 1710.29 660.71Z" fill="#00B050" fill-rule="evenodd"/></g></svg>