<svg width="766" height="180" xmlns="http://www.w3.org/2000/svg" xmlns:xlink="http://www.w3.org/1999/xlink" xml:space="preserve" overflow="hidden"><defs><clipPath id="clip0"><rect x="919" y="967" width="766" height="180"/></clipPath></defs><g clip-path="url(#clip0)" transform="translate(-919 -967)"><path d="M1494.55 1129.58 1494.55 1147 1476.29 1147 1476.29 1129.69 1479.35 1129.92ZM1529.37 1115.35 1538.01 1130.39 1522.37 1139.45 1513.67 1124.33 1526.86 1117.07ZM1441.37 1115.35 1449.04 1120.31 1457.17 1124.47 1448.34 1139.74 1432.54 1130.63ZM1552.61 1085.45 1567.86 1094.19 1558.76 1109.84 1543.52 1101.1 1548.46 1093.5ZM1418.08 1085.45 1425.32 1098.67 1427.03 1101.18 1412.03 1109.84 1402.98 1094.17ZM1557.72 1048 1575.1 1048 1575.1 1066.29 1557.83 1066.29 1558.05 1063.23ZM1395.45 1048 1413.02 1048 1412.78 1051.06 1413.13 1066.29 1395.45 1066.29ZM1252.28 1023.37 1237.2 1061.68C1237.06 1061.96 1237.01 1062.23 1237.06 1062.47 1237.11 1062.71 1237.2 1062.9 1237.35 1063.05 1237.49 1063.19 1237.73 1063.31 1238.07 1063.41 1238.4 1063.51 1238.8 1063.57 1239.26 1063.59 1239.71 1063.62 1240.28 1063.63 1240.95 1063.63L1267.06 1063.63 1253.21 1023.37ZM1059.9 1023.37 1044.83 1061.68C1044.69 1061.96 1044.64 1062.23 1044.69 1062.47 1044.73 1062.71 1044.83 1062.9 1044.97 1063.05 1045.12 1063.19 1045.36 1063.31 1045.7 1063.41 1046.03 1063.51 1046.43 1063.57 1046.89 1063.59 1047.34 1063.62 1047.91 1063.63 1048.58 1063.63L1074.69 1063.63 1060.84 1023.37ZM1307.8 1009.79C1317.62 1010 1323.94 1010.1 1326.77 1010.1 1329.95 1010.1 1336.36 1010 1346.01 1009.79 1346.31 1010.31 1346.46 1011.22 1346.46 1012.5 1346.46 1013.79 1346.27 1014.66 1345.89 1015.14 1340.42 1015.33 1336.94 1016.14 1335.44 1017.56 1333.94 1018.98 1333.19 1022.65 1333.19 1028.58L1333.19 1092.82C1333.19 1095.09 1333.8 1096.88 1335.03 1098.21 1336.25 1099.53 1337.94 1100.19 1340.1 1100.19L1350.9 1100.19C1358.1 1100.19 1363.49 1098.5 1367.07 1095.1 1370.64 1091.7 1373.27 1086.95 1374.95 1080.83 1376.63 1080.54 1378.24 1080.78 1379.78 1081.55 1378.82 1089.97 1377.55 1098.07 1375.96 1105.83 1366.87 1105.64 1361.01 1105.54 1358.36 1105.54L1326.92 1105.54C1318.96 1105.64 1312.59 1105.73 1307.8 1105.83 1307.32 1105.41 1307.08 1104.54 1307.08 1103.24 1307.08 1101.93 1307.32 1101.02 1307.79 1100.48 1313.26 1100.29 1316.75 1099.48 1318.25 1098.05 1319.75 1096.62 1320.5 1092.98 1320.5 1087.12L1320.5 1028.43C1320.5 1022.57 1319.75 1018.94 1318.25 1017.53 1316.75 1016.13 1313.26 1015.33 1307.79 1015.14 1307.32 1014.72 1307.08 1013.85 1307.08 1012.54 1307.08 1011.23 1307.32 1010.31 1307.8 1009.79ZM1117.52 1008.92C1127.48 1009.69 1138.96 1010.08 1151.96 1010.08L1164.66 1010.08C1177.75 1010.08 1188.8 1009.69 1197.8 1008.92 1198.09 1008.92 1198.23 1009.06 1198.23 1009.34 1198.33 1015.63 1198.95 1022.64 1200.11 1030.37 1199 1030.86 1197.34 1031.11 1195.13 1031.11 1193.93 1025.41 1191.66 1021.37 1188.33 1018.99 1185 1016.61 1180.43 1015.43 1174.62 1015.43L1171.38 1015.43C1168.84 1015.43 1167.08 1016.68 1166.09 1019.18 1165.11 1021.68 1164.62 1025.46 1164.62 1030.52L1164.62 1086.98C1164.62 1092.9 1165.45 1096.57 1167.1 1097.99 1168.76 1099.41 1172.68 1100.24 1178.87 1100.48 1179.35 1101.02 1179.6 1101.93 1179.62 1103.24 1179.65 1104.54 1179.39 1105.41 1178.87 1105.83 1168.99 1105.62 1162.15 1105.51 1158.35 1105.51 1154.2 1105.51 1147.27 1105.62 1137.57 1105.83 1137.28 1105.41 1137.14 1104.54 1137.14 1103.24 1137.14 1101.93 1137.33 1101.02 1137.71 1100.48 1143.85 1100.29 1147.76 1099.47 1149.43 1098.03 1151.09 1096.58 1151.93 1092.9 1151.93 1086.98L1151.93 1030.08C1151.93 1025.27 1151.41 1021.62 1150.37 1019.14 1149.34 1016.66 1147.53 1015.43 1144.93 1015.43L1137.72 1015.43C1132.62 1015.43 1128.44 1016.64 1125.17 1019.07 1121.9 1021.5 1119.59 1025.66 1118.24 1031.54 1116.17 1031.54 1114.49 1031.3 1113.19 1030.82 1115.17 1022.34 1116.39 1015.18 1116.87 1009.36 1116.87 1009.07 1117.09 1008.92 1117.52 1008.92ZM1640.83 1008.13C1647.65 1008.13 1654.21 1009.22 1660.52 1011.42 1666.83 1013.61 1671.07 1014.71 1673.24 1014.71 1674.11 1024.03 1675.19 1031.64 1676.49 1037.54L1671.44 1038.41C1669.17 1030.78 1665.6 1024.71 1660.74 1020.22 1655.89 1015.72 1648.55 1013.47 1638.74 1013.47 1628.58 1013.47 1620.13 1017.53 1613.39 1025.65 1606.65 1033.77 1603.28 1044.26 1603.28 1057.11 1603.28 1062.12 1604.17 1067.19 1605.95 1072.34 1607.73 1077.49 1610.25 1082.28 1613.5 1086.7 1616.75 1091.13 1620.99 1094.72 1626.21 1097.49 1631.43 1100.26 1637.2 1101.64 1643.5 1101.64 1652.79 1101.64 1659.94 1099.26 1664.95 1094.5L1664.95 1072.5C1664.95 1069.76 1664.09 1067.99 1662.38 1067.2 1660.67 1066.41 1657.53 1065.82 1652.97 1065.43 1652.59 1064.95 1652.4 1064.07 1652.4 1062.8 1652.4 1061.52 1652.54 1060.62 1652.82 1060.09 1662.18 1060.28 1668.33 1060.38 1671.29 1060.38 1674.1 1060.38 1678.43 1060.28 1684.29 1060.09 1684.76 1060.57 1685 1061.46 1685 1062.76 1685 1064.06 1684.76 1064.95 1684.29 1065.43 1681.98 1065.63 1680.3 1066.24 1679.24 1067.27 1678.17 1068.31 1677.64 1070.05 1677.64 1072.5L1677.64 1089.09C1677.64 1090.58 1678.44 1091.95 1680.02 1093.2 1669.26 1102.39 1655.95 1106.99 1640.11 1106.99 1625.74 1106.99 1613.89 1102.43 1604.57 1093.33 1595.25 1084.22 1590.59 1073.14 1590.59 1060.09 1590.59 1049.63 1593.05 1040.38 1597.99 1032.34 1602.92 1024.29 1609.16 1018.24 1616.71 1014.2 1624.25 1010.15 1632.29 1008.13 1640.83 1008.13ZM1259.56 1008.13 1290 1092.36C1290.57 1094.13 1291.28 1095.56 1292.13 1096.64 1292.97 1097.72 1294.12 1098.52 1295.59 1099.05 1297.05 1099.57 1298.16 1099.88 1298.91 1099.98 1299.65 1100.08 1301.11 1100.24 1303.27 1100.48 1303.75 1101.02 1303.99 1101.93 1303.99 1103.24 1303.99 1104.54 1303.75 1105.41 1303.27 1105.83 1295.96 1105.62 1290.33 1105.51 1286.39 1105.51 1280.77 1105.51 1274.32 1105.62 1267.06 1105.83 1266.68 1105.41 1266.48 1104.54 1266.48 1103.24 1266.48 1101.93 1266.68 1101.02 1267.06 1100.48 1267.64 1100.48 1268.4 1100.45 1269.33 1100.38 1270.27 1100.31 1270.99 1100.25 1271.5 1100.2 1272 1100.15 1272.65 1100.08 1273.45 1099.98 1274.24 1099.89 1274.83 1099.8 1275.21 1099.7 1275.6 1099.61 1276.05 1099.46 1276.58 1099.27 1277.11 1099.08 1277.48 1098.85 1277.7 1098.56 1277.92 1098.28 1278.1 1097.93 1278.24 1097.53 1278.39 1097.13 1278.43 1096.69 1278.39 1096.22 1278.34 1095.74 1278.22 1095.17 1278.03 1094.51L1269.44 1069.84 1238.28 1069.84C1236.5 1069.84 1235.29 1070.02 1234.64 1070.37 1233.99 1070.73 1233.48 1071.38 1233.09 1072.33L1224.94 1093.44C1224.84 1094.39 1224.7 1095.23 1224.51 1095.97 1224.32 1096.7 1224.59 1097.32 1225.34 1097.82 1226.08 1098.31 1226.67 1098.71 1227.1 1098.99 1227.54 1099.27 1228.35 1099.54 1229.56 1099.77 1230.76 1100.01 1231.7 1100.15 1232.37 1100.2 1233.04 1100.25 1233.98 1100.34 1235.18 1100.48 1235.57 1101.02 1235.76 1101.93 1235.76 1103.24 1235.76 1104.54 1235.57 1105.41 1235.18 1105.83 1227.87 1105.62 1221.57 1105.51 1216.29 1105.51 1214.79 1105.51 1210.4 1105.62 1203.09 1105.83 1202.61 1105.41 1202.36 1104.54 1202.36 1103.24 1202.36 1101.93 1202.61 1101.02 1203.09 1100.48 1206.84 1100.2 1209.79 1099.43 1211.96 1098.18 1214.12 1096.94 1216.09 1094.21 1217.87 1089.99L1251.41 1011.09C1253.57 1011.09 1256.29 1010.1 1259.56 1008.13ZM1067.19 1008.13 1097.63 1092.36C1098.2 1094.13 1098.91 1095.56 1099.75 1096.64 1100.6 1097.72 1101.75 1098.52 1103.22 1099.05 1104.68 1099.57 1105.79 1099.88 1106.53 1099.98 1107.28 1100.08 1108.73 1100.24 1110.9 1100.48 1111.38 1101.02 1111.62 1101.93 1111.62 1103.24 1111.62 1104.54 1111.38 1105.41 1110.9 1105.83 1103.59 1105.62 1097.96 1105.51 1094.02 1105.51 1088.39 1105.51 1081.95 1105.62 1074.69 1105.83 1074.31 1105.41 1074.11 1104.54 1074.11 1103.24 1074.11 1101.93 1074.31 1101.02 1074.69 1100.48 1075.27 1100.48 1076.02 1100.45 1076.96 1100.38 1077.9 1100.31 1078.62 1100.25 1079.13 1100.2 1079.63 1100.15 1080.28 1100.08 1081.07 1099.98 1081.87 1099.89 1082.46 1099.8 1082.84 1099.7 1083.22 1099.61 1083.68 1099.46 1084.21 1099.27 1084.74 1099.08 1085.11 1098.85 1085.33 1098.56 1085.54 1098.28 1085.73 1097.93 1085.87 1097.53 1086.01 1097.13 1086.06 1096.69 1086.01 1096.22 1085.97 1095.74 1085.85 1095.17 1085.65 1094.51L1077.07 1069.84 1045.91 1069.84C1044.13 1069.84 1042.92 1070.02 1042.27 1070.37 1041.62 1070.73 1041.1 1071.38 1040.72 1072.33L1032.57 1093.44C1032.47 1094.39 1032.33 1095.23 1032.14 1095.97 1031.94 1096.7 1032.22 1097.32 1032.96 1097.82 1033.71 1098.31 1034.3 1098.71 1034.73 1098.99 1035.16 1099.27 1035.98 1099.54 1037.18 1099.77 1038.39 1100.01 1039.32 1100.15 1040 1100.2 1040.67 1100.25 1041.61 1100.34 1042.81 1100.48 1043.19 1101.02 1043.39 1101.93 1043.39 1103.24 1043.39 1104.54 1043.19 1105.41 1042.81 1105.83 1035.5 1105.62 1029.2 1105.51 1023.91 1105.51 1022.42 1105.51 1018.02 1105.62 1010.71 1105.83 1010.23 1105.41 1009.99 1104.54 1009.99 1103.24 1009.99 1101.93 1010.23 1101.02 1010.71 1100.48 1014.46 1100.2 1017.42 1099.43 1019.59 1098.18 1021.75 1096.94 1023.72 1094.21 1025.5 1089.99L1059.04 1011.09C1061.2 1011.09 1063.92 1010.1 1067.19 1008.13ZM965.704 1008.13C972.78 1008.13 979.699 1009.2 986.463 1011.34 993.226 1013.49 997.112 1014.61 998.122 1014.71 999.805 1025.08 1000.89 1032.73 1001.37 1037.65 999.493 1038.62 997.858 1038.86 996.463 1038.37 991.457 1021.77 980.675 1013.47 964.115 1013.47 955.498 1013.47 947.628 1017.87 940.504 1026.65 937.712 1030.08 935.545 1034.27 934.005 1039.24 932.464 1044.21 931.694 1049.81 931.694 1056.04 931.694 1063.66 932.873 1070.78 935.232 1077.39 937.591 1084 941.394 1089.59 946.641 1094.15 951.887 1098.71 958.145 1100.99 965.414 1100.99 972.297 1100.99 978.434 1099.72 983.825 1097.19 989.216 1094.65 994.511 1090.52 999.709 1084.77 1001.2 1084.77 1002.33 1085.52 1003.1 1087.02 992.945 1100.33 980.432 1106.99 965.559 1106.99 955.56 1106.99 946.947 1104.6 939.72 1099.82 932.494 1095.05 927.234 1089.1 923.94 1081.98 920.647 1074.87 919 1067.16 919 1058.86 919 1042.98 924.142 1030.26 934.426 1020.68 943.43 1012.31 953.857 1008.13 965.704 1008.13ZM1558.52 1004.16 1567.57 1019.83 1552.47 1028.55 1545.23 1015.33 1543.52 1012.82ZM1412.08 1004.16 1427.32 1013.01 1422.38 1020.69 1418.23 1028.84 1402.98 1019.99ZM1522.5 974.548 1538.3 983.661 1529.47 998.936 1521.8 993.98 1513.67 989.823ZM1448.37 974.548 1457.17 989.674 1443.82 996.932 1441.28 998.645 1432.54 983.615ZM1476.29 967 1494.55 967 1494.55 984.598 1491.49 984.368 1476.29 984.71Z" fill="#8707B5" fill-rule="evenodd"/></g></svg>