<svg width="654" height="180" xmlns="http://www.w3.org/2000/svg" xmlns:xlink="http://www.w3.org/1999/xlink" xml:space="preserve" overflow="hidden"><defs><clipPath id="clip0"><rect x="933" y="445" width="654" height="180"/></clipPath></defs><g clip-path="url(#clip0)" transform="translate(-933 -445)"><path d="M1431.53 607.581 1431.53 625 1413.26 625 1413.26 607.691 1416.32 607.917ZM1466.37 593.355 1475.02 608.385 1459.37 617.452 1450.66 602.326 1463.86 595.068ZM1378.32 593.355 1385.99 598.31 1394.13 602.467 1385.29 617.742 1369.48 608.629ZM1489.63 563.452 1504.88 572.193 1495.78 587.839 1480.53 579.097 1485.48 571.503ZM1355.01 563.452 1362.26 576.67 1363.97 579.179 1348.96 587.839 1339.91 572.167ZM1494.73 526 1512.13 526 1512.13 544.29 1494.84 544.29 1495.07 541.231ZM1332.37 526 1349.94 526 1349.71 529.059 1350.05 544.29 1332.37 544.29ZM1072.69 491.075C1069.13 491.075 1065.68 491.936 1062.34 493.657 1058.99 495.379 1055.89 497.902 1053.03 501.225 1050.16 504.549 1047.84 509.129 1046.06 514.963 1044.28 520.798 1043.39 527.374 1043.39 534.691 1043.39 548.225 1046.84 559.033 1053.75 567.116 1060.65 575.198 1068.89 579.239 1078.47 579.239 1087.13 579.239 1094.21 575.437 1099.72 567.833 1105.23 560.229 1107.98 550.019 1107.98 537.202 1107.98 522.807 1104.64 511.52 1097.95 503.342 1091.27 495.164 1082.84 491.075 1072.69 491.075ZM1208.97 487.389 1230.48 487.677 1261 562.488C1261.58 563.783 1261.97 564.43 1262.16 564.43 1262.46 564.43 1262.92 563.735 1263.55 562.345L1295.08 487.678 1314.49 487.389C1314.97 487.898 1315.22 488.798 1315.25 490.089 1315.27 491.38 1315.02 492.263 1314.49 492.737 1309.63 493.013 1306.65 493.773 1305.54 495.016 1304.43 496.259 1304.05 498.884 1304.38 502.891L1308.9 565.195C1309.07 567.599 1309.2 569.366 1309.28 570.496 1309.37 571.625 1309.59 572.737 1309.95 573.831 1310.31 574.925 1310.67 575.661 1311.03 576.04 1311.39 576.42 1312.04 576.788 1312.98 577.145 1313.92 577.502 1314.88 577.726 1315.87 577.815 1316.85 577.904 1318.28 577.993 1320.16 578.083 1320.64 578.615 1320.88 579.533 1320.88 580.837 1320.88 582.141 1320.64 583.005 1320.16 583.431 1313.66 583.218 1308.21 583.111 1303.78 583.111 1302.42 583.111 1297.04 583.218 1287.64 583.431 1287.16 583.005 1286.92 582.141 1286.92 580.837 1286.92 579.533 1287.16 578.615 1287.64 578.083 1289.57 577.991 1290.94 577.91 1291.75 577.84 1292.57 577.771 1293.46 577.575 1294.42 577.251 1295.39 576.927 1296 576.58 1296.27 576.21 1296.53 575.839 1296.79 575.134 1297.03 574.093 1297.28 573.052 1297.38 571.977 1297.33 570.867 1297.28 569.757 1297.17 568.115 1297.02 565.941L1293.25 504.083 1292.89 504.388 1259.61 582.425C1259.03 583.529 1258.33 584.057 1257.51 584.009 1256.4 584.009 1255.66 583.481 1255.27 582.425L1224.6 505.889 1224.31 505.584 1218.68 564.915C1218.3 569.374 1218.7 572.579 1219.88 574.53 1221.05 576.481 1223.92 577.665 1228.49 578.083 1228.88 578.615 1229.07 579.533 1229.07 580.837 1229.07 582.141 1228.88 583.005 1228.49 583.431 1222.58 583.218 1217.97 583.111 1214.68 583.111 1212.16 583.111 1207.94 583.218 1202.03 583.431 1201.64 583.005 1201.45 582.141 1201.45 580.837 1201.45 579.533 1201.64 578.615 1202.03 578.083 1206.07 577.759 1208.81 576.669 1210.25 574.815 1211.7 572.961 1212.63 569.763 1213.07 565.22L1219 504.229C1219.48 498.982 1219.24 495.824 1218.28 494.756 1217.32 493.689 1214.21 493.016 1208.97 492.737 1208.49 492.318 1208.25 491.453 1208.25 490.142 1208.25 488.831 1208.49 487.913 1208.97 487.389ZM1556.8 485.727C1562.43 485.727 1567.29 486.389 1571.36 487.713 1575.43 489.037 1578.14 489.802 1579.49 490.005 1580.84 496.793 1581.73 503.147 1582.16 509.068 1581.44 509.596 1579.83 509.884 1577.33 509.932 1576.85 508.396 1576.38 507.017 1575.92 505.794 1575.46 504.57 1574.9 503.287 1574.22 501.943 1573.55 500.599 1572.81 499.424 1572.02 498.416 1571.22 497.408 1570.27 496.425 1569.16 495.465 1568.05 494.505 1566.85 493.714 1565.55 493.09 1564.25 492.466 1562.74 491.974 1561.03 491.615 1559.32 491.255 1557.45 491.075 1555.43 491.075 1551.16 491.075 1547.4 492.778 1544.16 496.185 1540.92 499.591 1539.29 503.382 1539.29 507.556 1539.29 509.86 1539.82 512.031 1540.88 514.07 1541.94 516.109 1543.18 517.813 1544.62 519.18 1546.06 520.548 1547.95 521.903 1550.28 523.246 1552.61 524.59 1554.56 525.585 1556.15 526.233 1557.73 526.881 1559.7 527.66 1562.05 528.572 1564.41 529.483 1565.9 530.059 1566.52 530.299 1569.4 531.547 1571.98 532.878 1574.26 534.294 1576.53 535.71 1578.69 537.437 1580.72 539.476 1582.75 541.515 1584.31 543.926 1585.38 546.709 1586.46 549.492 1587 552.562 1587 555.921 1587 560.59 1585.74 565.067 1583.22 569.351 1580.7 573.635 1577.3 577.101 1573.04 579.75 1567.8 582.975 1561.67 584.587 1554.64 584.587 1549.79 584.587 1544.7 584.013 1539.38 582.866 1534.06 581.718 1529.95 581.144 1527.05 581.144 1525.62 574.945 1524.67 567.473 1524.21 558.727 1525.75 557.912 1527.36 557.768 1529.05 558.296 1532.23 572.258 1541.17 579.239 1555.86 579.239 1561.77 579.239 1566.32 577.692 1569.51 574.598 1572.7 571.503 1574.3 567.004 1574.3 561.103 1574.3 558.416 1573.88 555.957 1573.04 553.726 1572.2 551.495 1571.24 549.696 1570.16 548.328 1569.08 546.961 1567.54 545.641 1565.55 544.37 1563.55 543.098 1561.9 542.175 1560.58 541.599 1559.26 541.023 1557.39 540.267 1554.96 539.332 1552.54 538.396 1550.87 537.736 1549.96 537.352 1545.48 535.482 1541.73 533.527 1538.71 531.488 1535.69 529.448 1533.08 526.701 1530.89 523.246 1528.7 519.791 1527.6 515.905 1527.6 511.587 1527.6 503.914 1530.46 497.686 1536.17 492.902 1541.89 488.119 1548.76 485.727 1556.8 485.727ZM1163.58 485.727C1169.22 485.727 1174.07 486.389 1178.15 487.713 1182.22 489.037 1184.93 489.802 1186.28 490.005 1187.63 496.793 1188.52 503.147 1188.95 509.068 1188.23 509.596 1186.62 509.884 1184.11 509.932 1183.63 508.396 1183.16 507.017 1182.7 505.794 1182.25 504.57 1181.68 503.287 1181.01 501.943 1180.33 500.599 1179.6 499.424 1178.8 498.416 1178.01 497.408 1177.05 496.425 1175.95 495.465 1174.84 494.505 1173.63 493.714 1172.33 493.09 1171.03 492.466 1169.53 491.974 1167.81 491.615 1166.1 491.255 1164.24 491.075 1162.21 491.075 1157.94 491.075 1154.18 492.778 1150.94 496.185 1147.7 499.591 1146.08 503.382 1146.08 507.556 1146.08 509.86 1146.61 512.031 1147.66 514.07 1148.72 516.109 1149.97 517.813 1151.41 519.18 1152.85 520.548 1154.73 521.903 1157.06 523.246 1159.39 524.59 1161.35 525.585 1162.93 526.233 1164.52 526.881 1166.49 527.66 1168.84 528.572 1171.19 529.483 1172.68 530.059 1173.3 530.299 1176.18 531.547 1178.76 532.878 1181.04 534.294 1183.32 535.71 1185.47 537.437 1187.5 539.476 1189.54 541.515 1191.09 543.926 1192.17 546.709 1193.25 549.492 1193.78 552.562 1193.78 555.921 1193.78 560.59 1192.52 565.067 1190 569.351 1187.48 573.635 1184.09 577.101 1179.82 579.75 1174.58 582.975 1168.45 584.587 1161.42 584.587 1156.57 584.587 1151.49 584.013 1146.17 582.866 1140.84 581.718 1136.73 581.144 1133.83 581.144 1132.4 574.945 1131.46 567.473 1131 558.727 1132.54 557.912 1134.15 557.768 1135.83 558.296 1139.02 572.258 1147.96 579.239 1162.64 579.239 1168.55 579.239 1173.1 577.692 1176.29 574.598 1179.49 571.503 1181.08 567.004 1181.08 561.103 1181.08 558.416 1180.66 555.957 1179.82 553.726 1178.98 551.495 1178.02 549.696 1176.94 548.328 1175.86 546.961 1174.32 545.641 1172.33 544.37 1170.34 543.098 1168.68 542.175 1167.36 541.599 1166.04 541.023 1164.17 540.267 1161.74 539.332 1159.32 538.396 1157.65 537.736 1156.75 537.352 1152.26 535.482 1148.51 533.527 1145.49 531.488 1142.47 529.448 1139.86 526.701 1137.67 523.246 1135.48 519.791 1134.39 515.905 1134.39 511.587 1134.39 503.914 1137.24 497.686 1142.96 492.902 1148.67 488.119 1155.55 485.727 1163.58 485.727ZM1074.64 485.727C1088.35 485.727 1099.71 490.121 1108.71 498.907 1117.7 507.694 1122.2 519.526 1122.2 534.404 1122.2 546.745 1119.15 557.254 1113.04 565.931 1108.9 571.861 1103.62 576.452 1097.19 579.706 1090.77 582.96 1083.54 584.587 1075.51 584.587 1062.52 584.587 1051.56 580.247 1042.63 571.565 1033.71 562.884 1029.25 551.429 1029.25 537.202 1029.25 524.159 1032.61 513.017 1039.35 503.775 1043.49 498.097 1048.6 493.669 1054.69 490.492 1060.77 487.316 1067.42 485.727 1074.64 485.727ZM979.733 485.727C986.813 485.727 993.737 486.799 1000.5 488.944 1007.27 491.089 1011.16 492.209 1012.17 492.306 1013.86 502.68 1014.94 510.329 1015.42 515.251 1013.54 516.216 1011.91 516.457 1010.51 515.975 1005.5 499.375 994.713 491.075 978.143 491.075 969.521 491.075 961.645 495.466 954.517 504.249 951.723 507.676 949.556 511.874 948.014 516.844 946.473 521.815 945.702 527.413 945.702 533.637 945.702 541.262 946.882 548.38 949.242 554.991 951.602 561.603 955.408 567.188 960.658 571.749 965.908 576.309 972.17 578.589 979.443 578.589 986.33 578.589 992.471 577.322 997.866 574.789 1003.26 572.255 1008.56 568.117 1013.76 562.374 1015.25 562.374 1016.38 563.122 1017.15 564.619 1006.99 577.931 994.47 584.587 979.587 584.587 969.583 584.587 960.965 582.199 953.733 577.423 946.502 572.646 941.238 566.7 937.943 559.583 934.648 552.466 933 544.759 933 536.46 933 520.583 938.145 507.858 948.435 498.285 957.446 489.913 967.878 485.727 979.733 485.727ZM1495.54 482.161 1504.59 497.833 1489.49 506.548 1482.24 493.329 1480.53 490.821ZM1349.01 482.161 1364.26 491.007 1359.31 498.692 1355.16 506.839 1339.91 497.993ZM1459.5 452.548 1475.31 461.661 1466.47 476.936 1458.8 471.98 1450.66 467.823ZM1385.32 452.548 1394.13 467.674 1380.77 474.932 1378.23 476.645 1369.48 461.615ZM1413.26 445 1431.53 445 1431.53 462.598 1428.47 462.368 1413.26 462.71Z" fill="#7F7F7F" fill-rule="evenodd"/></g></svg>