<svg width="669" height="179" xmlns="http://www.w3.org/2000/svg" xmlns:xlink="http://www.w3.org/1999/xlink" xml:space="preserve" overflow="hidden"><defs><clipPath id="clip0"><rect x="1483" y="1372" width="669" height="179"/></clipPath></defs><g clip-path="url(#clip0)" transform="translate(-1483 -1372)"><path d="M1957.77 1533.68 1957.77 1551 1939.5 1551 1939.5 1533.79 1942.56 1534.01ZM1992.62 1519.53 2001.28 1534.48 1985.62 1543.49 1976.91 1528.45 1990.12 1521.23ZM1904.55 1519.53 1912.23 1524.46 1920.36 1528.59 1911.53 1543.78 1895.71 1534.72ZM2015.89 1489.79 2031.15 1498.49 2022.04 1514.05 2006.79 1505.35 2011.74 1497.8ZM1881.24 1489.79 1888.49 1502.94 1890.2 1505.43 1875.19 1514.05 1866.13 1498.46ZM2021 1452.55 2038.4 1452.55 2038.4 1470.74 2021.11 1470.74 2021.33 1467.7ZM1858.59 1452.55 1876.17 1452.55 1875.94 1455.59 1876.28 1470.74 1858.59 1470.74ZM1605.42 1419.87C1597.15 1419.87 1593.02 1422.25 1593.02 1427.01L1593.02 1497.32C1593.02 1499.93 1594.03 1501.83 1596.05 1502.99 1598.07 1504.16 1602.42 1504.74 1609.1 1504.74 1614.72 1504.74 1619.69 1504.18 1624.02 1503.06 1628.34 1501.95 1632.38 1500.08 1636.13 1497.46 1639.88 1494.84 1642.76 1491.05 1644.78 1486.08 1646.8 1481.1 1647.81 1475.05 1647.81 1467.91 1647.81 1461.96 1647.08 1456.26 1645.61 1450.81 1644.15 1445.36 1641.83 1440.25 1638.65 1435.47 1635.48 1430.68 1631.05 1426.89 1625.35 1424.08 1619.66 1421.27 1613.01 1419.87 1605.42 1419.87ZM2052.52 1414.55 2072.52 1414.84 2123.2 1479.62C2123.87 1480.48 2124.6 1481.45 2125.4 1482.55 2126.19 1483.65 2126.79 1484.43 2127.2 1484.91 2127.61 1485.38 2128.03 1485.87 2128.47 1486.37 2128.9 1486.86 2129.26 1487.21 2129.55 1487.4 2129.84 1487.59 2130.08 1487.68 2130.27 1487.68 2130.94 1487.68 2131.31 1486.21 2131.35 1483.27L2131.35 1434.65C2131.35 1431.24 2131.2 1428.65 2130.88 1426.87 2130.57 1425.09 2129.83 1423.7 2128.65 1422.68 2127.47 1421.66 2126.24 1421.01 2124.97 1420.72 2123.69 1420.44 2121.54 1420.15 2118.5 1419.87 2118.02 1419.45 2117.77 1418.59 2117.75 1417.29 2117.72 1415.98 2117.98 1415.07 2118.5 1414.55 2128.37 1414.76 2133.83 1414.86 2134.89 1414.86 2136.29 1414.86 2141.8 1414.76 2151.42 1414.55 2151.81 1415.07 2152 1415.97 2152 1417.25 2152 1418.53 2151.81 1419.4 2151.42 1419.87 2145.89 1420.44 2142.36 1421.49 2140.85 1423.03 2139.33 1424.57 2138.57 1428.45 2138.57 1434.65L2138.57 1506.33C2138.57 1509.58 2137.44 1511.21 2135.18 1511.21 2133.01 1511.21 2131.04 1509.95 2129.26 1507.44L2077.65 1442.97C2075.1 1439.75 2073.42 1438.15 2072.63 1438.17 2071.83 1438.2 2071.44 1440.58 2071.44 1445.32L2071.44 1489.89C2071.44 1493.3 2071.59 1495.89 2071.91 1497.67 2072.22 1499.45 2072.97 1500.84 2074.15 1501.86 2075.32 1502.88 2076.55 1503.53 2077.83 1503.82 2079.1 1504.1 2081.26 1504.41 2084.29 1504.74 2084.67 1505.27 2084.88 1506.18 2084.9 1507.48 2084.93 1508.78 2084.72 1509.64 2084.29 1510.06 2074.42 1509.85 2068.96 1509.74 2067.9 1509.74 2066.51 1509.74 2060.99 1509.85 2051.37 1510.06 2050.89 1509.64 2050.64 1508.78 2050.61 1507.48 2050.59 1506.18 2050.84 1505.27 2051.37 1504.74 2056.9 1504.17 2060.43 1503.11 2061.95 1501.54 2063.46 1499.98 2064.22 1496.09 2064.22 1489.89L2064.22 1429.18C2063.74 1427.05 2062.41 1425.01 2060.25 1423.07 2058.08 1421.12 2055.51 1420.06 2052.52 1419.87 2052.04 1419.45 2051.8 1418.59 2051.8 1417.29 2051.8 1415.98 2052.04 1415.07 2052.52 1414.55ZM1804.84 1414.55C1814.67 1414.76 1821 1414.86 1823.83 1414.86 1827.04 1414.86 1833.47 1414.76 1843.1 1414.55 1843.49 1415.07 1843.69 1415.97 1843.72 1417.25 1843.74 1418.53 1843.54 1419.4 1843.1 1419.87 1837.57 1420.06 1834.04 1420.85 1832.53 1422.25 1831.01 1423.65 1830.25 1427.26 1830.25 1433.09L1830.25 1491.45C1830.25 1497.28 1831.02 1500.89 1832.56 1502.29 1834.1 1503.69 1837.62 1504.5 1843.1 1504.74 1843.49 1505.27 1843.69 1506.18 1843.72 1507.48 1843.74 1508.78 1843.54 1509.64 1843.1 1510.06 1833.22 1509.85 1826.85 1509.74 1823.97 1509.74 1820.81 1509.74 1814.43 1509.85 1804.84 1510.06 1804.36 1509.64 1804.12 1508.78 1804.12 1507.48 1804.12 1506.18 1804.36 1505.27 1804.83 1504.74 1810.31 1504.55 1813.8 1503.75 1815.3 1502.32 1816.8 1500.9 1817.55 1497.28 1817.55 1491.45L1817.55 1433.09C1817.55 1427.26 1816.8 1423.65 1815.3 1422.25 1813.8 1420.85 1810.31 1420.06 1804.83 1419.87 1804.36 1419.45 1804.12 1418.59 1804.12 1417.29 1804.12 1415.98 1804.36 1415.07 1804.84 1414.55ZM1670.75 1414.55C1680.58 1414.76 1686.91 1414.86 1689.74 1414.86 1692.95 1414.86 1699.38 1414.76 1709.01 1414.55 1709.4 1415.07 1709.6 1415.97 1709.63 1417.25 1709.65 1418.53 1709.45 1419.4 1709.01 1419.87 1703.48 1420.06 1699.95 1420.85 1698.44 1422.25 1696.92 1423.65 1696.16 1427.26 1696.16 1433.09L1696.16 1491.45C1696.16 1497.28 1696.93 1500.89 1698.47 1502.29 1700.01 1503.69 1703.53 1504.5 1709.01 1504.74 1709.4 1505.27 1709.6 1506.18 1709.63 1507.48 1709.65 1508.78 1709.45 1509.64 1709.01 1510.06 1699.13 1509.85 1692.76 1509.74 1689.89 1509.74 1686.72 1509.74 1680.34 1509.85 1670.75 1510.06 1670.27 1509.64 1670.03 1508.78 1670.03 1507.48 1670.03 1506.18 1670.27 1505.27 1670.75 1504.74 1676.22 1504.55 1679.71 1503.75 1681.21 1502.32 1682.71 1500.9 1683.46 1497.28 1683.46 1491.45L1683.46 1433.09C1683.46 1427.26 1682.71 1423.65 1681.21 1422.25 1679.71 1420.85 1676.22 1420.06 1670.75 1419.87 1670.27 1419.45 1670.03 1418.59 1670.03 1417.29 1670.03 1415.98 1670.27 1415.07 1670.75 1414.55ZM1567.61 1414.55C1577.44 1414.75 1583.76 1414.86 1586.59 1414.86 1588.18 1414.86 1591.79 1414.8 1597.41 1414.7 1603.03 1414.6 1607.57 1414.55 1611.04 1414.55 1625.23 1414.55 1637.27 1419.42 1647.17 1429.17 1657.08 1438.92 1662.03 1450.66 1662.03 1464.41 1662.03 1473.04 1660.53 1480.48 1657.52 1486.73 1654.52 1492.99 1650.53 1497.73 1645.55 1500.97 1640.58 1504.2 1635.46 1506.52 1630.19 1507.94 1624.93 1509.35 1619.43 1510.06 1613.71 1510.06 1607.78 1510.06 1602.06 1510.01 1596.54 1509.91 1591.02 1509.81 1587.75 1509.75 1586.74 1509.75 1583.58 1509.75 1577.2 1509.86 1567.61 1510.06 1567.13 1509.65 1566.89 1508.83 1566.89 1507.58 1566.89 1506.34 1567.13 1505.46 1567.6 1504.96 1573.08 1504.77 1576.56 1503.96 1578.06 1502.53 1579.56 1501.1 1580.31 1497.46 1580.31 1491.61L1580.31 1433C1580.31 1427.15 1579.56 1423.52 1578.06 1422.12 1576.56 1420.71 1573.08 1419.92 1567.6 1419.73 1567.13 1419.32 1566.89 1418.48 1566.89 1417.21 1566.89 1415.95 1567.13 1415.06 1567.61 1414.55ZM1547.61 1414.26C1547.99 1414.26 1548.19 1414.41 1548.19 1414.69 1548.96 1418.01 1550.06 1425.05 1551.51 1435.81 1549.92 1436.6 1548.28 1436.84 1546.6 1436.55 1544.73 1430.52 1542.76 1426.28 1540.7 1423.83 1538.64 1421.38 1535.07 1420.16 1529.99 1420.16L1514.45 1420.16C1512.78 1420.16 1511.48 1420.78 1510.57 1422.03 1509.66 1423.28 1509.2 1424.86 1509.2 1426.77L1509.2 1456.88 1522.59 1456.88C1528.59 1456.88 1532.28 1456.28 1533.65 1455.08 1535.01 1453.89 1535.79 1451.06 1535.99 1446.62 1536.37 1446.13 1537.17 1445.88 1538.37 1445.88 1539.57 1445.88 1540.41 1446.13 1540.89 1446.61 1540.7 1452.55 1540.61 1456.83 1540.61 1459.43 1540.61 1461.21 1540.7 1465.52 1540.89 1472.36 1540.41 1472.92 1539.58 1473.19 1538.4 1473.19 1537.23 1473.19 1536.42 1472.95 1535.99 1472.46 1535.79 1469.77 1535.51 1467.84 1535.12 1466.67 1534.74 1465.5 1533.56 1464.46 1531.59 1463.55 1529.63 1462.65 1526.63 1462.2 1522.59 1462.2L1509.2 1462.2 1509.2 1498.06C1509.2 1502.32 1510.95 1504.45 1514.46 1504.45L1534.53 1504.45C1543.89 1504.45 1550.31 1497.97 1553.82 1485 1555.6 1484.61 1557.33 1484.85 1559.01 1485.72 1557.81 1493.41 1555.98 1501.52 1553.53 1510.06 1545.65 1509.87 1539.35 1509.77 1534.64 1509.77L1502.93 1509.77C1494.96 1509.87 1488.56 1509.96 1483.72 1510.06 1483.34 1509.64 1483.14 1508.78 1483.14 1507.48 1483.14 1506.18 1483.33 1505.27 1483.72 1504.74 1489.19 1504.55 1492.69 1503.75 1494.21 1502.32 1495.74 1500.9 1496.5 1497.28 1496.5 1491.45L1496.5 1433.09C1496.5 1427.26 1495.73 1423.65 1494.19 1422.25 1492.65 1420.85 1489.11 1420.06 1483.58 1419.87 1483.19 1419.45 1483 1418.59 1483 1417.28 1483 1415.96 1483.19 1415.06 1483.58 1414.55L1502.71 1414.84 1540.39 1414.84C1542.94 1414.84 1545.35 1414.65 1547.61 1414.26ZM1717.26 1413.69C1727.23 1414.46 1738.71 1414.84 1751.72 1414.84L1764.44 1414.84C1777.54 1414.84 1788.59 1414.46 1797.6 1413.69 1797.89 1413.69 1798.03 1413.83 1798.03 1414.11 1798.13 1420.36 1798.76 1427.33 1799.91 1435.02 1798.8 1435.51 1797.14 1435.75 1794.93 1435.75 1793.73 1430.09 1791.46 1426.07 1788.12 1423.7 1784.79 1421.34 1780.21 1420.16 1774.4 1420.16L1771.16 1420.16C1768.62 1420.16 1766.85 1421.4 1765.87 1423.89 1764.89 1426.38 1764.39 1430.14 1764.39 1435.16L1764.39 1491.31C1764.39 1497.2 1765.22 1500.85 1766.88 1502.26 1768.53 1503.68 1772.46 1504.5 1778.65 1504.74 1779.13 1505.27 1779.39 1506.18 1779.41 1507.48 1779.43 1508.78 1779.18 1509.64 1778.65 1510.06 1768.77 1509.85 1761.92 1509.74 1758.11 1509.74 1753.96 1509.74 1747.03 1509.85 1737.32 1510.06 1737.03 1509.64 1736.89 1508.78 1736.89 1507.48 1736.89 1506.18 1737.08 1505.27 1737.46 1504.74 1743.61 1504.55 1747.52 1503.74 1749.19 1502.3 1750.85 1500.86 1751.69 1497.2 1751.69 1491.31L1751.69 1434.73C1751.69 1429.95 1751.17 1426.32 1750.14 1423.85 1749.1 1421.39 1747.29 1420.16 1744.69 1420.16L1737.47 1420.16C1732.37 1420.16 1728.18 1421.36 1724.91 1423.78 1721.63 1426.2 1719.32 1430.33 1717.98 1436.18 1715.91 1436.18 1714.22 1435.94 1712.92 1435.46 1714.9 1427.03 1716.12 1419.92 1716.61 1414.12 1716.61 1413.83 1716.82 1413.69 1717.26 1413.69ZM2021.8 1408.95 2030.86 1424.54 2015.75 1433.21 2008.5 1420.06 2006.79 1417.57ZM1875.24 1408.95 1890.49 1417.75 1885.54 1425.39 1881.39 1433.49 1866.13 1424.7ZM1985.75 1379.51 2001.57 1388.57 1992.73 1403.76 1985.05 1398.83 1976.91 1394.7ZM1911.55 1379.51 1920.36 1394.55 1907 1401.77 1904.46 1403.47 1895.71 1388.52ZM1939.5 1372 1957.77 1372 1957.77 1389.5 1954.72 1389.27 1939.5 1389.61Z" fill="#F19B61" fill-rule="evenodd"/></g></svg>