<svg width="189" height="52" xmlns="http://www.w3.org/2000/svg" xmlns:xlink="http://www.w3.org/1999/xlink" xml:space="preserve" overflow="hidden"><defs><clipPath id="clip0"><rect x="433" y="166" width="189" height="52"/></clipPath></defs><g clip-path="url(#clip0)" transform="translate(-433 -166)"><path d="M193.742 88.4 188.458 88.4 188.458 83.3996 189.342 83.465 193.742 83.3677Z" fill="#EEB500" fill-rule="evenodd" transform="matrix(1.00377 0 0 1 371.207 129.6)"/><path d="M180.367 86.3032 175.794 83.6707 178.349 79.2581 180.569 80.6895 182.923 81.8906Z" fill="#EEB500" fill-rule="evenodd" transform="matrix(1.00377 0 0 1 371.207 129.6)"/><path d="M169.858 77.6645 167.239 73.1371 171.608 70.6194 173.705 74.4381 174.2 75.1627Z" fill="#EEB500" fill-rule="evenodd" transform="matrix(1.00377 0 0 1 371.207 129.6)"/><path d="M170.174 65.0839 165.058 65.0839 165.058 59.8 170.142 59.8 170.075 60.6838Z" fill="#EEB500" fill-rule="evenodd" transform="matrix(1.00377 0 0 1 371.207 129.6)"/><path d="M171.651 54.2645 167.239 51.7091 169.871 47.1355 174.284 49.6909 172.852 51.911Z" fill="#EEB500" fill-rule="evenodd" transform="matrix(1.00377 0 0 1 371.207 129.6)"/><path d="M178.325 45.5419 175.794 41.1999 180.375 38.5806 182.923 42.9503 179.059 45.0471Z" fill="#EEB500" fill-rule="evenodd" transform="matrix(1.00377 0 0 1 371.207 129.6)"/><path d="M188.458 41.5161 188.458 36.4 193.742 36.4 193.742 41.4838 192.858 41.4174Z" fill="#EEB500" fill-rule="evenodd" transform="matrix(1.00377 0 0 1 371.207 129.6)"/><path d="M203.851 45.6258 201.631 44.1944 199.277 42.9933 201.833 38.5806 206.406 41.2132Z" fill="#EEB500" fill-rule="evenodd" transform="matrix(1.00377 0 0 1 371.207 129.6)"/><path d="M210.508 54.1806 208.411 50.3618 207.916 49.6373 212.258 47.1355 214.877 51.6629Z" fill="#EEB500" fill-rule="evenodd" transform="matrix(1.00377 0 0 1 371.207 129.6)"/><path d="M217.058 65.0839 212.058 65.0839 212.123 64.2001 212.026 59.8 217.058 59.8Z" fill="#EEB500" fill-rule="evenodd" transform="matrix(1.00377 0 0 1 371.207 129.6)"/><path d="M212.329 77.6645 207.916 75.1392 209.348 72.9452 210.549 70.6194 214.961 73.1447Z" fill="#EEB500" fill-rule="evenodd" transform="matrix(1.00377 0 0 1 371.207 129.6)"/><path d="M201.795 86.2194 199.277 81.8498 203.096 79.7529 203.821 79.2581 206.323 83.6002Z" fill="#EEB500" fill-rule="evenodd" transform="matrix(1.00377 0 0 1 371.207 129.6)"/><path d="M150.741 48.3796C153.64 48.4414 155.506 48.4724 156.341 48.4724 157.288 48.4724 159.183 48.4414 162.025 48.3796 162.139 48.5339 162.199 48.8 162.206 49.1782 162.213 49.5563 162.153 49.8149 162.025 49.9539 160.393 50.0099 159.353 50.2449 158.906 50.6587 158.459 51.0726 158.235 52.1422 158.235 53.8677L158.235 71.1438C158.235 72.8694 158.462 73.9391 158.917 74.3528 159.371 74.7666 160.407 75.0086 162.025 75.0789 162.139 75.2355 162.199 75.5058 162.206 75.8896 162.213 76.2734 162.153 76.528 162.025 76.6531 159.111 76.5905 157.23 76.559 156.383 76.559 155.451 76.559 153.569 76.5905 150.741 76.6531 150.6 76.528 150.529 76.2734 150.529 75.8896 150.529 75.5058 150.599 75.2355 150.74 75.0789 152.354 75.0228 153.383 74.7843 153.825 74.3635 154.267 73.9427 154.489 72.8694 154.489 71.1438L154.489 53.8677C154.489 52.1422 154.267 51.0726 153.825 50.6587 153.383 50.2449 152.354 50.0099 150.74 49.9539 150.599 49.8305 150.529 49.5758 150.529 49.1898 150.529 48.8039 150.6 48.5339 150.741 48.3796ZM82.6156 48.3796C85.514 48.4414 87.381 48.4724 88.2147 48.4724 89.1624 48.4724 91.057 48.4414 93.8994 48.3796 94.0135 48.5339 94.073 48.8 94.0806 49.1782 94.0873 49.5563 94.0269 49.8149 93.8994 49.9539 92.2673 50.0099 91.2281 50.2449 90.7811 50.6587 90.3332 51.0726 90.1101 52.1422 90.1101 53.8677L90.1101 71.1438C90.1101 72.8694 90.3374 73.9391 90.7912 74.3528 91.2458 74.7666 92.2816 75.0086 93.8994 75.0789 94.0135 75.2355 94.073 75.5058 94.0806 75.8896 94.0873 76.2734 94.0269 76.528 93.8994 76.6531 90.9857 76.5905 89.1054 76.559 88.2583 76.559 87.3248 76.559 85.4444 76.5905 82.6156 76.6531 82.4741 76.528 82.4034 76.2734 82.4034 75.8896 82.4034 75.5058 82.4735 75.2355 82.614 75.0789 84.2291 75.0228 85.2574 74.7843 85.6994 74.3635 86.1422 73.9427 86.3636 72.8694 86.3636 71.1438L86.3636 53.8677C86.3636 52.1422 86.1422 51.0726 85.6994 50.6587 85.2574 50.2449 84.2291 50.0099 82.614 49.9539 82.4735 49.8305 82.4034 49.5758 82.4034 49.1898 82.4034 48.8039 82.4741 48.5339 82.6156 48.3796ZM80.5513 48.2946C80.6506 48.2946 80.7074 48.337 80.7215 48.4222 81.0338 50.0957 81.346 52.2018 81.6583 54.7406 81.2751 54.8825 80.828 54.9534 80.3171 54.9534 79.9635 53.778 79.5853 52.8744 79.1825 52.2427 78.7795 51.611 78.1291 51.0859 77.2313 50.667 76.3334 50.2484 75.1495 50.0389 73.6791 50.0389L70.8373 50.0389C69.7911 50.0389 69.275 50.5464 69.2893 51.5612L69.2893 60.9102 73.3236 60.9102C75.0929 60.9102 76.1793 60.733 76.5827 60.3785 76.9862 60.0239 77.2232 59.1886 77.294 57.8722 77.4075 57.7275 77.6382 57.6552 77.9859 57.6552 78.3336 57.6552 78.5784 57.7267 78.7203 57.8696 78.6637 59.6287 78.6352 60.8944 78.6352 61.6666 78.6352 62.1821 78.6637 63.4359 78.7203 65.428 78.5784 65.6356 78.3336 65.7395 77.9859 65.7395 77.6382 65.7395 77.4075 65.667 77.294 65.5224 77.2375 64.7268 77.149 64.1553 77.0287 63.8081 76.9083 63.4609 76.558 63.1534 75.9775 62.8859 75.3971 62.6183 74.5125 62.4845 73.3236 62.4845L69.2893 62.4845 69.2893 71.1471C69.2893 72.8712 69.5105 73.94 69.9528 74.3535 70.3951 74.767 71.4235 75.0087 73.0385 75.0789 73.1788 75.2355 73.2491 75.5058 73.2491 75.8896 73.2491 76.2734 73.1888 76.528 73.0687 76.6531 70.1535 76.5905 68.2764 76.559 67.4375 76.559 66.5041 76.559 64.616 76.5905 61.7736 76.6531 61.6604 76.528 61.6039 76.2734 61.6039 75.8896 61.6039 75.5058 61.6601 75.2355 61.7726 75.0789 63.3872 75.0228 64.4192 74.7843 64.8685 74.3635 65.3176 73.9427 65.5424 72.8694 65.5424 71.1438L65.5424 53.8677C65.5424 52.1422 65.3152 51.0726 64.861 50.6587 64.4069 50.2449 63.3638 50.0099 61.7316 49.9539 61.6181 49.8298 61.5613 49.5738 61.5613 49.186 61.5613 48.7981 61.6181 48.5294 61.7316 48.3796L67.3732 48.4647 78.5074 48.4647C79.2739 48.4647 79.955 48.408 80.5513 48.2946ZM125.386 48.1243C128.327 48.3512 131.715 48.4647 135.55 48.4647L139.3 48.4647C143.164 48.4647 146.424 48.3512 149.081 48.1243 149.166 48.1243 149.209 48.1655 149.209 48.2477 149.237 50.0986 149.422 52.1624 149.763 54.4391 149.436 54.5835 148.946 54.6555 148.293 54.6555 147.939 52.9782 147.271 51.7894 146.286 51.0893 145.302 50.3892 143.954 50.0389 142.24 50.0389L141.285 50.0389C140.534 50.0389 140.014 50.4075 139.724 51.1443 139.433 51.8811 139.288 52.9936 139.288 54.4817L139.288 71.104C139.288 72.8469 139.532 73.9272 140.021 74.3453 140.509 74.7635 141.666 75.0079 143.493 75.0789 143.635 75.2355 143.71 75.5058 143.716 75.8896 143.723 76.2734 143.649 76.528 143.493 76.6531 140.579 76.5905 138.56 76.559 137.436 76.559 136.211 76.559 134.168 76.5905 131.305 76.6531 131.219 76.528 131.177 76.2734 131.177 75.8896 131.177 75.5058 131.233 75.2355 131.345 75.0789 133.159 75.0221 134.311 74.7812 134.803 74.356 135.296 73.9308 135.541 72.8469 135.541 71.104L135.541 54.354C135.541 52.9368 135.389 51.8634 135.083 51.1336 134.778 50.4039 134.242 50.0389 133.476 50.0389L131.347 50.0389C129.842 50.0389 128.608 50.3966 127.643 51.1117 126.678 51.8267 125.997 53.0507 125.599 54.7832 124.989 54.7832 124.492 54.7122 124.109 54.5705 124.691 52.0742 125.052 49.9681 125.195 48.252 125.195 48.1669 125.259 48.1243 125.386 48.1243ZM110.772 47.8903C112.86 47.8903 114.903 48.2059 116.899 48.8373 118.895 49.4687 120.043 49.7985 120.341 49.8269 120.837 52.8811 121.157 55.1327 121.298 56.5819 120.745 56.866 120.263 56.9369 119.851 56.795 118.374 51.9081 115.191 49.4646 110.303 49.4646 107.76 49.4646 105.437 50.7574 103.334 53.3429 102.51 54.3516 101.871 55.5877 101.415 57.0508 100.961 58.5142 100.733 60.1621 100.733 61.9945 100.733 64.2391 101.081 66.3346 101.777 68.2809 102.474 70.2271 103.597 71.8716 105.145 73.214 106.694 74.5565 108.541 75.2277 110.686 75.2277 112.718 75.2277 114.529 74.8548 116.121 74.1091 117.712 73.3632 119.275 72.145 120.809 70.4544 121.249 70.4544 121.583 70.6747 121.81 71.1152 118.812 75.0341 115.119 76.9936 110.729 76.9936 107.778 76.9936 105.235 76.2904 103.103 74.8844 100.969 73.4783 99.4165 71.7277 98.4444 69.6326 97.4723 67.5376 96.9867 65.2685 96.9867 62.8256 96.9867 58.1517 98.5039 54.4055 101.54 51.587 104.198 49.1226 107.275 47.8903 110.772 47.8903Z" fill="#EEB500" fill-rule="evenodd" transform="matrix(1.00377 0 0 1 371.207 129.6)"/><path d="M220.557 48.1419 226.446 48.2266 241.37 67.394C241.568 67.6483 241.784 67.9378 242.018 68.2626 242.252 68.5873 242.429 68.8197 242.55 68.96 242.67 69.1002 242.794 69.244 242.921 69.3912 243.049 69.5386 243.155 69.6402 243.24 69.6962 243.326 69.7523 243.396 69.7803 243.453 69.7803 243.651 69.7803 243.758 69.3455 243.772 68.4761L243.772 54.0902C243.772 53.0806 243.726 52.3129 243.633 51.787 243.541 51.2612 243.321 50.8476 242.974 50.5461 242.627 50.2447 242.265 50.0519 241.891 49.9678 241.515 49.8838 240.881 49.7996 239.988 49.7154 239.846 49.5922 239.772 49.3375 239.764 48.9518 239.758 48.566 239.832 48.2961 239.988 48.1419 242.893 48.2037 244.501 48.2347 244.813 48.2347 245.224 48.2347 246.847 48.2037 249.681 48.1419 249.795 48.2961 249.852 48.5621 249.852 48.9402 249.852 49.3181 249.795 49.5765 249.681 49.7154 248.052 49.8838 247.013 50.1958 246.567 50.6514 246.121 51.107 245.898 52.2534 245.898 54.0902L245.898 75.2979C245.898 76.2606 245.564 76.7419 244.898 76.7419 244.261 76.7419 243.68 76.3701 243.155 75.6265L227.955 56.5512C227.204 55.5976 226.712 55.1243 226.478 55.1312 226.244 55.1383 226.127 55.843 226.127 57.2453L226.127 70.4326C226.127 71.4418 226.173 72.2095 226.265 72.7353 226.358 73.2612 226.577 73.6749 226.925 73.9763 227.272 74.2778 227.633 74.4705 228.008 74.5547 228.384 74.6388 229.018 74.73 229.911 74.8282 230.025 74.9847 230.085 75.2549 230.092 75.6385 230.099 76.0222 230.039 76.2766 229.911 76.4016 227.006 76.339 225.397 76.3076 225.085 76.3076 224.674 76.3076 223.051 76.339 220.217 76.4016 220.076 76.2766 220.001 76.0222 219.994 75.6385 219.987 75.2549 220.061 74.9847 220.217 74.8282 221.847 74.6598 222.885 74.3444 223.332 73.8816 223.778 73.4188 224.001 72.2693 224.001 70.4326L224.001 52.4708C223.859 51.8397 223.47 51.2368 222.832 50.6618 222.194 50.0869 221.436 49.7715 220.557 49.7154 220.415 49.5922 220.345 49.3375 220.345 48.9518 220.345 48.566 220.415 48.2961 220.557 48.1419Z" fill="#EEB500" fill-rule="evenodd" transform="matrix(1.00377 0 0 1 371.207 129.6)"/></g></svg>