<svg width="108" height="52" xmlns="http://www.w3.org/2000/svg" xmlns:xlink="http://www.w3.org/1999/xlink" xml:space="preserve" overflow="hidden"><defs><clipPath id="clip0"><rect x="502" y="388" width="108" height="52"/></clipPath></defs><g clip-path="url(#clip0)" transform="translate(-502 -388)"><path d="M193.742 88.4 188.458 88.4 188.458 83.3996 189.342 83.465 193.742 83.3677Z" fill="#00B0F0" fill-rule="evenodd" transform="matrix(1.00366 0 0 1 392.148 351.6)"/><path d="M180.367 86.3032 175.794 83.6707 178.349 79.2581 180.569 80.6895 182.923 81.8906Z" fill="#00B0F0" fill-rule="evenodd" transform="matrix(1.00366 0 0 1 392.148 351.6)"/><path d="M169.858 77.6645 167.239 73.1371 171.608 70.6194 173.705 74.4381 174.2 75.1627Z" fill="#00B0F0" fill-rule="evenodd" transform="matrix(1.00366 0 0 1 392.148 351.6)"/><path d="M170.174 65.0839 165.058 65.0839 165.058 59.8 170.142 59.8 170.075 60.6838Z" fill="#00B0F0" fill-rule="evenodd" transform="matrix(1.00366 0 0 1 392.148 351.6)"/><path d="M171.651 54.2645 167.239 51.7091 169.871 47.1355 174.284 49.6909 172.852 51.911Z" fill="#00B0F0" fill-rule="evenodd" transform="matrix(1.00366 0 0 1 392.148 351.6)"/><path d="M178.325 45.5419 175.794 41.1999 180.375 38.5806 182.923 42.9503 179.059 45.0471Z" fill="#00B0F0" fill-rule="evenodd" transform="matrix(1.00366 0 0 1 392.148 351.6)"/><path d="M188.458 41.5161 188.458 36.4 193.742 36.4 193.742 41.4838 192.858 41.4174Z" fill="#00B0F0" fill-rule="evenodd" transform="matrix(1.00366 0 0 1 392.148 351.6)"/><path d="M203.851 45.6258 201.631 44.1944 199.277 42.9933 201.833 38.5806 206.406 41.2132Z" fill="#00B0F0" fill-rule="evenodd" transform="matrix(1.00366 0 0 1 392.148 351.6)"/><path d="M210.508 54.1806 208.411 50.3618 207.916 49.6373 212.258 47.1355 214.877 51.6629Z" fill="#00B0F0" fill-rule="evenodd" transform="matrix(1.00366 0 0 1 392.148 351.6)"/><path d="M217.058 65.0839 212.058 65.0839 212.123 64.2001 212.026 59.8 217.058 59.8Z" fill="#00B0F0" fill-rule="evenodd" transform="matrix(1.00366 0 0 1 392.148 351.6)"/><path d="M212.329 77.6645 207.916 75.1392 209.348 72.9452 210.549 70.6194 214.961 73.1447Z" fill="#00B0F0" fill-rule="evenodd" transform="matrix(1.00366 0 0 1 392.148 351.6)"/><path d="M201.795 86.2194 199.277 81.8498 203.096 79.7529 203.821 79.2581 206.323 83.6002Z" fill="#00B0F0" fill-rule="evenodd" transform="matrix(1.00366 0 0 1 392.148 351.6)"/><path d="M157.333 48.9655C157.447 48.9655 157.503 49.008 157.503 49.0932 157.73 50.0757 158.057 52.1596 158.483 55.345 158.015 55.5772 157.531 55.6495 157.035 55.5624 156.483 53.7781 155.904 52.5233 155.295 51.798 154.688 51.0727 153.635 50.7099 152.136 50.7099L147.555 50.7099C147.06 50.7099 146.679 50.8948 146.409 51.2644 146.141 51.6341 146.007 52.1016 146.007 52.6668L146.007 61.5812 149.956 61.5812C151.725 61.5812 152.811 61.404 153.215 61.0494 153.619 60.6949 153.849 59.8596 153.905 58.5432 154.019 58.3985 154.253 58.3261 154.608 58.3261 154.963 58.3261 155.211 58.3976 155.353 58.5406 155.296 60.2997 155.268 61.5655 155.268 62.3376 155.268 62.862 155.296 64.1376 155.353 66.1645 155.211 66.3284 154.966 66.4105 154.619 66.4105 154.271 66.4105 154.033 66.338 153.905 66.1933 153.849 65.3978 153.764 64.8263 153.65 64.4791 153.537 64.1319 153.19 63.8244 152.61 63.5568 152.03 63.2892 151.145 63.1554 149.956 63.1554L146.007 63.1554 146.007 73.7732C146.007 75.0342 146.523 75.6647 147.556 75.6647L153.476 75.6647C156.236 75.6647 158.131 73.7446 159.164 69.9043 159.689 69.7898 160.2 69.8614 160.697 70.1194 160.342 72.3947 159.803 74.7962 159.079 77.324 156.754 77.2674 154.898 77.239 153.509 77.239L144.155 77.239C141.807 77.2674 139.919 77.2957 138.49 77.324 138.378 77.199 138.321 76.9444 138.321 76.5605 138.321 76.1767 138.377 75.9064 138.489 75.7497 140.104 75.6937 141.136 75.4553 141.586 75.0345 142.035 74.6136 142.259 73.5404 142.259 71.8148L142.259 54.5387C142.259 52.8132 142.032 51.7435 141.578 51.3297 141.124 50.9159 140.081 50.6809 138.448 50.6249 138.335 50.5007 138.278 50.2448 138.278 49.8569 138.278 49.4691 138.335 49.2004 138.448 49.0506L144.09 49.1356 155.204 49.1356C155.956 49.1356 156.666 49.0789 157.333 48.9655ZM124.283 48.5613C126.295 48.5613 128.231 48.884 130.094 49.5298 131.956 50.1754 133.208 50.4982 133.85 50.4982 134.105 53.2439 134.425 55.4847 134.808 57.2206L133.318 57.4765C132.647 55.2287 131.594 53.4433 130.16 52.1202 128.727 50.7971 126.561 50.1356 123.664 50.1356 120.666 50.1356 118.173 51.3305 116.183 53.7208 114.194 56.1109 113.199 59.1981 113.199 62.9826 113.199 64.4555 113.461 65.9498 113.987 67.465 114.513 68.9804 115.255 70.3896 116.215 71.6926 117.174 72.9955 118.424 74.0541 119.967 74.8685 121.508 75.683 123.21 76.0901 125.071 76.0901 127.813 76.0901 129.924 75.3895 131.401 73.9884L131.401 67.5127C131.401 66.7058 131.149 66.1856 130.644 65.952 130.138 65.7184 129.212 65.5451 127.865 65.4319 127.753 65.2899 127.697 65.0311 127.697 64.6552 127.697 64.2794 127.738 64.0135 127.82 63.8574 130.583 63.9142 132.401 63.9426 133.274 63.9426 134.103 63.9426 135.382 63.9142 137.11 63.8574 137.25 63.9993 137.32 64.2617 137.32 64.6446 137.32 65.0276 137.251 65.2899 137.111 65.4319 136.43 65.4883 135.932 65.6687 135.619 65.973 135.306 66.2775 135.149 66.7906 135.149 67.5127L135.149 72.3957C135.149 72.8346 135.383 73.238 135.852 73.606 132.674 76.3117 128.746 77.6645 124.069 77.6645 119.826 77.6645 116.33 76.3243 113.579 73.6436 110.827 70.9631 109.452 67.7011 109.452 63.8574 109.452 60.7798 110.18 58.0567 111.636 55.6881 113.092 53.3196 114.934 51.5397 117.161 50.3482 119.388 49.1569 121.761 48.5613 124.283 48.5613Z" fill="#00B0F0" fill-rule="evenodd" transform="matrix(1.00366 0 0 1 392.148 351.6)"/></g></svg>