<svg width="684" height="179" xmlns="http://www.w3.org/2000/svg" xmlns:xlink="http://www.w3.org/1999/xlink" xml:space="preserve" overflow="hidden"><defs><clipPath id="clip0"><rect x="1524" y="176" width="684" height="179"/></clipPath></defs><g clip-path="url(#clip0)" transform="translate(-1524 -176)"><path d="M1945.78 337.678 1945.78 355 1927.52 355 1927.52 337.787 1930.57 338.012ZM1980.62 323.531 1989.27 338.478 1973.62 347.494 1964.92 332.452 1978.12 325.234ZM1892.58 323.531 1900.25 328.458 1908.39 332.593 1899.55 347.783 1883.74 338.72ZM2003.88 293.794 2019.13 302.487 2010.03 318.045 1994.78 309.352 1999.72 301.8ZM1869.28 293.794 1876.53 306.939 1878.24 309.433 1863.23 318.045 1854.17 302.46ZM2008.98 256.55 2026.38 256.55 2026.38 274.739 2009.09 274.739 2009.32 271.697ZM1846.64 256.55 1864.21 256.55 1863.98 259.592 1864.32 274.739 1846.64 274.739ZM2077.42 223.15C2069.26 223.15 2065.18 226.262 2065.18 232.486L2065.18 265.91 2072.23 265.91C2080.2 265.91 2086.32 264.306 2090.59 261.1 2094.86 257.893 2097 252.061 2097 243.604 2097 229.968 2090.47 223.15 2077.42 223.15ZM2123.75 218.551C2129.67 218.76 2134.69 218.864 2138.83 218.864 2142.2 218.864 2147.83 218.76 2155.72 218.551 2156.2 219.072 2156.44 219.972 2156.44 221.249 2156.44 222.527 2156.2 223.4 2155.72 223.869 2151.63 224.107 2149.26 224.722 2148.61 225.718 2147.96 226.712 2148.55 228.773 2150.38 231.901L2167.64 261.685C2168.32 262.869 2168.88 263.485 2169.31 263.532 2169.75 263.58 2170.29 263.058 2170.92 261.969L2187.25 231.546C2188.02 230.077 2188.48 228.868 2188.62 227.921 2188.77 226.973 2188.56 226.215 2188.01 225.646 2187.46 225.078 2186.67 224.663 2185.66 224.403 2184.65 224.142 2183.28 223.964 2181.55 223.869 2181.07 223.452 2180.83 222.592 2180.83 221.288 2180.83 219.985 2181.07 219.072 2181.55 218.551 2189.44 218.76 2193.92 218.864 2194.97 218.864 2197.23 218.864 2201.32 218.76 2207.24 218.551 2207.72 219.072 2207.97 219.972 2208 221.249 2208.02 222.527 2207.77 223.4 2207.24 223.869 2203.68 224.154 2200.95 224.9 2199.05 226.108 2197.15 227.316 2195.21 229.674 2193.24 233.181L2175.56 264.6C2174.79 265.974 2174.21 267.277 2173.83 268.509 2173.45 269.741 2173.2 270.83 2173.11 271.778 2173.01 272.726 2172.96 274.029 2172.96 275.688L2172.96 295.448C2172.96 301.278 2173.8 304.891 2175.47 306.289 2177.13 307.687 2181.04 308.504 2187.19 308.741 2187.57 309.271 2187.76 310.183 2187.76 311.48 2187.76 312.776 2187.57 313.636 2187.18 314.059 2177.35 313.847 2170.52 313.742 2166.69 313.742 2162.56 313.742 2155.68 313.847 2146.05 314.059 2145.57 313.636 2145.33 312.776 2145.33 311.48 2145.33 310.183 2145.56 309.271 2146.04 308.741 2152.19 308.552 2156.09 307.746 2157.76 306.325 2159.43 304.903 2160.26 301.278 2160.26 295.448L2160.26 276.967C2160.26 274.361 2160.07 272.395 2159.69 271.068 2159.3 269.741 2158.46 267.964 2157.16 265.737L2137.75 233.608C2136.07 230.812 2134.54 228.739 2133.17 227.388 2131.8 226.037 2130.49 225.148 2129.23 224.722 2127.98 224.296 2126.2 224.011 2123.89 223.869 2123.41 223.348 2123.17 222.462 2123.17 221.21 2123.17 219.959 2123.37 219.072 2123.75 218.551ZM1631.26 218.551C1641.09 218.76 1647.41 218.864 1650.24 218.864 1653.45 218.864 1659.88 218.76 1669.51 218.551 1669.9 219.072 1670.1 219.972 1670.12 221.249 1670.15 222.527 1669.94 223.4 1669.51 223.869 1663.98 224.058 1660.45 224.852 1658.94 226.25 1657.42 227.648 1656.67 231.261 1656.67 237.09L1656.67 295.448C1656.67 301.278 1657.44 304.891 1658.98 306.289 1660.51 307.687 1664.03 308.504 1669.51 308.741 1669.9 309.271 1670.1 310.183 1670.12 311.48 1670.15 312.776 1669.94 313.636 1669.51 314.059 1659.63 313.847 1653.26 313.742 1650.39 313.742 1647.23 313.742 1640.85 313.847 1631.26 314.059 1630.78 313.636 1630.54 312.776 1630.54 311.48 1630.54 310.183 1630.78 309.271 1631.26 308.741 1636.73 308.552 1640.22 307.746 1641.72 306.325 1643.22 304.903 1643.97 301.278 1643.97 295.448L1643.97 237.09C1643.97 231.261 1643.22 227.648 1641.72 226.25 1640.22 224.852 1636.73 224.058 1631.26 223.869 1630.78 223.452 1630.54 222.592 1630.54 221.288 1630.54 219.985 1630.78 219.072 1631.26 218.551ZM1524.72 218.551C1534.54 218.76 1540.87 218.864 1543.7 218.864 1546.88 218.864 1553.3 218.76 1562.95 218.551 1563.33 219.072 1563.54 219.972 1563.56 221.249 1563.59 222.527 1563.38 223.4 1562.95 223.869 1557.42 224.058 1553.91 224.852 1552.39 226.249 1550.88 227.645 1550.12 231.256 1550.12 237.08L1550.12 260.376 1600.64 260.376 1600.64 237.08C1600.64 231.256 1599.87 227.645 1598.35 226.249 1596.83 224.852 1593.33 224.058 1587.86 223.869 1587.48 223.452 1587.29 222.592 1587.29 221.288 1587.29 219.985 1587.44 219.072 1587.74 218.551 1597.63 218.76 1604.02 218.864 1606.91 218.864 1610.08 218.864 1616.45 218.76 1626.04 218.551 1626.52 219.072 1626.76 219.972 1626.76 221.249 1626.76 222.527 1626.52 223.4 1626.04 223.869 1620.57 224.058 1617.08 224.852 1615.58 226.25 1614.09 227.648 1613.34 231.261 1613.34 237.09L1613.34 295.448C1613.34 301.278 1614.09 304.891 1615.58 306.289 1617.08 307.687 1620.57 308.504 1626.04 308.741 1626.52 309.271 1626.76 310.183 1626.76 311.48 1626.76 312.776 1626.52 313.636 1626.04 314.059 1616.21 313.847 1609.89 313.742 1607.06 313.742 1603.87 313.742 1597.43 313.847 1587.74 314.059 1587.44 313.636 1587.29 312.776 1587.29 311.48 1587.29 310.183 1587.48 309.271 1587.86 308.741 1593.33 308.552 1596.83 307.747 1598.35 306.326 1599.87 304.906 1600.64 301.284 1600.64 295.461L1600.64 266.557 1550.12 266.557 1550.12 295.461C1550.12 301.284 1550.89 304.894 1552.43 306.291 1553.97 307.688 1557.47 308.505 1562.95 308.741 1563.33 309.271 1563.54 310.183 1563.56 311.48 1563.59 312.776 1563.38 313.636 1562.95 314.059 1553.06 313.847 1546.69 313.742 1543.85 313.742 1540.68 313.742 1534.31 313.847 1524.72 314.059 1524.24 313.636 1524 312.776 1524 311.48 1524 310.183 1524.24 309.271 1524.71 308.741 1530.19 308.552 1533.67 307.746 1535.17 306.325 1536.67 304.903 1537.42 301.278 1537.42 295.448L1537.42 237.09C1537.42 231.261 1536.67 227.648 1535.17 226.25 1533.67 224.852 1530.19 224.058 1524.71 223.869 1524.24 223.452 1524 222.592 1524 221.288 1524 219.985 1524.24 219.072 1524.72 218.551ZM2077.27 217.832C2082.92 217.832 2087.71 218.279 2091.63 219.172 2095.55 220.065 2099.03 221.984 2102.07 224.928 2107.16 229.851 2109.7 236.029 2109.7 243.461 2109.7 250.205 2107.66 255.704 2103.59 259.961 2099.51 264.217 2095.3 267.087 2090.95 268.569L2109.54 299.365C2111.8 303.089 2113.97 305.906 2116.04 307.817 2118.11 309.727 2120.66 310.682 2123.69 310.682 2124.36 311.975 2124.41 313.149 2123.83 314.203 2122.44 314.874 2120.37 315.209 2117.63 315.209 2110.02 315.209 2103.53 310.731 2098.14 301.774L2082.46 276.718C2081.26 274.794 2079.5 273.398 2077.2 272.53 2074.9 271.662 2070.89 271.228 2065.18 271.228L2065.18 295.58C2065.18 301.352 2065.94 304.929 2067.46 306.314 2068.98 307.698 2072.46 308.507 2077.88 308.741 2078.26 309.388 2078.45 310.34 2078.45 311.598 2078.45 312.855 2078.3 313.676 2077.99 314.059 2068.11 313.868 2061.74 313.772 2058.9 313.772 2055.74 313.772 2049.36 313.868 2039.77 314.059 2039.29 313.676 2039.05 312.855 2039.05 311.598 2039.05 310.34 2039.29 309.388 2039.77 308.741 2045.24 308.552 2048.73 307.746 2050.23 306.323 2051.73 304.9 2052.48 301.271 2052.48 295.437L2052.48 237.026C2052.48 231.191 2051.73 227.575 2050.23 226.176 2048.73 224.776 2045.24 223.984 2039.77 223.797 2039.29 223.413 2039.05 222.58 2039.05 221.298 2039.05 220.015 2039.29 219.1 2039.77 218.551 2049.6 218.743 2055.93 218.839 2058.75 218.839 2060.83 218.839 2064.16 218.671 2068.74 218.335 2073.32 218 2076.16 217.832 2077.27 217.832ZM1749.92 217.689C1759.89 218.456 1771.37 218.839 1784.38 218.839L1797.09 218.839C1810.18 218.839 1821.23 218.456 1830.24 217.689 1830.53 217.689 1830.67 217.828 1830.67 218.106 1830.77 224.358 1831.39 231.329 1832.55 239.02 1831.44 239.508 1829.78 239.751 1827.57 239.751 1826.37 234.085 1824.1 230.07 1820.77 227.704 1817.43 225.339 1812.86 224.157 1807.05 224.157L1803.81 224.157C1801.27 224.157 1799.5 225.401 1798.52 227.89 1797.54 230.379 1797.04 234.137 1797.04 239.164L1797.04 295.314C1797.04 301.202 1797.87 304.851 1799.53 306.264 1801.18 307.676 1805.11 308.502 1811.3 308.741 1811.78 309.271 1812.03 310.183 1812.05 311.48 1812.08 312.776 1811.83 313.636 1811.3 314.059 1801.42 313.847 1794.58 313.742 1790.77 313.742 1786.62 313.742 1779.69 313.847 1769.98 314.059 1769.7 313.636 1769.55 312.776 1769.55 311.48 1769.55 310.183 1769.74 309.271 1770.12 308.741 1776.27 308.55 1780.18 307.736 1781.84 306.3 1783.51 304.863 1784.34 301.202 1784.34 295.314L1784.34 238.733C1784.34 233.945 1783.83 230.319 1782.79 227.854 1781.76 225.389 1779.94 224.157 1777.34 224.157L1770.13 224.157C1765.03 224.157 1760.84 225.365 1757.57 227.78 1754.3 230.196 1751.99 234.33 1750.65 240.183 1748.58 240.183 1746.89 239.943 1745.59 239.464 1747.57 231.032 1748.79 223.917 1749.27 218.12 1749.27 217.832 1749.49 217.689 1749.92 217.689ZM1709.68 216.898C1715.32 216.898 1720.17 217.557 1724.24 218.873 1728.32 220.19 1731.03 220.95 1732.37 221.153 1733.72 227.903 1734.61 234.222 1735.05 240.109 1734.32 240.634 1732.71 240.921 1730.21 240.968 1729.73 239.441 1729.26 238.07 1728.8 236.853 1728.34 235.637 1727.78 234.36 1727.1 233.024 1726.43 231.688 1725.69 230.519 1724.9 229.517 1724.1 228.515 1723.15 227.537 1722.04 226.582 1720.94 225.628 1719.73 224.84 1718.43 224.22 1717.13 223.6 1715.62 223.111 1713.91 222.753 1712.2 222.395 1710.34 222.216 1708.31 222.216 1704.04 222.216 1700.28 223.91 1697.04 227.298 1693.8 230.685 1692.18 234.455 1692.18 238.606 1692.18 240.897 1692.71 243.056 1693.77 245.084 1694.82 247.112 1696.07 248.806 1697.51 250.166 1698.95 251.525 1700.83 252.873 1703.16 254.209 1705.49 255.545 1707.45 256.535 1709.03 257.179 1710.62 257.823 1712.58 258.599 1714.94 259.505 1717.29 260.412 1718.78 260.984 1719.4 261.223 1722.28 262.463 1724.86 263.788 1727.14 265.195 1729.41 266.603 1731.57 268.321 1733.6 270.349 1735.63 272.377 1737.19 274.774 1738.26 277.542 1739.34 280.308 1739.88 283.362 1739.88 286.702 1739.88 291.346 1738.62 295.798 1736.1 300.058 1733.58 304.318 1730.18 307.765 1725.92 310.399 1720.68 313.606 1714.55 315.209 1707.52 315.209 1702.67 315.209 1697.59 314.638 1692.27 313.497 1686.95 312.356 1682.84 311.785 1679.94 311.785 1678.51 305.621 1677.56 298.19 1677.1 289.493 1678.64 288.682 1680.25 288.539 1681.93 289.064 1685.12 302.949 1694.06 309.891 1708.74 309.891 1714.65 309.891 1719.2 308.352 1722.39 305.275 1725.58 302.198 1727.18 297.724 1727.18 291.855 1727.18 289.184 1726.76 286.738 1725.92 284.52 1725.08 282.301 1724.12 280.512 1723.04 279.152 1721.96 277.792 1720.42 276.48 1718.43 275.215 1716.44 273.951 1714.78 273.032 1713.46 272.46 1712.14 271.887 1710.27 271.135 1707.84 270.205 1705.42 269.274 1703.75 268.618 1702.85 268.237 1698.37 266.376 1694.61 264.432 1691.59 262.404 1688.57 260.376 1685.97 257.645 1683.78 254.209 1681.59 250.773 1680.49 246.908 1680.49 242.615 1680.49 234.984 1683.35 228.791 1689.06 224.034 1694.77 219.277 1701.65 216.898 1709.68 216.898ZM2009.78 212.955 2018.84 228.539 2003.73 237.206 1996.49 224.061 1994.78 221.567ZM1863.27 212.955 1878.53 221.751 1873.58 229.394 1869.43 237.495 1854.17 228.699ZM1973.75 183.506 1989.56 192.568 1980.72 207.758 1973.05 202.83 1964.92 198.696ZM1899.58 183.506 1908.39 198.548 1895.03 205.766 1892.49 207.469 1883.74 192.522ZM1927.52 176 1945.78 176 1945.78 193.5 1942.73 193.272 1927.52 193.611Z" fill="#FF3300" fill-rule="evenodd"/></g></svg>