<svg width="148" height="53" xmlns="http://www.w3.org/2000/svg" xmlns:xlink="http://www.w3.org/1999/xlink" xml:space="preserve" overflow="hidden"><defs><clipPath id="clip0"><rect x="438" y="51" width="148" height="53"/></clipPath></defs><g clip-path="url(#clip0)" transform="translate(-438 -51)"><path d="M193.7 88.3807 188.417 88.3807 188.417 83.3814 189.301 83.4468 193.7 83.3496Z" fill="#FF3300" fill-rule="evenodd" transform="matrix(1 0 0 1.01945 368.989 13.9)"/><path d="M180.328 86.2844 175.755 83.6525 178.31 79.2408 180.53 80.6719 182.883 81.8728Z" fill="#FF3300" fill-rule="evenodd" transform="matrix(1 0 0 1.01945 368.989 13.9)"/><path d="M169.821 77.6476 167.202 73.1211 171.571 70.604 173.667 74.4219 174.162 75.1464Z" fill="#FF3300" fill-rule="evenodd" transform="matrix(1 0 0 1.01945 368.989 13.9)"/><path d="M170.137 65.0697 165.022 65.0697 165.022 59.787 170.105 59.787 170.038 60.6705Z" fill="#FF3300" fill-rule="evenodd" transform="matrix(1 0 0 1.01945 368.989 13.9)"/><path d="M171.614 54.2527 167.202 51.6979 169.834 47.1252 174.246 49.68 172.815 51.8997Z" fill="#FF3300" fill-rule="evenodd" transform="matrix(1 0 0 1.01945 368.989 13.9)"/><path d="M178.286 45.532 175.755 41.1909 180.335 38.5722 182.883 42.941 179.02 45.0373Z" fill="#FF3300" fill-rule="evenodd" transform="matrix(1 0 0 1.01945 368.989 13.9)"/><path d="M188.417 41.5071 188.417 36.3921 193.7 36.3921 193.7 41.4748 192.816 41.4084Z" fill="#FF3300" fill-rule="evenodd" transform="matrix(1 0 0 1.01945 368.989 13.9)"/><path d="M203.806 45.6159 201.587 44.1847 199.234 42.9839 201.789 38.5722 206.361 41.2042Z" fill="#FF3300" fill-rule="evenodd" transform="matrix(1 0 0 1.01945 368.989 13.9)"/><path d="M210.462 54.1688 208.366 50.3509 207.871 49.6265 212.212 47.1252 214.831 51.6517Z" fill="#FF3300" fill-rule="evenodd" transform="matrix(1 0 0 1.01945 368.989 13.9)"/><path d="M217.011 65.0697 212.011 65.0697 212.077 64.1861 211.98 59.787 217.011 59.787Z" fill="#FF3300" fill-rule="evenodd" transform="matrix(1 0 0 1.01945 368.989 13.9)"/><path d="M212.282 77.6476 207.871 75.1228 209.302 72.9293 210.503 70.604 214.914 73.1288Z" fill="#FF3300" fill-rule="evenodd" transform="matrix(1 0 0 1.01945 368.989 13.9)"/><path d="M201.751 86.2006 199.234 81.8319 203.052 79.7355 203.776 79.2408 206.278 83.5819Z" fill="#FF3300" fill-rule="evenodd" transform="matrix(1 0 0 1.01945 368.989 13.9)"/><path d="M69.2285 48.6346C72.203 48.6982 74.1184 48.73 74.9745 48.73 75.9385 48.73 77.8811 48.6982 80.8024 48.6346 80.9187 48.7933 80.9805 49.0672 80.9877 49.4564 80.995 49.8456 80.9332 50.1117 80.8024 50.2547 79.1298 50.3124 78.0644 50.554 77.6063 50.9796 77.1482 51.4051 76.9192 52.5051 76.9192 54.2794L76.9192 61.3767 92.212 61.3767 92.212 54.2794C92.212 52.5051 91.9814 51.4051 91.5202 50.9796 91.059 50.554 89.9999 50.3124 88.343 50.2547 88.2281 50.1276 88.1703 49.8656 88.1703 49.4684 88.1703 49.0713 88.2156 48.7933 88.3069 48.6346 91.3005 48.6982 93.2358 48.73 94.1121 48.73 95.0697 48.73 97 48.6982 99.9021 48.6346 100.047 48.7933 100.12 49.0672 100.12 49.4564 100.12 49.8456 100.048 50.1117 99.9038 50.2547 98.2468 50.3124 97.1911 50.5542 96.7375 50.9801 96.2839 51.406 96.0566 52.5068 96.0566 54.2825L96.0566 72.0617C96.0566 73.8376 96.2839 74.9384 96.7375 75.3642 97.1911 75.7899 98.2468 76.039 99.9038 76.1113 100.048 76.2726 100.12 76.5507 100.12 76.9457 100.12 77.3407 100.047 77.6026 99.9021 77.7314 96.9278 77.667 95.0126 77.6347 94.1565 77.6347 93.1922 77.6347 91.2426 77.667 88.3069 77.7314 88.2156 77.6026 88.1703 77.3407 88.1703 76.9457 88.1703 76.5507 88.2281 76.2726 88.343 76.1113 89.9999 76.0536 91.059 75.8084 91.5202 75.3757 91.9814 74.9429 92.212 73.8395 92.212 72.0654L92.212 63.2596 76.9192 63.2596 76.9192 72.0654C76.9192 73.8395 77.1519 74.9393 77.6172 75.3649 78.0826 75.7904 79.1443 76.0392 80.8024 76.1113 80.9187 76.2726 80.9805 76.5507 80.9877 76.9457 80.995 77.3407 80.9332 77.6026 80.8024 77.7314 77.8085 77.667 75.8806 77.6347 75.0189 77.6347 74.0611 77.6347 72.1309 77.667 69.2285 77.7314 69.0834 77.6026 69.0108 77.3407 69.0108 76.9457 69.0108 76.5507 69.0828 76.2726 69.2269 76.1113 70.8839 76.0536 71.9395 75.8082 72.3934 75.3751 72.8473 74.942 73.0742 73.8376 73.0742 72.0617L73.0742 54.2825C73.0742 52.5068 72.8473 51.406 72.3934 50.9801 71.9395 50.5542 70.8839 50.3124 69.2269 50.2547 69.0828 50.1276 69.0108 49.8656 69.0108 49.4684 69.0108 49.0713 69.0834 48.7933 69.2285 48.6346Z" fill="#FF3300" fill-rule="evenodd" transform="matrix(1 0 0 1.01945 368.989 13.9)"/><path d="M136.147 48.383C139.164 48.6165 142.642 48.7332 146.578 48.7332L150.428 48.7332C154.393 48.7332 157.74 48.6165 160.466 48.383 160.553 48.383 160.596 48.4254 160.596 48.5099 160.626 50.4139 160.815 52.5371 161.165 54.8792 160.829 55.0277 160.327 55.1019 159.657 55.1019 159.294 53.3764 158.607 52.1534 157.597 51.4331 156.587 50.7128 155.203 50.3527 153.445 50.3527L152.463 50.3527C151.694 50.3527 151.16 50.7317 150.861 51.4897 150.563 52.2478 150.414 53.3922 150.414 54.923L150.414 72.0228C150.414 73.8158 150.665 74.9273 151.166 75.3574 151.668 75.7875 152.856 76.039 154.731 76.1119 154.876 76.2731 154.952 76.5511 154.96 76.946 154.966 77.3409 154.89 77.6026 154.731 77.7314 151.739 77.667 149.667 77.6347 148.514 77.6347 147.257 77.6347 145.159 77.667 142.221 77.7314 142.133 77.6026 142.089 77.3409 142.089 76.946 142.089 76.5511 142.147 76.2731 142.263 76.1119 144.123 76.0536 145.307 75.8057 145.811 75.3683 146.316 74.931 146.569 73.8158 146.569 72.0228L146.569 54.7917C146.569 53.3338 146.412 52.2295 146.099 51.4788 145.785 50.7281 145.236 50.3527 144.45 50.3527L142.264 50.3527C140.72 50.3527 139.453 50.7206 138.463 51.4562 137.471 52.1919 136.772 53.4509 136.365 55.2332 135.738 55.2332 135.228 55.1602 134.835 55.0143 135.432 52.4464 135.804 50.2798 135.95 48.5143 135.95 48.4268 136.015 48.383 136.147 48.383Z" fill="#FF3300" fill-rule="evenodd" transform="matrix(1 0 0 1.01945 368.989 13.9)"/><path d="M124.421 48.1314C126.13 48.1314 127.602 48.3319 128.836 48.7328 130.071 49.1338 130.893 49.3652 131.302 49.427 131.71 51.4824 131.98 53.4064 132.112 55.1992 131.893 55.359 131.404 55.4462 130.646 55.4608 130.499 54.9958 130.357 54.578 130.218 54.2077 130.08 53.8372 129.908 53.4485 129.703 53.0417 129.499 52.6348 129.277 52.2788 129.035 51.9737 128.794 51.6686 128.505 51.3708 128.17 51.0801 127.833 50.7895 127.469 50.5498 127.074 50.3609 126.68 50.1721 126.223 50.0232 125.704 49.9142 125.186 49.8052 124.62 49.7508 124.006 49.7508 122.711 49.7508 121.572 50.2666 120.589 51.2981 119.607 52.3297 119.115 53.4775 119.115 54.7414 119.115 55.4389 119.275 56.0964 119.596 56.7139 119.916 57.3313 120.294 57.8472 120.731 58.2613 121.168 58.6753 121.739 59.0857 122.445 59.4925 123.151 59.8993 123.744 60.2007 124.224 60.3968 124.705 60.593 125.302 60.8291 126.015 61.105 126.728 61.3811 127.179 61.5555 127.369 61.6282 128.242 62.006 129.023 62.4091 129.714 62.8378 130.404 63.2664 131.058 63.7895 131.674 64.407 132.289 65.0245 132.761 65.7545 133.088 66.5972 133.414 67.4397 133.577 68.3695 133.577 69.3867 133.577 70.8006 133.195 72.1562 132.431 73.4534 131.666 74.7506 130.637 75.8002 129.344 76.6021 127.757 77.5786 125.897 78.0669 123.766 78.0669 122.297 78.0669 120.755 77.8931 119.141 77.5456 117.528 77.1981 116.282 77.0244 115.403 77.0244 114.97 75.1473 114.683 72.8846 114.543 70.2363 115.01 69.9894 115.498 69.9459 116.009 70.1057 116.975 74.3336 119.685 76.4476 124.137 76.4476 125.927 76.4476 127.307 75.979 128.274 75.042 129.243 74.1048 129.727 72.7428 129.727 70.9557 129.727 70.1422 129.599 69.3976 129.344 68.7219 129.09 68.0463 128.799 67.5015 128.472 67.0874 128.144 66.6734 127.678 66.2738 127.074 65.8888 126.47 65.5039 125.968 65.2241 125.568 65.0498 125.167 64.8754 124.599 64.6466 123.865 64.3632 123.129 64.0799 122.625 63.8801 122.349 63.7639 120.991 63.1974 119.853 62.6054 118.938 61.9879 118.021 61.3704 117.231 60.5386 116.567 59.4925 115.903 58.4462 115.571 57.2695 115.571 55.962 115.571 53.6386 116.437 51.7526 118.169 50.3042 119.902 48.8557 121.986 48.1314 124.421 48.1314Z" fill="#FF3300" fill-rule="evenodd" transform="matrix(1 0 0 1.01945 368.989 13.9)"/><path d="M101.461 48.6346C104.45 48.6982 106.375 48.73 107.236 48.73 108.213 48.73 110.167 48.6982 113.098 48.6346 113.215 48.7933 113.277 49.0672 113.284 49.4564 113.292 49.8456 113.23 50.1117 113.098 50.2547 111.414 50.3124 110.343 50.5542 109.881 50.9801 109.42 51.406 109.19 52.5068 109.19 54.2825L109.19 72.0617C109.19 73.8376 109.424 74.9384 109.892 75.3642 110.361 75.7899 111.429 76.039 113.098 76.1113 113.215 76.2726 113.277 76.5507 113.284 76.9457 113.292 77.3407 113.23 77.6026 113.098 77.7314 110.093 77.667 108.153 77.6347 107.28 77.6347 106.318 77.6347 104.378 77.667 101.461 77.7314L101.378 77.4333 101.378 76.4238 101.459 76.1113C103.125 76.0536 104.185 75.8082 104.641 75.3751 105.098 74.942 105.326 73.8376 105.326 72.0617L105.326 54.2825C105.326 52.5068 105.098 51.406 104.641 50.9801 104.185 50.5542 103.125 50.3124 101.459 50.2547L101.378 49.9602 101.378 48.9509Z" fill="#FF3300" fill-rule="evenodd" transform="matrix(1 0 0 1.01945 368.989 13.9)"/></g></svg>