<svg width="505" height="180" xmlns="http://www.w3.org/2000/svg" xmlns:xlink="http://www.w3.org/1999/xlink" xml:space="preserve" overflow="hidden"><defs><clipPath id="clip0"><rect x="2663" y="1409" width="505" height="180"/></clipPath></defs><g clip-path="url(#clip0)" transform="translate(-2663 -1409)"><path d="M3087.44 1571.58 3087.44 1589 3069.19 1589 3069.19 1571.69 3072.24 1571.92ZM3122.26 1557.36 3130.91 1572.39 3115.27 1581.45 3106.57 1566.33 3119.76 1559.07ZM3034.26 1557.36 3041.93 1562.31 3050.06 1566.47 3041.23 1581.74 3025.43 1572.63ZM3145.51 1527.45 3160.76 1536.19 3151.66 1551.84 3136.41 1543.1 3141.36 1535.5ZM3010.97 1527.45 3018.21 1540.67 3019.92 1543.18 3004.92 1551.84 2995.87 1536.17ZM3150.61 1490 3168 1490 3168 1508.29 3150.72 1508.29 3150.95 1505.23ZM2988.34 1490 3005.9 1490 3005.67 1493.06 3006.01 1508.29 2988.34 1508.29ZM2938.1 1456.57C2929.94 1456.57 2925.87 1459.7 2925.87 1465.96L2925.87 1499.57 2932.92 1499.57C2940.88 1499.57 2947 1497.96 2951.27 1494.73 2955.54 1491.51 2957.68 1485.64 2957.68 1477.14 2957.68 1463.43 2951.15 1456.57 2938.1 1456.57ZM2708.81 1451.95 2728.79 1452.23 2779.43 1517.37C2780.1 1518.24 2780.84 1519.22 2781.63 1520.33 2782.42 1521.43 2783.02 1522.22 2783.43 1522.7 2783.84 1523.17 2784.26 1523.66 2784.7 1524.16 2785.13 1524.66 2785.49 1525.01 2785.78 1525.2 2786.07 1525.39 2786.31 1525.48 2786.5 1525.48 2787.17 1525.48 2787.53 1524.01 2787.58 1521.05L2787.58 1472.16C2787.58 1468.73 2787.42 1466.12 2787.11 1464.33 2786.8 1462.55 2786.05 1461.14 2784.88 1460.12 2783.7 1459.09 2782.47 1458.44 2781.2 1458.15 2779.92 1457.87 2777.77 1457.58 2774.74 1457.29 2774.26 1456.87 2774.01 1456.01 2773.98 1454.7 2773.96 1453.39 2774.21 1452.47 2774.74 1451.95 2784.6 1452.16 2790.06 1452.26 2791.12 1452.26 2792.51 1452.26 2798.02 1452.16 2807.63 1451.95 2808.02 1452.47 2808.21 1453.37 2808.21 1454.66 2808.21 1455.94 2808.02 1456.82 2807.63 1457.29 2802.1 1457.87 2798.58 1458.93 2797.07 1460.47 2795.55 1462.02 2794.79 1465.92 2794.79 1472.16L2794.79 1544.24C2794.79 1547.51 2793.66 1549.14 2791.4 1549.14 2789.24 1549.14 2787.27 1547.88 2785.49 1545.35L2733.92 1480.52C2731.37 1477.28 2729.7 1475.68 2728.9 1475.7 2728.11 1475.72 2727.71 1478.12 2727.71 1482.88L2727.71 1527.7C2727.71 1531.13 2727.87 1533.74 2728.18 1535.53 2728.49 1537.31 2729.24 1538.72 2730.42 1539.74 2731.6 1540.77 2732.82 1541.42 2734.1 1541.71 2735.37 1542 2737.52 1542.31 2740.55 1542.64 2740.94 1543.17 2741.14 1544.09 2741.17 1545.39 2741.19 1546.7 2740.98 1547.56 2740.55 1547.99 2730.69 1547.77 2725.24 1547.67 2724.18 1547.67 2722.78 1547.67 2717.28 1547.77 2707.66 1547.99 2707.18 1547.56 2706.93 1546.7 2706.9 1545.39 2706.88 1544.09 2707.13 1543.17 2707.66 1542.64 2713.19 1542.07 2716.71 1541 2718.23 1539.42 2719.74 1537.85 2720.5 1533.94 2720.5 1527.7L2720.5 1466.66C2720.02 1464.51 2718.7 1462.46 2716.53 1460.51 2714.37 1458.56 2711.8 1457.48 2708.81 1457.29 2708.33 1456.87 2708.09 1456.01 2708.09 1454.7 2708.09 1453.39 2708.33 1452.47 2708.81 1451.95ZM2663.72 1451.95C2673.54 1452.16 2679.86 1452.26 2682.69 1452.26 2685.9 1452.26 2692.32 1452.16 2701.95 1451.95 2702.34 1452.47 2702.54 1453.37 2702.56 1454.66 2702.59 1455.94 2702.38 1456.82 2701.95 1457.29 2696.42 1457.48 2692.9 1458.28 2691.38 1459.69 2689.87 1461.09 2689.11 1464.73 2689.11 1470.59L2689.11 1529.27C2689.11 1535.13 2689.88 1538.77 2691.42 1540.17 2692.96 1541.58 2696.47 1542.4 2701.95 1542.64 2702.34 1543.17 2702.54 1544.09 2702.56 1545.39 2702.59 1546.7 2702.38 1547.56 2701.95 1547.99 2692.08 1547.77 2685.71 1547.67 2682.84 1547.67 2679.67 1547.67 2673.3 1547.77 2663.72 1547.99 2663.24 1547.56 2663 1546.7 2663 1545.39 2663 1544.09 2663.24 1543.17 2663.71 1542.64 2669.18 1542.45 2672.67 1541.64 2674.17 1540.21 2675.67 1538.78 2676.42 1535.13 2676.42 1529.27L2676.42 1470.59C2676.42 1464.73 2675.67 1461.09 2674.17 1459.69 2672.67 1458.28 2669.18 1457.48 2663.71 1457.29 2663.24 1456.87 2663 1456.01 2663 1454.7 2663 1453.39 2663.24 1452.47 2663.72 1451.95ZM2937.96 1451.22C2943.6 1451.22 2948.39 1451.67 2952.31 1452.57 2956.23 1453.47 2959.71 1455.4 2962.74 1458.36 2967.83 1463.31 2970.37 1469.52 2970.37 1476.99 2970.37 1483.78 2968.33 1489.31 2964.26 1493.59 2960.19 1497.87 2955.98 1500.75 2951.63 1502.24L2970.21 1533.21C2972.47 1536.96 2974.64 1539.79 2976.71 1541.71 2978.77 1543.63 2981.32 1544.59 2984.35 1544.59 2985.03 1545.89 2985.07 1547.07 2984.5 1548.13 2983.1 1548.81 2981.03 1549.14 2978.29 1549.14 2970.7 1549.14 2964.2 1544.64 2958.82 1535.63L2943.14 1510.44C2941.94 1508.5 2940.19 1507.1 2937.89 1506.23 2935.58 1505.35 2931.58 1504.92 2925.87 1504.92L2925.87 1529.4C2925.87 1535.21 2926.63 1538.81 2928.15 1540.2 2929.67 1541.59 2933.14 1542.4 2938.57 1542.64 2938.95 1543.29 2939.14 1544.25 2939.14 1545.51 2939.14 1546.78 2938.98 1547.6 2938.68 1547.99 2928.8 1547.79 2922.44 1547.7 2919.59 1547.7 2916.43 1547.7 2910.06 1547.79 2900.47 1547.99 2899.99 1547.6 2899.76 1546.78 2899.76 1545.51 2899.76 1544.25 2899.99 1543.29 2900.47 1542.64 2905.94 1542.45 2909.43 1541.64 2910.92 1540.21 2912.42 1538.78 2913.17 1535.13 2913.17 1529.26L2913.17 1470.52C2913.17 1464.66 2912.42 1461.02 2910.92 1459.61 2909.43 1458.21 2905.94 1457.41 2900.47 1457.22 2899.99 1456.84 2899.76 1456 2899.76 1454.71 2899.76 1453.42 2899.99 1452.5 2900.47 1451.95 2910.3 1452.14 2916.62 1452.23 2919.45 1452.23 2921.52 1452.23 2924.84 1452.07 2929.42 1451.73 2934 1451.39 2936.85 1451.22 2937.96 1451.22ZM2813.25 1451.08C2823.21 1451.85 2834.69 1452.23 2847.68 1452.23L2860.39 1452.23C2873.48 1452.23 2884.53 1451.85 2893.53 1451.08 2893.82 1451.08 2893.96 1451.22 2893.96 1451.5 2894.06 1457.78 2894.68 1464.8 2895.84 1472.53 2894.73 1473.02 2893.07 1473.26 2890.86 1473.26 2889.66 1467.57 2887.39 1463.53 2884.06 1461.15 2880.73 1458.77 2876.16 1457.58 2870.35 1457.58L2867.11 1457.58C2864.57 1457.58 2862.81 1458.83 2861.82 1461.34 2860.84 1463.84 2860.35 1467.62 2860.35 1472.67L2860.35 1529.14C2860.35 1535.06 2861.18 1538.73 2862.83 1540.15 2864.49 1541.57 2868.41 1542.4 2874.6 1542.64 2875.08 1543.17 2875.33 1544.09 2875.35 1545.39 2875.38 1546.7 2875.12 1547.56 2874.6 1547.99 2864.72 1547.77 2857.88 1547.67 2854.07 1547.67 2849.92 1547.67 2843 1547.77 2833.3 1547.99 2833.01 1547.56 2832.87 1546.7 2832.87 1545.39 2832.87 1544.09 2833.06 1543.17 2833.44 1542.64 2839.58 1542.45 2843.49 1541.63 2845.15 1540.18 2846.82 1538.74 2847.65 1535.06 2847.65 1529.14L2847.65 1472.24C2847.65 1467.43 2847.14 1463.78 2846.1 1461.3 2845.07 1458.82 2843.25 1457.58 2840.66 1457.58L2833.44 1457.58C2828.35 1457.58 2824.16 1458.8 2820.89 1461.23 2817.62 1463.66 2815.32 1467.81 2813.97 1473.7 2811.9 1473.7 2810.22 1473.46 2808.92 1472.98 2810.89 1464.5 2812.12 1457.34 2812.6 1451.51 2812.6 1451.22 2812.81 1451.08 2813.25 1451.08ZM3151.42 1446.16 3160.47 1461.83 3145.37 1470.55 3138.12 1457.33 3136.41 1454.82ZM3004.97 1446.16 3020.21 1455.01 3015.27 1462.69 3011.12 1470.84 2995.87 1461.99ZM3115.4 1416.55 3131.2 1425.66 3122.37 1440.94 3114.7 1435.98 3106.57 1431.82ZM3041.26 1416.55 3050.06 1431.67 3036.71 1438.93 3034.18 1440.65 3025.43 1425.61ZM3069.19 1409 3087.44 1409 3087.44 1426.6 3084.39 1426.37 3069.19 1426.71Z" fill-rule="evenodd"/></g></svg>