<svg width="505" height="179" xmlns="http://www.w3.org/2000/svg" xmlns:xlink="http://www.w3.org/1999/xlink" xml:space="preserve" overflow="hidden"><defs><clipPath id="clip0"><rect x="83" y="36" width="505" height="179"/></clipPath></defs><g clip-path="url(#clip0)" transform="translate(-83 -36)"><path d="M507.442 197.677 507.442 215 489.186 215 489.186 197.787 492.24 198.012ZM542.264 183.531 550.908 198.478 535.266 207.493 526.567 192.452 539.761 185.234ZM454.259 183.531 461.93 188.458 470.061 192.593 461.231 207.782 445.43 198.72ZM565.511 153.793 580.756 162.486 571.659 178.045 556.414 169.352 561.361 161.8ZM430.971 153.793 438.215 166.939 439.925 169.433 424.923 178.045 415.873 162.46ZM570.613 116.55 588 116.55 588 134.739 570.724 134.739 570.95 131.697ZM408.339 116.55 425.905 116.55 425.673 119.592 426.015 134.739 408.339 134.739ZM358.101 83.3067C349.945 83.3067 345.867 86.4182 345.867 92.6421L345.867 126.066 352.92 126.066C360.884 126.066 367.001 124.462 371.271 121.256 375.541 118.048 377.676 112.217 377.676 103.76 377.676 90.1242 371.151 83.3067 358.101 83.3067ZM128.814 78.7071 148.794 78.9935 199.43 143.772C200.103 144.632 200.836 145.61 201.63 146.708 202.423 147.805 203.025 148.591 203.433 149.065 203.842 149.538 204.263 150.024 204.696 150.522 205.128 151.02 205.489 151.364 205.778 151.553 206.066 151.742 206.306 151.837 206.499 151.837 207.172 151.837 207.533 150.368 207.581 147.43L207.581 98.8102C207.581 95.3983 207.425 92.8034 207.112 91.0265 206.799 89.2491 206.054 87.8513 204.876 86.8322 203.698 85.8135 202.472 85.162 201.197 84.8781 199.923 84.5938 197.771 84.3096 194.741 84.025 194.261 83.6082 194.008 82.7479 193.984 81.4442 193.96 80.1405 194.213 79.2281 194.741 78.7071 204.599 78.9162 210.057 79.0204 211.115 79.0204 212.51 79.0204 218.016 78.9162 227.633 78.7071 228.018 79.2281 228.21 80.1276 228.21 81.405 228.21 82.6825 228.018 83.5557 227.633 84.025 222.103 84.5942 218.581 85.6485 217.066 87.1883 215.551 88.7281 214.794 92.6022 214.794 98.8102L214.794 170.485C214.794 173.738 213.664 175.365 211.404 175.365 209.24 175.365 207.268 174.108 205.489 171.595L153.916 107.127C151.367 103.905 149.696 102.305 148.903 102.329 148.109 102.352 147.712 104.734 147.712 109.473L147.712 154.041C147.712 157.453 147.869 160.047 148.181 161.824 148.494 163.601 149.239 164.999 150.417 166.018 151.595 167.037 152.822 167.689 154.096 167.973 155.371 168.257 157.522 168.565 160.552 168.897 160.937 169.426 161.141 170.339 161.165 171.636 161.189 172.932 160.984 173.792 160.552 174.215 150.694 174.003 145.236 173.897 144.178 173.897 142.784 173.897 137.278 174.003 127.66 174.215 127.18 173.792 126.927 172.932 126.903 171.636 126.879 170.339 127.131 169.426 127.66 168.897 133.19 168.328 136.713 167.262 138.227 165.698 139.742 164.134 140.5 160.249 140.5 154.041L140.5 93.3371C140.018 91.2043 138.696 89.1665 136.532 87.2235 134.369 85.2805 131.796 84.2144 128.814 84.025 128.333 83.6082 128.093 82.7479 128.093 81.4442 128.093 80.1405 128.333 79.2281 128.814 78.7071ZM83.719 78.7071C93.5398 78.9162 99.8635 79.0204 102.69 79.0204 105.901 79.0204 112.321 78.9162 121.95 78.7071 122.335 79.2281 122.539 80.1276 122.563 81.405 122.587 82.6825 122.383 83.5557 121.95 84.025 116.42 84.2144 112.898 85.0082 111.383 86.4064 109.868 87.8042 109.111 91.4174 109.111 97.246L109.111 155.605C109.111 161.434 109.881 165.047 111.419 166.445 112.958 167.842 116.468 168.66 121.95 168.897 122.335 169.426 122.539 170.339 122.563 171.636 122.587 172.932 122.383 173.792 121.95 174.215 112.077 174.003 105.706 173.897 102.837 173.897 99.6742 173.897 93.3018 174.003 83.719 174.215 83.2393 173.792 82.9998 172.932 82.9998 171.636 82.9998 170.339 83.2375 169.426 83.7132 168.897 89.1847 168.708 92.6695 167.902 94.1681 166.48 95.6667 165.059 96.4162 161.434 96.4162 155.605L96.4162 97.246C96.4162 91.4174 95.6667 87.8042 94.1681 86.4064 92.6695 85.0082 89.1847 84.2144 83.7132 84.025 83.2375 83.6082 82.9998 82.7479 82.9998 81.4442 82.9998 80.1405 83.2393 79.2281 83.719 78.7071ZM357.957 77.9884C363.605 77.9884 368.389 78.4351 372.309 79.328 376.23 80.2213 379.707 82.1399 382.74 85.084 387.827 90.0066 390.371 96.1845 390.371 103.617 390.371 110.361 388.334 115.86 384.261 120.117 380.188 124.373 375.978 127.243 371.631 128.725L390.215 159.521C392.475 163.245 394.638 166.063 396.706 167.972 398.774 169.882 401.323 170.838 404.352 170.838 405.025 172.131 405.073 173.305 404.496 174.359 403.102 175.03 401.034 175.365 398.293 175.365 390.695 175.365 384.204 170.886 378.818 161.93L363.138 136.874C361.939 134.95 360.188 133.554 357.885 132.686 355.582 131.818 351.576 131.384 345.867 131.384L345.867 155.736C345.867 161.508 346.628 165.085 348.15 166.469 349.672 167.854 353.145 168.663 358.568 168.897 358.948 169.544 359.139 170.496 359.139 171.754 359.139 173.011 358.985 173.832 358.677 174.215 348.797 174.023 342.436 173.928 339.593 173.928 336.43 173.928 330.057 174.023 320.475 174.215 319.995 173.832 319.755 173.011 319.755 171.754 319.755 170.496 319.993 169.544 320.469 168.897 325.94 168.708 329.425 167.901 330.924 166.478 332.422 165.055 333.172 161.427 333.172 155.593L333.172 97.182C333.172 91.3474 332.422 87.7306 330.924 86.3316 329.425 84.9323 325.94 84.1396 320.469 83.9531 319.993 83.5694 319.755 82.736 319.755 81.4539 319.755 80.1714 319.995 79.2558 320.475 78.7071 330.295 78.899 336.619 78.9946 339.446 78.9946 341.519 78.9946 344.845 78.8271 349.425 78.4915 354.004 78.1562 356.849 77.9884 357.957 77.9884ZM233.247 77.8447C243.211 78.6115 254.689 78.9946 267.684 78.9946L280.391 78.9946C293.483 78.9946 304.528 78.6115 313.529 77.8447 313.817 77.8447 313.962 77.9837 313.962 78.2615 314.058 84.5137 314.683 91.4854 315.837 99.176 314.731 99.6637 313.072 99.9073 310.86 99.9073 309.661 94.2412 307.394 90.2255 304.06 87.8603 300.726 85.4951 296.156 84.3125 290.351 84.3125L287.113 84.3125C284.571 84.3125 282.808 85.5573 281.824 88.0461 280.841 90.5352 280.349 94.2933 280.349 99.3198L280.349 155.47C280.349 161.357 281.176 165.007 282.831 166.419 284.486 167.832 288.408 168.657 294.597 168.897 295.076 169.426 295.328 170.339 295.352 171.636 295.376 172.932 295.124 173.792 294.597 174.215 284.721 174.003 277.88 173.897 274.075 173.897 269.925 173.897 263 174.003 253.3 174.215 253.011 173.792 252.867 172.932 252.867 171.636 252.867 170.339 253.057 169.426 253.438 168.897 259.582 168.706 263.487 167.892 265.153 166.455 266.82 165.019 267.654 161.357 267.654 155.47L267.654 98.8886C267.654 94.1014 267.137 90.4752 266.103 88.0101 265.069 85.545 263.254 84.3125 260.657 84.3125L253.444 84.3125C248.347 84.3125 244.163 85.5206 240.893 87.9361 237.623 90.352 235.315 94.4859 233.969 100.339 231.901 100.339 230.218 100.099 228.92 99.6198 230.891 91.1878 232.117 84.0732 232.599 78.2759 232.599 77.9884 232.815 77.8447 233.247 77.8447ZM571.416 72.9547 580.466 88.5394 565.369 97.2065 558.124 84.0609 556.414 81.5667ZM424.969 72.9547 440.214 81.7511 435.268 89.3936 431.118 97.495 415.873 88.6986ZM535.397 43.5064 551.198 52.5684 542.369 67.7582 534.698 62.8305 526.567 58.6959ZM461.257 43.5064 470.061 58.5482 456.711 65.766 454.175 67.4693 445.43 52.5224ZM489.186 36.0001 507.442 36.0001 507.442 53.5002 504.388 53.2716 489.186 53.6116Z" fill="#8FAADC" fill-rule="evenodd"/></g></svg>