<svg width="210" height="52" xmlns="http://www.w3.org/2000/svg" xmlns:xlink="http://www.w3.org/1999/xlink" xml:space="preserve" overflow="hidden"><defs><clipPath id="clip0"><rect x="433" y="290" width="210" height="52"/></clipPath></defs><g clip-path="url(#clip0)" transform="translate(-433 -290)"><path d="M193.742 88.4 188.458 88.4 188.458 83.3996 189.342 83.465 193.742 83.3677Z" fill="#92D050" fill-rule="evenodd" transform="matrix(1.00475 0 0 1 366.764 253.6)"/><path d="M180.367 86.3032 175.794 83.6707 178.349 79.2581 180.569 80.6895 182.923 81.8906Z" fill="#92D050" fill-rule="evenodd" transform="matrix(1.00475 0 0 1 366.764 253.6)"/><path d="M169.858 77.6645 167.239 73.1371 171.608 70.6194 173.705 74.4381 174.2 75.1627Z" fill="#92D050" fill-rule="evenodd" transform="matrix(1.00475 0 0 1 366.764 253.6)"/><path d="M170.174 65.0839 165.058 65.0839 165.058 59.8 170.142 59.8 170.075 60.6838Z" fill="#92D050" fill-rule="evenodd" transform="matrix(1.00475 0 0 1 366.764 253.6)"/><path d="M171.651 54.2645 167.239 51.7091 169.871 47.1355 174.284 49.6909 172.852 51.911Z" fill="#92D050" fill-rule="evenodd" transform="matrix(1.00475 0 0 1 366.764 253.6)"/><path d="M178.325 45.5419 175.794 41.1999 180.375 38.5806 182.923 42.9503 179.059 45.0471Z" fill="#92D050" fill-rule="evenodd" transform="matrix(1.00475 0 0 1 366.764 253.6)"/><path d="M188.458 41.5161 188.458 36.4 193.742 36.4 193.742 41.4838 192.858 41.4174Z" fill="#92D050" fill-rule="evenodd" transform="matrix(1.00475 0 0 1 366.764 253.6)"/><path d="M203.851 45.6258 201.631 44.1944 199.277 42.9933 201.833 38.5806 206.406 41.2132Z" fill="#92D050" fill-rule="evenodd" transform="matrix(1.00475 0 0 1 366.764 253.6)"/><path d="M210.508 54.1806 208.411 50.3618 207.916 49.6373 212.258 47.1355 214.877 51.6629Z" fill="#92D050" fill-rule="evenodd" transform="matrix(1.00475 0 0 1 366.764 253.6)"/><path d="M217.058 65.0839 212.058 65.0839 212.123 64.2001 212.026 59.8 217.058 59.8Z" fill="#92D050" fill-rule="evenodd" transform="matrix(1.00475 0 0 1 366.764 253.6)"/><path d="M212.329 77.6645 207.916 75.1392 209.348 72.9452 210.549 70.6194 214.961 73.1447Z" fill="#92D050" fill-rule="evenodd" transform="matrix(1.00475 0 0 1 366.764 253.6)"/><path d="M201.795 86.2194 199.277 81.8498 203.096 79.7529 203.821 79.2581 206.323 83.6002Z" fill="#92D050" fill-rule="evenodd" transform="matrix(1.00475 0 0 1 366.764 253.6)"/><path d="M247.598 47.9742C250.563 48.0374 252.473 48.0691 253.326 48.0691 254.295 48.0691 256.233 48.0374 259.14 47.9742 259.257 48.132 259.318 48.4045 259.326 48.7915 259.333 49.1785 259.271 49.4431 259.14 49.5854 257.471 49.6426 256.408 49.8832 255.95 50.3066 255.493 50.7302 255.265 51.825 255.265 53.5911L255.265 61.3439C256.643 61.229 257.819 60.6548 258.792 59.6211L266.153 51.8681C266.603 51.3942 266.886 51.003 267.002 50.6944 267.118 50.3857 267.049 50.1595 266.795 50.016 266.541 49.8724 266.295 49.7792 266.055 49.736 265.816 49.693 265.434 49.6426 264.911 49.5854 264.766 49.459 264.69 49.1984 264.683 48.8033 264.676 48.4084 264.752 48.132 264.911 47.9742 267.714 48.0374 269.39 48.0691 269.942 48.0691 269.971 48.0691 271.386 48.0374 274.188 47.9742 274.334 48.132 274.407 48.4045 274.407 48.7915 274.407 49.1785 274.334 49.4431 274.188 49.5854 272.446 49.8008 271.183 50.131 270.399 50.576 269.775 50.935 269.158 51.4232 268.548 52.0405L261.994 58.6947C260.948 59.7573 260.433 60.4824 260.447 60.8699 260.447 61.157 260.636 61.523 261.013 61.9681L270.792 73.4252C271.082 73.784 271.376 74.0817 271.673 74.3187 271.971 74.5556 272.29 74.7314 272.632 74.8462 272.973 74.9612 273.226 75.0472 273.394 75.1047 273.561 75.1621 273.826 75.2051 274.188 75.2339L274.711 75.2986C274.856 75.4589 274.929 75.7356 274.929 76.1283 274.929 76.5211 274.856 76.7817 274.711 76.9097 271.91 76.8456 270.407 76.8134 270.204 76.8134 269.783 76.8134 268.984 76.8456 267.808 76.9097 267.692 76.9097 267.612 76.8136 267.569 76.6212 267.452 75.7107 266.923 74.6452 265.978 73.4248L258.967 64.7032C258.11 63.6406 256.876 63.0808 255.265 63.0233L255.265 71.2715C255.265 73.0374 255.496 74.1322 255.961 74.5556 256.425 74.9791 257.486 75.2267 259.14 75.2986 259.257 75.4589 259.318 75.7356 259.326 76.1283 259.333 76.5211 259.271 76.7817 259.14 76.9097 256.16 76.8456 254.236 76.8134 253.37 76.8134 252.416 76.8134 250.492 76.8456 247.598 76.9097 247.453 76.7817 247.381 76.5211 247.381 76.1283 247.381 75.7356 247.453 75.4589 247.596 75.2986 249.248 75.2412 250.3 74.9972 250.752 74.5665 251.205 74.1358 251.432 73.0374 251.432 71.2715L251.432 53.5908C251.432 51.8249 251.205 50.7302 250.752 50.3066 250.3 49.8832 249.248 49.6426 247.596 49.5854 247.453 49.459 247.381 49.1984 247.381 48.8033 247.381 48.4084 247.453 48.132 247.598 47.9742ZM223.817 47.9742C226.782 48.0374 228.692 48.0691 229.545 48.0691 230.506 48.0691 232.442 48.0374 235.353 47.9742 235.444 48.132 235.49 48.4045 235.49 48.7915 235.49 49.1785 235.433 49.4431 235.318 49.5854 233.666 49.6434 232.614 49.8865 232.162 50.3147 231.709 50.7429 231.483 51.8496 231.483 53.635L231.483 72.9906C231.483 73.6729 231.668 74.2136 232.037 74.6128 232.407 75.012 232.918 75.2115 233.571 75.2115L236.831 75.2115C239.005 75.2115 240.633 74.6998 241.712 73.6765 242.791 72.6533 243.586 71.22 244.092 69.3765 244.6 69.2894 245.087 69.362 245.552 69.5942 245.261 72.1325 244.876 74.571 244.397 76.9097 241.653 76.8517 239.882 76.8226 239.083 76.8226L229.589 76.8226C227.188 76.8517 225.264 76.8807 223.817 76.9097 223.672 76.7817 223.6 76.5211 223.6 76.1283 223.6 75.7356 223.672 75.4589 223.816 75.2986 225.468 75.2412 226.52 74.9972 226.972 74.5665 227.425 74.1358 227.651 73.0374 227.651 71.2715L227.651 53.5908C227.651 51.8249 227.425 50.7302 226.972 50.3066 226.52 49.8832 225.468 49.6426 223.816 49.5854 223.672 49.459 223.6 49.1984 223.6 48.8033 223.6 48.4084 223.672 48.132 223.817 47.9742Z" fill="#92D050" fill-rule="evenodd" transform="matrix(1.00475 0 0 1 366.764 253.6)"/><path d="M94.0068 47.8096C96.9708 47.8727 98.8797 47.9045 99.7327 47.9045 100.702 47.9045 102.64 47.8727 105.547 47.8096 105.662 47.9673 105.724 48.2396 105.731 48.6265 105.739 49.0132 105.677 49.2777 105.547 49.4198 103.878 49.4771 102.814 49.7174 102.357 50.1407 101.9 50.564 101.671 51.6581 101.671 53.4231L101.671 71.094C101.671 72.859 101.903 73.9531 102.368 74.3763 102.833 74.7996 103.892 75.0471 105.547 75.1189 105.662 75.2791 105.724 75.5557 105.731 75.9482 105.739 76.3408 105.677 76.6012 105.547 76.7291 102.567 76.6651 100.643 76.6329 99.7771 76.6329 98.8226 76.6329 96.8995 76.6651 94.0068 76.7291 93.8625 76.6012 93.7896 76.3408 93.7896 75.9482 93.7896 75.5557 93.8617 75.2791 94.0051 75.1189 95.6565 75.0616 96.7083 74.8177 97.1612 74.3873 97.6132 73.9568 97.8397 72.859 97.8397 71.094L97.8397 53.4231C97.8397 51.6581 97.6132 50.564 97.1612 50.1407 96.7083 49.7174 95.6565 49.4771 94.0051 49.4198 93.8617 49.2937 93.7896 49.0331 93.7896 48.6383 93.7896 48.2435 93.8625 47.9673 94.0068 47.8096ZM66.1396 47.8096C69.1039 47.8727 71.0126 47.9045 71.8658 47.9045 72.8349 47.9045 74.7726 47.8727 77.6791 47.8096 77.7953 47.9673 77.8568 48.2396 77.8641 48.6265 77.8714 49.0132 77.8097 49.2777 77.6791 49.4198 76.01 49.4771 74.9468 49.7174 74.4897 50.1407 74.0323 50.564 73.8039 51.6583 73.8039 53.4234L73.8039 61.1719C75.1826 61.0571 76.3583 60.4832 77.3308 59.4501L84.6896 51.7013C85.1391 51.2277 85.4226 50.8367 85.5383 50.5282 85.6549 50.2198 85.5853 49.9936 85.332 49.8502 85.0779 49.7068 84.8313 49.6135 84.5914 49.5704 84.3524 49.5274 83.9708 49.4771 83.4484 49.4198 83.3033 49.2937 83.2271 49.0331 83.22 48.6383 83.2127 48.2435 83.2888 47.9673 83.4484 47.8096 86.2495 47.8727 87.9261 47.9045 88.478 47.9045 88.5065 47.9045 89.9223 47.8727 92.7227 47.8096 92.8678 47.9673 92.9408 48.2396 92.9408 48.6265 92.9408 49.0132 92.8678 49.2777 92.7227 49.4198 90.9816 49.6352 89.7185 49.9652 88.9351 50.41 88.3111 50.7688 87.6938 51.2567 87.0841 51.8737L80.5311 58.5242C79.4862 59.5862 78.9708 60.3109 78.9854 60.6982 78.9854 60.9852 79.1739 61.351 79.5514 61.7958L89.3268 73.2465C89.617 73.6052 89.9114 73.9027 90.2083 74.1396 90.506 74.3763 90.8256 74.5521 91.1661 74.6668 91.5074 74.7817 91.7615 74.8677 91.9285 74.9252 92.0954 74.9825 92.3604 75.0254 92.7227 75.0543L93.2452 75.1189C93.3903 75.2791 93.4633 75.5557 93.4633 75.9482 93.4633 76.3408 93.3903 76.6012 93.2452 76.7291 90.4448 76.6651 88.9418 76.6329 88.7388 76.6329 88.3178 76.6329 87.5194 76.6651 86.3443 76.7291 86.2277 76.7291 86.1481 76.6331 86.1045 76.4408 85.9887 75.5308 85.4586 74.4659 84.5151 73.2462L77.5049 64.5293C76.6485 63.4674 75.4149 62.9078 73.8039 62.8504L73.8039 71.094C73.8039 72.859 74.036 73.9531 74.5005 74.3763 74.9649 74.7996 76.0245 75.0471 77.6791 75.1189 77.7953 75.2791 77.8568 75.5557 77.8641 75.9482 77.8714 76.3408 77.8097 76.6012 77.6791 76.7291 74.6991 76.6651 72.776 76.6329 71.91 76.6329 70.9555 76.6329 69.032 76.6651 66.1396 76.7291 65.9949 76.6012 65.9226 76.3408 65.9226 75.9482 65.9226 75.5557 65.9943 75.2791 66.138 75.1189 67.7894 75.0616 68.8413 74.8177 69.2936 74.3873 69.7459 73.9568 69.972 72.859 69.972 71.094L69.972 53.4231C69.972 51.6581 69.7459 50.564 69.2936 50.1407 68.8413 49.7174 67.7894 49.4771 66.138 49.4198 65.9943 49.2937 65.9226 49.0331 65.9226 48.6383 65.9226 48.2435 65.9949 47.9673 66.1396 47.8096ZM157.384 47.7226C157.485 47.7226 157.543 47.766 157.558 47.8532 157.878 49.5648 158.197 51.7191 158.516 54.3158 158.124 54.461 157.667 54.5336 157.145 54.5336 156.783 53.3313 156.396 52.407 155.984 51.761 155.572 51.1148 154.907 50.5776 153.989 50.1492 153.07 49.721 151.86 49.5068 150.356 49.5068L147.45 49.5068C146.38 49.5068 145.852 50.0258 145.867 51.0638L145.867 60.6265 149.992 60.6265C151.802 60.6265 152.913 60.4452 153.325 60.0826 153.738 59.72 153.98 58.8655 154.053 57.519 154.169 57.3711 154.405 57.2971 154.76 57.2971 155.116 57.2971 155.367 57.3703 155.512 57.5164 155.454 59.3157 155.425 60.6104 155.425 61.4003 155.425 61.9275 155.454 63.2099 155.512 65.2475 155.367 65.4599 155.116 65.5661 154.76 65.5661 154.405 65.5661 154.169 65.492 154.053 65.344 153.995 64.5304 153.905 63.9458 153.782 63.5906 153.658 63.2355 153.3 62.921 152.706 62.6473 152.113 62.3736 151.208 62.2367 149.992 62.2367L145.867 62.2367 145.867 71.0973C145.867 72.8608 146.093 73.9541 146.545 74.377 146.998 74.8 148.05 75.0472 149.701 75.1189 149.845 75.2791 149.917 75.5557 149.917 75.9482 149.917 76.3408 149.855 76.6012 149.732 76.7291 146.751 76.6651 144.831 76.6329 143.973 76.6329 143.018 76.6329 141.088 76.6651 138.181 76.7291 138.065 76.6012 138.007 76.3408 138.007 75.9482 138.007 75.5557 138.065 75.2791 138.18 75.1189 139.831 75.0616 140.886 74.8177 141.346 74.3873 141.806 73.9568 142.035 72.859 142.035 71.094L142.035 53.4231C142.035 51.6581 141.803 50.564 141.339 50.1407 140.874 49.7174 139.807 49.4771 138.138 49.4198L138.018 48.8771 137.899 49.4198C136.229 49.5921 135.166 49.9114 134.709 50.3776 134.252 50.8439 134.023 52.0169 134.023 53.8967L134.023 75.5996C134.023 76.5848 133.682 77.0774 133 77.0774 132.347 77.0774 131.752 76.697 131.214 75.9359L115.648 56.4151C114.879 55.4394 114.375 54.9549 114.135 54.9622 113.896 54.9693 113.776 55.6904 113.776 57.1254L113.776 70.6207C113.776 71.6535 113.823 72.4391 113.918 72.9772 114.012 73.5154 114.236 73.9386 114.592 74.2472 114.948 74.5557 115.318 74.7529 115.703 74.8391 116.087 74.9252 116.737 75.0185 117.651 75.1189 117.767 75.2791 117.829 75.5557 117.836 75.9482 117.844 76.3408 117.782 76.6012 117.651 76.7291 114.676 76.6651 113.029 76.6329 112.709 76.6329 112.288 76.6329 110.627 76.6651 107.724 76.7291 107.579 76.6012 107.502 76.3408 107.495 75.9482 107.487 75.5557 107.564 75.2791 107.724 75.1189 109.393 74.9467 110.456 74.6239 110.913 74.1502 111.371 73.6766 111.599 72.5003 111.599 70.6207L111.599 52.2395C111.454 51.5936 111.054 50.9767 110.402 50.3883 109.749 49.8 108.972 49.4771 108.072 49.4198 107.927 49.2937 107.854 49.0331 107.854 48.6383 107.854 48.2435 107.927 47.9673 108.072 47.8096L114.102 47.8963 129.386 67.5112C129.589 67.7714 129.81 68.0677 130.05 68.4 130.289 68.7323 130.471 68.9703 130.595 69.1137 130.718 69.2573 130.845 69.4043 130.975 69.5551 131.106 69.7058 131.214 69.8098 131.302 69.8671 131.389 69.9246 131.462 69.9533 131.52 69.9533 131.723 69.9533 131.832 69.5083 131.846 68.6186L131.846 53.8967C131.846 52.8635 131.799 52.0779 131.705 51.5397 131.61 51.0017 131.386 50.5784 131.03 50.2699 130.674 49.9613 130.304 49.7642 129.919 49.678 129.535 49.5921 128.885 49.5059 127.971 49.4198 127.826 49.2937 127.75 49.0331 127.742 48.6383 127.735 48.2435 127.811 47.9673 127.971 47.8096 130.946 47.8727 132.593 47.9045 132.913 47.9045 133.334 47.9045 134.996 47.8727 137.899 47.8096L138.019 48.3739 138.138 47.8096 143.907 47.8965 155.294 47.8965C156.078 47.8965 156.774 47.8385 157.384 47.7226Z" fill="#92D050" fill-rule="evenodd" transform="matrix(1.00475 0 0 1 366.764 253.6)"/></g></svg>