<svg width="764" height="410" xmlns="http://www.w3.org/2000/svg" xmlns:xlink="http://www.w3.org/1999/xlink" xml:space="preserve" overflow="hidden"><g transform="translate(-1207 -247)"><path d="M1471.1 553.982 1474.96 570.945 1457.15 575.001 1453.31 558.145 1456.34 557.687ZM1501.91 532.392 1513.68 545.108 1500.43 557.412 1488.59 544.616 1499.85 534.616ZM1416.05 551.946 1424.64 555.066 1433.49 557.308 1428.27 574.145 1410.83 568.781ZM1517.96 498.107 1534.77 503.232 1529.37 520.489 1512.56 515.364 1515.7 506.869ZM1386.7 528 1396.7 539.263 1398.93 541.326 1386.21 553.092 1373.91 539.841ZM1514.64 460.503 1531.6 456.64 1535.65 474.451 1518.8 478.29 1518.34 475.261ZM1356.32 496.559 1373.45 492.656 1373.91 495.686 1377.62 510.442 1360.37 514.37ZM1839.3 352.901C1831.24 354.737 1827.74 357.985 1828.81 362.645L1844.49 431.495C1845.07 434.058 1846.48 435.686 1848.7 436.379 1850.93 437.073 1855.3 436.678 1861.81 435.195 1867.3 433.947 1872.02 432.295 1875.99 430.239 1879.95 428.184 1883.47 425.459 1886.54 422.064 1889.62 418.669 1891.58 414.312 1892.44 408.994 1893.3 403.676 1892.93 397.522 1891.34 390.532 1890.01 384.708 1888.03 379.29 1885.38 374.28 1882.74 369.27 1879.34 364.775 1875.18 360.796 1871.02 356.817 1865.85 354.085 1859.67 352.6 1853.49 351.115 1846.7 351.216 1839.3 352.901ZM1801.25 356.089C1810.88 354.106 1817.07 352.8 1819.83 352.172 1821.38 351.819 1824.89 350.969 1830.34 349.622 1835.79 348.275 1840.21 347.216 1843.6 346.446 1857.42 343.297 1870.25 345.395 1882.08 352.74 1893.91 360.086 1901.36 370.489 1904.42 383.95 1906.35 392.397 1906.54 400.017 1905.01 406.809 1903.47 413.6 1900.64 419.132 1896.51 423.404 1892.38 427.677 1887.91 431.09 1883.09 433.643 1878.27 436.196 1873.08 438.108 1867.5 439.378 1861.72 440.695 1856.13 441.916 1850.72 443.042 1845.32 444.168 1842.12 444.843 1841.14 445.068 1838.05 445.771 1831.86 447.286 1822.55 449.614 1822 449.322 1821.58 448.568 1821.3 447.349 1821.02 446.131 1821.06 445.221 1821.41 444.619 1826.71 443.217 1829.93 441.65 1831.07 439.919 1832.21 438.188 1832.13 434.456 1830.83 428.724L1817.76 371.336C1816.45 365.604 1814.91 362.218 1813.14 361.176 1811.36 360.134 1807.78 360.127 1802.4 361.157 1801.85 360.865 1801.43 360.099 1801.15 358.857 1800.86 357.615 1800.9 356.693 1801.25 356.089ZM1630.32 395.018C1639.95 393.04 1646.14 391.737 1648.9 391.109 1652.03 390.396 1658.27 388.867 1667.62 386.523 1668.11 386.948 1668.51 387.783 1668.82 389.029 1669.13 390.274 1669.12 391.175 1668.8 391.731 1663.45 393.145 1660.19 394.705 1659.03 396.41 1657.86 398.116 1657.93 401.823 1659.23 407.531L1664.93 432.589C1669.31 431.203 1672.68 428.481 1675.07 424.424L1693.14 393.948C1694.25 392.086 1694.88 390.613 1695.03 389.53 1695.17 388.447 1694.78 387.767 1693.86 387.489 1692.93 387.213 1692.06 387.092 1691.26 387.13 1690.45 387.167 1689.18 387.284 1687.45 387.484 1686.89 387.182 1686.45 386.396 1686.14 385.125 1685.82 383.853 1685.87 382.904 1686.27 382.276 1695.37 380.418 1700.81 379.287 1702.59 378.881 1702.69 378.859 1707.24 377.715 1716.25 375.449 1716.83 375.852 1717.27 376.68 1717.55 377.93 1717.84 379.181 1717.8 380.09 1717.43 380.656 1711.96 382.635 1708.12 384.632 1705.92 386.647 1704.16 388.267 1702.53 390.299 1701.01 392.743L1684.73 419.074C1682.13 423.278 1681 426.001 1681.33 427.243 1681.54 428.171 1682.42 429.215 1683.97 430.376L1724 460.211C1725.2 461.157 1726.37 461.903 1727.51 462.45 1728.65 462.997 1729.81 463.33 1730.99 463.45 1732.18 463.57 1733.07 463.662 1733.65 463.724 1734.23 463.787 1735.12 463.731 1736.31 463.557L1738.05 463.381C1738.64 463.793 1739.07 464.633 1739.36 465.903 1739.65 467.172 1739.61 468.068 1739.23 468.589 1730.13 470.443 1725.25 471.446 1724.6 471.595 1723.24 471.905 1720.68 472.596 1716.93 473.669 1716.55 473.755 1716.22 473.503 1715.94 472.913 1714.89 470.055 1712.4 467.002 1708.45 463.751L1679.37 440.723C1675.82 437.919 1671.42 437.017 1666.17 438.017L1672.24 464.676C1673.54 470.385 1675.1 473.752 1676.91 474.779 1678.72 475.806 1682.33 475.826 1687.73 474.84 1688.23 475.273 1688.63 476.122 1688.94 477.386 1689.25 478.65 1689.25 479.538 1688.92 480.048 1679.24 482.034 1673 483.346 1670.2 483.984 1667.11 484.686 1660.92 486.206 1651.62 488.542 1651.06 488.235 1650.63 487.446 1650.34 486.176 1650.05 484.907 1650.08 483.96 1650.43 483.336 1655.72 481.935 1658.94 480.372 1660.09 478.647 1661.23 476.922 1661.16 473.205 1659.86 467.497L1646.84 410.35C1645.54 404.643 1644 401.271 1642.23 400.235 1640.46 399.199 1636.88 399.196 1631.5 400.226 1630.94 399.924 1630.52 399.134 1630.23 397.858 1629.94 396.581 1629.97 395.634 1630.32 395.018ZM1263.2 478.625C1272.83 476.647 1279.02 475.345 1281.78 474.717 1284.88 474.01 1291.12 472.483 1300.48 470.136 1300.89 470.578 1301.24 471.425 1301.52 472.676 1301.81 473.927 1301.82 474.825 1301.55 475.369 1296.26 476.772 1293.04 478.332 1291.89 480.049 1290.74 481.766 1290.83 485.51 1292.14 491.28L1306.39 553.841C1306.89 556.046 1307.88 557.658 1309.37 558.676 1310.86 559.694 1312.66 559.963 1314.77 559.483L1325.3 557.083C1332.33 555.483 1337.21 552.632 1339.95 548.53 1342.68 544.428 1344.19 539.212 1344.47 532.88 1346.05 532.224 1347.68 532.101 1349.35 532.51 1350.28 540.928 1350.83 549.093 1351 557.004 1342.09 558.836 1336.35 560.046 1333.77 560.633L1303.09 567.621C1295.35 569.482 1289.15 570.991 1284.5 572.15 1283.94 571.842 1283.51 571.053 1283.22 569.784 1282.93 568.514 1282.96 567.568 1283.31 566.944 1288.6 565.542 1291.82 563.979 1292.97 562.254 1294.11 560.529 1294.04 556.813 1292.74 551.104L1279.72 493.958C1278.42 488.25 1276.89 484.879 1275.11 483.843 1273.34 482.807 1269.76 482.804 1264.38 483.834 1263.82 483.531 1263.4 482.742 1263.11 481.465 1262.82 480.189 1262.85 479.242 1263.2 478.625ZM1781.69 360.247C1782.07 360.162 1782.29 360.26 1782.35 360.541 1783.84 363.621 1786.49 370.269 1790.3 380.485 1788.93 381.605 1787.39 382.208 1785.68 382.294 1782.51 376.806 1779.65 373.092 1777.1 371.15 1774.54 369.209 1770.78 368.802 1765.83 369.93L1750.69 373.379C1749.05 373.751 1747.93 374.65 1747.32 376.075 1746.71 377.5 1746.62 379.147 1747.05 381.017L1753.76 410.504 1766.81 407.531C1772.66 406.2 1776.12 404.795 1777.19 403.319 1778.25 401.843 1778.38 398.906 1777.58 394.509 1777.85 393.945 1778.57 393.53 1779.74 393.263 1780.91 392.996 1781.79 393.045 1782.36 393.411 1783.5 399.273 1784.36 403.481 1784.94 406.035 1785.34 407.77 1786.39 411.968 1788.11 418.63 1787.76 419.279 1787.01 419.734 1785.86 419.996 1784.71 420.258 1783.87 420.197 1783.34 419.815 1782.56 417.226 1781.85 415.4 1781.21 414.336 1780.57 413.273 1779.2 412.517 1777.08 412.069 1774.96 411.62 1771.93 411.844 1768 412.739L1754.95 415.712 1762.95 450.834C1763.9 455.005 1766.08 456.702 1769.49 455.925L1789.06 451.468C1798.18 449.391 1803 441.612 1803.52 428.132 1805.17 427.358 1806.91 427.21 1808.75 427.69 1809.29 435.483 1809.32 443.833 1808.83 452.739 1801.1 454.302 1794.94 455.605 1790.35 456.651L1759.43 463.692C1751.7 465.553 1745.48 467.068 1740.78 468.238 1740.31 467.909 1739.93 467.109 1739.64 465.84 1739.35 464.57 1739.33 463.634 1739.59 463.031 1744.88 461.63 1748.11 460.064 1749.28 458.334 1750.45 456.604 1750.38 452.884 1749.08 447.176L1736.07 390.03C1734.77 384.322 1733.21 380.955 1731.4 379.928 1729.59 378.901 1725.96 378.909 1720.52 379.952 1720.06 379.627 1719.68 378.823 1719.38 377.54 1719.09 376.257 1719.08 375.325 1719.34 374.744L1738.05 370.779 1774.79 362.413C1777.27 361.847 1779.58 361.125 1781.69 360.247ZM1584.14 403.833C1591.04 402.26 1598.03 401.767 1605.1 402.353 1612.18 402.938 1616.22 403.166 1617.23 403.036 1621.17 412.764 1623.92 419.972 1625.48 424.659 1623.87 426.015 1622.32 426.613 1620.86 426.453 1612.29 411.4 1599.93 405.714 1583.77 409.394 1575.36 411.308 1568.66 417.333 1563.66 427.469 1561.69 431.425 1560.51 435.996 1560.11 441.178 1559.71 446.361 1560.2 451.983 1561.58 458.044 1563.27 465.469 1566 472.139 1569.77 478.053 1573.53 483.967 1578.48 488.561 1584.61 491.836 1590.74 495.111 1597.36 495.941 1604.45 494.325 1611.16 492.796 1616.87 490.199 1621.57 486.534 1626.27 482.869 1630.51 477.663 1634.31 470.915 1635.77 470.584 1637.04 471.062 1638.12 472.348 1631.16 487.567 1620.43 496.83 1605.92 500.134 1596.16 502.356 1587.23 501.944 1579.12 498.899 1571.01 495.853 1564.56 491.232 1559.77 485.033 1554.98 478.835 1551.66 471.695 1549.82 463.614 1546.3 448.153 1548.49 434.619 1556.4 423.011 1563.33 412.858 1572.58 406.465 1584.14 403.833ZM1505.7 417.635 1518 430.885 1505.2 442.727 1495.2 431.464 1492.98 429.401ZM1362.82 450.174 1379.65 455.4 1376.53 463.983 1374.29 472.838 1357.46 467.612ZM1463.99 396.801 1481.42 402.164 1476.2 419 1467.62 415.879 1458.76 413.637ZM1391.66 413.274 1403.6 426.047 1392.18 436.082 1390.09 438.313 1378.22 425.619ZM1417.23 399.718 1435.04 395.662 1438.94 412.798 1435.91 413.253 1421.16 416.964ZM1256.19 423.876C1246.43 426.099 1240.32 435.814 1242.54 445.574L1279.65 608.531C1281.87 618.292 1291.59 624.402 1301.35 622.179L1921.68 480.904C1931.44 478.682 1937.55 468.967 1935.33 459.207L1898.22 296.25C1896 286.489 1886.28 280.379 1876.52 282.601ZM1223.1 401.72 1896.75 248.303C1907.38 245.883 1917.96 252.537 1920.38 263.164L1969.63 479.435C1972.05 490.063 1965.4 500.641 1954.77 503.061L1281.12 656.477C1270.49 658.898 1259.91 652.244 1257.49 641.617L1208.24 425.346C1205.82 414.718 1212.47 404.14 1223.1 401.72Z" fill="#FF0000" fill-rule="evenodd"/></g></svg>