<svg width="803" height="994" xmlns="http://www.w3.org/2000/svg" xmlns:xlink="http://www.w3.org/1999/xlink" xml:space="preserve" overflow="hidden"><g transform="translate(-363 -1560)"><path d="M826.32 2381.06 790.949 2389.95 783.686 2391.04 792.888 2431.45 835.58 2421.72ZM694.388 2376.18 681.86 2416.54 723.656 2429.39 736.184 2389.04 714.959 2383.66ZM900.191 2329.31 895.247 2334.65 868.252 2358.61 896.635 2389.29 928.395 2359.79ZM624.03 2318.79 593.357 2347.17 622.851 2378.93 653.33 2350.73 647.997 2345.78ZM938.657 2247.13 933.233 2268.14 925.702 2288.5 966 2300.78 978.955 2259.42ZM592.275 2234.07 551.196 2243.42 560.919 2286.11 602.255 2276.7 593.359 2241.33ZM971.342 2147.74 930.682 2157 939.565 2192.37 940.662 2199.63 981.064 2190.43ZM566.784 2132.24 553.928 2174.04 594.281 2186.57 599.654 2165.34 607.137 2144.77ZM909.256 2054.24 878.777 2082.45 884.108 2087.39 908.076 2114.39 938.75 2086.01ZM635.904 2043.79 603.709 2073.38 632.151 2103.81 637.17 2098.46 664.531 2074.41ZM809.28 2004.31 796.752 2044.66 817.977 2050.04 838.549 2057.52 851.077 2017.16ZM739.896 2001.58 697.203 2011.3 706.617 2052.64 741.986 2043.74 749.25 2042.65ZM679.343 1683.71C668.775 1683.94 658.085 1685.22 647.405 1687.64 560.462 1707.29 507.429 1793.32 526.738 1878.77L548.419 1974.71 858.717 1904.58 860.216 1904.24 838.535 1808.3C821.343 1732.23 753.321 1682.12 679.343 1683.71ZM676.899 1560.86C807.991 1558.44 928.519 1648.73 958.458 1781.2L980.139 1877.14 981.637 1876.8C1022.11 1867.65 1060.7 1892.02 1072.85 1931.82L1163.98 2335.05C1173.12 2375.53 1147.6 2415.96 1107.12 2425.11L546.49 2551.8C506.016 2560.95 465.585 2535.43 456.438 2494.95L365.648 2093.21C356.502 2052.74 382.027 2012.31 422.502 2003.16L428.498 2001.81 406.817 1905.87C372.601 1754.47 468.903 1601.93 620.304 1567.72 639.229 1563.44 658.172 1561.2 676.899 1560.86Z" fill-rule="evenodd"/></g></svg>