<svg width="203" height="52" xmlns="http://www.w3.org/2000/svg" xmlns:xlink="http://www.w3.org/1999/xlink" xml:space="preserve" overflow="hidden"><defs><clipPath id="clip0"><rect x="604" y="134" width="203" height="52"/></clipPath></defs><g clip-path="url(#clip0)" transform="translate(-604 -134)"><path d="M193.742 88.4 188.458 88.4 188.458 83.3996 189.342 83.465 193.742 83.3677Z" fill="#8707B5" fill-rule="evenodd" transform="matrix(1.00473 0 0 1 550.827 97.6)"/><path d="M180.367 86.3032 175.794 83.6707 178.349 79.2581 180.569 80.6895 182.923 81.8906Z" fill="#8707B5" fill-rule="evenodd" transform="matrix(1.00473 0 0 1 550.827 97.6)"/><path d="M169.858 77.6645 167.239 73.1371 171.608 70.6194 173.705 74.4381 174.2 75.1627Z" fill="#8707B5" fill-rule="evenodd" transform="matrix(1.00473 0 0 1 550.827 97.6)"/><path d="M170.174 65.0839 165.058 65.0839 165.058 59.8 170.142 59.8 170.075 60.6838Z" fill="#8707B5" fill-rule="evenodd" transform="matrix(1.00473 0 0 1 550.827 97.6)"/><path d="M171.651 54.2645 167.239 51.7091 169.871 47.1355 174.284 49.6909 172.852 51.911Z" fill="#8707B5" fill-rule="evenodd" transform="matrix(1.00473 0 0 1 550.827 97.6)"/><path d="M178.325 45.5419 175.794 41.1999 180.375 38.5806 182.923 42.9503 179.059 45.0471Z" fill="#8707B5" fill-rule="evenodd" transform="matrix(1.00473 0 0 1 550.827 97.6)"/><path d="M188.458 41.5161 188.458 36.4 193.742 36.4 193.742 41.4838 192.858 41.4174Z" fill="#8707B5" fill-rule="evenodd" transform="matrix(1.00473 0 0 1 550.827 97.6)"/><path d="M203.851 45.6258 201.631 44.1944 199.277 42.9933 201.833 38.5806 206.406 41.2132Z" fill="#8707B5" fill-rule="evenodd" transform="matrix(1.00473 0 0 1 550.827 97.6)"/><path d="M210.508 54.1806 208.411 50.3618 207.916 49.6373 212.258 47.1355 214.877 51.6629Z" fill="#8707B5" fill-rule="evenodd" transform="matrix(1.00473 0 0 1 550.827 97.6)"/><path d="M217.058 65.0839 212.058 65.0839 212.123 64.2001 212.026 59.8 217.058 59.8Z" fill="#8707B5" fill-rule="evenodd" transform="matrix(1.00473 0 0 1 550.827 97.6)"/><path d="M212.329 77.6645 207.916 75.1392 209.348 72.9452 210.549 70.6194 214.961 73.1447Z" fill="#8707B5" fill-rule="evenodd" transform="matrix(1.00473 0 0 1 550.827 97.6)"/><path d="M201.795 86.2194 199.277 81.8498 203.096 79.7529 203.821 79.2581 206.323 83.6002Z" fill="#8707B5" fill-rule="evenodd" transform="matrix(1.00473 0 0 1 550.827 97.6)"/><path d="M89.123 49.1345C92.0157 49.1963 93.7367 49.2272 94.2877 49.2272 95.3672 49.2272 97.3348 49.1963 100.19 49.1345 100.279 49.2887 100.323 49.5549 100.323 49.9331 100.323 50.3113 100.267 50.5698 100.155 50.7088 98.4301 50.7653 97.3365 51.0017 96.8735 51.4179 96.4105 51.8343 96.179 52.9103 96.179 54.6459L96.179 65.6529C96.179 66.8665 96.2076 67.8649 96.2637 68.6481 96.3208 69.4314 96.5254 70.3276 96.8794 71.3365 97.2333 72.3455 97.7424 73.1674 98.4075 73.8023 99.9071 75.2417 101.626 75.9685 103.565 75.9827 104.98 75.9827 106.197 75.7569 107.215 75.3053 108.234 74.8538 109.019 74.3035 109.571 73.6542 110.123 73.0051 110.558 72.1654 110.876 71.1352 111.194 70.1051 111.389 69.1667 111.459 68.32 111.53 67.4734 111.566 66.4714 111.566 65.3143L111.566 54.6459C111.566 53.7144 111.523 53.0123 111.439 52.5397 111.353 52.067 111.123 51.7002 110.747 51.4391 110.372 51.1781 109.993 51.0122 109.61 50.9416 109.228 50.871 108.547 50.7934 107.57 50.7088 107.457 50.5854 107.4 50.3306 107.4 49.9447 107.4 49.5588 107.459 49.2887 107.576 49.1345 110.477 49.1963 112.154 49.2272 112.607 49.2272 112.72 49.2272 114.201 49.1963 117.049 49.1345 117.162 49.2887 117.219 49.5549 117.219 49.9331 117.219 50.3113 117.162 50.5698 117.049 50.7088 116 50.8215 115.296 50.9415 114.934 51.0686 114.573 51.1957 114.279 51.5273 114.052 52.0635 113.825 52.5997 113.712 53.4604 113.712 54.6459L113.712 64.5311C113.712 66.5787 113.553 68.3615 113.234 69.8795 112.916 71.3976 112.357 72.7708 111.558 73.9994 110.757 75.2278 109.619 76.1598 108.14 76.7952 106.66 77.4307 104.831 77.7484 102.652 77.7484 101.515 77.7484 100.417 77.5966 99.3577 77.2931 98.2985 76.9894 97.2148 76.4774 96.1061 75.7571 94.9973 75.0368 94.1091 73.9316 93.4406 72.4416 92.773 70.9517 92.4384 69.1686 92.4384 67.0923L92.4384 54.6459C92.4384 52.9383 92.2321 51.8694 91.8194 51.4391 91.4059 51.0087 90.5068 50.7653 89.1213 50.7088 89.0097 50.5854 88.9535 50.3306 88.9535 49.9447 88.9535 49.5588 89.0097 49.2887 89.123 49.1345ZM55.1371 49.1345 61.4723 49.2193 70.4593 71.2428C70.6307 71.624 70.7447 71.8145 70.8017 71.8145 70.8873 71.8145 71.0229 71.6099 71.2085 71.2006L80.4953 49.2196 86.2093 49.1345C86.351 49.2843 86.4257 49.5492 86.4324 49.9292 86.4399 50.3093 86.3653 50.5692 86.2093 50.7088 84.7785 50.7901 83.9003 51.0138 83.5737 51.3797 83.2476 51.7457 83.1344 52.5184 83.2342 53.6978L84.5637 72.0395C84.6157 72.7474 84.6535 73.2676 84.677 73.6 84.7013 73.9326 84.7667 74.2599 84.8724 74.5818 84.9789 74.9039 85.0854 75.1207 85.1911 75.2323 85.2976 75.3441 85.4888 75.4525 85.7656 75.5577 86.0415 75.6628 86.325 75.7285 86.6152 75.7548 86.9054 75.781 87.3273 75.8074 87.88 75.8337 88.0217 75.9904 88.0922 76.2607 88.0922 76.6445 88.0922 77.0283 88.0217 77.2828 87.88 77.408 85.9669 77.3453 84.3599 77.3139 83.0576 77.3139 82.6549 77.3139 81.0703 77.3453 78.3037 77.408 78.162 77.2828 78.0912 77.0283 78.0912 76.6445 78.0912 76.2607 78.162 75.9904 78.3037 75.8337 78.8704 75.8064 79.2743 75.7826 79.5151 75.7622 79.7559 75.7419 80.0181 75.684 80.3014 75.5887 80.5847 75.4934 80.7654 75.3913 80.8433 75.2822 80.9212 75.1732 80.9966 74.9656 81.0693 74.6592 81.1421 74.3528 81.1709 74.0362 81.156 73.7094 81.1411 73.3827 81.1112 72.8993 81.0665 72.2593L79.9554 54.0489 79.8488 54.1386 70.0502 77.1118C69.8798 77.437 69.6737 77.5924 69.4323 77.5782 69.1057 77.5782 68.8857 77.4228 68.7721 77.1118L59.7402 54.5807 59.6549 54.491 57.9966 71.9572C57.8863 73.2699 58.004 74.2135 58.3495 74.7877 58.6951 75.3621 59.5409 75.7107 60.8869 75.8337 61.0002 75.9904 61.0569 76.2607 61.0569 76.6445 61.0569 77.0283 61.0002 77.2828 60.8869 77.408 59.1442 77.3453 57.7884 77.3139 56.8194 77.3139 56.0776 77.3139 54.8353 77.3453 53.0926 77.408 52.9793 77.2828 52.9226 77.0283 52.9226 76.6445 52.9226 76.2607 52.9793 75.9904 53.0926 75.8337 54.2827 75.7382 55.0903 75.4175 55.5154 74.8717 55.9404 74.3259 56.2167 73.3842 56.3442 72.0469L58.0912 54.0917C58.2338 52.5471 58.1632 51.6176 57.8794 51.3033 57.5955 50.9889 56.6815 50.7907 55.1371 50.7088 54.9955 50.5854 54.9247 50.3306 54.9247 49.9447 54.9247 49.5588 54.9955 49.2887 55.1371 49.1345ZM157.758 49.0493C157.872 49.0493 157.928 49.0919 157.928 49.177 158.155 50.1596 158.481 52.2436 158.906 55.429 158.438 55.6611 157.957 55.7335 157.461 55.6464 156.91 53.862 156.332 52.6071 155.725 51.8818 155.118 51.1565 154.067 50.7939 152.571 50.7939L147.998 50.7939C147.504 50.7939 147.122 50.9787 146.855 51.3483 146.586 51.7179 146.452 52.1854 146.452 52.7507L146.452 61.665 150.394 61.665C152.16 61.665 153.245 61.4878 153.647 61.1333 154.051 60.7789 154.28 59.9435 154.337 58.6271 154.45 58.4824 154.684 58.4101 155.038 58.4101 155.392 58.4101 155.64 58.4816 155.782 58.6245 155.725 60.3836 155.697 61.6493 155.697 62.4216 155.697 62.9459 155.725 64.2215 155.782 66.2483 155.64 66.4123 155.396 66.4943 155.049 66.4943 154.702 66.4943 154.464 66.422 154.337 66.2772 154.28 65.4817 154.195 64.9103 154.083 64.563 153.969 64.2157 153.623 63.9083 153.044 63.6407 152.465 63.3732 151.582 63.2393 150.394 63.2393L146.452 63.2393 146.452 73.8572C146.452 75.1181 146.968 75.7486 147.999 75.7486L153.908 75.7486C156.663 75.7486 158.555 73.8285 159.586 69.9883 160.111 69.8737 160.62 69.9454 161.116 70.2034 160.762 72.4786 160.224 74.8802 159.501 77.408 157.181 77.3513 155.327 77.3229 153.941 77.3229L144.604 77.3229C142.26 77.3513 140.376 77.3796 138.949 77.408 138.837 77.2828 138.78 77.0283 138.78 76.6445 138.78 76.2607 138.836 75.9904 138.948 75.8337 140.56 75.7777 141.59 75.5392 142.039 75.1184 142.488 74.6976 142.711 73.6243 142.711 71.8986L142.711 54.6226C142.711 52.8972 142.485 51.8275 142.031 51.4137 141.578 50.9998 140.537 50.7648 138.908 50.7088 138.794 50.5847 138.738 50.3287 138.738 49.9409 138.738 49.5531 138.794 49.2843 138.908 49.1345L144.539 49.2196 155.633 49.2196C156.384 49.2196 157.092 49.1628 157.758 49.0493ZM128.216 48.6452C129.877 48.6452 131.307 48.8401 132.505 49.2298 133.705 49.6197 134.503 49.8446 134.9 49.9047 135.296 51.9029 135.559 53.7735 135.686 55.5165 135.474 55.6718 135 55.7566 134.262 55.7708 134.121 55.3186 133.982 54.9126 133.847 54.5524 133.713 54.1923 133.546 53.8145 133.347 53.4189 133.149 53.0233 132.932 52.6773 132.698 52.3806 132.464 52.084 132.184 51.7944 131.858 51.5119 131.531 51.2293 131.177 50.9962 130.793 50.8126 130.41 50.629 129.966 50.4843 129.463 50.3784 128.959 50.2724 128.41 50.2194 127.813 50.2194 126.555 50.2194 125.449 50.7209 124.495 51.7238 123.54 52.7267 123.063 53.8426 123.063 55.0713 123.063 55.7495 123.218 56.3886 123.529 56.989 123.841 57.5893 124.208 58.0908 124.632 58.4934 125.056 58.8959 125.611 59.2948 126.297 59.6904 126.982 60.0858 127.559 60.3789 128.026 60.5696 128.492 60.7602 129.072 60.9898 129.764 61.2582 130.457 61.5265 130.896 61.6961 131.079 61.7668 131.927 62.134 132.687 62.5259 133.357 62.9426 134.028 63.3594 134.662 63.8679 135.261 64.4683 135.859 65.0686 136.317 65.7783 136.634 66.5975 136.952 67.4167 137.111 68.3207 137.111 69.3095 137.111 70.6841 136.739 72.0021 135.997 73.2632 135.255 74.5244 134.255 75.5447 132.998 76.3243 131.457 77.2737 129.65 77.7484 127.58 77.7484 126.153 77.7484 124.655 77.5795 123.088 77.2416 121.521 76.9038 120.31 76.7349 119.457 76.7349 119.036 74.9099 118.757 72.7102 118.621 70.1355 119.074 69.8955 119.549 69.8532 120.045 70.0086 120.983 74.119 123.615 76.1741 127.941 76.1741 129.68 76.1741 131.02 75.7186 131.96 74.8075 132.9 73.8965 133.37 72.5724 133.37 70.8349 133.37 70.044 133.247 69.3201 132.999 68.6632 132.752 68.0064 132.469 67.4767 132.15 67.0742 131.833 66.6716 131.38 66.2832 130.793 65.9089 130.206 65.5346 129.718 65.2627 129.33 65.0932 128.941 64.9237 128.39 64.7012 127.676 64.4257 126.961 64.1502 126.471 63.9561 126.204 63.843 124.884 63.2923 123.779 62.7168 122.889 62.1164 122 61.5161 121.232 60.7074 120.587 59.6904 119.942 58.6733 119.62 57.5292 119.62 56.258 119.62 53.9991 120.461 52.1656 122.144 50.7575 123.826 49.3493 125.85 48.6452 128.216 48.6452Z" fill="#8707B5" fill-rule="evenodd" transform="matrix(1.00473 0 0 1 550.827 97.6)"/><path d="M222.038 49.1484 228.369 49.2331 237.349 71.2471C237.52 71.6282 237.634 71.8186 237.691 71.8186 237.777 71.8186 237.912 71.6141 238.097 71.2049L247.377 49.2334 253.087 49.1484C253.228 49.2982 253.302 49.563 253.31 49.9428 253.316 50.3228 253.243 50.5825 253.087 50.7221 251.657 50.8033 250.778 51.0268 250.453 51.3927 250.127 51.7585 250.013 52.5309 250.113 53.7098L251.443 72.0436C251.494 72.7511 251.532 73.271 251.555 73.6034 251.579 73.9358 251.645 74.2629 251.75 74.5847 251.857 74.9066 251.963 75.1233 252.069 75.2349 252.176 75.3467 252.366 75.455 252.643 75.5601 252.919 75.6652 253.201 75.7309 253.492 75.7571 253.782 75.7834 254.204 75.8097 254.756 75.836 254.897 75.9927 254.968 76.2628 254.968 76.6465 254.968 77.0301 254.897 77.2845 254.756 77.4096 252.844 77.347 251.238 77.3156 249.937 77.3156 249.535 77.3156 247.951 77.347 245.187 77.4096 245.045 77.2845 244.975 77.0301 244.975 76.6465 244.975 76.2628 245.045 75.9927 245.187 75.836 245.753 75.8088 246.156 75.785 246.397 75.7646 246.638 75.7442 246.9 75.6864 247.183 75.5912 247.466 75.4959 247.647 75.3938 247.725 75.2849 247.803 75.1759 247.877 74.9682 247.95 74.662 248.023 74.3557 248.052 74.0393 248.037 73.7127 248.022 73.3861 247.992 72.9029 247.948 72.2631L246.837 54.0606 246.731 54.1504 236.94 77.1137C236.769 77.4386 236.564 77.594 236.322 77.5798 235.996 77.5798 235.776 77.4244 235.663 77.1137L226.638 54.5923 226.553 54.5025 224.896 71.9612C224.786 73.2734 224.903 74.2165 225.248 74.7906 225.594 75.3646 226.439 75.7131 227.783 75.836 227.897 75.9927 227.954 76.2628 227.954 76.6465 227.954 77.0301 227.897 77.2845 227.783 77.4096 226.042 77.347 224.688 77.3156 223.72 77.3156 222.979 77.3156 221.737 77.347 219.996 77.4096 219.883 77.2845 219.826 77.0301 219.826 76.6465 219.826 76.2628 219.883 75.9927 219.996 75.836 221.185 75.7406 221.992 75.4201 222.417 74.8745 222.841 74.3289 223.117 73.3877 223.244 72.0509L224.991 54.1035C225.133 52.5596 225.062 51.6305 224.778 51.3163 224.495 51.0021 223.582 50.804 222.038 50.7221 221.897 50.5986 221.826 50.3441 221.826 49.9583 221.826 49.5725 221.897 49.3026 222.038 49.1484Z" fill="#8707B5" fill-rule="evenodd" transform="matrix(1.00473 0 0 1 550.827 97.6)"/></g></svg>