<svg width="446" height="180" xmlns="http://www.w3.org/2000/svg" xmlns:xlink="http://www.w3.org/1999/xlink" xml:space="preserve" overflow="hidden"><defs><clipPath id="clip0"><rect x="1774" y="919" width="446" height="180"/></clipPath></defs><g clip-path="url(#clip0)" transform="translate(-1774 -919)"><path d="M1873.27 1081.58 1873.27 1099 1854.98 1099 1854.98 1081.69 1858.04 1081.92ZM1908.15 1067.35 1916.81 1082.39 1901.14 1091.45 1892.42 1076.33 1905.64 1069.07ZM1820 1067.35 1827.68 1072.31 1835.82 1076.47 1826.98 1091.74 1811.15 1082.63ZM1931.43 1037.45 1946.7 1046.19 1937.59 1061.84 1922.32 1053.1 1927.27 1045.5ZM1796.67 1037.45 1803.93 1050.67 1805.64 1053.18 1790.61 1061.84 1781.55 1046.17ZM1936.54 1000 1953.96 1000 1953.96 1018.29 1936.65 1018.29 1936.88 1015.23ZM1774 1000 1791.6 1000 1791.36 1003.06 1791.71 1018.29 1774 1018.29ZM2004.12 966.414C1995.95 966.414 1991.87 969.543 1991.87 975.802L1991.87 1009.41 1998.93 1009.41C2006.91 1009.41 2013.04 1007.8 2017.32 1004.57 2021.59 1001.35 2023.73 995.485 2023.73 986.981 2023.73 973.27 2017.2 966.414 2004.12 966.414ZM2003.98 961.066C2009.64 961.066 2014.43 961.515 2018.36 962.413 2022.28 963.311 2025.77 965.241 2028.8 968.201 2033.9 973.151 2036.45 979.364 2036.45 986.838 2036.45 993.619 2034.41 999.15 2030.33 1003.43 2026.25 1007.71 2022.03 1010.6 2017.68 1012.09L2036.29 1043.05C2038.55 1046.8 2040.72 1049.63 2042.79 1051.55 2044.86 1053.47 2047.42 1054.43 2050.45 1054.43 2051.13 1055.73 2051.17 1056.92 2050.6 1057.97 2049.2 1058.65 2047.13 1058.99 2044.38 1058.99 2036.77 1058.99 2030.27 1054.48 2024.88 1045.48L2009.17 1020.28C2007.97 1018.35 2006.22 1016.94 2003.91 1016.07 2001.6 1015.2 1997.59 1014.76 1991.87 1014.76L1991.87 1039.25C1991.87 1045.05 1992.63 1048.65 1994.16 1050.04 1995.68 1051.43 1999.16 1052.25 2004.59 1052.48 2004.97 1053.13 2005.16 1054.09 2005.16 1055.36 2005.16 1056.62 2005.01 1057.45 2004.7 1057.83 1994.81 1057.64 1988.43 1057.54 1985.59 1057.54 1982.42 1057.54 1976.03 1057.64 1966.44 1057.83 1965.96 1057.45 1965.72 1056.62 1965.72 1055.36 1965.72 1054.09 1965.95 1053.13 1966.43 1052.48 1971.91 1052.29 1975.4 1051.48 1976.9 1050.05 1978.4 1048.62 1979.15 1044.97 1979.15 1039.1L1979.15 980.367C1979.15 974.5 1978.4 970.863 1976.9 969.456 1975.4 968.049 1971.91 967.252 1966.43 967.064 1965.95 966.678 1965.72 965.84 1965.72 964.551 1965.72 963.261 1965.96 962.34 1966.44 961.789 1976.27 961.982 1982.61 962.078 1985.44 962.078 1987.52 962.078 1990.85 961.909 1995.43 961.572 2000.02 961.235 2002.87 961.066 2003.98 961.066ZM2189.76 960.127C2195.41 960.127 2200.27 960.789 2204.34 962.113 2208.42 963.437 2211.14 964.201 2212.49 964.405 2213.83 971.193 2214.73 977.547 2215.16 983.468 2214.44 983.995 2212.82 984.283 2210.32 984.331 2209.84 982.796 2209.37 981.416 2208.91 980.193 2208.45 978.969 2207.88 977.686 2207.21 976.342 2206.53 974.999 2205.8 973.823 2205 972.816 2204.2 971.808 2203.25 970.824 2202.14 969.865 2201.03 968.905 2199.83 968.113 2198.52 967.489 2197.22 966.866 2195.71 966.374 2194 966.014 2192.29 965.654 2190.42 965.474 2188.39 965.474 2184.12 965.474 2180.35 967.177 2177.11 970.584 2173.87 973.991 2172.24 977.781 2172.24 981.955 2172.24 984.259 2172.77 986.43 2173.83 988.469 2174.89 990.509 2176.14 992.212 2177.58 993.58 2179.02 994.947 2180.91 996.302 2183.24 997.646 2185.57 998.989 2187.53 999.985 2189.11 1000.63 2190.7 1001.28 2192.67 1002.06 2195.03 1002.97 2197.38 1003.88 2198.87 1004.46 2199.5 1004.7 2202.38 1005.95 2204.96 1007.28 2207.24 1008.69 2209.52 1010.11 2211.68 1011.84 2213.71 1013.88 2215.75 1015.91 2217.3 1018.33 2218.38 1021.11 2219.46 1023.89 2220 1026.96 2220 1030.32 2220 1034.99 2218.74 1039.47 2216.21 1043.75 2213.69 1048.03 2210.29 1051.5 2206.02 1054.15 2200.78 1057.37 2194.64 1058.99 2187.6 1058.99 2182.75 1058.99 2177.66 1058.41 2172.33 1057.27 2167 1056.12 2162.89 1055.54 2159.98 1055.54 2158.55 1049.34 2157.61 1041.87 2157.14 1033.13 2158.68 1032.31 2160.3 1032.17 2161.98 1032.7 2165.17 1046.66 2174.12 1053.64 2188.83 1053.64 2194.74 1053.64 2199.29 1052.09 2202.49 1049 2205.69 1045.9 2207.28 1041.4 2207.28 1035.5 2207.28 1032.82 2206.86 1030.36 2206.02 1028.13 2205.18 1025.89 2204.22 1024.1 2203.14 1022.73 2202.06 1021.36 2200.52 1020.04 2198.52 1018.77 2196.53 1017.5 2194.87 1016.57 2193.55 1016 2192.23 1015.42 2190.35 1014.67 2187.93 1013.73 2185.5 1012.8 2183.83 1012.14 2182.92 1011.75 2178.44 1009.88 2174.68 1007.93 2171.66 1005.89 2168.63 1003.85 2166.02 1001.1 2163.83 997.646 2161.64 994.191 2160.54 990.304 2160.54 985.987 2160.54 978.314 2163.4 972.085 2169.12 967.302 2174.84 962.518 2181.72 960.127 2189.76 960.127ZM2104.89 960.127C2111.72 960.127 2118.29 961.223 2124.61 963.417 2130.93 965.61 2135.18 966.706 2137.36 966.706 2138.23 976.033 2139.31 983.645 2140.61 989.541L2135.55 990.411C2133.28 982.775 2129.71 976.71 2124.84 972.216 2119.97 967.722 2112.62 965.474 2102.79 965.474 2092.62 965.474 2084.15 969.534 2077.4 977.653 2070.65 985.772 2067.28 996.259 2067.28 1009.11 2067.28 1014.12 2068.17 1019.19 2069.95 1024.34 2071.74 1029.49 2074.26 1034.27 2077.51 1038.7 2080.77 1043.13 2085.01 1046.72 2090.24 1049.49 2095.47 1052.26 2101.25 1053.64 2107.57 1053.64 2116.87 1053.64 2124.03 1051.26 2129.05 1046.5L2129.05 1024.5C2129.05 1021.76 2128.19 1019.99 2126.48 1019.2 2124.76 1018.41 2121.62 1017.82 2117.05 1017.43 2116.67 1016.95 2116.48 1016.07 2116.48 1014.8 2116.48 1013.52 2116.62 1012.62 2116.9 1012.09 2126.27 1012.28 2132.44 1012.38 2135.4 1012.38 2138.22 1012.38 2142.56 1012.28 2148.42 1012.09 2148.9 1012.57 2149.13 1013.46 2149.13 1014.76 2149.13 1016.06 2148.9 1016.95 2148.43 1017.43 2146.11 1017.63 2144.42 1018.24 2143.36 1019.27 2142.3 1020.31 2141.77 1022.05 2141.77 1024.5L2141.77 1041.09C2141.77 1042.58 2142.56 1043.95 2144.15 1045.2 2133.37 1054.39 2120.04 1058.99 2104.17 1058.99 2089.77 1058.99 2077.9 1054.43 2068.57 1045.33 2059.23 1036.22 2054.56 1025.14 2054.56 1012.09 2054.56 1001.63 2057.03 992.381 2061.97 984.336 2066.92 976.29 2073.17 970.244 2080.72 966.197 2088.28 962.15 2096.34 960.127 2104.89 960.127ZM1937.35 956.161 1946.41 971.833 1931.29 980.548 1924.03 967.329 1922.32 964.821ZM1790.66 956.161 1805.93 965.006 1800.97 972.692 1796.82 980.838 1781.55 971.993ZM1901.27 926.548 1917.1 935.661 1908.25 950.935 1900.57 945.98 1892.42 941.822ZM1827.01 926.548 1835.82 941.674 1822.45 948.932 1819.91 950.645 1811.15 935.614ZM1854.98 919 1873.27 919 1873.27 936.598 1870.21 936.368 1854.98 936.71Z" fill="#843C0C" fill-rule="evenodd"/></g></svg>