<svg width="646" height="179" xmlns="http://www.w3.org/2000/svg" xmlns:xlink="http://www.w3.org/1999/xlink" xml:space="preserve" overflow="hidden"><defs><clipPath id="clip0"><rect x="374" y="2283" width="646" height="179"/></clipPath></defs><g clip-path="url(#clip0)" transform="translate(-374 -2283)"><path d="M669.362 2444.68 669.362 2462 651.101 2462 651.101 2444.79 654.156 2445.01ZM704.195 2430.53 712.841 2445.48 697.194 2454.49 688.493 2439.45 701.69 2432.23ZM616.163 2430.53 623.836 2435.46 631.969 2439.59 623.137 2454.78 607.331 2445.72ZM727.448 2400.79 742.697 2409.49 733.598 2425.05 718.349 2416.35 723.297 2408.8ZM592.867 2400.79 600.114 2413.94 601.824 2416.43 586.818 2425.05 577.765 2409.46ZM732.552 2363.55 749.944 2363.55 749.944 2381.74 732.662 2381.74 732.888 2378.7ZM570.229 2363.55 587.8 2363.55 587.568 2366.59 587.91 2381.74 570.229 2381.74ZM412.934 2330.15C404.391 2330.15 400.119 2333.26 400.119 2339.49L400.119 2373.56C401.895 2374.04 405.639 2374.28 411.35 2374.28 418.646 2374.28 424.13 2372.49 427.801 2368.93 431.473 2365.37 433.309 2359.76 433.309 2352.11 433.309 2343.65 431.437 2337.87 427.694 2334.78 423.95 2331.69 419.03 2330.15 412.934 2330.15ZM898.941 2329.22C895.381 2329.22 891.93 2330.07 888.587 2331.78 885.244 2333.5 882.141 2336 879.279 2339.31 876.417 2342.62 874.096 2347.17 872.316 2352.97 870.536 2358.77 869.647 2365.31 869.647 2372.59 869.647 2386.05 873.098 2396.8 880.001 2404.83 886.903 2412.87 895.14 2416.89 904.713 2416.89 913.371 2416.89 920.454 2413.11 925.961 2405.55 931.469 2397.99 934.223 2387.83 934.223 2375.09 934.223 2360.77 930.88 2349.55 924.194 2341.42 917.507 2333.28 909.09 2329.22 898.941 2329.22ZM454.046 2325.55C463.87 2325.76 470.196 2325.86 473.023 2325.86 476.207 2325.86 482.623 2325.76 492.271 2325.55 492.655 2326.07 492.859 2326.97 492.883 2328.25 492.907 2329.53 492.703 2330.4 492.271 2330.87 486.747 2331.06 483.229 2331.85 481.715 2333.25 480.203 2334.65 479.446 2338.26 479.446 2344.08L479.446 2367.38 529.952 2367.38 529.952 2344.08C529.952 2338.26 529.191 2334.65 527.669 2333.25 526.146 2331.85 522.648 2331.06 517.176 2330.87 516.795 2330.45 516.605 2329.59 516.605 2328.29 516.605 2326.98 516.755 2326.07 517.056 2325.55 526.943 2325.76 533.334 2325.86 536.229 2325.86 539.392 2325.86 545.767 2325.76 555.352 2325.55 555.832 2326.07 556.072 2326.97 556.072 2328.25 556.072 2329.53 555.834 2330.4 555.358 2330.87 549.885 2331.06 546.399 2331.85 544.9 2333.25 543.401 2334.65 542.651 2338.26 542.651 2344.09L542.651 2402.45C542.651 2408.28 543.401 2411.89 544.9 2413.29 546.399 2414.69 549.885 2415.5 555.358 2415.74 555.834 2416.27 556.072 2417.18 556.072 2418.48 556.072 2419.78 555.832 2420.64 555.352 2421.06 545.528 2420.85 539.203 2420.74 536.375 2420.74 533.192 2420.74 526.752 2420.85 517.056 2421.06 516.755 2420.64 516.605 2419.78 516.605 2418.48 516.605 2417.18 516.795 2416.27 517.176 2415.74 522.648 2415.55 526.146 2414.75 527.669 2413.33 529.191 2411.91 529.952 2408.28 529.952 2402.46L529.952 2373.56 479.446 2373.56 479.446 2402.46C479.446 2408.28 480.215 2411.89 481.752 2413.29 483.288 2414.69 486.795 2415.5 492.271 2415.74 492.655 2416.27 492.859 2417.18 492.883 2418.48 492.907 2419.78 492.703 2420.64 492.271 2421.06 482.383 2420.85 476.016 2420.74 473.17 2420.74 470.007 2420.74 463.632 2420.85 454.046 2421.06 453.567 2420.64 453.327 2419.78 453.327 2418.48 453.327 2417.18 453.565 2416.27 454.041 2415.74 459.514 2415.55 463 2414.75 464.499 2413.32 465.998 2411.9 466.747 2408.28 466.747 2402.45L466.747 2344.09C466.747 2338.26 465.998 2334.65 464.499 2333.25 463 2331.85 459.514 2331.06 454.041 2330.87 453.565 2330.45 453.327 2329.59 453.327 2328.29 453.327 2326.98 453.567 2326.07 454.046 2325.55ZM414.014 2324.83C420.208 2324.83 425.54 2325.67 430.011 2327.33 434.482 2329 437.812 2331.2 440 2333.93 442.189 2336.66 443.737 2339.28 444.645 2341.79 445.554 2344.3 446.008 2346.86 446.008 2349.47 446.008 2352.94 445.437 2356.32 444.294 2359.62 443.151 2362.92 441.367 2366.12 438.941 2369.23 436.515 2372.33 432.981 2374.84 428.34 2376.74 423.698 2378.64 418.275 2379.59 412.07 2379.59 407.175 2379.59 403.191 2379.08 400.119 2378.05L400.119 2402.57C400.119 2408.25 401.049 2411.78 402.907 2413.17 404.766 2414.56 408.817 2415.41 415.061 2415.74 415.538 2416.27 415.776 2417.18 415.776 2418.48 415.776 2419.78 415.573 2420.64 415.166 2421.06 405.287 2420.85 398.18 2420.74 393.843 2420.74 390.68 2420.74 384.305 2420.85 374.719 2421.06 374.24 2420.64 374 2419.78 374 2418.48 374 2417.18 374.238 2416.27 374.714 2415.74 380.187 2415.55 383.673 2414.75 385.172 2413.32 386.671 2411.9 387.42 2408.27 387.42 2402.44L387.42 2344.03C387.42 2338.19 386.671 2334.57 385.172 2333.18 383.673 2331.78 380.187 2330.98 374.714 2330.8 374.238 2330.41 374 2329.58 374 2328.3 374 2327.02 374.24 2326.1 374.719 2325.55 384.543 2325.74 390.869 2325.84 393.697 2325.84 395.866 2325.84 399.517 2325.67 404.651 2325.34 409.785 2325 412.906 2324.83 414.014 2324.83ZM765.436 2324.69C775.402 2325.46 786.884 2325.84 799.883 2325.84L812.594 2325.84C825.689 2325.84 836.738 2325.46 845.741 2324.69 846.03 2324.69 846.174 2324.83 846.174 2325.11 846.27 2331.36 846.896 2338.33 848.05 2346.02 846.943 2346.51 845.284 2346.75 843.071 2346.75 841.872 2341.08 839.604 2337.07 836.269 2334.7 832.934 2332.34 828.363 2331.16 822.556 2331.16L819.318 2331.16C816.774 2331.16 815.011 2332.4 814.027 2334.89 813.043 2337.38 812.551 2341.14 812.551 2346.16L812.551 2402.31C812.551 2408.2 813.379 2411.85 815.034 2413.26 816.689 2414.68 820.613 2415.5 826.803 2415.74 827.283 2416.27 827.535 2417.18 827.559 2418.48 827.583 2419.78 827.331 2420.64 826.803 2421.06 816.925 2420.85 810.082 2420.74 806.275 2420.74 802.124 2420.74 795.197 2420.85 785.494 2421.06 785.205 2420.64 785.061 2419.78 785.061 2418.48 785.061 2417.18 785.252 2416.27 785.633 2415.74 791.778 2415.55 795.684 2414.74 797.351 2413.3 799.019 2411.86 799.852 2408.2 799.852 2402.31L799.852 2345.73C799.852 2340.95 799.335 2337.32 798.301 2334.85 797.267 2332.39 795.451 2331.16 792.854 2331.16L785.638 2331.16C780.54 2331.16 776.355 2332.36 773.084 2334.78 769.813 2337.2 767.504 2341.33 766.157 2347.18 764.089 2347.18 762.405 2346.94 761.107 2346.46 763.079 2338.03 764.305 2330.92 764.787 2325.12 764.787 2324.83 765.003 2324.69 765.436 2324.69ZM989.804 2323.9C995.441 2323.9 1000.3 2324.56 1004.37 2325.87 1008.44 2327.19 1011.15 2327.95 1012.5 2328.15 1013.84 2334.9 1014.73 2341.22 1015.17 2347.11 1014.44 2347.63 1012.83 2347.92 1010.33 2347.97 1009.85 2346.44 1009.38 2345.07 1008.92 2343.85 1008.46 2342.64 1007.9 2341.36 1007.22 2340.02 1006.55 2338.69 1005.82 2337.52 1005.02 2336.52 1004.23 2335.51 1003.27 2334.54 1002.17 2333.58 1001.06 2332.63 999.854 2331.84 998.553 2331.22 997.253 2330.6 995.747 2330.11 994.037 2329.75 992.327 2329.4 990.46 2329.22 988.437 2329.22 984.165 2329.22 980.408 2330.91 977.168 2334.3 973.928 2337.69 972.307 2341.45 972.307 2345.61 972.307 2347.9 972.835 2350.06 973.891 2352.08 974.947 2354.11 976.195 2355.81 977.635 2357.17 979.075 2358.53 980.959 2359.87 983.287 2361.21 985.616 2362.54 987.572 2363.53 989.156 2364.18 990.74 2364.82 992.709 2365.6 995.06 2366.5 997.413 2367.41 998.901 2367.98 999.524 2368.22 1002.4 2369.46 1004.98 2370.79 1007.26 2372.19 1009.54 2373.6 1011.69 2375.32 1013.72 2377.35 1015.75 2379.38 1017.31 2381.77 1018.38 2384.54 1019.46 2387.31 1020 2390.36 1020 2393.7 1020 2398.35 1018.74 2402.8 1016.22 2407.06 1013.7 2411.32 1010.31 2414.76 1006.04 2417.4 1000.8 2420.61 994.673 2422.21 987.644 2422.21 982.798 2422.21 977.714 2421.64 972.394 2420.5 967.073 2419.36 962.964 2418.79 960.065 2418.79 958.635 2412.62 957.689 2405.19 957.228 2396.49 958.767 2395.68 960.378 2395.54 962.062 2396.06 965.248 2409.95 974.183 2416.89 988.868 2416.89 994.773 2416.89 999.321 2415.35 1002.51 2412.27 1005.71 2409.2 1007.3 2404.72 1007.3 2398.85 1007.3 2396.18 1006.88 2393.74 1006.04 2391.52 1005.2 2389.3 1004.24 2387.51 1003.16 2386.15 1002.08 2384.79 1000.55 2383.48 998.553 2382.22 996.56 2380.95 994.904 2380.03 993.584 2379.46 992.264 2378.89 990.393 2378.14 987.968 2377.2 985.544 2376.27 983.879 2375.62 982.972 2375.24 978.492 2373.38 974.741 2371.43 971.72 2369.4 968.7 2367.38 966.094 2364.64 963.904 2361.21 961.714 2357.77 960.619 2353.91 960.619 2349.61 960.619 2341.98 963.475 2335.79 969.187 2331.03 974.9 2326.28 981.772 2323.9 989.804 2323.9ZM900.889 2323.9C914.597 2323.9 925.949 2328.27 934.944 2337 943.939 2345.74 948.437 2357.51 948.437 2372.3 948.437 2384.58 945.382 2395.03 939.273 2403.66 935.137 2409.55 929.858 2414.12 923.436 2417.36 917.015 2420.59 909.787 2422.21 901.754 2422.21 888.767 2422.21 877.812 2417.89 868.889 2409.26 859.966 2400.63 855.505 2389.24 855.505 2375.09 855.505 2362.12 858.872 2351.04 865.606 2341.85 869.743 2336.2 874.854 2331.8 880.939 2328.64 887.024 2325.48 893.673 2323.9 900.889 2323.9ZM733.355 2319.95 742.408 2335.54 727.306 2344.21 720.059 2331.06 718.349 2328.57ZM586.864 2319.95 602.114 2328.75 597.166 2336.39 593.015 2344.49 577.765 2335.7ZM697.325 2290.51 713.131 2299.57 704.299 2314.76 696.626 2309.83 688.493 2305.7ZM623.163 2290.51 631.969 2305.55 618.615 2312.77 616.079 2314.47 607.331 2299.52ZM651.101 2283 669.362 2283 669.362 2300.5 666.307 2300.27 651.101 2300.61Z" fill="#007AD6" fill-rule="evenodd"/></g></svg>