<svg width="619" height="180" xmlns="http://www.w3.org/2000/svg" xmlns:xlink="http://www.w3.org/1999/xlink" xml:space="preserve" overflow="hidden"><defs><clipPath id="clip0"><rect x="543" y="1409" width="619" height="180"/></clipPath></defs><g clip-path="url(#clip0)" transform="translate(-543 -1409)"><path d="M805.649 1571.58 805.649 1589 787.375 1589 787.375 1571.69 790.432 1571.92ZM840.507 1557.36 849.159 1572.39 833.501 1581.45 824.794 1566.33 838 1559.07ZM752.412 1557.36 760.091 1562.31 768.23 1566.47 759.392 1581.74 743.574 1572.63ZM863.776 1527.45 879.037 1536.19 869.931 1551.84 854.671 1543.1 859.623 1535.5ZM729.1 1527.45 736.352 1540.67 738.063 1543.18 723.046 1551.84 713.987 1536.17ZM868.884 1490 886.289 1490 886.289 1508.29 868.994 1508.29 869.221 1505.23ZM706.445 1490 724.029 1490 723.797 1493.06 724.139 1508.29 706.445 1508.29ZM660.479 1456.57C652.314 1456.57 648.232 1459.7 648.232 1465.96L648.232 1499.57 655.292 1499.57C663.265 1499.57 669.388 1497.96 673.663 1494.73 677.937 1491.51 680.074 1485.64 680.074 1477.14 680.074 1463.43 673.542 1456.57 660.479 1456.57ZM581.962 1456.57C573.412 1456.57 569.138 1459.7 569.138 1465.96L569.138 1500.23C570.915 1500.7 574.661 1500.94 580.377 1500.94 587.677 1500.94 593.165 1499.15 596.839 1495.57 600.514 1491.98 602.351 1486.34 602.351 1478.65 602.351 1470.14 600.478 1464.34 596.732 1461.23 592.986 1458.12 588.062 1456.57 581.962 1456.57ZM1008.68 1451.95C1018.51 1452.16 1024.84 1452.26 1027.67 1452.26 1030.85 1452.26 1037.27 1452.16 1046.93 1451.95 1047.23 1452.47 1047.38 1453.37 1047.38 1454.66 1047.38 1455.94 1047.19 1456.82 1046.81 1457.29 1041.33 1457.49 1037.85 1458.29 1036.35 1459.71 1034.85 1461.14 1034.1 1464.81 1034.1 1470.73L1034.1 1534.98C1034.1 1537.24 1034.71 1539.04 1035.93 1540.36 1037.16 1541.69 1038.85 1542.35 1041.02 1542.35L1051.83 1542.35C1059.03 1542.35 1064.43 1540.65 1068.01 1537.26 1071.59 1533.86 1074.22 1529.1 1075.9 1522.98 1077.59 1522.69 1079.2 1522.94 1080.74 1523.71 1079.78 1532.13 1078.5 1540.22 1076.91 1547.99 1067.81 1547.79 1061.94 1547.7 1059.29 1547.7L1027.82 1547.7C1019.85 1547.79 1013.47 1547.89 1008.68 1547.99 1008.2 1547.56 1007.96 1546.7 1007.96 1545.39 1007.96 1544.09 1008.2 1543.17 1008.67 1542.64 1014.15 1542.45 1017.64 1541.64 1019.14 1540.21 1020.64 1538.78 1021.39 1535.13 1021.39 1529.27L1021.39 1470.59C1021.39 1464.73 1020.64 1461.09 1019.14 1459.69 1017.64 1458.28 1014.15 1457.48 1008.67 1457.29 1008.2 1456.87 1007.96 1456.01 1007.96 1454.7 1007.96 1453.39 1008.2 1452.47 1008.68 1451.95ZM964.261 1451.95C974.092 1452.16 980.422 1452.26 983.252 1452.26 986.466 1452.26 992.892 1452.16 1002.53 1451.95 1002.92 1452.47 1003.12 1453.37 1003.14 1454.66 1003.17 1455.94 1002.96 1456.82 1002.53 1457.29 996.996 1457.48 993.47 1458.28 991.953 1459.69 990.437 1461.09 989.679 1464.73 989.679 1470.59L989.679 1529.27C989.679 1535.13 990.449 1538.77 991.99 1540.17 993.53 1541.58 997.044 1542.4 1002.53 1542.64 1002.92 1543.17 1003.12 1544.09 1003.14 1545.39 1003.17 1546.7 1002.96 1547.56 1002.53 1547.99 992.648 1547.77 986.271 1547.67 983.398 1547.67 980.233 1547.67 973.854 1547.77 964.261 1547.99 963.781 1547.56 963.542 1546.7 963.542 1545.39 963.542 1544.09 963.779 1543.17 964.256 1542.64 969.733 1542.45 973.221 1541.64 974.721 1540.21 976.221 1538.78 976.971 1535.13 976.971 1529.27L976.971 1470.59C976.971 1464.73 976.221 1461.09 974.721 1459.69 973.221 1458.28 969.733 1457.48 964.256 1457.29 963.779 1456.87 963.542 1456.01 963.542 1454.7 963.542 1453.39 963.781 1452.47 964.261 1451.95ZM1150.59 1451.66C1150.98 1451.66 1151.17 1451.8 1151.17 1452.09 1151.94 1455.43 1153.05 1462.51 1154.49 1473.33 1152.9 1474.12 1151.27 1474.36 1149.58 1474.07 1147.71 1468 1145.75 1463.74 1143.68 1461.28 1141.62 1458.81 1138.05 1457.58 1132.97 1457.58L1117.43 1457.58C1115.75 1457.58 1114.46 1458.21 1113.55 1459.47 1112.64 1460.72 1112.18 1462.31 1112.18 1464.23L1112.18 1494.51 1125.57 1494.51C1131.57 1494.51 1135.26 1493.91 1136.63 1492.7 1138 1491.5 1138.78 1488.66 1138.97 1484.19 1139.35 1483.7 1140.15 1483.45 1141.35 1483.45 1142.55 1483.45 1143.4 1483.7 1143.88 1484.18 1143.68 1490.16 1143.59 1494.46 1143.59 1497.08 1143.59 1498.86 1143.68 1503.19 1143.88 1510.08 1143.4 1510.64 1142.57 1510.91 1141.39 1510.91 1140.21 1510.91 1139.4 1510.67 1138.97 1510.18 1138.78 1507.48 1138.49 1505.53 1138.1 1504.35 1137.72 1503.17 1136.54 1502.13 1134.57 1501.22 1132.61 1500.31 1129.61 1499.86 1125.57 1499.86L1112.18 1499.86 1112.18 1535.93C1112.18 1540.21 1113.93 1542.35 1117.43 1542.35L1137.51 1542.35C1146.87 1542.35 1153.3 1535.83 1156.8 1522.78 1158.58 1522.39 1160.32 1522.64 1162 1523.51 1160.8 1531.24 1158.97 1539.4 1156.51 1547.99 1148.63 1547.79 1142.33 1547.7 1137.62 1547.7L1105.9 1547.7C1097.94 1547.79 1091.53 1547.89 1086.69 1547.99 1086.31 1547.56 1086.11 1546.7 1086.11 1545.39 1086.11 1544.09 1086.3 1543.17 1086.69 1542.64 1092.16 1542.45 1095.66 1541.64 1097.19 1540.21 1098.71 1538.78 1099.47 1535.13 1099.47 1529.27L1099.47 1470.59C1099.47 1464.73 1098.7 1461.09 1097.16 1459.69 1095.62 1458.28 1092.08 1457.48 1086.55 1457.29 1086.16 1456.87 1085.97 1456 1085.97 1454.69 1085.97 1453.37 1086.16 1452.45 1086.55 1451.95L1105.68 1452.23 1143.37 1452.23C1145.92 1452.23 1148.33 1452.04 1150.59 1451.66ZM957.797 1451.66C958.134 1451.66 958.327 1451.8 958.375 1452.09 959.434 1457.78 960.492 1464.93 961.551 1473.55 960.252 1474.04 958.736 1474.28 957.003 1474.28 955.804 1470.28 954.521 1467.21 953.154 1465.07 951.788 1462.92 949.582 1461.14 946.537 1459.72 943.492 1458.29 939.476 1457.58 934.49 1457.58L924.852 1457.58C921.304 1457.58 919.553 1459.31 919.601 1462.75L919.601 1494.51 933.284 1494.51C939.285 1494.51 942.97 1493.91 944.338 1492.7 945.706 1491.5 946.51 1488.66 946.75 1484.19 947.135 1483.7 947.917 1483.45 949.097 1483.45 950.276 1483.45 951.106 1483.7 951.587 1484.18 951.395 1490.16 951.299 1494.46 951.299 1497.08 951.299 1498.83 951.395 1503.09 951.587 1509.86 951.106 1510.56 950.276 1510.91 949.097 1510.91 947.917 1510.91 947.135 1510.67 946.75 1510.18 946.558 1507.48 946.258 1505.53 945.85 1504.35 945.442 1503.17 944.254 1502.13 942.285 1501.22 940.317 1500.31 937.316 1499.86 933.284 1499.86L919.601 1499.86 919.601 1529.28C919.601 1535.14 920.351 1538.77 921.852 1540.18 923.352 1541.58 926.84 1542.4 932.317 1542.64 932.793 1543.17 933.031 1544.09 933.031 1545.39 933.031 1546.7 932.828 1547.56 932.42 1547.99 922.532 1547.77 916.166 1547.67 913.321 1547.67 910.155 1547.67 903.752 1547.77 894.112 1547.99 893.728 1547.56 893.536 1546.7 893.536 1545.39 893.536 1544.09 893.727 1543.17 894.108 1542.64 899.584 1542.45 903.084 1541.64 904.608 1540.21 906.132 1538.78 906.894 1535.13 906.894 1529.27L906.894 1470.59C906.894 1464.73 906.123 1461.09 904.583 1459.69 903.043 1458.28 899.505 1457.48 893.969 1457.29 893.584 1456.87 893.392 1456 893.392 1454.69 893.392 1453.37 893.584 1452.45 893.969 1451.95L913.103 1452.23 950.865 1452.23C953.465 1452.23 955.775 1452.04 957.797 1451.66ZM660.335 1451.22C665.988 1451.22 670.777 1451.67 674.701 1452.57 678.626 1453.47 682.107 1455.4 685.143 1458.36 690.235 1463.31 692.782 1469.52 692.782 1476.99 692.782 1483.78 690.743 1489.31 686.666 1493.59 682.589 1497.87 678.374 1500.75 674.022 1502.24L692.625 1533.21C694.887 1536.96 697.053 1539.79 699.123 1541.71 701.193 1543.63 703.744 1544.59 706.777 1544.59 707.45 1545.89 707.499 1547.07 706.921 1548.13 705.525 1548.81 703.455 1549.14 700.712 1549.14 693.106 1549.14 686.608 1544.64 681.217 1535.63L665.522 1510.44C664.321 1508.5 662.568 1507.1 660.263 1506.23 657.958 1505.35 653.948 1504.92 648.232 1504.92L648.232 1529.4C648.232 1535.21 648.994 1538.81 650.518 1540.2 652.042 1541.59 655.518 1542.4 660.947 1542.64 661.327 1543.29 661.518 1544.25 661.518 1545.51 661.518 1546.78 661.363 1547.6 661.055 1547.99 651.166 1547.79 644.798 1547.7 641.951 1547.7 638.786 1547.7 632.407 1547.79 622.814 1547.99 622.334 1547.6 622.095 1546.78 622.095 1545.51 622.095 1544.25 622.333 1543.29 622.809 1542.64 628.286 1542.45 631.774 1541.64 633.274 1540.21 634.774 1538.78 635.524 1535.13 635.524 1529.26L635.524 1470.52C635.524 1464.66 634.774 1461.02 633.274 1459.61 631.774 1458.21 628.286 1457.41 622.809 1457.22 622.333 1456.84 622.095 1456 622.095 1454.71 622.095 1453.42 622.334 1452.5 622.814 1451.95 632.645 1452.14 638.975 1452.23 641.805 1452.23 643.88 1452.23 647.21 1452.07 651.794 1451.73 656.378 1451.39 659.225 1451.22 660.335 1451.22ZM583.042 1451.22C589.241 1451.22 594.577 1452.06 599.051 1453.74 603.525 1455.41 606.857 1457.62 609.047 1460.37 611.237 1463.11 612.787 1465.75 613.695 1468.27 614.605 1470.8 615.059 1473.37 615.059 1476 615.059 1479.48 614.487 1482.89 613.344 1486.2 612.2 1489.52 610.414 1492.74 607.987 1495.86 605.56 1498.99 602.023 1501.51 597.378 1503.42 592.733 1505.33 587.306 1506.29 581.097 1506.29 576.198 1506.29 572.211 1505.77 569.138 1504.74L569.138 1529.39C569.138 1535.11 570.068 1538.66 571.928 1540.05 573.788 1541.45 577.842 1542.31 584.091 1542.64 584.567 1543.17 584.806 1544.09 584.806 1545.39 584.806 1546.7 584.602 1547.56 584.195 1547.99 574.309 1547.77 567.197 1547.67 562.857 1547.67 559.691 1547.67 553.312 1547.77 543.72 1547.99 543.24 1547.56 543 1546.7 543 1545.39 543 1544.09 543.238 1543.17 543.714 1542.64 549.191 1542.45 552.68 1541.64 554.18 1540.21 555.68 1538.78 556.43 1535.13 556.43 1529.26L556.43 1470.52C556.43 1464.66 555.68 1461.02 554.18 1459.61 552.68 1458.21 549.191 1457.41 543.714 1457.22 543.238 1456.84 543 1456 543 1454.71 543 1453.42 543.24 1452.5 543.72 1451.95 553.551 1452.14 559.881 1452.23 562.71 1452.23 564.881 1452.23 568.535 1452.07 573.672 1451.73 578.81 1451.39 581.933 1451.22 583.042 1451.22ZM869.688 1446.16 878.747 1461.83 863.634 1470.55 856.382 1457.33 854.671 1454.82ZM723.093 1446.16 738.353 1455.01 733.402 1462.69 729.248 1470.84 713.987 1461.99ZM833.632 1416.55 849.449 1425.66 840.611 1440.94 832.933 1435.98 824.794 1431.82ZM759.418 1416.55 768.23 1431.67 754.866 1438.93 752.328 1440.65 743.574 1425.61ZM787.375 1409 805.649 1409 805.649 1426.6 802.592 1426.37 787.375 1426.71Z" fill="#EA596E" fill-rule="evenodd"/></g></svg>