<svg width="522" height="179" xmlns="http://www.w3.org/2000/svg" xmlns:xlink="http://www.w3.org/1999/xlink" xml:space="preserve" overflow="hidden"><defs><clipPath id="clip0"><rect x="2170" y="871" width="522" height="179"/></clipPath></defs><g clip-path="url(#clip0)" transform="translate(-2170 -871)"><path d="M2444.48 1032.68 2444.48 1050 2426.19 1050 2426.19 1032.79 2429.25 1033.01ZM2479.36 1018.53 2488.02 1033.48 2472.35 1042.49 2463.63 1027.45 2476.85 1020.23ZM2391.21 1018.53 2398.89 1023.46 2407.04 1027.59 2398.19 1042.78 2382.36 1033.72ZM2502.64 988.794 2517.91 997.487 2508.8 1013.05 2493.53 1004.35 2498.48 996.8ZM2367.88 988.794 2375.14 1001.94 2376.85 1004.43 2361.82 1013.05 2352.76 997.46ZM2507.75 951.55 2525.17 951.55 2525.17 969.739 2507.86 969.739 2508.09 966.697ZM2345.21 951.55 2362.81 951.55 2362.57 954.592 2362.92 969.739 2345.21 969.739ZM2576.85 918.151C2568.29 918.151 2564.02 921.263 2564.02 927.489L2564.02 961.562C2565.79 962.038 2569.54 962.275 2575.26 962.275 2582.57 962.275 2588.06 960.493 2591.74 956.93 2595.41 953.365 2597.25 947.758 2597.25 940.106 2597.25 931.647 2595.38 925.873 2591.63 922.784 2587.88 919.695 2582.95 918.151 2576.85 918.151ZM2680.58 913.264C2680.97 913.264 2681.16 913.407 2681.16 913.695 2681.93 917.014 2683.04 924.054 2684.49 934.814 2682.9 935.598 2681.26 935.843 2679.57 935.548 2677.7 929.521 2675.73 925.282 2673.67 922.832 2671.61 920.382 2668.03 919.157 2662.95 919.157L2647.4 919.157C2645.72 919.157 2644.43 919.781 2643.52 921.03 2642.6 922.278 2642.15 923.858 2642.15 925.767L2642.15 955.879 2655.55 955.879C2661.55 955.879 2665.24 955.281 2666.61 954.083 2667.98 952.886 2668.76 950.064 2668.95 945.618 2669.34 945.129 2670.13 944.884 2671.34 944.884 2672.54 944.884 2673.38 945.126 2673.87 945.609 2673.67 951.551 2673.58 955.826 2673.58 958.435 2673.58 960.206 2673.67 964.515 2673.87 971.362 2673.38 971.916 2672.55 972.193 2671.37 972.193 2670.19 972.193 2669.39 971.948 2668.95 971.46 2668.76 968.772 2668.47 966.842 2668.09 965.669 2667.7 964.496 2666.53 963.457 2664.56 962.554 2662.59 961.649 2659.59 961.197 2655.55 961.197L2642.15 961.197 2642.15 997.065C2642.15 1001.32 2643.9 1003.45 2647.41 1003.45L2667.5 1003.45C2676.86 1003.45 2683.29 996.968 2686.8 983.995 2688.58 983.608 2690.31 983.851 2692 984.722 2690.8 992.408 2688.97 1000.52 2686.51 1009.06 2678.62 1008.87 2672.32 1008.77 2667.61 1008.77L2635.86 1008.77C2627.9 1008.87 2621.49 1008.96 2616.64 1009.06 2616.26 1008.64 2616.07 1007.78 2616.07 1006.48 2616.07 1005.18 2616.26 1004.27 2616.64 1003.74 2622.12 1003.55 2625.62 1002.75 2627.15 1001.32 2628.67 999.903 2629.43 996.278 2629.43 990.449L2629.43 932.09C2629.43 926.262 2628.66 922.648 2627.12 921.25 2625.58 919.852 2622.04 919.059 2616.5 918.869 2616.11 918.45 2615.92 917.586 2615.92 916.275 2615.92 914.966 2616.11 914.057 2616.5 913.551L2635.65 913.839 2673.36 913.839C2675.91 913.839 2678.32 913.647 2680.58 913.264ZM2577.93 912.833C2584.13 912.833 2589.47 913.666 2593.95 915.333 2598.42 916.999 2601.76 919.197 2603.95 921.926 2606.14 924.655 2607.69 927.276 2608.6 929.788 2609.51 932.3 2609.97 934.86 2609.97 937.469 2609.97 940.936 2609.39 944.319 2608.25 947.619 2607.11 950.918 2605.32 954.12 2602.89 957.226 2600.46 960.333 2596.92 962.837 2592.27 964.74 2587.63 966.642 2582.2 967.593 2575.98 967.593 2571.08 967.593 2567.09 967.08 2564.02 966.052L2564.02 990.568C2564.02 996.25 2564.95 999.784 2566.81 1001.17 2568.67 1002.56 2572.73 1003.41 2578.98 1003.74 2579.46 1004.27 2579.69 1005.18 2579.69 1006.48 2579.69 1007.78 2579.49 1008.64 2579.08 1009.06 2569.19 1008.85 2562.07 1008.74 2557.73 1008.74 2554.56 1008.74 2548.18 1008.85 2538.58 1009.06 2538.1 1008.64 2537.86 1007.78 2537.86 1006.48 2537.86 1005.18 2538.1 1004.27 2538.58 1003.74 2544.06 1003.55 2547.55 1002.75 2549.05 1001.32 2550.55 999.9 2551.3 996.271 2551.3 990.437L2551.3 932.026C2551.3 926.191 2550.55 922.575 2549.05 921.176 2547.55 919.776 2544.06 918.984 2538.58 918.798 2538.1 918.413 2537.86 917.58 2537.86 916.298 2537.86 915.016 2538.1 914.1 2538.58 913.551 2548.42 913.743 2554.75 913.839 2557.58 913.839 2559.76 913.839 2563.41 913.671 2568.55 913.336 2573.69 913 2576.82 912.833 2577.93 912.833ZM2290.42 911.899C2297.51 911.899 2304.44 912.965 2311.21 915.097 2317.99 917.23 2321.88 918.344 2322.89 918.44 2324.58 928.758 2325.66 936.363 2326.14 941.258 2324.26 942.218 2322.63 942.458 2321.23 941.978 2316.21 925.47 2305.41 917.216 2288.83 917.216 2280.19 917.216 2272.31 921.583 2265.17 930.317 2262.38 933.725 2260.21 937.9 2258.67 942.843 2257.12 947.786 2256.35 953.352 2256.35 959.542 2256.35 967.125 2257.53 974.203 2259.89 980.778 2262.26 987.352 2266.07 992.907 2271.32 997.442 2276.58 1001.98 2282.85 1004.24 2290.13 1004.24 2297.02 1004.24 2303.17 1002.98 2308.57 1000.47 2313.97 997.946 2319.27 993.831 2324.48 988.12 2325.97 988.12 2327.11 988.864 2327.88 990.352 2317.7 1003.59 2305.17 1010.21 2290.27 1010.21 2280.26 1010.21 2271.63 1007.83 2264.39 1003.08 2257.15 998.335 2251.88 992.421 2248.58 985.344 2245.28 978.267 2243.63 970.602 2243.63 962.349 2243.63 946.561 2248.79 933.907 2259.09 924.386 2268.11 916.061 2278.55 911.899 2290.42 911.899ZM2202.62 911.899C2208.26 911.899 2213.12 912.557 2217.2 913.873 2221.28 915.19 2223.99 915.95 2225.34 916.153 2226.69 922.903 2227.58 929.222 2228.02 935.11 2227.29 935.634 2225.68 935.921 2223.17 935.969 2222.69 934.441 2222.22 933.07 2221.76 931.853 2221.31 930.637 2220.74 929.361 2220.06 928.024 2219.39 926.688 2218.65 925.519 2217.86 924.517 2217.06 923.515 2216.11 922.537 2215 921.582 2213.89 920.628 2212.68 919.84 2211.38 919.22 2210.08 918.6 2208.57 918.111 2206.86 917.753 2205.15 917.395 2203.28 917.216 2201.25 917.216 2196.97 917.216 2193.21 918.91 2189.97 922.298 2186.72 925.686 2185.1 929.455 2185.1 933.606 2185.1 935.897 2185.63 938.056 2186.69 940.084 2187.74 942.112 2188.99 943.806 2190.43 945.166 2191.88 946.525 2193.76 947.873 2196.09 949.209 2198.43 950.545 2200.38 951.535 2201.97 952.179 2203.56 952.823 2205.53 953.599 2207.88 954.505 2210.24 955.412 2211.73 955.984 2212.35 956.223 2215.24 957.463 2217.82 958.788 2220.1 960.195 2222.38 961.603 2224.53 963.321 2226.57 965.349 2228.6 967.377 2230.16 969.774 2231.24 972.542 2232.32 975.309 2232.86 978.362 2232.86 981.702 2232.86 986.346 2231.59 990.798 2229.07 995.058 2226.55 999.318 2223.15 1002.77 2218.88 1005.4 2213.64 1008.61 2207.5 1010.21 2200.46 1010.21 2195.6 1010.21 2190.51 1009.64 2185.19 1008.5 2179.86 1007.36 2175.74 1006.79 2172.84 1006.79 2171.41 1000.62 2170.46 993.19 2170 984.493 2171.54 983.682 2173.15 983.539 2174.84 984.064 2178.03 997.949 2186.98 1004.89 2201.68 1004.89 2207.6 1004.89 2212.15 1003.35 2215.35 1000.28 2218.54 997.198 2220.14 992.725 2220.14 986.855 2220.14 984.184 2219.72 981.738 2218.88 979.52 2218.04 977.301 2217.08 975.512 2216 974.152 2214.91 972.792 2213.38 971.48 2211.38 970.216 2209.39 968.951 2207.73 968.033 2206.41 967.46 2205.08 966.887 2203.21 966.136 2200.78 965.205 2198.35 964.274 2196.69 963.618 2195.78 963.237 2191.29 961.376 2187.54 959.432 2184.51 957.405 2181.49 955.376 2178.88 952.645 2176.69 949.209 2174.49 945.773 2173.4 941.909 2173.4 937.615 2173.4 929.984 2176.26 923.791 2181.98 919.034 2187.7 914.277 2194.58 911.899 2202.62 911.899ZM2508.56 907.955 2517.62 923.539 2502.5 932.207 2495.24 919.061 2493.53 916.567ZM2361.87 907.955 2377.14 916.751 2372.19 924.394 2368.03 932.495 2352.76 923.699ZM2472.48 878.506 2488.31 887.568 2479.46 902.758 2471.78 897.831 2463.63 893.696ZM2398.22 878.506 2407.04 893.548 2393.66 900.766 2391.12 902.469 2382.36 887.522ZM2426.19 871 2444.48 871 2444.48 888.5 2441.42 888.272 2426.19 888.612Z" fill="#C05BE9" fill-rule="evenodd"/></g></svg>