<svg width="155" height="52" xmlns="http://www.w3.org/2000/svg" xmlns:xlink="http://www.w3.org/1999/xlink" xml:space="preserve" overflow="hidden"><defs><clipPath id="clip0"><rect x="545" y="230" width="155" height="52"/></clipPath></defs><g clip-path="url(#clip0)" transform="translate(-545 -230)"><path d="M193.742 88.4 188.458 88.4 188.458 83.3996 189.342 83.465 193.742 83.3677Z" fill="#0088B8" fill-rule="evenodd" transform="matrix(1.00988 0 0 1 429.046 193.6)"/><path d="M180.367 86.3032 175.794 83.6707 178.349 79.2581 180.569 80.6895 182.923 81.8906Z" fill="#0088B8" fill-rule="evenodd" transform="matrix(1.00988 0 0 1 429.046 193.6)"/><path d="M169.858 77.6645 167.239 73.1371 171.608 70.6194 173.705 74.4381 174.2 75.1627Z" fill="#0088B8" fill-rule="evenodd" transform="matrix(1.00988 0 0 1 429.046 193.6)"/><path d="M170.174 65.0839 165.058 65.0839 165.058 59.8 170.142 59.8 170.075 60.6838Z" fill="#0088B8" fill-rule="evenodd" transform="matrix(1.00988 0 0 1 429.046 193.6)"/><path d="M171.651 54.2645 167.239 51.7091 169.871 47.1355 174.284 49.6909 172.852 51.911Z" fill="#0088B8" fill-rule="evenodd" transform="matrix(1.00988 0 0 1 429.046 193.6)"/><path d="M178.325 45.5419 175.794 41.1999 180.375 38.5806 182.923 42.9503 179.059 45.0471Z" fill="#0088B8" fill-rule="evenodd" transform="matrix(1.00988 0 0 1 429.046 193.6)"/><path d="M188.458 41.5161 188.458 36.4 193.742 36.4 193.742 41.4838 192.858 41.4174Z" fill="#0088B8" fill-rule="evenodd" transform="matrix(1.00988 0 0 1 429.046 193.6)"/><path d="M203.851 45.6258 201.631 44.1944 199.277 42.9933 201.833 38.5806 206.406 41.2132Z" fill="#0088B8" fill-rule="evenodd" transform="matrix(1.00988 0 0 1 429.046 193.6)"/><path d="M210.508 54.1806 208.411 50.3618 207.916 49.6373 212.258 47.1355 214.877 51.6629Z" fill="#0088B8" fill-rule="evenodd" transform="matrix(1.00988 0 0 1 429.046 193.6)"/><path d="M217.058 65.0839 212.058 65.0839 212.123 64.2001 212.026 59.8 217.058 59.8Z" fill="#0088B8" fill-rule="evenodd" transform="matrix(1.00988 0 0 1 429.046 193.6)"/><path d="M212.329 77.6645 207.916 75.1392 209.348 72.9452 210.549 70.6194 214.961 73.1447Z" fill="#0088B8" fill-rule="evenodd" transform="matrix(1.00988 0 0 1 429.046 193.6)"/><path d="M201.795 86.2194 199.277 81.8498 203.096 79.7529 203.821 79.2581 206.323 83.6002Z" fill="#0088B8" fill-rule="evenodd" transform="matrix(1.00988 0 0 1 429.046 193.6)"/><path d="M150.763 47.8903C152.849 47.8903 154.889 48.2059 156.883 48.8373 158.877 49.4687 160.022 49.7985 160.32 49.827 160.816 52.8811 161.135 55.1328 161.277 56.5818 160.724 56.866 160.242 56.9369 159.831 56.7949 158.355 51.9081 155.176 49.4646 150.295 49.4646 147.755 49.4646 145.435 50.7574 143.335 53.3429 142.512 54.3516 141.873 55.5877 141.419 57.0508 140.964 58.5142 140.738 60.1621 140.738 61.9945 140.738 64.2391 141.085 66.3346 141.781 68.281 142.476 70.2271 143.597 71.8716 145.144 73.214 146.69 74.5565 148.535 75.2277 150.678 75.2277 152.707 75.2277 154.516 74.8548 156.106 74.1091 157.694 73.3632 159.255 72.145 160.788 70.4544 161.227 70.4544 161.561 70.6746 161.787 71.1152 158.794 75.0341 155.105 76.9936 150.72 76.9936 147.773 76.9936 145.234 76.2904 143.104 74.8845 140.974 73.4783 139.423 71.7277 138.452 69.6326 137.481 67.5376 136.996 65.2685 136.996 62.8256 136.996 58.1517 138.511 54.4055 141.543 51.587 144.198 49.1226 147.271 47.8903 150.763 47.8903ZM124.419 47.8903C126.08 47.8903 127.511 48.0852 128.71 48.475 129.91 48.8647 130.709 49.0898 131.106 49.1498 131.503 51.148 131.765 53.0186 131.893 54.7615 131.68 54.917 131.205 55.0017 130.468 55.0158 130.326 54.5637 130.188 54.1576 130.053 53.7975 129.918 53.4375 129.751 53.0596 129.553 52.664 129.354 52.2685 129.138 51.9224 128.903 51.6258 128.669 51.3291 128.389 51.0396 128.062 50.757 127.735 50.4745 127.381 50.2413 126.997 50.0578 126.614 49.8741 126.17 49.7294 125.666 49.6235 125.162 49.5176 124.612 49.4646 124.016 49.4646 122.758 49.4646 121.651 49.966 120.695 50.9689 119.741 51.9718 119.263 53.0876 119.263 54.3164 119.263 54.9945 119.419 55.6338 119.73 56.2342 120.041 56.8344 120.409 57.3359 120.833 57.7384 121.257 58.1411 121.813 58.54 122.499 58.9355 123.185 59.331 123.762 59.624 124.228 59.8147 124.695 60.0053 125.275 60.235 125.968 60.5033 126.661 60.7717 127.1 60.9412 127.283 61.0119 128.132 61.379 128.892 61.771 129.563 62.1877 130.234 62.6046 130.869 63.113 131.467 63.7133 132.066 64.3138 132.524 65.0235 132.842 65.8427 133.159 66.6617 133.317 67.5658 133.317 68.5546 133.317 69.9292 132.946 71.2471 132.203 72.5084 131.46 73.7694 130.46 74.7899 129.203 75.5696 127.661 76.5188 125.854 76.9936 123.783 76.9936 122.354 76.9936 120.856 76.8246 119.289 76.4868 117.72 76.1489 116.509 75.98 115.656 75.98 115.235 74.1551 114.955 71.9553 114.819 69.3806 115.273 69.1407 115.748 69.0983 116.244 69.2536 117.183 73.364 119.816 75.4191 124.143 75.4191 125.884 75.4191 127.224 74.9638 128.164 74.0528 129.105 73.1416 129.575 71.8175 129.575 70.08 129.575 69.2891 129.451 68.5653 129.204 67.9084 128.957 67.2515 128.674 66.7218 128.355 66.3193 128.037 65.9167 127.585 65.5284 126.997 65.1542 126.41 64.7798 125.922 64.5079 125.533 64.3383 125.144 64.1688 124.593 63.9462 123.878 63.6707 123.164 63.3953 122.673 63.2012 122.406 63.0881 121.085 62.5374 119.98 61.9619 119.09 61.3617 118.2 60.7612 117.432 59.9525 116.787 58.9355 116.141 57.9184 115.819 56.7744 115.819 55.5032 115.819 53.2443 116.66 51.4108 118.344 50.0026 120.027 48.5943 122.052 47.8903 124.419 47.8903Z" fill="#0088B8" fill-rule="evenodd" transform="matrix(1.00988 0 0 1 429.046 193.6)"/><path d="M231.708 49.6291C229.306 49.6291 228.105 50.5484 228.105 52.3872L228.105 62.2615 230.182 62.2615C232.528 62.2615 234.33 61.7877 235.588 60.8403 236.845 59.8928 237.474 58.1699 237.474 55.6716 237.474 51.6432 235.552 49.6291 231.708 49.6291ZM264.946 48.1855C265.06 48.1855 265.116 48.2278 265.116 48.3129 265.343 49.2934 265.669 51.3731 266.093 54.5519 265.626 54.7836 265.145 54.8558 264.649 54.7689 264.099 52.9882 263.52 51.736 262.914 51.0122 262.306 50.2883 261.256 49.9263 259.76 49.9263L255.188 49.9263C254.694 49.9263 254.314 50.1107 254.045 50.4796 253.777 50.8485 253.643 51.3151 253.643 51.8792L253.643 60.7753 257.585 60.7753C259.35 60.7753 260.434 60.5985 260.837 60.2447 261.24 59.8909 261.469 59.0572 261.526 57.7435 261.639 57.5991 261.873 57.5269 262.227 57.5269 262.581 57.5269 262.829 57.5983 262.97 57.741 262.914 59.4965 262.885 60.7597 262.885 61.5303 262.885 62.0535 262.914 63.3265 262.97 65.3492 262.829 65.5129 262.584 65.5947 262.237 65.5947 261.89 65.5947 261.653 65.5224 261.526 65.378 261.469 64.5842 261.385 64.0138 261.271 63.6674 261.158 63.3208 260.812 63.0139 260.233 62.747 259.654 62.4799 258.771 62.3463 257.585 62.3463L253.643 62.3463 253.643 72.9425C253.643 74.2009 254.158 74.8301 255.189 74.8301L261.098 74.8301C263.851 74.8301 265.743 72.9138 266.773 69.0815 267.298 68.9672 267.808 69.0386 268.303 69.2961 267.949 71.5668 267.411 73.9634 266.689 76.486 264.369 76.4295 262.516 76.4012 261.13 76.4012L251.795 76.4012C249.452 76.4295 247.568 76.4578 246.142 76.486 246.03 76.3612 245.973 76.1071 245.973 75.7242 245.973 75.341 246.029 75.0713 246.141 74.915 247.752 74.859 248.782 74.6211 249.231 74.2011 249.679 73.7811 249.904 72.7101 249.904 70.9881L249.904 53.7472C249.904 52.0252 249.677 50.9578 249.223 50.5448 248.771 50.1319 247.73 49.8974 246.1 49.8414 245.987 49.7175 245.931 49.4621 245.931 49.075 245.931 48.688 245.987 48.4198 246.1 48.2703L251.73 48.3552 262.821 48.3552C263.572 48.3552 264.281 48.2986 264.946 48.1855ZM231.666 48.0581C233.329 48.0581 234.738 48.1899 235.893 48.4538 237.048 48.7175 238.072 49.2844 238.966 50.1542 240.464 51.6086 241.214 53.4337 241.214 55.6294 241.214 57.6215 240.614 59.2464 239.414 60.5038 238.215 61.7613 236.974 62.6091 235.693 63.0469L241.168 72.1451C241.834 73.2453 242.471 74.0776 243.08 74.6418 243.689 75.2061 244.439 75.4883 245.332 75.4883 245.53 75.8703 245.544 76.2171 245.375 76.5285 244.964 76.7267 244.355 76.8258 243.547 76.8258 241.309 76.8258 239.397 75.5027 237.81 72.8566L233.191 65.4543C232.838 64.886 232.323 64.4736 231.645 64.2171 230.966 63.9608 229.786 63.8325 228.105 63.8325L228.105 71.0268C228.105 72.7318 228.329 73.7888 228.777 74.1979 229.225 74.6067 230.248 74.8458 231.845 74.915 231.958 75.1061 232.014 75.3874 232.014 75.7589 232.014 76.1305 231.969 76.3729 231.877 76.486 228.968 76.4295 227.094 76.4012 226.256 76.4012 225.324 76.4012 223.447 76.4295 220.625 76.486 220.483 76.3729 220.413 76.1305 220.413 75.7589 220.413 75.3874 220.483 75.1061 220.623 74.915 222.235 74.859 223.261 74.6208 223.702 74.2005 224.144 73.78 224.365 72.7082 224.365 70.9846L224.365 53.7282C224.365 52.0046 224.144 50.9361 223.702 50.5229 223.261 50.1095 222.235 49.8752 220.623 49.8201 220.483 49.7067 220.413 49.4606 220.413 49.0818 220.413 48.7029 220.483 48.4324 220.625 48.2703 223.518 48.327 225.381 48.3552 226.213 48.3552 226.823 48.3552 227.804 48.3057 229.152 48.2066 230.502 48.1076 231.339 48.0581 231.666 48.0581Z" fill="#0088B8" fill-rule="evenodd" transform="matrix(1.00988 0 0 1 429.046 193.6)"/></g></svg>