<svg width="516" height="180" xmlns="http://www.w3.org/2000/svg" xmlns:xlink="http://www.w3.org/1999/xlink" xml:space="preserve" overflow="hidden"><defs><clipPath id="clip0"><rect x="98" y="342" width="516" height="180"/></clipPath></defs><g clip-path="url(#clip0)" transform="translate(-98 -342)"><path d="M382.188 504.581 382.188 522 363.913 522 363.913 504.691 366.97 504.917ZM417.047 490.355 425.699 505.386 410.041 514.452 401.333 499.326 414.54 492.068ZM328.95 490.355 336.628 495.31 344.768 499.468 335.929 514.742 320.111 505.629ZM440.317 460.452 455.578 469.193 446.472 484.839 431.211 476.097 436.163 468.503ZM305.637 460.452 312.888 473.67 314.6 476.179 299.583 484.839 290.524 469.167ZM445.425 423 462.83 423 462.83 441.29 445.535 441.29 445.762 438.231ZM282.981 423 300.566 423 300.334 426.059 300.676 441.29 282.981 441.29ZM474.434 384.789C482.326 384.999 486.92 385.104 488.215 385.104 492.819 385.104 498.367 384.999 504.86 384.789 505.245 385.313 505.437 386.217 505.437 387.502 505.437 388.786 505.245 389.665 504.86 390.137 502.79 390.226 501.213 390.406 500.13 390.676 499.047 390.946 498.217 391.496 497.64 392.327 497.063 393.158 497.015 394.36 497.495 395.933L519.662 464.152 519.95 464.152 538.58 415.431C539.254 413.563 539.59 411.694 539.59 409.826 539.59 408.533 539.35 407.167 538.868 405.73L536.63 398.904C535.956 396.652 534.536 394.676 532.37 392.975 530.204 391.275 527.34 390.329 523.778 390.137 523.392 389.717 523.2 388.852 523.2 387.541 523.2 386.23 523.392 385.313 523.778 384.789 531.672 384.999 536.606 385.104 538.58 385.104 541.323 385.104 547.34 384.999 556.631 384.789 557.016 385.313 557.209 386.217 557.209 387.502 557.209 388.786 557.016 389.665 556.631 390.137 555.235 390.232 554.224 390.328 553.599 390.424 552.972 390.52 552.118 390.76 551.035 391.143 549.952 391.527 549.302 391.995 549.085 392.546 548.869 393.098 548.592 393.913 548.255 394.992 547.918 396.071 548.135 397.377 548.905 398.911L570.206 464.51 570.495 464.51 594.034 397.33C594.322 396.466 594.467 395.687 594.467 394.992 594.467 394.296 594.37 393.697 594.178 393.193 593.985 392.69 593.588 392.27 592.986 391.935 592.385 391.6 591.843 391.336 591.362 391.144 590.88 390.952 590.17 390.784 589.232 390.64 588.293 390.496 587.499 390.401 586.849 390.352 586.199 390.304 585.345 390.232 584.286 390.137 583.804 389.717 583.564 388.852 583.564 387.541 583.564 386.23 583.804 385.313 584.286 384.789 592.18 384.999 597.596 385.104 600.532 385.104 601.831 385.104 606.116 384.999 613.384 384.789 613.77 385.313 613.974 386.217 613.998 387.502 614.022 388.786 613.818 389.665 613.384 390.137 609.533 390.329 606.706 391.156 604.9 392.619 603.095 394.081 601.687 396.227 600.676 399.056L571.578 478.895C570.807 481.149 569.484 482.3 567.606 482.348 565.344 482.348 563.804 481.149 562.985 478.752L545.656 426.461C544.789 423.727 544.115 422.36 543.634 422.36 543.056 422.36 542.358 423.583 541.54 426.029L520.961 478.752C520.095 481.101 518.727 482.3 516.858 482.348 514.605 482.348 513.096 481.145 512.328 478.739L485.409 398.23C484.109 394.664 482.846 392.469 481.619 391.646 480.391 390.823 477.996 390.32 474.434 390.137 474.049 389.717 473.856 388.852 473.856 387.541 473.856 386.23 474.049 385.313 474.434 384.789ZM169.061 384.789C178.893 384.999 185.223 385.104 188.053 385.104 191.239 385.104 197.659 384.999 207.315 384.789 207.699 385.313 207.903 386.217 207.927 387.502 207.952 388.786 207.747 389.665 207.315 390.137 201.787 390.327 198.265 391.125 196.751 392.529 195.237 393.934 194.48 397.565 194.48 403.421L194.48 426.848 245.024 426.848 245.024 403.421C245.024 397.565 244.262 393.934 242.738 392.529 241.214 391.125 237.714 390.327 232.238 390.137 231.857 389.717 231.666 388.852 231.666 387.541 231.666 386.23 231.817 385.313 232.117 384.789 242.013 384.999 248.408 385.104 251.305 385.104 254.471 385.104 260.85 384.999 270.443 384.789 270.923 385.313 271.162 386.217 271.162 387.502 271.162 388.786 270.924 389.665 270.448 390.137 264.971 390.327 261.483 391.125 259.982 392.531 258.482 393.937 257.732 397.57 257.732 403.431L257.732 462.116C257.732 467.978 258.482 471.611 259.982 473.017 261.483 474.422 264.971 475.244 270.448 475.483 270.924 476.015 271.162 476.933 271.162 478.237 271.162 479.541 270.923 480.405 270.443 480.831 260.611 480.618 254.281 480.511 251.452 480.511 248.265 480.511 241.821 480.618 232.117 480.831 231.817 480.405 231.666 479.541 231.666 478.237 231.666 476.933 231.857 476.015 232.238 475.483 237.714 475.292 241.214 474.483 242.738 473.055 244.262 471.626 245.024 467.984 245.024 462.128L245.024 433.063 194.48 433.063 194.48 462.128C194.48 467.984 195.249 471.614 196.788 473.019 198.326 474.424 201.835 475.245 207.315 475.483 207.699 476.015 207.903 476.933 207.927 478.237 207.952 479.541 207.747 480.405 207.315 480.831 197.42 480.618 191.048 480.511 188.2 480.511 185.034 480.511 178.655 480.618 169.061 480.831 168.582 480.405 168.342 479.541 168.342 478.237 168.342 476.933 168.58 476.015 169.056 475.483 174.533 475.292 178.022 474.483 179.522 473.053 181.022 471.623 181.772 467.978 181.772 462.116L181.772 403.431C181.772 397.57 181.022 393.937 179.522 392.531 178.022 391.125 174.533 390.327 169.056 390.137 168.58 389.717 168.342 388.852 168.342 387.541 168.342 386.23 168.582 385.313 169.061 384.789ZM130.601 383.127C136.242 383.127 141.1 383.789 145.174 385.113 149.247 386.437 151.96 387.201 153.31 387.405 154.657 394.193 155.548 400.547 155.981 406.468 155.259 406.995 153.646 407.283 151.143 407.331 150.661 405.796 150.191 404.416 149.733 403.193 149.275 401.97 148.709 400.687 148.034 399.343 147.359 397.999 146.624 396.823 145.828 395.816 145.032 394.808 144.08 393.824 142.972 392.865 141.863 391.905 140.658 391.113 139.356 390.49 138.055 389.866 136.548 389.374 134.837 389.014 133.125 388.655 131.257 388.475 129.233 388.475 124.957 388.475 121.198 390.178 117.956 393.585 114.713 396.991 113.091 400.782 113.091 404.956 113.091 407.259 113.619 409.431 114.676 411.47 115.733 413.509 116.982 415.213 118.423 416.58 119.864 417.947 121.749 419.303 124.079 420.646 126.409 421.989 128.367 422.985 129.952 423.632 131.538 424.28 133.507 425.06 135.861 425.971 138.215 426.883 139.704 427.459 140.328 427.699 143.211 428.946 145.791 430.278 148.069 431.693 150.347 433.109 152.503 434.837 154.536 436.876 156.569 438.915 158.124 441.326 159.202 444.109 160.28 446.891 160.819 449.962 160.819 453.321 160.819 457.991 159.558 462.467 157.036 466.751 154.513 471.035 151.118 474.501 146.848 477.149 141.61 480.375 135.473 481.987 128.439 481.987 123.589 481.987 118.502 481.413 113.177 480.265 107.853 479.118 103.74 478.544 100.84 478.544 99.4084 472.345 98.4621 464.872 98 456.127 99.5406 455.311 101.153 455.168 102.838 455.696 106.026 469.658 114.969 476.639 129.664 476.639 135.573 476.639 140.125 475.092 143.319 471.997 146.513 468.903 148.111 464.405 148.111 458.503 148.111 455.816 147.691 453.357 146.85 451.126 146.009 448.895 145.049 447.095 143.968 445.728 142.887 444.361 141.35 443.041 139.356 441.77 137.362 440.498 135.705 439.575 134.384 438.999 133.063 438.423 131.19 437.667 128.764 436.731 126.338 435.796 124.671 435.136 123.764 434.752 119.28 432.881 115.526 430.926 112.503 428.887 109.48 426.848 106.873 424.101 104.682 420.646 102.49 417.191 101.394 413.305 101.394 408.987 101.394 401.314 104.252 395.086 109.969 390.302 115.685 385.519 122.563 383.127 130.601 383.127ZM446.229 379.161 455.288 394.833 440.175 403.548 432.923 390.329 431.211 387.821ZM299.629 379.161 314.89 388.007 309.938 395.692 305.784 403.839 290.524 394.993ZM410.171 349.548 425.989 358.661 417.151 373.936 409.473 368.98 401.333 364.823ZM335.955 349.548 344.768 364.674 331.404 371.932 328.866 373.645 320.111 358.615ZM363.913 342 382.188 342 382.188 359.598 379.131 359.368 363.913 359.71Z" fill="#9E1CD2" fill-rule="evenodd"/></g></svg>