<svg width="516" height="179" xmlns="http://www.w3.org/2000/svg" xmlns:xlink="http://www.w3.org/1999/xlink" xml:space="preserve" overflow="hidden"><defs><clipPath id="clip0"><rect x="792" y="1801" width="516" height="179"/></clipPath></defs><g clip-path="url(#clip0)" transform="translate(-792 -1801)"><path d="M1076.19 1962.68 1076.19 1980 1057.91 1980 1057.91 1962.79 1060.97 1963.01ZM1111.05 1948.53 1119.7 1963.48 1104.04 1972.49 1095.33 1957.45 1108.54 1950.23ZM1022.95 1948.53 1030.63 1953.46 1038.77 1957.59 1029.93 1972.78 1014.11 1963.72ZM1134.32 1918.79 1149.58 1927.49 1140.47 1943.05 1125.21 1934.35 1130.16 1926.8ZM999.637 1918.79 1006.89 1931.94 1008.6 1934.43 993.583 1943.05 984.524 1927.46ZM1139.43 1881.55 1156.83 1881.55 1156.83 1899.74 1139.54 1899.74 1139.76 1896.7ZM976.981 1881.55 994.566 1881.55 994.334 1884.59 994.676 1899.74 976.981 1899.74ZM1168.43 1843.55C1176.33 1843.76 1180.92 1843.86 1182.22 1843.86 1186.82 1843.86 1192.37 1843.76 1198.86 1843.55 1199.24 1844.07 1199.44 1844.97 1199.44 1846.25 1199.44 1847.53 1199.24 1848.4 1198.86 1848.87 1196.79 1848.96 1195.21 1849.14 1194.13 1849.41 1193.05 1849.67 1192.22 1850.22 1191.64 1851.05 1191.06 1851.87 1191.01 1853.07 1191.49 1854.63L1213.66 1922.47 1213.95 1922.47 1232.58 1874.02C1233.25 1872.16 1233.59 1870.31 1233.59 1868.45 1233.59 1867.16 1233.35 1865.81 1232.87 1864.38L1230.63 1857.59C1229.96 1855.35 1228.54 1853.38 1226.37 1851.69 1224.2 1850 1221.34 1849.06 1217.78 1848.87 1217.39 1848.45 1217.2 1847.59 1217.2 1846.29 1217.2 1844.98 1217.39 1844.07 1217.78 1843.55 1225.67 1843.76 1230.61 1843.86 1232.58 1843.86 1235.32 1843.86 1241.34 1843.76 1250.63 1843.55 1251.02 1844.07 1251.21 1844.97 1251.21 1846.25 1251.21 1847.53 1251.02 1848.4 1250.63 1848.87 1249.24 1848.96 1248.22 1849.06 1247.6 1849.16 1246.97 1849.25 1246.12 1849.49 1245.04 1849.87 1243.95 1850.25 1243.3 1850.72 1243.09 1851.27 1242.87 1851.81 1242.59 1852.62 1242.26 1853.7 1241.92 1854.77 1242.13 1856.07 1242.9 1857.59L1264.21 1922.83 1264.49 1922.83 1288.03 1856.02C1288.32 1855.16 1288.47 1854.39 1288.47 1853.7 1288.47 1853.01 1288.37 1852.41 1288.18 1851.91 1287.99 1851.41 1287.59 1850.99 1286.99 1850.66 1286.38 1850.32 1285.84 1850.06 1285.36 1849.87 1284.88 1849.68 1284.17 1849.51 1283.23 1849.37 1282.29 1849.23 1281.5 1849.13 1280.85 1849.08 1280.2 1849.04 1279.34 1848.96 1278.29 1848.87 1277.8 1848.45 1277.56 1847.59 1277.56 1846.29 1277.56 1844.98 1277.8 1844.07 1278.29 1843.55 1286.18 1843.76 1291.6 1843.86 1294.53 1843.86 1295.83 1843.86 1300.12 1843.76 1307.38 1843.55 1307.77 1844.07 1307.97 1844.97 1308 1846.25 1308.02 1847.53 1307.82 1848.4 1307.38 1848.87 1303.53 1849.06 1300.71 1849.88 1298.9 1851.34 1297.1 1852.79 1295.69 1854.93 1294.68 1857.74L1265.58 1937.13C1264.81 1939.38 1263.48 1940.52 1261.61 1940.57 1259.34 1940.57 1257.8 1939.38 1256.99 1936.99L1239.66 1884.99C1238.79 1882.27 1238.12 1880.91 1237.63 1880.91 1237.06 1880.91 1236.36 1882.13 1235.54 1884.56L1214.96 1936.99C1214.09 1939.33 1212.73 1940.52 1210.86 1940.57 1208.61 1940.57 1207.1 1939.37 1206.33 1936.98L1179.41 1856.92C1178.11 1853.37 1176.85 1851.19 1175.62 1850.37 1174.39 1849.55 1172 1849.05 1168.43 1848.87 1168.05 1848.45 1167.86 1847.59 1167.86 1846.29 1167.86 1844.98 1168.05 1844.07 1168.43 1843.55ZM863.061 1843.55C872.893 1843.76 879.223 1843.86 882.053 1843.86 885.239 1843.86 891.659 1843.76 901.315 1843.55 901.699 1844.07 901.903 1844.97 901.927 1846.25 901.952 1847.53 901.747 1848.4 901.315 1848.87 895.787 1849.06 892.265 1849.85 890.751 1851.25 889.237 1852.65 888.48 1856.26 888.48 1862.08L888.48 1885.38 939.024 1885.38 939.024 1862.08C939.024 1856.26 938.262 1852.65 936.738 1851.25 935.214 1849.85 931.714 1849.06 926.238 1848.87 925.857 1848.45 925.666 1847.59 925.666 1846.29 925.666 1844.98 925.817 1844.07 926.117 1843.55 936.013 1843.76 942.408 1843.86 945.305 1843.86 948.471 1843.86 954.85 1843.76 964.443 1843.55 964.923 1844.07 965.162 1844.97 965.162 1846.25 965.162 1847.53 964.924 1848.4 964.448 1848.87 958.971 1849.06 955.483 1849.85 953.982 1851.25 952.482 1852.65 951.732 1856.26 951.732 1862.09L951.732 1920.45C951.732 1926.28 952.482 1929.89 953.982 1931.29 955.483 1932.69 958.971 1933.5 964.448 1933.74 964.924 1934.27 965.162 1935.18 965.162 1936.48 965.162 1937.78 964.923 1938.64 964.443 1939.06 954.611 1938.85 948.281 1938.74 945.452 1938.74 942.265 1938.74 935.821 1938.85 926.117 1939.06 925.817 1938.64 925.666 1937.78 925.666 1936.48 925.666 1935.18 925.857 1934.27 926.238 1933.74 931.714 1933.55 935.214 1932.75 936.738 1931.33 938.262 1929.91 939.024 1926.28 939.024 1920.46L939.024 1891.56 888.48 1891.56 888.48 1920.46C888.48 1926.28 889.249 1929.89 890.788 1931.29 892.326 1932.69 895.835 1933.5 901.315 1933.74 901.699 1934.27 901.903 1935.18 901.927 1936.48 901.952 1937.78 901.747 1938.64 901.315 1939.06 891.42 1938.85 885.048 1938.74 882.2 1938.74 879.034 1938.74 872.655 1938.85 863.061 1939.06 862.582 1938.64 862.342 1937.78 862.342 1936.48 862.342 1935.18 862.58 1934.27 863.056 1933.74 868.533 1933.55 872.022 1932.75 873.522 1931.32 875.022 1929.9 875.772 1926.28 875.772 1920.45L875.772 1862.09C875.772 1856.26 875.022 1852.65 873.522 1851.25 872.022 1849.85 868.533 1849.06 863.056 1848.87 862.58 1848.45 862.342 1847.59 862.342 1846.29 862.342 1844.98 862.582 1844.07 863.061 1843.55ZM824.601 1841.9C830.242 1841.9 835.1 1842.56 839.174 1843.87 843.247 1845.19 845.96 1845.95 847.31 1846.15 848.657 1852.9 849.548 1859.22 849.981 1865.11 849.259 1865.63 847.646 1865.92 845.143 1865.97 844.661 1864.44 844.191 1863.07 843.733 1861.85 843.275 1860.64 842.709 1859.36 842.034 1858.02 841.359 1856.69 840.624 1855.52 839.828 1854.52 839.032 1853.51 838.08 1852.54 836.972 1851.58 835.863 1850.63 834.658 1849.84 833.356 1849.22 832.055 1848.6 830.548 1848.11 828.837 1847.75 827.125 1847.4 825.257 1847.22 823.233 1847.22 818.957 1847.22 815.198 1848.91 811.956 1852.3 808.713 1855.69 807.091 1859.45 807.091 1863.61 807.091 1865.9 807.619 1868.06 808.676 1870.08 809.733 1872.11 810.982 1873.81 812.423 1875.17 813.864 1876.53 815.75 1877.87 818.079 1879.21 820.409 1880.54 822.367 1881.53 823.952 1882.18 825.538 1882.82 827.507 1883.6 829.861 1884.5 832.215 1885.41 833.704 1885.98 834.328 1886.22 837.211 1887.46 839.791 1888.79 842.069 1890.2 844.347 1891.6 846.503 1893.32 848.536 1895.35 850.569 1897.38 852.125 1899.77 853.202 1902.54 854.28 1905.31 854.819 1908.36 854.819 1911.7 854.819 1916.35 853.558 1920.8 851.036 1925.06 848.513 1929.32 845.118 1932.77 840.848 1935.4 835.61 1938.61 829.473 1940.21 822.439 1940.21 817.589 1940.21 812.502 1939.64 807.177 1938.5 801.853 1937.36 797.74 1936.79 794.84 1936.79 793.408 1930.62 792.462 1923.19 792 1914.49 793.541 1913.68 795.153 1913.54 796.838 1914.06 800.026 1927.95 808.969 1934.89 823.664 1934.89 829.573 1934.89 834.125 1933.35 837.319 1930.27 840.514 1927.2 842.111 1922.72 842.111 1916.86 842.111 1914.18 841.691 1911.74 840.85 1909.52 840.01 1907.3 839.049 1905.51 837.968 1904.15 836.887 1902.79 835.35 1901.48 833.356 1900.22 831.362 1898.95 829.705 1898.03 828.384 1897.46 827.063 1896.89 825.19 1896.14 822.764 1895.2 820.338 1894.27 818.671 1893.62 817.764 1893.24 813.28 1891.38 809.526 1889.43 806.503 1887.4 803.48 1885.38 800.873 1882.64 798.682 1879.21 796.49 1875.77 795.394 1871.91 795.394 1867.61 795.394 1859.98 798.252 1853.79 803.969 1849.03 809.685 1844.28 816.563 1841.9 824.601 1841.9ZM1140.23 1837.95 1149.29 1853.54 1134.17 1862.21 1126.92 1849.06 1125.21 1846.57ZM993.629 1837.95 1008.89 1846.75 1003.94 1854.39 999.784 1862.49 984.524 1853.7ZM1104.17 1808.51 1119.99 1817.57 1111.15 1832.76 1103.47 1827.83 1095.33 1823.7ZM1029.96 1808.51 1038.77 1823.55 1025.4 1830.77 1022.87 1832.47 1014.11 1817.52ZM1057.91 1801 1076.19 1801 1076.19 1818.5 1073.13 1818.27 1057.91 1818.61Z" fill-rule="evenodd"/></g></svg>