<svg width="626" height="180" xmlns="http://www.w3.org/2000/svg" xmlns:xlink="http://www.w3.org/1999/xlink" xml:space="preserve" overflow="hidden"><defs><clipPath id="clip0"><rect x="384" y="1394" width="626" height="180"/></clipPath></defs><g clip-path="url(#clip0)" transform="translate(-384 -1394)"><path d="M563.331 1556.58 563.331 1574 545.063 1574 545.063 1556.69 548.119 1556.92ZM598.176 1542.35 606.826 1557.39 591.173 1566.45 582.468 1551.33 595.671 1544.07ZM510.112 1542.35 517.788 1547.31 525.924 1551.47 517.089 1566.74 501.277 1557.63ZM621.438 1512.45 636.693 1521.19 627.591 1536.84 612.335 1528.1 617.285 1520.5ZM486.808 1512.45 494.057 1525.67 495.768 1528.18 480.756 1536.84 471.701 1521.17ZM626.544 1475 643.942 1475 643.942 1493.29 626.654 1493.29 626.88 1490.23ZM464.161 1475 481.739 1475 481.507 1478.06 481.849 1493.29 464.161 1493.29ZM791.251 1441.41C783.09 1441.41 779.009 1444.54 779.009 1450.8L779.009 1484.41 786.066 1484.41C794.036 1484.41 800.158 1482.8 804.431 1479.57 808.703 1476.35 810.84 1470.49 810.84 1461.98 810.84 1448.27 804.31 1441.41 791.251 1441.41ZM656.262 1436.79C666.086 1437 671.933 1437.1 673.802 1437.1 677.469 1437.1 684.151 1437 693.849 1436.79 694.151 1437.31 694.302 1438.22 694.302 1439.5 694.302 1440.79 694.111 1441.66 693.73 1442.14 687.872 1442.33 684.156 1443.13 682.584 1444.55 681.013 1445.96 680.227 1449.61 680.227 1455.51L680.227 1492.9C680.227 1497.02 680.323 1500.41 680.515 1503.07 680.707 1505.74 681.404 1508.78 682.605 1512.21 683.807 1515.63 685.537 1518.43 687.796 1520.58 692.889 1525.47 698.727 1527.94 705.31 1527.99 710.115 1527.99 714.248 1527.22 717.708 1525.69 721.168 1524.15 723.835 1522.28 725.709 1520.08 727.583 1517.87 729.06 1515.02 730.142 1511.52 731.223 1508.02 731.884 1504.84 732.124 1501.96 732.364 1499.08 732.484 1495.68 732.484 1491.75L732.484 1455.51C732.484 1452.35 732.34 1449.96 732.051 1448.36 731.762 1446.75 730.98 1445.5 729.705 1444.62 728.43 1443.73 727.143 1443.17 725.844 1442.93 724.544 1442.69 722.235 1442.42 718.914 1442.14 718.53 1441.72 718.337 1440.85 718.337 1439.54 718.337 1438.23 718.536 1437.31 718.934 1436.79 728.787 1437 734.483 1437.1 736.021 1437.1 736.406 1437.1 741.434 1437 751.106 1436.79 751.491 1437.31 751.684 1438.22 751.684 1439.5 751.684 1440.79 751.491 1441.66 751.106 1442.14 747.545 1442.52 745.151 1442.93 743.924 1443.36 742.697 1443.79 741.699 1444.92 740.929 1446.74 740.159 1448.56 739.774 1451.48 739.774 1455.51L739.774 1489.09C739.774 1496.04 739.233 1502.1 738.152 1507.26 737.07 1512.41 735.172 1517.08 732.456 1521.25 729.74 1525.42 725.871 1528.59 720.848 1530.75 715.825 1532.91 709.613 1533.99 702.211 1533.99 698.349 1533.99 694.619 1533.47 691.023 1532.44 687.426 1531.41 683.745 1529.67 679.979 1527.22 676.214 1524.78 673.196 1521.02 670.927 1515.96 668.658 1510.9 667.524 1504.84 667.524 1497.79L667.524 1455.51C667.524 1449.71 666.822 1446.08 665.42 1444.62 664.017 1443.16 660.963 1442.33 656.257 1442.14 655.877 1441.72 655.686 1440.85 655.686 1439.54 655.686 1438.23 655.878 1437.31 656.262 1436.79ZM998.596 1436.5C998.981 1436.5 999.173 1436.64 999.173 1436.93 999.943 1440.27 1001.05 1447.35 1002.49 1458.17 1000.91 1458.96 999.269 1459.2 997.585 1458.91 995.716 1452.85 993.751 1448.59 991.69 1446.12 989.629 1443.66 986.057 1442.43 980.976 1442.43L965.445 1442.43C963.768 1442.43 962.474 1443.05 961.563 1444.31 960.652 1445.56 960.197 1447.15 960.197 1449.07L960.197 1479.35 973.586 1479.35C979.584 1479.35 983.267 1478.75 984.635 1477.55 986.003 1476.34 986.783 1473.51 986.975 1469.03 987.36 1468.54 988.154 1468.3 989.357 1468.3 990.56 1468.3 991.402 1468.54 991.883 1469.02 991.691 1475 991.594 1479.3 991.594 1481.92 991.594 1483.7 991.691 1488.04 991.883 1494.92 991.402 1495.48 990.572 1495.76 989.393 1495.76 988.214 1495.76 987.408 1495.51 986.975 1495.02 986.783 1492.32 986.495 1490.38 986.111 1489.2 985.727 1488.02 984.551 1486.97 982.584 1486.06 980.617 1485.16 977.617 1484.7 973.586 1484.7L960.197 1484.7 960.197 1520.77C960.197 1525.05 961.948 1527.19 965.449 1527.19L985.521 1527.19C994.874 1527.19 1001.3 1520.67 1004.8 1507.63 1006.58 1507.24 1008.32 1507.48 1010 1508.36 1008.8 1516.09 1006.97 1524.24 1004.51 1532.83 996.634 1532.64 990.339 1532.54 985.631 1532.54L953.919 1532.54C945.959 1532.64 939.558 1532.73 934.715 1532.83 934.332 1532.41 934.141 1531.54 934.141 1530.24 934.141 1528.93 934.331 1528.02 934.712 1527.48 940.187 1527.29 943.685 1526.48 945.209 1525.05 946.732 1523.62 947.494 1519.98 947.494 1514.12L947.494 1455.43C947.494 1449.57 946.723 1445.94 945.184 1444.53 943.644 1443.12 940.107 1442.33 934.574 1442.14 934.188 1441.71 933.996 1440.85 933.996 1439.53 933.996 1438.21 934.188 1437.3 934.574 1436.79L953.701 1437.08 991.378 1437.08C993.928 1437.08 996.334 1436.89 998.596 1436.5ZM791.108 1436.07C796.759 1436.07 801.546 1436.52 805.469 1437.41 809.392 1438.31 812.872 1440.24 815.907 1443.2 820.998 1448.15 823.543 1454.36 823.543 1461.84 823.543 1468.62 821.505 1474.15 817.429 1478.43 813.353 1482.71 809.14 1485.6 804.79 1487.09L823.386 1518.05C825.648 1521.8 827.813 1524.63 829.882 1526.55 831.951 1528.47 834.502 1529.43 837.533 1529.43 838.207 1530.73 838.255 1531.92 837.678 1532.97 836.282 1533.65 834.213 1533.99 831.47 1533.99 823.868 1533.99 817.371 1529.48 811.982 1520.48L796.292 1495.28C795.092 1493.35 793.34 1491.94 791.036 1491.07 788.731 1490.2 784.722 1489.76 779.009 1489.76L779.009 1514.25C779.009 1520.05 779.77 1523.65 781.294 1525.04 782.817 1526.43 786.292 1527.25 791.719 1527.48 792.099 1528.13 792.29 1529.09 792.29 1530.36 792.29 1531.62 792.136 1532.45 791.827 1532.83 781.941 1532.64 775.575 1532.54 772.73 1532.54 769.566 1532.54 763.189 1532.64 753.6 1532.83 753.12 1532.45 752.88 1531.62 752.88 1530.36 752.88 1529.09 753.118 1528.13 753.594 1527.48 759.069 1527.29 762.557 1526.48 764.056 1525.05 765.556 1523.62 766.305 1519.97 766.305 1514.1L766.305 1455.37C766.305 1449.5 765.556 1445.86 764.056 1444.46 762.557 1443.05 759.069 1442.25 753.594 1442.06 753.118 1441.68 752.88 1440.84 752.88 1439.55 752.88 1438.26 753.12 1437.34 753.6 1436.79 763.427 1436.98 769.755 1437.08 772.584 1437.08 774.658 1437.08 777.987 1436.91 782.569 1436.57 787.152 1436.23 789.998 1436.07 791.108 1436.07ZM889.097 1435.13C896.178 1435.13 903.103 1436.2 909.871 1438.34 916.639 1440.49 920.529 1441.61 921.54 1441.71 923.224 1452.08 924.306 1459.73 924.787 1464.65 922.911 1465.62 921.275 1465.86 919.879 1465.37 914.87 1448.77 904.079 1440.47 887.507 1440.47 878.884 1440.47 871.008 1444.87 863.879 1453.65 861.085 1457.08 858.917 1461.27 857.375 1466.24 855.834 1471.21 855.063 1476.81 855.063 1483.04 855.063 1490.66 856.243 1497.78 858.604 1504.39 860.964 1511 864.77 1516.59 870.021 1521.15 875.271 1525.71 881.533 1527.99 888.807 1527.99 895.696 1527.99 901.837 1526.72 907.232 1524.19 912.627 1521.65 917.925 1517.52 923.127 1511.77 924.619 1511.77 925.75 1512.52 926.52 1514.02 916.358 1527.33 903.836 1533.99 888.952 1533.99 878.946 1533.99 870.327 1531.6 863.095 1526.82 855.863 1522.05 850.599 1516.1 847.303 1508.98 844.008 1501.87 842.36 1494.16 842.36 1485.86 842.36 1469.98 847.506 1457.26 857.797 1447.68 866.808 1439.31 877.241 1435.13 889.097 1435.13ZM416.589 1435.13C422.228 1435.13 427.083 1435.79 431.156 1437.11 435.228 1438.44 437.939 1439.2 439.289 1439.4 440.636 1446.19 441.526 1452.55 441.959 1458.47 441.237 1459 439.625 1459.28 437.123 1459.33 436.641 1457.8 436.172 1456.42 435.714 1455.19 435.256 1453.97 434.69 1452.69 434.015 1451.34 433.341 1450 432.606 1448.82 431.81 1447.82 431.015 1446.81 430.063 1445.82 428.955 1444.86 427.846 1443.9 426.642 1443.11 425.341 1442.49 424.04 1441.87 422.534 1441.37 420.823 1441.01 419.112 1440.65 417.244 1440.47 415.22 1440.47 410.947 1440.47 407.189 1442.18 403.948 1445.58 400.706 1448.99 399.085 1452.78 399.085 1456.96 399.085 1459.26 399.613 1461.43 400.67 1463.47 401.726 1465.51 402.975 1467.21 404.415 1468.58 405.856 1469.95 407.741 1471.3 410.07 1472.65 412.398 1473.99 414.355 1474.98 415.94 1475.63 417.525 1476.28 419.494 1477.06 421.847 1477.97 424.2 1478.88 425.688 1479.46 426.312 1479.7 429.194 1480.95 431.773 1482.28 434.05 1483.69 436.327 1485.11 438.482 1486.84 440.514 1488.88 442.547 1490.91 444.102 1493.33 445.179 1496.11 446.257 1498.89 446.795 1501.96 446.795 1505.32 446.795 1509.99 445.534 1514.47 443.013 1518.75 440.492 1523.03 437.097 1526.5 432.83 1529.15 427.593 1532.37 421.459 1533.99 414.428 1533.99 409.58 1533.99 404.494 1533.41 399.172 1532.27 393.849 1531.12 389.738 1530.54 386.839 1530.54 385.408 1524.34 384.462 1516.87 384 1508.13 385.54 1507.31 387.152 1507.17 388.836 1507.7 392.023 1521.66 400.962 1528.64 415.652 1528.64 421.559 1528.64 426.109 1527.09 429.302 1524 432.495 1520.9 434.092 1516.4 434.092 1510.5 434.092 1507.82 433.672 1505.36 432.832 1503.13 431.991 1500.89 431.031 1499.1 429.95 1497.73 428.87 1496.36 427.333 1495.04 425.34 1493.77 423.347 1492.5 421.69 1491.57 420.37 1491 419.05 1490.42 417.177 1489.67 414.752 1488.73 412.327 1487.8 410.661 1487.14 409.754 1486.75 405.272 1484.88 401.519 1482.93 398.498 1480.89 395.476 1478.85 392.87 1476.1 390.679 1472.65 388.488 1469.19 387.392 1465.3 387.392 1460.99 387.392 1453.31 390.25 1447.09 395.964 1442.3 401.679 1437.52 408.553 1435.13 416.589 1435.13ZM627.347 1431.16 636.403 1446.83 621.296 1455.55 614.046 1442.33 612.335 1439.82ZM480.803 1431.16 496.058 1440.01 491.108 1447.69 486.956 1455.84 471.701 1446.99ZM591.304 1401.55 607.116 1410.66 598.28 1425.94 590.605 1420.98 582.468 1416.82ZM517.115 1401.55 525.924 1416.67 512.565 1423.93 510.028 1425.65 501.277 1410.61ZM545.063 1394 563.331 1394 563.331 1411.6 560.274 1411.37 545.063 1411.71Z" fill="#BF9000" fill-rule="evenodd"/></g></svg>