<svg width="752" height="180" xmlns="http://www.w3.org/2000/svg" xmlns:xlink="http://www.w3.org/1999/xlink" xml:space="preserve" overflow="hidden"><defs><clipPath id="clip0"><rect x="1587" y="1409" width="752" height="180"/></clipPath></defs><g clip-path="url(#clip0)" transform="translate(-1587 -1409)"><path d="M1864.66 1571.58 1864.66 1589 1846.41 1589 1846.41 1571.69 1849.47 1571.92ZM1899.47 1557.36 1908.11 1572.39 1892.47 1581.45 1883.78 1566.33 1896.96 1559.07ZM1811.5 1557.36 1819.17 1562.31 1827.3 1566.47 1818.47 1581.74 1802.68 1572.63ZM1922.7 1527.45 1937.94 1536.19 1928.85 1551.84 1913.61 1543.1 1918.56 1535.5ZM1788.22 1527.45 1795.47 1540.67 1797.17 1543.18 1782.18 1551.84 1773.13 1536.17ZM1927.8 1490 1945.18 1490 1945.18 1508.29 1927.91 1508.29 1928.14 1505.23ZM1765.6 1490 1783.16 1490 1782.93 1493.06 1783.27 1508.29 1765.6 1508.29ZM2000.54 1456.57C1992 1456.57 1987.73 1459.7 1987.73 1465.96L1987.73 1500.23C1989.51 1500.7 1993.25 1500.94 1998.95 1500.94 2006.24 1500.94 2011.72 1499.15 2015.39 1495.57 2019.06 1491.98 2020.9 1486.34 2020.9 1478.65 2020.9 1470.14 2019.03 1464.34 2015.29 1461.23 2011.54 1458.12 2006.63 1456.57 2000.54 1456.57ZM1716.12 1456.57C1707.97 1456.57 1703.89 1459.7 1703.89 1465.96L1703.89 1499.57 1710.94 1499.57C1718.9 1499.57 1725.02 1497.96 1729.29 1494.73 1733.55 1491.51 1735.69 1485.64 1735.69 1477.14 1735.69 1463.43 1729.17 1456.57 1716.12 1456.57ZM2148.07 1451.95C2157.88 1452.16 2164.2 1452.26 2167.03 1452.26 2170.24 1452.26 2176.66 1452.16 2186.28 1451.95 2186.67 1452.47 2186.87 1453.37 2186.89 1454.66 2186.92 1455.94 2186.71 1456.82 2186.28 1457.29 2180.75 1457.48 2177.23 1458.28 2175.72 1459.69 2174.2 1461.09 2173.45 1464.73 2173.45 1470.59L2173.45 1529.27C2173.45 1535.13 2174.22 1538.77 2175.75 1540.17 2177.29 1541.58 2180.8 1542.4 2186.28 1542.64 2186.67 1543.17 2186.87 1544.09 2186.89 1545.39 2186.92 1546.7 2186.71 1547.56 2186.28 1547.99 2176.41 1547.77 2170.04 1547.67 2167.18 1547.67 2164.02 1547.67 2157.65 1547.77 2148.07 1547.99 2147.59 1547.56 2147.35 1546.7 2147.35 1545.39 2147.35 1544.09 2147.59 1543.17 2148.06 1542.64 2153.53 1542.45 2157.01 1541.64 2158.51 1540.21 2160.01 1538.78 2160.76 1535.13 2160.76 1529.27L2160.76 1470.59C2160.76 1464.73 2160.01 1461.09 2158.51 1459.69 2157.01 1458.28 2153.53 1457.48 2148.06 1457.29 2147.59 1456.87 2147.35 1456.01 2147.35 1454.7 2147.35 1453.39 2147.59 1452.47 2148.07 1451.95ZM2041.62 1451.95C2051.43 1452.16 2057.76 1452.26 2060.58 1452.26 2063.76 1452.26 2070.17 1452.16 2079.81 1451.95 2080.2 1452.47 2080.4 1453.37 2080.43 1454.66 2080.45 1455.94 2080.25 1456.82 2079.81 1457.29 2074.29 1457.48 2070.78 1458.28 2069.27 1459.69 2067.75 1461.09 2067 1464.72 2067 1470.58L2067 1494 2117.47 1494 2117.47 1470.58C2117.47 1464.72 2116.71 1461.09 2115.18 1459.69 2113.66 1458.28 2110.17 1457.48 2104.7 1457.29 2104.32 1456.87 2104.13 1456.01 2104.13 1454.7 2104.13 1453.39 2104.28 1452.47 2104.58 1451.95 2114.46 1452.16 2120.85 1452.26 2123.74 1452.26 2126.9 1452.26 2133.27 1452.16 2142.85 1451.95 2143.33 1452.47 2143.57 1453.37 2143.57 1454.66 2143.57 1455.94 2143.33 1456.82 2142.85 1457.29 2137.38 1457.48 2133.9 1458.28 2132.4 1459.69 2130.9 1461.09 2130.16 1464.73 2130.16 1470.59L2130.16 1529.27C2130.16 1535.13 2130.9 1538.77 2132.4 1540.17 2133.9 1541.58 2137.38 1542.4 2142.85 1542.64 2143.33 1543.17 2143.57 1544.09 2143.57 1545.39 2143.57 1546.7 2143.33 1547.56 2142.85 1547.99 2133.03 1547.77 2126.71 1547.67 2123.88 1547.67 2120.7 1547.67 2114.27 1547.77 2104.58 1547.99 2104.28 1547.56 2104.13 1546.7 2104.13 1545.39 2104.13 1544.09 2104.32 1543.17 2104.7 1542.64 2110.17 1542.45 2113.66 1541.64 2115.18 1540.21 2116.71 1538.78 2117.47 1535.14 2117.47 1529.29L2117.47 1500.22 2067 1500.22 2067 1529.29C2067 1535.14 2067.77 1538.77 2069.3 1540.18 2070.84 1541.58 2074.34 1542.4 2079.81 1542.64 2080.2 1543.17 2080.4 1544.09 2080.43 1545.39 2080.45 1546.7 2080.25 1547.56 2079.81 1547.99 2069.93 1547.77 2063.57 1547.67 2060.73 1547.67 2057.57 1547.67 2051.2 1547.77 2041.62 1547.99 2041.14 1547.56 2040.9 1546.7 2040.9 1545.39 2040.9 1544.09 2041.14 1543.17 2041.61 1542.64 2047.08 1542.45 2050.56 1541.64 2052.06 1540.21 2053.56 1538.78 2054.31 1535.13 2054.31 1529.27L2054.31 1470.59C2054.31 1464.73 2053.56 1461.09 2052.06 1459.69 2050.56 1458.28 2047.08 1457.48 2041.61 1457.29 2041.14 1456.87 2040.9 1456.01 2040.9 1454.7 2040.9 1453.39 2041.14 1452.47 2041.62 1451.95ZM2255.15 1451.66C2255.53 1451.66 2255.72 1451.8 2255.72 1452.09 2256.49 1455.43 2257.6 1462.51 2259.04 1473.33 2257.45 1474.12 2255.82 1474.36 2254.14 1474.07 2252.27 1468 2250.31 1463.74 2248.25 1461.28 2246.19 1458.81 2242.62 1457.58 2237.55 1457.58L2222.03 1457.58C2220.36 1457.58 2219.06 1458.21 2218.15 1459.47 2217.25 1460.72 2216.79 1462.31 2216.79 1464.23L2216.79 1494.51 2230.16 1494.51C2236.16 1494.51 2239.83 1493.91 2241.2 1492.7 2242.57 1491.5 2243.35 1488.66 2243.54 1484.19 2243.92 1483.7 2244.72 1483.45 2245.92 1483.45 2247.12 1483.45 2247.96 1483.7 2248.44 1484.18 2248.25 1490.16 2248.15 1494.46 2248.15 1497.08 2248.15 1498.86 2248.25 1503.19 2248.44 1510.08 2247.96 1510.64 2247.13 1510.91 2245.95 1510.91 2244.78 1510.91 2243.97 1510.67 2243.54 1510.18 2243.35 1507.48 2243.06 1505.53 2242.68 1504.35 2242.29 1503.17 2241.12 1502.13 2239.15 1501.22 2237.19 1500.31 2234.19 1499.86 2230.16 1499.86L2216.79 1499.86 2216.79 1535.93C2216.79 1540.21 2218.54 1542.35 2222.04 1542.35L2242.09 1542.35C2251.43 1542.35 2257.85 1535.83 2261.35 1522.78 2263.12 1522.39 2264.85 1522.64 2266.54 1523.51 2265.34 1531.24 2263.51 1539.4 2261.06 1547.99 2253.19 1547.79 2246.9 1547.7 2242.2 1547.7L2210.52 1547.7C2202.57 1547.79 2196.17 1547.89 2191.34 1547.99 2190.95 1547.56 2190.76 1546.7 2190.76 1545.39 2190.76 1544.09 2190.95 1543.17 2191.33 1542.64 2196.8 1542.45 2200.3 1541.64 2201.82 1540.21 2203.34 1538.78 2204.1 1535.13 2204.1 1529.27L2204.1 1470.59C2204.1 1464.73 2203.33 1461.09 2201.79 1459.69 2200.26 1458.28 2196.72 1457.48 2191.2 1457.29 2190.81 1456.87 2190.62 1456 2190.62 1454.69 2190.62 1453.37 2190.81 1452.45 2191.2 1451.95L2210.3 1452.23 2247.94 1452.23C2250.48 1452.23 2252.89 1452.04 2255.15 1451.66ZM2001.62 1451.22C2007.81 1451.22 2013.13 1452.06 2017.6 1453.74 2022.07 1455.41 2025.4 1457.62 2027.58 1460.37 2029.77 1463.11 2031.32 1465.75 2032.22 1468.27 2033.13 1470.8 2033.59 1473.37 2033.59 1476 2033.59 1479.48 2033.02 1482.89 2031.87 1486.2 2030.73 1489.52 2028.95 1492.74 2026.52 1495.86 2024.1 1498.99 2020.57 1501.51 2015.93 1503.42 2011.29 1505.33 2005.87 1506.29 1999.67 1506.29 1994.78 1506.29 1990.8 1505.77 1987.73 1504.74L1987.73 1529.39C1987.73 1535.11 1988.66 1538.66 1990.52 1540.05 1992.38 1541.45 1996.42 1542.31 2002.66 1542.64 2003.14 1543.17 2003.38 1544.09 2003.38 1545.39 2003.38 1546.7 2003.17 1547.56 2002.77 1547.99 1992.9 1547.77 1985.79 1547.67 1981.46 1547.67 1978.3 1547.67 1971.93 1547.77 1962.35 1547.99 1961.87 1547.56 1961.63 1546.7 1961.63 1545.39 1961.63 1544.09 1961.87 1543.17 1962.35 1542.64 1967.81 1542.45 1971.3 1541.64 1972.8 1540.21 1974.29 1538.78 1975.04 1535.13 1975.04 1529.26L1975.04 1470.52C1975.04 1464.66 1974.29 1461.02 1972.8 1459.61 1971.3 1458.21 1967.81 1457.41 1962.35 1457.22 1961.87 1456.84 1961.63 1456 1961.63 1454.71 1961.63 1453.42 1961.87 1452.5 1962.35 1451.95 1972.17 1452.14 1978.49 1452.23 1981.31 1452.23 1983.48 1452.23 1987.13 1452.07 1992.26 1451.73 1997.39 1451.39 2000.51 1451.22 2001.62 1451.22ZM1715.98 1451.22C1721.62 1451.22 1726.4 1451.67 1730.32 1452.57 1734.24 1453.47 1737.72 1455.4 1740.75 1458.36 1745.83 1463.31 1748.38 1469.52 1748.38 1476.99 1748.38 1483.78 1746.34 1489.31 1742.27 1493.59 1738.2 1497.87 1733.99 1500.75 1729.65 1502.24L1748.22 1533.21C1750.48 1536.96 1752.64 1539.79 1754.71 1541.71 1756.78 1543.63 1759.32 1544.59 1762.35 1544.59 1763.02 1545.89 1763.07 1547.07 1762.5 1548.13 1761.1 1548.81 1759.03 1549.14 1756.3 1549.14 1748.7 1549.14 1742.21 1544.64 1736.83 1535.63L1721.16 1510.44C1719.96 1508.5 1718.21 1507.1 1715.91 1506.23 1713.6 1505.35 1709.6 1504.92 1703.89 1504.92L1703.89 1529.4C1703.89 1535.21 1704.65 1538.81 1706.18 1540.2 1707.7 1541.59 1711.17 1542.4 1716.59 1542.64 1716.97 1543.29 1717.16 1544.25 1717.16 1545.51 1717.16 1546.78 1717.01 1547.6 1716.7 1547.99 1706.82 1547.79 1700.46 1547.7 1697.62 1547.7 1694.46 1547.7 1688.09 1547.79 1678.51 1547.99 1678.03 1547.6 1677.79 1546.78 1677.79 1545.51 1677.79 1544.25 1678.03 1543.29 1678.51 1542.64 1683.98 1542.45 1687.46 1541.64 1688.96 1540.21 1690.46 1538.78 1691.2 1535.13 1691.2 1529.26L1691.2 1470.52C1691.2 1464.66 1690.46 1461.02 1688.96 1459.61 1687.46 1458.21 1683.98 1457.41 1678.51 1457.22 1678.03 1456.84 1677.79 1456 1677.79 1454.71 1677.79 1453.42 1678.03 1452.5 1678.51 1451.95 1688.33 1452.14 1694.65 1452.23 1697.48 1452.23 1699.55 1452.23 1702.87 1452.07 1707.45 1451.73 1712.03 1451.39 1714.87 1451.22 1715.98 1451.22ZM1591.33 1451.08C1601.28 1451.85 1612.76 1452.23 1625.75 1452.23L1638.45 1452.23C1651.53 1452.23 1662.57 1451.85 1671.57 1451.08 1671.86 1451.08 1672 1451.22 1672 1451.5 1672.1 1457.78 1672.72 1464.8 1673.88 1472.53 1672.77 1473.02 1671.11 1473.26 1668.9 1473.26 1667.7 1467.57 1665.44 1463.53 1662.11 1461.15 1658.77 1458.77 1654.21 1457.58 1648.4 1457.58L1645.17 1457.58C1642.63 1457.58 1640.86 1458.83 1639.88 1461.34 1638.9 1463.84 1638.41 1467.62 1638.41 1472.67L1638.41 1529.14C1638.41 1535.06 1639.23 1538.73 1640.89 1540.15 1642.54 1541.57 1646.46 1542.4 1652.65 1542.64 1653.13 1543.17 1653.38 1544.09 1653.4 1545.39 1653.43 1546.7 1653.17 1547.56 1652.65 1547.99 1642.78 1547.77 1635.94 1547.67 1632.13 1547.67 1627.99 1547.67 1621.06 1547.77 1611.37 1547.99 1611.08 1547.56 1610.94 1546.7 1610.94 1545.39 1610.94 1544.09 1611.13 1543.17 1611.51 1542.64 1617.65 1542.45 1621.55 1541.63 1623.22 1540.18 1624.88 1538.74 1625.72 1535.06 1625.72 1529.14L1625.72 1472.24C1625.72 1467.43 1625.2 1463.78 1624.17 1461.3 1623.13 1458.82 1621.32 1457.58 1618.72 1457.58L1611.51 1457.58C1606.42 1457.58 1602.24 1458.8 1598.97 1461.23 1595.7 1463.66 1593.39 1467.81 1592.05 1473.7 1589.98 1473.7 1588.3 1473.46 1587 1472.98 1588.97 1464.5 1590.2 1457.34 1590.68 1451.51 1590.68 1451.22 1590.89 1451.08 1591.33 1451.08ZM2308.83 1450.28C2314.46 1450.28 2319.31 1450.95 2323.38 1452.27 2327.45 1453.59 2330.15 1454.36 2331.5 1454.56 2332.85 1461.35 2333.74 1467.7 2334.17 1473.62 2333.45 1474.15 2331.84 1474.44 2329.34 1474.49 2328.86 1472.95 2328.39 1471.57 2327.93 1470.35 2327.47 1469.13 2326.91 1467.84 2326.23 1466.5 2325.56 1465.16 2324.83 1463.98 2324.03 1462.97 2323.24 1461.96 2322.29 1460.98 2321.18 1460.02 2320.07 1459.06 2318.87 1458.27 2317.57 1457.65 2316.27 1457.02 2314.77 1456.53 2313.06 1456.17 2311.35 1455.81 2309.48 1455.63 2307.46 1455.63 2303.19 1455.63 2299.44 1457.33 2296.2 1460.74 2292.96 1464.15 2291.34 1467.94 2291.34 1472.11 2291.34 1474.42 2291.87 1476.59 2292.93 1478.63 2293.98 1480.67 2295.23 1482.37 2296.67 1483.74 2298.11 1485.1 2299.99 1486.46 2302.32 1487.8 2304.64 1489.15 2306.6 1490.14 2308.18 1490.79 2309.76 1491.44 2311.73 1492.22 2314.08 1493.13 2316.43 1494.04 2317.92 1494.62 2318.54 1494.86 2321.42 1496.1 2323.99 1497.43 2326.27 1498.85 2328.54 1500.27 2330.7 1501.99 2332.73 1504.03 2334.76 1506.07 2336.31 1508.48 2337.39 1511.27 2338.46 1514.05 2339 1517.12 2339 1520.48 2339 1525.15 2337.74 1529.62 2335.22 1533.91 2332.7 1538.19 2329.31 1541.66 2325.05 1544.31 2319.82 1547.53 2313.69 1549.14 2306.67 1549.14 2301.83 1549.14 2296.75 1548.57 2291.43 1547.42 2286.11 1546.27 2282.01 1545.7 2279.11 1545.7 2277.68 1539.5 2276.74 1532.03 2276.28 1523.28 2277.81 1522.47 2279.42 1522.32 2281.11 1522.85 2284.29 1536.81 2293.22 1543.8 2307.89 1543.8 2313.79 1543.8 2318.34 1542.25 2321.53 1539.15 2324.72 1536.06 2326.31 1531.56 2326.31 1525.66 2326.31 1522.97 2325.89 1520.51 2325.05 1518.28 2324.21 1516.05 2323.25 1514.25 2322.17 1512.88 2321.09 1511.52 2319.56 1510.2 2317.57 1508.93 2315.58 1507.66 2313.92 1506.73 2312.6 1506.16 2311.29 1505.58 2309.42 1504.82 2306.99 1503.89 2304.57 1502.95 2302.91 1502.29 2302 1501.91 2297.52 1500.04 2293.77 1498.08 2290.76 1496.04 2287.74 1494 2285.14 1491.26 2282.95 1487.8 2280.76 1484.35 2279.66 1480.46 2279.66 1476.14 2279.66 1468.47 2282.52 1462.24 2288.23 1457.46 2293.93 1452.68 2300.8 1450.28 2308.83 1450.28ZM1928.61 1446.16 1937.65 1461.83 1922.56 1470.55 1915.32 1457.33 1913.61 1454.82ZM1782.23 1446.16 1797.46 1455.01 1792.52 1462.69 1788.37 1470.84 1773.13 1461.99ZM1892.6 1416.55 1908.4 1425.66 1899.57 1440.94 1891.9 1435.98 1883.78 1431.82ZM1818.5 1416.55 1827.3 1431.67 1813.95 1438.93 1811.42 1440.65 1802.68 1425.61ZM1846.41 1409 1864.66 1409 1864.66 1426.6 1861.61 1426.37 1846.41 1426.71Z" fill="#385723" fill-rule="evenodd"/></g></svg>