<svg width="133" height="53" xmlns="http://www.w3.org/2000/svg" xmlns:xlink="http://www.w3.org/1999/xlink" xml:space="preserve" overflow="hidden"><defs><clipPath id="clip0"><rect x="556" y="342" width="133" height="53"/></clipPath></defs><g clip-path="url(#clip0)" transform="translate(-556 -342)"><path d="M194.573 88.779 189.266 88.779 189.266 83.7571 190.154 83.8228 194.573 83.7251Z" fill="#BF9000" fill-rule="evenodd" transform="matrix(1 0 0 1.01488 471.011 304.9)"/><path d="M181.14 86.6732 176.547 84.0294 179.114 79.5978 181.343 81.0354 183.707 82.2417Z" fill="#BF9000" fill-rule="evenodd" transform="matrix(1 0 0 1.01488 471.011 304.9)"/><path d="M170.586 77.9975 167.956 73.4506 172.344 70.9221 174.45 74.7572 174.947 75.485Z" fill="#BF9000" fill-rule="evenodd" transform="matrix(1 0 0 1.01488 471.011 304.9)"/><path d="M170.904 65.3629 165.766 65.3629 165.766 60.0564 170.872 60.0564 170.804 60.9439Z" fill="#BF9000" fill-rule="evenodd" transform="matrix(1 0 0 1.01488 471.011 304.9)"/><path d="M172.387 54.4972 167.956 51.9308 170.6 47.3376 175.031 49.9039 173.593 52.1336Z" fill="#BF9000" fill-rule="evenodd" transform="matrix(1 0 0 1.01488 471.011 304.9)"/><path d="M179.089 45.7372 176.547 41.3765 181.148 38.746 183.707 43.1345 179.826 45.2402Z" fill="#BF9000" fill-rule="evenodd" transform="matrix(1 0 0 1.01488 471.011 304.9)"/><path d="M189.266 41.6941 189.266 36.556 194.573 36.556 194.573 41.6617 193.685 41.595Z" fill="#BF9000" fill-rule="evenodd" transform="matrix(1 0 0 1.01488 471.011 304.9)"/><path d="M204.725 45.8214 202.495 44.3838 200.132 43.1776 202.698 38.746 207.291 41.3899Z" fill="#BF9000" fill-rule="evenodd" transform="matrix(1 0 0 1.01488 471.011 304.9)"/><path d="M211.41 54.4129 209.304 50.5777 208.807 49.8501 213.168 47.3376 215.799 51.8844Z" fill="#BF9000" fill-rule="evenodd" transform="matrix(1 0 0 1.01488 471.011 304.9)"/><path d="M217.989 65.3629 212.967 65.3629 213.032 64.4753 212.935 60.0564 217.989 60.0564Z" fill="#BF9000" fill-rule="evenodd" transform="matrix(1 0 0 1.01488 471.011 304.9)"/><path d="M213.239 77.9975 208.807 75.4613 210.245 73.2579 211.451 70.9221 215.883 73.4583Z" fill="#BF9000" fill-rule="evenodd" transform="matrix(1 0 0 1.01488 471.011 304.9)"/><path d="M202.66 86.589 200.132 82.2007 203.967 80.0948 204.694 79.5978 207.207 83.9585Z" fill="#BF9000" fill-rule="evenodd" transform="matrix(1 0 0 1.01488 471.011 304.9)"/><path d="M149.911 48.5853C152.812 48.647 154.68 48.6781 155.515 48.6781 156.463 48.6781 158.359 48.647 161.204 48.5853 161.317 48.7396 161.378 49.0059 161.385 49.3844 161.392 49.7627 161.332 50.0215 161.204 50.1605 159.571 50.2166 158.53 50.4517 158.083 50.8658 157.635 51.2799 157.412 52.3502 157.412 54.0768L157.412 71.3638C157.412 73.0905 157.639 74.1609 158.093 74.5748 158.548 74.9888 159.585 75.231 161.204 75.3012 161.317 75.458 161.378 75.7285 161.385 76.1126 161.392 76.4966 161.332 76.7514 161.204 76.8765 158.288 76.8139 156.406 76.7824 155.558 76.7824 154.624 76.7824 152.741 76.8139 149.911 76.8765 149.769 76.7514 149.699 76.4966 149.699 76.1126 149.699 75.7285 149.769 75.458 149.909 75.3012 151.526 75.2451 152.555 75.0066 152.997 74.5855 153.44 74.1644 153.662 73.0905 153.662 71.3638L153.662 54.0768C153.662 52.3502 153.44 51.2799 152.997 50.8658 152.555 50.4517 151.526 50.2166 149.909 50.1605 149.769 50.0371 149.699 49.7822 149.699 49.396 149.699 49.0098 149.769 48.7396 149.911 48.5853ZM114.456 48.5853C117.357 48.647 119.225 48.6781 120.06 48.6781 121.008 48.6781 122.904 48.647 125.749 48.5853 125.863 48.7396 125.923 49.0059 125.931 49.3844 125.937 49.7627 125.877 50.0215 125.749 50.1605 124.115 50.2166 123.075 50.4517 122.628 50.8658 122.18 51.2799 121.957 52.3502 121.957 54.0768L121.957 71.3638C121.957 73.0905 122.184 74.1609 122.638 74.5748 123.093 74.9888 124.13 75.231 125.749 75.3012 125.863 75.458 125.923 75.7285 125.931 76.1126 125.937 76.4966 125.877 76.7514 125.749 76.8765 122.833 76.8139 120.951 76.7824 120.103 76.7824 119.169 76.7824 117.287 76.8139 114.456 76.8765 114.314 76.7514 114.244 76.4966 114.244 76.1126 114.244 75.7285 114.313 75.458 114.454 75.3012 116.071 75.2451 117.1 75.0066 117.542 74.5855 117.985 74.1644 118.207 73.0905 118.207 71.3638L118.207 54.0768C118.207 52.3502 117.985 51.2799 117.542 50.8658 117.1 50.4517 116.071 50.2166 114.454 50.1605 114.313 50.0371 114.244 49.7822 114.244 49.396 114.244 49.0098 114.314 48.7396 114.456 48.5853ZM85.1588 48.5853C87.9004 48.647 89.4132 48.6781 89.6971 48.6781 90.4788 48.6781 92.24 48.647 94.9817 48.5853 95.0954 48.7396 95.1519 49.0059 95.1519 49.3844 95.1519 49.7627 95.0954 50.0215 94.9817 50.1605 93.5186 50.3159 92.6519 50.6091 92.3824 51.0397 92.112 51.4706 92.24 52.3286 92.7656 53.6141L99.7121 71.2848 99.9252 71.2848 106.807 53.8896C107.361 52.703 107.492 51.8131 107.201 51.2199 106.91 50.6268 106.012 50.2737 104.506 50.1605 104.392 50.0371 104.332 49.7822 104.325 49.396 104.318 49.0098 104.378 48.7396 104.506 48.5853 107.247 48.647 108.831 48.6781 109.257 48.6781 109.485 48.6781 110.763 48.647 113.093 48.5853 113.234 48.7396 113.306 49.0059 113.306 49.3844 113.306 49.7627 113.234 50.0215 113.093 50.1605 112.539 50.231 112.045 50.3616 111.611 50.5524 111.178 50.7431 110.837 50.9267 110.589 51.1033 110.34 51.2799 110.088 51.5837 109.832 52.0145 109.577 52.4453 109.403 52.7667 109.311 52.9786 109.218 53.1906 109.052 53.593 108.81 54.1863L99.7753 76.3065C99.5201 76.9704 99.1722 77.3095 98.7317 77.3236 98.3198 77.3236 97.9862 76.9845 97.7302 76.3065L89.1218 54.1014C88.4547 52.4065 87.9325 51.3506 87.5559 50.9339 87.1794 50.5173 86.3944 50.2594 85.2017 50.1605 85.0594 50.0061 84.9886 49.7437 84.9886 49.3729 84.9886 49.002 85.045 48.7396 85.1588 48.5853ZM138.054 48.0956C139.718 48.0956 141.152 48.2906 142.354 48.6806 143.557 49.0707 144.357 49.2958 144.755 49.3559 145.153 51.3554 145.416 53.2271 145.544 54.9712 145.331 55.1267 144.855 55.2115 144.116 55.2257 143.974 54.7733 143.835 54.3668 143.7 54.0066 143.564 53.6463 143.397 53.2682 143.199 52.8723 142.999 52.4765 142.783 52.1302 142.548 51.8334 142.313 51.5366 142.032 51.2469 141.704 50.9641 141.378 50.6814 141.021 50.4481 140.638 50.2645 140.254 50.0807 139.809 49.9359 139.304 49.8299 138.798 49.724 138.248 49.6709 137.65 49.6709 136.389 49.6709 135.279 50.1727 134.322 51.1762 133.366 52.1797 132.887 53.2963 132.887 54.5258 132.887 55.2043 133.043 55.844 133.355 56.4447 133.666 57.0454 134.035 57.5471 134.461 57.9499 134.886 58.3528 135.442 58.7521 136.129 59.1477 136.817 59.5435 137.394 59.8367 137.863 60.0275 138.33 60.2183 138.911 60.448 139.606 60.7165 140.301 60.9851 140.74 61.1547 140.924 61.2254 141.775 61.5929 142.537 61.9851 143.209 62.402 143.881 62.8191 144.517 63.3279 145.117 63.9286 145.717 64.5294 146.176 65.2396 146.494 66.0593 146.812 66.8789 146.971 67.7834 146.971 68.773 146.971 70.1484 146.599 71.4672 145.854 72.7292 145.11 73.991 144.108 75.0122 142.848 75.7923 141.303 76.7422 139.492 77.2172 137.416 77.2172 135.985 77.2172 134.483 77.0481 132.912 76.7102 131.342 76.372 130.128 76.2029 129.272 76.2029 128.849 74.377 128.57 72.1758 128.434 69.5994 128.889 69.3595 129.364 69.3169 129.862 69.4724 130.802 73.5854 133.441 75.6418 137.778 75.6418 139.521 75.6418 140.865 75.1861 141.807 74.2746 142.75 73.3629 143.221 72.0379 143.221 70.2993 143.221 69.5079 143.097 68.7836 142.849 68.1263 142.601 67.4691 142.318 66.939 141.998 66.5362 141.679 66.1334 141.226 65.7448 140.637 65.3703 140.049 64.9957 139.56 64.7237 139.17 64.554 138.781 64.3844 138.227 64.1617 137.511 63.886 136.796 63.6104 136.304 63.4162 136.037 63.303 134.713 62.7519 133.606 62.176 132.714 61.5755 131.822 60.9746 131.052 60.1654 130.406 59.1477 129.759 58.13 129.435 56.9852 129.435 55.7133 129.435 53.453 130.279 51.6183 131.966 50.2092 133.653 48.8 135.682 48.0956 138.054 48.0956Z" fill="#BF9000" fill-rule="evenodd" transform="matrix(1 0 0 1.01488 471.011 304.9)"/></g></svg>