<svg width="620" height="621" xmlns="http://www.w3.org/2000/svg" xmlns:xlink="http://www.w3.org/1999/xlink" xml:space="preserve" overflow="hidden"><g transform="translate(-1890 -927)"><path d="M2231 1548 2169 1548 2169 1487.39 2179.37 1488.18 2231 1487Z" fill-rule="evenodd"/><path d="M2071.89 1522 2018 1490.61 2048.11 1438 2074.27 1455.07 2102 1469.39Z" fill-rule="evenodd"/><path d="M1947.23 1420 1916 1365.38 1968.1 1335 1993.1 1381.07 1999 1389.82Z" fill-rule="evenodd"/><path d="M1950 1269 1890 1269 1890 1206 1949.62 1206 1948.84 1216.54Z" fill-rule="evenodd"/><path d="M1968.61 1140 1916 1109.53 1947.39 1055 2000 1085.47 1982.93 1111.94Z" fill-rule="evenodd"/><path d="M2047.83 1037 2018 984.605 2071.98 953 2102 1005.73 2056.47 1031.03Z" fill-rule="evenodd"/><path d="M2169 988 2169 927 2231 927 2231 987.615 2220.63 986.823Z" fill-rule="evenodd"/><path d="M2351.89 1037 2325.73 1019.93 2298 1005.61 2328.11 953 2382 984.388Z" fill-rule="evenodd"/><path d="M2431.9 1140 2406.9 1093.93 2401 1085.18 2452.77 1055 2484 1109.62Z" fill-rule="evenodd"/><path d="M2510 1269 2450.38 1269 2451.16 1258.46 2450 1206 2510 1206Z" fill-rule="evenodd"/><path d="M2452.99 1420 2401 1389.53 2417.86 1363.06 2432.01 1335 2484 1365.47Z" fill-rule="evenodd"/><path d="M2328.02 1522 2298 1469.27 2343.53 1443.97 2352.17 1438 2382 1490.39Z" fill-rule="evenodd"/></g></svg>