<svg width="3178" height="580" xmlns="http://www.w3.org/2000/svg" xmlns:xlink="http://www.w3.org/1999/xlink" xml:space="preserve" overflow="hidden"><g transform="translate(76 -554)"><path d="M1759.8 695.283C1747.64 695.283 1735.84 698.226 1724.41 704.113 1712.98 709.999 1702.38 718.624 1692.59 729.988 1682.81 741.352 1674.88 757.009 1668.79 776.958 1662.71 796.906 1659.67 819.389 1659.67 844.405 1659.67 890.678 1671.46 927.631 1695.06 955.266 1718.66 982.899 1746.81 996.717 1779.53 996.717 1809.13 996.717 1833.34 983.717 1852.17 957.719 1871 931.721 1880.41 896.812 1880.41 852.991 1880.41 803.774 1868.98 765.185 1846.13 737.224 1823.27 709.264 1794.5 695.283 1759.8 695.283ZM905.134 682.682C938.715 683.4 960.339 683.76 970.004 683.76 980.982 683.76 1002.93 683.4 1035.86 682.682 1037.18 684.474 1037.88 687.565 1037.96 691.957 1038.04 696.349 1037.34 699.352 1035.86 700.966 1016.95 701.617 1004.91 704.346 999.728 709.153 994.549 713.959 991.959 726.382 991.959 746.42L991.959 947.062C991.959 967.103 994.59 979.527 999.852 984.332 1005.11 989.137 1017.12 991.947 1035.86 992.763 1037.18 994.583 1037.88 997.721 1037.96 1002.18 1038.04 1006.64 1037.34 1009.59 1035.86 1011.05 1002.1 1010.32 980.317 1009.95 970.505 1009.95 959.692 1009.95 937.901 1010.32 905.134 1011.05 903.494 1009.59 902.675 1006.64 902.675 1002.18 902.675 997.721 903.488 994.583 905.114 992.763 923.823 992.112 935.74 989.343 940.864 984.455 945.988 979.568 948.55 967.103 948.55 947.062L948.55 746.42C948.55 726.382 945.988 713.959 940.864 709.153 935.74 704.346 923.823 701.617 905.114 700.966 903.488 699.533 902.675 696.575 902.675 692.093 902.675 687.61 903.494 684.474 905.134 682.682ZM537.459 682.682C571.041 683.4 592.664 683.76 602.329 683.76 613.212 683.76 635.144 683.4 668.125 682.682 669.438 684.474 670.136 687.565 670.218 691.957 670.3 696.349 669.602 699.352 668.125 700.966 649.242 701.617 637.214 704.344 632.042 709.147 626.87 713.949 624.284 726.362 624.284 746.386L624.284 826.481 796.934 826.481 796.934 746.386C796.934 726.362 794.331 713.949 789.126 709.147 783.921 704.344 771.965 701.617 753.259 700.966 751.956 699.533 751.305 696.575 751.305 692.093 751.305 687.61 751.819 684.474 752.847 682.682 786.647 683.4 808.494 683.76 818.388 683.76 829.202 683.76 850.992 683.4 883.76 682.682 885.399 684.474 886.218 687.565 886.218 691.957 886.218 696.349 885.405 699.352 883.779 700.966 865.07 701.617 853.154 704.346 848.029 709.153 842.905 713.959 840.343 726.382 840.343 746.42L840.343 947.062C840.343 967.103 842.905 979.527 848.029 984.332 853.154 989.137 865.07 991.947 883.779 992.763 885.405 994.583 886.218 997.721 886.218 1002.18 886.218 1006.64 885.399 1009.59 883.76 1011.05 850.178 1010.32 828.554 1009.95 818.889 1009.95 808.006 1009.95 785.992 1010.32 752.847 1011.05 751.819 1009.59 751.305 1006.64 751.305 1002.18 751.305 997.721 751.956 994.583 753.259 992.763 771.965 992.112 783.921 989.344 789.126 984.461 794.331 979.578 796.934 967.125 796.934 947.104L796.934 847.729 624.284 847.729 624.284 947.104C624.284 967.125 626.911 979.537 632.166 984.339 637.42 989.142 649.406 991.95 668.125 992.763 669.438 994.583 670.136 997.721 670.218 1002.18 670.3 1006.64 669.602 1009.59 668.125 1011.05 634.325 1010.32 612.56 1009.95 602.831 1009.95 592.017 1009.95 570.226 1010.32 537.459 1011.05 535.82 1009.59 535 1006.64 535 1002.18 535 997.721 535.813 994.583 537.439 992.763 556.148 992.112 568.065 989.343 573.189 984.455 578.313 979.568 580.876 967.103 580.876 947.062L580.876 746.42C580.876 726.382 578.313 713.959 573.189 709.153 568.065 704.346 556.148 701.617 537.439 700.966 535.813 699.533 535 696.575 535 692.093 535 687.61 535.82 684.474 537.459 682.682ZM1306.47 679.717C1340.54 682.353 1379.79 683.671 1424.22 683.671L1467.68 683.671C1512.44 683.671 1550.21 682.353 1580.98 679.717 1581.97 679.717 1582.46 680.195 1582.46 681.15 1582.79 702.645 1584.93 726.614 1588.88 753.057 1585.1 754.732 1579.42 755.57 1571.86 755.57 1567.76 736.09 1560.01 722.283 1548.61 714.152 1537.21 706.02 1521.58 701.954 1501.73 701.954L1490.66 701.954C1481.97 701.954 1475.94 706.233 1472.57 714.791 1469.21 723.348 1467.53 736.268 1467.53 753.551L1467.53 946.598C1467.53 966.841 1470.36 979.39 1476.02 984.245 1481.68 989.1 1495.09 991.94 1516.25 992.763 1517.89 994.583 1518.75 997.721 1518.83 1002.18 1518.91 1006.64 1518.05 1009.59 1516.25 1011.05 1482.48 1010.32 1459.09 1009.95 1446.07 1009.95 1431.89 1009.95 1408.21 1010.32 1375.04 1011.05 1374.05 1009.59 1373.56 1006.64 1373.56 1002.18 1373.56 997.721 1374.21 994.583 1375.51 992.763 1396.52 992.104 1409.87 989.306 1415.57 984.368 1421.27 979.431 1424.12 966.841 1424.12 946.598L1424.12 752.069C1424.12 735.61 1422.35 723.142 1418.82 714.667 1415.28 706.192 1409.07 701.954 1400.2 701.954L1375.53 701.954C1358.1 701.954 1343.8 706.107 1332.62 714.413 1321.43 722.718 1313.54 736.931 1308.94 757.052 1301.87 757.052 1296.11 756.229 1291.67 754.582 1298.41 725.591 1302.61 701.131 1304.25 681.2 1304.25 680.211 1304.99 679.717 1306.47 679.717ZM1766.46 677C1813.32 677 1852.13 692.02 1882.88 722.062 1913.63 752.104 1929 792.558 1929 843.425 1929 885.618 1918.56 921.548 1897.68 951.216 1883.54 971.489 1865.49 987.188 1843.54 998.313 1821.59 1009.44 1796.88 1015 1769.42 1015 1725.03 1015 1687.58 1000.16 1657.08 970.478 1626.58 940.797 1611.32 901.635 1611.32 852.991 1611.32 808.397 1622.83 770.302 1645.85 738.707 1660 719.291 1677.47 704.152 1698.27 693.291 1719.07 682.43 1741.8 677 1766.46 677ZM1171.64 677C1190.91 677 1207.5 679.263 1221.42 683.79 1235.33 688.318 1244.6 690.93 1249.21 691.628 1253.81 714.835 1256.85 736.559 1258.33 756.801 1255.87 758.606 1250.36 759.59 1241.81 759.755 1240.16 754.504 1238.56 749.788 1236.99 745.606 1235.43 741.423 1233.49 737.035 1231.19 732.441 1228.88 727.847 1226.37 723.828 1223.65 720.383 1220.94 716.938 1217.68 713.575 1213.9 710.293 1210.11 707.012 1205.99 704.305 1201.55 702.173 1197.1 700.04 1191.96 698.359 1186.11 697.129 1180.26 695.898 1173.88 695.283 1166.97 695.283 1152.36 695.283 1139.52 701.107 1128.44 712.754 1117.37 724.402 1111.83 737.361 1111.83 751.632 1111.83 759.508 1113.63 766.932 1117.24 773.904 1120.85 780.876 1125.12 786.7 1130.04 791.375 1134.96 796.05 1141.41 800.684 1149.36 805.277 1157.32 809.87 1164.01 813.273 1169.42 815.488 1174.84 817.702 1181.57 820.368 1189.61 823.485 1197.65 826.602 1202.73 828.571 1204.87 829.392 1214.71 833.656 1223.53 838.208 1231.31 843.048 1239.09 847.888 1246.45 853.794 1253.4 860.767 1260.34 867.739 1265.66 875.982 1269.34 885.495 1273.02 895.009 1274.86 905.508 1274.86 916.992 1274.86 932.956 1270.55 948.263 1261.94 962.909 1253.32 977.556 1241.72 989.407 1227.14 998.461 1209.24 1009.49 1188.28 1015 1164.26 1015 1147.69 1015 1130.31 1013.04 1112.12 1009.11 1093.94 1005.19 1079.89 1003.23 1069.98 1003.23 1065.09 982.035 1061.86 956.487 1060.28 926.585 1065.54 923.798 1071.05 923.306 1076.81 925.111 1087.7 972.848 1118.24 996.717 1168.44 996.717 1188.62 996.717 1204.17 991.426 1215.08 980.846 1226 970.265 1231.45 954.886 1231.45 934.708 1231.45 925.522 1230.01 917.115 1227.14 909.487 1224.27 901.858 1220.99 895.707 1217.3 891.031 1213.61 886.356 1208.36 881.845 1201.55 877.498 1194.73 873.151 1189.07 869.993 1184.56 868.024 1180.05 866.056 1173.65 863.472 1165.36 860.272 1157.08 857.073 1151.38 854.817 1148.29 853.505 1132.97 847.109 1120.15 840.425 1109.82 833.453 1099.5 826.481 1090.59 817.089 1083.1 805.277 1075.62 793.465 1071.87 780.177 1071.87 765.414 1071.87 739.181 1081.64 717.886 1101.16 701.531 1120.69 685.177 1144.18 677 1171.64 677Z" fill="#7F7F7F" fill-rule="evenodd"/><path d="M2450.18 682.962 2523.74 683.945 2628.1 939.481C2630.08 943.904 2631.41 946.115 2632.07 946.115 2633.07 946.115 2634.64 943.741 2636.79 938.991L2744.63 683.949 2810.98 682.962C2812.62 684.7 2813.48 687.774 2813.57 692.184 2813.65 696.594 2812.79 699.609 2810.98 701.228 2794.36 702.172 2784.16 704.767 2780.37 709.014 2776.58 713.26 2775.27 722.225 2776.43 735.91L2791.87 948.726C2792.47 956.939 2792.9 962.974 2793.18 966.833 2793.46 970.691 2794.22 974.488 2795.45 978.224 2796.69 981.96 2797.92 984.476 2799.15 985.772 2800.39 987.068 2802.61 988.326 2805.82 989.546 2809.03 990.766 2812.32 991.528 2815.69 991.833 2819.06 992.138 2823.95 992.443 2830.37 992.749 2832.02 994.567 2832.84 997.702 2832.84 1002.16 2832.84 1006.61 2832.02 1009.56 2830.37 1011.02 2808.16 1010.29 2789.5 1009.92 2774.38 1009.92 2769.7 1009.92 2751.3 1010.29 2719.18 1011.02 2717.53 1009.56 2716.71 1006.61 2716.71 1002.16 2716.71 997.702 2717.53 994.567 2719.18 992.749 2725.76 992.433 2730.45 992.156 2733.24 991.92 2736.04 991.683 2739.08 991.012 2742.38 989.907 2745.67 988.801 2747.76 987.615 2748.67 986.35 2749.57 985.085 2750.45 982.675 2751.29 979.121 2752.14 975.566 2752.47 971.893 2752.3 968.101 2752.12 964.31 2751.78 958.701 2751.26 951.276L2738.36 739.983 2737.12 741.024 2623.35 1007.58C2621.37 1011.35 2618.97 1013.15 2616.17 1012.99 2612.38 1012.99 2609.82 1011.19 2608.5 1007.58L2503.63 746.154 2502.64 745.112 2483.39 947.77C2482.11 963.002 2483.47 973.95 2487.49 980.613 2491.5 987.277 2501.32 991.322 2516.95 992.749 2518.26 994.567 2518.92 997.702 2518.92 1002.16 2518.92 1006.61 2518.26 1009.56 2516.95 1011.02 2496.71 1010.29 2480.97 1009.92 2469.72 1009.92 2461.1 1009.92 2446.68 1010.29 2426.44 1011.02 2425.13 1009.56 2424.47 1006.61 2424.47 1002.16 2424.47 997.702 2425.13 994.567 2426.44 992.749 2440.26 991.641 2449.64 987.92 2454.58 981.587 2459.51 975.254 2462.72 964.329 2464.2 948.811L2484.49 740.48C2486.14 722.558 2485.32 711.774 2482.03 708.126 2478.73 704.479 2468.12 702.18 2450.18 701.228 2448.54 699.796 2447.72 696.841 2447.72 692.363 2447.72 687.885 2448.54 684.752 2450.18 682.962ZM2275.17 682.962C2308.77 683.679 2330.4 684.038 2340.07 684.038 2351.05 684.038 2373.02 683.679 2405.96 682.962 2407.28 684.752 2407.98 687.841 2408.06 692.228 2408.14 696.616 2407.44 699.616 2405.96 701.228 2387.04 701.879 2374.99 704.605 2369.81 709.407 2364.63 714.209 2362.04 726.62 2362.04 746.64L2362.04 947.091C2362.04 967.114 2364.67 979.525 2369.93 984.325 2375.2 989.126 2387.21 991.934 2405.96 992.749 2407.28 994.567 2407.98 997.702 2408.06 1002.16 2408.14 1006.61 2407.44 1009.56 2405.96 1011.02 2372.19 1010.29 2350.39 1009.92 2340.57 1009.92 2329.75 1009.92 2307.95 1010.29 2275.17 1011.02 2273.53 1009.56 2272.71 1006.61 2272.71 1002.16 2272.71 997.702 2273.52 994.567 2275.15 992.749 2293.87 992.099 2305.79 989.332 2310.92 984.449 2316.04 979.566 2318.61 967.114 2318.61 947.091L2318.61 746.64C2318.61 726.62 2316.04 714.209 2310.92 709.407 2305.79 704.605 2293.87 701.879 2275.15 701.228 2273.52 699.796 2272.71 696.841 2272.71 692.363 2272.71 687.885 2273.53 684.752 2275.17 682.962ZM3063.01 681.975C3064.33 681.975 3064.98 682.468 3064.98 683.456 3067.62 694.857 3071.4 719.037 3076.34 755.997 3070.91 758.689 3065.31 759.529 3059.56 758.519 3053.17 737.815 3046.45 723.255 3039.4 714.839 3032.35 706.424 3020.14 702.216 3002.77 702.216L2949.68 702.216C2943.94 702.216 2939.52 704.36 2936.4 708.649 2933.29 712.938 2931.73 718.362 2931.73 724.921L2931.73 828.352 2977.51 828.352C2998.01 828.352 3010.61 826.296 3015.28 822.183 3019.96 818.07 3022.63 808.377 3023.28 793.104 3024.6 791.425 3027.31 790.585 3031.43 790.585 3035.54 790.585 3038.42 791.414 3040.06 793.073 3039.4 813.484 3039.07 828.17 3039.07 837.131 3039.07 843.214 3039.4 858.014 3040.06 881.531 3038.42 883.434 3035.58 884.385 3031.55 884.385 3027.52 884.385 3024.76 883.546 3023.28 881.867 3022.63 872.636 3021.64 866.006 3020.33 861.977 3019.01 857.948 3015 854.38 3008.27 851.276 3001.54 848.171 2991.29 846.619 2977.51 846.619L2931.73 846.619 2931.73 969.816C2931.73 984.446 2937.72 991.762 2949.69 991.762L3018.31 991.762C3050.29 991.762 3072.26 969.483 3084.23 924.925 3090.32 923.596 3096.24 924.428 3102 927.421 3097.89 953.82 3091.64 981.685 3083.25 1011.02 3056.3 1010.36 3034.78 1010.03 3018.69 1010.03L2910.27 1010.03C2883.06 1010.36 2861.17 1010.69 2844.62 1011.02 2843.3 1009.56 2842.65 1006.61 2842.65 1002.16 2842.65 997.702 2843.3 994.567 2844.6 992.749 2863.32 992.099 2875.28 989.332 2880.49 984.449 2885.7 979.566 2888.3 967.114 2888.3 947.091L2888.3 746.64C2888.3 726.62 2885.67 714.209 2880.4 709.407 2875.14 704.605 2863.05 701.879 2844.13 701.228 2842.81 699.788 2842.16 696.819 2842.16 692.319 2842.16 687.819 2842.81 684.7 2844.13 682.962L2909.52 683.949 3038.33 683.949C3047.05 683.949 3055.28 683.291 3063.01 681.975ZM1978.81 680C2012.89 682.633 2052.16 683.949 2096.62 683.949L2140.09 683.949C2184.88 683.949 2222.67 682.633 2253.46 680 2254.44 680 2254.94 680.477 2254.94 681.431 2255.27 702.906 2257.41 726.852 2261.35 753.27 2257.57 754.944 2251.89 755.781 2244.33 755.781 2240.22 736.319 2232.47 722.525 2221.06 714.401 2209.66 706.278 2194.02 702.216 2174.16 702.216L2163.09 702.216C2154.39 702.216 2148.36 706.491 2144.99 715.04 2141.63 723.589 2139.94 736.497 2139.94 753.763L2139.94 946.628C2139.94 966.851 2142.77 979.388 2148.44 984.239 2154.1 989.089 2167.52 991.926 2188.69 992.749 2190.33 994.567 2191.19 997.702 2191.27 1002.16 2191.35 1006.61 2190.49 1009.56 2188.69 1011.02 2154.9 1010.29 2131.5 1009.92 2118.48 1009.92 2104.28 1009.92 2080.59 1010.29 2047.41 1011.02 2046.42 1009.56 2045.93 1006.61 2045.93 1002.16 2045.93 997.702 2046.58 994.567 2047.88 992.749 2068.9 992.091 2082.26 989.295 2087.96 984.362 2093.66 979.429 2096.51 966.851 2096.51 946.628L2096.51 752.282C2096.51 735.839 2094.74 723.384 2091.21 714.917 2087.67 706.449 2081.46 702.216 2072.58 702.216L2047.9 702.216C2030.46 702.216 2016.15 706.365 2004.96 714.662 1993.78 722.959 1985.88 737.16 1981.27 757.262 1974.2 757.262 1968.44 756.439 1964 754.793 1970.75 725.83 1974.94 701.393 1976.59 681.481 1976.59 680.493 1977.33 680 1978.81 680Z" fill-rule="evenodd"/><path d="M243.831 1077.59 243.831 1134 185.169 1134 185.169 1077.95 194.98 1078.68ZM357.079 1031.86 385.152 1080.41 334.348 1109.69 306.097 1060.84 348.948 1037.4ZM72.1903 1031.5 96.8506 1047.42 122.993 1060.78 94.6082 1109.86 43.8052 1080.58ZM-2.71252 935.44 20.7686 978.216 26.3104 986.334-22.3146 1014.36-51.6461 963.643ZM431.658 935.347 480.823 963.684 451.492 1014.4 402.326 986.064 418.275 961.445ZM448.497 814.72 505 814.72 505 873.28 448.855 873.28 449.588 863.486ZM-76 814.719-19.8543 814.719-20.5879 824.514-19.4976 873.281-76 873.281ZM451.315 673.643 480.646 724.359 431.712 752.561 408.232 709.784 402.69 701.668ZM-22.4909 673.598 26.6747 701.935 10.7258 726.554-2.65759 752.652-51.8221 724.315ZM94.6512 578.313 122.903 627.163 80.0514 650.603 71.9211 656.135 43.8479 607.594ZM334.392 578.137 385.195 607.418 356.81 656.498 332.148 640.577 306.007 627.217ZM185.169 554 243.831 554 243.831 610.051 234.019 609.319 185.169 610.407Z" fill-rule="evenodd"/></g></svg>