<svg width="2634" height="580" xmlns="http://www.w3.org/2000/svg" xmlns:xlink="http://www.w3.org/1999/xlink" xml:space="preserve" overflow="hidden"><g transform="translate(76 -554)"><path d="M1269.24 682.679C1302.81 683.396 1324.42 683.755 1334.08 683.755 1345.05 683.755 1366.99 683.396 1399.9 682.679 1401.21 684.469 1401.91 687.558 1401.99 691.947 1402.08 696.336 1401.38 699.337 1399.9 700.95 1381 701.6 1368.96 704.327 1363.79 709.13 1358.61 713.933 1356.02 726.348 1356.02 746.372L1356.02 946.874C1356.02 966.902 1358.65 979.317 1363.91 984.119 1369.17 988.92 1381.16 991.729 1399.9 992.544 1401.21 994.363 1401.91 997.499 1401.99 1001.95 1402.08 1006.41 1401.38 1009.36 1399.9 1010.82 1366.16 1010.09 1344.38 1009.72 1334.58 1009.72 1323.77 1009.72 1301.99 1010.09 1269.24 1010.82 1267.6 1009.36 1266.79 1006.41 1266.79 1001.95 1266.79 997.499 1267.6 994.363 1269.22 992.544 1287.92 991.894 1299.83 989.126 1304.95 984.242 1310.08 979.358 1312.64 966.902 1312.64 946.874L1312.64 746.372C1312.64 726.348 1310.08 713.933 1304.95 709.13 1299.83 704.327 1287.92 701.6 1269.22 700.95 1267.6 699.517 1266.79 696.561 1266.79 692.083 1266.79 687.603 1267.6 684.469 1269.24 682.679ZM874.299 682.679C907.862 683.396 929.473 683.755 939.133 683.755 950.106 683.755 972.046 683.396 1004.95 682.679 1006.27 684.469 1006.97 687.558 1007.05 691.947 1007.13 696.336 1006.43 699.337 1004.95 700.95 986.056 701.6 974.018 704.327 968.841 709.13 963.665 713.933 961.076 726.348 961.076 746.372L961.076 946.874C961.076 966.902 963.706 979.317 968.964 984.119 974.223 988.92 986.22 991.729 1004.95 992.544 1006.27 994.363 1006.97 997.499 1007.05 1001.95 1007.13 1006.41 1006.43 1009.36 1004.95 1010.82 971.214 1010.09 949.44 1009.72 939.634 1009.72 928.827 1009.72 907.048 1010.09 874.299 1010.82 872.661 1009.36 871.841 1006.41 871.841 1001.95 871.841 997.499 872.654 994.363 874.279 992.544 892.978 991.894 904.888 989.126 910.009 984.242 915.13 979.358 917.692 966.902 917.692 946.874L917.692 746.372C917.692 726.348 915.131 713.933 910.009 709.13 904.888 704.327 892.978 701.6 874.279 700.95 872.654 699.517 871.841 696.561 871.841 692.083 871.841 687.603 872.661 684.469 874.299 682.679ZM536.972 682.679C568.689 683.396 586.191 683.755 589.478 683.755 598.516 683.755 618.894 683.396 650.611 682.679 651.925 684.469 652.583 687.558 652.583 691.947 652.583 696.336 651.925 699.337 650.611 700.95 633.684 702.753 623.66 706.152 620.537 711.148 617.415 716.144 618.894 726.097 624.974 741.006L705.335 945.96 707.8 945.96 787.421 744.201C793.83 730.438 795.35 720.117 791.981 713.237 788.612 706.357 778.218 702.261 760.799 700.95 759.484 699.517 758.785 696.561 758.703 692.083 758.621 687.603 759.32 684.469 760.799 682.679 792.515 683.396 810.839 683.755 815.769 683.755 818.399 683.755 833.189 683.396 860.14 682.679 861.783 684.469 862.605 687.558 862.605 691.947 862.605 696.336 861.783 699.337 860.14 700.95 853.731 701.768 848.02 703.283 843.008 705.494 837.996 707.706 834.051 709.836 831.176 711.885 828.3 713.933 825.383 717.456 822.425 722.453 819.467 727.451 817.454 731.178 816.385 733.636 815.317 736.093 813.386 740.762 810.593 747.642L706.074 1004.2C703.116 1011.9 699.09 1015.84 693.996 1016 689.23 1016 685.368 1012.07 682.41 1004.2L582.822 746.658C575.098 726.998 569.059 714.752 564.704 709.919 560.349 705.086 551.269 702.097 537.465 700.95 535.822 699.16 535 696.115 535 691.814 535 687.514 535.658 684.469 536.972 682.679ZM1140.66 677C1159.91 677 1176.5 679.262 1190.41 683.786 1204.31 688.31 1213.57 690.92 1218.18 691.617 1222.78 714.808 1225.82 736.518 1227.3 756.746 1224.84 758.549 1219.33 759.533 1210.79 759.698 1209.14 754.451 1207.54 749.738 1205.97 745.558 1204.41 741.379 1202.48 736.994 1200.17 732.403 1197.87 727.812 1195.36 723.795 1192.64 720.353 1189.93 716.91 1186.67 713.549 1182.89 710.27 1179.1 706.991 1174.99 704.286 1170.55 702.155 1166.1 700.024 1160.96 698.344 1155.12 697.115 1149.27 695.886 1142.9 695.271 1135.98 695.271 1121.39 695.271 1108.56 701.09 1097.49 712.73 1086.41 724.369 1080.88 737.319 1080.88 751.581 1080.88 759.451 1082.68 766.869 1086.29 773.837 1089.9 780.804 1094.16 786.623 1099.08 791.296 1104 795.967 1110.44 800.598 1118.39 805.188 1126.35 809.777 1133.03 813.179 1138.44 815.392 1143.85 817.605 1150.58 820.269 1158.61 823.384 1166.65 826.498 1171.73 828.466 1173.87 829.286 1183.71 833.548 1192.51 838.097 1200.29 842.933 1208.07 847.77 1215.43 853.672 1222.37 860.639 1229.31 867.607 1234.62 875.844 1238.3 885.351 1241.98 894.858 1243.82 905.35 1243.82 916.825 1243.82 932.779 1239.51 948.075 1230.9 962.711 1222.29 977.348 1210.7 989.19 1196.12 998.238 1178.24 1009.26 1157.29 1014.77 1133.28 1014.77 1116.72 1014.77 1099.35 1012.81 1081.17 1008.88 1063 1004.96 1048.96 1003 1039.05 1003 1034.17 981.823 1030.94 956.293 1029.36 926.412 1034.62 923.627 1040.12 923.136 1045.88 924.939 1056.76 972.643 1087.29 996.495 1137.46 996.495 1157.63 996.495 1173.17 991.208 1184.08 980.635 1194.98 970.062 1200.43 954.693 1200.43 934.529 1200.43 925.35 1199 916.949 1196.13 909.326 1193.26 901.703 1189.98 895.555 1186.29 890.883 1182.6 886.211 1177.35 881.703 1170.55 877.359 1163.74 873.015 1158.08 869.86 1153.57 867.892 1149.06 865.925 1142.67 863.343 1134.38 860.145 1126.1 856.948 1120.41 854.694 1117.32 853.383 1102.01 846.991 1089.19 840.312 1078.87 833.345 1068.55 826.378 1059.65 816.992 1052.17 805.188 1044.69 793.384 1040.95 780.106 1040.95 765.353 1040.95 739.138 1050.7 717.858 1070.22 701.515 1089.74 685.172 1113.22 677 1140.66 677Z" fill="#7F7F7F" fill-rule="evenodd"/><path d="M1906.18 682.962 1979.74 683.945 2084.1 939.481C2086.08 943.904 2087.41 946.115 2088.07 946.115 2089.07 946.115 2090.64 943.741 2092.79 938.991L2200.63 683.949 2266.98 682.962C2268.62 684.7 2269.48 687.774 2269.57 692.184 2269.65 696.593 2268.79 699.609 2266.98 701.228 2250.36 702.172 2240.16 704.767 2236.37 709.014 2232.58 713.26 2231.27 722.225 2232.43 735.91L2247.87 948.726C2248.47 956.939 2248.9 962.974 2249.18 966.833 2249.46 970.691 2250.22 974.488 2251.45 978.224 2252.69 981.96 2253.92 984.476 2255.15 985.772 2256.39 987.068 2258.61 988.326 2261.82 989.546 2265.02 990.766 2268.32 991.528 2271.69 991.833 2275.06 992.138 2279.95 992.443 2286.37 992.749 2288.02 994.567 2288.84 997.702 2288.84 1002.16 2288.84 1006.61 2288.02 1009.56 2286.37 1011.02 2264.16 1010.29 2245.5 1009.92 2230.38 1009.92 2225.7 1009.92 2207.3 1010.29 2175.18 1011.02 2173.53 1009.56 2172.71 1006.61 2172.71 1002.16 2172.71 997.702 2173.53 994.567 2175.18 992.749 2181.76 992.433 2186.45 992.156 2189.24 991.92 2192.04 991.683 2195.08 991.012 2198.38 989.907 2201.67 988.801 2203.76 987.615 2204.67 986.35 2205.57 985.085 2206.45 982.675 2207.29 979.121 2208.14 975.566 2208.47 971.893 2208.3 968.101 2208.12 964.31 2207.78 958.701 2207.26 951.276L2194.36 739.983 2193.12 741.024 2079.35 1007.58C2077.37 1011.35 2074.97 1013.15 2072.17 1012.99 2068.38 1012.99 2065.82 1011.19 2064.5 1007.58L1959.63 746.154 1958.64 745.112 1939.39 947.77C1938.11 963.002 1939.47 973.95 1943.48 980.613 1947.5 987.277 1957.32 991.322 1972.95 992.749 1974.26 994.567 1974.92 997.702 1974.92 1002.16 1974.92 1006.61 1974.26 1009.56 1972.95 1011.02 1952.71 1010.29 1936.97 1009.92 1925.72 1009.92 1917.1 1009.92 1902.68 1010.29 1882.44 1011.02 1881.13 1009.56 1880.47 1006.61 1880.47 1002.16 1880.47 997.702 1881.13 994.567 1882.44 992.749 1896.26 991.641 1905.64 987.92 1910.58 981.587 1915.51 975.254 1918.72 964.329 1920.2 948.811L1940.49 740.48C1942.14 722.558 1941.32 711.774 1938.03 708.126 1934.73 704.479 1924.12 702.18 1906.18 701.228 1904.54 699.796 1903.72 696.841 1903.72 692.363 1903.72 687.885 1904.54 684.752 1906.18 682.962ZM1731.17 682.962C1764.77 683.679 1786.4 684.038 1796.07 684.038 1807.05 684.038 1829.02 683.679 1861.96 682.962 1863.28 684.752 1863.98 687.841 1864.06 692.228 1864.14 696.616 1863.44 699.616 1861.96 701.228 1843.04 701.879 1830.99 704.605 1825.81 709.407 1820.63 714.209 1818.04 726.62 1818.04 746.64L1818.04 947.091C1818.04 967.114 1820.67 979.525 1825.93 984.325 1831.2 989.126 1843.21 991.934 1861.96 992.749 1863.28 994.567 1863.98 997.702 1864.06 1002.16 1864.14 1006.61 1863.44 1009.56 1861.96 1011.02 1828.19 1010.29 1806.39 1009.92 1796.57 1009.92 1785.75 1009.92 1763.95 1010.29 1731.17 1011.02 1729.53 1009.56 1728.71 1006.61 1728.71 1002.16 1728.71 997.702 1729.52 994.567 1731.15 992.749 1749.87 992.099 1761.79 989.332 1766.92 984.449 1772.04 979.566 1774.61 967.114 1774.61 947.091L1774.61 746.64C1774.61 726.62 1772.04 714.209 1766.92 709.407 1761.79 704.605 1749.87 701.879 1731.15 701.228 1729.52 699.796 1728.71 696.841 1728.71 692.363 1728.71 687.885 1729.53 684.752 1731.17 682.962ZM2519.01 681.975C2520.33 681.975 2520.98 682.468 2520.98 683.456 2523.62 694.857 2527.4 719.037 2532.34 755.997 2526.91 758.689 2521.31 759.529 2515.56 758.519 2509.17 737.815 2502.45 723.255 2495.4 714.839 2488.35 706.424 2476.14 702.216 2458.77 702.216L2405.68 702.216C2399.94 702.216 2395.52 704.36 2392.4 708.649 2389.29 712.938 2387.73 718.362 2387.73 724.921L2387.73 828.352 2433.51 828.352C2454.01 828.352 2466.61 826.296 2471.28 822.183 2475.96 818.07 2478.63 808.377 2479.28 793.104 2480.6 791.425 2483.31 790.585 2487.42 790.585 2491.54 790.585 2494.42 791.414 2496.06 793.073 2495.4 813.484 2495.07 828.17 2495.07 837.131 2495.07 843.214 2495.4 858.014 2496.06 881.531 2494.42 883.434 2491.58 884.385 2487.55 884.385 2483.52 884.385 2480.76 883.546 2479.28 881.867 2478.63 872.636 2477.64 866.006 2476.33 861.977 2475.01 857.948 2470.99 854.38 2464.27 851.276 2457.54 848.171 2447.29 846.619 2433.51 846.619L2387.73 846.619 2387.73 969.816C2387.73 984.446 2393.72 991.762 2405.69 991.762L2474.31 991.762C2506.29 991.762 2528.26 969.483 2540.23 924.925 2546.32 923.596 2552.24 924.428 2558 927.421 2553.89 953.82 2547.64 981.685 2539.25 1011.02 2512.3 1010.36 2490.78 1010.03 2474.69 1010.03L2366.27 1010.03C2339.06 1010.36 2317.17 1010.69 2300.62 1011.02 2299.3 1009.56 2298.65 1006.61 2298.65 1002.16 2298.65 997.702 2299.3 994.567 2300.6 992.749 2319.32 992.099 2331.28 989.332 2336.49 984.449 2341.7 979.566 2344.3 967.114 2344.3 947.091L2344.3 746.64C2344.3 726.62 2341.67 714.209 2336.4 709.407 2331.14 704.605 2319.05 701.879 2300.13 701.228 2298.81 699.788 2298.16 696.819 2298.16 692.319 2298.16 687.819 2298.81 684.7 2300.13 682.962L2365.52 683.949 2494.33 683.949C2503.05 683.949 2511.28 683.291 2519.01 681.975ZM1434.81 680C1468.89 682.633 1508.16 683.949 1552.62 683.949L1596.09 683.949C1640.88 683.949 1678.67 682.633 1709.46 680 1710.44 680 1710.94 680.477 1710.94 681.431 1711.27 702.906 1713.41 726.852 1717.35 753.27 1713.57 754.943 1707.89 755.78 1700.33 755.78 1696.22 736.318 1688.47 722.525 1677.06 714.401 1665.66 706.277 1650.02 702.216 1630.16 702.216L1619.09 702.216C1610.39 702.216 1604.36 706.491 1600.99 715.04 1597.63 723.589 1595.94 736.497 1595.94 753.763L1595.94 946.628C1595.94 966.851 1598.78 979.388 1604.44 984.239 1610.1 989.089 1623.52 991.926 1644.69 992.749 1646.33 994.567 1647.19 997.702 1647.27 1002.16 1647.35 1006.61 1646.49 1009.56 1644.69 1011.02 1610.9 1010.29 1587.5 1009.92 1574.48 1009.92 1560.28 1009.92 1536.59 1010.29 1503.41 1011.02 1502.42 1009.56 1501.93 1006.61 1501.93 1002.16 1501.93 997.702 1502.58 994.567 1503.88 992.749 1524.9 992.091 1538.26 989.295 1543.96 984.362 1549.66 979.429 1552.51 966.851 1552.51 946.628L1552.51 752.282C1552.51 735.839 1550.74 723.384 1547.21 714.916 1543.67 706.449 1537.46 702.216 1528.58 702.216L1503.9 702.216C1486.46 702.216 1472.15 706.365 1460.96 714.662 1449.78 722.959 1441.88 737.159 1437.27 757.261 1430.2 757.261 1424.44 756.439 1420 754.793 1426.74 725.83 1430.94 701.393 1432.59 681.481 1432.59 680.493 1433.33 680 1434.81 680Z" fill-rule="evenodd"/><path d="M243.831 1077.59 243.831 1134 185.169 1134 185.169 1077.95 194.98 1078.68ZM357.079 1031.86 385.152 1080.41 334.348 1109.69 306.097 1060.84 348.948 1037.4ZM72.1903 1031.5 96.8506 1047.42 122.993 1060.78 94.6082 1109.86 43.8052 1080.58ZM-2.71252 935.44 20.7686 978.216 26.3104 986.334-22.3146 1014.36-51.6461 963.643ZM431.658 935.347 480.823 963.684 451.492 1014.4 402.326 986.064 418.275 961.445ZM448.497 814.72 505 814.72 505 873.28 448.855 873.28 449.588 863.486ZM-76 814.719-19.8543 814.719-20.5879 824.514-19.4976 873.281-76 873.281ZM451.315 673.643 480.646 724.359 431.712 752.561 408.232 709.784 402.69 701.668ZM-22.4909 673.598 26.6747 701.935 10.7258 726.554-2.65759 752.652-51.8221 724.315ZM94.6512 578.313 122.903 627.163 80.0514 650.603 71.9211 656.135 43.8479 607.594ZM334.392 578.137 385.195 607.418 356.81 656.498 332.148 640.577 306.007 627.217ZM185.169 554 243.831 554 243.831 610.051 234.019 609.319 185.169 610.407Z" fill-rule="evenodd"/></g></svg>