<svg width="783" height="179" xmlns="http://www.w3.org/2000/svg" xmlns:xlink="http://www.w3.org/1999/xlink" xml:space="preserve" overflow="hidden"><defs><clipPath id="clip0"><rect x="3273" y="1303" width="783" height="179"/></clipPath></defs><g clip-path="url(#clip0)" transform="translate(-3273 -1303)"><path d="M3372.06 1464.68 3372.06 1482 3353.81 1482 3353.81 1464.79 3356.87 1465.01ZM3406.87 1450.53 3415.51 1465.48 3399.87 1474.49 3391.18 1459.45 3404.37 1452.23ZM3318.9 1450.53 3326.57 1455.46 3334.7 1459.59 3325.87 1474.78 3310.08 1465.72ZM3430.11 1420.79 3445.34 1429.49 3436.25 1445.05 3421.01 1436.35 3425.96 1428.8ZM3295.62 1420.79 3302.86 1433.94 3304.57 1436.43 3289.58 1445.05 3280.53 1429.46ZM3435.21 1383.55 3452.59 1383.55 3452.59 1401.74 3435.32 1401.74 3435.54 1398.7ZM3273 1383.55 3290.56 1383.55 3290.33 1386.59 3290.67 1401.74 3273 1401.74ZM3679.17 1345.55C3688.99 1345.76 3695.31 1345.86 3698.13 1345.86 3701.34 1345.86 3707.76 1345.76 3717.39 1345.55 3717.77 1346.07 3717.97 1346.97 3718 1348.25 3718.02 1349.53 3717.82 1350.4 3717.39 1350.87 3711.86 1351.06 3708.34 1351.85 3706.82 1353.25 3705.31 1354.65 3704.55 1358.26 3704.55 1364.09L3704.55 1422.45C3704.55 1428.28 3705.32 1431.89 3706.86 1433.29 3708.4 1434.69 3711.91 1435.5 3717.39 1435.74 3717.77 1436.27 3717.97 1437.18 3718 1438.48 3718.02 1439.78 3717.82 1440.64 3717.39 1441.06 3707.52 1440.85 3701.15 1440.74 3698.28 1440.74 3695.12 1440.74 3688.75 1440.85 3679.17 1441.06 3678.69 1440.64 3678.45 1439.78 3678.45 1438.48 3678.45 1437.18 3678.69 1436.27 3679.16 1435.74 3684.63 1435.55 3688.12 1434.75 3689.61 1433.32 3691.11 1431.9 3691.86 1428.28 3691.86 1422.45L3691.86 1364.09C3691.86 1358.26 3691.11 1354.65 3689.61 1353.25 3688.12 1351.85 3684.63 1351.06 3679.16 1350.87 3678.69 1350.45 3678.45 1349.59 3678.45 1348.29 3678.45 1346.98 3678.69 1346.07 3679.17 1345.55ZM3562.41 1345.55C3572.23 1345.76 3578.55 1345.86 3581.38 1345.86 3584.59 1345.86 3591 1345.76 3600.63 1345.55 3601.01 1346.07 3601.22 1346.97 3601.24 1348.25 3601.27 1349.53 3601.06 1350.4 3600.63 1350.87 3595.1 1351.06 3591.58 1351.85 3590.07 1353.25 3588.55 1354.65 3587.8 1358.26 3587.8 1364.09L3587.8 1422.45C3587.8 1428.28 3588.56 1431.89 3590.1 1433.29 3591.64 1434.69 3595.15 1435.5 3600.63 1435.74 3601.01 1436.27 3601.22 1437.18 3601.24 1438.48 3601.27 1439.78 3601.06 1440.64 3600.63 1441.06 3590.76 1440.85 3584.39 1440.74 3581.52 1440.74 3578.36 1440.74 3571.99 1440.85 3562.41 1441.06 3561.93 1440.64 3561.7 1439.78 3561.7 1438.48 3561.7 1437.18 3561.93 1436.27 3562.41 1435.74 3567.88 1435.55 3571.36 1434.75 3572.86 1433.32 3574.36 1431.9 3575.11 1428.28 3575.11 1422.45L3575.11 1364.09C3575.11 1358.26 3574.36 1354.65 3572.86 1353.25 3571.36 1351.85 3567.88 1351.06 3562.41 1350.87 3561.93 1350.45 3561.7 1349.59 3561.7 1348.29 3561.7 1346.98 3561.93 1346.07 3562.41 1345.55ZM3464.03 1345.55C3473.31 1345.76 3478.43 1345.86 3479.39 1345.86 3482.03 1345.86 3487.99 1345.76 3497.27 1345.55 3497.65 1346.07 3497.84 1346.97 3497.84 1348.25 3497.84 1349.53 3497.65 1350.4 3497.27 1350.87 3492.32 1351.39 3489.38 1352.38 3488.47 1353.84 3487.56 1355.29 3487.99 1358.19 3489.77 1362.53L3513.27 1422.18 3513.99 1422.18 3537.28 1363.46C3539.16 1359.45 3539.6 1356.45 3538.62 1354.45 3537.63 1352.44 3534.59 1351.25 3529.5 1350.87 3529.11 1350.45 3528.91 1349.59 3528.88 1348.29 3528.86 1346.98 3529.06 1346.07 3529.5 1345.55 3538.77 1345.76 3544.13 1345.86 3545.57 1345.86 3546.34 1345.86 3550.67 1345.76 3558.55 1345.55 3559.03 1346.07 3559.27 1346.97 3559.27 1348.25 3559.27 1349.53 3559.03 1350.4 3558.55 1350.87 3556.68 1351.11 3555.01 1351.55 3553.54 1352.19 3552.08 1352.84 3550.92 1353.46 3550.08 1354.05 3549.24 1354.65 3548.39 1355.67 3547.52 1357.13 3546.66 1358.58 3546.07 1359.67 3545.76 1360.38 3545.44 1361.1 3544.88 1362.46 3544.06 1364.46L3513.49 1439.13C3512.63 1441.38 3511.45 1442.52 3509.96 1442.57 3508.56 1442.57 3507.43 1441.42 3506.57 1439.13L3477.44 1364.17C3475.18 1358.45 3473.41 1354.89 3472.14 1353.48 3470.87 1352.07 3468.21 1351.2 3464.17 1350.87 3463.69 1350.35 3463.45 1349.46 3463.45 1348.21 3463.45 1346.96 3463.64 1346.07 3464.03 1345.55ZM3640.77 1343.9C3646.4 1343.9 3651.25 1344.56 3655.32 1345.87 3659.38 1347.19 3662.09 1347.95 3663.44 1348.15 3664.79 1354.9 3665.68 1361.22 3666.11 1367.11 3665.39 1367.63 3663.78 1367.92 3661.28 1367.97 3660.8 1366.44 3660.33 1365.07 3659.87 1363.85 3659.41 1362.64 3658.85 1361.36 3658.17 1360.02 3657.5 1358.69 3656.76 1357.52 3655.97 1356.52 3655.18 1355.51 3654.23 1354.54 3653.12 1353.58 3652.01 1352.63 3650.81 1351.84 3649.51 1351.22 3648.21 1350.6 3646.7 1350.11 3644.99 1349.75 3643.29 1349.4 3641.42 1349.22 3639.4 1349.22 3635.13 1349.22 3631.38 1350.91 3628.14 1354.3 3624.9 1357.69 3623.28 1361.45 3623.28 1365.61 3623.28 1367.9 3623.81 1370.06 3624.86 1372.08 3625.92 1374.11 3627.17 1375.81 3628.6 1377.17 3630.04 1378.53 3631.93 1379.87 3634.25 1381.21 3636.58 1382.54 3638.53 1383.53 3640.12 1384.18 3641.7 1384.82 3643.67 1385.6 3646.02 1386.5 3648.37 1387.41 3649.85 1387.98 3650.48 1388.22 3653.36 1389.46 3655.93 1390.79 3658.21 1392.2 3660.48 1393.6 3662.64 1395.32 3664.67 1397.35 3666.7 1399.38 3668.25 1401.77 3669.32 1404.54 3670.4 1407.31 3670.94 1410.36 3670.94 1413.7 3670.94 1418.35 3669.68 1422.8 3667.16 1427.06 3664.64 1431.32 3661.25 1434.77 3656.99 1437.4 3651.76 1440.61 3645.63 1442.21 3638.61 1442.21 3633.76 1442.21 3628.68 1441.64 3623.37 1440.5 3618.05 1439.36 3613.94 1438.79 3611.05 1438.79 3609.62 1432.62 3608.67 1425.19 3608.21 1416.49 3609.75 1415.68 3611.36 1415.54 3613.04 1416.06 3616.23 1429.95 3625.16 1436.89 3639.83 1436.89 3645.73 1436.89 3650.28 1435.35 3653.47 1432.27 3656.65 1429.2 3658.25 1424.72 3658.25 1418.86 3658.25 1416.18 3657.83 1413.74 3656.99 1411.52 3656.15 1409.3 3655.19 1407.51 3654.11 1406.15 3653.03 1404.79 3651.5 1403.48 3649.51 1402.22 3647.52 1400.95 3645.86 1400.03 3644.54 1399.46 3643.22 1398.89 3641.35 1398.14 3638.93 1397.21 3636.51 1396.27 3634.84 1395.62 3633.94 1395.24 3629.46 1393.38 3625.71 1391.43 3622.69 1389.4 3619.68 1387.38 3617.07 1384.64 3614.88 1381.21 3612.69 1377.77 3611.6 1373.91 3611.6 1369.61 3611.6 1361.98 3614.45 1355.79 3620.16 1351.03 3625.87 1346.28 3632.74 1343.9 3640.77 1343.9ZM3436.01 1339.95 3445.06 1355.54 3429.96 1364.21 3422.72 1351.06 3421.01 1348.57ZM3289.62 1339.95 3304.86 1348.75 3299.92 1356.39 3295.77 1364.49 3280.53 1355.7ZM3400 1310.51 3415.8 1319.57 3406.97 1334.76 3399.31 1329.83 3391.18 1325.7ZM3325.9 1310.51 3334.7 1325.55 3321.35 1332.77 3318.82 1334.47 3310.08 1319.52ZM3353.81 1303 3372.06 1303 3372.06 1320.5 3369.01 1320.27 3353.81 1320.61Z" fill="#7F7F7F" fill-rule="evenodd"/><path d="M3372.21 1464.68 3372.21 1482 3353.94 1482 3353.94 1464.79 3356.99 1465.01ZM3407.07 1450.53 3415.73 1465.48 3400.07 1474.49 3391.36 1459.45 3404.57 1452.23ZM3318.97 1450.53 3326.65 1455.46 3334.79 1459.59 3325.95 1474.78 3310.13 1465.72ZM3430.34 1420.79 3445.61 1429.49 3436.5 1445.05 3421.24 1436.35 3426.19 1428.8ZM3295.66 1420.79 3302.91 1433.94 3304.62 1436.43 3289.6 1445.05 3280.54 1429.46ZM3435.45 1383.55 3452.86 1383.55 3452.86 1401.74 3435.56 1401.74 3435.79 1398.7ZM3273 1383.55 3290.59 1383.55 3290.35 1386.59 3290.7 1401.74 3273 1401.74ZM3865.19 1345.55 3886.72 1345.84 3917.25 1420.23C3917.84 1421.52 3918.22 1422.16 3918.42 1422.16 3918.71 1422.16 3919.17 1421.47 3919.8 1420.09L3951.35 1345.84 3970.77 1345.55C3971.25 1346.06 3971.5 1346.95 3971.53 1348.24 3971.55 1349.52 3971.3 1350.4 3970.77 1350.87 3965.91 1351.14 3962.92 1351.9 3961.81 1353.14 3960.71 1354.37 3960.32 1356.98 3960.66 1360.97L3965.18 1422.92C3965.35 1425.32 3965.48 1427.07 3965.56 1428.2 3965.64 1429.32 3965.87 1430.42 3966.23 1431.51 3966.59 1432.6 3966.95 1433.33 3967.31 1433.71 3967.67 1434.09 3968.32 1434.45 3969.26 1434.81 3970.2 1435.16 3971.16 1435.39 3972.15 1435.47 3973.14 1435.56 3974.57 1435.65 3976.44 1435.74 3976.93 1436.27 3977.17 1437.18 3977.17 1438.48 3977.17 1439.78 3976.93 1440.64 3976.44 1441.06 3969.95 1440.85 3964.48 1440.74 3960.06 1440.74 3958.69 1440.74 3953.31 1440.85 3943.91 1441.06 3943.43 1440.64 3943.19 1439.78 3943.19 1438.48 3943.19 1437.18 3943.43 1436.27 3943.91 1435.74 3945.83 1435.65 3947.21 1435.57 3948.02 1435.5 3948.84 1435.43 3949.73 1435.24 3950.7 1434.91 3951.66 1434.59 3952.27 1434.25 3952.54 1433.88 3952.8 1433.51 3953.06 1432.81 3953.3 1431.77 3953.55 1430.74 3953.65 1429.67 3953.6 1428.57 3953.55 1427.46 3953.45 1425.83 3953.29 1423.67L3949.52 1362.15 3949.16 1362.46 3915.86 1440.06C3915.29 1441.16 3914.59 1441.68 3913.76 1441.63 3912.66 1441.63 3911.91 1441.11 3911.52 1440.06L3880.83 1363.95 3880.54 1363.65 3874.91 1422.65C3874.53 1427.08 3874.93 1430.27 3876.11 1432.21 3877.28 1434.15 3880.16 1435.33 3884.73 1435.74 3885.12 1436.27 3885.31 1437.18 3885.31 1438.48 3885.31 1439.78 3885.12 1440.64 3884.73 1441.06 3878.81 1440.85 3874.2 1440.74 3870.91 1440.74 3868.39 1440.74 3864.17 1440.85 3858.25 1441.06 3857.86 1440.64 3857.67 1439.78 3857.67 1438.48 3857.67 1437.18 3857.86 1436.27 3858.25 1435.74 3862.29 1435.42 3865.03 1434.34 3866.48 1432.49 3867.92 1430.65 3868.86 1427.47 3869.3 1422.95L3875.23 1362.3C3875.72 1357.08 3875.48 1353.94 3874.51 1352.88 3873.55 1351.82 3870.44 1351.15 3865.19 1350.87 3864.71 1350.45 3864.47 1349.59 3864.47 1348.29 3864.47 1346.98 3864.71 1346.07 3865.19 1345.55ZM3813.54 1345.55C3823.37 1345.76 3829.7 1345.86 3832.53 1345.86 3835.74 1345.86 3842.17 1345.76 3851.81 1345.55 3852.19 1346.07 3852.4 1346.97 3852.42 1348.25 3852.45 1349.53 3852.24 1350.4 3851.81 1350.87 3846.27 1351.06 3842.75 1351.85 3841.23 1353.25 3839.71 1354.65 3838.96 1358.26 3838.96 1364.09L3838.96 1422.45C3838.96 1428.28 3839.73 1431.89 3841.27 1433.29 3842.81 1434.69 3846.32 1435.5 3851.81 1435.74 3852.19 1436.27 3852.4 1437.18 3852.42 1438.48 3852.45 1439.78 3852.24 1440.64 3851.81 1441.06 3841.93 1440.85 3835.55 1440.74 3832.67 1440.74 3829.51 1440.74 3823.13 1440.85 3813.54 1441.06 3813.06 1440.64 3812.82 1439.78 3812.82 1438.48 3812.82 1437.18 3813.05 1436.27 3813.53 1435.74 3819.01 1435.55 3822.5 1434.75 3824 1433.32 3825.5 1431.9 3826.25 1428.28 3826.25 1422.45L3826.25 1364.09C3826.25 1358.26 3825.5 1354.65 3824 1353.25 3822.5 1351.85 3819.01 1351.06 3813.53 1350.87 3813.05 1350.45 3812.82 1349.59 3812.82 1348.29 3812.82 1346.98 3813.06 1346.07 3813.54 1345.55ZM4044.59 1345.26C4044.98 1345.26 4045.17 1345.41 4045.17 1345.69 4045.94 1349.01 4047.05 1356.05 4048.49 1366.81 4046.9 1367.6 4045.26 1367.84 4043.58 1367.55 4041.71 1361.52 4039.74 1357.28 4037.68 1354.83 4035.62 1352.38 4032.05 1351.16 4026.96 1351.16L4011.43 1351.16C4009.75 1351.16 4008.45 1351.78 4007.54 1353.03 4006.63 1354.28 4006.18 1355.86 4006.18 1357.77L4006.18 1387.88 4019.57 1387.88C4025.57 1387.88 4029.26 1387.28 4030.62 1386.08 4031.99 1384.89 4032.77 1382.06 4032.97 1377.62 4033.35 1377.13 4034.14 1376.88 4035.35 1376.88 4036.55 1376.88 4037.39 1377.13 4037.88 1377.61 4037.68 1383.55 4037.59 1387.83 4037.59 1390.44 4037.59 1392.21 4037.68 1396.52 4037.88 1403.36 4037.39 1403.92 4036.56 1404.19 4035.38 1404.19 4034.2 1404.19 4033.4 1403.95 4032.97 1403.46 4032.77 1400.77 4032.49 1398.84 4032.1 1397.67 4031.72 1396.5 4030.54 1395.46 4028.57 1394.55 4026.6 1393.65 4023.6 1393.2 4019.57 1393.2L4006.18 1393.2 4006.18 1429.06C4006.18 1433.32 4007.93 1435.45 4011.43 1435.45L4031.51 1435.45C4040.87 1435.45 4047.3 1428.97 4050.8 1416 4052.58 1415.61 4054.31 1415.85 4056 1416.72 4054.8 1424.41 4052.97 1432.52 4050.51 1441.06 4042.63 1440.87 4036.33 1440.77 4031.62 1440.77L3999.89 1440.77C3991.93 1440.87 3985.53 1440.96 3980.68 1441.06 3980.3 1440.64 3980.11 1439.78 3980.11 1438.48 3980.11 1437.18 3980.3 1436.27 3980.68 1435.74 3986.16 1435.55 3989.66 1434.75 3991.18 1433.32 3992.7 1431.9 3993.47 1428.28 3993.47 1422.45L3993.47 1364.09C3993.47 1358.26 3992.7 1354.65 3991.16 1353.25 3989.62 1351.85 3986.08 1351.06 3980.54 1350.87 3980.16 1350.45 3979.96 1349.59 3979.96 1348.28 3979.96 1346.97 3980.16 1346.06 3980.54 1345.55L3999.68 1345.84 4037.37 1345.84C4039.92 1345.84 4042.33 1345.65 4044.59 1345.26ZM3725.92 1344.69C3735.9 1345.46 3747.39 1345.84 3760.4 1345.84L3773.12 1345.84C3786.23 1345.84 3797.28 1345.46 3806.29 1344.69 3806.58 1344.69 3806.73 1344.83 3806.73 1345.11 3806.82 1351.36 3807.45 1358.33 3808.6 1366.02 3807.5 1366.51 3805.84 1366.75 3803.62 1366.75 3802.42 1361.09 3800.15 1357.07 3796.81 1354.7 3793.48 1352.34 3788.9 1351.16 3783.09 1351.16L3779.85 1351.16C3777.3 1351.16 3775.54 1352.4 3774.55 1354.89 3773.57 1357.38 3773.08 1361.14 3773.08 1366.16L3773.08 1422.31C3773.08 1428.2 3773.91 1431.85 3775.56 1433.26 3777.22 1434.68 3781.15 1435.5 3787.34 1435.74 3787.82 1436.27 3788.07 1437.18 3788.1 1438.48 3788.12 1439.78 3787.87 1440.64 3787.34 1441.06 3777.45 1440.85 3770.61 1440.74 3766.8 1440.74 3762.64 1440.74 3755.71 1440.85 3746 1441.06 3745.71 1440.64 3745.57 1439.78 3745.57 1438.48 3745.57 1437.18 3745.76 1436.27 3746.14 1435.74 3752.29 1435.55 3756.2 1434.74 3757.87 1433.3 3759.53 1431.86 3760.37 1428.2 3760.37 1422.31L3760.37 1365.73C3760.37 1360.95 3759.85 1357.32 3758.82 1354.85 3757.78 1352.39 3755.96 1351.16 3753.36 1351.16L3746.14 1351.16C3741.04 1351.16 3736.85 1352.36 3733.58 1354.78 3730.31 1357.2 3727.99 1361.33 3726.65 1367.18 3724.58 1367.18 3722.89 1366.94 3721.59 1366.46 3723.57 1358.03 3724.79 1350.92 3725.27 1345.12 3725.27 1344.83 3725.49 1344.69 3725.92 1344.69ZM3436.26 1339.95 3445.32 1355.54 3430.2 1364.21 3422.95 1351.06 3421.24 1348.57ZM3289.65 1339.95 3304.91 1348.75 3299.96 1356.39 3295.8 1364.49 3280.54 1355.7ZM3400.2 1310.51 3416.02 1319.57 3407.18 1334.76 3399.5 1329.83 3391.36 1325.7ZM3325.98 1310.51 3334.79 1325.55 3321.42 1332.77 3318.89 1334.47 3310.13 1319.52ZM3353.94 1303 3372.21 1303 3372.21 1320.5 3369.15 1320.27 3353.94 1320.61Z" fill-rule="evenodd"/></g></svg>