<svg width="1032" height="309" xmlns="http://www.w3.org/2000/svg" xmlns:xlink="http://www.w3.org/1999/xlink" xml:space="preserve" overflow="hidden"><defs><clipPath id="clip0"><rect x="3295" y="1476" width="1032" height="309"/></clipPath></defs><g clip-path="url(#clip0)" transform="translate(-3295 -1476)"><text fill="#7F7F7F" font-family="Linux Libertine,Linux Libertine_MSFontService,sans-serif" font-weight="400" font-size="147" transform="matrix(1 0 0 1 3485.77 1658)">HISTO</text><path d="M3394.29 1681.58 3394.29 1699 3376 1699 3376 1681.69 3379.06 1681.92ZM3429.18 1667.36 3437.84 1682.39 3422.17 1691.45 3413.45 1676.33 3426.67 1669.07ZM3341.01 1667.36 3348.69 1672.31 3356.84 1676.47 3347.99 1691.74 3332.16 1682.63ZM3452.47 1637.45 3467.74 1646.19 3458.63 1661.84 3443.35 1653.1 3448.31 1645.5ZM3317.67 1637.45 3324.93 1650.67 3326.65 1653.18 3311.62 1661.84 3302.55 1646.17ZM3457.58 1600 3475 1600 3475 1618.29 3457.69 1618.29 3457.92 1615.23ZM3295 1600 3312.6 1600 3312.37 1603.06 3312.71 1618.29 3295 1618.29ZM3458.38 1556.16 3467.45 1571.83 3452.33 1580.55 3445.07 1567.33 3443.35 1564.82ZM3311.66 1556.16 3326.94 1565.01 3321.98 1572.69 3317.82 1580.84 3302.55 1571.99ZM3422.3 1526.55 3438.13 1535.66 3429.28 1550.94 3421.6 1545.98 3413.45 1541.82ZM3348.02 1526.55 3356.84 1541.67 3343.46 1548.93 3340.92 1550.65 3332.16 1535.61ZM3376 1519 3394.29 1519 3394.29 1536.6 3391.23 1536.37 3376 1536.71Z" fill-rule="evenodd"/><text font-family="Linux Libertine,Linux Libertine_MSFontService,sans-serif" font-weight="400" font-size="147" transform="matrix(1 0 0 1 3903.45 1658)">TIME</text></g></svg>