<svg width="2567" height="338" xmlns="http://www.w3.org/2000/svg" xmlns:xlink="http://www.w3.org/1999/xlink" xml:space="preserve" overflow="hidden"><defs><clipPath id="clip0"><rect x="471" y="1382" width="2567" height="338"/></clipPath></defs><g clip-path="url(#clip0)" transform="translate(-471 -1382)"><path d="M1695.8 1400.28C1683.64 1400.28 1671.84 1403.23 1660.41 1409.11 1648.98 1415 1638.38 1423.62 1628.59 1434.99 1618.81 1446.35 1610.88 1462.01 1604.79 1481.96 1598.71 1501.91 1595.67 1524.39 1595.67 1549.41 1595.67 1595.68 1607.46 1632.63 1631.06 1660.27 1654.66 1687.9 1682.81 1701.72 1715.53 1701.72 1745.13 1701.72 1769.34 1688.72 1788.17 1662.72 1807 1636.72 1816.41 1601.81 1816.41 1557.99 1816.41 1508.77 1804.98 1470.19 1782.13 1442.22 1759.27 1414.26 1730.5 1400.28 1695.8 1400.28ZM841.134 1387.68C874.715 1388.4 896.339 1388.76 906.004 1388.76 916.982 1388.76 938.935 1388.4 971.861 1387.68 973.177 1389.47 973.876 1392.57 973.958 1396.96 974.04 1401.35 973.341 1404.35 971.861 1405.97 952.952 1406.62 940.908 1409.35 935.728 1414.15 930.549 1418.96 927.959 1431.38 927.959 1451.42L927.959 1652.06C927.959 1672.1 930.59 1684.53 935.852 1689.33 941.113 1694.14 953.117 1696.95 971.861 1697.76 973.177 1699.58 973.876 1702.72 973.958 1707.18 974.04 1711.64 973.341 1714.59 971.861 1716.05 938.102 1715.32 916.317 1714.95 906.505 1714.95 895.692 1714.95 873.901 1715.32 841.134 1716.05 839.494 1714.59 838.675 1711.64 838.675 1707.18 838.675 1702.72 839.488 1699.58 841.114 1697.76 859.823 1697.11 871.739 1694.34 876.864 1689.46 881.988 1684.57 884.55 1672.1 884.55 1652.06L884.55 1451.42C884.55 1431.38 881.988 1418.96 876.864 1414.15 871.739 1409.35 859.823 1406.62 841.114 1405.97 839.488 1404.53 838.675 1401.57 838.675 1397.09 838.675 1392.61 839.494 1389.47 841.134 1387.68ZM473.459 1387.68C507.041 1388.4 528.664 1388.76 538.329 1388.76 549.212 1388.76 571.144 1388.4 604.125 1387.68 605.438 1389.47 606.136 1392.57 606.218 1396.96 606.3 1401.35 605.602 1404.35 604.125 1405.97 585.242 1406.62 573.214 1409.34 568.042 1414.15 562.87 1418.95 560.284 1431.36 560.284 1451.39L560.284 1531.48 732.934 1531.48 732.934 1451.39C732.934 1431.36 730.331 1418.95 725.126 1414.15 719.921 1409.34 707.965 1406.62 689.259 1405.97 687.956 1404.53 687.305 1401.57 687.305 1397.09 687.305 1392.61 687.819 1389.47 688.847 1387.68 722.647 1388.4 744.494 1388.76 754.388 1388.76 765.202 1388.76 786.992 1388.4 819.76 1387.68 821.399 1389.47 822.218 1392.57 822.218 1396.96 822.218 1401.35 821.405 1404.35 819.779 1405.97 801.07 1406.62 789.153 1409.35 784.029 1414.15 778.905 1418.96 776.343 1431.38 776.343 1451.42L776.343 1652.06C776.343 1672.1 778.905 1684.53 784.029 1689.33 789.153 1694.14 801.07 1696.95 819.779 1697.76 821.405 1699.58 822.218 1702.72 822.218 1707.18 822.218 1711.64 821.399 1714.59 819.76 1716.05 786.178 1715.32 764.554 1714.95 754.889 1714.95 744.006 1714.95 721.992 1715.32 688.847 1716.05 687.819 1714.59 687.305 1711.64 687.305 1707.18 687.305 1702.72 687.956 1699.58 689.259 1697.76 707.965 1697.11 719.921 1694.34 725.126 1689.46 730.331 1684.58 732.934 1672.13 732.934 1652.1L732.934 1552.73 560.284 1552.73 560.284 1652.1C560.284 1672.13 562.911 1684.54 568.166 1689.34 573.42 1694.14 585.406 1696.95 604.125 1697.76 605.438 1699.58 606.136 1702.72 606.218 1707.18 606.3 1711.64 605.602 1714.59 604.125 1716.05 570.325 1715.32 548.56 1714.95 538.831 1714.95 528.017 1714.95 506.226 1715.32 473.459 1716.05 471.82 1714.59 471 1711.64 471 1707.18 471 1702.72 471.813 1699.58 473.439 1697.76 492.148 1697.11 504.065 1694.34 509.189 1689.46 514.313 1684.57 516.876 1672.1 516.876 1652.06L516.876 1451.42C516.876 1431.38 514.313 1418.96 509.189 1414.15 504.065 1409.35 492.148 1406.62 473.439 1405.97 471.813 1404.53 471 1401.57 471 1397.09 471 1392.61 471.82 1389.47 473.459 1387.68ZM1242.47 1384.72C1276.54 1387.35 1315.79 1388.67 1360.22 1388.67L1403.68 1388.67C1448.44 1388.67 1486.21 1387.35 1516.98 1384.72 1517.97 1384.72 1518.46 1385.19 1518.46 1386.15 1518.79 1407.65 1520.93 1431.61 1524.88 1458.06 1521.1 1459.73 1515.42 1460.57 1507.86 1460.57 1503.76 1441.09 1496.01 1427.28 1484.61 1419.15 1473.21 1411.02 1457.58 1406.95 1437.73 1406.95L1426.66 1406.95C1417.97 1406.95 1411.94 1411.23 1408.57 1419.79 1405.21 1428.35 1403.53 1441.27 1403.53 1458.55L1403.53 1651.6C1403.53 1671.84 1406.36 1684.39 1412.02 1689.24 1417.68 1694.1 1431.09 1696.94 1452.25 1697.76 1453.89 1699.58 1454.75 1702.72 1454.83 1707.18 1454.91 1711.64 1454.05 1714.59 1452.25 1716.05 1418.48 1715.32 1395.09 1714.95 1382.07 1714.95 1367.89 1714.95 1344.21 1715.32 1311.04 1716.05 1310.05 1714.59 1309.56 1711.64 1309.56 1707.18 1309.56 1702.72 1310.21 1699.58 1311.51 1697.76 1332.52 1697.1 1345.87 1694.31 1351.57 1689.37 1357.27 1684.43 1360.12 1671.84 1360.12 1651.6L1360.12 1457.07C1360.12 1440.61 1358.35 1428.14 1354.82 1419.67 1351.28 1411.19 1345.07 1406.95 1336.2 1406.95L1311.53 1406.95C1294.1 1406.95 1279.8 1411.11 1268.62 1419.41 1257.43 1427.72 1249.54 1441.93 1244.94 1462.05 1237.87 1462.05 1232.11 1461.23 1227.67 1459.58 1234.41 1430.59 1238.61 1406.13 1240.25 1386.2 1240.25 1385.21 1240.99 1384.72 1242.47 1384.72ZM1702.46 1382C1749.32 1382 1788.13 1397.02 1818.88 1427.06 1849.63 1457.1 1865 1497.56 1865 1548.42 1865 1590.62 1854.56 1626.55 1833.68 1656.22 1819.54 1676.49 1801.49 1692.19 1779.54 1703.31 1757.59 1714.44 1732.88 1720 1705.42 1720 1661.03 1720 1623.58 1705.16 1593.08 1675.48 1562.58 1645.8 1547.32 1606.63 1547.32 1557.99 1547.32 1513.4 1558.83 1475.3 1581.85 1443.71 1596 1424.29 1613.47 1409.15 1634.27 1398.29 1655.07 1387.43 1677.8 1382 1702.46 1382ZM1107.64 1382C1126.91 1382 1143.5 1384.26 1157.42 1388.79 1171.33 1393.32 1180.6 1395.93 1185.21 1396.63 1189.81 1419.83 1192.85 1441.56 1194.33 1461.8 1191.87 1463.61 1186.36 1464.59 1177.81 1464.75 1176.16 1459.5 1174.56 1454.79 1172.99 1450.61 1171.43 1446.42 1169.49 1442.04 1167.19 1437.44 1164.88 1432.85 1162.37 1428.83 1159.65 1425.38 1156.94 1421.94 1153.68 1418.57 1149.9 1415.29 1146.11 1412.01 1141.99 1409.3 1137.55 1407.17 1133.1 1405.04 1127.95 1403.36 1122.11 1402.13 1116.26 1400.9 1109.88 1400.28 1102.96 1400.28 1088.36 1400.28 1075.52 1406.11 1064.44 1417.75 1053.37 1429.4 1047.83 1442.36 1047.83 1456.63 1047.83 1464.51 1049.63 1471.93 1053.24 1478.9 1056.85 1485.88 1061.12 1491.7 1066.04 1496.37 1070.96 1501.05 1077.4 1505.68 1085.36 1510.28 1093.32 1514.87 1100.01 1518.27 1105.42 1520.49 1110.84 1522.7 1117.57 1525.37 1125.61 1528.49 1133.65 1531.6 1138.73 1533.57 1140.87 1534.39 1150.71 1538.66 1159.53 1543.21 1167.31 1548.05 1175.09 1552.89 1182.45 1558.79 1189.4 1565.77 1196.34 1572.74 1201.66 1580.98 1205.34 1590.5 1209.02 1600.01 1210.86 1610.51 1210.86 1621.99 1210.86 1637.96 1206.55 1653.26 1197.94 1667.91 1189.32 1682.56 1177.72 1694.41 1163.14 1703.46 1145.24 1714.49 1124.28 1720 1100.26 1720 1083.69 1720 1066.31 1718.04 1048.12 1714.11 1029.94 1710.19 1015.89 1708.23 1005.98 1708.23 1001.09 1687.03 997.858 1661.49 996.281 1631.59 1001.54 1628.8 1007.05 1628.31 1012.81 1630.11 1023.7 1677.85 1054.24 1701.72 1104.44 1701.72 1124.62 1701.72 1140.17 1696.43 1151.08 1685.85 1161.99 1675.27 1167.45 1659.89 1167.45 1639.71 1167.45 1630.52 1166.01 1622.12 1163.14 1614.49 1160.27 1606.86 1156.99 1600.71 1153.3 1596.03 1149.61 1591.36 1144.36 1586.85 1137.54 1582.5 1130.73 1578.15 1125.07 1574.99 1120.56 1573.02 1116.05 1571.06 1109.65 1568.47 1101.36 1565.27 1093.08 1562.07 1087.38 1559.82 1084.29 1558.5 1068.97 1552.11 1056.15 1545.43 1045.82 1538.45 1035.5 1531.48 1026.59 1522.09 1019.1 1510.28 1011.62 1498.46 1007.87 1485.18 1007.87 1470.41 1007.87 1444.18 1017.64 1422.89 1037.16 1406.53 1056.69 1390.18 1080.18 1382 1107.64 1382Z" fill="#7F7F7F" fill-rule="evenodd"/><path d="M2386.18 1387.96 2459.74 1388.95 2564.1 1644.48C2566.08 1648.9 2567.41 1651.12 2568.07 1651.12 2569.07 1651.12 2570.64 1648.74 2572.79 1643.99L2680.63 1388.95 2746.98 1387.96C2748.62 1389.7 2749.48 1392.77 2749.57 1397.18 2749.65 1401.59 2748.79 1404.61 2746.98 1406.23 2730.36 1407.17 2720.16 1409.77 2716.37 1414.01 2712.58 1418.26 2711.27 1427.23 2712.43 1440.91L2727.87 1653.73C2728.47 1661.94 2728.9 1667.97 2729.18 1671.83 2729.46 1675.69 2730.22 1679.49 2731.45 1683.22 2732.69 1686.96 2733.92 1689.48 2735.15 1690.77 2736.39 1692.07 2738.61 1693.33 2741.82 1694.55 2745.03 1695.77 2748.32 1696.53 2751.69 1696.83 2755.06 1697.14 2759.95 1697.44 2766.37 1697.75 2768.02 1699.57 2768.84 1702.7 2768.84 1707.16 2768.84 1711.61 2768.02 1714.56 2766.37 1716.02 2744.16 1715.29 2725.5 1714.92 2710.38 1714.92 2705.7 1714.92 2687.3 1715.29 2655.18 1716.02 2653.53 1714.56 2652.71 1711.61 2652.71 1707.16 2652.71 1702.7 2653.53 1699.57 2655.18 1697.75 2661.76 1697.43 2666.45 1697.16 2669.24 1696.92 2672.04 1696.68 2675.08 1696.01 2678.38 1694.91 2681.67 1693.8 2683.76 1692.62 2684.67 1691.35 2685.57 1690.09 2686.45 1687.68 2687.29 1684.12 2688.14 1680.57 2688.47 1676.89 2688.3 1673.1 2688.12 1669.31 2687.78 1663.7 2687.26 1656.28L2674.36 1444.98 2673.12 1446.02 2559.35 1712.58C2557.37 1716.35 2554.97 1718.15 2552.17 1717.99 2548.38 1717.99 2545.82 1716.19 2544.5 1712.58L2439.63 1451.15 2438.64 1450.11 2419.39 1652.77C2418.11 1668 2419.47 1678.95 2423.49 1685.61 2427.5 1692.28 2437.32 1696.32 2452.95 1697.75 2454.26 1699.57 2454.92 1702.7 2454.92 1707.16 2454.92 1711.61 2454.26 1714.56 2452.95 1716.02 2432.71 1715.29 2416.97 1714.92 2405.72 1714.92 2397.1 1714.92 2382.68 1715.29 2362.44 1716.02 2361.13 1714.56 2360.47 1711.61 2360.47 1707.16 2360.47 1702.7 2361.13 1699.57 2362.44 1697.75 2376.26 1696.64 2385.64 1692.92 2390.58 1686.59 2395.51 1680.25 2398.72 1669.33 2400.2 1653.81L2420.49 1445.48C2422.14 1427.56 2421.32 1416.77 2418.03 1413.13 2414.73 1409.48 2404.12 1407.18 2386.18 1406.23 2384.54 1404.8 2383.72 1401.84 2383.72 1397.36 2383.72 1392.89 2384.54 1389.75 2386.18 1387.96ZM2211.17 1387.96C2244.77 1388.68 2266.4 1389.04 2276.07 1389.04 2287.05 1389.04 2309.02 1388.68 2341.96 1387.96 2343.28 1389.75 2343.98 1392.84 2344.06 1397.23 2344.14 1401.62 2343.44 1404.62 2341.96 1406.23 2323.04 1406.88 2310.99 1409.61 2305.81 1414.41 2300.63 1419.21 2298.04 1431.62 2298.04 1451.64L2298.04 1652.09C2298.04 1672.11 2300.67 1684.53 2305.93 1689.33 2311.2 1694.13 2323.21 1696.93 2341.96 1697.75 2343.28 1699.57 2343.98 1702.7 2344.06 1707.16 2344.14 1711.61 2343.44 1714.56 2341.96 1716.02 2308.19 1715.29 2286.39 1714.92 2276.57 1714.92 2265.75 1714.92 2243.95 1715.29 2211.17 1716.02 2209.53 1714.56 2208.71 1711.61 2208.71 1707.16 2208.71 1702.7 2209.52 1699.57 2211.15 1697.75 2229.87 1697.1 2241.79 1694.33 2246.92 1689.45 2252.04 1684.57 2254.61 1672.11 2254.61 1652.09L2254.61 1451.64C2254.61 1431.62 2252.04 1419.21 2246.92 1414.41 2241.79 1409.61 2229.87 1406.88 2211.15 1406.23 2209.52 1404.8 2208.71 1401.84 2208.71 1397.36 2208.71 1392.89 2209.53 1389.75 2211.17 1387.96ZM2999.01 1386.97C3000.33 1386.97 3000.98 1387.47 3000.98 1388.46 3003.62 1399.86 3007.4 1424.04 3012.34 1461 3006.91 1463.69 3001.31 1464.53 2995.56 1463.52 2989.17 1442.82 2982.45 1428.26 2975.4 1419.84 2968.35 1411.42 2956.14 1407.22 2938.77 1407.22L2885.68 1407.22C2879.94 1407.22 2875.52 1409.36 2872.4 1413.65 2869.29 1417.94 2867.73 1423.36 2867.73 1429.92L2867.73 1533.35 2913.51 1533.35C2934.01 1533.35 2946.61 1531.3 2951.28 1527.18 2955.96 1523.07 2958.63 1513.38 2959.28 1498.1 2960.6 1496.42 2963.31 1495.59 2967.43 1495.59 2971.54 1495.59 2974.42 1496.41 2976.06 1498.07 2975.4 1518.48 2975.07 1533.17 2975.07 1542.13 2975.07 1548.21 2975.4 1563.01 2976.06 1586.53 2974.42 1588.43 2971.58 1589.39 2967.55 1589.39 2963.52 1589.39 2960.76 1588.55 2959.28 1586.87 2958.63 1577.64 2957.64 1571.01 2956.33 1566.98 2955.01 1562.95 2951 1559.38 2944.27 1556.28 2937.54 1553.17 2927.29 1551.62 2913.51 1551.62L2867.73 1551.62 2867.73 1674.82C2867.73 1689.45 2873.72 1696.76 2885.69 1696.76L2954.31 1696.76C2986.29 1696.76 3008.26 1674.48 3020.23 1629.93 3026.32 1628.6 3032.24 1629.43 3038 1632.42 3033.89 1658.82 3027.64 1686.68 3019.25 1716.02 2992.3 1715.36 2970.78 1715.03 2954.69 1715.03L2846.27 1715.03C2819.06 1715.36 2797.17 1715.69 2780.62 1716.02 2779.3 1714.56 2778.65 1711.61 2778.65 1707.16 2778.65 1702.7 2779.3 1699.57 2780.6 1697.75 2799.32 1697.1 2811.28 1694.33 2816.49 1689.45 2821.7 1684.57 2824.3 1672.11 2824.3 1652.09L2824.3 1451.64C2824.3 1431.62 2821.67 1419.21 2816.4 1414.41 2811.14 1409.61 2799.05 1406.88 2780.13 1406.23 2778.81 1404.79 2778.16 1401.82 2778.16 1397.32 2778.16 1392.82 2778.81 1389.7 2780.13 1387.96L2845.52 1388.95 2974.33 1388.95C2983.05 1388.95 2991.28 1388.29 2999.01 1386.97ZM1914.81 1385C1948.89 1387.63 1988.16 1388.95 2032.62 1388.95L2076.09 1388.95C2120.88 1388.95 2158.67 1387.63 2189.46 1385 2190.44 1385 2190.94 1385.48 2190.94 1386.43 2191.27 1407.91 2193.41 1431.85 2197.35 1458.27 2193.57 1459.94 2187.89 1460.78 2180.33 1460.78 2176.22 1441.32 2168.47 1427.53 2157.06 1419.4 2145.66 1411.28 2130.02 1407.22 2110.16 1407.22L2099.09 1407.22C2090.39 1407.22 2084.36 1411.49 2080.99 1420.04 2077.63 1428.59 2075.94 1441.5 2075.94 1458.76L2075.94 1651.63C2075.94 1671.85 2078.77 1684.39 2084.44 1689.24 2090.1 1694.09 2103.52 1696.93 2124.69 1697.75 2126.33 1699.57 2127.19 1702.7 2127.27 1707.16 2127.35 1711.61 2126.49 1714.56 2124.69 1716.02 2090.9 1715.29 2067.5 1714.92 2054.48 1714.92 2040.28 1714.92 2016.59 1715.29 1983.41 1716.02 1982.42 1714.56 1981.93 1711.61 1981.93 1707.16 1981.93 1702.7 1982.58 1699.57 1983.88 1697.75 2004.9 1697.09 2018.26 1694.3 2023.96 1689.36 2029.66 1684.43 2032.51 1671.85 2032.51 1651.63L2032.51 1457.28C2032.51 1440.84 2030.74 1428.38 2027.21 1419.92 2023.67 1411.45 2017.46 1407.22 2008.58 1407.22L1983.9 1407.22C1966.46 1407.22 1952.15 1411.36 1940.96 1419.66 1929.78 1427.96 1921.88 1442.16 1917.27 1462.26 1910.2 1462.26 1904.44 1461.44 1900 1459.79 1906.75 1430.83 1910.94 1406.39 1912.59 1386.48 1912.59 1385.49 1913.33 1385 1914.81 1385Z" fill-rule="evenodd"/></g></svg>