<svg width="1198" height="351" xmlns="http://www.w3.org/2000/svg" xmlns:xlink="http://www.w3.org/1999/xlink" xml:space="preserve" overflow="hidden"><defs><clipPath id="clip0"><rect x="2519" y="1062" width="1198" height="351"/></clipPath></defs><g clip-path="url(#clip0)" transform="translate(-2519 -1062)"><path d="M2533.74 1062C2567.67 1064.79 2606.76 1066.19 2651.01 1066.19L2694.29 1066.19C2738.87 1066.19 2776.49 1064.79 2807.14 1062 2808.12 1062 2808.61 1062.51 2808.61 1063.52 2808.94 1086.29 2811.07 1111.68 2815 1139.69 2811.23 1141.47 2805.58 1142.36 2798.05 1142.36 2793.97 1121.72 2786.25 1107.09 2774.89 1098.48 2763.54 1089.86 2747.98 1085.56 2728.21 1085.56L2717.18 1085.56C2708.52 1085.56 2702.52 1090.09 2699.17 1099.16 2695.82 1108.22 2694.14 1121.91 2694.14 1140.22L2694.14 1344.73C2694.14 1366.17 2696.96 1379.46 2702.6 1384.61 2708.23 1389.75 2721.59 1392.76 2742.66 1393.63 2744.3 1395.56 2745.16 1398.88 2745.24 1403.61 2745.32 1408.33 2744.46 1411.46 2742.66 1413L2672.78 1411.84C2658.64 1411.84 2635.06 1412.23 2602.03 1413 2601.04 1411.46 2600.55 1408.33 2600.55 1403.61 2600.55 1398.88 2601.2 1395.56 2602.5 1393.63 2623.42 1392.93 2636.72 1389.97 2642.39 1384.74 2648.07 1379.51 2650.91 1366.17 2650.91 1344.73L2650.91 1138.65C2650.91 1121.21 2649.15 1108 2645.63 1099.02 2642.11 1090.05 2635.93 1085.56 2627.08 1085.56L2602.52 1085.56C2585.16 1085.56 2570.91 1089.96 2559.78 1098.76 2548.64 1107.55 2540.78 1122.61 2536.2 1143.93 2529.15 1143.93 2523.42 1143.05 2519 1141.31 2525.71 1110.6 2529.89 1084.68 2531.53 1063.57 2531.53 1062.52 2532.26 1062 2533.74 1062Z" fill="#532476" fill-rule="evenodd"/><path d="M3436.15 1062 3676.69 1062.53C3679.55 1074.73 3683.67 1100.6 3689.05 1140.14 3683.14 1143.02 3677.05 1143.92 3670.77 1142.84 3663.82 1120.69 3656.5 1105.11 3648.82 1096.11 3641.15 1087.1 3627.85 1082.6 3608.93 1082.6L3551.1 1082.6C3544.86 1082.6 3540.04 1084.9 3536.65 1089.48 3533.25 1094.07 3531.56 1099.88 3531.56 1106.89L3531.56 1217.56 3581.41 1217.56C3603.75 1217.56 3617.46 1215.36 3622.56 1210.96 3627.65 1206.56 3630.55 1196.19 3631.27 1179.85 3632.7 1178.05 3635.66 1177.15 3640.14 1177.15 3644.61 1177.15 3647.75 1178.04 3649.54 1179.81 3648.83 1201.65 3648.47 1217.36 3648.47 1226.95 3648.47 1233.46 3648.83 1249.3 3649.54 1274.46 3647.75 1276.49 3644.66 1277.51 3640.27 1277.51 3635.88 1277.51 3632.88 1276.61 3631.27 1274.82 3630.55 1264.94 3629.48 1257.85 3628.05 1253.54 3626.62 1249.23 3622.24 1245.41 3614.92 1242.09 3607.59 1238.77 3596.42 1237.1 3581.41 1237.1L3531.56 1237.1 3531.56 1368.92C3531.56 1384.57 3538.08 1392.4 3551.11 1392.4L3625.85 1392.4C3660.68 1392.4 3684.61 1368.56 3697.65 1320.89 3704.28 1319.47 3710.73 1320.36 3717 1323.56 3712.52 1351.8 3705.71 1381.62 3696.57 1413L3626.26 1411.94 3508.18 1411.94 3436.68 1413C3435.25 1411.45 3434.54 1408.29 3434.54 1403.52 3434.54 1398.76 3435.25 1395.4 3436.67 1393.46 3457.05 1392.76 3470.08 1389.8 3475.75 1384.58 3481.42 1379.35 3484.26 1366.03 3484.26 1344.6L3484.26 1130.13C3484.26 1108.71 3481.39 1095.43 3475.66 1090.29 3469.92 1085.16 3456.75 1082.24 3436.15 1081.54 3434.72 1080 3434 1076.83 3434 1072.01 3434 1067.2 3434.72 1063.86 3436.15 1062Z" fill="#532476" fill-rule="evenodd"/><path d="M2829.65 1062 2899.66 1063.15C2911.51 1063.15 2935.2 1062.77 2970.73 1062 2972.15 1063.91 2972.9 1067.22 2972.99 1071.91 2973.08 1076.61 2972.33 1079.82 2970.73 1081.54 2950.32 1082.24 2937.33 1085.16 2931.74 1090.29 2926.15 1095.43 2923.35 1108.71 2923.35 1130.13L2923.35 1344.61C2923.35 1366.03 2926.19 1379.31 2931.87 1384.44 2937.55 1389.58 2950.5 1392.59 2970.73 1393.46 2972.15 1395.4 2972.9 1398.76 2972.99 1403.52 2973.08 1408.29 2972.33 1411.45 2970.73 1413L2900.2 1411.83C2888.53 1411.83 2865.01 1412.22 2829.65 1413 2827.89 1411.45 2827 1408.29 2827 1403.52 2827 1398.76 2827.88 1395.4 2829.63 1393.46 2849.82 1392.76 2862.68 1389.8 2868.21 1384.58 2873.74 1379.35 2876.51 1366.03 2876.51 1344.61L2876.51 1130.13C2876.51 1108.71 2873.74 1095.43 2868.21 1090.29 2862.68 1085.16 2849.82 1082.24 2829.63 1081.54 2827.88 1080.01 2827 1076.85 2827 1072.06 2827 1067.27 2827.89 1063.91 2829.65 1062Z" fill="#532476" fill-rule="evenodd"/><path d="M155.676 351C162.442 350.828 167.393 346.514 170.53 338.062L213.996 221.282 215.041 221.282 253.315 338.062C256.277 346.688 261.853 351 270.044 351 276.841 350.828 281.633 346.686 284.421 338.578L389.765 51.3303C393.425 41.1527 398.522 33.433 405.056 28.1703 411.592 22.9079 421.83 19.9313 435.771 19.2411 437.34 17.5427 438.08 14.3819 437.993 9.76044 437.905 5.13972 437.165 1.88576 435.771 0L389.241 1.13405 330.427 0C328.684 1.88576 327.813 5.18684 327.813 9.90251 327.813 14.6196 328.684 17.7326 330.427 19.2411L339.707 20.0161C342.06 20.1899 344.935 20.5355 348.332 21.052 351.731 21.5703 354.301 22.1738 356.043 22.8648 357.787 23.5553 359.747 24.5031 361.926 25.7108 364.104 26.9168 365.542 28.4264 366.239 30.2373 366.936 32.0501 367.284 34.2067 367.284 36.7075 367.284 39.2083 366.761 42.0123 365.716 45.1191L280.5 286.822 279.455 286.822 241.181 170.042C238.218 161.416 232.643 157.104 224.452 157.104 217.655 157.276 212.863 161.418 210.075 169.526L166.87 285.534 165.825 285.534 85.5752 40.0942C83.8379 34.4354 84.0141 30.1118 86.1023 27.1222 88.1905 24.1315 91.1957 22.1519 95.1161 21.18 99.0366 20.21 104.745 19.5626 112.239 19.2411 113.632 17.5427 114.329 14.3819 114.329 9.76044 114.329 5.13972 113.632 1.88576 112.239 0 88.7338 0.756752 68.649 1.13405 51.9816 1.13405L2.09109 0C0.69679 1.88576 0 5.18684 0 9.90251 0 14.6196 0.69679 17.7326 2.09109 19.2411 14.9864 19.8993 23.6569 21.7095 28.1008 24.6696 32.5437 27.6311 37.1183 35.5285 41.8233 48.3605L139.277 338.017C142.054 346.674 147.519 351 155.676 351Z" fill="#532476" fill-rule="evenodd" transform="matrix(1 0 0 -1 2984 1413)"/></g></svg>