<svg width="359" height="360" xmlns="http://www.w3.org/2000/svg" xmlns:xlink="http://www.w3.org/1999/xlink" xml:space="preserve" overflow="hidden"><defs><clipPath id="clip0"><rect x="3573" y="859" width="359" height="360"/></clipPath></defs><g clip-path="url(#clip0)" transform="translate(-3573 -859)"><rect x="3573" y="1020" width="34" height="36.0001"/><path d="M3605.92 933.42 3635.7 950.88 3617.54 981.863 3587.75 964.403Z" fill-rule="evenodd"/><path d="M3678.82 874.076 3696.06 903.989 3664.91 921.938 3647.67 892.025Z" fill-rule="evenodd"/><rect x="3734" y="1184" width="35.9998" height="35.0001"/><path d="M3646.99 1185.49 3664.45 1155.71 3695.46 1173.89 3678 1203.67Z" fill-rule="evenodd"/><path d="M3587.64 1112.64 3617.55 1095.41 3635.48 1126.52 3605.57 1143.76Z" fill-rule="evenodd"/><rect x="3898" y="1022" width="34" height="36.0001"/><path d="M3899.05 1144.43 3869.26 1126.97 3887.43 1095.98 3917.21 1113.44Z" fill-rule="evenodd"/><path d="M3826.14 1203.77 3808.91 1173.86 3840.06 1155.91 3857.29 1185.82Z" fill-rule="evenodd"/><rect x="3735" y="859" width="36" height="35.0001"/><path d="M3857.98 892.356 3840.52 922.139 3809.5 903.958 3826.96 874.174Z" fill-rule="evenodd"/><path d="M3917.33 965.205 3887.41 982.441 3869.48 951.322 3899.4 934.086Z" fill-rule="evenodd"/></g></svg>