<svg width="648" height="206" xmlns="http://www.w3.org/2000/svg" xmlns:xlink="http://www.w3.org/1999/xlink" xml:space="preserve" overflow="hidden"><defs><clipPath id="clip0"><rect x="3477" y="1484" width="648" height="206"/></clipPath></defs><g clip-path="url(#clip0)" transform="translate(-3477 -1484)"><path d="M3783.98 1484 3829.71 1484.61 3839.26 1508.09 3875.35 1644.11C3876.59 1646.87 3877.41 1648.25 3877.82 1648.25 3878.44 1648.25 3879.42 1646.77 3880.76 1643.81L3919.16 1484.62 3960.41 1484C3961.43 1485.08 3961.97 1487 3962.02 1489.76 3962.07 1492.51 3961.53 1494.39 3960.41 1495.4 3950.08 1495.99 3943.74 1497.61 3941.38 1500.26 3939.03 1502.91 3938.21 1508.51 3938.93 1517.05L3948.53 1649.88C3948.9 1655.01 3949.18 1658.78 3949.35 1661.18 3949.52 1663.59 3949.99 1665.96 3950.76 1668.29 3951.53 1670.63 3952.29 1672.2 3953.06 1673 3953.83 1673.81 3955.21 1674.6 3957.2 1675.36 3959.2 1676.12 3961.24 1676.6 3963.34 1676.79 3965.43 1676.98 3968.48 1677.17 3972.47 1677.36 3973.49 1678.49 3974 1680.45 3974 1683.23 3974 1686.01 3973.49 1687.85 3972.47 1688.76 3958.66 1688.31 3947.06 1688.08 3937.66 1688.08 3934.75 1688.08 3923.31 1688.31 3903.34 1688.76 3902.32 1687.85 3901.81 1686.01 3901.81 1683.23 3901.81 1680.45 3902.32 1678.49 3903.34 1677.36 3907.43 1677.16 3910.35 1676.99 3912.09 1676.84 3913.83 1676.7 3915.72 1676.28 3917.76 1675.59 3919.81 1674.9 3921.11 1674.16 3921.67 1673.37 3922.24 1672.58 3922.78 1671.07 3923.31 1668.85 3923.83 1666.63 3924.04 1664.34 3923.93 1661.98 3923.82 1659.61 3923.61 1656.11 3923.28 1651.47L3915.26 1519.59 3914.5 1520.24 3872.4 1686.62C3871.17 1688.97 3869.68 1690.1 3867.94 1689.99 3865.58 1689.99 3863.99 1688.87 3863.17 1686.62L3817.21 1523.44 3816.6 1522.79 3804.63 1649.29C3803.83 1658.79 3804.68 1665.63 3807.17 1669.79 3809.67 1673.94 3815.77 1676.47 3825.49 1677.36 3826.31 1678.49 3826.72 1680.45 3826.72 1683.23 3826.72 1686.01 3826.31 1687.85 3825.49 1688.76 3812.91 1688.31 3803.12 1688.08 3796.13 1688.08 3790.77 1688.08 3781.81 1688.31 3769.23 1688.76 3768.41 1687.85 3768 1686.01 3768 1683.23 3768 1680.45 3768.41 1678.49 3769.23 1677.36 3777.82 1676.67 3783.65 1674.35 3786.72 1670.39 3789.78 1666.44 3791.78 1659.62 3792.7 1649.94L3805.31 1519.9C3806.34 1508.71 3805.83 1501.98 3803.78 1499.71 3801.73 1497.43 3795.13 1496 3783.98 1495.4 3782.96 1494.51 3782.45 1492.66 3782.45 1489.87 3782.45 1487.07 3782.96 1485.12 3783.98 1484Z" fill="#532476" fill-rule="evenodd"/><path d="M3485.56 1484C3505.28 1485.64 3528 1486.46 3553.71 1486.46L3578.86 1486.46C3604.76 1486.46 3626.62 1485.64 3644.43 1484 3645 1484 3645.29 1484.3 3645.29 1484.89 3645.48 1498.26 3646.72 1513.16 3649 1529.6 3646.81 1530.64 3643.53 1531.16 3639.15 1531.16 3636.78 1519.05 3632.29 1510.46 3625.69 1505.41 3619.1 1500.35 3610.05 1497.82 3598.57 1497.82L3592.16 1497.82C3587.13 1497.82 3583.64 1500.49 3581.69 1505.81 3579.75 1511.13 3578.77 1519.16 3578.77 1529.91L3578.77 1649.93C3578.77 1662.52 3580.41 1670.32 3583.68 1673.34 3586.96 1676.36 3594.72 1678.12 3606.97 1678.63 3607.92 1679.76 3608.41 1681.72 3608.46 1684.49 3608.51 1687.26 3608.01 1689.1 3606.97 1690L3566.36 1689.32C3558.14 1689.32 3544.44 1689.55 3525.25 1690 3524.67 1689.1 3524.39 1687.26 3524.39 1684.49 3524.39 1681.72 3524.77 1679.76 3525.52 1678.63 3537.68 1678.22 3545.4 1676.48 3548.7 1673.41 3552 1670.34 3553.65 1662.52 3553.65 1649.93L3553.65 1528.98C3553.65 1518.75 3552.63 1511 3550.58 1505.73 3548.54 1500.46 3544.94 1497.82 3539.8 1497.82L3525.53 1497.82C3515.44 1497.82 3507.17 1500.41 3500.69 1505.57 3494.22 1510.73 3489.66 1519.57 3486.99 1532.08 3482.9 1532.08 3479.57 1531.57 3477 1530.55 3480.9 1512.52 3483.33 1497.31 3484.28 1484.92 3484.28 1484.31 3484.71 1484 3485.56 1484Z" fill="#532476" fill-rule="evenodd"/><path d="M3667.55 1484 3708.3 1484.68C3715.2 1484.68 3728.99 1484.45 3749.68 1484 3750.5 1485.12 3750.94 1487.06 3751 1489.82 3751.05 1492.57 3750.61 1494.46 3749.68 1495.47 3737.8 1495.88 3730.23 1497.59 3726.98 1500.61 3723.72 1503.62 3722.1 1511.41 3722.1 1523.99L3722.1 1649.86C3722.1 1662.43 3723.75 1670.23 3727.05 1673.24 3730.36 1676.26 3737.9 1678.02 3749.68 1678.53 3750.5 1679.67 3750.94 1681.64 3751 1684.44 3751.05 1687.23 3750.61 1689.09 3749.68 1690L3708.62 1689.31C3701.82 1689.31 3688.13 1689.54 3667.55 1690 3666.52 1689.09 3666 1687.23 3666 1684.44 3666 1681.64 3666.51 1679.67 3667.53 1678.53 3679.29 1678.12 3686.77 1676.38 3689.99 1673.32 3693.21 1670.25 3694.82 1662.43 3694.82 1649.86L3694.82 1523.99C3694.82 1511.41 3693.21 1503.62 3689.99 1500.61 3686.77 1497.59 3679.29 1495.88 3667.53 1495.47 3666.51 1494.57 3666 1492.72 3666 1489.9 3666 1487.09 3666.52 1485.12 3667.55 1484Z" fill="#532476" fill-rule="evenodd"/><path d="M3992.25 1484 4058.69 1484.15 4058.69 1484.22 4101.52 1484.31C4103.19 1491.47 4105.59 1506.65 4108.72 1529.86 4105.28 1531.55 4101.73 1532.08 4098.08 1531.45 4094.03 1518.45 4091.86 1509.91 4085.3 1504.02 4078.73 1498.12 4064.44 1496.74 4058.69 1496.09L4050.78 1500.13C4048.8 1502.82 4047.81 1506.23 4047.81 1510.35L4047.81 1575.3 4061.79 1574.33C4065.78 1573.68 4068.52 1572.71 4070 1571.42 4072.97 1568.84 4074.66 1562.75 4075.07 1553.16 4075.91 1552.11 4077.63 1551.58 4080.24 1551.58 4082.85 1551.58 4084.67 1552.1 4085.72 1553.14 4085.3 1565.96 4085.09 1575.18 4085.09 1580.81 4085.09 1584.63 4085.3 1593.92 4085.72 1608.69 4084.67 1609.89 4082.87 1610.48 4080.32 1610.48 4077.76 1610.48 4076.01 1609.96 4075.07 1608.9 4074.66 1603.11 4074.03 1598.94 4073.2 1596.41 4072.37 1593.88 4069.82 1591.64 4065.55 1589.69 4063.42 1588.72 4060.73 1587.99 4057.47 1587.5L4047.81 1586.77 4047.81 1664.13C4047.81 1668.72 4048.76 1672.17 4050.66 1674.46L4058.69 1677.7 4058.69 1677.91 4071.92 1677.91C4092.2 1677.91 4106.14 1663.92 4113.73 1635.94 4117.59 1635.11 4121.35 1635.63 4125 1637.51 4122.39 1654.08 4118.43 1671.58 4113.11 1690L4072.16 1689.38 4034.2 1689.38 3992.56 1690C3991.73 1689.09 3991.31 1687.23 3991.31 1684.44 3991.31 1681.64 3991.73 1679.67 3992.55 1678.53 4004.42 1678.12 4012.01 1676.38 4015.31 1673.32 4018.62 1670.25 4020.27 1662.43 4020.27 1649.86L4020.27 1523.99C4020.27 1511.41 4018.6 1503.62 4015.26 1500.61 4011.92 1497.59 4004.25 1495.88 3992.25 1495.47 3991.42 1494.57 3991 1492.7 3991 1489.88 3991 1487.05 3991.42 1485.09 3992.25 1484Z" fill="#532476" fill-rule="evenodd"/></g></svg>