<svg width="1852" height="360" xmlns="http://www.w3.org/2000/svg" xmlns:xlink="http://www.w3.org/1999/xlink" xml:space="preserve" overflow="hidden"><defs><clipPath id="clip0"><rect x="238" y="267" width="1852" height="360"/></clipPath></defs><g clip-path="url(#clip0)" transform="translate(-238 -267)"><path d="M1353.56 344C1373.28 345.646 1396 346.47 1421.71 346.47L1446.86 346.47C1472.76 346.47 1494.62 345.646 1512.43 344 1513 344 1513.29 344.299 1513.29 344.895 1513.48 358.325 1514.72 373.3 1517 389.819 1514.81 390.867 1511.53 391.389 1507.15 391.389 1504.78 379.219 1500.29 370.593 1493.69 365.513 1487.1 360.433 1478.05 357.892 1466.57 357.892L1460.16 357.892C1455.13 357.892 1451.64 360.566 1449.69 365.913 1447.75 371.258 1446.77 379.331 1446.77 390.128L1446.77 510.736C1446.77 523.383 1448.41 531.222 1451.68 534.256 1454.96 537.289 1462.72 539.063 1474.97 539.577 1475.92 540.714 1476.41 542.676 1476.46 545.461 1476.51 548.245 1476.01 550.093 1474.97 551L1434.36 550.318C1426.14 550.318 1412.44 550.546 1393.25 551 1392.67 550.093 1392.39 548.245 1392.39 545.461 1392.39 542.676 1392.77 540.714 1393.52 539.577 1405.68 539.166 1413.4 537.418 1416.7 534.332 1420 531.248 1421.65 523.383 1421.65 510.736L1421.65 389.202C1421.65 378.919 1420.63 371.13 1418.58 365.835 1416.54 360.54 1412.94 357.892 1407.8 357.892L1393.53 357.892C1383.44 357.892 1375.17 360.487 1368.69 365.676 1362.22 370.864 1357.66 379.745 1354.99 392.315 1350.9 392.315 1347.57 391.801 1345 390.772 1348.9 372.66 1351.33 357.378 1352.28 344.926 1352.28 344.309 1352.71 344 1353.56 344Z" fill="#532476" fill-rule="evenodd"/><path d="M239.212 345 268.122 345.659C277.781 345.659 289.42 345.44 303.04 345 303.848 346.096 304.252 347.987 304.252 350.673 304.252 353.359 303.848 355.196 303.04 356.183 298.698 356.37 295.39 356.746 293.118 357.31 290.846 357.875 289.105 359.025 287.895 360.763 286.685 362.501 286.582 365.014 287.589 368.303L334.093 510.951 334.698 510.951 373.779 409.074C375.193 405.167 375.9 401.26 375.9 397.353 375.9 394.649 375.395 391.794 374.385 388.79L369.689 374.514C368.276 369.807 365.297 365.674 360.752 362.118 356.208 358.562 350.199 356.584 342.726 356.183 341.918 355.306 341.515 353.497 341.515 350.755 341.515 348.015 341.918 346.096 342.726 345L373.779 345.659C379.535 345.659 392.159 345.44 411.648 345 412.456 346.096 412.86 347.987 412.86 350.673 412.86 353.359 412.456 355.196 411.648 356.183 408.72 356.383 406.599 356.583 405.286 356.784 403.973 356.984 402.181 357.485 399.909 358.288 397.637 359.09 396.273 360.067 395.819 361.221 395.365 362.375 394.784 364.08 394.077 366.336 393.37 368.591 393.825 371.323 395.44 374.531L440.126 511.7 440.732 511.7 490.113 371.223C490.719 369.417 491.022 367.788 491.022 366.334 491.022 364.881 490.82 363.627 490.416 362.574 490.012 361.521 489.179 360.644 487.917 359.943 486.654 359.241 485.518 358.69 484.508 358.289 483.498 357.887 482.009 357.537 480.039 357.236 478.071 356.935 476.404 356.734 475.041 356.633 473.677 356.533 471.886 356.383 469.663 356.183 468.654 355.306 468.149 353.497 468.149 350.755 468.149 348.015 468.654 346.096 469.663 345L503.745 345.659C506.472 345.659 515.46 345.44 530.709 345 531.516 346.096 531.945 347.987 531.996 350.673 532.047 353.359 531.618 355.196 530.709 356.183 522.63 356.584 516.697 358.314 512.91 361.373 509.123 364.431 506.169 368.918 504.049 374.833L443.004 541.78C441.388 546.492 438.611 548.9 434.672 549 429.926 549 426.695 546.494 424.978 541.48L388.624 432.137C386.806 426.421 385.392 423.564 384.382 423.564 383.171 423.564 381.707 426.121 379.99 431.235L336.819 541.48C335.002 546.393 332.132 548.9 328.211 549 323.485 549 320.318 546.485 318.708 541.454L262.236 373.107C259.509 365.649 256.858 361.059 254.284 359.338 251.709 357.618 246.684 356.565 239.212 356.183 238.404 355.306 238 353.497 238 350.755 238 348.015 238.404 346.096 239.212 345Z" fill="#532476" fill-rule="evenodd"/><path d="M1178 627 1142 627 1142 592.221 1148.02 592.676 1178 592Z" fill-rule="evenodd"/><path d="M1085.44 612 1054 593.69 1071.56 563 1086.82 572.956 1103 581.31Z" fill-rule="evenodd"/><path d="M1013.44 552 995 520.511 1025.76 503 1040.52 529.56 1044 534.6Z" fill-rule="evenodd"/><path d="M1015 465 980 465 980 428 1014.78 428 1014.32 434.188Z" fill-rule="evenodd"/><path d="M1025.69 390 995 372.436 1013.31 341 1044 358.564 1034.04 373.824Z" fill-rule="evenodd"/><path d="M1071.4 330 1054 300.06 1085.49 282 1103 312.13 1076.44 326.588Z" fill-rule="evenodd"/><path d="M1142 302 1142 267 1178 267 1178 301.779 1171.98 301.325Z" fill-rule="evenodd"/><path d="M1248.44 330 1233.18 320.248 1217 312.064 1234.56 282 1266 299.936Z" fill-rule="evenodd"/><path d="M1294.87 390 1280.41 363.44 1277 358.4 1306.94 341 1325 372.489Z" fill-rule="evenodd"/><path d="M1340 465 1305.22 465 1305.68 458.812 1305 428 1340 428Z" fill-rule="evenodd"/><path d="M1306.69 552 1276 534.436 1285.96 519.176 1294.31 503 1325 520.564Z" fill-rule="evenodd"/><path d="M1234.51 611 1217 580.87 1243.56 566.412 1248.6 563 1266 592.94Z" fill-rule="evenodd"/><path d="M1675.06 345 1720.99 345.611 1786.15 504.335C1787.39 507.081 1788.22 508.455 1788.63 508.455 1789.25 508.455 1790.24 506.98 1791.58 504.03L1858.92 345.613 1900.35 345C1901.38 346.08 1901.92 347.989 1901.97 350.728 1902.02 353.467 1901.48 355.339 1900.35 356.346 1889.97 356.932 1883.6 358.544 1881.24 361.181 1878.87 363.819 1878.05 369.388 1878.78 377.887L1888.42 510.077C1888.79 515.178 1889.06 518.927 1889.24 521.323 1889.41 523.72 1889.88 526.078 1890.66 528.4 1891.43 530.72 1892.2 532.282 1892.97 533.087 1893.74 533.893 1895.12 534.674 1897.13 535.432 1899.13 536.19 1901.19 536.663 1903.29 536.852 1905.4 537.042 1908.45 537.231 1912.46 537.421 1913.49 538.55 1914 540.498 1914 543.265 1914 546.031 1913.49 547.865 1912.46 548.767 1898.59 548.316 1886.94 548.089 1877.5 548.089 1874.58 548.089 1863.09 548.316 1843.03 548.767 1842 547.865 1841.49 546.031 1841.49 543.265 1841.49 540.498 1842 538.55 1843.03 537.421 1847.14 537.224 1850.06 537.053 1851.81 536.906 1853.56 536.76 1855.46 536.342 1857.51 535.655 1859.57 534.969 1860.88 534.233 1861.44 533.447 1862.01 532.662 1862.55 531.165 1863.08 528.956 1863.61 526.748 1863.82 524.466 1863.71 522.111 1863.6 519.757 1863.38 516.273 1863.06 511.661L1855 380.418 1854.23 381.065 1783.18 546.632C1781.95 548.976 1780.46 550.096 1778.7 549.994 1776.34 549.994 1774.74 548.874 1773.92 546.632L1708.43 384.251 1707.81 383.604 1695.79 509.483C1694.99 518.944 1695.84 525.745 1698.35 529.883 1700.85 534.022 1706.99 536.535 1716.74 537.421 1717.57 538.55 1717.98 540.498 1717.98 543.265 1717.98 546.031 1717.57 547.865 1716.74 548.767 1704.11 548.316 1694.28 548.089 1687.25 548.089 1681.88 548.089 1672.87 548.316 1660.23 548.767 1659.41 547.865 1659 546.031 1659 543.265 1659 540.498 1659.41 538.55 1660.23 537.421 1668.86 536.733 1674.72 534.422 1677.8 530.488 1680.88 526.555 1682.88 519.769 1683.81 510.13L1696.48 380.727C1697.51 369.595 1697 362.896 1694.94 360.63 1692.88 358.365 1686.25 356.937 1675.06 356.346 1674.03 355.457 1673.52 353.621 1673.52 350.839 1673.52 348.058 1674.03 346.112 1675.06 345Z" fill="#532476" fill-rule="evenodd"/><path d="M1927.25 343 2066.64 343.312C2068.3 350.506 2070.69 365.763 2073.8 389.085 2070.38 390.784 2066.85 391.314 2063.21 390.677 2059.18 377.613 2054.94 368.425 2050.49 363.115 2046.04 357.805 2038.34 355.149 2027.37 355.149L1993.86 355.149C1990.24 355.149 1987.45 356.502 1985.48 359.209 1983.52 361.915 1982.54 365.338 1982.54 369.476L1982.54 434.741 2011.43 434.741C2024.37 434.741 2032.32 433.443 2035.27 430.848 2038.22 428.253 2039.9 422.137 2040.32 412.499 2041.15 411.44 2042.86 410.91 2045.46 410.91 2048.05 410.91 2049.87 411.434 2050.91 412.48 2050.49 425.359 2050.28 434.625 2050.28 440.28 2050.28 444.118 2050.49 453.458 2050.91 468.297 2049.87 469.497 2048.08 470.098 2045.53 470.098 2042.99 470.098 2041.25 469.568 2040.32 468.508 2039.9 462.684 2039.28 458.5 2038.45 455.957 2037.62 453.415 2035.09 451.165 2030.84 449.205 2026.6 447.247 2020.13 446.266 2011.43 446.266L1982.54 446.266 1982.54 524.004C1982.54 533.235 1986.31 537.851 1993.87 537.851L2037.18 537.851C2057.36 537.851 2071.23 523.793 2078.79 495.678 2082.63 494.839 2086.37 495.364 2090 497.252 2087.4 513.91 2083.46 531.493 2078.16 550L2037.42 549.377 1968.99 549.377 1927.55 550C1926.73 549.084 1926.31 547.22 1926.31 544.41 1926.31 541.6 1926.72 539.621 1927.55 538.474 1939.36 538.064 1946.91 536.318 1950.19 533.237 1953.48 530.156 1955.12 522.298 1955.12 509.664L1955.12 383.181C1955.12 370.548 1953.46 362.717 1950.14 359.687 1946.82 356.657 1939.19 354.936 1927.25 354.527 1926.42 353.618 1926 351.744 1926 348.905 1926 346.065 1926.42 344.097 1927.25 343Z" fill="#532476" fill-rule="evenodd"/><path d="M663.537 345 704.081 345.669C710.943 345.669 724.662 345.446 745.242 345 746.063 346.113 746.5 348.033 746.552 350.762 746.603 353.49 746.167 355.356 745.242 356.359 733.423 356.763 725.896 358.459 722.658 361.444 719.421 364.43 717.802 372.149 717.802 384.6L717.802 439.258C727.565 438.449 735.89 434.401 742.775 427.113L794.877 372.452C798.063 369.112 800.067 366.354 800.89 364.178 801.711 362.001 801.223 360.407 799.425 359.395 797.626 358.383 795.88 357.725 794.184 357.421 792.488 357.118 789.791 356.763 786.091 356.359 785.063 355.469 784.524 353.631 784.472 350.846 784.421 348.061 784.961 346.113 786.091 345L821.699 345.669C821.905 345.669 831.925 345.446 851.759 345 852.786 346.113 853.3 348.033 853.3 350.762 853.3 353.49 852.786 355.356 851.759 356.359 839.427 357.878 830.487 360.206 824.937 363.343 820.517 365.874 816.151 369.316 811.834 373.668L765.435 420.581C758.035 428.073 754.387 433.185 754.49 435.917 754.49 437.941 755.826 440.522 758.498 443.659L827.712 524.433C829.767 526.963 831.848 529.062 833.954 530.733 836.061 532.403 838.322 533.643 840.737 534.452L846.133 536.275C847.315 536.679 849.189 536.982 851.759 537.185L855.459 537.641C856.486 538.772 857 540.722 857 543.491 857 546.26 856.486 548.098 855.459 549L823.549 548.321C820.569 548.321 814.917 548.548 806.593 549 805.77 549 805.206 548.322 804.897 546.966 804.075 540.547 800.324 533.035 793.645 524.431L744.008 462.942C737.945 455.451 729.209 451.504 717.802 451.099L717.802 509.249C717.802 521.7 719.447 529.418 722.736 532.403 726.024 535.389 733.526 537.135 745.242 537.641 746.063 538.772 746.5 540.722 746.552 543.491 746.603 546.26 746.167 548.098 745.242 549L704.393 548.321C697.635 548.321 684.016 548.548 663.537 549 662.513 548.098 662 546.26 662 543.491 662 540.722 662.509 538.772 663.525 537.641 675.218 537.237 682.665 535.517 685.868 532.48 689.07 529.444 690.672 521.7 690.672 509.249L690.672 384.598C690.672 372.148 689.07 364.43 685.868 361.444 682.665 358.459 675.218 356.763 663.525 356.359 662.509 355.469 662 353.631 662 350.846 662 348.061 662.513 346.113 663.537 345Z" fill="#532476" fill-rule="evenodd"/><path d="M1551.53 346 1591.8 346.669C1598.62 346.669 1612.25 346.446 1632.69 346 1633.51 347.113 1633.94 349.033 1634 351.762 1634.05 354.49 1633.61 356.356 1632.69 357.359 1620.95 357.763 1613.48 359.459 1610.26 362.444 1607.04 365.43 1605.44 373.148 1605.44 385.598L1605.44 510.249C1605.44 522.7 1607.07 530.418 1610.34 533.403 1613.6 536.389 1621.06 538.135 1632.69 538.641 1633.51 539.772 1633.94 541.722 1634 544.491 1634.05 547.261 1633.61 549.098 1632.69 550L1592.11 549.321C1585.4 549.321 1571.87 549.548 1551.53 550 1550.51 549.098 1550 547.261 1550 544.491 1550 541.722 1550.51 539.772 1551.51 538.641 1563.13 538.237 1570.53 536.517 1573.71 533.48 1576.89 530.444 1578.48 522.7 1578.48 510.249L1578.48 385.598C1578.48 373.148 1576.89 365.43 1573.71 362.444 1570.53 359.459 1563.13 357.763 1551.51 357.359 1550.51 356.469 1550 354.631 1550 351.846 1550 349.061 1550.51 347.113 1551.53 346Z" fill="#532476" fill-rule="evenodd"/><path d="M887.527 345 927.804 345.669C934.621 345.669 948.25 345.446 968.695 345 969.511 346.113 969.945 348.033 969.996 350.762 970.047 353.49 969.614 355.356 968.695 356.359 956.953 356.763 949.476 358.459 946.259 361.444 943.044 364.43 941.436 372.148 941.436 384.598L941.436 509.249C941.436 521.7 943.07 529.418 946.337 532.403 949.604 535.389 957.056 537.135 968.695 537.641 969.511 538.772 969.945 540.722 969.996 543.491 970.047 546.26 969.614 548.098 968.695 549L928.115 548.321C921.401 548.321 907.871 548.548 887.527 549 886.509 548.098 886 546.26 886 543.491 886 540.722 886.505 538.772 887.514 537.641 899.131 537.237 906.53 535.517 909.711 532.48 912.893 529.444 914.483 521.7 914.483 509.249L914.483 384.598C914.483 372.148 912.893 364.43 909.711 361.444 906.53 358.459 899.131 356.763 887.514 356.359 886.505 355.469 886 353.631 886 350.846 886 348.061 886.509 346.113 887.527 345Z" fill="#532476" fill-rule="evenodd"/><path d="M547.527 345 587.804 345.669C594.621 345.669 608.25 345.446 628.695 345 629.51 346.113 629.945 348.033 629.996 350.762 630.047 353.49 629.613 355.356 628.695 356.359 616.953 356.763 609.476 358.459 606.259 361.444 603.044 364.43 601.436 372.148 601.436 384.598L601.436 509.249C601.436 521.7 603.07 529.418 606.337 532.403 609.604 535.389 617.056 537.135 628.695 537.641 629.51 538.772 629.945 540.722 629.996 543.491 630.047 546.26 629.613 548.098 628.695 549L588.115 548.321C581.401 548.321 567.871 548.548 547.527 549 546.509 548.098 546 546.26 546 543.491 546 540.722 546.505 538.772 547.515 537.641 559.132 537.237 566.53 535.517 569.711 532.48 572.893 529.444 574.483 521.7 574.483 509.249L574.483 384.598C574.483 372.148 572.893 364.43 569.711 361.444 566.53 358.459 559.132 356.763 547.515 356.359 546.505 355.469 546 353.631 546 350.846 546 348.061 546.509 346.113 547.527 345Z" fill="#532476" fill-rule="evenodd"/></g></svg>