<svg width="1690" height="360" xmlns="http://www.w3.org/2000/svg" xmlns:xlink="http://www.w3.org/1999/xlink" xml:space="preserve" overflow="hidden"><defs><clipPath id="clip0"><rect x="1603" y="429" width="1690" height="360"/></clipPath></defs><g clip-path="url(#clip0)" transform="translate(-1603 -429)"><path d="M1604.48 503C1624.65 503.452 1637.64 503.679 1643.45 503.679 1649.99 503.679 1663.16 503.452 1682.98 503 1683.77 504.129 1684.18 506.078 1684.23 508.847 1684.28 511.616 1683.86 513.508 1682.98 514.526 1671.63 514.936 1664.41 516.655 1661.3 519.683 1658.19 522.71 1656.64 530.535 1656.64 543.158L1656.64 593.65 1760.36 593.65 1760.36 543.158C1760.36 530.535 1758.8 522.71 1755.67 519.683 1752.54 516.655 1745.36 514.936 1734.12 514.526 1733.34 513.622 1732.95 511.757 1732.95 508.932 1732.95 506.106 1733.26 504.129 1733.87 503 1754.18 503.452 1767.31 503.679 1773.25 503.679 1779.75 503.679 1792.84 503.452 1812.52 503 1813.51 504.129 1814 506.078 1814 508.847 1814 511.616 1813.51 513.508 1812.53 514.526 1801.29 514.936 1794.14 516.656 1791.06 519.687 1787.98 522.717 1786.44 530.547 1786.44 543.18L1786.44 669.664C1786.44 682.298 1787.98 690.13 1791.06 693.159 1794.14 696.188 1801.29 697.96 1812.53 698.474 1813.51 699.621 1814 701.6 1814 704.41 1814 707.22 1813.51 709.083 1812.52 710 1792.35 709.541 1779.36 709.311 1773.55 709.311 1767.01 709.311 1753.79 709.541 1733.87 710 1733.26 709.083 1732.95 707.22 1732.95 704.41 1732.95 701.6 1733.34 699.621 1734.12 698.474 1745.36 698.063 1752.54 696.319 1755.67 693.24 1758.8 690.162 1760.36 682.312 1760.36 669.691L1760.36 607.045 1656.64 607.045 1656.64 669.691C1656.64 682.312 1658.22 690.136 1661.37 693.164 1664.53 696.191 1671.73 697.961 1682.98 698.474 1683.77 699.621 1684.18 701.6 1684.23 704.41 1684.28 707.22 1683.86 709.083 1682.98 710 1662.67 709.541 1649.59 709.311 1643.75 709.311 1637.25 709.311 1624.16 709.541 1604.48 710 1603.49 709.083 1603 707.22 1603 704.41 1603 701.6 1603.49 699.621 1604.47 698.474 1615.7 698.063 1622.86 696.318 1625.94 693.237 1629.02 690.156 1630.56 682.298 1630.56 669.664L1630.56 543.18C1630.56 530.547 1629.02 522.717 1625.94 519.687 1622.86 516.656 1615.7 514.936 1604.47 514.526 1603.49 513.622 1603 511.757 1603 508.932 1603 506.106 1603.49 504.129 1604.48 503Z" fill="#D182F0" fill-rule="evenodd"/><path d="M1992.43 503C2003.92 503 2013.82 504.386 2022.12 507.159 2030.42 509.931 2035.95 511.531 2038.7 511.958 2041.45 526.171 2043.26 539.476 2044.14 551.873 2042.67 552.977 2039.39 553.581 2034.29 553.681 2033.3 550.466 2032.34 547.577 2031.41 545.016 2030.48 542.455 2029.32 539.767 2027.95 536.954 2026.57 534.14 2025.08 531.679 2023.45 529.569 2021.83 527.459 2019.89 525.399 2017.63 523.39 2015.38 521.38 2012.92 519.722 2010.27 518.417 2007.62 517.111 2004.55 516.081 2001.06 515.328 1997.57 514.574 1993.76 514.197 1989.64 514.197 1980.93 514.197 1973.27 517.764 1966.66 524.897 1960.05 532.03 1956.75 539.967 1956.75 548.707 1956.75 553.53 1957.83 558.077 1959.98 562.346 1962.13 566.617 1964.68 570.183 1967.61 573.046 1970.55 575.909 1974.39 578.747 1979.14 581.56 1983.89 584.373 1987.88 586.457 1991.11 587.814 1994.34 589.17 1998.35 590.803 2003.15 592.711 2007.94 594.62 2010.98 595.826 2012.25 596.329 2018.12 598.94 2023.38 601.728 2028.02 604.692 2032.66 607.656 2037.06 611.273 2041.2 615.543 2045.34 619.813 2048.51 624.861 2050.71 630.688 2052.9 636.514 2054 642.944 2054 649.977 2054 659.754 2051.43 669.128 2046.29 678.098 2041.15 687.068 2034.23 694.326 2025.53 699.871 2014.86 706.624 2002.36 710 1988.02 710 1978.14 710 1967.78 708.798 1956.93 706.396 1946.08 703.992 1937.7 702.791 1931.79 702.791 1928.87 689.811 1926.94 674.165 1926 655.852 1929.14 654.145 1932.42 653.844 1935.86 654.949 1942.35 684.185 1960.57 698.802 1990.52 698.802 2002.56 698.802 2011.83 695.562 2018.34 689.083 2024.85 682.603 2028.11 673.184 2028.11 660.827 2028.11 655.202 2027.25 650.053 2025.54 645.381 2023.82 640.709 2021.87 636.941 2019.66 634.078 2017.46 631.215 2014.33 628.452 2010.27 625.79 2006.2 623.128 2002.83 621.194 2000.14 619.988 1997.44 618.783 1993.63 617.2 1988.68 615.241 1983.74 613.282 1980.34 611.9 1978.5 611.096 1969.36 607.179 1961.71 603.086 1955.55 598.816 1949.39 594.546 1944.08 588.794 1939.61 581.56 1935.15 574.326 1932.91 566.188 1932.91 557.147 1932.91 541.081 1938.74 528.04 1950.39 518.024 1962.04 508.008 1976.05 503 1992.43 503Z" fill="#D182F0" fill-rule="evenodd"/><path d="M1833.55 503 1874.3 503.679C1881.2 503.679 1894.99 503.452 1915.68 503 1916.5 504.129 1916.94 506.078 1917 508.847 1917.05 511.615 1916.61 513.508 1915.68 514.525 1903.8 514.936 1896.23 516.656 1892.98 519.686 1889.72 522.716 1888.1 530.547 1888.1 543.18L1888.1 669.665C1888.1 682.299 1889.75 690.13 1893.06 693.159 1896.36 696.189 1903.9 697.96 1915.68 698.474 1916.5 699.621 1916.94 701.6 1917 704.41 1917.05 707.22 1916.61 709.084 1915.68 710L1874.62 709.311C1867.82 709.311 1854.13 709.542 1833.55 710 1832.52 709.084 1832 707.22 1832 704.41 1832 701.6 1832.51 699.621 1833.53 698.474 1845.29 698.064 1852.77 696.318 1855.99 693.237 1859.21 690.156 1860.82 682.299 1860.82 669.665L1860.82 543.18C1860.82 530.547 1859.21 522.716 1855.99 519.686 1852.77 516.656 1845.29 514.936 1833.53 514.525 1832.51 513.622 1832 511.757 1832 508.932 1832 506.106 1832.52 504.129 1833.55 503Z" fill="#D182F0" fill-rule="evenodd"/><path d="M2065.56 503C2085.28 504.646 2108 505.469 2133.71 505.469L2158.86 505.469C2184.76 505.469 2206.62 504.646 2224.43 503 2225 503 2225.29 503.299 2225.29 503.895 2225.48 517.324 2226.72 532.299 2229 548.819 2226.81 549.866 2223.53 550.389 2219.15 550.389 2216.78 538.219 2212.29 529.593 2205.69 524.513 2199.1 519.433 2190.05 516.892 2178.57 516.892L2172.16 516.892C2167.13 516.892 2163.64 519.566 2161.69 524.912 2159.75 530.258 2158.77 538.331 2158.77 549.128L2158.77 669.736C2158.77 682.383 2160.41 690.222 2163.68 693.255 2166.96 696.289 2174.72 698.063 2186.97 698.577 2187.92 699.714 2188.41 701.675 2188.46 704.46 2188.51 707.245 2188.01 709.092 2186.97 710L2146.36 709.317C2138.14 709.317 2124.44 709.546 2105.25 710 2104.67 709.092 2104.39 707.245 2104.39 704.46 2104.39 701.675 2104.77 699.714 2105.52 698.577 2117.68 698.166 2125.4 696.418 2128.7 693.332 2132 690.248 2133.65 682.383 2133.65 669.736L2133.65 548.202C2133.65 537.919 2132.63 530.13 2130.58 524.835 2128.54 519.54 2124.94 516.892 2119.8 516.892L2105.53 516.892C2095.44 516.892 2087.17 519.487 2080.69 524.676 2074.22 529.864 2069.66 538.744 2066.99 551.315 2062.9 551.315 2059.57 550.801 2057 549.772 2060.9 531.66 2063.33 516.377 2064.28 503.926 2064.28 503.309 2064.71 503 2065.56 503Z" fill="#D182F0" fill-rule="evenodd"/><path d="M2951.06 503 2997.01 503.617 3006.61 527.208 3042.87 663.889C3044.12 666.663 3044.94 668.049 3045.36 668.049 3045.98 668.049 3046.96 666.561 3048.31 663.581L3086.9 503.619 3128.34 503C3129.37 504.09 3129.91 506.018 3129.96 508.784 3130.01 511.55 3129.47 513.44 3128.34 514.456 3117.96 515.048 3111.59 516.676 3109.23 519.339 3106.86 522.002 3106.04 527.626 3106.76 536.208L3116.41 669.688C3116.78 674.838 3117.05 678.624 3117.23 681.043 3117.4 683.464 3117.88 685.845 3118.65 688.189 3119.42 690.532 3120.19 692.109 3120.96 692.922 3121.73 693.736 3123.12 694.524 3125.12 695.29 3127.12 696.055 3129.18 696.533 3131.29 696.724 3133.39 696.916 3136.45 697.107 3140.46 697.298 3141.49 698.438 3142 700.406 3142 703.199 3142 705.992 3141.49 707.844 3140.46 708.755 3126.58 708.299 3114.93 708.07 3105.48 708.07 3102.56 708.07 3091.07 708.299 3071 708.755 3069.97 707.844 3069.46 705.992 3069.46 703.199 3069.46 700.406 3069.97 698.438 3071 697.298 3075.11 697.1 3078.04 696.927 3079.79 696.778 3081.53 696.631 3083.43 696.209 3085.49 695.515 3087.54 694.823 3088.85 694.078 3089.42 693.285 3089.98 692.492 3090.53 690.981 3091.06 688.75 3091.59 686.521 3091.8 684.217 3091.69 681.839 3091.58 679.462 3091.36 675.944 3091.04 671.287L3082.98 538.763 3082.21 539.416 3039.91 706.599C3038.67 708.966 3037.18 710.097 3035.42 709.994 3033.06 709.994 3031.46 708.863 3030.64 706.599L2984.45 542.634 2983.83 541.981 2971.8 669.088C2971 678.641 2971.86 685.508 2974.36 689.687 2976.87 693.867 2983.01 696.404 2992.77 697.298 2993.59 698.438 2994 700.406 2994 703.199 2994 705.992 2993.59 707.844 2992.77 708.755 2980.13 708.299 2970.29 708.07 2963.27 708.07 2957.88 708.07 2948.87 708.299 2936.23 708.755 2935.41 707.844 2935 705.992 2935 703.199 2935 700.406 2935.41 698.438 2936.23 697.298 2944.87 696.603 2950.72 694.27 2953.81 690.298 2956.89 686.326 2958.89 679.474 2959.82 669.741L2972.49 539.075C2973.52 527.835 2973.01 521.07 2970.95 518.783 2968.89 516.495 2962.26 515.053 2951.06 514.456 2950.04 513.559 2949.52 511.705 2949.52 508.896 2949.52 506.087 2950.04 504.122 2951.06 503Z" fill="#D182F0" fill-rule="evenodd"/><path d="M2653.56 503C2673.28 504.646 2696 505.469 2721.71 505.469L2746.86 505.469C2772.76 505.469 2794.62 504.646 2812.43 503 2813 503 2813.29 503.299 2813.29 503.895 2813.48 517.324 2814.72 532.299 2817 548.819 2814.81 549.866 2811.53 550.389 2807.15 550.389 2804.78 538.219 2800.29 529.593 2793.69 524.513 2787.1 519.433 2778.05 516.892 2766.57 516.892L2760.16 516.892C2755.13 516.892 2751.64 519.566 2749.69 524.912 2747.75 530.258 2746.77 538.331 2746.77 549.128L2746.77 669.736C2746.77 682.383 2748.41 690.222 2751.68 693.255 2754.96 696.289 2762.72 698.063 2774.97 698.577 2775.92 699.714 2776.41 701.675 2776.46 704.46 2776.51 707.245 2776.01 709.092 2774.97 710L2734.36 709.317C2726.14 709.317 2712.44 709.546 2693.25 710 2692.67 709.092 2692.39 707.245 2692.39 704.46 2692.39 701.675 2692.77 699.714 2693.52 698.577 2705.68 698.166 2713.4 696.418 2716.7 693.332 2720 690.248 2721.65 682.383 2721.65 669.736L2721.65 548.202C2721.65 537.919 2720.63 530.13 2718.58 524.835 2716.54 519.54 2712.94 516.892 2707.8 516.892L2693.53 516.892C2683.44 516.892 2675.17 519.487 2668.69 524.676 2662.22 529.864 2657.66 538.744 2654.99 551.315 2650.9 551.315 2647.57 550.801 2645 549.772 2648.9 531.66 2651.33 516.377 2652.28 503.926 2652.28 503.309 2652.71 503 2653.56 503Z" fill="#D182F0" fill-rule="evenodd"/><path d="M2835.53 503 2875.8 503.679C2882.62 503.679 2896.25 503.452 2916.69 503 2917.51 504.129 2917.94 506.078 2918 508.847 2918.05 511.615 2917.61 513.508 2916.69 514.525 2904.95 514.936 2897.48 516.656 2894.26 519.686 2891.04 522.716 2889.44 530.547 2889.44 543.18L2889.44 669.665C2889.44 682.299 2891.07 690.13 2894.34 693.159 2897.6 696.189 2905.06 697.96 2916.69 698.474 2917.51 699.621 2917.94 701.6 2918 704.41 2918.05 707.22 2917.61 709.084 2916.69 710L2876.11 709.311C2869.4 709.311 2855.87 709.542 2835.53 710 2834.51 709.084 2834 707.22 2834 704.41 2834 701.6 2834.5 699.621 2835.51 698.474 2847.13 698.064 2854.53 696.318 2857.71 693.237 2860.89 690.156 2862.48 682.299 2862.48 669.665L2862.48 543.18C2862.48 530.547 2860.89 522.716 2857.71 519.686 2854.53 516.656 2847.13 514.936 2835.51 514.525 2834.5 513.622 2834 511.757 2834 508.932 2834 506.106 2834.51 504.129 2835.53 503Z" fill="#D182F0" fill-rule="evenodd"/><path d="M3160.25 503 3226.69 503.148 3226.69 503.217 3269.52 503.312C3271.19 510.506 3273.59 525.763 3276.72 549.085 3273.28 550.784 3269.73 551.314 3266.08 550.676 3262.03 537.613 3259.86 529.035 3253.3 523.114 3246.73 517.193 3232.44 515.8 3226.69 515.149L3218.78 519.209C3216.8 521.915 3215.81 525.337 3215.81 529.476L3215.81 594.741 3229.79 593.767C3233.78 593.119 3236.52 592.145 3238 590.848 3240.97 588.253 3242.66 582.137 3243.07 572.499 3243.91 571.44 3245.63 570.91 3248.24 570.91 3250.85 570.91 3252.67 571.434 3253.72 572.48 3253.3 585.359 3253.09 594.625 3253.09 600.28 3253.09 604.119 3253.3 613.457 3253.72 628.297 3252.67 629.497 3250.87 630.098 3248.32 630.098 3245.76 630.098 3244.01 629.568 3243.07 628.508 3242.66 622.683 3242.03 618.5 3241.2 615.957 3240.37 613.415 3237.82 611.165 3233.55 609.205 3231.42 608.226 3228.73 607.491 3225.47 607.001L3215.81 606.266 3215.81 684.004C3215.81 688.619 3216.76 692.081 3218.66 694.389L3226.69 697.645 3226.69 697.851 3239.92 697.851C3260.2 697.851 3274.14 683.793 3281.73 655.678 3285.59 654.839 3289.35 655.364 3293 657.252 3290.39 673.91 3286.43 691.493 3281.11 710L3240.16 709.377 3202.2 709.377 3160.56 710C3159.73 709.084 3159.31 707.22 3159.31 704.41 3159.31 701.6 3159.73 699.621 3160.55 698.474 3172.42 698.064 3180.01 696.318 3183.31 693.237 3186.62 690.155 3188.27 682.298 3188.27 669.664L3188.27 543.181C3188.27 530.548 3186.6 522.717 3183.26 519.687 3179.92 516.657 3172.25 514.936 3160.25 514.527 3159.42 513.618 3159 511.744 3159 508.904 3159 506.065 3159.42 504.097 3160.25 503Z" fill="#D182F0" fill-rule="evenodd"/><rect x="2257" y="590" width="35" height="36.0001" fill="#BFBFBF"/><path d="M2290.47 503.419 2320.25 520.878 2302.09 551.862 2272.31 534.402Z" fill="#BFBFBF" fill-rule="evenodd"/><path d="M2363.38 444.074 2380.61 473.988 2349.46 491.936 2332.23 462.023Z" fill="#BFBFBF" fill-rule="evenodd"/><rect x="2418" y="754" width="36" height="35.0001" fill="#BFBFBF"/><path d="M2331.54 755.49 2349 725.707 2380.02 743.888 2362.56 773.672Z" fill="#BFBFBF" fill-rule="evenodd"/><path d="M2272.19 682.641 2302.1 665.404 2320.03 696.523 2290.12 713.76Z" fill="#BFBFBF" fill-rule="evenodd"/><rect x="2582" y="592" width="35" height="36.0001" fill="#BFBFBF"/><path d="M2583.6 714.426 2553.82 696.966 2571.98 665.983 2601.76 683.442Z" fill="#BFBFBF" fill-rule="evenodd"/><path d="M2510.7 773.77 2493.46 743.857 2524.61 725.908 2541.85 755.821Z" fill="#BFBFBF" fill-rule="evenodd"/><rect x="2420" y="429" width="36" height="35.0001" fill="#BFBFBF"/><path d="M2542.53 462.354 2525.07 492.138 2494.06 473.956 2511.51 444.173Z" fill="#BFBFBF" fill-rule="evenodd"/><path d="M2601.88 535.203 2571.97 552.44 2554.04 521.321 2583.95 504.084Z" fill="#BFBFBF" fill-rule="evenodd"/></g></svg>