<svg width="1720" height="360" xmlns="http://www.w3.org/2000/svg" xmlns:xlink="http://www.w3.org/1999/xlink" xml:space="preserve" overflow="hidden"><defs><clipPath id="clip0"><rect x="615" y="958" width="1720" height="360"/></clipPath></defs><g clip-path="url(#clip0)" transform="translate(-615 -958)"><path d="M1665.56 1032C1685.28 1033.65 1708 1034.47 1733.71 1034.47L1758.86 1034.47C1784.76 1034.47 1806.62 1033.65 1824.43 1032 1825 1032 1825.29 1032.3 1825.29 1032.89 1825.48 1046.32 1826.72 1061.3 1829 1077.82 1826.81 1078.87 1823.53 1079.39 1819.15 1079.39 1816.78 1067.22 1812.29 1058.59 1805.69 1053.51 1799.1 1048.43 1790.05 1045.89 1778.57 1045.89L1772.16 1045.89C1767.13 1045.89 1763.64 1048.57 1761.69 1053.91 1759.75 1059.26 1758.77 1067.33 1758.77 1078.13L1758.77 1198.74C1758.77 1211.38 1760.41 1219.22 1763.68 1222.26 1766.96 1225.29 1774.72 1227.06 1786.97 1227.58 1787.92 1228.71 1788.41 1230.68 1788.46 1233.46 1788.51 1236.24 1788.01 1238.09 1786.97 1239L1746.36 1238.32C1738.14 1238.32 1724.44 1238.55 1705.25 1239 1704.67 1238.09 1704.39 1236.24 1704.39 1233.46 1704.39 1230.68 1704.77 1228.71 1705.52 1227.58 1717.68 1227.17 1725.4 1225.42 1728.7 1222.33 1732 1219.25 1733.65 1211.38 1733.65 1198.74L1733.65 1077.2C1733.65 1066.92 1732.63 1059.13 1730.58 1053.83 1728.54 1048.54 1724.94 1045.89 1719.8 1045.89L1705.53 1045.89C1695.44 1045.89 1687.17 1048.49 1680.69 1053.68 1674.22 1058.86 1669.66 1067.74 1666.99 1080.32 1662.9 1080.32 1659.57 1079.8 1657 1078.77 1660.9 1060.66 1663.33 1045.38 1664.28 1032.93 1664.28 1032.31 1664.71 1032 1665.56 1032Z" fill="#532476" fill-rule="evenodd"/><path d="M1930.06 1032 1975.99 1032.62 2041.15 1192.89C2042.39 1195.66 2043.22 1197.05 2043.63 1197.05 2044.25 1197.05 2045.24 1195.56 2046.58 1192.58L2113.92 1032.62 2155.35 1032C2156.38 1033.09 2156.92 1035.02 2156.97 1037.78 2157.02 1040.55 2156.48 1042.44 2155.35 1043.46 2144.97 1044.05 2138.6 1045.68 2136.24 1048.34 2133.87 1051 2133.05 1056.63 2133.78 1065.21L2143.42 1198.69C2143.79 1203.84 2144.06 1207.62 2144.24 1210.04 2144.41 1212.46 2144.88 1214.84 2145.66 1217.19 2146.43 1219.53 2147.2 1221.11 2147.97 1221.92 2148.74 1222.74 2150.12 1223.52 2152.13 1224.29 2154.13 1225.06 2156.19 1225.53 2158.29 1225.72 2160.4 1225.92 2163.45 1226.11 2167.46 1226.3 2168.49 1227.44 2169 1229.41 2169 1232.2 2169 1234.99 2168.49 1236.84 2167.46 1237.75 2153.59 1237.3 2141.94 1237.07 2132.5 1237.07 2129.58 1237.07 2118.09 1237.3 2098.03 1237.75 2097 1236.84 2096.49 1234.99 2096.49 1232.2 2096.49 1229.41 2097 1227.44 2098.03 1226.3 2102.14 1226.1 2105.06 1225.93 2106.81 1225.78 2108.56 1225.63 2110.46 1225.21 2112.51 1224.52 2114.57 1223.82 2115.88 1223.08 2116.44 1222.28 2117.01 1221.49 2117.55 1219.98 2118.08 1217.75 2118.61 1215.52 2118.82 1213.22 2118.71 1210.84 2118.6 1208.46 2118.38 1204.94 2118.06 1200.29L2110 1067.76 2109.23 1068.42 2038.18 1235.6C2036.95 1237.97 2035.46 1239.1 2033.7 1238.99 2031.34 1238.99 2029.74 1237.86 2028.92 1235.6L1963.43 1071.63 1962.81 1070.98 1950.79 1198.09C1949.99 1207.64 1950.84 1214.51 1953.35 1218.69 1955.85 1222.87 1961.99 1225.4 1971.74 1226.3 1972.57 1227.44 1972.98 1229.41 1972.98 1232.2 1972.98 1234.99 1972.57 1236.84 1971.74 1237.75 1959.11 1237.3 1949.28 1237.07 1942.25 1237.07 1936.88 1237.07 1927.87 1237.3 1915.23 1237.75 1914.41 1236.84 1914 1234.99 1914 1232.2 1914 1229.41 1914.41 1227.44 1915.23 1226.3 1923.86 1225.6 1929.72 1223.27 1932.8 1219.3 1935.88 1215.33 1937.88 1208.47 1938.81 1198.74L1951.48 1068.07C1952.51 1056.83 1952 1050.07 1949.94 1047.78 1947.88 1045.49 1941.25 1044.05 1930.06 1043.46 1929.03 1042.56 1928.52 1040.7 1928.52 1037.9 1928.52 1035.09 1929.03 1033.12 1930.06 1032Z" fill="#532476" fill-rule="evenodd"/><path d="M2172.25 1032 2311.64 1032.31C2313.3 1039.51 2315.69 1054.76 2318.8 1078.08 2315.38 1079.78 2311.85 1080.31 2308.21 1079.68 2304.18 1066.61 2299.94 1057.43 2295.49 1052.11 2291.04 1046.8 2283.34 1044.15 2272.37 1044.15L2238.86 1044.15C2235.24 1044.15 2232.45 1045.5 2230.48 1048.21 2228.52 1050.91 2227.54 1054.34 2227.54 1058.48L2227.54 1123.74 2256.43 1123.74C2269.37 1123.74 2277.32 1122.44 2280.27 1119.85 2283.22 1117.25 2284.9 1111.14 2285.32 1101.5 2286.15 1100.44 2287.86 1099.91 2290.46 1099.91 2293.05 1099.91 2294.87 1100.43 2295.91 1101.48 2295.49 1114.36 2295.28 1123.62 2295.28 1129.28 2295.28 1133.12 2295.49 1142.46 2295.91 1157.3 2294.87 1158.5 2293.08 1159.1 2290.53 1159.1 2287.99 1159.1 2286.25 1158.57 2285.32 1157.51 2284.9 1151.68 2284.28 1147.5 2283.45 1144.96 2282.62 1142.42 2280.09 1140.16 2275.84 1138.21 2271.6 1136.25 2265.13 1135.27 2256.43 1135.27L2227.54 1135.27 2227.54 1213C2227.54 1222.23 2231.31 1226.85 2238.87 1226.85L2282.18 1226.85C2302.36 1226.85 2316.23 1212.79 2323.79 1184.68 2327.63 1183.84 2331.37 1184.36 2335 1186.25 2332.4 1202.91 2328.46 1220.49 2323.16 1239L2282.42 1238.38 2213.99 1238.38 2172.55 1239C2171.73 1238.08 2171.31 1236.22 2171.31 1233.41 2171.31 1230.6 2171.72 1228.62 2172.55 1227.47 2184.36 1227.06 2191.91 1225.32 2195.19 1222.24 2198.48 1219.16 2200.12 1211.3 2200.12 1198.66L2200.12 1072.18C2200.12 1059.55 2198.46 1051.72 2195.14 1048.69 2191.82 1045.66 2184.19 1043.94 2172.25 1043.53 2171.42 1042.62 2171 1040.74 2171 1037.9 2171 1035.07 2171.42 1033.1 2172.25 1032Z" fill="#532476" fill-rule="evenodd"/><path d="M1829.53 1032 1869.8 1032.68C1876.62 1032.68 1890.25 1032.45 1910.69 1032 1911.51 1033.13 1911.94 1035.08 1912 1037.85 1912.05 1040.61 1911.61 1042.51 1910.69 1043.53 1898.95 1043.94 1891.48 1045.66 1888.26 1048.69 1885.04 1051.72 1883.44 1059.55 1883.44 1072.18L1883.44 1198.66C1883.44 1211.3 1885.07 1219.13 1888.34 1222.16 1891.6 1225.19 1899.06 1226.96 1910.69 1227.47 1911.51 1228.62 1911.94 1230.6 1912 1233.41 1912.05 1236.22 1911.61 1238.08 1910.69 1239L1870.11 1238.31C1863.4 1238.31 1849.87 1238.54 1829.53 1239 1828.51 1238.08 1828 1236.22 1828 1233.41 1828 1230.6 1828.51 1228.62 1829.51 1227.47 1841.13 1227.06 1848.53 1225.32 1851.71 1222.24 1854.89 1219.16 1856.48 1211.3 1856.48 1198.66L1856.48 1072.18C1856.48 1059.55 1854.89 1051.72 1851.71 1048.69 1848.53 1045.66 1841.13 1043.94 1829.51 1043.53 1828.51 1042.62 1828 1040.76 1828 1037.93 1828 1035.11 1828.51 1033.13 1829.53 1032Z" fill="#532476" fill-rule="evenodd"/><path d="M616.47 1032C636.549 1032.45 649.478 1032.68 655.257 1032.68 661.764 1032.68 674.878 1032.45 694.598 1032 695.383 1033.13 695.8 1035.08 695.849 1037.85 695.898 1040.62 695.481 1042.51 694.598 1043.53 683.307 1043.94 676.115 1045.66 673.023 1048.68 669.931 1051.71 668.385 1059.54 668.385 1072.16L668.385 1122.65 771.615 1122.65 771.615 1072.16C771.615 1059.54 770.059 1051.71 766.947 1048.68 763.834 1045.66 756.686 1043.94 745.501 1043.53 744.722 1042.62 744.333 1040.76 744.333 1037.93 744.333 1035.11 744.64 1033.13 745.254 1032 765.464 1032.45 778.527 1032.68 784.443 1032.68 790.908 1032.68 803.937 1032.45 823.53 1032 824.51 1033.13 825 1035.08 825 1037.85 825 1040.62 824.514 1042.51 823.541 1043.53 812.355 1043.94 805.23 1045.66 802.166 1048.69 799.102 1051.72 797.57 1059.55 797.57 1072.18L797.57 1198.66C797.57 1211.3 799.102 1219.13 802.166 1222.16 805.23 1225.19 812.355 1226.96 823.541 1227.47 824.514 1228.62 825 1230.6 825 1233.41 825 1236.22 824.51 1238.08 823.53 1239 803.451 1238.54 790.521 1238.31 784.742 1238.31 778.235 1238.31 765.073 1238.54 745.254 1239 744.64 1238.08 744.333 1236.22 744.333 1233.41 744.333 1230.6 744.722 1228.62 745.501 1227.47 756.686 1227.06 763.834 1225.32 766.947 1222.24 770.059 1219.16 771.615 1211.31 771.615 1198.69L771.615 1136.05 668.385 1136.05 668.385 1198.69C668.385 1211.31 669.955 1219.14 673.097 1222.16 676.238 1225.19 683.405 1226.96 694.598 1227.47 695.383 1228.62 695.8 1230.6 695.849 1233.41 695.898 1236.22 695.481 1238.08 694.598 1239 674.388 1238.54 661.374 1238.31 655.557 1238.31 649.091 1238.31 636.062 1238.54 616.47 1239 615.49 1238.08 615 1236.22 615 1233.41 615 1230.6 615.486 1228.62 616.458 1227.47 627.645 1227.06 634.77 1225.32 637.834 1222.24 640.898 1219.16 642.43 1211.3 642.43 1198.66L642.43 1072.18C642.43 1059.55 640.898 1051.72 637.834 1048.69 634.77 1045.66 627.645 1043.94 616.458 1043.53 615.486 1042.62 615 1040.76 615 1037.93 615 1035.11 615.49 1033.13 616.47 1032Z" fill="#532476" fill-rule="evenodd"/><path d="M1031.95 1032C1043.53 1032 1053.51 1033.39 1061.87 1036.16 1070.24 1038.93 1075.81 1040.53 1078.58 1040.96 1081.35 1055.17 1083.18 1068.48 1084.07 1080.87 1082.58 1081.98 1079.27 1082.58 1074.13 1082.68 1073.14 1079.47 1072.18 1076.58 1071.24 1074.02 1070.29 1071.45 1069.13 1068.77 1067.75 1065.95 1066.36 1063.14 1064.85 1060.68 1063.22 1058.57 1061.58 1056.46 1059.63 1054.4 1057.35 1052.39 1055.07 1050.38 1052.6 1048.72 1049.93 1047.42 1047.25 1046.11 1044.16 1045.08 1040.65 1044.33 1037.13 1043.57 1033.29 1043.2 1029.14 1043.2 1020.36 1043.2 1012.64 1046.76 1005.98 1053.9 999.319 1061.03 995.99 1068.97 995.99 1077.71 995.99 1082.53 997.075 1087.08 999.245 1091.35 1001.41 1095.62 1003.98 1099.18 1006.94 1102.05 1009.9 1104.91 1013.77 1107.75 1018.55 1110.56 1023.34 1113.37 1027.36 1115.46 1030.61 1116.81 1033.87 1118.17 1037.92 1119.8 1042.75 1121.71 1047.58 1123.62 1050.64 1124.83 1051.92 1125.33 1057.84 1127.94 1063.14 1130.73 1067.82 1133.69 1072.5 1136.66 1076.92 1140.27 1081.1 1144.54 1085.27 1148.81 1088.47 1153.86 1090.68 1159.69 1092.89 1165.51 1094 1171.94 1094 1178.98 1094 1188.75 1091.41 1198.13 1086.23 1207.1 1081.05 1216.07 1074.08 1223.33 1065.31 1228.87 1054.55 1235.62 1041.95 1239 1027.51 1239 1017.55 1239 1007.1 1237.8 996.167 1235.4 985.232 1232.99 976.787 1231.79 970.831 1231.79 967.892 1218.81 965.948 1203.16 965 1184.85 968.163 1183.15 971.475 1182.84 974.935 1183.95 981.482 1213.18 999.845 1227.8 1030.02 1227.8 1042.16 1227.8 1051.5 1224.56 1058.06 1218.08 1064.62 1211.6 1067.9 1202.18 1067.9 1189.83 1067.9 1184.2 1067.04 1179.05 1065.31 1174.38 1063.59 1169.71 1061.62 1165.94 1059.4 1163.08 1057.18 1160.22 1054.02 1157.45 1049.93 1154.79 1045.83 1152.13 1042.43 1150.19 1039.71 1148.99 1037 1147.78 1033.16 1146.2 1028.17 1144.24 1023.19 1142.28 1019.77 1140.9 1017.91 1140.1 1008.7 1136.18 1000.99 1132.09 994.782 1127.82 988.575 1123.55 983.221 1117.79 978.72 1110.56 974.219 1103.33 971.969 1095.19 971.969 1086.15 971.969 1070.08 977.839 1057.04 989.578 1047.02 1001.32 1037.01 1015.44 1032 1031.95 1032Z" fill="#532476" fill-rule="evenodd"/><path d="M854.545 1032 895.302 1032.68C902.2 1032.68 915.992 1032.45 936.679 1032 937.505 1033.13 937.944 1035.08 937.996 1037.85 938.047 1040.61 937.609 1042.51 936.679 1043.53 924.798 1043.94 917.232 1045.66 913.977 1048.69 910.723 1051.72 909.096 1059.55 909.096 1072.18L909.096 1198.66C909.096 1211.3 910.749 1219.13 914.055 1222.16 917.361 1225.19 924.902 1226.96 936.679 1227.47 937.505 1228.62 937.944 1230.6 937.996 1233.41 938.047 1236.22 937.609 1238.08 936.679 1239L895.616 1238.31C888.823 1238.31 875.132 1238.54 854.545 1239 853.515 1238.08 853 1236.22 853 1233.41 853 1230.6 853.511 1228.62 854.532 1227.47 866.288 1227.06 873.774 1225.32 876.993 1222.24 880.213 1219.16 881.823 1211.3 881.823 1198.66L881.823 1072.18C881.823 1059.55 880.213 1051.72 876.993 1048.69 873.774 1045.66 866.288 1043.94 854.532 1043.53 853.511 1042.62 853 1040.76 853 1037.93 853 1035.11 853.515 1033.13 854.545 1032Z" fill="#532476" fill-rule="evenodd"/><path d="M1130.51 1032C1150.12 1033.65 1172.7 1034.47 1198.26 1034.47L1223.27 1034.47C1249.02 1034.47 1270.75 1033.65 1288.46 1032 1289.03 1032 1289.31 1032.3 1289.31 1032.89 1289.5 1046.32 1290.73 1061.3 1293 1077.82 1290.82 1078.87 1287.56 1079.39 1283.21 1079.39 1280.85 1067.22 1276.39 1058.59 1269.83 1053.51 1263.27 1048.43 1254.28 1045.89 1242.86 1045.89L1236.49 1045.89C1231.49 1045.89 1228.02 1048.57 1226.08 1053.91 1224.15 1059.26 1223.18 1067.33 1223.18 1078.13L1223.18 1198.74C1223.18 1211.38 1224.81 1219.22 1228.06 1222.26 1231.32 1225.29 1239.04 1227.06 1251.21 1227.58 1252.15 1228.71 1252.65 1230.68 1252.7 1233.46 1252.74 1236.24 1252.25 1238.09 1251.21 1239L1210.84 1238.32C1202.67 1238.32 1189.05 1238.55 1169.97 1239 1169.4 1238.09 1169.11 1236.24 1169.11 1233.46 1169.11 1230.68 1169.49 1228.71 1170.24 1227.58 1182.32 1227.17 1190.01 1225.42 1193.29 1222.33 1196.57 1219.25 1198.2 1211.38 1198.2 1198.74L1198.2 1077.2C1198.2 1066.92 1197.19 1059.13 1195.15 1053.83 1193.12 1048.54 1189.55 1045.89 1184.44 1045.89L1170.25 1045.89C1160.22 1045.89 1151.99 1048.49 1145.56 1053.68 1139.12 1058.86 1134.58 1067.74 1131.93 1080.32 1127.86 1080.32 1124.55 1079.8 1122 1078.77 1125.88 1060.66 1128.29 1045.38 1129.24 1032.93 1129.24 1032.31 1129.66 1032 1130.51 1032Z" fill="#532476" fill-rule="evenodd"/><rect x="1295" y="1119" width="35.0001" height="36.0001"/><path d="M1328.6 1032.46 1358.38 1049.92 1340.22 1080.9 1310.43 1063.44Z" fill-rule="evenodd"/><path d="M1401.5 973.116 1418.74 1003.03 1387.59 1020.98 1370.35 991.065Z" fill-rule="evenodd"/><rect x="1456" y="1283" width="35.9998" height="35.0001"/><path d="M1369.67 1284.53 1387.13 1254.75 1418.14 1272.93 1400.68 1302.71Z" fill-rule="evenodd"/><path d="M1310.32 1211.68 1340.23 1194.45 1358.16 1225.56 1328.25 1242.8Z" fill-rule="evenodd"/><rect x="1621" y="1121" width="34" height="36.0001"/><path d="M1621.73 1243.47 1591.94 1226.01 1610.11 1195.02 1639.89 1212.48Z" fill-rule="evenodd"/><path d="M1548.82 1302.81 1531.59 1272.9 1562.74 1254.95 1579.97 1284.86Z" fill-rule="evenodd"/><rect x="1458" y="958" width="36.0001" height="35.0001"/><path d="M1580.66 991.396 1563.2 1021.18 1532.18 1003 1549.64 973.215Z" fill-rule="evenodd"/><path d="M1640.01 1064.24 1610.09 1081.48 1592.16 1050.36 1622.08 1033.13Z" fill-rule="evenodd"/></g></svg>