<svg width="625" height="206" xmlns="http://www.w3.org/2000/svg" xmlns:xlink="http://www.w3.org/1999/xlink" xml:space="preserve" overflow="hidden"><g transform="translate(-2436 -1484)"><path d="M2437.47 1484C2457.55 1484.45 2470.48 1484.68 2476.26 1484.68 2482.76 1484.68 2495.88 1484.45 2515.6 1484 2516.38 1485.12 2516.8 1487.06 2516.85 1489.82 2516.9 1492.57 2516.48 1494.46 2515.6 1495.47 2504.31 1495.88 2497.12 1497.59 2494.02 1500.6 2490.93 1503.62 2489.38 1511.4 2489.38 1523.96L2489.38 1574.21 2592.61 1574.21 2592.61 1523.96C2592.61 1511.4 2591.06 1503.62 2587.95 1500.6 2584.83 1497.59 2577.69 1495.88 2566.5 1495.47 2565.72 1494.57 2565.33 1492.72 2565.33 1489.9 2565.33 1487.09 2565.64 1485.12 2566.25 1484 2586.46 1484.45 2599.53 1484.68 2605.44 1484.68 2611.91 1484.68 2624.94 1484.45 2644.53 1484 2645.51 1485.12 2646 1487.06 2646 1489.82 2646 1492.57 2645.51 1494.46 2644.54 1495.47 2633.35 1495.88 2626.23 1497.59 2623.17 1500.61 2620.1 1503.62 2618.57 1511.41 2618.57 1523.99L2618.57 1649.86C2618.57 1662.43 2620.1 1670.23 2623.17 1673.24 2626.23 1676.25 2633.35 1678.02 2644.54 1678.53 2645.51 1679.67 2646 1681.64 2646 1684.44 2646 1687.23 2645.51 1689.09 2644.53 1690 2624.45 1689.54 2611.52 1689.31 2605.74 1689.31 2599.24 1689.31 2586.07 1689.54 2566.25 1690 2565.64 1689.09 2565.33 1687.23 2565.33 1684.44 2565.33 1681.64 2565.72 1679.67 2566.5 1678.53 2577.69 1678.12 2584.83 1676.39 2587.95 1673.32 2591.06 1670.26 2592.61 1662.45 2592.61 1649.89L2592.61 1587.54 2489.38 1587.54 2489.38 1649.89C2489.38 1662.45 2490.96 1670.23 2494.1 1673.25 2497.24 1676.26 2504.41 1678.02 2515.6 1678.53 2516.38 1679.67 2516.8 1681.64 2516.85 1684.44 2516.9 1687.23 2516.48 1689.09 2515.6 1690 2495.39 1689.54 2482.37 1689.31 2476.56 1689.31 2470.09 1689.31 2457.06 1689.54 2437.47 1690 2436.49 1689.09 2436 1687.23 2436 1684.44 2436 1681.64 2436.49 1679.67 2437.46 1678.53 2448.65 1678.12 2455.77 1676.38 2458.83 1673.32 2461.9 1670.25 2463.43 1662.43 2463.43 1649.86L2463.43 1523.99C2463.43 1511.41 2461.9 1503.62 2458.83 1500.61 2455.77 1497.59 2448.65 1495.88 2437.46 1495.47 2436.49 1494.57 2436 1492.72 2436 1489.9 2436 1487.09 2436.49 1485.12 2437.47 1484Z" fill="#532476" fill-rule="evenodd"/><path d="M2824.43 1484C2835.92 1484 2845.82 1485.38 2854.12 1488.14 2862.42 1490.9 2867.95 1492.49 2870.7 1492.92 2873.45 1507.06 2875.26 1520.3 2876.14 1532.64 2874.67 1533.74 2871.39 1534.34 2866.29 1534.44 2865.3 1531.24 2864.35 1528.36 2863.41 1525.81 2862.48 1523.26 2861.32 1520.59 2859.95 1517.79 2858.57 1514.99 2857.08 1512.54 2855.46 1510.44 2853.83 1508.34 2851.89 1506.29 2849.63 1504.29 2847.38 1502.29 2844.92 1500.64 2842.27 1499.34 2839.62 1498.04 2836.55 1497.02 2833.06 1496.27 2829.57 1495.52 2825.76 1495.14 2821.64 1495.14 2812.93 1495.14 2805.27 1498.69 2798.66 1505.79 2792.05 1512.89 2788.75 1520.79 2788.75 1529.49 2788.75 1534.29 2789.83 1538.81 2791.98 1543.06 2794.13 1547.31 2796.68 1550.86 2799.61 1553.71 2802.55 1556.56 2806.39 1559.38 2811.14 1562.18 2815.89 1564.98 2819.88 1567.05 2823.11 1568.4 2826.34 1569.75 2830.35 1571.38 2835.15 1573.28 2839.94 1575.18 2842.98 1576.38 2844.25 1576.88 2850.12 1579.48 2855.38 1582.25 2860.02 1585.2 2864.66 1588.15 2869.06 1591.75 2873.2 1596 2877.34 1600.25 2880.51 1605.27 2882.71 1611.07 2884.9 1616.87 2886 1623.27 2886 1630.27 2886 1640 2883.43 1649.33 2878.29 1658.25 2873.15 1667.18 2866.23 1674.4 2857.53 1679.92 2846.86 1686.64 2834.36 1690 2820.02 1690 2810.14 1690 2799.78 1688.8 2788.93 1686.41 2778.08 1684.02 2769.7 1682.83 2763.79 1682.83 2760.87 1669.91 2758.94 1654.34 2758 1636.11 2761.14 1634.42 2764.42 1634.12 2767.86 1635.22 2774.35 1664.31 2792.57 1678.86 2822.52 1678.86 2834.56 1678.86 2843.83 1675.63 2850.34 1669.18 2856.85 1662.74 2860.11 1653.36 2860.11 1641.06 2860.11 1635.47 2859.25 1630.34 2857.54 1625.69 2855.82 1621.04 2853.87 1617.29 2851.66 1614.45 2849.46 1611.6 2846.33 1608.85 2842.27 1606.2 2838.2 1603.55 2834.83 1601.62 2832.14 1600.42 2829.44 1599.22 2825.63 1597.65 2820.68 1595.7 2815.74 1593.75 2812.34 1592.37 2810.5 1591.57 2801.36 1587.68 2793.71 1583.6 2787.55 1579.35 2781.39 1575.1 2776.08 1569.38 2771.61 1562.18 2767.15 1554.98 2764.92 1546.88 2764.92 1537.89 2764.92 1521.9 2770.74 1508.92 2782.39 1498.95 2794.04 1488.98 2808.05 1484 2824.43 1484Z" fill="#532476" fill-rule="evenodd"/><path d="M2665.55 1484 2706.3 1484.68C2713.2 1484.68 2726.99 1484.45 2747.68 1484 2748.5 1485.12 2748.94 1487.06 2749 1489.82 2749.05 1492.57 2748.61 1494.46 2747.68 1495.47 2735.8 1495.88 2728.23 1497.59 2724.98 1500.61 2721.72 1503.62 2720.1 1511.41 2720.1 1523.99L2720.1 1649.86C2720.1 1662.43 2721.75 1670.23 2725.05 1673.24 2728.36 1676.26 2735.9 1678.02 2747.68 1678.53 2748.5 1679.67 2748.94 1681.64 2749 1684.44 2749.05 1687.23 2748.61 1689.09 2747.68 1690L2706.62 1689.31C2699.82 1689.31 2686.13 1689.54 2665.55 1690 2664.52 1689.09 2664 1687.23 2664 1684.44 2664 1681.64 2664.51 1679.67 2665.53 1678.53 2677.29 1678.12 2684.77 1676.38 2687.99 1673.32 2691.21 1670.25 2692.82 1662.43 2692.82 1649.86L2692.82 1523.99C2692.82 1511.41 2691.21 1503.62 2687.99 1500.61 2684.77 1497.59 2677.29 1495.88 2665.53 1495.47 2664.51 1494.57 2664 1492.72 2664 1489.9 2664 1487.09 2664.52 1485.12 2665.55 1484Z" fill="#532476" fill-rule="evenodd"/><path d="M2897.56 1484C2917.28 1485.64 2940 1486.46 2965.71 1486.46L2990.86 1486.46C3016.76 1486.46 3038.62 1485.64 3056.43 1484 3057 1484 3057.29 1484.3 3057.29 1484.89 3057.48 1498.26 3058.72 1513.16 3061 1529.6 3058.81 1530.64 3055.53 1531.16 3051.15 1531.16 3048.78 1519.05 3044.29 1510.46 3037.69 1505.41 3031.1 1500.35 3022.05 1497.82 3010.57 1497.82L3004.16 1497.82C2999.13 1497.82 2995.64 1500.49 2993.69 1505.81 2991.75 1511.13 2990.77 1519.16 2990.77 1529.91L2990.77 1649.93C2990.77 1662.52 2992.41 1670.32 2995.68 1673.34 2998.96 1676.36 3006.72 1678.12 3018.97 1678.63 3019.92 1679.76 3020.41 1681.72 3020.46 1684.49 3020.51 1687.26 3020.01 1689.1 3018.97 1690L2978.36 1689.32C2970.14 1689.32 2956.44 1689.55 2937.25 1690 2936.67 1689.1 2936.39 1687.26 2936.39 1684.49 2936.39 1681.72 2936.77 1679.76 2937.52 1678.63 2949.68 1678.22 2957.4 1676.48 2960.7 1673.41 2964 1670.34 2965.65 1662.52 2965.65 1649.93L2965.65 1528.98C2965.65 1518.75 2964.63 1511 2962.58 1505.73 2960.53 1500.46 2956.94 1497.82 2951.8 1497.82L2937.53 1497.82C2927.44 1497.82 2919.16 1500.41 2912.69 1505.57 2906.22 1510.73 2901.66 1519.57 2898.99 1532.08 2894.9 1532.08 2891.57 1531.57 2889 1530.55 2892.9 1512.52 2895.33 1497.31 2896.28 1484.92 2896.28 1484.31 2896.71 1484 2897.56 1484Z" fill="#532476" fill-rule="evenodd"/></g></svg>