<svg width="3193" height="620" xmlns="http://www.w3.org/2000/svg" xmlns:xlink="http://www.w3.org/1999/xlink" xml:space="preserve" overflow="hidden"><defs><clipPath id="clip0"><rect x="610" y="1295" width="3193" height="620"/></clipPath></defs><g clip-path="url(#clip0)" transform="translate(-610 -1295)"><path d="M2533.74 1429C2567.67 1431.83 2606.76 1433.25 2651.01 1433.25L2694.29 1433.25C2738.87 1433.25 2776.49 1431.83 2807.14 1429 2808.12 1429 2808.61 1429.51 2808.61 1430.54 2808.94 1453.64 2811.07 1479.39 2815 1507.8 2811.23 1509.6 2805.58 1510.5 2798.05 1510.5 2793.97 1489.57 2786.25 1474.74 2774.89 1466 2763.54 1457.26 2747.98 1452.89 2728.21 1452.89L2717.18 1452.89C2708.52 1452.89 2702.52 1457.49 2699.17 1466.69 2695.82 1475.88 2694.14 1489.76 2694.14 1508.33L2694.14 1715.75C2694.14 1737.5 2696.96 1750.99 2702.6 1756.2 2708.23 1761.42 2721.59 1764.47 2742.66 1765.36 2744.3 1767.31 2745.16 1770.68 2745.24 1775.47 2745.32 1780.26 2744.46 1783.44 2742.66 1785L2672.78 1783.83C2658.64 1783.83 2635.06 1784.22 2602.03 1785 2601.04 1783.44 2600.55 1780.26 2600.55 1775.47 2600.55 1770.68 2601.2 1767.31 2602.5 1765.36 2623.42 1764.65 2636.72 1761.64 2642.39 1756.33 2648.07 1751.03 2650.91 1737.5 2650.91 1715.75L2650.91 1506.74C2650.91 1489.05 2649.15 1475.66 2645.63 1466.55 2642.11 1457.45 2635.93 1452.89 2627.08 1452.89L2602.52 1452.89C2585.16 1452.89 2570.91 1457.35 2559.78 1466.28 2548.64 1475.2 2540.78 1490.47 2536.2 1512.09 2529.15 1512.09 2523.42 1511.21 2519 1509.44 2525.71 1478.29 2529.89 1452.01 2531.53 1430.59 2531.53 1429.53 2532.26 1429 2533.74 1429Z" fill-rule="evenodd"/><path d="M612.09 1430 661.946 1431.14C678.602 1431.14 698.673 1430.76 722.161 1430 723.554 1431.89 724.251 1435.15 724.251 1439.79 724.251 1444.42 723.554 1447.59 722.161 1449.3 714.673 1449.62 708.969 1450.27 705.051 1451.24 701.133 1452.21 698.13 1454.2 696.043 1457.2 693.956 1460.2 693.78 1464.53 695.516 1470.21L775.711 1716.35 776.755 1716.35 844.15 1540.56C846.588 1533.82 847.807 1527.08 847.807 1520.33 847.807 1515.67 846.936 1510.74 845.195 1505.56L837.097 1480.93C834.66 1472.8 829.522 1465.67 821.685 1459.54 813.848 1453.4 803.486 1449.99 790.6 1449.3 789.206 1447.78 788.51 1444.66 788.51 1439.93 788.51 1435.2 789.206 1431.89 790.6 1430L844.15 1431.14C854.077 1431.14 875.845 1430.76 909.454 1430 910.847 1431.89 911.545 1435.15 911.545 1439.79 911.545 1444.42 910.847 1447.59 909.454 1449.3 904.404 1449.64 900.747 1449.99 898.483 1450.33 896.219 1450.68 893.129 1451.54 889.21 1452.93 885.292 1454.31 882.941 1456 882.157 1457.99 881.374 1459.98 880.372 1462.92 879.154 1466.81 877.934 1470.71 878.718 1475.42 881.504 1480.95L958.564 1717.64 959.609 1717.64 1044.77 1475.25C1045.81 1472.13 1046.33 1469.32 1046.33 1466.81 1046.33 1464.3 1045.98 1462.14 1045.29 1460.32 1044.59 1458.51 1043.16 1456.99 1040.98 1455.78 1038.8 1454.57 1036.84 1453.62 1035.1 1452.93 1033.36 1452.24 1030.79 1451.63 1027.39 1451.11 1024 1450.59 1021.13 1450.25 1018.77 1450.07 1016.42 1449.9 1013.33 1449.64 1009.5 1449.3 1007.76 1447.78 1006.89 1444.66 1006.89 1439.93 1006.89 1435.2 1007.76 1431.89 1009.5 1430L1068.28 1431.14C1072.98 1431.14 1088.48 1430.76 1114.77 1430 1116.17 1431.89 1116.91 1435.15 1116.99 1439.79 1117.08 1444.42 1116.34 1447.59 1114.77 1449.3 1100.84 1449.99 1090.61 1452.97 1084.08 1458.25 1077.55 1463.53 1072.46 1471.27 1068.8 1481.48L963.527 1769.54C960.741 1777.67 955.952 1781.83 949.159 1782 940.974 1782 935.403 1777.68 932.442 1769.02L869.749 1580.35C866.615 1570.49 864.176 1565.56 862.435 1565.56 860.346 1565.56 857.821 1569.97 854.86 1578.8L780.413 1769.02C777.278 1777.5 772.33 1781.83 765.569 1782 757.418 1782 751.956 1777.66 749.181 1768.98L651.795 1478.5C647.093 1465.63 642.521 1457.71 638.082 1454.74 633.641 1451.77 624.976 1449.96 612.09 1449.3 610.697 1447.78 610 1444.66 610 1439.93 610 1435.2 610.697 1431.89 612.09 1430Z" fill-rule="evenodd"/><path d="M2231 1915 2169 1915 2169 1855.38 2179.37 1856.16 2231 1855Z" fill="#7F7F7F" fill-rule="evenodd"/><path d="M2071.89 1890 2018 1858.61 2048.11 1806 2074.27 1823.07 2102 1837.39Z" fill="#7F7F7F" fill-rule="evenodd"/><path d="M1947.23 1788 1916 1733.38 1968.1 1703 1993.1 1749.07 1999 1757.82Z" fill="#7F7F7F" fill-rule="evenodd"/><path d="M1950 1637 1890 1637 1890 1574 1949.62 1574 1948.84 1584.54Z" fill="#7F7F7F" fill-rule="evenodd"/><path d="M1968.61 1508 1916 1477.53 1947.39 1423 2000 1453.47 1982.93 1479.94Z" fill="#7F7F7F" fill-rule="evenodd"/><path d="M2047.83 1405 2018 1352.61 2071.98 1321 2102 1373.73 2056.47 1399.03Z" fill="#7F7F7F" fill-rule="evenodd"/><path d="M2169 1356 2169 1295 2231 1295 2231 1355.61 2220.63 1354.82Z" fill="#7F7F7F" fill-rule="evenodd"/><path d="M2351.89 1405 2325.73 1387.93 2298 1373.61 2328.11 1321 2382 1352.39Z" fill="#7F7F7F" fill-rule="evenodd"/><path d="M2431.9 1508 2406.9 1461.93 2401 1453.18 2452.77 1423 2484 1477.62Z" fill="#7F7F7F" fill-rule="evenodd"/><path d="M2510 1637 2450.38 1637 2451.16 1626.46 2450 1574 2510 1574Z" fill="#7F7F7F" fill-rule="evenodd"/><path d="M2452.99 1788 2401 1757.53 2417.86 1731.06 2432.01 1703 2484 1733.47Z" fill="#7F7F7F" fill-rule="evenodd"/><path d="M2328.02 1890 2298 1837.27 2343.53 1811.97 2352.17 1806 2382 1858.39Z" fill="#7F7F7F" fill-rule="evenodd"/><path d="M3087.64 1430 3166.72 1431.05 3278.9 1705.14C3281.04 1709.89 3282.46 1712.26 3283.17 1712.26 3284.24 1712.26 3285.93 1709.71 3288.25 1704.62L3404.17 1431.06 3475.5 1430C3477.27 1431.86 3478.2 1435.16 3478.28 1439.89 3478.37 1444.62 3477.44 1447.85 3475.5 1449.59 3457.64 1450.6 3446.67 1453.39 3442.6 1457.94 3438.53 1462.5 3437.11 1472.11 3438.36 1486.79L3454.96 1715.06C3455.6 1723.87 3456.07 1730.34 3456.37 1734.48 3456.67 1738.62 3457.48 1742.69 3458.81 1746.7 3460.14 1750.71 3461.46 1753.4 3462.79 1754.79 3464.12 1756.19 3466.5 1757.53 3469.95 1758.84 3473.4 1760.15 3476.94 1760.97 3480.56 1761.3 3484.19 1761.62 3489.45 1761.95 3496.35 1762.28 3498.12 1764.23 3499 1767.59 3499 1772.37 3499 1777.15 3498.12 1780.31 3496.35 1781.87 3472.47 1781.09 3452.41 1780.7 3436.15 1780.7 3431.13 1780.7 3411.35 1781.09 3376.82 1781.87 3375.05 1780.31 3374.16 1777.15 3374.16 1772.37 3374.16 1767.59 3375.05 1764.23 3376.82 1762.28 3383.89 1761.94 3388.93 1761.64 3391.94 1761.39 3394.94 1761.14 3398.21 1760.42 3401.75 1759.23 3405.29 1758.04 3407.54 1756.77 3408.52 1755.42 3409.49 1754.06 3410.43 1751.47 3411.34 1747.66 3412.24 1743.85 3412.6 1739.91 3412.42 1735.84 3412.23 1731.78 3411.86 1725.76 3411.3 1717.79L3397.43 1491.16 3396.1 1492.28 3273.79 1778.18C3271.66 1782.23 3269.09 1784.17 3266.08 1783.99 3262 1783.99 3259.26 1782.06 3257.84 1778.18L3145.1 1497.78 3144.03 1496.66 3123.34 1714.03C3121.96 1730.37 3123.43 1742.12 3127.74 1749.26 3132.05 1756.41 3142.61 1760.75 3159.41 1762.28 3160.83 1764.23 3161.53 1767.59 3161.53 1772.37 3161.53 1777.15 3160.83 1780.31 3159.41 1781.87 3137.66 1781.09 3120.74 1780.7 3108.64 1780.7 3099.38 1780.7 3083.88 1781.09 3062.12 1781.87 3060.71 1780.31 3060 1777.15 3060 1772.37 3060 1767.59 3060.71 1764.23 3062.12 1762.28 3076.98 1761.09 3087.06 1757.1 3092.36 1750.31 3097.67 1743.51 3101.12 1731.8 3102.71 1715.15L3124.52 1491.69C3126.3 1472.47 3125.41 1460.9 3121.87 1456.99 3118.33 1453.08 3106.92 1450.61 3087.64 1449.59 3085.87 1448.06 3084.99 1444.89 3084.99 1440.08 3084.99 1435.28 3085.87 1431.92 3087.64 1430Z" fill-rule="evenodd"/><path d="M3522.15 1427 3762.69 1427.54C3765.55 1439.91 3769.67 1466.15 3775.05 1506.26 3769.14 1509.18 3763.05 1510.09 3756.77 1508.99 3749.82 1486.53 3742.5 1470.73 3734.82 1461.59 3727.15 1452.46 3713.85 1447.89 3694.93 1447.89L3637.1 1447.89C3630.86 1447.89 3626.04 1450.22 3622.65 1454.88 3619.25 1459.53 3617.56 1465.42 3617.56 1472.53L3617.56 1584.78 3667.41 1584.78C3689.75 1584.78 3703.46 1582.54 3708.56 1578.08 3713.65 1573.62 3716.55 1563.1 3717.27 1546.53 3718.7 1544.7 3721.66 1543.79 3726.14 1543.79 3730.61 1543.79 3733.75 1544.69 3735.54 1546.49 3734.83 1568.64 3734.47 1584.58 3734.47 1594.3 3734.47 1600.9 3734.83 1616.97 3735.54 1642.49 3733.75 1644.55 3730.66 1645.58 3726.27 1645.58 3721.88 1645.58 3718.88 1644.67 3717.27 1642.85 3716.55 1632.83 3715.48 1625.64 3714.05 1621.26 3712.62 1616.89 3708.24 1613.02 3700.92 1609.65 3693.59 1606.28 3682.42 1604.6 3667.41 1604.6L3617.56 1604.6 3617.56 1738.29C3617.56 1754.17 3624.08 1762.11 3637.11 1762.11L3711.85 1762.11C3746.68 1762.11 3770.61 1737.93 3783.65 1689.58 3790.28 1688.13 3796.73 1689.04 3803 1692.28 3798.52 1720.93 3791.71 1751.17 3782.57 1783L3712.26 1781.93 3594.18 1781.93 3522.68 1783C3521.25 1781.42 3520.54 1778.22 3520.54 1773.39 3520.54 1768.55 3521.25 1765.15 3522.67 1763.18 3543.05 1762.47 3556.08 1759.47 3561.75 1754.17 3567.42 1748.87 3570.26 1735.36 3570.26 1713.63L3570.26 1496.1C3570.26 1474.38 3567.39 1460.91 3561.66 1455.7 3555.92 1450.49 3542.75 1447.53 3522.15 1446.82 3520.72 1445.26 3520 1442.04 3520 1437.15 3520 1432.27 3520.72 1428.89 3522.15 1427Z" fill-rule="evenodd"/><path d="M1344.64 1430 1414.29 1431.15C1426.08 1431.15 1449.65 1430.77 1485.01 1430 1486.42 1431.92 1487.17 1435.23 1487.26 1439.94 1487.34 1444.65 1486.59 1447.87 1485.01 1449.6 1464.7 1450.3 1451.77 1453.22 1446.21 1458.37 1440.65 1463.53 1437.87 1476.85 1437.87 1498.33L1437.87 1592.64C1454.64 1591.24 1468.94 1584.26 1480.77 1571.68L1570.28 1477.37C1575.75 1471.6 1579.19 1466.85 1580.61 1463.09 1582.02 1459.34 1581.18 1456.58 1578.09 1454.84 1575 1453.09 1572 1451.96 1569.09 1451.43 1566.17 1450.91 1561.54 1450.3 1555.18 1449.6 1553.42 1448.06 1552.49 1444.89 1552.4 1440.09 1552.31 1435.28 1553.24 1431.92 1555.18 1430L1616.36 1431.15C1616.71 1431.15 1633.92 1430.77 1668 1430 1669.76 1431.92 1670.64 1435.23 1670.64 1439.94 1670.64 1444.65 1669.76 1447.87 1668 1449.6 1646.81 1452.22 1631.45 1456.24 1621.92 1461.65 1614.32 1466.02 1606.82 1471.96 1599.41 1479.47L1519.7 1560.41C1506.98 1573.34 1500.72 1582.16 1500.89 1586.88 1500.89 1590.37 1503.19 1594.82 1507.78 1600.24L1626.68 1739.61C1630.21 1743.98 1633.79 1747.6 1637.41 1750.48 1641.03 1753.36 1644.91 1755.5 1649.06 1756.9L1658.33 1760.04C1660.36 1760.74 1663.58 1761.26 1668 1761.61L1674.35 1762.4C1676.12 1764.35 1677 1767.72 1677 1772.5 1677 1777.27 1676.12 1780.44 1674.35 1782L1619.53 1780.83C1614.41 1780.83 1604.7 1781.22 1590.4 1782 1588.99 1782 1588.02 1780.83 1587.49 1778.49 1586.08 1767.41 1579.63 1754.45 1568.16 1739.61L1482.89 1633.51C1472.47 1620.58 1457.46 1613.77 1437.87 1613.07L1437.87 1713.41C1437.87 1734.89 1440.69 1748.21 1446.34 1753.36 1451.99 1758.51 1464.88 1761.53 1485.01 1762.4 1486.42 1764.35 1487.17 1767.72 1487.26 1772.5 1487.34 1777.27 1486.59 1780.44 1485.01 1782L1414.83 1780.83C1403.22 1780.83 1379.82 1781.22 1344.64 1782 1342.88 1780.44 1342 1777.27 1342 1772.5 1342 1767.72 1342.87 1764.35 1344.62 1762.4 1364.71 1761.7 1377.5 1758.73 1383 1753.5 1388.51 1748.26 1391.26 1734.89 1391.26 1713.41L1391.26 1498.33C1391.26 1476.84 1388.51 1463.53 1383 1458.37 1377.5 1453.22 1364.71 1450.3 1344.62 1449.6 1342.87 1448.06 1342 1444.89 1342 1440.09 1342 1435.28 1342.88 1431.92 1344.64 1430Z" fill-rule="evenodd"/><path d="M2873.65 1432 2943.66 1433.16C2955.51 1433.16 2979.2 1432.77 3014.73 1432 3016.15 1433.92 3016.9 1437.23 3016.99 1441.94 3017.08 1446.65 3016.33 1449.87 3014.73 1451.6 2994.32 1452.3 2981.33 1455.22 2975.74 1460.37 2970.15 1465.53 2967.35 1478.84 2967.35 1500.33L2967.35 1715.41C2967.35 1736.89 2970.19 1750.21 2975.87 1755.36 2981.55 1760.51 2994.5 1763.53 3014.73 1764.4 3016.15 1766.35 3016.9 1769.72 3016.99 1774.5 3017.08 1779.27 3016.33 1782.44 3014.73 1784L2944.2 1782.83C2932.53 1782.83 2909.01 1783.22 2873.65 1784 2871.89 1782.44 2871 1779.27 2871 1774.5 2871 1769.72 2871.88 1766.35 2873.63 1764.4 2893.82 1763.7 2906.68 1760.73 2912.21 1755.5 2917.74 1750.26 2920.51 1736.89 2920.51 1715.41L2920.51 1500.33C2920.51 1478.84 2917.74 1465.53 2912.21 1460.37 2906.68 1455.22 2893.82 1452.3 2873.63 1451.6 2871.88 1450.06 2871 1446.89 2871 1442.09 2871 1437.28 2871.89 1433.92 2873.65 1432Z" fill-rule="evenodd"/><path d="M1729.65 1430 1799.66 1431.15C1811.51 1431.15 1835.2 1430.77 1870.73 1430 1872.15 1431.92 1872.9 1435.23 1872.99 1439.94 1873.08 1444.65 1872.33 1447.87 1870.73 1449.6 1850.32 1450.3 1837.33 1453.22 1831.74 1458.37 1826.15 1463.53 1823.35 1476.84 1823.35 1498.33L1823.35 1713.41C1823.35 1734.89 1826.19 1748.21 1831.87 1753.36 1837.55 1758.51 1850.5 1761.53 1870.73 1762.4 1872.15 1764.35 1872.9 1767.72 1872.99 1772.5 1873.08 1777.27 1872.33 1780.44 1870.73 1782L1800.2 1780.83C1788.53 1780.83 1765.01 1781.22 1729.65 1782 1727.89 1780.44 1727 1777.27 1727 1772.5 1727 1767.72 1727.88 1764.35 1729.63 1762.4 1749.82 1761.7 1762.68 1758.73 1768.21 1753.5 1773.74 1748.26 1776.51 1734.89 1776.51 1713.41L1776.51 1498.33C1776.51 1476.84 1773.74 1463.53 1768.21 1458.37 1762.68 1453.22 1749.82 1450.3 1729.63 1449.6 1727.88 1448.06 1727 1444.89 1727 1440.09 1727 1435.28 1727.89 1431.92 1729.65 1430Z" fill-rule="evenodd"/><path d="M1143.65 1430 1213.66 1431.15C1225.51 1431.15 1249.2 1430.77 1284.73 1430 1286.15 1431.92 1286.9 1435.23 1286.99 1439.94 1287.08 1444.65 1286.33 1447.87 1284.73 1449.6 1264.32 1450.3 1251.33 1453.22 1245.74 1458.37 1240.15 1463.53 1237.35 1476.84 1237.35 1498.33L1237.35 1713.41C1237.35 1734.89 1240.19 1748.21 1245.87 1753.36 1251.55 1758.51 1264.5 1761.53 1284.73 1762.4 1286.15 1764.35 1286.9 1767.72 1286.99 1772.5 1287.08 1777.27 1286.33 1780.44 1284.73 1782L1214.2 1780.83C1202.53 1780.83 1179.01 1781.22 1143.65 1782 1141.89 1780.44 1141 1777.27 1141 1772.5 1141 1767.72 1141.88 1764.35 1143.63 1762.4 1163.82 1761.7 1176.68 1758.73 1182.21 1753.5 1187.74 1748.26 1190.51 1734.89 1190.51 1713.41L1190.51 1498.33C1190.51 1476.84 1187.74 1463.53 1182.21 1458.37 1176.68 1453.22 1163.82 1450.3 1143.63 1449.6 1141.88 1448.06 1141 1444.89 1141 1440.09 1141 1435.28 1141.89 1431.92 1143.65 1430Z" fill-rule="evenodd"/></g></svg>