<svg width="1198" height="351" xmlns="http://www.w3.org/2000/svg" xmlns:xlink="http://www.w3.org/1999/xlink" xml:space="preserve" overflow="hidden"><defs><clipPath id="clip0"><rect x="675" y="1062" width="1198" height="351"/></clipPath></defs><g clip-path="url(#clip0)" transform="translate(-675 -1062)"><path d="M1349.65 1062 1419.51 1063.15C1431.33 1063.15 1454.97 1062.77 1490.43 1062 1491.85 1063.91 1492.6 1067.22 1492.69 1071.91 1492.78 1076.61 1492.03 1079.82 1490.43 1081.54 1470.07 1082.24 1457.1 1085.16 1451.52 1090.29 1445.94 1095.43 1443.15 1108.71 1443.15 1130.14L1443.15 1224.18C1459.97 1222.79 1474.32 1215.82 1486.18 1203.28L1575.96 1109.23C1581.45 1103.49 1584.9 1098.74 1586.32 1095 1587.73 1091.25 1586.89 1088.51 1583.79 1086.77 1580.69 1085.03 1577.69 1083.89 1574.76 1083.37 1571.84 1082.85 1567.19 1082.24 1560.82 1081.54 1559.05 1080.01 1558.12 1076.85 1558.03 1072.06 1557.94 1067.27 1558.87 1063.91 1560.82 1062L1622.17 1063.15C1622.53 1063.15 1639.79 1062.77 1673.97 1062 1675.74 1063.91 1676.62 1067.22 1676.62 1071.91 1676.62 1076.61 1675.74 1079.82 1673.97 1081.54 1652.72 1084.16 1637.32 1088.16 1627.75 1093.56 1620.14 1097.92 1612.61 1103.84 1605.18 1111.33L1525.23 1192.04C1512.48 1204.93 1506.19 1213.73 1506.37 1218.43 1506.37 1221.91 1508.67 1226.35 1513.27 1231.75L1632.53 1370.73C1636.08 1375.08 1639.66 1378.7 1643.29 1381.57 1646.92 1384.44 1650.82 1386.58 1654.98 1387.97L1664.27 1391.11C1666.31 1391.8 1669.54 1392.32 1673.97 1392.67L1680.34 1393.46C1682.11 1395.4 1683 1398.76 1683 1403.52 1683 1408.29 1682.11 1411.45 1680.34 1413L1625.36 1411.83C1620.23 1411.83 1610.49 1412.22 1596.14 1413 1594.73 1413 1593.75 1411.83 1593.22 1409.5 1591.81 1398.46 1585.34 1385.53 1573.83 1370.73L1488.31 1264.93C1477.86 1252.04 1462.81 1245.25 1443.15 1244.55L1443.15 1344.61C1443.15 1366.03 1445.99 1379.31 1451.65 1384.44 1457.32 1389.58 1470.25 1392.59 1490.43 1393.46 1491.85 1395.4 1492.6 1398.76 1492.69 1403.52 1492.78 1408.29 1492.03 1411.45 1490.43 1413L1420.05 1411.83C1408.4 1411.83 1384.94 1412.22 1349.65 1413 1347.88 1411.45 1347 1408.29 1347 1403.52 1347 1398.76 1347.88 1395.4 1349.63 1393.46 1369.78 1392.76 1382.61 1389.8 1388.13 1384.58 1393.64 1379.35 1396.4 1366.03 1396.4 1344.61L1396.4 1130.13C1396.4 1108.71 1393.64 1095.43 1388.13 1090.29 1382.61 1085.16 1369.78 1082.24 1349.63 1081.54 1347.88 1080.01 1347 1076.85 1347 1072.06 1347 1067.27 1347.88 1063.91 1349.65 1062Z" fill="#532476" fill-rule="evenodd"/><path d="M1729.65 1062 1799.66 1063.15C1811.51 1063.15 1835.2 1062.77 1870.73 1062 1872.15 1063.91 1872.9 1067.22 1872.99 1071.91 1873.08 1076.61 1872.33 1079.82 1870.73 1081.54 1850.32 1082.24 1837.33 1085.16 1831.74 1090.29 1826.15 1095.43 1823.35 1108.71 1823.35 1130.13L1823.35 1344.61C1823.35 1366.03 1826.19 1379.31 1831.87 1384.44 1837.55 1389.58 1850.5 1392.59 1870.73 1393.46 1872.15 1395.4 1872.9 1398.76 1872.99 1403.52 1873.08 1408.29 1872.33 1411.45 1870.73 1413L1800.2 1411.83C1788.53 1411.83 1765.01 1412.22 1729.65 1413 1727.89 1411.45 1727 1408.29 1727 1403.52 1727 1398.76 1727.88 1395.4 1729.63 1393.46 1749.82 1392.76 1762.68 1389.8 1768.21 1384.58 1773.74 1379.35 1776.51 1366.03 1776.51 1344.61L1776.51 1130.13C1776.51 1108.71 1773.74 1095.43 1768.21 1090.29 1762.68 1085.16 1749.82 1082.24 1729.63 1081.54 1727.88 1080.01 1727 1076.85 1727 1072.06 1727 1067.27 1727.89 1063.91 1729.65 1062Z" fill="#532476" fill-rule="evenodd"/><path d="M1159.65 1062 1229.66 1063.15C1241.51 1063.15 1265.2 1062.77 1300.73 1062 1302.15 1063.91 1302.9 1067.22 1302.99 1071.91 1303.08 1076.61 1302.33 1079.82 1300.73 1081.54 1280.32 1082.24 1267.33 1085.16 1261.74 1090.29 1256.15 1095.43 1253.35 1108.71 1253.35 1130.13L1253.35 1344.61C1253.35 1366.03 1256.19 1379.31 1261.87 1384.44 1267.55 1389.58 1280.5 1392.59 1300.73 1393.46 1302.15 1395.4 1302.9 1398.76 1302.99 1403.52 1303.08 1408.29 1302.33 1411.45 1300.73 1413L1230.2 1411.83C1218.53 1411.83 1195.01 1412.22 1159.65 1413 1157.89 1411.45 1157 1408.29 1157 1403.52 1157 1398.76 1157.88 1395.4 1159.63 1393.46 1179.82 1392.76 1192.68 1389.8 1198.21 1384.58 1203.74 1379.35 1206.51 1366.03 1206.51 1344.61L1206.51 1130.13C1206.51 1108.71 1203.74 1095.43 1198.21 1090.29 1192.68 1085.16 1179.82 1082.24 1159.63 1081.54 1157.88 1080.01 1157 1076.85 1157 1072.06 1157 1067.27 1157.89 1063.91 1159.65 1062Z" fill="#532476" fill-rule="evenodd"/><path d="M830.676 1413C837.442 1412.83 842.394 1408.51 845.53 1400.06L888.996 1283.28 890.041 1283.28 928.315 1400.06C931.278 1408.69 936.853 1413 945.044 1413 951.841 1412.83 956.633 1408.69 959.421 1400.58L1064.76 1113.33C1068.42 1103.15 1073.52 1095.43 1080.06 1090.17 1086.59 1084.91 1096.83 1081.93 1110.77 1081.24 1112.34 1079.54 1113.08 1076.38 1112.99 1071.76 1112.91 1067.14 1112.17 1063.89 1110.77 1062L1064.24 1063.13 1005.43 1062C1003.68 1063.89 1002.81 1067.19 1002.81 1071.9 1002.81 1076.62 1003.68 1079.73 1005.43 1081.24L1014.71 1082.02C1017.06 1082.19 1019.93 1082.54 1023.33 1083.05 1026.73 1083.57 1029.3 1084.17 1031.04 1084.86 1032.79 1085.56 1034.75 1086.5 1036.93 1087.71 1039.1 1088.92 1040.54 1090.43 1041.24 1092.24 1041.94 1094.05 1042.28 1096.21 1042.28 1098.71 1042.28 1101.21 1041.76 1104.01 1040.72 1107.12L955.5 1348.82 954.455 1348.82 916.181 1232.04C913.219 1223.42 907.643 1219.1 899.452 1219.1 892.655 1219.28 887.863 1223.42 885.075 1231.53L841.87 1347.53 840.825 1347.53 760.575 1102.09C758.838 1096.44 759.014 1092.11 761.102 1089.12 763.191 1086.13 766.196 1084.15 770.116 1083.18 774.037 1082.21 779.745 1081.56 787.239 1081.24 788.632 1079.54 789.329 1076.38 789.329 1071.76 789.329 1067.14 788.632 1063.89 787.239 1062 763.734 1062.76 743.649 1063.13 726.982 1063.13L677.091 1062C675.697 1063.89 675 1067.19 675 1071.9 675 1076.62 675.697 1079.73 677.091 1081.24 689.987 1081.9 698.657 1083.71 703.101 1086.67 707.544 1089.63 712.118 1097.53 716.823 1110.36L814.277 1400.02C817.054 1408.67 822.52 1413 830.676 1413Z" fill="#532476" fill-rule="evenodd"/></g></svg>