<svg width="1720" height="360" xmlns="http://www.w3.org/2000/svg" xmlns:xlink="http://www.w3.org/1999/xlink" xml:space="preserve" overflow="hidden"><defs><clipPath id="clip0"><rect x="73" y="1330" width="1720" height="360"/></clipPath></defs><g clip-path="url(#clip0)" transform="translate(-73 -1330)"><path d="M1123.51 1405C1143.12 1406.64 1165.7 1407.46 1191.26 1407.46L1216.27 1407.46C1242.02 1407.46 1263.75 1406.64 1281.46 1405 1282.03 1405 1282.31 1405.3 1282.31 1405.89 1282.5 1419.26 1283.73 1434.16 1286 1450.6 1283.82 1451.64 1280.56 1452.16 1276.21 1452.16 1273.85 1440.05 1269.39 1431.46 1262.83 1426.41 1256.27 1421.35 1247.28 1418.82 1235.86 1418.82L1229.49 1418.82C1224.49 1418.82 1221.02 1421.49 1219.08 1426.81 1217.15 1432.13 1216.18 1440.16 1216.18 1450.9L1216.18 1570.93C1216.18 1583.52 1217.81 1591.32 1221.06 1594.34 1224.32 1597.36 1232.04 1599.12 1244.21 1599.63 1245.15 1600.76 1245.65 1602.72 1245.7 1605.49 1245.74 1608.26 1245.25 1610.1 1244.21 1611L1203.84 1610.32C1195.67 1610.32 1182.05 1610.55 1162.97 1611 1162.4 1610.1 1162.11 1608.26 1162.11 1605.49 1162.11 1602.72 1162.49 1600.76 1163.24 1599.63 1175.32 1599.22 1183.01 1597.48 1186.29 1594.41 1189.57 1591.34 1191.2 1583.52 1191.2 1570.93L1191.2 1449.98C1191.2 1439.75 1190.19 1432 1188.15 1426.73 1186.12 1421.46 1182.55 1418.82 1177.44 1418.82L1163.25 1418.82C1153.22 1418.82 1144.99 1421.41 1138.56 1426.57 1132.12 1431.73 1127.58 1440.57 1124.93 1453.08 1120.87 1453.08 1117.55 1452.57 1115 1451.55 1118.88 1433.52 1121.29 1418.31 1122.24 1405.92 1122.24 1405.31 1122.66 1405 1123.51 1405Z" fill="#532476" fill-rule="evenodd"/><path d="M1388.06 1405 1433.99 1405.61 1499.15 1565.11C1500.39 1567.87 1501.22 1569.25 1501.63 1569.25 1502.25 1569.25 1503.24 1567.77 1504.58 1564.81L1571.92 1405.62 1613.35 1405C1614.38 1406.08 1614.92 1408 1614.97 1410.76 1615.02 1413.51 1614.48 1415.39 1613.35 1416.4 1602.97 1416.99 1596.6 1418.61 1594.24 1421.26 1591.87 1423.91 1591.05 1429.51 1591.78 1438.05L1601.42 1570.88C1601.79 1576.01 1602.06 1579.78 1602.24 1582.18 1602.41 1584.59 1602.88 1586.96 1603.66 1589.29 1604.43 1591.63 1605.2 1593.2 1605.97 1594 1606.74 1594.81 1608.12 1595.6 1610.13 1596.36 1612.13 1597.12 1614.19 1597.6 1616.29 1597.79 1618.4 1597.98 1621.45 1598.17 1625.46 1598.36 1626.49 1599.49 1627 1601.45 1627 1604.23 1627 1607.01 1626.49 1608.86 1625.46 1609.76 1611.59 1609.31 1599.94 1609.08 1590.5 1609.08 1587.58 1609.08 1576.09 1609.31 1556.03 1609.76 1555 1608.86 1554.49 1607.01 1554.49 1604.23 1554.49 1601.45 1555 1599.49 1556.03 1598.36 1560.14 1598.16 1563.06 1597.99 1564.81 1597.84 1566.56 1597.7 1568.46 1597.28 1570.51 1596.59 1572.57 1595.9 1573.88 1595.16 1574.44 1594.37 1575.01 1593.58 1575.55 1592.07 1576.08 1589.85 1576.61 1587.64 1576.82 1585.34 1576.71 1582.98 1576.6 1580.61 1576.38 1577.11 1576.06 1572.47L1568 1440.59 1567.23 1441.24 1496.18 1607.62C1494.95 1609.97 1493.46 1611.1 1491.7 1610.99 1489.34 1610.99 1487.74 1609.87 1486.92 1607.62L1421.43 1444.44 1420.81 1443.79 1408.79 1570.29C1407.99 1579.79 1408.84 1586.63 1411.35 1590.79 1413.85 1594.94 1419.99 1597.47 1429.74 1598.36 1430.57 1599.49 1430.98 1601.45 1430.98 1604.23 1430.98 1607.01 1430.57 1608.86 1429.74 1609.76 1417.11 1609.31 1407.28 1609.08 1400.25 1609.08 1394.88 1609.08 1385.87 1609.31 1373.23 1609.76 1372.41 1608.86 1372 1607.01 1372 1604.23 1372 1601.45 1372.41 1599.49 1373.23 1598.36 1381.86 1597.67 1387.72 1595.35 1390.8 1591.39 1393.88 1587.44 1395.88 1580.62 1396.81 1570.94L1409.48 1440.9C1410.51 1429.71 1410 1422.98 1407.94 1420.71 1405.88 1418.43 1399.25 1416.99 1388.06 1416.4 1387.03 1415.51 1386.52 1413.66 1386.52 1410.87 1386.52 1408.07 1387.03 1406.12 1388.06 1405Z" fill="#532476" fill-rule="evenodd"/><path d="M1630.25 1405 1769.64 1405.31C1771.3 1412.47 1773.69 1427.65 1776.8 1450.86 1773.38 1452.55 1769.85 1453.08 1766.21 1452.45 1762.18 1439.45 1757.94 1430.3 1753.49 1425.02 1749.04 1419.73 1741.34 1417.09 1730.37 1417.09L1696.86 1417.09C1693.24 1417.09 1690.45 1418.44 1688.48 1421.13 1686.52 1423.82 1685.54 1427.23 1685.54 1431.35L1685.54 1496.3 1714.43 1496.3C1727.37 1496.3 1735.32 1495.01 1738.27 1492.42 1741.22 1489.84 1742.9 1483.75 1743.32 1474.16 1744.15 1473.11 1745.86 1472.58 1748.46 1472.58 1751.05 1472.58 1752.87 1473.1 1753.91 1474.14 1753.49 1486.96 1753.28 1496.18 1753.28 1501.81 1753.28 1505.63 1753.49 1514.92 1753.91 1529.69 1752.87 1530.89 1751.08 1531.48 1748.53 1531.48 1745.99 1531.48 1744.25 1530.96 1743.32 1529.9 1742.9 1524.11 1742.28 1519.94 1741.45 1517.41 1740.62 1514.88 1738.09 1512.64 1733.84 1510.69 1729.6 1508.74 1723.13 1507.77 1714.43 1507.77L1685.54 1507.77 1685.54 1585.13C1685.54 1594.32 1689.31 1598.91 1696.87 1598.91L1740.18 1598.91C1760.36 1598.91 1774.23 1584.92 1781.79 1556.94 1785.63 1556.11 1789.37 1556.63 1793 1558.51 1790.4 1575.08 1786.46 1592.58 1781.16 1611L1740.42 1610.38 1671.99 1610.38 1630.55 1611C1629.73 1610.09 1629.31 1608.23 1629.31 1605.44 1629.31 1602.64 1629.72 1600.67 1630.55 1599.53 1642.36 1599.12 1649.91 1597.38 1653.19 1594.32 1656.48 1591.25 1658.12 1583.43 1658.12 1570.86L1658.12 1444.99C1658.12 1432.41 1656.46 1424.62 1653.14 1421.61 1649.82 1418.59 1642.19 1416.88 1630.25 1416.47 1629.42 1415.57 1629 1413.7 1629 1410.88 1629 1408.05 1629.42 1406.09 1630.25 1405Z" fill="#532476" fill-rule="evenodd"/><path d="M1286.54 1405 1327.3 1405.68C1334.2 1405.68 1347.99 1405.45 1368.68 1405 1369.5 1406.12 1369.94 1408.06 1370 1410.82 1370.05 1413.57 1369.61 1415.46 1368.68 1416.47 1356.8 1416.88 1349.23 1418.59 1345.98 1421.61 1342.72 1424.62 1341.1 1432.41 1341.1 1444.99L1341.1 1570.86C1341.1 1583.43 1342.75 1591.23 1346.05 1594.24 1349.36 1597.26 1356.9 1599.02 1368.68 1599.53 1369.5 1600.67 1369.94 1602.64 1370 1605.44 1370.05 1608.23 1369.61 1610.09 1368.68 1611L1327.62 1610.31C1320.82 1610.31 1307.13 1610.54 1286.54 1611 1285.52 1610.09 1285 1608.23 1285 1605.44 1285 1602.64 1285.51 1600.67 1286.53 1599.53 1298.29 1599.12 1305.77 1597.38 1308.99 1594.32 1312.21 1591.25 1313.82 1583.43 1313.82 1570.86L1313.82 1444.99C1313.82 1432.41 1312.21 1424.62 1308.99 1421.61 1305.77 1418.59 1298.29 1416.88 1286.53 1416.47 1285.51 1415.57 1285 1413.72 1285 1410.9 1285 1408.09 1285.52 1406.12 1286.54 1405Z" fill="#532476" fill-rule="evenodd"/><path d="M74.47 1405C94.549 1405.45 107.478 1405.68 113.257 1405.68 119.764 1405.68 132.878 1405.45 152.598 1405 153.383 1406.12 153.8 1408.06 153.849 1410.82 153.898 1413.57 153.481 1415.46 152.598 1416.47 141.307 1416.88 134.115 1418.59 131.023 1421.6 127.931 1424.62 126.385 1432.4 126.385 1444.96L126.385 1495.21 229.615 1495.21 229.615 1444.96C229.615 1432.4 228.059 1424.62 224.947 1421.6 221.834 1418.59 214.686 1416.88 203.501 1416.47 202.722 1415.57 202.333 1413.72 202.333 1410.9 202.333 1408.09 202.64 1406.12 203.254 1405 223.464 1405.45 236.527 1405.68 242.443 1405.68 248.908 1405.68 261.937 1405.45 281.53 1405 282.51 1406.12 283 1408.06 283 1410.82 283 1413.57 282.513 1415.46 281.541 1416.47 270.355 1416.88 263.23 1418.59 260.166 1421.61 257.102 1424.62 255.57 1432.41 255.57 1444.99L255.57 1570.86C255.57 1583.43 257.102 1591.23 260.166 1594.24 263.23 1597.26 270.355 1599.02 281.541 1599.53 282.513 1600.67 283 1602.64 283 1605.44 283 1608.23 282.51 1610.09 281.53 1611 261.45 1610.54 248.521 1610.32 242.742 1610.32 236.235 1610.32 223.072 1610.54 203.254 1611 202.64 1610.09 202.333 1608.23 202.333 1605.44 202.333 1602.64 202.722 1600.67 203.501 1599.53 214.686 1599.12 221.834 1597.39 224.947 1594.32 228.059 1591.26 229.615 1583.45 229.615 1570.89L229.615 1508.54 126.385 1508.54 126.385 1570.89C126.385 1583.45 127.955 1591.23 131.097 1594.25 134.238 1597.26 141.405 1599.02 152.598 1599.53 153.383 1600.67 153.8 1602.64 153.849 1605.44 153.898 1608.23 153.481 1610.09 152.598 1611 132.388 1610.54 119.374 1610.32 113.557 1610.32 107.091 1610.32 94.0622 1610.54 74.47 1611 73.4899 1610.09 72.9999 1608.23 72.9999 1605.44 72.9999 1602.64 73.4859 1600.67 74.4585 1599.53 85.6447 1599.12 92.7697 1597.38 95.8339 1594.32 98.8977 1591.25 100.429 1583.43 100.429 1570.86L100.429 1444.99C100.429 1432.41 98.8977 1424.62 95.8339 1421.61 92.7697 1418.59 85.6447 1416.88 74.4585 1416.47 73.4859 1415.57 72.9999 1413.72 72.9999 1410.9 72.9999 1408.09 73.4899 1406.12 74.47 1405Z" fill="#532476" fill-rule="evenodd"/><path d="M489.428 1405C500.922 1405 510.82 1406.38 519.121 1409.14 527.422 1411.9 532.948 1413.49 535.699 1413.92 538.445 1428.06 540.26 1441.3 541.143 1453.64 539.671 1454.74 536.385 1455.34 531.285 1455.44 530.303 1452.24 529.345 1449.36 528.411 1446.81 527.478 1444.26 526.324 1441.59 524.95 1438.79 523.575 1435.99 522.077 1433.54 520.455 1431.44 518.834 1429.34 516.894 1427.29 514.634 1425.29 512.375 1423.29 509.92 1421.64 507.268 1420.34 504.616 1419.04 501.546 1418.02 498.059 1417.27 494.571 1416.52 490.765 1416.14 486.639 1416.14 477.928 1416.14 470.269 1419.69 463.661 1426.79 457.054 1433.89 453.75 1441.79 453.75 1450.49 453.75 1455.29 454.826 1459.81 456.979 1464.06 459.133 1468.31 461.678 1471.86 464.614 1474.71 467.55 1477.56 471.392 1480.38 476.139 1483.18 480.886 1485.98 484.875 1488.05 488.106 1489.4 491.337 1490.75 495.35 1492.38 500.146 1494.28 504.942 1496.18 507.977 1497.38 509.248 1497.88 515.121 1500.48 520.379 1503.25 525.021 1506.2 529.663 1509.15 534.055 1512.75 538.198 1517 542.34 1521.25 545.51 1526.27 547.706 1532.07 549.902 1537.87 551 1544.27 551 1551.27 551 1561 548.43 1570.33 543.291 1579.25 538.152 1588.18 531.232 1595.4 522.533 1600.92 511.859 1607.64 499.356 1611 485.023 1611 475.141 1611 464.775 1609.8 453.925 1607.41 443.076 1605.02 434.696 1603.83 428.786 1603.83 425.87 1590.91 423.941 1575.34 423 1557.11 426.139 1555.42 429.425 1555.12 432.858 1556.22 439.354 1585.31 457.575 1599.86 487.52 1599.86 499.559 1599.86 508.834 1596.63 515.343 1590.18 521.851 1583.74 525.106 1574.36 525.106 1562.06 525.106 1556.47 524.249 1551.34 522.537 1546.69 520.824 1542.04 518.867 1538.29 516.664 1535.45 514.462 1532.6 511.33 1529.85 507.267 1527.2 503.204 1524.55 499.827 1522.62 497.136 1521.42 494.445 1520.22 490.627 1518.65 485.684 1516.7 480.741 1514.75 477.345 1513.37 475.497 1512.57 466.359 1508.68 458.711 1504.6 452.552 1500.35 446.392 1496.1 441.08 1490.38 436.614 1483.18 432.148 1475.98 429.915 1467.88 429.915 1458.89 429.915 1442.9 435.739 1429.92 447.388 1419.95 459.036 1409.98 473.049 1405 489.428 1405Z" fill="#532476" fill-rule="evenodd"/><path d="M312.527 1405 352.804 1405.68C359.621 1405.68 373.25 1405.45 393.695 1405 394.511 1406.12 394.945 1408.06 394.996 1410.82 395.047 1413.57 394.613 1415.46 393.695 1416.47 381.953 1416.88 374.476 1418.59 371.259 1421.61 368.044 1424.62 366.436 1432.41 366.436 1444.99L366.436 1570.86C366.436 1583.43 368.07 1591.23 371.337 1594.24 374.604 1597.26 382.056 1599.02 393.695 1599.53 394.511 1600.67 394.945 1602.64 394.996 1605.44 395.047 1608.23 394.613 1610.09 393.695 1611L353.115 1610.31C346.401 1610.31 332.871 1610.54 312.527 1611 311.509 1610.09 311 1608.23 311 1605.44 311 1602.64 311.505 1600.67 312.515 1599.53 324.132 1599.12 331.53 1597.38 334.711 1594.32 337.893 1591.25 339.484 1583.43 339.484 1570.86L339.484 1444.99C339.484 1432.41 337.893 1424.62 334.711 1421.61 331.53 1418.59 324.132 1416.88 312.515 1416.47 311.505 1415.57 311 1413.72 311 1410.9 311 1408.09 311.509 1406.12 312.527 1405Z" fill="#532476" fill-rule="evenodd"/><path d="M587.563 1405C607.279 1406.64 629.995 1407.46 655.71 1407.46L680.857 1407.46C706.762 1407.46 728.621 1406.64 746.432 1405 747.003 1405 747.288 1405.3 747.288 1405.89 747.479 1419.26 748.715 1434.16 751 1450.6 748.811 1451.64 745.528 1452.16 741.15 1452.16 738.778 1440.05 734.292 1431.46 727.694 1426.41 721.097 1421.35 712.054 1418.82 700.566 1418.82L694.158 1418.82C689.127 1418.82 685.639 1421.49 683.692 1426.81 681.746 1432.13 680.772 1440.16 680.772 1450.9L680.772 1570.93C680.772 1583.52 682.409 1591.32 685.685 1594.34 688.959 1597.36 696.721 1599.12 708.967 1599.63 709.916 1600.76 710.414 1602.72 710.461 1605.49 710.509 1608.26 710.012 1610.1 708.967 1611L668.356 1610.32C660.144 1610.32 646.441 1610.55 627.246 1611 626.674 1610.1 626.389 1608.26 626.389 1605.49 626.389 1602.72 626.766 1600.76 627.52 1599.63 639.676 1599.22 647.404 1597.48 650.702 1594.41 654.001 1591.34 655.65 1583.52 655.65 1570.93L655.65 1449.98C655.65 1439.75 654.628 1432 652.582 1426.73 650.535 1421.46 646.943 1418.82 641.805 1418.82L627.531 1418.82C617.444 1418.82 609.165 1421.41 602.694 1426.57 596.223 1431.73 591.656 1440.57 588.992 1453.08 584.899 1453.08 581.569 1452.57 579 1451.55 582.901 1433.52 585.328 1418.31 586.279 1405.92 586.279 1405.31 586.707 1405 587.563 1405Z" fill="#532476" fill-rule="evenodd"/><rect x="753" y="1492" width="33.9997" height="35.0001" fill="#595959"/><path d="M786.229 1404.77 816.013 1422.23 797.851 1453.21 768.066 1435.75Z" fill="#595959" fill-rule="evenodd"/><path d="M859.135 1345.42 876.371 1375.34 845.221 1393.29 827.985 1363.37Z" fill="#595959" fill-rule="evenodd"/><rect x="914" y="1656" width="36.0001" height="34" fill="#595959"/><path d="M827.301 1656.84 844.76 1627.06 875.775 1645.24 858.316 1675.02Z" fill="#595959" fill-rule="evenodd"/><path d="M767.949 1583.99 797.863 1566.75 815.794 1597.87 785.879 1615.11Z" fill="#595959" fill-rule="evenodd"/><rect x="1078" y="1493" width="35.0001" height="36.0001" fill="#595959"/><path d="M1079.36 1615.78 1049.58 1598.32 1067.74 1567.33 1097.52 1584.79Z" fill="#595959" fill-rule="evenodd"/><path d="M1006.45 1675.12 989.219 1645.21 1020.37 1627.26 1037.6 1657.17Z" fill="#595959" fill-rule="evenodd"/><rect x="916" y="1330" width="35.0001" height="35.0001" fill="#595959"/><path d="M1038.29 1363.7 1020.83 1393.49 989.815 1375.31 1007.27 1345.52Z" fill="#595959" fill-rule="evenodd"/><path d="M1097.64 1436.55 1067.73 1453.79 1049.8 1422.67 1079.71 1405.43Z" fill="#595959" fill-rule="evenodd"/></g></svg>