<svg width="1689" height="359" xmlns="http://www.w3.org/2000/svg" xmlns:xlink="http://www.w3.org/1999/xlink" xml:space="preserve" overflow="hidden"><g transform="translate(-2436 -1410)"><path d="M3287 1769 3251 1769 3251 1734.22 3257.02 1734.68 3287 1734Z" fill-rule="evenodd"/><path d="M3195.44 1754 3164 1736.06 3181.56 1706 3196.82 1715.75 3213 1723.94Z" fill-rule="evenodd"/><path d="M3122.44 1695 3104 1663.51 3134.76 1646 3149.52 1672.56 3153 1677.6Z" fill-rule="evenodd"/><path d="M3124 1608 3089 1608 3089 1571 3123.78 1571 3123.32 1577.19Z" fill-rule="evenodd"/><path d="M3134.69 1533 3104 1515.44 3122.31 1484 3153 1501.56 3143.04 1516.82Z" fill-rule="evenodd"/><path d="M3181.4 1473 3164 1443.06 3195.49 1425 3213 1455.13 3186.44 1469.59Z" fill-rule="evenodd"/><path d="M3251 1445 3251 1410 3287 1410 3287 1444.78 3280.98 1444.32Z" fill-rule="evenodd"/><path d="M3357.44 1473 3342.18 1463.25 3326 1455.06 3343.56 1425 3375 1442.94Z" fill-rule="evenodd"/><path d="M3403.87 1533 3389.41 1506.44 3386 1501.4 3415.94 1484 3434 1515.49Z" fill-rule="evenodd"/><path d="M3449 1608 3414.22 1608 3414.68 1601.81 3414 1571 3449 1571Z" fill-rule="evenodd"/><path d="M3416.06 1695 3386 1677.44 3395.75 1662.18 3403.94 1646 3434 1663.56Z" fill-rule="evenodd"/><path d="M3343.51 1754 3326 1723.87 3352.56 1709.41 3357.6 1706 3375 1735.94Z" fill-rule="evenodd"/><path d="M2437.47 1484C2457.55 1484.45 2470.48 1484.68 2476.26 1484.68 2482.76 1484.68 2495.88 1484.45 2515.6 1484 2516.38 1485.12 2516.8 1487.06 2516.85 1489.82 2516.9 1492.57 2516.48 1494.46 2515.6 1495.47 2504.31 1495.88 2497.12 1497.59 2494.02 1500.6 2490.93 1503.62 2489.38 1511.4 2489.38 1523.96L2489.38 1574.21 2592.61 1574.21 2592.61 1523.96C2592.61 1511.4 2591.06 1503.62 2587.95 1500.6 2584.83 1497.59 2577.69 1495.88 2566.5 1495.47 2565.72 1494.57 2565.33 1492.72 2565.33 1489.9 2565.33 1487.09 2565.64 1485.12 2566.25 1484 2586.46 1484.45 2599.53 1484.68 2605.44 1484.68 2611.91 1484.68 2624.94 1484.45 2644.53 1484 2645.51 1485.12 2646 1487.06 2646 1489.82 2646 1492.57 2645.51 1494.46 2644.54 1495.47 2633.35 1495.88 2626.23 1497.59 2623.17 1500.61 2620.1 1503.62 2618.57 1511.41 2618.57 1523.99L2618.57 1649.86C2618.57 1662.43 2620.1 1670.23 2623.17 1673.24 2626.23 1676.25 2633.35 1678.02 2644.54 1678.53 2645.51 1679.67 2646 1681.64 2646 1684.44 2646 1687.23 2645.51 1689.09 2644.53 1690 2624.45 1689.54 2611.52 1689.31 2605.74 1689.31 2599.24 1689.31 2586.07 1689.54 2566.25 1690 2565.64 1689.09 2565.33 1687.23 2565.33 1684.44 2565.33 1681.64 2565.72 1679.67 2566.5 1678.53 2577.69 1678.12 2584.83 1676.39 2587.95 1673.32 2591.06 1670.26 2592.61 1662.45 2592.61 1649.89L2592.61 1587.54 2489.38 1587.54 2489.38 1649.89C2489.38 1662.45 2490.96 1670.23 2494.1 1673.25 2497.24 1676.26 2504.41 1678.02 2515.6 1678.53 2516.38 1679.67 2516.8 1681.64 2516.85 1684.44 2516.9 1687.23 2516.48 1689.09 2515.6 1690 2495.39 1689.54 2482.37 1689.31 2476.56 1689.31 2470.09 1689.31 2457.06 1689.54 2437.47 1690 2436.49 1689.09 2436 1687.23 2436 1684.44 2436 1681.64 2436.49 1679.67 2437.46 1678.53 2448.65 1678.12 2455.77 1676.38 2458.83 1673.32 2461.9 1670.25 2463.43 1662.43 2463.43 1649.86L2463.43 1523.99C2463.43 1511.41 2461.9 1503.62 2458.83 1500.61 2455.77 1497.59 2448.65 1495.88 2437.46 1495.47 2436.49 1494.57 2436 1492.72 2436 1489.9 2436 1487.09 2436.49 1485.12 2437.47 1484Z" fill="#532476" fill-rule="evenodd"/><path d="M2824.43 1484C2835.92 1484 2845.82 1485.38 2854.12 1488.14 2862.42 1490.9 2867.95 1492.49 2870.7 1492.92 2873.45 1507.06 2875.26 1520.3 2876.14 1532.64 2874.67 1533.74 2871.39 1534.34 2866.29 1534.44 2865.3 1531.24 2864.35 1528.36 2863.41 1525.81 2862.48 1523.26 2861.32 1520.59 2859.95 1517.79 2858.57 1514.99 2857.08 1512.54 2855.46 1510.44 2853.83 1508.34 2851.89 1506.29 2849.63 1504.29 2847.38 1502.29 2844.92 1500.64 2842.27 1499.34 2839.62 1498.04 2836.55 1497.02 2833.06 1496.27 2829.57 1495.52 2825.76 1495.14 2821.64 1495.14 2812.93 1495.14 2805.27 1498.69 2798.66 1505.79 2792.05 1512.89 2788.75 1520.79 2788.75 1529.49 2788.75 1534.29 2789.83 1538.81 2791.98 1543.06 2794.13 1547.31 2796.68 1550.86 2799.61 1553.71 2802.55 1556.56 2806.39 1559.38 2811.14 1562.18 2815.89 1564.98 2819.88 1567.05 2823.11 1568.4 2826.34 1569.75 2830.35 1571.38 2835.15 1573.28 2839.94 1575.18 2842.98 1576.38 2844.25 1576.88 2850.12 1579.48 2855.38 1582.25 2860.02 1585.2 2864.66 1588.15 2869.06 1591.75 2873.2 1596 2877.34 1600.25 2880.51 1605.27 2882.71 1611.07 2884.9 1616.87 2886 1623.27 2886 1630.27 2886 1640 2883.43 1649.33 2878.29 1658.25 2873.15 1667.18 2866.23 1674.4 2857.53 1679.92 2846.86 1686.64 2834.36 1690 2820.02 1690 2810.14 1690 2799.78 1688.8 2788.93 1686.41 2778.08 1684.02 2769.7 1682.83 2763.79 1682.83 2760.87 1669.91 2758.94 1654.34 2758 1636.11 2761.14 1634.42 2764.42 1634.12 2767.86 1635.22 2774.35 1664.31 2792.57 1678.86 2822.52 1678.86 2834.56 1678.86 2843.83 1675.63 2850.34 1669.18 2856.85 1662.74 2860.11 1653.36 2860.11 1641.06 2860.11 1635.47 2859.25 1630.34 2857.54 1625.69 2855.82 1621.04 2853.87 1617.29 2851.66 1614.45 2849.46 1611.6 2846.33 1608.85 2842.27 1606.2 2838.2 1603.55 2834.83 1601.62 2832.14 1600.42 2829.44 1599.22 2825.63 1597.65 2820.68 1595.7 2815.74 1593.75 2812.34 1592.37 2810.5 1591.57 2801.36 1587.68 2793.71 1583.6 2787.55 1579.35 2781.39 1575.1 2776.08 1569.38 2771.61 1562.18 2767.15 1554.98 2764.92 1546.88 2764.92 1537.89 2764.92 1521.9 2770.74 1508.92 2782.39 1498.95 2794.04 1488.98 2808.05 1484 2824.43 1484Z" fill="#532476" fill-rule="evenodd"/><path d="M2665.55 1484 2706.3 1484.68C2713.2 1484.68 2726.99 1484.45 2747.68 1484 2748.5 1485.12 2748.94 1487.06 2749 1489.82 2749.05 1492.57 2748.61 1494.46 2747.68 1495.47 2735.8 1495.88 2728.23 1497.59 2724.98 1500.61 2721.72 1503.62 2720.1 1511.41 2720.1 1523.99L2720.1 1649.86C2720.1 1662.43 2721.75 1670.23 2725.05 1673.24 2728.36 1676.26 2735.9 1678.02 2747.68 1678.53 2748.5 1679.67 2748.94 1681.64 2749 1684.44 2749.05 1687.23 2748.61 1689.09 2747.68 1690L2706.62 1689.31C2699.82 1689.31 2686.13 1689.54 2665.55 1690 2664.52 1689.09 2664 1687.23 2664 1684.44 2664 1681.64 2664.51 1679.67 2665.53 1678.53 2677.29 1678.12 2684.77 1676.38 2687.99 1673.32 2691.21 1670.25 2692.82 1662.43 2692.82 1649.86L2692.82 1523.99C2692.82 1511.41 2691.21 1503.62 2687.99 1500.61 2684.77 1497.59 2677.29 1495.88 2665.53 1495.47 2664.51 1494.57 2664 1492.72 2664 1489.9 2664 1487.09 2664.52 1485.12 2665.55 1484Z" fill="#532476" fill-rule="evenodd"/><path d="M2897.56 1484C2917.28 1485.64 2940 1486.46 2965.71 1486.46L2990.86 1486.46C3016.76 1486.46 3038.62 1485.64 3056.43 1484 3057 1484 3057.29 1484.3 3057.29 1484.89 3057.48 1498.26 3058.72 1513.16 3061 1529.6 3058.81 1530.64 3055.53 1531.16 3051.15 1531.16 3048.78 1519.05 3044.29 1510.46 3037.69 1505.41 3031.1 1500.35 3022.05 1497.82 3010.57 1497.82L3004.16 1497.82C2999.13 1497.82 2995.64 1500.49 2993.69 1505.81 2991.75 1511.13 2990.77 1519.16 2990.77 1529.91L2990.77 1649.93C2990.77 1662.52 2992.41 1670.32 2995.68 1673.34 2998.96 1676.36 3006.72 1678.12 3018.97 1678.63 3019.92 1679.76 3020.41 1681.72 3020.46 1684.49 3020.51 1687.26 3020.01 1689.1 3018.97 1690L2978.36 1689.32C2970.14 1689.32 2956.44 1689.55 2937.25 1690 2936.67 1689.1 2936.39 1687.26 2936.39 1684.49 2936.39 1681.72 2936.77 1679.76 2937.52 1678.63 2949.68 1678.22 2957.4 1676.48 2960.7 1673.41 2964 1670.34 2965.65 1662.52 2965.65 1649.93L2965.65 1528.98C2965.65 1518.75 2964.63 1511 2962.58 1505.73 2960.53 1500.46 2956.94 1497.82 2951.8 1497.82L2937.53 1497.82C2927.44 1497.82 2919.16 1500.41 2912.69 1505.57 2906.22 1510.73 2901.66 1519.57 2898.99 1532.08 2894.9 1532.08 2891.57 1531.57 2889 1530.55 2892.9 1512.52 2895.33 1497.31 2896.28 1484.92 2896.28 1484.31 2896.71 1484 2897.56 1484Z" fill="#532476" fill-rule="evenodd"/><path d="M3783.98 1484 3829.71 1484.61 3839.26 1508.09 3875.35 1644.11C3876.59 1646.87 3877.41 1648.25 3877.82 1648.25 3878.44 1648.25 3879.42 1646.77 3880.76 1643.81L3919.16 1484.62 3960.41 1484C3961.43 1485.08 3961.97 1487 3962.02 1489.76 3962.07 1492.51 3961.53 1494.39 3960.41 1495.4 3950.08 1495.99 3943.74 1497.61 3941.38 1500.26 3939.03 1502.91 3938.21 1508.51 3938.93 1517.05L3948.53 1649.88C3948.9 1655.01 3949.18 1658.78 3949.35 1661.18 3949.52 1663.59 3949.99 1665.96 3950.76 1668.29 3951.53 1670.63 3952.29 1672.2 3953.06 1673 3953.83 1673.81 3955.21 1674.6 3957.2 1675.36 3959.2 1676.12 3961.24 1676.6 3963.34 1676.79 3965.43 1676.98 3968.48 1677.17 3972.47 1677.36 3973.49 1678.49 3974 1680.45 3974 1683.23 3974 1686.01 3973.49 1687.85 3972.47 1688.76 3958.66 1688.31 3947.06 1688.08 3937.66 1688.08 3934.75 1688.08 3923.31 1688.31 3903.34 1688.76 3902.32 1687.85 3901.81 1686.01 3901.81 1683.23 3901.81 1680.45 3902.32 1678.49 3903.34 1677.36 3907.43 1677.16 3910.35 1676.99 3912.09 1676.84 3913.83 1676.7 3915.72 1676.28 3917.76 1675.59 3919.81 1674.9 3921.11 1674.16 3921.67 1673.37 3922.24 1672.58 3922.78 1671.07 3923.31 1668.85 3923.83 1666.63 3924.04 1664.34 3923.93 1661.98 3923.82 1659.61 3923.61 1656.11 3923.28 1651.47L3915.26 1519.59 3914.5 1520.24 3872.4 1686.62C3871.17 1688.97 3869.68 1690.1 3867.94 1689.99 3865.58 1689.99 3863.99 1688.87 3863.17 1686.62L3817.21 1523.44 3816.6 1522.79 3804.63 1649.29C3803.83 1658.79 3804.68 1665.63 3807.17 1669.79 3809.67 1673.94 3815.77 1676.47 3825.49 1677.36 3826.31 1678.49 3826.72 1680.45 3826.72 1683.23 3826.72 1686.01 3826.31 1687.85 3825.49 1688.76 3812.91 1688.31 3803.12 1688.08 3796.13 1688.08 3790.77 1688.08 3781.81 1688.31 3769.23 1688.76 3768.41 1687.85 3768 1686.01 3768 1683.23 3768 1680.45 3768.41 1678.49 3769.23 1677.36 3777.82 1676.67 3783.65 1674.35 3786.72 1670.39 3789.78 1666.44 3791.78 1659.62 3792.7 1649.94L3805.31 1519.9C3806.34 1508.71 3805.83 1501.98 3803.78 1499.71 3801.73 1497.43 3795.13 1496 3783.98 1495.4 3782.96 1494.51 3782.45 1492.66 3782.45 1489.87 3782.45 1487.07 3782.96 1485.12 3783.98 1484Z" fill="#532476" fill-rule="evenodd"/><path d="M3485.56 1484C3505.28 1485.64 3528 1486.46 3553.71 1486.46L3578.86 1486.46C3604.76 1486.46 3626.62 1485.64 3644.43 1484 3645 1484 3645.29 1484.3 3645.29 1484.89 3645.48 1498.26 3646.72 1513.16 3649 1529.6 3646.81 1530.64 3643.53 1531.16 3639.15 1531.16 3636.78 1519.05 3632.29 1510.46 3625.69 1505.41 3619.1 1500.35 3610.05 1497.82 3598.57 1497.82L3592.16 1497.82C3587.13 1497.82 3583.64 1500.49 3581.69 1505.81 3579.75 1511.13 3578.77 1519.16 3578.77 1529.91L3578.77 1649.93C3578.77 1662.52 3580.41 1670.32 3583.68 1673.34 3586.96 1676.36 3594.72 1678.12 3606.97 1678.63 3607.92 1679.76 3608.41 1681.72 3608.46 1684.49 3608.51 1687.26 3608.01 1689.1 3606.97 1690L3566.36 1689.32C3558.14 1689.32 3544.44 1689.55 3525.25 1690 3524.67 1689.1 3524.39 1687.26 3524.39 1684.49 3524.39 1681.72 3524.77 1679.76 3525.52 1678.63 3537.68 1678.22 3545.4 1676.48 3548.7 1673.41 3552 1670.34 3553.65 1662.52 3553.65 1649.93L3553.65 1528.98C3553.65 1518.75 3552.63 1511 3550.58 1505.73 3548.54 1500.46 3544.94 1497.82 3539.8 1497.82L3525.53 1497.82C3515.44 1497.82 3507.17 1500.41 3500.69 1505.57 3494.22 1510.73 3489.66 1519.57 3486.99 1532.08 3482.9 1532.08 3479.57 1531.57 3477 1530.55 3480.9 1512.52 3483.33 1497.31 3484.28 1484.92 3484.28 1484.31 3484.71 1484 3485.56 1484Z" fill="#532476" fill-rule="evenodd"/><path d="M3667.55 1484 3708.3 1484.68C3715.2 1484.68 3728.99 1484.45 3749.68 1484 3750.5 1485.12 3750.94 1487.06 3751 1489.82 3751.05 1492.57 3750.61 1494.46 3749.68 1495.47 3737.8 1495.88 3730.23 1497.59 3726.98 1500.61 3723.72 1503.62 3722.1 1511.41 3722.1 1523.99L3722.1 1649.86C3722.1 1662.43 3723.75 1670.23 3727.05 1673.24 3730.36 1676.26 3737.9 1678.02 3749.68 1678.53 3750.5 1679.67 3750.94 1681.64 3751 1684.44 3751.05 1687.23 3750.61 1689.09 3749.68 1690L3708.62 1689.31C3701.82 1689.31 3688.13 1689.54 3667.55 1690 3666.52 1689.09 3666 1687.23 3666 1684.44 3666 1681.64 3666.51 1679.67 3667.53 1678.53 3679.29 1678.12 3686.77 1676.38 3689.99 1673.32 3693.21 1670.25 3694.82 1662.43 3694.82 1649.86L3694.82 1523.99C3694.82 1511.41 3693.21 1503.62 3689.99 1500.61 3686.77 1497.59 3679.29 1495.88 3667.53 1495.47 3666.51 1494.57 3666 1492.72 3666 1489.9 3666 1487.09 3666.52 1485.12 3667.55 1484Z" fill="#532476" fill-rule="evenodd"/><path d="M3992.25 1484 4058.69 1484.15 4058.69 1484.22 4101.52 1484.31C4103.19 1491.47 4105.59 1506.65 4108.72 1529.86 4105.28 1531.55 4101.73 1532.08 4098.08 1531.45 4094.03 1518.45 4091.86 1509.91 4085.3 1504.02 4078.73 1498.12 4064.44 1496.74 4058.69 1496.09L4050.78 1500.13C4048.8 1502.82 4047.81 1506.23 4047.81 1510.35L4047.81 1575.3 4061.79 1574.33C4065.78 1573.68 4068.52 1572.71 4070 1571.42 4072.97 1568.84 4074.66 1562.75 4075.07 1553.16 4075.91 1552.11 4077.63 1551.58 4080.24 1551.58 4082.85 1551.58 4084.67 1552.1 4085.72 1553.14 4085.3 1565.96 4085.09 1575.18 4085.09 1580.81 4085.09 1584.63 4085.3 1593.92 4085.72 1608.69 4084.67 1609.89 4082.87 1610.48 4080.32 1610.48 4077.76 1610.48 4076.01 1609.96 4075.07 1608.9 4074.66 1603.11 4074.03 1598.94 4073.2 1596.41 4072.37 1593.88 4069.82 1591.64 4065.55 1589.69 4063.42 1588.72 4060.73 1587.99 4057.47 1587.5L4047.81 1586.77 4047.81 1664.13C4047.81 1668.72 4048.76 1672.17 4050.66 1674.46L4058.69 1677.7 4058.69 1677.91 4071.92 1677.91C4092.2 1677.91 4106.14 1663.92 4113.73 1635.94 4117.59 1635.11 4121.35 1635.63 4125 1637.51 4122.39 1654.08 4118.43 1671.58 4113.11 1690L4072.16 1689.38 4034.2 1689.38 3992.56 1690C3991.73 1689.09 3991.31 1687.23 3991.31 1684.44 3991.31 1681.64 3991.73 1679.67 3992.55 1678.53 4004.42 1678.12 4012.01 1676.38 4015.31 1673.32 4018.62 1670.25 4020.27 1662.43 4020.27 1649.86L4020.27 1523.99C4020.27 1511.41 4018.6 1503.62 4015.26 1500.61 4011.92 1497.59 4004.25 1495.88 3992.25 1495.47 3991.42 1494.57 3991 1492.7 3991 1489.88 3991 1487.05 3991.42 1485.09 3992.25 1484Z" fill="#532476" fill-rule="evenodd"/></g></svg>