<svg width="3042" height="621" xmlns="http://www.w3.org/2000/svg" xmlns:xlink="http://www.w3.org/1999/xlink" xml:space="preserve" overflow="hidden"><g transform="translate(-675 -927)"><path d="M2231 1548 2169 1548 2169 1487.39 2179.37 1488.18 2231 1487Z" fill-rule="evenodd"/><path d="M2071.89 1522 2018 1490.61 2048.11 1438 2074.27 1455.07 2102 1469.39Z" fill-rule="evenodd"/><path d="M1947.23 1420 1916 1365.38 1968.1 1335 1993.1 1381.07 1999 1389.82Z" fill-rule="evenodd"/><path d="M1950 1269 1890 1269 1890 1206 1949.62 1206 1948.84 1216.54Z" fill-rule="evenodd"/><path d="M1968.61 1140 1916 1109.53 1947.39 1055 2000 1085.47 1982.93 1111.94Z" fill-rule="evenodd"/><path d="M2047.83 1037 2018 984.605 2071.98 953 2102 1005.73 2056.47 1031.03Z" fill-rule="evenodd"/><path d="M2169 988 2169 927 2231 927 2231 987.615 2220.63 986.823Z" fill-rule="evenodd"/><path d="M2351.89 1037 2325.73 1019.93 2298 1005.61 2328.11 953 2382 984.388Z" fill-rule="evenodd"/><path d="M2431.9 1140 2406.9 1093.93 2401 1085.18 2452.77 1055 2484 1109.62Z" fill-rule="evenodd"/><path d="M2510 1269 2450.38 1269 2451.16 1258.46 2450 1206 2510 1206Z" fill-rule="evenodd"/><path d="M2452.99 1420 2401 1389.53 2417.86 1363.06 2432.01 1335 2484 1365.47Z" fill-rule="evenodd"/><path d="M2328.02 1522 2298 1469.27 2343.53 1443.97 2352.17 1438 2382 1490.39Z" fill-rule="evenodd"/><path d="M2533.74 1062C2567.67 1064.79 2606.76 1066.19 2651.01 1066.19L2694.29 1066.19C2738.87 1066.19 2776.49 1064.79 2807.14 1062 2808.12 1062 2808.61 1062.51 2808.61 1063.52 2808.94 1086.29 2811.07 1111.68 2815 1139.69 2811.23 1141.47 2805.58 1142.36 2798.05 1142.36 2793.97 1121.72 2786.25 1107.09 2774.89 1098.48 2763.54 1089.86 2747.98 1085.56 2728.21 1085.56L2717.18 1085.56C2708.52 1085.56 2702.52 1090.09 2699.17 1099.16 2695.82 1108.22 2694.14 1121.91 2694.14 1140.22L2694.14 1344.73C2694.14 1366.17 2696.96 1379.46 2702.6 1384.61 2708.23 1389.75 2721.59 1392.76 2742.66 1393.63 2744.3 1395.56 2745.16 1398.88 2745.24 1403.61 2745.32 1408.33 2744.46 1411.46 2742.66 1413L2672.78 1411.84C2658.64 1411.84 2635.06 1412.23 2602.03 1413 2601.04 1411.46 2600.55 1408.33 2600.55 1403.61 2600.55 1398.88 2601.2 1395.56 2602.5 1393.63 2623.42 1392.93 2636.72 1389.97 2642.39 1384.74 2648.07 1379.51 2650.91 1366.17 2650.91 1344.73L2650.91 1138.65C2650.91 1121.21 2649.15 1108 2645.63 1099.02 2642.11 1090.05 2635.93 1085.56 2627.08 1085.56L2602.52 1085.56C2585.16 1085.56 2570.91 1089.96 2559.78 1098.76 2548.64 1107.55 2540.78 1122.61 2536.2 1143.93 2529.15 1143.93 2523.42 1143.05 2519 1141.31 2525.71 1110.6 2529.89 1084.68 2531.53 1063.57 2531.53 1062.52 2532.26 1062 2533.74 1062Z" fill="#532476" fill-rule="evenodd"/><path d="M3436.15 1062 3676.69 1062.53C3679.55 1074.73 3683.67 1100.6 3689.05 1140.14 3683.14 1143.02 3677.05 1143.92 3670.77 1142.84 3663.82 1120.69 3656.5 1105.11 3648.82 1096.11 3641.15 1087.1 3627.85 1082.6 3608.93 1082.6L3551.1 1082.6C3544.86 1082.6 3540.04 1084.9 3536.65 1089.48 3533.25 1094.07 3531.56 1099.88 3531.56 1106.89L3531.56 1217.56 3581.41 1217.56C3603.75 1217.56 3617.46 1215.36 3622.56 1210.96 3627.65 1206.56 3630.55 1196.19 3631.27 1179.85 3632.7 1178.05 3635.66 1177.15 3640.14 1177.15 3644.61 1177.15 3647.75 1178.04 3649.54 1179.81 3648.83 1201.65 3648.47 1217.36 3648.47 1226.95 3648.47 1233.46 3648.83 1249.3 3649.54 1274.46 3647.75 1276.49 3644.66 1277.51 3640.27 1277.51 3635.88 1277.51 3632.88 1276.61 3631.27 1274.82 3630.55 1264.94 3629.48 1257.85 3628.05 1253.54 3626.62 1249.23 3622.24 1245.41 3614.92 1242.09 3607.59 1238.77 3596.42 1237.1 3581.41 1237.1L3531.56 1237.1 3531.56 1368.92C3531.56 1384.57 3538.08 1392.4 3551.11 1392.4L3625.85 1392.4C3660.68 1392.4 3684.61 1368.56 3697.65 1320.89 3704.28 1319.47 3710.73 1320.36 3717 1323.56 3712.52 1351.8 3705.71 1381.62 3696.57 1413L3626.26 1411.94 3508.18 1411.94 3436.68 1413C3435.25 1411.45 3434.54 1408.29 3434.54 1403.52 3434.54 1398.76 3435.25 1395.4 3436.67 1393.46 3457.05 1392.76 3470.08 1389.8 3475.75 1384.58 3481.42 1379.35 3484.26 1366.03 3484.26 1344.6L3484.26 1130.13C3484.26 1108.71 3481.39 1095.43 3475.66 1090.29 3469.92 1085.16 3456.75 1082.24 3436.15 1081.54 3434.72 1080 3434 1076.83 3434 1072.01 3434 1067.2 3434.72 1063.86 3436.15 1062Z" fill="#532476" fill-rule="evenodd"/><path d="M2829.65 1062 2899.66 1063.15C2911.51 1063.15 2935.2 1062.77 2970.73 1062 2972.15 1063.91 2972.9 1067.22 2972.99 1071.91 2973.08 1076.61 2972.33 1079.82 2970.73 1081.54 2950.32 1082.24 2937.33 1085.16 2931.74 1090.29 2926.15 1095.43 2923.35 1108.71 2923.35 1130.13L2923.35 1344.61C2923.35 1366.03 2926.19 1379.31 2931.87 1384.44 2937.55 1389.58 2950.5 1392.59 2970.73 1393.46 2972.15 1395.4 2972.9 1398.76 2972.99 1403.52 2973.08 1408.29 2972.33 1411.45 2970.73 1413L2900.2 1411.83C2888.53 1411.83 2865.01 1412.22 2829.65 1413 2827.89 1411.45 2827 1408.29 2827 1403.52 2827 1398.76 2827.88 1395.4 2829.63 1393.46 2849.82 1392.76 2862.68 1389.8 2868.21 1384.58 2873.74 1379.35 2876.51 1366.03 2876.51 1344.61L2876.51 1130.13C2876.51 1108.71 2873.74 1095.43 2868.21 1090.29 2862.68 1085.16 2849.82 1082.24 2829.63 1081.54 2827.88 1080.01 2827 1076.85 2827 1072.06 2827 1067.27 2827.89 1063.91 2829.65 1062Z" fill="#532476" fill-rule="evenodd"/><path d="M155.676 351C162.442 350.828 167.393 346.514 170.53 338.062L213.996 221.282 215.041 221.282 253.315 338.062C256.277 346.688 261.853 351 270.044 351 276.841 350.828 281.633 346.686 284.421 338.578L389.765 51.3303C393.425 41.1527 398.522 33.433 405.056 28.1703 411.592 22.9079 421.83 19.9313 435.771 19.2411 437.34 17.5427 438.08 14.3819 437.993 9.76044 437.905 5.13972 437.165 1.88576 435.771 0L389.241 1.13405 330.427 0C328.684 1.88576 327.813 5.18684 327.813 9.90251 327.813 14.6196 328.684 17.7326 330.427 19.2411L339.707 20.0161C342.06 20.1899 344.935 20.5355 348.332 21.052 351.731 21.5703 354.301 22.1738 356.043 22.8648 357.787 23.5553 359.747 24.5031 361.926 25.7108 364.104 26.9168 365.542 28.4264 366.239 30.2373 366.936 32.0501 367.284 34.2067 367.284 36.7075 367.284 39.2083 366.761 42.0123 365.716 45.1191L280.5 286.822 279.455 286.822 241.181 170.042C238.218 161.416 232.643 157.104 224.452 157.104 217.655 157.276 212.863 161.418 210.075 169.526L166.87 285.534 165.825 285.534 85.5752 40.0942C83.8379 34.4354 84.0141 30.1118 86.1023 27.1222 88.1905 24.1315 91.1957 22.1519 95.1161 21.18 99.0366 20.21 104.745 19.5626 112.239 19.2411 113.632 17.5427 114.329 14.3819 114.329 9.76044 114.329 5.13972 113.632 1.88576 112.239 0 88.7338 0.756752 68.649 1.13405 51.9816 1.13405L2.09109 0C0.69679 1.88576 0 5.18684 0 9.90251 0 14.6196 0.69679 17.7326 2.09109 19.2411 14.9864 19.8993 23.6569 21.7095 28.1008 24.6696 32.5437 27.6311 37.1183 35.5285 41.8233 48.3605L139.277 338.017C142.054 346.674 147.519 351 155.676 351Z" fill="#532476" fill-rule="evenodd" transform="matrix(1 0 0 -1 2984 1413)"/><path d="M1349.65 1062 1419.51 1063.15C1431.33 1063.15 1454.97 1062.77 1490.43 1062 1491.85 1063.91 1492.6 1067.22 1492.69 1071.91 1492.78 1076.61 1492.03 1079.82 1490.43 1081.54 1470.07 1082.24 1457.1 1085.16 1451.52 1090.29 1445.94 1095.43 1443.15 1108.71 1443.15 1130.14L1443.15 1224.18C1459.97 1222.79 1474.32 1215.82 1486.18 1203.28L1575.96 1109.23C1581.45 1103.49 1584.9 1098.74 1586.32 1095 1587.73 1091.25 1586.89 1088.51 1583.79 1086.77 1580.69 1085.03 1577.69 1083.89 1574.76 1083.37 1571.84 1082.85 1567.19 1082.24 1560.82 1081.54 1559.05 1080.01 1558.12 1076.85 1558.03 1072.06 1557.94 1067.27 1558.87 1063.91 1560.82 1062L1622.17 1063.15C1622.53 1063.15 1639.79 1062.77 1673.97 1062 1675.74 1063.91 1676.62 1067.22 1676.62 1071.91 1676.62 1076.61 1675.74 1079.82 1673.97 1081.54 1652.72 1084.16 1637.32 1088.16 1627.75 1093.56 1620.14 1097.92 1612.61 1103.84 1605.18 1111.33L1525.23 1192.04C1512.48 1204.93 1506.19 1213.73 1506.37 1218.43 1506.37 1221.91 1508.67 1226.35 1513.27 1231.75L1632.53 1370.73C1636.08 1375.08 1639.66 1378.7 1643.29 1381.57 1646.92 1384.44 1650.82 1386.58 1654.98 1387.97L1664.27 1391.11C1666.31 1391.8 1669.54 1392.32 1673.97 1392.67L1680.34 1393.46C1682.11 1395.4 1683 1398.76 1683 1403.52 1683 1408.29 1682.11 1411.45 1680.34 1413L1625.36 1411.83C1620.23 1411.83 1610.49 1412.22 1596.14 1413 1594.73 1413 1593.75 1411.83 1593.22 1409.5 1591.81 1398.46 1585.34 1385.53 1573.83 1370.73L1488.31 1264.93C1477.86 1252.04 1462.81 1245.25 1443.15 1244.55L1443.15 1344.61C1443.15 1366.03 1445.99 1379.31 1451.65 1384.44 1457.32 1389.58 1470.25 1392.59 1490.43 1393.46 1491.85 1395.4 1492.6 1398.76 1492.69 1403.52 1492.78 1408.29 1492.03 1411.45 1490.43 1413L1420.05 1411.83C1408.4 1411.83 1384.94 1412.22 1349.65 1413 1347.88 1411.45 1347 1408.29 1347 1403.52 1347 1398.76 1347.88 1395.4 1349.63 1393.46 1369.78 1392.76 1382.61 1389.8 1388.13 1384.58 1393.64 1379.35 1396.4 1366.03 1396.4 1344.61L1396.4 1130.13C1396.4 1108.71 1393.64 1095.43 1388.13 1090.29 1382.61 1085.16 1369.78 1082.24 1349.63 1081.54 1347.88 1080.01 1347 1076.85 1347 1072.06 1347 1067.27 1347.88 1063.91 1349.65 1062Z" fill="#532476" fill-rule="evenodd"/><path d="M1729.65 1062 1799.66 1063.15C1811.51 1063.15 1835.2 1062.77 1870.73 1062 1872.15 1063.91 1872.9 1067.22 1872.99 1071.91 1873.08 1076.61 1872.33 1079.82 1870.73 1081.54 1850.32 1082.24 1837.33 1085.16 1831.74 1090.29 1826.15 1095.43 1823.35 1108.71 1823.35 1130.13L1823.35 1344.61C1823.35 1366.03 1826.19 1379.31 1831.87 1384.44 1837.55 1389.58 1850.5 1392.59 1870.73 1393.46 1872.15 1395.4 1872.9 1398.76 1872.99 1403.52 1873.08 1408.29 1872.33 1411.45 1870.73 1413L1800.2 1411.83C1788.53 1411.83 1765.01 1412.22 1729.65 1413 1727.89 1411.45 1727 1408.29 1727 1403.52 1727 1398.76 1727.88 1395.4 1729.63 1393.46 1749.82 1392.76 1762.68 1389.8 1768.21 1384.58 1773.74 1379.35 1776.51 1366.03 1776.51 1344.61L1776.51 1130.13C1776.51 1108.71 1773.74 1095.43 1768.21 1090.29 1762.68 1085.16 1749.82 1082.24 1729.63 1081.54 1727.88 1080.01 1727 1076.85 1727 1072.06 1727 1067.27 1727.89 1063.91 1729.65 1062Z" fill="#532476" fill-rule="evenodd"/><path d="M1159.65 1062 1229.66 1063.15C1241.51 1063.15 1265.2 1062.77 1300.73 1062 1302.15 1063.91 1302.9 1067.22 1302.99 1071.91 1303.08 1076.61 1302.33 1079.82 1300.73 1081.54 1280.32 1082.24 1267.33 1085.16 1261.74 1090.29 1256.15 1095.43 1253.35 1108.71 1253.35 1130.13L1253.35 1344.61C1253.35 1366.03 1256.19 1379.31 1261.87 1384.44 1267.55 1389.58 1280.5 1392.59 1300.73 1393.46 1302.15 1395.4 1302.9 1398.76 1302.99 1403.52 1303.08 1408.29 1302.33 1411.45 1300.73 1413L1230.2 1411.83C1218.53 1411.83 1195.01 1412.22 1159.65 1413 1157.89 1411.45 1157 1408.29 1157 1403.52 1157 1398.76 1157.88 1395.4 1159.63 1393.46 1179.82 1392.76 1192.68 1389.8 1198.21 1384.58 1203.74 1379.35 1206.51 1366.03 1206.51 1344.61L1206.51 1130.13C1206.51 1108.71 1203.74 1095.43 1198.21 1090.29 1192.68 1085.16 1179.82 1082.24 1159.63 1081.54 1157.88 1080.01 1157 1076.85 1157 1072.06 1157 1067.27 1157.89 1063.91 1159.65 1062Z" fill="#532476" fill-rule="evenodd"/><path d="M830.676 1413C837.442 1412.83 842.394 1408.51 845.53 1400.06L888.996 1283.28 890.041 1283.28 928.315 1400.06C931.278 1408.69 936.853 1413 945.044 1413 951.841 1412.83 956.633 1408.69 959.421 1400.58L1064.76 1113.33C1068.42 1103.15 1073.52 1095.43 1080.06 1090.17 1086.59 1084.91 1096.83 1081.93 1110.77 1081.24 1112.34 1079.54 1113.08 1076.38 1112.99 1071.76 1112.91 1067.14 1112.17 1063.89 1110.77 1062L1064.24 1063.13 1005.43 1062C1003.68 1063.89 1002.81 1067.19 1002.81 1071.9 1002.81 1076.62 1003.68 1079.73 1005.43 1081.24L1014.71 1082.02C1017.06 1082.19 1019.93 1082.54 1023.33 1083.05 1026.73 1083.57 1029.3 1084.17 1031.04 1084.86 1032.79 1085.56 1034.75 1086.5 1036.93 1087.71 1039.1 1088.92 1040.54 1090.43 1041.24 1092.24 1041.94 1094.05 1042.28 1096.21 1042.28 1098.71 1042.28 1101.21 1041.76 1104.01 1040.72 1107.12L955.5 1348.82 954.455 1348.82 916.181 1232.04C913.219 1223.42 907.643 1219.1 899.452 1219.1 892.655 1219.28 887.863 1223.42 885.075 1231.53L841.87 1347.53 840.825 1347.53 760.575 1102.09C758.838 1096.44 759.014 1092.11 761.102 1089.12 763.191 1086.13 766.196 1084.15 770.116 1083.18 774.037 1082.21 779.745 1081.56 787.239 1081.24 788.632 1079.54 789.329 1076.38 789.329 1071.76 789.329 1067.14 788.632 1063.89 787.239 1062 763.734 1062.76 743.649 1063.13 726.982 1063.13L677.091 1062C675.697 1063.89 675 1067.19 675 1071.9 675 1076.62 675.697 1079.73 677.091 1081.24 689.987 1081.9 698.657 1083.71 703.101 1086.67 707.544 1089.63 712.118 1097.53 716.823 1110.36L814.277 1400.02C817.054 1408.67 822.52 1413 830.676 1413Z" fill="#532476" fill-rule="evenodd"/></g></svg>