<svg width="470" height="541" xmlns="http://www.w3.org/2000/svg" xmlns:xlink="http://www.w3.org/1999/xlink" xml:space="preserve" overflow="hidden"><defs><clipPath id="clip0"><rect x="3980" y="828" width="470" height="541"/></clipPath></defs><g clip-path="url(#clip0)" transform="translate(-3980 -828)"><path d="M4214.03 1332.96 4247.94 1332.96 4247.94 1369 4214.03 1369ZM4143.9 1332.96 4177.81 1332.96 4177.81 1369 4143.9 1369ZM4073.77 1332.96 4107.67 1332.96 4107.67 1369 4073.77 1369ZM4300.59 1327.68 4339.18 1327.68 4337.47 1336.17C4329.28 1355.46 4310.12 1369 4287.8 1369L4284.16 1369 4284.16 1332.96 4287.83 1332.96C4292.81 1332.96 4297.32 1330.95 4300.58 1327.7ZM3982.52 1327.68 4021.11 1327.68 4021.12 1327.7C4024.38 1330.95 4028.89 1332.96 4033.87 1332.96L4037.54 1332.96 4037.54 1369 4033.9 1369C4011.58 1369 3992.42 1355.46 3984.24 1336.17ZM3980 1257.75 4015.84 1257.75 4015.84 1291.56 3980 1291.56ZM3980 1187.88 4015.84 1187.88 4015.84 1221.63 3980 1221.63ZM3980 1117.95 4015.84 1117.95 4015.84 1151.76 3980 1151.76ZM3980 1048.02 4015.84 1048.02 4015.84 1081.83 3980 1081.83ZM3980 978.088 4015.84 978.088 4015.84 1011.9 3980 1011.9ZM4337.46 933.478 4337.47 933.481 4338.18 936.991 4337.47 933.481ZM4323.07 914.483 4327.07 918.112 4325.91 916.396ZM4306.74 904.466 4311.72 906.851 4308.78 904.876ZM4033.9 900.652 4037.54 900.652 4037.54 936.77 4033.87 936.77 4021.28 941.971 3982.52 941.971 3984.24 933.481C3992.42 914.189 4011.58 900.652 4033.9 900.652ZM4142.2 828 4396.1 828C4425.87 828 4450 852.065 4450 881.75L4450 1242.6C4450 1272.28 4425.87 1296.35 4396.1 1296.35L4341.7 1296.35 4341.7 1291.56 4305.86 1291.56 4305.86 1257.75 4341.7 1257.75 4341.7 1221.63 4305.86 1221.63 4305.86 1187.88 4341.7 1187.88 4341.7 1151.76 4305.86 1151.76 4305.86 1117.95 4341.7 1117.95 4341.7 1081.83 4305.86 1081.83 4305.86 1048.02 4341.7 1048.02 4341.7 1011.9 4305.86 1011.9 4305.86 978.088 4341.7 978.088 4341.7 954.402 4339.18 941.971 4300.43 941.971 4287.83 936.77 4284.16 936.77 4284.16 900.652 4247.94 900.652 4247.94 936.77 4214.03 936.77 4214.03 900.652 4177.81 900.652 4177.81 936.77 4143.9 936.77 4143.9 900.652 4107.67 900.652 4107.67 936.77 4073.77 936.77 4073.77 900.652 4088.3 900.652 4088.3 881.75C4088.3 852.065 4112.43 828 4142.2 828Z" fill-rule="evenodd"/></g></svg>