<svg width="469" height="542" xmlns="http://www.w3.org/2000/svg" xmlns:xlink="http://www.w3.org/1999/xlink" xml:space="preserve" overflow="hidden"><defs><clipPath id="clip0"><rect x="534" y="1135" width="469" height="542"/></clipPath></defs><g clip-path="url(#clip0)" transform="translate(-534 -1135)"><path d="M587.754 1243.97C577.817 1243.97 569.761 1252.04 569.761 1261.98L569.761 1622.88C569.761 1632.83 577.817 1640.89 587.754 1640.89L841.178 1640.89C851.115 1640.89 859.171 1632.83 859.171 1622.88L859.171 1261.98C859.171 1252.04 851.115 1243.97 841.178 1243.97ZM695.858 1135 949.21 1135C978.918 1135 1003 1159.11 1003 1188.85L1003 1550.36C1003 1580.1 978.918 1604.21 949.21 1604.21L894.932 1604.21 894.932 1623.15C894.932 1652.89 870.849 1677 841.142 1677L587.789 1677C558.082 1677 534 1652.89 534 1623.15L534 1261.64C534 1231.9 558.082 1207.79 587.789 1207.79L642.068 1207.79 642.068 1188.85C642.068 1159.11 666.15 1135 695.858 1135Z" fill-rule="evenodd"/></g></svg>