<svg width="518" height="542" xmlns="http://www.w3.org/2000/svg" xmlns:xlink="http://www.w3.org/1999/xlink" xml:space="preserve" overflow="hidden"><defs><clipPath id="clip0"><rect x="3214" y="1520" width="518" height="542"/></clipPath></defs><g clip-path="url(#clip0)" transform="translate(-3214 -1520)"><path d="M235.455 391.396 282.546 391.396 282.546 80.1165 312.988 110.455 346.286 77.2703 275.649 6.87284C266.455-2.29083 251.546-2.29083 242.351 6.87284L171.715 77.2703 205.013 110.455 235.455 80.1168ZM236.926 542C294.648 542 344.967 511.215 373.933 465.345 377.285 465.605 380.674 465.736 384.086 465.736 458.905 465.736 518 403.137 518 327.875 518 269.541 482.696 219.125 432.045 199.122 419.684 193.277 405.915 190.013 391.443 190.013L332.493 190.013 332.493 236.945 391.443 236.945C398.919 236.945 405.968 238.66 412.319 241.744 412.907 242.03 413.51 242.293 414.125 242.53 446.883 255.187 470.909 288.304 470.909 327.875 470.909 378.97 431.174 418.805 384.086 418.805 377.98 418.805 372.047 418.149 366.335 416.907 355.777 414.612 345.005 419.775 340.213 429.429 320.666 468.808 281.472 495.069 236.926 495.069 173.582 495.069 120.67 441.576 120.67 373.633 120.67 371.465 120.724 369.312 120.832 367.175 121.153 360.757 118.818 354.488 114.374 349.832 109.93 345.176 103.763 342.541 97.315 342.541L97.125 342.541C70.3539 342.541 47.0909 319.779 47.0909 289.743 47.0909 259.706 70.3539 236.945 97.125 236.945L185.507 236.945 185.507 190.013 97.125 190.013C42.6221 190.013 0 235.539 0 289.743 0 336.017 31.064 375.967 74.0644 386.665 80.4986 472.827 150.183 542 236.926 542Z" fill-rule="evenodd" transform="matrix(1 0 0 -1 3214 2062)"/></g></svg>