<svg width="518" height="542" xmlns="http://www.w3.org/2000/svg" xmlns:xlink="http://www.w3.org/1999/xlink" xml:space="preserve" overflow="hidden"><defs><clipPath id="clip0"><rect x="2621" y="1520" width="518" height="542"/></clipPath></defs><g clip-path="url(#clip0)" transform="translate(-2621 -1520)"><path d="M2880 1670.61C2886.03 1670.61 2892.05 1672.9 2896.65 1677.48L2967.29 1747.88 2933.99 1781.06 2903.55 1750.72 2903.55 2062 2856.45 2062 2856.45 1750.72 2826.01 1781.06 2792.72 1747.88 2863.35 1677.48C2867.95 1672.9 2873.97 1670.61 2880 1670.61ZM2857.93 1520C2915.65 1520 2965.97 1550.79 2994.93 1596.66 2998.29 1596.4 3001.67 1596.26 3005.09 1596.26 3079.91 1596.26 3139 1658.86 3139 1734.13 3139 1792.46 3103.7 1842.88 3053.05 1862.88 3040.68 1868.72 3026.91 1871.99 3012.44 1871.99L2953.49 1871.99 2953.49 1825.06 3012.44 1825.06C3019.92 1825.06 3026.97 1823.34 3033.32 1820.26 3033.91 1819.97 3034.51 1819.71 3035.12 1819.47 3067.88 1806.81 3091.91 1773.7 3091.91 1734.13 3091.91 1683.03 3052.17 1643.2 3005.09 1643.2 2998.98 1643.2 2993.05 1643.85 2987.33 1645.09 2976.78 1647.39 2966 1642.23 2961.21 1632.57 2941.67 1593.19 2902.47 1566.93 2857.93 1566.93 2794.58 1566.93 2741.67 1620.42 2741.67 1688.37 2741.67 1690.54 2741.72 1692.69 2741.83 1694.82 2742.15 1701.24 2739.82 1707.51 2735.37 1712.17 2730.93 1716.82 2724.76 1719.46 2718.31 1719.46L2718.12 1719.46C2691.35 1719.46 2668.09 1742.22 2668.09 1772.26 2668.09 1802.29 2691.35 1825.06 2718.12 1825.06L2806.51 1825.06 2806.51 1871.99 2718.12 1871.99C2663.62 1871.99 2621 1826.46 2621 1772.26 2621 1725.98 2652.06 1686.03 2695.06 1675.34 2701.5 1589.17 2771.18 1520 2857.93 1520Z" fill-rule="evenodd"/></g></svg>