<svg width="636" height="542" xmlns="http://www.w3.org/2000/svg" xmlns:xlink="http://www.w3.org/1999/xlink" xml:space="preserve" overflow="hidden"><defs><clipPath id="clip0"><rect x="1941" y="257" width="636" height="542"/></clipPath></defs><g clip-path="url(#clip0)" transform="translate(-1941 -257)"><path d="M2526.35 544.791C2511.27 543.008 2495.3 550.606 2486.35 565.332 2474.41 584.965 2479.44 609.836 2497.59 620.883 2515.75 631.928 2540.15 624.967 2552.09 605.332 2564.03 585.698 2558.99 560.828 2540.84 549.782ZM2530.41 526.708 2551.37 533.925C2577.62 549.898 2584.9 585.862 2567.63 614.253 2550.36 642.645 2515.08 652.712 2488.83 636.739 2462.58 620.766 2455.3 584.802 2472.57 556.411 2485.52 535.117 2508.6 524.131 2530.41 526.708ZM2138.62 272.951C2107.4 282.408 2090.48 298.291 2075.87 339.151 2075.87 375.712 2087.19 377.695 2098.22 394.174 2109.25 410.652 2118.42 415.81 2126.59 432.862 2133.89 444.755 2130.45 465.818 2114.55 491.324 2103.95 497.485 2094.5 508.948 2068.99 506.799L2058.12 506.343 2052.12 505.11C2048.24 504.111 2044.98 502.964 2043.21 501.64 2036.14 496.342 2042 482.814 2034.24 478.322 2032.01 468.513 2024.62 463.864 2014.65 464.372 2004.81 466.315 1996.31 474.336 1993.67 485.414 1990.15 500.186 1998.61 512.632 2006.87 518.059 2015.12 523.486 2024.99 512.279 2036.33 511.097 2039.17 510.802 2043.25 510.744 2047.79 510.8L2053.44 510.951 2068.56 516.306C2080.55 522.745 2089.46 533.398 2088.76 551.506 2084.04 591.771 2082.32 588.188 2068.14 607.389 2060.08 616.631 2044.28 620.392 2025.65 616.496L2018.24 614.003 2017.85 613.414C2011.63 607.035 2003.05 603.089 1993.56 603.089 1974.59 603.089 1959.21 618.871 1959.21 638.338 1959.21 657.806 1974.59 673.588 1993.56 673.588 2003.05 673.588 2011.63 669.642 2017.85 663.264L2019.35 660.974 2024.3 657.092C2041.27 643.067 2064.41 623.365 2082.75 629.742 2110.83 631.318 2125.87 642.207 2130.02 674.448 2122.14 710.126 2091.2 774.034 2133.46 781.055 2170.57 783.778 2182.74 764.864 2189.33 747.526 2189.91 726.749 2198.79 665.994 2226.3 655.534 2258.96 648.513 2285.89 647.796 2315.69 679.607 2333.45 706.259 2355.09 724.456 2374.14 721.734 2393.19 719.011 2426 691.356 2430.01 663.271 2428.72 615.413 2398.07 625.3 2379.3 597.931 2371.7 587.471 2349.64 577.298 2362.11 543.768 2362.97 531.588 2363.83 520.554 2378.44 506.798 2393.05 493.042 2424.57 475.276 2449.78 461.234 2477.15 447.334 2486.31 440.456 2489.32 414.807 2484.59 397.183 2449.93 387.152 2436.03 402.771 2417.41 430.283 2414.11 448.767 2381.88 450.057 2363.25 447.621 2334.6 439.023 2337.18 416.527 2342.91 373.683 2318.56 365.516 2318.27 370.101 2287.18 375.403 2294.06 422.545 2277.87 437.161 2263.97 446.331 2251.94 449.054 2226.3 439.74 2219.42 433.005 2192.92 426.128 2201.37 339.151 2211.68 309.467 2188.75 271.231 2138.62 272.951ZM2141.81 257.128C2167.89 255.569 2197.57 268.226 2215.07 296.183 2228.17 328.66 2208.81 340.117 2217.71 382.158 2221.22 406.041 2223.81 431.418 2256.53 428.438 2285.19 422.87 2268.19 378.245 2298.91 362.823 2315.17 346.975 2352.82 357.607 2350.92 384.512 2343.58 406.82 2353.3 434.049 2381.09 437.293 2409.03 433.539 2414.69 392.55 2444.5 383.073 2472.15 381.468 2489.57 382.155 2503.85 416.555 2506.28 445.993 2481.81 467.489 2465.02 472.287 2431.49 480.123 2368.44 520.124 2372.92 565.06 2390.81 599.386 2398.53 596.842 2423.2 609.356 2447.14 630.055 2455.73 674.141 2429.37 701.103 2396.99 732.854 2382.17 737.85 2357.43 733.108 2316.24 726.082 2318.89 696.546 2290.89 678.456 2269.69 663.056 2236.51 656.631 2222.59 679.395 2208.67 702.16 2211.88 738.378 2200.95 760.552 2167.82 826.293 2107.64 791.808 2100.86 773.093 2084.87 750.708 2097.76 722.259 2104.43 700.754 2122.99 671.362 2111.37 653.316 2089.2 644.81 2059 636.986 2053.01 653.356 2030.07 677.927 2010.11 704.167 1975.71 689.757 1958.09 678.37 1939.25 666.984 1936.98 637.365 1946.44 612.584 1979.01 563.281 2007.34 589.61 2027.95 600.406 2039.52 614.398 2063.73 590.557 2069.08 570.206 2077.52 543.319 2070.67 530.074 2056.13 527.194 2035.22 520.806 2021.31 548.832 1991.85 527.793 1975.45 516.571 1974.08 493.215 1976.7 473.23 1997.22 444.847 2006.35 439.182 2028.98 449.166 2043.35 452.465 2045.39 472.185 2058.88 491.65 2084.94 493.558 2100.9 488.112 2107.35 467.633 2115.99 450.207 2112.21 431.383 2100.33 418.627 2082.24 394.661 2061.44 383.077 2060.02 334.633 2067.18 306.102 2088.26 277.941 2117.5 263.386 2124.82 259.747 2133.11 257.647 2141.81 257.128Z" fill-rule="evenodd"/></g></svg>