<svg width="636" height="542" xmlns="http://www.w3.org/2000/svg" xmlns:xlink="http://www.w3.org/1999/xlink" xml:space="preserve" overflow="hidden"><defs><clipPath id="clip0"><rect x="1219" y="257" width="636" height="542"/></clipPath></defs><g clip-path="url(#clip0)" transform="translate(-1219 -257)"><path d="M1808.41 526.707C1815.68 527.566 1822.8 529.932 1829.37 533.925 1855.62 549.898 1862.9 585.862 1845.63 614.254 1828.36 642.645 1793.08 652.712 1766.83 636.739 1740.58 620.766 1733.3 584.802 1750.57 556.411 1763.52 535.117 1786.6 524.131 1808.41 526.707ZM1419.81 257.128C1445.89 255.569 1475.57 268.226 1493.07 296.182 1506.17 328.66 1486.81 340.117 1495.71 382.158 1499.22 406.041 1501.81 431.418 1534.53 428.438 1563.19 422.87 1546.19 378.245 1576.91 362.823 1593.17 346.975 1630.82 357.607 1628.92 384.512 1621.58 406.82 1631.3 434.049 1659.09 437.293 1687.03 433.539 1692.69 392.55 1722.5 383.073 1750.15 381.468 1767.57 382.155 1781.85 416.555 1784.28 445.993 1759.81 467.489 1743.02 472.286 1709.49 480.122 1646.44 520.124 1650.91 565.061 1668.81 599.386 1676.53 596.842 1701.2 609.356 1725.14 630.055 1733.73 674.141 1707.37 701.103 1674.99 732.853 1660.17 737.85 1635.43 733.108 1594.24 726.082 1596.89 696.546 1568.89 678.456 1547.69 663.055 1514.51 656.631 1500.59 679.395 1486.67 702.16 1489.88 738.378 1478.95 760.552 1445.82 826.293 1385.64 791.808 1378.86 773.093 1362.87 750.708 1375.76 722.259 1382.43 700.754 1400.99 671.362 1389.37 653.316 1367.2 644.81 1337 636.986 1331.01 653.356 1308.07 677.926 1288.11 704.168 1253.71 689.757 1236.09 678.37 1217.25 666.984 1214.98 637.365 1224.44 612.584 1257.01 563.281 1285.34 589.61 1305.95 600.406 1317.52 614.398 1341.73 590.557 1347.08 570.205 1355.52 543.319 1348.67 530.074 1334.13 527.193 1313.22 520.806 1299.31 548.832 1269.85 527.793 1253.45 516.571 1252.08 493.215 1254.7 473.23 1275.22 444.847 1284.35 439.182 1306.98 449.166 1321.35 452.465 1323.39 472.185 1336.88 491.65 1362.94 493.558 1378.9 488.112 1385.35 467.633 1393.99 450.207 1390.2 431.383 1378.33 418.627 1360.24 394.661 1339.44 383.077 1338.02 334.633 1345.18 306.102 1366.26 277.941 1395.5 263.386 1402.82 259.747 1411.11 257.648 1419.81 257.128Z" fill-rule="evenodd"/></g></svg>