<svg fill="none" height="512" viewBox="0 0 24 24" width="512" xmlns="http://www.w3.org/2000/svg"><path clip-rule="evenodd" d="m6.17124 6.06662c.58747-.68132 1.44874-1.06662 2.34709-1.06662h10.41227c1.6628 0 3.0694 1.31128 3.0694 3v8c0 1.6887-1.4066 3-3.0694 3h-10.41227c-.89836 0-1.75962-.3853-2.34709-1.0666l-3.44895-4c-.96305-1.1169-.96305-2.7499 0-3.8668zm4.22536 7.93338c1.1046 0 2-.8954 2-2s-.8954-2-2-2c-1.10459 0-2.00002.8954-2.00002 2s.89543 2 2.00002 2z" fill="rgb(0,0,0)" fill-rule="evenodd"/></svg>