<svg width="774" height="542" xmlns="http://www.w3.org/2000/svg" xmlns:xlink="http://www.w3.org/1999/xlink" xml:space="preserve" overflow="hidden"><defs><clipPath id="clip0"><rect x="3121" y="257" width="774" height="542"/></clipPath></defs><g clip-path="url(#clip0)" transform="translate(-3121 -257)"><path d="M3447.45 449.597C3404.72 449.597 3370.08 484.251 3370.08 527.001 3370.08 569.749 3404.72 604.405 3447.45 604.405 3490.19 604.405 3524.83 569.749 3524.83 527.001 3524.83 484.251 3490.19 449.597 3447.45 449.597ZM3373.26 257 3776.21 257C3840.56 257 3895 307.765 3895 373.143L3895 682.857C3895 748.234 3840.56 799 3776.21 799L3373.26 799C3338.49 799 3305.16 784.083 3282.43 757.707L3148.95 602.85C3111.68 559.61 3111.68 496.39 3148.95 453.15L3282.43 298.294C3305.16 271.917 3338.49 257 3373.26 257Z" fill-rule="evenodd"/></g></svg>