<svg width="774" height="542" xmlns="http://www.w3.org/2000/svg" xmlns:xlink="http://www.w3.org/1999/xlink" xml:space="preserve" overflow="hidden"><g transform="translate(-2266 -257)"><path d="M2591.37 449.597C2634.1 449.597 2668.74 484.251 2668.74 527.001 2668.74 569.749 2634.1 604.405 2591.37 604.405 2548.64 604.405 2513.99 569.749 2513.99 527.001 2513.99 484.251 2548.64 449.597 2591.37 449.597ZM2533.97 337.453C2522.12 340.114 2509.54 340.59 2498.42 345.435 2486.62 353.031 2480.65 360.627 2471.77 368.223L2353.61 506.52 2346.93 521.433 2346.93 534.513 2353.66 549.542 2471.77 687.776C2480.62 695.348 2485.84 702.919 2498.33 710.492 2510.77 715.469 2523.21 716.078 2535.65 718.871L2935.91 718.871 2949.22 710.215 2961.03 693.3 2961.03 363.987 2949.22 347.072 2934.43 337.453ZM2518.26 257 2921.21 257C2985.56 257 3040 307.765 3040 373.143L3040 682.857C3040 748.234 2985.56 799 2921.21 799L2518.26 799C2483.49 799 2450.16 784.083 2427.43 757.707L2293.95 602.85C2256.68 559.61 2256.68 496.39 2293.95 453.15L2427.43 298.294C2450.16 271.917 2483.49 257 2518.26 257Z" fill-rule="evenodd"/></g></svg>