<?xml version="1.0" encoding="UTF-8"?>
<!-- Generator: Adobe Illustrator 26.0.3, SVG Export Plug-In . SVG Version: 6.00 Build 0)  -->
<svg xmlns="http://www.w3.org/2000/svg" xmlns:xlink="http://www.w3.org/1999/xlink" version="1.1" id="Capa_1" x="0px" y="0px" viewBox="0 0 512.001 512.001" style="enable-background:new 0 0 512.001 512.001;" xml:space="preserve" width="512" height="512">
<g>
	<g>
		<path d="M247.173,494.345h54.072c1.28-4.386,3.644-8.406,6.964-11.727l5.928-5.928h-49.309    C255.094,476.69,247.173,484.61,247.173,494.345z"/>
		<path d="M35.311,358.495v13.974c0,17.972-6.183,35.598-17.409,49.632l-7.996,9.995c-6.388,7.982-9.906,18.01-9.906,28.235    c0,8.953,2.625,17.624,7.591,25.074l2.547,3.82c2.138,3.207,5.715,5.121,9.569,5.121c2.472,0,4.922-0.817,6.9-2.301l22.828-17.122    c2.21-1.657,3.531-4.298,3.531-7.061v-15.571c0-10.095,5.61-19.172,14.641-23.687c9.804-4.904,18.257-12.035,24.734-20.8    C70.735,394.596,51.447,377.896,35.311,358.495z"/>
		<path d="M498.736,402.535l-84.469-99.374c-30.244-35.582-74.372-55.988-121.07-55.988H159.821    c-58.92,0-106.855-47.935-106.855-106.855c0-24.171,8.316-47.878,23.415-66.752l5.636-7.047L89,68.099    c7.409,1.672,15.015,2.521,22.606,2.521h54.451c5.786,0,10.495-4.727,10.495-10.537v-0.324c0-2.276-0.815-4.481-2.297-6.209    l-30.406-35.471C134.003,6.591,119.677,0.001,104.546,0c-0.001,0-0.002,0-0.003,0c-13.824,0-26.82,5.383-36.596,15.158    C24.13,58.975,0.001,117.229,0.001,179.191v32.671c0,63.174,28.605,122.942,76.387,162.859    c-3.796-11.468-5.767-23.522-5.767-35.791v-3.481h17.655v3.481c0,19.073,5.592,37.544,16.172,53.415    c12.521,18.781,19.138,40.639,19.138,63.209v13.38c0,7.36-2.867,14.279-8.071,19.484l-6.686,6.686    c-1.869,1.869-2.899,4.354-2.899,6.999c0,5.458,4.44,9.899,9.899,9.899h51.894c4.867,0,8.828-3.96,8.828-8.828V425.81    c0-14.276,3.375-28.574,9.76-41.343l15.791,7.896c-4.745,9.489-7.427,20.02-7.834,30.624c5.843,0.479,11.732,0.737,17.593,0.737    h100.523c-2.652-7.564-6.249-14.814-10.764-21.587c-12.521-18.78-19.138-40.638-19.138-63.208v-3.481h17.655v3.481    c0,19.073,5.592,37.544,16.172,53.415c12.521,18.781,19.138,40.639,19.138,63.209v13.38c0,7.36-2.867,14.279-8.071,19.484    l-6.686,6.686c-1.869,1.869-2.899,4.354-2.899,6.999c0,5.458,4.44,9.899,9.899,9.899h51.894c4.867,0,8.828-3.96,8.828-8.828    V425.81c0-14.276,3.375-28.574,9.76-41.343l15.791,7.896c-4.855,9.708-7.557,20.509-7.864,31.362h44.106    c14.602,0,26.483,11.881,26.483,26.483s-11.881,26.483-26.483,26.483H406.07v17.655h50.209    c30.725-0.001,55.722-24.998,55.722-55.723C512.001,425.416,507.289,412.599,498.736,402.535z M114.759,17.655    c4.875,0,8.828,3.953,8.828,8.828s-3.953,8.828-8.828,8.828c-4.875,0-8.828-3.953-8.828-8.828S109.884,17.655,114.759,17.655z"/>
	</g>
</g>















</svg>
