<svg clip-rule="evenodd" fill-rule="evenodd" stroke-linejoin="round" stroke-miterlimit="2" viewBox="0 0 64 64" xmlns="http://www.w3.org/2000/svg"><g transform="translate(-240)"><path d="m261.442 43.748-.014-.018c-.799-1.09-1.497-2.311-1.69-3.31-.105-.542.25-1.067.792-1.172.541-.104 1.066.25 1.171.792.148.764.728 1.673 1.34 2.507.598.815 1.246 1.552 1.676 2.019.5.459 1.089.89 1.774 1.295.757.448 2.698.971 3.972 1.032.498.024.915-.028 1.19-.125.27-.096.466-.242.603-.4.258-.298.434-.741.415-1.291-.008-.214-.048-.453-.127-.707-1.137-1.333-2.283-2.845-2.897-3.848-.288-.471-.14-1.087.331-1.375s1.087-.14 1.375.331c.792 1.294 2.535 3.495 3.891 4.907 2.275.022 4.424-.042 6.354-.254 6.707-.736 10.692-2.938 13.063-5.459 3.656-3.889 3.549-8.616 3.36-10.527-.127-1.282-.376-2.059-.123-2.81.149-.444.503-.853 1.136-1.398.656-.565 1.155-1.573 1.466-2.656.423-1.469.526-3.046.492-3.459-.033-.39-.291-.726-.66-.858s-.781-.037-1.054.245c-1.273 1.31-1.327 1.608-2.802 1.938-1.744.391-2.623 1.162-3.09 1.796-.054.074-.104.147-.149.22-.739-.229-1.809-.405-3.058-.152-2.778.564-4.496.891-4.496.891-.269.051-.505.211-.653.441-.149.231-.196.512-.131.778.316 1.297 2.078 3.404 4.556 2.977 1.135-.196 2.064-.19 2.598.341.541.537.546 1.5.174 2.953-.199.778-.497 1.304-.928 1.596-.665.448-1.554.316-2.521 0-2.078-.68-4.434-2.356-6.247-3.703-3.301-2.454-8.011-6.304-18.481-6.645-6.228-.203-11.48.256-15.051 1.368-2.656.828-4.427 2.061-5.182 3.558-.467.927-.747 2.447-.805 4.167-.082 2.439.255 5.291.926 7.275.329.972.75 1.75 1.217 2.241.451.476.963.725 1.496.766.234.017 1.314.016 2.571-.015-.813.223-1.818.468-2.028.569-.174.083-.161.597-.036.88.124.283.373.493.674.567 0 0 5.97 1.474 8.884 1.543 1.534.037 3.118.106 4.726.189zm-5.837-11.097c.584-.024 1.078.431 1.102 1.015.024.585-.431 1.079-1.016 1.103-.584.024-1.078-.432-1.102-1.016-.024-.585.431-1.079 1.016-1.102z"/></g></svg>