<svg id="Capa_1" enable-background="new 0 0 580.678 580.678" height="512" viewBox="0 0 580.678 580.678" width="512" xmlns="http://www.w3.org/2000/svg"><g><path d="m198.807 174.23c45.244-9.733 92.496-1.935 132.213 21.819 45.709 28.628 76.496 75.926 84.172 129.311 7.907 79.268-37.132 145.124-109.494 160.137-9.292 1.868-18.746 2.807-28.224 2.802-25.726.162-50.941-7.176-72.562-21.118-25.76-16.919-43.674-43.447-49.743-73.663-8.983-43.716 14.022-87.719 55.047-105.29 38.733-18.216 80.269-11.21 103.289 17.315 22.219 27.524 21.518 60.652-1.701 84.472-14.402 14.18-35.062 19.997-54.747 15.413-15.504-3.514-27.881-15.163-32.328-30.426-1.512-5.327 1.512-10.886 6.806-12.511 5.302-1.511 10.834 1.523 12.411 6.806 2.425 8.454 9.314 14.881 17.915 16.714 12.805 2.893 26.205-.871 35.631-10.009 15.914-16.314 16.114-38.433.4-57.85-19.817-24.521-54.046-23.62-79.168-11.81-32.489 13.826-50.828 48.542-43.938 83.171 4.99 25.009 19.809 46.968 41.135 60.952 25.445 16.234 56.268 21.773 85.774 15.413 62.954-13.011 100.586-68.659 93.58-138.519-7.232-47.167-34.537-88.89-74.864-114.398-34.212-20.457-74.8-27.483-113.898-19.717-14.101 3.376-27.793 8.276-40.835 14.613-79.468 37.834-116.7 110.296-102.287 198.872 10.673 62.269 49.542 116.102 105.29 145.825 33.474 18.449 71.073 28.124 109.294 28.124 31.246-.035 62.161-6.402 90.878-18.716v-.1c82.671-35.33 163.34-137.118 150.029-256.02-20.418-184.758-189.563-309.465-328.482-305.762-4.923.109-9.017 3.819-9.608 8.707-7.438 55.794-1.257 112.558 18.015 165.443zm111.896-103.889c-5.528 0-10.009-4.481-10.009-10.009s4.481-10.009 10.009-10.009 10.009 4.481 10.009 10.009c.019 5.508-4.43 9.989-9.938 10.009-.024 0-.048 0-.071 0zm125.407 97.984c-1.72 1.237-3.786 1.902-5.905 1.902-3.203.008-6.217-1.517-8.107-4.104-22.422-30.3-49.837-56.563-81.07-77.667-4.588-3.095-5.798-9.324-2.702-13.912 3.095-4.588 9.324-5.798 13.912-2.702 33.151 22.386 62.229 50.279 85.974 82.471 3.268 4.455 2.329 10.711-2.102 14.012z"/></g></svg>