<svg id="Capa_1" enable-background="new 0 0 512 512" height="512" viewBox="0 0 512 512" width="512" xmlns="http://www.w3.org/2000/svg"><g><path d="m503.72 146.204c.842-4.672-.535-9.666-4.147-13.277-5.857-5.857-15.355-5.858-21.213 0l-11.672 11.673h-3.635l-8.8-8.812 26.919-26.919c19.88-19.861 30.828-46.307 30.828-74.469 0-9.105-3.48-17.619-9.812-24.036-.086-.091-.174-.181-.262-.27-6.484-6.509-15.109-10.094-24.286-10.094-28.207 0-54.662 10.962-74.469 30.844l-26.956 26.946-8.814-8.829v-3.648l11.673-11.673c5.858-5.858 5.858-15.355 0-21.213-3.611-3.611-8.604-4.988-13.276-4.147-2.467-4.906-7.533-8.28-13.398-8.28s-10.93 3.374-13.396 8.28c-4.672-.842-9.666.535-13.277 4.147-5.858 5.858-5.858 15.355 0 21.213l11.673 11.673v9.853c0 3.974 1.577 7.785 4.385 10.598l13.213 13.236-83.579 83.549c-26.293 26.305-60.233 42.195-96.819 45.614v-26.283l7.28-7.28h25.92c8.284 0 15-6.716 15-15 0-7.063-4.888-12.969-11.461-14.562 4.868-5.892 4.549-14.63-.966-20.144-5.513-5.514-14.25-5.834-20.144-.966-1.593-6.573-7.5-11.46-14.562-11.46-8.284 0-15 6.716-15 15v25.92l-11.674 11.674c-2.813 2.813-4.394 6.628-4.394 10.606v33.91c-80.995 7.584-144.599 75.937-144.599 158.889 0 46.886 10.398 88.596 33.717 135.241 2.541 5.082 7.735 8.292 13.417 8.292s10.876-3.21 13.417-8.293c23.317-46.645 33.716-88.355 33.716-135.256 0-31.367 21.857-56.82 50.333-63.553v31.444c0 3.979 1.581 7.794 4.395 10.608l11.673 11.67v25.922c0 8.284 6.716 15 15 15 7.065 0 12.973-4.891 14.564-11.467 2.762 2.281 6.147 3.425 9.536 3.425 3.839 0 7.679-1.465 10.607-4.395 5.511-5.512 5.833-14.244.972-20.136 6.57-1.595 11.454-7.5 11.454-14.561 0-8.284-6.716-15-15-15h-25.918l-7.282-7.281v-27.371c71.422-3.519 144.854-32.226 202.305-89.619l56.135-56.135 13.179 13.198c2.814 2.818 6.633 4.401 10.614 4.401h9.854l11.673 11.673c5.858 5.859 15.357 5.857 21.213 0 3.612-3.611 4.989-8.604 4.147-13.276 4.906-2.466 8.279-7.531 8.279-13.396 0-5.867-3.374-10.932-8.28-13.398z"/></g></svg>