<svg xmlns="http://www.w3.org/2000/svg" width="120" height="100" version="1.0" viewBox="0 0 848 954"><path d="M389.5 2.1C328.3 9.3 273.4 29.8 226 63.3c-32.5 23-65 56.5-87.4 90.5-21.5 32.5-40 76.3-48.1 113.7-7.1 32.7-7.8 46.2-7.7 132 .3 109 1 120 9.6 150.7 10.5 37.3 24.5 65 51.1 101.1l7.3 9.8.7 42.2c.4 23.2.6 43.1.4 44.1-.3 1.4-4.9 3.7-18.2 9.2-47.6 19.4-99.3 50.1-117.8 70.1C6.4 837 1 850.9 1 865c0 15 5.3 27.3 16.3 38.2 11.6 11.6 19.6 14.3 65.2 22.3 20.3 3.5 47.5 7.8 57.5 9 3 .4 6.4.9 7.5 1.1s13 1.7 26.5 3.4c147.1 18 295.2 19.8 445.5 5.4 75.4-7.2 162.9-20.6 189.6-29 10.7-3.4 15.8-6.5 22.6-13.7 16.5-17.7 20-42.4 9.2-64-11.7-23.3-78.9-65.4-139.4-87.2-2.7-1-5.6-2.3-6.2-2.8-1-.7-1.3-8.6-1.2-34.1.1-18.2.4-37.6.8-43.1l.6-10 9.1-12.5c29.1-39.7 45.8-77.4 53.9-121.5 2-10.9 2.8-19.6 3.6-39.5.5-14 1.3-30.1 1.8-35.7.8-9.3 0-86.9-1.3-125.9-3.5-102.8-57.7-201.9-143.4-262.1C568.9 27.9 516.8 8.7 452 1.5c-17.9-2-42.8-1.7-62.5.6m68.2 33.4c27.5 3.5 52.5 9.6 74 18.1 38.8 15.2 73.1 36.9 101.8 64.3 48.4 46.2 78.1 100.9 92 168.8 1.4 7.1-1.1 5.4-22.5-15.3-12.6-12.2-22.2-20.3-35-29.4-43-30.6-98.3-52.6-161-63.9-23.7-4.3-36.6-5.2-81.5-5.8-32.9-.4-42.6-.2-54.5 1.1-46.4 5.2-90.2 16.3-130.5 33-8.2 3.5-17.2 7.1-20 8.1-9.2 3.3-14.9 6.7-33.5 19.8-27.7 19.5-43.2 32.7-58.6 50.1-9.3 10.5-9.8 10-6.4-5.2 13.7-61.5 42.2-113.7 85.5-156.7C256.2 74.1 318.7 43.8 387 35.6c16.1-1.9 55.8-2 70.7-.1m-321 523.1c20.9 18.2 51.8 37.3 80.3 49.4 46.2 19.8 94.5 31.1 158.5 37.2 19.8 1.8 77.1 1.5 98.5-.5 71.4-7 124.1-21.1 175.3-46.8 23.6-11.9 39.9-22.5 57.6-37.6 5.3-4.6 9.9-8.3 10.4-8.3 2.5 0-3.1 14.1-14.3 35.7-15.4 29.8-25.5 43.7-50 68.6-21.7 22.2-35 33-56.2 45.7-35.1 21.2-84.2 39.1-121.3 44.4-37 5.2-85.6 4.2-118.9-2.4-27.3-5.5-57.3-16.1-85.6-30.1-34.8-17.3-57.2-34.3-85.8-65.3-19.7-21.1-29.7-35.8-43.8-63.6-10.8-21.3-15.3-33-12.8-33 .3 0 4 3 8.1 6.6m66.2 151.8c20.9 15.2 35.9 24.5 54.1 33.6 37.8 19 75.5 30.5 120.5 36.6 18.2 2.5 67.8 2.5 88.5.1 27.7-3.4 43.2-6.6 66.5-13.9 40.7-12.7 76.3-31.1 114.8-59.6 7.7-5.7 13.3-9.2 14.2-8.8 2.9 1.1 1.3 27.1-2.5 39.6-11.9 40-79.8 78.4-161 91-70.5 10.9-139.9 7.1-199-11-15.7-4.8-24.4-6.3-28.5-5-4 1.3-7.7 5.7-9.5 11.2-1 3.4-.9 4.4 1.3 9.2 1.4 3 3.9 6.4 5.8 7.9 7.9 5.9 52.3 17.5 87.4 22.8 20.5 3 66.6 4.5 97 3.1 77.1-3.6 152.6-28.5 197.7-65.3 3.5-2.9 10.8-9.6 16.4-15.1l10.1-9.9 12 4c45.9 15.3 114.3 56.5 123.4 74.3 3.7 7.3 1.6 18-4.8 24-5.2 5-16.6 7.9-56.3 14.7-49.8 8.5-109.1 15.9-161.5 20.1-100 8-219.3 9-306.5 2.5-73-5.4-125.4-11.5-181.2-20.9-43.2-7.4-56.7-10.8-61-15.4-6.8-7.2-8.8-17.4-4.9-25.1 8.6-16.8 72-54.3 123-72.8 11.1-4 9.8-4.4 23.3 8.4 11.6 10.9 22.3 19.4 30.4 23.9 5.8 3.2 7.1 3.6 11.1 3 12.4-1.7 18.3-15.3 10.9-25.1-1.5-1.9-7.1-6.8-12.4-10.9-10.5-8-22.9-20.3-28.1-27.9-8.5-12.5-11-23-11.1-46 0-7.6.3-9.7 1.4-9.7.7 0 9.1 5.6 18.5 12.4"/></svg>