<svg xmlns="http://www.w3.org/2000/svg" width="572" height="329.333" version="1.0" viewBox="0 0 429 247"><path d="M359.5 2.3c-9.4 2.5-16.8 7.4-19.8 13.3-2.5 4.8-3.5 10.1-5.2 26.2-2.5 24.4-3.8 26-18.1 21.8-10.4-3.1-17.5-3.3-37.4-1.1-16.2 1.7-19.9 2.4-37.3 6.9-16.7 4.3-24.2 5.1-69.7 7.6-20.2 1.1-40.9 2.4-46 3-37.3 4.2-75 14.1-112 29.3-14.6 6-13.6 7 3.1 3.2 35.1-8.1 52.5-10.9 77.2-12.7 44.5-3.2 91 7 129.6 28.5 12.6 7 18.1 11.1 18.1 13.3 0 1.8-14.6 25.7-19.1 31.6-1.6 2-4.1 6.2-5.5 9.3-2.3 5-2.5 6.5-2.1 14.3.6 10.7 2.3 21.6 4.5 28.9 2.6 8.3 4.7 9.5 18.2 10.2l11.1.6 3.2 3.7c4.6 5.4 10.5 7.1 22.6 6.6 5.4-.2 11.1-1 13-1.9l3.3-1.4-5.1-5c-2.7-2.8-6.6-6.5-8.6-8.2-3-2.7-3.6-3.8-3.3-6.5.3-3.1.5-3.3 5.1-3.8l4.9-.5-2.4-3.5c-2.9-4.3-6.5-4.9-13.5-2.1-2.7 1-5.5 1.6-6.1 1.2-3.5-2.1-4.4-16.3-1.4-22.1 1-1.9 6.1-9.2 11.4-16.2 10.1-13.1 13.5-19 18.3-31.7 4.3-10.8 5-11.1 17.6-6 12.6 5 14.3 6.3 13.5 10.3-.7 3.4-3.3 6.6-5.4 6.6-.7 0-2.7-.9-4.2-2l-2.8-2 .5 2.2c.3 1.3.2 2-.2 1.6s-1.6.4-2.7 1.7c-5.1 6.6 5.7 13.2 14.6 9 2.2-1 5.3-4 7.5-7.1 4-5.6 4.4-5.7 7-.6 1 1.9.6 3.1-3.3 9.2-4.6 7.1-5.1 7.4-9.6 6.1-1.9-.5-2.7-.2-3.5 1.4-.6 1.1-1.7 2-2.5 2-6.3 0-2.4 11.4 4.9 14.5 2.6 1.1 3.6.9 7.6-1 6.5-3.1 10.9-8.9 14.5-18.9 5.4-14.8 5.4-14.9-3.5-26.1-8-10-8.8-12-8.3-21.6.5-10.1 3.9-17.6 12.4-27.4 8.4-9.7 12.9-16.8 18.8-29.3 4.4-9.3 6.2-12.1 10.9-16.4 6.8-6.1 11.4-8 30.2-12.2 14.7-3.3 18.7-5.2 22.3-10.6 3-4.3 2.8-7.4-.9-11.8-4.4-5.4-7.1-6.5-26.9-10.7-20.6-4.5-32.2-5.5-39.5-3.7M243.4 185.5c-4.5 8.8-4.6 9.1-4 16 .3 3.8.9 8.7 1.2 10.8l.7 3.8-2.9-1.1c-4.5-1.8-6.2-3.8-7.3-9.1-1.6-7.1-.1-13.8 4.7-21.1 2.5-3.8 11.4-10.6 11.9-9.1.2.5-1.8 4.9-4.3 9.8"/></svg>