<svg xmlns="http://www.w3.org/2000/svg" width="76" height="61.333" version="1.0" viewBox="0 0 57 46"><path d="M41.8 4.4c-1.5 1.8-4 3.7-5.5 4-1.5.4-4.4 2.3-6.4 4.2-3.5 3.4-3.8 3.5-7.5 2.5-2.8-.8-4.4-.7-6.3.2C12.9 16.8 7 25.4 7 28.6c0 1.3-1.1 3.3-2.4 4.6s-2.9 4-3.4 6.1c-1.3 4.6.4 6.7 5.3 6.7 3.7 0 5.2-1.4 3.6-3.4-.8-.9-.2-2.1 2.3-4.5 1.9-1.8 3.9-3 4.5-2.7.6.4 1.6 2.6 2.3 4.9 1.4 4.8 2.3 5.7 6 5.7 3.1 0 4.5-1.7 2.9-3.3-1.9-1.9-1.3-5.5 1-6.2 1.1-.4 2.2-.5 2.4-.3.7.7.8 3.4.1 5-1.3 3 .1 5 3.1 4.6 2.3-.2 3-1.1 4.2-4.8 2.4-7.8 2.4-7.7 2.8-5.5.2 1.1.9 3 1.5 4.2.8 1.7.8 2.6-.1 3.6-.9 1.2-.8 1.6.5 2.1 2.6 1 6.9.7 8.2-.6 1.6-1.6 1.4-9.4-.3-14.3-2.1-5.8-1.9-8.8.7-10 3.5-1.6 4.4-3.9 2.8-7.2-.7-1.5-1.2-3.5-1.1-4.5.1-.9-.3-1.9-.9-2.3-.5-.3-1-1.4-1-2.5 0-1-.7-2.1-1.6-2.4-3.4-1.3-6-.5-8.6 2.8"/></svg>