<svg xmlns="http://www.w3.org/2000/svg" width="93.333" height="66.667" version="1.0" viewBox="0 0 70 50"><path d="M32 1.2c-3 .5-7.7 1.2-10.5 1.7l-5 .8 3 1.2c2.3 1 5.3 1.1 13.2.3 11.6-1.1 13.5-1.8 10.8-3.9C41.4-.1 40.1-.2 32 1.2m10.5 9.9c-6 1-16.8 2.5-24 3.2l-13 1.4 3.8 1.7c3.3 1.4 4.7 1.5 9 .5 2.9-.6 6.3-.9 7.7-.8l2.5.4v23l-3.3.5-3.3.5 3.6 4.3c2 2.3 4.1 3.9 4.7 3.6.6-.4 1.8-2.5 2.8-4.8 2.2-5.1 2.1-24.5-.1-27.2-1.2-1.5.1-1.6 15.1-1.3 13.6.3 16.5.2 16.5-1 0-1.9-4.4-5-8-5.5-1.6-.2-7.9.4-14 1.5"/><path d="M10.7 29.8c-3 6.3-3.4 9.4-1.4 11.1 3.6 2.9 8.4-9.3 6.1-15.3-1-2.5-1.7-1.9-4.7 4.2m34.9 2.9c2.6 3.8 5.4 7.4 6.2 8 3.8 3.1 5.9-5 2.2-8.7-2.3-2.3-9.3-6-11.5-6-1.2 0-.3 1.9 3.1 6.7"/></svg>