<svg xmlns="http://www.w3.org/2000/svg" width="37" height="29" overflow="hidden"><defs><clipPath id="a"><path d="M656 363h37v29h-37z"/></clipPath></defs><g clip-path="url(#a)" transform="translate(-656 -363)"><path fill-rule="evenodd" d="M680.17 370.04c-.043.002-.089.035-.129.097-.045.076-.062.085-.062.043 0-.046-.01-.049-.045-.019a.14.14 0 0 0-.045.092c0 .03-.02.064-.047.073-.039.015-.045.048-.03.182.018.137.012.165-.03.183-.041.015-.047.046-.03.182.015.131.01.168-.026.183-.05.018-.063.216-.015.246.05.034.033.098-.033.116-.06.015-.062.033-.048.185.012.134.006.17-.03.183-.038.015-.04.052-.026.183.015.133.009.167-.03.182-.041.015-.047.049-.033.186.012.13.006.173-.03.194-.035.019-.044.061-.032.186.012.11.003.161-.02.17-.054.022-.084.253-.043.305.027.033.021.045-.017.06-.045.018-.048.046-.033.186.015.125.009.167-.024.18-.06.024-.083.185-.039.258.03.052.027.067-.017.103-.063.046-.108.259-.054.259.048 0 .039.091-.012.11-.062.024-.092.212-.042.273.033.043.03.055-.012.089-.068.048-.1.243-.053.3.03.037.024.058-.024.107-.068.07-.086.262-.024.286q.036.015-.035.082c-.06.061-.066.088-.05.204.011.103.005.15-.03.186-.036.036-.045.082-.033.191.014.113.009.15-.03.162-.036.015-.042.048-.027.182.018.137.012.164-.03.182-.041.016-.047.046-.03.183.015.134.01.167-.03.183s-.047.048-.029.182c.015.134.009.167-.03.183-.041.015-.047.048-.03.182.015.134.01.168-.03.183s-.047.048-.032.182c.012.131.006.17-.03.183-.035.015-.041.055-.032.188.011.128.002.174-.03.192-.036.021-.042.064-.027.198.012.128.006.17-.02.17-.051 0-.096.253-.048.268.044.015.035.097-.012.097-.06 0-.096.274-.042.31.03.022.03.03-.009.055-.065.04-.095.17-.057.244.024.048.018.079-.032.149s-.06.112-.045.197a.23.23 0 0 1-.03.186.25.25 0 0 0-.03.183.23.23 0 0 1-.03.182c-.035.055-.044.11-.029.2.015.092.006.135-.03.171-.035.04-.044.082-.03.186.013.097.007.146-.026.18-.054.05-.06.194-.01.246.028.027.022.048-.029.097-.071.067-.092.252-.033.289q.03.024-.03.08c-.065.063-.086.252-.032.285.045.027.036.076-.012.076-.024 0-.05.021-.06.049-.03.079-.02.24.015.277.024.024.015.042-.03.067q-.106.058-.026.23c.033.074.027.089-.033.135-.062.048-.068.07-.048.206.015.128.012.156-.032.174-.042.015-.048.045-.033.167.012.116.006.161-.03.189-.032.03-.041.079-.032.185.012.104.003.155-.03.183s-.039.079-.027.195c.012.127.006.164-.03.176-.035.015-.041.052-.032.176.011.11.002.17-.021.192-.05.04-.09.259-.045.259s.036.091-.012.11c-.062.024-.095.255-.044.288.035.025.032.037-.01.07-.062.049-.103.274-.056.304.048.03.042.08-.009.08-.062 0-.09.164-.042.243.033.055.033.07-.008.1a.21.21 0 0 0-.054.256c.036.067.033.082-.018.118-.047.037-.06.08-.053.201q.004.156-.042.2c-.033.037-.042.083-.027.183.012.1.006.146-.03.183-.035.033-.044.085-.032.186.009.097.003.149-.03.182-.033.03-.042.082-.03.183a.4.4 0 0 1-.02.194c-.024.043-.024.064 0 .073.017.006.026.043.02.082-.012.052.003.083.048.107.036.021.062.058.062.082 0 .034.018.04.063.027.038-.015.074-.006.092.019q.029.049.045.003c.006-.018.047-.037.086-.037s.071-.018.071-.04q0-.036.033.01c.024.033.036.036.048.006.006-.018.032-.037.056-.037a.04.04 0 0 0 .042-.04q0-.035.033.01c.023.033.035.037.047.01.01-.025.042-.034.087-.022q.073.019.089-.03c.012-.034.038-.043.092-.031.057.015.075.006.09-.046.017-.073.041-.079.088-.03.04.04.099.012.099-.052 0-.048.047-.058.074-.012.024.04.104.003.104-.049 0-.03.024-.036.09-.024q.09.017.089-.015c0-.022.02-.058.044-.082.04-.043.045-.043.045 0 0 .027.02.048.045.048s.044-.02.044-.048c0-.037.021-.043.09-.028.068.016.089.01.089-.024 0-.024.02-.052.045-.064.023-.009.044-.003.044.012 0 .018.021.03.045.03a.044.044 0 0 0 .044-.042q0-.041.075-.024c.053.009.074 0 .074-.037 0-.036.021-.042.09-.03.068.015.089.009.089-.03 0-.037.02-.043.089-.031.072.015.09.01.09-.033 0-.04.017-.05.07-.034.06.015.084 0 .135-.082.056-.088.062-.091.062-.03 0 .085.078.09.098.009.015-.061.08-.086.08-.03 0 .014.022.03.045.03a.044.044 0 0 0 .045-.043c0-.067.057-.088.107-.046.036.03.048.028.06-.02.02-.083.13-.156.13-.09 0 .025.015.046.03.046.018 0 .03-.02.03-.045s.018-.046.042-.046c.023 0 .05-.018.056-.04q.016-.03.018.016c.003.07.063.073.063.006 0-.04.008-.043.041-.015.05.042.137.012.137-.049 0-.036.009-.04.042-.012.053.046.125.015.152-.067q.017-.064.035-.03c.021.054.128.048.128-.006 0-.034.024-.04.09-.028.068.015.089.01.089-.03 0-.037.02-.043.089-.03q.09.016.09-.016c0-.021.02-.058.044-.082.038-.043.044-.043.044 0 0 .07.033.06.11-.034.051-.06.069-.066.069-.03q.002.103.101-.012c.045-.055.06-.058.08-.024.018.033.036.027.087-.028s.074-.064.107-.033c.033.027.044.024.056-.01q.02-.044.093-.03.073.017.071-.036c0-.037.02-.043.09-.03.07.014.089.008.089-.034 0-.04.018-.049.065-.034.05.012.086-.006.134-.064.053-.06.068-.067.068-.03 0 .03.021.052.045.052s.045-.015.045-.034c0-.018.02-.051.044-.076.039-.042.045-.042.045 0 0 .028.02.049.045.049a.044.044 0 0 0 .044-.043c0-.054.08-.088.107-.045.012.021.054-.006.105-.064q.085-.096.086-.049c0 .064.018.06.095-.018q.063-.066.077-.03c.018.054.066.045.066-.013 0-.04.009-.042.041-.015.048.043.137.012.137-.046 0-.03.024-.036.09-.024.068.015.089.01.089-.03 0-.037.02-.043.09-.03.068.014.088.008.088-.031 0-.037.021-.043.09-.03.068.015.089.009.089-.031 0-.037.02-.043.09-.03q.089.017.089-.016c0-.02.02-.057.044-.082.039-.042.045-.042.045 0 0 .028.02.049.044.049s.045-.015.045-.034c0-.018.02-.051.045-.076.038-.042.044-.042.044 0 0 .07.033.061.11-.033.051-.061.069-.067.069-.03 0 .07.036.063.098-.013.045-.048.063-.054.095-.027.036.03.05.024.072-.034.015-.04.03-.054.03-.036.002.067.112.043.136-.03q.018-.062.036-.03c.02.06.092.045.128-.025.027-.049.042-.055.074-.028.048.043.105.016.105-.048 0-.025.02-.043.044-.043s.045.012.045.03c0 .052.06.034.08-.024.03-.082.077-.097.116-.042.036.048.039.045.06-.01.032-.09.077-.109.122-.051.035.048.038.045.056-.015.018-.064.131-.122.131-.067 0 .015.015.027.03.027.018 0 .03-.021.03-.046s.017-.045.041-.045.05-.018.057-.04c.009-.021.018-.015.018.015.003.058.062.08.062.022 0-.019.024-.025.054-.015.062.02.1-.007.145-.104.027-.055.036-.06.036-.024.003.091.113.067.14-.03q.021-.09.033-.031c.018.076.09.067.13-.012q.038-.066.051-.03c.018.06.116.039.14-.034q.018-.062.036-.03c.018.048.128.051.128.006 0-.019.02-.052.045-.077.038-.042.044-.042.044 0 0 .028.021.05.045.05a.044.044 0 0 0 .044-.043c0-.055.08-.089.099-.04.009.021.044.003.092-.052.056-.064.077-.076.077-.04 0 .07.036.065.098-.011.042-.05.063-.055.096-.028.035.03.047.028.062-.009.009-.027.039-.04.075-.03.032.009.062-.003.074-.034.012-.033.039-.042.09-.03q.073.02.088-.034c.015-.033.042-.045.09-.033q.067.019.095-.03c.018-.031.048-.046.074-.034.078.03.194-.046.218-.146q.02-.095.032-.04c.018.08.045.067.122-.051.08-.128.098-.472.021-.472q-.04-.002-.027-.046c.012-.024-.056-.158-.157-.31a8 8 0 0 1-.218-.353 1 1 0 0 0-.11-.16c-.038-.043-.068-.09-.068-.107 0-.016-.024-.052-.05-.082a.5.5 0 0 1-.093-.128 2 2 0 0 0-.182-.305.6.6 0 0 1-.059-.1c-.024-.046-.054-.082-.068-.082-.012 0-.024-.015-.024-.03 0-.019-.08-.156-.179-.305a3 3 0 0 1-.178-.295c0-.015-.027-.042-.06-.064-.036-.02-.053-.051-.045-.067.01-.015-.005-.051-.035-.082a.5.5 0 0 1-.09-.14c-.02-.045-.05-.082-.068-.082-.015 0-.03-.018-.03-.04a1 1 0 0 0-.119-.212 1 1 0 0 1-.119-.201c0-.012-.026-.049-.06-.08-.032-.03-.059-.07-.059-.09s-.024-.061-.05-.095a.7.7 0 0 1-.098-.143.7.7 0 0 0-.105-.155 1 1 0 0 1-.098-.14l-.098-.191c-.03-.061-.071-.113-.086-.113-.018 0-.03-.021-.03-.046s-.024-.07-.05-.1a.7.7 0 0 1-.096-.137c-.024-.046-.053-.082-.068-.082-.012 0-.024-.015-.024-.037a1 1 0 0 0-.12-.21 1.3 1.3 0 0 1-.118-.194.3.3 0 0 0-.06-.082c-.032-.037-.06-.085-.06-.107s-.011-.04-.029-.04c-.015 0-.048-.048-.071-.106-.024-.058-.06-.106-.075-.106-.018 0-.033-.022-.033-.046s-.026-.073-.059-.106c-.033-.034-.06-.07-.06-.086 0-.012-.05-.097-.113-.188a3 3 0 0 1-.151-.253c-.024-.045-.054-.082-.069-.082-.012 0-.024-.018-.024-.04a.23.23 0 0 0-.05-.1.7.7 0 0 1-.098-.143.7.7 0 0 0-.105-.155 1.4 1.4 0 0 1-.196-.331c-.018-.046-.045-.083-.06-.083s-.044-.048-.068-.106-.06-.106-.074-.106c-.018 0-.033-.019-.033-.04a1 1 0 0 0-.119-.213 1 1 0 0 1-.119-.2c0-.013-.027-.05-.06-.08-.032-.03-.059-.07-.059-.091 0-.022-.027-.061-.06-.091-.032-.03-.06-.073-.06-.098 0-.021-.02-.04-.044-.04s-.044-.027-.044-.06a.18.18 0 0 0-.06-.113c-.033-.03-.06-.07-.06-.091s-.023-.064-.05-.094a.5.5 0 0 1-.092-.128 1.5 1.5 0 0 0-.158-.265.6.6 0 0 1-.08-.14c-.018-.045-.048-.082-.066-.082-.014 0-.03-.018-.03-.04a1 1 0 0 0-.118-.212 1 1 0 0 1-.12-.204c0-.018-.02-.03-.044-.03s-.045-.025-.045-.055c0-.034-.026-.082-.056-.11a.3.3 0 0 1-.075-.128c-.012-.04-.032-.073-.047-.073s-.048-.048-.072-.106-.06-.107-.074-.107c-.018 0-.033-.018-.033-.04a1 1 0 0 0-.119-.212 1 1 0 0 1-.119-.2c0-.013-.027-.05-.06-.08-.032-.03-.059-.07-.059-.091 0-.022-.027-.061-.06-.091-.032-.03-.059-.073-.059-.098 0-.021-.012-.04-.03-.04-.015 0-.047-.048-.071-.106s-.057-.106-.068-.106c-.015 0-.042-.037-.063-.085q-.108-.243-.173-.271c-.023-.01-.041-.04-.041-.07s-.021-.07-.048-.091a.5.5 0 0 1-.086-.143c-.024-.055-.057-.1-.072-.1a.033.033 0 0 1-.032-.034c0-.022-.063-.131-.14-.25a4 4 0 0 1-.185-.292.6.6 0 0 0-.08-.115.3.3 0 0 1-.056-.1c-.01-.034-.033-.062-.048-.062s-.027-.015-.027-.033-.06-.122-.134-.231a2 2 0 0 1-.134-.207c0-.01-.047-.082-.104-.164a.7.7 0 0 1-.104-.18c0-.018-.05-.058-.11-.088a.35.35 0 0 1-.152-.14c-.028-.058-.068-.085-.111-.083m-.614-3.408c.086 0 .173.014.202.046.06.061.102.058.102-.003 0-.042.009-.042.044-.012.024.021.045.055.045.073s.048.058.104.085c.09.046.104.049.104.006 0-.036.006-.036.042-.006.024.021.036.052.027.064-.018.03.134.295.17.295.017 0 .029.019.029.04s.024.067.054.1a1 1 0 0 1 .092.14c.024.049.062.085.086.085s.036.018.027.043c-.01.024.015.076.05.115.04.04.078.1.09.137.012.04.035.07.05.07.018 0 .045.04.06.092.018.048.044.09.06.09.014 0 .044.05.068.107.024.058.056.107.074.107.015 0 .057.06.092.137.036.076.078.137.093.137s.026.018.026.04c0 .024.027.066.06.096s.06.073.06.092c0 .021.02.058.047.079s.06.067.074.103c.015.034.069.116.117.183.163.222.267.383.267.41 0 .016.024.046.054.067a.35.35 0 0 1 .086.122c.02.049.05.085.066.085.014 0 .035.034.044.076.01.04.045.089.078.107.032.018.06.058.06.091 0 .034.026.073.059.091.032.019.06.052.06.073 0 .04.425.71.487.764a.4.4 0 0 1 .068.112c.021.05.051.086.069.086.015 0 .03.021.03.045 0 .025.024.07.053.1a.5.5 0 0 1 .087.138c.02.045.05.082.068.082.015 0 .03.021.03.045 0 .028.033.08.071.116a.4.4 0 0 1 .09.134c.011.04.032.07.047.07.012 0 .054.06.09.137.035.076.077.137.092.137s.026.018.026.04c0 .02.027.07.06.106s.06.076.06.09c0 .016.032.059.074.098s.074.088.074.107c0 .021.027.06.057.088a.3.3 0 0 1 .074.128c.012.04.033.073.048.073s.05.048.077.106.06.107.074.107c.015 0 .027.018.027.036 0 .022.033.08.075.128.038.049.08.113.089.143.012.033.036.058.057.058.023 0 .047.04.059.09.009.05.036.092.06.092.02 0 .05.037.062.082.009.046.03.092.042.1.011.01.086.116.163.235.078.122.152.222.167.222.018 0 .03.027.03.058 0 .033.012.067.026.079.018.009.12.152.23.32.107.167.208.304.223.304s.026.02.026.045.024.07.054.1a.5.5 0 0 1 .086.137c.021.046.051.083.069.083.015 0 .03.015.03.036 0 .049.36.602.392.602.012 0 .024.022.024.046s.024.07.054.1c.027.03.068.092.092.137s.053.082.068.082c.012 0 .024.019.024.037 0 .021.033.08.075.128.038.048.08.112.089.143.012.033.033.058.048.058.017 0 .044.04.059.09.018.05.045.092.06.092s.044.049.068.107.056.106.071.106c.018 0 .039.034.048.076.009.04.045.088.077.106.033.019.06.055.06.086 0 .027.03.085.068.127a1 1 0 0 1 .107.159c.024.048.054.085.069.085.012 0 .024.018.024.04 0 .02.023.066.053.1.027.03.069.094.092.14.024.048.054.085.063.085.012 0 .039.04.06.091.02.049.053.091.07.091.019 0 .051.037.072.083q.109.246.173.273c.024.01.042.034.042.058s.03.073.065.11a.3.3 0 0 1 .074.115c.003.025.033.064.066.089.036.02.062.06.062.082 0 .042.542.885.607.94a.4.4 0 0 1 .069.112c.02.049.05.086.068.086.015 0 .03.02.03.045s.027.073.057.103.065.086.077.122c.009.037.044.08.077.094.03.019.057.061.057.095 0 .033.02.067.044.076s.072.079.105.152c.035.073.077.134.092.134s.027.018.027.04c0 .02.023.066.053.1.027.03.069.094.092.14.024.048.054.085.069.085.012 0 .024.018.024.042 0 .022.03.073.068.113.036.04.086.11.107.155.024.049.054.085.069.085.011 0 .023.019.023.04s.024.067.054.1c.027.03.068.095.086.14.021.049.05.085.069.085.015 0 .03.019.03.043 0 .021.032.073.07.113.04.04.078.103.09.14.012.039.042.07.066.07.023 0 .041.027.041.057 0 .034.03.098.069.146a11 11 0 0 1 .274.405c.083.122.17.252.193.289.34.517.45.681.467.69.036.016.188.338.188.396 0 .027.014.06.03.07.017.009.029.106.029.213 0 .106-.012.204-.03.213-.015.009-.03.052-.03.091 0 .04-.011.08-.026.091s-.036.058-.048.107c-.012.051-.03.091-.044.091-.051 0-.209.189-.209.25 0 .048-.015.057-.086.039-.05-.01-.095-.006-.107.012-.01.018-.045.034-.078.034-.032 0-.065.018-.074.042s-.045.034-.086.025q-.073-.014-.092.033c-.01.027-.04.04-.078.027-.036-.009-.077.003-.095.03-.018.025-.072.043-.122.043-.057-.003-.086.013-.083.034.006.027-.018.033-.08.021-.075-.015-.093-.009-.117.052-.015.04-.03.055-.03.033-.003-.024-.03-.036-.068-.03q-.067.009-.066.064c.006.058-.032.07-.062.021-.033-.052-.104-.033-.13.037q-.023.062-.045.03c-.036-.06-.108-.04-.137.04-.03.076-.066.106-.054.04.015-.068-.098-.065-.116.002-.015.064-.068.088-.068.034 0-.052-.087-.034-.117.024-.02.043-.053.055-.125.043-.077-.013-.092-.006-.077.033.015.04 0 .046-.086.03-.077-.012-.101-.006-.101.028 0 .03-.024.04-.09.03q-.091-.014-.089.03c0 .031-.024.04-.086.031-.069-.009-.086 0-.104.061-.012.052-.024.06-.045.03-.03-.051-.14-.033-.128.019.003.027-.018.03-.071.018q-.081-.021-.113.021c-.018.024-.066.043-.107.043-.054 0-.075.015-.072.051.003.03-.006.055-.02.055-.016 0-.028-.015-.028-.033s-.03-.028-.065-.022c-.042.007-.068.03-.065.061.003.043-.006.046-.069.016-.062-.028-.08-.025-.113.018q-.038.05-.09.033c-.032-.015-.065-.003-.086.025-.017.024-.07.042-.122.042-.05-.003-.089.012-.089.034 0 .042-.02.048-.092.018-.03-.012-.065 0-.086.03s-.06.043-.099.03c-.044-.008-.07 0-.083.034s-.038.043-.09.03c-.05-.012-.076-.002-.088.031q-.017.05-.087.03c-.05-.012-.077 0-.104.05s-.041.057-.06.03c-.03-.05-.118-.016-.118.045 0 .025-.012.046-.03.046a.03.03 0 0 1-.03-.03c0-.05-.053-.037-.119.03-.03.03-.065.045-.074.033-.021-.04-.134-.003-.134.04 0 .024-.033.033-.09.024q-.091-.014-.089.03c0 .031-.026.04-.089.031q-.091-.015-.09.03c0 .03-.023.04-.086.03-.068-.008-.086 0-.104.062-.012.051-.023.06-.044.03-.03-.049-.14-.033-.131.018q.009.036-.08.019c-.063-.016-.093-.006-.105.024q-.02.045-.089.03-.074-.012-.09.03c-.011.031-.044.04-.089.031q-.074-.014-.092.037-.017.051-.08.03c-.042-.012-.074 0-.113.052-.03.04-.057.055-.057.033 0-.06-.083-.042-.122.03q-.036.066-.05.031c-.018-.058-.09-.042-.128.028-.024.048-.039.054-.057.027-.033-.052-.134-.021-.13.04.005.057-.022.066-.066.02-.042-.042-.131-.005-.131.053 0 .036-.009.04-.042.012-.05-.043-.137-.012-.137.048 0 .037-.008.04-.041.013-.054-.046-.125-.016-.152.066q-.018.064-.036.028c-.02-.052-.128-.046-.128.006 0 .033-.026.04-.11.027-.089-.015-.104-.012-.089.03.015.04 0 .046-.086.031-.078-.012-.101-.006-.101.028 0 .03-.024.039-.087.03-.068-.01-.09.003-.104.06q-.02.066-.039.031c-.023-.06-.119-.042-.143.03q-.017.066-.035.031c-.021-.052-.128-.046-.128.006q-.001.041-.095.037-.096-.002-.093.033c.006.027-.017.034-.08.021-.062-.015-.092-.006-.104.025-.012.03-.045.04-.09.03q-.074-.014-.092.037-.014.049-.089.03c-.05-.012-.077-.003-.09.03q-.015.05-.088.03c-.051-.011-.078-.002-.09.031q-.017.053-.08.03c-.042-.011-.074 0-.113.052-.03.04-.057.055-.057.034 0-.06-.083-.043-.119.027-.026.049-.041.055-.077.028-.053-.046-.13-.019-.13.048 0 .04-.01.043-.043.016-.05-.043-.136-.013-.136.048 0 .037-.01.04-.042.012-.048-.042-.137-.012-.137.046 0 .049-.05.058-.065.01-.015-.043-.113 0-.113.05 0 .031-.024.037-.09.025-.062-.015-.092-.006-.104.025q-.019.045-.104.03c-.066-.01-.09 0-.09.03s-.026.04-.089.03q-.091-.014-.089.031c0 .03-.024.04-.086.03-.069-.008-.09.004-.104.061q-.02.066-.039.03c-.02-.05-.128-.045-.128.007q-.001.041-.095.036c-.06 0-.095.013-.092.03.003.022-.033.034-.09.031q-.092-.001-.089.034c.006.027-.018.033-.08.021-.063-.015-.092-.006-.104.024s-.045.04-.09.03q-.075-.012-.092.037-.017.05-.086.03c-.05-.011-.078 0-.104.05-.027.051-.042.057-.06.03-.03-.049-.119-.015-.119.046 0 .024-.012.045-.03.045-.014 0-.03-.015-.03-.03 0-.052-.086-.034-.124.027q-.036.064-.072.03c-.047-.039-.137 0-.119.052.018.049-.018.055-.06.012s-.13-.006-.13.055q0 .054-.033.015c-.048-.048-.137-.012-.16.061q-.019.064-.036.028c-.021-.052-.128-.046-.128.009 0 .033-.024.04-.09.024-.068-.012-.089-.006-.089.03 0 .04-.02.046-.09.034-.062-.015-.091-.006-.103.024s-.045.04-.09.03c-.047-.008-.08.004-.089.031q-.018.045-.104.03c-.068-.009-.09 0-.09.037s-.02.043-.086.03c-.068-.015-.086-.006-.104.055q-.019.066-.038.03c-.018-.042-.146-.048-.173-.005-.009.015-.116.03-.238.03s-.23-.015-.238-.03c-.009-.019-.045-.03-.077-.03-.03 0-.057-.016-.057-.031 0-.019-.027-.03-.06-.03-.032 0-.059-.01-.059-.025 0-.012-.03-.04-.062-.064-.054-.03-.069-.033-.09 0-.018.03-.032.018-.053-.036-.033-.089-.11-.134-.131-.08-.01.022-.027 0-.045-.042-.038-.097-.116-.137-.134-.064-.009.037-.018.03-.033-.03-.026-.092-.104-.137-.142-.08-.018.03-.03.03-.054-.006a.2.2 0 0 1-.03-.088c0-.021-.017-.033-.044-.021-.027.009-.045 0-.045-.027 0-.052-.107-.12-.149-.092-.017.01-.03-.003-.03-.027 0-.067-.118-.128-.151-.076q-.023.041-.042-.04c-.024-.091-.101-.137-.137-.079q-.024.037-.041-.042c-.021-.089-.101-.137-.134-.086-.012.019-.036-.003-.054-.048q-.038-.079-.08-.061c-.024.01-.045 0-.045-.021s-.03-.055-.062-.08c-.054-.033-.069-.033-.09.004q-.028.046-.026-.022c0-.082-.116-.161-.152-.103q-.023.041-.042-.04c-.02-.079-.134-.143-.134-.076-.003.022-.02 0-.044-.042-.048-.092-.125-.134-.143-.08-.009.022-.03 0-.045-.045-.024-.058-.047-.08-.08-.067-.024.012-.045.003-.045-.018 0-.064-.098-.122-.14-.085-.03.024-.038.015-.038-.03 0-.065-.125-.123-.143-.068-.018.049-.066.003-.066-.06 0-.065-.089-.11-.121-.058q-.02.031-.042-.037c-.03-.091-.078-.125-.125-.085-.027.024-.042.012-.057-.046-.009-.042-.03-.079-.044-.079a.3.3 0 0 1-.113-.064c-.048-.036-.102-.054-.12-.045-.017.012-.032 0-.032-.025 0-.024-.027-.06-.057-.079-.08-.042-.1-.04-.08.015.009.025.003.046-.012.046-.018 0-.03-.033-.03-.076s-.024-.088-.056-.106c-.072-.037-.101-.04-.078-.004a.035.035 0 0 1-.012.046c-.014.012-.035-.024-.047-.076-.018-.079-.03-.091-.092-.076-.057.015-.075.006-.09-.058-.009-.042-.032-.073-.05-.067s-.063-.021-.101-.058c-.042-.04-.093-.06-.116-.051s-.042-.003-.042-.03c0-.05-.08-.098-.14-.086a.033.033 0 0 1-.039-.033c0-.022-.026-.058-.06-.08-.05-.03-.059-.03-.059.013 0 .04-.006.04-.038.006a.3.3 0 0 1-.06-.094c-.02-.055-.08-.073-.08-.022 0 .064-.06.028-.077-.045-.01-.043-.036-.076-.06-.076s-.042-.013-.042-.03c0-.016-.03-.043-.062-.065-.05-.024-.069-.024-.09.006q-.023.043-.041-.04c-.024-.09-.101-.136-.137-.078q-.023.036-.042-.043c-.018-.076-.134-.143-.134-.079 0 .015-.017.024-.035.015-.021-.006-.036-.033-.03-.06.009-.058-.101-.131-.12-.077-.017.055-.082-.003-.082-.073q0-.061-.045-.042c-.027.009-.045 0-.045-.028 0-.024-.018-.045-.041-.045s-.05-.019-.057-.04c-.012-.027-.024-.024-.047.01-.024.036-.036.03-.06-.034-.033-.088-.11-.134-.13-.08-.01.022-.028 0-.046-.042-.038-.097-.115-.137-.133-.064-.01.037-.018.03-.033-.03-.024-.082-.113-.143-.131-.088-.012.04-.095-.037-.095-.086 0-.018-.021-.033-.045-.033a.046.046 0 0 1-.045-.046c0-.042-.041-.057-.14-.054-.02.003-.038-.016-.038-.04 0-.064-.122-.119-.152-.07q-.023.041-.041-.04c-.024-.09-.102-.136-.137-.079q-.023.037-.042-.042c-.02-.082-.11-.143-.128-.088-.012.036-.068.045-.062.009.014-.091-.006-.134-.063-.119-.036.01-.06 0-.06-.021 0-.046-.113-.116-.148-.094-.018.012-.03.003-.03-.019 0-.036-.086-.115-.125-.118-.015 0-.024.024-.027.051 0 .034-.018.019-.041-.04-.042-.097-.134-.16-.134-.094 0 .022-.027-.009-.063-.066-.047-.08-.074-.098-.134-.086q-.073.016-.071-.033a.7.7 0 0 0-.09-.195 1 1 0 0 1-.089-.176c0-.018-.012-.03-.026-.03-.021 0-.051-.165-.063-.35-.009-.143.125-.524.202-.572a.1.1 0 0 0 .036-.073c0-.028.03-.08.068-.116a2 2 0 0 0 .14-.18c.042-.06.11-.16.158-.222a.4.4 0 0 0 .08-.149c0-.024.012-.042.027-.042s.066-.061.113-.137c.045-.076.093-.137.104-.137s.027-.043.04-.091c.011-.052.035-.092.056-.092s.056-.036.08-.085a.4.4 0 0 1 .063-.097c.044-.037.232-.338.232-.377 0-.022.032-.064.074-.092s.074-.07.074-.094.018-.055.04-.067c.053-.033.258-.347.258-.395a.04.04 0 0 1 .039-.04c.023 0 .06-.036.083-.085a.7.7 0 0 1 .083-.128.6.6 0 0 0 .084-.143c.02-.055.05-.1.065-.1s.054-.046.09-.1l.097-.159c.021-.033.075-.106.123-.16.044-.056.08-.12.08-.144s.015-.046.03-.046c.017 0 .047-.036.068-.082a.6.6 0 0 1 .08-.134 1.2 1.2 0 0 0 .209-.286c.027-.051.071-.118.098-.152.125-.143.229-.3.229-.353 0-.033.02-.057.048-.057.026 0 .062-.043.08-.092.018-.051.042-.09.053-.09.024 0 .265-.375.265-.408 0-.016.033-.052.075-.086s.074-.076.074-.1c0-.021.009-.046.024-.052.033-.015.238-.31.25-.359a.24.24 0 0 1 .077-.1c.036-.03.066-.07.066-.085 0-.019.032-.067.074-.113s.074-.106.074-.134c0-.03.027-.067.06-.085a.2.2 0 0 0 .077-.106c.01-.043.03-.077.045-.077.024 0 .143-.164.235-.331.027-.043.068-.106.095-.14.158-.192.232-.304.232-.353 0-.033.021-.058.045-.058.027 0 .063-.036.083-.082a.6.6 0 0 1 .075-.13c.113-.134.217-.293.232-.356.012-.037.035-.07.06-.07.02 0 .047-.034.059-.077a.2.2 0 0 1 .053-.1c.06-.036.256-.332.256-.383 0-.028.018-.049.042-.049s.06-.043.083-.091c.021-.052.05-.091.063-.091s.05-.061.083-.137.072-.137.083-.137c.015 0 .054-.046.087-.1l.151-.22c.051-.067.107-.155.128-.197a.5.5 0 0 1 .057-.092 2.6 2.6 0 0 0 .235-.322c0-.006.024-.043.053-.076a.6.6 0 0 0 .099-.14 1 1 0 0 1 .08-.13c.128-.15.214-.29.214-.342 0-.033.027-.066.06-.076s.068-.048.077-.088c.01-.04.03-.073.042-.073.03 0 .268-.365.268-.417a.04.04 0 0 1 .038-.04c.024 0 .06-.036.084-.084a.5.5 0 0 1 .077-.12c.027-.033.247-.352.351-.516.018-.028.06-.082.095-.122a.6.6 0 0 0 .087-.137.3.3 0 0 1 .06-.11c.175-.206.22-.267.22-.288 0-.016.032-.067.074-.119a.3.3 0 0 0 .074-.13c0-.025.018-.055.042-.068.056-.03.184-.21.24-.337.025-.052.06-.098.075-.098.018 0 .048-.036.069-.082a.6.6 0 0 1 .074-.13c.17-.208.214-.274.23-.344.011-.046.038-.083.059-.083.041 0 .086-.085.077-.146a.032.032 0 0 1 .033-.036c.041-.003.262-.307.262-.362 0-.018.026-.046.056-.064a.17.17 0 0 0 .077-.091.5.5 0 0 1 .093-.143c.038-.043.071-.1.071-.125s.027-.073.06-.11c.098-.103.238-.282.238-.304 0-.012.027-.051.06-.088a.35.35 0 0 0 .077-.134c.011-.04.03-.07.044-.07.021 0 .083-.082.22-.298a1 1 0 0 1 .099-.125.6.6 0 0 0 .083-.133.3.3 0 0 1 .06-.107c.151-.182.214-.277.232-.353.011-.045.03-.079.038-.067.027.025.277-.23.277-.283 0-.033.009-.033.045-.003s.047.028.062-.009a.054.054 0 0 1 .068-.03c.03.009.075-.006.096-.034.028-.032.114-.048.2-.05m-9.52-3.63c.038.003.074.015.074.03s.021.03.045.03.044-.015.044-.03c0-.018.027-.03.06-.03s.06.02.06.045c0 .064.089.094.122.043q.026-.05.026.024c0 .04.012.07.03.07.045 0 .31.283.348.374.021.046.05.082.069.082.015 0 .03.022.03.046s.026.073.056.103.066.085.077.122.045.079.078.094c.03.019.056.052.056.076 0 .055.595.959.628.959.015 0 .027.02.027.045s.024.07.053.1a.5.5 0 0 1 .087.137c.02.046.05.083.068.083.015 0 .03.02.03.045s.024.07.053.1a.5.5 0 0 1 .087.137c.02.046.05.083.065.083s.057.06.093.137c.035.076.077.136.092.136s.026.019.026.04.024.067.054.1c.027.03.069.095.092.14.024.049.054.086.069.086.012 0 .024.018.024.04s.032.072.074.112.074.088.074.106c0 .021.027.06.06.091.033.03.06.07.06.092 0 .02.026.06.059.09.033.031.06.074.06.098 0 .022.026.064.059.091.033.03.06.067.06.086 0 .021.032.067.07.103.04.04.081.104.09.143.012.04.039.073.063.073.023 0 .044.028.044.058 0 .033.033.1.075.149a.4.4 0 0 1 .074.122c0 .018.012.036.027.042.02.01.196.265.369.545.033.048.068.088.083.088s.027.021.027.046.024.07.053.1a.5.5 0 0 1 .087.137c.02.046.05.082.065.082s.036.034.045.076c.009.04.044.088.077.107.033.018.06.051.06.076 0 .024.026.073.062.11.069.07.116.3.063.3-.015 0-.054.052-.084.116-.032.06-.08.14-.11.173-.125.143-.229.302-.229.353 0 .034-.02.058-.044.058-.027 0-.063.036-.08.08a1 1 0 0 1-.129.179l-.09.1-.118-.195c-.066-.106-.128-.194-.14-.194-.015 0-.024-.016-.024-.034 0-.052-.265-.453-.297-.453-.018 0-.03-.028-.03-.061a.2.2 0 0 0-.057-.113.3.3 0 0 1-.074-.124c-.012-.037-.036-.067-.05-.067s-.027-.018-.027-.04c0-.021-.027-.07-.06-.106a.3.3 0 0 1-.06-.082c0-.022-.458-.746-.511-.806a.6.6 0 0 1-.075-.131c-.02-.046-.05-.083-.068-.083-.015 0-.03-.018-.03-.039a1 1 0 0 0-.113-.204 3 3 0 0 1-.152-.252c-.023-.046-.053-.082-.068-.082-.012 0-.024-.016-.024-.03 0-.02-.125-.22-.274-.451a8 8 0 0 1-.312-.499c-.02-.049-.05-.085-.068-.085-.015 0-.03-.019-.03-.04s-.027-.07-.06-.106a.3.3 0 0 1-.06-.089c0-.012-.053-.1-.118-.194a1.3 1.3 0 0 1-.12-.198c0-.046-.1-.134-.151-.134-.033 0-.063-.03-.074-.076-.015-.058-.04-.076-.105-.076-.053 0-.086.015-.086.043 0 .024-.03.048-.065.055-.09.012-.161.24-.105.331.03.052.027.067-.011.088-.066.04-.102.235-.054.292.03.037.027.052-.015.082-.068.052-.098.262-.044.299.035.024.032.036-.012.07-.069.051-.102.246-.054.304.03.033.024.048-.018.073s-.053.07-.053.195c0 .088-.012.17-.03.182-.015.012-.027.094-.024.18q.004.158-.042.203c-.032.037-.041.083-.026.183.012.1.006.146-.03.182-.036.034-.045.086-.033.186.01.097.003.15-.03.182-.032.03-.041.083-.03.183.01.097.004.15-.03.183-.035.033-.04.082-.026.203.015.128.009.162-.03.177-.041.015-.047.048-.032.182.012.134.006.17-.03.183-.039.015-.045.052-.03.182.012.131.006.17-.03.183-.035.015-.041.055-.032.185.011.125.003.168-.03.183-.036.012-.039.052-.024.18.015.133.009.167-.03.182-.041.015-.047.049-.03.183.015.133.01.167-.03.182s-.047.049-.032.186c.012.134.006.173-.03.194-.038.022-.044.058-.03.183.012.11.006.161-.02.176-.05.03-.093.253-.048.253s.036.091-.012.11c-.06.024-.089.218-.042.276.03.037.027.052-.011.082-.063.046-.107.292-.057.292.018 0 .033.022.033.046s-.021.046-.045.046c-.056 0-.095.203-.047.28.026.042.02.066-.027.115-.066.067-.083.262-.021.283.024.01.015.033-.03.08-.068.066-.095.215-.038.215.05 0 .032.107-.03.161-.069.058-.078.146-.024.235.033.048.027.07-.03.121q-.107.104-.032.25c.026.048.02.073-.033.121-.054.052-.063.082-.045.207.015.119.012.146-.033.165-.041.015-.047.045-.03.182.016.134.01.167-.03.183s-.047.048-.032.182c.012.134.006.17-.03.183-.038.015-.044.051-.03.182.013.134.007.17-.03.183-.038.015-.044.054-.029.2.012.152.006.183-.03.183-.038 0-.044.03-.03.18.013.145.007.185-.03.197-.035.015-.04.052-.026.183.018.137.012.164-.03.182-.041.016-.047.046-.03.183.015.134.01.167-.03.182-.04.016-.047.049-.029.183.012.125.009.167-.024.18-.062.024-.089.188-.041.261.032.052.03.067-.015.1-.063.046-.107.268-.054.268.018 0 .033.021.033.046s-.012.045-.027.045c-.027 0-.155.204-.163.259a.3.3 0 0 1-.057.091c-.125.146-.23.283-.23.304a.4.4 0 0 1-.074.113.3.3 0 0 0-.074.13.1.1 0 0 1-.036.068c-.047.03-.232.27-.232.304a.7.7 0 0 1-.089.13c-.05.058-.09.122-.09.144s-.011.04-.023.04c-.015 0-.068.066-.122.151-.113.18-.14.201-.197.152-.035-.03-.044-.027-.047.019 0 .045-.009.042-.036-.019-.05-.115-.119-.16-.143-.097-.014.043-.023.034-.041-.03-.024-.092-.101-.137-.137-.08q-.023.037-.042-.045c-.012-.046-.039-.082-.062-.082-.024 0-.069-.028-.105-.064-.032-.034-.08-.055-.104-.046s-.041-.003-.041-.027c0-.052-.107-.119-.15-.091q-.027.012-.029-.028c0-.067-.119-.127-.152-.076q-.023.042-.041-.04c-.024-.09-.101-.136-.137-.078q-.023.036-.042-.046c-.012-.046-.041-.082-.065-.082-.021 0-.072-.028-.107-.061-.036-.034-.08-.055-.102-.049-.02.01-.038 0-.038-.021s-.03-.055-.063-.08c-.053-.033-.068-.033-.089.004q-.028.046-.027-.021a.13.13 0 0 0-.06-.098c-.047-.033-.062-.03-.083.01-.023.042-.032.033-.06-.046-.035-.1-.062-.116-.115-.061-.027.027-.042.015-.057-.046-.009-.042-.03-.079-.044-.079-.015 0-.054-.027-.087-.06-.074-.077-.11-.077-.127-.01-.01.04-.018.028-.036-.036-.03-.107-.069-.143-.14-.119q-.054.015-.054-.03c0-.064-.11-.125-.128-.07-.009.021-.026.003-.044-.043-.03-.079-.125-.143-.125-.088 0 .064-.06.027-.078-.046-.008-.042-.03-.076-.047-.076-.015 0-.057-.027-.09-.06-.038-.037-.086-.055-.118-.043-.033.009-.054 0-.054-.025 0-.057-.11-.124-.128-.076-.009.022-.027 0-.045-.042-.035-.091-.125-.143-.125-.073 0 .073-.047.051-.05-.022a.17.17 0 0 0-.057-.106c-.041-.03-.056-.03-.086.012-.033.043-.039.04-.057-.03-.008-.046-.032-.082-.047-.082a.4.4 0 0 1-.11-.08c-.075-.07-.084-.072-.101-.02-.021.048-.024.048-.024-.01a.2.2 0 0 0-.075-.115c-.068-.043-.074-.043-.086.006q-.012.06-.033-.03c-.026-.092-.104-.138-.14-.08q-.023.036-.041-.043c-.021-.085-.11-.142-.128-.085-.015.046-.095-.021-.095-.079a.044.044 0 0 0-.045-.042c-.024 0-.045-.01-.045-.025 0-.012-.03-.04-.062-.064-.054-.033-.068-.033-.09.003q-.028.046-.026-.02c0-.083-.116-.162-.152-.104q-.025.045-.053-.037c-.033-.088-.11-.134-.131-.079-.01.021-.027 0-.045-.043-.039-.097-.125-.14-.128-.063 0 .03-.02.009-.045-.049q-.046-.104-.086-.085c-.024.009-.045.006-.045-.006 0-.016-.074-.104-.163-.198s-.164-.198-.164-.231c0-.034-.012-.07-.03-.08-.038-.024-.038-.35 0-.35.018 0 .03-.02.03-.045 0-.04.095-.237.149-.304.015-.018.027-.04.027-.055a.3.3 0 0 1 .05-.076c.122-.137.22-.295.22-.344 0-.033.021-.057.048-.057s.063-.043.08-.092c.018-.051.042-.09.054-.09.027 0 .265-.378.265-.42 0-.022.018-.037.039-.037.023 0 .06-.037.083-.085a1 1 0 0 1 .092-.14.5.5 0 0 0 .072-.116.4.4 0 0 1 .08-.128c.116-.124.2-.246.2-.286 0-.018.011-.036.026-.036.03 0 .125-.14.134-.195a.3.3 0 0 1 .062-.1c.033-.034.093-.113.134-.174s.11-.16.158-.222a.4.4 0 0 0 .08-.149c0-.021.012-.042.027-.048.048-.019.238-.295.259-.375.009-.042.036-.076.054-.076.02 0 .056-.036.08-.085a.4.4 0 0 1 .062-.097c.045-.034.262-.383.262-.42 0-.018.021-.037.045-.037s.05-.033.062-.076a.2.2 0 0 1 .054-.1c.06-.036.256-.332.256-.383 0-.028.018-.049.039-.049.023 0 .059-.036.083-.085a.7.7 0 0 1 .083-.128.6.6 0 0 0 .083-.143c.021-.055.051-.1.066-.1s.054-.046.09-.1l.097-.159a2 2 0 0 1 .122-.161.4.4 0 0 0 .08-.143c0-.021.013-.046.028-.052.035-.012.24-.292.24-.328 0-.019.012-.03.027-.03s.057-.062.093-.138.074-.137.086-.137c.033 0 .24-.328.24-.38 0-.024.022-.046.046-.046.026 0 .062-.036.083-.082a.6.6 0 0 1 .095-.149 2 2 0 0 0 .134-.194 2 2 0 0 1 .158-.228.5.5 0 0 0 .08-.12c0-.011.027-.048.06-.084.032-.037.059-.085.059-.107s.012-.04.027-.04.068-.063.119-.145c.05-.08.107-.17.128-.201.02-.034.068-.094.107-.137a.3.3 0 0 0 .065-.13c0-.031.027-.068.057-.086a.17.17 0 0 0 .077-.097.4.4 0 0 1 .092-.131c.04-.037.072-.082.072-.098 0-.018.02-.051.05-.073a.5.5 0 0 0 .09-.143c.02-.051.05-.097.065-.097s.054-.046.09-.1l.098-.159c.02-.033.074-.106.122-.16a.4.4 0 0 0 .08-.128c0-.019.02-.055.048-.086.11-.127.223-.295.238-.362.012-.036.035-.07.06-.07.02 0 .047-.033.059-.076.009-.042.035-.088.056-.1.045-.027.253-.338.253-.377 0-.019.033-.058.075-.092s.074-.079.074-.103.012-.043.024-.043c.015 0 .044-.036.068-.082a1 1 0 0 1 .107-.155.5.5 0 0 0 .087-.14.25.25 0 0 1 .074-.103.14.14 0 0 0 .057-.1c0-.031.017-.058.038-.058.024 0 .066-.052.098-.116a.5.5 0 0 1 .08-.125c.022-.009.114-.143.215-.304.018-.027.06-.088.098-.134a.34.34 0 0 0 .066-.128c0-.024.026-.057.056-.076a.17.17 0 0 0 .077-.094.5.5 0 0 1 .12-.155c.056-.049.104-.116.11-.152.012-.08.089-.131.154-.107.069.028.093.025.096-.009l.008-.045c.004-.016.042-.02.079-.016m-8.134-.001c.02.002.039.008.039.016s.01.016.023.016.024-.008.024-.016c0-.01.014-.016.031-.016s.031.01.031.024c0 .033.047.049.064.022q.014-.026.014.013c0 .02.006.036.016.036.023 0 .162.149.182.196.011.024.027.043.036.043s.016.012.016.024.014.038.03.054a.2.2 0 0 1 .04.064.08.08 0 0 0 .04.05c.016.01.03.027.03.04 0 .028.312.501.329.501.008 0 .014.012.014.024s.012.037.028.053a.3.3 0 0 1 .045.072c.01.024.027.043.036.043q.014.001.015.024c0 .012.013.036.029.052a.3.3 0 0 1 .045.072c.01.024.026.043.034.043s.03.032.048.072.04.071.049.071c.007 0 .014.01.014.021s.012.035.028.053c.014.016.036.05.048.073.013.026.028.045.036.045.006 0 .012.01.012.02 0 .013.018.039.04.06.021.02.038.046.038.055 0 .011.014.032.032.048.017.016.03.036.03.048 0 .01.015.031.032.048.017.016.031.038.031.05s.014.034.031.048c.017.016.031.035.031.045 0 .011.018.035.038.054.02.02.042.054.047.075.006.02.02.038.032.038s.024.015.024.03c0 .018.017.053.039.079a.2.2 0 0 1 .039.063q.001.017.014.023c.01.005.103.138.193.285.017.025.036.046.044.046.007 0 .014.011.014.024s.012.037.028.053a.3.3 0 0 1 .045.071c.01.024.026.043.034.043s.019.018.024.04c.004.02.023.046.04.056s.031.027.031.04.014.038.033.057c.036.037.06.158.033.158-.008 0-.028.027-.044.06a1 1 0 0 1-.058.091c-.065.075-.12.158-.12.185q-.002.029-.023.03c-.014 0-.033.02-.042.042a.5.5 0 0 1-.067.094l-.047.053-.062-.102a.5.5 0 0 0-.074-.102q-.011-.002-.012-.018a1 1 0 0 0-.156-.237c-.01 0-.015-.015-.015-.032a.1.1 0 0 0-.03-.06.2.2 0 0 1-.039-.065c-.006-.019-.019-.035-.027-.035-.007 0-.014-.01-.014-.02 0-.012-.014-.037-.03-.056a.2.2 0 0 1-.032-.043c0-.011-.24-.39-.268-.422a.3.3 0 0 1-.039-.069c-.01-.024-.026-.043-.036-.043-.008 0-.015-.01-.015-.02a.5.5 0 0 0-.06-.107 2 2 0 0 1-.08-.133c-.012-.024-.027-.043-.035-.043q-.01-.002-.012-.016c0-.01-.066-.115-.144-.236a4 4 0 0 1-.164-.261c-.01-.025-.026-.045-.035-.045-.008 0-.016-.01-.016-.02 0-.012-.014-.037-.031-.056a.14.14 0 0 1-.031-.046.6.6 0 0 0-.063-.102 1 1 0 0 1-.062-.104c0-.024-.053-.07-.08-.07-.017 0-.032-.016-.039-.04-.007-.03-.02-.04-.054-.04q-.043 0-.045.023c0 .012-.016.025-.035.028-.046.007-.084.126-.054.174.015.027.014.035-.006.046-.035.021-.053.123-.028.153.015.02.014.027-.008.043-.036.027-.052.137-.024.156.02.013.017.02-.006.037-.036.027-.053.13-.028.16.016.017.013.025-.01.038-.021.012-.027.036-.027.102 0 .046-.007.089-.016.095-.008.007-.014.05-.012.094q.001.083-.022.107c-.017.02-.022.043-.014.096.006.052.003.076-.016.095-.019.018-.023.045-.017.098.005.05.002.078-.016.095-.017.016-.021.043-.015.096.005.05.001.078-.016.095s-.022.044-.014.107c.008.067.005.085-.015.093-.022.008-.025.025-.017.095.006.07.003.09-.016.096-.02.008-.023.027-.016.096.007.068.003.089-.015.095-.019.008-.022.029-.017.097.006.066.001.088-.016.096-.019.006-.02.027-.012.094.007.07.004.088-.016.096-.022.007-.025.025-.016.095.008.07.005.088-.015.096-.022.008-.025.025-.017.097.006.07.003.09-.016.102-.02.011-.023.03-.016.096.007.057.004.084-.01.092-.027.016-.049.132-.025.132.023 0 .018.048-.007.058-.03.013-.046.115-.021.145.015.019.014.027-.007.043-.032.024-.056.153-.03.153.01 0 .018.011.018.024a.025.025 0 0 1-.024.024c-.03 0-.05.106-.024.146.014.022.01.035-.015.06-.034.036-.043.138-.01.149q.018.006-.016.041c-.036.036-.05.114-.02.114.026 0 .017.055-.016.084-.036.03-.04.077-.012.123.017.025.014.036-.016.064q-.057.055-.017.13c.014.026.01.038-.017.064s-.033.043-.024.108c.008.063.007.077-.017.086-.022.008-.025.024-.015.096.007.07.004.088-.016.096-.022.008-.025.025-.017.095.006.07.003.09-.016.096-.02.008-.023.027-.015.096.006.07.003.089-.016.095-.02.008-.023.029-.015.105.006.08.003.096-.016.096-.02 0-.023.016-.016.094.007.076.003.097-.015.103-.019.008-.022.028-.014.096.01.072.006.086-.016.096-.022.008-.025.024-.015.095.007.07.004.088-.016.096-.022.008-.025.026-.016.096.007.065.005.087-.012.094-.033.012-.047.098-.022.137.017.027.016.035-.008.052-.032.024-.056.14-.028.14.01 0 .017.012.017.024s-.006.024-.014.024c-.014 0-.08.107-.085.136a.1.1 0 0 1-.03.048 1 1 0 0 0-.12.159.2.2 0 0 1-.039.059.2.2 0 0 0-.039.069c0 .012-.01.028-.019.034a.7.7 0 0 0-.121.16.4.4 0 0 1-.047.068.2.2 0 0 0-.047.075q-.001.02-.012.021c-.008 0-.036.035-.064.08-.06.094-.073.105-.103.08-.019-.016-.023-.015-.025.009q.001.037-.019-.01c-.026-.06-.062-.084-.074-.05q-.01.034-.022-.017c-.013-.047-.053-.071-.072-.041q-.013.02-.022-.024c-.006-.024-.02-.043-.033-.043-.012 0-.035-.014-.054-.033-.017-.018-.042-.03-.055-.024s-.022-.002-.022-.015c0-.027-.056-.062-.077-.047q-.015.005-.016-.015c0-.035-.062-.067-.08-.04q-.011.022-.021-.02c-.013-.048-.053-.072-.072-.042q-.012.02-.022-.024c-.006-.024-.022-.043-.034-.043-.011 0-.038-.014-.056-.032-.019-.017-.042-.028-.053-.025q-.018.006-.02-.011c0-.011-.016-.029-.033-.042-.028-.017-.036-.017-.047.002q-.015.024-.014-.011a.07.07 0 0 0-.031-.051c-.025-.018-.033-.016-.044.005-.012.022-.017.017-.031-.024-.019-.053-.033-.06-.06-.032q-.021.022-.03-.024c-.005-.022-.016-.042-.024-.042s-.028-.014-.045-.031c-.04-.04-.058-.04-.067-.005q-.007.03-.019-.02c-.015-.055-.036-.074-.073-.061q-.028.007-.028-.016c0-.034-.058-.066-.067-.037q-.008.015-.024-.022c-.015-.042-.065-.075-.065-.047 0 .034-.031.015-.04-.023-.005-.023-.016-.04-.025-.04-.008 0-.03-.015-.047-.032-.02-.02-.045-.029-.063-.023q-.027.007-.028-.012c0-.03-.057-.066-.067-.04-.004.011-.014 0-.023-.022-.019-.048-.066-.075-.066-.039 0 .039-.025.027-.026-.01a.1.1 0 0 0-.03-.057c-.022-.016-.03-.016-.045.007-.017.022-.02.02-.03-.016-.004-.024-.017-.043-.024-.043a.2.2 0 0 1-.058-.042c-.04-.036-.044-.038-.053-.01q-.015.039-.013-.006a.1.1 0 0 0-.039-.06c-.035-.023-.039-.023-.045.003q-.006.031-.017-.016c-.014-.048-.055-.072-.073-.041q-.012.018-.022-.023c-.01-.044-.058-.075-.067-.044-.008.024-.05-.011-.05-.042a.023.023 0 0 0-.023-.022c-.013 0-.024-.005-.024-.013 0-.006-.015-.02-.032-.033-.028-.018-.036-.018-.047.001q-.015.024-.014-.01c0-.044-.061-.085-.08-.055q-.013.024-.028-.02c-.017-.045-.057-.07-.068-.04q-.008.013-.024-.023c-.02-.05-.065-.073-.067-.033 0 .016-.01.004-.023-.026q-.024-.053-.045-.045c-.013.005-.024.004-.024-.003a.6.6 0 0 0-.085-.103c-.047-.05-.086-.104-.086-.121s-.006-.037-.016-.042c-.02-.012-.02-.183 0-.183.01 0 .016-.011.016-.024 0-.02.05-.124.078-.16q.013-.015.014-.028a.1.1 0 0 1 .026-.04.5.5 0 0 0 .116-.18c0-.017.01-.03.025-.03.014 0 .032-.022.042-.048.009-.027.021-.048.028-.048a1 1 0 0 0 .138-.22c0-.01.01-.019.02-.019.013 0 .032-.019.044-.045l.049-.073a.2.2 0 0 0 .037-.06.2.2 0 0 1 .042-.067c.061-.066.105-.13.105-.15 0-.01.006-.02.014-.02.015 0 .065-.072.07-.101a.2.2 0 0 1 .033-.053 1 1 0 0 0 .07-.09c.021-.032.057-.085.082-.117a.2.2 0 0 0 .042-.078q.002-.018.014-.026a.6.6 0 0 0 .136-.196c.005-.022.019-.04.028-.04.011 0 .03-.019.042-.044a.2.2 0 0 1 .033-.051c.023-.018.137-.2.137-.22 0-.01.011-.02.023-.02s.027-.017.033-.039a.1.1 0 0 1 .028-.053.6.6 0 0 0 .134-.2c0-.015.01-.026.02-.026.013 0 .032-.019.044-.044a.4.4 0 0 1 .044-.067.3.3 0 0 0 .044-.075c.01-.029.026-.053.034-.053s.028-.024.047-.053l.051-.082a1 1 0 0 1 .064-.085c.023-.029.042-.062.042-.075 0-.01.006-.024.014-.027a.7.7 0 0 0 .126-.172q.002-.015.014-.016c.008 0 .03-.032.049-.072.018-.04.039-.071.045-.071a.6.6 0 0 0 .126-.2c0-.012.011-.023.024-.023s.032-.02.043-.043a.3.3 0 0 1 .05-.079 1 1 0 0 0 .07-.101 1 1 0 0 1 .083-.12.3.3 0 0 0 .042-.062c0-.007.014-.026.031-.045s.031-.044.031-.056c0-.01.006-.02.014-.02s.036-.034.063-.077c.026-.041.056-.09.067-.105a1 1 0 0 1 .056-.072.15.15 0 0 0 .034-.068c0-.016.014-.035.03-.045a.1.1 0 0 0 .04-.05.2.2 0 0 1 .049-.07c.02-.018.037-.042.037-.05 0-.01.01-.028.026-.039a.3.3 0 0 0 .047-.075c.011-.027.027-.05.035-.05.007 0 .028-.024.046-.053l.052-.083a1 1 0 0 1 .064-.084.2.2 0 0 0 .042-.067c0-.01.01-.03.025-.045a.7.7 0 0 0 .124-.19c.007-.019.02-.036.032-.036.01 0 .024-.018.03-.04s.02-.046.03-.053a.8.8 0 0 0 .133-.197c0-.01.017-.03.039-.048s.039-.042.039-.054q.001-.021.012-.023c.008 0 .024-.019.036-.043a.5.5 0 0 1 .056-.081.3.3 0 0 0 .045-.073.13.13 0 0 1 .04-.055.07.07 0 0 0 .029-.052c0-.016.01-.03.02-.03.013 0 .035-.027.052-.06a.2.2 0 0 1 .042-.066 1 1 0 0 0 .112-.16l.051-.07a.2.2 0 0 0 .035-.067c0-.012.014-.03.03-.04a.1.1 0 0 0 .04-.049.3.3 0 0 1 .062-.081c.03-.026.055-.06.058-.08.006-.041.047-.068.081-.056.036.015.048.013.05-.004q.002-.016.005-.024c.001-.008.021-.01.04-.008"/></g></svg>