<svg xmlns="http://www.w3.org/2000/svg" width="37" height="31" overflow="hidden"><defs><clipPath id="a"><path d="M697 361h37v31h-37z"/></clipPath></defs><g clip-path="url(#a)" transform="translate(-697 -361)"><path fill-rule="evenodd" d="M732.405 386.024H734v1.814l-1.34-.007-1.342-.011-.023-.278c-.044-.481-.184-.93-.47-1.492-.007-.015.703-.026 1.58-.026m-21.406 0h6.938c3.814 0 6.937.007 6.937.015 0 .007-.052.118-.115.248-.218.437-.326.826-.348 1.23a1.6 1.6 0 0 1-.037.284c-.015.022-2.35.037-6.434.037h-6.415l-.026-.14a3 3 0 0 1-.04-.341c-.012-.252-.167-.752-.334-1.085Zm-9.569 0h1.813c1 0 1.813.007 1.813.015 0 .007-.067.159-.152.34-.162.356-.329.996-.329 1.282v.177l-1.54.008c-.931.007-1.55-.004-1.571-.023-.019-.022-.034-.41-.034-.918Zm26.685-1.332c.277.018.536.063.696.13.61.251.913.44 1.261.792a3.175 3.175 0 0 1 .477 3.854c-.203.337-.788.933-1.073 1.082-.11.059-.214.126-.225.144a.07.07 0 0 1-.056.03c-.063-.004-.274.085-.274.118 0 .015-.014.022-.03.011a1.2 1.2 0 0 0-.284.06c-.2.059-.377.08-.777.085-.285.003-.54-.004-.573-.023a5 5 0 0 0-.374-.122 3.3 3.3 0 0 1-.526-.207 1 1 0 0 0-.21-.1c0 .018-.222-.17-.492-.419a3.17 3.17 0 0 1-.881-1.462c-.07-.24-.085-.404-.089-.863-.003-.307.004-.563.015-.563.015 0 .055-.118.092-.263.152-.592.592-1.251 1.088-1.622.24-.181.774-.485.851-.485a.5.5 0 0 0 .144-.044c.056-.026.252-.07.433-.104a3.7 3.7 0 0 1 .807-.029m-20.137-.015c.358.003.858.053.953.11.022.016.14.06.27.105.621.218 1.269.785 1.624 1.421.126.226.289.678.326.908.014.081.033.174.044.203.033.093.015.785-.026.982a3.5 3.5 0 0 1-.562 1.303 3.14 3.14 0 0 1-1.787 1.2c-.1.026-.2.055-.222.07-.019.015-.27.026-.555.019-.403-.004-.574-.026-.773-.086-.141-.044-.267-.07-.285-.062-.015.01-.034.007-.041-.008-.004-.018-.104-.07-.215-.122-.803-.37-1.454-1.115-1.694-1.944a3.06 3.06 0 0 1-.037-1.722 3.04 3.04 0 0 1 .836-1.459c.237-.233.607-.503.784-.578.063-.025.111-.055.111-.07s.034-.026.074-.03a.7.7 0 0 0 .193-.062c.114-.052.288-.093.692-.163.067-.011.17-.016.29-.015M703.658 361c.371 0 .717.007.717.02 0 .003.163.037.363.07.214.04.359.052.359.03 0-.023.03-.012.066.018.034.03.256.107.489.178.233.066.566.177.74.248.447.177 1.29.622 1.72.907.34.226.947.648 1.036.722a48 48 0 0 0 1.905 1.407c.418.278.959.593 1.04.611.03.007.06.022.07.033.052.063 1.07.448 1.114.419.018-.011.033-.004.033.015 0 .033.474.177.533.163.015-.008.048.007.074.025.04.034.314.115.43.13.029.007.08.019.11.034.03.01.182.048.333.077.152.03.318.063.37.078.115.026.662.122.74.126.03.004.24.037.463.078.225.04.443.066.488.055.044-.01.092 0 .104.022.014.019.07.034.122.03a.5.5 0 0 1 .155.015c.06.022.718.1.999.118.092.004.226.022.296.034.07.014.388.048.703.081.314.03.614.063.666.067l.629.074c.296.037.736.096.98.133.244.04.485.07.537.074.144.004.392.03.832.093.226.033.459.063.518.07a1 1 0 0 1 .167.033c.044.015.38.108.444.123a.3.3 0 0 1 .074.026c.03.01.13.04.222.063.092.022.292.081.444.13.151.051.484.155.732.236.252.082.477.14.5.133l.155-.059a.5.5 0 0 1 .178-.037c.033.004.063-.004.063-.022 0-.089 1.668-.085 1.89.004a.2.2 0 0 0 .093.018.16.16 0 0 1 .088.015c.07.026.322.104.381.115.296.063.855.392 1.218.714.603.537 1.202 1.53 1.483 2.455.096.319.215.845.218.982.004.04.034.3.07.574.038.274.078.592.086.703.044.507.103 1.022.122 1.074a1 1 0 0 1 .015.244c-.008.108.01.204.033.219.022.015.03.074.019.14s.003.452.033.86c.03.407.04.755.022.77-.015.018-.651.04-1.413.052l-1.388.022-.025-.978c-.034-1.296-.082-2.195-.156-2.829-.007-.081-.022-.233-.03-.333-.07-.833-.259-1.762-.47-2.307-.203-.526-.436-.97-.617-1.162-.17-.182-.596-.434-.762-.452a.4.4 0 0 1-.13-.037c-.048-.034-.625-.09-.651-.067-.008.007.085.133.203.278a6.7 6.7 0 0 1 1.203 2.303c.033.122.07.248.078.278.01.03.025.148.037.259.007.11.03.377.048.592.03.311.026.445-.019.667-.059.274-.274.87-.373 1.022a1.4 1.4 0 0 0-.1.333c-.03.14-.086.411-.13.604-.044.192-.074.366-.067.389.008.022-.003.059-.03.08-.021.023-.07.138-.11.249-.063.193-.067.233-.022.496.026.16.089.404.14.545.226.625.785 1.495 1.292 2.014.407.418.462.548.388.903a6 6 0 0 0-.081.522l-.056.397c-.055.366-.092 1.162-.078 1.725.015.567.03.696.097.852.081.196.151.448.17.626.007.059.052.218.103.352.052.133.104.31.119.396.022.14.018.159-.045.159a.2.2 0 0 1-.107-.033c-.018-.023-.2-.082-.403-.134a3.5 3.5 0 0 0-1.698 0 3 3 0 0 0-.407.123.2.2 0 0 1-.06.025 1 1 0 0 0-.14.052c-.067.03-.13.041-.14.03-.015-.011-.004-.1.018-.2.037-.167.133-.73.177-1.04.011-.075.03-.545.037-1.041.019-1.04.026-1.011-.358-1.781a6 6 0 0 1-.241-.519c-.081-.285-.3-.796-.392-.914-.337-.44-1.032-1.507-1.032-1.581 0-.026-.822-1.437-.97-1.67-.13-.2-.325-.374-.425-.382-.048 0-.415.063-.814.145-.404.081-.866.174-1.029.203s-.322.063-.351.078a.6.6 0 0 1-.13.03c-.163.014-.54.103-.558.133-.008.015-.041.022-.067.011a.07.07 0 0 0-.078.019c-.01.022-.04.033-.059.022-.018-.015-.166.011-.325.052-.326.085-.685.155-1.373.266a8 8 0 0 0-.518.1 1 1 0 0 1-.185.03c-.07.007-.289.037-.481.07s-.414.06-.492.06a.5.5 0 0 0-.178.014c-.11.07-2.208.097-3.14.041-.785-.044-.837-.052-1.222-.111a10 10 0 0 0-.61-.074c-.14-.011-.514-.052-.829-.093-.31-.04-.577-.074-.592-.07a.4.4 0 0 1-.13-.04c-.155-.064-.21-.03-.207.133 0 .077-.007.207-.018.288l-.074.593a4 4 0 0 0-.037.777c.011.182.04.574.063.87.018.297.033.641.033.77-.004.13.004.253.019.275.077.126.081 1.296.003 1.425a.5.5 0 0 0-.03.167c0 .067-.007.437-.018.826-.022.83-.003.948.285 1.74.07.196.093.522.037.607-.026.041-.052.038-.137-.022-.255-.181-.991-.477-1.11-.452a.4.4 0 0 1-.144-.037c-.248-.103-1.332-.044-1.487.082-.067.048-.063-.045.003-.222.145-.385.348-1.278.411-1.8.026-.204-.04-.655-.092-.655-.015 0-.026-.322-.03-.715-.015-1.444-.081-2.577-.163-2.877a3 3 0 0 0-.103-.315 2 2 0 0 1-.093-.24c-.06-.186-.144-.397-.559-1.408-.159-.381-.144-.351-.418-.955-.192-.43-.255-.526-.492-.781-.662-.715-.78-1.219-.788-3.355-.003-1.748-.033-2.259-.148-2.766a5.4 5.4 0 0 0-.496-1.389c-.28-.559-.244-.533-.554-.381-.145.067-.263.14-.263.16q-.002.023-.026.014c-.019-.011-.085.007-.155.044-.119.056-.134.086-.215.393a9 9 0 0 1-.2.648c-.351.981-.362 1.033-.38 1.833-.005.181-.03.37-.053.414a.56.56 0 0 1-.373.256c-.074.015-.226.07-.337.126s-.318.13-.455.167c-.274.07-.34.063-.744-.1a1.1 1.1 0 0 1-.521-.397c-.134-.166-.197-.337-.23-.61-.033-.293-.04-.341-.081-.875-.022-.296-.052-.644-.063-.777a93 93 0 0 1-.033-2.388c-.008-1.226-.03-2.293-.052-2.481-.022-.185-.04-.345-.04-.356s-.145-.14-.323-.289a15 15 0 0 1-.418-.348 17 17 0 0 0-.4-.322c-.295-.233-.3-.24-.203-.263.167-.04 1.11-.037 1.547.004.225.022.588.07.806.115.222.04.437.063.481.048a15 15 0 0 0 .614-.278c.592-.285.91-.392 1.288-.44.1-.013.496-.02.866-.02"/></g></svg>