<svg xmlns="http://www.w3.org/2000/svg" width="849.333" height="500" version="1.0" viewBox="0 0 637 375"><path d="M104.7 2.4c1 1.3 3.1 4 4.7 6l2.9 3.6-1.6 5.3c-.8 2.8-9.2 29.9-18.7 60.2-9.4 30.2-18.7 59.9-20.6 66-1.8 6-9.6 30.8-17.2 55l-13.7 44-16.3.3L8 243v28.8l8.2 2.2c22.3 6 45.3 16 57.7 25 13.7 10 26.9 28.4 47.5 66.2 3.6 6.6 3.7 6.6 6.7 5.8 6.4-1.9 11.9-7 14.7-13.7.9-2.4 2-4.3 2.4-4.3.3 0 1.2 1.6 1.8 3.6.7 2 3.3 5.8 5.9 8.4 7.1 7.3 15.1 8.8 23.9 4.2 4.3-2.2 10.1-9.3 10.9-13.4.9-4.4 2.1-4.3 3.5.4 1.7 5.8 9.2 13.3 14.9 14.8 10.1 2.7 19.3-2.1 24.4-12.7 1.7-3.5 3.3-6.3 3.6-6.3.4 0 1 1.5 1.3 3.4 1.4 7.5 12.1 16.6 19.5 16.6 8.6 0 17.9-6.7 20.8-15.1 1.7-4.8 3.3-6.4 3.3-3.4 0 2.6 3.6 8.8 7.2 12.2 6.9 6.6 14.3 7.9 22.6 3.7 5.4-2.7 10.8-9.3 11.9-14.7.8-3.7 1.8-3.4 3.1 1.2 1.7 5.5 8.3 12.6 13.7 14.7 11.2 4.2 24.1-3.2 27.6-16l1.2-4.1 1.3 3.9c.8 2.1 2.3 5.4 3.5 7.3 2.4 3.9 9.3 9.3 11.8 9.3.9 0 2.7-2.1 4.1-4.7 7.4-13.9 29.1-41.4 44.6-56.3 12.5-12 28.1-24.2 33.7-26.4 3-1.1 5.1-2.7 5.7-4.1 1-2.5 24.4-16.6 46-27.5 5.5-2.7 34.5-18.6 45.5-24.8 26.1-14.8 64.5-37.3 64.5-37.8 0-.1-8.9 4.2-19.9 9.6l-19.9 9.9-4.3-4.1c-4.8-4.3-12.1-11-35.4-31.9-8.2-7.3-15.2-13.6-15.5-13.9s-4.1-3.7-8.5-7.5c-4.4-3.9-8.4-7.5-9-8.1-.5-.6-9.2-8.3-19.2-17.2s-18.5-16.6-18.8-17.2c-.3-.5-1.2-.7-1.9-.4-1.1.4-1.7-1-2.6-5.3-5.7-29.2-20.5-57.6-40.6-77.7-4.4-4.5-9.3-9.1-11-10.4-1.6-1.2-6.7-5.2-11.4-8.7L400.5 0H102.8zm202.6 16.8c-.5 2.4-.8 14-.8 25.8v21.6h-6c-3.3 0-7 .4-8.1.8-2 .7-2.2.3-3.3-9.1-1.7-13.6-5.8-33.9-7.7-37.5-.9-1.6-1.4-3.2-1.1-3.4.5-.5 16.4-2.1 23-2.3l4.7-.1zM128.8 33.6c12.4 16.9 31.7 45.5 36.6 54.6 2 3.6 4.5 9 5.5 11.8l1.9 5.2-2.8 2.7c-1.6 1.4-9.5 11.4-17.6 22.1s-18.2 24-22.4 29.5c-21.3 27.7-49 64.1-55.8 73.2l-7.7 10.2-9.7.1c-5.7 0-9.8-.4-9.8-1 0-.8 15.1-49.8 30.2-97.5 2.7-8.8 6-19.4 7.3-23.5s4.8-15.4 7.8-25l10-32c2.5-8 6.7-21.4 9.3-29.8 2.7-8.6 5.2-15.1 5.8-14.9s5.7 6.6 11.4 14.3m236.6 34.6c.3 3.5.9 9.6 1.2 13.6l.7 7.2-3.4-.7c-1.9-.5-13.9-.8-26.7-.8H314l.6-4.1c.4-2.7 0-5.3-1-7.9-.9-2.1-1.5-3.9-1.4-4 .2-.1 6.8-1 14.8-2 8-.9 19.3-3 25-4.5 5.8-1.5 11-2.8 11.6-2.9.7 0 1.4 2.4 1.8 6.1M245 74.1c5.2.4 16.5.5 25.1.2l15.6-.6-.5 5.5c-.2 3.2.1 6.4.8 7.7.6 1.3 1 2.4.8 2.6s-5.9 1.1-12.7 2c-15.1 2-31.3 5.1-35.7 7-3.3 1.4-3.3 1.4-3.8-1.8-.3-1.8-.8-6.8-1.1-11.2s-.8-9.3-1.2-10.9c-.5-2.5-.3-2.8 1.3-2.1 1.1.4 6.2 1.1 11.4 1.6m64.4 22.1c4.2 28.7 7.4 43.6 9.8 46.5.6.7.9 1.3.7 1.3-3.8.5-28.5 2.7-28.6 2.5-.2-.1.2-1.7.8-3.6.7-2 1.1-12.4 1.1-26l-.1-22.6 5.4.5c2.9.2 6.1-.1 7.1-.7 2.9-1.6 3.3-1.4 3.8 2.1m-133 22.8c4.3 18.6 4.5 51 .6 69.9-2.8 13.1-2.9 12.8 3.7 9.2 5.5-3 7.7-3.3 5.8-.7-3.4 4.4-12.9 19.4-18.5 29.2-1.9 3.4-5.6 9.2-8.1 13s-6.3 9.6-8.4 12.9l-3.8 6-3.7-4.3c-2.1-2.3-4.5-5.8-5.4-7.7l-1.7-3.5H106c-20.9 0-31-.3-31-1 0-.9 51.8-69.5 71-94 2.5-3.2 9.7-12.6 16-20.9s11.8-15.1 12.2-15.1c.3 0 1.4 3.2 2.2 7m316.8 13c9.5 8.5 26.5 23.8 37.8 34 11.4 10.2 27.1 24.3 35.1 31.4 7.9 7.2 14.5 13.3 14.7 13.7.5 1.2-28.1 14.6-53 25-6.8 2.8-14.1 5.9-16.3 6.9-6.8 3.1-23.7 9-25.7 9-1 0-1.8-.4-1.8-.9 0-.4-4.6-10.4-10.3-22.2s-11.2-23.1-12.1-25.3l-1.8-3.8 3.6-7.7c3.9-8.3 8.8-23.9 10.7-34.1 1.3-7 1.6-36.2.4-39.9-.4-1.5-.3-2.2.3-2s8.9 7.4 18.4 15.9m-143.7 32.5c16.7 1.9 31.6 4.8 47.4 9 12 3.2 33.5 10.4 41.1 13.8 1.9.8 3.8 1.3 4.2 1.1.5-.3.8-.1.8.4s2.4 2 5.4 3.3c3.9 1.7 5.4 2.9 5.4 4.4 0 1.1 5.7 14.5 12.7 29.8s12.6 28 12.3 28.3c-1.4 1.4-16.2 4.7-31.8 7.1-18.9 2.9-42.6 3.6-62.2 1.9-8.1-.7-10.3-.6-13.9.8-5.7 2.3-11.3 6.3-19.8 14-8.2 7.6-13.4 11.2-18.2 12.7-1.9.6-10 1.4-18.2 1.8l-14.7.6V164.1l3.3-.4c8.1-1 34.4-.5 46.2.8M288 229.6v63.6l-9.2-.6c-41.8-3-76.4-8.2-97.8-14.8-7.7-2.4-17.7-7.3-24.2-12l-4.6-3.3 6.4-10.4c3.6-5.8 7.5-12.3 8.6-14.5 1.1-2.3 3.3-5.7 4.8-7.6s5.1-7.6 8-12.5c2.9-5 7.5-12.5 10.2-16.8s4.6-8.2 4.3-8.7c-.6-1 14.2-7 25-10 18.2-5.1 21.6-6.1 35.5-9.5 16.8-4.3 26.4-6.3 30.3-6.4l2.7-.1zm-101.7 82.8c7 2.9 9 12 3.9 17.7-2.3 2.6-3.8 3.3-8 3.7-4.9.4-5.4.2-8.7-3.1-2.9-2.9-3.5-4.2-3.5-7.6 0-9.2 7.8-14.3 16.3-10.7m36.5.6c12.7 7.7 2.8 25.4-11.2 20-3.1-1.1-5.5-4.7-6.2-9.1-.4-2.5 0-4.3 1.8-6.9 4.1-6.1 9.7-7.6 15.6-4m34.7-.6c4 1.7 6.5 6 6.5 11.2 0 2.8-.8 4.4-3.5 7.1-3.3 3.3-3.8 3.5-8.7 3.1-4.2-.4-5.7-1.1-8-3.7-5-5.6-3.2-14.7 3.7-17.7 3.9-1.7 5.8-1.7 10 0m38.6 2.2c7.4 7.1 2.3 19.4-8.1 19.4s-15.6-12.3-8.2-19.2c3.5-3.3 4.9-3.8 9.6-3.4 2.4.3 4.9 1.4 6.7 3.2m32.9-2.1c3.7 1.9 6 6.2 6 11.1 0 2.8-.8 4.4-3.4 7-4.9 4.9-11.3 4.9-16.2 0-2.6-2.6-3.4-4.2-3.4-7 0-9.5 8.9-15.3 17-11.1"/></svg>