<svg xmlns="http://www.w3.org/2000/svg" width="276" height="332" version="1.0" viewBox="0 0 207 249"><path d="M109 .7c-4.5.6-6.4 2.1-4.9 3.9.8 1 .8 1.4.1 1.4-.6 0-1.7-.9-2.5-2-1.3-1.9-1.7-1.9-19.3-.5-28.7 2.3-31 3-44.5 12.7C28 23.3 24 27 24.6 28.4c1 2.7 4 1.2 3.5-1.7-.1-.5.3-.6.8-.3s1.2-.1 1.5-1c.4-.9.9-1.4 1.2-1.1.8.7-3.8 7.1-5.3 7.4-.6.2-1.5-.6-1.8-1.7-.4-1.1-1-2-1.4-2-2.1 0-6.6 6.8-10.2 15.5C10.7 48.9 8.1 55 7 56.9c-2.7 5.2-5 12.9-5 16.9C2 79.6 5.2 88 9 92.1c1.9 2.1 6.2 5.4 9.5 7.2 4.1 2.2 6.1 4 6.3 5.5.4 2.8 2.2 2.9 2.2.1 0-1.8.2-1.9 1.5-.9s1.5.9 1.5-1.2c0-3.1 5.5-8.8 8.5-8.8 3.4 0 5.5 1 5.5 2.6 0 .8.7 1.4 1.7 1.4.9 0 1.4.3 1 .6-.3.3.6 1.7 1.9 3.1 1.5 1.5 2.4 3.3 2.1 4.3-.2 1-.1 2.4.3 3.1 1.1 1.7 3.2-6.2 2.8-10.4-.2-2.3-.8-3.1-1.9-2.9q-1.65.15-1.5-1.5c0-1.1-.6-1.9-1.9-1.9-1.1-.1-2.4-.2-2.9-.3-.6-.1-.5-.6.2-1.3 1.9-1.9 1.4-2.6-1.3-2-1.4.2-2.5 1.1-2.6 2.1 0 1.2-.3 1-.9-.5-.6-1.6-2-2.3-5.6-2.8-2.6-.3-5-.3-5.3.1-1.3 1.7-4.9 3.1-6 2.3-.9-.5-1-1-.2-1.4.6-.4 1.1-1.2 1.1-1.7 0-.6-.5-.7-1.2-.3-.8.5-.9.2-.4-1.2.5-1 1.2-3.1 1.6-4.6 1.5-5 5.4-9 11.7-11.9 6.9-3.1 19.5-7.3 25.8-8.5 2.2-.4 4.7-.9 5.5-1 5.8-1.3 19.5-1.5 26-.4 4.1.7 8.7 1.4 10.3 1.4 1.5.1 2.7.6 2.7 1.2s1.4 1.4 3.1 1.8c2.5.5 2.9.9 2 2s-.8 1.5.4 2c.9.3 1.3 1.1 1 1.6-.4.6-.3 1 .2.9 2-.3 4.4.2 4 .8-.3.5-.1 1.7.4 2.8.6 1.5.8 1.6.8.4.1-1.8 2.7-3.3 4.1-2.4.5.3 1.9 2 3 3.8l2.2 3.2-2.6-3c-2.9-3.3-3.3-2.8-1.3 1.3.7 1.5 1.3 3.4 1.2 4.2s.6 2.4 1.4 3.5c1.5 1.8 1.5 1.9-.1.7-1.7-1.4-3.4-.1-2.3 1.8.9 1.4 4.2 1.2 4.8-.3q.45-1.2 1.2.6c1.1 2.6-.1 3.3-3.5 2-1.7-.6-3.1-.8-3.1-.5-.5 2.7-.4 6 .3 5.6.4-.3.8.2.8 1 0 .9.9 3.2 2.1 5.3l2.1 3.8-3.1-2.9c-2.5-2.4-3.1-2.6-3.1-1.2 0 .9.4 1.5.9 1.2s1.1.3 1.4 1.4.1 1.8-.4 1.4c-1.1-.6-1.1.4 0 3.1.5 1.2.4 2.6-.3 3.4-.9 1.2-.8 1.3.7.8 1.1-.4 1.7-.2 1.7.7 0 1-.7 1.2-2.2.8-2.1-.5-2.2-.4-.8 1.3s1.3 1.8-.5 1.1c-1.5-.5-1.7-.4-.8.5 1.4 1.4.5 4.1-1.1 3.2-.6-.3-.1.5 1 1.8 2 2.2 2.3 5.6.5 4.4-.7-.4-.8 1.4-.2 4.8 0 .5.6.5 1.3.1s.8-.3.4.4-.1 1.2.8 1.2c2.2 0 2 1.6-.4 4-1.1 1.1-2 2.6-2 3.4 0 1.7-2.4 3.8-3.3 2.9-.4-.3-.7-.2-.7.4s.7 1.6 1.5 2.3c1.2 1 1.5 1 1.6-.1 0-.8.4-.4.9.9 1.4 3.4 5.2 4.5 6.6 1.9.7-1.3 1.4-1.6 1.8-.8.4.6.2 1.1-.3 1.1-.6 0-1.1.6-1.1 1.3 0 1-1.5 1.3-5.2 1.2-4.6-.2-5.3-.4-5.1-2.1.2-1-.2-2.8-.6-3.9-.5-1.1-1.2-2.7-1.4-3.5-.3-.8-.6-.4-.6 1l-.1 2.5-2-2.5c-1.1-1.4-2-2-2-1.3 0 .6.5 1.5 1.1 1.9.6.3.8 1.7.4 3.1-.5 2-.3 2.4.9 2 1-.4 1.3-.1 1 .8-.7 1.8-3.4.8-3.4-1.4 0-.9-.9.3-1.9 2.5-1.9 4.1-4.1 6.5-4.1 4.5 0-.6.4-1.1.8-1.1s.8-1 .9-2.2c.1-1.1.8-2.5 1.5-2.9.9-.6.9-.9.1-.9-.6 0-2.5 1.7-4.3 3.7-1.7 2.1-2.9 3.2-2.5 2.5.3-.6.1-1.2-.4-1.2-.6 0-1.1.6-1.1 1.2 0 1-.3.9-.9-.1-.7-1.1-1-1.1-1.5 0-.3.8-.4.1 0-1.5.5-2.6.3-2.8-1.1-1.6-1.4 1.1-1.7 1-2.2-.8-.5-1.9-.6-2-2.1-.5-1.3 1.2-1.7 1.3-2.1.2-.7-2.1-3.3-4.5-6.8-6.3-1.8-.9-3.9-2.9-4.7-4.4-.9-1.5-1.5-2.1-1.6-1.4 0 1.8-2 .4-2-1.4 0-.8.5-1.2 1-.9 1.7 1 1.1-.4-.9-2.4-1.3-1.3-2.1-1.6-2.4-.8-.3.9-.7.9-1.8 0-1-.8-2-.9-2.9-.2-1.3.8-1.3 1 0 2 1.3.9 1.2 1-.3.5-1-.3-2.5-.6-3.2-.6s-1.6-1.2-2-2.8l-.7-2.7-2.5 4.3c-2.4 4.1-2.7 4.2-7.4 4.1-5.8-.3-6.7-.8-7.9-4.5l-.8-2.9-.1 3.3c-.1 2.6.4 3.4 2.7 4.3 7.4 3 11.2 5.8 11.2 8.3 0 .6-.5.3-1.1-.7-.6-.9-1.5-1.5-2-1.2-.5.4-.7 1-.4 1.5.3.4-.2 1.1-1.1 1.4-.8.3-1.2 1-.9 1.6 1 1.6-1.2 1.2-2.9-.5-.8-.8-1.8-1.5-2.2-1.5-.5 0-.3.5.4 1.2 1.7 1.7 1.5 3.5-.3 3.5-.8 0-1.5-.6-1.5-1.3s-.5-1.6-1.1-2c-.7-.4-1-.1-.7.7.6 1.8-1.7 4-3.4 3.4-1.1-.4-1.4.3-1.2 3 .2 2.1-.1 3.3-.6 3-.6-.4-1 .1-1 .9 0 .9.7 1.6 1.5 1.6.9 0 1.2.6.9 1.5-.4.8-.1 1.5.5 1.5s1.1 1.2 1.1 2.7v2.7l-1.6-2.2c-.8-1.2-2-1.9-2.6-1.6-.7.5-.9.1-.5-.9.3-.9.2-1.9-.3-2.2-1.1-.7-1.3.9-.4 4.2.4 1.3 1.1 2.3 1.6 2.3.6 0 .7-.8.3-1.8-.5-1.3-.4-1.4.6-.5 1 1 1 1.5 0 2.7-.9 1.1-1 2-.2 3.5.6 1.1 1.1 3 1 4.3 0 2.2-.1 2.2-.8.3-.5-1.1-.7-2.2-.6-2.5.2-.3-.8-1-2.1-1.7-2-.9-2.4-.8-2.4.4 0 .8.4 1.2.9.9 1.4-.9 3.1 1.9 2.9 4.5-.2 1.5.2 2.3 1 2.1.6-.1 1.2.3 1.2.9s-.7.9-1.5.5c-1.7-.6-3.5 2.1-3.6 5.6 0 2.2-.1 2.2-.9.3-.7-1.9-.8-1.9-1.8.6-.5 1.4-.8 3.7-.5 5.2.3 1.7.1 2.7-.6 2.7s-.9.4-.6 1c.3.5-.1 1-1 1s-1.4.4-1.1.9c.9 1.4-.4 4.1-2 4.1-.8 0-1.4-.9-1.4-2.1s-.5-1.9-1.2-1.6c-.7.2-2.1-.5-3.1-1.6-2.1-2.4-2.1-2.7-.2-2.7.8 0 1.5.7 1.5 1.5 0 1.7 1.6 2 2.5.5.3-.6.1-1-.4-1-.6 0-1.1-1.1-1.1-2.5s.5-2.5 1.2-2.5c.6 0 .3-.7-.8-1.5-1.8-1.4-1.8-1.4.3-.8 1.2.3 2.4 1 2.6 1.7.2.6.3.2.1-1-.3-2 1.9-6.2 4-7.6.6-.4.8-1 .4-1.3-.4-.4-1.9 1.2-3.4 3.5-2.9 4.4-4.2 4-2.8-.8.4-1.5.7-3 .6-3.4s.5-.5 1.3-.2c1.1.5 1.3.2.9-1-.3-.9-.2-1.6.4-1.6.5 0 1.2-1.1 1.4-2.5.3-1.3.1-2.2-.3-1.9-.5.3-.6-.9-.3-2.6.5-2.4.3-3-1-3s-1.6-.6-1.1-2.3c.4-1.5.3-1.8-.3-.8-1.2 1.7-2.7-.3-1.6-2.1.4-.7.9-2.3 1-3.6.4-3.9 1.3-5.4 2.6-4.6.8.5.9.2.4-1.1-.4-1.1-.2-2.2.6-2.6.7-.4.9-1.1.5-1.5-1-1-2.8.8-3.2 3.2-.1 1.1-.7 1.8-1.3 1.7-.5-.1-.7.7-.4 1.9.4 1.5.2 1.9-.7 1.4-.8-.5-1.1-.3-1 .5.3 2.1-2 7.1-3 6.4-.5-.3-1.2-1.9-1.6-3.6s-.9-2.8-1.2-2.5c-.3.2 0 2.1.7 4 .6 2 1.3 5.9 1.4 8.8.2 2.9.8 5.4 1.4 5.6.7.2 1.2-.1 1.2-.7s-.5-1.1-1.2-1.1c-.6 0-.3-.9.7-2 1.2-1.3 1.4-2 .5-2-.7 0-1-.7-.6-1.7.4-.9.2-2-.4-2.3-.8-.5-.6-.9.4-1.3s1.6-.1 1.6.9c0 .9.5 1.2 1.3.8.9-.6.9-.4.1.7-.6.8-1.2 3.2-1.3 5.3-.1 2.3-.9 4.5-1.9 5.2-1.6 1.2-1.5 1.3.4 1.4 1.5 0 2.1.6 2 1.7-.1 2.3-3.8 4.4-4.8 2.9-.5-.7-1.3-.4-2.2.9-1.8 2.3-2 3.5-.6 3.5.6 0 1 .7 1 1.5 0 2.2-3 6.6-4.1 5.9-1.1-.6-1.1.4.1 3.1.9 1.9.9 1.9 1.6-.3.8-2.7 2.7-2.5 2.9.4.6 6.7 1.8 10.5 3.1 10 2.1-.8 1.7.7-.6 2.2-2.6 1.6-2.5 4.6.3 6.6 1.2.9 1.7 1.4 1.1 1.2-.7-.3-1.5.1-1.8 1-.3.8-.2 1.2.4.9.5-.3 1.7.2 2.7 1 3.7 3.3 13.8 10.4 14.9 10.5.7 0 1.4.7 1.8 1.5.3.8 1.2 1.5 2.1 1.5.8 0 1.5.4 1.5.9 0 1.1 5.4 4.3 9.8 5.9 2.3.8 3.2.8 3.2 0 0-.6.8-.4 1.8.5 1 1 2.3 1.7 2.8 1.7.6 0 3.1 1.3 5.6 2.9s4.8 2.7 5.1 2.5c.2-.2 2.1-.5 4.1-.6s4.1-.7 4.7-1.4 3.4-2 6.2-3c2.9-.9 5.8-2.2 6.5-2.9.9-.8 3-1.1 5.7-.7 3.4.3 5 0 7.1-1.7 1.5-1.1 3.2-2.1 3.8-2.1.7 0 3.8-1.5 6.9-3.4 3-1.9 5.8-3.1 6.1-2.8s.6 0 .6-.6c0-.7 1.1-1.2 2.5-1.2s3-.9 3.7-2c.9-1.4 1.9-1.8 3.8-1.3 1.4.3 2.2.2 1.8-.2s0-1.4.8-2.2c.8-.9 1.8-2.8 2.1-4.4s1.5-3.9 2.7-5.2 2.8-3.9 3.6-5.6c1.1-2.8 1.1-3.4-.1-4.3-1-.7-.8-.8.8-.3 2.3.6 4.3-1.3 2.4-2.4-1-.7-.5-3 3.5-15.9.2-.6 1.3-1.2 2.4-1.2 1.2 0 1.8-.5 1.5-1-.7-1.1 2.9-6.3 3.7-5.5.3.3.5-.8.5-2.5 0-1.6-.5-3-1.1-3s-1.6-1-2.1-2.3c-.6-1.2-1.5-2.2-2.2-2.2s-1.8-.6-2.5-1.4c-.8-.9-.8-1.1-.1-.7 1.6.9 2.9-1.4 1.3-2.4-.7-.4-2.1-.5-3.1-.3-1 .3-1.9 0-1.9-.6s.7-1.1 1.6-1.1c1.3 0 1.4-.3.5-1.3-.6-.8-.9-1.6-.6-1.9s-.9-.4-2.5-.3c-1.7.1-3.4-.3-3.7-.8-.3-.6-.1-.7.5-.3.7.4 1.2.2 1.2-.4 0-.7.7-1 1.5-.6.8.3 1.5.1 1.5-.5 0-.5 1.2-.7 2.8-.3 3.3.8 2.8.4 3.6 3.1.6 1.8.3 2.3-1.1 2.3-1.5 0-1.6.2-.3 1 .8.5 1.8 1 2.3 1 1.1 0 .8-3.9-.5-6.3-1.6-3-2-5.7-.8-5.7.6 0 1-.6 1-1.3-.1-.6-1.1 0-2.3 1.5-2.1 2.6-2.4 2.7-6.1 1.4-3-1.1-3.4-1.4-2-2 1.5-.6 1.6-.9.5-1.5-1-.7-.9-1 .8-1.6 1.5-.5 2-1.2 1.6-2.5-.3-1.1 0-2 1.1-2.4 2-.8 3.4.1 3.5 2.2 0 1 .3 1.2.6.5.2-.7-.4-2.4-1.5-3.8-1.5-1.9-2.1-2.2-2.4-1.1-.6 3.1-2.7-.1-3.5-5.4-1.2-7.4-.7-8.7 3.1-10 4.3-1.4 6-4.9 4.3-9-1-2.3-1.6-2.7-2.5-1.8-.7.7-1.2 1.7-1.2 2.3-.1 2.5-3.1 4.8-6.6 5-2.6 0-3.2-.2-2.2-1 .7-.5 1.4-1.5 1.5-2 .1-.6.5-1.8.8-2.8.6-1.3.2-1.7-1.6-1.7-1.3 0-1.9-.4-1.4-.8 1.4-1 1.7-3.2.5-3.2-.6 0-.6-.9 0-2.4.5-1.3.6-2.7.3-3-.4-.3.4-.6 1.6-.6s1.9-.4 1.6-1c-.7-1.2-4.1-1.3-4.8-.3-.2.5-.2.1.1-.7.2-.8.5-2 .5-2.7 0-.9.5-.9 2.1-.1 1.5.8 2.1.8 2.4-.1.3-.8.9-.6 1.9.6 1.3 1.7 1.3 1.6.3-.4-.9-1.9-.6-2.7 1.6-5.3 1.5-1.6 3.1-2.7 3.5-2.4 1.5.9 4.9 1.3 4.8.6-.3-2.1.3-2.3 2.1-.7 1.1 1 1.7 2.2 1.4 2.6-.3.5.2 1.2 1 1.5.9.3 1.3 1 1 1.6-.3.5.2 1.6 1.2 2.3 1.1.9 1.4 1.4.7 1.5-.7 0-1.3.9-1.3 2.1 0 1.3-.4 1.8-1.2 1.3q-1.05-.75-.3.6c.6 1 1.1.9 2.3-.6 1.3-1.7 1.4-1.4 1 3.1-.3 2.7-.3 4.2-.1 3.2.3-1 3.4-3.2 7.2-5.1 3.8-2 8.5-5.4 10.9-8 5.5-6 13.9-18.8 14.7-22.5.7-3.2 3.1-4.7 5-3.1 1.9 1.5 4.5.1 4.5-2.4 0-2.2-3.4-4.6-6.5-4.6-.8 0-1.8-1.2-2.1-2.8-1-4-2.7-6.9-8.2-14.4-2.7-3.7-5.9-9.1-7.2-12-1.2-2.9-4.5-7.7-7.1-10.6-2.7-3-4.9-5.7-4.9-6.1 0-1.6-6.4-4.2-16.6-6.6-6-1.4-13.8-3.9-17.4-5.5-5.3-2.3-20-5.5-22.8-4.8-.4 0-2.3.3-4.2.5m2 2.6c0 .4.9.3 1.9-.3 1.1-.5 2.3-1 2.8-1 .4.1-.3.7-1.7 1.4-1.4.8-2.9 1.2-3.4.9s-.7-.2-.4.3c3.8 7.9 4.9 10.8 4.5 11.9-.4.9.8 1.5 3.6 2 11.4 1.9 23 3.7 30.2 4.6 4.4.6 8.3 1.6 8.7 2.2.6.9.8.8.8-.2 0-.8.3-1.1.8-.7.4.4.7 1.2.7 1.8s.8 1.2 1.8 1.4c1.1.1 2.1.5 2.5.8 1.1 1.1-3.6.6-7.6-.8-2.5-.9-4.4-1.1-4.7-.5-.4.5-1.2.9-1.8.9-.8 0-.8-.3.1-.9.9-.5-.8-1.1-4.7-1.5-3.4-.4-6.1-1.1-6.1-1.6 0-.6-1-1-2.2-.9-2.2 0-2.2.1-.3 1 1.5.7 1.2.8-1.5.4-1.9-.3-6.5-.7-10.2-.8-3.8-.1-6.8-.6-6.8-1.1 0-.4-1.8-.6-4-.4s-4.1 0-4.2-.3c-.7-1.7-34.9-3-35.5-1.3-.2.6-1.9.8-3.8.6s-4.3-.1-5.2.3c-1 .5-2.1.8-2.5.7-1.7-.4-14.9 4.3-21.1 7.4-3.7 1.9-7.2 3.2-7.7 2.9s-1.2 0-1.6.6c-.5.8-.2 1 .7.5.8-.4-.4.7-2.6 2.6-6.4 5.4-11.5 10.9-11.6 12.7-.1.9-.4.5-.9-.9-.7-2.2-.8-2.1-.9 1.2-.1 2-.6 4-1.2 4.4-.8.4-.9-.1-.4-1.6.4-1.4.3-2-.3-1.6-.9.5-1.9 4.6-2.4 9.9-.2 1.7-.3 1.7-1.5.1-.7-1-1.3-1.5-1.3-1.2 0 .4-.3 1.4-.7 2.4-.4 1.2-.3 1.5.5 1 1.7-1 1.5-.2-.7 2.3C7.3 67 7.2 67 6.7 65c-.3-1.2-.1-1.8.5-1.4s.9-.5.7-2.2c-.2-2 .8-4.7 3.2-8.4 4.6-7 12.4-15.5 13.6-14.7.5.3 2.2-.6 3.9-1.9l2.9-2.6-3.4 2.3c-3.2 2.1-3.3 2.1-2.2.1 2.3-4.3 28.2-17.4 32.4-16.4 1.9.5 9.6-2.1 9-3.1-.4-.6-.1-.7.8-.1 1.2.7 5.9.7 6.7-.1.5-.4-5-8.8-6.3-9.7-.5-.4.2-.8 1.6-.8 1.9 0 3.7 1.2 6.3 4.2 2 2.4 3.6 4.6 3.6 5 0 .5 5.7.9 12.8 1l12.7.2-15.5.7c-8.5.4-17.1 1.2-19 1.8-3 .9-2.8.9 2 .3 3-.4 12.1-.7 20.2-.7 8 0 14.4-.3 14.1-.8-.2-.4.6-.7 1.9-.7 1.8 0 2 .2.8 1-1.3.8-1.3 1 .1 1 2.5 0 2.9-1 1.1-2.9-2.7-2.9-5.5-8.4-5.8-11.3-.1-2.4.2-2.7 2.7-2.5 1.6.1 2.9.6 2.9 1m8.5-.3c-.8 1.3.1 1.3 2.8-.1s1.4-.1-3.8 3.6l-4 2.8 2.4-2.6c2.8-3.1 2.2-3.4-1.7-1.1-2.6 1.5-2.6 1.5.3-1 3-2.6 5.2-3.5 4-1.6M92.1 5.5c1.7-1.1 7.9-1.3 7.3-.3-.3.4.2.8 1 .8 2.1 0 2.8 1.6.8 1.6-.9.1-2.6.4-3.7.8-2 .8-2 .7-.1-.8 3-2.4.3-1.9-3.5.7-4.7 3.2-8.3 4.5-4.9 1.7 1.4-1.1 2-2 1.3-2s-2.8 1.4-4.8 3.1c-2 1.8-3.8 2.9-4.1 2.6s1.6-2.1 4.2-4.1S89.7 6 89 6c-.6 0-3.1 1.5-5.3 3.2-2.3 1.8-3.8 2.7-3.3 2 1.6-2.7 8.9-7.3 9.7-6.1.4.7 1.2.8 2 .4m-10.5.3c.8.5.3 1.4-1.5 2.6l-2.6 2 1.9-2.2c2-2.3.9-3.1-1.2-1-.9.9-1.5.9-2.4-.1-1.1-1-1-1.1.3-.6 1 .4 2 .2 2.4-.4.7-1.3 1.6-1.4 3.1-.3M121 8c-3.5 3-5.7 3.9-4.4 1.9.6-1 6.4-4.9 7.4-4.9.2 0-1.1 1.3-3 3m-59.6.2c-.5.7-.2.9.9.5s1.5-.1 1.2 1.4c-.4 2.2.5 2.4 2.5.6 1.2-1 1.2-.9.2.4-1.4 1.9-.6 3 1.6 2.2 1-.3.8.3-.7 1.5-1.3 1-3.3 1.8-4.5 1.7-1.1-.1-2.1-.3-2.1-.5 0-.1-1-.3-2.2-.4s-2 .1-1.8.5c.3.4-.2 1.2-1 1.9s-1.5.9-1.5.5-.7-.2-1.5.5c-1.2 1-1.5 1-1.5 0 0-.9-.7-.7-2 .5-1.1 1-2 1.4-2 1s-.9 0-2 1c-2 1.8-2.1 1.8-1.4-.1.6-1.6.4-1.6-1.9.5-1.5 1.4-2.7 2.1-2.7 1.7 0-.5-.9.2-2 1.5-1 1.3-1.9 1.9-2 1.3 0-.6 1.1-2.1 2.5-3.4s2.5-2 2.5-1.5c0 .4.9 0 2-1s2-2.3 2-2.8c0-.6-.8-.3-1.8.6-1 1-2.4 1.7-3 1.7s-2.5 2-4.2 4.5c-3.4 4.9-5.1 6.2-2.3 1.7 2.5-4.1 5.5-7.2 6.9-7.2.6 0 1.7-.7 2.4-1.5.7-.9 1.5-1.3 1.8-1s1.7-.5 3.1-1.7l2.6-2.3-2.2 2.6c-4.4 5-2.2 4.1 3.6-1.4 3.7-3.6 6.5-5.5 7.4-5.1.8.3 1.8.1 2.2-.5.3-.6.8-1.1 1.1-1.1s.2.5-.2 1.2m63.2 1.5c-.2 1.1-1.2 1.8-2.5 1.9-1.2.1-2.8.7-3.4 1.4-1 1-.8 1.2.7.6 1.6-.6 1.7-.4.6.9s-1.5 1.3-2.2.3c-.5-.9.2-2.2 2.2-4.1 3.5-3.1 4.9-3.4 4.6-1m17.4.3c0 .5 1 1 2.3 1 2.1.1 2.1.2.4 1.4-1.6 1.2-1.6 1.4-.1 2 .9.3 1.9.4 2.4.1.4-.2 1 1 1.4 2.7.4 2 .2 3.4-.5 3.9-1.6 1-3.9 0-4-1.7-.2-2.1-2.1-7.3-3.5-9.5-.3-.5 0-.9.5-.9.6 0 1.1.4 1.1 1m16 4.6c0 .2-.7.4-1.5.4s-1.5-.4-1.5-1c0-.5.7-.7 1.5-.4.8.4 1.5.8 1.5 1m10.7 5.4c.2 1.1-.2 2-.8 2-.5 0-.8-.4-.5-.9.4-.5.1-1.1-.6-1.3-.6-.2-.8-1-.4-1.7 1-1.5 1.9-.7 2.3 1.9m3 4.3c.7 0 1 .4.7.9-.3.4.5.9 1.8.9 1.5.1 1.7.3.7.6-.9.2-3.2-.6-5-1.8-1.9-1.1-2.5-1.8-1.4-1.4s2.5.8 3.2.8m-96.5 2.1c.7-.4.8-.2.4.5-1 1.5-2.6.4-2.5-1.7.1-1.5.2-1.5.6.1.2.9.9 1.4 1.5 1.1m90.8.1c.8.2 2.1.4 2.8.4 1.4.1 1.5 1 .4 2.9-1 1.5-4.2.5-4.2-1.3 0-1.6-2.8-2.8-4.2-1.8-.7.4-.8.1-.4-.6.5-.7 1.5-.9 2.5-.6.9.4 2.3.8 3.1 1m-82-.1c0 .2-.7.9-1.5 1.6-1.3 1.1-1.4 1-.9-.4s2.4-2.3 2.4-1.2m23 1.1c0 .8-.4 1.5-1 1.5-.5 0-.7-.7-.4-1.5.4-.8.8-1.5 1-1.5s.4.7.4 1.5m-46 1.9c0 .3-.4.8-1 1.1-.5.3-1 .1-1-.4 0-.6.5-1.1 1-1.1.6 0 1 .2 1 .4m41 1.6c0 .5-.5 1-1.1 1-.5 0-.7-.5-.4-1 .3-.6.8-1 1.1-1 .2 0 .4.4.4 1m77 2.5c0 2.2-1.9 2.7-3.6 1.1-.8-.9-2.1-1.6-2.7-1.7-.7-.1-.1-.4 1.3-.8 3-.9 5-.3 5 1.4m-115.8.7c-.7.7-1.2.8-1.2.2 0-1.4 1.2-2.6 1.9-1.9.2.3-.1 1.1-.7 1.7M48 33.4c0 .3-.4.8-1 1.1-.5.3-1 .1-1-.4 0-.6.5-1.1 1-1.1.6 0 1 .2 1 .4m11.7 1.8c.2 1.8 0 2-.7.8-1.2-1.8-1.3-3-.2-3 .4 0 .9 1 .9 2.2m11.4-.8c.5-.3.9 0 .9.6 0 .7-.7.9-1.6.6s-1.8-.6-2-.6c-.3 0-.2-.5.2-1.2.6-.9.9-.9 1.2 0 .2.7.8 1 1.3.6m8.9.1c0 .2-.9.3-1.9.2-1.1 0-1.8-.5-1.5-.9.4-.6 3.4 0 3.4.7m39 .5c.8.5 1.1 1 .5 1-.5 0-1.7-.5-2.5-1s-1-1-.5-1c.6 0 1.7.5 2.5 1m46-.6c0 .3-.4.8-1 1.1-.5.3-1 .1-1-.4 0-.6.5-1.1 1-1.1.6 0 1 .2 1 .4m16.1 3.7c.8 1.5.8 1.9 0 1.5-1.5-1-1.4.7.2 2.4 1 1.2.9 1.2-.6 0-1-.7-2.2-2.1-2.8-3.1-.8-1.5-.6-1.7.7-1.2 1.2.4 1.5.3 1-.5-.4-.7-.5-1.2-.2-1.2s1 1 1.7 2.1M54 38.4c0 .3-.4.8-1 1.1-.5.3-1 .1-1-.4 0-.6.5-1.1 1-1.1.6 0 1 .2 1 .4m9 1c0 .3-.4.8-1 1.1-.5.3-1 .1-1-.4 0-.6.5-1.1 1-1.1.6 0 1 .2 1 .4m79 .6c0 .5-.2 1-.4 1-.3 0-.8-.5-1.1-1-.3-.6-.1-1 .4-1 .6 0 1.1.4 1.1 1m7 0c0 .5-.2 1-.4 1-.3 0-.8-.5-1.1-1-.3-.6-.1-1 .4-1 .6 0 1.1.4 1.1 1M34 41.4c0 .3-.4.8-1 1.1-.5.3-1 .1-1-.4 0-.6.5-1.1 1-1.1.6 0 1 .2 1 .4m26 1.1c0 .2-.9.3-1.9.2-1.1 0-1.8-.5-1.5-.9.4-.6 3.4 0 3.4.7m125.2 4.7c-.9.9-1.2.7-1.2-1.2s.3-2.1 1.2-1.2.9 1.5 0 2.4m-44.5-.6c-.3.3-1.2.4-1.9.1-.8-.3-.5-.6.6-.6 1.1-.1 1.7.2 1.3.5M124.8 49c-1.4 2.2-2.4 1.9-1.5-.5.4-.8 1.1-1.5 1.7-1.5s.6.7-.2 2m15 .8c.6 1.8-1.5 1.4-2.2-.4-.4-1-.1-1.4.6-1.2.6.2 1.4 1 1.6 1.6m-7.1.7c0 .8-.4 1.2-.9.9s-.6-1-.3-1.5c.9-1.3 1.2-1.1 1.2.6m10 .7c-.3.8-.6.5-.6-.6-.1-1.1.2-1.7.5-1.3.3.3.4 1.2.1 1.9m4.7-.6c.5 1.4.4 1.5-.9.4-1.7-1.4-1.9-2-.6-2 .5 0 1.2.7 1.5 1.6m41.1-.6c.3.6-.1.7-.9.4-1.8-.7-2.1-1.4-.7-1.4.6 0 1.3.4 1.6 1m-60.8.6c-.3.3-1.2.4-1.9.1-.8-.3-.5-.6.6-.6 1.1-.1 1.7.2 1.3.5m9.3.9c0 1.2-1.9 1.2-2.3 0-.4-.9-.1-1.2.9-.8.7.3 1.4.7 1.4.8m44.5.3c-.3.3-1.1 0-1.8-.7-.9-1-.8-1.1.6-.5 1 .3 1.5.9 1.2 1.2m-47.1 2c.3.5-.1.9-.9.9s-1.2-.4-.9-.9c.3-.4.7-.8.9-.8s.6.4.9.8M139 55c0 .5-.2 1-.4 1-.3 0-.8-.5-1.1-1-.3-.6-.1-1 .4-1 .6 0 1.1.4 1.1 1m-2 3.1c0 .5-.4.9-1 .9-.5 0-1-.7-1-1.6 0-.8.5-1.2 1-.9.6.3 1 1 1 1.6m-18.6 8.4c1.1.8 1.5 1.5.9 1.5-1.9 0-4.3-1.2-4.3-2.1 0-1.3 1.2-1.1 3.4.6m75 1c-.4.8-1.1 1.2-1.6.9-.6-.4-.5-1 .3-1.5 1.9-1.2 1.9-1.1 1.3.6m-66.3 2.3c-.6.2-.8.8-.5 1.4.4.6-.2.5-1.5-.1-1.1-.7-2.1-1.7-2.1-2.3s.6-.5 1.7.3c1.5 1.2 1.6 1.2 1-.5-.7-1.6-.5-1.7.9-.5 1 .8 1.2 1.5.5 1.7m63.4-.8c.4.6.3.9-.2.8-.4-.1-1.8.3-3 1-1.3.7-2.3 1-2.3.6 0-.3-.7-.1-1.5.6-.8.6-1.9.9-2.5.5-1.4-.9-.1-2.8 1.6-2.1.7.3 1.6.1 1.9-.4s1.2-.7 1.9-.4c.8.3 1.7.1 2.1-.5.8-1.4 1.2-1.4 2-.1m-10.9 4.3c1.1 1.1-1.9.8-3.6-.3-1.2-.8-1-.9.7-.7 1.2.2 2.6.6 2.9 1M135 74.5c1.4.8 1.9 1.4 1 1.4-.8 0-2.4-.6-3.4-1.4-2.5-1.9-.9-1.9 2.4 0m36.3-.8c-.7.2-1.9.2-2.5 0-.7-.3-.2-.5 1.2-.5s1.9.2 1.3.5m-4.9 1.7c-.3.7-1.6 1.3-3 1.3-2.3 0-2.3-.1-.7-1.3 2.3-1.7 4.4-1.8 3.7 0M6 76c0 .5-.4 1-.9 1-.6 0-1.3-.5-1.6-1-.3-.6.1-1 .9-1 .9 0 1.6.4 1.6 1m151.7.3c0 .7-1.2 1.3-2.8 1.2-1.5 0-2.5-.3-2.2-.7.2-.5-.6-.8-1.9-.8-1.8 0-2 .2-.8 1 1.1.7.7 1-1.8 1-1.8 0-3.1-.4-2.8-.9.3-.4-.6-.6-2.1-.3-1.8.3-2.4.1-1.9-.7 1.1-1.6 16.3-1.5 16.3.2m11.6 5.4c-.7.2-1.9.2-2.5 0-.7-.3-.2-.5 1.2-.5s1.9.2 1.3.5m-29.9 2.2c1.2 1.4 1.4 1.9.4 1.8-.7-.2-1.4-.6-1.5-1.1s-.7-1.3-1.5-1.7c-.7-.5-.8-.9-.2-.9s1.9.9 2.8 1.9m20.2-1.2c-.3.3-3.2.7-6.3.8-3.6.2-5 0-3.8-.5 2.3-.9 10.9-1.1 10.1-.3m4.9 1.2c-.3.6-1.1 1.1-1.6 1.1s-.4-.6.3-1.4c1.4-1.6 2.4-1.3 1.3.3m-31.8.7c-.3.3-1.2.4-1.9.1-.8-.3-.5-.6.6-.6 1.1-.1 1.7.2 1.3.5m20.3 2.8c0 1.1-1.9 1.5-2.5.6-.3-.5.1-1 .9-1 .9 0 1.6.2 1.6.4M35 89.8c0 .4-.9 1.3-2 2s-2 2.1-2 3.3c0 1.1-.4 1.8-.9 1.4-.5-.3-1.2.3-1.6 1.4-.3 1.1-1.2 2.2-2 2.4-1.9.8-2.7-2-1-3.7.8-.8 1.5-2.4 1.5-3.5 0-2 .9-2.5 3.7-2.2.6.1 1.4-.3 1.8-.9.7-1.2 2.5-1.4 2.5-.2m100 1.4c0 .6-.6.5-1.5-.2-.8-.7-1.5-1.4-1.5-1.6s.7-.1 1.5.2c.8.4 1.5 1.1 1.5 1.6m-4.3 2.5c-.9.9-2.3 1.3-3.6.8-3-.9-1.5-2.6 1.6-1.9 2 .5 2.4.4 1.8-.6-.6-.9-.4-1.1.4-.5 1 .6 1 1.1-.2 2.2m3.8 2.3c-.3.4.2 1 1 1.4.8.3 1.5 1.1 1.5 1.7 0 .8-.7.6-1.8-.4-1.8-1.7-2.7-5.1-1-4.1.5.3.6.9.3 1.4m44.5 0c0 .5-.4 1-1 1-.5 0-1-.5-1-1 0-.6.5-1 1-1 .6 0 1 .4 1 1m-41.2 10.4c-.7.8-1.7 1.2-2.2.9-.4-.3-.2-.9.5-1.4 2.2-1.3 3.1-1.1 1.7.5m-4.3 5.6c.3.5.2 1-.4 1-.5 0-1.3-.5-1.6-1-.3-.6-.2-1 .4-1 .5 0 1.3.4 1.6 1m18.2 5.2c-.3.8-.6.5-.6-.6-.1-1.1.2-1.7.5-1.3.3.3.4 1.2.1 1.9m-21.7 4c0 1.2-.6.9-2.6-1.3-1.9-2.2-1.9-2.2.4-.8 1.2.8 2.2 1.7 2.2 2.1m13.4.9c-.3.5-1 .7-1.5.3-.5-.3-.7-1-.3-1.5.3-.5 1-.7 1.5-.3.5.3.7 1 .3 1.5m-11.1 1.3c.6-.4.9-.4.5.1-.4.4-.3 1.4.4 2.2.9 1.1.6 1.2-1.6.3-2.5-.9-2.6-.8-1.6 1 .6 1.1.8 2 .6 2-.6 0-3.6-5.5-3.6-6.5 0-.3.9-.1 2 .5s2.6.8 3.3.4m4.7 1.6c0 .5-.4 1-1 1-.5 0-1-.5-1-1 0-.6.5-1 1-1 .6 0 1 .4 1 1m-9.6 2.4c-.3.7-1.1 1.3-1.9 1.3-1.8 0-1.9-.4-.2-2.1 1.4-1.6 2.8-1.1 2.1.8m4.6 4.8c-3 2.9-3.1 3-1.5 5.5 2 2.9 1 4.7-1.1 1.9-1.6-2.3-1.8-5.2-.4-6.1.6-.3 1-1.1 1-1.6 0-.6-.4-.7-1-.4-.5.3-1-.2-1-1.1 0-1.6.1-1.6 1.9 0 1.8 1.7 2 1.6 2.6-.3.3-1.2 1.1-1.9 1.6-1.5.6.3-.4 1.9-2.1 3.6m12-1.9c0 .7-1 1.3-2.1 1.4-2.1.2-2.1.1-.3-1.2 2.4-1.8 2.4-1.8 2.4-.2m-9.7 3.8c-.6.6-.9 1.7-.7 2.4.6 1.6-1.2 2.9-2.1 1.6-.7-1.2 1.6-5.1 2.9-5.1.6 0 .5.5-.1 1.1m9.7-.1c0 .5-.2 1-.4 1-.3 0-.8-.5-1.1-1-.3-.6-.1-1 .4-1 .6 0 1.1.4 1.1 1m-69 .4c0 .3-.4.8-1 1.1-.5.3-1 .1-1-.4 0-.6.5-1.1 1-1.1.6 0 1 .2 1 .4m53.4 6.2c.3.8.2 1.2-.4.9s-1-1-1-1.6c0-1.4.7-1.1 1.4.7m17.3 2.9c-.4.8-1.2 1.5-1.9 1.4q-1.5 0 0-.6c.6-.2 1.2-1.2 1.2-2.1 0-.8.3-1.3.6-.9.4.3.4 1.3.1 2.2m-74.9-.4c-.2.6.3 1.4 1 1.6.6.3 1.2 0 1.2-.7 0-.8.6-.8 2 0 1.3.7 2 2.1 2 3.8 0 1.5-.4 2.2-.8 1.6-1.8-2.7-8.6-3.8-10.4-1.7-.9 1.1-1.3 1.1-1.9.1-1.3-2.1-2.1-.1-.9 2.2l1.2 2.2-2.6-1.8c-1.4-1.1-2.5-2.6-2.6-3.4 0-1.3.1-1.3 1 0 .8 1.3 1 1.3 1-.2 0-1.8 4.1-3.5 5.8-2.4.6.3 1.2-.1 1.6-.9.6-1.7 2.7-2.1 2.4-.4m64.2 0c0 .4-.7.9-1.5 1.3-.9.3-1.5 0-1.5-.8 0-.7.7-1.3 1.5-1.3s1.5.4 1.5.8m-52.9.8c-.7.5-1 1.4-.6 2 .5.9 1 .9 2.1 0 .8-.7 1.4-.7 1.4-.1 0 .5.9 1.2 2 1.5 1.5.4 2 1.4 2.1 3.9.1 1.8.2 4.1.3 5s1.1 2.6 2.4 3.8c2.5 2.3 2.4 2.2 1.6 4.4-.3.9-1 1.4-1.4 1.1s-1.1.7-1.4 2c-.4 1.4-1.1 2.3-1.6 2-.6-.4-.8-1-.5-1.5.3-.4.2-1.6-.1-2.5-.6-1.3-.9-1.4-1.6-.3-.7.9-.8.3-.4-1.8.3-2.3-.2-4.1-2-6.7-1.3-2-2.4-4.7-2.4-6.1 0-1.6-.6-2.6-1.5-2.6-1.8 0-1.8-.5-.5-3.1.6-1 1.6-1.9 2.3-1.9.8 0 .8.3-.2.9m54 1.4c-1 .9-1.1.8-.5-.6.3-1 .9-1.5 1.2-1.2s0 1.1-.7 1.8m-9.1 1.2c0 .8-.2 1.5-.4 1.5s-.6-.7-1-1.5c-.3-.8-.1-1.5.4-1.5.6 0 1 .7 1 1.5m6.7 3c-1.6 1.7-1.7 1.4-1-1.4.4-1.5.8-1.9 1.3-1 .5.6.3 1.8-.3 2.4m-14.2 2.5c.3.5.1 1-.4 1-.6 0-1.1-.5-1.1-1 0-.6.2-1 .4-1 .3 0 .8.4 1.1 1m24.8.5c-.3.9-.8 1.4-1 1.1-.3-.3-.2-.9.2-1.5.9-1.6 1.5-1.3.8.4M63 154c-1.1.7-2.8.7-7 0-.8-.1-.4-.5 1-.9 3-.9 7.7-.2 6 .9m7-1.6c0 .2-.7.6-1.5 1-.8.3-1.5.1-1.5-.4 0-.6.7-1 1.5-1s1.5.2 1.5.4m65.7 1.1c0 .8-.4 1.5-.9 1.5-.4 0-.8-.7-.8-1.5s.4-1.5.8-1.5c.5 0 .9.7.9 1.5m-56.2.7c.4-.4.4 1.1.1 3.2-.7 3.5-.6 3.8.7 2.7 1.3-1 1.5-.9 1 .7-.2 1.1-.1 2.8.4 3.8.5 1.1.6 3.8.3 6.2l-.5 4.3-3.4-2.5c-2.6-2-3.7-2.3-4.3-1.3-.5.8-.8.5-.8-.9 0-2.2-2.7-4.1-3.9-2.8-.3.4-.1.9.6 1.1.8.3 1 1.5.6 3.5-.4 2.2-.3 2.9.5 2.4.7-.4 1.2-.3 1.2.2 0 1.8-2.9 2.1-3.3.4-.3-.9-.5 0-.6 2 0 2.1-.6 3.8-1.2 3.8-.8 0-.8.4.1 1.5 1.3 1.6.4 3.9-1.2 2.9-.6-.4-.8-.2-.5.3.4.6-.2 1.3-1.3 1.6-1.4.3-2 1.4-2.1 3.4-.1 1.5-.3 2.1-.6 1.1-.7-2.8-3.3-3-4.5-.3-.6 1.4-1.4 2.5-1.8 2.5-1.5 0-1.7 5-.4 6.1.8.6 1.4 1.7 1.3 2.3 0 .7-.2.6-.6-.2-.2-.6-.9-.9-1.5-.6-.6.4-1.4.1-1.8-.7-.7-1-1.1-1-2.4.1-1.4 1.1-1.6 1-.9-.5.5-1.4.3-1.7-1-1.2-.9.3-1.7.2-1.7-.2 0-.5.5-1.1 1.2-1.3.6-.2.8-1 .4-1.7-.6-.9-1.1-.9-2.2 0-.9.7-1.4.8-1.4.1 0-.6.4-1.3.9-1.6s1.1-1.7 1.3-3.1c.3-1.3.1-2.2-.3-1.9-.5.3-.9 1.5-.9 2.7 0 1.6-.3 1.8-.9.8-.7-1.1-.9-1.1-1.4 0-.4.8-.4-.4-.1-2.6.4-3 .3-3.6-.5-2.5-.6.8-1.1 3-1.1 4.7 0 1.8-.4 3.3-.9 3.3s-1.1.8-1.3 1.7c-.3 1.3-.6 1-1-.9-.3-1.7-.1-2.5.5-2.1s.8-.5.4-2.5c-.4-1.8-.2-3.2.3-3.2s.7-.7.4-1.5c-.4-.8.1-1.7 1-2.1 1.4-.5 1.4-.9.4-2.2-1.1-1.3-1-1.4 1-.3 1.5.8 2.8.9 4 .2 2.4-1.3 4.8-4.1 3.5-4.1-.6 0-1-1.3-1.1-2.9 0-2.1.3-2.8 1.3-2.5 1.6.7 2.7 3.2 1.9 4.5-.3.5-.3.9.1.9.3 0 1-1.2 1.6-2.6.5-1.5 1.2-2.5 1.5-2.2.2.3 0 1.7-.6 3.2-.8 2.1-.7 2.7.2 2.3.7-.2 1.2-1 1.1-1.6-.2-.6.1-1.1.7-1.1.5 0 .7-.7.4-1.5-.4-.8-.1-1.5.5-1.5s1 .3 1 .7c-.3 2 .2 3.4 1 2.9.5-.4 1.2 0 1.4.6.4 1 .8.9 1.6-.2.7-1 .6-1.7-.2-2.2-.9-.6-.9-.8.1-.8.6 0 1.2-.5 1.2-1.1 0-.5-.4-.7-1-.4-.5.3-1 .2-1-.3 0-.6.7-1.2 1.5-1.6.8-.3 1.4-.2 1.4.2-.1.4 0 1.8.1 3.2.2 1.7.4 2 .7.8.2-.9 1.3-2 2.4-2.3 2.1-.7 2.4-2.2 1-4.4-.8-1.2-1.2-1.3-2.5-.1-1.4 1.1-1.6 1-1-.5.5-1.3.4-1.6-.4-1.1-.7.4-1.2.1-1.2-.7 0-1.1.7-1.3 2.2-.9 1.4.3 1.9.2 1.4-.6-.4-.7-.2-1.2.4-1.2 1.9 0 10.4-5.4 9.2-5.8-.6-.2-2.8.8-4.9 2.2-3.2 2.2-4.9 2.6-10.9 2.6-5.5 0-7.4-.4-8.6-1.8-2.1-2.4-2.9-5-1.7-5.8 1.4-.9 10 1.6 9.3 2.7-.3.5 0 .9.5.9.6 0 1.1-.5 1.1-1.1 0-.5.4-.8.9-.4.5.3 1.2.1 1.6-.5.3-.5 1.8-1 3.3-1.1 1.5 0 4.3-.6 6.2-1.3s4-.9 4.6-.4c.6.4 1.4.4 1.9 0M94 156c0 .5-.2 1-.4 1-.3 0-.8-.5-1.1-1-.3-.6-.1-1 .4-1 .6 0 1.1.4 1.1 1m17 .1c0-.8.2-1.2.5-1 .2.3.2 1.5-.2 2.8-.4 1.7-.8 1.9-1.4.9-.5-.7-.9-2-.9-2.8 0-1.3.1-1.3 1 0 .8 1.2 1 1.2 1 .1m-15 6.3c0 2.6-.6 1.8-1.4-1.9-.5-2.2-.4-2.6.4-1.5.5.8 1 2.4 1 3.4m52.7-3.8c-.3.3-1.2.4-1.9.1-.8-.3-.5-.6.6-.6 1.1-.1 1.7.2 1.3.5m-1.7 2.3c0 .6-.5 1.3-1.2 1.7q-1.05.75-.3-.6c.6-.9.1-1-1.6-.5-1.9.5-2.1.4-.9-.4 1.9-1.3 4-1.4 4-.2m-63.6 1.6c.3.8.1 1.5-.4 1.5-.6 0-1-.7-1-1.5s.2-1.5.4-1.5.6.7 1 1.5m35.9 3.2c-.4.9-.2 1.4.3 1 .6-.3 1.1.4 1.1 1.5.2 2 .1 2-1.2.2-1.7-2.2-1.9-4.4-.5-4.4.5 0 .6.7.3 1.7m-66.6.5c2.1.8 3.3 1.9 3.3 3.1s-.4 1.6-1.2 1c-.7-.4-2.1-.6-3.2-.4-1.9.3-3.6-1.4-3.6-3.7 0-1.5.5-1.5 4.7 0m7.2.9c-2.2 1.3-3.1 1.1-1.7-.5.7-.8 1.7-1.2 2.2-.9.4.3.2.9-.5 1.4m34.7.4c0 1.5-.7 2.5-1.6 2.6-.9 0-.5.4.8.9 1.5.7 2.2 1.7 2.2 3.7l-.1 2.8-1.3-3c-1.2-2.8-1.3-2.9-2.3-1-1 1.8-1.1 1.7-1-1 .2-2.3 2.4-7.5 3.3-7.5.1 0 .1 1.1 0 2.5m5.4-.5c0 .5-.5 1-1.1 1-.5 0-.7-.5-.4-1 .3-.6.8-1 1.1-1 .2 0 .4.4.4 1m17.5.9c.3.5.2 1.2-.3 1.5s-.9-.1-.9-.9c0-1.7.3-1.9 1.2-.6m18 3.9c-.5.5-7.2-2.5-7.8-3.5-.3-.5 1.4 0 3.8 1.1s4.2 2.2 4 2.4m20.3-2.3c-.3.3-.9-.2-1.2-1.2-.6-1.4-.5-1.5.5-.6.7.7 1 1.5.7 1.8m-93.3-.6c.3.5.1 1.2-.4 1.5s-1.1-.1-1.5-.9c-.6-1.6.9-2.1 1.9-.6m89.9-.1c.3.5-.1.9-.9.9s-1.2-.4-.9-.9c.3-.4.7-.8.9-.8s.6.4.9.8M99 170.4c0 .3-.4.8-1 1.1-.5.3-1 .1-1-.4 0-.6.5-1.1 1-1.1.6 0 1 .2 1 .4m9.7 2.3c-.8.7-3.7-.9-3.1-1.9.3-.5 1.2-.4 2 .3.8.6 1.3 1.4 1.1 1.6M28 172c0 .5-.5 1-1.1 1-.5 0-.7-.5-.4-1 .3-.6.8-1 1.1-1 .2 0 .4.4.4 1m72.5 0c-.3.5-.1 1 .5 1s.8.5.4 1.1c-.4.7-1 .7-1.6.1-.9-.9-.3-3.2.8-3.2.3 0 .2.4-.1 1m57.3 1c.1.9-.3 2.2-1 3-.7.9-1.2 1.3-1.1 1.1.2-.2-.1-.9-.6-1.5-2-2.7-1.9-4.3.2-4.2 1.2.1 2.3.8 2.5 1.6m-42.8 0c-.8.5-2.4.9-3.5.9-1.6-.1-1.6-.2.5-.9 3.5-1.1 4.8-1.1 3 0m-38.3 2.6c-.9.9-2.8-.6-2.1-1.8.4-.6 1-.6 1.7.1.6.6.8 1.3.4 1.7m12.8-1.7c.3.5.1 1.2-.5 1.6-.5.3-1-.1-1-.9 0-1.8.6-2.1 1.5-.7m35 1.7c-.9.7-2.3 1-3.1.7-2.5-.9-1.5-2.2 1.7-2.1 2.8.1 3 .3 1.4 1.4m-9.2.1c-.7.2-2.1.2-3 0-1-.3-.4-.5 1.2-.5 1.7 0 2.4.2 1.8.5m14.7-.3c0 1.1-1.9 1.5-2.5.6-.3-.5.1-1 .9-1 .9 0 1.6.2 1.6.4m-53.2 5.3c1.4 1.3 2.9 2.3 3.4 2.3.4 0 .8.4.8 1 0 .5-.7.7-1.5.4-.8-.4-1.5-.2-1.5.4 0 1.8 2.9 2.2 3.9.5.7-1.3.9-.8.9 2.1 0 2 .3 4 .6 4.3.3.4.6-.8.6-2.5 0-2.4.4-3.2 1.8-3.2 1.1 0 1.3.3.5.8-.6.4-1.3 2-1.5 3.5-.1 1.5-.7 2.6-1.2 2.5-.5-.2-1.3.8-1.8 2.1-.6 1.8-.4 2.7.9 3.8 1 .8 1.2 1.2.6.8-.8-.4-1.3 0-1.3 1 0 .9.4 1.4.9 1 .5-.3 1.2-.1 1.6.5.3.5.1 1-.5 1s-.9.8-.6 1.8c.4 1.2.1 1.9-.8 1.9s-1.3-.4-1-.9.1-1.5-.5-2.2c-.7-.8-1.1-1.8-1-2.2.1-.5-.3-2.2-1-3.9-.9-2.1-.9-3.6-.2-5.2.8-1.8.7-2.1-.4-1.6-.8.3-1.5 1.6-1.5 3 0 1.5-.4 2.2-1.1 1.7-.8-.5-1 .3-.7 2.5.2 1.7 0 3.1-.5 3.1-.6 0-.7-2-.4-4.7.4-4.3.4-4.5-.8-2.4-.7 1.3-1 3.3-.7 4.4.3 1.4.1 1.8-.6 1.3-1.6-.9-1.5.7 0 2.2.9.9.9 1.2 0 1.2-.7 0-1.2.8-1.3 1.7 0 1.5-.3 1.4-1.6-.5-.8-1.2-2.3-2.2-3.3-2.2-2.2 0-3.9-4.6-3-8 .4-1.4 2.8-5.6 5.4-9.3 2.5-3.8 4.6-7.4 4.7-8 0-.7.3-.5.6.3s1.7 2.5 3.1 3.7m3.1-2.5c.1-1.2.6-2.2 1.1-2.2 1.6 0 2.6 3.3 1.2 3.8-.7.2-1 .7-.7 1.2.3.4-.4.6-1.5.3-1.4-.4-2-1.3-1.9-3.2l.1-2.6.8 2.5c.8 2.4.8 2.4.9.2m19.5-1c-.3.4-.1.8.5.8.5 0 1.1-.3 1.4-.8.2-.4.2-.1.1.5-.3 1.3 2.2 3.1 7.1 4.9 1.7.7 2.9 1.7 2.7 2.4-.1.6.3 1 1 .8.7-.3 1.5-1.3 1.6-2.3.3-1 0-1.5-.7-1.1-.6.4-1.1.3-1.1-.2 0-.6-1.2-1.3-2.7-1.7-3.3-.8-5.3-2.3-5.3-3.9 0-.6.5-.3 1.1.7 1 1.8 1.1 1.8 3.2 0 1.1-1 1.7-1.2 1.3-.6-.4.7-.2 1.3.4 1.3s.8.4.5 1c-.8 1.3 2.1 1.3 4.7-.1 1.8-1 2.4-.8 3.5.7.8 1.1 1.7 1.7 2 1.4s1.1.9 1.7 2.7c1.4 4.2 2.5 5.1 3.7 3.3.8-1.2.9-.9.5 1-.3 1.4-.6 3.5-.6 4.7 0 1.3-.5 2.3-1.1 2.3-.7 0-.8-1.1-.4-3.1.5-2.2.4-2.9-.4-2.5-.7.5-1.4-.4-1.7-2.3-.4-1.7-1.1-3.1-1.6-3.1s-.6.4-.3 1c.3.5.3 1-.2 1.1-.4 0-1.6.2-2.5.4-1 .2-1.8-.2-1.8-.8 0-.7-.5-.5-1 .3-1.4 2.2-1.2 3.3.4 2.7s2.4.8 2.2 4.1c-.1 2.3-2.1 3.2-2.1.9-.1-.6-.6-1.1-1.3-1-1.1.3-1.6-1-1.3-3 .1-.5-.3-.5-.9-.2-.8.5-.6 1.5.5 3.1.8 1.3 1.2 2.4.8 2.4-.5 0-.2.4.5.9 1.8 1.1 2.4 6.4.7 5.7-.7-.2-1.5.4-1.8 1.5-.3 1-1.1 1.9-1.7 1.9-.8 0-1-.9-.6-2.6.6-2.3.5-2.4-1.4-1.4-2.1 1.1-2.5.4-1.1-1.9.5-.8 1.4-1 2.1-.6.8.5 1.1.4.6-.3-.3-.6-.2-1.3.3-1.7.7-.4.6-1.5-.1-3.1-.8-1.8-1.7-2.4-3.1-2-1 .2-2.6.2-3.4-.1-1.2-.5-1.2-.8-.1-1.5.9-.7.8-.8-.6-.4-1 .4-2.5.1-3.2-.5-2.2-1.8-1.6-3.1.9-1.8 1.9 1.1 2 1 1-.3-1.5-1.8-.7-2.8 2.1-2.8 1.5 0 1.7-.3.8-1.2s-1.5-.9-2.4 0-1.7.4-3.5-2c-2.1-2.9-2.9-3-2.3-.3.1.5-.4.5-1-.2-1-.9-.9-1.5.1-2.6 1.4-1.5 4.2-1.9 3.3-.5m23.3.3c1.2.1 2.9.7 3.7 1.4 1.3 1.1 1.6 1.1 1.6.1 0-.7.9-.3 2 1 2.6 3.1 2.5 4.6-.4 4.6-1.8 0-2.2-.4-1.8-2.1.4-1.9.4-1.9-1-.1-1 1.3-1.7 1.5-2.2.8-.4-.7-.4-1.7-.1-2.2.3-.6.2-1-.4-1s-2.5-.9-4.3-2.1-2.4-1.8-1.3-1.4c1.1.5 3 .9 4.2 1m12.6 4.3c-.4 1-.2 1.3.5.8.7-.4 1.2-.2 1.2.4 0 .7-.7 1-1.5.6-1.6-.6-2.1 1.4-.6 3 .6.5.3 1.5-.7 2.4-1.4 1.3-1.5 1.2-.9-.3.3-.9.2-1.9-.3-2.2-.6-.4-1 1.3-1 3.9 0 4.3-1.1 5.9-2.5 3.6-.4-.6-1.1-.8-1.6-.5-.5.4-.9-.1-.9-.9 0-2 1.7-2.9 2.4-1.4.4.7.4.3.2-1-.2-1.2 0-2.2.5-2.2.4 0 .5-.7.2-1.7-.4-1.1-.3-1.4.5-.9.6.4 1.7-.5 2.6-2.2 1.4-2.7 1.3-3-.7-5.3l-2.2-2.3 2.7 2.3c1.6 1.4 2.4 2.9 2.1 3.9m18.4-3.6c-.3.8-.6.5-.6-.6-.1-1.1.2-1.7.5-1.3.3.3.4 1.2.1 1.9m-83.5 2c-.7.7-1.2.8-1.2.2 0-1.4 1.2-2.6 1.9-1.9.2.3-.1 1.1-.7 1.7m72.9 3.1c-1 .9-1.1.8-.5-.6.3-1 .9-1.5 1.2-1.2s0 1.1-.7 1.8m-44.8.3c.4.1 1.3.2 2 .3.6.1.3.7-.8 1.3-2.1 1.3-3 1.3-3 0 0-.4-.4-1.3-.9-2.1-.7-1.1-.6-1.2.5-.5.8.5 1.7.9 2.2 1m.2 5c2.2 1.8 3.4 3.4 2.7 3.4s-1 .4-.7 1c.3.5.1 1-.4 1-.6 0-1.1-.5-1.1-1.1 0-1.6-2.5-3.7-5.4-4.5-2.9-.7-4-1.9-3.2-3.3.9-1.5 3.8-.2 8.1 3.5m-11.8 1.6c-.3.8-.6.5-.6-.6-.1-1.1.2-1.7.5-1.3.3.3.4 1.2.1 1.9m34 .7c-.1 1.7-.5 2.7-.9 2.3-.7-.7 0-5.2.8-5.2.2 0 .2 1.3.1 2.9m-85.7-.3c0 .8-.4 1.2-1 .9-.5-.3-1-1-1-1.6 0-.5.5-.9 1-.9.6 0 1 .7 1 1.6m-13.5.4c.3.5.2 1-.4 1-.5 0-1.3-.5-1.6-1-.3-.6-.2-1 .4-1 .5 0 1.3.4 1.6 1m114.2 1.2c-.3.8-.6.5-.6-.6-.1-1.1.2-1.7.5-1.3.3.3.4 1.2.1 1.9m-43 .8c1.4 1.2 2 2.7 1.6 4.2-.4 2.2-.4 2.3 1.1.4 1.3-1.6 1.9-1.7 2.8-.8s.8 1.2-.5 1.2c-1.2 0-1.7.8-1.7 2.6 0 1.4-.4 2.3-.9 1.9-.5-.3-1.2-.1-1.6.4-.3.5.3 1.4 1.2 2 1.5.9 1.6 1 .2 1.1-.9 0-2.1-1.1-2.7-2.5-1.5-3.2-1.6-8.9-.2-8 1.8 1.1 1-.7-1.2-2.6-1.1-1.1-1.7-1.9-1.1-1.9.5 0 1.9.9 3 2m16.3-.1c0 .5.3 1.8.7 2.8.3 1 .3 1.5-.2 1.1-1.2-1.2-3.5 1.2-3.5 3.6-.1 1.9-.2 1.9-1.1.3-.5-.9-.7-2.2-.4-2.8.4-.6-.1-1.6-1-2.3-1.6-1.2-1.6-1.3-.1-1.9.9-.4 1.6-.2 1.6.3 0 .6.5 1 1 1 .6 0 .9-.3.9-.8-.3-1.4.1-2.2 1.1-2.2.6 0 1 .4 1 .9m32.1 1.4c-1 .9-1.1.8-.5-.6.3-1 .9-1.5 1.2-1.2s0 1.1-.7 1.8M87.2 197c.2 1.6-.1 3.1-.7 3.3-.7.3-.9-.7-.7-2.9.5-4.2.8-4.3 1.4-.4m2.1-1c.3 1.1.1 2-.4 2s-.9-.9-.9-2 .2-2 .4-2 .6.9.9 2m35.4 2.1c-.5.3-.2.9.7 1.2 1.1.4 1.8-.1 2.2-1.8.7-2.9 2.4-3.4 2.4-.8 0 1.4.2 1.5.9.4 1.1-1.7 2.3.2 1.5 2.4-.4.9-1.3 1.4-2 1.1-1.5-.6-1.9.9-.5 1.8.4.3.7 1.7.5 3.2-.4 3.8-1.1 3.9-1.2.3 0-1.8-.4-3.5-.9-4-1.2-1.2-3.7.6-2.9 2 .4.6 1.2.9 1.7.6.5-.4.9-.1.9.4 0 .6-.4 1.1-1 1.1-1.9 0-5.9-2.3-6.4-3.7-.3-.8-.2-1.2.3-.9.9.6 2.1-1.6 2.1-3.6 0-.7-.5-.7-1.3.1-.8.6-1.7.8-2 .4-.4-.3-.7-.1-.7.5 0 .7-.5 1.2-1.1 1.2-.8 0-.8-.5.1-1.5.7-.8 1.6-1.3 2-1s1-.5 1.3-1.6c.5-2 .6-2 2.4-.2 1.1 1 1.5 2.1 1 2.4M56.3 197c.3 1.1.1 1.8-.4 1.4-.5-.3-.9-1.2-.9-2 0-2 .7-1.7 1.3.6m80.7.9c.8 1.5.8 2.1.1 1.7-.6-.4-1.1 0-1.1 1 0 1.3-.3 1.5-1.1.7-.5-.5-.7-2.2-.3-3.7.3-1.5.8-2.6.9-2.4s.8 1.4 1.5 2.7m-104.7 3.5c-1.1.6-1.2 1-.3 1.6.8.5.7.9-.4 1.3-1.2.5-1.6 0-1.6-1.9 0-1.4.4-2.2 1-1.9s1-.2 1-1.2c0-1.5.2-1.6 1-.3.6 1 .4 1.7-.7 2.4m69.1 2.5c.8 1.1.8 1.5-.1 1.8s-1 1-.3 2.4c.9 1.5.8 1.7-.6 1.2-1.1-.4-1.4-1.4-1-3.4.4-1.9.2-2.8-.6-2.6-.7.1-1.3-.7-1.5-1.8-.3-1.6-.2-1.7.6-.5.9 1.3 1.1 1.2 1.2-.5l.1-2 .5 2c.3 1.1 1 2.6 1.7 3.4m-39.7-2c0 1.1-.5 1.8-.9 1.5s-.5-1.1-.1-1.9c.7-2.1 1.2-1.9 1 .4m27.9 3.4c.2 3.4 0 3.7-.6 1.7-.4-1.4-.9-1.8-.9-1-.1 1.2-.3 1.3-1 .1-.6-.9-.3-2 .7-3.2.9-1.1 1.7-1.9 1.7-1.9s.1 1.9.1 4.3M76 203.5c0 .7-.8 1.9-1.7 2.4-1.7 1-1.6 1.1.2 1.2 1.1.1 2.8.2 3.8.2 1.3 0 1.7.5 1.4 1.8-.3 1.1-.1 1.7.3 1.4.5-.3 1.1.9 1.5 2.6.7 3.1.7 3.1 1.9.8 1.2-2.4 5.6-3.4 5.6-1.2 0 .7-.6 1.3-1.4 1.3-.9 0-1.2.8-.8 2.5.2 1.5.9 2.2 1.6 1.8.6-.3.2.3-.8 1.5-1.1 1.2-1.6 2.5-1.1 3 .4.4 1 .1 1.2-.6.3-.6.9-.9 1.5-.6.7.4.6.9-.2 1.4s-.9 1.6-.4 3.1l.7 2.4 1.3-3c.7-1.7 1.1-4.4.8-6.1-.3-1.8-.1-3.5.5-3.8.6-.4 1.1-1.5 1.1-2.4 0-1.3-.2-1.4-.9-.4-.7 1.1-.9 1.1-1.4-.2-.4-.9-.1-1.5.6-1.3.7.1 1.1-.7.9-1.8-.2-1.8-.1-1.8 1.8.4 2 2.4 2.7 4.7 1.1 3.7-.9-.6-2.1 2.6-2.1 5.9 0 1.7.2 1.7 1 .5s1-1.1 1 .7c0 1.4-.6 2.3-1.5 2.3-1.4 0-1.8 1.4-1.8 7 0 1.5-.2 1.8-.4.7-.3-.9-1-1.7-1.7-1.7-.8 0-2.1-1.5-3-3.3-1.2-2.5-1.6-2.8-1.7-1.2q0 1.95-.6.6c-.4-1-1-.5-2 1.5-.7 1.6-1.1 2.1-.8 1.1s0-2.7-.6-3.9c-1-1.9-1.1-1.9-2.5-.1-.9 1.1-.8.4.3-1.9 1.3-2.6 1.9-3.1 2.1-1.8.3 1.7 3 3.5 3.9 2.6.3-.2.6-2.7.7-5.6.2-3.1 0-4.8-.6-4.2-.5.5-1 1.9-1.1 3.1-.2 2.5-1.2 2.7-2.2.3-.6-1.6-.7-1.6-1.6 0-.6 1-1.9 1.8-2.9 1.8-1.1 0-2 .5-2 1.1 0 .5.5.7 1 .4.6-.3 1-.1 1 .4 0 .6-.9 1.1-2.1 1.1-1.5 0-1.9-.5-1.5-1.6.3-.8.2-1.2-.4-.9-.5.3-.8 1.8-.6 3.3s.1 2.1-.1 1.3c-.4-.9-.7-1-1.2-.3-.4.6-.8-.9-.9-3.4-.1-4.2-2.1-9.9-2.2-6.5 0 .8-.2 1.2-.5.9-.9-.9.6-3.8 1.6-3.2.5.3.1-.9-1.1-2.8-2.7-4.4-2.5-6 .3-2.5l2.2 2.8 1.8-3c1.9-3.3 3.7-4.1 3.7-1.6m2.3 0c-.3.9-.8 1.4-1 1.1-.3-.3-.2-.9.2-1.5.9-1.6 1.5-1.3.8.4m54.8 1.2c-1.2 2-1.4 1.4-.5-1.2.4-.9.9-1.4 1.1-1.1.3.2 0 1.3-.6 2.3M29 205c0 1.1-.2 2-.5 2-.2 0-.9-.9-1.5-2-.9-1.6-.8-2 .5-2 .8 0 1.5.9 1.5 2m112.5-1c.3.5.1 1-.4 1-.6 0-1.1-.5-1.1-1 0-.6.2-1 .4-1 .3 0 .8.4 1.1 1m-75.8 3.7c0 1.6-.2 2.2-.4 1.6-.3-.8-1.4-1.1-2.9-.7-1.8.5-2.4.3-2.2-.7.2-.8-.3-1.3-1-1.1-.8.1-1.1-.2-.7-.8.5-.8 1.4-.5 2.8.7 1.8 1.6 2 1.6 1.4.1-.3-.9-.1-1.9.6-2.1 1.9-.7 2.5 0 2.4 3m39-.5c-.3.8-.6.5-.6-.6-.1-1.1.2-1.7.5-1.3.3.3.4 1.2.1 1.9m9 .5c-.9 2-1.3 2.3-1.5 1-.2-.9-1.1-1.8-2-1.8-.9-.1-.3-.5 1.3-.9 1.7-.4 3.1-.8 3.2-.9.2 0-.3 1.1-1 2.6m-15.9.8c-.3 3-.2 2.9-2.4.8-1.6-1.7-1.3-2.2 2.3-3.2.2-.1.2 1 .1 2.4m28.2.7c0 1.6-.3 1.9-1.1 1.1-.6-.6-.8-1.6-.5-2.2 1.1-1.7 1.6-1.3 1.6 1.1m-68.5-.2c.3.5.1 1-.4 1-.6 0-1.1-.5-1.1-1 0-.6.2-1 .4-1 .3 0 .8.4 1.1 1m53.1.2c.3.5.1 1.5-.5 2.1s-1.1 2-1.1 3.1c0 1.7-.2 1.8-.9.7-.6-.9-.6-2.2 0-3.2 1.3-2.5 1.1-3.3-.4-2-1 .8-1.4.7-1.4-.2 0-1.6 3.4-2 4.3-.5m23.9 1.4c.9 1.5 1.2 2.3.6 2-1.1-.7-3.5-4.6-2.8-4.6.3 0 1.2 1.2 2.2 2.6m-105.7 1.9c0 3-.7 2.8-1.3-.4-.2-1.1 0-2.1.4-2.1.5 0 .9 1.1.9 2.5m86.6 4.3c0 .1-.9 0-1.8-.4-.9-.3-1.6-1.6-1.5-2.8 0-2 .1-2 .9-.1.7 1.7.9 1.6 1.1-1 .2-3 .2-3 .8.5.4 1.9.6 3.6.5 3.8m-14-4.3c-.7 1.6-2.4 2.1-2.4.6 0-.8.7-1.3 2.7-2 .1-.1 0 .6-.3 1.4M65 213c0 .5-.7.7-1.5.4-.8-.4-1.5-.8-1.5-1s.7-.4 1.5-.4 1.5.4 1.5 1m40.7 4.2c-.3.7-.5.2-.5-1.2s.2-1.9.5-1.3c.2.7.2 1.9 0 2.5m13.4-2q0 1.5.6 0c.2-.6.9-1 1.4-.6 1.3.8 1.1 2.4-.2 2.1-.6-.1-1.4.4-1.7 1.2-.3 1 0 1.2 1.1.8.8-.3 1.8 0 2 .7.3.8-.3 1.2-1.6 1.1-1.4-.1-2.2-.9-2.2-2.1-.1-1-.4-2.5-.8-3.2-.5-.6-.4-1.2.2-1.2s1.1.6 1.2 1.2m-21.6.8c.3.5.1 1-.4 1-.6 0-1.1-.5-1.1-1 0-.6.2-1 .4-1 .3 0 .8.4 1.1 1M57 217.5c-.7.9-1.5 1.3-1.7 1.1-.7-.7.7-2.6 1.9-2.6.6 0 .6.6-.2 1.5m5-.4c0 .5-.4.7-1 .4-.5-.3-1-.1-1 .6s-.3 1-.6.6c-.8-.7.4-2.7 1.7-2.7.5 0 .9.5.9 1.1m41-.1c0 .5-.7.7-1.5.4-.8-.4-1.5-.8-1.5-1s.7-.4 1.5-.4 1.5.4 1.5 1m-73 .6c0 .8-1.9 1.3-2.4.6-.3-.5.1-.9.9-.9s1.5.2 1.5.3m87 1.5c0 .5-.4.7-1 .4-1.3-.8-1.3.7 0 2.3.5.7.3.6-.6-.2s-1.3-1.9-1-2.5c.9-1.4 2.6-1.4 2.6 0m-59.3 2.1c-.3.8-.6.5-.6-.6-.1-1.1.2-1.7.5-1.3.3.3.4 1.2.1 1.9m69.7-.1c-.3.5-1.3.9-2.2.8-1.1 0-1.2-.2-.4-.6.6-.2 1-.9.7-1.4-.4-.5.1-.6.9-.3.9.3 1.3 1 1 1.5m-15.1.3c.3-.4.5.3.4 1.5-.2 2.7-1.7 2.2-2.9-.8-.7-2-.6-2.2.5-1.2.8.6 1.7.8 2 .5m-36.8 1.5c.3.5.1 1.2-.5 1.6-.5.3-1-.1-1-.9 0-1.8.6-2.1 1.5-.7m54.2 1.4c.3.4-.1.7-1.1.7-.9 0-1.4.4-1.1 1 .8 1.3-.5 1.3-2.5 0-1.3-.9-1.3-1 0-1s1.3-.1 0-1c-1.1-.7-.8-.8 1.3-.6 1.5.1 3 .6 3.4.9m-26 3.9c-.3.7-.5.2-.5-1.2s.2-1.9.5-1.3c.2.7.2 1.9 0 2.5m-41.5 1c-.8.8-.9.4-.5-1.3.4-1.3.8-1.8 1.1-1 .2.7-.1 1.8-.6 2.3m14.4-.5c-1 1-1.9-.5-1-1.8.6-1.1.8-1.1 1.2 0 .2.7.1 1.5-.2 1.8m40.9-1.7c1.3.6 1.5.9.5.9-.8 0-2.2-.4-3-.9-1.8-1.2-.2-1.2 2.5 0m-51.4 1.4c.5-.3.9 0 .9.6 0 1.5-2.3.7-2.6-.8-.1-.7 0-.8.3-.2.2.5.9.8 1.4.4m4.2 2.6c-.3 1.2-.8 1.9-1.1 1.6-.5-.6.5-3.6 1.2-3.6.2 0 .2.9-.1 2m-5.3 1c0 .5-.5 1-1.1 1-.5 0-.7-.5-.4-1 .3-.6.8-1 1.1-1 .2 0 .4.4.4 1m2.7 2.2c-.3.8-.6.5-.6-.6-.1-1.1.2-1.7.5-1.3.3.3.4 1.2.1 1.9m25.6 1.3c-.3.9-.8 1.4-1 1.1-.3-.3-.2-.9.2-1.5.9-1.6 1.5-1.3.8.4m8.4.9c0 .8-.6 1.2-1.5.9-1.1-.5-1.1-.7 0-1.4.7-.5 1.3-.9 1.4-.9 0 0 .1.6.1 1.4M71 238c0 .5-.2 1-.4 1-.3 0-.8-.5-1.1-1-.3-.6-.1-1 .4-1 .6 0 1.1.4 1.1 1m-3.5 6c1 1.1 1.6 2 1.3 2s-1.3-.9-2.3-2-1.6-2-1.3-2 1.3.9 2.3 2"/><path d="M74.3 13c.8 1.4 2.3 2.6 3.3 2.7 1.3.2 1.5.1.4-.4-.8-.3-2.3-1.6-3.3-2.7-1.9-2.1-1.9-2.1-.4.4m40 6.7c.9.2 2.3.2 3 0 .6-.3-.1-.5-1.8-.5-1.6 0-2.2.2-1.2.5M59 21c-2 .6-2.1.8-.5.8 1.1 0 2.9-.3 4-.8 2.5-1.1-.1-1.1-3.5 0m62 0c1.3.9 10.9 1.5 9.9.6-.2-.2-2.9-.6-5.9-1-3.8-.4-5-.3-4 .4m-72.1 3c-5.2 2.1-12 6-10.4 6 .6 0 1.9-.6 3-1.4 1.1-.7 4.8-2.4 8.3-3.6 3.4-1.2 6.2-2.4 6.2-2.6 0-.8-2.6-.2-7.1 1.6M92.4 6.5c-1 .8-1.4 1.5-.8 1.5.5 0 1.9-.7 3-1.5 1-.8 1.4-1.5.8-1.5-.5 0-1.9.7-3 1.5m-40.6 7.3c-2.6 2.5-4.8 5-4.8 5.6s.7.3 1.5-.8c.7-1 1.8-1.5 2.3-1.2s1.8-.4 2.8-1.5 2.4-1.7 3.1-1.5c.7.3 1.5.1 1.8-.4.9-1.4 2.5-1.2 2.3.2-.2.6.7 1.2 2 1.2 1.2 0 2.1-.4 2-.9-.1-.6-.8-.9-1.5-.7s-1-.5-.8-1.8c.2-1.1.1-2-.3-2.1-5.2-.6-5.9-.4-10.4 3.9m5.7-2.8c-.9 1.4.8 1.2 2.5-.3.8-.6.6-.2-.5 1.1-1.2 1.4-2.1 1.9-2.3 1.2-.3-.7-1.7 0-3.6 1.7-2.9 2.6-2.9 2.5.3-1 3.4-3.6 4.8-4.7 3.6-2.7m109.2 17.5c.3.8.9 1.2 1.4.9 1.2-.7 1.1-1.1-.5-1.7-1-.4-1.3-.1-.9.8M85.2 151c0 1.4.2 1.9.5 1.2.2-.6.2-1.8 0-2.5-.3-.6-.5-.1-.5 1.3m-20.9 29.3c-1.3 1.8-3 4.3-3.9 5.7l-1.6 2.5L61 186c1.3-1.4 2.8-2.4 3.4-2.2s.8 0 .3-.4c-.4-.4 0-1.8.9-3.2 2.4-3.6 1.2-3.5-1.3.1m90.7-6.8c0 .8.4 1.5 1 1.5.5 0 .7-.7.4-1.5-.4-.8-.8-1.5-1-1.5s-.4.7-.4 1.5M68.5 189c-.3.5-.1 1 .4 1 .6 0 1.1-.5 1.1-1 0-.6-.2-1-.4-1-.3 0-.8.4-1.1 1m.6 7.6c0 1.1.3 1.4.6.6.3-.7.2-1.6-.1-1.9-.3-.4-.6.2-.5 1.3m-4.6 2.4c.3.5.8 1 1.1 1 .2 0 .4-.5.4-1 0-.6-.5-1-1.1-1-.5 0-.7.4-.4 1m4.6 1.6c0 1.1.3 1.4.6.6.3-.7.2-1.6-.1-1.9-.3-.4-.6.2-.5 1.3m31.5-20.3c.3 1 .9 1.5 1.2 1.2s0-1.1-.7-1.8c-1-.9-1.1-.8-.5.6m7.3 4.5c.9.7 1 1.1.2 1.5-.7.4-.8.5 0 .3 1.5-.2 1.3-2-.3-2.4-1-.3-1-.2.1.6m5.2 13.8c0 1.1.3 1.4.6.6.3-.7.2-1.6-.1-1.9-.3-.4-.6.2-.5 1.3m11.6-19.7c.6.7.9 2 .6 2.7-.3.8-.3 1.4 0 1.4 1.4 0 1.4-3-.1-4.1-1.4-1.1-1.5-1.1-.5 0m3.9 2.6c.4.8 1.1 1.5 1.6 1.5.6 0 .5-.6-.2-1.5-.7-.8-1.4-1.5-1.6-1.5s-.1.7.2 1.5M92 199.4c0 2.2.3 2.7 1.1 1.9s.8-1.6 0-3c-.9-1.6-1-1.4-1.1 1.1m-18.3 9.4c.7.4 1.8 2.3 2.6 4.1 1.3 3 1.5 3.1 2 1.2.3-1.2.1-1.9-.4-1.6-.4.3-1.1-.6-1.5-2-.3-1.4-1.3-2.5-2.3-2.5-1.1 0-1.2.3-.4.8m.8 6.3c-.4.6-.5 1.2-.2 1.5.2.3.7-.2 1-1.1.7-1.7.1-2-.8-.4M33 72c0 .5 1.2 1 2.8.9 2.4 0 2.5-.1.7-.9-2.7-1.2-3.5-1.2-3.5 0m87 2.9c0 .5.7 1.1 1.4 1.4q1.5.6.9-.9c-.6-1.5-2.3-1.9-2.3-.5m3.2 3.6c.4.4.3 1.6-.3 2.6-.5 1.1-.7 1.9-.5 1.9.3 0 1-.9 1.6-1.9.7-1.5.7-2.2-.2-2.7-.7-.4-1-.4-.6.1M84 82c1.3 2.4.7 2.5-2.5.4-2.1-1.3-2.8-1.4-4.1-.4-.8.7-1.3 1.9-1 2.7.3.7.1 1.3-.4 1.3-.6 0-1-.7-1-1.6 0-.8-.4-1.3-1-.9s-.6 1.5 0 3c.9 2.4.8 2.5-2.8 2.5-2 0-3.2.4-2.5.8.8.5.8 1.2-.2 2.5-.7 1-1.7 1.8-2.2 1.8-.4-.1-.8.3-.8.8s-.3 1.3-.7 1.7c-1.2 1.2-.9 2.6.4 1.8.7-.4.8-.3.4.4-.8 1.4 1.4 5.2 3.1 5.2.7 0 1.3.4 1.3 1 0 .5.5 1 1.1 1 .5 0 .7-.4.4-1-.7-1.2 8.2-11 10-11 .7 0 1.8-.7 2.5-1.5s2.1-1.5 3.2-1.5c2.8 0 7.8 2.8 7.8 4.4 0 .8.5 1.6 1.1 1.8.5.2.7 1.1.4 2.1-.7 1.6-.9 1.5-3.5-.3-3.6-2.5-7-2.5-12 0-4.6 2.4-5.7 3.8-4 5.3.9.8 1.1.8.7.1-1.2-2.1 5.6-6.3 6.9-4.3.3.5.1 1.6-.5 2.3-1.4 1.7 1.2 3 4.2 2 1.6-.5 1.7-.8.6-1.5-1.9-1.2-3.2-1.1-2.4.1.3.5.1 1-.5 1-.7 0-1-.6-.8-1.2.5-1.4 8.8-2.1 8.8-.8 0 .5-.7 1.5-1.5 2.4-.8.8-1.1 1.7-.6 2s1.1-.1 1.5-.9c.3-.8 1-1.5 1.6-1.5s.8.4.5 1c-1 1.6 1.1 1.2 2.5-.5.7-.8 2.1-1.5 3.2-1.5 1.3 0 1.8-.5 1.5-1.4-.3-.7-.1-1.9.4-2.5s.7-.9.4-.7-1.9-.8-3.4-2.3c-4.5-4.1-5.8-5-6.5-4.4-.3.3-.8-.1-1.2-1-.3-.9-1.9-1.9-3.5-2.2-1.6-.4-2.9-1.1-2.9-1.7s.3-.9.6-.5c1.2 1.2 3.3-1.7 2.2-3.1-.8-.9-.4-1.2 1.7-1.2 4.2 0 2.7-.8-2.8-1.4-4.5-.5-4.7-.5-3.7 1.4"/><path d="M92.9 84.1c-1.1.7-1.1.9-.1.9.7 0 1 .4.7 1s.1.7 1 .4c1-.4 1.4-.2 1 .8-.4.9 0 1.5 1 1.5.8 0 1.5-.5 1.5-1 0-.6.5-.5 1.3.1 3.1 2.5 8.7 5 9.2 4.2.4-.6-.2-1-1.1-1-1 0-1.4-.3-1.1-.7.7-.7-3.8-3.3-5.8-3.3-.7 0-1.5-.6-1.8-1.4-.7-1.7-4.1-2.6-5.8-1.5m-61.4.9c-.3.5-.2 1 .4 1 .5 0 1.3-.5 1.6-1 .3-.6.2-1-.4-1-.5 0-1.3.4-1.6 1m3.6-.6c.2.2 1.8.6 3.4 1 2.2.5 2.6.4 1.5-.4-1.4-.9-5.9-1.5-4.9-.6m113.5 7.5c-.4.5-.2 1.2.3 1.5.5.4 1.2.2 1.5-.3.4-.5.2-1.2-.3-1.5-.5-.4-1.2-.2-1.5.3m1.5 3.5c-.6.8-1.1 1.8-1 2.2.1.5-.2 1.7-.6 2.8-.5 1-.4 2.5.1 3.4 1.1 1.7 6.2 2.3 7.1.8.3-.5.1-.6-.5-.2-.6.3-1.4.1-1.8-.5-.4-.8-.3-.9.4-.5 1.6.9 1.5-.7 0-2.2-.7-.7-.8-1.2-.3-1.2.4 0 0-1-1.1-2.1-1.9-2.2-1.9-2.2.4-1 1.2.6 2.2 1.6 2.2 2.1s.8.7 1.8.4c1.3-.4 1.4-.3.4.4-1 .6-1.2 2-.7 4.3.4 1.9.7 5 .6 6.9-.1 2.5.2 3.1.8 2.1.5-.8.8-4.1.6-7.3-.2-4.1.1-5.6.9-5.1.6.4.5-.1-.3-1-.7-.9-1.1-2.6-.8-3.7.4-1.7.2-1.8-1.4-.9-1.3.6-1.9.6-1.9-.1 0-1.5-3.6-1.2-4.9.4m-115.6 7.1c-2.9 2.8-3.1 3.8-1 5.5 1.7 1.4 2.1 0 .5-1.6-.8-.8-.6-1.5.6-2.4 1.9-1.6 5.4-2.4 5.4-1.2 0 .5 1.4.9 3.1.9 1.8 0 3.7.7 4.4 1.6s1.5 1.4 1.8 1c1.1-1.1.8-2.3-.6-2.3-.7 0-2-.9-3-2-2.5-2.9-8.1-2.7-11.2.5"/><path d="M37.6 105.5c.4.8.8 1.5 1 1.5s.4-.7.4-1.5-.4-1.5-1-1.5c-.5 0-.7.7-.4 1.5m4.1-.9c-1.5 1.5-.6 3.2 1.3 2.7 1.2-.3 1.9-1 1.7-1.6-.4-1.4-2.1-1.9-3-1.1m80.5 3.4c0 1.4.2 1.9.5 1.2.2-.6.2-1.8 0-2.5-.3-.6-.5-.1-.5 1.3m26.8-.1c0 .5.7 1.2 1.6 1.5 1.4.5 1.5.4.4-.9-1.4-1.7-2-1.9-2-.6m-86.5 1.2c-.4.6-.5 1.2-.2 1.5.2.3.7-.2 1-1.1.7-1.7.1-2-.8-.4m98.2 5.3c-.4 1-.7 2.5-.6 3.4 0 1.1.4.9 1-.7.5-1.3.8-2.9.6-3.5-.2-.5-.6-.2-1 .8m-6.2.7c-.5.8-.4 1 .3.5 1.5-.9 1.5-.5.2 2.8-.6 1.7-.6 2.6 0 2.6 1.4 0 2.4-5 1.2-6.2-.6-.6-1.2-.6-1.7.3M24 117.8c0 2.4 4.9 15.2 5 12.9 0-1-.7-3.1-1.5-4.8-.9-1.6-1.7-4.3-1.8-5.9-.1-1.7-.5-3-.9-3-.5 0-.8.3-.8.8m135.1 3.8c0 1.1.3 1.4.6.6.3-.7.2-1.6-.1-1.9-.3-.4-.6.2-.5 1.3m-3 5c-1.3 1.3-2.7 2.4-3.1 2.4-.5 0-1.2.9-1.5 2-.4 1.1-1.1 1.8-1.6 1.5-.5-.4-.9-.2-.9.3 0 .6.7 1.2 1.5 1.6.9.3 1.5 0 1.5-1 0-.9 1.7-3.1 3.7-5s3.5-3.6 3.2-3.8c-.2-.3-1.5.6-2.8 2m-36.3 5.2c-.4 1.2-.2 2 .2 1.7.5-.3 1.3.1 1.7 1 .8 1.4 1.1 1.4 2.8-.1 1.1-.8 1.4-1.3.8-.9-.7.3-1.3.1-1.3-.4 0-.6-.6-1.1-1.4-1.1s-1.6-.6-1.8-1.2c-.3-.7-.7-.2-1 1m-.6 7.6c.2 1.2.8 2.1 1.3 2.1.6 0 1.1-.9 1.3-2.1.2-1.3-.3-2.1-1.3-2.1s-1.5.8-1.3 2.1m-90.1.2c0 1.1.3 1.4.6.6.3-.7.2-1.6-.1-1.9-.3-.4-.6.2-.5 1.3m-7.2 4.1c-1.5 3.5-3.6 10.3-2.3 7.6.4-.9 1.1-1 2.5-.3 1.3.8 1.9.7 1.9 0 0-.6.5-.8 1.2-.4.8.5.9 0 .6-1.4-.4-1.2-.2-2 .3-1.6.5.3.9.1.9-.4 0-.6-.7-1.2-1.5-1.6-1.1-.4-1.4-1.3-.9-3.1.9-3.8-.9-3-2.7 1.2m26.6-.7c.3.5.8 1 1.1 1 .2 0 .4-.5.4-1 0-.6-.5-1-1.1-1-.5 0-.7.4-.4 1m-19 1c-.3.5-.1 1 .4 1 .6 0 1.1-.5 1.1-1 0-.6-.2-1-.4-1-.3 0-.8.4-1.1 1m2.8 1.9c.1 1.4.9 2.6 1.7 2.8 1 .3 1.1.2.4-.4-.7-.4-1.4-1.7-1.7-2.8-.5-1.6-.5-1.5-.4.4m6.2.1c-.3.5-.1 1 .4 1 .6 0 1.1-.5 1.1-1 0-.6-.2-1-.4-1-.3 0-.8.4-1.1 1m82.5 2.2c0 .6.3.8.7.5.3-.4 1.3-.1 2.2.6 1.4 1.1 1.4 1 .2-.6-1.5-2-3.1-2.2-3.1-.5m-84 1.9c0 .5.5.7 1 .4.6-.3 1-.8 1-1.1 0-.2-.4-.4-1-.4-.5 0-1 .5-1 1.1"/><path d="M21 153c0 .5.7 1 1.6 1 .8 0 1.2-.5.9-1-.3-.6-1-1-1.6-1-.5 0-.9.4-.9 1m13.9 2.9c-.1.3-.1 1 0 1.5s-.5.6-1.3.3c-1.8-.7-3.1.9-1.6 1.8.6.4.8 1.1.5 1.6-1.1 1.6.7 1 2.2-.9 2.8-3.5 3.3-4.9 1.7-4.9-.7 0-1.5.3-1.5.6m.1 9.1c0 .5-.6.7-1.4.4-1-.4-1.2.2-.8 2.2l.5 2.8 1-2.5.9-2.4.9 2.2c1.3 3.4 2 2.8.8-.7-1.1-3-1.9-3.9-1.9-2m-2.5 8c.3.5.8 1 1.1 1 .2 0 .4-.5.4-1 0-.6-.5-1-1.1-1-.5 0-.7.4-.4 1M18 177.5c0 .8.2 1.5.4 1.5s.6-.7 1-1.5c.3-.8.1-1.5-.4-1.5-.6 0-1 .7-1 1.5m18.1.1c0 1.1.3 1.4.6.6.3-.7.2-1.6-.1-1.9-.3-.4-.6.2-.5 1.3M15.5 181c-.3.5-.1 1 .4 1 .6 0 1.1-.5 1.1-1 0-.6-.2-1-.4-1-.3 0-.8.4-1.1 1m17.1.5c-.3.8-.1 1.5.4 1.5.6 0 1-.7 1-1.5s-.2-1.5-.4-1.5-.6.7-1 1.5m-18.9 2.8c-1.1 2.9-.9 4.3.4 3 .6-.6.9-1.9.7-2.9-.3-1.8-.4-1.8-1.1-.1m16.1 3.4c.7.3 1.6.2 1.9-.1.4-.3-.2-.6-1.3-.5-1.1 0-1.4.3-.6.6m-.8 4.2c0 .6.5 1.3 1 1.6.6.3 1-.1 1-.9 0-.9-.4-1.6-1-1.6-.5 0-1 .4-1 .9m-2.8 2.1c1.2 1.9 2.8 2.7 2.8 1.4 0-.7-2.7-3.4-3.4-3.4-.4 0-.1.9.6 2M15 200.9c0 .5.5 1.3 1 1.6.6.3 1 .2 1-.4 0-.5-.4-1.3-1-1.6-.5-.3-1-.2-1 .4"/></svg>