<svg xmlns="http://www.w3.org/2000/svg" width="404" height="413.333" version="1.0" viewBox="0 0 303 310"><path d="M115.5 5.6c-3.3.8-10 3.5-15 5.9-15.9 7.8-26.4 18.4-34.3 34.7-4.6 9.5-4.8 9.6-9.2 10.8-8.8 2.2-22.6 9.8-29.9 16.6C10.2 89.3 2 107.6 2 130c0 17.3 5.4 33.7 15.1 45.9l4 5.1-1.5 5.8c-4.8 18.8-1.7 39.2 8.6 56.7 4.9 8.4 18 21.6 26.1 26.4 3.1 1.8 9.6 4.7 14.4 6.5 8.4 2.9 9.6 3.1 24.5 3.2l15.7.1 7.3 6.2c8.1 6.7 20.1 13.1 29.3 15.6 3.3.8 10.3 1.8 15.5 2.2 31.1 2 60.1-15.7 73.4-44.8 3.2-7.2 3.5-7.4 8.1-8.7 24.9-6.6 45.8-28.4 52.5-54.7 2.5-9.7 2.6-24.7.4-34.8-2-8.9-8.1-22.4-13.4-29.3l-4-5.3 1.7-6.3c2.4-9.1 2.2-26.1-.5-36.1-5.8-21.3-21.1-39.9-40.7-49.2-11.9-5.7-18.2-7-34.5-7h-14.6l-5.6-5c-7.8-6.9-16.9-12.1-26.3-15.2-6.8-2.2-10.1-2.7-22-2.9-9.9-.2-15.8.2-20 1.2M150.3 26c5.8 1.8 18.7 8.7 18.7 10 0 .3-13.9 8.6-30.9 18.4-17.1 9.8-31.8 18.7-32.8 19.8-1.7 1.9-1.8 5.4-2.3 45.8l-.5 43.9-12.2-7-12.3-7.1v-39.2c0-42.8.3-45.2 5.9-56.4 7.8-15.4 23.5-27.1 40.4-30.2 7-1.2 18.4-.3 26 2m68.5 22.5c13.5 3.2 25.3 11.5 33.1 23.1 5.8 8.7 9 17.8 9.7 28.4 1.1 14.1 3.2 14.5-32.1-6-24.6-14.2-31.8-18-34.7-18s-10.5 4-39.8 21c-20 11.5-36.7 21-37.1 21-.5 0-.9-6.4-.9-14.3V89.4l32.3-18.6c17.8-10.3 33.6-19.2 35.3-19.8 10.7-4.2 23.3-5.1 34.2-2.5M58 115.1v37.1l2.8 2.7c1.5 1.4 18.2 11.6 37.2 22.5 19 11 35.1 20.4 35.7 21 1 .9-1.6 2.8-11.2 8.4l-12.4 7.2L77 194.8c-21.7-12.6-34.9-20.9-38-23.9-23.1-22.1-23-59.9.2-81.4 5.6-5.2 15.1-11.4 17.6-11.5.9 0 1.2 8.1 1.2 37.1m164.2-2.4c28.1 16.3 33.2 19.6 39 25.4 10.7 10.9 16 23.7 16.1 39.4.1 20-11.8 39.7-29.4 49l-6.9 3.6v-36.6c0-29.5-.3-37.1-1.4-39.3-1-2-11.2-8.4-38.5-24.2-20.4-11.8-36.7-21.8-36.2-22.3 1.5-1.5 22.6-13.6 23.8-13.7.6 0 15.7 8.4 33.5 18.7m-53.4 14.8 13.2 7.7v18.3c0 13.4-.3 18.5-1.2 19.3-2.5 2-31.2 18.2-31.8 18-.4-.2-7.8-4.4-16.4-9.3l-15.6-9 .2-18.9.3-18.8 16-9.3 16-9.3 3 1.8c1.7 1 9 5.2 16.3 9.5m40.2 23.3 11.5 6.7.3 39c.3 42.8.1 44.7-5.9 56.9-6.1 12.5-18 22.8-31.9 27.7-9.2 3.3-27.8 3.3-36 .1-6.8-2.7-16.4-8.3-16.3-9.7 0-.5 13.5-8.8 29.9-18.3 16.5-9.5 31-18.4 32.4-19.8l2.5-2.4.3-43.5c.1-23.9.6-43.5 1-43.5s5.9 3.1 12.2 6.8m-27 52.6v14.5l-9.2 5.4c-60.7 35.3-59.8 34.8-72.1 36.7-28.2 4.2-56.3-15.5-62.3-43.9-1.6-7.5-1.8-16.9-.5-19 .7-1.1 7.5 2.4 32.3 16.7C87.9 224 102.7 232 104.1 232c2.5 0 12.2-5.4 54.9-30.3 11.8-6.9 21.8-12.6 22.3-12.6.4-.1.7 6.4.7 14.3"/></svg>