<svg xmlns="http://www.w3.org/2000/svg" width="632" height="517.333" version="1.0" viewBox="0 0 474 388"><path d="M223.4 10.7c-1.2.2-2.9 1.2-3.8 2.2-1.6 1.7-1.6 2.1.5 5.7 1.1 2.2 2.7 4.3 3.5 4.7s1.4 1.6 1.4 2.5.7 2.6 1.5 3.6c.8 1.1 1.5 3 1.5 4.2s.6 2.4 1.3 2.7c.6.2.9.8.5 1.2-.8.8-1.9.4-6.3-2.5-1.6-1-5.3-3.1-8.2-4.5-2.8-1.4-5.4-3.2-5.7-4s-1.7-1.5-3.1-1.5c-4 0-4.6 3.4-4.4 23.1.1 9.7-.1 18.1-.4 18.7-1.1 1.6 2.1 3.8 3.5 2.4.7-.7 2-1.2 2.9-1.2s2.4-1.1 3.3-2.5 2.4-2.5 3.4-2.5 2.2-.4 2.7-.9c1.1-1 8.5-2.6 8.5-1.9 0 .3-1.1 2.7-2.5 5.4s-2.5 5.7-2.5 6.6-1.6 3-3.5 4.5c-2 1.5-5.4 5.4-7.6 8.7-3.5 5-4.1 6.8-4.6 12.7-.3 4-.2 7.4.4 8.1s1.3 2.6 1.7 4.3c.4 1.6 1.1 3.2 1.4 3.5.4.3 1.9 2.2 3.5 4.2 3 4 3.7 6.6.8 3.2-1.1-1.5-3.1-2.3-5.7-2.4-5.9-.4-6.9-.2-10 2.2-2.3 1.9-3.8 2.2-9 1.9-3.7-.1-6.4.2-6.8.8s-3.4 1.1-6.6 1.1-6.2.4-6.5 1c-.3.5-1.5 1-2.6 1-1 0-1.9.7-1.9 1.5s-.5 1.5-1.2 1.5c-.6 0-1.9.7-2.8 1.5s-4 1.6-7.4 1.7c-3.2.1-5.9.5-6.2.9-.2.4-3.3.4-6.8.2-3.6-.3-7.3-.2-8.3.2s-2.4.9-3.1 1.1c-.8.1-3.1 1.5-5.3 3-3.7 2.5-4.2 2.6-7.9 1.4-3.4-1.1-4.3-1.1-7.7.6-2.1 1-4.4 1.9-5.2 2-.8.2-2.4 1.4-3.5 2.7-1.6 2-3.4 2.6-7.6 3-3 .3-6.2.8-7 1s-3 .8-4.8 1.2c-2.4.6-3.6 1.6-4.7 4.1-1.3 3.1-1.8 3.4-5.7 3.4-4.9 0-9.8 1.9-9.8 3.7 0 .7-.6 1.3-1.2 1.3-1.5.1-6.8 4.5-6.8 5.8 0 2.6-2.7 6.2-4.8 6.2-2.6 0-6.8 2.5-9.7 5.7-1.1 1.3-2.6 2.3-3.3 2.3-.8 0-1.2 2-1.2 6.4 0 6.3 0 6.4-3.2 7.6-5.5 2-6.3 2.6-6.6 5.4-.2 1.4-.9 3.8-1.7 5.2-1.3 2.5-1 6 .6 7 .5.3.9 1.9.9 3.6 0 2.3.4 2.9 1.5 2.4 2.1-.8 2 3.2-.2 5.7-1.3 1.3-1.9 4.1-2.1 9.2-.4 6.7-.2 7.4 1.7 8 1.2.3 2.9 1.7 3.7 3.1.9 1.3 2.2 2.4 3 2.4s1.1.6.7 1.6c-.5 1.3.1 1.5 2.8 1.4 4.9-.3 5.3-.2 4 1.3-1.4 1.8 2.1 5.1 6.4 6.1 3.2.8 12.5 9.2 12.5 11.3 0 .7.7 1.3 1.5 1.3.9 0 1.2.6.9 1.5-.7 1.8 2.7 9.4 4.3 9.5 1.9 0 8.3 8.2 8.3 10.5 0 1.3 1 2.7 2.5 3.5 3.4 1.8 3.1 3.5-1 5.4-1.9.9-3.7 2.1-4 2.6-.9 1.4 3 7.5 5 7.9 2.5.4 9.4-1.9 12.8-4.3 2.1-1.5 3-1.7 3.9-.8s.7 1.2-.8 1.2c-1.1 0-3.1 1.2-4.5 2.6l-2.4 2.6 3.1 2.6c1.7 1.5 4 3.4 5.2 4.2s2.2 2.5 2.2 3.7c0 1.3.5 2.3 1 2.3.6 0 1 1.3 1 3 0 1.6-.4 3-1 3-.5 0-1-1.3-1-3 0-3.8-4.9-9.6-7.4-8.7-.9.4-1.9 1.5-2.3 2.4-.3 1-1.7 3-3 4.4-1.4 1.5-2.7 4.3-2.9 6.5-.4 3.3-.1 4.2 2.1 5.7 2.5 1.8 2.5 1.8 3.7-.8 1.2-2.7 5.4-3.5 7.6-1.3.8.8 1.5.8 2.7-.2s1.5-1 1.5.4c0 2 5.2 2.2 7.2.4 2.5-2.3 5.7-3.8 8.2-3.8 1.4 0 2.8-.5 3.1-1 .3-.6 2.1-1 3.8-1 1.8-.1 4.3-.7 5.7-1.5s4.6-1.4 7.2-1.5c2.6 0 5-.5 5.3-1 .3-.6 2.4-1 4.5-1s4.1-.4 4.4-.9c.9-1.4 7.9-2.2 22.1-2.7 7.2-.3 13.4-.9 14-1.5.5-.5 2.7-.9 5-.9s4.5-.4 5-.9c1.5-1.3 76.9-2.3 78.2-1 .5.5 5.1 1.3 10.2 1.6 5 .3 9.1 1 9.1 1.6 0 .5 2.4.7 6 .4 3.3-.2 6.3-.1 6.6.4s3.4.9 6.9.9 6.7.5 7 1.1c.4.6 1.3.8 2.1.5.7-.3 1.6-.1 1.9.4.4.6 2.1 1 3.9 1s3.6.3 4 .8c.4.4 1.7.8 2.9.9 5.6.6 9.8 1.6 10.3 2.4.3.5 2.2.9 4.3.9 2.2 0 4.4.6 5.1 1.5.7.8 1.8 1.5 2.6 1.5 1.5 0 9.8 2.6 12.9 4 1.1.5 3.2 1.4 4.8 2 2.6.9 2.7.8 2.7-2 0-1.7.4-3 .9-3 .4 0 1.1-1.8 1.4-4 .6-4.3 4.6-9.9 8.6-11.8 3.1-1.5 4.6-1.5 7.1 0 2.6 1.6 3.6.4 2.2-2.7-1.3-2.7.2-4.5 2.1-2.6 2.9 2.9 10.8 0 10.7-4-.1-2.9-5.2-6.9-8.9-6.9-1.1 0-2.2-.4-2.6-.9-.9-1.5 1.5-2.4 3-1.1 1.9 1.6 4 .7 6-2.3 1.2-1.9 1.3-3 .5-5.3-.9-2.3-.9-2.7.1-1.7 3.7 3.7 12.9-.6 12.9-5.8 0-3.9-2.1-5.9-6.1-5.9-2.4 0-4 .8-5.6 2.7-2.3 2.6-4 2.6-3 0 .8-2.3 6.6-4.7 10.9-4.7 2.8 0 4-.5 4.5-1.8.9-2.2 12.4-13.2 14-13.2.7 0 1.6-.6 2-1.3.4-.8 1.6-1.6 2.6-2 5-1.8-1.6-4.7-10.9-4.7-5.5 0-7.3-.4-7.8-1.5-.3-.8-1.3-1.5-2.3-1.5-2.2 0-9.3 5.6-9.3 7.3-.1 3.6-1.8 3.7-5.2.3-3.2-3.2-4.2-3.6-8.7-3.6-4.9 0-5.1.1-5.1 2.7 0 1.4.7 3.5 1.7 4.5 2 2.3.9 3.6-1.7 2-2.5-1.5-3.9-1.5-7.3 0-2.5 1.2-3.8 3.8-1.8 3.8.5 0 1.1.8 1.5 1.7.3 1 1.1 2.6 1.8 3.5 1 1.4.9 2-.5 3.6-1.6 1.8-1.6 2 .2 4 1.4 1.7 2.9 2.2 7.1 2.2 3.7 0 5 .4 4.8 1.2-.7 2-8.2 2.2-9.8.3-.7-.8-2.1-1.5-3.2-1.5-2.9 0-9.8-4.8-9.8-6.8 0-.5.9-1.7 2-2.7 3.9-3.5 1.4-10.5-3.7-10.5-2.6 0-6.3 4.1-6.3 7.1 0 1.3-.4 2.8-.8 3.4-1.3 1.8-5.1 3.5-7.9 3.5-5 0-14.1-5.6-12.2-7.5.2-.2 2.2.5 4.4 1.5 3.7 1.7 7.5 2.4 11.8 2.1 1.2-.1 1.7-.9 1.7-3.1 0-1.9.5-3 1.4-3 2.3 0 4.5-7.3 2.5-8.5-1.5-1-1.1-3.5.5-2.9 2.5 1 2.9-1.7.7-4.7-1.1-1.5-2.1-3.3-2.1-3.9 0-1-1.2-1.4-4.1-1.1-2.3.2-5.4-3.6-4.2-5.1.9-1.1 2.4-5.7 2.7-8 .1-.3.4-1 .9-1.4.4-.4.7.9.7 3 0 2.9.5 3.8 2.3 4.5 1.7.7 2.4.4 2.9-1 .4-1.1 1.8-2.4 3-2.9 1.3-.6 3-1.4 3.8-1.9s2.9-1.4 4.5-2.1c1.7-.7 3.8-1.6 4.7-2.1 1-.5 2.5-.9 3.3-.9 1.9 0 1.9-3.4 0-5-.8-.7-1.5-2.3-1.5-3.6s-.4-2.4-1-2.4-1-3.8-1-9.4c0-5.3-.4-9.8-1-10.1-.5-.3-1-1.9-1-3.5s-.4-3.2-1-3.5c-.5-.3-1-1.5-1-2.6 0-1-.6-1.9-1.3-1.9s-1.9-1.6-2.7-3.5c-.8-2-1.9-3.4-2.4-3.2-1.7.6-1.9 3.7-.6 6.3.7 1.3 1 3.5.6 5.1-1.6 6.7-1.8 10.3-.5 10.3.9 0 1 1.9.5 7.7-.6 7.5-.8 8-4.6 11.5-2.3 2.1-4.7 3.8-5.5 3.8s-2 .9-2.8 2.1c-1.1 1.4-2.3 2-4.3 1.7-2.7-.3-2.9-.7-3.2-5.1-.2-2.6 0-4.7.3-4.7.4 0 2.2.7 4 1.6 3 1.4 3.5 1.4 6.6-.3 1.9-1.1 3.7-3.1 4.2-4.8s1.7-3.9 2.7-5c1.9-2.3 1.8-6.2-.4-10.7-1.7-3.2-2.1-7-1-8.1.4-.4.8-2.8.9-5.3.1-3.4-.3-5.2-1.7-6.6-1-1-1.8-2.7-1.8-3.9 0-1.8.4-2 2.8-1.4 1.5.3 3.7 1.5 4.8 2.6 1.2 1.1 2.5 1.9 3 1.8 1.3-.3 6.3 1.2 9.3 2.7 1.4.8 3.2 1.4 3.9 1.4.6 0 1.2.4 1.2.9s.8 1.2 1.8 1.5c3.2 1.2 6.4 3.4 10.1 7 2 2 4.2 3.6 4.8 3.6.9 0 2.9 2.1 8.5 8.9 3.4 4.2 4.6 8.5 4.9 17.9.2 5.3.1 10.1-.2 10.7-1.1 1.7-2.1 10.4-1.4 12.4 1.4 4.4 19.4 9.1 23.1 6 .9-.7 3-1.2 4.6-1.1 2.6.2 2.9 0 1.9-1.2-.9-1.1-.9-1.5 0-1.8.8-.3 1.4-3 1.7-6.9.3-5.6.1-6.9-2.2-10.2-2.9-4.3-3.2-5.7-1.2-5.7 2.7 0 4-3 3.8-9.3-.1-3.3-.6-6.5-1.2-7.1-.5-.5-1-1.7-1-2.6 0-2.4-7.2-9-9.8-9-2.4 0-2.8-1-1.1-2.7.8-.8.8-1.3 0-1.7-.6-.4-1.1-1.9-1.1-3.3 0-3.6-3.1-8.3-5.4-8.3-1.1 0-3.3-1.2-4.8-2.7-2.2-2.1-3.1-2.4-4-1.5-.7.7-2.4 1.2-3.9 1.2-2 0-3-.8-4.2-3.3-1.9-4-4.3-6.2-7.7-7.1-1.4-.4-3.5-1.2-4.8-1.9-1.8-.8-2.8-.8-4.2.1-2.6 1.6-4 1.5-4-.1 0-1.8-2.8-4.3-7.6-6.8-3.2-1.6-4.3-1.7-6.1-.8-2.6 1.4-5.3.5-6-1.9-.5-2.3-5.6-4.2-12.8-4.9-3-.3-6-1.2-6.6-1.9-.6-.8-2.2-1.4-3.4-1.4-1.3 0-2.5-.6-2.8-1.3-.2-.7-2.1-1.1-5-1-3.2.1-4.7-.3-4.7-1.1 0-.7-1.3-2.5-3-4.1-2.5-2.4-3.8-2.8-8.9-2.9-5.8-.1-6.1-.2-8.3-3.7-2.3-3.8-5.1-4.9-12.1-4.9-2.9 0-5.6-1.3-9.9-4.7-2.1-1.6-3.6-2-6.6-1.6-2.7.4-4.8-.1-7.5-1.6-2.1-1.2-5-2.1-6.5-2.1-6.3 0-7.2-.2-7.2-.9 0-.4.9-1.6 1.9-2.5 1.1-1 2-2.5 2-3.4.1-3.9 1.5-8.8 2.9-10.5 1.4-1.6 1.4-2.1-.1-5.3-.9-1.9-1.7-4.6-1.7-5.9 0-2.3-.8-4.4-3.2-8.5-.5-.8-1.1-2.3-1.4-3.3-.4-.9-1.2-1.7-1.9-1.7s-2-1.1-2.8-2.4c-.9-1.3-2.2-3-2.9-3.7-.7-.8-2.2-3.1-3.2-5.2-1.1-2-2.3-3.7-2.8-3.7-.4 0-.8-1-.8-2.1 0-1.8.4-2 2.3-1.4 1.2.3 3.3.9 4.7 1.2 2.4.6 7.9 3.9 9.1 5.5 1.1 1.6 6.6 2.7 7.8 1.5 1.3-1.3 1.4-29.7.3-36.2-.8-3.9-.9-4-4.6-3.8-2.9.2-5.1 1.4-9 4.6-2.8 2.4-6.4 4.7-7.9 5.1-2.8.7-2.9.6-2.2-2.5.4-1.8 1.6-4.6 2.6-6.3 3-5 5.9-11.4 5.9-12.9 0-3-2.9-3.8-16.6-4.2-7.5-.2-14.2-.9-14.8-1.5-.5-.5-1.2-.9-1.5-.9-.4.1-1.6.4-2.7.6m7.4 75.7c.4 9.3-.7 10.5-9.1 9.9-3.3-.2-6.3-.6-6.5-.8s.6-2.5 1.9-5.2c2.7-5.7 8.6-11.4 11.4-11 1.7.2 2 1.1 2.3 7.1m22.2-4.9c.7 1.4 1.8 2.5 2.3 2.5 1.5 0 3.6 3.2 3.7 5.5 0 1.2.5 2.6 1.1 3.2.7.7.9 1.9.6 2.7-.5 1.2-2.2 1.6-7.3 1.6-9.2 0-11.1-2.6-8.1-11.1 2.4-7 5.4-8.7 7.7-4.4m-12 23.7c22.7-.6 23.4 0 12.5 11.5-4.5 4.9-5.3 5.3-9.5 5.3-2.5 0-5.1.4-5.8.9-1.6 1-6.6-.6-10.5-3.4-6-4.2-9.7-7.8-9.7-9.2 0-.9-.8-2.2-1.7-2.9-1.7-1.2-1.6-1.3.7-1.4 1.4 0 3.2-.5 4-1s1.8-.6 2.3-.1c.4.4 8.4.6 17.7.3m19.6 20c-.8 1.8-2.3 3.7-3.5 4.3-2.3 1.1-2.9 3.5-.7 3.5.7 0 1.9.7 2.6 1.5s2.5 1.5 4.1 1.5c1.5 0 3.1.4 3.4 1 .3.5 1.8 1 3.3 1s4 .7 5.6 1.5c1.5.8 3.8 1.5 5 1.5 1.3 0 3.3 1.1 4.5 2.4 1.4 1.5 4 2.7 6.5 3.1 2.2.4 5.2 1.7 6.6 2.9 3.5 3 8.5 5.6 10.8 5.6 1.1 0 2.2.8 2.5 1.9.2 1.1 2.4 2.8 4.8 3.9s5.5 3.2 6.8 4.6c1.4 1.4 2.9 2.6 3.3 2.6 1.1 0 3.8 2.5 3.8 3.5 0 .4 1.6 2.5 3.5 4.8 2.1 2.4 3.8 5.6 4.1 7.9.4 2.1 1 3.8 1.5 3.8s.9.8.9 1.7.6 2.4 1.4 3.2c.7.9 1.6 4.4 1.8 7.9.4 5.1.1 6.5-1.4 7.9-2.5 2.3-2.4 6.3.3 7 2.1.6 2.1.6.1 1.7-1.1.6-4.1 3-6.7 5.4l-4.7 4.2-2.5-1.9-2.5-2 2.6-.7c1.7-.4 2.8-1.5 3.2-3.3.4-1.4 1.8-3.8 3.2-5.4 2.3-2.5 2.7-3.7 3-12.3.3-6.3.1-9.9-.7-10.7-.6-.6-1.1-2.2-1.1-3.5 0-3.1-1.7-6.2-3.5-6.2-.8 0-1.5-.6-1.5-1.3 0-1.5-11.1-12.7-12.6-12.7-.5 0-2.5-1.6-4.4-3.5-1.8-1.9-4.6-3.7-6.1-4-1.6-.4-3.1-1-3.4-1.5s-3.8-2.5-7.8-4.5-7.9-4-8.7-4.4c-.8-.5-4.4-2.2-8-3.7-3.6-1.6-6.6-3.2-6.8-3.7-.2-.4-1.3-.7-2.5-.7s-3.3-.6-4.7-1.3c-3.8-2-10.2-2.8-11.7-1.5-1.5 1.2-1.8 4.8-.3 4.8.6 0 1 .6 1 1.2 0 1.3 4.4 3.8 6.6 3.8.6 0 1.7.7 2.4 1.5s2.3 1.5 3.6 1.5c1.2 0 2.6.4 2.9 1 .3.5 1.4 1 2.3 1s3 .7 4.6 1.5c1.5.8 3.3 1.5 3.9 1.5s1.8.6 2.6 1.3c.9.7 3.6 2.2 6.1 3.2s5.9 2.9 7.7 4.2c1.7 1.3 3.6 2.3 4.1 2.3.4 0 1.9 1.1 3.2 2.5s2.8 2.5 3.4 2.5c1.8 0 13.1 12.1 14.9 15.9 1.1 2.1 1.7 5.9 1.7 9.9 0 5.3-.5 7.2-2.7 10.8-1.6 2.4-3.5 4.3-4.4 4.4-.9 0-2.3.8-3.3 1.9-1.3 1.4-1.4 2.4-.7 4.5.6 1.4 1.5 2.6 2.1 2.6.5 0 1 .6 1 1.4 0 2.3 2.2 3.1 3.5 1.3.7-1 1.7-1.7 2.4-1.7 1.6 0 1.4 2.5-.5 4.1-1.2.9-1.5 2.7-1.2 6.9l.3 5.7-3.5-.9c-1.9-.5-4.4-1.4-5.6-1.9-1.1-.6-4-.9-6.5-.7l-4.4.3-.5 4.5c-.5 4.1-.7 4.5-3.5 4.8-1.6.2-3.4.7-3.8 1.2-1 .8 1.1 5 3.1 6.3 1.8 1.2 1.5 5.4-.5 6.6-1.5.8-1.5 1.1.8 3.5 1.3 1.4 3.9 2.9 5.7 3.2s3.5 1 3.8 1.5c.8 1.3 8.8 1.1 10.2-.3.9-.9 1.2-.9 1.2-.1 0 1.1-1.6 2.6-3 2.9-.9.2-4.5 1.6-6.7 2.6-1.1.6-2.7.7-3.4.2-.8-.4-2.8-.7-4.6-.5-1.8.1-3.3-.2-3.3-.7s-1-1.3-2.2-1.7c-1.3-.4-2.5-.8-2.8-.9-.3-.2-1.8-.8-3.3-1.4-1.6-.7-3.1-2.1-3.4-3.2s-1.3-2-2.3-2-2.5-.3-3.4-.6c-1.1-.4-2.1.4-3.3 2.5-1 1.7-2.4 3.1-3 3.1-.7 0-1.3.4-1.3 1 0 1.3-10.7 1.3-11.5 0-.3-.6-1.7-1-2.9-1-1.3 0-2.9-.7-3.6-1.5s-2.1-1.5-3.1-1.5c-1.1 0-1.9-.6-1.9-1.3s-.9-1.8-2-2.5-2-2.1-2-3.2c0-1.7.5-1.9 3.3-1.3 1.7.3 3.9 1.2 4.8 1.9 2.2 2 5.6 1.7 10.6-.7 3.3-1.6 4.3-2.6 4.3-4.4 0-2.5.4-2.9 5.3-6.6 4.4-3.3 3.5-7.2-2.7-10.4-1.1-.7-1.9-1.8-1.7-2.6s.4-2 .5-2.8c.2-2-7.3-5.6-11.9-5.6-3.8 0-4-.1-3.7-3 1.2-11-.3-14-6.8-13.9-3.1.1-4-.2-4-1.6 0-2-3.6-5.5-6.6-6.4-2.9-.9-7.5 1-8.1 3.4-.4 1.6-1.3 1.9-4.4 1.8-5.4-.2-6.9 1.4-6.9 7.6 0 4.1.5 5.6 2.5 7.5 3.8 3.5 3.3 5.3-1.2 4.5-2.1-.3-4.2-1-4.7-1.5-1.6-1.4-9-1-12.4.7-4 2-4.5 2.9-3.1 5.2.9 1.5.9 2.6-.2 5.1-.8 1.7-1.9 3.1-2.5 3.1-.7 0-1.4.7-1.8 1.5-.3.9 1.1 2.8 3.9 5.1 3.6 3.1 4.3 4.2 3.9 6.4-.6 3 .4 4 5.6 5.8 2.4.8 4.8.8 7.5.2 6.7-1.6 9.5-1.3 9.5 1s-6.8 6-11 6c-1.4 0-3.2.6-3.8 1.2-1 1-1.7 1-3.3 0-1.1-.7-4-1.2-6.4-1.1-4.6.3-8.5-1.9-8.5-4.8 0-.7-.6-1.3-1.4-1.3-.7 0-1.9-.6-2.5-1.4-.9-1-.8-1.5.4-2 .8-.3 1.5-1.4 1.5-2.4s.5-2.3 1.2-3c.9-.9.9-1.2 0-1.2-.7 0-1.2-.6-1.2-1.3 0-1.5-5.3-4-7.7-3.5-2.3.4-4.1 7.2-2.7 9.6.6.9 2 2.1 3.2 2.7 1.2.5 2.2 1.3 2.2 1.6 0 1.5-10.4 10-11.6 9.5-.7-.3-1.6 0-2 .6-.9 1.5-14 .3-15.8-1.4-1.1-1.2-.4-1.3 4.5-1 4.8.4 6.3.1 8.8-1.8 2.6-1.8 3.1-2.8 3.1-6.4 0-3.2.6-4.8 2.5-6.6 4.2-3.9 2.7-8-2.8-8-2.7 0-2.9-.2-2.4-2.9.8-4.1-2.6-7.1-8.1-7.1-2.3 0-4.2.4-4.2 1 0 .5-.6 1-1.4 1-1.8 0-2.5-4.8-1.2-7.1 1.4-2.5-1.3-7.4-5.8-10.4l-3.7-2.5-3 2.1c-3.2 2.3-5.8 1.9-6.6-.9-.2-1.1-2-2.5-3.9-3.2l-3.4-1.4v-11.2c0-6.2.4-11.5.9-11.8s1.2-2.2 1.5-4.2c1-5 3.8-9.5 6.6-10.6 2.3-.8 2.3-.8.7 1-.9 1-1.7 2.3-1.7 2.8s-1.1 3-2.3 5.5c-2.1 4.1-2.3 5.6-1.9 14 .4 9.9 1.9 14.1 5.3 16 3.6 1.9 17.9-.4 17.9-2.8 0-1.2-4.3-5.3-5.6-5.3-1.9 0-3.3-2.4-4-6.6-1.2-7.7-.9-10 1.5-14.4 2.7-5 9-12 10.7-12 .7 0 2.2-1.1 3.5-2.5 1.3-1.3 2.8-2.5 3.4-2.5.5 0 3.5-1.2 6.5-2.6 3-1.5 8-3.8 11-5.2s7.2-3.3 9.3-4.3c2.2-1.1 5.6-1.9 7.7-1.9s4.3-.7 5-1.4c.6-.8 3.2-1.6 5.8-1.8 4.2-.3 4.7-.6 6.9-4.5 1.9-3.5 2.1-4.6 1.1-6.2-.9-1.5-.9-2.3 0-3.4.8-1 .9-2.8.3-6-.5-2.6-.7-4.7-.5-4.7s1.5.5 2.9 1.2c2.3 1 2.5 1.6 2.5 7.9 0 3.7-.4 7.1-1 7.4-.5.3-.9 1.6-.9 2.8.2 4.5-1.4 13.3-2.7 15.2-.8 1.1-1.4 2.8-1.4 3.8 0 1.8-2.4 10.4-4 14.2-.5 1.1-1.1 3.1-1.4 4.5s-1.4 3.5-2.6 4.7c-1.1 1.2-2 3.1-2 4.1s-1.3 3.1-3 4.7c-2.6 2.5-4.3 7.8-2.2 7.3 1.3-.2 6.2 2.1 6.2 3.1 0 1.5 4.8 4.1 6.5 3.5.8-.4 1.8-1.6 2.1-2.8.5-2 1.4-2.6 9.2-5.6 1.7-.7 3.2-1.8 3.2-2.5 0-.9 2-1.4 6.3-1.7 7.7-.5 8.7-.2 8.7 2.8 0 1.4.6 2.4 1.4 2.4.7 0 1.9.7 2.6 1.5s2.2 1.5 3.4 1.5c1.7 0 2.9 1.2 4.5 4.5 2.6 5.3 4.5 5.7 6.9 1.5.9-1.6 2.3-3 3-3 .6 0 1.2-.6 1.2-1.4 0-.7.7-1.9 1.5-2.6 2.3-1.9 1.8-5.7-1.2-9.8-1.6-2-3.1-3.9-3.5-4-.5-.2-.8-1.4-.8-2.7s-.4-2.6-.9-2.9-1.2-2.7-1.6-5.2c-.3-2.6-1.5-5.5-2.5-6.6s-2.1-4.1-2.4-6.6c-.3-2.6-1-8.5-1.5-13.2-2.4-19.9-2.4-22.4.1-24.7 1.8-1.6 7.3-5 8.5-5.3.1 0-.4 1.5-1.1 3.2m-52.1 3.8c-1.9 3.6-4.1 3.9-4.7.5-.6-3.1-.2-3.5 3.4-3.5 2.8 0 2.8 0 1.3 3m61.8 1.1c1 1.1 1.7 2.3 1.4 2.5-.7.8-5.7-2.1-5.7-3.4 0-1.9 2.4-1.4 4.3.9m-30.9-.1c2.1.8 2.6 1.6 2.6 4.4 0 4.9-1.9 6.1-7.2 4.5-4.9-1.6-6.2-4.7-3.2-8 1.9-2.1 4-2.4 7.8-.9m-44.4 2.6c0 1-1.3 1.4-4 1.4s-4-.4-4-1.4c0-.9 1.3-1.3 4-1.3s4 .4 4 1.3m93 .6c0 1.9.2 2 1 .8.8-1.3 1.1-1.2 2.3.5 1.4 1.8 1.4 2.1-1 6.4-.1.2-1.8-.4-3.8-1.3-3.7-1.8-4.7-5-2.3-7.4 1.9-1.9 3.8-1.4 3.8 1M180 137c0 .3-1.6 1.4-3.6 2.4-5.2 2.4-6.8.6-2.9-3.4 2.7-2.8 3-2.9 4.7-1.3 1 .9 1.8 1.9 1.8 2.3m129.6 4.1c2.5 2.8.8 5.3-4 5.7-3.8.3-7.6-1.8-7.6-4.3 0-3.8 8.4-4.9 11.6-1.4m-172.3 2.7c1 1.1 1.4 2.6 1 4-.4 1.8-1.3 2.2-4.3 2.2-5.4 0-6.7-2-3.4-5.4 3.1-3.1 4.5-3.2 6.7-.8m20.5 2.1c.3 1.7-.5 3.1-2.5 4.7-3.6 3-4.3 3-6.9-.3l-2.2-2.8 2.2-2.2c3-3.3 8.9-2.9 9.4.6m33-2.2c-1 .2-1.8.9-1.8 1.4s-1.1.9-2.4.9-2.6.6-2.9 1.2c-.4 1-.7 1-1.8 0s-1-1.2.4-1.2c.9 0 1.7-.4 1.7-.9 0-.9 3.3-1.8 7-1.8.9-.1.8.1-.2.4m48.5 2.5c1.5.7 2.7 1.9 2.7 2.5 0 .7.5 1.3 1 1.3 1.6 0 1.1 3.6-.7 5.2-1 .9-3.1 1.9-4.8 2.2-4.2.9-9-3.4-8-7.3 1.3-5.2 4.3-6.4 9.8-3.9m88.7 7c0 1.6-.9 3.3-2.2 4.2-2 1.4-2.4 1.4-4.3 0-1.1-.8-2.8-1.7-3.7-2.1-1.1-.3-1.8-1.6-1.8-3.3 0-3.9 3.3-5.1 8.2-3.1 3 1.3 3.8 2.1 3.8 4.3m-216.2-1c-.2 2.5-.8 3.4-2.5 3.6-2 .3-2.3-.1-2.3-3.2 0-3.2.3-3.6 2.6-3.6s2.5.3 2.2 3.2m57.8.3c-1.7 1.3-4.1 2.7-5.5 3-3.7.9-8.1 2.9-8.1 3.7 0 .3-1.3 1.3-3 2.2-3.3 1.6-4 .9-1.2-1.4 2-1.8 8.5-5 10.1-5 1.2 0 5.2-2.1 6.1-3.1.5-.6 3-1.7 4-1.8.3 0-.8 1.1-2.4 2.4m-79.4 3.1c3.2 1.2 3.1 4.7-.4 7.6-3.9 3.4-4.8 3.5-7.7.4l-2.2-2.4 3.2-3.6c1.7-2 3.7-3.4 4.3-3.1s1.8.8 2.8 1.1m255.8 1.8c0 1.3.6 2.6 1.3 2.9.9.3.9.8.1 1.6-.8.9-1.4.8-2.4-.4-.7-.8-1.8-1.5-2.5-1.5s-2.4-.6-3.8-1.3c-3.5-1.8-1.7-3.7 3.5-3.7 3.4 0 3.8.3 3.8 2.4m-210 3.3c0 .3-.7 1.5-1.7 2.5-2.1 2.3-5.8 2.5-4.9.2.3-.9.6-2 .6-2.5s1.4-.9 3-.9c1.7 0 3 .3 3 .7m226.3 1.7c.9.7 1.7 2.1 1.7 3 0 2.3-1.8 5.6-3.1 5.6-2 0-6.9-4.1-6.9-5.9 0-3.8 4.7-5.4 8.3-2.7M120 166c0 2.6-.4 4-1.3 4-1.8 0-6.7 2.4-6.7 3.2 0 .5-.7.8-1.5.8s-1.5.6-1.5 1.4-.4 1.6-1 1.8c-1.7.5-2.5 12.6-1 15.3 1.2 2.2 1.1 2.8-.7 4.8-2.5 2.7-4 11.2-2.3 13.2.7.8.9 1.9.5 2.4-.3.6-.1 2 .5 3.1.9 1.7 2.1 2 8.8 2 4.9 0 8.3-.5 9.1-1.3 1-1 1.2-.7.9 1.3-.2 2.1-.9 2.6-4 2.8-5.2.4-6.5 3.6-4.2 10.2.4 1.4.8 2.8.9 3.2 0 .3.3 1 .8 1.4 1.7 1.7.7 3.4-1.8 2.8-1.5-.4-2.5-.2-2.5.5 0 .6-1.1 1.1-2.5 1.1-3.3 0-6.3 4.4-4.7 7 .9 1.6.6 2.2-2.3 4.5-4.1 3-4.5 5.9-1.3 9.2 1.5 1.6 3.3 2.3 5.9 2.3 2.1 0 4.1.5 4.4 1.1 1.1 1.7-.1 2.1-2.9.8-2.3-1.1-2.9-.9-5.1 1.1-3 2.8-3.3 7-.5 9 1.1.8 2 2.1 2 3-.1 1.9-2.4 5-3.9 5-.6 0-1.1.6-1.1 1.2 0 .7-1.2 1.9-2.7 2.5-3.2 1.5-15.3 1.7-15.3.3 0-.6 2-1 4.3-1 3.1 0 4.9-.6 6.2-2 1-1.1 2.6-2.2 3.6-2.5 2.3-.8 2.6-5.7.4-7.5-1.7-1.4-1.2-4.4 1.2-7.2.8-.9 1.3-2.7 1.1-4-.3-2-.9-2.3-5.5-2.6-5-.3-5.2-.4-5.5-3.5s-.4-3.2-5.6-3.5c-4.3-.3-5.3 0-5.9 1.5-.9 2.6-5.4 7.3-7 7.3-.8 0-1.3-1.3-1.3-3.9 0-3.3-.7-4.5-5.1-8.6-3.1-2.9-5.6-4.5-6.5-4.1-.9.3-2 .6-2.5.6s-.9.7-.9 1.5c0 2-4.3 4-6.6 3.1-1.5-.6-1.4-1 1.1-3.6 1.6-1.7 2.5-3 2-3s-.4-.5.3-1.2c1.6-1.6 1.5-8.1 0-9.7-1.6-1.5-1.4-18.9.1-20.4.6-.6 1.1-2.1 1.1-3.4 0-2.9 3.2-10.3 4.4-10.3.5 0 1.8-.7 2.8-1.7 1.1-1 1.8-1.2 1.8-.4 0 .6-.7 1.4-1.5 1.7-.8.4-1.5 1.3-1.5 2.1s-1.2 3.5-2.6 6c-1.8 3.2-2.4 5.6-2.1 8 .3 1.8.1 3.6-.4 3.9-1.4.8-1.1 10.2.4 10.7.9.3.9.9 0 2.4-.9 1.7-.6 2.3 2.3 4.7 1.9 1.5 3.4 3.3 3.4 4.1s1 2 2.3 2.6c3.2 1.6 7.7 6.1 7.7 7.5 0 4.5 5.5 1 9-5.9l2.1-3.9-2.6-3.4c-1.4-1.9-3.4-3.4-4.4-3.4-1.8 0-6.3-5-8.8-9.9-1.6-2.8-1.7-5.8-.3-6.6.6-.3 1-2.2 1-4.1 0-4.1 3.6-11.7 7.9-16.5 4-4.4 3.8-4.2 9.6-8.9 6.9-5.6 6.6-5.4 10.8-7.3 3.8-1.9 4.6-3.4 2.5-5.5-2.2-2.2-6.3-1.3-10.5 2.3-2.3 1.9-4.5 3.5-5 3.5-.8 0-7.7 5.3-13.8 10.6-2.1 1.8-3.1 2.2-3.4 1.3-.4-1.4 11-12.5 14.4-14 1.1-.5 2.7-1.3 3.5-1.8 3.7-2.1 10.3-5.1 11.4-5.1 2.2 0 6.6-2.5 6.6-3.8 0-.7 1.3-1.2 2.9-1.2 1.7 0 3.2-.4 3.6-.9.3-.6 2.7-1.3 5.3-1.6s5.6-1 6.7-1.5 2.1-.9 2.3-.9c.1-.1.2 1.7.2 3.9m119-2c0 .5.7 1 1.6 1 2 0 1.5 6-.6 7-.8.4-2.5 1.2-3.7 1.9-1.5.7-2.3.7-2.3.1 0-.5-.5-1-1.1-1-3.1 0-5-6.5-2.7-8.8 1.4-1.4 8.8-1.6 8.8-.2m102.8 2.3c3.5 3.6 3.3 4.7-.9 4.7-4.1 0-8.4-5.1-6.2-7.3 1.4-1.5 4.1-.5 7.1 2.6m36 1.9c.8.8 1.5.8 2.6-.1 3.2-2.7 2.3 2.9-1.1 6.6-1.4 1.5-3.3 1.7-3.3.3 0-.6-1.1-1-2.5-1-2 0-2.5-.5-2.5-2.5 0-1.6.6-2.5 1.5-2.5.8 0 1.5-.5 1.5-1 0-1.4 2.3-1.3 3.8.2m-309.7 3c1.5-1.4 2.9-1.6 2.9-.4 0 1.1-6.8 8.2-7.8 8.2-.5 0-1.7-.9-2.7-2-1.6-1.8-1.7-2.3-.4-4.8 2-3.9 3-4.3 5-1.9 1.4 1.8 2 2 3 .9m331.5 5.2c1.9 1.9 1.8 7.5-.1 8.2-1.9.8-6.6-.9-7.8-2.7-.5-.8-.4-2.5.2-4.2 1.2-3.1 5.2-3.7 7.7-1.3m-277.3 3c.6 1.6-1.4 9.1-2.8 10.5-.6.6-2 .8-3.3.5-1.9-.5-2.2-1.3-2.2-5.3 0-2.6.5-5.2 1.2-5.9 1.6-1.6 6.5-1.5 7.1.2m113.5.4c2.1-.3 8.2 4.4 8.2 6.4 0 2.9-5.4 6.8-9.3 6.8-2.5 0-3.7-.5-3.7-1.4 0-.7-.7-2-1.6-2.7-1.1-.9-1.4-2.3-1-4.7.7-4.5 2.4-6.6 4.2-5.1.7.6 2.1.9 3.2.7m121.9 3.4c3.2 3 2.9 6.2-.6 8.7-3.7 2.6-5.2 2.6-8.5 0-2.9-2.3-3.2-4.2-1.3-8.2 1.6-3.5 6.9-3.8 10.4-.5m-305.9 1c1.8 1.8 1.5 6.3-.5 8.6-2.4 2.7-8.3 4-8.3 1.8 0-.9-.6-2.6-1.2-3.7-1-1.7-1-2.3 0-2.6.6-.3 1.2-1 1.2-1.7 0-2 2.2-3.6 5-3.6 1.4 0 3.1.5 3.8 1.2m366.9 5.8c1.4 0 2.6.7 2.9 1.7s1 2.8 1.6 4c.8 1.6.6 2.7-.8 4.7-1.1 1.4-2.3 2.6-2.9 2.6-1.9 0-7.5-6.4-7.5-8.8 0-3.5 1.9-6.7 3.3-5.3.6.6 2.1 1.1 3.4 1.1m-300.9 11.2c2.1 2.1 1.5 8.6-.8 9.8-3 1.6-8-.7-8-3.7 0-1.3.5-2.3 1-2.3.6 0 1-.6 1-1.3 0-1.8 2.1-3.7 4-3.7.9 0 2.1.5 2.8 1.2m-78.1 4c2.6 2.5 3 6 .8 7.8-.8.7-1.5 1.8-1.5 2.6 0 2.1-1.7 2.6-4.2 1.2-4.7-2.7-5.9-5.9-3.5-10.1 2.4-4.3 4.9-4.8 8.4-1.5m317.7-.2c2 .7 2.6 1.7 2.6 3.8 0 3.5-1.6 5.2-5 5.2-2.9 0-7-2.5-7-4.2 0-1.6 4.1-5.8 5.6-5.8.7 0 2.4.4 3.8 1m79.5 9c.7 1.7 1.1 3.7.8 4.5-.7 1.7-7.1 4.8-9.2 4.3-2.3-.4-5.4-5.9-3.7-6.5.6-.3 1.2-1 1.2-1.7 0-2.2 2.3-3.6 6-3.6 3 0 3.7.5 4.9 3m-89.9 5c0 .5-.4 1-1 1-.5 0-1-.5-1-1 0-.6.5-1 1-1 .6 0 1 .4 1 1M40.4 232.1c2.8 1.6 3.6 2.7 3.6 4.9 0 5.8-6.2 8-10.7 3.8-2.8-2.6-3-6.1-.3-8.8 2.5-2.5 3.1-2.5 7.4.1m197.6.8c0 .6-1.6 1.1-3.6 1.3-2.4.2-4.1 1-4.8 2.3-.6 1.1-1.5 2.3-1.9 2.6-1.3 1-.4 6.1 1.3 7 .8.4 3 1.4 4.9 2.2 1.8.8 2.8 1.7 2.3 2.1-.6.3-1.3.2-1.7-.4-.3-.5-1.7-1-3.1-1-1.3 0-2.4-.5-2.4-1 0-.6-.7-1-1.5-1-4.1 0-4.3-11.6-.2-13.7 2.8-1.3 10.7-1.6 10.7-.4m5.7 7.2c-.1 1-.5 1.9-.9 1.9-1.2 0-4.8-6.2-4.1-7.3.8-1.3 5.2 3.3 5 5.4m192.6-3.9c2.5 1.3 2.1 5.1-.8 8.3-2.1 2.1-3.1 2.6-5.3 2-4.1-1-5.2-2.4-5.2-6.3 0-5.7 4.8-7.4 11.3-4M137.5 240c-.3.5-2 1-3.6 1-2.9 0-3 .2-2.8 3.4.2 1.9 0 3.8-.4 4.2s-.7-1.1-.7-3.2c0-2.2.5-4.5 1.2-5.2 1.5-1.5 7.2-1.6 6.3-.2m105 5.9c-.3.6-1.1 1.1-1.7 1.1s-.6-.6.2-1.5c1.4-1.7 2.6-1.3 1.5.4m-96.5.8c-.1 2.5-1.4 5.3-2.6 5.3-1.7 0-1.7-.1-.4-3.4.9-2.4 3-3.7 3-1.9m191 1.3c0 .5-.4 1-1 1-.5 0-1-.5-1-1 0-.6.5-1 1-1 .6 0 1 .4 1 1m-11 7c0 1.1-.2 2-.4 2s-.6-.9-.9-2-.1-2 .4-2 .9.9.9 2m13.4.5c-.4.8-.8 1.5-1 1.5s-.4-.7-.4-1.5.4-1.5 1-1.5c.5 0 .7.7.4 1.5m-3.1 5.4c-.9.9-2.6 1.1-5 .8-6-1-5.7-2.3.5-2.2 5 0 5.6.2 4.5 1.4m-99.5 3.5c1.3.4 2.2 1.5 2.2 2.7 0 1.6-.7 1.9-4.5 1.9-2.5 0-4.5-.5-4.5-1 0-1.8 3.3-6.2 3.9-5.2.3.5 1.6 1.2 2.9 1.6m-118.3 5.2c1.2 1.3 2.7 1.5 7 .9 6.9-.8 8.3 1.1 3.9 5.6-2.3 2.4-3.6 2.9-7.4 2.9-5.7 0-7-1.2-7-6.7 0-4.6.9-5.3 3.5-2.7m27.3 3.6c1.7 1.7 1.5 3.1-.3 2.5-.8-.4-1.7-.2-2 .3-.9 1.5-3.5 1.2-3.5-.3 0-1.6 2-3.7 3.5-3.7.6 0 1.6.5 2.3 1.2m185.2.3c.7.8.9 1.5.5 1.5s-.2.6.4 1.4c2.5 3-1.6 3-6.7 0-.2-.1.1-1.2.8-2.3 1.3-2.5 3.3-2.7 5-.6m-98.5 2.4c.8 1.4 9.2 1.4 10 .1.8-1.2 9.2-1.3 9.9-.1.3.4 3.7.6 7.6.3 4.1-.3 7.5 0 8.2.6s7.2 1.3 14.4 1.7c18.8 1 19.8 1.1 20.2 2.4.2.7 3.1 1.1 7.7 1.1 4.1 0 7.7.5 8 1.1.4.5 1.7.9 2.8.8 1.2-.1 2.9.1 3.7.4 1.3.5 4.4.9 15.8 2.1 1.8.2 3.5.6 3.9 1 .3.3 1.7.6 2.9.6 1.3 0 2.6.4 2.9 1 .3.5 2.8 1.2 5.6 1.6 2.7.4 5.2 1.1 5.5 1.5.3.5 1.5.9 2.6.9 1.2 0 1.8.3 1.4.7-1.2 1.2-5 1.4-7.1.4-2.8-1.3-7.4-2.2-11.2-2.1-1.7 0-3.4-.4-3.8-1-.3-.5-2.1-1-3.9-1-1.9 0-4.7-.7-6.2-1.5-1.6-.8-5.3-1.5-8.1-1.5-3.3 0-5.3-.4-5.3-1.1 0-.8-1.2-1-3.5-.6-1.9.3-3.7.1-4-.4-.4-.5-2.4-.9-4.5-.9s-4.1-.4-4.4-.9c-.4-.5-3.5-.7-7.1-.4-4.4.4-7 .1-8-.7-1.2-1-1.8-1-3 0-1.1.9-1.9 1-2.8.1-.7-.6-7.2-1.3-14.3-1.7-7.1-.3-13.6-.8-14.4-1.1-1.7-.7-54.9-.4-71.2.3-7.1.3-10.8.1-10.8-.6 0-.6 3.3-1 8.4-1 4.7 0 8.7-.4 9-.9s4.8-.8 10-.6c5.1.1 9.9-.1 10.5-.4 1.9-1.2 21.8-1.3 22.6-.2m-66.6 4.5c-.3.3-3.6 1-7.4 1.6-3.9.6-7.4 1.5-7.9 2.1-.6.5-2.3.9-3.9.9-4.7 0-2.6-2.5 2.4-2.8 2.4-.2 4.8-.7 5.4-1.3.5-.5 3.4-.9 6.4-.9s5.2.2 5 .4M138 286c0 .5-2 1-4.5 1s-4.5-.5-4.5-1c0-.6 2-1 4.5-1s4.5.4 4.5 1m-11.5 2c-.3.5-2.1 1-4 1s-3.7.4-4 1c-.3.5-2.8 1.2-5.6 1.6-2.7.4-5.2 1.1-5.5 1.5-.3.5-1.9.9-3.5.9-4.7 0-2.4-1.9 3.2-2.6 2.7-.4 5.2-1.1 5.5-1.5.3-.5 1.8-.9 3.4-.9s3.2-.5 3.5-1c.3-.6 2.2-1 4.1-1 2.1 0 3.3.4 2.9 1m113.2 1.1c.7.7 7.2 1.2 17 1.4 25.7.6 44.7 1.6 45.9 2.6.6.5 5.1 1.2 10 1.5 5.2.4 9.4 1.3 10.2 2.1.7.7 3.3 1.3 5.7 1.3s4.7.4 5 1c.3.5 2.3 1 4.4 1s4.1.3 4.5.7c.3.4 2.1.7 3.9.7 2.3.1 3.3.6 3.5 2 .3 1.5 0 1.7-1.4 1.1-1.1-.5-5.5-1.3-9.9-1.8s-8.9-1.3-10-1.7c-1.1-.5-5.8-1.2-10.5-1.5-4.7-.4-9.1-1.2-9.8-1.8s-5.9-1.2-11.5-1.5c-5.6-.2-10.7-.8-11.4-1.4-.6-.5-3.8-.8-7.1-.7-3.2.1-6.5-.2-7.2-.6-2.2-1.4-89.4-1.2-91.1.1-.8.7-6.8 1.2-14.4 1.3-7.1.2-13.4.6-14 1.1-1.5 1.3-20.8 2.9-22 1.9-.5-.5.9-.9 3.2-.9s4.5-.5 4.8-1c.3-.6 2.6-1 5.1-1 2.4 0 4.4-.5 4.4-1 0-.6 3-1 6.9-1s7.3-.5 7.6-1c.3-.6 3.7-1 7.4-1s7.1-.4 7.7-1c.5-.5 10.8-1.1 24.4-1.3 12.9-.1 26.7-.3 30.6-.5 4.1-.1 7.5.3 8.1.9m131.8 5.8c.3.6 2.6 1.3 5 1.7 2.5.3 4.5 1 4.5 1.5s1.1.9 2.5.9 2.5.4 2.5 1c0 1.2-3.7 1.3-4.4.1-.3-.5-2.7-1.2-5.3-1.6-5.6-.8-8.6-2.2-7.8-3.6.8-1.2 2.2-1.2 3 0m-247 4.8c-1.6.3-3.4.9-3.9 1.4-.6.5-1.9.9-3 .9-1.2 0-1.6-.4-1-.9 1.2-1.2 4.2-1.9 7.9-1.8h3zm111 1.3c.4.6 1 .8 1.5.5.4-.2 1.9.4 3.3 1.5s3 2 3.6 2c1.8 0 1.3 2.7-.6 3.4-2.4.9-7.9 4.1-9.7 5.5-1 .8-1.6.9-2.1.1-.3-.5-2.6-1.9-5-3-5.2-2.4-6.1-3.6-4.4-5.6 3.2-3.8 12-6.7 13.4-4.4m155 0c.3.5-.1 1-1 1s-1.3-.5-1-1c.3-.6.8-1 1-1s.7.4 1 1M195 303.1c0 .5.7.9 1.5.9s1.5.4 1.5.9-.7 1.4-1.5 2.1-1.5 1.9-1.5 2.6c0 1.7-1.8 1.8-5.3.1-3-1.4-4-3.2-3.2-5.8.8-2.5 8.5-3.3 8.5-.8m-84.7-.4c.8.8-3.9 3.3-6.2 3.3-3.3 0-3.2-1.4.1-2.6 4-1.4 5.3-1.6 6.1-.7m250 1.7c1.8.8 4.9 1.7 7 2.1 5.6.9 4.7 2.8-1 1.9-2.7-.3-5.3-1-5.8-1.4-.6-.5-2.5-1-4.4-1.2-4.2-.4-5.5-2.8-1.6-2.8 1.5 0 4.1.6 5.8 1.4m-74 1.8c.4 1.3 0 2.9-.8 3.8s-1.5 2.2-1.5 2.8c0 1.7-3.2 1.5-5.8-.4-2.4-1.7-2.9-5.3-1-7.2.7-.7 2.9-1.2 4.9-1.2 2.9 0 3.8.4 4.2 2.2m-127.4.9c.2.6 1.4 1.5 2.8 2 2.1.8 2.3 1.2 1.3 2.4-.7.8-2 1.5-2.9 1.5s-2.2.5-2.8 1.1c-2.7 2.7-5.7 3.5-8.4 2.2-5.2-2.6-5.3-3.7-.8-7.8 3.5-3.1 4.6-3.6 7.3-3.1 1.7.4 3.3 1.1 3.5 1.7m-60.6-.4c-.7.2-1.9.2-2.5 0-.7-.3-.2-.5 1.2-.5s1.9.2 1.3.5m230.7 4.7q9 6.6 1.2 6.6c-2.3 0-4.5.6-5.2 1.5-1.5 1.8-4 1.2-8.5-1.9-1.6-1.1-3.1-2.2-3.3-2.2-.2-.1 0-1.3.4-2.8.4-1.6 1.3-2.6 2.4-2.6s2.2-.5 2.5-1c1.2-1.9 6.1-.8 10.5 2.4m54.8.6c.6 0 1.2.4 1.2 1 0 .5-.4 1-.8 1-1.6 0-7.2-3.1-7.2-4 0-.5 1.2-.2 2.8.6 1.5.7 3.3 1.4 4 1.4M120 315.9c1.5 2.9 1.3 3.6-1.5 5.1-2 1.1-2.7 1.1-4 0-1.9-1.6-1.9-4 0-4 .8 0 1.5-.7 1.5-1.5 0-2.2 2.7-1.9 4 .4m270-1.5c0 1.1-1.9 1.5-2.5.6-.3-.5.1-1 .9-1 .9 0 1.6.2 1.6.4m-26.7 4.2c2 .7 2.3 4.4.5 6.2-.7.7-2.4 1.2-3.8 1.2-5 0-6.8-4.7-2.8-7.4 1.3-.9 2.7-1.4 3.3-1.1.5.3 1.8.8 2.8 1.1"/><path d="M277.7 247.7c-.4.3-.7 1.6-.7 2.8 0 1.1-.5 2.6-1.2 3.3-.9.9-.5 1.9 1.7 4.2 4 4.2 6.6 3.9 9.9-1.2l2.7-4.1-2.7-2.9c-2.7-2.7-8-3.9-9.7-2.1m-173.1-73.8c-1 1.1-2.3 1.8-2.7 1.5-.5-.3-.9.6-.9 1.9s-.9 3.2-2 4.2-2 2.4-2 3c0 .7-.9 2.4-2 3.8s-2 3.4-2 4.5c0 1.2-.4 2.4-1 2.7-.5.3-1 1.9-1 3.5s-.5 3.2-1.1 3.6c-.6.3-.8 1.7-.5 2.9.3 1.3.2 2.7-.4 3-.5.3-1 1.5-1 2.5s-.7 2.5-1.5 3.4c-.8.8-1.5 2.2-1.5 3 0 .9-.5 2.5-1.2 3.5-1.5 2.5.6 5.4 3.3 4.6 2.6-.9 10.4 5.2 12 9.4 1.4 3.3 4.3 6.1 6.6 6.1.7 0 1.9-1.5 2.8-3.4s2.3-3.7 3.1-4c.9-.3 1.4-2 1.4-4.4 0-3.4-.7-4.6-5.7-9.4-3.2-3.1-6.4-6.5-7-7.7-2-3.2-1.5-7.2 1-9.9 1.9-2.1 2.3-3.7 2.8-13.7.3-7 1-11.9 1.8-12.9 2-2.4.8-4-1.3-1.7m272.5 14.4c-1.3 1.3-1.5 3.7-.2 3.7.5 0 1.1.8 1.3 1.8.3 1.1 2.6 2.9 5 4.1 2.5 1.2 6.4 3.9 8.8 6.1s4.6 4 4.9 4c.9 0 4.1 7.7 4.1 9.8 0 1 .5 2.3 1.1 2.9 1.8 1.8.1 12.8-2.2 14.9-1 .9-1.9 2.2-1.9 2.9 0 2-3.2 4.1-8.2 5.6-2.7.7-4.8 1.6-4.8 1.9 0 1.1 4.3 4.5 7.5 6 1.7.8 3.8 2.2 4.8 3.2 2.2 2.2 4.7 2.3 4.7.3 0-.9 1-2 2.3-2.6 2.2-1 5.7-7.2 5.7-10.1 0-.9.7-2.1 1.5-2.8.9-.7 1.5-2.9 1.5-5.1 0-2.1.5-4.1 1-4.4.6-.3 1-2.8 1-5.5s-.4-5.2-1-5.5c-.5-.3-1-1.9-1-3.5 0-1.9-.7-3.3-2.1-4-1.1-.7-1.9-1.9-1.7-3 .3-2-2.8-6-4.9-6-.7 0-1.3-.5-1.3-1.1 0-1.6-2.3-3.5-5-4.4-1.4-.4-3.6-1.7-5-2.9-3.1-2.7-6.6-4.6-8.2-4.6-.7 0-2.5-.6-4-1.4-1.9-1-2.9-1.1-3.7-.3M16 231.5c0 .8.7 1.5 1.5 1.5s1.5-.7 1.5-1.5-.7-1.5-1.5-1.5-1.5.7-1.5 1.5m200 91.8c-.3.3-4.8.6-10 .8-5.2.1-10.2.6-11 1-.9.4-6.5 1-12.5 1.2-6.1.3-11.7.8-12.5 1.1s-4 .7-7 .9c-5.7.5-8.7.9-18 2.8-3 .6-8.6 1.3-12.5 1.6-3.8.2-7.4.9-8 1.4-.5.5-2.2.9-3.7.9s-2.8.4-2.8 1c0 .5-1.2 1-2.7 1-1.6 0-4.8 1.1-7.2 2.5-2.3 1.4-5.1 2.5-6.1 2.5s-2 .7-2.4 1.5c-.3.8-1.6 1.5-2.8 1.5-1.8 0-2.8 1-4.1 4.1-2.5 5.9-2 8.3 2 8.7 3.8.4 7.3-1.3 7.3-3.4 0-.8 1.3-1.7 2.9-2 1.7-.4 3.8-1.5 4.7-2.5.9-1.1 2.9-1.9 4.4-1.9 1.6 0 3-.7 3.4-1.5.4-1.1 2-1.5 5.6-1.5 2.7 0 5-.5 5-1 0-.6 2.4-1 5.4-1s5.8-.5 6.1-1c1-1.6 5.5-1.2 5.5.5 0 1.5-1.8 1.9-12.2 3-3.2.4-5.8 1.1-5.8 1.6s-1.3.9-2.9.9c-1.7 0-3.3.4-3.6 1-.3.5-1.7 1-3 1s-2.7.4-3 1c-.3.5-1.7 1-2.9 1-1.3 0-2.9.7-3.6 1.5s-1.9 1.5-2.6 1.5c-.8 0-1.4 1-1.4 2.5 0 2 .6 2.5 3.5 3.1 1.9.3 3.8 1 4.1 1.5s2.1.9 4 .9 3.4.5 3.4 1.1.8.8 1.9.4c1.1-.3 2.2-.1 2.6.5.3.5 2.4 1 4.5 1s4.2.5 4.5 1c.4.7 2.9.9 6.1.6 2.9-.2 5.6 0 5.9.5.4.5 1.7.9 3 .9s2.6.4 2.9.9 5.3.6 11.1.4c7.6-.4 10.9-.2 12 .7 1 .8 1.5.9 1.5.1 0-1.4 5.7-1.5 6.6 0 .4.7 4.6.8 13.5.4 10-.6 12.9-.5 12.9.5s.3 1 1.4.1c1.4-1.2 21.5-1.2 24.1-.1 2 .8 103.5-1.2 104.1-2.1.3-.5 2.5-.9 4.9-.9s4.7-.5 5-1c.3-.6 3.3-1 6.6-1 4.5 0 6.5-.5 8-1.9 2.5-2.3 2.2-6.2-.7-7.6-2.4-1.2-5.4-4-5.4-5.1 0-.5.5-.3 1.2.4s2.2 1.2 3.5 1.2c1.2 0 3.7 1.2 5.5 2.7 4 3.4 7.3 5.3 9.1 5.3 1.7 0 5.7-4.2 5.7-6 0-3.7-10-12-14.4-12-.8 0-2.7-.7-4.2-1.5-1.6-.8-3.7-1.5-4.6-1.5s-1.9-.4-2.2-.9c-.3-.4-2.5-1.1-4.8-1.4-2.4-.3-6.5-1.7-9.3-3.1-2.7-1.4-6.2-2.6-7.7-2.6s-3-.5-3.3-1.1c-.4-.6-2.4-.9-4.6-.8-2.1.2-4.1 0-4.5-.4s-2.3-.7-4.1-.7c-1.9 0-4.3-.5-5.5-1.1-1.8-1-11.9-2.6-20.9-3.3-2-.2-4.1-.6-4.7-1-1.3-.8-69.5-2.1-70.2-1.3m51.5 10.6c10.1.2 18.7 1.1 20 2.1.6.4 5.4 1 10.8 1.3s10.3 1 11 1.5c.7.6 4.7 1.3 9.1 1.7 4.3.4 9 1.4 10.5 2.1 1.4.8 3.6 1.4 4.7 1.4 2.7 0 7.6 2.5 6.7 3.3-.9 1-4.3.8-4.3-.2 0-.4-2.8-1.1-6.2-1.5-3.4-.3-6.7-1.1-7.2-1.6-.6-.6-2.2-1-3.6-1-1.5 0-3-.3-3.4-.7s-2.7-.6-5.2-.4c-2.5.1-5.1-.2-5.9-.9-1.8-1.5-29.2-3-52.5-3-33.8 0-79 1.2-79.6 2.1-.3.5-2.9.9-5.9.9s-5.7.5-6 1c-.7 1.1-12.8 1.4-13.8.3-1.5-1.4 5-3.3 11.7-3.3 4 0 7.7-.5 8.2-1 .6-.6 3.1-1.3 5.5-1.5 2.4-.3 8-.9 12.4-1.5 12.3-1.6 13.6-1.7 14.1-.8.3.5 1.1.5 1.7.1 1.4-.9 55.5-2.1 57.7-1.2.8.3 5.1.6 9.5.8m81 14.1c.3.5 1.7 1 3.1 1 1.5 0 2.4.6 2.4 1.5 0 .8-.6 1.5-1.4 1.5-.7 0-1.9-.7-2.6-1.5s-2.6-1.5-4.2-1.5c-1.7 0-2.7-.4-2.3-1 .3-.6 1.5-1 2.5-1s2.2.4 2.5 1m31.2-23.3c-.4.3-.7 1.4-.7 2.4s-.9 3.4-2 5.4c-2.5 4.5-2.5 5.4.3 6.4 1.5.6 2.7.4 3.8-.5.8-.8 2.3-1.4 3.2-1.4s2.9-1.2 4.4-2.8c2.4-2.3 2.8-2.5 3.1-1 .2 1 1 1.8 1.8 1.8 2.5 0 1.1-3.4-1.9-4.8-1.6-.8-3.2-2.5-3.7-3.8-.8-1.9-1.7-2.4-4.3-2.4-1.9 0-3.7.3-4 .7"/></svg>