<svg width="541" height="541" xmlns="http://www.w3.org/2000/svg" xmlns:xlink="http://www.w3.org/1999/xlink" xml:space="preserve" overflow="hidden"><defs><clipPath id="clip0"><rect x="1374" y="1151" width="541" height="541"/></clipPath></defs><g clip-path="url(#clip0)" transform="translate(-1374 -1151)"><path d="M1645 1151C1659.91 1151 1672 1163.09 1672 1178L1672 1205C1672 1219.91 1659.91 1232 1645 1232 1630.09 1232 1618 1219.91 1618 1205L1618 1178C1618 1163.09 1630.09 1151 1645 1151Z" fill-rule="evenodd"/><path d="M1644.5 1303.89C1579.55 1303.89 1526.89 1356.54 1526.89 1421.5 1526.89 1486.46 1579.55 1539.11 1644.5 1539.11 1709.46 1539.11 1762.11 1486.46 1762.11 1421.5 1762.11 1356.54 1709.46 1303.89 1644.5 1303.89ZM1644.5 1259C1734.25 1259 1807 1331.75 1807 1421.5 1807 1511.25 1734.25 1584 1644.5 1584 1554.75 1584 1482 1511.25 1482 1421.5 1482 1331.75 1554.75 1259 1644.5 1259Z" fill-rule="evenodd"/><path d="M1672 1638C1672 1623.09 1659.91 1611 1645 1611 1630.09 1611 1618 1623.09 1618 1638L1618 1665C1618 1679.91 1630.09 1692 1645 1692 1659.91 1692 1672 1679.91 1672 1665Z" fill-rule="evenodd"/><path d="M1915 1422C1915 1436.91 1902.91 1449 1888 1449L1861 1449C1846.09 1449 1834 1436.91 1834 1422 1834 1407.09 1846.09 1395 1861 1395L1888 1395C1902.91 1395 1915 1407.09 1915 1422Z" fill-rule="evenodd"/><path d="M1428 1449C1442.91 1449 1455 1436.91 1455 1422 1455 1407.09 1442.91 1395 1428 1395L1401 1395C1386.09 1395 1374 1407.09 1374 1422 1374 1436.91 1386.09 1449 1401 1449Z" fill-rule="evenodd"/><path d="M1836.1 1268.66 1817.03 1287.99C1806.5 1298.67 1789.43 1298.67 1778.9 1287.99 1768.37 1277.32 1768.37 1260.01 1778.9 1249.34L1797.97 1230.01C1808.5 1219.33 1825.57 1219.33 1836.1 1230.01 1846.63 1240.68 1846.63 1257.99 1836.1 1268.66Z" fill-rule="evenodd"/><path d="M1510.99 1594.04C1521.67 1583.5 1521.67 1566.43 1510.99 1555.9 1500.32 1545.37 1483.01 1545.37 1472.34 1555.9L1453.01 1574.97C1442.33 1585.5 1442.33 1602.57 1453.01 1613.1 1463.68 1623.63 1480.99 1623.63 1491.66 1613.1Z" fill-rule="evenodd"/><path d="M1797.97 1613.1 1778.9 1594.04C1768.37 1583.5 1768.37 1566.43 1778.9 1555.9 1789.43 1545.37 1806.5 1545.37 1817.03 1555.9L1836.1 1574.97C1846.63 1585.5 1846.63 1602.57 1836.1 1613.1 1825.57 1623.63 1808.5 1623.63 1797.97 1613.1Z" fill-rule="evenodd"/><path d="M1472.34 1287.99C1483.01 1298.67 1500.32 1298.67 1510.99 1287.99 1521.67 1277.32 1521.67 1260.01 1510.99 1249.34L1491.66 1230.01C1480.99 1219.33 1463.68 1219.33 1453.01 1230.01 1442.33 1240.68 1442.33 1257.99 1453.01 1268.66Z" fill-rule="evenodd"/></g></svg>