<svg xmlns="http://www.w3.org/2000/svg" width="400" height="200" viewBox="-567 -680 2960 1480"><path fill="currentColor" d="M173 60c0-204.667 72.167-379.17 216.5-523.5S708.333-680 913-680c204.67 0 379.17 72.17 523.5 216.5S1653-144.667 1653 60s-72.17 379.167-216.5 523.5S1117.67 800 913 800q-307 0-523.5-216.5C173 367 173 264.667 173 60m840-485-349 22v85l12-1c78.667.02 123.5 3.35 134.5 10q16.5 10.005 16.5 81v549q0 74-20.5 87.5T664 429v81h513v-81h-11l-72-3c-35.33 0-57.67-6-67-18-9.34-12-14.01-41-14-87z"/></svg>