<svg xmlns="http://www.w3.org/2000/svg" width="400" height="200" viewBox="-567 -680 2960 1480"><path fill="currentColor" d="M173 60c0-204.667 72.167-379.17 216.5-523.5S708.333-680 913-680c204.67 0 379.17 72.17 523.5 216.5S1653-144.667 1653 60s-72.17 379.167-216.5 523.5S1117.67 800 913 800q-307 0-523.5-216.5C173 367 173 264.667 173 60m918 32v25c0 231.333-77.67 347-233 347q-59.002 0-112-27-26.004-13-31-92l-1-24h-85v187q61 18 123.5 27.5T880 545q186 0 295.5-137.5C1285 270 1285 192.667 1285 38c0-146-32.5-260.17-97.5-342.5-65-82.34-155.17-123.5-270.5-123.5q-146 0-241.5 94.5C580-239 580-190.333 580-93q0 128 81.5 211Q743 201.001 868 201c94-.001 168.33-36.334 223-109m-6-161c0 112.667-53.67 169-161 169q-157 0-157-228 0-219 142-219c117.33 0 176 92.67 176 278"/></svg>