<svg xmlns="http://www.w3.org/2000/svg" id="flag-icons-us" viewBox="0 0 640 480">
  <path fill="#bd3d44" d="M0 0h640v480H0z"/>
  <path fill="#fff" d="M0 37h640v37H0zm0 74h640v37H0zm0 73h640v37H0zm0 74h640v37H0zm0 73h640v37H0zm0 74h640v37H0z"/>
  <path fill="#192f5d" d="M0 0h364.8v259H0z"/>
  <defs>
    <path id="us-s" d="m0 0 3 10h10l-8 6 3 10-8-6-8 6 3-10-8-6h10z"/>
  </defs>
  <g fill="#fff">
    <use href="#us-s" x="30" y="12"/><use href="#us-s" x="91" y="12"/><use href="#us-s" x="152" y="12"/><use href="#us-s" x="213" y="12"/><use href="#us-s" x="274" y="12"/><use href="#us-s" x="335" y="12"/>
    <use href="#us-s" x="60" y="38"/><use href="#us-s" x="121" y="38"/><use href="#us-s" x="182" y="38"/><use href="#us-s" x="243" y="38"/><use href="#us-s" x="304" y="38"/>
    <use href="#us-s" x="30" y="64"/><use href="#us-s" x="91" y="64"/><use href="#us-s" x="152" y="64"/><use href="#us-s" x="213" y="64"/><use href="#us-s" x="274" y="64"/><use href="#us-s" x="335" y="64"/>
    <use href="#us-s" x="60" y="90"/><use href="#us-s" x="121" y="90"/><use href="#us-s" x="182" y="90"/><use href="#us-s" x="243" y="90"/><use href="#us-s" x="304" y="90"/>
    <use href="#us-s" x="30" y="116"/><use href="#us-s" x="91" y="116"/><use href="#us-s" x="152" y="116"/><use href="#us-s" x="213" y="116"/><use href="#us-s" x="274" y="116"/><use href="#us-s" x="335" y="116"/>
    <use href="#us-s" x="60" y="142"/><use href="#us-s" x="121" y="142"/><use href="#us-s" x="182" y="142"/><use href="#us-s" x="243" y="142"/><use href="#us-s" x="304" y="142"/>
    <use href="#us-s" x="30" y="168"/><use href="#us-s" x="91" y="168"/><use href="#us-s" x="152" y="168"/><use href="#us-s" x="213" y="168"/><use href="#us-s" x="274" y="168"/><use href="#us-s" x="335" y="168"/>
    <use href="#us-s" x="60" y="194"/><use href="#us-s" x="121" y="194"/><use href="#us-s" x="182" y="194"/><use href="#us-s" x="243" y="194"/><use href="#us-s" x="304" y="194"/>
    <use href="#us-s" x="30" y="220"/><use href="#us-s" x="91" y="220"/><use href="#us-s" x="152" y="220"/><use href="#us-s" x="213" y="220"/><use href="#us-s" x="274" y="220"/><use href="#us-s" x="335" y="220"/>
  </g>
</svg>
