<svg xmlns="http://www.w3.org/2000/svg" width="633.333" height="161.333" version="1.0" viewBox="0 0 475 121"><path d="M0 3.5C0 5.9.2 6 7.5 6c6.3 0 7.6.3 8.5 1.9 1.5 3 1.4 104.3-.2 105.9-.7.7-4.2 1.2-8.6 1.2H-.1l.3 2.7.3 2.8h48l.3-2.8.3-2.7h-7.5c-6.4 0-7.7-.3-8.6-1.9-.6-1.3-1-19.7-1-53 0-45 .2-51.1 1.6-52.5C34.7 6.4 37.1 6 42.1 6c6.7 0 6.9-.1 6.9-2.5V1H0zm101.6 50.3c-10.3 29-19.7 54.1-20.9 55.6-2.5 3.5-7.3 5.6-12.7 5.6-3.8 0-4 .2-4 3v3l22.8-.2 22.7-.3.3-2.8c.3-2.7.2-2.7-5.2-2.7-3 0-6.6-.5-8-1.1-2.9-1.4-4.8-6-4-9.8 1.3-6.2 24.9-75 25.5-74.3.3.4 6.8 18.6 14.3 40.6 13 37.8 13.6 40 12.1 42.2-1.4 2.1-2.3 2.4-8.5 2.4h-7v6l25.8-.2 25.7-.3.3-2.8.3-2.7h-6.5c-11 0-10.3 1.2-26.6-46.5C123.9-2 125.1 1 122.6 1c-1.9 0-4 5.4-21 52.8M195 3.5c0 2.4.2 2.5 6.8 2.5 4 0 7.3.5 8 1.2.9.9 1.2 14.2 1.2 53.9 0 47.1-.2 52.8-1.6 53.3-.9.3-4.5.6-8 .6H195v6l24.3-.2 24.2-.3.3-2.8.3-2.7h-7.3c-4.4 0-7.9-.5-8.6-1.2-1.7-1.7-1.7-104.9 0-106.6.7-.7 4.2-1.2 8.5-1.2 7.1 0 7.3-.1 7.3-2.5V1h-49zm118.2 2.7c-1.1 2.9-9.5 26.6-18.8 52.7-19.7 55.3-19.6 55.1-30.3 55.9-6 .4-6.2.5-5.9 3.1l.3 2.6 22.8.3 22.7.2v-3c0-3 0-3-5.8-3-12.2 0-13.7-5.4-7-24.2l2.1-5.8h19.2c17.4 0 19.4.2 20 1.7 2.5 6.3 7.5 22.1 7.5 24 0 3.1-2.8 4.3-10.5 4.3h-6.6l.3 2.7.3 2.8 25.8.3 25.7.2v-3c0-3 0-3-5.5-3-7.4 0-11.2-2.1-13.4-7.3-.9-2.3-9.6-27.3-19.2-55.4C321.1 5.6 319.3 1 317.3 1c-1.7 0-2.6 1.1-4.1 5.2m8.2 48.1 8.4 24.7h-16.9c-9.3 0-16.9-.3-16.9-.7 0-1.4 16.2-49.4 16.6-49.1.1.2 4.1 11.5 8.8 25.1M393 3.2c0 1.2 8 14.3 17.8 29.2s18.7 28.3 19.6 29.8l1.8 2.7L411 90c-17.5 20.8-21.1 25.6-20.8 27.8l.3 2.7 42.3.3 42.2.2V98c0-12.6-.3-23-.8-23-.4 0-1.4 3.9-2.3 8.8-2 10.5-5.3 18.5-8.5 20.7-2 1.3-6.3 1.5-30.2 1.3l-27.9-.3L425.1 82C436 69.1 445 58.1 445 57.7s-7.2-12.1-16-26L412.9 6.5l18.1-.3c15.9-.2 18.6 0 22.3 1.6 9.5 4.3 14.7 11.8 16.8 24.8 1.1 6 1.6 7.4 3.1 7.4 1.7 0 1.8-1.4 1.8-19.5V1h-82z"/></svg>