<svg xmlns="http://www.w3.org/2000/svg" width="134.667" height="38.667" version="1.0" viewBox="0 0 101 29"><path d="M2 2C.2 3.8 0 5.3 0 16v12h6V17c0-6.1.4-11 .9-11 1 0 1.5 1.5 5.1 13.6 1.1 4.1 2.7 7.5 3.6 7.8 3.3 1.3 9.3.6 10.3-1.2 1-1.6 1-1.6 1.1.1 0 1.4.7 1.8 2.8 1.5 2.5-.3 3-1.1 6.2-10.5 1.9-5.6 3.8-10.5 4.1-10.8.4-.3 1.9 3.3 3.3 8.2C47.9 29.4 46.3 28 58.9 28h10.9l2.7-3.2 2.8-3.3-.7 3.3c-.7 3.1-.6 3.2 2.3 3.2s3-.2 6.1-10.3c3.3-10.5 4.6-13.1 5.4-10.6.2.8 1.4 4.5 2.6 8.4C94.5 27.3 94.9 28 98 28c3.2 0 3.2.1-1.3-14.7C93.4 2.8 92.5 1.2 89.3.4c-5.1-1.3-7.5 1.2-11 11.6-1.7 5.2-3.2 8.6-3.2 7.6-.1-1.1-1.3-3.3-2.8-4.8-2.2-2.3-3.5-2.8-7.4-2.8-6 0-7.9-.7-7.9-3 0-2.4 1.9-3 9.6-3 6.2 0 6.4-.1 6.4-2.5C73 1 72.9 1 64.3 1c-9.4 0-10.4.3-12.2 3.7-1.7 3.3-1.3 6.7 1 9.7 1.8 2.3 2.7 2.6 8.5 2.6 6.2 0 6.4.1 6.4 2.5 0 2.5-.1 2.5-7.9 2.5h-7.9l-2.1-7.3C46.9 4 45.4 1.1 42.5.4c-4.2-1-8.3 1.3-9.5 5.5-.5 2-2.1 7-3.5 11.1l-2.4 7.5-.1-11.8V1h-6v10.5c0 6-.4 10.5-1 10.5-.8 0-3.6-8-5.6-16.3C13.7 2.8 9.6 0 6 0 4.9 0 3.1.9 2 2"/></svg>