<svg xmlns="http://www.w3.org/2000/svg" width="768" height="305.333" version="1.0" viewBox="0 0 576 229"><path d="M148.5 67.1C69.3 103.4 3.7 133.5 2.6 133.9c-1.3.5 28.6 13.7 104.1 45.9C165 204.7 213.2 225 213.8 225c.7 0 8.5-3.7 17.5-8.1l16.3-8.2 22.4 9.7c12.4 5.3 23.1 9.6 23.9 9.6 1.3 0 278.9-136.5 280.3-137.9.4-.3-44.8-19.8-100.3-43.3l-101-42.6-17.5 8-17.4 8-21.7-9.2c-12-5.1-22.2-9.4-22.8-9.6-.5-.2-65.8 29.4-145 65.7m240.3-20.5C440.6 68.5 483 86.7 483 87s-60.6 30.4-134.6 66.9c-121.6 60-134.9 66.4-137.3 65.4-5.4-2.1-193.7-82.6-195.9-83.7-2.2-1.2-.9-1.9 17.5-10.4C188.2 53.7 292.7 6.1 293.5 6.4c.6.2 43.4 18.3 95.3 40.2m79.7 2.9c51.7 21.8 94.3 40 94.6 40.4.7.6-265.4 132.2-268.6 132.9-1.6.4-40.5-15.8-40.5-16.8 0-.3 54.3-27.2 120.5-59.9 66.3-32.7 120.4-59.5 120.3-59.6-.2-.2-33.6-14.3-74.3-31.5s-74.6-31.5-75.3-31.9c-1.3-.7 26.5-14.1 28.3-13.6.6.1 43.3 18.2 95 40"/></svg>