<svg xmlns="http://www.w3.org/2000/svg" width="400" height="200" viewBox="-313.280 -7.503 1688.351 844.176"><path fill="#fff" fill-opacity=".22" fill-rule="evenodd" stroke="#fff" stroke-miterlimit="8" stroke-width="4.583" d="M530.41 21.8c136.56-1.63 159 13.03 210.86 23.14C791.98 69.95 860.31 121 887.39 168.41c21.16 37.21 24.07 65.06 66.72 89.92 7.13 37.47 24.72 64.33 35.64 91.32-2.55 36.23-10.83 34.19-24.66 67.95 5.52 29.9 33.81 43.62 41.57 74.05 6.43 27.87-10.59 5.81-31.6 41.48 2.47 69.38-1.75 40.18.11 67.49 4.76 26.64 30.16 32.52 43.21 64.52 13.05 32.01 54.36 116.01 35.1 127.49-26.14 3.46-32.69-6.51-62.19 33.49-48.98-5.83-158.33-32.68-231.69-38.68-37.83-67.87-56.26-45.33-77.83-77.5s-38.04-33.58-51.61-115.54c-56.1 14.19-97.31-30.05-171.74 28.83-42.97 30.3-115.04 45.74-233.174 32.48-65.723-5.86-120.178-58.39-147.414-100.87-43.277-55.1-53.555-16.11-69.855-48.65-18.581-71.07 20.776-198.49 68.305-278.32 61.28-79.83 125.874-166.23 216.868-200.65 170.06-49.32 162.58-8.38 237.26-5.42Z"/></svg>