<svg height="511pt" viewBox="0 0 511 511.99979" width="511pt" xmlns="http://www.w3.org/2000/svg"><path d="m418.027344 417.742188c-30.234375 30.21875-39.359375 66.695312-21.226563 84.84375 21.785157 21.785156 61.652344 1.996093 84.859375-21.210938 30.234375-30.234375 39.359375-66.710938 21.210938-84.875-18.148438-18.132812-54.625-8.992188-84.84375 21.242188zm0 0"/><path d="m489.433594 92.53125c-6.914063-4.601562-16.214844-2.753906-20.800782 4.160156-4.597656 6.898438-2.722656 16.214844 4.160157 20.800782 5.964843 3.96875 9.375 10.355468 9.375 17.519531 0 7.164062-3.410157 13.550781-9.375 17.519531-14.238281 9.492188-22.734375 25.371094-22.734375 42.480469s8.496094 32.988281 22.734375 42.480469c7.015625 4.652343 16.28125 2.632812 20.800781-4.160157 4.601562-6.898437 2.738281-16.203125-4.160156-20.800781-5.960938-3.96875-9.375-10.355469-9.375-17.519531 0-7.164063 3.414062-13.550781 9.375-17.519531 14.238281-9.492188 22.734375-25.371094 22.734375-42.480469s-8.492188-32.988281-22.734375-42.480469zm0 0"/><path d="m414.433594 2.53125c-6.914063-4.613281-16.214844-2.738281-20.800782 4.160156-4.597656 6.898438-2.722656 16.214844 4.160157 20.800782 5.964843 3.96875 9.375 10.355468 9.375 17.519531 0 7.164062-3.410157 13.550781-9.375 17.519531-14.238281 9.492188-22.734375 25.371094-22.734375 42.480469s8.496094 32.988281 22.734375 42.480469c7.015625 4.652343 16.28125 2.632812 20.800781-4.160157 4.601562-6.898437 2.738281-16.203125-4.160156-20.800781-5.960938-3.96875-9.375-10.355469-9.375-17.519531 0-7.164063 3.414062-13.550781 9.375-17.519531 14.238281-9.492188 22.734375-25.371094 22.734375-42.480469s-8.492188-32.988281-22.734375-42.480469zm0 0"/><path d="m245.960938 266.972656c5.867187 5.714844 15.273437 5.714844 21.09375-.105468 5.8125-5.796876 5.820312-15.257813.050781-21.105469-.027344-.035157-.070313-.039063-.09375-.074219-.023438-.023438-.023438-.054688-.042969-.078125-5.847656-5.8125-15.296875-5.792969-21.140625.050781-5.816406 5.832032-5.824219 15.261719-.0625 21.128906.027344.023438.0625.027344.09375.050782.042969.039062.058594.09375.101563.132812zm0 0"/><path d="m204.898438 352.734375c15.542968 15.167969 31.175781 29.621094 46.867187 43.472656 12.597656-31.230469 31.621094-60.8125 57.710937-86.902343 25.972657-25.980469 55.703126-45.269532 86.769532-57.859376-13.867188-15.699218-28.332032-31.34375-43.515625-46.894531-19.042969 9.554688-37.195313 21.621094-54.511719 35.246094 6.335938 16.164063 3.078125 35.257813-9.941406 48.296875-12.445313 12.40625-31.25 16.753906-48.484375 9.929688-13.71875 17.410156-25.363281 35.6875-34.894531 54.710937zm0 0"/><path d="m217.679688 277.648438c-9.378907-17.105469-7.527344-38.734376 6.9375-53.199219 14.496093-14.496094 36.199218-16.328125 53.320312-6.847657 16.828125-13.40625 34.515625-25.1875 52.953125-35.097656-123.878906-121.046875-270.667969-217.1875-318.078125-169.863281-47.320312 47.335937 48.707031 194.046875 169.707031 317.925781 9.886719-18.375 21.667969-36.019531 35.160157-52.917968zm0 0"/><path d="m330.6875 330.515625c-25.90625 25.917969-44.582031 55.335937-55.300781 86.40625 27.296875 22.847656 56.695312 45.589844 82.1875 62.671875-.472657-26.558594 12.921875-56.765625 39.242187-83.078125 24.960938-24.976563 54.726563-39.300781 81.648438-39.300781.5 0 .949218.117187 1.449218.128906-17.066406-25.476562-39.910156-54.746094-62.738281-82.019531-30.851562 10.703125-60.640625 29.359375-86.488281 55.191406zm0 0"/></svg>