<svg id="glipy" viewBox="0 0 64 64" xmlns="http://www.w3.org/2000/svg"><path d="m59.68263 16.54669c-1.31155-2.496-3.60675-2.04146-5.799-1.02967l-5.39913-5.39924c.21-.56991.41-1.1098.61989-1.60972a3.282 3.282 0 0 0 -5.34914-3.53932c-1.56053 2.16461-2.39108 5.617-3.12966 9.12823 2.051.16763 4.49942.65675 6.45918.97a25.02541 25.02541 0 0 1 .69983-2.81953l3.96937 3.9693c-2.535.707-3.90639 1.0636-5.60905.73-17.55418-3.78925-31.42142 1.92164-30.22492 21.46646 2.24639-.18222 4.39368.4824 6.61883.76971a28.2866 28.2866 0 0 1 -.00995-5.5991l7.88863 7.88869a32.44538 32.44538 0 0 1 -7.64868-.23995c-2.93786-.38628-5.72536-1.26333-8.67854-.58974a39.06372 39.06372 0 0 0 -8.03869 2.39944 3.28386 3.28386 0 0 0 -1.7396 4.41924c1.30649 2.50263 3.63044 2.0314 5.799 1.02967l5.39912 5.39931c-.21.56985-.41 1.10979-.60989 1.60971a3.26957 3.26957 0 1 0 6.059 2.45949 39.96621 39.96621 0 0 0 2.40956-8.04858c-2.15106-.17709-4.3944-.6576-6.43892-.96987-.21066.74969-.37365 1.79511-.71991 2.81954l-3.97931-3.97932a13.46842 13.46842 0 0 1 5.22916-.79991c17.39882 4.04083 32.00416-1.83911 30.61462-21.3868-2.27214.1807-4.363-.48423-6.61864-.7694a28.286 28.286 0 0 1 .00995 5.599l-7.88874-7.88865a28.29235 28.29235 0 0 1 5.669.02c2.51514.13469 5.02448.86522 7.52876 1.04994 3.76848.1392 8.63582-1.5991 11.16811-2.6397a3.27323 3.27323 0 0 0 1.73976-4.41923zm-26.85548 24.51591-9.88836-9.88836a11.58541 11.58541 0 0 1 2.16962-4.64924l12.36792 12.368a11.5847 11.5847 0 0 1 -4.64918 2.1696zm8.2286-8.22866a11.58465 11.58465 0 0 1 -2.16962 4.64924l-12.36792-12.36792a11.58476 11.58476 0 0 1 4.64918-2.16962z"/></svg>