<?xml version="1.0" encoding="UTF-8" standalone="no"?>
<!-- Created with Inkscape (http://www.inkscape.org/) -->

<svg
   version="1.1"
   id="svg3840"
   xml:space="preserve"
   width="682.66669"
   height="682.66669"
   viewBox="0 0 682.66669 682.66669"
   xmlns="http://www.w3.org/2000/svg"
   xmlns:svg="http://www.w3.org/2000/svg"><defs
     id="defs3844"><clipPath
       clipPathUnits="userSpaceOnUse"
       id="clipPath3854"><path
         d="M 0,512 H 512 V 0 H 0 Z"
         id="path3852" /></clipPath></defs><g
     id="g3846"
     transform="matrix(1.3333333,0,0,-1.3333333,0,682.66667)"><g
       id="g3848"><g
         id="g3850"
         clip-path="url(#clipPath3854)"><g
           id="g3856"
           transform="translate(78,7.5)"><path
             d="m 0,0 v 155.75 c 0,28.18 19.6,52.56 47.12,58.61 l 73.67,16.19 c 8.43,1.85 14.62,8.85 15.57,17.25"
             style="fill:none;stroke:#000000;stroke-width:15;stroke-linecap:round;stroke-linejoin:round;stroke-miterlimit:10;stroke-dasharray:none;stroke-opacity:1"
             id="path3858" /></g><g
           id="g3860"
           transform="translate(297.6401,255.29)"><path
             d="m 0,0 c 0.95,-8.39 7.14,-15.4 15.57,-17.24 l 73.67,-16.19 c 27.52,-6.05 47.12,-30.43 47.12,-58.61 v -155.75"
             style="fill:none;stroke:#000000;stroke-width:15;stroke-linecap:round;stroke-linejoin:round;stroke-miterlimit:10;stroke-dasharray:none;stroke-opacity:1"
             id="path3862" /></g><g
           id="g3864"
           transform="translate(153,52.374)"><path
             d="M 0,0 V -44.874"
             style="fill:none;stroke:#000000;stroke-width:15;stroke-linecap:round;stroke-linejoin:round;stroke-miterlimit:10;stroke-dasharray:none;stroke-opacity:1"
             id="path3866" /></g><g
           id="g3868"
           transform="translate(147.73,341.3799)"><path
             d="m 0,0 h -9.12 c -6.81,0 -12.98,2.76 -17.44,7.23 -4.47,4.47 -7.23,10.63 -7.23,17.45 0,13.631 11.05,24.671 24.67,24.671 h 8.59"
             style="fill:none;stroke:#000000;stroke-width:15;stroke-linecap:round;stroke-linejoin:round;stroke-miterlimit:10;stroke-dasharray:none;stroke-opacity:1"
             id="path3870" /></g><g
           id="g3872"
           transform="translate(364.7998,390.7305)"><path
             d="M 0,0 H 8.59 C 22.21,0 33.26,-11.04 33.26,-24.671 33.26,-31.49 30.5,-37.65 26.03,-42.12 21.57,-46.591 15.4,-49.351 8.59,-49.351 H -0.53"
             style="fill:none;stroke:#000000;stroke-width:15;stroke-linecap:round;stroke-linejoin:round;stroke-miterlimit:10;stroke-dasharray:none;stroke-opacity:1"
             id="path3874" /></g><g
           id="g3876"
           transform="translate(171.1729,464.7441)"><path
             d="m 0,0 c -14.988,-18.464 -23.969,-42 -23.969,-67.634 v -45.308 c 0,-41.596 25.069,-79.096 63.508,-94.993 l 27.944,-11.556 c 11.118,-4.598 23.605,-4.597 34.723,0.002 l 27.92,11.551 c 38.434,15.898 63.498,53.391 63.498,94.983 v 45.321 c 0,59.31 -48.081,107.39 -107.39,107.39 H 83.42 c -20.905,0 -40.416,-5.974 -56.917,-16.308"
             style="fill:none;stroke:#000000;stroke-width:15;stroke-linecap:round;stroke-linejoin:round;stroke-miterlimit:10;stroke-dasharray:none;stroke-opacity:1"
             id="path3878" /></g><g
           id="g3880"
           transform="translate(237.6582,292.3525)"><path
             d="M 0,0 C 3.002,-1.646 9.366,-4.613 17.943,-4.703 26.973,-4.798 33.67,-1.652 36.684,0"
             style="fill:none;stroke:#000000;stroke-width:15;stroke-linecap:round;stroke-linejoin:round;stroke-miterlimit:10;stroke-dasharray:none;stroke-opacity:1"
             id="path3882" /></g><g
           id="g3884"
           transform="translate(334.7964,370.5)"><path
             d="m 0,0 c 0,-17.617 -14.281,-31.898 -31.898,-31.898 -17.617,0 -31.898,14.281 -31.898,31.898 0,17.617 14.281,31.898 31.898,31.898 C -14.281,31.898 0,17.617 0,0 Z"
             style="fill:none;stroke:#000000;stroke-width:15;stroke-linecap:round;stroke-linejoin:round;stroke-miterlimit:10;stroke-dasharray:none;stroke-opacity:1"
             id="path3886" /></g><g
           id="g3888"
           transform="translate(302.8984,379.1943)"><path
             d="M 0,0 V -17.389"
             style="fill:none;stroke:#000000;stroke-width:15;stroke-linecap:round;stroke-linejoin:round;stroke-miterlimit:10;stroke-dasharray:none;stroke-opacity:1"
             id="path3890" /></g><g
           id="g3892"
           transform="translate(241,370.5)"><path
             d="m 0,0 c 0,-17.617 -14.281,-31.898 -31.898,-31.898 -17.617,0 -31.898,14.281 -31.898,31.898 0,17.617 14.281,31.898 31.898,31.898 C -14.281,31.898 0,17.617 0,0 Z"
             style="fill:none;stroke:#000000;stroke-width:15;stroke-linecap:round;stroke-linejoin:round;stroke-miterlimit:10;stroke-dasharray:none;stroke-opacity:1"
             id="path3894" /></g><g
           id="g3896"
           transform="translate(209.1016,379.1943)"><path
             d="M 0,0 V -17.389"
             style="fill:none;stroke:#000000;stroke-width:15;stroke-linecap:round;stroke-linejoin:round;stroke-miterlimit:10;stroke-dasharray:none;stroke-opacity:1"
             id="path3898" /></g><g
           id="g3900"
           transform="translate(240.3833,376.7529)"><path
             d="M 0,0 C 2.772,1.444 8.827,4.119 16.86,3.827 23.533,3.585 28.579,1.405 31.269,0"
             style="fill:none;stroke:#000000;stroke-width:15;stroke-linecap:round;stroke-linejoin:round;stroke-miterlimit:10;stroke-dasharray:none;stroke-opacity:1"
             id="path3902" /></g><g
           id="g3904"
           transform="translate(364.7964,390.7344)"><path
             d="M 0,0 -31.092,-11.948"
             style="fill:none;stroke:#000000;stroke-width:15;stroke-linecap:round;stroke-linejoin:round;stroke-miterlimit:10;stroke-dasharray:none;stroke-opacity:1"
             id="path3906" /></g><g
           id="g3908"
           transform="translate(147.2036,390.7344)"><path
             d="M 0,0 31.092,-11.948"
             style="fill:none;stroke:#000000;stroke-width:15;stroke-linecap:round;stroke-linejoin:round;stroke-miterlimit:10;stroke-dasharray:none;stroke-opacity:1"
             id="path3910" /></g><g
           id="g3912"
           transform="translate(237.6582,450.4229)"><path
             d="M 0,0 C 4.778,-1.085 10.953,-2.042 18.171,-2.057 25.544,-2.072 31.84,-1.101 36.684,0"
             style="fill:none;stroke:#000000;stroke-width:15;stroke-linecap:round;stroke-linejoin:round;stroke-miterlimit:10;stroke-dasharray:none;stroke-opacity:1"
             id="path3914" /></g><g
           id="g3916"
           transform="translate(250.1641,420.4229)"><path
             d="m 0,0 c 1.445,-0.428 3.536,-0.873 6.073,-0.844 2.31,0.027 4.226,0.438 5.599,0.844"
             style="fill:none;stroke:#000000;stroke-width:15;stroke-linecap:round;stroke-linejoin:round;stroke-miterlimit:10;stroke-dasharray:none;stroke-opacity:1"
             id="path3918" /></g><g
           id="g3920"
           transform="translate(275.1089,98.8994)"><path
             d="M 0,0 C 69.119,-16.658 128.246,-10.997 158.891,-6.324"
             style="fill:none;stroke:#000000;stroke-width:15;stroke-linecap:round;stroke-linejoin:round;stroke-miterlimit:10;stroke-dasharray:none;stroke-opacity:1"
             id="path3922" /></g><g
           id="g3924"
           transform="translate(93.2417,200.2637)"><path
             d="m 0,0 c 23.895,-23.486 59.928,-53.081 109.536,-76.142 12.998,-6.042 25.878,-11.147 38.54,-15.443"
             style="fill:none;stroke:#000000;stroke-width:15;stroke-linecap:round;stroke-linejoin:round;stroke-miterlimit:10;stroke-dasharray:none;stroke-opacity:1"
             id="path3926" /></g><g
           id="g3928"
           transform="translate(154.084,228.2217)"><path
             d="m 0,0 c 13.373,-13.59 29.513,-27.285 48.885,-39.601 90.866,-57.765 191.096,-45.904 231.031,-38.783"
             style="fill:none;stroke:#000000;stroke-width:15;stroke-linecap:round;stroke-linejoin:round;stroke-miterlimit:10;stroke-dasharray:none;stroke-opacity:1"
             id="path3930" /></g><g
           id="g3932"
           transform="translate(78,131.9609)"><path
             d="m 0,0 c 30.864,-23.358 76.392,-52.217 136.4,-73.043 92.249,-32.014 173.259,-29.266 219.6,-24.043"
             style="fill:none;stroke:#000000;stroke-width:15;stroke-linecap:round;stroke-linejoin:round;stroke-miterlimit:10;stroke-dasharray:none;stroke-opacity:1"
             id="path3934" /></g><g
           id="g3936"
           transform="translate(325.8228,235.2754)"><path
             d="M 0,0 C -3.094,-8.893 -8.173,-20.154 -16.718,-31.628 -35.333,-56.621 -59.307,-67.736 -71.247,-72.281"
             style="fill:none;stroke:#000000;stroke-width:15;stroke-linecap:round;stroke-linejoin:round;stroke-miterlimit:10;stroke-dasharray:none;stroke-opacity:1"
             id="path3938" /></g><g
           id="g3940"
           transform="translate(382.1455,218.6113)"><path
             d="m 0,0 c -1.748,-9.305 -4.894,-21.02 -10.775,-33.735 -8.637,-18.672 -19.69,-31.974 -27.959,-40.402"
             style="fill:none;stroke:#000000;stroke-width:15;stroke-linecap:round;stroke-linejoin:round;stroke-miterlimit:10;stroke-dasharray:none;stroke-opacity:1"
             id="path3942" /></g></g></g></g></svg>
