<?xml version="1.0"?>
<svg xmlns="http://www.w3.org/2000/svg" id="Layer_1" data-name="Layer 1" viewBox="0 0 128 128" width="512" height="512"><path d="M62.92,98.93a1,1,0,0,0-.74,1.86l.87.34a1,1,0,0,0,.37.08,1,1,0,0,0,.93-.63,1,1,0,0,0-.56-1.3Z"/><path d="M59.2,99.6A1,1,0,0,0,60,97.74l-4.69-1.87a1,1,0,0,0-.82,0l-4.36,2.17V92.24a1,1,0,0,0-2,0v6.07L34.15,93.8a1,1,0,0,0-.74,0L21.8,99.35a1,1,0,0,0,.43,1.9.94.94,0,0,0,.43-.1l11.25-5.33,14.86,4.82a1,1,0,0,0,.17,0,.7.7,0,0,0,.14,0h0a.71.71,0,0,0,.21,0,.61.61,0,0,0,.18,0h0l5.4-2.7Z"/><path d="M1.5,97.63H14.17l4.3,2a.92.92,0,0,0,.42.1,1,1,0,0,0,.42-1.91l-4.5-2.08a1,1,0,0,0-.42-.09H1.5a1,1,0,0,0,0,2Z"/><path d="M52.72,111.56l-1.49.9a1,1,0,0,0,.52,1.86,1,1,0,0,0,.52-.15l1.48-.89a1,1,0,0,0-1-1.72Z"/><path d="M56.58,111.4a1,1,0,0,0,.51-.14l28.23-17L99,100.64a1,1,0,1,0,.84-1.81L85.68,92.18a1,1,0,0,0-.94,0L56.06,109.55a1,1,0,0,0-.34,1.37A1,1,0,0,0,56.58,111.4Z"/><path d="M118.65,95.09l-12.53,7.14a1,1,0,0,0,.5,1.86,1,1,0,0,0,.49-.13l12.53-7.13a1,1,0,0,0,.38-1.36A1,1,0,0,0,118.65,95.09Z"/><path d="M126,90.91l-3.44,2a1,1,0,0,0-.38,1.36,1,1,0,0,0,.87.51,1.13,1.13,0,0,0,.5-.13l3.43-2a1,1,0,0,0,.38-1.37A1,1,0,0,0,126,90.91Z"/><path d="M15.92,50.56A1,1,0,0,0,15.63,52L28.36,71.59a1,1,0,0,0,.84.46A1,1,0,0,0,30,70.51L17.31,50.86A1,1,0,0,0,15.92,50.56Z"/><path d="M33.23,66.34a1,1,0,0,0,.54.15,1,1,0,0,0,.84-.46l5.78-9.09a1,1,0,0,0,0-1L39,53.37a1,1,0,0,0-1.75,1l1.13,2L32.92,65A1,1,0,0,0,33.23,66.34Z"/><path d="M34.25,49.23,39.46,47a1,1,0,0,0,.61-.92V41.59a1,1,0,0,0-2,0v3.86l-4.41,1.86H20.92a2.93,2.93,0,0,1-1.67-.53l-2.6-1.86a2.85,2.85,0,0,1-1.2-2.07l-.76-8a1,1,0,1,0-2,.19l.76,8a4.84,4.84,0,0,0,2,3.51l2.6,1.86a4.86,4.86,0,0,0,2.83.9H33.86A1,1,0,0,0,34.25,49.23Z"/><path d="M20.56,40.71A1.11,1.11,0,0,0,21,40.6l2.08-1.08H27l1.37,1a1,1,0,0,0,1.39-.22,1,1,0,0,0-.21-1.4l-1.64-1.19a1,1,0,0,0-.59-.19H22.86a1,1,0,0,0-.46.11l-2.3,1.19a1,1,0,0,0,.46,1.89Z"/><path d="M15.92,25.7l-1.46,2a1,1,0,0,0,1.63,1.17l1.25-1.75,4-1.16L23.08,27l-1.43,7.34a1,1,0,0,0,.16.77,1,1,0,0,0,.67.41l3.7.55h.15a1,1,0,0,0,.14-2l-2.66-.39,1.37-7a1,1,0,0,0-.47-1L22,24a1,1,0,0,0-.79-.1l-4.71,1.38A1,1,0,0,0,15.92,25.7Z"/><path d="M33.86,28.41a1,1,0,0,0,.46-1.89l-4.39-2.26a1,1,0,0,0-.82-.05l-1.31.51A1,1,0,0,0,27.22,26a1,1,0,0,0,1.29.58l.9-.35,4,2.06A1,1,0,0,0,33.86,28.41Z"/><path d="M20.37,30a1,1,0,0,0-.08-.38.87.87,0,0,0-.22-.32A1,1,0,0,0,19,29.12a.87.87,0,0,0-.32.22,1,1,0,0,0-.22.32,1,1,0,0,0-.07.38,1,1,0,0,0,.29.71A1,1,0,0,0,19,31a1.07,1.07,0,0,0,.39.07,1,1,0,0,0,.7-.29A1,1,0,0,0,20.37,30Z"/><path d="M30.48,31.05a1,1,0,0,0,.7-.3.87.87,0,0,0,.22-.32,1,1,0,0,0,.08-.39,1,1,0,0,0-.08-.38.87.87,0,0,0-.22-.32,1,1,0,0,0-1.63.32,1,1,0,0,0-.07.38,1,1,0,0,0,.07.39,1.07,1.07,0,0,0,.54.54A1.09,1.09,0,0,0,30.48,31.05Z"/><path d="M51.12,43a1,1,0,0,0-.29-.71,1,1,0,0,0-1.42,0,1,1,0,0,0-.29.71,1,1,0,0,0,.29.7,1,1,0,0,0,.71.3l.2,0L50.5,44l.18-.09.15-.13a1.21,1.21,0,0,0,.22-.32A1,1,0,0,0,51.12,43Z"/><path d="M73.44,60.58a1,1,0,0,0-.29.7,1,1,0,0,0,.07.38.83.83,0,0,0,.22.33,1,1,0,0,0,.71.29l.19,0,.19,0a1,1,0,0,0,.17-.1.57.57,0,0,0,.15-.12.83.83,0,0,0,.22-.33,1,1,0,0,0,.07-.38,1,1,0,0,0-.29-.7A1,1,0,0,0,73.44,60.58Z"/><path d="M100.45,61.93a1,1,0,0,0-.29-.71,1.19,1.19,0,0,0-.33-.22,1.14,1.14,0,0,0-.58-.06l-.18.06-.17.09-.16.13a1,1,0,0,0-.29.71,1,1,0,0,0,.29.7l.16.13.17.09.18.06.2,0a1,1,0,0,0,.38-.08.91.91,0,0,0,.33-.22A1,1,0,0,0,100.45,61.93Z"/><path d="M109.58,60.78a1.07,1.07,0,0,0-.54-.54,1,1,0,0,0-.77,0,.87.87,0,0,0-.32.22,1,1,0,0,0-.22.32,1,1,0,0,0-.07.38,1,1,0,0,0,.07.39,1.07,1.07,0,0,0,.54.54,1,1,0,0,0,.39.07,1,1,0,0,0,.38-.07,1,1,0,0,0,.32-.22.87.87,0,0,0,.22-.32,1,1,0,0,0,.08-.39A1,1,0,0,0,109.58,60.78Z"/><path d="M45.2,47a1,1,0,0,0,.15,1.41l1.75,1.43a1,1,0,1,0,1.27-1.55l-1.76-1.43A1,1,0,0,0,45.2,47Z"/><path d="M62.92,61.9,53,59.36,49.14,57.1l-.48-2.69a1,1,0,0,0-.41-.64L43.6,50.49a1,1,0,0,0-1.15,1.64l4.31,3,.49,2.73a1,1,0,0,0,.48.68l4.33,2.58a1.17,1.17,0,0,0,.26.1L62,63.72l4.38,8.92,2.58,4.28.61,2.93a1,1,0,0,0,.35.57L74.32,84a1,1,0,0,0,.63.22h0l10.31-.1a1,1,0,0,0,1-1,1,1,0,0,0-1-1h0l-10,.1-3.87-3.12-.57-2.74a1,1,0,0,0-.12-.32l-2.62-4.34-4.55-9.26A1,1,0,0,0,62.92,61.9Z"/><path d="M51.83,53.2l3.91-.31,2,.26.54.51a1,1,0,0,0,.69.28,1,1,0,0,0,.72-.31,1,1,0,0,0,0-1.41l-.77-.74a1,1,0,0,0-.57-.27l-2.45-.32h-.2l-4,.31a1,1,0,0,0,.16,2Z"/><path d="M36,39.38A1,1,0,0,0,37.37,39l2.42-4.19a1,1,0,0,0,.1-.76l-1.36-5a1,1,0,0,0-1.23-.7,1,1,0,0,0-.7,1.23l1.25,4.57L35.63,38A1,1,0,0,0,36,39.38Z"/><path d="M31.27,19.28a11.64,11.64,0,0,0-5-1.06,11.21,11.21,0,0,0-5.71,1.46,1,1,0,0,0,.52,1.85.94.94,0,0,0,.51-.14,9.18,9.18,0,0,1,4.68-1.17,9.63,9.63,0,0,1,4.1.86,1,1,0,0,0,1.34-.47A1,1,0,0,0,31.27,19.28Z"/><path d="M.6,32.46a1,1,0,0,0,1.33.46l6.38-3.07H12.4a1,1,0,0,0,1-1V26.58l4.52-6.94a6.52,6.52,0,0,1,2.63-2.32c3-1.42,8.57-3.19,12.6.88a81.87,81.87,0,0,1,8.69,10V31a1,1,0,0,0,.3.72,7.56,7.56,0,0,1,2.08,5c0,2.66-1.35,3.46-1.39,3.49a.94.94,0,0,0-.52.66l-1.57,6.59a1,1,0,0,0,.74,1.2.91.91,0,0,0,.23,0,1,1,0,0,0,1-.77l1.48-6.21a5.93,5.93,0,0,0,2.06-5,9.68,9.68,0,0,0-2.38-6.06V27.91a1,1,0,0,0-.17-.55,78.08,78.08,0,0,0-9.1-10.57c-4.9-4.95-11.43-2.92-14.88-1.27a8.44,8.44,0,0,0-3.44,3l-4.69,7.18a1.1,1.1,0,0,0-.16.55v1.57H8.08a1.13,1.13,0,0,0-.44.1L1.07,31.12A1,1,0,0,0,.6,32.46Z"/><path d="M56.33,45.26a1,1,0,0,0-.77.16l-2,1.45a1,1,0,0,0-.23,1.39,1,1,0,0,0,.82.42,1,1,0,0,0,.58-.19l1.66-1.19,2.11.4a1,1,0,0,0,.76-.16,1,1,0,0,0,.41-.66L60,45a1,1,0,0,0-.15-.72l-2.34-3.51,0-.15,2.67.78a1,1,0,0,0,.57-1.92l-3.64-1.06a1,1,0,0,0-.77.08,1,1,0,0,0-.48.61l-.44,1.57a1,1,0,0,0,.13.82l2.38,3.56-.08.47Z"/><path d="M53.52,37.83l-1.74-.63a1,1,0,0,0-.66,0l-2.87,1a1,1,0,0,0-.63,1.26,1,1,0,0,0,1,.68.93.93,0,0,0,.32,0l2.54-.86,1.41.51a1,1,0,1,0,.68-1.88Z"/><path d="M66.47,47.93l.17,0a1,1,0,0,0,.81-1.16L65.9,38a1,1,0,0,0-.31-.56l-7.43-6.9a1,1,0,0,0-.68-.27H51l-.77-.58a1,1,0,0,0-.61-.21h-2.8a1,1,0,0,0,0,2h2.47l.76.59a1,1,0,0,0,.61.2h6.39L64,38.65l1.49,8.45A1,1,0,0,0,66.47,47.93Z"/><path d="M68.54,68.43a1,1,0,0,0,1-1v-3a1,1,0,0,0-.29-.71L68.12,62.6a1,1,0,0,0-1.42,0,1,1,0,0,0,0,1.41l.84.84v2.58A1,1,0,0,0,68.54,68.43Z"/><path d="M77.69,60.69h.09a1,1,0,0,0,1-.91l.12-1.37a1,1,0,0,0-.85-1.08l-3.48-.52a1.14,1.14,0,0,0-.41,0l-3.86,1a1,1,0,0,0,.52,1.93l3.66-1,2.34.35,0,.43A1,1,0,0,0,77.69,60.69Z"/><path d="M102,73a1.05,1.05,0,0,0,.65-.23l.4-.35,3.36-.64,1.93.5a1,1,0,0,0,1.22-.72,1,1,0,0,0-.72-1.22l-2.15-.55a.93.93,0,0,0-.44,0l-3.83.72a1.05,1.05,0,0,0-.45.22l-.61.52A1,1,0,0,0,102,73Z"/><path d="M100.82,67.6a1,1,0,0,0,.91.58h4.81a1,1,0,1,0,0-2h-4.17l-.24-.52L104,62.21a1.09,1.09,0,0,0,.12-.56l-.27-3a1,1,0,0,0-.8-.9l-3.38-.64a.9.9,0,0,0-.49,0l-2,.65a1,1,0,0,0,.61,1.91l1.79-.57,2.39.45.17,2-1.93,3.63a1,1,0,0,0,0,.89Z"/><path d="M111.5,59.41a1,1,0,0,0,.75.33,1,1,0,0,0,.75-1.66l-1.2-1.34a1,1,0,0,0-.74-.33h-4a1,1,0,1,0,0,2h3.5Z"/><path d="M122.1,46.94a1,1,0,0,0,.51.14h3.89a1,1,0,0,0,0-2h-3.62L120,43.43a.9.9,0,0,0-.41-.13l-11.48-1.13a1.13,1.13,0,0,0-.26,0L97,43.93a1,1,0,0,0-.72.51L92.8,50.83a1.06,1.06,0,0,0-.12.42l0,.5-2.15,1L90,51.9a1,1,0,0,0-.61-.46,1.06,1.06,0,0,0-.76.11l-3.45,2.08c.39-1.71.81-5.13-2.4-7.32a9.67,9.67,0,0,0-5.49-1.43l-.63-.6A1,1,0,0,0,76,44H70.56a1,1,0,0,0,0,2h5l.65.62a1,1,0,0,0,.79.27A8.14,8.14,0,0,1,81.66,48c1.46,1,2,2.42,1.69,4.53l-5.78-3a1,1,0,0,0-.57-.11l-2.26.24-3.3-.24a1,1,0,0,0-1.06.8l-.6,3L64.53,59a1,1,0,0,0,.08,1.41A1,1,0,0,0,66,60.34l5.43-6.06a1,1,0,0,0,.23-.47l.49-2.37,2.51.18a.54.54,0,0,0,.18,0l2-.21,6.19,3.2.2,5.07-1.59-.22a1,1,0,0,0-.89.33,1,1,0,0,0-.2.93L82,65.46l-1.5,1.77a42.18,42.18,0,0,0-5.24-1h0c-1,0-2.7,1.34-3.95,2.45a1,1,0,0,0-.32.61l-.51,3.59a1,1,0,0,0,1.3,1.09l3.64-1.21,3.37.45,2.07,1.57v2l-1.53.95-3.1-.56a1,1,0,0,0-.35,2l3.47.63h.18a1,1,0,0,0,.52-.15l2.34-1.45a1,1,0,0,0,.47-.85V74.78a3.71,3.71,0,0,0,1.71-4,6.06,6.06,0,0,0-2.22-2.66l1.54-1.8a1,1,0,0,0,.21-.93L83,61.65l1.26.17a1,1,0,0,0,.81-.25,1,1,0,0,0,.32-.78L85.16,56l3.65-2.2.43.71a1,1,0,0,0,1.27.4l2-.9-.22,3.74a1,1,0,0,0,.1.5l3.08,6.26-.29,3.36a1.08,1.08,0,0,0,.07.47l3.18,7.79-.08,0a2.18,2.18,0,0,0-.12,3.72l4,2.63a1,1,0,0,0,.28.12l2.45.71a1.26,1.26,0,0,0,.27,0,.76.76,0,0,0,.21,0l7.88-1.69a.92.92,0,0,0,.49-.27l5.71-5.62a1,1,0,0,0-1.4-1.42l-5.5,5.42-7.35,1.58-2.06-.6-3.85-2.54a.18.18,0,0,1-.09-.16.19.19,0,0,1,.1-.16l.55-.32,2.74.34a1,1,0,0,0,.87-.33l1.17-1.31,5.26.57a1,1,0,0,0,.83-.3l2.78-2.89h1.08a1,1,0,0,0,.61-.21l4.38-3.4,5.3,1.38a1.07,1.07,0,0,0,.25,0h1.32a1,1,0,0,0,0-2h-1.19l-4.9-1.28V61.93a1,1,0,0,0-.63-.93l-3.07-1.23a1,1,0,0,0-.74,1.86l2.44,1v5.87l-4.12,3.19h-1.16a1,1,0,0,0-.72.3l-2.73,2.85-5.29-.57a1,1,0,0,0-.86.33l-1.15,1.3-2-.24L97.2,67.8l.3-3.4a1,1,0,0,0-.1-.53l-3.09-6.28.35-6,3.17-5.77,10.25-1.66,11.14,1.09ZM81.85,73l-2.12-1.6a1,1,0,0,0-.47-.19l-3.86-.52h-.13a.89.89,0,0,0-.32,0l-2.32.77.24-1.62a11.38,11.38,0,0,1,2.37-1.71h0a52.55,52.55,0,0,1,5.18,1.09,6.73,6.73,0,0,1,2.17,2.06A1.69,1.69,0,0,1,81.85,73Z"/><path d="M115.21,56.86l.25,0a1,1,0,0,0,1-.75l.49-1.9a1,1,0,0,0-.33-1l-4.77-4a1,1,0,0,0-.7-.22l-8.6.59a1,1,0,0,0-.66.31l-3,3.19-2.79,1a1,1,0,1,0,.7,1.87l3-1.13a1,1,0,0,0,.38-.25l2.87-3.07,7.81-.54,4,3.29-.34,1.29A1,1,0,0,0,115.21,56.86Z"/><path d="M57.31,81.39a1,1,0,0,0-1,1V85a1,1,0,1,0,2,0V82.39A1,1,0,0,0,57.31,81.39Z"/><path d="M28.6,76.85a1,1,0,0,0,1,.07l22-11.4,4.69,3.9v7.13a1,1,0,1,0,2,0V69a1,1,0,0,0-.37-.77l-5.55-4.63a1,1,0,0,0-1.1-.12l-22,11.43-12-8.53a1.18,1.18,0,0,0-.59-.19l-4,0L4.85,60.89,13,58.49a.94.94,0,0,0,.56-.42l1.2-1.89a1,1,0,1,0-1.69-1.07l-1,1.57L2.24,59.57A1,1,0,0,0,2,61.36L11.84,68a.89.89,0,0,0,.57.17l4,0Z"/><path d="M60.66,59.74a1,1,0,0,0,.73-.31l1.71-1.82a1,1,0,0,0,.28-.63l.42-8.61a1,1,0,1,0-2-.1l-.41,8.24-1.47,1.55a1,1,0,0,0,0,1.41A1,1,0,0,0,60.66,59.74Z"/><path d="M89,87.4a1,1,0,0,0,.51-.14l6.56-3.84a1,1,0,0,0,.36-1.37A1,1,0,0,0,95,81.69l-6.56,3.85a1,1,0,0,0-.36,1.36A1,1,0,0,0,89,87.4Z"/><path d="M25.1,80.13V92.24a1,1,0,0,0,2,0V80.13a1,1,0,0,0-2,0Z"/><path d="M13.14,80.28a1,1,0,0,0-.51-.87L6.12,75.68a1,1,0,1,0-1,1.74l6,3.44v3.6a1,1,0,0,0,2,0Z"/><path d="M12.14,87.67a1,1,0,0,0-1,1V90a1,1,0,0,0,2,0V88.67A1,1,0,0,0,12.14,87.67Z"/></svg>
