<svg id="mountain" enable-background="new 0 0 512 512" height="512" viewBox="0 0 512 512" width="512" xmlns="http://www.w3.org/2000/svg"><path id="_x31_1_1_" d="m462.015 307.855c-21.25-16.996-38.813-51.773-38.988-52.125-.949-1.902-2.902-3.105-5.027-3.105h-15.914c-11.887-10.559-28.918-32.797-45.406-54.328-13.918-18.172-27.098-35.379-36.73-44.941-.559-2.191-2.363-3.773-4.52-4.129-3.898-3.199-6.977-4.602-9.93-4.602-9.598 0-15.953 7.227-18.352 11.754-6.684 9.875-21.305 22.594-27.406 27.703l-5.726-2.863c-2.785-1.395-6.156-.27-7.547 2.516-2.789 5.582-26.664 35.184-43.922 56.051-13.422-18.949-27.07-23.16-36.547-23.16-11.133 0-22.734 20.574-27.371 29.789-35.023 52.395-87.973 92.438-88.504 92.836-1.645 1.234-2.484 3.266-2.191 5.301.289 2.035 1.668 3.742 3.59 4.469 7.324 2.742 14.531 4.137 21.414 4.137 20.43 0 32.801-11.938 37.313-17.281h12.664c23.441 26.547 54.449 31.254 55.789 31.441.266.043.531.059.797.059 10.801 0 16.883-2.633 19.84-4.5h29.659c1.809 0 3.508-.871 4.563-2.336 1.059-1.465 1.348-3.352.773-5.07-5.277-15.836-23.781-17.215-27.289-17.336-11.18-2.016-19.871-10.586-25.883-18.953 8.785 3.133 15.848 3.195 16.336 3.195 2.273 0 4.328-1.371 5.195-3.473.871-2.098.391-4.52-1.219-6.129-32.055-32.055-38.207-60.535-38.848-63.973.051-2.559.508-4.652 1.152-6.344 25.129 64.102 121.582 108.941 125.871 110.91.738.332 1.539.508 2.348.508h67.5c2.84 0 5.238-2.117 5.582-4.938.352-2.82-1.461-5.457-4.219-6.145-13.695-3.426-38.715-23.043-47.203-30.316-2.227-1.91-5.559-1.781-7.637.297-8.555 8.555-14.164 10.352-17.355 10.352-4.746 0-7.523-4.297-8.684-6.656 4.086-13.852 4.141-30.484 4.141-31.219 0-2.609-1.793-4.875-4.332-5.477-.109-.023-.223-.047-.336-.066 7.305-9.07 13.211-17.906 17.059-24.031 14.773 18.426 46.715 25.719 48.262 26.066 2.656.566 5.336-.789 6.398-3.285 1.059-2.488.199-5.383-2.055-6.887-19.566-13.043-36.039-67.785-41.809-92.004 3.102-2.563 5.457-5.336 7.242-8.059 16.406 35.883 60.457 90.82 80.629 115.082 2.934 4.129 6.238 8.043 9.84 11.637 1.094 1.098 2.535 1.648 3.977 1.648h.086c3.113 0 5.625-2.52 5.625-5.625 0-1.719-.762-3.25-1.977-4.285-1.148-1.344-4.156-4.863-8.41-9.98 16.566 14.852 46.992 34.363 51.156 37.012 2.52 1.598 5.859.961 7.594-1.477 1.743-2.43 1.27-5.797-1.058-7.665z" fill="rgb(0,0,0)"/></svg>