<?xml version="1.0" encoding="UTF-8"?>
<svg xmlns="http://www.w3.org/2000/svg" xmlns:xlink="http://www.w3.org/1999/xlink" version="1.1" id="Capa_1" x="0px" y="0px" viewBox="0 0 512.196 512.196" style="enable-background:new 0 0 512.196 512.196;" xml:space="preserve" width="512" height="512">
<g>
	<path d="M372.058,46.953l-45.009-3.483l0.847,22.553l80.024,0v0C399.14,54.954,386.145,48.043,372.058,46.953z"/>
	<path d="M296.742,460.602c-10.415,6.477-21.598,11.582-33.353,15.121c-4.619,9.549-11.038,17.065-18.531,21.573V502h88.733&#10;&#9;&#9;C333.591,480.517,317.517,463.157,296.742,460.602z"/>
	<path style="fill:none;stroke:#000000;stroke-width:20;stroke-linecap:round;stroke-linejoin:round;stroke-miterlimit:10;" d="&#10;&#9;&#9;M372.058,46.953l-45.009-3.483l0.847,22.553l80.024,0v0C399.14,54.954,386.145,48.043,372.058,46.953z"/>
	<path style="fill:none;stroke:#000000;stroke-width:20;stroke-linecap:round;stroke-linejoin:round;stroke-miterlimit:10;" d="&#10;&#9;&#9;M323.206,93.678l4.69-27.655l-0.847-22.553c-9.2-19.7-28.934-33.47-52.111-33.47c-31.902,0-57.763,25.862-57.763,57.764&#10;&#9;&#9;l-0.004-0.003c-39.897,69.019-62.73,149.137-62.73,234.59c0,27.144,1.069,54.039,3.168,80.643&#10;&#9;&#9;c3.544,44.928-17.745,91.044-53.089,119.007c-0.431,0.34-0.202,0.167,0.015,0c30.356-0.656,68.335-7.37,90.347-23.939&#10;&#9;&#9;c7.802,14.62,19.972,23.939,33.656,23.939c14.396,0,27.125-10.315,34.845-26.265c63.401-19.088,110.082-83.992,110.082-161.137&#10;&#9;&#9;C373.465,234.327,354.728,159.851,323.206,93.678z"/>
	<path style="fill:none;stroke:#000000;stroke-width:20;stroke-linecap:round;stroke-linejoin:round;stroke-miterlimit:10;" d="&#10;&#9;&#9;M297.856,460.74c20.235,3.027,35.735,20.161,35.735,41.26v0H228.538"/>
	<g>
		<polygon points="193.705,477.778 193.703,477.778 193.703,477.778 &#9;&#9;"/>
		<path d="M323.206,93.678l4.69-27.654l-0.847-22.553c-9.2-19.7-28.934-33.47-52.111-33.47c-31.902,0-57.763,25.861-57.763,57.763&#10;&#9;&#9;&#9;l-0.004-0.002c-39.897,69.019-62.73,149.138-62.73,234.59c0,27.144,1.069,54.039,3.168,80.643&#10;&#9;&#9;&#9;c3.544,44.928-17.745,91.045-53.089,119.007c-0.431,0.341-0.202,0.167,0.015,0c30.353-0.657,58.519-10.193,82.003-26.116&#10;&#9;&#9;&#9;l-0.001-0.001c2.364,0.703,4.758,1.321,7.166,1.895c-0.082-2.83-0.13-5.672-0.13-8.534c0-57.486,16.818-108.845,43.201-142.783&#10;&#9;&#9;&#9;c1.781-2.291,5.452-1.246,5.786,1.637l6.193,53.437c0.512,4.42,5.958,6.221,9.013,2.986&#10;&#9;&#9;&#9;c23.996-25.405,38.708-59.672,38.708-97.377c0-25.715-6.847-49.83-18.812-70.626c-3.06-5.318-4.482-11.42-4.243-17.551&#10;&#9;&#9;&#9;l2.07-53.091c0.18-5.467-3.14-10.395-8.223-12.416c-5.762-2.291-10.762-5.955-14.693-10.441&#10;&#9;&#9;&#9;c-11.375-12.986-3.093-33.51,14.293-34.9c8.097-0.648,15.894,3.273,20.627,9.875c7.978,11.126,19.205,20.28,45.298,17.793&#10;&#9;&#9;&#9;C337.34,127.029,329.721,107.355,323.206,93.678z M287.408,72.212c-6.75,0-12.222-5.472-12.222-12.222s5.472-12.222,12.222-12.222&#10;&#9;&#9;&#9;c6.75,0,12.222,5.472,12.222,12.222S294.158,72.212,287.408,72.212z"/>
	</g>
</g>















</svg>
