<svg id="Layer_1" enable-background="new 0 0 60 60" height="512" viewBox="0 0 60 60" width="512" xmlns="http://www.w3.org/2000/svg"><path d="m9.19 35.33c.85 1.16 2.17 1.81 3.56 1.81.34 0 .7-.04 1.04-.12 3.5-.85 10.02-2.47 16.34-4.22l-3.03 7.15c-.14.31-.1.66.08.94.19.28.5.45.84.45 2.51 0 4.89-1.11 6.5-3.05 2.02-2.41 4.56-5.78 5.64-8.48.64-.22 1.25-.43 1.82-.63 6.17-2.22 9.89-3.7 11.89-5.18.94-.71 1.34-1.89 1.03-3.01-.32-1.12-1.28-1.91-2.44-2.01l-3.3-.29c-1.19-.1-2.4.08-3.5.52l-12.44 4.95c-3.43-1.07-9.04-1.78-12.15-2.11-1.91-.21-3.77.47-5.1 1.85-.24.24-.34.59-.26.92s.32.6.64.72l7.14 2.5-8.13 3.23-6.11-3.77c-.25-.16-.56-.19-.84-.09l-2.73.92c-.3.1-.54.34-.63.65-.1.3-.04.63.15.89z"/></svg>