<svg id="solid_final" height="512" viewBox="0 0 48 48" width="512" xmlns="http://www.w3.org/2000/svg" data-name="solid final"><path d="m26.63 8.07v-7.32h-5.25v7.316l2.62-.952z"/><path d="m38.64 23.424v-9.394l-14.64-5.32-14.63 5.32v9.389l14.63-7.939zm-6.088-7.883a.748.748 0 0 1 .961-.448l2.054.747a.75.75 0 0 1 -.513 1.409l-2.054-.749a.751.751 0 0 1 -.448-.959zm-3.942-1.608a.749.749 0 0 1 .961-.449l2.053.747a.75.75 0 0 1 -.513 1.41l-2.053-.747a.75.75 0 0 1 -.448-.961zm-13.682 2.567-2.053.747a.75.75 0 1 1 -.513-1.409l2.054-.747a.75.75 0 0 1 .512 1.409zm3.943-1.608-2.054.747a.763.763 0 0 1 -.256.045.75.75 0 0 1 -.256-1.455l2.053-.747a.75.75 0 0 1 .513 1.41z"/><path d="m16.25 47.25h15.5c-2.94 0-5.488-3.78-7.75-3.78s-4.81 3.78-7.75 3.78z"/><path d="m.75 47.25h15.5c-2.94 0-5.488-3.78-7.75-3.78s-4.81 3.78-7.75 3.78z"/><path d="m39.5 43.47c-2.262 0-4.81 3.78-7.75 3.78h15.5c-2.94 0-5.488-3.78-7.75-3.78z"/><path d="m8.5 41.97c1.55 0 2.928 1.015 4.259 2 1.189.877 2.418 1.783 3.491 1.783s2.3-.906 3.491-1.783a9.556 9.556 0 0 1 3.509-1.911v-18.409a.75.75 0 0 1 1.5 0v18.406a9.556 9.556 0 0 1 3.509 1.911c1.189.877 2.418 1.783 3.491 1.783s2.3-.906 3.491-1.783c1.331-.982 2.709-2 4.259-2a3.562 3.562 0 0 1 .452.036l5.938-12.943-21.14-11.46v3.03a.75.75 0 0 1 -1.5 0v-3.03l-21.13 11.46 6.124 12.93c.085-.006.169-.02.256-.02z"/></svg>