<?xml version="1.0" encoding="UTF-8" standalone="no"?>
<!-- Created with Inkscape (http://www.inkscape.org/) -->

<svg
   version="1.1"
   id="svg1563"
   xml:space="preserve"
   width="682.66669"
   height="682.66669"
   viewBox="0 0 682.66669 682.66669"
   xmlns="http://www.w3.org/2000/svg"
   xmlns:svg="http://www.w3.org/2000/svg"><defs
     id="defs1567"><clipPath
       clipPathUnits="userSpaceOnUse"
       id="clipPath1577"><path
         d="M 0,512 H 512 V 0 H 0 Z"
         id="path1575" /></clipPath></defs><g
     id="g1569"
     transform="matrix(1.3333333,0,0,-1.3333333,0,682.66667)"><g
       id="g1571"><g
         id="g1573"
         clip-path="url(#clipPath1577)"><g
           id="g1579"
           transform="translate(363.0684,244.3413)"><path
             d="m 0,0 31.528,3.72 c 7.589,0.895 13.767,5.652 16.847,12.065 L -0.674,5.781 C -0.302,3.887 -0.074,1.955 0,0"
             style="fill:#000000;fill-opacity:1;fill-rule:nonzero;stroke:none"
             id="path1581" /></g><g
           id="g1583"
           transform="translate(184.3867,177.6772)"><path
             d="m 0,0 59.463,-29.398 v -85.552 c 0,-14.839 12.029,-26.867 26.867,-26.867 14.838,0 26.866,12.028 26.866,26.867 v 102.24 c 0,10.22 -5.798,19.554 -14.959,24.084 L 61.306,29.632 6.286,2.183 C 4.297,1.19 2.176,0.464 0,0"
             style="fill:#000000;fill-opacity:1;fill-rule:nonzero;stroke:none"
             id="path1585" /></g><g
           id="g1587"
           transform="translate(153.0562,198.1904)"><path
             d="m 0,0 -5.864,28.753 c -2.909,14.265 6.262,28.195 20.597,31.119 l 30.612,6.183 c 0.293,2.436 -0.16,-0.384 13.596,63.511 l 2.85,-60.306 c 0.435,-9.206 6.692,-17.111 15.553,-19.647 l 89.225,-25.55 c 11.36,-3.251 23.297,3.283 26.579,14.747 3.269,11.412 -3.334,23.312 -14.745,26.579 l -74.402,21.304 -2.122,44.904 9.628,-30.347 5.851,-1.676 c 3.19,1.132 2.473,0.664 29.725,6.323 l -6.158,7.881 2.31,4.989 c 7.578,16.36 0.458,35.767 -15.902,43.345 l -52.829,24.469 c -16.36,7.578 -35.766,0.458 -43.344,-15.903 l -69.265,-152.516 -0.108,-0.508 -13.925,-74.625 -88.385,-55.771 c -12.549,-7.919 -16.303,-24.51 -8.384,-37.059 7.929,-12.568 24.527,-16.291 37.058,-8.384 l 98.307,62.032 c 6.326,3.991 10.701,10.44 12.073,17.793 L 10.18,-15.933 C 4.998,-12.087 1.304,-6.395 0,0"
             style="fill:#000000;fill-opacity:1;fill-rule:nonzero;stroke:none"
             id="path1589" /></g><g
           id="g1591"
           transform="translate(276.6006,383.9502)"><path
             d="M 0,0 C 24.219,-11.218 52.947,-0.678 64.165,23.541 75.382,47.76 64.843,76.488 40.624,87.706 16.404,98.924 -12.323,88.384 -23.541,64.165 -34.759,39.946 -24.219,11.218 0,0"
             style="fill:#000000;fill-opacity:1;fill-rule:nonzero;stroke:none"
             id="path1593" /></g><g
           id="g1595"
           transform="translate(200.165,250.8267)"><path
             d="m 0,0 -29.703,-6 c -6.965,-1.42 -11.461,-8.219 -10.04,-15.185 l 5.865,-28.753 c 1.699,-8.334 10.837,-12.699 18.358,-8.946 l 66.549,33.201 -25.215,7.22 C 22.294,-16.784 6.497,-16.284 0,0"
             style="fill:#000000;fill-opacity:1;fill-rule:nonzero;stroke:none"
             id="path1597" /></g><g
           id="g1599"
           transform="translate(500.3237,331.1343)"><path
             d="m 0,0 -14.316,-2.92 -1.702,8.342 c -1.077,5.282 -6.228,8.661 -11.478,7.59 -5.266,-1.074 -8.663,-6.213 -7.589,-11.478 l 1.701,-8.343 -168.951,-34.457 37.89,-10.849 c 9.271,-2.655 16.721,-8.572 21.469,-16.146 l 52.313,10.669 c 5.266,1.074 8.664,6.213 7.59,11.479 -0.838,4.106 -4.151,7.066 -8.065,7.665 l 95.027,19.38 c 5.265,1.074 8.663,6.213 7.589,11.479 C 10.401,-2.308 5.25,1.07 0,0"
             style="fill:#000000;fill-opacity:1;fill-rule:nonzero;stroke:none"
             id="path1601" /></g></g></g></g></svg>
