<svg id="Capa_1" enable-background="new 0 0 512 512" height="512" viewBox="0 0 512 512" width="512" xmlns="http://www.w3.org/2000/svg"><g><path d="m483.311 512-32.442-64.255h-122.665l32.442 64.255h35.354v-10.434c0-8.284 6.716-15 15-15s15 6.716 15 15v10.434z"/><path d="m28.689 512h57.311v-10.434c0-8.284 6.716-15 15-15s15 6.716 15 15v10.434h35.354l32.442-64.255h-122.665z"/><path d="m198.88 174.923h114.24l-44.249-87.553 33.17-65.607c3.734-7.395.766-16.417-6.629-20.151s-16.417-.765-20.15 6.629l-19.262 38.151-19.262-38.149c-3.732-7.395-12.755-10.362-20.15-6.629-7.395 3.734-10.363 12.756-6.629 20.151l33.17 65.606z"/><path d="m242.61 331.26c5.547-10.986 21.233-10.986 26.78 0l43.667 86.485h122.665l-59.537-117.915h-240.37l-59.537 117.916h122.665z"/><path d="m211 258c0-8.284 6.716-15 15-15s15 6.716 15 15v11.83h30v-11.83c0-8.284 6.716-15 15-15s15 6.716 15 15v11.83h60.038l-32.772-64.907h-144.533l-32.772 64.907h60.039z"/><path d="m184.961 512h142.078l-71.039-140.698z"/></g></svg>