<svg id="Layer_1" enable-background="new 0 0 450 450" height="512" viewBox="0 0 450 450" width="512" xmlns="http://www.w3.org/2000/svg"><g><g><g id="XMLID_1_"><path d="m46.58 148.47c-14.54 10.26-26.76 21.74-36.58 34.34v-70.91z"/><path d="m45.34 248.9-35.34 35.34v-68.8c9.53 12.23 21.35 23.42 35.34 33.46z"/><path d="m301.71 309.96v41.81h-80.22l-8.91-46.25c38.98 4.86 68 4.63 70.02 4.61 2.34.05 4.67.08 6.97.08 4.12-.01 8.16-.09 12.14-.25z"/><path d="m432.19 225.73c-3.4 7.56-8.21 16.03-14.95 24.46-23.57 29.39-61.66 46.24-110.95 49.32-7.58.47-15.43.61-23.54.43h-.2c-.41.01-32.89.45-75.85-5.46-11.69-1.61-24.17-3.69-36.98-6.37-35.64-7.47-78.69-20.74-113.61-44.22-10.72-7.22-20.68-15.39-29.42-24.66 31.56 15.8 78.93 27.22 141.43 34.07 59.86 6.54 112.51 6.28 114.51 6.26 2.36.03 4.7.05 6.99.05 82.76-.02 123.05-17.76 142.57-33.88z"/><path d="m440 199.12c-1.05 3.21-5.72 14.12-22.81 24.86-19.21 12.07-58.16 26.29-134.5 25.36h-.1c-2.05.02-200.35 1.1-269.52-50.23 69.17-51.31 267.49-50.25 269.52-50.23h.1c76.41-.9 115.29 13.29 134.5 25.36 17.09 10.76 21.76 21.67 22.81 24.88z"/><path d="m432.13 172.46c-20.09-16.58-62.1-34.8-149.51-33.76-2-.02-54.65-.29-114.51 6.27-62.5 6.84-109.87 18.27-141.43 34.07 9.08-9.63 19.48-18.08 30.69-25.51 34.64-22.93 77-35.96 112.14-43.34 59.9-12.57 112.51-11.89 113.03-11.88h.2c60.5-1.37 106.91 15.69 134.15 49.33 6.91 8.51 11.79 17.13 15.24 24.82z"/></g></g></g></svg>