<svg width="444" height="444" xmlns="http://www.w3.org/2000/svg" xmlns:xlink="http://www.w3.org/1999/xlink" xml:space="preserve" overflow="hidden"><defs><clipPath id="clip0"><rect x="154" y="791" width="444" height="444"/></clipPath></defs><g clip-path="url(#clip0)" transform="translate(-154 -791)"><path d="M248.281 1078.39C246.629 1078.39 244.978 1079 243.757 1080.14 242.536 1081.28 241.815 1082.94 241.829 1084.64 241.829 1086.86 242.994 1088.87 244.631 1090.16 278.653 1119.7 315.921 1147.16 366.038 1147.17 367.009 1147.17 367.994 1147.16 369.007 1147.13 400.892 1146.39 436.953 1135.63 464.953 1118.05L465.119 1117.94C468.782 1115.73 472.459 1113.25 475.9 1110.47 478.065 1108.88 479.535 1106.41 479.535 1103.81 479.452 1099.19 475.539 1096.08 471.321 1096.08 470.003 1096.07 468.63 1096.38 467.339 1097 465.91 1097.57 464.425 1098.22 463.052 1098.82L460.998 1099.68 458.362 1100.75 458.362 1100.76C429.571 1112.43 399.324 1119.28 371.338 1119.91 370.311 1119.93 369.285 1119.93 368.258 1119.93 324.246 1119.95 288.324 1099.52 252.11 1079.41 250.834 1078.74 249.543 1078.39 248.281 1078.39ZM488.998 1068.22C484.364 1068.22 479.244 1068.67 474.124 1069.78L474.11 1069.44 468.962 1071.15 468.879 1071.21 465.966 1072.15 465.966 1072.27C462.538 1073.69 459.43 1075.48 456.544 1077.55 454.741 1078.91 453.242 1080.68 453.159 1083.4 453.117 1084.89 453.88 1086.61 455.129 1087.62 456.378 1088.63 457.821 1088.97 459.097 1088.97 459.417 1088.97 459.694 1088.95 459.958 1088.91L460.18 1088.9 460.388 1088.85C462.899 1088.31 466.59 1087.97 470.891 1087.36 474.582 1086.95 478.495 1086.63 481.88 1086.63 484.281 1086.63 486.445 1086.8 487.93 1087.12 488.679 1087.29 489.22 1087.47 489.539 1087.63 489.65 1087.68 489.733 1087.7 489.761 1087.74 489.831 1087.95 489.914 1088.48 489.9 1089.23 489.955 1092.06 488.734 1097.35 487.097 1102.48 485.488 1107.63 483.517 1112.79 482.227 1116.22 481.908 1117.01 481.741 1117.88 481.741 1118.82 481.7 1120.2 482.269 1121.86 483.462 1122.99 484.613 1124.08 486.126 1124.54 487.388 1124.54L487.444 1124.54C489.345 1124.51 490.954 1123.75 492.356 1122.67 505.454 1110.87 510.005 1092.06 510.199 1081.49L510.143 1079.78 510.13 1079.78C510.019 1076.98 509.436 1074.85 508.257 1073.09L508.146 1072.91 508.007 1072.73C506.814 1071.43 505.676 1070.96 504.441 1070.4 500.778 1068.99 495.422 1068.24 488.998 1068.22ZM390.388 980.671 390.388 987.789C390.361 1001.46 390.943 1012.11 383.853 1023.96 379.705 1032.23 372.601 1037.56 364.9 1039.38 363.707 1039.38 361.945 1039.95 360.155 1039.95 347.14 1039.95 339.439 1029.86 339.439 1015.07 339.439 996.086 350.706 987.206 364.914 983.058 372.615 981.296 381.495 980.671 390.388 980.671ZM364.9 878.815C334.708 880.577 302.726 893.619 295.608 930.957 294.415 935.702 297.995 937.464 300.354 938.047L333.501 942.196C337.067 941.599 338.857 938.63 339.426 935.688 342.395 922.646 353.051 916.125 364.9 914.945L367.287 914.945C374.391 914.945 382.077 917.915 386.226 923.839 390.957 930.957 390.388 940.42 390.388 948.731L390.361 953.476C382.66 954.059 373.766 954.642 364.886 955.821 351.261 957.625 337.65 959.984 326.397 965.325 304.488 974.205 289.67 993.159 289.67 1021.01 289.67 1055.97 312.175 1073.74 340.619 1073.74 350.095 1073.74 357.796 1072.54 364.886 1070.79 376.153 1067.22 385.602 1060.72 396.882 1048.85 403.389 1057.73 405.165 1061.9 416.418 1071.37 419.373 1072.54 422.343 1072.54 424.701 1070.8 431.833 1064.86 444.251 1054.19 450.745 1048.27 453.728 1045.91 453.117 1042.35 451.328 1039.4 444.834 1031.11 438.313 1023.99 438.313 1007.98L438.313 954.656C438.313 932.136 440.089 911.393 423.522 896.006 409.911 883.574 388.585 878.815 372.004 878.815ZM376 791C498.613 791 598 890.387 598 1013 598 1135.6 498.613 1235 376 1235 253.387 1235 154 1135.6 154 1013 154 890.387 253.387 791 376 791Z" fill="#333333" fill-rule="evenodd"/></g></svg>