<svg id="f0e1448a-b3da-464c-978f-5c9da65548d1" viewBox="0 0 64 64" xmlns="http://www.w3.org/2000/svg" data-name="Glyph"><path d="m47.19711 30.10138a10.50972 10.50972 0 0 0 -1.52991-3.34983l-3.41989 1.01991a12.23479 12.23479 0 0 1 1.82993 6.17979l3.3399-1c.06-.02.1-.05.1-.06a11.462 11.462 0 0 0 -.32003-2.78987z"/><path d="m22.21821 15.762c6.42957 8.63932 4.977 19.68718 19.70915 16.69913a9.81706 9.81706 0 0 0 -1.47994-3.78972 1.55423 1.55423 0 0 1 .62-2.63991l4.06976-1.20989a1.877 1.877 0 0 1 2.12992.71994 12.44657 12.44657 0 0 1 2.0399 4.85981c4.90865-1.77527 6.8892-4.07618 5.42969-9.68971a32.37164 32.37164 0 0 0 -5.41955-9.8395c-2.09026-2.58043-4.96132-1.74252-7.97976-1.20973a6.75252 6.75252 0 0 0 -7.81971-5.54983c-3.84526.63932-5.94211 4.139-5.58962 7.82963-1.68112.46819-7.141.478-6.59989 2.62976.04005.11008.35004.44008.89005 1.19002zm11.69951-9.68955a4.73744 4.73744 0 0 1 5.42972 3.80988l-9.4196 1.58985v-.75a4.71833 4.71833 0 0 1 3.98988-4.64973z"/><path d="m27.018 55.39032c-.87573-6.85458-1.59291-13.52913-2.15-19.70915-.212-2.4598-.39706-5.10438-.6399-7.53967-.50227-3.28043-.22807-5.48263-1.48978-7.72974a26.3236 26.3236 0 0 0 -2.86004-4.40976c-1.31618 3.50447-1.61672 6.582-2.09 10.67954-.47536 8.00217-3.49847 23.50475 3.22962 29.81883.39032.44989 2.28025 2.31981 6.52006 3.11976-.15696-1.3792-.34196-2.84313-.51996-4.22981z"/><path d="m59.31658 43.30082c-9.82328 3.99333-21.6708 7.04255-30.81867 7.83969.23691 1.86961.57376 4.63847.85 6.72969.21378 2.42609.05721 2.09312 2.44 2.1298a35.37989 35.37989 0 0 0 7.5295-.87986c.4-.06 9.75959-1.49993 15.10933-4.34985 4.26576-2.2354 5.3057-6.87323 4.88984-11.46947z"/><path d="m55.20678 42.74085c1.29371-.46369 2.55355-.95373 3.81984-1.47a45.93088 45.93088 0 0 0 -2.15-6.72968l-1.68986-5.1898c-1.77885 1.63252-3.5596 2.24158-5.68966 3.12l.00991.46987a2.04262 2.04262 0 0 1 -1.52 1.92991l-3.77981 1.12a1.59584 1.59584 0 0 1 -2.11989-1.52c-6.96575 1.43441-12.82565-.1886-15.88922-6.70984.63084 7.30921 1.15509 13.52687 2.06989 21.38919a111.2219 111.2219 0 0 0 26.9388-6.40965z"/><path d="m16.91845 54.34032a19.98249 19.98249 0 0 1 -1.61992-5.27974 7.38461 7.38461 0 0 1 -2.86993-4.78983c-.70993-3.59982.23-7.62962 2.78991-11.98947.13109-1.357.26632-2.33966.38-3.81984a77.771 77.771 0 0 1 1.3499-9.62959c-7.71112 4.06869-14.62465 17.27593-11.63924 27.18889 1.12969 4.38976 3.36959 7.43961 6.63947 9.07956a12.78722 12.78722 0 0 0 6.19974 1.24994 11.72268 11.72268 0 0 1 -1.22993-2.00992z"/></svg>