<svg id="Layer_1" enable-background="new 0 0 512.076 512.076" viewBox="0 0 512.076 512.076" xmlns="http://www.w3.org/2000/svg"><g><g><g><path d="m190.267 74.828c-12.501 9.067-23.275 16.896-28.821 26.603-4.416 7.701-5.44 15.104-3.072 21.952 5.013 14.507 22.485 21.589 51.456 33.323 9.344 3.797 19.819 8.043 31.211 13.099 1.408.619 2.88.917 4.331.917 4.096 0 8-2.347 9.771-6.336 2.389-5.376-.021-11.691-5.419-14.08-11.627-5.163-22.336-9.493-31.872-13.376-17.557-7.104-37.461-15.189-39.296-20.523-.256-.725.299-2.411 1.429-4.395 3.285-5.739 12.757-12.608 22.805-19.904 23.552-17.109 55.851-40.533 53.248-82.069-.363-5.867-5.312-10.603-11.307-9.984-5.867.384-10.347 5.44-9.984 11.307 1.856 29.802-22.762 47.679-44.48 63.466z"/><path d="m133.905 259.937c1.643.917 3.435 1.365 5.248 1.365 2.219 0 4.437-.683 6.293-2.069 16.555-12.117 33.365-22.997 49.963-32.341 3.413-1.92 5.504-5.568 5.44-9.472-.064-3.925-2.283-7.488-5.76-9.301-120.299-62.294-120.811-86.785-120.47-89.366.661-5.013 2.325-9.259 4.651-13.099l25.365-19.499c7.851-3.605 16.917-7.04 27.435-10.709l5.739-2.005c32.917-11.669 63.445-24.981 75.008-59.328 1.877-5.589-1.131-11.627-6.699-13.504-5.611-1.813-11.627 1.131-13.525 6.699-8.491 25.301-33.067 35.797-61.909 45.995l-5.675 2.005c-32.171 11.264-65.216 23.04-71.083 58.731-.021.064-.064.107-.085.171l-1.771 5.504c-6.699 20.693-16.875 51.947 3.435 78.763 16.746 22.121 56.064 48.873 78.4 61.46z"/><path d="m501.371 85.388h-10.667v-32c0-5.888-4.779-10.667-10.667-10.667h-64c-5.888 0-10.667 4.779-10.667 10.667v32h-21.333v-32c0-5.888-4.779-10.667-10.667-10.667h-64c-5.888 0-10.667 4.779-10.667 10.667v32h-10.667c-5.888 0-10.667 4.779-10.667 10.667v119.552c-135.038 34.453-260.99 196.629-275.155 215.359-1.408 1.856-2.176 4.096-2.176 6.443v64c0 5.888 4.779 10.667 10.667 10.667h64c4.907 0 9.195-3.349 10.368-8.128 19.819-80.96 117.76-214.72 265.515-247.317-107.285 54.379-179.883 194.837-179.883 244.779 0 5.888 4.779 10.667 10.667 10.667h149.333c3.989 0 7.637-2.219 9.472-5.76 10.965-21.141 93.845-81.365 164.117-101.312 4.587-1.323 7.744-5.504 7.744-10.261v-298.668c0-5.91-4.779-10.688-10.667-10.688zm-74.666 149.674c-23.104 1.429-45.269 7.445-66.197 16.811 1.387-1.813 2.197-4.075 2.197-6.485v-32c0-17.643 14.357-32 32-32s32 14.357 32 32z"/></g></g></g><g/><g/><g/><g/><g/><g/><g/><g/><g/><g/><g/><g/><g/><g/><g/></svg>