<svg height="511pt" viewBox="0 -16 511.872 511" width="511pt" xmlns="http://www.w3.org/2000/svg"><path d="m67.054688 306.933594c10.417968-18.917969 15.671874-40.242188 15.230468-61.835938-.828125-30.171875-10.539062-59.429687-27.914062-84.113281-16.328125 32.160156-30.003906 65.601563-40.894532 99.988281 23.351563 7.421875 42.6875 24.007813 53.578126 45.960938zm0 0"/><path d="m159.550781 164.53125c4.390625-7.746094 9.292969-15.1875 14.683594-22.269531-3.164063-6.503907-6.1875-12.800781-8.832031-18.515625-9.691406-21.109375-24.4375-53.238282-36.324219-86.4375 2.578125 66.992187 10.386719 110.457031 30.472656 127.222656zm0 0"/><path d="m86.59375 181.261719c9.058594 20.074219 13.820312 41.816406 13.976562 63.835937 0 4.65625-.308593 8.996094-.65625 13.304688 12.019532-5.546875 25.867188-5.546875 37.886719 0-.347656-4.308594-.65625-8.648438-.65625-13.304688.15625-22.019531 4.917969-43.761718 13.976563-63.835937-16.027344-11.207031-26.09375-31.558594-32.265625-61.933594-6.167969 30.375-16.234375 50.726563-32.261719 61.933594zm0 0"/><path d="m39.113281 399.980469c9.839844-19.742188 15.214844-41.402344 15.742188-63.453125 0-31.671875-23.386719-48.714844-46.226563-57.820313-5.546875 21.894531-8.441406 44.378907-8.628906 66.964844 0 22.5625 17.050781 38.207031 39.113281 54.308594zm0 0"/><path d="m118.855469 345.671875c16.460937-.300781 32.734375 3.535156 47.324219 11.152344-1.027344-6.71875-1.5625-13.5-1.609376-20.296875 0-1.902344.101563-3.757813.238282-5.613282-10.410156-13.332031-17.992188-28.652343-22.269532-45.019531-5.007812-8.296875-13.992187-13.367187-23.683593-13.367187-9.6875 0-18.671875 5.070312-23.679688 13.367187-4.28125 16.367188-11.859375 31.6875-22.269531 45.019531.136719 1.828126.238281 3.710938.238281 5.613282-.046875 6.796875-.585937 13.578125-1.609375 20.296875 14.589844-7.617188 30.863282-11.453125 47.320313-11.152344zm0 0"/><path d="m182.855469 336.527344c.53125 22.050781 5.90625 43.710937 15.746093 63.453125 22.0625-16.101563 39.113282-31.746094 39.113282-54.308594-.1875-22.585937-3.085938-45.070313-8.632813-66.964844-22.835937 9.105469-46.226562 26.148438-46.226562 57.820313zm0 0"/><path d="m54.246094 410.738281c24.382812 17.144531 50.988281 36.261719 64.609375 65.363281 13.625-29.09375 40.230469-48.21875 64.613281-65.363281-4.226562-8.539062-7.835938-17.375-10.804688-26.429687-14.257812-14.078125-33.800781-21.472656-53.808593-20.351563-20.003907-1.121093-39.546875 6.273438-53.804688 20.351563-2.96875 9.054687-6.582031 17.890625-10.804687 26.429687zm0 0"/><path d="m170.660156 306.933594c10.890625-21.953125 30.226563-38.539063 53.578125-45.960938-10.890625-34.386718-24.570312-67.828125-40.898437-99.988281-17.371094 24.683594-27.082032 53.941406-27.910156 84.113281-.441407 21.59375 4.8125 42.917969 15.230468 61.835938zm0 0"/><path d="m108.636719 37.308594c-11.886719 33.199218-26.632813 65.328125-36.324219 86.4375-2.644531 5.742187-5.671875 12.011718-8.832031 18.515625 5.386719 7.082031 10.292969 14.523437 14.683593 22.269531 20.085938-16.765625 27.894532-60.230469 30.472657-127.222656zm0 0"/><path d="m510.730469 348.734375c-8.027344 1.742187-16.214844 2.640625-24.429688 2.6875-18.511719.128906-36.730469-4.640625-52.800781-13.824219-8.285156-4.777344-15.738281-10.867187-22.070312-18.03125v159.179688c17.921874-24.992188 37.679687-48.609375 59.117187-70.65625 21.777344-23.167969 36.148437-38.648438 40.183594-59.355469zm0 0"/><path d="m361.890625 321.789062c15.832031-8.640624 27.207031-23.648437 31.253906-41.226562v-280.125c-29.523437 55.613281-98.085937 198.472656-100.445312 329.207031 23.195312 6.625 48.074219 3.800781 69.191406-7.855469zm0 0"/><path d="m318.273438 351.421875c-8.214844-.046875-16.402344-.945313-24.429688-2.6875 4.03125 20.6875 18.402344 36.1875 40.179688 59.355469 21.402343 22.027344 41.164062 45.59375 59.121093 70.507812v-159.03125c-6.335937 7.164063-13.789062 13.253906-22.074219 18.03125-16.070312 9.183594-34.289062 13.953125-52.796874 13.824219zm0 0"/><path d="m442.679688 321.789062c21.121093 11.660157 45.996093 14.480469 69.191406 7.84375-2.359375-130.722656-70.921875-273.582031-100.441406-329.195312v280.125c4.042968 17.578125 15.417968 32.585938 31.25 41.226562zm0 0"/></svg>