<svg id="Layer_1" enable-background="new 0 0 512 512" height="512" viewBox="0 0 512 512" width="512" xmlns="http://www.w3.org/2000/svg"><g><path d="m239.933 30.001c27.072 0 53.196 4.891 78.092 14.579 7.646-9.107 14.501-17.15 20.406-23.917-31.249-13.59-64.668-20.662-98.499-20.662-8.284 0-15 6.716-15 15s6.717 15 15.001 15z"/><path d="m390.731 132.109c-20.245-14.347-25.084-42.448-10.836-62.675 13.559-19.251 41.294-25.863 62.578-10.964 2.205 1.543 31.359 22.414 57.547 62.67 18.927-30.397 15.56-71.121-11.243-97.917-31.244-31.253-81.436-30.673-112.097-.002-48.462 48.459-360.255 447.576-373.504 464.542-4.663 5.971-4.138 14.485 1.219 19.841 5.357 5.357 13.871 5.882 19.841 1.219 13.905-10.858 284.47-222.225 408.348-324.837-12.534-24.604-28.862-42.709-41.853-51.877z"/><path d="m460.469 423.469c91.778-128.65 48.204-280.368-35.201-340.424-16.714-10.731-32.976 12.46-17.239 24.552 81.89 60.507 99.721 196.528 31.071 294.206-32.36-30.104-73.562-56.37-118.833-56.37-43.708 0-79.267 35.559-79.267 79.267s35.559 79.267 79.267 79.267c46.185 0 88.077-22.21 120.846-57.032 26.139 29.493 42.607 57.036 42.957 57.629 3.572 6.073 12.387 10.115 20.534 5.324 7.141-4.201 9.523-13.394 5.323-20.535-1.594-2.708-19.964-33.485-49.458-65.884zm-140.202 50.499c-27.166 0-49.267-22.101-49.267-49.267s22.101-49.267 49.267-49.267c36.879 0 71.902 23.173 100.03 49.884-27.638 29.775-62.459 48.65-100.03 48.65z"/></g></svg>