<svg id="Layer_1" enable-background="new 0 0 480.003 480.003" height="512" viewBox="0 0 480.003 480.003" width="512" xmlns="http://www.w3.org/2000/svg"><g><path d="m165.105 480.003h-101.08c-17.47 0-31.53-13.69-32.02-31.17-1.763-62.115-.636-126.622 3.87-192.43.84-12.2 8.739-23.013 20.13-27.54 4.909-1.951 4.09-1.57 4.19-1.67.99-.137-3.47 1.604 51.12-20.1 4.109-1.634 6.11-6.28 4.48-10.39-1.63-4.1-6.28-6.11-10.39-4.48l-27.105 10.776c-5.507 2.187-11.397-2.163-10.927-8.069l1.316-16.561c.331-4.159 3.802-7.366 7.975-7.366h78.629c3.833 0 7.136 2.713 7.862 6.476 16.496 85.432 28.259 175.287 33.929 268.604 1.113 18.369-13.574 33.92-31.979 33.92z"/><path d="m459.215 132.703c-2.736 1.149-4.893 3.308-6.08 6.02-4.341 9.92-14.25 16.28-25.08 16.28h-176.49c-5.481 0-9.338-5.386-7.574-10.575l5.795-17.065c2.89-7.99 10.53-13.36 19.03-13.36h23.81c15.05 0 28.31-9.07 33.77-23.1 1.6-4.12-.44-8.75-4.56-10.36-4.12-1.6-8.76.44-10.36 4.56-3.04 7.84-10.45 12.9-18.85 12.9h-23.81c-15.26 0-28.97 9.65-34.11 24.02-.051.101-9.997 29.406-9.368 27.551-1.101 3.246-4.148 5.429-7.576 5.429h-170.557c-6.08 0-12.02-1.72-17.16-4.97l-14.16-8.96c-9.36-5.92-14.95-16.07-14.95-27.14v-45.7c0-17.53 13.73-31.63 31.25-32.1l85.99-2.295c5.217-.139 9.169 4.674 8.016 9.765l-.836 3.691c-.301 1.294-1.222 2.324-2.37 2.81l-32.4 13.39c-3.08 1.28-4.94 4.26-4.94 7.39 0 5.659 5.75 9.594 11.06 7.4l34.25-14.16c4.83-2 8.4-6.22 9.56-11.33l4.57-20.18c3.24-14.28 15.73-24.56 30.37-24.99l256.94-7.61c16.41-.46 30.49 11.41 32.75 27.67l10.59 75.92c1.72 12.299-5.08 24.269-16.52 29.099z"/><path d="m447.025 480.003h-118.13c-18.333 0-32.848-15.271-32-33.51 4.182-89.531 12.717-179.841 25.391-268.624.563-3.941 3.946-6.866 7.928-6.866h71.862c4.156 0 7.62 3.182 7.971 7.323l9.868 116.197c.36 4.17 3.85 7.33 7.97 7.33 4.668 0 8.374-3.995 7.98-8.68l-1.513-17.795c-.583-6.883 7.224-11.192 12.776-7.081 6.848 5.07 11.639 12.826 12.748 21.827l18.95 153.93c2.346 19.09-12.565 35.949-31.801 35.949z"/></g></svg>