<svg id="Layer_1" enable-background="new 0 0 100 100" viewBox="0 0 100 100" xmlns="http://www.w3.org/2000/svg"><path clip-rule="evenodd" d="m61.3094559 92.7378311c0 1.2485657 1.0133247 2.2618866 2.2618904 2.2618866h18.0951347c3.7479477 0 6.785675-3.0377197 6.785675-6.7856674v-28.9283753h2.2618866c2.7436676 0 5.2181854-1.65345 6.2699738-4.1890335 1.0495071-2.5355873.4681931-5.4534111-1.472496-7.3941193l-40.7140427-40.7140445c-2.6486893-2.6509304-6.94627-2.6509304-9.5949554 0l-40.7140379 40.7140446c-1.940707 1.9407082-2.5220129 4.858532-1.4724939 7.3941193 1.05178 2.5355835 3.5262845 4.1890335 6.2699623 4.1890335h2.2618914v28.9283752c0 3.7479477 3.0377169 6.7856674 6.785675 6.7856674h18.0951309c1.2485695 0 2.2618942-1.0133209 2.2618942-2.2618866 0-6.8897324 0-22.1427002 0-22.1427002 0-3.7479477 3.0377235-6.785675 6.7856712-6.785675h9.0475655c3.7479515 0 6.785675 3.0377274 6.785675 6.785675-.0000001 0-.0000001 15.2529679-.0000001 22.1427002z" fill-rule="evenodd"/></svg>