<?xml version="1.0" encoding="iso-8859-1"?>
<!-- Generator: Adobe Illustrator 19.0.0, SVG Export Plug-In . SVG Version: 6.00 Build 0)  -->
<svg version="1.1" id="Capa_1" xmlns="http://www.w3.org/2000/svg" xmlns:xlink="http://www.w3.org/1999/xlink" x="0px" y="0px"
	 viewBox="0 0 512 512" style="enable-background:new 0 0 512 512;" xml:space="preserve">
<g>
	<g>
		<path d="M438.782,372.488l-86.797,65.094H437c8.291,0,15-6.709,15-15C452,404.731,447.128,387.748,438.782,372.488z"/>
	</g>
</g>
<g>
	<g>
		<path d="M75.22,372.488C66.872,387.748,62,404.731,62,422.582c0,8.291,6.709,15,15,15h85.01L75.22,372.488z"/>
	</g>
</g>
<g>
	<g>
		<path d="M467.85,181.234l-8.943-4.471l-89.568,134.359c-4.521,6.793-13.786,8.811-20.801,4.16c-6.899-4.6-8.76-13.901-4.16-20.801
			l80.142-120.22c0.029-0.059,0.073-0.103,0.103-0.161l18.452-27.673c-5.658-11.107-13.66-21.013-24.238-28.636
			c-15.018-10.833-32.62-15.412-50.429-14.355L316.37,276.889c-2.344,7.824-10.605,12.453-18.677,10.063
			c-7.939-2.388-12.437-10.752-10.063-18.677l53.765-179.216C319.932,65.805,289.831,51.962,257,51.962
			s-62.933,13.843-84.395,37.097l53.765,179.216c2.373,7.925-2.124,16.289-10.063,18.677c-8.079,2.391-16.335-2.247-18.677-10.063
			l-52.035-173.447c-17.82-1.057-35.42,3.525-50.431,14.35c-10.66,7.681-18.506,17.726-24.012,28.976l98.47,147.713
			c4.6,6.899,2.739,16.201-4.16,20.801c-7.018,4.653-16.28,2.631-20.801-4.16l-89.57-134.359l-8.941,4.471
			C18.919,194.857,0,222.221,0,252.675v19.907c0,4.717,2.227,9.17,6.006,11.997l223.982,166.494
			c7.954,5.977,17.49,8.965,27.012,8.965c9.536,0,19.058-2.988,26.997-8.965l222.997-166.494c3.779-2.827,5.006-7.28,5.006-11.997
			v-19.907C512,222.221,495.081,194.857,467.85,181.234z"/>
	</g>
</g>
<g>
</g>
<g>
</g>
<g>
</g>
<g>
</g>
<g>
</g>
<g>
</g>
<g>
</g>
<g>
</g>
<g>
</g>
<g>
</g>
<g>
</g>
<g>
</g>
<g>
</g>
<g>
</g>
<g>
</g>
</svg>
