<svg id="Layer_1" viewBox="0 0 128 128" xmlns="http://www.w3.org/2000/svg" data-name="Layer 1"><path d="m106.168 90.20215a12.57428 12.57428 0 0 0 -.39453-3.21906 3.60145 3.60145 0 0 1 .27637-2.71771 5.43285 5.43285 0 0 0 -.73138-5.535 6.09723 6.09723 0 0 1 -1.14355-2.96814c-.17578-1.52356.333-2.11963 1.83-3.61884a16.66263 16.66263 0 0 0 3.413-4.438c.832-1.64813 2.77429-3.14777 4.65216-4.59772 2.58295-1.9942 5.25372-4.05676 6.01837-7.0849.39648-1.571.89056-3.09265 1.36908-4.56451.87494-2.6933 1.6308-5.019 1.53412-6.92871a1.99867 1.99867 0 0 0 -1.81732-1.89026 15.59384 15.59384 0 0 0 -7.45184 1.64661 3.70336 3.70336 0 0 1 -3.4198.01563c-.3252-1.7467-1.6767-4.12756-5.30646-5.77856-1.33685-.60828-1.36517-.82013-1.48627-1.71252a6.72282 6.72282 0 0 0 -3.25964-5.205c-1.5517-1.09747-1.60834-1.52216-1.71185-2.293a6.90755 6.90755 0 0 0 -2.68939-4.79535c-3.202-2.853-5.1463-9.808-5.1463-12.10492a1.99981 1.99981 0 0 0 -.8808-1.65735 7.551 7.551 0 0 0 -7.19507-.30658 8.04178 8.04178 0 0 0 -5.81421-.98566c-1.705-1.15015-5.13849-2.93542-7.531-.724a9.83823 9.83823 0 0 0 -2.22351 3.036c-.83008-.33344-1.95209-.82892-3.02924-1.33221a3.82617 3.82617 0 0 0 -.72552-1.23511c-1.085-1.24634-2.88464-1.86243-5.48907-1.87317a4.2192 4.2192 0 0 1 -.418-.52771 5.04566 5.04566 0 0 0 .45118-4.0284 4.75719 4.75719 0 0 0 -2.94128-2.643 2.00221 2.00221 0 0 0 -1.20306-.07671l-4.62976 1.14571-6.97143-.5848a2.00232 2.00232 0 0 0 -.90327.1338l-4.48321 1.77544-5.93536-.67853a2.01291 2.01291 0 0 0 -1.50873.451l-4.702 3.9201a1.99556 1.99556 0 0 0 -.57324.78693 25.11275 25.11275 0 0 1 -3.06238 5.27625c-.52637.67468-1.32416.88214-2.576 1.14331-1.44916.30219-3.87292.808-4.371 3.52368-.11133.60486-.76556 1.1087-1.8222 1.88049a8.999 8.999 0 0 0 -3.37976 3.71942c-1.15033 2.78265-1.8446 4.46246-1.1015 8.1424.32129 1.59-1.19037 5.15125-2.36707 7.17279a2.01819 2.01819 0 0 0 -.25781.77136c-.06641.56384-.55078 5.56525 3.00964 7.50378 1.664.90656 2.6864 3.93378 2.29 5.04535-.46094 1.29321-.02539 2.725 1.29486 4.25549 2.03314 2.35645 6.58276 5.30695 9.39026 4.748a2.00222 2.00222 0 0 0 .32813-.09467c1.64349-.6283 6.47925-1.99524 9.08167-.78845a1.99664 1.99664 0 0 0 1.9433-.145c1.46381-.96613 6.24689-3.61646 8.93719-3.13068.10059.018.18066.037.24316.05463.001.09473 0 .2002-.001.28412a3.66513 3.66513 0 0 0 1.0058 2.93787 5.09676 5.09676 0 0 0 3.95886.94952 9.19258 9.19258 0 0 1 2.89441.07031 8.50142 8.50142 0 0 1 -.49316 2.05865c-1.36713 4.19543-1.871 6.58459 2.622 10.88446a14.95719 14.95719 0 0 1 3.76746 6.27264 6.21441 6.21441 0 0 0 -.2373 6.56256 14.28355 14.28355 0 0 0 -1.77728 9.64349 10.31839 10.31839 0 0 0 3.25671 6.651 2.8211 2.8211 0 0 1 1.17963 2.31592c.11523 3.8952.23438 7.92072 4.51349 10.66284 1.38574 1.653 2.622 3.71747 2.706 4.5166a3.41354 3.41354 0 0 0 -.58105 2.41357c.29688 2.43164 2.98621 4.63916 3.80359 5.25769a2.02856 2.02856 0 0 0 1.2216.43267 1.81473 1.81473 0 0 0 .30664-.02637 1.917 1.917 0 0 0 1.31146-.8465c.043-.05566 1.09369-1.37476 4.40125-1.73889 5.14624-.56628 8.86975-3.16248 10.275-5.48328a11.76072 11.76072 0 0 1 1.36035-1.36151c1.77234-1.62323 4.54669-4.16467 4.58771-7.54431 2.27722-.78455 5.08478-2.31256 4.576-4.99847a23.20054 23.20054 0 0 0 -.64844-2.3623 21.47213 21.47213 0 0 1 -.7724-2.98376c1.35541-.96613 4.73126-3.23419 6.35229-4.317 1.92861-.5707 5.0017-2.42233 5.0017-6.13546z"/><path d="m117.60706 91.08771a2.00243 2.00243 0 0 0 -2.55847 1.31372c-.34668 1.136-1.77631 4.56006-3.73621 5.36072a16.3293 16.3293 0 0 1 -2.09564.657c-2.01166.52972-5.0506 1.32935-4.42072 6.00562.20508 1.52118-.42871 2.41406-1.23236 3.54419a6.45436 6.45436 0 0 0 -1.56244 3.80438c0 1.83557 1.08588 3.52368 1.95789 4.87982a12.5214 12.5214 0 0 1 .81934 1.3894 2.39045 2.39045 0 0 0 .65039 1.85992c.31146.33148 1.02142 1.08624 3.81134 1.08624a23.668 23.668 0 0 0 3.09167-.23242 1.99963 1.99963 0 0 0 1.50873-1.054c3.96179-7.558 4.85925-9.33691 5.06232-10.0448l.002.00049c.1416-.49695 1.55469-4.3277 2.83978-7.744a1.95559 1.95559 0 0 0 .10449-.40027c.48719-3.16966.14253-8.93315-4.24211-10.42601z"/></svg>