<svg id="Layer_1" enable-background="new 0 0 513 513" viewBox="0 0 513 513" xmlns="http://www.w3.org/2000/svg"><g id="Layer_2_00000099642694105852238560000011699768096344450218_"><g id="color_copy_5"><g id="_7"><path d="m198.5 275.6c0 4 .4 8 1.2 12-38.8 12.7-77.9 24.7-116.9 36.9-8.8 2.7-17.8.5-26.5-2-26.1-7.4-41.4-26.4-43.4-53.9-1.9-25.5-4.9-50.8-12.3-75.5-.3-1.2.6-3.3 1.7-4.3 13-12.4 26.2-24.6 39.1-37 23.9-25.4 38.7-40.9 76.3-35.2 10.1 1.7 18.5 7.3 24.6 15.6 24.7 33.8 49.7 67.5 74.2 101.5-11.5 10.9-18 26.1-18 41.9z"/><path d="m512 195.9c-8.6 26.3-9.5 54-12.9 81.2-6.5 37.6-44.2 54.1-73.8 45.8-37.4-11.6-74.7-23.4-112-35.2 4.2-19.7-2.2-40.1-16.8-54 22.8-32.7 47.8-64.7 70.9-97.3 25.1-34.1 67.8-22.9 91.4 1.9 16.3 16.9 33.6 32.9 50.7 49.1 2.8 2.6 3.7 4.5 2.5 8.5z"/><path d="m249.4 333.2c-.6 40.7-1.1 81.3-1.7 122 .2 38.2-42 56.8-75.2 49.6-23.3-4.6-46.9-7.6-70.5-11-3.6-.5-5.2-1.5-6.4-5.1-7.1-21.2-17.3-41-28.9-60.2-6.4-10.5-12.2-21.2-13.2-33.9-1.9-27 15.9-53 41.5-61.1 36.4-11.2 72.5-23 108.4-34.4 8.3 18.7 25.8 31.6 46 34.1z"/><path d="m358.1 122.2c-2.3 5.9-6.9 11-10.7 16.3-20.9 28.8-41.8 57.6-62.8 86.4-17.7-9.8-39.2-9.7-56.8.4-23.9-32.6-47.1-66.5-70.9-99.3-23.2-30.6-.9-70.9 30.4-85 21.6-10.2 42.6-21.8 63.7-33 3.1-1.6 5.1-1.9 8.2.3 20.3 14.4 42.7 24.8 65.6 34.4 32 11.2 46 48.9 33.3 79.5z"/><path d="m449.6 428.5c-11.9 20.4-22.3 41.7-33.2 62.7-1.6 3.1-3.2 4.4-7 4.4-24.5-.2-48.5 3.6-72.3 8.9-43.9 9.6-69.9-20.9-74.6-51.6.8-40 1.7-80 2.6-119.9 19.8-3 36.6-15.9 44.6-34.3 39.4 13.5 78.7 28.5 118 42.4 20 7.2 29.3 22.4 31.8 42.6 2 16-1.6 30.6-9.9 44.8z"/></g></g></g></svg>