<svg width="400" height="200" xmlns="http://www.w3.org/2000/svg" xmlns:xlink="http://www.w3.org/1999/xlink" xml:space="preserve" overflow="hidden"><g transform="translate(532 130)"><path d="M233.395 230.262C232.713 232.506 232.169 235.172 230.696 236.629 228.633 238.67 220.759 238.024 218.03 238.173 209.703 238.628 196.868 241.36 189.063 240.249 187.207 239.985 181.059 240.979 178.144 240.533 175.078 240.063 169.296 242.904 167.916 238.97 167.012 236.401 169.633 232.491 172.195 231.257 173.352 230.699 176.91 230.776 178.198 230.883 183.343 231.307 196.96 226.887 200.011 220.331 200.173 219.992 193.571 219.209 192.973 219.263 174.639 219.797 156.245 224.954 138.037 222.313 124.742 219.926 118.394 218.862 108.718 229.579 103.658 234.209 98.1291 238.368 92.7314 242.591 90.6304 244.233 88.5837 245.921 86.0606 246.874 85.8993 246.935 79.0986 247.474 77.3814 247.348 76.2774 247.268 72.7658 240.797 72.7428 240.022 72.7046 238.933 77.6574 234.939 78.4625 234.595 85.3939 231.618 90.1013 224.126 94.4486 217.937 95.1313 211.802 96.4265 205.162 95.4455 199.001 90.4385 167.357 53.2681 171.626 29.9904 170.456 20.7898 169.994 14.6099 166.72 12.3483 157.335 11.5891 154.181 11.252 151.445 12.8392 148.57 17.8845 139.452 30.4584 135.706 39.2224 131.63 45.303 128.796 50.5776 124.928 56.3592 121.596 58.7515 120.218 65.1692 119.132 66.7411 117.292 67.5767 116.306 67.209 111.922 67.3313 110.601 68.1257 102.655 76.8393 92.4783 83.6783 102.253 75.7139 110.51 74.4669 122.979 78.7408 133.819 76.8485 123.057 80.0688 111.77 88.9384 105.558 97.1245 106.345 96.1115 115.879 99.1819 121.042 118.565 132.533 130.121 123.781 148.812 118.583 163.58 115.053 179.427 112.582 194.532 111.379 204.315 110.599 213.708 109.391 223.376 111.874 255.973 123.55 267.115 143.252 274.187 175.61 276.526 185.321 277.04 196.761 284.738 203.935 291.83 210.542 306.375 213.637 315.53 216.663 328.824 221.056 342.334 227.519 355.162 233.179 369.577 239.537 382.143 248.376 379.352 266.23 371.747 301.548 326.307 291.304 300.71 292.803 292.337 292.764 262.021 293.374 262.504 293.215 278.168 287.982 292.912 284.908 309.466 284.139 323.888 283.47 339.399 285.285 353.023 279.616 364.187 274.972 370.283 263.5 362.661 252.549 359.281 247.688 353.929 244.808 348.577 242.633 325.095 233.614 298.96 234.636 275.14 226.03 274.907 221.28 274.852 216.743 277.11 212.283 273.043 215.436 269.953 219.494 269.198 224.585 259.405 221.979 250.075 224.444 240.499 226.146 239.596 226.324 238.822 225.915 237.854 225.769 231.9 224.579 218.983 222.557 213.986 221.794 209.337 220.648 231.285 229.438 233.395 230.262M91.359 211.851C88.5378 214.299 85.2028 216.121 81.8747 217.813 79.7355 218.899 75.9708 220.163 74.5678 222.21 72.5716 224.814 76.0358 229.114 78.6391 230.217 83.7379 227.244 87.326 221.482 90.7535 216.534 90.937 214.996 91.1594 213.43 91.359 211.851" fill="#FFFFFF" fill-rule="evenodd" transform="matrix(-1 0 0 1 -136.272 -225.741)"/></g></svg>