<svg width="400" height="200" xmlns="http://www.w3.org/2000/svg" xmlns:xlink="http://www.w3.org/1999/xlink" xml:space="preserve" overflow="hidden"><g transform="translate(504 -206)"><path d="M80.2513 0.715617C79.0501 0.741174 77.9766 0.894521 77.8489 1.02231 77.6955 1.17566 77.3121 1.27789 76.9543 1.27789 76.571 1.30344 75.8298 1.50791 75.2675 1.78904 74.7052 2.07018 74.0919 2.27464 73.913 2.3002 73.7341 2.3002 73.4018 2.40243 73.1462 2.53022 72.9162 2.658 72.4306 2.88802 72.0728 3.04137 71.715 3.19472 71.1016 3.55252 70.6671 3.83366 69.926 4.31926 69.4659 4.54928 68.8014 4.75374 68.6225 4.80485 68.3925 5.11155 68.2647 5.41824 67.958 6.18497 66.7568 7.30951 65.9645 7.53953 65.2233 7.76955 63.9454 9.12411 63.7154 9.94196 63.6388 10.2998 63.4087 10.862 63.2298 11.2198 63.0254 11.5777 62.872 12.0632 62.872 12.2933 62.872 12.9578 60.0351 16.0247 59.2428 16.2292 57.4793 16.6636 55.4603 18.1204 55.4603 18.9638 55.4603 19.0916 55.1791 19.5772 54.8213 20.0373 54.4635 20.4973 54.1824 20.9829 54.1824 21.1107 54.1824 21.264 53.6712 21.8774 53.0323 22.4908 52.3934 23.1042 51.8822 23.7687 51.8822 23.9476 51.8822 24.1265 51.7544 24.2798 51.6266 24.2798 50.6299 24.2798 51.0132 28.6247 52.1633 30.3626 52.5723 30.976 52.9045 31.5382 52.9045 31.6405 52.9045 32.0494 54.3613 33.4806 55.2814 33.9918 55.8181 34.2729 56.7893 34.5796 57.4538 34.6818 58.0927 34.7585 58.9106 34.9885 59.2939 35.193 59.6517 35.3719 60.6229 35.5252 61.4919 35.5252 63.0254 35.5252 63.741 35.7808 65.9134 37.0843 66.7057 37.5443 67.268 37.5954 72.3284 37.6721 75.3698 37.6977 78.0022 37.8254 78.1555 37.9277 78.3344 38.0299 78.4622 38.311 78.4622 38.5411 78.4622 38.7966 78.6923 39.41 78.9734 39.9467 79.3823 40.7135 79.4846 41.378 79.4846 43.5504 79.4846 45.8761 79.4079 46.3873 78.8456 47.4607 78.5134 48.1508 78.0022 48.9175 77.6955 49.1986 77.4144 49.4542 77.1843 49.8631 77.1843 50.0932 77.1843 50.3487 77.0054 50.681 76.801 50.8599 76.5965 51.0388 76.4176 51.3455 76.4176 51.5244 76.4176 51.7288 76.2387 51.8822 76.0343 51.8822 75.8298 51.8822 75.6509 52.0355 75.6509 52.24 75.6509 52.4189 75.4209 52.6489 75.1397 52.7256 74.603 52.8534 74.1174 53.8501 74.1174 54.7447 74.1174 55.4858 73.2996 57.2238 72.9418 57.2493 72.7629 57.2493 72.584 57.4538 72.4817 57.6838 72.3539 58.0927 72.1495 58.4761 71.5105 59.3962 71.4083 59.5495 70.9738 60.0862 70.5393 60.5974 70.1304 61.1085 69.7726 61.6452 69.7726 61.773 69.7726 62.1053 68.0858 63.6388 67.728 63.6388 67.6002 63.6388 67.4724 63.7921 67.4724 63.971 67.4724 64.1755 66.8335 65.0189 66.0667 65.8623 65.3 66.7312 64.6611 67.5235 64.6611 67.6513 64.6611 67.7791 64.3799 68.1625 64.0221 68.4947 63.6899 68.8014 63.4599 69.1592 63.511 69.2615 63.5621 69.3637 63.4599 69.6704 63.2554 69.926 63.0509 70.1815 62.872 70.7438 62.872 71.1783 62.872 71.5872 62.642 72.2262 62.3609 72.584 62.0797 72.9418 61.8497 73.3507 61.8497 73.5296 61.8497 74.0152 60.9808 75.4464 60.2907 76.1365 59.9329 76.4943 59.5495 77.0054 59.4728 77.2355 59.3706 77.5422 59.0384 77.6955 58.5528 77.6955 58.1438 77.6955 57.7349 77.7977 57.6582 77.9255 57.5816 78.0533 57.2749 78.1044 56.9937 78.0278 56.6615 77.9255 56.3037 78.0789 56.0225 78.4111 55.767 78.6923 55.2558 79.0245 54.8725 79.1012 54.4891 79.2034 54.1057 79.3823 54.0546 79.5101 53.9779 79.6123 53.7735 79.6635 53.5946 79.5868 53.4157 79.5357 52.4956 79.8679 51.5244 80.3791 50.5788 80.8647 49.6076 81.2736 49.3775 81.2736 49.1475 81.2736 48.6108 81.4525 48.2019 81.657 47.8185 81.8614 47.3074 82.0403 47.1285 82.0403 46.924 82.0403 46.3362 82.4492 45.7739 82.9348 45.2372 83.4204 44.6238 83.8294 44.4193 83.8294 44.2149 83.8294 43.6782 84.2127 43.2181 84.6983 42.7581 85.1839 42.068 85.644 41.7102 85.7462 41.378 85.8229 40.7901 86.2318 40.4068 86.6663 40.049 87.0752 39.64 87.4074 39.4867 87.4074 39.1033 87.4074 37.8254 88.762 37.8254 89.1454 37.8254 89.3243 37.6721 89.4521 37.4932 89.4521 37.3143 89.4521 36.6498 89.9632 36.0364 90.6022 35.423 91.2411 34.7585 91.7523 34.5796 91.7523 34.4007 91.7523 33.864 92.1101 33.404 92.519 32.9184 92.9535 32.3816 93.2857 32.2283 93.2857 32.075 93.2857 31.9472 93.388 31.9472 93.4902 31.9472 93.618 31.4105 93.9758 30.746 94.308 30.0559 94.6147 29.0591 95.3303 28.4969 95.8415 27.7301 96.5571 27.1679 96.8382 26.2989 96.966 25.4555 97.0938 24.9188 97.3494 24.4076 97.8861 23.922 98.3973 23.4109 98.6528 22.9508 98.6528 22.1586 98.6528 21.2129 99.0873 20.8807 99.5985 20.7784 99.7774 20.5484 99.9307 20.4206 99.9307 20.2673 99.9307 19.7817 100.212 19.3472 100.544 18.8872 100.876 18.2227 101.209 17.8393 101.311 17.4304 101.388 17.1237 101.592 17.1237 101.72 17.1237 101.873 16.9959 101.975 16.817 101.975 16.6636 101.975 16.3058 102.18 16.0247 102.41 15.6413 102.793 15.1046 102.87 13.3411 102.819 12.1399 102.793 10.9132 102.665 10.632 102.538 9.89084 102.18 9.12411 101.873 8.81742 101.848 8.5874 101.796 8.33182 101.72 7.15617 101.26 6.9517 101.183 6.72168 101.106 6.64501 101.106 6.56834 101.081 6.03162 100.723 5.49491 100.289 4.57483 99.5474 4.26814 99.4707 2.24908 99.3685L-1.63439e-14 99.2662-1.63439e-14 121.067 1.55902 121.246C2.42798 121.323 3.27139 121.501 3.42474 121.629 3.57808 121.757 4.57483 121.936 5.6227 122.038 6.67057 122.115 7.66732 122.294 7.79511 122.396 7.94845 122.524 8.74074 122.677 9.55859 122.754 10.3764 122.83 11.1943 123.035 11.3221 123.163 11.4754 123.316 11.8332 123.444 12.1144 123.444 12.4211 123.444 12.9578 123.623 13.3411 123.802 13.7501 124.006 14.5679 124.262 15.2069 124.364 15.8458 124.441 16.4336 124.62 16.5103 124.747 16.587 124.875 17.3537 124.977 18.2227 124.977 19.1683 124.977 20.0373 125.131 20.3184 125.335 20.5995 125.514 21.673 125.718 22.6697 125.795 24.1521 125.897 24.6888 126.076 25.4044 126.613 25.9667 127.047 26.6056 127.278 27.1934 127.278 27.679 127.278 28.1646 127.405 28.2413 127.559 28.3435 127.712 28.5735 127.763 28.778 127.686 28.9569 127.61 29.1869 127.661 29.2636 127.789 29.3658 127.942 29.6214 128.044 29.877 128.044 30.1326 128.044 30.6948 128.223 31.0782 128.428 31.4871 128.632 32.1261 128.811 32.5094 128.811 32.8672 128.811 33.5062 128.964 33.9151 129.169 36.1642 130.319 38.081 131.111 38.5411 131.111 38.8478 131.111 39.1544 131.239 39.2311 131.367 39.41 131.673 41.4802 132.645 41.9658 132.645 42.1447 132.645 42.5792 132.875 42.937 133.156 43.2948 133.437 43.7548 133.667 43.9849 133.667 44.1893 133.667 44.496 133.795 44.6494 133.948 44.8027 134.101 45.0838 134.229 45.2627 134.28 45.595 134.306 49.1731 135.967 50.0932 136.504 50.2976 136.632 50.8343 136.913 51.2944 137.117 51.7288 137.347 52.2911 137.756 52.5467 138.037 52.7767 138.293 53.109 138.523 53.2879 138.523 53.4668 138.523 53.799 138.753 54.0546 139.034 54.3102 139.315 54.6424 139.52 54.7958 139.469 55.0514 139.366 55.3836 139.596 56.866 140.798 57.0193 140.9 57.4538 141.079 57.8372 141.181 58.2205 141.258 58.5272 141.462 58.5272 141.59 58.5272 141.718 58.9361 142.024 59.4217 142.254 59.9073 142.484 60.3162 142.765 60.3162 142.893 60.3162 143.021 60.5974 143.251 60.9552 143.379 61.313 143.507 61.5941 143.737 61.5941 143.89 61.5941 144.018 61.7219 144.146 61.8497 144.146 62.2075 144.146 63.4854 145.04 64.7377 146.19 65.2744 146.676 65.9901 147.187 66.3479 147.34 67.2168 147.698 70.5393 150.765 70.5393 151.2 70.5393 151.404 70.6671 151.557 70.7949 151.557 70.9483 151.557 71.0505 151.711 71.0505 151.89 71.0505 152.069 71.4594 152.605 71.945 153.091 72.4306 153.576 72.8395 154.062 72.8395 154.164 72.8395 154.292 73.1207 154.65 73.4785 154.982 73.8363 155.314 74.1174 155.698 74.1174 155.826 74.1174 156.107 75.7276 157.691 76.0087 157.691 76.1109 157.691 76.6476 158.023 77.1843 158.458 77.7211 158.867 78.2578 159.225 78.3856 159.225 78.4878 159.225 79.3312 159.864 80.2002 160.63 81.0947 161.397 81.9125 162.036 82.0403 162.036 82.1681 162.036 82.3215 162.266 82.4237 162.522 82.577 163.007 85.6184 164.668 86.973 164.975 87.3563 165.077 87.7397 165.256 87.8164 165.384 87.893 165.512 88.2253 165.614 88.532 165.614 88.8642 165.614 89.2732 165.793 89.4521 165.997 89.9121 166.56 91.2155 167.148 91.9823 167.148 92.4679 167.148 93.0813 167.582 94.1802 168.681 95.5604 170.061 95.7904 170.214 96.7871 170.214 97.375 170.214 97.9372 170.342 98.0139 170.47 98.2184 170.802 99.4962 170.802 99.8541 170.445 100.033 170.266 100.57 170.214 101.26 170.317 101.848 170.419 103.713 170.572 105.349 170.675 107.112 170.802 108.493 171.007 108.671 171.186 108.85 171.365 109.157 171.492 109.387 171.492 109.592 171.492 110.077 171.646 110.461 171.85 110.844 172.055 111.483 172.285 111.917 172.387 112.352 172.489 112.71 172.668 112.71 172.796 112.71 172.924 112.914 173.026 113.17 173.026 113.4 173.026 114.294 173.384 115.112 173.793 115.93 174.227 116.876 174.559 117.182 174.559 117.489 174.559 117.898 174.738 118.077 174.943 118.256 175.147 118.665 175.326 118.971 175.326 119.278 175.326 119.687 175.505 119.866 175.709 120.045 175.914 120.377 176.093 120.632 176.093 120.863 176.093 121.22 176.399 121.399 176.808 122.14 178.265 122.958 178.904 124.108 178.904 125.105 178.904 125.233 178.981 125.642 179.824 126.306 181.23 127.456 181.971 129.015 181.971 129.757 181.971 130.344 182.073 130.344 182.201 130.344 182.329 130.702 182.84 131.162 183.351 132.389 184.731 133.462 184.578 134.306 182.891 134.613 182.278 136.351 181.997 136.811 182.457 137.271 182.917 137.986 182.763 138.421 182.099 138.906 181.358 140.312 181.23 141.513 181.818 143.047 182.584 143.609 182.738 146.574 183.147 148.26 183.377 149.768 183.683 149.947 183.811 150.126 183.939 150.382 183.99 150.509 183.913 150.637 183.811 150.816 183.862 150.918 184.016 150.995 184.143 151.353 184.271 151.685 184.271 152.017 184.271 152.375 184.399 152.452 184.527 152.529 184.68 152.81 184.782 153.04 184.782 153.27 184.782 153.806 184.961 154.215 185.166 154.599 185.37 155.135 185.549 155.391 185.549 155.647 185.549 156.03 185.702 156.209 185.907 156.413 186.086 156.95 186.341 157.41 186.444 157.87 186.546 158.535 186.776 158.918 186.98 159.301 187.185 159.812 187.338 160.043 187.338 160.273 187.338 160.528 187.44 160.605 187.568 160.681 187.696 161.065 187.875 161.448 187.952 161.857 188.054 162.982 188.514 163.953 188.974 165.87 189.894 169.013 190.916 169.908 190.916 170.214 190.916 170.47 190.993 170.47 191.121 170.47 191.376 172.821 192.194 173.614 192.194 173.946 192.194 174.38 192.347 174.534 192.552 174.687 192.731 175.3 192.961 175.914 193.038 176.502 193.114 177.524 193.472 178.163 193.804 178.802 194.162 179.696 194.52 180.131 194.622 180.591 194.699 180.949 194.903 180.949 195.031 180.949 195.159 181.128 195.261 181.332 195.261 181.537 195.261 181.715 195.44 181.715 195.644 181.715 195.874 181.946 196.028 182.252 196.028 182.559 196.028 183.223 196.36 183.76 196.795 184.297 197.203 184.91 197.561 185.115 197.561 185.319 197.561 185.626 197.74 185.805 197.945 185.984 198.149 186.827 198.814 187.696 199.401L189.255 200.5 215.912 200.577C231.63 200.603 242.517 200.552 242.441 200.398 241.648 199.146 231.374 192.91 227.055 191.07 225.803 190.533 224.652 189.945 224.499 189.741 224.346 189.536 224.09 189.383 223.962 189.383 223.809 189.383 223.553 189.204 223.375 188.999 223.196 188.795 222.736 188.616 222.327 188.616 221.611 188.616 220.589 188.207 220.282 187.773 220.205 187.645 220.078 187.568 220.027 187.568 219.694 187.619 218.774 187.236 218.774 187.057 218.774 186.929 218.698 186.827 218.595 186.853 218.186 186.904 217.241 186.495 217.241 186.29 217.241 186.163 217.087 186.06 216.908 186.06 216.73 186.06 216.167 185.83 215.631 185.549 215.119 185.268 214.404 185.038 214.072 185.038 213.739 185.038 213.33 184.859 213.151 184.655 212.973 184.45 212.691 184.271 212.513 184.271 212.308 184.271 211.848 184.118 211.439 183.913 210.136 183.249 208.858 182.738 208.474 182.738 208.27 182.738 207.963 182.559 207.784 182.354 207.605 182.15 207.273 181.971 207.018 181.971 206.762 181.971 206.225 181.792 205.842 181.588 205.433 181.383 204.794 181.204 204.411 181.204 204.002 181.204 203.695 181.077 203.695 180.949 203.695 180.795 203.567 180.693 203.44 180.693 203.286 180.693 202.724 180.412 202.162 180.054 201.599 179.696 200.909 179.415 200.603 179.415 200.143 179.415 199.376 179.109 198.072 178.367 197.868 178.24 197.203 177.907 196.616 177.601 196.028 177.32 195.414 176.911 195.236 176.706 195.082 176.502 194.827 176.348 194.699 176.348 194.571 176.348 194.034 176.016 193.523 175.607 193.012 175.173 192.271 174.764 191.887 174.687 191.479 174.585 191.172 174.406 191.172 174.304 191.172 174.201 190.865 174.023 190.507 173.946 190.15 173.844 189.715 173.665 189.562 173.537 188.028 172.285 187.594 171.978 187.594 172.131 187.594 172.208 187.262 172.055 186.827 171.748 186.418 171.441 186.06 171.288 186.06 171.39 186.06 171.518 185.933 171.467 185.754 171.288 185.575 171.109 185.242 170.981 184.987 170.981 184.578 170.981 184.22 170.853 182.993 170.189 181.511 169.397 179.901 168.681 179.569 168.681 179.364 168.681 179.134 168.579 179.057 168.451 178.955 168.323 178.444 168.144 177.882 168.042 177.32 167.94 176.808 167.761 176.706 167.633 176.629 167.505 176.195 167.403 175.761 167.403 175.3 167.403 174.636 167.25 174.278 167.045 173.665 166.739 172.029 166.304 171.313 166.253 171.16 166.253 170.93 166.151 170.828 166.049 170.726 165.946 170.266 165.87 169.831 165.87 169.371 165.87 168.86 165.691 168.681 165.486 168.502 165.282 167.991 165.103 167.531 165.103 167.071 165.103 166.56 164.924 166.381 164.72 166.202 164.49 165.64 164.336 165.077 164.336 164.541 164.336 164.055 164.234 163.953 164.106 163.876 163.978 163.467 163.8 163.058 163.697 161.985 163.467 162.01 162.368 163.084 161.269L163.902 160.477 163.723 157.282C163.646 155.519 163.467 153.883 163.339 153.653 163.135 153.244 162.701 150.203 162.317 146.548 162.24 145.679 162.036 144.836 161.883 144.631 161.729 144.427 161.525 142.714 161.423 140.823 161.346 138.932 161.193 136.913 161.116 136.351 161.039 135.788 160.911 133.539 160.86 131.367 160.809 129.169 160.63 127.15 160.451 126.843 160.298 126.536 160.247 125.77 160.298 125.105 160.375 124.466 160.349 123.878 160.221 123.802 160.094 123.725 159.991 122.652 159.991 121.399 159.991 120.147 159.889 119.073 159.761 118.997 159.659 118.92 159.455 118.153 159.378 117.259 159.276 116.39 159.02 115.444 158.816 115.163 158.611 114.882 158.458 114.345 158.458 113.987 158.458 113.63 158.279 113.119 158.075 112.863 157.845 112.556 157.691 111.79 157.691 111.048 157.691 109.08 158.075 108.85 161.218 108.774 162.624 108.748 163.927 108.62 164.106 108.441 164.311 108.288 165.205 108.109 166.125 108.033 168.86 107.777 169.524 107.572 170.419 106.755 171.16 106.039 171.441 105.937 173.103 105.86 174.636 105.783 175.045 105.656 175.607 105.119 176.399 104.378 178.904 103.994 179.518 104.506 180.054 104.94 180.949 106.882 180.949 107.547 180.949 107.854 181.255 108.595 181.613 109.157 181.971 109.745 182.329 110.614 182.406 111.125 182.508 111.636 182.712 112.326 182.917 112.71 183.096 113.067 183.249 113.655 183.249 114.039 183.249 114.448 183.351 114.754 183.505 114.754 183.632 114.754 183.837 115.061 183.913 115.444 184.016 115.828 184.373 116.441 184.706 116.799 185.012 117.131 185.294 117.617 185.294 117.847 185.294 118.077 185.524 118.46 185.805 118.716 186.086 118.971 186.316 119.38 186.316 119.61 186.316 119.866 186.495 120.198 186.699 120.377 186.904 120.556 187.083 120.837 187.083 121.016 187.083 121.195 187.262 121.68 187.466 122.064 187.67 122.473 187.849 122.984 187.849 123.214 187.849 123.776 188.769 125.591 189.229 125.974 189.459 126.179 189.996 127.047 190.456 127.968 190.891 128.862 191.351 129.654 191.479 129.731 191.581 129.808 191.862 130.242 192.066 130.677 192.475 131.571 192.782 132.082 193.625 133.284 193.932 133.692 194.239 134.306 194.341 134.587 194.443 134.894 194.801 135.456 195.133 135.814 195.466 136.172 195.951 136.887 196.181 137.373 196.411 137.858 196.718 138.267 196.846 138.267 196.973 138.267 197.025 138.37 196.948 138.497 196.871 138.625 196.973 138.855 197.178 139.034 197.382 139.213 197.561 139.494 197.561 139.673 197.561 139.826 197.791 140.184 198.072 140.44 198.354 140.695 198.584 141.053 198.584 141.258 198.584 141.82 199.938 143.379 200.424 143.379 200.909 143.379 205.101 147.57 205.586 148.542 205.74 148.874 206.2 149.283 206.583 149.462 206.992 149.666 207.401 150.101 207.529 150.433 207.657 150.765 207.938 151.046 208.117 151.046 208.296 151.046 208.781 151.404 209.19 151.813 209.599 152.247 210.059 152.58 210.238 152.58 210.417 152.58 211.107 152.861 211.771 153.219 212.436 153.576 213.126 153.858 213.305 153.858 213.509 153.858 213.663 154.011 213.663 154.164 213.663 154.343 214.506 154.88 215.528 155.365 216.525 155.826 217.65 156.49 218.007 156.822 218.365 157.129 219.004 157.487 219.413 157.589 219.848 157.691 220.538 158.049 220.972 158.381 221.407 158.688 221.892 158.969 222.046 158.969 222.224 158.969 222.787 159.378 223.349 159.864 223.886 160.349 224.55 160.758 224.831 160.758 225.598 160.758 227.259 161.653 228.077 162.522 228.512 162.956 229.048 163.314 229.304 163.314 229.56 163.314 229.764 163.467 229.764 163.646 229.764 163.825 230.02 164.081 230.352 164.208 230.659 164.362 231.016 164.72 231.17 165.026 231.297 165.359 231.528 165.614 231.63 165.614 231.911 165.614 232.805 166.688 232.831 167.045 232.831 167.173 233.189 167.633 233.598 168.042 234.032 168.451 234.364 168.962 234.364 169.218 234.364 169.448 234.543 169.78 234.748 169.959 234.952 170.138 235.131 170.47 235.131 170.726 235.131 170.981 235.31 171.313 235.515 171.492 235.719 171.671 235.898 171.952 235.898 172.131 235.898 172.31 236.077 172.591 236.281 172.77 236.486 172.949 236.665 173.281 236.665 173.537 236.665 173.793 236.844 174.329 237.048 174.713 237.252 175.122 237.431 175.633 237.431 175.863 237.431 176.093 237.61 176.629 237.815 177.013 238.019 177.422 238.198 178.01 238.198 178.316 238.198 178.623 238.326 178.955 238.454 179.032 238.607 179.109 238.709 179.441 238.709 179.748 238.709 180.08 238.888 180.565 239.093 180.872 239.297 181.153 239.527 181.894 239.629 182.508 239.732 183.121 239.962 183.862 240.14 184.143 240.345 184.425 240.498 184.885 240.498 185.191 240.498 185.472 240.677 186.06 240.882 186.495 241.086 186.904 241.444 188.028 241.674 189.025 241.904 189.996 242.185 190.967 242.287 191.172 242.747 192.169 243.258 192.935 244.255 194.111 244.869 194.801 245.354 195.517 245.354 195.67 245.354 195.823 245.584 196.156 245.865 196.411 246.147 196.667 246.377 196.999 246.402 197.152 246.402 197.306 246.862 197.817 247.45 198.277 248.191 198.865 248.728 199.095 249.443 199.095 249.98 199.095 250.466 199.223 250.517 199.35 250.568 199.504 251.054 199.683 251.616 199.785 252.178 199.861 252.715 200.066 252.817 200.219 252.919 200.373 253.865 200.526 254.913 200.577L256.855 200.679 256.855 192.705 254.044 192.705 254.044 191.836C254.044 191.376 253.865 190.84 253.66 190.661 253.456 190.482 253.277 190.175 253.277 189.996 253.277 189.792 253.175 189.638 253.073 189.638 252.97 189.638 252.74 189.332 252.562 188.923 252.178 188.105 251.82 187.492 251.028 186.367 250.312 185.396 250.006 184.425 249.699 182.354 249.239 179.236 248.932 177.78 248.677 177.524 248.549 177.396 248.421 177.064 248.421 176.834 248.421 176.578 248.293 176.067 248.14 175.658 247.961 175.275 247.808 174.61 247.757 174.201 247.68 173.793 247.476 173.256 247.271 173.026 247.067 172.796 246.888 172.157 246.888 171.595 246.888 171.032 246.734 170.368 246.53 170.087 246.3 169.729 246.147 168.502 246.07 166.279 245.993 164.004 245.865 162.931 245.661 162.854 245.482 162.803 245.354 162.496 245.354 162.164 245.354 161.55 243.565 159.608 243.003 159.608 242.824 159.608 242.543 159.327 242.364 158.969 242.057 158.305 239.527 155.8 239.016 155.621 238.863 155.57 237.712 154.599 236.486 153.474 235.259 152.35 234.186 151.43 234.083 151.43 233.981 151.43 233.265 150.816 232.473 150.101 231.681 149.359 230.94 148.746 230.812 148.746 230.71 148.746 230.48 148.465 230.326 148.107 230.173 147.749 229.841 147.468 229.611 147.468 229.355 147.468 229.253 147.391 229.33 147.289 229.56 147.059 228.486 145.935 228.052 145.935 227.873 145.935 227.719 145.756 227.719 145.551 227.719 145.347 227.54 145.168 227.336 145.168 227.132 145.168 226.953 144.938 226.953 144.682 226.953 144.401 226.774 144.018 226.569 143.788 226.365 143.583 226.186 143.328 226.186 143.2 226.186 143.098 225.828 142.765 225.419 142.484 225.01 142.203 224.652 141.845 224.652 141.718 224.652 141.564 224.141 140.925 223.502 140.312 222.863 139.699 222.352 139.085 222.352 138.957 222.352 138.6 220.819 136.734 220.512 136.734 220.205 136.734 219.541 136.095 219.541 135.788 219.541 135.43 218.161 134.178 217.777 134.178 217.599 134.178 216.96 133.769 216.372 133.284 215.758 132.798 215.094 132.389 214.889 132.389 214.659 132.389 214.353 132.21 214.174 132.006 213.995 131.801 213.714 131.622 213.56 131.622 213.382 131.622 212.998 131.367 212.691 131.035 211.925 130.217 211.567 126.051 212.231 125.514 212.691 125.131 212.845 122.166 212.385 122.166 212.053 122.166 212.053 118.409 212.385 118.205 212.743 118 212.717 115.598 212.359 115.47 212.206 115.419 212.027 114.294 211.95 112.761 211.874 111.329 211.695 110.077 211.592 110 211.26 109.822 211.311 107.342 211.618 107.342 212.053 107.342 211.925 102.947 211.49 102.384 211.235 102.026 211.107 101.234 211.107 99.7774 211.107 98.4228 210.979 97.4261 210.724 96.966 210.519 96.5571 210.34 95.6881 210.34 95.0236 210.34 94.3592 210.238 93.7713 210.136 93.6946 210.008 93.618 209.829 92.3401 209.752 90.8322 209.65 88.9154 209.471 87.9953 209.19 87.6886 208.96 87.4074 208.807 86.7685 208.807 86.104 208.807 85.4651 208.653 84.8006 208.474 84.6472 208.27 84.4172 208.142 82.9093 208.091 79.4079 207.989 74.6541 207.989 74.5008 207.401 73.913 207.043 73.5552 206.711 72.8395 206.609 72.175 206.532 71.5617 206.353 71.0505 206.225 71.0505 206.098 71.0505 205.995 70.9227 205.995 70.7438 205.995 70.5649 205.484 69.9004 204.871 69.2615 204.257 68.6225 203.516 67.7024 203.261 67.2168 202.98 66.7312 202.494 66.1945 202.136 66.0156 201.727 65.8112 201.472 65.4278 201.395 64.8911 201.293 64.201 201.114 64.0221 200.296 63.7921 199.785 63.6388 198.762 63.0254 198.072 62.412 197.382 61.8242 196.667 61.3386 196.462 61.3386 196.258 61.3386 195.951 61.1597 195.772 60.9552 195.593 60.7507 195.261 60.5718 195.005 60.5718 194.75 60.5718 194.418 60.3929 194.239 60.1885 194.06 59.984 193.651 59.8051 193.319 59.8051 192.961 59.8051 192.705 59.6517 192.705 59.4473 192.705 59.0128 191.453 58.0416 190.277 57.5305 189.868 57.3516 189.332 57.096 189.127 56.9682 187.568 56.0737 184.987 54.9747 184.143 54.8469 183.581 54.7702 183.096 54.5913 183.044 54.438 182.993 54.3102 182.814 54.1824 182.661 54.1824 182.482 54.1824 182.048 54.029 181.69 53.8246 181.332 53.6457 180.719 53.4157 180.284 53.3134 179.875 53.2112 179.492 53.0323 179.415 52.9556 179.236 52.7 177.038 51.6522 176.451 51.5499 176.195 51.4988 175.786 51.371 175.582 51.2944 175.377 51.2177 174.866 51.0899 174.432 51.0132 173.179 50.7577 173.103 50.7321 172.668 50.3743 172.029 49.8376 170.393 49.0708 169.908 49.0708 169.422 49.0708 167.48 48.1252 167.25 47.7674 167.173 47.6396 166.892 47.5374 166.585 47.5374 166.304 47.5374 165.716 47.384 165.282 47.1796 164.822 46.9751 164.004 46.7451 163.442 46.6684 162.879 46.5917 162.394 46.4128 162.343 46.2595 162.292 46.1317 162.087 46.0039 161.857 46.0039 161.653 46.0039 161.116 45.8506 160.681 45.6461 160.221 45.4417 159.429 45.2372 158.892 45.1605 158.381 45.0838 157.589 44.7771 157.18 44.4705 156.746 44.1638 156.413 44.0104 156.413 44.1126 156.413 44.1893 156.03 43.9849 155.544 43.6015 155.059 43.2437 154.445 42.937 154.164 42.937 153.909 42.937 153.167 42.6559 152.554 42.298 151.941 41.9402 151.251 41.608 151.046 41.5058 150.842 41.4291 150.458 41.2502 150.228 41.1224 149.973 40.9946 149.615 40.8924 149.436 40.8924 149.232 40.8924 148.874 40.6624 148.618 40.3812 148.363 40.1001 147.954 39.8701 147.724 39.8701 147.494 39.8701 147.187 39.7423 147.059 39.6145 146.906 39.4611 146.19 39.2822 145.475 39.18 144.733 39.1033 144.018 38.8733 143.864 38.6944 143.686 38.4899 143.072 38.3366 142.331 38.3366 141.667 38.3366 141.053 38.2344 140.951 38.1066 140.721 37.7232 139.264 37.0587 138.651 37.0587 138.318 37.0587 138.012 36.8798 137.91 36.6753 137.833 36.4709 137.577 36.292 137.322 36.292 136.555 36.292 133.309 35.4741 132.9 35.1674 132.031 34.5285 130.856 33.9918 130.293 33.9918 129.987 33.9918 129.475 33.8129 129.22 33.6084 128.939 33.404 128.453 33.2251 128.121 33.2251 127.789 33.2251 127.533 33.0973 127.533 32.9695 127.533 32.8161 127.303 32.7139 127.022 32.7139 126.741 32.7139 126.306 32.4839 126.076 32.2027 125.821 31.9216 125.514 31.6916 125.361 31.6916 125.182 31.6916 124.798 31.4105 124.466 31.0526 124.134 30.6948 123.699 30.4137 123.521 30.4137 123.316 30.4137 123.112 30.2348 123.035 30.0303 122.933 29.8259 122.754 29.647 122.626 29.647 122.473 29.647 121.936 29.2892 121.425 28.8802 119.968 27.6535 119.942 27.6279 119.252 27.449 118.869 27.3723 118.383 27.0401 118.128 26.7334 117.898 26.4267 117.514 26.0944 117.31 25.9922 117.106 25.89 116.594 25.5833 116.16 25.3022 115.751 25.021 115.214 24.7399 115.01 24.6377 114.805 24.561 114.294 24.3565 113.86 24.1521 113.195 23.8709 112.403 23.5387 111.943 23.3853 110 22.7208 108.569 21.8774 108.365 21.3151 108.237 20.9829 107.956 20.7018 107.726 20.7018 107.521 20.7018 107.342 20.5484 107.342 20.3695 107.342 20.2162 106.652 19.7306 105.809 19.3216 104.684 18.7849 104.276 18.4527 104.224 18.0438 104.199 17.7626 104.173 17.3026 104.148 17.0726 104.122 16.4592 103.253 15.5902 102.691 15.5902 102.435 15.5902 102.231 15.4369 102.231 15.258 102.231 15.1046 101.643 14.6957 100.927 14.3634 100.237 14.0312 99.5729 13.5712 99.4962 13.3411 99.2662 12.7022 98.3717 11.7566 97.9628 11.7566 97.7839 11.7566 97.6305 11.6288 97.6305 11.501 97.6305 11.0665 96.3015 9.71194 95.8671 9.71194 95.2792 9.68638 92.8257 7.2584 92.7234 6.56834 92.6723 6.21053 92.4423 5.98051 92.0334 5.92939 91.3945 5.82716 90.6022 5.06043 90.321 4.24258 90.0143 3.32251 89.3498 2.81135 88.4553 2.81135 87.8675 2.81135 87.4074 2.60689 86.9985 2.17241 86.564 1.71237 86.1551 1.53346 85.4651 1.53346 84.9283 1.53346 84.315 1.38012 84.1105 1.17566 83.5482 0.715617 82.8071 0.613386 80.2513 0.715617M90.1421 71.7406C90.8066 72.1239 91.9312 73.044 92.6979 73.7852 93.4391 74.5264 94.1547 75.1397 94.2825 75.1397 94.4103 75.1397 94.6914 75.4209 94.9214 75.7787 95.1514 76.1109 95.6626 76.571 96.0715 76.801 96.4804 77.0054 97.1705 77.7722 97.605 78.5389 98.0139 79.2801 98.8062 80.2257 99.3174 80.6346 99.8541 81.0691 100.467 81.6058 100.697 81.8614 100.902 82.117 102.384 83.6505 103.969 85.235 105.528 86.8452 106.831 88.3786 106.831 88.6342 106.831 88.8898 106.934 89.1965 107.087 89.3498 107.47 89.7332 108.416 92.519 108.62 93.9247 108.825 95.4326 108.518 100.493 107.981 104.531 107.879 105.298 107.675 106.09 107.521 106.243 107.087 106.831 106.831 133.258 107.215 140.389L107.419 144.171 106.346 145.168C105.579 145.884 105.042 146.19 104.506 146.19 104.097 146.19 103.33 146.369 102.793 146.599 102.282 146.804 100.825 147.213 99.5474 147.494 98.295 147.749 96.8894 148.158 96.4804 148.388 95.7393 148.772 95.6115 148.772 94.5125 148.26 93.848 147.979 93.0301 147.724 92.6723 147.724 92.3145 147.724 91.9823 147.621 91.9056 147.494 91.8289 147.391 91.3689 147.213 90.9089 147.136 89.7843 146.957 87.3052 145.219 85.874 143.583 85.235 142.842 84.0594 141.539 83.2671 140.644 82.4492 139.775 81.7847 138.957 81.7847 138.855 81.7847 138.293 77.6444 134.383 76.2643 133.667 75.4464 133.232 74.6541 132.721 74.5008 132.542 74.0408 131.98 72.0217 130.6 71.6383 130.6 71.3316 130.6 69.7726 129.603 69.2615 129.067 68.5714 128.376 66.2968 127.15 65.8878 127.226 65.76 127.252 65.6834 127.175 65.6834 127.022 65.6834 126.894 65.53 126.766 65.3511 126.766 65.1467 126.766 64.7888 126.536 64.5333 126.255 64.2777 125.974 63.971 125.821 63.8432 125.897 63.7154 125.974 63.0765 125.718 62.412 125.335 60.0862 123.981 56.7637 122.422 56.1759 122.422 55.767 122.422 55.4092 122.166 55.1025 121.629 54.8469 121.22 54.3613 120.76 54.0035 120.607 53.6712 120.479 53.0067 120.096 52.5723 119.764 52.1122 119.431 51.4733 119.073 51.1155 118.997 50.7577 118.895 50.2465 118.716 49.9654 118.588 49.6842 118.486 48.9431 118.256 48.3041 118.077 47.6652 117.898 46.8218 117.489 46.4384 117.157 46.0295 116.824 45.595 116.543 45.4672 116.543 45.3139 116.543 44.8283 116.262 44.3938 115.93 43.9337 115.572 43.2437 115.214 42.8092 115.112 42.4003 115.01 41.608 114.652 41.0968 114.32 40.5601 114.013 39.7934 113.732 39.41 113.732 39.0011 113.732 38.3366 113.579 37.9277 113.374 37.4676 113.144 35.9597 112.94 33.9151 112.863 32.0494 112.786 30.107 112.556 29.4425 112.326 28.778 112.122 26.989 111.636 25.4299 111.278 23.8965 110.921 22.2608 110.461 21.8007 110.282 20.8807 109.898 20.6762 109.208 21.4174 108.978 21.8774 108.85 24.1265 107.828 25.3788 107.189 25.7878 106.985 26.2222 106.831 26.35 106.831 26.5034 106.831 27.449 106.422 28.4713 105.911 29.5192 105.426 31.0271 104.914 31.8961 104.787 32.8161 104.659 33.7618 104.352 34.2218 103.994 35.0397 103.407 36.7265 103.074 39.2311 103.023 40.2279 102.998 40.739 102.819 41.5058 102.231 42.068 101.796 42.6559 101.464 42.8092 101.464 42.9881 101.464 43.3204 101.234 43.5759 100.953 43.8571 100.646 44.3682 100.442 44.8538 100.442 45.3139 100.442 46.1061 100.263 46.5917 100.059 47.1029 99.8541 47.9719 99.6752 48.5086 99.6752 49.0453 99.6752 49.7098 99.4962 49.9909 99.2918 50.2465 99.0873 50.8854 98.9084 51.3966 98.9084 51.9078 98.9084 52.5978 98.704 52.9301 98.4484 53.2623 98.1673 54.0035 97.8861 54.5658 97.8094 55.1025 97.7072 55.8692 97.4261 56.2526 97.1449 56.6104 96.8638 57.3771 96.5316 57.9394 96.3782 58.5272 96.2249 59.115 95.9182 59.2939 95.7393 59.4473 95.5348 59.7284 95.407 59.9329 95.4837 60.1118 95.5604 60.853 95.3303 61.5686 94.9725 62.2842 94.6147 63.2298 94.308 63.7154 94.308 64.3288 94.308 64.7633 94.1036 65.2744 93.5669 65.7089 93.1068 66.3223 92.7746 66.7823 92.7234 67.6258 92.6468 67.6258 92.6468 68.6481 90.091 69.4148 88.2253 70.0793 87.433 73.4529 84.4683 75.2164 82.9093 78.2067 79.6379 79.6635 77.6444 80.8136 76.0598 83.7527 72.9929 85.1072 71.9706 86.6407 70.7949 88.3786 70.7182 90.1421 71.7406M130.907 95.8415C131.546 95.8415 132.031 96.0204 132.364 96.3782 132.67 96.7105 133.59 97.0938 134.74 97.375 136.453 97.7839 136.606 97.8606 136.683 98.5251 136.759 99.0107 136.581 99.4451 136.146 99.9052 135.277 100.8 134.587 103.662 134.817 105.247 134.919 105.911 135.328 107.419 135.737 108.62 136.223 110.077 136.555 111.79 136.734 113.732 137.143 118.256 137.986 123.469 138.523 124.594 139.06 125.795 139.673 128.095 139.929 130.038 140.031 130.804 140.389 132.082 140.721 132.926 141.053 133.744 141.334 134.664 141.334 134.945 141.334 135.686 142.791 138.651 144.094 140.568 145.372 142.408 147.136 146.19 147.366 147.494 147.519 148.439 147.877 150.075 148.286 151.736 148.874 154.088 148.056 155.519 145.986 155.826 145.475 155.877 144.81 156.056 144.529 156.183 144.248 156.311 142.765 156.516 141.206 156.643 137.526 156.976 134.587 157.487 133.105 158.049 131.98 158.483 131.776 158.509 130.293 158.126 129.399 157.896 128.121 157.64 127.405 157.538 126.715 157.461 125.821 157.206 125.437 157.027 124.952 156.771 123.751 156.669 121.553 156.669 118.767 156.669 118.205 156.592 117.259 156.107 114.678 154.803 114.371 154.369 115.214 153.142 115.47 152.759 115.879 151.762 116.109 150.918 116.364 150.075 116.697 149.027 116.85 148.618 116.978 148.184 117.208 147.417 117.336 146.88 117.463 146.344 117.796 145.602 118.051 145.219 118.307 144.836 118.792 143.66 119.099 142.612 119.406 141.564 119.764 140.491 119.917 140.235 120.735 138.6 122.14 133.948 122.447 131.75 122.933 128.223 123.137 127.099 123.495 126.127 124.415 123.648 124.543 123.265 124.747 122.166 124.875 121.527 125.08 120.326 125.207 119.482 125.335 118.639 125.565 117.08 125.744 116.032 125.897 114.984 126.204 113.144 126.434 111.943 126.639 110.742 126.843 109.106 126.894 108.314 126.92 107.496 127.073 106.704 127.201 106.525 127.354 106.346 127.482 105.145 127.482 103.892 127.508 102.614 127.635 100.774 127.789 99.8029 127.968 98.8062 128.146 97.605 128.223 97.1194 128.402 95.9693 128.785 95.5092 129.424 95.6881 129.731 95.7648 130.396 95.8415 130.907 95.8415" fill="#FFFFFF" transform="matrix(-1 0 0 1 -175.573 205.321)"/></g></svg>