<svg width="400" height="200" xmlns="http://www.w3.org/2000/svg" xmlns:xlink="http://www.w3.org/1999/xlink" xml:space="preserve" overflow="hidden"><defs><clipPath id="clip0"><rect x="-450" y="622" width="400" height="200"/></clipPath></defs><g clip-path="url(#clip0)" transform="translate(450 -622)"><path d="M25.8755 3.82957C24.8922 4.55409 22.6152 5.84786 20.9074 6.67588 17.8541 8.12491 17.6988 8.28016 17.1296 10.7125 16.7673 12.1097 16.5086 14.1798 16.5086 15.3183 16.5603 16.4051 16.4051 18.3716 16.2498 19.6136L15.9393 21.8389 17.0778 20.7004C18.1646 19.6136 18.3199 19.5619 18.8891 20.3899 19.4066 21.1144 19.4066 21.7354 18.7339 23.7537 17.8541 26.6518 18.1646 28.463 19.4066 27.428 19.9241 26.9623 20.1829 26.9623 20.1829 27.3763 20.1829 27.6868 20.5451 27.9455 20.9592 27.9455 21.5802 27.9455 21.6319 28.1525 21.2179 28.9288 20.9592 29.4981 20.7004 30.7401 20.7004 31.6716L20.7521 33.3794 21.8389 31.9304C22.6669 30.7918 23.0292 30.6366 23.3397 31.1541 23.6502 31.6716 23.909 31.6199 24.4782 30.8436 25.151 29.9121 25.2027 30.0156 25.2027 32.0339 25.2027 34.1557 25.8237 35.5012 26.2378 34.3627 26.3413 34.0522 26.7553 33.3276 27.1693 32.8101 27.8938 31.8786 27.8938 31.8786 27.9455 33.2241 27.9455 35.1389 28.6701 35.0354 29.4981 33.1206 30.5331 30.6366 30.8953 30.8953 30.6366 34.0004 30.4296 36.7432 30.4296 36.8467 31.5164 36.4845 32.3961 36.2257 32.6031 36.381 32.6031 37.2607 32.6031 37.8817 32.8101 38.244 33.0689 38.0887 33.3276 37.9335 33.6381 38.451 33.7934 39.2273 34.0004 40.2623 34.8284 41.142 36.4327 42.1771 37.7265 43.0051 38.8132 43.8331 38.8132 44.0401 38.8132 44.2471 37.209 44.9199 35.1907 45.5926 31.7234 46.6794 25.979 50.6642 26.7553 51.4405 27.2728 51.958 24.3747 54.3385 23.5985 54.028 23.1844 53.8728 22.7187 53.9763 22.5634 54.2868 22.3564 54.5973 21.8907 54.7008 21.4767 54.5455 21.1144 54.3903 20.5451 54.7526 20.1829 55.3736 19.8724 55.9946 19.4584 56.3568 19.3031 56.2016 19.0961 56.0463 18.5786 56.2533 18.1128 56.6673 17.3366 57.3919 17.1813 57.3919 16.5603 56.6673 15.7323 55.6841 15.0078 55.6841 15.0078 56.6673 15.0078 57.0813 14.542 57.6506 13.9728 57.9611 13.093 58.4269 12.8342 58.3234 12.3167 57.1848 11.644 55.6841 10.8677 55.4771 10.8677 56.8743 10.8677 58.2199 8.38366 58.6856 7.65915 57.4436 7.29689 56.9261 6.72763 56.6156 6.36537 56.7708 6.00312 56.9261 5.69261 56.7708 5.69261 56.4603 5.69261 56.1498 5.48561 55.8911 5.1751 55.8911 4.91634 55.8911 4.65759 56.8226 4.65759 57.9611 4.65759 59.5136 4.45059 60.0312 3.82957 60.0312 3.10506 60.0312 3.00156 60.4452 3.26031 62.7222 3.77782 67.7421 4.65759 69.3981 7.34864 70.7436 8.64242 71.4164 11.2817 72.3479 13.1448 72.8136 16.3533 73.6934 17.0261 73.6417 26.7553 72.7619 32.3961 72.2444 38.7097 71.7786 40.8315 71.7269L44.6611 71.6751 46.3689 75.7635C48.3872 80.5763 48.7494 80.9903 53.9245 84.9234 56.0981 86.6312 58.0646 88.2354 58.2199 88.546 58.4269 88.8047 58.2199 89.4775 57.7024 90.0467 57.1331 90.7195 56.8226 92.1168 56.7191 95.0148 56.6673 97.2919 56.3051 99.6207 55.9428 100.293 55.5806 100.966 55.4253 101.846 55.5806 102.26 55.9946 103.295 55.4771 103.191 52.786 101.639 50.8195 100.5 50.0432 100.345 47.7144 100.604 44.1436 101.018 41.0903 102.312 39.8483 103.916 38.451 105.624 38.451 107.176 39.8483 105.52L40.8315 104.278 40.8833 105.52C40.8833 106.659 40.935 106.711 41.556 105.934 42.5393 104.641 45.7479 103.502 48.0767 103.709 49.6292 103.812 50.7677 104.434 52.579 106.038 55.7358 108.832 57.4436 108.832 58.1164 106.09 58.3234 105.365 59.2031 103.916 60.0829 102.829L61.6872 100.863 62.5152 102.053C62.9292 102.726 64.223 104.175 65.3098 105.365L67.328 107.487 64.223 108.677C60.7557 109.971 57.2883 112.662 56.0981 114.991 55.1666 116.854 55.5288 117.475 56.8226 116.284 58.2716 114.939 58.4269 115.198 57.5471 117.785 56.9261 119.597 56.9261 120.269 57.3919 120.735 57.8059 121.149 57.9611 121.149 57.8576 120.787 57.7024 120.269 58.8926 118.458 61.4802 115.353 63.2397 113.179 68.0008 110.799 70.8471 110.644 73.1242 110.488 73.4864 110.644 76.0222 112.921L78.7133 115.353 77.8852 122.753C76.3845 135.484 76.7985 142.781 79.2308 147.594 80.4728 150.026 81.9218 151.423 84.8716 152.924 88.0284 154.528 97.8094 163.844 97.8094 165.189 97.8094 166.431 92.2203 172.9 89.3222 175.022 88.1837 175.798 85.5444 177.04 83.3709 177.713 81.1973 178.437 78.6098 179.317 77.6265 179.731 76.1775 180.352 75.2977 180.404 73.3312 179.938 71.1576 179.472 70.5884 179.524 68.3113 180.611 66.8623 181.284 65.7238 182.112 65.7238 182.474 65.7238 182.785 64.637 183.354 63.2915 183.664 60.3934 184.441 57.4436 187.132 57.4436 189.098 57.4436 190.547 57.9094 190.806 58.9444 189.771 59.4619 189.253 59.5136 189.409 59.2549 190.547 59.0479 191.323 59.0479 192.358 59.2031 192.928 59.5136 193.911 59.6171 193.859 61.0662 192.462 62.7222 190.754 63.7572 190.651 66.5 191.737 68.5183 192.617 69.8638 192.41 71.1576 191.116 72.1926 190.081 72.7101 190.547 71.9856 191.893 71.3129 193.135 71.2094 196.136 71.8304 196.136 72.0891 196.136 72.7101 195.671 73.2794 195.049 74.8319 193.342 75.867 192.979 77.2642 193.6 78.2993 194.066 79.7483 193.756 85.9584 191.737 91.7545 189.823 94.6526 189.202 99.1031 188.788 102.26 188.477 105.417 187.96 106.141 187.597 107.746 186.718 108.625 184.027 108.315 180.973 107.953 177.713 108.936 172.538 110.799 168.139 112.714 163.688 112.869 161.411 111.472 159.704 110.954 159.031 109.816 157.634 109.039 156.599 107.901 155.253 107.435 153.907 107.125 151.475 106.711 148.06 104.744 143.454 102.881 141.487 102.312 140.814 100.914 140.193 99.5689 139.986 96.7744 139.572 96.2569 138.848 97.8094 137.554 98.8961 136.674 99.1031 136.674 99.8794 137.399 101.225 138.589 105.831 138.382 108.936 136.985 112.714 135.225 114.059 134.967 118.199 135.381 121.822 135.743 121.925 135.795 124.202 138.382 128.705 143.609 136.933 151.423 138.434 151.993 139.314 152.355 140.97 152.872 142.16 153.183 144.955 153.907 148.525 156.599 149.716 158.876 151.268 161.825 150.699 166.69 148.163 171.917 144.748 179.007 142.056 182.215 137.295 184.751 135.07 185.993 132.948 187.235 132.534 187.546 132.172 187.856 130.464 188.115 128.756 188.115 126.272 188.115 125.548 188.322 124.823 189.202 124.358 189.823 123.271 190.444 122.495 190.651 120.218 191.168 117.475 194.014 117.113 196.292L116.802 198.206 119.752 196.861C121.304 196.136 123.271 195.619 124.047 195.722 125.341 195.878 125.496 196.033 125.341 197.689 125.186 199.759 125.6 201.829 126.169 201.829 126.376 201.829 126.79 201.156 127.1 200.328 127.721 198.776 129.481 198.103 131.241 198.776 133.052 199.5 135.95 199.293 136.674 198.362 137.295 197.637 137.451 197.792 137.658 200.018 137.968 203.019 138.641 203.381 139.883 201.26 140.711 199.811 140.918 199.707 142.729 199.966 145.058 200.38 148.577 199.397 151.32 197.534 152.665 196.602 154.011 196.136 155.356 196.136 159.445 196.136 162.239 191.427 163.895 181.749 164.568 177.661 164.62 176.057 164.102 172.02 163.274 165.241 163.378 163.326 164.62 160.946 166.069 158.151 165.655 156.288 162.757 152.148 161.463 150.337 160.428 148.318 160.428 147.646 160.428 144.023 157.685 141.073 151.786 138.382 149.716 137.451 148.008 136.467 148.008 136.157 148.008 135.898 149.819 135.536 152.044 135.329 154.218 135.122 158.255 134.656 160.946 134.242 179.369 131.551 194.946 132.276 209.54 136.623 216.94 138.848 228.429 143.402 235.622 147.025 239.348 148.888 241.677 149.819 241.677 149.405 241.677 148.163 232.724 139.986 228.584 137.451 220.511 132.431 200.69 123.944 180.145 116.698 159.497 109.402 157.685 108.367 147.853 97.1884 145.576 94.5491 142.367 91.8063 138.279 88.96 133.88 85.8549 129.998 82.4393 124.202 76.5397 115.405 67.6903 113.697 66.5518 105.572 63.9125 101.639 62.6187 100.449 62.5152 94.1868 62.5152L87.2004 62.567 82.5428 57.3401C76.3327 50.3537 76.281 50.2502 77.6782 47.5592 78.5063 45.9031 78.6615 44.8681 78.4545 43.0051 78.2475 41.7113 78.0922 40.0553 78.0922 39.3308 77.9887 36.2257 77.523 34.6732 76.074 32.8619 75.1942 31.7751 74.5214 30.2743 74.5214 29.5498 74.5214 27.7385 73.6417 24.737 72.8136 23.5467 72.3479 22.9257 71.4681 22.6152 70.3813 22.6669 66.2413 22.7704 57.4954 18.5786 52.6825 14.1798 48.4907 10.3502 41.5043 5.22685 38.8132 3.98483 37.2607 3.26031 35.0354 2.8463 32.0856 2.69105 27.9973 2.48405 27.5833 2.58755 25.8755 3.82957" fill="#FFFFFF" transform="matrix(-1 0 0 1 -127.595 619.393)"/></g></svg>