<svg width="400" height="200" xmlns="http://www.w3.org/2000/svg" xmlns:xlink="http://www.w3.org/1999/xlink" xml:space="preserve" overflow="hidden"><defs><clipPath id="clip0"><rect x="814" y="119" width="400" height="200"/></clipPath></defs><g clip-path="url(#clip0)" transform="translate(-814 -119)"><path d="M16.8832 0.613935C16.346 0.690677 14.5426 1.1895 12.8543 1.72669 11.1659 2.22551 9.09391 2.76271 8.28812 2.87782 6.29283 3.22316 4.56614 4.94985 3.53013 7.7893 3.06967 8.9788 2.26388 10.8206 1.72669 11.8566 0.537193 14.2356 0.153484 16.4995 0.767419 17.6123 1.30461 18.6099 3.33827 19.9529 4.37429 19.9529 4.79637 19.9529 5.6789 19.5308 6.40794 18.9552 8.13464 17.6506 9.66947 17.0367 13.66 16.1542 20.0296 14.7344 22.6772 14.5426 26.169 15.1565 33.4978 16.4228 40.9034 19.9529 51.6089 27.205 62.8899 34.8408 74.4396 45.4695 86.7183 59.59 89.9798 63.3504 103.333 76.4733 114.883 87.3322 120.83 92.896 128.236 100.8 131.536 105.098 134.797 109.357 136.447 113.578 136.984 119.334 137.598 125.665 139.593 130.077 143.2 132.955 144.236 133.799 145.349 134.951 145.618 135.488 146.116 136.409 147.575 145.464 147.997 150.107 148.15 151.68 147.92 153.292 147.229 156.055 146.692 158.127 146.155 160.544 146.04 161.426 145.733 163.767 144.773 167.681 144.121 169.216 143.814 169.945 143.392 171.787 143.2 173.283 142.817 176.007 141.397 179.96 140.783 179.96 140.591 179.96 140.438 180.535 140.438 181.264 140.438 183.298 141.55 183.797 146.193 183.797L150.03 183.797 150.03 182.3C150.03 179.729 151.066 175.163 152.256 172.631 152.87 171.288 154.136 168.141 155.057 165.686 155.978 163.192 156.86 161.311 156.975 161.465 157.129 161.618 157.704 163.268 158.242 165.187 158.817 167.067 159.623 169.753 160.084 171.134 160.928 173.705 161.235 178.655 160.659 180.804L160.39 181.878 164.304 181.878C169.561 181.84 169.868 181.648 169.062 178.425 168.717 177.12 168.448 174.549 168.448 172.708 168.448 170.636 168.026 166.99 167.297 163.076 166.645 159.585 166.031 155.632 165.878 154.251 165.762 152.87 165.34 150.99 164.88 150.03 162.386 144.505 161.925 143.392 161.925 143.124 161.925 142.932 163.882 143.737 166.3 144.85 171.096 147.152 176.007 148.918 180.382 149.877 184.18 150.759 192.622 150.759 196.191 149.877 197.649 149.531 198.876 149.263 198.915 149.263 198.992 149.263 199.145 151.105 199.299 153.369 199.606 158.088 200.296 161.887 201.409 165.571 202.368 168.64 202.483 173.59 201.678 175.547 201.025 177.043 199.836 177.926 197.956 178.271 195.385 178.732 193.389 179.921 192.776 181.303 192.469 182.032 192.238 182.799 192.238 183.029 192.238 183.26 195.001 183.413 200.258 183.413L208.277 183.413 209.083 182.108C209.544 181.418 209.889 180.305 209.889 179.614 209.889 178.962 210.004 178.425 210.196 178.425 210.349 178.425 210.426 176.468 210.349 174.127 210.273 170.674 210.426 168.794 211.194 164.88 211.769 162.156 212.191 159.431 212.191 158.817 212.191 158.203 212.306 157.704 212.46 157.704 212.575 157.704 213.649 158.625 214.839 159.738 216.028 160.851 218.1 162.386 219.482 163.115 220.863 163.844 223.127 165.532 224.547 166.837 227.693 169.791 228.038 170.904 226.811 174.051 226.043 176.123 225.775 178.885 226.235 180.113 226.58 181.034 228.307 180.919 228.307 179.96 228.307 179.461 228.844 178.924 229.919 178.386 231.76 177.427 235.444 174.089 236.173 172.669 236.672 171.71 236.864 170.52 236.787 168.947 236.749 167.873 234.753 165.532 231.837 163.115 229.343 161.043 228.077 159.354 225.928 155.402 224.432 152.563 223.357 150.836 222.666 150.107 221.784 149.186 222.283 143.661 223.28 143.124 223.626 142.97 226.043 142.586 228.614 142.318 235.674 141.627 248.72 142.625 263.186 145.004 277.383 147.344 292.425 147.997 304.281 146.807 314.68 145.733 322.354 145.349 327.688 145.541 335.439 145.886 337.741 146.347 354.739 151.181 366.481 154.52 368.284 154.788 376.112 154.52 384.63 154.251 388.736 152.947 393.878 148.879 394.952 148.073 396.87 146.654 398.175 145.771 399.48 144.85 400.516 144.083 400.477 144.006 400.132 143.699 397.293 144.889 395.182 146.27 392.304 148.112 389.043 149.647 385.82 150.644 383.939 151.22 382.29 151.373 376.611 151.335 370.433 151.335 369.282 151.22 365.828 150.337 361.07 149.109 357.847 147.958 352.821 145.694 344.84 142.126 335.554 139.095 329.031 137.943 326.92 137.56 325.04 137.138 324.81 137.023 324.618 136.869 323.582 136.792 322.508 136.831 321.472 136.907 319.937 136.831 319.131 136.716L317.635 136.524 318.747 135.334C319.63 134.413 319.668 134.221 319.054 134.452 317.711 134.989 314.833 135.833 314.488 135.833 314.296 135.833 314.45 135.488 314.833 135.066 315.946 133.838 315.294 133.838 312.877 135.066 311.15 135.948 310.075 136.217 308.426 136.217 307.198 136.217 306.2 136.102 306.2 135.91 306.2 135.756 306.891 135.219 307.735 134.682 308.579 134.145 309.27 133.608 309.27 133.454 309.27 133.224 308.656 133.377 303.706 134.835 301.404 135.526 301.02 135.296 302.555 134.106 303.169 133.608 303.591 133.109 303.514 132.994 303.399 132.917 301.749 133.416 299.869 134.145 297.95 134.835 295.763 135.449 294.996 135.449 293.653 135.449 288.166 134.452 287.859 134.145 287.782 134.068 289.202 133.109 291.005 132.034 294.267 130.039 295.494 129.003 294.075 129.425 293.653 129.54 292.233 129.924 290.852 130.269 289.47 130.615 288.051 130.96 287.667 131.075 287.053 131.267 287.015 131.19 287.36 130.5L287.82 129.694 285.902 130.461C284.827 130.845 283.331 131.459 282.564 131.804 281.796 132.111 280.76 132.38 280.3 132.38 279.187 132.38 274.237 130.73 270.246 129.041L267.062 127.698 269.287 126.24C271.513 124.782 273.086 123.324 272.741 122.979 272.664 122.864 271.359 123.132 269.901 123.554 268.443 123.976 267.215 124.322 267.138 124.322 267.062 124.322 267.369 123.861 267.829 123.286 268.29 122.71 268.481 122.173 268.29 122.096 268.098 122.058 266.524 122.595 264.836 123.363 263.148 124.092 261.613 124.706 261.383 124.706 260.769 124.706 250.562 119.756 250.562 119.449 250.562 119.257 251.445 118.643 252.481 118.067 254.246 117.07 255.205 115.88 253.785 116.417 253.44 116.533 252.25 116.763 251.099 116.878 249.258 117.108 249.027 117.07 249.258 116.494 249.565 115.727 249.258 115.727 246.955 116.417 245.229 116.955 245.037 116.916 242.965 115.995 241.775 115.458 240.164 114.806 239.435 114.537 238.706 114.269 237.401 113.731 236.595 113.386L235.06 112.734 236.02 112.005 236.94 111.276 234.37 111.276C232.873 111.276 231.76 111.122 231.76 110.892 231.76 110.662 231.262 110.508 230.686 110.508 229.688 110.508 221.592 107.554 220.249 106.71 219.789 106.364 219.789 106.249 220.364 105.597 220.71 105.213 221.017 104.829 221.017 104.714 221.017 104.638 219.865 104.599 218.446 104.676 216.143 104.791 215.414 104.599 212.191 103.295 209.544 102.22 208.546 101.606 208.584 101.184 208.623 100.685 208.316 100.532 207.126 100.532 205.438 100.532 203.251 99.6493 193.773 95.0832 181.494 89.2124 175.892 86.4113 171.71 83.9939 169.408 82.6893 166.53 81.0778 165.379 80.4638 164.228 79.8499 161.542 78.1616 159.431 76.7802 157.321 75.3989 155.441 74.171 155.21 74.0943 155.019 74.0175 153.215 72.828 151.22 71.485 149.263 70.1037 146.5 68.3002 145.08 67.4561 143.699 66.6119 141.857 65.4224 141.013 64.8085 137.752 62.4295 133.684 59.8586 133.262 59.8586 132.994 59.8586 132.763 59.7052 132.763 59.5517 132.763 59.3598 130.231 57.518 127.123 55.446 120.984 51.3019 111.506 44.6638 109.357 42.9371 100.916 36.1454 85.759 24.7109 80.4255 21.1424 71.2164 14.9263 61.8923 9.70784 56.2134 7.48233 54.7553 6.90677 53.0286 6.21609 52.3763 5.94749 49.0764 4.4894 40.9801 2.26388 35.4931 1.30461 32.5002 0.767419 18.7634 0.268596 16.8832 0.613935" fill="#FFFFFF" transform="matrix(-1 0 0 1 1214.48 126.852)"/></g></svg>