<svg width="400" height="200" xmlns="http://www.w3.org/2000/svg" xmlns:xlink="http://www.w3.org/1999/xlink" xml:space="preserve" overflow="hidden"><defs><clipPath id="clip0"><rect x="174" y="599" width="400" height="200"/></clipPath></defs><g clip-path="url(#clip0)" transform="translate(-174 -599)"><path d="M140.584 1.14142C140.47 1.33165 139.976 1.52189 139.481 1.52189 139.024 1.52189 138.492 1.67408 138.302 1.86431 138.073 2.05455 137.16 2.28283 136.209 2.39697 135.258 2.51111 133.736 2.81549 132.785 3.04378 131.035 3.50034 127.458 4.033 123.653 4.41347 122.512 4.52762 121.409 4.79395 121.218 4.98418 120.99 5.17442 120.457 5.32661 120.001 5.32661 119.506 5.32661 119.012 5.4788 118.897 5.70708 118.783 5.89731 118.251 6.08755 117.756 6.08755 117.261 6.08755 116.729 6.23974 116.615 6.46802 116.5 6.65826 116.006 6.84849 115.549 6.84849 115.093 6.84849 113.875 7.26701 112.848 7.79967 111.821 8.33233 110.489 8.75085 109.918 8.75085 109.348 8.75085 108.739 8.90304 108.625 9.13132 108.511 9.32156 107.978 9.5118 107.483 9.5118 106.989 9.5118 106.456 9.66399 106.342 9.89227 106.228 10.0825 105.353 10.2727 104.44 10.2727 103.526 10.2727 102.651 10.4249 102.537 10.6532 102.423 10.8434 101.814 11.0337 101.167 11.0337 100.559 11.0337 100.064 11.1859 100.064 11.4142 100.064 11.6044 99.7978 11.7946 99.4934 11.7946 99.189 11.7946 98.352 12.1371 97.591 12.5556 96.8301 12.9741 95.5745 13.3165 94.7375 13.3165 93.9385 13.3165 93.1395 13.4687 93.0254 13.697 92.9112 13.8872 92.3786 14.0775 91.884 14.0775 91.3893 14.0775 90.8567 14.2296 90.7425 14.4579 90.6284 14.6482 90.1718 14.8384 89.7914 14.8384 89.3728 14.8384 88.4597 15.1808 87.6988 15.5993 86.9378 16.0179 86.0627 16.3603 85.6823 16.3603 85.3398 16.3603 84.4648 16.7027 83.7799 17.1212 83.0951 17.5398 82.2961 17.8822 81.9917 17.8822 81.6873 17.8822 81.421 18.0344 81.421 18.2246 81.421 18.4148 81.0025 18.529 80.4318 18.529 79.8991 18.529 79.1001 18.9095 78.6055 19.366 78.1489 19.7845 77.5782 20.165 77.3499 20.165 77.1217 20.165 76.7412 20.4313 76.4748 20.7357 75.79 21.5347 74.0398 22.2957 71.0722 23.0185 68.9035 23.5132 67.5718 23.5512 62.4735 23.2849 57.1088 22.9425 56.2718 22.8283 54.9401 21.9913 52.8095 20.6596 50.4125 19.8987 47.1785 19.4421 45.6186 19.2138 42.1563 18.6812 39.531 18.3007 36.9058 17.9202 34.2805 17.6539 33.7479 17.768 33.1771 17.8822 32.4543 17.768 32.1499 17.5017 31.8074 17.1973 30.1714 17.0451 27.6984 17.0071 24.16 17.0071 23.5893 17.0832 21.6869 18.0724 20.5455 18.6431 19.5182 19.2138 19.4041 19.366 19.2899 19.4802 18.7953 19.8226 18.2626 20.0889 15.6754 21.4206 14.9525 21.9532 12.1371 24.6546 8.40843 28.231 7.60944 29.4485 7.60944 31.6933 7.60944 33.6718 7.11482 34.7371 5.4027 36.4492 3.91886 37.857 3.95691 38.6179 5.59294 42.2324 6.42997 44.0586 6.50607 44.6674 6.31583 46.9122 6.20169 48.358 5.89731 49.8418 5.70708 50.2223 5.4788 50.6028 5.32661 51.592 5.32661 52.391 5.32661 53.5704 5.06028 54.1412 4.18519 54.9782 3.53839 55.5869 3.04378 56.2718 3.04378 56.5001 3.04378 56.7284 2.62526 57.3371 2.0926 57.8317 1.02727 58.821 0.837038 60.7233 1.59798 62.1311 1.86431 62.6257 2.0165 64.2237 1.97845 65.8977 1.94041 69.0556 2.47307 70.958 3.84277 72.3277 4.26128 72.7462 4.87004 73.0126 5.17442 72.8984 5.85927 72.6321 6.96264 73.1647 8.48452 74.4203 9.05523 74.9149 10.2727 75.4856 11.1478 75.7139 12.0229 75.9422 13.0502 76.2846 13.3926 76.4748 14.2677 76.9695 15.9798 76.9695 15.9798 76.4748 15.9798 76.2466 16.3222 76.0944 16.7408 76.0944 17.1593 76.0944 17.5017 76.3607 17.5017 76.6651 17.5017 77.4641 18.4148 77.388 19.2138 76.4748 20.0509 75.5617 22.0674 75.4476 22.0674 76.3227 22.0674 76.7031 22.7142 76.3227 24.0458 75.1812 25.1872 74.192 26.4428 73.4311 26.8994 73.4311 27.394 73.4311 28.0788 73.2789 28.4593 73.1267 32.6825 71.0722 32.6064 71.0722 36.259 71.0722 39.493 71.0722 39.9115 70.9961 40.0637 70.3493 40.2159 69.7785 40.5963 69.6264 41.7378 69.6264 42.5748 69.6264 44.2108 69.4361 45.3903 69.2078 47.3307 68.7893 47.6731 68.8274 48.3199 69.4361 48.7384 69.8166 49.0809 70.3493 49.0809 70.6156 49.0809 71.2243 54.6738 76.7792 57.4513 78.9099 58.5927 79.823 59.7341 80.4698 60.0004 80.3937 60.2667 80.3176 61.1799 80.8883 62.093 81.7254 63.0061 82.5624 64.0715 83.3233 64.49 83.4755 64.9465 83.5897 67.0011 85.3398 69.0556 87.3563 71.1482 89.3348 73.1267 91.085 73.5072 91.2372 73.8496 91.3893 75.828 93.1395 77.8826 95.118 79.9371 97.0964 83.3994 100.33 85.5301 102.271 88.726 105.2 89.4109 106.038 89.4109 106.913 89.4109 107.521 89.2587 108.13 89.0304 108.244 88.8402 108.358 88.6499 108.815 88.6499 109.233 88.6499 109.614 88.4978 110.261 88.3075 110.641 87.6607 111.935 86.6334 114.56 85.9866 116.615 85.7584 117.452 85.0355 119.202 84.4267 120.495 83.818 121.789 83.3233 123.045 83.3233 123.273 83.3233 123.463 83.1712 123.958 82.9809 124.338 82.7907 124.681 82.4863 125.404 82.2961 125.936 82.0678 126.469 81.5351 127.648 81.0786 128.523 80.66 129.437 80.2796 130.35 80.2796 130.54 80.2796 130.73 79.785 131.986 79.1382 133.355 78.5294 134.725 77.9967 136.019 77.9967 136.247 77.9967 136.475 77.388 137.883 76.6651 139.367 75.9422 140.851 75.3334 142.22 75.3334 142.411 75.3334 142.639 74.5725 144.351 73.6594 146.253 72.7462 148.156 71.6809 150.401 71.3004 151.238 70.121 153.863 67.8762 156.831 64.9846 159.646 62.3213 162.271 60.7233 163.222 55.1684 165.657 54.4455 166 52.7715 166.989 51.5159 167.94 49.3092 169.538 49.0428 169.614 46.76 169.614 45.4283 169.576 43.2216 169.767 41.8519 169.995 36.3351 170.946 33.1771 171.25 31.8455 171.022 30.8563 170.832 30.0573 170.946 29.1441 171.365 27.9266 171.935 26.633 173.115 27.2037 173.115 27.7364 173.115 26.4808 174.332 25.5677 174.675 24.8448 174.941 24.6926 175.245 24.8068 176.235 24.8829 177.262 25.1111 177.528 25.9101 177.604 26.4428 177.68 27.5081 178.365 28.2691 179.126L29.6007 180.534 29.7529 184.795C29.9051 190.464 29.867 190.426 35.498 190.426 39.3788 190.426 39.8735 190.502 40.9007 191.301 42.2704 192.405 42.8792 193.242 43.0694 194.383 43.1455 195.106 43.8304 195.639 46.0371 196.742 47.597 197.541 48.9287 198.378 49.0048 198.606 49.0809 198.797 49.3853 198.987 49.6516 198.987 49.956 198.987 50.4506 199.291 50.793 199.634 51.7822 200.623 73.1647 200.395 81.2308 199.329 92.9873 197.769 93.8624 197.693 95.2702 198.378 95.9931 198.72 96.9062 199.443 97.2867 199.976L98.0096 200.927 103.108 200.509C111.821 199.824 112.734 199.748 114.903 199.405 116.044 199.215 117.109 199.139 117.261 199.215 117.414 199.291 119.849 199.215 122.702 198.987 126.355 198.72 130.197 198.72 135.562 198.987 141.041 199.291 144.77 199.291 148.765 198.987 151.808 198.759 155.499 198.53 156.945 198.454 158.428 198.34 161.663 197.998 164.174 197.655 166.685 197.313 170.185 196.894 171.973 196.704 173.762 196.552 177.452 196.133 180.153 195.791 182.893 195.448 186.66 194.992 188.562 194.764 190.464 194.535 196.323 194.307 201.536 194.269 210.591 194.231 211.162 194.269 211.999 194.992 212.798 195.715 213.407 195.753 220.293 195.715 224.364 195.677 230.794 195.486 234.561 195.258 238.328 195.03 243.73 194.802 246.584 194.802 250.921 194.802 251.987 194.687 253.318 194.041 254.155 193.622 255.182 193.28 255.525 193.28 256.476 193.28 259.063 192.519 260.89 191.72 261.803 191.301 262.868 190.997 263.287 190.997 264.086 190.997 267.281 188.942 269.032 187.344 269.564 186.85 270.097 186.431 270.249 186.431 270.782 186.431 275.271 182.703 276.793 181.029 278.924 178.67 280.408 176.311 280.408 175.283 280.408 174.066 281.321 172.354 282.5 171.212 283.299 170.451 283.452 169.995 283.452 168.092 283.452 166.875 283.604 165.886 283.832 165.886 284.06 165.886 284.212 165.201 284.212 164.364L284.212 162.842 282.006 162.842C280.788 162.842 279.685 162.956 279.533 163.07 279.266 163.337 272.113 163.26 266.33 162.918 261.955 162.652 261.955 162.652 262.031 161.701 262.069 161.168 262.297 160.217 262.564 159.608 262.83 158.961 262.982 158.2 262.944 157.858 262.906 157.553 263.249 156.945 263.667 156.564 264.428 155.879 264.694 154.167 264.124 153.52 263.933 153.292 263.553 152.379 263.287 151.428 262.982 150.477 262.259 148.879 261.651 147.813 260.966 146.672 260.699 145.873 260.966 145.797 261.574 145.607 261.46 144.693 260.813 144.427 260.509 144.313 260.243 143.894 260.243 143.476 260.243 143.057 259.938 142.449 259.596 142.106 259.101 141.612 258.987 140.813 259.025 138.758 259.025 137.312 259.254 135.905 259.482 135.676 260.091 135.068 259.938 134.725 258.302 133.203 256.857 131.872 256.78 131.719 257.237 130.92 257.732 130.121 257.617 129.931 255.182 127.61 253.737 126.279 252.671 125.061 252.786 124.871 252.9 124.681 252.481 124.034 251.872 123.463 251.226 122.854 250.731 122.017 250.731 121.561 250.731 120.724 249.704 119.62 247.116 117.756 244.681 115.93 243.502 114.674 243.502 113.837 243.502 113.038 241.866 111.098 241.219 111.098 240.763 111.098 240.382 109.804 240.648 109.119 240.915 108.473 237.871 105.391 234.713 103.146 233.572 102.347 232.126 100.977 231.555 100.14 230.984 99.3032 230.262 98.5042 229.995 98.39 229.348 98.1617 225.658 93.2156 224.707 91.3513 223.984 89.9816 223.908 90.324 225.81 84.0843 226.114 83.1331 226.457 81.1547 226.609 79.7089 226.799 77.5782 227.066 76.8173 227.865 75.9041 229.577 74.0018 230.033 72.8223 229.501 71.4526 229.12 70.4253 229.158 70.2732 229.843 70.121 230.376 69.9688 230.566 69.6264 230.528 68.7132 230.452 66.7728 232.392 58.897 233.153 58.1361 233.419 57.8698 233.61 57.3752 233.61 57.0327 233.61 56.6523 233.952 56.2337 234.371 56.1196 235.17 55.8533 235.398 54.9782 234.751 54.5977 234.104 54.2172 234.333 52.2768 235.132 51.2496 235.55 50.7169 235.893 49.9179 235.893 49.4994 235.893 48.9667 236.121 48.7004 236.654 48.7004 237.3 48.7004 237.414 48.4341 237.414 47.0263 237.414 45.8849 237.605 45.2762 237.985 45.124 238.328 45.0098 238.556 44.4391 238.556 43.6782 238.556 42.9933 238.822 41.928 239.127 41.3192 239.811 39.9876 239.849 39.4169 239.241 38.4277 238.822 37.7809 238.898 37.4004 239.621 36.0307 240.078 35.1556 240.648 33.4815 240.839 32.3401 241.333 29.4866 241.942 27.4701 242.399 27.2037 242.855 26.8994 242.437 24.4263 241.714 23.2468 240.991 22.1054 239.469 20.3172 237.947 18.8334 235.626 16.5505 230.109 11.9849 229.805 12.061 229.615 12.1371 229.006 11.7566 228.435 11.2239 227.332 10.1966 225.392 9.13132 224.669 9.13132 224.44 9.13132 223.527 8.7889 222.652 8.37038 221.815 7.95186 220.826 7.60944 220.483 7.60944 220.141 7.60944 219.532 7.4192 219.114 7.19092 218.695 6.96264 217.82 6.7724 217.211 6.7724 216.603 6.73435 215.994 6.58216 215.88 6.39193 215.766 6.23974 215.195 6.08755 214.586 6.08755 213.407 6.08755 210.363 5.44075 209.069 4.90809 208.651 4.7559 205.15 4.22324 201.308 3.76667 196.133 3.15792 193.927 3.04378 192.709 3.31011 191.606 3.57644 190.198 3.50034 187.915 3.15792 186.165 2.85354 181.485 2.47307 177.49 2.28283 173.533 2.0926 168.625 1.75017 166.647 1.48384 162.842 0.989227 149.411 0.913133 144.655 1.33165 142.791 1.48384 141.726 1.44579 141.345 1.14142 141.003 0.875085 140.775 0.837038 140.584 1.14142M143.248 88.1934C144.313 88.3836 146.025 88.9163 147.09 89.3728 148.917 90.1718 149.107 90.3621 149.716 92.2644 150.058 93.4058 150.629 94.7375 151.009 95.1941 151.922 96.4116 153.825 100.635 153.901 101.662 153.901 101.776 154.281 102.347 154.776 102.88 155.233 103.45 155.613 104.059 155.613 104.249 155.613 104.478 155.803 104.63 155.993 104.63 156.222 104.63 156.374 104.858 156.374 105.124 156.374 105.923 158.086 109.157 159.189 110.375 159.722 110.984 160.179 111.592 160.179 111.707 160.179 111.821 160.787 112.544 161.51 113.266 162.233 113.989 162.728 114.75 162.614 114.941 162.5 115.131 162.69 115.397 162.994 115.511 163.337 115.625 163.603 115.968 163.603 116.234 163.603 116.995 165.125 119.468 165.581 119.468 165.81 119.468 165.886 119.696 165.772 120.001 165.657 120.267 166 120.952 166.495 121.485 166.989 122.017 167.408 122.588 167.408 122.702 167.408 123.235 169.196 125.518 169.424 125.289 169.576 125.175 169.69 125.289 169.69 125.594 169.69 125.936 170.033 126.545 170.451 127.002 170.87 127.458 171.212 127.991 171.212 128.181 171.212 128.409 171.479 128.447 171.859 128.333 172.278 128.181 172.392 128.219 172.202 128.561 172.011 128.828 172.202 129.398 172.62 129.855 173.762 131.187 174.827 132.861 175.436 134.192 175.702 134.877 176.082 135.448 176.235 135.448 176.425 135.448 176.539 135.6 176.539 135.752 176.539 135.943 177.186 136.78 178.023 137.655 178.822 138.492 179.735 139.709 180.001 140.356 180.306 141.003 180.648 141.536 180.8 141.536 180.99 141.536 181.105 141.726 181.105 141.954 181.105 142.182 181.599 143.057 182.17 143.933 183.502 145.949 184.148 147.433 184.148 148.536 184.148 149.564 182.627 151.009 180.344 152.189 179.392 152.645 178.327 153.178 177.985 153.368 177.604 153.558 177.034 153.711 176.729 153.711 176.425 153.711 175.854 153.863 175.474 154.053 174.256 154.7 170.489 155.689 170.109 155.461 169.919 155.309 169.12 155.575 168.359 155.993 167.636 156.412 166.761 156.754 166.456 156.754 166.152 156.754 165.772 156.983 165.619 157.287 165.163 158.048 163.527 158.847 162.271 158.885 160.711 158.961 157.059 160.065 156.754 160.559 156.526 160.94 148.688 160.521 145.454 159.988 144.085 159.76 143.21 158.657 143.894 157.972 144.503 157.363 144.503 148.879 143.856 147.243 143.095 145.226 142.639 144.085 142.258 143.362 142.068 142.981 141.916 141.916 141.916 141.003 141.916 140.052 141.764 139.215 141.574 139.101 141.003 138.72 140.28 134.345 139.671 127.078 139.481 124.681 139.215 122.246 139.062 121.675 138.872 120.914 139.024 120.381 139.557 119.658 140.242 118.821 140.28 118.479 139.938 117.49 139.671 116.691 139.633 116.12 139.9 115.701 140.09 115.359 140.318 113.723 140.318 112.087 140.356 110.451 140.584 108.853 140.813 108.587 141.117 108.244 141.079 107.712 140.737 106.722 140.318 105.657 140.318 105.2 140.699 104.63 141.041 104.059 141.041 103.641 140.737 102.842 140.508 102.233 140.166 101.434 140.014 101.015 139.823 100.597 139.595 99.3412 139.443 98.2378 139.253 96.4877 139.291 96.2594 139.938 96.2594 140.318 96.2594 140.737 96.1452 140.889 96.0311 141.117 95.8028 140.584 94.6234 139.671 93.52 139.367 93.1395 139.253 92.4927 139.405 91.884 139.557 91.3513 139.519 90.9328 139.329 90.9328 139.177 90.9328 138.834 90.4001 138.568 89.7153 137.959 88.1173 138.568 87.3563 140.166 87.6607 140.813 87.7749 142.22 88.0032 143.248 88.1934M189.703 106.684C189.817 106.989 190.959 107.978 192.252 108.967 193.546 109.918 195.106 111.136 195.715 111.668 196.323 112.201 196.932 112.62 197.084 112.62 197.199 112.62 199.291 114.522 201.688 116.881 204.085 119.202 208.384 122.892 211.276 125.023 216.45 128.866 218.924 130.882 222.728 134.307 225.392 136.704 227.066 137.883 229.044 138.796 229.995 139.215 231.403 140.204 232.24 140.927 233.039 141.688 233.914 142.296 234.142 142.296 234.675 142.296 238.175 145.607 238.175 146.101 238.175 146.291 238.746 147.128 239.469 147.889 242.018 150.743 243.083 153.825 241.904 154.738 241.638 154.928 239.089 155.118 236.273 155.156 231.403 155.271 227.789 155.765 226.99 156.45 226.761 156.602 226.267 156.754 225.848 156.754 225.392 156.754 224.06 157.363 222.842 158.086 221.625 158.809 220.331 159.418 219.989 159.418 219.646 159.418 218.657 159.684 217.82 159.95 216.184 160.521 203.21 160.825 200.242 160.369 197.998 159.988 197.541 159.304 198.873 158.352 199.596 157.858 200.09 156.983 200.433 155.765 200.737 154.738 201.117 153.558 201.346 153.102 202.145 151.39 201.041 142.867 199.9 142.03 199.367 141.65 199.215 141.079 199.253 139.9 199.329 138.035 198.302 135.6 196.59 133.47 195.563 132.176 195.372 131.643 195.372 129.741 195.372 128.295 195.144 127.268 194.764 126.811 194.117 126.05 192.024 121.713 191.568 120.229 191.415 119.696 190.959 118.707 190.54 118.06 190.122 117.376 189.894 116.653 190.008 116.462 190.16 116.272 190.084 116.006 189.855 115.854 189.665 115.74 189.475 115.283 189.475 114.864 189.475 114.256 189.627 114.142 190.35 114.332 190.997 114.56 190.845 114.294 189.703 113.266 188.904 112.544 188.334 111.707 188.41 111.44 188.524 111.136 188.372 110.337 188.105 109.614 187.611 108.473 187.649 108.244 188.181 107.597 188.562 107.217 188.714 106.913 188.562 106.913 188.41 106.913 188.41 106.722 188.524 106.532 188.866 105.999 189.475 106.076 189.703 106.684M114.446 107.635C115.207 108.092 116.044 109.918 116.044 111.06 116.044 111.935 116.881 114.979 119.126 121.979 119.506 123.273 119.849 124.643 119.849 125.061 119.849 125.442 120.001 125.936 120.191 126.164 120.381 126.355 120.724 128.143 120.99 130.121 121.256 132.1 121.599 134.04 121.789 134.383 121.979 134.763 122.131 135.41 122.131 135.867 122.131 136.323 122.284 137.312 122.474 138.073 122.664 138.834 123.045 140.47 123.311 141.726 123.577 142.981 123.92 144.161 124.072 144.389 124.681 145.264 125.213 149.031 124.833 150.02 124.414 151.123 120.381 155.233 119.696 155.233 119.468 155.233 118.175 156.26 116.881 157.515 115.549 158.771 114.332 159.798 114.18 159.798 113.989 159.798 113.495 160.141 113 160.559 111.859 161.548 111.783 161.548 98.0096 163.26 96.3355 163.451 94.7756 163.793 94.5092 164.021 94.2429 164.212 92.3786 164.364 90.1338 164.288 85.454 164.136 85.3779 164.059 87.052 160.483 87.6607 159.151 88.3836 157.401 88.6499 156.564 89.3348 154.395 90.1338 152.645 90.5143 152.417 90.7045 152.303 90.9708 151.732 91.123 151.161 91.2372 150.553 91.5796 149.83 91.8459 149.525 92.1122 149.221 92.5688 148.346 92.8351 147.623 93.1395 146.9 94.0527 145.188 94.8516 143.818 95.6887 142.449 96.716 140.737 97.1345 139.976 97.553 139.215 98.352 137.997 98.9607 137.312 99.5695 136.589 100.064 135.828 100.064 135.562 100.064 135.296 100.407 134.915 100.825 134.687 101.244 134.459 101.586 133.926 101.586 133.508 101.586 133.051 102.347 132.024 103.336 131.149 104.478 130.083 105.429 128.714 106.152 127.078 106.875 125.442 107.483 124.605 107.902 124.605 108.244 124.605 108.663 124.338 108.815 124.034 108.967 123.729 109.272 123.083 109.5 122.626 109.766 122.131 109.956 121.18 109.956 120.495 109.956 119.811 110.223 118.897 110.527 118.479 110.831 118.098 111.098 117.452 111.098 117.109 111.098 116.767 111.402 116.31 111.745 116.082 112.239 115.816 112.506 114.979 112.734 112.924 113.19 108.549 113.266 107.902 113.305 107.559 113.381 107.217 113.837 107.217 114.446 107.635" fill="#FFFFFF" transform="matrix(-1 0 0 1 516.674 598.073)"/></g></svg>