<svg width="627" height="344" xmlns="http://www.w3.org/2000/svg" xmlns:xlink="http://www.w3.org/1999/xlink" xml:space="preserve" overflow="hidden"><defs><clipPath id="clip0"><rect x="508" y="413" width="627" height="344"/></clipPath></defs><g clip-path="url(#clip0)" transform="translate(-508 -413)"><path d="M331.272 87.6232 328.041 87.6232 246.336 85.0779 246.336 0 193.536 0 193.536 133.034 193.436 136.256 193.536 136.259 193.536 136.358 196.743 136.358 278.472 138.905 278.472 183.024 1.64423 174.401 0 227.175 426.626 240.465 428.27 187.69 331.272 184.669 331.272 90.9398 331.372 87.7268 331.272 87.7239Z" stroke="#172C51" stroke-width="4.58333" stroke-miterlimit="8" fill="#4472C4" fill-rule="evenodd" transform="matrix(-0.696011 -0.718031 -0.718031 0.696011 981.413 594.592)"/><path d="M0 85.6665 0 130.334 55.3311 130.334 55.3311 216 99.753 216 99.753 130.334 146.91 130.334 146.91 216 191.332 216 191.332 130.334 238.488 130.334 238.488 216 282.911 216 282.911 130.334 339 130.334 339 85.6665 282.911 85.6665 282.911 0 238.488 0 238.488 85.6665 191.332 85.6665 191.332 0 146.91 0 146.91 85.6665 99.753 85.6665 99.753 0.000327537 55.3311 0.000327537 55.3311 85.6665Z" stroke="#172C51" stroke-width="4.58333" stroke-miterlimit="8" fill="#4472C4" fill-rule="evenodd" transform="matrix(1.83697e-16 1 1 -1.83697e-16 916.5 415.5)"/></g></svg>