<svg width="427" height="428" xmlns="http://www.w3.org/2000/svg" xmlns:xlink="http://www.w3.org/1999/xlink" xml:space="preserve" overflow="hidden"><defs><clipPath id="clip0"><path d="M147.869-39.0657 444.631 90.5532 315.012 387.316 18.2497 257.697Z" fill-rule="evenodd" clip-rule="evenodd"/></clipPath><clipPath id="clip1"><path d="M147.869-39.0657 444.631 90.5532 315.012 387.316 18.2497 257.697Z" fill-rule="evenodd" clip-rule="evenodd"/></clipPath><clipPath id="clip2"><path d="M147.869-39.0657 444.631 90.5532 315.012 387.316 18.2497 257.697Z" fill-rule="evenodd" clip-rule="evenodd"/></clipPath></defs><g transform="translate(-18 40)"><g clip-path="url(#clip0)"><g clip-path="url(#clip1)"><g clip-path="url(#clip2)"><path d="M282.973 168.335C278.778 177.939 267.593 182.323 257.989 178.129 248.386 173.934 244.001 162.749 248.196 153.146 252.39 143.542 263.576 139.158 273.179 143.352 282.782 147.547 287.167 158.732 282.973 168.335Z"/><path d="M320.014 36.1234C251.19 6.0627 171.028 37.4867 140.967 106.311 131.913 127.041 128.444 148.799 129.888 169.909 131.069 169.361 132.275 168.841 133.509 168.357 146.458 163.281 161.813 161.864 175.637 164.47 180.57 165.4 185.23 166.814 189.488 168.674 201.705 174.01 210.513 182.828 214.96 194.174 220.956 209.469 217.798 227.151 206.298 242.686 199.29 252.152 189.574 260.268 178.998 265.642 188.522 273.494 199.282 280.172 211.154 285.357 279.978 315.418 360.141 283.994 390.201 215.17 420.262 146.346 388.838 66.1841 320.014 36.1234ZM250.394 195.517C231.219 187.142 222.432 164.727 230.807 145.551 239.183 126.375 261.598 117.588 280.774 125.964 299.95 134.339 308.737 156.754 300.361 175.93 291.985 195.106 269.57 203.893 250.394 195.517Z"/><path d="M172.122 183.116C161.706 181.152 150.156 182.211 140.435 186.023 127.578 191.062 122.147 199.344 119.853 205.403 118.158 209.882 117.544 214.72 117.992 219.734 116.809 219.512 115.561 219.167 114.104 218.764 108.531 217.221 100.899 215.107 90.1055 219.339 79.3086 223.571 75.1422 230.308 72.1006 235.227 69.5975 239.275 68.2185 241.505 63.3091 243.43 58.399 245.355 55.8725 244.656 51.2848 243.387 45.7105 241.845 38.0759 239.734 27.2787 243.967 22.4003 245.879 19.996 251.384 21.9083 256.262 22.8643 258.702 24.7188 260.522 26.9439 261.494 29.169 262.466 31.7648 262.589 34.2037 261.632 39.1135 259.708 41.6402 260.407 46.2274 261.675 51.8022 263.217 59.4366 265.328 70.2341 261.096 81.031 256.863 85.1971 250.127 88.239 245.207 90.7421 241.159 92.1211 238.929 97.0306 237.004 101.933 235.083 104.458 235.781 109.04 237.051 113.034 238.157 118.087 239.555 124.603 238.701 127.985 243.946 132.371 247.985 137.558 250.566 137.983 250.778 138.428 250.986 138.894 251.19 144.785 253.763 153.914 255.468 165.827 250.797 175.549 246.987 184.741 239.915 191.049 231.395 198.69 221.073 200.909 210.313 197.296 201.097 193.683 191.88 184.744 185.495 172.122 183.116Z"/></g></g></g></g></svg>