<svg xmlns="http://www.w3.org/2000/svg" width="400" height="200" viewBox="-1294.564 102.671 5590.939 2795.470"><path fill="#fff" fill-rule="evenodd" d="M94.448 1780.577c-4.205-19.526 26.558-152.236 32.061-173.458-1.46-7.094 36.909-18.04 57.446-14.351 134.068 17.254 112.128-69.408 239.45 3.691 13.65 5.131 31.012 3.355 44.807-3.26 117.442-50.652 230.571-217.096 280.46-328.907 18.323-49.095 4.55-98.895 32.332-144.53 18.499-30.462 47.09-50.82 69.463-77.786 65.694-96.982 11.675-101.91 110.974-175.96 44.302-45.62-68.077-156.324-20.403-265.39 18.217-52.69 51.773-98.194 73.484-149.905 66.808-189.773 17.953-295.803 195.374-291.094 60.05-1.6 76.242 49.113 116.728 65.249 53.163 27.019 241.61 105.385 265.996 75.983 20.952-14.615 39.525-46.752 55.852-66.147 17.926-26.09 48.035-14.655 76.242-15.197 53.152-6.232 107.699-30.962 159.542-48.14 40.672-13.823 53.149-15.732 92.244-20.955 114.435-14.322 321.112-19.217 385.336-1.028 20.135 4.474 48.059 27.219 68.234 47.858 78.483 82.756 122.733 47.407 208.49 26.688 58.234-12.453 62.173 2.623 110.758 44.64 61.98 59.778 130.714 132.865 146.808 166.658 18.81 59.42 15.092 156.644-13.264 210.744-38.201 84.257-172.657 159.009-200.648 261.29-12.8 48.216-4.092 95.994-8.953 145.16-3.533 102.988-135.603 193.586-114.895 259.226 8.268 20.525 29.254 48.01 41.53 71.725 23.1 33.451-8.61 99.145-.564 103.85 7.2 43.395 47.888 245.192 68.189 331.445 6.689 68.917 91.075 122.487 138.73 229.684 32.102 102.728-15.357 58.134-35.118 68.378-128.563 45.561-208.662 18.236-260.995 119.969-40.704 75.734 23.174 118.105 36.471 177.28 13.963 73.826-52.613 112.263-62.107 155.897-15.124 40.533 72.072 138.245 81.13 135.053 12.306 2.424 24.542-8.386 38.767-17.437 73.774-50.247 93.16 75.73 84.192 137.297-5.484 42.191-31.245 40.209-61.315 36.75-105.514-18.095-238.449-185.316-309.018-242.844-15.765-25.397-65.342 38.807-83.92 40.493-37.734 8.763-110.734-23.931-130.852-37.31-14.424-8.277-43.588-41.099-64.815-48.966-8.52 3.185-46.993 24.488-79.325 20.055-35.44-3.24-54.276-57.434-78.917-84.444-21.285-28.73-38.522-19.693-68.221-13.19-104.588 33.945-270.1 103.175-260.302-55.688 1.871-23.5 1.115-44.244-7.543-66.617-90.362-174.707-4.533-121.12-29.502-236.778-43.594-99.392 66.105-192.997-83.398-156.777-122.481 31.458-73.485-119.995-239.931-51.354-47.322 22.49-81.24 53.158-75.685 97.15-1.159 74.56 2.847 70.308-36.058 62.701-84.554-26.632-85.635-4.546-138.084 4.32-142.576 12.031-142.214-318.085-253.17-341.062-76.718-28.801-159.892 14.3-241.388 15.34-117.574 6.552-233.108-17.6-352.699 14.001" clip-rule="evenodd"/></svg>