<svg xmlns="http://www.w3.org/2000/svg" width="400" height="200" viewBox="-937 -717 3108 1554"><path fill="currentColor" d="M173 651v-76q0-97 24.5-153.5C222 365 247.667 337.667 299 283l132-139q63-67 63-87 0-22.002-77-100L285-179q-67-67.995-89.5-126C173-363.005 173-397 173-465v-82q0-85.005 111-127.5c74-28.34 185-42.51 333-42.5 296 0 444 56.67 444 170v82c0 68-7.5 121.33-22.5 160s-44.833 80.67-89.5 126L817-43q-76 78-76 100 0 20 62 87l132 139c51.333 54.667 85.17 100.834 101.5 138.5 16.35 37.667 24.51 88.833 24.5 153.5v76c0 61.333-37.67 107.667-113 139q-113 47-331 47c-218 0-255.667-15.667-331-47s-113-77.667-113-139M617-483c92 0 177-10.33 255-31 78.001-20.67 116.335-43 115-67-1.334-24.67-37.167-45.33-107.5-62S721.667-668 617-668q-158 0-264 25.5C247-617 247-604.33 247-579c0 23.33 39.167 45.17 117.5 65.5S527-483 617-483m-395-38v96q0 69 20 106.5c20 37.5 47.667 67.17 103 126.5L458-72q85 93 85 131 0 39-78 123L335 321q-76 81-94.5 121T222 563v72q0 65 47 90 115 63 348 63 234 0 348-63 47-25 47-90v-72c0-54-6.17-94.333-18.5-121Q975 402 899 321L769 182q-78-84-78-127 0-34 86-127l112-120c55.333-59.34 89.667-101.5 103-126.5 13.33-25 20-60.5 20-106.5v-96q-137 87-395 87c-86 0-161.834-7.33-227.5-22-65.667-14.67-121.5-36.33-167.5-65m106 198c98.667 62.67 195 94 289 94s190.667-31.33 290-94q-25 40.005-110 132l-83 91q-56.001 61-68 84.5Q633.997 8 626 74q-2 20-9 60-7-40-9-60-8.004-66.001-20-89.5Q575.999-39 520-100l-83-91q-85-91.995-109-132m-56 977q16-60 120-114l88-45q83-43 99.5-58c16.5-15 23.5-32.333 37.5-67q22.002 52 38 67 16 15 99 58l88 45q104 54 120 114-127 64-345 64c-218 0-260.333-21.333-345-64"/></svg>