<svg width="65" height="65" xmlns="http://www.w3.org/2000/svg" xmlns:xlink="http://www.w3.org/1999/xlink" xml:space="preserve" overflow="hidden"><defs><clipPath id="clip0"><rect x="2982" y="1732" width="65" height="65"/></clipPath></defs><g clip-path="url(#clip0)" transform="translate(-2982 -1732)">
	<circle cx="3014.5" cy="1764.5" r="32" fill="#fff" />
	<path d="M2986.93 1750.14C2986.83 1750.14 2986.78 1750.2 2986.78 1750.32 2986.64 1752.77 2986.3 1755.74 2985.77 1759.24 2986.12 1759.44 2986.64 1759.54 2987.32 1759.54 2987.74 1756.9 2988.18 1755.15 2988.63 1754.32 2989.07 1753.48 2989.92 1753.06 2991.15 1753.06 2992.3 1753.06 2993.04 1753.41 2993.35 1754.09 2993.67 1754.78 2993.83 1756.31 2993.83 1758.68L2993.83 1770.62C2993.83 1773.19 2993.64 1774.84 2993.26 1775.56 2992.89 1776.29 2991.96 1776.69 2990.47 1776.77 2990.34 1776.95 2990.28 1777.31 2990.28 1777.83 2990.28 1778.36 2990.29 1778.7 2990.32 1778.86 2992.93 1778.78 2994.93 1778.74 2996.31 1778.74 2997.74 1778.74 2999.78 1778.78 3002.44 1778.86 3002.58 1778.7 3002.65 1778.36 3002.64 1777.82 3002.64 1777.28 3002.57 1776.93 3002.44 1776.77 3000.91 1776.69 2999.94 1776.29 2999.54 1775.56 2999.15 1774.84 2998.95 1773.19 2998.95 1770.62L2998.95 1758.86C2998.95 1756.25 2999.04 1754.63 2999.24 1754 2999.43 1753.38 2999.96 1753.06 3000.83 1753.06 3002.25 1753.06 3003.2 1753.48 3003.69 1754.32 3004.18 1755.15 3004.61 1756.84 3004.98 1759.36 3005.7 1759.36 3006.2 1759.26 3006.5 1759.07L3006.17 1753.37 3007.15 1754.69C3007.37 1755.16 3007.74 1755.96 3008.24 1757.09L3011.74 1765.1C3011.85 1765.36 3011.81 1765.68 3011.63 1766.08L3008.01 1773.55C3007.16 1775.34 3005.86 1776.41 3004.1 1776.77 3003.97 1776.95 3003.9 1777.31 3003.9 1777.83 3003.9 1778.36 3003.97 1778.7 3004.1 1778.86 3005.15 1778.78 3006.24 1778.74 3007.37 1778.74 3009.21 1778.74 3010.65 1778.78 3011.7 1778.86 3011.81 1778.7 3011.86 1778.36 3011.86 1777.82 3011.86 1777.28 3011.81 1776.93 3011.7 1776.77 3010.39 1776.33 3010.04 1775.4 3010.65 1773.97L3013.09 1768.29C3013.27 1767.97 3013.4 1767.91 3013.48 1768.11L3015.38 1774.03C3015.67 1775.14 3015.73 1775.84 3015.59 1776.12 3015.44 1776.39 3015 1776.61 3014.27 1776.77 3014.14 1776.95 3014.07 1777.31 3014.07 1777.83 3014.07 1778.36 3014.14 1778.7 3014.27 1778.86 3015.32 1778.78 3017.11 1778.74 3019.64 1778.74 3022.1 1778.74 3023.86 1778.78 3024.92 1778.86 3025.04 1778.7 3025.11 1778.36 3025.11 1777.82 3025.11 1777.28 3025.04 1776.93 3024.92 1776.77 3023.26 1776.37 3021.91 1774.87 3020.85 1772.26L3017.39 1763.69C3017.23 1763.24 3017.21 1762.91 3017.31 1762.71L3020.81 1755.87C3021.29 1754.93 3021.84 1754.18 3022.47 1753.62L3023.17 1753.27 3022.5 1759.24C3022.85 1759.44 3023.36 1759.54 3024.04 1759.54 3024.47 1756.9 3024.9 1755.15 3025.35 1754.32 3025.8 1753.48 3026.64 1753.06 3027.88 1753.06 3029.03 1753.06 3029.77 1753.41 3030.08 1754.09 3030.4 1754.78 3030.55 1756.31 3030.55 1758.68L3030.55 1770.62C3030.55 1773.19 3030.36 1774.84 3029.99 1775.56 3029.61 1776.29 3028.68 1776.69 3027.19 1776.77 3027.07 1776.95 3027.01 1777.31 3027.01 1777.83 3027.01 1778.36 3027.02 1778.7 3027.05 1778.86 3029.66 1778.78 3031.66 1778.74 3033.03 1778.74 3034.46 1778.74 3036.51 1778.78 3039.17 1778.86 3039.31 1778.7 3039.38 1778.36 3039.37 1777.82 3039.36 1777.28 3039.3 1776.93 3039.17 1776.77 3037.63 1776.69 3036.67 1776.29 3036.27 1775.56 3035.87 1774.84 3035.68 1773.19 3035.68 1770.62L3035.68 1758.86C3035.68 1756.25 3035.77 1754.63 3035.96 1754 3036.16 1753.38 3036.69 1753.06 3037.56 1753.06 3038.98 1753.06 3039.93 1753.48 3040.42 1754.32 3040.9 1755.15 3041.33 1756.84 3041.7 1759.36 3042.42 1759.36 3042.93 1759.26 3043.23 1759.07 3042.92 1755.96 3042.75 1753.04 3042.72 1750.32 3042.72 1750.2 3042.69 1750.14 3042.61 1750.14 3040.19 1750.46 3037.63 1750.62 3034.93 1750.62L3030.93 1750.62C3028.76 1750.62 3026.33 1750.46 3023.66 1750.14 3023.55 1750.14 3023.5 1750.2 3023.5 1750.32L3023.48 1750.54 3021.26 1750.62C3019.68 1750.62 3018.36 1750.58 3017.31 1750.5 3017.21 1750.66 3017.15 1751 3017.15 1751.53 3017.15 1752.05 3017.21 1752.4 3017.31 1752.56 3018.67 1752.74 3018.98 1753.72 3018.25 1755.51L3016.11 1760.29C3015.96 1760.65 3015.81 1760.6 3015.65 1760.14L3013.88 1755.45C3013.53 1754.26 3013.44 1753.51 3013.6 1753.2 3013.76 1752.89 3014.25 1752.68 3015.06 1752.56 3015.18 1752.4 3015.25 1752.05 3015.25 1751.53 3015.25 1751 3015.18 1750.66 3015.06 1750.5 3014 1750.58 3012.16 1750.62 3009.53 1750.62L3006.01 1750.53 3006 1750.32C3006 1750.2 3005.96 1750.14 3005.88 1750.14 3003.46 1750.46 3000.9 1750.62 2998.2 1750.62L2994.2 1750.62C2992.03 1750.62 2989.61 1750.46 2986.93 1750.14ZM3014.5 1732C3032.45 1732 3047 1746.55 3047 1764.5 3047 1782.45 3032.45 1797 3014.5 1797 2996.55 1797 2982 1782.45 2982 1764.5 2982 1746.55 2996.55 1732 3014.5 1732Z" fill-rule="evenodd"/>
</g></svg>