<svg width="65" height="65" xmlns="http://www.w3.org/2000/svg" xmlns:xlink="http://www.w3.org/1999/xlink" xml:space="preserve" overflow="hidden"><defs><clipPath id="clip0"><rect x="2834" y="1732" width="65" height="65"/></clipPath></defs><g clip-path="url(#clip0)" transform="translate(-2834 -1732)">
	<circle cx="2866.5" cy="1764.5" r="28" fill="#fff" />
	<path d="M2867.29 1748.11 2849.17 1764.48 2849.15 1764.47 2849.16 1764.49 2849.17 1764.48 2867.29 1780.83 2867.29 1770.38 2879.93 1770.38 2879.93 1758.56 2867.29 1758.56ZM2866.46 1732 2866.5 1732 2866.5 1732 2899 1732 2899 1736.33 2899 1746.01 2899 1782.99 2899 1789.91 2899 1797 2866.5 1797 2866.5 1796.9 2866.48 1796.9C2866.48 1796.9 2866.47 1796.9 2866.47 1796.9 2848.56 1796.93 2834.03 1782.43 2834 1764.53 2834 1764.51 2834 1764.49 2834 1764.47 2833.97 1746.57 2848.45 1732.03 2866.36 1732 2866.39 1732 2866.43 1732 2866.46 1732Z" fill-rule="evenodd"/>
</g></svg>