<svg xmlns="http://www.w3.org/2000/svg" width="1308" height="877.333" version="1.0" viewBox="0 0 981 658"><path d="M626.5 2c-4.7 2.4-6.2 2.5-10.4.4-4.9-2.4-13.2-1.5-21.3 2.5-9.5 4.6-13.1 4.9-22.2 1.7-10.7-3.7-15.6-3.4-15.6.8 0 1.2-.9 5-2.1 8.3-1.7 5.2-2.6 6.4-5.7 7.9-5.2 2.5-14.8 3.1-17 1.1-2.3-2.1-14.8-4-23.1-3.5-4.9.2-7.5.9-9.9 2.7-3.2 2.2-3.4 2.2-7.3.7-5-2-11.9-.7-11.9 2.3 0 .9-3.3 5.4-7.4 9.9-4.7 5.2-8 9.9-8.9 12.6-.8 2.4-2.5 5.4-3.6 6.5-2.7 2.7-2.8 8.8-.1 15.9 2.4 6.3 2.6 13.4.4 15.6s-7.6 2-10.7-.4c-1.4-1.1-3.1-3.6-3.7-5.5s-2.7-4.8-4.6-6.5c-4-3.5-9-3.9-17-1.5-6.3 1.9-9.3 1.9-10 0-1-2.5-5.4-1.7-10.5 2.1-2.9 2.1-6.6 3.8-8.9 4.1l-3.9.6-4-8.4c-4.7-9.9-6.5-12.4-8.3-11.4-.7.4-4.4 2.3-8.3 4.3-5.5 2.9-7.4 4.5-8.8 7.4-1 2.1-2.4 3.8-3.1 3.8-1.8 0-4.2-2.9-5.3-6.5-.9-2.9-1.2-3-7.9-3.3-6.4-.3-7.2-.6-10.6-3.9-3.9-3.8-4.9-3.7-8.1.4-2.5 3.1-9.5 3.2-12.2.3-2.3-2.5-4.1-1.2-5.5 4-1.9 7.2-6 7.8-6 1 0-5.6-2-6.4-13.7-5.6l-9.5.7.4-2.8c.2-2.3-.1-2.9-1.9-3.1-1.5-.2-2.5-1.2-2.9-3-1.2-5.5-1-5.4-7.7-4.7-5 .6-8 .2-14-1.4-4.2-1.2-12.2-3.1-17.9-4.1-5.6-1.1-13.2-3-16.8-4.2-6.3-2.2-7.6-2.3-44-2.2-44.4 0-49.1.6-53.5 6-7.1 8.8-13.9 15.3-18.1 17.5-4.3 2.3-4.6 2.3-5.8.6-1.6-2.1-12.7-2.5-14.4-.4-1.4 1.6.1 23.5 1.8 26.7.7 1.3 3.1 4.9 5.4 8 2.3 3.2 5.2 8.5 6.5 11.9 1.4 3.9 3.8 7.8 6.7 10.8 2.4 2.6 4.4 5.3 4.4 6s-1.7 1.6-3.9 1.9l-4 .6 3.4 6.4c3.6 6.7 5.2 12.5 4 14.6-6.1 11.5-5.9 11.2-11.5 12.6-7.5 1.9-11.6 5.1-26 19.8-22.8 23.5-39 44.6-39 50.7 0 1.8.7 8.9 1.4 15.9 1.3 12 1.6 13 4.5 16.4 4.1 4.6 3.9 7.8-.5 8.2-1.8.2-4.9-.4-6.9-1.2-2.1-.9-4.1-1.6-4.5-1.6-1.3 0-9.8 16.4-12 23.2-1.2 3.8-3.7 8.4-6 11.2-6.2 7.5-7.8 16.9-3.4 19.1 3.8 1.9 5.6 3.9 7.5 8.2 1.4 3.4 2.4 4.3 4.2 4.3 2.3 0 4 1.5 11.4 10.4 1.7 2.1 3 2.6 6.6 2.6 5.4 0 7.7 2.2 7.7 7.3 0 2.6.4 3.7 1.5 3.7.8 0 1.5-.6 1.5-1.4 0-.9 1.2-1.6 3.2-1.8 2.5-.2 3.9-1.2 5.7-4.1 2.8-4.2 4.7-4.6 8.4-1.7 4.5 3.5 10.9 5.8 19.7 7 4.6.6 9.2 1.6 10.1 2.1 1 .5 4.4.9 7.6.9 3.5.1 6.6.6 7.7 1.5 2.7 2 6.2 1.9 16.9-.6l9.1-2.1 4.3 5c2.4 2.8 6 6.1 7.9 7.2 1.9 1.2 4.1 3.5 4.9 5.1 1.1 1.9 2.3 2.9 3.9 2.9 2.9 0 9.6-4.8 12.6-8.9 3.6-5.2 8.2-6.7 28.1-9.6 25.5-3.6 25.3-3.6 29.3-9.8 4.3-6.6 6.9-8.9 13.1-11.6 2.8-1.2 6.7-3.9 8.8-5.9 3.3-3.2 4-3.5 5.7-2.4 2.7 1.7 2.8 1.6 3.6-2.4.8-4.3 2-4.9 6.5-3 3 1.3 3.6 1.3 5.1-.1 1.5-1.3 2.4-1.3 6.7-.2 4.9 1.2 5.2 1.2 7.7-1.2 6.5-6.1 22.2-6.6 29.8-1 2.2 1.6 6.2 4.4 8.9 6.2 2.7 1.9 4.7 4 4.7 5.1 0 1.3.8 1.8 3 1.8 1.7 0 3 .5 3 1.1 0 .8 1.5 1 4.6.6 5.2-.5 6.8 1.1 4 4.2-2.2 2.4-2 2.9.9 2.3 2-.3 2.5 0 2.5 1.7 0 2.7 1.3 2.7 5 0 2.3-1.7 3.8-2.1 7.5-1.7 5.2.6 8 2.8 12.8 9.8 3 4.4 6.5 7.9 8 8 .4 0 1.2-1.1 1.7-2.5s1.3-2.5 1.8-2.5c1.9 0 5.2 4.3 6.3 8.3 1.4 5.3.6 17.7-1.6 23.7-2 5.6-1.3 10.7 1.8 11.9 3 1.2 8.3 7 9.6 10.3 1.3 3.5 3.4 3.6 5.6.1 1.7-2.5 1.8-2.6 3.1-.8 2 2.7 1.8 13.9-.2 16-1.8 1.8-1.2 4.5 1.1 4.5 1.1 0 1.5 1.2 1.5 4.8 0 5.6 1.2 7.1 10.3 12.1 3.2 1.8 6.4 4.3 7.2 5.5 2.2 3.3 3 12.8 1.5 18.1l-1.3 4.6 5.3 5.4c3.6 3.7 4.9 5.6 3.9 5.8-.8.2-3.2.9-5.4 1.4-2.2.6-4.8 1.3-5.7 1.7-1.2.6-2.1 0-3.2-2.3-2.1-3.9-5.2-5.7-7.2-4-.8.6-1.4 1.7-1.4 2.5 0 2.5-2.1 2.5-5.5-.1-1.9-1.4-3.5-3.5-3.5-4.6 0-2.3-2.2-2.5-4-.4-.7.8-2.1 1.5-3.1 1.5s-3.1 1.6-4.6 3.5-3.1 3.5-3.5 3.5c-.5 0-.8-2.9-.8-6.4 0-3.6-.4-6.7-1-7.1-1.4-.9-10.8 4.2-12.1 6.7s-.6 10.5 1.5 16.6c1.4 3.8 1.3 4.9-.3 11.4-1.7 7.1-1.9 7.4-6.4 9.6-3.8 1.8-4.8 2.9-5.7 6.1-.6 2.2-2.9 6.3-5.3 9.2-7.8 9.6-7.9 9.7-7.3 17.1l.5 6.6-7.3-.5c-8.6-.7-9.4-.1-7.6 6.4 2.1 7.1 6.2 10.7 16.2 13.8 10.2 3.2 12.4 3.1 12-.7-.4-3.4 1.2-4.3 4.8-2.8 2.6 1.1 3.2.9 6.7-1.9 11.4-9.1 27.9-10.6 33.6-2.9 1.1 1.4 2.2 4.9 2.4 7.5l.5 4.9 37.7 4.3c20.7 2.3 38.6 4.2 39.9 4.1 2.7 0 12.1-4.7 39.6-19.7 48.9-26.8 82.1-46.1 89.5-52.1 4.2-3.4 9.1-11.7 9.1-15.5 0-3 2.6-3 10.2-.2 8.2 3 10 4 11.7 7.2.8 1.7 2.1 2.3 4.4 2.3 5.9.1 10.9 1.8 14.1 4.9 2.6 2.5 4 3.1 7.6 3.1 2.5 0 6.4.9 8.8 2 3.5 1.6 4.3 2.4 4 4.2-.7 4.8-12.2 5-13.4.3-.6-2.6-1.5-2.9-9.5-4-2.9-.4-5.4-1.4-6.5-2.7-2.3-2.6-8.1-5.1-9.6-4.2-1.8 1.1-.3 12.3 2.1 15.5 1.2 1.6 2.1 3.3 2.1 3.8 0 1.7-6.2 5.7-10.8 7-2.4.7-6.4 2.5-9 4s-11.2 6.2-19.1 10.5c-24.5 13.2-29.3 17.3-27.2 22.9 1.4 3.6 2.5 4 7.6 2.2 5.3-1.7 12.2-2 16.2-.4 1.5.5 4.6 2.7 6.8 4.8 6.6 6.3 8.4 7.1 15.3 7.1 6.2 0 6.4.1 11.2 5l5 4.9v8.3c0 7.6-1.3 20.1-2.5 23.8-.3.9-1.8 2.1-3.5 2.7-3.3 1.3-3.7 3-1.5 7.3.9 1.8 2.8 3.3 5.2 4 2.1.7 5.5 2.4 7.6 3.7 3.3 2.3 4.7 2.6 13 2.6 5.7 0 10.2-.4 11.7-1.3 5.9-3 12.8-9.3 15.3-13.8 7.6-14 28.9-25.2 37.2-19.8 3.5 2.3 5.1 1.5 5.9-2.8.5-2.4 2-4.6 4.8-7.1 2.3-1.9 4.5-3.5 5-3.5.4 0 1.6-1.7 2.7-3.9 4.6-9 12.6-11.6 20.6-6.6 3.2 2 5.3 2.4 11 2.5 7.6 0 25.5-2.6 26.8-3.9.4-.4 1.4-5 2.2-10.2 1.6-10.4 3.6-14.1 8.1-14.9 1.7-.3 3-1.2 3.2-2.3 1-5.1-20.1-7.2-29-2.9-2.5 1.3-5.4 3.4-6.2 4.7-2.2 3.4-5.2 3.1-8.7-.6-3.1-3.4-5.9-3.3-5.9 0 0 1.3-1.2 2.7-3.2 3.7-1.8.9-4.3 2.8-5.5 4.3-2.1 2.5-2.5 2.6-12.5 2.5-6.9-.1-11.5-.6-14-1.7-3.3-1.4-3.9-2.2-5.3-7.4-4.1-14.5-6.7-18.6-14.2-21.9-5.3-2.4-7.3-4.9-7.3-9.5 0-1.8.9-1.9 18.8-1.9 10.3 0 30.6-.5 45.1-1.2 25.1-1.1 26.4-1.3 27.2-3.2.4-1.2 4-13.8 7.9-28.1s7.6-27.4 8.1-29.2c.9-2.8 3.6-4.6 22.2-15.4 36.8-21.1 35.8-20.2 37.2-35.2.4-4 1.3-7.3 2.2-8.3 1.4-1.4 1.3-1.7-.8-4-2.2-2.4-2.2-2.5-.7-7.7.9-2.8 2-6.8 2.3-8.7 1.7-8.2 6.1-12 14-12 2.3 0 4.1-.7 5.2-2 1-1.1 2.3-2 3.1-2 .7 0 2.5-2.6 3.9-5.8 1.4-3.1 2.9-6 3.5-6.3 2.5-1.6 15.4-1.9 30.8-.8s17.1 1.1 19.4-.5c2.4-1.5 2.6-2.2 2.6-8.6 0-3.9.4-7 .9-7s1.1-1.7 1.5-3.8c.3-2.1 2.1-6 4.1-8.7 1.9-2.8 3.5-5.5 3.5-6.2 0-.6-1.3-1.4-3-1.8-3.5-.8-4.7-2.2-3.1-3.8 1.7-1.7 1.3-7.7-.8-12.2-2-4.5-4.5-6.9-8-8-2.1-.6-2.3-1.1-1.7-4.8.8-4.5 5.2-13.3 7.1-14 .6-.3 3 0 5.3.6 3.6.9 4.4.8 6.2-.8 3.4-3.1 2.5-4.2-3.9-5-6.6-.8-11.8-3.4-13-6.8-1.2-3.2.3-5.3 5.4-7.6 8.4-3.7 19.6-16.3 19.5-21.8 0-1-1.2-3.6-2.5-5.8-2.8-4.5-3.2-10-1-12.9 2-2.6 1.9-3.3-.5-4.1-1.2-.4-4.3.4-7.9 2l-5.9 2.7-4-2.1c-3.8-1.9-9.2-7.3-9.2-9.2 0-.5-.9-1.8-2-2.9-1.5-1.5-3.3-2-7.7-2-6.8 0-7.2-.2-10.7-5.8-1.4-2.3-2.9-4.2-3.2-4.2s-1.7.9-3.1 2c-3.1 2.4-10.1 2.8-10.9.5-.4-.8-3.2-2.9-6.4-4.6s-6.1-3.7-6.4-4.5c-.4-.9-1.5-1.2-3.4-.8-4.8 1-10.9-1.3-13.8-5.2-3.8-4.9-7.4-4.5-9.2 1-1.7 5.3-2.9 6.6-6.1 6.6-1.9 0-3.8-1.4-6.9-5-2.4-2.8-4.9-5-5.7-5-4.1 0-11.1-9.6-11.9-16.2-.2-1.8-.4-3.6-.5-4 0-.3-1.6-1.5-3.5-2.6-2.2-1.3-3.5-3-3.9-5-.3-1.6-1.3-3.2-2.1-3.5s-4.5 1-8.2 2.9c-4.3 2.4-8.9 3.9-13.3 4.5-7.7 1.1-10.6 2.1-18.1 6.6-5.9 3.5-9 4.2-9 1.9 0-2.9-3-4.6-8.1-4.6-4.5 0-5.4-.4-10.3-4.9-3.1-2.8-7.3-5.5-9.6-6.2-3.8-1.2-4.4-1-11.4 2.5-4.1 2.1-8.2 3.6-9.2 3.4-1.8-.3-9.4-10.2-11.4-14.8-2.1-4.7-2.3-7.6-.5-9.4 2.2-2.2 1.6-5.2-3.6-17.4l-4-9.4 2.1-2.3 2.1-2.2-4.6-.5c-5.1-.6-6.7-2.1-8.4-7.9-1.8-5.9-2.5-6.1-14.1-3.9-10.6 2.1-11.9 1.9-12-1.7 0-2.1-7.9-3.5-15.7-2.8-8.1.7-8.4.5-5.2-5l2.2-3.6-2.2-2.3c-1.5-1.6-2.1-3.5-2.1-7.1 0-3.9-.7-6.2-3.6-10.8-4.2-6.8-4.1-6.9 4.5-8.6 6.5-1.3 10.1-3.4 10.1-6 0-1.9-5.4-7.4-8.2-8.4-1-.3-3.8-3.4-6.3-6.8-4-5.4-5.1-8.3-4.6-11.3 1-5-10.6-18.9-17.4-21-1.2-.3-3.7.2-6 1.4M705 539.9c0 1.2-5.4 5.1-6.9 5.1-1.9 0-1.2-2.8 1.1-4.4 2.5-1.8 5.8-2.1 5.8-.7"/></svg>