<svg xmlns="http://www.w3.org/2000/svg" xmlns:xlink="http://www.w3.org/1999/xlink" width="400" height="200" viewBox="5.972 -32.352 708.093 354.047"><defs><path id="a" d="m34.08 190.907 3.336-3.395 16.606 20.715c-2.53 2.475-2.777 1.884-3.525 2.55z"/><path id="b" d="M57.922 167.498c-26.556 0-48.094 21.62-48.094 48.28 0 26.661 21.538 48.282 48.094 48.282s48.063-21.62 48.063-48.281-21.507-48.281-48.063-48.281m-.187 11.937c19.969 0 36.156 16.265 36.156 36.313 0 20.047-16.187 36.28-36.156 36.28-19.97 0-36.157-16.233-36.157-36.28s16.187-36.313 36.157-36.313"/><path id="c" d="m49.897 181.388 5.47-.732 3.254 26.891c-3.796.729-3.09.534-4.176.696zm-25.584 25.87 2.242-5.427 23.465 9.28c-1.077 3.276-.505 3.71-.853 4.623zm-.298 17.649-1.001-5.364 25.7-3.455c.661 3.384 1.58 4.062 1.723 5.03z"/><path id="d" d="m33.627 240.657-3.722-4.669 19.75-15.105c2.563 2.307 2.57 1.729 3.266 2.416zm15.134 7.657-5.47-1.523 8.483-22.005c3.304.986 4.316 1.333 5.238 1.655z"/><path id="e" d="m63.633 249.794-5.61-.435-1.434-23.54c3.415-.478 4.48-.583 5.452-.674z"/><path id="f" d="m80.677 240.205-4.092 3.938-14.641-18.488c2.527-2.345 3.34-3.04 4.086-3.67z"/><path id="g" d="m91.028 225.95-2.226 5.35-22.845-9.002c.953-3.232 1.29-4.222 1.603-5.124zm.722-17.075-26.437 3.688c.158 1.027-.42 1.215.312 4.812l26.688-2.969z"/><path id="h" d="m84.435 191.936 3.453 4.383-21.643 16.569c-2.511-2.361-2.312-3.312-2.991-4.012z"/><path id="i" d="m67.431 182.484 5.309 1.612-8.8 24.612c-3.208-.926-4.19-1.256-5.087-1.563z"/><path id="j" d="M109.798 231.688c0 23.734-19.24 42.973-42.973 42.973s-42.972-19.24-42.972-42.973 19.24-42.972 42.972-42.972 42.973 19.24 42.973 42.972"/><path id="k" d="M57.941 176.967c-21.328 0-38.625 17.545-38.625 39.187 0 21.643 17.297 39.188 38.625 39.188 21.329 0 38.594-17.545 38.594-39.188 0-21.642-17.265-39.187-38.594-39.187m0 4.937c18.401 0 33.313 15.141 33.313 33.813s-14.912 33.812-33.313 33.812c-18.4 0-33.344-15.14-33.344-33.812s14.943-33.813 33.344-33.813"/><path id="l" d="M149.174 63.205c0 2.614-2.373 4.733-5.3 4.733-2.928 0-5.301-2.119-5.301-4.733s2.373-4.732 5.3-4.732c2.928 0 5.3 2.119 5.3 4.732z"/></defs><path d="m210.726 89.247 4.867 7.572-26.882 22.504-9.788-3.407z" style="fill:#fff;fill-opacity:1;fill-rule:nonzero;stroke:#fff;stroke-opacity:1;stroke-width:.31698075999999997;stroke-miterlimit:4;stroke-dasharray:none" transform="translate(2.195 21.666)scale(1.57738)"/><path d="M153.232 109.813c7.188-1.548 11.889-4.96 21.686-4.55l-1.874 5.889-17.402 5.087zm189.252 36.226 74.531.378 21.96 43.707-110.121-3.029z" style="fill:#fff;fill-opacity:1;fill-rule:nonzero;stroke:none" transform="translate(2.195 21.666)scale(1.57738)"/><path d="M53.418 110.124c1.251-3.797 7.38-3.816 9.638 0v12.315h-9.638z" style="fill:#fff;fill-opacity:1;fill-rule:nonzero;stroke:#fff;stroke-width:.30000001;stroke-miterlimit:4;stroke-opacity:1;stroke-dasharray:none" transform="translate(2.195 21.666)scale(1.57738)"/><path d="M319.756 110.06c1.8 4.4 6.258 9.806 11.303 10.98l78.751 14.931c13.653 3.157 27.02 8.26 34.734 52l-11.208-.191c-5.678-23.294-21.263-28.974-35.681-36.729-12.153-3.263-24.306-2.384-36.46.39-19.01 8.465-30.218 21.09-34.084 37.632l-41.43.283z" style="fill:#fff;fill-opacity:1;fill-rule:nonzero;stroke:#fff;stroke-opacity:1" transform="translate(2.195 21.666)scale(1.57738)"/><path d="m55.56 185.663 83.618 1.515 251.927-1.377-2.59 14.752-61.842 2.479-4.043 18.032-151.436 1.007-1.511 2.827-4.44 1.001-4.578 8.273-8.82.278-1.47-5.724-9.462-.019.158-3.123-85.511 1.514z" style="fill:#fff;fill-opacity:1;fill-rule:nonzero;stroke:none" transform="translate(2.195 21.666)scale(1.57738)"/><path d="m64.583 110.805 84.332-1.071c5.99.43 20.186-.76 28.379-5.89l-.748 10.93 83.616-1.019 39.068-.663c9.086-.722 14.905-4.71 19.736-9.686l-3.421 65.55c-2.716 17.624-14.913 21.026-28.926 21.704l-112.962.32-24.474.141h-84.6zm253.869 95.357 59.434 4.283-3.748 13.386-57.292-7.496z" style="fill:#fff;fill-opacity:1;fill-rule:nonzero;stroke:#fff;stroke-width:.5;stroke-miterlimit:4;stroke-opacity:1;stroke-dasharray:none" transform="translate(2.195 21.666)scale(1.57738)"/><path d="M52.764 113.532h12.785V190.1H52.764z" style="fill:#fff;fill-opacity:1;fill-rule:nonzero;stroke:#fff;stroke-width:.5;stroke-miterlimit:4;stroke-opacity:1;stroke-dasharray:none" transform="translate(2.195 21.666)scale(1.57738)"/><path d="M428.205 130.11c-.007-2.785.154-5.514 1.206-7.947 1.982-1.123 4.002-2.208 7.73-1.586 1.723 1.299 3.45 2.61 5.521 5.652l20.08 78.576c.374 3.233 1.241 5.644.637 10.508-2.821 2.335-5.642 2.702-8.464 1.469-2.428-2.195-3.008-4.096-4.087-5.953z" style="fill:#fff;fill-opacity:1;fill-rule:nonzero;stroke:#fff;stroke-opacity:1;stroke-width:.31698075999999997;stroke-miterlimit:4;stroke-dasharray:none" transform="translate(2.195 21.666)scale(1.57738)"/><path d="M38.062 136.972c5.21.286 15.182 1.404 17.74 10.6.465 2.684 1.087 7.009 0 10.01-2.932 5.255-9.572 6.61-17.55 6.816z" style="fill:#fff;fill-opacity:1;fill-rule:nonzero;stroke:#fff;stroke-width:.5;stroke-miterlimit:4;stroke-opacity:1;stroke-dasharray:none" transform="translate(2.195 21.666)scale(1.57738)"/><g style="stroke:#fff;stroke-opacity:1"><path d="M144.252 144.04v31.803m-3.218-31.803v31.803m-3.219-31.803v31.803m-3.218-31.803v31.803m-3.407-31.803v31.803m-3.219-31.803v31.803m-2.839-31.803v31.803m-3.029-31.803v31.803m-3.218-31.803v31.803m-2.84-31.803v31.803m-3.407-31.803v31.803m-2.84-31.803v31.803m-3.597-31.803v31.803m-3.407-31.803v31.803m-2.461-31.803v31.803m-3.219-31.803v31.803m-3.028-31.803v31.803m-3.219-31.803v31.803m-3.029-31.803v31.803m-3.786-31.803v31.803" style="fill:none;stroke:#fff;stroke-width:1px;stroke-linecap:butt;stroke-linejoin:miter;stroke-opacity:1" transform="translate(1.76 21.322)scale(1.57738)"/></g><path d="M19.811 165.183c12.118-8.162 28.012-13.634 55.686-10.708 14.896 8.97 30.02 17.337 40.758 37.395l-68.065-.985-31.056-14.993z" style="fill:#fff;fill-opacity:1;fill-rule:nonzero;stroke:none" transform="translate(2.195 21.666)scale(1.57738)"/><path d="M116.992 184.93h31.222" style="fill:none;stroke:#fff;stroke-width:1px;stroke-linecap:butt;stroke-linejoin:miter;stroke-opacity:1" transform="translate(2.195 21.666)scale(1.57738)"/><path d="M11.164 169.388c5.937-6.782 14.847-15.646 34.085-19.165 9.98-2.383 20.513-.705 31.203 1.164 11.306 2.656 23.288 8.574 38.83 31.704 12.361 11.316 16.517 26.733 49.487 27.743l.491 2.958 155.442.015.45 5.925-155.542.181-13.395-.537c-23.854-4.313-34.615-17.76-42.497-31.555-7.788-11-16.195-19.216-25.41-23.794-12.372-5.055-26.233-6.781-38.746-5.172-16.925 4.416-31.387 20.103-35.029 29.747l-4.56-.474c.33-6.174 2.173-9.53 5.074-13.467.942-1.279-1.033-3.755.117-5.273z" style="fill:#fff;fill-opacity:1;fill-rule:nonzero;stroke:#fff;stroke-opacity:1" transform="translate(2.195 21.666)scale(1.57738)"/><path d="M452.694 146.876c-3.057.188-8.896.915-10.396 6.94-.273 1.757-.638 4.604 0 6.57 1.72 3.441 5.605 4.327 10.286 4.462z" style="fill:#fff;fill-opacity:1;fill-rule:nonzero;stroke:#fff;stroke-width:.5;stroke-miterlimit:4;stroke-opacity:1;stroke-dasharray:none" transform="translate(2.195 21.666)scale(1.57738)"/><use xlink:href="#a" style="fill:#fff;fill-opacity:1;fill-rule:nonzero;stroke:#fff;stroke-width:.5;stroke-miterlimit:4;stroke-opacity:1;stroke-dasharray:none" transform="translate(3.172 20.94)scale(1.57738)"/><use xlink:href="#b" style="fill:#fff;fill-opacity:1;fill-rule:nonzero;stroke:none" transform="translate(3.172 20.94)scale(1.57738)"/><use xlink:href="#c" style="fill:#fff;fill-opacity:1;fill-rule:nonzero;stroke:#fff;stroke-width:.5;stroke-miterlimit:4;stroke-opacity:1;stroke-dasharray:none" transform="translate(3.172 20.94)scale(1.57738)"/><use xlink:href="#d" style="fill:#fff;fill-opacity:1;fill-rule:nonzero;stroke:#fff;stroke-width:.5;stroke-miterlimit:4;stroke-opacity:1;stroke-dasharray:none" transform="translate(3.172 20.94)scale(1.57738)"/><use xlink:href="#e" style="fill:#fff;fill-opacity:1;fill-rule:nonzero;stroke:#fff;stroke-width:.5;stroke-miterlimit:4;stroke-opacity:1;stroke-dasharray:none" transform="translate(3.172 20.94)scale(1.57738)"/><use xlink:href="#f" style="fill:#fff;fill-opacity:1;fill-rule:nonzero;stroke:#fff;stroke-width:.5;stroke-miterlimit:4;stroke-opacity:1;stroke-dasharray:none" transform="translate(3.172 20.94)scale(1.57738)"/><use xlink:href="#g" style="fill:#fff;fill-opacity:1;fill-rule:nonzero;stroke:#fff;stroke-width:.5;stroke-miterlimit:4;stroke-opacity:1;stroke-dasharray:none" transform="translate(3.172 20.94)scale(1.57738)"/><use xlink:href="#h" style="fill:#fff;fill-opacity:1;fill-rule:nonzero;stroke:#fff;stroke-width:.5;stroke-miterlimit:4;stroke-opacity:1;stroke-dasharray:none" transform="translate(3.172 20.94)scale(1.57738)"/><use xlink:href="#i" style="fill:#fff;fill-opacity:1;fill-rule:nonzero;stroke:#fff;stroke-width:.5;stroke-miterlimit:4;stroke-opacity:1;stroke-dasharray:none" transform="translate(3.172 20.94)scale(1.57738)"/><use xlink:href="#j" style="fill:#fff;fill-opacity:1;fill-rule:nonzero;stroke:#fff;stroke-opacity:1" transform="matrix(.37176 0 0 .38219 69.554 274.264)"/><use xlink:href="#k" style="fill:#fff;fill-opacity:1;fill-rule:nonzero;stroke:#fff;stroke-opacity:1" transform="translate(3.172 20.94)scale(1.57738)"/><path d="M285.692 70.695c-1.387-5.235 5.511-7.849 7.138-6.437l6.058 3.574-8.274 9.844z" style="fill:#fff;fill-opacity:1;fill-rule:nonzero;stroke:#fff;stroke-width:.5;stroke-miterlimit:4;stroke-opacity:1;stroke-dasharray:none" transform="translate(2.195 21.666)scale(1.57738)"/><path d="m276.636 33.613 4.413-.224 12.54 33.53-3.251 4.47z" style="fill:#fff;fill-opacity:1;fill-rule:nonzero;stroke:#fff;stroke-width:.34041205000000002;stroke-miterlimit:4;stroke-opacity:1;stroke-dasharray:none" transform="translate(2.195 21.666)scale(1.57738)"/><path d="m179.55 33.004 94.22-25.368 58.415 13.512c2.466 1.831.359 4.49.281 6.828-.782 23.507-8.706 50.367-12.363 75.48-4.505 6.365-10.81 10.572-20.355 10.891l-36.945 1.13 47.095-60.847c-23.587-15.417-28.646-14.908-35.75-15.781l-94.598-1.515z" style="fill:#fff;fill-opacity:1;fill-rule:nonzero;stroke:#fff;stroke-width:.5;stroke-miterlimit:4;stroke-opacity:1;stroke-dasharray:none" transform="translate(2.195 21.666)scale(1.57738)"/><path d="m260.76 114.317 37.748-.536c8.865-.773 15.711-5.346 21.972-10.163l.598 8.676c-4.201 3.749-15.137 9.537-22.57 9.251l-42.835-.268z" style="fill:#fff;fill-opacity:1;fill-rule:nonzero;stroke:#fff;stroke-width:.40000001000000002;stroke-miterlimit:4;stroke-opacity:1;stroke-dasharray:none" transform="translate(2.195 21.666)scale(1.57738)"/><path d="m307.89 51.811 2.345 2.41-50.837 67.749c-2.733 2.587-5.135.57-3.95-2.05z" style="fill:#fff;fill-opacity:1;fill-rule:nonzero;stroke:#fff;stroke-width:.40000001000000002;stroke-miterlimit:4;stroke-opacity:1;stroke-dasharray:none" transform="translate(2.195 21.666)scale(1.57738)"/><path d="m190.033 36.301 4.462.26-16.535 87.35-3.544-.63z" style="fill:#fff;fill-opacity:1;fill-rule:nonzero;stroke:none" transform="translate(2.195 21.666)scale(1.57738)"/><path d="M323.652 178.648c7.427-17.353 19.28-24.587 31.629-30.69 16.546-5.99 33.306-7.92 50.563-.397 3.962 2.77 28.657 12.274 34.988 40.39.254 1.772.647 3.477-.475 5.912 2.452 6.05 4.903 11.464 7.354 16.81-6.212.618-13.113-10.39-14.824-17.755-8.126-23.693-20.587-30.384-27.037-34.89-16.565-6.195-32.239-7.047-46.663-.4-21.275 8.968-30.406 28.848-30.656 43.856-.077 4.657.071 14.474-.013 18.599H321c-.646-1.344-2.394-4.802-2.51-6.247-.957-11.89.879-25.704 5.16-35.188z" style="fill:#fff;fill-opacity:1;fill-rule:nonzero;stroke:#fff;stroke-opacity:1" transform="translate(2.195 21.666)scale(1.57738)"/><path d="M398.903 219.798c0 10.203-8.27 18.473-18.472 18.473s-18.473-8.27-18.473-18.473 8.27-18.472 18.473-18.472 18.472 8.27 18.472 18.472z" style="fill:#fff;fill-opacity:1;fill-rule:nonzero;stroke:#fff;stroke-width:.5;stroke-linecap:butt;stroke-linejoin:miter;stroke-miterlimit:4;stroke-opacity:1;stroke-dasharray:none;stroke-dashoffset:20" transform="matrix(1.5457 0 0 1.51337 15.766 34.556)"/><use xlink:href="#a" style="fill:#fff;fill-opacity:1;fill-rule:nonzero;stroke:#fff;stroke-width:.5;stroke-miterlimit:4;stroke-opacity:1;stroke-dasharray:none" transform="translate(512.85 26.755)scale(1.57738)"/><use xlink:href="#b" style="fill:#fff;fill-opacity:1;fill-rule:nonzero;stroke:none" transform="translate(512.85 26.755)scale(1.57738)"/><use xlink:href="#c" style="fill:#fff;fill-opacity:1;fill-rule:nonzero;stroke:#fff;stroke-width:.5;stroke-miterlimit:4;stroke-opacity:1;stroke-dasharray:none" transform="translate(512.85 26.755)scale(1.57738)"/><use xlink:href="#d" style="fill:#fff;fill-opacity:1;fill-rule:nonzero;stroke:#fff;stroke-width:.5;stroke-miterlimit:4;stroke-opacity:1;stroke-dasharray:none" transform="translate(512.85 26.755)scale(1.57738)"/><use xlink:href="#e" style="fill:#fff;fill-opacity:1;fill-rule:nonzero;stroke:#fff;stroke-width:.5;stroke-miterlimit:4;stroke-opacity:1;stroke-dasharray:none" transform="translate(512.85 26.755)scale(1.57738)"/><use xlink:href="#f" style="fill:#fff;fill-opacity:1;fill-rule:nonzero;stroke:#fff;stroke-width:.5;stroke-miterlimit:4;stroke-opacity:1;stroke-dasharray:none" transform="translate(512.85 26.755)scale(1.57738)"/><use xlink:href="#g" style="fill:#fff;fill-opacity:1;fill-rule:nonzero;stroke:#fff;stroke-width:.5;stroke-miterlimit:4;stroke-opacity:1;stroke-dasharray:none" transform="translate(512.85 26.755)scale(1.57738)"/><use xlink:href="#h" style="fill:#fff;fill-opacity:1;fill-rule:nonzero;stroke:#fff;stroke-width:.5;stroke-miterlimit:4;stroke-opacity:1;stroke-dasharray:none" transform="translate(512.85 26.755)scale(1.57738)"/><use xlink:href="#i" style="fill:#fff;fill-opacity:1;fill-rule:nonzero;stroke:#fff;stroke-width:.5;stroke-miterlimit:4;stroke-opacity:1;stroke-dasharray:none" transform="translate(512.85 26.755)scale(1.57738)"/><use xlink:href="#j" style="fill:#fff;fill-opacity:1;fill-rule:nonzero;stroke:#fff;stroke-opacity:1" transform="matrix(.37176 0 0 .38219 579.233 280.078)"/><use xlink:href="#k" style="fill:#fff;fill-opacity:1;fill-rule:nonzero;stroke:#fff;stroke-opacity:1" transform="translate(512.85 26.755)scale(1.57738)"/><path d="m183.388 48.457 12.316-4.015" style="fill:none;stroke:#fff;stroke-width:1px;stroke-linecap:butt;stroke-linejoin:miter;stroke-opacity:1" transform="translate(2.195 21.666)scale(1.57738)"/><use xlink:href="#l" style="fill:#fff;fill-opacity:1;fill-rule:nonzero;stroke:#fff;stroke-width:.30000001;stroke-linecap:butt;stroke-linejoin:miter;stroke-miterlimit:4;stroke-opacity:1;stroke-dasharray:none;stroke-dashoffset:20" transform="matrix(1.24835 0 0 1.27196 121.2 14.991)"/><path d="m178.034 83.796 10.173-5.086" style="fill:none;stroke:#fff;stroke-width:1px;stroke-linecap:butt;stroke-linejoin:miter;stroke-opacity:1" transform="translate(2.195 21.666)scale(1.57738)"/><use xlink:href="#l" style="fill:#fff;fill-opacity:1;fill-rule:nonzero;stroke:#fff;stroke-width:.30000001;stroke-linecap:butt;stroke-linejoin:miter;stroke-miterlimit:4;stroke-opacity:1;stroke-dasharray:none;stroke-dashoffset:20" transform="matrix(1.24835 0 0 1.27196 112.067 69.688)"/><path d="m65.761 136.258 83.034-.17" style="fill:none;stroke:#fff;stroke-width:1px;stroke-linecap:butt;stroke-linejoin:miter;stroke-opacity:1" transform="translate(2.195 21.666)scale(1.57738)"/><path d="M149.917 113.372a1.5 1.5 0 1 1-3 0 1.5 1.5 0 0 1 3 0m.757 75.344a1.5 1.5 0 1 1-3 0 1.5 1.5 0 0 1 3 0" style="fill:#fff;stroke:none" transform="translate(2.195 21.666)scale(1.57738)"/><path d="m65.592 138.948 82.825.17m0-26.882v75.723l-.166 2.88m27.426-72.167-1.893 53.006c.204 5.369-2.102 9.901-7.951 13.252l9.428 5.909m11.774-76.331v64.742h61.714v-65.297" style="fill:none;stroke:#fff;stroke-width:1px;stroke-linecap:butt;stroke-linejoin:miter;stroke-opacity:1" transform="translate(2.195 21.666)scale(1.57738)"/><path d="m203.911 90.004 7.517-7.194L224.3 96.228l-8.842 6.815z" style="fill:#fff;fill-opacity:1;fill-rule:nonzero;stroke:#fff;stroke-opacity:1" transform="translate(2.195 21.666)scale(1.57738)"/><path d="m214.04 73.534 20.578 24.989.379 8.117-29.666-35.211z" style="fill:#fff;fill-opacity:1;fill-rule:nonzero;stroke:#fff;stroke-width:.20000000000000001;stroke-miterlimit:4;stroke-opacity:1;stroke-dasharray:none" transform="translate(2.195 21.666)scale(1.57738)"/><path d="m204.226 68.446 34.587 42.405-3.218 3.195-35.534-42.405z" style="fill:#fff;fill-opacity:1;fill-rule:nonzero;stroke:#fff;stroke-width:.60000001999999997;stroke-miterlimit:4;stroke-opacity:1;stroke-dasharray:none" transform="translate(2.195 21.666)scale(1.57738)"/><path d="m222.934 81.281 4.482 4.965.008 3.84-7.706-8.707z" style="fill:#fff;fill-opacity:1;fill-rule:nonzero;stroke:none" transform="translate(2.195 21.666)scale(1.57738)"/></svg>