<svg xmlns="http://www.w3.org/2000/svg" width="400" height="200" viewBox="-1355.5 -388 3018 1509"><path fill="#fff" fill-rule="evenodd" d="M718.521 1176.15c14.181 0 28.309 1.18 42.322 3.39l40.157 9.22 40.156-9.22c14.014-2.21 28.141-3.39 42.323-3.39 165.019 0 250.967 144.46 412.548 48.15-79.072 96.31-206.274 103.18-309.411 37.83-41.255-27.51-79.072-65.35-130.64-65.35l-24.218 2.99 11.313 4.13c66.576 28.52 127.276 75 174.547 120.15-10.313 10.31-20.627 20.63-34.379 30.95-54.147-56.75-116.029-117.37-176.944-144.14l-5.295-1.81-5.295 1.81c-60.915 26.77-122.797 87.39-176.945 144.14-13.751-10.32-24.06-20.64-34.38-30.95 47.273-45.15 107.973-91.63 174.549-120.15l11.313-4.13-24.218-2.99c-51.568 0-89.385 37.84-130.64 65.35-103.134 65.35-230.344 58.48-309.414-37.83 161.58 96.31 247.53-48.15 412.551-48.15m543.127-189.173c-58.444 116.943-79.072 165.093-175.333 185.733 0 0 27.503-3.44 41.255-6.88 103.137-20.64 226.901 6.88 302.535-79.11-30.941 55.03-89.385 99.75-144.392 120.38-89.385 27.52-182.209-3.44-264.718-24.07-10.314-3.44-24.065-3.44-37.817-6.88 48.131-6.88 92.823-24.08 127.202-55.03 51.569-48.16 96.261-96.309 151.268-134.143m-921.298 0c55.01 37.834 99.7 85.983 151.27 134.143 34.38 30.95 79.07 48.15 127.202 55.03-13.752 3.44-27.502 3.44-37.822 6.88-82.5 20.63-175.33 51.59-264.71 24.07-55.01-20.63-113.45-65.35-144.4-120.38 75.64 85.99 199.4 58.47 302.54 79.11 13.75 3.44 41.25 6.88 41.25 6.88-96.26-20.64-116.88-68.79-175.33-185.733m1034.749-168.535c-41.255 116.942-17.19 199.49-116.889 282.038 17.189-6.88 34.379-20.64 48.131-30.96 79.071-65.346 195.96-75.665 244.09-182.288-13.751 79.108-75.633 147.897-140.953 192.608-65.321 41.28-147.83 37.84-216.588 61.91 65.32-55.03 75.634-134.137 103.137-202.926 17.189-44.713 48.13-82.548 79.072-120.382m-1148.199 0c30.94 37.834 61.88 75.669 79.07 120.382 27.51 68.789 37.82 147.896 103.14 202.926-68.76-24.07-151.27-20.63-216.59-61.91-65.32-44.711-127.2-113.5-140.95-192.608 48.13 106.623 165.02 116.942 244.09 182.288 13.75 10.32 30.94 24.08 48.13 30.96-99.7-82.548-75.63-165.096-116.89-282.038m1199.767-161.655c-6.876 51.592 13.752 96.305 17.19 144.458 6.875 65.35-17.19 110.063-34.379 141.018 0 0 24.065-30.955 34.379-48.152 48.13-75.669 147.83-127.261 154.705-220.127 13.752 202.929-127.202 257.961-250.967 340.508 0 0 20.628-37.834 27.504-61.91 24.065-92.866 10.313-206.369 51.568-295.795m-1251.337 0c41.26 89.426 27.51 202.929 51.57 295.795 6.88 24.076 27.5 61.91 27.5 61.91C130.64 931.945-10.31 876.913 3.44 673.984c6.87 92.866 106.57 144.458 154.7 220.127 10.32 17.197 34.38 48.152 34.38 48.152-17.19-30.955-41.25-75.668-34.38-141.018 3.44-48.153 24.07-92.866 17.19-144.458m1406.043-220.126c27.503 79.108 27.503 141.018 0 223.565-17.19 61.911-79.072 106.624-110.013 165.095 0 0 6.876-65.35-3.438-92.866-27.503-82.547-55.007-171.973-51.569-257.96 27.504 103.184 113.451 137.579 75.634 278.597 13.752-27.516 17.19-58.471 27.503-85.987 20.628-75.668 79.072-141.018 61.883-230.444m-1560.743 0C3.44 526.087 61.88 591.437 82.51 667.105c10.31 27.516 13.75 58.471 27.5 85.987-37.81-141.018 48.13-175.413 75.64-278.597 3.43 85.987-24.07 175.413-51.57 257.96-10.32 27.516-3.44 92.866-3.44 92.866C99.7 766.85 37.82 722.137 20.63 660.226c-27.51-82.547-27.51-144.457 0-223.565m1474.795-206.369c44.693 48.153 68.758 110.063 68.758 171.974 0 82.547-48.13 141.018-51.568 220.126-13.752-82.547-82.51-141.018-116.889-209.808-13.752-27.515-20.627-61.91-27.503-92.866 6.876 13.758 13.751 27.516 24.065 37.835 65.32 55.031 103.137 85.987 120.327 171.973l-6.876-75.668c-6.876-75.668 34.379-158.216-10.314-223.566m-1388.855 0c-44.69 65.35-3.43 147.898-10.31 223.566l-6.87 75.668c17.18-85.986 55-116.942 120.32-171.973 10.32-10.319 17.19-24.077 24.07-37.835-6.88 30.956-13.75 65.351-27.51 92.866-34.38 68.79-103.13 127.261-116.88 209.808-3.44-79.108-51.57-137.579-51.57-220.126 0-61.911 24.06-123.821 68.75-171.974m1268.529-103.184c113.45 24.076 120.326 147.897 113.45 240.763 0 20.637-3.438 37.834 0 58.471-13.751-27.516-37.817-55.031-61.882-75.668-61.882-44.713-123.764-103.184-127.202-178.853 34.379 82.547 140.954 96.305 165.019 182.292 0 0-13.752-51.592-17.19-61.91-17.189-58.471-13.751-127.261-72.195-165.095m-1148.199 0c-58.44 37.834-55.01 106.624-72.19 165.095-3.44 10.318-17.19 61.91-17.19 61.91 24.06-85.987 130.64-99.745 165.02-182.292-3.44 75.669-65.33 134.14-127.21 178.853-24.06 20.637-48.13 48.152-61.88 75.668 3.44-20.637 0-37.834 0-58.471-6.88-92.866 0-216.687 113.45-240.763M1223.831 48c55.006 24.076 116.889 44.713 154.705 103.184 20.628 34.395 24.066 75.669 41.255 110.063-30.941-27.515-68.758-51.592-96.261-85.986-30.941-41.274-58.444-89.427-99.699-127.261M378.17 48c-41.26 37.834-68.76 85.987-99.7 127.261-27.5 34.394-65.32 58.471-96.26 85.986 17.19-34.394 20.63-75.668 41.25-110.063C261.28 92.714 323.16 72.076 378.17 48"/><path fill="none" stroke="#fff" stroke-miterlimit="8" stroke-width="13.75" d="M687 560.5c0-62.684 50.82-113.5 113.5-113.5S914 497.816 914 560.5c0 62.68-50.82 113.5-113.5 113.5S687 623.18 687 560.5ZM801 0v447.025m0 226.955V1121M405.91 165.055l316.07 316.356M880.02 639.59l316.07 316.35M241 560.5h446.63m226.74 0H1361M405.91 955.94l316.07-316.35m158.04-158.179 316.07-316.356"/><path fill="#fff" fill-rule="evenodd" d="M773.94 698.8c1.37-2.75 4.12-13.76 7.55-10.32 3.44 3.44 5.5 0 5.5 0s1.72 1.72.69 5.16c-.69 3.44-1.72 6.88-3.78 7.57-2.06.34-3.78 1.72-6.53 2.06-2.06.34-3.43-4.47-3.43-4.47m28.17-4.47c.69-.69 1.72 2.75 3.44 2.06 1.71-.34 2.4 3.1.68 3.1-1.71 0-1.71 2.06-1.71 3.09s0 3.1-1.38 4.47c-1.37 1.38-2.4.35-4.12-.34-1.72-1.03-2.41-1.03-4.81-1.03-2.06 0-.35 3.44-.35 3.44s-8.93-.35-7.21-1.72c1.72-1.38 3.43-1.72 2.06-2.75-1.37-1.04 0-1.72 0-3.44s4.12-1.04 3.09-2.07c-1.37-1.37 0-6.19 2.06-3.44l1.38-3.09c-1.38-1.38-.35-1.72-3.09-2.75-2.41-1.03-.35-6.19-.35-6.19l.35-3.44c.68-4.47 9.27-4.82 9.96-1.03.34 3.78 0 6.53 0 6.53l2.41 1.03s-.35 2.75-2.41 2.75 0 1.38-1.37 2.75Zm316.45-209.096c-2.41 2.408-7.56 3.439-7.56 3.439l-1.72 6.535-2.75 2.407s.69 1.72 0 5.846c-.68 4.127-5.84 6.534-5.84 6.534l-2.4 2.752s-13.75.688-15.47 0c-5.15-2.407-1.71-9.286 1.72-8.598 3.44.688-.68-9.973-.68-9.973l4.46-.688s.69-10.317 2.41-10.317c1.71 0-.69-3.439-2.75-5.158-2.41-1.72-5.16-7.566-7.56-6.879-2.41.688-11.34 0-11.34 0l-1.72 3.439-6.18 1.032s.69 4.471-.69 5.847c-3.43 4.126-16.49 12.724-10.99-1.72l1.71-3.439v-5.159l-10.3-.687s-5.16-1.72-5.16-4.127-.68-5.159-.68-5.159l-12.03-13.412-14.43-1.72-1.03-2.751-8.59-1.031c-10.31-5.159-19.59-.688-17.87 8.253 1.72 8.598 4.47 12.037-1.03 12.037-5.84 0-6.87-4.471-6.87-4.471s-4.47-1.72-4.47.688-1.72 6.878 0 9.285-2.4 5.847-4.12 4.127c-1.72-1.719-6.19-6.878-5.15-8.597 1.03-1.72-7.91-12.725 1.03-14.444 9.27-1.72-.69-6.878 2.74-8.254l4.47-2.408h4.47l2.75-2.407-7.56-1.032-4.47-.687-8.59-.688c-8.59 5.846-10.31 12.724-10.31 12.724-4.46 8.598-15.46-3.439-11.33-8.253 4.12-4.815-12.72-.688-15.47 1.719s-11.34 1.032-11.34 1.032c-1.71 5.158-9.62-.688-7.55-4.127 2.4-3.439 2.4-5.847 2.4-5.847l-2.75-.687-3.43 6.534c-7.91 0-10.31 4.471-8.59 7.566 1.71 2.751-2.41-.688-3.44 3.439s.69 4.127 4.12 5.846c3.44 1.72-1.71 1.72.69 4.471 2.41 2.751 9.28 0 5.15 4.127-4.12 4.127-12.02 2.407-12.02 2.407-.69 5.159-11.34 4.127-12.71 2.408-1.03-1.72-9.62-12.037-9.62-12.037l-11-.688c-1.03-8.254 5.15-4.127 7.56-10.317 2.4-6.534 3.44-16.851 3.44-16.851s-9.28-.688-9.63 2.407c-.68 2.751-6.18 4.815-6.18 4.815s-4.47 1.719-2.75 4.126-3.43 3.439-3.43 3.439 1.03 3.784-.69 5.159c-4.47 4.815-16.15.688-17.87-1.032l-6.87-2.751-6.87-4.471-7.9 3.44-2.41 2.407h-8.59l-.69 6.878 15.46 1.719 1.04 14.444-6.19-2.063h-4.12l-1.72-3.439-3.44-.688v12.724l3.44 2.752 2.75 2.751 5.84.688 1.03 6.878 14.43.688 1.72 2.751 8.59.688 16.49 16.851-1.03 5.159-2.75 1.719c1.03 4.127-7.56 1.72-7.56 1.72v3.439l4.13.687 4.12 2.408 5.84-9.973c6.18-4.127 9.28 1.719 9.62 5.158.69 3.439-2.75 2.751-2.75 2.751v8.254l3.44 1.032c5.84 6.878-2.41 11.005-2.41 11.005l-1.72 5.846c-1.71 5.159-7.9 4.127-7.9 4.127l-2.4 3.439-6.87 1.719 13.4 1.72c1.37-4.814 4.81-5.846 6.52-3.439 1.72 2.407 1.72 6.534 1.72 6.534l3.44.688-.69 6.534 3.44 1.032v18.571l4.12 4.471c6.87-2.752 6.87 1.719 3.44 4.126-3.44 2.408-1.04 12.725-1.04 12.725l-2.74 2.752v4.81l-3.44 2.41v6.54c-5.84-2.76-12.71-1.72-14.43 0-5.15-3.44-16.15-2.41-16.15.68 3.44 4.47-4.12 5.85-4.12 5.85l-4.13 4.47c2.75 5.85-2.74 6.53-2.74 6.53v11.01l-6.88 6.53.69 15.14c0 4.12 8.59 4.47 10.31 2.4 1.72-2.4 8.59 4.82 8.59 4.82h5.15l1.03-10.32-3.43-1.72v-16.85l5.84-6.54c6.87-2.4 4.46 15.14 4.46 16.86.69 6.53 3.44 5.84 6.19 4.47 5.84-2.41 1.03 6.53-3.44 5.84-4.46-.68-1.71 5.85-1.71 5.85l2.74 1.03-5.15 4.13-4.47 5.16-5.84-1.72-6.87-.69-2.4-4.13-4.13-.68-.68 8.25-2.75 3.44-6.88 6.88c9.28 0-1.03 6.53-3.43 6.53 5.15 1.72-.69 6.88-13.74 2.75v4.13l-4.47.69 4.12 4.47 4.47.68-1.72 9.98c0 7.56-18.9 2.41-20.62.69l-.68 10.31-3.44.69.69 6.88-.69 9.97 6.19-1.03v4.13l15.46.68 22.33-23.72 13.06-2.76c1.03-5.84 6.87 1.04 6.87 1.04 5.84-.69 6.87 3.43 6.87 3.43l7.56 1.04c6.19 1.72 2.41 2.4 2.75 4.81.69 3.44 3.44 2.41 3.44 2.41l1.03-7.57 3.43.69-3.43-4.13-6.19-2.75-6.87-2.75c-4.47-6.53 1.03-5.16 5.84-4.47h7.56s8.59 11.69 8.59 14.44c0 2.76 4.12 3.44 4.12 3.44l5.16-.68 1.71 4.12h5.16l1.72 3.44h10.3l.69-5.16-9.62-1.72-.69-5.84-6.87-1.72c-2.4-9.98 1.72-12.73 4.47-8.26l3.43.69-1.03-8.6 4.13-1.03-1.03-12.03-3.44-1.04v-4.12l14.43.68c-1.03-7.56.69-11 .69-11h4.12l.69 2.75 17.52 1.72 12.37-14.1c-.69-1.03 1.38-1.72 0-3.09-1.72-1.72-4.12 0-6.87-1.72s0-11.7-.69-13.76c-.69-2.41 9.62-5.85 7.9-.69-1.71 5.16 0 7.57 0 7.57 7.56-6.88 13.75.69 13.06 2.41-.69 1.71 4.12 3.43 6.87 1.71 2.75-1.71 6.19 5.16 5.16 8.6s-11.34 2.75-12.03-.69c-.69-3.43-2.4-2.4-3.44-.68-1.03 1.72-6.18 2.75-9.27 1.03-.69-.35-.69-.69-1.03-1.03l-12.37 14.1h.68c6.88 4.12 3.44 9.28 1.04 10.31-2.41 1.04-6.19 1.04-6.19 1.04l-1.03 2.4-14.77 1.03-1.04 5.85c-7.55-1.03-10.3 6.88-8.58 11.01 1.71 4.12 0 7.56 0 7.56l6.18 2.75 7.9-2.4c1.03-5.85 6.19-6.88 11-10.32 4.46-3.44 12.02 6.53 9.62 11-2.41 4.47-2.41 6.54-2.41 6.54l.69 5.16-5.84 2.4-4.47 2.41-.68 2.75h-15.47l-2.75 2.75-7.55.69-2.41 3.44-5.15.69s-8.59 4.12-5.16 8.6c3.44 4.81-14.43 4.12-18.21-2.41-1.03 5.84-7.56.69-7.56.69l-6.18-1.72-.69-8.6c-1.03-5.85-12.02-5.85-11.34-1.72.69 4.13-20.61 1.72-20.61 1.72l-6.87 3.44-6.19 3.78-.69 2.75-10.3 1.03-4.47 2.41-1.72-3.44h-4.47l-4.46 6.54c-12.03.68-23.37 7.56-22.34 10.31 1.04 2.75-4.46 5.85-4.46 5.85l-5.16 1.72-3.43 5.16-6.87 2.41-1.03 12.03-3.44 2.41v5.16l-4.12 1.03v2.75l-5.84.69 3.43 8.6 4.47 2.4c7.9 1.04 4.46 11.01 4.46 11.01l4.47.69 2.41 6.53 4.46 9.29c1.72 6.87 6.88 5.15 9.28 4.81 2.41-.69 4.47 6.88 4.47 6.88l22.67.69s-1.03 2.4 2.75 3.44c4.13 1.03 30.24 2.4 31.27.68-1.03-5.16 14.43-6.53 20.61-1.72 6.19 4.47 14.78 1.72 14.78 1.72l8.59 10.32 5.84 12.73 9.62 2.75 6.87 1.72 2.41 9.97 5.15.69 1.72 6.53c6.18 4.47-1.72 14.44-1.72 14.44v12.73l4.47 2.41-.69 4.81 7.56 7.57 8.59.69 21.65 23.04 17.18 5.16 2.74 9.28 4.47-.69 3.44-2.75 13.74-.69 6.87-6.53 7.56-1.03 63.57-54-5.84-3.43v-12.73c10.3-7.56 10.99-20.98 1.03-22.01-7.22-1.03-4.13-8.6 2.74-9.97l4.13-1.72v-5.16l13.05-12.04v-9.28l-28.51-23.73c-12.72-4.47 0-32.33 8.59-31.98 8.59.68-.69-42.99-.69-42.99l-4.47-2.41 1.03-14.1h-6.18l-10.31 13.41-2.75 9.29c-1.03 12.03-36.42 9.97-38.14 8.25-1.71-1.72-13.74-6.88-13.74-6.88s-9.28-7.56-11-5.16c-1.71 2.41-9.62-2.75-9.62-1.03s-7.55-4.12-7.55-4.12l-11.34-4.13 8.59-1.72-1.72-6.88 14.77 7.57c1.72 2.41 9.28 1.72 9.28 1.72l2.4 2.75s4.47-.69 7.56 2.75c2.75 3.44 17.87.69 17.87.69l4.12 3.44 6.19 2.4 17.87.69.68-11 3.44-3.44-.69-6.88 4.12-3.44v-5.85l3.44-1.03.69-12.72 2.75-.69v-27.86l-8.59-8.25c-.69 2.75-9.62 2.75-9.62 2.75s-2.41 4.13-4.13 4.13 2.41 5.16 1.03 8.6c-1.03 3.44-5.84 3.44-5.84 3.44l-8.59 2.4-2.4 2.75h-9.28l-1.03-7.56 10.31-2.75 5.84-2.75 2.75-5.85c.68-5.85 7.56-5.16 7.56-5.16s13.05-11 13.74-16.16 5.15-19.61 13.06-19.61h14.77c5.84-2.4 4.12-9.97 4.12-9.97l7.56-1.03 1.03 4.13s10.31 1.03 11.34-.69 3.44-5.85 6.19-4.13 12.02-4.13 12.02-4.13c.69-4.12 14.78-2.4 14.78-2.4l1.72-5.16s-9.63-13.41-11.34-13.41c-1.72 0-11-8.26-12.03-5.16-9.28-2.41-8.59-15.134-8.59-15.134l-3.44-8.254c0-4.814-8.58-14.443-10.3-13.412-8.59-6.534-2.41-13.756 0-14.444 2.4-.687 7.9-8.597 7.9-8.597l2.75-8.254 9.62-2.751 1.03-7.566-5.15-.688s5.84-10.317 8.59-10.317c2.74 0 21.64 0 23.36-1.032s5.15-10.317 5.15-12.036c0-1.72 4.47-2.408 6.19-2.752 1.72-.688 5.84-5.158 6.87-7.566 3.09-5.846-.69-20.29-3.09-17.883M1276.95 670.6c-.34-1.03-.68-2.06-1.71-2.41-2.41-1.03-6.88.69-8.94 2.06l2.06 2.76c2.07-1.38 5.16-2.07 5.5-1.72v-.35Zm14.78 69.12-3.44-.34c-.34 2.75.35 6.19 3.09 6.53l.69-3.44s-.34-1.37-.34-2.75m12.71-13.75c1.03 3.44 2.06 6.88 2.06 7.22l3.09-1.38s-1.37-3.44-2.06-6.87Zm7.56-2.75v-.69c0-1.03-.34-2.41-1.03-3.78l-3.09 1.71c.34.69.34 1.72.68 2.41 0 1.03.35 2.07 1.03 2.75.69.35 1.38.69 2.41.35l-.69-3.44c0 .34.35.34.69.69m-29.21 24.76c2.41-1.38 5.5-4.47 5.16 2.06-.35 6.53-3.09 4.47-5.16 6.53-2.06 2.07-3.43-6.53 0-8.59m-137.78 44.7.35-5.15 5.5.68-.35 4.82Zm.35 11.35c-.69-3.09-4.13-4.12-4.47-4.12l-1.03 3.44c.34 0 .69.34 1.03.68l.69 3.1c-.35.34-.69.69-.69 1.03l2.41 2.41c1.71-2.75 2.4-4.47 2.06-6.54m-427.09 107.3-3.43 3.1-1.72 1.37 1.72 1.38 4.12 2.75 2.06-2.75-2.4-1.72 1.72-1.38Zm40.55 41.61-1.38 3.1 3.44 1.72-1.03 1.37 2.4 2.41 4.47-4.47-2.06-1.37ZM601.11 206.672l3.43 3.439-2.4 2.407-3.44-3.439Zm103.76 108.33 3.44 2.751-2.06 2.751-3.44-2.751Zm-13.05 2.407.68 6.534h8.59c3.44 0-2.74-4.126-2.74-4.126s-6.88.687-6.53-2.408m188.29-161.635-5.85-.688-.34 3.439 4.81.344 3.78 5.847 2.75-2.064-3.78-6.19-.69-.688Zm15.46-121.742-1.72 3.095 4.47 2.752 1.03.687.68-.687 6.53-4.127L904.5 33l-5.15 3.439Zm30.58 16.507-2.75-3.095-2.41 2.752 5.16 5.158 1.03-1.031 5.84-4.815-2.41-2.751ZM736.48 171.25c-.34-2.063 11.34-2.408 13.06-.688s.69 4.815 5.84 4.815c5.16 0 2.75 3.439 2.41 5.158-.69 1.72-6.19 1.032-6.88-.688-.68-1.719-9.27-2.407-9.27-2.407s-4.47-3.439-5.16-6.19m65.63-6.534c8.93 2.751 12.03.687 12.71-1.72.69-2.407 1.03-2.751 4.47-3.439s-.69-7.566-4.12-6.878c-3.44.688-6.88-1.032-7.56-4.127-.69-2.751-6.19-10.317-6.87-4.471-.69 5.847-4.13 5.847-3.44 9.974 1.03 3.783 2.75 9.973 4.81 10.661m56.69-98.013c-1.37-5.159-8.59 6.534-1.03 8.598 7.56 2.407 14.78 0 14.78 0l1.71-3.44 28.52.688c2.41-2.407 3.44-5.846 3.44-5.846s6.87-2.407 9.62-1.032c2.75 1.032.69-8.254-2.41-6.878-2.74 1.032-8.59.688-8.59.688h-10.3c-.69-4.127-9.62-2.407-10.31 0-.34 2.063-3.78 2.751-3.78 2.751l-13.06 1.032c-1.37 3.439-7.9 5.846-8.59 3.439m1.03 28.544-7.56-7.566v-6.534l-2.4-2.407-2.41-8.254-7.55-2.407-7.56 2.751-7.91 5.158-8.59 1.032-4.46 5.159 18.21 1.719 3.43 5.846 13.06 1.032 8.59 8.598c7.9 3.439 9.62 0 5.15-4.127m26.46 55.712 2.41-5.502 3.09 1.72-2.41 5.158Zm170.77-5.846c-1.04-4.471 11.33-8.598 14.43-5.159 2.74 3.44 10.99 4.127 12.02 21.323.35 6.19-10.31-6.534-10.31-6.534l-8.59-2.752c-4.81-1.032-7.21-3.783-7.55-6.878m-60.13 15.132c-1.72 5.158-2.41 12.036-5.16 12.036s-1.72 7.566-1.72 7.566 7.56 0 9.63.688c2.4.688 2.4 6.535 2.4 6.535 8.59-.688 12.03 11.004 11 14.099-1.04 2.752 3.43 2.752 3.43 2.752s0 9.285-1.03 11.692 7.56 4.127 9.62 7.566c2.41 3.439-1.03 15.132-2.75 15.82s4.47 2.407 4.13 5.159c-.69 2.751 1.71 0 2.4 4.814.69 4.471 1.72 14.444 1.72 14.444l7.9.688c1.03-7.566 15.81-7.91 18.21-6.878 9.62 3.439 17.18 18.571 17.18 22.01s-6.18 4.127-6.18 4.127l1.03 16.851c9.62 2.751 17.86 16.851 16.49 19.259-1.03 2.407 6.87 1.719 6.87 1.719 1.03-10.317 11-6.878 11.34-3.439.69 3.439 2.41 11.005 2.41 11.005l2.74 5.159 4.13 4.126 6.18-.687 1.72 3.439 7.56 1.031s6.18 6.879 6.87 8.598 9.28 1.032 11.34 1.72c2.4.687 5.84 2.407 6.18 5.158.69 2.751 4.13 7.566 4.13 7.566s6.87 1.72 7.56 4.127c.68 2.407 3.43 7.566 3.43 7.566l5.84 4.814.69 5.159 6.18.688 1.72 6.878 10.31-.688 5.84-4.127c7.56-4.127 12.71-9.285 13.06-11.692.68-2.408 1.72-11.005 7.56-9.286s1.71-12.724 1.71-12.724-7.9-5.847-7.55-8.598c.68-2.751-7.91-8.598-7.56-11.005.68-2.407-7.56-6.878-6.88-9.285.69-2.408-4.12-8.598-4.12-8.598l-8.59-8.254-1.03-5.158-6.87-.688-13.74-16.851.68-4.815-4.12-.688v-6.534l-4.12-2.407-6.19-.688-12.71-13.756-1.03-6.534h-6.19l1.03-12.037c4.13-5.159 1.72-15.132 1.72-15.132s-7.9 4.127-12.02 2.407c-4.13-1.719 1.71-5.846 1.71-5.846v-4.471l-3.43-3.439s-9.62 1.032-10.31-.688-2.4-9.285-2.4-9.285l-.69-9.973-4.12-1.72-.69-3.439-6.19.688v-6.878l-3.43-1.032-3.44-1.719-.69-6.879-12.71-.687-4.12-5.847-4.47-6.878-14.43-1.031-3.43-3.44-5.85-1.031-4.12-1.72-1.72 2.751-10.99.688-.69 3.439c-4.81 2.408-27.49 0-28.17 1.72m-105.14-3.439c1.03 1.719 7.9 3.439 7.9 3.439 4.47 0 7.56 3.439 7.56 5.158s6.18 1.032 6.18 1.032l.69-4.127-4.47-5.846-4.12-2.751s-6.18-.688-6.18-2.407c0-1.376-6.53 3.782-7.56 5.502m0 19.602-4.47-1.031v5.158l6.19.688Zm63.56 63.967v-4.471s-.69-4.471-3.43-4.471c-2.75 0-7.91-3.439-6.88-5.846s-9.62-4.815-9.62-4.815-9.62-9.285-6.18-8.254 1.72-4.126 1.72-4.126-6.88 1.031-8.59.687c-1.72-.687-1.03-5.846-1.03-5.846s-6.88-1.719-6.88 0 2.41 1.72 3.44 5.159.69 9.285 5.84 10.317c5.16 1.031 6.19 2.407 6.87 4.814.69 2.408 6.88 2.752 6.88 2.752l4.46 2.407Zm4.47 15.475c-.69-2.407-1.72-10.317 1.72-9.973 3.43.688 1.03 0 5.15 1.72s4.47-2.752 4.47-2.752h6.18l7.9 6.535-1.03 5.158-5.84.688c-2.75-4.471-8.59-2.751-7.56 1.032 1.03 4.126-2.75 11.692-5.15 12.036-2.41.688-9.62.688-9.28-2.751 1.03-3.439 3.44-11.693 3.44-11.693m94.14 79.098 4.13-12.724c-5.84-1.032-4.47-7.566-4.47-7.566-.69-5.159-8.59-11.005-11.34-9.285-2.75 1.719-1.72-12.037-1.72-12.037s5.16-3.439 7.56-1.72c2.41 1.72-19.58-28.887-24.05-26.136s-14.77-2.751-14.43-8.254c.69-5.159-20.62-22.698-20.62-22.698s-6.87-4.471-7.9-1.032-3.43 5.847 0 7.566c3.44 1.72 2.75-2.751 6.87 1.032 4.13 4.127 11.34 9.286 8.59 12.724-2.75 3.44-6.18 4.815-6.18 4.815l4.12 4.815h6.19l1.03 9.973s6.87 3.439 8.59 7.566c1.71 4.127 1.71 6.534 0 8.598-1.72 2.407-5.16 6.534-4.47 10.317.69 4.127 5.15 5.846 5.15 5.846l4.47.688 3.44 1.719v7.566c4.46-1.031 12.02 5.159 11.34 9.286-.69 4.127 1.03 1.719 6.87 5.846s4.12 4.815 7.9 7.566c3.78 2.407 7.22.688 8.93-4.471m-131.25 74.284c0 1.719-1.03 4.127 2.41 4.814 3.43.688 9.62-2.407 10.3 1.032.69 3.439.69 5.846 5.16 7.566 4.46 1.72 7.56 2.407 10.99 2.407 3.44 0 11-1.032 11-1.032s8.24 1.376 9.62 2.752c6.18 6.534 10.31 8.253 12.02 5.158 1.72-2.751-.68-9.285-1.03-11.692-.68-2.408-8.59-13.413-11.34-11.005-2.74 2.407-3.43 0-8.59 1.719-5.15 1.72-16.14.688-16.49-1.719-.69-2.408-8.59-3.439-8.59-5.847 0-2.407-5.84-5.158-5.15-1.719s-4.12 5.158-5.16 4.127c-1.71-1.376-5.15 3.439-5.15 3.439m-28.52 6.19-.68 4.127 6.18.688s2.75 2.407 2.75 4.127 4.12 3.438 6.18 3.438c2.41 0 8.59-4.814 8.59-4.814s2.75-8.254.69-7.566c-2.4.688-6.87 4.127-7.56.688s-7.56-1.72-7.56-1.72Zm-29.55 6.534 1.72-.344 1.03 3.095-1.72.688Zm2.07-5.503 3.43-.687 1.03 5.158-3.09.688Zm9.62.688.34 3.439 12.37-.343v-3.439Zm111.32-2.751 5.84-.688.34 3.439-5.84.688Zm15.12 12.725 1.72-4.127 3.09 1.376-1.72 4.126Zm49.82-58.12 5.84-.344.34 3.439-5.84.344Zm9.62 3.439h3.43v2.751h-3.43Zm10.31-48.835-3.44.344-.69-5.158 3.44-.344Zm-3.44 72.22h3.44v4.127h-3.44Zm7.56 2.064 3.09 1.375-1.72 3.783-3.09-1.719Zm-16.84-45.739c3.44 0-1.03 13.412 7.91 12.036 9.27-1.031.68 4.127 7.56 4.471 6.87.688 5.15-5.159 7.55-9.286 2.41-4.126 1.04-6.534-2.74-7.566-4.13-1.031-4.13-1.031-5.16-5.846-1.03-4.471-5.84-5.846-5.84-5.846l-1.72-6.878-7.56 4.471-7.55 9.973c0 8.253 4.12 4.471 7.55 4.471m22.34 31.639c4.46-2.408 14.43-2.408 13.74-5.847s5.84-4.47 5.84-4.47l1.72 6.878 5.15 3.439.69 6.534s1.72-1.032-4.47.688c-6.18 1.719-2.4 4.471-2.4 4.471l-13.74.687-1.72-5.846Zm-73.87 48.49c2.74-.688 9.62-1.031 10.99.688 1.03 1.72-4.12 4.127-4.12 4.127l-6.87 1.032c-2.07-2.752-2.75-5.159 0-5.847m36.76-5.158c3.09 3.095-17.18 2.407-17.18 0s1.72-10.317 6.87-8.598c5.16 1.72 5.84-10.317 5.84-10.317s-4.46.688-.68-1.72c4.12-2.407 0-5.846-1.72-7.565s-3.44-4.815-3.44-4.815h7.9c3.44-2.408 4.47-13.412 4.47-13.412 6.87 2.407 10.31-2.408 10.31-2.408s1.03 3.439 3.43 6.534c2.41 2.752-5.84 4.127-2.74 5.847 2.74 1.719 4.12 6.878 2.74 8.597-1.03 1.72-7.55.688-7.55-1.719s-2.41 2.751 0 5.846c2.4 2.751-2.75 6.878-4.13 6.878-1.03 0-8.59 1.032-2.4 4.815 6.18 3.439 13.05 1.72 13.05 1.72s5.16-.688 6.88 2.407c1.71 2.751-.69 3.439-3.44 3.439s-16.49-1.032-16.49-1.032-3.44 3.783-1.72 5.503m66.66-65.686c-1.72-2.407-3.44-4.127-5.84-5.159-2.41-1.031-4.13-2.407-6.19-2.407-2.4 0-4.47-2.407-3.44-5.158 1.04-2.752-1.71-4.127-1.71-6.535 0-2.407 1.71-2.407 4.46-.688s2.41 2.408 4.47 5.159c2.41 2.751 3.44 5.846 5.84 5.158 2.41-.687 4.12 5.159 6.19 3.44 2.4-1.72 1.71 4.126 1.71 4.126Zm-5.5 5.502c1.72 2.408 5.15 4.127 5.15 6.535 0 2.407-1.03 4.127 2.41 4.47 3.43.688 5.84-.688 6.87 2.408 1.03 2.751 1.03 7.566.69 9.973-.69 2.407.68 5.846 3.43 5.846s3.44.688 3.44 2.407 3.43-6.534 3.43-6.534c-2.74-2.407-5.15-7.565-5.15-7.565s-2.75-8.254-2.75-9.286-4.12-2.407-5.84-2.751c-1.72-.688-4.47-5.846-4.47-5.846Zm37.11 93.886-2.41-5.158s0-4.471 1.03-6.878-2.4-4.471-4.12-5.159-1.03-5.159-1.72-7.566-4.47-4.127-4.47-4.127-1.03-8.597-1.03-10.317c0-1.719-5.15-4.127-3.43-5.846s2.75-4.127 4.46-5.159c1.72-1.032-1.71-9.285 1.04-7.566 2.74 1.72 2.74 4.815 4.12 6.878 1.03 2.408-.69 10.318 2.4 12.037 2.75 1.72-.68 7.566 4.13 7.566 4.46 0 1.71 11.005 1.71 11.005s-1.03 8.254 1.72 8.598c2.75.687 1.03 14.444 1.03 14.444Zm1.71 44.364 1.72-3.439 3.09 1.719-1.71 3.44Zm3.78-18.915 3.44.344-.34 4.815-3.44-.688Zm-7.21-19.258-4.47-.688-10.31 1.719-5.84 11.005s2.75 1.72 5.16 5.847c2.4 4.126 3.43 27.856-3.44 31.983s.69 1.719.69 1.719l-1.03 12.725c1.72 5.846 4.46 2.751 6.18 0s3.44-3.44 5.84-6.534c2.41-2.752 5.84-8.254 6.19-12.037.68-4.127 3.43-10.317 1.72-12.037-1.72-1.72 1.71-9.973 1.71-9.973s2.41-4.815 0-9.285c-2.4-4.815.69-9.974 2.41-12.037Zm-25.08-59.152h-8.59s2.75 1.032-5.16-6.534c-7.9-7.566-13.05 1.719-13.05 1.719l-9.28 1.032v9.286l-4.47 1.719.69 5.846 6.18-.687s0 6.878 1.72 4.127 16.15.687 14.78 7.565c-.35 2.752 14.43 10.318 12.71 19.603 7.56 1.032 5.84 8.598 5.84 8.598l9.62 1.031 2.75-5.846 2.75.688v-3.439l-6.19-1.72-1.03-18.571-4.12-2.751 1.03-4.815-4.47-1.719 2.41-7.566Zm-21.31 142.376 3.44-1.375-1.37-2.751-.69-2.064-1.72 1.032-4.12 2.407-3.78-2.407-1.72 3.095 4.47 2.751 1.03.688.68-.688 3.44-1.719Zm15.12-7.565 6.19 1.031.68-3.439-6.18-1.031Zm-11.68 74.283c-2.41-3.44 11.34-9.286 13.74-2.41 2.41 6.88 0 5.85-2.4 5.16-2.06-.69-7.9 1.72-11.34-2.75m-59.1 111.77h4.12v11h-4.12Zm26.46 106.27c-1.03 4.47-5.16 6.87-7.56 5.15-2.41-1.72 2.75 2.75 4.12 5.16 1.03 2.41 4.47 2.41 5.84 0 1.03-2.41.69-7.56 1.72-9.97 1.03-2.06-3.43-2.75-4.12-.34m12.71 23.38 5.16 2.41.68 9.97c6.87 6.88 29.21 1.03 29.21-.69s-1.03-21.32-1.03-21.32l-2.75-2.75-.69-14.44c2.41-7.57-10.99-18.57-12.02-16.17-1.04 2.41-8.59.69-8.59 2.75 0 2.41-4.47 13.76-2.41 17.89 2.41 4.12-1.72 4.12-2.4 8.25-.69 3.44-6.53 10.32-5.16 14.1M917.9 734.22l-1.72-2.75-4.81 2.75 2.06 3.1Zm-87.27 11.35c-2.75 2.75-2.06 5.16 0 7.22m17.86 6.88 3.78-6.53-3.09-1.04-4.12 2.76 1.72 1.71Zm-3.43-181.237c2.4 5.158 1.72 12.724 10.31 18.57 2.75 2.064-1.72 5.847-4.47 4.127-2.75-1.719-10.99-14.444-10.99-14.444v-7.566c1.71-4.471 4.12-2.751 5.15-.687m-30.24 30.263c1.38 5.154 1.03-8.253 3.44-7.566 2.4.688.69-8.253.69-8.253l-10.31 7.566c4.81.687 5.5 5.846 6.18 8.253M783.9 645.84c-.69 6.88-9.28 9.28-9.28 9.28l-6.18-1.72-3.44-2.75-.69-8.25 5.16-.69 1.03 3.44Zm-9.28-70.159v-8.253l-1.03-7.566-8.59-4.127-6.18 5.846-1.03 8.254v5.159l-5.84 1.031-1.04 15.82-4.46 1.719.69 5.847-12.37 3.439-1.03 7.566-4.47 2.754-2.41 6.87-2.75 16.86s5.16 9.97 7.91 5.15c2.75-4.47 7.56-5.15 7.56-5.15l1.71-4.13 15.47.69c1.03-6.54 8.59-4.13 8.59-1.03 0 2.75 5.84.68 5.84.68l4.12-6.53h6.18l.69-6.88 2.75-1.72v-10.316c9.28-2.751 7.9-11.692 7.9-11.692l2.41-2.752-1.03-4.127c-4.47-1.719-2.41-5.846.68-4.814 2.75 1.032-4.12-5.159-4.12-5.159-3.43 2.752-6.18-3.439-6.18-3.439Zm-26.11-23.729-4.47 1.032-10.3 9.973-.69 4.471-2.75 4.127-3.44 8.597-12.02.688-2.41 10.317 1.72 8.941 10.31 4.127 1.03-5.846 3.43-1.72.69-5.846 2.41-4.127 3.43-4.127 1.03-4.47 5.85-3.44 6.87-1.375 2.75-3.439 1.03-6.878.68-5.159 2.41-3.783 6.87-2.751v-11.005h-3.44l-.68-4.127-6.19-.688-1.37 3.096h-2.75l-.69 4.47h3.44l.69 3.783-2.41 2.064ZM567.09 621.76c0 1.38-1.03 2.41-2.4 2.41-1.38 0-2.41-1.03-2.41-2.41 0-1.37 1.03-2.4 2.41-2.4 1.37 0 2.4 1.03 2.4 2.4m-.34 66.38c0 1.37-1.03 2.41-2.41 2.41-1.37 0-2.4-1.04-2.4-2.41 0-1.38 1.03-2.41 2.4-2.41 1.38 0 2.41 1.03 2.41 2.41m-6.19-9.63c1.38 0 2.41-1.03 2.41-2.41 0-1.37-1.03-2.41-2.41-2.41-1.37 0-2.4 1.04-2.4 2.41 0 1.38 1.03 2.41 2.4 2.41m-6.87 13.75-4.81.69v4.13l4.81-.69Zm5.16-29.57-4.13.69-.34 4.47 4.47.69Zm-1.03-31.3.34-4.12-8.59 5.84-5.5-3.44v13.76l8.94 12.38 3.43-8.25 1.38-5.16-4.13-1.72.69-8.6Zm-3.44-48.831-10.31-1.031.69 4.126h2.75c4.47 8.254.69 27.856.69 27.856s-6.88.69-7.91-2.75-4.12 7.57-1.72 9.28c2.41 1.72 10.31 0 11 6.54.69 6.53 5.15-4.13 5.15-4.13Zm230.21-114.864h-6.19l-1.03-12.724 3.44-2.407v-6.535h-19.93l-.69-6.534 2.75-1.719-4.47-1.72-3.43 4.471-1.03 5.159-5.84 1.031v2.751h-4.13v7.566l-16.15 13.413-31.95-1.032c-2.4 5.158-7.9-.688-7.9-.688-1.03-3.439-9.28 0-9.28 0 0 6.534-10.99-2.751-10.99-2.751l-19.93-14.444c-11.34-10.317-28.52 2.751-29.21 5.846.69 8.254-13.05 1.72-13.05 1.72s-11.34-3.439-13.06 1.032c-1.72 4.47-9.28 3.439-9.28 3.439l-1.03 2.407-5.84 1.032-1.03 3.439-6.87 1.031 17.18-.688c4.46-.687-1.72 9.974-4.47 9.286l-7.9.688-2.75 2.751h-7.56l-3.44 4.815-10.99-.688s-6.19 5.158-5.84 6.878c.69 1.719-1.03 6.878-2.75 6.878s-5.15 5.158-4.12 6.878-3.44 7.566-3.44 7.566l-1.03 5.846-3.44 1.032v15.82l-6.87 4.814v6.878l-10.31 11.005 1.03 9.286-8.58 9.285 1.03 9.285-5.16 1.72-1.03 4.127-2.4 12.036 5.84.688c2.75-1.031 2.4 7.566 0 8.596-2.41 1.03-8.59 3.44-5.16 5.85 3.44 2.41-9.27 1.72-9.27-1.72s-6.88-6.54-8.59-5.16c-1.72 1.03-4.47-5.158-4.47-5.158-6.18-6.535-25.77.688-25.77.688l-2.75 9.28c-6.18 1.04-10.31 11.7-10.31 11.7-5.15 1.72-9.27 8.25-7.55 9.97 1.71 1.72-2.75 2.41-2.75 2.41v12.72l-2.75 4.13.68 13.76c3.44 0 2.75 6.53 2.75 6.53-5.84.69-4.46 8.25-4.46 8.25l-12.03 4.13-2.4 3.44-14.78-.69-4.12 4.13-4.12-4.13H355.1l-1.03-2.75-5.84-1.03-.69-6.54-8.59.69-1.72 3.44-9.28.69c.69 5.85-9.27 14.44-10.3 12.04-1.04-2.41-7.56-8.6-4.47-9.98 2.75-1.03 10.31-2.4 10.31-2.4v-4.13l-21.31-.69-2.4 3.44-8.59.69v9.28l-4.12 1.03c-2.75 1.72.68 8.26.68 8.26 4.13 4.13-.68 10.32-.68 10.32-3.44 3.43 2.74 9.97 2.74 9.97 4.47 1.03-2.74 4.47-2.74 4.47 1.03 5.85 4.46 7.57 4.46 7.57-3.43 5.84 2.41 8.59 2.41 8.59l.68 9.98 4.13 2.4v6.54l2.4 4.12h9.28l-.69-14.44c-7.9-9.28 6.87-11.69 7.56-8.25s6.87 5.16 6.87 5.16c1.03 8.59 11 13.75 13.75 5.15 2.75-8.59 5.15-3.44 6.87.69s12.71 14.1 12.71 14.1h8.59l1.03 8.26c9.62-.69 12.72.68 16.5 13.75 4.12 13.41 14.77 16.85 14.77 16.85l7.9-.68c0-6.88 7.9 1.03 7.9 4.81 0 3.44 15.47 16.85 15.47 16.85l15.46 3.44 14.43 11.69 10.99-1.03h4.47c2.75-9.97 16.49.69 17.87 4.13 1.03 3.44 10.31 9.28 11.34 6.53s7.55-1.03 8.59 7.57c1.03 8.6 5.15 6.88 5.15 6.88l32.64-.69 11.34-9.97 29.2-.69c14.78-.69 5.85-20.98 2.75-20.98-5.15-4.13 1.72-20.98 1.72-20.98l-41.57-38.86c-9.62 0-1.03-14.1-1.03-14.1 7.55-4.81-1.72-12.04-1.72-12.04 1.03-6.87-4.12-15.13-4.12-15.13-10.31-6.88-7.56-20.29-7.56-20.29v-9.28c-8.59-8.26 3.43-9.29 3.43-9.29 4.13-6.88-2.75-12.04-2.75-12.04l-.68-7.56-9.28-1.03-1.03-27.17-20.62-29.58c-4.12-1.03-1.03-8.25-1.03-8.25 5.16-2.75-1.03-9.975-1.03-9.975l-.69-12.725 12.03-1.031 2.75-4.471h5.84l-.69-15.132c2.75-7.566 9.62-3.439 9.62-3.439l7.91.688 4.46-8.598 1.03-6.878-6.18-.687c-6.87-4.127-3.44-19.259-3.44-19.259 11-16.164 23.37-6.878 23.37-6.878l7.9-.688c12.02 8.254 1.03 23.041 1.03 23.041-2.41 3.439-1.03 14.444-1.03 14.444l2.75 18.571-7.56 6.535c-6.19 3.439-6.19 11.692.69 13.412 4.46.687 2.74 11.69-4.13 4.126-10.3 0 5.84 9.284 1.03 6.874 10.31 5.16 7.91-4.466 7.91-4.466l13.74-11.005c5.15-4.127 14.43 8.597 14.43 10.317s22.68.688 22.68.688c6.18 4.126 8.59 14.446 8.59 14.446 6.18-8.26 19.58-.69 9.62 4.12 9.28 5.85 9.28 11.01 9.28 11.01 7.55-2.41 7.55 3.44 7.55 5.16s2.41-8.6 2.41-8.6c-8.59-6.53 11.34-8.6 5.84 2.75l-3.44 5.16 5.85 4.47.68 13.41c12.72-1.03 9.28-16.85 9.28-16.85l5.84-1.03c0-5.16 4.12-2.41 4.12-2.41-4.12-19.6 9.28-23.04 9.28-23.04 7.56-1.72 7.9-17.537 7.9-17.537-5.15-2.408-2.4-10.318 3.44-3.44s-3.44-14.1-3.44-14.1l-4.46-4.127-6.19-.687-.68-6.534h-10.31l-1.72 8.253-3.78 1.72-1.03-2.408-1.72 6.534h-10.31l-.68-6.878 6.18-1.719 2.41-3.439 1.71-9.286h7.56l9.62-2.751c.69-9.973 5.84-7.566 5.84-7.566l8.59 6.878.69 3.439-3.43 1.72-.69 4.815 1.72 6.534h4.46c1.72-9.286 13.75-9.286 17.18-3.439l3.44-8.254c-7.9-4.127 0-10.317 2.06-7.566 2.41 2.751 7.56-7.566 7.56-7.566s4.12 5.159 0-1.719 2.75-10.317 2.75-10.317c-1.03-6.878 7.56-5.847 7.56-5.847l.68-9.285-7.9-.688c-1.72 8.254-8.59 1.032-5.15-.688 3.43-1.719 6.87-5.158 6.87-5.158v-5.847l3.44-1.032.68-5.846h8.59l7.56-3.439 1.72-2.751 7.9-.688 11.34-10.317-1.03-4.471c-6.87 0 0-5.158 0-5.158ZM474.32 989.4l-4.46-6.88 6.87 1.03 7.21 6.19 3.1 7.57-4.13 2.41-2.4-3.44-5.5-1.72ZM348.23 815.38l2.74 7.91 4.13 3.1 3.78 8.6-2.06 4.12-6.53-5.84-4.47-6.54-2.41-5.16-3.77-10.31Zm-34.36-30.95h-2.75v5.85h4.46v7.56h3.44l-.69-8.59-4.46-1.72Zm449.41-353.533 3.44-.687.69 3.439-3.44.688Zm4.13-2.063 1.03-3.439 4.46 1.376-.68 3.439Zm8.24-3.439.35-3.439-3.78-.688-.69 3.439Zm5.84-7.566h4.47v3.439h-4.47Zm29.21 4.127.34-3.439 4.13.344-.69 3.439Zm11.34 2.408.34-3.44-4.12-.687-.34 3.439Zm4.12.343h4.47v3.439h-4.47Zm5.16 5.847v4.127l3.43-.344v-4.127Z"/><path fill="#fff" fill-rule="evenodd" d="M801 33.011c-291.06 0-527.02 236.165-527.02 527.489 0 291.32 235.96 527.49 527.02 527.49s527.02-236.17 527.02-527.49c0-291.324-235.96-527.489-527.02-527.489M801 0c309.28 0 560 250.945 560 560.5 0 309.56-250.72 560.5-560 560.5S241 870.06 241 560.5C241 250.945 491.72 0 801 0"/><path fill="#fff" fill-rule="evenodd" d="M801 143.267c-231.81 0-419.73 187.921-419.73 419.733 0 231.81 187.92 419.73 419.73 419.73S1220.73 794.81 1220.73 563c0-231.812-187.92-419.733-419.73-419.733M801 117c246.32 0 446 199.681 446 446 0 246.32-199.68 446-446 446S355 809.32 355 563c0-246.319 199.68-446 446-446"/><path fill="#fff" fill-rule="evenodd" d="M801 244.142c-177.76 0-321.86 144.101-321.86 321.858 0 177.76 144.1 321.86 321.86 321.86s321.86-144.1 321.86-321.86c0-177.757-144.1-321.858-321.86-321.858M801 224c188.88 0 342 153.119 342 342 0 188.88-153.12 342-342 342S459 754.88 459 566c0-188.881 153.12-342 342-342"/><path fill="#fff" fill-rule="evenodd" d="M801 352.957c-114.35 0-207.04 92.696-207.04 207.043 0 114.35 92.69 207.04 207.04 207.04s207.04-92.69 207.04-207.04c0-114.347-92.69-207.043-207.04-207.043M801 340c121.5 0 220 98.497 220 220 0 121.5-98.5 220-220 220s-220-98.5-220-220c0-121.503 98.5-220 220-220"/></svg>