<svg width="75" height="75" xmlns="http://www.w3.org/2000/svg" xmlns:xlink="http://www.w3.org/1999/xlink" xml:space="preserve" overflow="hidden"><defs><clipPath id="clip0"><rect x="3196" y="2323" width="75" height="75"/></clipPath></defs><g clip-path="url(#clip0)" transform="translate(-3196 -2323)"><path d="M3204 2377.09 3229.64 2377.09 3229.64 2381 3204 2381ZM3223.28 2371.57 3235.85 2371.57 3235.85 2375.48 3223.28 2375.48ZM3245.34 2366.04 3263 2366.04 3263 2369.96 3245.34 2369.96ZM3218.19 2360.52 3235.85 2360.52 3235.85 2364.43 3218.19 2364.43ZM3214.96 2355 3232.62 2355 3232.62 2358.91 3214.96 2358.91Z" fill="#C00000" fill-rule="evenodd"/><path d="M3202.33 2329.33 3202.33 2329.33 3202.33 2332.57 3202.33 2386.99 3202.33 2391.67 3202.33 2391.67 3207.01 2391.67 3261.42 2391.67 3264.67 2391.67 3264.67 2391.67 3264.67 2391.67 3264.67 2386.99 3264.67 2332.57 3264.67 2329.33 3264.67 2329.33 3264.67 2329.33 3261.42 2329.33 3207.01 2329.33ZM3196 2323 3271 2323 3271 2398 3196 2398Z" fill-rule="evenodd"/></g></svg>