<svg width="65" height="65" xmlns="http://www.w3.org/2000/svg" xmlns:xlink="http://www.w3.org/1999/xlink" xml:space="preserve" overflow="hidden"><g transform="translate(-2879 -2323)"><path d="M2926 2371.93 2934.57 2371.93 2934.57 2378.45 2934.57 2378.57 2926 2378.57 2926 2378.45ZM2914.76 2371.93 2922.05 2371.93 2922.05 2378.45 2922.05 2378.57 2914.76 2378.57 2914.76 2378.45ZM2897 2371.93 2910.82 2371.93 2910.82 2378.45 2910.82 2378.57 2897 2378.57 2897 2378.45ZM2888.43 2371.93 2888.54 2371.93 2893.06 2371.93 2893.06 2378.45 2893.06 2378.57 2888.54 2378.57 2888.43 2378.57 2888.43 2378.45ZM2926 2361.34 2934.57 2361.34 2934.57 2367.98 2926 2367.98ZM2914.76 2361.34 2922.05 2361.34 2922.05 2367.98 2914.76 2367.98ZM2897 2361.34 2910.82 2361.34 2910.82 2367.98 2897 2367.98ZM2888.43 2361.34 2888.54 2361.34 2893.06 2361.34 2893.06 2367.98 2888.54 2367.98 2888.43 2367.98ZM2926 2350.75 2934.57 2350.75 2934.57 2357.39 2926 2357.39ZM2914.76 2350.75 2922.05 2350.75 2922.05 2357.39 2914.76 2357.39ZM2897 2350.75 2910.82 2350.75 2910.82 2357.39 2897 2357.39ZM2888.43 2350.75 2888.54 2350.75 2893.06 2350.75 2893.06 2357.39 2888.54 2357.39 2888.43 2357.39ZM2926 2340.16 2934.57 2340.16 2934.57 2346.8 2926 2346.8ZM2914.76 2340.16 2922.05 2340.16 2922.05 2346.8 2914.76 2346.8ZM2897 2340.16 2910.82 2340.16 2910.82 2346.8 2897 2346.8ZM2888.43 2340.16 2888.54 2340.16 2893.06 2340.16 2893.06 2346.8 2888.54 2346.8 2888.43 2346.8ZM2884.48 2328.48 2884.48 2328.49 2884.48 2331.3 2884.48 2378.45 2884.48 2382.51 2884.48 2382.52 2888.54 2382.52 2935.7 2382.52 2938.51 2382.52 2938.51 2382.51 2938.52 2382.51 2938.52 2378.45 2938.52 2331.3 2938.52 2328.49 2938.51 2328.49 2938.51 2328.48 2935.7 2328.48 2888.54 2328.48ZM2879 2323 2944 2323 2944 2388 2879 2388Z" fill="#9C5ACE" fill-rule="evenodd"/></g></svg>