<svg width="4146" height="742" xmlns="http://www.w3.org/2000/svg" xmlns:xlink="http://www.w3.org/1999/xlink" xml:space="preserve" overflow="hidden"><defs><clipPath id="clip0"><rect x="309" y="657" width="4146" height="742"/></clipPath></defs><g clip-path="url(#clip0)" transform="translate(-309 -657)"><path d="M2801.18 1229.22 2801.18 1229.22 2801.18 1229.22ZM565.102 1073.9 564.97 1074.04 565.03 1073.96ZM4325.46 1067.1C4283.47 1072.67 4254.44 1081.6 4238.49 1094.14 4223 1106.55 4215.2 1122.57 4215.2 1141.95 4215.2 1158.08 4219.33 1170.61 4227.48 1179.32 4236.2 1187.67 4246.98 1191.85 4259.72 1191.85 4267.98 1191.85 4277.04 1189.99 4287.14 1186.28 4297.58 1182.57 4309.97 1177.46 4324.09 1170.96L4324.09 1170.96ZM3016.88 930.617C2989 930.617 2963.07 944.196 2938.86 971.467L2938.86 1168.29C2958.48 1196.84 2984.41 1211.23 3016.88 1211.23 3039.72 1211.23 3057.73 1204.73 3071.04 1191.85 3084.69 1178.85 3094.56 1162.02 3100.53 1141.25 3106.84 1120.48 3110.05 1098.43 3110.05 1075.45 3110.05 1052.35 3107.07 1029.72 3101.22 1007.44 3095.25 985.277 3085.38 967.057 3071.73 952.783 3058.42 937.929 3040.18 930.617 3016.88 930.617ZM3723.32 915.998C3691.88 915.998 3668.13 927.835 3652.07 951.393 3636.12 974.488 3628.09 1006.63 3628.09 1047.72 3628.09 1071.74 3631.3 1094.83 3637.73 1117 3644.15 1139.16 3654.59 1157.38 3669.28 1171.66 3683.85 1186.05 3703.24 1193.13 3727.45 1193.13 3758.09 1193.13 3782.52 1179.78 3800.77 1152.97L3800.77 956.964C3781.15 929.692 3755.33 915.998 3723.32 915.998ZM3373.83 913.908C3354.21 913.908 3337.12 922.031 3322.43 938.162 3307.86 954.409 3298.68 978.664 3295.01 1010.93L3295.01 1010.93 3436.82 1008.26C3437.28 1007.33 3437.51 1006.17 3437.51 1004.78 3437.51 1002.92 3437.51 1001.76 3437.51 1001.29 3437.51 976.343 3432.12 955.57 3421.1 938.859 3410.55 922.263 3394.83 913.908 3373.83 913.908ZM2057.57 913.902C2028.43 913.902 2005.71 926.668 1989.76 952.083 1974.27 977.498 1966.47 1012.78 1966.47 1058.04 1966.47 1105.15 1974.04 1142.64 1989.07 1170.26 2004.68 1197.65 2027.62 1211.23 2058.26 1211.23 2087.52 1211.23 2109.89 1198.23 2125.38 1172.35 2140.98 1146.12 2148.67 1110.96 2148.67 1067.09 2148.67 1020.44 2140.98 983.185 2125.38 955.564 2109.89 927.828 2087.29 913.902 2057.57 913.902ZM4300.79 887.681C4317.77 887.681 4333.26 890.931 4347.38 897.313 4362.06 903.349 4373.65 912.516 4382.37 925.05 4391.43 937.119 4396.02 952.089 4396.02 970.078 4396.02 981.219 4395.79 995.725 4395.34 1013.71 4394.88 1031.24 4394.42 1050.15 4393.96 1070.58 4393.96 1090.42 4393.72 1109.34 4393.27 1127.33 4392.81 1145.32 4392.7 1159.94 4392.7 1170.96 4392.7 1185.82 4399.01 1193.13 4411.74 1193.13 4420.01 1193.13 4432.63 1190.46 4449.49 1184.89 4451.33 1187.21 4452.48 1189.76 4452.94 1192.43 4453.85 1195.33 4454.54 1197.77 4455 1200.09 4443.53 1212.62 4431.48 1221.56 4418.63 1227.13 4406.35 1232.7 4393.73 1235.49 4381 1235.49L4380.99 1235.49C4350.82 1235.49 4331.89 1220.17 4324.08 1189.76 4291.73 1221.1 4258.57 1236.88 4224.84 1236.88 4201.55 1236.88 4181.58 1229.92 4165.17 1215.99 4149.23 1201.72 4141.19 1182.1 4141.19 1157.15 4141.19 1096.23 4202.69 1057.81 4325.46 1042.15 4325.46 1031 4325.46 1019.75 4325.46 1008.26 4325.92 996.653 4326.15 984.352 4326.15 971.471 4326.15 955.339 4320.3 942.805 4308.36 934.102 4297.01 924.818 4283.01 920.175 4266.6 920.175 4254.67 920.175 4244.69 922.032 4236.42 925.746 4236.42 936.307 4234.13 947.215 4229.54 958.356 4224.95 969.381 4218.64 978.898 4210.38 986.673 4202.69 994.1 4193.05 997.814 4181.58 997.814 4171.6 997.814 4163.57 995.03 4157.6 989.458 4152.21 983.54 4149.45 976.345 4149.45 967.989 4149.45 956.964 4154.5 946.519 4164.48 936.887 4175.04 926.674 4188.23 918.087 4204.18 911.24 4220.25 903.812 4236.88 898.01 4254.21 893.832 4271.65 889.77 4287.14 887.681 4300.79 887.681ZM3382.09 887.678C3422.25 887.678 3453.46 899.864 3475.95 924.351 3498.78 948.373 3510.14 979.591 3510.14 1017.89 3510.14 1022.53 3509.9 1026.71 3509.45 1030.31 3509.45 1033.55 3509.22 1036.34 3508.76 1038.66L3292.94 1036.57C3292.94 1038.43 3292.94 1040.05 3292.94 1041.45 3292.94 1086.71 3303.27 1122.33 3323.81 1148.21 3344.34 1173.98 3373.14 1186.97 3410.09 1186.97 3441.18 1186.97 3471.82 1176.76 3501.99 1156.45 3506.47 1162.02 3509.91 1167.36 3512.21 1172.35 3473.42 1215.41 3428.22 1236.88 3376.59 1236.88L3376.58 1236.88C3344.11 1236.88 3316.69 1229.22 3294.32 1214.01 3271.94 1198.7 3254.85 1178.39 3242.92 1152.97 3231.56 1127.09 3225.82 1098.78 3225.82 1067.79 3225.82 1035.88 3231.79 1006.4 3243.72 979.127 3256 951.855 3273.78 929.921 3297.07 913.326 3320.36 896.15 3348.7 887.678 3382.09 887.678ZM2061.01 887.674C2094.4 887.674 2123.43 894.986 2148.1 909.841 2172.65 924.579 2191.93 944.887 2205.58 970.767 2219.23 996.647 2226.12 1026.01 2226.12 1058.73 2226.12 1092.5 2218.89 1123.03 2204.2 1150.18 2190.09 1176.99 2170.13 1198.23 2144.65 1214.01 2119.07 1229.21 2089.12 1236.87 2054.93 1236.87 2021.54 1236.87 1992.28 1229.68 1967.16 1215.4 1942.49 1200.55 1923.33 1180.47 1909.67 1155.06 1895.91 1129.18 1889.02 1099.58 1889.02 1066.39 1889.02 1030.3 1896.13 998.968 1910.25 972.16 1924.93 945.352 1945.24 924.579 1971.29 909.841 1997.33 894.986 2027.28 887.674 2061.01 887.674ZM4053.53 884.2 4065.24 888.378C4064.78 902.652 4064.2 915.998 4063.86 928.531 4063.86 940.949 4063.86 952.786 4063.86 963.811L4063.86 1149.61C4063.86 1167.6 4064.78 1180.48 4066.5 1188.37 4068.79 1196.15 4073.38 1201.25 4080.27 1203.57 4087.5 1205.43 4098.74 1206.82 4113.89 1207.75 4115.15 1214.6 4115.15 1221.79 4113.89 1229.22L4113.88 1229.22C4101.03 1229.22 4087.84 1228.98 4074.07 1228.53 4060.42 1228.06 4045.5 1227.83 4029.55 1227.83 4014.98 1227.83 4000.07 1228.07 3985.04 1228.53 3970.46 1228.99 3956.24 1229.22 3942.58 1229.22 3941.21 1221.79 3941.21 1214.6 3942.58 1207.75 3958.07 1206.82 3969.55 1205.43 3976.77 1203.57 3984.12 1201.25 3988.94 1196.61 3991.23 1189.76 3993.53 1182.8 3994.67 1171.66 3994.67 1156.46L3994.67 1001.3C3994.67 983.192 3993.99 969.846 3992.61 961.026 3991.23 952.322 3986.87 946.287 3979.53 943.038 3972.76 939.324 3960.6 936.307 3943.27 934.102 3941.89 927.603 3941.89 921.568 3943.27 915.998 3963.35 912.284 3982.51 907.758 4000.75 902.187 4019.11 896.617 4036.67 890.699 4053.53 884.2ZM2929.91 884.197 2939.43 889.071C2939.09 900.56 2938.86 910.54 2938.86 918.78 2938.86 926.671 2938.86 934.331 2938.86 941.642 2956.65 922.726 2974.2 909.148 2991.53 900.792 3008.85 891.972 3027.44 887.678 3047.06 887.678 3075.86 887.678 3100.07 895.222 3119.69 910.54 3139.77 925.743 3155.03 945.588 3165.58 970.075 3176.14 994.562 3181.3 1021.14 3181.3 1049.8 3181.3 1083.46 3173.96 1114.67 3159.39 1143.34 3145.27 1171.42 3125.31 1194.17 3099.84 1211.23 3074.25 1228.29 3044.53 1236.88 3010.69 1236.88 2997.49 1236.88 2984.99 1235.71 2973.05 1233.39 2961.12 1231.54 2949.99 1228.75 2939.44 1225.04L2939.44 1318.58C2939.44 1336.56 2940.81 1349.56 2943.57 1357.45 2946.32 1365.23 2952.29 1370.1 2961.35 1371.96 2970.53 1374.28 2984.99 1375.91 3004.61 1376.83 3005.06 1384.15 3005.06 1391.57 3004.61 1399 2989 1399 2973.28 1398.76 2957.34 1398.3 2941.73 1397.84 2924.63 1397.61 2905.93 1397.61 2888.15 1397.61 2872.77 1397.85 2860.04 1398.3 2847.19 1398.77 2833.53 1399 2818.96 1399L2818.96 1399C2818.5 1391.57 2818.5 1384.38 2818.96 1377.53 2834.91 1376.6 2846.5 1374.98 2853.84 1372.66 2861.18 1370.34 2865.77 1365.69 2867.61 1358.73 2869.79 1352.35 2870.94 1341.67 2870.94 1326.93L2870.94 1001.29C2870.94 983.188 2870.02 969.843 2868.18 961.023 2866.92 952.319 2862.56 946.284 2855.22 943.035 2848.33 939.321 2836.52 936.304 2819.53 934.099 2818.73 927.6 2818.73 921.565 2819.53 915.995 2838.35 912.281 2856.59 907.987 2874.38 902.881 2892.16 897.775 2910.75 891.508 2929.91 884.197ZM2740.83 884.197 2752.53 888.375C2752.07 902.649 2751.61 915.995 2751.15 928.528 2751.15 940.946 2751.15 952.783 2751.15 963.808L2751.15 1149.61C2751.15 1167.59 2752.07 1180.48 2753.9 1188.37 2756.2 1196.14 2760.67 1201.25 2767.56 1203.57 2774.9 1205.43 2786.03 1206.82 2801.18 1207.75L2801.18 1229.22 2761.36 1228.52C2747.71 1228.06 2732.91 1227.83 2716.85 1227.83 2702.27 1227.83 2687.36 1228.06 2672.33 1228.52 2657.76 1228.99 2643.53 1229.22 2629.88 1229.22 2628.5 1221.79 2628.5 1214.59 2629.88 1207.75 2645.36 1206.82 2656.84 1205.43 2664.07 1203.57 2671.41 1201.25 2676.23 1196.61 2678.52 1189.76 2680.82 1182.8 2681.97 1171.66 2681.97 1156.45L2681.97 1001.29C2681.97 983.188 2681.28 969.843 2679.9 961.023 2678.52 952.319 2674.16 946.284 2666.82 943.035 2660.05 939.321 2647.89 936.304 2630.56 934.099 2629.19 927.6 2629.19 921.565 2630.56 915.995 2650.64 912.281 2669.8 907.755 2688.05 902.185 2706.4 896.614 2723.96 890.696 2740.83 884.197ZM1731.72 884.193 1743.31 888.371 1743.31 949.297C1775.32 908.216 1808.02 887.674 1841.29 887.674 1857.24 887.674 1869.17 891.968 1876.86 900.788 1884.66 909.144 1888.56 918.544 1888.56 929.221 1888.56 941.638 1884.43 951.386 1876.29 958.349 1868.03 964.732 1858.62 967.982 1848.18 967.982 1839.46 967.982 1830.85 965.662 1822.13 961.019 1813.87 956.493 1807.79 949.297 1803.66 939.549 1788.05 939.549 1774.17 945.816 1761.78 958.349 1749.96 970.303 1744 984.345 1744 1000.59L1744 1149.6C1744 1167.59 1744.91 1180.47 1746.75 1188.36 1749.04 1196.14 1754.55 1201.24 1763.15 1203.57 1772.33 1205.42 1786.91 1206.82 1806.98 1207.74 1808.02 1214.24 1808.02 1221.32 1806.98 1229.21 1791.49 1229.21 1775.55 1228.98 1759.14 1228.52 1742.62 1228.05 1725.75 1227.82 1708.43 1227.82 1691.44 1227.82 1676.41 1228.06 1663.22 1228.52 1650.37 1228.98 1636.94 1229.21 1622.72 1229.21 1621.34 1221.79 1621.34 1214.59 1622.72 1207.74 1638.32 1206.82 1649.68 1205.42 1657.02 1203.57 1664.37 1201.25 1669.07 1196.6 1671.36 1189.76 1673.66 1182.79 1674.81 1171.65 1674.81 1156.45L1674.81 1001.29C1674.81 983.185 1673.89 969.839 1672.06 961.019 1670.68 952.315 1666.32 946.28 1659.09 943.031 1652.21 939.317 1640.39 936.3 1623.41 934.095 1622.03 927.596 1622.03 921.561 1623.41 915.991 1641.76 912.277 1659.55 908.216 1676.87 903.574 1694.2 898.467 1712.56 891.968 1731.72 884.193ZM1365.7 735.88C1383.03 735.88 1401.62 737.273 1421.24 740.058 1440.86 742.378 1457.72 745.629 1471.95 749.806 1480.56 752.127 1488.59 754.1 1495.93 755.957 1503.16 757.814 1510.5 758.741 1517.85 758.741 1523.24 758.741 1528.75 758.045 1534.25 756.652 1535.17 776.961 1536.09 798.083 1537 819.668 1537.92 841.485 1539.3 864.115 1541.14 887.674 1531.5 889.067 1523.47 889.531 1517.16 889.067 1507.98 846.476 1491.34 815.143 1467.13 794.833 1442.92 773.944 1410.68 763.616 1370.52 763.616 1338.51 763.616 1311.2 769.65 1288.26 781.604 1265.88 793.209 1247.64 809.108 1233.53 829.417 1219.76 849.726 1209.78 873.284 1203.35 900.092 1196.92 926.435 1193.71 954.636 1193.71 984.577 1193.71 1028.56 1200.37 1067.32 1213.68 1101.09 1226.87 1134.75 1246.95 1161.32 1273.91 1180.7 1301.34 1199.62 1335.53 1209.14 1376.6 1209.14 1389.45 1209.14 1403.57 1207.97 1419.17 1205.65 1434.66 1202.87 1449.58 1198.69 1463.69 1193.12L1463.69 1105.85C1463.69 1091.58 1463 1080.44 1461.62 1072.66 1460.71 1064.3 1457.72 1058.27 1452.67 1054.56 1448.2 1050.96 1440.63 1048.41 1430.07 1047.01 1420.09 1045.16 1406.21 1043.53 1388.31 1042.14 1386.93 1034.71 1386.93 1027.4 1388.31 1019.97 1397.94 1019.97 1409.53 1020.21 1423.3 1020.67 1436.96 1020.67 1450.72 1020.91 1464.38 1021.36 1478.49 1021.36 1490.19 1021.36 1499.37 1021.36 1513.48 1021.36 1529.66 1021.13 1547.91 1020.67 1566.72 1020.2 1582.67 1019.97 1595.87 1019.97 1596.78 1026.94 1596.78 1034.01 1595.87 1041.44 1577.16 1043.76 1563.74 1046.08 1555.48 1048.41 1547.22 1050.73 1542.28 1055.25 1540.45 1062.22 1538.61 1069.18 1537.7 1080.9 1537.7 1097.61L1537.7 1119.78C1537.7 1141.48 1538.15 1159.7 1539.07 1174.44 1540.45 1189.29 1541.6 1199.85 1542.52 1206.35 1478.95 1228.05 1419.63 1238.96 1364.33 1238.96L1364.33 1238.96C1312.7 1238.96 1267.72 1229.21 1229.4 1209.83 1191.07 1190.45 1161.13 1162.25 1139.67 1125.23 1118.68 1088.33 1108.12 1044 1108.12 992.237 1108.12 940.479 1118.68 895.451 1139.67 857.154 1161.13 818.857 1191.07 789.031 1229.4 767.794 1268.18 746.557 1313.61 735.88 1365.7 735.88ZM654.439 733.023C684.526 733.599 714.778 739.775 743.691 751.861 763.48 759.372 780.744 770.07 794.209 780.017L719.466 815.278C649.895 785.457 570.181 805.737 521.532 855.451 455.74 922.624 442.434 1039.12 519.544 1114.38L519.484 1114.44 309 1306.6C322.346 1287.8 338.933 1270.06 355.441 1252.31 402.06 1202.25 448.341 1152.64 420.099 1082.53 382.311 988.72 404.307 878.756 474.296 807.239 522.862 757.591 588.25 731.755 654.439 733.023ZM4024.74 718.595C4037.59 718.595 4048.49 723.237 4057.67 732.405 4067.19 741.689 4072.01 752.714 4072.01 765.711 4072.01 777.665 4067.42 788.806 4058.35 798.902 4049.17 808.651 4037.59 813.525 4023.36 813.525 4010.62 813.525 3999.61 808.883 3990.54 799.598 3981.37 790.431 3976.78 779.29 3976.78 766.408 3976.78 752.946 3981.37 741.689 3990.54 732.405 4000.07 723.237 4011.54 718.595 4024.74 718.595ZM2712.03 718.592C2724.88 718.592 2735.78 723.234 2744.95 732.402 2754.48 741.686 2759.3 752.711 2759.3 765.709 2759.3 777.662 2754.71 788.803 2745.64 798.899 2736.46 808.648 2724.88 813.522 2710.65 813.522 2697.91 813.522 2686.9 808.879 2677.83 799.596 2668.65 790.427 2664.06 779.286 2664.06 766.405 2664.06 752.943 2668.65 741.686 2677.83 732.402 2687.36 723.234 2698.83 718.592 2712.03 718.592ZM3859.06 705.481 3870.64 709.543C3870.19 719.755 3869.73 731.244 3869.27 744.242 3869.27 757.124 3869.27 771.282 3869.27 786.484L3869.27 1130.11C3869.27 1147.64 3869.95 1160.87 3871.33 1169.69 3872.71 1178.39 3876.84 1184.66 3883.61 1188.37 3890.49 1191.62 3902.19 1194.52 3918.6 1197.31 3919.98 1203.34 3919.98 1209.61 3918.6 1215.99 3900.36 1218.89 3882.46 1221.79 3865.14 1225.04 3847.81 1228.29 3831.17 1232.47 3815.11 1237.58L3815.11 1237.57 3804.21 1232.7 3801.46 1184.89C3785.51 1202.41 3768.99 1215.64 3752.12 1224.34 3735.71 1232.7 3717.35 1236.88 3697.28 1236.88 3668.94 1236.88 3644.15 1229.22 3622.7 1214.02 3601.59 1198.23 3585.41 1177.92 3574.05 1152.97 3562.58 1128.02 3556.84 1101.1 3556.84 1071.97 3556.84 1038.2 3563.95 1007.44 3578.06 979.825 3592.75 952.088 3613.06 929.923 3639.1 913.327 3665.61 896.152 3696.36 887.68 3731.58 887.68 3742.02 887.68 3753.04 888.607 3764.4 890.351 3775.87 891.744 3787.8 894.296 3800.08 898.01L3800.08 809.346C3800.08 795.073 3798.7 784.396 3795.95 777.433 3793.2 770.121 3787.8 765.015 3779.54 762.23 3771.74 758.98 3759.92 756.659 3743.86 755.267 3742.48 749.232 3742.48 743.082 3743.86 736.583 3762.22 734.263 3780.92 730.78 3800.08 726.254 3819.24 721.148 3838.86 714.185 3859.06 705.481ZM2369.54 705.475 2381.24 709.536C2380.78 719.749 2380.33 731.238 2379.86 744.236 2379.86 757.117 2379.86 771.276 2379.86 786.478L2379.86 1043.53C2385.37 1043.53 2389.85 1042.6 2393.52 1040.75 2397.19 1038.89 2400.17 1037.03 2402.47 1035.18 2403.38 1034.25 2405.22 1032.63 2407.97 1030.3 2410.73 1027.64 2415.43 1022.76 2422.32 1015.8 2429.2 1008.83 2438.95 998.506 2451.8 984.579 2463.74 971.233 2473.03 960.789 2479.91 953.478 2487.14 945.586 2490.81 939.087 2490.81 934.097 2490.81 930.383 2487.6 927.366 2481.29 925.045 2475.32 922.261 2467.06 920.635 2456.62 920.171 2456.16 918.314 2455.94 916.457 2455.94 914.6 2455.94 912.743 2455.94 911.003 2455.94 909.146 2455.94 907.289 2455.94 905.432 2455.94 903.576 2455.94 901.719 2456.17 899.862 2456.62 898.005 2465.69 898.005 2477.16 898.243 2490.81 898.7 2505.04 899.164 2517.55 899.395 2528.56 899.395 2533.96 899.395 2541.76 899.395 2551.85 899.395 2562.3 898.932 2572.85 898.7 2583.29 898.7 2593.85 898.7 2601.54 898.7 2606.58 898.7 2607.04 900.557 2607.27 902.414 2607.27 904.271 2607.73 906.128 2607.96 907.984 2607.96 909.841 2607.96 911.698 2607.72 913.439 2607.27 915.411 2607.27 916.805 2607.04 918.311 2606.58 920.17 2582.83 920.633 2562.75 926.669 2546.35 938.157 2529.94 949.298 2514.11 962.528 2499.08 977.731L2449.74 1027.63 2544.28 1153.66C2554.38 1167.13 2562.52 1177.69 2568.95 1185.58 2575.83 1193.01 2583.06 1198.23 2590.87 1201.48 2598.67 1204.73 2609.34 1206.82 2623.11 1207.74 2624.02 1214.24 2624.02 1221.32 2623.11 1229.21 2617.14 1229.21 2608.19 1228.98 2596.37 1228.52 2584.9 1228.06 2566.89 1227.82 2542.22 1227.82 2538.55 1227.82 2533.04 1227.82 2525.81 1227.82 2518.47 1227.82 2511.58 1228.29 2505.27 1229.22 2505.27 1224.11 2502.52 1217.15 2497.01 1208.44 2491.5 1199.16 2487.14 1192.43 2484.05 1188.37 2482.67 1186.05 2479.23 1181.17 2473.72 1173.74 2468.21 1165.97 2461.67 1156.92 2453.87 1146.7 2446.53 1136.14 2438.95 1125.47 2431.27 1114.91 2423.46 1103.77 2416.35 1094.13 2410.04 1085.78 2404.99 1078.93 2400.17 1073.59 2395.58 1069.88 2391.57 1065.7 2386.29 1063.61 2379.86 1063.61L2379.86 1149.61C2379.86 1167.59 2380.55 1180.48 2381.93 1188.37 2383.76 1196.14 2387.67 1201.25 2393.52 1203.57 2399.94 1205.43 2409.58 1206.82 2422.32 1207.75 2423.23 1214.59 2423.23 1221.79 2422.32 1229.22 2410.5 1229.22 2397.88 1228.98 2384.68 1228.52 2371.83 1228.06 2357.95 1227.83 2342.92 1227.83 2328.23 1227.83 2313.89 1228.06 2299.66 1228.52 2285.55 1228.99 2271.67 1229.22 2257.9 1229.22L2257.9 1229.21C2257.44 1227.36 2257.21 1225.5 2257.21 1223.64 2257.21 1221.79 2257.21 1219.93 2257.21 1218.07 2257.21 1216.33 2257.21 1214.59 2257.21 1213.31 2257.21 1211.46 2257.45 1209.6 2257.9 1207.74 2273.39 1206.82 2284.86 1205.42 2292.21 1203.57 2299.43 1201.25 2304.25 1196.6 2306.55 1189.76 2308.84 1182.79 2309.99 1171.65 2309.99 1156.45L2309.99 809.34C2309.99 795.066 2308.61 784.39 2305.86 777.427 2303.57 770.115 2298.4 765.009 2290.14 762.224 2282.34 758.974 2270.52 756.653 2254.46 755.261 2254 753.52 2253.77 751.779 2253.77 750.387 2253.77 748.993 2253.77 747.718 2253.77 746.325 2253.77 744.468 2253.77 742.843 2253.77 741.451 2253.77 740.057 2254 738.433 2254.46 736.577 2272.81 734.256 2291.52 730.774 2310.68 726.248 2329.84 721.141 2349.46 714.179 2369.54 705.475ZM971.936 657C970.305 659.375 968.654 661.689 967.023 664.003 897.73 761.524 863.899 809.208 891.048 928.531L890.888 928.348C909.604 1009.57 889.576 1099.64 824.917 1165.71 743.393 1249.07 612.942 1267.64 505.522 1192.59L580.403 1157.17C648.98 1184.69 724.001 1172.6 777.9 1117.5 831.819 1062.41 843.931 982.163 816.823 915.417 811.691 902.75 796.238 899.583 785.438 907.703L565.102 1073.9 880.745 749.892 880.745 750.176Z" fill="#141414" fill-rule="evenodd"/></g></svg>