<svg width="6403" height="969" xmlns="http://www.w3.org/2000/svg" xmlns:xlink="http://www.w3.org/1999/xlink" xml:space="preserve" overflow="hidden"><defs><clipPath id="clip0"><rect x="498" y="263" width="6403" height="969"/></clipPath></defs><g clip-path="url(#clip0)" transform="translate(-498 -263)"><path d="M4979.29 389.831C4914.94 389.831 4880.69 367.6 4876.54 323.139L4876.09 315.58C4876.09 299.574 4881.73 286.384 4893 276.009 4904.26 265.635 4919.68 260.447 4939.25 260.447 4958.23 260.447 4975.73 264.671 4991.74 273.119 5007.75 281.567 5019.61 292.904 5027.32 307.133L5027.32 389.831ZM4327.62 452.967 4327.62 278.232 4441.94 278.232C4473.37 278.232 4497.91 285.717 4515.55 300.686 4533.19 315.654 4542.01 336.329 4542.01 362.71 4542.01 421.992 4511.32 452.078 4449.94 452.967ZM6190.39 557.453C6164.88 557.453 6144.2 548.819 6128.34 531.551 6112.47 514.282 6102.32 489.57 6097.87 457.414L6276.68 457.414 6276.68 467.689C6276.08 496.269 6268.37 518.375 6253.55 534.006 6238.72 549.638 6217.67 557.453 6190.39 557.453ZM3158.49 557.453C3132.99 557.453 3112.31 548.819 3096.44 531.551 3080.58 514.282 3070.42 489.57 3065.98 457.414L3244.78 457.414 3244.78 467.689C3244.19 496.269 3236.48 518.375 3221.65 534.006 3206.83 549.638 3185.77 557.453 3158.49 557.453ZM5261.47 652.157 5390.46 652.157 5390.46 171.079 5261.47 171.079ZM2244.43 652.157 2368.53 652.157 2431.24 346.259 2519.31 652.157 2612.27 652.157 2699.9 345.814 2763.06 652.157 2887.16 652.157 2764.4 171.079 2656.75 171.079 2565.57 473.865 2474.39 171.079 2367.19 171.079ZM1769.48 652.157 1898.03 652.157 1898.03 341.007C1898.03 290.858 1920.86 265.783 1966.52 265.783 2010.11 265.783 2040.06 280.919 2056.37 311.189L2056.37 652.157 2185.36 652.157 2185.36 171.079 2064.38 171.079 2060.82 219.987C2029.09 181.453 1985.21 162.186 1929.16 162.186 1877.57 162.186 1838.2 177.007 1811.07 206.648 1783.94 236.29 1770.07 279.714 1769.48 336.922ZM1538.64 652.157 1667.63 652.157 1667.63 171.079 1538.64 171.079ZM6190.83 661.049C6256.66 661.049 6308.48 640.3 6346.29 598.802 6384.1 557.305 6403 498.467 6403 422.289L6403 369.824 6096.53 369.824C6100.69 338.404 6113.21 313.209 6134.12 294.239 6155.03 275.268 6181.49 265.783 6213.52 265.783 6263.04 265.783 6301.73 283.716 6329.61 319.582L6392.77 248.887C6373.49 221.617 6347.4 200.35 6314.49 185.084 6281.57 169.819 6245.1 162.186 6205.07 162.186 6134.49 162.186 6077.04 183.825 6032.71 227.101 5988.37 270.377 5966.21 328.029 5966.21 400.058L5966.21 412.507C5966.21 460.823 5975.55 504.025 5994.23 542.114 6012.91 580.203 6039.38 609.547 6073.63 630.148 6107.88 650.749 6146.94 661.049 6190.83 661.049ZM4962.83 661.049C5022.13 661.049 5069.21 646.155 5104.05 616.365 5138.89 586.576 5156.32 544.707 5156.32 490.76L5156.32 282.234C5156.61 236.586 5162.99 202.054 5175.44 178.637L5175.44 171.079 5045.56 171.079C5039.63 182.639 5035.33 197.015 5032.66 214.207 5001.53 179.527 4961.05 162.186 4911.23 162.186 4864.08 162.186 4825.02 175.821 4794.03 203.092 4763.04 230.361 4747.55 264.745 4747.55 306.243 4747.55 357.226 4766.45 396.353 4804.26 423.623 4842.07 450.892 4896.7 464.676 4968.17 464.972L5027.32 464.972 5027.32 492.539C5027.32 514.77 5021.62 532.555 5010.2 545.893 4998.78 559.231 4980.77 565.901 4956.16 565.901 4934.51 565.901 4917.53 560.714 4905.23 550.339 4892.92 539.965 4886.77 525.737 4886.77 507.656L4758.22 507.656C4758.22 535.518 4766.82 561.306 4784.02 585.019 4801.22 608.733 4825.54 627.332 4856.97 640.819 4888.4 654.306 4923.69 661.049 4962.83 661.049ZM3703.88 661.049C3754.88 661.049 3792.84 646.081 3817.75 616.143 3842.66 586.205 3855.41 541.447 3856 481.868L3856 171.079 3727.45 171.079 3727.45 478.755C3727.45 506.025 3721.52 525.811 3709.66 538.112 3697.8 550.413 3678.08 556.564 3650.5 556.564 3614.33 556.564 3587.19 541.151 3569.11 510.323L3569.11 171.079 3440.56 171.079 3440.56 652.157 3561.54 652.157 3565.55 596.58C3599.94 639.559 3646.06 661.049 3703.88 661.049ZM3158.94 661.049C3224.77 661.049 3276.59 640.3 3314.39 598.802 3352.2 557.305 3371.11 498.467 3371.11 422.289L3371.11 369.824 3064.64 369.824C3068.79 338.404 3081.32 313.209 3102.23 294.239 3123.13 275.268 3149.6 265.783 3181.62 265.783 3231.14 265.783 3269.84 283.716 3297.71 319.582L3360.88 248.887C3341.6 221.617 3315.51 200.35 3282.59 185.084 3249.68 169.819 3213.2 162.186 3173.17 162.186 3102.6 162.186 3045.14 183.825 3000.81 227.101 2956.48 270.377 2934.32 328.029 2934.32 400.058L2934.32 412.507C2934.32 460.823 2943.66 504.025 2962.34 542.114 2981.02 580.203 3007.48 609.547 3041.73 630.148 3075.98 650.749 3115.05 661.049 3158.94 661.049ZM4327.62 710.402 4327.62 547.227 4426.37 547.227C4493.68 548.412 4527.34 575.238 4527.34 627.703 4527.34 657.048 4518.81 678.167 4501.76 691.061 4484.71 703.955 4457.8 710.402 4421.03 710.402ZM1166.66 717.071C1121.89 717.071 1087.34 699.657 1063.03 664.829 1038.71 630 1026.41 578.943 1026.11 511.657L1026.11 480.089C1026.11 413.989 1038.27 362.71 1062.58 326.251 1086.9 289.792 1121.89 271.563 1167.55 271.563 1212.33 271.563 1246.73 289.125 1270.75 324.25 1294.77 359.375 1306.92 410.58 1307.22 477.866L1307.22 509.434C1307.22 577.313 1295.06 628.888 1270.75 664.162 1246.43 699.435 1211.74 717.071 1166.66 717.071ZM4194.18 818.445 4421.03 818.445C4499.61 818.445 4559.21 803.402 4599.84 773.316 4640.46 743.23 4660.77 699.138 4660.77 641.041 4660.77 609.325 4652.62 581.388 4636.31 557.231 4620 533.073 4597.32 515.363 4568.26 504.099 4601.47 495.799 4627.64 479.052 4646.76 453.857 4665.89 428.662 4675.45 397.835 4675.45 361.376 4675.45 299.129 4655.59 252 4615.85 219.987 4576.12 187.974 4519.48 171.672 4445.94 171.079L4194.18 171.079ZM1166.66 827.337C1220.63 827.337 1268.6 814.369 1310.56 788.433 1352.52 762.497 1384.99 725.297 1407.97 676.833 1430.95 628.37 1442.44 572.422 1442.44 508.99L1442.44 480.089C1442.44 419.621 1432.65 367.082 1413.08 322.472 1393.51 277.862 1366.38 242.07 1331.68 215.096L1439.33 130.619 1354.37 55.4777 1216.48 166.188C1200.77 163.52 1184.46 162.186 1167.55 162.186 1113.88 162.186 1065.99 175.08 1023.89 200.868 981.777 226.656 949.159 263.486 926.03 311.356 902.9 359.227 891.187 414.286 890.891 476.532L890.891 508.545C890.891 572.274 902.381 628.37 925.362 676.833 948.344 725.297 980.814 762.497 1022.77 788.433 1064.73 814.369 1112.7 827.337 1166.66 827.337ZM5325.97 842.899C5347.91 842.899 5365.41 836.674 5378.46 824.225 5391.5 811.775 5398.03 795.917 5398.03 776.651 5398.03 757.087 5391.43 741.081 5378.23 728.631 5365.04 716.182 5347.62 709.957 5325.97 709.957 5304.32 709.957 5286.9 716.182 5273.71 728.631 5260.51 741.081 5253.91 757.087 5253.91 776.651 5253.91 795.917 5260.36 811.775 5273.26 824.225 5286.16 836.674 5303.73 842.899 5325.97 842.899ZM1603.13 842.899C1625.08 842.899 1642.57 836.674 1655.62 824.225 1668.67 811.775 1675.19 795.917 1675.19 776.651 1675.19 757.087 1668.59 741.081 1655.4 728.631 1642.2 716.182 1624.78 709.957 1603.13 709.957 1581.49 709.957 1564.07 716.182 1550.87 728.631 1537.68 741.081 1531.08 757.087 1531.08 776.651 1531.08 795.917 1537.53 811.775 1550.43 824.225 1563.33 836.674 1580.9 842.899 1603.13 842.899ZM5495.43 854.014 5623.97 854.014 5623.97 475.643 5648.88 507.656 5772.09 652.157 5926.44 652.157 5752.52 451.633 5941.56 171.079 5793.89 171.079 5670.23 364.043 5623.97 317.803 5623.97 171.079 5495.43 171.079ZM362.987 968.946C379.266 969.965 396.46 956.594 425.631 925.705 434.782 915.637 450.34 894.587 459.492 879.028 470.931 858.893 479.168 850.198 485.116 850.198 494.725 850.198 538.653 828.232 556.956 814.046L568.395 805.351 528.128 760.962C482.828 711.082 464.525 684.54 454.916 653.879 448.967 636.032 438.443 572.881 427.004 488.222 424.258 465.798 430.207 442.917 439.358 442.917 447.594 442.917 525.383 524.373 549.634 558.237 573.428 591.186 575.716 604.914 561.989 622.761 556.956 629.168 552.837 636.49 552.837 638.778 552.837 647.931 577.089 662.574 592.647 662.574 607.289 662.574 609.119 660.744 620.102 636.49 634.286 604.457 635.659 571.051 623.762 548.17 610.95 523.458 568.853 484.561 512.571 445.663 461.779 410.427 429.291 382.97 429.291 374.275 429.291 366.038 446.68 360.546 458.119 364.665 472.304 370.156 548.719 378.851 582.122 378.851 595.85 378.851 612.78 376.563 620.102 373.817 649.844 362.834 680.959 318.445 680.959 287.785 680.959 271.768 679.129 267.65 666.774 260.328 634.286 240.65 600.425 243.854 555.125 271.768 513.028 297.395 470.931 317.53 442.104 325.767 427.919 329.886 415.564 333.089 414.191 333.089 411.903 333.089 407.785 286.869 399.549 161.482 393.143 60.3486 386.737 14.1288 379.416 6.80701 377.128 4.51913 366.146 1.31566 354.706 0.400434 326.336-2.80303 292.476 13.2136 254.955 48.4503 222.924 78.1956 206.451 103.365 211.027 114.805 213.315 121.212 217.433 120.754 245.803 110.229 263.649 103.822 281.037 99.7036 284.697 101.077 298.424 106.568 302.543 139.516 299.34 223.26 296.136 307.463 292.933 337.665 287.442 337.665 285.612 337.665 262.733 306.547 236.652 268.107 136.442 121.212 101.666 81.3988 67.348 72.2465 42.6386 65.3821 18.3872 74.5347 7.4052 95.1275-10.4403 127.619 5.11749 193.973 41.7234 242.938 63.2295 271.768 118.139 373.359 118.139 383.885 117.681 387.546 103.039 397.613 85.1935 406.308 67.348 415.003 46.7568 427.816 39.4357 434.68 27.996 445.206 26.6236 448.409 31.1993 456.646 34.4023 462.137 50.4173 473.12 66.8904 480.9 102.581 497.832 149.712 502.865 174.421 492.798 191.351 485.934 232.533 456.646 232.533 451.155 232.533 449.324 213.773 423.698 190.894 393.952 89.7693 263.531 44.4691 186.651 69.1781 186.651 84.7359 186.651 154.287 249.345 219.721 322.106 282.867 392.58 298.424 413.63 316.27 451.155 329.082 478.154 330.912 486.391 330.912 520.713 330.455 567.39 323.133 595.762 307.118 610.406 300.712 616.355 275.546 628.711 251.294 637.863 184.03 663.489 163.897 672.642 163.897 676.76 163.897 678.591 175.794 684.54 190.436 690.031 234.821 706.963 291.561 735.793 308.491 750.437 345.097 782.928 345.555 809.012 309.864 848.367 296.594 863.011 287.442 877.655 287.442 883.604 287.442 897.79 309.406 931.196 332.285 952.247 343.782 962.543 353.219 968.335 362.987 968.946Z" fill-rule="evenodd" transform="matrix(1 0 0 -1 498 1232)"/></g></svg>