<?xml version="1.0" standalone="no"?>
<!DOCTYPE svg PUBLIC "-//W3C//DTD SVG 20010904//EN"
 "http://www.w3.org/TR/2001/REC-SVG-20010904/DTD/svg10.dtd">
<svg version="1.0" xmlns="http://www.w3.org/2000/svg"
 width="2500.000000pt" height="243.000000pt" viewBox="0 0 2500.000000 243.000000"
 preserveAspectRatio="xMidYMid meet">

<g transform="translate(0.000000,243.000000) scale(0.100000,-0.100000)"
fill="#000000" stroke="none">
<path d="M11951 2409 c-73 -44 -115 -100 -143 -189 -86 -281 -118 -368 -204
-562 -19 -43 -34 -80 -34 -83 0 -3 -16 -40 -35 -81 -19 -41 -35 -78 -35 -83 0
-11 -64 -156 -157 -356 -36 -77 -74 -162 -85 -190 -10 -27 -36 -86 -58 -130
-21 -44 -66 -137 -99 -206 -68 -145 -138 -258 -184 -301 -18 -16 -60 -45 -94
-64 -65 -36 -83 -57 -83 -95 l0 -22 152 6 c83 4 256 7 385 7 204 0 234 2 240
16 9 23 -40 66 -132 117 -90 49 -125 90 -125 146 0 46 27 160 44 186 7 11 23
49 35 85 27 74 61 154 94 220 l22 45 143 0 c618 -1 742 -5 749 -22 3 -10 23
-55 44 -100 22 -45 39 -86 39 -90 0 -5 9 -26 21 -47 11 -21 32 -70 46 -110 14
-39 29 -76 34 -82 12 -15 39 -104 39 -128 0 -25 -67 -88 -125 -117 -56 -28
-110 -82 -102 -103 6 -14 44 -16 309 -17 167 0 355 -4 418 -8 107 -7 180 1
180 19 0 12 -34 36 -114 81 -157 87 -199 145 -356 494 -40 88 -93 203 -117
255 -25 52 -58 127 -74 167 -15 39 -37 89 -49 110 -11 21 -20 41 -20 45 0 4
-15 40 -34 80 -18 40 -62 141 -96 223 -34 83 -74 175 -90 205 -15 30 -33 73
-40 95 -7 22 -23 63 -36 90 -39 85 -144 325 -144 330 0 9 -82 175 -89 179 -4
3 -22 -4 -40 -15z m12 -691 c41 -84 86 -184 101 -223 25 -66 70 -168 121 -280
35 -76 75 -177 75 -191 0 -6 -15 -14 -32 -17 -39 -5 -691 3 -698 10 -2 2 4 25
14 51 10 26 31 82 47 124 15 42 33 85 38 95 6 10 43 97 81 193 39 96 79 193
90 215 11 22 33 70 49 108 16 37 32 67 35 67 2 0 38 -69 79 -152z"/>
<path d="M23690 2384 c-38 -33 -81 -115 -110 -214 -12 -41 -28 -88 -35 -105
-8 -16 -27 -69 -44 -118 -17 -48 -42 -112 -56 -142 -14 -31 -25 -60 -25 -65 0
-6 -27 -76 -61 -157 -63 -153 -81 -194 -143 -325 -20 -42 -36 -79 -36 -82 0
-3 -18 -42 -39 -88 -46 -98 -152 -328 -189 -413 -53 -119 -140 -291 -174 -345
-43 -66 -69 -91 -169 -159 -80 -54 -111 -93 -91 -113 8 -8 110 -8 388 1 208 6
380 13 382 16 11 11 -65 87 -115 116 -105 60 -144 119 -127 191 10 43 9 39 21
68 6 14 20 52 32 85 13 33 28 74 35 90 7 17 25 64 40 105 15 41 35 91 44 110
l17 35 425 3 c420 3 470 1 470 -18 0 -5 20 -52 44 -103 72 -150 165 -390 172
-438 5 -39 3 -47 -20 -70 -14 -14 -52 -40 -83 -57 -68 -36 -151 -107 -141
-118 5 -4 173 -11 375 -16 203 -4 382 -10 398 -12 17 -3 48 -6 70 -8 40 -3 40
-2 40 32 0 32 -4 37 -64 70 -35 19 -99 69 -141 110 -61 60 -81 87 -99 135 -12
33 -33 78 -45 100 -13 22 -27 51 -31 65 -4 14 -41 96 -82 183 -76 162 -183
404 -258 583 -24 55 -47 109 -53 120 -18 33 -149 334 -188 434 -20 52 -40 100
-45 105 -4 6 -24 53 -44 105 -54 139 -119 271 -149 303 -31 34 -56 34 -96 1z
m10 -564 c11 -21 29 -61 40 -89 10 -27 37 -87 58 -133 70 -148 102 -218 102
-223 0 -3 34 -80 75 -171 41 -91 75 -171 75 -179 0 -8 -17 -14 -47 -17 -76 -6
-681 0 -693 7 -8 5 -8 11 0 19 5 7 18 38 29 67 30 88 132 339 150 373 10 17
24 49 31 71 7 22 18 49 24 60 7 11 28 58 46 105 38 95 68 150 81 150 5 0 18
-18 29 -40z"/>
<path d="M615 2385 c-132 -13 -189 -32 -295 -94 -105 -63 -225 -206 -255 -304
-20 -66 -28 -193 -17 -267 15 -97 47 -173 99 -231 91 -101 337 -270 638 -439
240 -134 408 -258 439 -324 33 -71 46 -220 25 -307 -19 -85 -128 -191 -231
-225 -122 -40 -366 -36 -477 9 -130 53 -162 77 -346 266 -118 122 -136 135
-165 126 -26 -8 -36 -81 -22 -157 14 -77 78 -216 129 -284 29 -39 122 -89 211
-115 223 -64 650 -34 840 59 68 33 176 123 224 187 104 137 145 299 118 459
-27 161 -152 316 -365 454 -101 66 -138 87 -300 172 -254 134 -399 229 -461
304 -90 107 -99 127 -99 236 0 114 14 148 88 220 78 77 131 93 308 97 160 3
190 -3 308 -61 82 -39 151 -107 226 -219 70 -106 142 -174 162 -155 19 20 36
126 29 183 -11 82 -35 192 -52 235 -17 43 -70 95 -113 112 -94 37 -197 57
-338 63 -81 3 -157 7 -168 9 -11 2 -74 -3 -140 -9z"/>
<path d="M2705 2380 c-168 -20 -336 -85 -492 -191 -105 -72 -275 -244 -344
-349 -155 -236 -188 -356 -188 -676 0 -206 6 -252 54 -384 56 -153 150 -294
281 -420 170 -162 321 -246 549 -305 281 -73 590 -72 892 5 89 22 185 51 215
64 75 33 139 105 167 187 28 85 55 308 41 344 -11 29 -15 31 -87 40 l-53 6
-32 -68 c-51 -108 -138 -249 -191 -308 -55 -63 -146 -111 -272 -146 -114 -32
-342 -33 -465 -2 -184 46 -315 118 -441 243 -226 224 -309 469 -296 878 8 268
57 432 182 607 107 149 271 264 446 312 96 27 468 26 554 -1 186 -58 260 -126
355 -326 102 -213 89 -195 140 -198 80 -5 83 0 88 194 5 189 -8 309 -36 330
-9 7 -51 28 -92 45 -41 18 -87 41 -102 51 -24 16 -67 27 -246 58 -73 13 -542
21 -627 10z"/>
<path d="M7585 2380 c-148 -9 -230 -32 -390 -110 -168 -81 -300 -185 -432
-340 -68 -79 -139 -207 -188 -340 -1 -3 -7 -18 -14 -34 -30 -73 -43 -209 -38
-406 3 -160 8 -208 26 -270 11 -41 22 -79 24 -85 1 -5 6 -15 9 -21 4 -5 16
-34 27 -62 21 -53 118 -205 191 -299 123 -160 360 -299 635 -373 98 -27 292
-39 459 -29 250 15 497 118 718 301 172 142 319 347 364 508 43 155 46 184 48
395 1 223 -1 242 -54 405 -43 131 -79 192 -199 333 -74 85 -174 176 -277 250
-77 56 -248 133 -344 155 -98 23 -368 34 -565 22z m319 -165 c124 -24 197 -50
301 -107 79 -43 113 -70 193 -152 179 -184 249 -358 283 -701 10 -103 9 -142
-5 -270 -17 -143 -39 -228 -91 -349 -25 -59 -113 -185 -164 -236 -97 -96 -132
-118 -296 -191 -61 -26 -165 -39 -324 -39 -159 0 -172 1 -226 25 -32 14 -59
24 -62 22 -9 -9 -161 61 -221 102 -292 200 -450 572 -428 1011 6 119 23 235
43 280 3 8 7 17 8 20 31 123 93 234 191 343 87 97 133 131 263 197 109 55 368
77 535 45z"/>
<path d="M19415 2349 c-137 -4 -272 -12 -300 -16 l-50 -8 -2 -42 c-2 -24 3
-45 11 -52 7 -6 56 -24 108 -40 131 -39 156 -55 163 -105 10 -63 1 -1839 -9
-1859 -5 -10 -47 -36 -95 -58 -117 -54 -116 -53 -119 -77 -3 -17 4 -22 35 -28
21 -4 313 -8 648 -8 636 -1 678 1 840 44 381 101 707 384 793 686 24 87 52
213 52 239 2 323 -2 454 -15 495 -8 25 -22 74 -32 110 -60 225 -253 432 -532
571 -84 41 -298 111 -412 134 -93 19 -714 27 -1084 14z m995 -158 c199 -40
384 -134 497 -254 80 -84 163 -234 190 -341 57 -226 52 -656 -11 -832 -50
-142 -165 -304 -269 -378 -124 -88 -286 -151 -452 -174 -94 -13 -476 -8 -520
7 -93 32 -125 53 -153 100 l-27 46 -3 830 c-1 457 1 863 4 903 8 85 13 90 113
102 89 11 562 4 631 -9z"/>
<path d="M5696 2341 c-3 -5 0 -26 7 -46 12 -34 19 -40 63 -51 27 -7 76 -18
108 -23 37 -7 63 -17 69 -27 5 -9 18 -23 28 -33 19 -15 20 -32 19 -404 -2
-383 -2 -387 -23 -402 -19 -13 -112 -15 -687 -15 -366 0 -675 3 -687 6 -44 12
-48 44 -48 441 0 360 1 373 20 391 11 10 67 31 125 47 125 34 147 43 155 63
10 26 -10 35 -97 43 -98 9 -759 12 -782 3 -11 -4 -16 -19 -16 -45 0 -34 3 -39
28 -45 131 -31 226 -92 236 -153 10 -62 18 -1518 9 -1688 -10 -192 -10 -191
-141 -255 -92 -45 -117 -72 -80 -88 34 -15 823 1 839 17 18 18 -11 56 -63 80
-213 101 -216 102 -227 135 -7 20 -11 166 -11 429 0 348 2 400 16 413 14 14
90 16 697 15 375 -1 693 -4 707 -8 l25 -7 0 -445 c0 -365 -3 -449 -14 -463 -7
-9 -58 -30 -112 -47 l-99 -31 0 -33 c0 -19 5 -37 11 -41 13 -8 788 -23 825
-16 37 7 30 38 -13 60 -21 11 -77 34 -125 52 -53 20 -97 43 -115 62 l-28 29
-3 925 -2 924 25 50 c27 54 37 61 110 80 66 17 117 55 113 83 l-3 22 -427 3
c-243 1 -429 -2 -432 -7z"/>
<path d="M9004 2339 c-3 -6 2 -26 12 -45 14 -26 31 -39 67 -52 59 -21 145
-113 158 -170 11 -49 11 -1688 -1 -1777 -7 -60 -13 -74 -39 -97 -17 -15 -43
-31 -58 -34 -43 -10 -127 -50 -141 -67 -10 -11 -9 -17 4 -28 14 -12 152 -14
828 -14 l811 0 8 75 c4 41 14 131 23 200 20 161 22 216 8 230 -19 19 -61 -16
-94 -79 -39 -72 -141 -186 -189 -211 -80 -40 -200 -62 -351 -64 -267 -3 -355
13 -421 78 -64 62 -62 26 -66 971 l-3 860 35 49 c19 27 37 51 40 54 2 3 42 14
87 26 67 17 85 26 97 47 8 14 11 33 8 42 -6 15 -44 17 -411 17 -280 0 -407 -3
-412 -11z"/>
<path d="M13640 2338 c-235 -9 -280 -14 -305 -32 -18 -13 -17 -15 6 -38 15
-14 57 -35 100 -48 59 -18 83 -32 120 -69 41 -40 48 -53 54 -101 8 -71 1
-1767 -8 -1799 -10 -37 -27 -50 -129 -101 -120 -60 -124 -75 -22 -83 97 -9
666 -9 716 -1 20 4 46 15 57 26 31 28 10 52 -63 73 -147 43 -206 66 -227 91
-12 14 -14 86 -14 417 l0 400 117 3 118 4 33 -52 c19 -29 62 -100 96 -158 171
-291 274 -423 457 -586 166 -148 263 -203 439 -249 112 -29 154 -31 195 -10
42 22 39 51 -5 70 -19 8 -52 22 -72 31 -220 94 -528 445 -719 821 -43 83 -74
156 -74 173 0 17 1 30 3 30 1 0 39 15 84 34 127 52 238 124 304 194 103 110
110 125 120 259 12 166 2 337 -23 390 -21 47 -113 136 -193 190 -29 19 -97 49
-151 68 -92 31 -113 34 -309 44 -283 15 -461 17 -705 9z m773 -147 c54 -14 98
-34 140 -63 55 -39 67 -53 106 -132 44 -86 45 -91 49 -202 8 -193 -22 -291
-116 -387 -89 -91 -186 -134 -381 -167 -64 -10 -150 -22 -191 -26 -41 -3 -79
-7 -85 -8 -14 -2 -18 228 -10 609 7 313 8 321 30 349 35 44 97 57 250 51 84
-3 158 -11 208 -24z"/>
<path d="M17280 2307 l0 -42 108 -51 109 -51 4 -69 c7 -123 4 -1848 -3 -1875
-6 -20 -20 -30 -55 -43 -133 -48 -166 -63 -175 -80 -7 -12 -6 -22 2 -30 8 -8
233 -11 842 -11 l832 0 6 25 c12 43 45 479 37 486 -14 14 -91 -52 -117 -100
-65 -117 -141 -181 -267 -223 -101 -34 -154 -39 -413 -36 -163 1 -192 4 -243
23 -32 12 -67 31 -79 43 -47 50 -48 61 -48 508 l0 422 223 -7 c122 -4 238 -12
257 -18 19 -6 51 -24 71 -40 32 -26 39 -40 59 -121 25 -103 42 -129 79 -125
l26 3 7 200 c3 110 12 267 18 349 14 167 14 168 -54 164 l-40 -3 -21 -82 c-24
-90 -43 -126 -77 -144 -22 -12 -472 -29 -525 -20 l-23 3 0 402 c0 220 4 407 9
414 7 11 73 13 347 10 302 -3 344 -6 382 -22 57 -25 132 -110 179 -206 21 -43
44 -81 52 -85 20 -8 40 15 46 51 3 16 9 49 14 74 6 25 13 95 17 155 4 61 13
129 19 153 l13 42 -809 0 -809 0 0 -43z"/>
<path d="M21483 2343 c-19 -7 -16 -37 5 -55 9 -9 33 -20 52 -26 19 -7 59 -19
89 -28 58 -18 90 -45 115 -98 14 -30 16 -130 16 -923 0 -508 -4 -905 -10 -928
-12 -52 -40 -73 -142 -109 -119 -42 -135 -51 -133 -77 1 -12 10 -26 21 -30 10
-4 192 -8 404 -8 397 -1 464 5 458 36 -3 18 -74 63 -130 83 -19 7 -60 29 -89
49 l-54 36 -8 105 c-4 58 -6 478 -3 935 l4 830 38 33 c22 19 85 57 142 85 110
54 129 79 71 91 -37 7 -828 7 -846 -1z"/>
<path d="M15550 2333 c-69 -7 -78 -11 -82 -43 -6 -37 1 -42 81 -64 72 -19 153
-68 173 -104 10 -20 13 -199 13 -921 0 -493 -4 -917 -8 -943 l-8 -47 -93 -47
c-178 -90 -179 -107 -3 -112 176 -5 716 13 727 24 6 6 6 22 0 45 l-10 36 -122
29 c-67 16 -131 36 -142 46 -20 16 -21 26 -24 400 l-3 384 168 0 c202 0 345
21 523 76 122 38 277 147 344 242 76 107 106 178 117 276 10 92 -2 273 -20
307 -6 10 -21 44 -35 76 -46 106 -192 231 -321 275 -153 52 -160 53 -444 62
-265 9 -758 11 -831 3z m992 -138 c87 -18 127 -37 187 -91 58 -52 115 -158
130 -240 14 -75 14 -269 0 -336 -17 -80 -74 -182 -133 -235 -107 -97 -257
-146 -451 -147 -139 -1 -197 11 -215 45 -11 20 -12 776 -1 891 5 55 11 72 35
97 16 17 42 32 60 34 59 7 321 -5 388 -18z"/>
</g>
</svg>
