<svg width="408" height="60" xmlns="http://www.w3.org/2000/svg" xmlns:xlink="http://www.w3.org/1999/xlink" xml:space="preserve" overflow="hidden"><defs><clipPath id="clip0"><rect x="1513" y="1636" width="408" height="60"/></clipPath></defs><g clip-path="url(#clip0)" transform="translate(-1513 -1636)"><path d="M1720.5 1656.56C1716.22 1656.56 1715.14 1657.37 1715.14 1659.69L1715.16 1675.27 1715.16 1675.25C1716.94 1675.97 1719.17 1676.05 1720.95 1676.05 1726.31 1676.05 1728.89 1672.83 1728.89 1665.95 1728.89 1658.26 1725.41 1656.56 1720.5 1656.56ZM1803.18 1656.55C1799.7 1656.55 1797.47 1657.09 1797.47 1659.33L1797.47 1688.84C1797.47 1691.35 1798.09 1692.86 1804.87 1692.86 1814.69 1692.86 1820.23 1689.21 1820.23 1676.67 1820.23 1667.38 1818.17 1656.55 1803.18 1656.55ZM1784.52 1653.96C1784.52 1653.96 1792.38 1654.13 1793.99 1654.13 1795.68 1654.13 1803.45 1653.96 1805.77 1653.96 1820.68 1653.96 1828 1663.25 1828 1675.15 1828 1690.8 1816.92 1695.44 1807.03 1695.44 1799.89 1695.44 1796.78 1695.25 1794.01 1695.25 1791.33 1695.25 1784.53 1695.44 1784.53 1695.44L1784.45 1695.25 1784.45 1693.37C1784.43 1693.1 1784.62 1692.82 1784.97 1692.82L1784.97 1692.86 1787.02 1692.68C1789.7 1692.41 1790.59 1691.61 1790.59 1688.84L1790.59 1659.33C1790.59 1656.99 1789.96 1656.99 1787.02 1656.74L1785.07 1656.55C1784.71 1656.55 1784.43 1656.37 1784.43 1656.1L1784.43 1654.13ZM1836.03 1653.95C1836.03 1653.95 1843.08 1654.14 1845.84 1654.14 1848.23 1654.14 1855.12 1653.95 1855.12 1653.95L1855.19 1654.14 1855.19 1656.1C1855.19 1656.37 1855 1656.55 1854.66 1656.55L1852.8 1656.72C1850.03 1656.98 1849.06 1657.7 1849.06 1659.49L1849.06 1689.28 1849.06 1689.29C1849.06 1691.25 1849.95 1692.42 1852.8 1692.68L1854.68 1692.87C1854.95 1692.87 1855.21 1693.04 1855.21 1693.4L1855.21 1695.28 1855.13 1695.46C1855.13 1695.46 1848.34 1695.28 1845.58 1695.28 1843.08 1695.28 1836.12 1695.46 1836.12 1695.46L1835.94 1695.28 1835.94 1693.4C1835.94 1693.04 1836.2 1692.87 1836.56 1692.87L1838.35 1692.68C1841.29 1692.42 1842.19 1690.98 1842.19 1689.29L1842.19 1659.51C1842.19 1657.56 1841.12 1657 1838.35 1656.74L1836.56 1656.55C1836.21 1656.55 1835.94 1656.47 1835.94 1656.2L1835.94 1654.14ZM1675.97 1653.95C1675.97 1653.95 1683.02 1654.14 1685.79 1654.14 1688.19 1654.14 1695.07 1653.95 1695.07 1653.95L1695.15 1654.14 1695.15 1656.1C1695.15 1656.37 1694.98 1656.55 1694.62 1656.55L1692.74 1656.73C1689.98 1657 1689 1657.72 1689 1659.51L1689 1689.29 1689 1689.29C1689 1691.25 1689.89 1692.42 1692.75 1692.68L1694.62 1692.87C1694.89 1692.87 1695.16 1693.04 1695.16 1693.4L1695.16 1695.28 1695.07 1695.46C1695.07 1695.46 1688.29 1695.28 1685.52 1695.28 1683.02 1695.28 1676.06 1695.46 1676.06 1695.46L1675.88 1695.28 1675.88 1693.4C1675.88 1693.04 1676.15 1692.87 1676.51 1692.87L1678.29 1692.68C1681.24 1692.42 1682.13 1690.98 1682.13 1689.29L1682.13 1659.51C1682.13 1657.56 1681.06 1657 1678.29 1656.74L1676.51 1656.55C1676.15 1656.55 1675.88 1656.47 1675.88 1656.2L1675.88 1654.14ZM1627.86 1653.95C1627.86 1653.95 1635.17 1654.14 1637.94 1654.14 1640.44 1654.14 1646.06 1653.95 1646.06 1653.95L1646.15 1654.14 1646.15 1656.1C1646.15 1656.37 1645.97 1656.46 1645.62 1656.55L1644.63 1656.73C1641.86 1657.27 1640.89 1657.72 1640.89 1659.51L1640.89 1673.02C1643.83 1673.02 1645.53 1671.51 1649.45 1667.3 1653.02 1663.36 1655.79 1660.06 1655.79 1658.35 1655.79 1657.63 1654.99 1656.84 1653.2 1656.55 1652.84 1656.47 1652.67 1656.37 1652.67 1656.1L1652.67 1654.04 1652.76 1653.96C1652.76 1653.96 1659.98 1654.14 1662.57 1654.14 1664.89 1654.14 1668.82 1653.96 1668.82 1653.96L1669.08 1654.04 1669.08 1656.1C1669.08 1656.37 1668.82 1656.55 1668.37 1656.55 1664.89 1656.82 1662.48 1657 1659.27 1660.66L1651.59 1669.51C1650.08 1671.13 1649.54 1672.1 1649.54 1672.82 1649.54 1673.36 1649.9 1673.8 1650.34 1674.33L1663.82 1690.61C1664.89 1691.84 1667.03 1692.39 1668.82 1692.75L1669.26 1692.82C1669.53 1692.91 1669.89 1693.09 1669.89 1693.36L1669.89 1695.23 1669.62 1695.32C1669.62 1695.32 1664.89 1695.23 1662.39 1695.23 1660.16 1695.23 1656.95 1695.32 1656.95 1695.32L1656.86 1695.23 1656.86 1694.16C1656.86 1693 1656.77 1692.02 1655.52 1690.59L1645.62 1678.25C1644.27 1676.45 1642.85 1676.02 1640.89 1676.02L1640.89 1689.29C1640.89 1691.25 1642.05 1692.24 1644.63 1692.68L1645.62 1692.87C1645.88 1692.95 1646.15 1693.04 1646.15 1693.4L1646.15 1695.28 1646.06 1695.46C1646.06 1695.46 1640.44 1695.28 1637.76 1695.28 1635.26 1695.28 1627.94 1695.46 1627.94 1695.46L1627.77 1695.28 1627.77 1693.4C1627.77 1693.04 1628.03 1692.87 1628.39 1692.87L1630.18 1692.68C1632.85 1692.42 1634.02 1690.98 1634.02 1689.29L1634.02 1659.51C1634.02 1657.56 1633.03 1657 1630.18 1656.74L1628.39 1656.55C1628.03 1656.55 1627.77 1656.47 1627.77 1656.2L1627.77 1654.14ZM1601.52 1653.95C1601.52 1653.95 1608.57 1654.14 1611.33 1654.14 1613.74 1654.14 1620.62 1653.95 1620.62 1653.95L1620.7 1654.14 1620.7 1656.1C1620.7 1656.37 1620.52 1656.55 1620.17 1656.55L1618.3 1656.73C1615.53 1657 1614.54 1657.72 1614.54 1659.51L1614.54 1689.29 1614.55 1689.29C1614.55 1691.25 1615.44 1692.42 1618.3 1692.68L1620.17 1692.87C1620.44 1692.87 1620.71 1693.04 1620.71 1693.4L1620.71 1695.28 1620.62 1695.46C1620.62 1695.46 1613.83 1695.28 1611.07 1695.28 1608.57 1695.28 1601.61 1695.46 1601.61 1695.46L1601.43 1695.28 1601.43 1693.4C1601.43 1693.04 1601.7 1692.87 1602.06 1692.87L1603.84 1692.68C1606.79 1692.42 1607.68 1690.98 1607.68 1689.29L1607.68 1659.51C1607.68 1657.56 1606.61 1657 1603.84 1656.74L1602.06 1656.55C1601.7 1656.55 1601.43 1656.47 1601.43 1656.2L1601.43 1654.14ZM1742.58 1653.95C1742.58 1653.95 1749.53 1654.13 1752.21 1654.13L1765.33 1654.13C1768.01 1654.13 1774.35 1653.95 1774.35 1653.95L1774.54 1654.13C1774.62 1657.97 1775.24 1661.47 1775.88 1664.87L1773.66 1665.22C1772.68 1661.91 1770.99 1657.18 1765.28 1657.18L1758.14 1657.18C1756.44 1657.18 1755.55 1657.8 1755.55 1659.32L1755.55 1672.29 1762.24 1672.29C1764.74 1672.29 1765.36 1671.22 1765.72 1669.43L1766.25 1667.55C1766.25 1667.28 1766.44 1667.1 1766.79 1667.1L1768.29 1667.1C1768.49 1667.1 1768.49 1667.19 1768.49 1667.36 1768.29 1669.32 1767.95 1671.84 1767.95 1673.99 1767.95 1676.22 1768.31 1678.1 1768.49 1680.15L1768.29 1680.34 1766.79 1680.34C1766.35 1680.34 1766.15 1680.15 1766.15 1679.89L1765.7 1677.93C1765.35 1676.13 1764.54 1675.15 1762.2 1675.15L1755.52 1675.15 1755.52 1688.84C1755.52 1690.52 1756.49 1692.22 1758.11 1692.22L1766.58 1692.22C1771.14 1692.22 1773.65 1689.36 1774.71 1684.69L1776.93 1684.96 1775.14 1695.24 1774.96 1695.42C1774.96 1695.42 1769.7 1695.24 1767.03 1695.24L1751.4 1695.28 1751.4 1695.27C1748.73 1695.27 1742.58 1695.46 1742.58 1695.46L1742.48 1695.27 1742.48 1693.31C1742.48 1693.13 1742.58 1692.86 1743.02 1692.86L1745.09 1692.68C1747.86 1692.41 1748.66 1690.62 1748.66 1688.84L1748.66 1659.33C1748.66 1657.26 1747.59 1656.91 1745.09 1656.74L1743.02 1656.55C1742.48 1656.47 1742.48 1656.28 1742.48 1656.19L1742.48 1654.13ZM1702.48 1653.95C1703.82 1653.95 1709.08 1654.13 1711.68 1654.13 1714.18 1654.13 1717.75 1653.95 1721.05 1653.95 1733.71 1653.95 1736.03 1660.2 1736.03 1664.86 1736.03 1670.23 1733.45 1678.63 1720.78 1678.63 1718.55 1678.63 1716.76 1678.45 1715.15 1677.74L1715.15 1689.71C1715.15 1691.67 1716.22 1692.13 1719.08 1692.57L1720.87 1692.84C1721.23 1692.92 1721.51 1693.02 1721.51 1693.36L1721.51 1695.25 1721.43 1695.44C1721.43 1695.44 1714.29 1695.25 1711.51 1695.25 1709.02 1695.25 1702.32 1695.44 1702.32 1695.44L1702.24 1695.25 1702.24 1693.36C1702.24 1693.01 1702.41 1692.92 1702.77 1692.84L1704.64 1692.57C1707.41 1692.22 1708.3 1691.41 1708.3 1689.71L1708.28 1659.69 1708.28 1659.67C1708.28 1656.9 1707.12 1656.81 1702.93 1656.54 1702.39 1656.54 1702.3 1656.27 1702.3 1656.09L1702.3 1654.04ZM1889.58 1646.08 1880.66 1668.8C1880.3 1669.71 1880.92 1669.96 1882.88 1669.96L1898.4 1669.96 1898.42 1669.96 1889.76 1646.08ZM1891.82 1636.44C1893.05 1636.44 1893.5 1637.34 1894.21 1639.12L1912.51 1687.59C1913.76 1691.08 1915.56 1692.42 1919.13 1692.78L1920.1 1692.86C1920.55 1692.86 1921 1693.12 1921 1693.58L1921 1695.27 1920.73 1695.46C1920.73 1695.46 1913.86 1695.27 1910.37 1695.27 1907.25 1695.27 1898.5 1695.46 1898.5 1695.46L1898.42 1695.27 1898.42 1693.58C1898.42 1693.12 1898.6 1692.86 1899.07 1692.86L1901.56 1692.67C1904.95 1692.41 1906.21 1691.33 1905.31 1688.84L1899.87 1673.72 1881.3 1673.72C1879.16 1673.72 1878.62 1674.08 1878.18 1675.23L1873 1688.2C1872.11 1690.54 1873.27 1692.5 1876.57 1692.77L1876.55 1692.69 1879.14 1692.88C1879.5 1692.88 1879.85 1693.14 1879.85 1693.59L1879.85 1695.28 1879.67 1695.47C1879.67 1695.47 1869.95 1695.28 1867.8 1695.28 1865.48 1695.28 1859.77 1695.47 1859.77 1695.47L1859.59 1695.28 1859.59 1693.59C1859.59 1693.14 1859.85 1692.88 1860.3 1692.88 1864.23 1692.61 1866.46 1691.89 1868.96 1686.17L1888.77 1639.66C1889.75 1637.34 1890.46 1636.44 1891.82 1636.44ZM1581.12 1636 1581.32 1636.24 1581.32 1637.95C1581.32 1638.42 1581.05 1638.65 1580.53 1638.65 1577.97 1638.77 1577.44 1639.02 1576.5 1640.38 1576 1641.1 1574.99 1642.69 1573.94 1644.47L1564.95 1661.31 1564.71 1661.82 1575.69 1684.33 1576.35 1684.51 1593.65 1643.37C1594.25 1641.72 1594.16 1640.54 1593.38 1639.85 1592.61 1639.19 1592.06 1638.78 1590.06 1638.69L1588.43 1638.62C1588.23 1638.62 1588.05 1638.55 1587.86 1638.41 1587.69 1638.28 1587.59 1638.11 1587.59 1637.91L1587.59 1636.2 1587.84 1636.02 1607.38 1636.02 1607.59 1636.2 1607.59 1637.91C1607.59 1638.37 1607.32 1638.61 1606.8 1638.61 1604.24 1638.72 1602.34 1639.27 1601.11 1640.27 1599.88 1641.27 1598.92 1642.63 1598.23 1644.44 1598.23 1644.44 1582.32 1680.92 1576.87 1693.06 1574.79 1697.03 1572.74 1696.67 1570.94 1692.95 1569.04 1689.02 1565.4 1681.09 1562.25 1674.15L1560.56 1670.43 1558.72 1674.24C1555.34 1681.19 1551.44 1689.11 1549.33 1693.02 1546.9 1697.25 1544.9 1696.7 1543.31 1693.12 1537.78 1680.05 1526.42 1657.1 1521.08 1644.23 1520.09 1641.86 1519.34 1640.34 1518.64 1639.74 1517.93 1639.15 1516.46 1638.79 1514.23 1638.67 1513.41 1638.57 1513 1638.38 1513 1638.05L1513 1636.26 1513.2 1636.08C1516.84 1636.06 1534.45 1636.08 1534.45 1636.08L1534.65 1636.26 1534.65 1637.96C1534.65 1638.44 1534.35 1638.66 1533.76 1638.66L1531.55 1638.76C1529.64 1638.83 1528.69 1639.4 1528.69 1640.45 1528.69 1640.95 1528.9 1641.75 1529.34 1642.82 1533.59 1653.23 1548.29 1684.28 1548.29 1684.28L1548.83 1684.43 1558.31 1665.47 1558.15 1665.1C1557.08 1662.75 1556.41 1661.26 1556.41 1661.26L1549.89 1648.4 1549.89 1648.43C1549.89 1648.43 1548.64 1645.86 1548.21 1645.01 1545.35 1639.34 1545.41 1639.03 1542.51 1638.63 1541.7 1638.53 1541.28 1638.42 1541.28 1638.02L1541.28 1636.23 1541.53 1636.05C1546.75 1636.04 1558.39 1636.04 1558.39 1636.04L1558.84 1636.19 1558.84 1637.98C1558.84 1638.39 1558.54 1638.6 1557.95 1638.6L1556.73 1638.78C1553.64 1639.02 1554.14 1640.28 1556.2 1644.38L1562.45 1657.2 1569.36 1643.39C1570.52 1640.87 1570.28 1640.23 1569.8 1639.65 1569.53 1639.33 1568.6 1638.79 1566.6 1638.72L1565.82 1638.63C1565.61 1638.63 1565.43 1638.56 1565.25 1638.43 1565.07 1638.3 1564.98 1638.14 1564.98 1637.93L1564.98 1636.22 1565.23 1636.04C1570.12 1636.01 1581.12 1636.04 1581.12 1636.04Z" fill-rule="evenodd"/></g></svg>