<?xml version="1.0" standalone="no"?>
<!DOCTYPE svg PUBLIC "-//W3C//DTD SVG 20010904//EN"
 "http://www.w3.org/TR/2001/REC-SVG-20010904/DTD/svg10.dtd">
<svg version="1.0" xmlns="http://www.w3.org/2000/svg"
 width="1000.000000pt" height="155.000000pt" viewBox="0 0 1000.000000 155.000000"
 preserveAspectRatio="xMidYMid meet">

<g transform="translate(0.000000,155.000000) scale(0.100000,-0.100000)"
fill="#000000" stroke="none">
<path d="M5440 1510 c-27 -27 -26 -58 2 -62 13 -2 24 -11 26 -20 5 -26 -42
-23 -135 8 -64 22 -89 25 -141 21 -162 -15 -289 -133 -348 -323 -24 -77 -26
-94 -22 -216 4 -111 9 -144 30 -198 52 -134 145 -246 246 -295 102 -50 273
-42 392 19 53 27 59 44 28 86 -22 30 -23 41 -26 231 -3 199 -3 200 22 243 22
37 23 46 12 56 -11 9 -21 8 -45 -4 -43 -23 -103 -20 -171 9 -79 33 -139 33
-179 0 -74 -63 -61 -205 19 -205 33 0 60 28 60 62 0 29 -24 56 -35 38 -10 -17
-25 -11 -25 10 0 28 32 26 90 -6 35 -19 59 -25 88 -22 l40 3 4 -190 c3 -112
10 -202 17 -220 16 -38 -1 -51 -75 -61 -87 -10 -156 16 -227 88 -58 58 -118
165 -132 233 -14 68 -17 237 -5 297 25 128 107 242 198 273 62 20 74 20 180
-15 109 -35 153 -37 197 -10 35 22 45 44 45 101 0 76 -80 119 -130 69z"/>
<path d="M7766 1432 c-8 -15 -24 -36 -36 -47 -30 -27 -80 -102 -72 -109 3 -3
14 2 24 11 13 11 22 13 29 6 6 -6 9 -141 7 -391 -3 -378 -3 -381 -25 -404
l-23 -24 27 -37 c14 -20 30 -37 35 -37 5 0 17 13 26 30 21 36 26 37 64 5 99
-83 254 -35 335 105 36 62 48 129 48 260 0 185 -32 255 -140 306 -63 30 -84
30 -143 0 -46 -23 -69 -45 -105 -96 -16 -23 -17 -15 -17 213 0 147 -4 237 -10
237 -5 0 -16 -12 -24 -28z m263 -396 c134 -70 144 -393 16 -544 -33 -40 -65
-54 -122 -54 -51 0 -86 22 -108 68 -23 49 -23 375 0 431 18 43 60 91 90 103
32 14 94 11 124 -4z"/>
<path d="M565 1439 c-22 -5 -80 -29 -130 -54 -49 -24 -97 -44 -105 -45 -33 -5
-41 0 -35 20 7 23 -10 50 -32 50 -24 0 -63 -47 -63 -77 1 -47 31 -76 86 -82
l49 -6 3 -405 c3 -437 -1 -542 -25 -565 -22 -23 -43 -18 -43 9 0 35 -20 43
-42 16 -46 -57 11 -143 84 -125 86 22 158 213 146 386 -5 71 0 85 17 47 15
-34 73 -68 115 -68 141 0 276 141 335 350 28 99 27 257 -3 336 -51 133 -145
214 -255 220 -34 2 -80 -1 -102 -7z m120 -85 c48 -22 80 -70 111 -160 24 -73
26 -88 21 -194 -8 -168 -53 -291 -128 -354 -44 -37 -106 -34 -128 6 -14 25
-14 29 7 57 27 37 27 37 -3 57 -32 21 -76 5 -96 -34 -12 -24 -14 1 -17 213 -4
295 -1 315 45 366 51 57 124 74 188 43z"/>
<path d="M2322 1348 c-19 -19 -15 -86 6 -97 48 -26 94 26 70 77 -15 30 -55 41
-76 20z"/>
<path d="M3861 1284 l-53 -67 17 -31 c9 -17 15 -44 13 -61 -3 -27 -7 -30 -38
-30 -28 0 -35 -4 -35 -20 0 -16 8 -21 38 -23 l37 -3 0 -257 c0 -264 7 -320 45
-379 20 -30 36 -29 65 2 17 18 21 30 15 39 -53 72 -50 52 -53 333 l-3 263 41
0 c27 0 43 5 47 15 8 22 -1 28 -44 29 l-38 1 0 128 c0 70 0 127 0 127 -1 0
-25 -30 -54 -66z"/>
<path d="M6312 1284 l-52 -64 21 -29 c13 -17 19 -39 17 -57 -3 -26 -7 -29 -40
-32 -29 -2 -38 -8 -38 -22 0 -14 9 -20 38 -22 l37 -3 5 -285 c5 -272 6 -287
28 -328 26 -49 48 -53 82 -17 l23 24 -29 38 -29 38 -3 267 -3 267 43 3 c60 4
60 32 1 36 l-42 3 -3 124 -3 124 -53 -65z"/>
<path d="M9612 1250 c-19 -32 -14 -48 16 -52 24 -3 27 -8 30 -44 5 -62 -16
-73 -77 -44 -41 19 -58 21 -106 15 -118 -14 -188 -58 -226 -140 -26 -57 -24
-148 4 -202 22 -43 116 -123 143 -123 30 0 11 -39 -46 -95 -61 -58 -66 -71
-38 -88 11 -7 23 -4 44 12 17 12 54 28 84 36 49 13 61 13 108 -1 29 -8 50 -19
47 -24 -3 -5 0 -12 6 -16 8 -4 9 -3 5 4 -13 21 10 13 31 -10 26 -29 63 -98 63
-118 0 -72 -64 -159 -145 -196 -58 -28 -102 -30 -181 -9 -83 22 -121 61 -109
115 9 39 40 48 69 21 12 -12 26 -18 29 -14 15 14 6 55 -18 78 -35 36 -76 33
-110 -7 -24 -28 -27 -39 -23 -85 6 -65 44 -110 121 -144 140 -60 373 13 428
135 41 90 12 221 -59 269 -60 41 -148 61 -221 50 -68 -11 -75 -4 -38 38 19 21
36 27 91 33 78 8 110 22 155 67 48 48 63 84 63 158 1 66 -21 129 -59 173 -13
14 -12 20 2 49 26 49 32 141 10 162 -23 24 -77 22 -93 -3z m-59 -166 c20 -9
37 -23 37 -31 0 -16 -51 -18 -68 -1 -9 9 -12 9 -12 -3 0 -32 37 -52 83 -46 40
6 45 4 55 -18 6 -13 12 -58 13 -100 2 -68 -1 -79 -27 -116 -33 -49 -89 -89
-122 -89 -21 0 -24 3 -18 28 4 15 9 45 13 66 l6 39 -44 -26 c-40 -25 -44 -30
-41 -62 5 -47 -9 -45 -63 10 -49 51 -70 116 -59 188 9 54 25 85 66 124 55 53
117 65 181 37z"/>
<path d="M2340 1094 c-75 -59 -75 -59 -51 -83 21 -21 21 -28 21 -406 0 -330
-2 -390 -16 -425 -16 -39 -44 -55 -44 -25 0 20 -36 19 -44 -1 -7 -19 8 -50 30
-58 31 -12 64 24 114 124 49 98 50 100 39 151 -7 34 -10 171 -8 405 3 195 4
354 4 353 0 0 -20 -16 -45 -35z"/>
<path d="M6715 1105 c-33 -14 -61 -25 -61 -25 -1 0 -21 -25 -44 -55 -106 -138
-118 -333 -29 -493 l29 -52 -24 -48 c-35 -69 -42 -116 -22 -147 20 -31 40 -32
60 -3 21 29 20 38 -3 38 -11 0 -22 9 -26 19 -6 20 33 111 47 111 5 0 27 -12
50 -27 36 -24 50 -27 118 -27 83 1 128 19 179 74 42 45 77 130 53 130 -4 0
-24 -22 -45 -49 -30 -41 -46 -53 -91 -67 -53 -17 -58 -17 -115 1 -33 10 -69
28 -81 39 l-20 22 68 119 c78 139 170 282 218 342 39 48 41 53 15 53 -10 0
-47 14 -82 31 -85 43 -121 45 -194 14z m126 -48 c66 -44 53 -89 -105 -357 -81
-138 -72 -129 -95 -102 -34 39 -63 132 -64 202 -2 194 145 337 264 257z"/>
<path d="M7076 1094 l-28 -36 31 -32 c17 -18 36 -48 41 -67 6 -18 10 -133 10
-255 0 -210 -1 -223 -21 -248 -12 -15 -19 -30 -16 -33 8 -7 136 -7 144 0 3 3
-4 18 -16 33 -20 25 -21 38 -21 246 0 243 2 251 65 307 48 42 118 44 165 5 61
-52 75 -95 74 -229 0 -106 -3 -128 -28 -194 -15 -40 -36 -88 -47 -105 -10 -17
-19 -40 -19 -51 0 -18 7 -20 57 -21 32 0 68 -4 79 -8 20 -7 22 -4 25 44 2 28
2 53 0 56 -2 2 -16 -5 -31 -16 -33 -23 -70 -26 -70 -6 0 8 4 18 10 21 16 10
70 135 85 197 7 33 12 101 11 156 -2 99 -10 126 -59 196 -22 31 -108 76 -145
76 -36 0 -104 -45 -137 -89 -17 -22 -33 -41 -37 -41 -4 0 -19 21 -32 48 -13
26 -32 55 -43 64 -18 16 -20 16 -47 -18z"/>
<path d="M8480 1112 c-85 -33 -164 -134 -190 -244 -24 -108 -2 -266 50 -343
26 -39 25 -50 -5 -109 -14 -27 -25 -66 -25 -86 0 -67 45 -92 77 -43 14 21 14
23 -11 33 -16 6 -26 17 -26 30 0 21 36 100 46 100 3 0 25 -12 49 -26 54 -31
151 -40 203 -18 80 33 152 116 152 175 0 29 -12 22 -45 -24 -32 -44 -65 -65
-123 -78 -36 -8 -133 20 -165 48 -16 15 -15 19 14 72 17 30 47 85 67 121 47
88 136 225 183 281 45 54 47 59 18 59 -12 0 -50 14 -86 31 -81 38 -125 44
-183 21z m111 -49 c34 -20 54 -63 44 -95 -14 -45 -209 -388 -221 -388 -17 0
-61 93 -75 159 -42 199 116 404 252 324z"/>
<path d="M9055 1114 c-16 -9 -49 -35 -72 -57 -41 -40 -43 -40 -58 -22 -8 11
-15 23 -15 27 0 3 -17 16 -37 28 l-38 22 -27 -33 -28 -33 33 -27 c50 -41 56
-78 56 -319 0 -174 -3 -219 -15 -238 -8 -13 -14 -28 -12 -33 2 -6 34 -11 71
-13 71 -2 84 8 52 40 -12 13 -15 54 -15 244 1 251 2 259 64 324 40 43 78 54
111 32 33 -22 33 -59 -2 -84 l-27 -19 23 -12 c40 -22 74 -10 95 32 16 33 17
45 7 77 -19 65 -104 98 -166 64z"/>
<path d="M1298 1100 c-20 -11 -49 -38 -65 -60 -15 -22 -31 -40 -35 -40 -4 0
-14 12 -22 28 -8 15 -28 41 -46 57 l-31 30 -29 -35 -28 -34 37 -37 c22 -20 41
-50 44 -69 4 -18 7 -129 7 -247 0 -203 -1 -217 -21 -245 -12 -16 -19 -32 -16
-35 10 -9 141 -6 144 4 2 5 -6 20 -17 33 -19 22 -20 37 -20 243 0 202 2 224
21 263 31 66 76 104 119 104 66 0 91 -52 43 -90 -32 -25 -20 -43 27 -43 42 0
61 22 67 76 5 38 2 48 -24 77 -37 42 -100 50 -155 20z"/>
<path d="M1756 1104 c-69 -22 -155 -109 -186 -189 -31 -79 -34 -223 -7 -306
24 -73 80 -146 141 -184 44 -27 58 -30 130 -30 95 0 138 17 196 78 55 56 88
123 101 205 31 190 -65 383 -214 427 -62 18 -97 18 -161 -1z m132 -74 c57 -26
134 -107 169 -177 24 -49 28 -70 28 -138 0 -44 -6 -97 -13 -117 -20 -55 -91
-124 -143 -138 -201 -54 -410 246 -319 457 50 117 166 164 278 113z"/>
<path d="M2761 1103 c-25 -9 -62 -34 -87 -60 -119 -125 -143 -327 -58 -500
l35 -72 -24 -48 c-13 -26 -27 -60 -31 -75 -15 -64 27 -117 65 -82 22 20 26 56
6 48 -8 -3 -20 2 -27 11 -11 13 -9 24 10 65 13 28 30 50 37 50 8 0 28 -10 44
-23 27 -19 43 -22 122 -22 87 0 94 2 132 30 51 39 72 62 90 104 31 70 15 80
-30 20 -57 -78 -160 -102 -248 -58 -68 34 -70 37 -48 73 10 17 35 63 56 101
57 106 164 274 212 333 31 37 39 52 27 52 -9 0 -51 16 -94 35 -84 38 -122 42
-189 18z m128 -54 c32 -19 33 -22 29 -73 -4 -42 -17 -74 -74 -172 -39 -65 -85
-145 -103 -177 -18 -32 -38 -56 -44 -54 -6 2 -25 30 -42 63 -27 54 -30 67 -30
159 0 90 3 106 29 158 52 107 151 148 235 96z"/>
<path d="M3391 1109 c-146 -43 -241 -210 -228 -403 8 -137 57 -231 145 -283
42 -25 57 -28 134 -28 81 0 88 2 125 31 46 37 103 119 103 148 -1 18 -7 14
-43 -26 -53 -58 -95 -80 -161 -80 -203 -2 -307 290 -181 508 50 85 155 127
235 94 65 -27 91 -111 49 -164 -41 -52 -109 -14 -95 54 7 37 -6 38 -33 4 -45
-57 -17 -141 55 -164 89 -30 162 66 140 185 -18 96 -135 155 -245 124z"/>
<path d="M5730 1083 c-36 -19 -66 -37 -68 -42 -1 -4 9 -13 23 -19 32 -15 31
-25 -4 -103 -78 -173 -69 -381 21 -466 89 -83 180 -80 264 9 26 28 49 47 51
41 10 -29 64 -103 75 -102 7 0 24 14 37 31 20 25 22 33 13 47 -54 74 -52 59
-52 319 0 208 2 246 16 268 9 13 14 27 12 30 -3 3 -38 4 -78 2 l-72 -3 21 -27
c20 -25 21 -38 21 -258 0 -261 -1 -265 -81 -316 -144 -90 -265 75 -230 314 13
90 47 190 88 254 23 38 29 59 16 57 -5 -1 -37 -17 -73 -36z"/>
<path d="M8144 499 c-3 -6 -1 -16 5 -22 8 -8 11 -5 11 11 0 24 -5 28 -16 11z"/>
</g>
</svg>
