<svg xmlns="http://www.w3.org/2000/svg" width="32" height="34" overflow="hidden"><defs><clipPath id="a"><path d="M1074 358h32v34h-32z"/></clipPath></defs><g clip-path="url(#a)" transform="translate(-1074 -358)"><path fill-rule="evenodd" d="M1093.925 381.453c-.081.027-.206.171-.294.343-.129.25-.169.324-.213.374-.07.078-.419.772-.419.83 0 .03-.037.093-.084.15a.34.34 0 0 0-.085.226.4.4 0 0 1-.027.155c-.06.071-.152.455-.131.556.016.078.003.132-.048.202-.06.081-.067.115-.04.226q.069.298.28-.03a4 4 0 0 1 .226-.32 1 1 0 0 0 .112-.159c0-.01.06-.104.135-.208.074-.108.135-.213.135-.233 0-.024.03-.067.068-.101.037-.034.067-.08.067-.101 0-.024.024-.06.05-.084.106-.088.22-.344.22-.502a.7.7 0 0 1 .051-.24.6.6 0 0 0 .05-.229c0-.077.014-.168.031-.202.064-.131.115-.3.132-.441.01-.118 0-.158-.047-.196-.065-.047-.065-.047-.17-.016m4.843-1.237c-.121.014-.216.04-.243.067a.2.2 0 0 1-.108.03.17.17 0 0 0-.115.051c-.024.027-.06.05-.084.05s-.078.028-.122.065a.5.5 0 0 1-.2.084c-.161.034-.503.199-.506.243 0 .02-.03.064-.07.1a1 1 0 0 0-.153.24c-.047.098-.105.179-.132.179-.023 0-.06.023-.084.05a1 1 0 0 1-.213.135 2.6 2.6 0 0 0-.402.286c-.128.111-.26.202-.29.202s-.095.03-.142.068a.3.3 0 0 1-.145.067c-.088 0-.517.23-.71.378a1 1 0 0 1-.196.128c-.016 0-.03.02-.03.047s-.037.094-.084.148a.5.5 0 0 0-.085.128c0 .013-.202.232-.446.485-.435.448-.658.711-.706.832a.6.6 0 0 1-.128.159.5.5 0 0 0-.104.128c0 .017-.088.145-.193.286-.108.142-.216.286-.243.327-.027.04-.091.114-.139.172-.09.1-.236.377-.236.448 0 .044-.19.333-.24.36-.017.014-.03.058-.03.098 0 .044-.02.098-.048.118a.6.6 0 0 0-.1.148 3 3 0 0 0-.19.367c-.037.085-.091.166-.118.176a.09.09 0 0 0-.051.077.6.6 0 0 1-.101.196 4 4 0 0 0-.22.37 7 7 0 0 1-.206.37c-.044.075-.098.166-.115.203-.02.037-.101.189-.185.337-.321.58-.352.697-.173.717.112.014.213-.067.368-.296.16-.236.298-.367.48-.458.095-.047.2-.111.236-.145a1.6 1.6 0 0 1 .23-.138c.23-.118.264-.138.419-.263a.7.7 0 0 1 .169-.108c.017 0 .118-.09.23-.202.111-.111.212-.202.23-.202.016 0 .104-.037.198-.084a1 1 0 0 1 .203-.085c.02 0 .088-.037.149-.084a.5.5 0 0 1 .142-.084.6.6 0 0 0 .155-.118c.101-.094.155-.118.257-.118.07 0 .138-.013.148-.03.03-.047.841-.081 1.76-.068.483.007 1.148.014 1.476.014.57-.004.601-.007.679-.078.044-.04.111-.074.148-.074a.5.5 0 0 0 .17-.047c.155-.077.327-.121.476-.121.074 0 .145-.014.155-.03.01-.014.175-.038.365-.051.472-.03.76-.088.827-.165.068-.07.078-.421.017-.458-.06-.037-.21-.337-.21-.425 0-.044-.016-.09-.037-.101-.067-.044-.1-.162-.209-.724-.027-.138-.074-.36-.105-.489a2.5 2.5 0 0 1-.054-.394c0-.088-.013-.165-.03-.175s-.04-.152-.05-.314a3 3 0 0 0-.051-.38 3 3 0 0 1-.071-.337 2 2 0 0 0-.088-.364 1.3 1.3 0 0 1-.047-.398c0-.239-.014-.313-.085-.451a.8.8 0 0 1-.084-.23.16.16 0 0 0-.051-.107.17.17 0 0 1-.05-.115.2.2 0 0 0-.031-.107 1 1 0 0 1-.088-.192.9.9 0 0 0-.138-.243c-.044-.047-.098-.08-.122-.08m-19.221-2.12c-.183-.01-.196-.002-.227.078a1 1 0 0 0-.033.27c0 .101-.014.192-.034.202-.017.01-.034.054-.037.094a.4.4 0 0 1-.068.176 2 2 0 0 0-.098.178c-.044.101-.523.58-.584.58-.024 0-.091.05-.152.11-.088.092-.108.139-.108.257 0 .101.02.162.06.192.071.054.338.06.467.01.104-.037.293-.229.371-.377.027-.05.068-.091.091-.091.048 0 .308-.263.416-.421.077-.112.098-.2.155-.684.024-.2.027-.357.007-.438-.03-.125-.03-.125-.226-.135m12.467-.802c-.047-.003-.072.004-.095.021a.3.3 0 0 1-.122.034c-.037 0-.105.037-.149.084s-.098.084-.118.084-.084.044-.138.098a1.6 1.6 0 0 1-.443.286.34.34 0 0 0-.145.125c-.05.088-.206.23-.257.233-.02 0-.07.03-.115.067-.043.037-.09.067-.108.067-.047 0-.395.169-.415.203a.7.7 0 0 1-.176.1c-.175.078-.246.051-.246-.087 0-.064-.024-.088-.102-.104-.057-.01-.111-.034-.121-.048-.01-.016-.047-.03-.085-.03-.08 0-.084-.088-.003-.131a1 1 0 0 1 .236-.058c.098-.013.186-.033.196-.05a.5.5 0 0 1 .159-.091c.078-.034.213-.128.304-.209.142-.128.159-.162.159-.286 0-.169-.027-.186-.284-.186-.155 0-.203.017-.378.142-.186.135-.213.145-.399.138-.108-.003-.213-.02-.233-.04a.2.2 0 0 0-.111-.038.17.17 0 0 1-.115-.05c-.034-.04-.098-.05-.267-.044l-.223.01-.01.149c-.007.1.007.165.047.212.054.054.054.07.014.094a.5.5 0 0 1-.21.034c-.148 0-.168.01-.243.124-.118.19-.186.236-.388.26a.9.9 0 0 0-.321.114 2 2 0 0 1-.247.139c-.246.1-.287.41-.06.488.077.027.253.286.253.377 0 .038.024.095.05.129a.3.3 0 0 1 .051.124c0 .034.037.105.085.159.047.057.084.124.084.151 0 .03.017.064.034.074.02.01.034.068.034.122 0 .141.179.471.337.616.075.067.17.185.213.263.04.074.091.165.112.199.016.033.07.145.114.246.044.104.088.188.102.188s.044.064.067.142c.027.08.068.178.095.222.078.121.04.445-.071.59-.095.124-.314.263-.544.34a3 3 0 0 0-.24.098c-.196.097-.418.192-.449.192a.4.4 0 0 0-.115.064.6.6 0 0 1-.182.09 1 1 0 0 0-.2.082 1 1 0 0 1-.185.077c-.108.027-.341-.027-.388-.087a.23.23 0 0 0-.109-.071.34.34 0 0 1-.138-.132c-.05-.084-.105-.12-.263-.168a1.6 1.6 0 0 0-.301-.057.44.44 0 0 1-.186-.05l-.135-.072a1 1 0 0 1-.145-.104.33.33 0 0 0-.162-.078c-.081 0-.233-.094-.233-.144 0-.058.114-.122.22-.125.067 0 .134.037.219.114.21.203.574.273.861.172a1 1 0 0 1 .179-.05c.068 0 .31-.243.361-.357.04-.101.054-.108.274-.122.2-.01.26-.03.422-.138.105-.067.22-.125.253-.125a.26.26 0 0 0 .129-.05.3.3 0 0 1 .128-.05c.034 0 .122-.054.193-.122.179-.158.209-.337.108-.57a.8.8 0 0 1-.071-.201c0-.02-.03-.068-.068-.101-.088-.081-.375-.054-.483.04a.45.45 0 0 1-.182.094c-.06.01-.118.034-.129.05-.04.065-.118-.006-.097-.087.016-.06-.004-.104-.085-.178a.5.5 0 0 1-.105-.122c0-.013-.03-.06-.067-.108a.33.33 0 0 1-.068-.161.2.2 0 0 0-.047-.118.4.4 0 0 1-.088-.155c-.02-.064-.057-.115-.077-.118a1 1 0 0 0-.122-.007c-.058-.007-.091-.04-.132-.138-.047-.118-.047-.145.004-.286.03-.091.06-.34.074-.617.024-.438.02-.471-.054-.623a1.6 1.6 0 0 0-.155-.266.4.4 0 0 1-.078-.135c0-.02-.06-.094-.135-.165l-.139-.135-.31-.01c-.41-.013-.49.034-.632.357-.105.243-.29.377-.51.377-.132 0-.365-.104-.412-.188-.017-.03-.085-.047-.183-.047-.121 0-.172.017-.233.084a.26.26 0 0 1-.165.084.4.4 0 0 0-.155.037c-.152.081-.46-.125-.602-.4-.06-.119-.087-.142-.169-.142-.054 0-.114.02-.135.043-.047.061-.054.705-.006.792a.26.26 0 0 0 .128.101c.054.02.132.068.179.105l.084.07-.084.065c-.057.047-.098.057-.135.033-.027-.017-.095-.06-.152-.094a.7.7 0 0 1-.196-.199c-.054-.077-.115-.141-.138-.141-.027 0-.068-.024-.092-.054-.064-.078-.287-.216-.348-.216-.023 0-.064-.024-.087-.05a.18.18 0 0 0-.122-.051c-.084 0-.192.125-.155.182.01.02.03.455.044.964l.02.926.125.232c.078.149.121.284.121.361 0 .07.038.202.085.293a1 1 0 0 1 .084.22c0 .026.024.093.051.144a.5.5 0 0 1 .05.185c0 .047.031.115.068.149s.068.087.068.117.037.091.084.135.085.108.085.138c0 .034.023.115.054.179.07.145.044.222-.078.222-.074 0-.169.074-.44.344-.192.192-.347.364-.347.387 0 .037-.091.155-.375.492-.206.243-.368.499-.422.664a.6.6 0 0 1-.085.189c-.016.01-.03.047-.03.084a.8.8 0 0 1-.081.226c-.047.087-.145.286-.22.444-.077.159-.152.31-.168.337s-.071.135-.122.236a10 10 0 0 1-.2.404c-.03.065-.077.155-.104.203a3 3 0 0 0-.118.235 13 13 0 0 1-.186.371 1 1 0 0 0-.115.29.2.2 0 0 1-.054.114c-.04.034-.05.098-.044.25l.01.205 1.69.01c1.198.007 1.708-.003 1.759-.03s.091-.027.138 0c.037.017.233.044.436.057.361.02.618.081.726.172a.2.2 0 0 0 .095.044c.04 0 .25.08.327.128.18.108.341.23.379.283a.4.4 0 0 0 .152.108c.06.027.145.084.192.128a.7.7 0 0 0 .203.124c.253.102.466.203.49.236.01.02.121.081.243.138.121.058.266.142.32.186.055.047.122.084.153.084a.4.4 0 0 1 .155.074c.19.138.274.169.49.185l.21.02v-.14a.9.9 0 0 0-.052-.264.8.8 0 0 1-.05-.26c0-.077-.017-.157-.034-.174-.02-.02-.04-.145-.047-.28-.014-.266-.075-.374-.21-.374-.044 0-.145-.057-.23-.128a3 3 0 0 0-.283-.205 2.5 2.5 0 0 1-.331-.263 2 2 0 0 0-.29-.233c-.051-.027-.095-.067-.095-.09 0-.024-.044-.088-.098-.139-.132-.125-.23-.347-.18-.397.031-.03.052-.01.089.077.05.118.408.478.56.57.139.077.7.087.98.013.253-.064.304-.121.236-.25-.03-.057-.023-.1.03-.215.038-.08.095-.155.126-.168.077-.03.185.087.263.283.166.407.22.471.395.471a.42.42 0 0 0 .385-.232c.135-.28.166-.33.264-.432a1.5 1.5 0 0 0 .138-.171c.02-.037.085-.142.139-.23.094-.154.101-.185.094-.464-.01-.405-.03-.425-.412-.425-.159 0-.344-.017-.408-.037-.162-.05-.477-.064-.554-.024a1.5 1.5 0 0 1-.321.064c-.142.02-.324.04-.409.054a.8.8 0 0 0-.277.098.5.5 0 0 1-.206.08c-.118 0-.294-.097-.328-.181a.3.3 0 0 0-.08-.118c-.068-.057-.072-.283-.004-.354a.3.3 0 0 1 .128-.07 1 1 0 0 0 .142-.051c.233-.104.351-.135.527-.135.108 0 .206-.017.216-.033.01-.02.095-.034.186-.034s.176.013.186.034c.027.043.344.043.371.003.01-.017.061-.04.115-.054a.3.3 0 0 0 .142-.07.14.14 0 0 1 .098-.048.16.16 0 0 0 .101-.05.7.7 0 0 1 .21-.125c.152-.064.162-.078.162-.195 0-.091-.017-.135-.058-.152-.141-.05-.982.044-1.074.121-.043.044-.28.037-.361-.007-.054-.026-.105-.026-.203.004-.111.037-.168.037-.402-.017-.26-.06-.283-.06-.435-.007a1.4 1.4 0 0 1-.416.058c-.155 0-.29.02-.351.047a2 2 0 0 1-.21.09.72.72 0 0 0-.378.34c-.037.075-.084.129-.108.119-.064-.02-.067-.155-.01-.243a.3.3 0 0 0 .054-.124q0-.057.385-.472c.074-.084.216-.111.341-.064.156.054.27.047.45-.04.131-.061.212-.075.472-.071.186.003.331.02.355.044.02.02.142.037.277.037.203 0 .253-.01.307-.071.105-.115.233-.165.426-.165.098 0 .24-.024.314-.05a2 2 0 0 1 .442-.051c.264 0 .315-.01.369-.068.054-.06.104-.067.53-.067.405 0 .49-.01.625-.07.182-.085.412-.075.516.02.105.094.095.383-.016.515-.112.131-.183.148-.743.172-.44.02-.473.023-.483.087-.007.037-.102.152-.213.256-.216.206-.25.31-.135.415.057.054.088.057.24.023.094-.02.3-.037.456-.037.263 0 .287.007.35.088.068.087.068.256 0 .33-.063.07-.03.216.065.29.192.151.277.293.304.495.023.189.027.195.132.206.084.01.131-.01.199-.085a.8.8 0 0 0 .118-.161 2 2 0 0 1 .145-.22.7.7 0 0 0 .119-.188.4.4 0 0 1 .07-.121 1 1 0 0 0 .122-.25.8.8 0 0 1 .115-.232c.101-.118.105-.142.121-.937.01-.428.034-.852.051-.943.034-.152.03-.169-.074-.33a.7.7 0 0 1-.125-.364c-.01-.175 0-.202.128-.38.074-.105.18-.21.233-.233.132-.058.146-.165.156-1.099.01-.62.02-.761.064-.825a.3.3 0 0 0 .054-.118c0-.044.118-.236.243-.394.044-.058.095-.142.118-.196.024-.05.058-.094.078-.094.017 0 .034-.024.034-.05 0-.03.057-.115.128-.196a2 2 0 0 0 .159-.195c.02-.03.077-.122.131-.2a1.1 1.1 0 0 0 .129-.265.6.6 0 0 1 .084-.179c.078-.084.078-.815 0-.974-.067-.148-.148-.215-.277-.245a2 2 0 0 0-.225-.042m-15.907-.257c-.156-.005-.252 0-.276.016a.8.8 0 0 1-.209.043.6.6 0 0 0-.226.074c-.068.061-.112.3-.078.445.02.091.037.105.135.105.064 0 .125-.017.135-.034.044-.067.112-.03.132.074.024.125.108.23.189.23.03 0 .091.036.135.083s.095.085.112.085c.016 0 .09.053.162.118.118.104.152.117.317.117.26 0 .49-.11.49-.235 0-.03.037-.091.084-.135.112-.105.105-.246-.006-.263-.092-.013-.105-.111-.027-.175.064-.05.067-.334.01-.415-.034-.043-.139-.064-.45-.09-.26-.024-.474-.038-.63-.043m1.827-.834q-.111.001-.208.118a.4.4 0 0 0-.094.145.4.4 0 0 1-.071.121c-.102.129-.105.35-.007.415.06.04.064.06.034.145-.03.077-.027.121.02.219.03.064.07.118.091.118.064 0 .034.094-.054.158-.064.047-.091.105-.105.216-.02.178.017.222.206.239l.135.01.007.165c.007.091.03.179.054.195.075.044.23.03.25-.023.014-.027.04-.05.068-.05.067 0 .057.097-.01.124-.071.027-.142.08-.348.27-.088.08-.176.144-.196.144-.04 0-.088.196-.068.29.014.078.196.122.392.095.31-.04.817-.358.817-.51 0-.026.038-.083.082-.124a.4.4 0 0 0 .097-.145l.061-.168c.034-.081.034-.125.007-.185a1 1 0 0 1-.06-.233.37.37 0 0 0-.102-.232c-.047-.044-.085-.098-.085-.118 0-.024-.054-.098-.118-.165-.064-.071-.118-.159-.118-.2a.27.27 0 0 0-.05-.137.3.3 0 0 1-.051-.139c0-.04-.03-.1-.068-.134-.037-.034-.067-.088-.067-.118a.15.15 0 0 0-.051-.101.17.17 0 0 1-.05-.115c0-.04-.051-.121-.112-.182q-.118-.111-.228-.108m18.925-1.072c-.08 0-.182.016-.296.048a1.5 1.5 0 0 1-.25.047c-.109 0-.284.058-.494.155-.222.108-.466.108-.8-.003l-.26-.084-.139.07c-.192.102-.236.18-.236.425 0 .195-.01.222-.118.344-.112.121-.118.145-.118.353 0 .21.01.24.135.408.074.101.135.195.135.212 0 .058.243.142.415.142.21-.003.294-.057.294-.192 0-.074.047-.145.203-.3.196-.192.202-.209.213-.384l.006-.185.129.01c.07.006.148-.004.172-.027a.7.7 0 0 1 .223-.058.54.54 0 0 0 .27-.1.4.4 0 0 1 .122-.078c.013 0 .05-.02.077-.047a.7.7 0 0 1 .159-.081c.057-.017.169-.074.247-.121.135-.088.138-.095.138-.27q0-.183-.054-.236-.05-.048-.173-.048m-17.748-.713c-.07 0-.135.02-.166.057-.098.121-.165.276-.165.374 0 .057-.014.115-.034.125-.017.01-.034.1-.034.202 0 .1-.013.192-.033.202-.048.03-.04.34.01.431.067.121.169.226.216.226.105 0 .213-.108.213-.216 0-.134.158-.916.202-.997.054-.101.04-.286-.027-.347a.28.28 0 0 0-.182-.057m15.042-2.04c0-.02.027-.017.068.003.078.04.091.135.02.135-.044 0-.088-.067-.088-.138m-16.854-.05a.32.32 0 0 0-.198.105c-.118.118-.145.26-.145.806 0 .512.02.59.18.744.077.07.158.132.181.132.027 0 .055.026.068.057a1 1 0 0 0 .125.195c.159.202.186.246.257.472.067.209.131.286.236.286.091 0 .203-.087.203-.161 0-.02.037-.122.084-.223.068-.145.085-.239.085-.445 0-.171-.017-.28-.048-.313-.07-.084-.185-.438-.21-.66-.043-.38-.246-.593-.421-.435-.054.047-.064.105-.064.324 0 .225.013.29.087.414.095.162.085.219-.033.219-.115 0-.196-.111-.213-.293a.8.8 0 0 0-.05-.236.2.2 0 0 1-.011-.135 1.4 1.4 0 0 0 .054-.296c.014-.132.034-.28.047-.33.017-.068.01-.112-.033-.159a.21.21 0 0 0-.18-.067m24.58-.05c-.078-.013-.132-.01-.145.014-.014.02-.102.037-.193.037-.149 0-.172.01-.2.087-.094.243-.016.324.325.34.149.008.304.028.351.045s.139.037.203.047a.64.64 0 0 1 .27.158c.21.192.274.233.365.233.044 0 .128.033.186.074a.56.56 0 0 0 .29.087l.19.01.145-.171c.222-.273.195-.36-.18-.587a2 2 0 0 0-.287-.155.5.5 0 0 1-.148-.07c-.098-.058-.21-.075-.585-.098-.256-.017-.52-.04-.587-.05m-3.13-.617a.8.8 0 0 0-.187.024c-.152.03-.236.03-.304.007-.179-.067-.436-.027-.517.081-.04.054-.023.219.024.219.017 0 .03.02.03.047 0 .04-.057.044-.327.03a2 2 0 0 1-.389-.047.3.3 0 0 0-.135-.03.5.5 0 0 1-.189-.067c-.142-.088-.216-.085-.304.01-.121.131-.094.222.128.444l.207.203.31-.004c.196 0 .368-.023.473-.057.111-.04.274-.057.534-.057.34 0 .391.01.58.097.217.098.527.405.599.59.016.047.047.088.064.088.016 0 .084.087.148.195.068.104.156.226.203.27a.6.6 0 0 1 .125.219c.024.077.054.171.07.208a1 1 0 0 1 .038.152c.01.077.027.084.206.094.118.007.216-.006.246-.03.075-.06.061-.408-.02-.56a1 1 0 0 1-.088-.235.3.3 0 0 0-.067-.148c-.027-.02-.047-.054-.047-.071s-.075-.108-.17-.202a1.1 1.1 0 0 1-.202-.276 2 2 0 0 0-.07-.156 1 1 0 0 1-.052-.1c-.02-.058-.118-.125-.435-.297a1 1 0 0 1-.213-.142c-.007-.02-.047-.033-.091-.033-.115 0-.145-.071-.058-.128.105-.071.098-.226-.013-.297a.2.2 0 0 0-.108-.041m-7.083-.584c.02 0 .037.013.037.034 0 .016-.007.033-.014.033-.01 0-.027-.017-.037-.033q-.013-.032.014-.034m2.674-.23c-.105.003-.253.1-.27.175a.47.47 0 0 0 .111.38c.037.034.068.078.068.101s.03.068.067.102c.095.084.085.138-.05.256-.098.087-.118.128-.118.242v.135l-.078-.07a.3.3 0 0 0-.159-.082c-.08-.01-.084-.003-.084.21 0 .235.006.252.287.582.067.078.145.182.179.233a.3.3 0 0 0 .121.11c.038.01.075.048.085.078s.08.095.155.142a.7.7 0 0 1 .186.158c.027.04.108.101.176.132.07.033.152.08.182.104q.054.05.27.037c.196-.01.216-.017.226-.088.014-.097-.074-.202-.219-.266-.128-.054-.159-.161-.034-.128l.21.054c.074.02.212.07.304.118.094.044.196.08.23.08.03 0 .084.014.118.031.03.017.104.05.158.078.18.08.453.276.497.36.023.044.09.135.152.199.121.131.135.175.175.58.034.316.095.603.146.66.016.023.043.182.064.354.044.384.101.468.32.468.166 0 .19-.024.224-.253.043-.303.057-.397.098-.845.037-.401.033-.455-.02-.607-.065-.175-.102-.215-.565-.677-.165-.162-.297-.31-.297-.33 0-.024-.03-.054-.068-.071-.037-.017-.246-.206-.462-.421-.22-.216-.433-.404-.477-.418-.04-.01-.098-.067-.125-.121-.03-.054-.064-.098-.08-.098-.031 0-.41-.37-.41-.4a1.6 1.6 0 0 0-.185-.223 1.3 1.3 0 0 1-.186-.236c0-.03-.05-.067-.32-.23-.156-.094-.322-.265-.322-.33 0-.03-.054-.104-.118-.161a.5.5 0 0 0-.162-.105m4.942-.718c-.24.077-.264.185-.085.344a.6.6 0 0 0 .149.104c.04 0 .104.158.104.26 0 .05-.033.11-.084.151-.098.077-.118.293-.034.364.071.057.064.1-.02.1-.115 0-.2.065-.2.156 0 .06.092.175.338.421.186.189.338.36.338.38 0 .024.064.105.142.186.074.08.149.192.159.25.027.124.162.178.354.144l.122-.023v-.213c0-.168-.014-.225-.068-.272a.4.4 0 0 1-.088-.128 1 1 0 0 0-.179-.23c-.178-.182-.26-.31-.226-.363.037-.054.19-.044.338.026.138.068.328.065.588-.006.138-.037.141-.044.141-.179q0-.249-.23-.25c-.127 0-.276-.063-.276-.12 0-.061.196-.216.27-.216.071 0 .169-.121.169-.209 0-.104-.213-.185-.665-.25-.082-.013-.162-.043-.183-.067a.13.13 0 0 0-.084-.047c-.068 0-.18-.067-.304-.178a.7.7 0 0 0-.22-.125c-.121-.037-.186-.037-.266-.01m-8.707-3.038a.7.7 0 0 0-.217.002c-.034.01-.07.06-.084.108-.02.091-.17.307-.372.542a.6.6 0 0 0-.111.159c0 .07-.527.546-.629.566a.3.3 0 0 0-.152.094c-.1.155-.432.415-.587.465a5 5 0 0 0-.213.07 1 1 0 0 1-.247.031.63.63 0 0 0-.314.081c-.125.067-.189.08-.493.08-.338.004-.425.024-.642.15-.199.11-.199.11-.33-.014-.142-.132-.369-.21-.517-.179-.071.017-.142 0-.237-.047-.152-.08-.304-.088-.641-.03-.196.03-.26.057-.382.168-.081.07-.18.128-.216.128-.04 0-.081.014-.091.034-.01.017-.048.034-.082.034a.16.16 0 0 0-.104.05c-.054.064-.17.064-.29 0-.203-.104-.453-.01-.453.172 0 .108-.044.141-.22.165-.2.03-.405.125-.436.202-.04.104-.02.22.048.276.07.061.09.145.034.145-.109 0-.298.175-.386.354-.118.243-.3.411-.594.542a13 13 0 0 0-.659.334 7 7 0 0 1-.537.273.4.4 0 0 1-.138.047c-.02 0-.074.037-.118.084s-.102.084-.125.084c-.027 0-.054.027-.068.058a.4.4 0 0 1-.064.111.8.8 0 0 0-.081.202c-.02.084-.06.216-.088.297-.034.107-.047.343-.047.95 0 .738.007.832.08 1.122.045.172.106.36.136.417.03.061.054.176.054.257 0 .08.01.158.024.171.013.014.03.21.033.435.014.465.034.509.234.502.135-.007.25-.084.25-.175 0-.03.05-.101.11-.162.095-.09.136-.108.285-.108.111 0 .185.017.212.05.024.028.061.051.081.051.024 0 .088.068.146.148a.8.8 0 0 0 .199.196c.054.03.149.077.206.108.06.034.145.054.186.047.111-.013.125-.199.027-.297-.156-.155.03-.276.2-.128.13.118.225.162.34.162.058 0 .162.03.237.067a.7.7 0 0 0 .172.068c.02 0 .084.024.142.05.06.027.172.071.253.101.078.027.206.075.287.105.118.047.233.05.713.034.314-.014.588-.034.608-.05.02-.014.179-.048.354-.072.345-.043.686-.155.879-.28l.22-.144.185-.121c.047-.034.111-.071.138-.085a1 1 0 0 0 .183-.135.6.6 0 0 1 .172-.11c.02 0 .074-.038.118-.085s.098-.084.122-.084c.02 0 .057-.024.08-.05a.16.16 0 0 1 .099-.051c.034 0 .094-.037.135-.081a.37.37 0 0 1 .172-.098.6.6 0 0 0 .21-.118c.06-.05.178-.128.263-.171.084-.04.206-.112.27-.159.115-.084.129-.084.632-.074.47.01.52.017.615.084.087.068.141.078.422.078.28 0 .33-.01.415-.078.05-.04.152-.1.223-.135.101-.043.125-.074.125-.151a.46.46 0 0 0-.088-.212 1 1 0 0 1-.2-.486.6.6 0 0 0-.087-.232c-.064-.08-.088-.303-.037-.337.017-.01.05-.101.074-.202a.55.55 0 0 1 .125-.26c.04-.043.078-.09.078-.107s.047-.084.101-.149c.135-.151.142-.343.014-.471-.098-.095-.078-.135.07-.152.089-.01.102-.027.112-.121a.5.5 0 0 0-.04-.216c-.065-.124-.071-.367-.014-.424.081-.081.345-.017.382.09.01.031.111.152.23.274.195.202.23.222.428.262.122.027.314.054.433.064.189.017.223.01.297-.06a.26.26 0 0 0 .08-.152c0-.08-.144-.215-.232-.215a1 1 0 0 1-.19-.048 2 2 0 0 0-.253-.07c-.189-.03-.273-.118-.293-.297l-.02-.158h.175a.7.7 0 0 1 .25.04c.094.05.557.05.659-.003a.14.14 0 0 0 .074-.125c0-.08-.132-.323-.2-.367-.043-.024-.172-.31-.172-.377 0-.024-.064-.115-.142-.2-.314-.326-.368-.393-.35-.437.01-.027.036-.044.06-.04q.044.01.054-.142c.01-.145 0-.162-.179-.337-.192-.192-.216-.236-.142-.3.034-.027.071-.007.162.084a.85.85 0 0 0 .379.23c.03.01.057.04.057.07 0 .105.206.448.331.546.179.145.436.28.527.28q.19.002.189-.31c0-.152-.014-.196-.084-.263-.048-.044-.085-.098-.085-.118s-.06-.08-.132-.138a.8.8 0 0 1-.189-.192c-.03-.05-.07-.091-.09-.091a.6.6 0 0 1-.177-.121 17 17 0 0 0-.293-.243 20 20 0 0 1-.49-.411c-.321-.28-.493-.37-.682-.37-.082 0-.193.144-.166.215.01.024-.007.08-.034.121-.077.108-.07.86.007.944.027.03.05.067.05.084 0 .013.038.077.085.138.047.06.085.125.085.141 0 .02.023.04.05.054.068.024.064.078-.017.179-.08.104-.084.24-.01.398.044.094.047.127.017.158-.06.06-.223-.034-.236-.135-.007-.04-.075-.125-.149-.192-.105-.088-.172-.118-.267-.118-.128 0-.138.01-.213.243-.023.084-.1.074-.182-.017-.037-.04-.121-.135-.186-.21l-.118-.134-.328.004c-.266 0-.337.013-.371.057-.024.03-.05.057-.064.057-.01 0-.085.03-.166.064-.199.091-.381.111-.432.05-.03-.036-.024-.05.024-.067a.8.8 0 0 0 .165-.094 3 3 0 0 1 .254-.152c.084-.047.189-.11.232-.145a.3.3 0 0 1 .136-.06c.087-.004.564-.25.685-.357.254-.23.365-.381.365-.506 0-.209-.044-.249-.27-.249-.186 0-.254-.034-.17-.084.021-.01.035-.047.035-.081 0-.03.054-.108.118-.172a.5.5 0 0 0 .118-.145.6.6 0 0 1 .102-.148c.057-.06.1-.142.1-.172 0-.034.014-.074.031-.094.047-.047.074-.293.04-.347-.014-.024-.085-.043-.164-.053m.326-2.722a6 6 0 0 0-.705.005l-.389.02-.408.206c-.405.202-.5.263-.753.475a.5.5 0 0 1-.17.111c-.05 0-.61.546-.61.593 0 .024-.038.088-.085.142a.34.34 0 0 0-.084.239c0 .175.057.205.327.172.18-.024.223-.04.31-.145.058-.064.19-.159.288-.206a1.5 1.5 0 0 0 .294-.192 1.6 1.6 0 0 1 .537-.28c.047-.013.132-.047.186-.07.115-.05.287-.03.287.034 0 .067-.2.219-.284.219-.101 0-.223.118-.223.219 0 .08.003.08.392.09.422.01.429.014.466.2.017.08.037.09.297.127.156.02.365.05.466.068.369.054.493.161.328.28-.098.07-.122.205-.047.252.057.034.293.364.293.404 0 .044.24.27.706.657.318.263.436.337.537.324.088-.01.092-.02.102-.236.013-.3-.115-.728-.264-.886-.08-.084-.08-.088-.02-.189.088-.151.074-.357-.04-.606a1.3 1.3 0 0 0-.173-.28c-.04-.037-.07-.08-.07-.104 0-.054-.237-.277-.376-.35-.118-.065-.162-.156-.108-.21.02-.02.071-.003.132.044.084.068.132.078.436.078h.337l-.006-.118a.21.21 0 0 0-.091-.179c-.048-.034-.088-.084-.088-.111 0-.088-.608-.485-.743-.485a.4.4 0 0 1-.152-.06 1 1 0 0 0-.2-.088 2 2 0 0 1-.233-.088q-.12-.058-.399-.076m-.608-1.524c0 .04-.068.085-.091.061-.01-.01-.007-.034.006-.054.027-.047.085-.047.085-.007m-1.448-.142a.4.4 0 0 0-.118.007 1 1 0 0 1-.122.03.19.19 0 0 0-.132.118.6.6 0 0 1-.125.179.8.8 0 0 0-.155.209 2.4 2.4 0 0 1-.186.3c-.044.05-.09.262-.128.562-.01.084-.003.243.02.354.024.111.05.256.058.32.03.199.155.286.347.246.15-.027.193-.162.196-.596.004-.422.024-.489.254-.957.145-.3.169-.378.172-.556.003-.199 0-.21-.081-.216m-5.715-.441c-.054-.054-.159-.05-.263.01a.5.5 0 0 1-.156.05.17.17 0 0 0-.118.054c-.023.03-.159.108-.3.172a2 2 0 0 0-.328.185c-.078.075-.112.095-.338.22-.142.077-.405.347-.533.549a1.6 1.6 0 0 1-.183.215.4.4 0 0 0-.105.135c0 .02-.033.074-.077.121-.115.125-.22.401-.264.68-.02.136-.05.3-.07.371a.6.6 0 0 0-.014.236c.013.061.037.216.05.347.014.128.058.3.098.378a.7.7 0 0 1 .075.222c0 .047.023.101.05.125s.051.067.051.1c0 .072.155.392.233.486.064.074.385.29.432.29.02 0 .055.023.078.05.034.04.129.05.463.05.398 0 .422.004.5.085.047.044.084.101.084.128 0 .067-.138.185-.253.212a.5.5 0 0 0-.186.098c-.118.104-.223.138-.638.209-.125.02-.43-.037-.605-.115-.132-.057-.378-.286-.378-.35a.17.17 0 0 0-.047-.094c-.085-.098-.217-.556-.24-.83-.03-.404-.037-.42-.145-.42a.3.3 0 0 0-.129.027c-.067.04-.317.549-.338.687a.4.4 0 0 1-.05.148c-.044.024-.037.745.003.772a.4.4 0 0 1 .085.128c.027.06.08.151.118.209.034.054.088.148.118.209a.6.6 0 0 0 .105.148c.027.02.047.077.047.124 0 .081-.003.081-.176.054-.33-.05-.425-.037-.537.078a.5.5 0 0 0-.098.138c0 .014-.047.07-.1.125-.106.1-.109.145-.028.31.02.04.027.097.017.124-.02.047-.037.047-.155-.017-.196-.1-.257-.077-.254.098.004.169.075.26.247.313a.5.5 0 0 1 .155.068c.02.013.132.037.254.05.121.01.236.037.26.054.023.02.114.024.202.014.835-.095.909-.111 1.064-.246a6 6 0 0 1 .52-.283c.257-.128.49-.253.517-.28a.6.6 0 0 1 .139-.087c.121-.054.206-.105.358-.22.148-.114.243-.175.317-.208a1 1 0 0 0 .142-.085.5.5 0 0 1 .226-.06.6.6 0 0 0 .2-.03c.03-.017.148-.051.26-.071.111-.024.256-.064.32-.091.193-.084.72-.34.811-.398a2 2 0 0 1 .203-.1c.307-.139.378-.206.422-.415.02-.095.007-.122-.088-.212-.111-.105-.358-.233-.45-.233-.026 0-.06-.017-.07-.034-.01-.02-.06-.033-.108-.033a.8.8 0 0 1-.254-.085 1 1 0 0 0-.209-.084c-.027 0-.08-.027-.125-.064a.6.6 0 0 0-.2-.088 2 2 0 0 1-.347-.138.9.9 0 0 0-.355-.11 2 2 0 0 1-.287-.021c-.131-.02-.172-.014-.226.034-.06.054-.081.057-.2.017a.7.7 0 0 1-.242-.155c-.061-.065-.129-.115-.152-.115-.024 0-.082-.05-.132-.111a9 9 0 0 0-.203-.233c-.064-.067-.118-.144-.118-.171s-.03-.075-.068-.108c-.057-.05-.067-.105-.067-.337 0-.206.013-.29.05-.32a1 1 0 0 0 .136-.216c.05-.094.125-.232.168-.307.048-.074.098-.165.115-.202a.8.8 0 0 1 .129-.168c.05-.057.125-.162.158-.236.078-.158.25-.354.315-.354.027 0 .057-.033.074-.077s.142-.199.28-.347a6 6 0 0 0 .324-.364c.081-.108.102-.317.034-.384m7.428-.139a.4.4 0 0 0-.193.048.5.5 0 0 1-.19.05c-.057 0-.124.024-.148.05-.024.028-.054.051-.07.051a.7.7 0 0 0-.166.085.6.6 0 0 1-.186.084c-.03 0-.06.027-.074.057a1 1 0 0 1-.115.172c-.054.06-.129.175-.166.26a.6.6 0 0 1-.101.168c-.017.01-.034.064-.034.114s-.03.122-.067.155c-.038.034-.068.081-.068.105 0 .064-.193.475-.233.498-.054.034-.044.428.01.502.034.044.081.058.159.051.101-.01.121-.034.273-.327.088-.175.163-.353.163-.397 0-.095.135-.34.24-.435a.7.7 0 0 0 .131-.182c.071-.141.297-.37.361-.37.075 0 .051.117-.04.202-.206.192-.105.495.149.451.09-.017.189-.087.391-.283.149-.145.325-.286.389-.313.175-.074.375-.111.5-.091l.111.017-.074.077c-.044.05-.098.074-.135.064-.098-.027-.493.081-.571.152-.037.034-.068.084-.068.111 0 .067.135.185.237.205.047.01.142.048.213.085a.7.7 0 0 0 .216.064c.142 0 .3.108.256.178a.4.4 0 0 1-.131.078c-.088.037-.115.067-.115.131 0 .054.024.094.06.105.031.013.122.047.197.084.077.034.182.07.23.084.047.01.097.034.107.05.01.018.048.031.081.031.21 0 .95.485 1 .657a.6.6 0 0 0 .135.175c.095.091.142.111.264.111.152 0 .256-.06.256-.148a.3.3 0 0 0-.067-.131.33.33 0 0 1-.068-.175c0-.078.014-.088.091-.078q.093.012.135.094c.082.172.207.253.389.253.179 0 .263-.064.263-.195 0-.135-.6-.58-.702-.516-.017.01-.068-.007-.112-.04a1 1 0 0 0-.23-.105c-.215-.06-.712-.3-.712-.34 0-.017-.027-.034-.06-.034-.082 0-.19-.118-.16-.168.028-.047.18-.017.254.05.027.024.172.098.32.169.15.067.298.138.328.155a.3.3 0 0 0 .129.03c.034 0 .118.03.185.067a.5.5 0 0 0 .18.068c.03 0 .135.047.226.101.429.253.49.25.49-.017 0-.182-.03-.232-.203-.313a2.4 2.4 0 0 0-.507-.132c-.135-.017-.463-.158-.547-.236-.128-.114-.027-.357.155-.363.29-.014.16-.337-.212-.52a4 4 0 0 1-.257-.13c-.32-.183-.763-.27-1.493-.297-.317-.014-.45-.007-.567.034-.206.07-.22.07-.22-.044 0-.054-.024-.125-.054-.152-.032-.034-.092-.05-.158-.05m-.406-1.612c-.07.014-.125.064-.125.144 0 .09-.04.138-.284.323-.094.07-.23.179-.3.24-.112.094-.139.104-.193.067-.111-.068-.23-.047-.425.077-.105.068-.227.118-.287.118a.8.8 0 0 0-.223.05q-.244.103-.385-.013l-.078-.064.128-.182c.098-.145.125-.212.115-.3-.01-.104-.02-.114-.138-.124-.095-.007-.132.003-.149.05a1.4 1.4 0 0 1-.135.206.7.7 0 0 0-.111.185c-.004.044-.24.236-.264.212-.007-.01.04-.084.108-.165.115-.141.122-.161.122-.39 0-.23-.004-.243-.088-.273-.129-.051-.25.04-.405.296-.034.06-.075.108-.088.108-.014 0-.027.017-.027.037 0 .087-.247.334-.422.418-.102.05-.2.11-.22.135a.8.8 0 0 1-.196.114c-.088.04-.23.118-.317.172a.9.9 0 0 1-.372.121 1 1 0 0 0-.253.054c-.048.037-.135-.135-.152-.293-.01-.094-.02-.101-.139-.094a.5.5 0 0 0-.236.09c-.06.044-.23.139-.378.21a2 2 0 0 0-.345.191 1 1 0 0 1-.138.105c-.196.114-.341.226-.42.327a2 2 0 0 1-.151.182.7.7 0 0 0-.108.175c-.024.06-.061.111-.078.111s-.037.027-.05.057a1.4 1.4 0 0 1-.129.213c-.29.404-.375.842-.179.936.142.068.264.004.257-.135-.004-.107.098-.326.196-.427.08-.088.094.04.017.178-.061.105-.071.182-.071.502 0 .388.047.755.104.815.017.017.03.058.03.095 0 .034.034.111.078.168.04.06.092.132.108.162.02.03.098.138.176.24.145.195.128.185 1.446.825.148.074.3.151.337.172.217.117.53.245.581.235.064-.01.095-.124.064-.242-.01-.037-.067-.101-.124-.135a3 3 0 0 1-.389-.347c-.152-.155-.297-.28-.324-.28-.054 0-.331-.27-.331-.323 0-.02-.054-.084-.118-.148s-.119-.142-.119-.172c0-.034-.013-.068-.03-.081-.02-.01-.074-.105-.128-.212-.112-.226-.122-.475-.024-.583.064-.07.118-.162.193-.317a.5.5 0 0 1 .1-.148c.035-.024.058-.064.058-.084.004-.088.247-.36.365-.411.28-.122.348-.166.412-.27.074-.118.176-.165.409-.199.125-.017.182-.047.32-.188.187-.186.426-.32.555-.304a.3.3 0 0 1 .155.075c.101.094.287.084.385-.02.044-.048.105-.085.135-.085s.071-.017.091-.037c.048-.047.163-.115.315-.182.222-.101.422-.192.48-.222.097-.05.148-.037.296.087a.6.6 0 0 0 .186.118c.064 0 .399-.141.557-.232.098-.06.3-.138.402-.159.058-.013.115-.033.125-.05a.5.5 0 0 1 .162-.095c.119-.05.152-.084.173-.175.033-.144-.038-.198-.227-.171-.104.013-.135.006-.121-.027.013-.044.202-.169.33-.226a.7.7 0 0 0 .146-.101c.054-.044.118-.078.145-.078.071 0 .156-.192.142-.33-.01-.114-.02-.125-.125-.135a.25.25 0 0 1-.179-.094.21.21 0 0 0-.206-.073m-2.895-1.507c.115.027.372.296.372.39 0 .156.088.2.388.2.372 0 .497.053.558.235a.44.44 0 0 0 .09.172c.025.02.045.081.045.132 0 .074.017.097.094.11a.35.35 0 0 0 .19-.03.5.5 0 0 1 .148-.047c.064 0 .375-.161.473-.25.04-.036.074-.083.074-.11 0-.05.156-.061.186-.01.037.064.274.037.338-.034a.6.6 0 0 1 .182-.121 3 3 0 0 0 .186-.088q.061-.03.098.003c.02.02.064.037.094.037.068 0 .335.28.335.354 0 .078.243.068.32-.017a.4.4 0 0 1 .132-.087.9.9 0 0 0 .23-.172.6.6 0 0 1 .334-.192c.321-.074.713.047.912.28.186.215.348.434.375.508.014.037.04.068.064.068.02 0 .115.067.21.145.098.08.2.158.226.168.027.013.081.044.118.064.142.094.412.25.527.307.064.033.28.209.48.387s.412.37.48.421c.064.054.118.115.118.135 0 .047.85.9.898.9.017 0 .095.06.169.134.108.105.145.169.162.28s.058.178.159.28c.074.07.172.209.216.3a1 1 0 0 0 .149.232c.04.037.07.08.07.098 0 .02.132.175.298.343.327.344.388.418.48.593a.7.7 0 0 0 .114.162c.03.027.054.06.054.08 0 .062.142.338.223.435.04.051.105.159.149.243.04.084.084.162.101.172s.06.087.105.178c.04.088.098.186.125.22.06.067.118.164.186.313a.4.4 0 0 0 .08.124c.017.014.099.155.176.317.078.162.159.32.176.347.128.199.368.745.368.836 0 .06.014.134.03.168.02.03.054.101.082.159.077.161.135.259.256.434.112.162.162.297.196.526.01.08.068.168.172.276l.156.162h.31c.264 0 .325-.01.42-.078a.8.8 0 0 0 .256-.327c.034-.074.223-.27.263-.27.017 0 .065-.03.105-.066.105-.098.382-.125.557-.054.223.087.254.138.254.387v.222l.32.048c.365.05.551.124.693.272.054.054.118.101.145.101.054 0 .321.257.375.364.034.061.034.091-.003.135-.095.122-.183.172-.3.175-.126 0-.268.098-.268.19 0 .063.152.215.216.215.068 0 .335.303.46.518.088.159.101.213.101.449q0 .271.054.38c.078.152.078.34-.003.455-.037.05-.081.118-.101.148-.017.03-.065.101-.105.155a.83.83 0 0 0-.149.482c0 .095-.02.175-.054.212-.054.061-.101.371-.135.873-.01.138-.034.266-.05.283-.018.02-.031.084-.031.148a.4.4 0 0 1-.085.223.5.5 0 0 0-.084.141c0 .068-.409.418-.483.418-.047 0-.135.06-.226.152-.081.084-.166.151-.19.151-.02 0-.057.024-.08.05-.078.095-.402.287-.483.287-.044 0-.098.02-.119.044s-.138.064-.26.09c-.125.028-.23.058-.24.075-.01.014-.172.027-.364.027h-.345l-.044.125c-.027.07-.05.296-.057.505s-.027.408-.047.445a.4.4 0 0 0-.034.135c0 .084-.166.276-.294.34a2 2 0 0 0-.149.09.6.6 0 0 1-.202.075c-.318.067-.507.135-.612.222-.077.068-.128.084-.192.068-.078-.017-.125-.058-.277-.246-.024-.027-.098-.04-.21-.034-.155.01-.175.02-.185.088a.6.6 0 0 0 .057.229c.04.08.071.158.071.168s.024.07.05.135c.028.064.075.165.102.229s.05.125.05.135.038.1.085.202c.047.101.085.202.085.222 0 .024.03.078.067.125a.33.33 0 0 1 .068.162c0 .04.01.084.023.097.037.037.112.267.132.408.01.074.03.165.044.202.054.128.179.809.196 1.061.01.139.03.27.047.29a.6.6 0 0 1 .05.202c.011.091.031.196.048.233s.04.141.05.236c.01.09.031.283.048.42.014.139.044.32.064.405.02.084.054.243.075.35.023.112.084.294.138.412.054.114.098.225.098.242s.027.068.06.111c.035.044.095.179.136.3.057.175.064.246.04.354a1.4 1.4 0 0 0-.033.246c0 .07-.04.172-.102.263-.111.161-.192.215-.307.215-.064 0-.21.037-.351.091a2 2 0 0 0-.135.074c-.085.058-.17.068-.54.071-.51.004-.72.047-1.044.22l-.234.124-1.776-.01c-1.294-.01-1.793 0-1.844.027-.037.02-.172.064-.304.094-.129.03-.267.084-.304.118s-.19.125-.338.202c-.203.101-.284.165-.32.246-.065.131-.26.273-.7.502-.466.24-.473.243-.54.303a1 1 0 0 1-.196.111c-.145.064-.422.31-.422.371 0 .024-.105.142-.233.263-.16.155-.26.226-.318.226-.044 0-.101.02-.121.047-.051.06-.213.09-.595.11-.166.008-.317.031-.338.048-.017.017-.077.03-.138.03a.9.9 0 0 0-.304.101c-.2.102-.378.112-.47.03-.043-.043-.267-.036-.31.008-.04.04-.22.027-.493-.034a.46.46 0 0 0-.244-.004c-.077.03-.084.051-.084.243 0 .189-.01.22-.108.32-.061.06-.135.111-.166.111-.033 0-.07.03-.08.068-.031.097-.322.097-.379 0-.024-.037-.098-.074-.169-.085a.6.6 0 0 1-.186-.053.4.4 0 0 0-.135-.03 1 1 0 0 1-.28-.122 6 6 0 0 0-.304-.165c-.054-.03-.125-.064-.152-.081a14 14 0 0 0-.439-.199 2 2 0 0 0-.243-.094.33.33 0 0 1-.149-.084c-.03-.034-.084-.064-.115-.064a.14.14 0 0 1-.098-.048.7.7 0 0 0-.22-.1 2 2 0 0 1-.33-.152 2 2 0 0 0-.206-.115.33.33 0 0 1-.118-.124.28.28 0 0 0-.142-.125 1.4 1.4 0 0 1-.22-.098 2 2 0 0 0-.22-.114c-.047-.024-.128-.061-.178-.088a.6.6 0 0 0-.23-.047.5.5 0 0 1-.21-.04q-.073-.035-1.02-.051c-.52-.007-1.553-.027-2.296-.044l-1.351-.03-.091-.105c-.109-.118-.115-.178-.044-.347a1 1 0 0 0 .05-.3c0-.229.054-.42.156-.555a.4.4 0 0 0 .08-.155c0-.061.095-.253.14-.277.016-.013.03-.06.03-.108 0-.087.152-.434.206-.468.017-.01.03-.04.03-.07 0-.028.037-.095.084-.152.048-.054.085-.118.085-.145 0-.04.078-.185.257-.472.044-.074.098-.175.118-.229.02-.05.047-.09.064-.09.014 0 .034-.028.047-.061.01-.03.03-.081.048-.108.08-.138.108-.21.108-.277 0-.043.023-.107.05-.141a.3.3 0 0 0 .051-.111c0-.037.115-.314.213-.509.02-.044.125-.165.233-.276.108-.108.196-.212.196-.23 0-.016.023-.053.057-.077a.5.5 0 0 0 .095-.141c.02-.05.148-.202.28-.34.135-.135.243-.263.243-.28s.054-.081.118-.145c.065-.064.119-.145.119-.182 0-.078-.061-.276-.112-.374-.145-.266-.294-.596-.294-.647a.25.25 0 0 0-.05-.125.3.3 0 0 1-.051-.11.7.7 0 0 0-.068-.186.7.7 0 0 1-.067-.202c0-.098-.162-.33-.233-.33-.034 0-.118.074-.193.175-.118.158-.179.202-.554.384-.49.24-.61.283-.803.283-.075 0-.149.013-.16.034-.036.06-.337.04-.425-.027a.54.54 0 0 0-.24-.085c-.179-.023-.584-.141-.685-.202-.037-.02-.267-.044-.524-.05-.462-.014-.783-.081-.915-.196a.17.17 0 0 0-.091-.047c-.024 0-.04-.02-.04-.047a.4.4 0 0 0-.075-.145 1.5 1.5 0 0 1-.216-.347c-.027-.064-.071-.148-.088-.185a.6.6 0 0 1-.044-.22.6.6 0 0 0-.044-.225.3.3 0 0 1-.04-.111c0-.088-.146-.236-.314-.32-.44-.22-.666-.411-.666-.56 0-.05-.013-.1-.03-.11-.014-.01-.037-.115-.047-.233-.017-.189-.01-.236.07-.398.129-.252.29-.478.426-.593.115-.097.29-.377.29-.465 0-.027.038-.057.085-.07.047-.01.084-.04.084-.061 0-.06.132-.168.264-.222.088-.034.128-.034.186-.004.047.024.195.037.395.03l.32-.01v-.36l-.151-.06c-.149-.058-.335-.26-.338-.365a.3.3 0 0 0-.05-.12c-.048-.072-.045-.082.016-.139.071-.064.172-.128.29-.182a1 1 0 0 0 .186-.128c.064-.05.17-.125.233-.158.244-.132.237-.108.237-.725-.004-.438-.014-.572-.05-.623a.3.3 0 0 1-.052-.128.6.6 0 0 0-.067-.202c-.058-.118-.068-.209-.068-.55 0-.3-.013-.424-.05-.474-.037-.054-.051-.23-.068-.708-.007-.35-.024-.903-.034-1.226-.013-.368-.006-.613.014-.657.02-.037.05-.186.07-.334.038-.276.095-.438.227-.613a.4.4 0 0 0 .078-.155c0-.088.108-.276.226-.39.06-.062.112-.125.112-.146 0-.067.543-.657.648-.7.06-.027.169-.095.236-.156.068-.057.193-.138.277-.178a1 1 0 0 0 .176-.111.7.7 0 0 1 .196-.115c.152-.07.182-.1.223-.219.03-.09.074-.151.125-.172.094-.037.132-.168.07-.272-.023-.04-.053-.23-.067-.415-.037-.515-.077-.836-.121-.916q-.111-.202.077-.496c.064-.1.118-.195.118-.212 0-.047.284-.313.338-.313a.24.24 0 0 0 .115-.05.3.3 0 0 1 .125-.051c.06 0 .166-.169.166-.266a.7.7 0 0 1 .084-.19c.152-.248.186-.356.186-.599 0-.256.03-.374.162-.663.08-.18.233-.412.287-.432.013-.006.024-.03.024-.05 0-.05.273-.327.324-.327.02 0 .057-.02.078-.044.077-.098.33-.189.567-.205.21-.014.274-.034.425-.135q.184-.122.301-.122c.06 0 .128-.013.145-.03a.4.4 0 0 1 .17-.044l.134-.01.01-.276c.01-.27.014-.28.122-.364a.4.4 0 0 1 .233-.084c.068 0 .132-.017.142-.034.01-.02.05-.034.088-.034a.8.8 0 0 0 .226-.08c.23-.118.399-.189.45-.189.02 0 .12.074.219.168.098.091.206.169.243.169.094 0 .277.098.277.151 0 .024.024.061.05.085.028.023.051.067.051.097s.098.155.22.273l.223.22h.263c.257 0 .385-.038.52-.149.03-.027.058-.07.058-.098 0-.023.023-.1.054-.168l.09-.209a.78.78 0 0 1 .38-.354.7.7 0 0 0 .215-.131c.024-.03.065-.054.085-.054s.138-.098.257-.219c.182-.185.233-.219.303-.202"/></g></svg>