<svg width="89" height="89" xmlns="http://www.w3.org/2000/svg" xmlns:xlink="http://www.w3.org/1999/xlink" xml:space="preserve" overflow="hidden"><defs><clipPath id="clip0"><rect x="3936" y="2172" width="89" height="89"/></clipPath></defs><g clip-path="url(#clip0)" transform="translate(-3936 -2172)"><path d="M4025 2212 4025 2221 4016.06 2221 4016.17 2219.49 4016 2212Z" fill-rule="evenodd"/><path d="M4021 2235.3 4016.52 2243 4009 2238.7 4011.44 2234.96 4013.48 2231Z" fill-rule="evenodd"/><path d="M4007 2252.49 3998.65 2257 3994 2249.47 4001.05 2245.85 4002.38 2245Z" fill-rule="evenodd"/><path d="M3985 2252 3985 2261 3976 2261 3976 2252.06 3977.51 2252.17Z" fill-rule="evenodd"/><path d="M3966 2249.48 3961.7 2257 3954 2252.52 3958.3 2245 3962.04 2247.44Z" fill-rule="evenodd"/><path d="M3952 2238.74 3944.52 2243 3940 2235.29 3947.53 2231 3951.15 2237.5Z" fill-rule="evenodd"/><path d="M3945 2221 3936 2221 3936 2212 3944.94 2212 3944.83 2213.51Z" fill-rule="evenodd"/><path d="M3952 2194.66 3949.56 2198.71 3947.52 2203 3940 2198.34 3944.48 2190Z" fill-rule="evenodd"/><path d="M3966 2183.53 3959.5 2187.15 3958.26 2188 3954 2180.51 3961.71 2176Z" fill-rule="evenodd"/><path d="M3985 2172 3985 2180.94 3983.49 2180.83 3976 2181 3976 2172Z" fill-rule="evenodd"/><path d="M4007 2180.48 4002.34 2188 3998.29 2185.56 3994 2183.52 3998.66 2176Z" fill-rule="evenodd"/><path d="M4021 2198.35 4013.47 2203 4009.85 2195.95 4009 2194.62 4016.48 2190Z" fill-rule="evenodd"/></g></svg>