<svg xmlns="http://www.w3.org/2000/svg" width="400" height="200" viewBox="-9.285 1.288 56 28"><path fill="#fff" fill-rule="evenodd" d="M25.68 1.308a2.5 2.5 0 0 1-.368.034c-.305.004-1.526.152-1.825.221a4 4 0 0 1-.403.073 3 3 0 0 0-.263.052c-.088.02-.221.051-.298.065-.4.087-.755.173-.797.197a.2.2 0 0 1-.105.02c-.035-.006-.099.015-.14.042a.3.3 0 0 1-.158.055c-.043 0-.088.014-.099.035-.01.017-.063.035-.115.035s-.278.065-.499.141c-.22.08-.47.162-.547.186-.08.025-.176.063-.21.08-.117.062-.443.18-.492.18-.028 0-.049.013-.049.034 0 .017-.021.035-.05.035a1 1 0 0 0-.217.082c-.094.049-.179.08-.193.07-.014-.007-.042.01-.066.038a.16.16 0 0 1-.106.051c-.049 0-.34.125-.561.242-.028.017-.288.149-.579.293a7 7 0 0 0-.586.318c-.035.031-.063.042-.063.028s-.028-.007-.06.02a1 1 0 0 1-.168.1 1 1 0 0 0-.123.07.7.7 0 0 1-.123.069c-.123.059-.347.214-.361.248-.007.018-.032.028-.056.028a.65.65 0 0 0-.302.155c-.025.028-.063.052-.084.052-.025 0-.081.038-.127.087-.045.048-.098.086-.112.086a.7.7 0 0 0-.186.103.8.8 0 0 1-.19.104c-.02 0-.038.014-.038.035 0 .017-.024.034-.052.034a.1.1 0 0 0-.078.045c-.014.028-.112.1-.21.166-.102.062-.186.128-.186.141 0 .018-.021.028-.05.028-.027 0-.08.038-.119.086-.038.049-.087.083-.105.08-.017-.007-.088.034-.154.093a3 3 0 0 1-.176.138 7 7 0 0 0-.382.307l-.618.501c-.158.124-.287.249-.287.27-.004.024-.028.044-.057.044-.028 0-.052.014-.052.031s-.032.045-.07.056c-.039.01-.07.041-.07.065 0 .025-.04.062-.088.083-.056.028-.081.059-.067.093q.023.051-.028.035c-.028-.01-.165.1-.354.293a4 4 0 0 0-.306.332.7.7 0 0 1-.193.186c-.045 0-.126.104-.105.139.01.017.004.034-.017.034-.025 0-.078.042-.116.093-.042.055-.137.16-.207.238-.074.08-.123.153-.109.163q.015.023-.01.024c-.022 0-.099.083-.172.18-.078.1-.172.217-.211.262s-.067.09-.06.097a.5.5 0 0 1-.115.145.5.5 0 0 0-.123.166c0 .02-.032.065-.07.1-.039.034-.07.079-.07.1 0 .02-.04.083-.092.134-.049.052-.08.108-.07.125s0 .038-.025.048a.6.6 0 0 0-.13.183.8.8 0 0 1-.112.18c-.017.007-.028.034-.028.062a.2.2 0 0 1-.035.093c-.088.1-.207.304-.249.418-.025.069-.06.124-.074.124s-.028.024-.028.052a.5.5 0 0 1-.07.173.7.7 0 0 0-.08.19.4.4 0 0 1-.046.11.7.7 0 0 0-.084.2 1 1 0 0 1-.074.19c-.05.073-.172.456-.172.546 0 .048-.014.096-.032.107-.017.01-.038.062-.049.114-.01.055-.042.19-.07.304-.217.853-.256 2.054-.091 2.917.038.2.074.401.08.45.025.172.31.942.425 1.16.067.12.112.22.102.22-.018 0 .091.208.126.242.01.01.042.063.07.121.028.055.095.16.148.228a.7.7 0 0 1 .098.159c0 .014.039.069.088.12a.5.5 0 0 1 .087.115c0 .02.134.169.45.494.119.124.217.238.217.255 0 .014.014.028.035.028.018 0 .102.065.183.141.084.08.231.204.333.277.098.072.19.148.203.169.011.02.036.027.053.017.014-.01.088.038.158.104.074.065.182.141.242.172s.204.107.32.173a7 7 0 0 0 .628.314c.056.028.13.048.16.048.036 0 .075.025.085.056.01.03.042.048.07.038.025-.01.06-.007.077.01.035.028.414.166.593.21.06.014.169.046.246.066.291.08.565.142.667.152.06.004.193.024.298.049.105.02.217.038.246.038.028.003.287.017.578.034.323.02.744.02 1.106 0 .32-.017.61-.031.649-.031.038 0 .182-.02.316-.048.41-.083.87-.17 1.01-.183.07-.01.14-.031.151-.049.01-.017.053-.03.091-.03.07 0 .176-.028.432-.108a1 1 0 0 1 .179-.045.4.4 0 0 0 .112-.034.4.4 0 0 1 .102-.038c.08-.017.347-.114.484-.173l.228-.086a6 6 0 0 0 .506-.21.7.7 0 0 1 .185-.066c.025 0 .046-.018.046-.035 0-.02.021-.034.042-.034.056 0 .926-.432.976-.484.01-.01.105-.062.214-.114.108-.052.224-.124.26-.162.034-.038.08-.07.105-.07.02 0 .07-.027.108-.061.039-.031.102-.076.14-.097.183-.104.243-.138.302-.197.035-.031.078-.059.095-.059.021 0 .077-.038.13-.086s.109-.086.126-.086a.6.6 0 0 0 .158-.114c.067-.059.137-.107.154-.104.018.007.032-.014.032-.041s.014-.052.035-.052c.06 0 .348-.224.348-.273q.006-.042.028-.027c.01.013.13-.076.26-.2s.252-.225.273-.225.039-.024.039-.055c0-.028.014-.045.028-.035.035.02.15-.103.122-.131-.014-.01-.003-.02.018-.02.035 0 .218-.16.218-.187 0-.007.073-.087.168-.18.446-.46.835-.901.828-.946 0-.01.05-.073.116-.138.063-.066.109-.142.098-.166-.007-.02.007-.041.032-.041.028 0 .07-.049.098-.104.025-.059.056-.104.07-.104.018 0 .028-.017.028-.034 0-.02.028-.066.063-.104.032-.034.092-.124.13-.197.035-.072.084-.155.109-.183.102-.127.579-1.108.645-1.329.025-.076.06-.17.081-.207a1 1 0 0 0 .063-.173l.081-.307c.298-1.067.246-2.559-.12-3.353-.041-.097-.09-.207-.108-.252a1.7 1.7 0 0 0-.137-.283 1 1 0 0 1-.07-.121c-.07-.138-.358-.55-.393-.563-.014-.007-.028-.024-.028-.041 0-.07-.828-.795-.909-.795a.05.05 0 0 1-.046-.03c-.01-.035-.203-.153-.343-.215a1 1 0 0 1-.14-.069 4.4 4.4 0 0 0-.738-.304 4 4 0 0 1-.245-.08 1 1 0 0 0-.176-.05l-.333-.05c-.607-.092-1.86-.065-2.003.046a.12.12 0 0 1-.099.006.5.5 0 0 0-.22.035l-.432.128a2 2 0 0 0-.298.1 1 1 0 0 1-.2.072c-.095.025-.169.06-.169.073 0 .014-.024.028-.056.028-.053 0-.355.151-.414.21a.2.2 0 0 1-.098.031c-.036 0-.063.01-.063.028 0 .014-.046.045-.099.069-.13.055-.582.352-.596.39-.007.018-.032.031-.056.031-.025 0-.088.045-.144.104-.056.055-.12.103-.14.103-.043 0-.965.902-.965.943 0 .024-.148.193-.34.39-.025.024-.047.052-.047.066 0 .01-.031.052-.07.093a.8.8 0 0 0-.112.17c-.025.051-.056.086-.07.079-.014-.01-.028.003-.028.03 0 .025-.039.084-.088.129s-.088.1-.088.12c0 .025-.031.07-.07.104-.038.035-.07.08-.07.104s-.032.069-.067.103c-.119.104-.319.466-.319.577 0 .062.028.128.063.152.07.055.239.062.298.014.14-.11.264-.197.348-.239a.7.7 0 0 0 .165-.113.3.3 0 0 1 .098-.063c.017 0 .067-.034.116-.08a.4.4 0 0 1 .112-.078c.01.003.06-.028.105-.066.046-.038.137-.097.207-.131a.6.6 0 0 0 .172-.11c.025-.029.056-.053.074-.053a1 1 0 0 0 .203-.12 1 1 0 0 1 .204-.121c.021 0 .077-.038.126-.083.05-.045.099-.076.105-.066.022.017.148-.048.246-.124.032-.028.06-.038.06-.02 0 .013.024.006.052-.018.081-.066.372-.207.428-.207a.3.3 0 0 0 .11-.031c.182-.09.49-.19.76-.246.117-.02.25-.055.299-.075.137-.052 1.379-.077 1.684-.028.144.02.323.045.397.059.07.01.14.03.15.048.011.017.046.031.078.031.133 0 .575.259.779.46.298.293.386.503.403.99.007.256-.066.712-.126.774a.17.17 0 0 0-.032.096c0 .031-.073.197-.161.363-.091.166-.18.338-.204.38-.02.045-.049.08-.063.08-.017 0-.028.017-.028.037 0 .021-.056.094-.123.163a.7.7 0 0 0-.123.155c0 .017-.077.11-.171.207-.095.1-.218.235-.27.3-.166.197-.923.898-1.008.93-.042.013-.2.148-.35.286-.057.055-.123.097-.151.097s-.05.014-.05.03c0 .018-.066.07-.147.118a1.6 1.6 0 0 0-.22.152c-.04.035-.13.09-.2.124a1 1 0 0 0-.176.104.8.8 0 0 1-.169.104c-.066.034-.186.1-.263.145-.15.09-.772.397-.803.397-.014 0-.102.038-.204.086a1.2 1.2 0 0 1-.21.086.8.8 0 0 0-.176.07.7.7 0 0 1-.203.068.2.2 0 0 0-.092.028.7.7 0 0 1-.19.073 5 5 0 0 0-.262.08 2 2 0 0 1-.19.044.25.25 0 0 0-.119.048.2.2 0 0 1-.109.038c-.042 0-.214.031-.39.066-.301.065-.48.09-1.203.18-.565.072-1.533-.032-2.13-.228-.417-.135-.986-.418-1.045-.522-.018-.027-.042-.041-.06-.03-.038.023-.737-.65-.737-.705 0-.024-.028-.07-.06-.107-.087-.094-.378-.677-.431-.864l-.07-.241c-.105-.322-.148-.694-.13-1.192.007-.286.025-.549.035-.587s.028-.159.042-.269a.6.6 0 0 1 .056-.218c.018-.01.032-.062.032-.12 0-.056.014-.128.032-.163.017-.03.056-.138.087-.231.081-.26.162-.47.221-.587.106-.197.116-.225.116-.276 0-.028.018-.052.035-.052.021 0 .035-.024.035-.052 0-.052.067-.19.109-.224a1 1 0 0 0 .08-.121c.032-.059.099-.166.145-.242a3 3 0 0 0 .112-.19.5.5 0 0 1 .074-.1c.024-.028.084-.104.13-.173a1 1 0 0 1 .136-.172c.032-.024.056-.062.056-.08 0-.017.078-.114.172-.21.095-.1.221-.242.278-.318.122-.166 1.684-1.71 1.73-1.71.017 0 .13-.093.252-.207.123-.113.288-.248.361-.296a.7.7 0 0 0 .148-.121c.007-.018.031-.031.052-.031.025 0 .102-.056.172-.121a.6.6 0 0 1 .158-.121.8.8 0 0 0 .151-.104c.067-.058.14-.103.165-.103s.046-.018.046-.035c0-.02.024-.034.052-.034s.053-.018.053-.035c0-.02.024-.034.053-.034.024 0 .063-.021.077-.045s.119-.1.231-.166l.369-.21c.09-.053.217-.122.28-.15.06-.027.113-.068.113-.085 0-.021.017-.035.038-.035.035 0 .604-.266.734-.345.084-.052.361-.173.393-.173.014 0 .13-.048.256-.104a1.4 1.4 0 0 1 .277-.103.13.13 0 0 0 .088-.049.16.16 0 0 1 .101-.048.6.6 0 0 0 .214-.069.8.8 0 0 1 .218-.076c.035 0 .074-.017.084-.034.01-.021.053-.035.091-.035a.4.4 0 0 0 .13-.031c.032-.017.13-.052.218-.073a3 3 0 0 0 .21-.062c.393-.141 1.274-.349 1.867-.438.2-.031.45-.073.554-.094.106-.02.25-.04.316-.048.067-.003.32-.024.561-.045a13.6 13.6 0 0 1 2.053 0c.232.024.47.045.527.049a1 1 0 0 1 .238.048c.074.024.155.034.186.024a.26.26 0 0 1 .13.01c.042.018.196.06.34.09.253.055.432.104.58.156.038.013.133.045.21.065.077.024.228.083.333.132.105.048.225.1.263.113.039.018.123.049.186.076.06.025.112.056.112.07 0 .017.032.027.07.027.04 0 .07.014.07.035 0 .017.04.041.085.055a.3.3 0 0 1 .147.086c.032.035.077.066.102.066s.07.03.105.069c.035.038.078.069.095.069s.074.038.123.083.112.076.14.065q.047-.02.025.038-.02.054.028.056c.056 0 .87.8.87.856 0 .017.025.052.053.076.066.055.263.338.263.376 0 .018.024.049.053.073.031.024.087.11.126.186.038.08.098.197.133.263.102.19.2.414.274.621.133.363.154.432.172.515.01.048.028.1.038.117.025.038.067.339.12.853.063.636-.025 1.633-.193 2.21-.028.086-.067.224-.092.31a4 4 0 0 1-.07.225 8 8 0 0 0-.105.328 5 5 0 0 1-.175.466 13 13 0 0 0-.25.56c-.028.062-.06.114-.073.114-.018 0-.028.027-.028.065a.17.17 0 0 1-.053.108c-.032.024-.045.051-.038.062.01.007-.022.076-.07.148-.05.076-.078.152-.067.17.014.02.003.034-.021.034-.057 0-.134.107-.137.18 0 .034-.014.062-.035.062-.018 0-.035.024-.035.051 0 .031-.039.097-.088.149a1 1 0 0 0-.133.186c-.022.056-.053.097-.067.097-.018 0-.028.02-.028.048 0 .025-.025.066-.053.09a.5.5 0 0 0-.109.159c-.031.066-.07.117-.087.117-.018 0-.032.021-.032.042 0 .024-.077.124-.172.224s-.165.187-.158.19c.014.014-.361.473-.515.636-.057.058-.092.113-.081.127.014.014 0 .024-.032.024-.031 0-.06.018-.06.035 0 .041-1.305 1.323-1.582 1.557-.105.087-.284.235-.4.328-.28.221-.27.211-.368.294-.299.245-.38.307-.41.307a.6.6 0 0 0-.152.121c-.066.066-.137.121-.158.121-.024 0-.07.031-.105.069s-.088.07-.116.07c-.031 0-.042.02-.028.05q.016.055-.024.046c-.05-.01-.41.217-.41.255 0 .018-.015.028-.032.028s-.186.1-.369.224a3 3 0 0 1-.358.225c-.035 0-.379.248-.393.283-.007.014-.042.028-.08.028-.035 0-.067.01-.067.024 0 .017-.035.045-.08.065-.345.173-.446.232-.446.263 0 .02-.022.027-.05.017s-.077.01-.108.045a1.3 1.3 0 0 1-.285.176 2 2 0 0 0-.29.173c-.036.034-.078.052-.088.041-.011-.014-.05 0-.081.031a4 4 0 0 1-.397.214c-.182.094-.428.214-.547.277a8 8 0 0 1-.39.183.8.8 0 0 0-.2.11c-.014.02-.045.028-.073.014-.028-.01-.053 0-.053.02 0 .021-.031.039-.066.039-.04 0-.081.013-.092.034-.02.031-.098.07-.438.214a3 3 0 0 0-.21.1 1 1 0 0 1-.141.07c-.05.017-.133.058-.19.086a.5.5 0 0 1-.133.048.8.8 0 0 0-.176.07 1 1 0 0 1-.175.068.8.8 0 0 0-.175.07 1 1 0 0 1-.176.068c-.014 0-.108.038-.21.087a1 1 0 0 1-.239.086c-.031 0-.07.01-.08.024-.025.024-.257.11-.587.218-.105.034-.238.08-.298.103a3 3 0 0 1-.403.138c-.088.025-.19.056-.228.07a7 7 0 0 1-.228.069c-.088.024-.19.055-.228.069a6 6 0 0 1-.422.124c-.017.003-.207.055-.42.11-.211.056-.474.121-.58.145a7 7 0 0 0-.358.09 1 1 0 0 1-.245.049c-.046 0-.098.013-.116.03a.6.6 0 0 1-.193.049c-.088.01-.246.035-.35.055a20.5 20.5 0 0 1-3.088.332c-.969.045-2.902-.19-3.292-.394a.3.3 0 0 0-.122-.034.3.3 0 0 1-.13-.028 5 5 0 0 0-.228-.08 4 4 0 0 1-.369-.148 3 3 0 0 0-.263-.107.4.4 0 0 1-.088-.038 6 6 0 0 0-.193-.107c-.35-.18-.863-.511-.887-.573-.007-.014-.032-.028-.053-.028-.05 0-1.035-.967-1.035-1.012 0-.017-.032-.069-.074-.114a.4.4 0 0 1-.073-.1c0-.01-.067-.114-.151-.235-.13-.183-.551-.973-.551-1.032a5 5 0 0 1-.28-.874l-.085-.38c-.133-.573-.162-.883-.158-1.795 0-.932.028-1.209.242-2.417.074-.418.158-.808.186-.832.014-.014.025-.07.025-.125s.024-.148.056-.203c.028-.06.045-.128.035-.156-.01-.024.003-.09.031-.141a.5.5 0 0 0 .053-.173c0-.041.018-.086.035-.097.021-.01.035-.058.035-.103s.014-.09.032-.1q.047-.03.095-.439c.017-.148.01-.166-.085-.231-.09-.066-.108-.066-.172-.024-.038.027-.08.038-.094.027-.01-.01-.021-.003-.021.02 0 .035-.113.173-.278.34-.024.027-.038.055-.028.065.007.01-.031.069-.084.131-.105.114-.453.597-.453.625 0 .007-.084.145-.189.3-.102.16-.221.35-.263.425s-.088.163-.109.19c-.08.128-.35.698-.35.743 0 .027-.015.051-.036.051-.017 0-.035.021-.035.045s-.032.11-.07.19a.7.7 0 0 0-.07.18c0 .034-.018.076-.099.231a.4.4 0 0 0-.042.138.25.25 0 0 1-.052.128.3.3 0 0 0-.053.131c0 .035-.014.09-.032.124-.06.11-.178.518-.178.601 0 .045-.014.097-.032.114-.021.021-.042.09-.05.16a.5.5 0 0 1-.038.161 3 3 0 0 0-.077.36c-.056.355-.105.48-.175.452-.042-.014-.05.2-.05 1.315 0 1.05.011 1.333.046 1.333.07 0 .123.118.165.37.025.128.056.29.08.355.022.066.04.152.043.19.007.038.024.114.045.173.022.055.057.173.081.259.07.266.18.566.228.646.028.041.05.093.05.114a.7.7 0 0 0 .07.18c.038.079.07.165.07.19 0 .023.017.044.035.044.02 0 .035.028.038.059 0 .034.064.169.137.304.074.13.162.293.197.352.031.062.07.114.087.114.018 0 .032.03.032.069 0 .038.018.069.035.069.021 0 .035.02.035.045 0 .027.032.076.07.11.039.035.07.08.07.1s.046.087.099.149c.172.193.217.252.217.273 0 .01.021.038.046.062.021.024.123.135.217.249.372.428 1.148 1.142 1.229 1.125.031-.007.045.01.035.035-.01.027.02.062.077.086s.168.097.256.166c.088.065.182.131.21.145a.5.5 0 0 1 .099.069c.028.024.063.038.08.028.018-.014.032 0 .032.024 0 .027.042.065.098.086.092.041.127.062.33.19.05.034.116.062.144.062s.063.024.074.055c.014.031.045.049.073.035.032-.01.063.003.074.031a.1.1 0 0 0 .084.052c.039 0 .077.017.088.038.021.03.45.238.495.238.01 0 .101.038.2.083.452.2.519.228.565.228.028 0 .06.014.07.03.01.018.056.039.098.05.046.01.214.058.379.11.621.193.863.259.954.259.053 0 .106.017.116.038.014.02.074.03.137.027.06-.007.126 0 .147.014.064.035.713.17.744.149.018-.01.091.003.169.027.073.028.238.059.365.07.126.013.322.037.438.058.428.07 1.67.148 2.316.145.61 0 2.031-.097 2.667-.183.136-.017.326-.038.42-.045.099-.01.246-.031.334-.052s.372-.069.632-.11c.26-.042.6-.104.754-.138.154-.038.393-.09.526-.121.137-.031.27-.066.298-.076a1 1 0 0 1 .158-.031.4.4 0 0 0 .137-.049c.021-.02.074-.034.123-.034.088 0 .291-.055.396-.107a.3.3 0 0 1 .127-.031c.031 0 .147-.031.253-.073.105-.038.228-.076.27-.08a.3.3 0 0 0 .13-.05c.028-.025.066-.035.084-.025.017.01.073-.007.126-.035a.6.6 0 0 1 .165-.048c.035 0 .074-.017.084-.035.01-.02.06-.034.105-.034.046 0 .095-.017.106-.035.01-.02.06-.034.105-.034s.095-.017.105-.035c.01-.02.053-.034.091-.034.064 0 .285-.087.499-.194a.5.5 0 0 1 .15-.048.8.8 0 0 0 .2-.065c.197-.083.516-.215.604-.246.039-.013.19-.08.333-.148.144-.066.323-.145.393-.176a.5.5 0 0 0 .151-.09c.01-.02.05-.035.088-.035.035 0 .154-.048.263-.103a1 1 0 0 1 .25-.104c.027 0 .048-.017.048-.034 0-.021.021-.035.046-.035a1 1 0 0 0 .235-.103c.105-.056.25-.128.316-.163a.6.6 0 0 0 .14-.08c.01-.01.112-.065.228-.123.334-.173.562-.3.572-.332.007-.014.042-.028.08-.028.036 0 .068-.013.068-.03s.028-.039.063-.052c.098-.031.438-.225.526-.3.042-.035.102-.066.13-.066s.053-.018.053-.035c0-.02.02-.035.045-.035.028 0 .077-.03.112-.069.036-.038.078-.069.092-.069.028 0 .256-.141.337-.207a.2.2 0 0 1 .063-.034c.02 0 .69-.45.719-.48a.7.7 0 0 1 .12-.073 1.6 1.6 0 0 0 .27-.2 1.2 1.2 0 0 1 .185-.145c.032 0 .527-.366.639-.477.025-.02.056-.041.07-.041s.109-.073.21-.166c.334-.29.495-.421.52-.421.014 0 .133-.104.267-.235.136-.128.256-.228.266-.22.014.006.042-.025.064-.07.02-.045.06-.08.084-.08s.045-.013.052-.034a.7.7 0 0 1 .148-.152c.19-.162 1.07-1.036 1.161-1.153a4 4 0 0 1 .288-.314c.12-.121.217-.235.217-.25s.07-.1.155-.186c.087-.086.193-.203.238-.265.165-.225.397-.511.425-.522.014-.007.024-.034.024-.062s.018-.048.035-.048q.034-.002.036-.035c0-.017.07-.124.157-.238.088-.11.158-.214.158-.225a.4.4 0 0 1 .085-.113c.049-.052.077-.108.066-.125s-.003-.041.014-.055c.067-.045.26-.342.386-.59a1 1 0 0 1 .081-.139q.033-.027.277-.459a.6.6 0 0 0 .074-.18c0-.027.017-.051.035-.051.021 0 .035-.028.038-.062a.4.4 0 0 1 .067-.163 4 4 0 0 0 .27-.535c.028-.066.067-.148.085-.18a.3.3 0 0 0 .031-.113c0-.028.018-.052.035-.052.021 0 .035-.021.035-.045s.039-.128.088-.225c.05-.1.088-.2.088-.228s.017-.062.035-.072c.02-.01.035-.055.035-.1 0-.042.014-.09.032-.107.038-.045.172-.4.231-.622.05-.186.112-.373.158-.483a.7.7 0 0 0 .046-.156c.01-.048.06-.241.112-.431a6 6 0 0 0 .109-.432 4 4 0 0 1 .049-.259 8 8 0 0 0 .073-.38c.043-.231.081-.3.158-.269.043.014.05-.249.05-1.854 0-1.537-.008-1.868-.046-1.855-.067.025-.12-.076-.165-.324a4 4 0 0 0-.175-.636 2 2 0 0 1-.074-.241 1 1 0 0 0-.07-.207c-.018-.018-.032-.063-.032-.104a.2.2 0 0 0-.028-.104 2 2 0 0 1-.13-.276 6.3 6.3 0 0 0-.568-1.06 1 1 0 0 1-.116-.193c0-.018-.032-.06-.07-.094s-.07-.079-.07-.103-.035-.07-.074-.107a2 2 0 0 1-.207-.242c-.179-.235-.85-.898-1.088-1.074a3 3 0 0 1-.27-.214c-.042-.041-.091-.072-.109-.072-.017 0-.06-.031-.095-.07-.035-.037-.077-.069-.094-.069s-.063-.03-.105-.069c-.043-.038-.106-.069-.14-.069-.04 0-.06-.014-.05-.027.01-.018-.031-.056-.095-.087a6 6 0 0 1-.252-.145 16 16 0 0 0-.948-.466 4 4 0 0 1-.235-.1.8.8 0 0 0-.235-.072c-.035 0-.077-.025-.088-.056-.01-.027-.038-.041-.056-.03-.02.013-.06.003-.087-.018a.5.5 0 0 0-.165-.07l-.485-.137a12 12 0 0 0-.508-.138l-.386-.087c-.516-.117-.993-.186-1.825-.262-.516-.048-1.72-.07-1.895-.031"/></svg>