<svg xmlns="http://www.w3.org/2000/svg" width="400" height="200" viewBox="-269.128 -6.564 1050.254 525.127"><path fill="#fff" d="M256.001 206.733c-27.165 0-49.266 22.101-49.266 49.266 0 27.166 22.101 49.268 49.266 49.268 27.166 0 49.268-22.102 49.268-49.268 0-27.165-22.102-49.266-49.268-49.266"/><path fill="#fff" d="M511.389 280.791c-4.106-57.747-28.938-112.119-69.921-153.102-36.954-36.956-86.088-57.31-138.35-57.31-30.536 0-60.007 6.95-86.601 20.098 32.74-27.669 73.783-42.743 117.144-42.743 31.824 0 63.141 8.332 90.562 24.094 6.896 3.964 15.688 1.855 20.036-4.806s2.741-15.558-3.663-20.275C399.087 16.165 349.766 0 297.963 0 233.64 0 173.168 25.049 127.688 70.533 66.877 131.344 54.547 222.566 90.69 295.715 41.7 237.768 33.541 154.382 71.826 87.775c3.964-6.896 1.855-15.688-4.806-20.036s-15.557-2.741-20.275 3.663C12.93 117.299-3.455 174.053.609 231.21c4.105 57.745 28.938 112.118 69.924 153.103 36.954 36.957 86.088 57.31 138.348 57.31 30.535 0 60-6.947 86.595-20.096-32.742 27.669-73.784 42.741-117.144 42.741-31.824 0-63.138-8.33-90.558-24.09-6.895-3.963-15.687-1.854-20.035 4.806s-2.74 15.559 3.664 20.276c41.509 30.578 90.828 46.74 142.627 46.739 64.326-.002 124.802-25.051 170.284-70.534 60.807-60.807 73.141-152.017 37.005-225.162 48.984 57.944 57.139 141.319 18.854 207.924-3.964 6.896-1.855 15.688 4.806 20.036 6.659 4.349 15.557 2.741 20.275-3.663 33.815-45.897 50.199-102.652 46.135-159.809m-255.388 54.476c-43.707 0-79.266-35.56-79.266-79.268s35.559-79.266 79.266-79.266 79.268 35.559 79.268 79.266-35.56 79.268-79.268 79.268"/></svg>