<svg xmlns="http://www.w3.org/2000/svg" width="400" height="200" viewBox="-25.354 0.146 100.707 50.354"><path d="M23.4 1.4c-.9 2.3 0 5.1 1.6 5.1 1 0 1.5-1 1.5-2.9 0-3.2-2.1-4.7-3.1-2.2M12.5 4.2c-.8 2 1.2 6.1 2.8 5.5 1.9-.6 1.8-2.3-.2-4.8-1.7-2.1-2-2.2-2.6-.7m21.9 1.3c-1.3 2-1.4 2.9-.5 3.8 1 .9 1.6.8 2.7-.7.8-1.1 1.4-2.5 1.4-3.2 0-2.5-1.9-2.4-3.6.1M3.5 13.1c-.7 1.1 2.2 3.8 4.2 3.9 2.3 0 2.3-1.9.1-3.4-2.6-1.9-3.5-2-4.3-.5m38.6.5c-1.6 1.2-2 1.9-1.2 2.7 1.3 1.3 6.3-1.1 5.8-2.7-.6-1.7-2.1-1.7-4.6 0M0 25.5c0 1 1.1 1.5 3.5 1.5S7 26.5 7 25.5 5.9 24 3.5 24 0 24.5 0 25.5m43 0c0 1 1.1 1.5 3.5 1.5s3.5-.5 3.5-1.5-1.1-1.5-3.5-1.5-3.5.5-3.5 1.5M4.6 35.9C3.4 37.2 3.2 38 4 38.5c1.4.9 6.3-2.3 5.5-3.5-1-1.6-3-1.2-4.9.9m35.9-.9c-.3.5.6 1.7 2 2.6 2 1.3 2.9 1.4 3.7.6.9-.9.7-1.6-.8-2.7-2.2-1.7-4-1.9-4.9-.5m-27.3 8c-1.4 2.4-1.6 5-.2 5s4.3-4.8 3.5-6c-.9-1.5-1.9-1.2-3.3 1m20.3-1c-.4.6.1 2.2 1 3.7 2.2 3.4 4.4 1.6 2.7-2.2-1.2-2.6-2.6-3.2-3.7-1.5m-10.1 3.4c-.9 2.3 0 5.1 1.6 5.1 1 0 1.5-1 1.5-2.9 0-3.2-2.1-4.7-3.1-2.2"/></svg>