<svg xmlns="http://www.w3.org/2000/svg" width="400" height="200" viewBox="-269.063 -6.531 1050.125 525.063"><path fill="#fff" d="M488.16 260.524c18.42 1.637 30.367-18.852 19.999-34.112v-.001c-38.186-56.2-101.116-90.791-169.424-92.958 9.377-33.304 26.83-61.407 37.262-76.245 10.62-15.1-1.099-35.718-19.541-34.378-68.108 4.994-129.353 42.472-165.203 100.262-24.144-24.755-39.755-53.904-47.413-70.408-7.781-16.77-31.509-16.874-39.544-.261-30.241 62.543-27.331 134.294 4.232 193.196-33.515 8.533-66.571 7.477-84.684 5.857-18.418-1.637-30.372 18.846-20.004 34.108 39.216 57.72 102.942 90.833 169.434 92.94-9.368 33.295-26.813 61.396-37.27 76.269-10.625 15.112 1.123 35.719 19.536 34.377 67.786-4.97 129.181-42.195 165.206-100.265 24.151 24.763 39.766 53.922 47.417 70.412 7.778 16.767 31.505 16.883 39.54.265 30.125-62.299 27.466-134.054-4.229-193.2 33.515-8.534 66.57-7.479 84.686-5.858M15.446 30.028c8.283 0 14.998-6.715 14.998-14.998S23.73.032 15.446.032C6.154.032.031 7.192.031 15.03c.001 7.811 6.096 14.998 15.415 14.998m-.625 122.985c0 7.859 6.142 14.998 15.415 14.998 8.283 0 14.998-6.715 14.998-14.998s-6.715-14.998-14.998-14.998c-9.259 0-15.415 7.128-15.415 14.998m58.993 259.596c-8.283 0-14.998 6.715-14.998 14.998 0 7.859 6.142 14.998 15.415 14.998 8.283 0 14.998-6.715 14.998-14.998 0-7.858-6.141-14.998-15.415-14.998M15.03 481.972c-8.283 0-14.998 6.715-14.998 14.998 0 7.811 6.096 14.998 15.415 14.998 8.283 0 14.998-6.715 14.998-14.998 0-7.811-6.096-14.998-15.415-14.998m481.524 0c-8.283 0-14.998 6.715-14.998 14.998 0 7.859 6.142 14.998 15.415 14.998 8.283 0 14.998-6.715 14.998-14.998 0-7.858-6.142-14.998-15.415-14.998"/><path fill="#fff" d="M320.784 459.233c-8.283 0-14.998 6.715-14.998 14.998 0 7.816 6.1 14.998 15.414 14.998 8.283 0 14.998-6.715 14.998-14.998 0-7.816-6.099-14.998-15.414-14.998M426.187 30.028c8.283 0 14.998-6.715 14.998-14.998 0-7.816-6.1-14.998-15.414-14.998-8.283 0-14.998 6.715-14.998 14.998 0 7.816 6.1 14.998 15.414 14.998m40.995 92.988c8.283 0 14.998-6.715 14.998-14.998s-6.715-14.998-14.998-14.998c-9.288 0-15.414 7.158-15.414 14.998 0 7.816 6.1 14.998 15.414 14.998"/></svg>