<svg xmlns="http://www.w3.org/2000/svg" width="400" height="200" data-name="Layer 1" viewBox="-31.590 0.205 127.179 63.590"><path fill="#fff" d="M63 32s-2.64.5-7.59 1-12.2 1-21.41 1c0 18.42-2 29-2 29s-.5-2.64-1-7.59-1-12.2-1-21.41c-18.42 0-29-2-29-2s2.64-.5 7.59-1 12.2-1 21.41-1c0-18.42 2-29 2-29s2 10.58 2 29c18.42 0 29 2 29 2"/><path fill="#fff" d="M34 28c6-8 12-10 12-10a43.3 43.3 0 0 1-10 12m-8 0c-8-6-10-12-10-12a43.3 43.3 0 0 1 12 10m0 8c-6 8-12 10-12 10a43.3 43.3 0 0 1 10-12m8 0c8 6 10 12 10 12a43.3 43.3 0 0 1-12-10"/><circle cx="32" cy="32" r="5" fill="#fff"/></svg>