<svg xmlns="http://www.w3.org/2000/svg" width="400" height="200" viewBox="-348.456 -12.302 1992.684 996.342"><g fill="#fff" fill-rule="evenodd"><path d="m1256.09 215.974-2.71-5.317c-41.14-83.328-111.21-148.339-197.12-182.992C940.2-19.15 808.69-5.676 704.81 63.919c-67.63 45.154-140.11 83.492-215.55 113.458-62.15 24.767-126.94 44.035-192.45 57.737-111.56 23.205-205.05 94.249-256.26 195.019-50.62 99.318-53.39 214.557-7.54 316.046l4.16 9.068C76.41 842.242 146.4 909.54 234.67 945.15c54.12 21.83 113.42 30.33 171.4 24.79 128.85-12.64 255.57-41.99 376.18-87.096 127.94-48.069 248.9-113.942 359.48-195.41 147.39-108.855 195.49-307.171 114.36-471.46m-487.7 630.027c-117.44 44.062-240.7 72.689-365.99 84.869-51.87 5.05-104.76-2.56-153.08-22.05-78.82-31.792-141.56-91.944-176.54-169.617l-3.97-8.994c-41.05-90.892-38.68-193.623 6.56-282.227 45.91-90.239 129.45-153.894 229.37-174.405 67.83-14.241 134.84-34.302 198.96-59.755 77.99-31.049 153.02-70.471 223.05-117.399 93.14-62.317 210.79-74.413 314.86-32.433 77 31.063 139.86 89.361 176.7 163.985l2.71 5.317c72.56 147.317 29.46 324.845-102.66 422.544a1432.6 1432.6 0 0 1-349.97 190.165"/><path d="m1188.83 249.272-2.71-5.318c-38.54-78.265-109-136.039-193.31-158.432-84.05-22.501-173.88-7.634-246.18 40.706-72.04 48.232-149.43 88.811-229.72 120.835-66.15 26.319-135.13 47.066-204.96 61.555-89.19 18.507-163.8 75.205-204.69 155.639-40.24 78.8-42.36 170.439-5.72 251.317l-.07.182 4.05 8.813a292.03 292.03 0 0 0 157.03 150.98c42.32 17.071 88.77 24.411 136.28 19.708 122.23-11.937 242.4-39.699 357.12-82.752 121.38-45.433 236.12-107.905 341.3-185.425 118.01-87.339 156.55-246.224 91.58-377.808m-847.1 249.379c-5.19 7.622-14.98 10.431-23.34 7.06-1.27-.512-2.65-1.28-3.84-1.975l-43.16-29.655c-8.93-6.136-11.15-18.435-5.01-27.363 6.06-8.747 18.18-11.039 27.18-5.085l43.15 29.656c8.93 6.135 11.15 18.434 5.02 27.362m7.67 212.371 9.69-4.117c9.94-4.227 21.56.462 25.79 10.403 4.22 9.94-.39 21.382-10.33 25.609l-9.94 4.226c-4.85 2.059-10.3 1.97-15.02.065-4.54-1.832-8.53-5.552-10.59-10.395-4.23-9.941.46-21.565 10.4-25.791m245.92-251.564c-5.43 3.511-12.16 3.965-17.79 1.694-3.81-1.539-7-4.094-9.14-7.701l-26.43-41.281c-5.83-9.108-3.03-21.283 6.08-27.112s21.28-3.029 27.11 6.08l26.25 41.207c5.83 9.109 3.03 21.284-6.08 27.113M337.69 634.509c-14.23-42.255 84.99-114.908 125.54-130.911 40.56-16.003 82.84-3.742 117.77 34.893 14.27 25.05 52.6 46.663 42.81 75.15.55 37.489-93.53 50.899-175.59 86.461-37.38 16.081-114.56-55.604-110.53-65.593M735.1 301.921c8.13-7.068 20.49-6.304 27.74 1.899l36.43 41.092a19.627 19.627 0 0 1-1.71 27.816c-5.84 5.038-13.66 6.106-20.38 3.396-2.72-1.099-5.15-2.925-7.18-5.222l-36.54-41.347c-7.14-7.948-6.38-20.311 1.64-27.634m223.26-48.265c7.32 8.023 6.81 20.277-1.21 27.6l-32.38 30.018c-5.73 5.293-13.81 6.469-20.71 3.685-2.54-1.025-4.97-2.851-7.07-4.966-7.15-7.949-6.75-20.458 1.2-27.599l32.57-29.945c8.02-7.323 20.27-6.815 27.6 1.207m42.1 190.36-12.18-50.95c-2.51-10.517 3.84-21.045 14.36-23.56 10.7-2.442 21.23 3.916 23.74 14.434l12.18 50.95c2.52 10.517-4.02 20.972-14.54 23.487-4.04 1.115-8.29.667-11.92-.799-5.64-2.271-10.17-7.266-11.64-13.562m-31.48 106.828c-4.03 9.989-15.31 14.939-25.49 10.836-9.98-4.029-15.59-15.792-11.56-25.781 4.03-9.99 14.59-15.232 24.58-11.203l1.64.66c10.17 4.102 14.86 15.499 10.83 25.488M836.84 508.31c-4.3 1.224-8.55.776-12.36-.763-5.63-2.271-10.06-7.012-11.6-13.126l-7.31-27.442c-2.77-10.409 3.48-21.192 13.89-23.962s21.2 3.48 23.97 13.889l7.3 27.442c2.77 10.41-3.48 21.192-13.89 23.962M621.6 690.103l31.36 8.637c10.32 2.685 16.47 13.613 13.71 24.115-2.87 10.247-13.61 16.471-24.11 13.713l-31.36-8.637c-.73-.293-1.53-.405-2.08-.625-9.08-3.663-14.28-13.788-11.64-23.491 2.87-10.247 13.62-16.471 24.12-13.712m64.62-163.356 8.28-20.524c4.03-9.989 15.5-14.865 25.49-10.835s14.87 15.499 10.84 25.488l-8.28 20.523c-4.03 9.99-15.5 14.866-25.49 10.836s-14.86-15.499-10.84-25.488m80.75 147.45c-5.58-9.218-2.59-21.319 6.8-26.82l50.97-30.546c9.4-5.5 21.5-2.519 27 6.88 5.57 9.217 2.41 21.245-6.8 26.819l-51.15 30.472c-5.54 3.257-11.94 3.421-17.39 1.223-3.81-1.539-7.19-4.167-9.43-8.028"/></g></svg>