<svg xmlns="http://www.w3.org/2000/svg" width="400" height="200" data-name="Layer 1" viewBox="-48.821 5.594 225.633 112.816"><title/><path fill="#fff" d="M40.44 113.83c.02.01.04.01.06.02.59.24 6.17 2.27 15.6 2.96 1.78.13 3.56.19 5.32.19a68.4 68.4 0 0 0 36.86-10.67 62.9 62.9 0 0 0 28.54-41 60.62 60.62 0 0 0-10.1-47.07c-5.16-7.33-9.91-10.9-14.96-11.23-7.71-.51-14.28 6.61-22.59 15.63-6.69 7.25-14.26 15.47-24.2 21.77-9.93 6.3-20.84 9.8-30.46 12.89C12.46 61.18 2.95 64.23.55 71.37c-1.54 4.61.13 10.16 5.26 17.45a65.8 65.8 0 0 0 34.63 25.01M84 98a16 16 0 1 1 15.99-16A16.015 16.015 0 0 1 84 98m27.98-31.23a2.007 2.007 0 0 1-1.76 2.22 2 2 0 0 1-.23.01 2 2 0 0 1-1.98-1.77A9.78 9.78 0 0 0 97.99 59a2 2 0 1 1 0-4 13.787 13.787 0 0 1 13.99 11.77M94.24 37a6 6 0 1 1-5.99 6 6.005 6.005 0 0 1 5.99-6M62.48 61.7C68.39 54.8 76.03 51 84 51a2 2 0 0 1 0 4c-6.78 0-13.35 3.3-18.48 9.3A2.02 2.02 0 0 1 64 65a2 2 0 0 1-1.52-3.3M40 68a6 6 0 1 1-6 6 6.005 6.005 0 0 1 6-6m0 16a6 6 0 1 1-6 6 6.005 6.005 0 0 1 6-6m-16-8a6 6 0 1 1-6 6 6.005 6.005 0 0 1 6-6m87.442 28.857a91 91 0 0 1-11.072 8.26 2 2 0 1 0 2.14 3.378 95 95 0 0 0 11.563-8.625 2 2 0 0 0-2.63-3.013"/><path fill="#fff" d="M25.004 48a2 2 0 0 0 .687-.122 141.5 141.5 0 0 0 24.956-11.673 134.4 134.4 0 0 0 21.712-16.74 2 2 0 0 0-2.723-2.93 130.4 130.4 0 0 1-21.064 16.25 137.5 137.5 0 0 1-24.256 11.337 2 2 0 0 0 .688 3.879M83 74a6 6 0 1 0 6 6 6.005 6.005 0 0 0-6-6m0 8a2 2 0 1 1 2-2 2 2 0 0 1-2 2"/></svg>