<svg xmlns="http://www.w3.org/2000/svg" width="400" height="200" viewBox="-269.128 -6.564 1050.256 525.128"><path fill="#fff" d="M336.989 67.958c-6.354 33.289-32.775 59.526-66.155 65.617a82.6 82.6 0 0 1-2.644 26.908 83.5 83.5 0 0 1-4.865 13.389c42.053 3.721 75.144 39.122 75.144 82.126 0 43.021-33.117 78.432-75.194 82.13 5.801 12.531 8.433 26.405 7.517 40.288 33.4 6.077 59.84 32.322 66.197 65.625C434.659 437.087 512 355.41 512 256S434.659 74.913 336.989 67.958m70.073 152.44h-30v-30h30zM444.531 271v-30h30v30z"/><circle cx="188.515" cy="139.117" r="52.469" fill="#fff"/><circle cx="188.515" cy="372.875" r="52.469" fill="#fff"/><circle cx="256" cy="255.999" r="52.469" fill="#fff"/><path fill="#fff" d="M263.314 407.583a83 83 0 0 1-3.363 6.51c-11.014 19.077-28.798 32.723-50.076 38.424a84 84 0 0 1-6.04 1.374 53 53 0 0 0-.305 5.64C203.531 488.462 227.069 512 256 512s52.469-23.538 52.469-52.469c0-26.448-19.675-48.377-45.155-51.948M209.875 59.48c21.278 5.702 39.062 19.348 50.076 38.425a84 84 0 0 1 3.372 6.511c25.476-3.575 45.146-25.501 45.146-51.947C308.469 23.538 284.931 0 256 0s-52.469 23.538-52.469 52.469q0 2.84.306 5.655c2.019.384 4.034.819 6.038 1.356M125.64 85.73c6.047-7.11 13.334-13.205 21.657-18.01 8.322-4.805 17.244-8.069 26.425-9.75a83 83 0 0 1-.19-5.501c0-7.045.892-13.886 2.562-20.418-15.26-6.989-33.201-6.351-48.093 2.246-14.886 8.595-24.408 23.804-25.99 40.505a83 83 0 0 1 18.962 8.012 83 83 0 0 1 4.667 2.916m48.082 368.29a82.5 82.5 0 0 1-26.426-9.742 82.1 82.1 0 0 1-21.615-18.036 82 82 0 0 1-4.711 2.943 83 83 0 0 1-18.962 8.008c1.582 16.702 11.104 31.913 25.991 40.509 14.893 8.598 32.835 9.236 48.093 2.247a82.3 82.3 0 0 1-2.562-20.418 84 84 0 0 1 .192-5.511M43.406 283.738a82.1 82.1 0 0 1-4.813-27.739 82.1 82.1 0 0 1 4.812-27.737 83 83 0 0 1-4.903-2.607A82.4 82.4 0 0 1 22.1 213.227C8.418 222.947 0 238.804 0 256s8.419 33.053 22.101 42.774a82.3 82.3 0 0 1 16.402-12.428 83 83 0 0 1 4.903-2.608m67.344 116.35c-6.891-19.729-6.313-41.945 3.002-61.962-21.992-1.942-41.52-12.548-55.16-28.38a53 53 0 0 0-5.089 2.58C28.447 326.792 19.832 358.944 34.297 384c7.007 12.137 18.322 20.819 31.859 24.447 13.538 3.627 27.677 1.766 39.814-5.242a52 52 0 0 0 4.78-3.117M53.503 199.672a53 53 0 0 0 5.089 2.58c13.64-15.832 33.169-26.438 55.16-28.38-9.314-20.017-9.893-42.233-3.002-61.962a52 52 0 0 0-4.779-3.117c-12.137-7.008-26.277-8.869-39.814-5.242s-24.852 12.31-31.859 24.447c-14.466 25.056-5.851 57.208 19.205 71.674"/><circle cx="121.062" cy="255.999" r="52.469" fill="#fff"/></svg>