<svg xmlns="http://www.w3.org/2000/svg" width="400" height="200" viewBox="-19.499 0.999 64 32"><path fill="#fff" fill-rule="evenodd" d="M16.182 25.75a.4.4 0 0 1-.144.027c-.048.003-.085.015-.085.034 0 .015-.024.03-.052.03-.064 0-.348.29-.393.402-.073.17-.104.305-.104.472 0 .163.012.21.11.438.055.13 3.214 3.33 3.342 3.388.055.025.14.059.186.08.1.04.457.046.534.006.027-.015.1-.05.158-.077a.95.95 0 0 0 .415-.42c.137-.302.134-.555-.01-.894-.066-.155-3.18-3.308-3.344-3.388a2 2 0 0 0-.25-.096c-.147-.04-.278-.04-.363-.003m-8.119-3.45c-.15 0-.28.013-.29.031-.009.016-.051.031-.094.031-.04 0-.073.012-.073.03 0 .016-.019.032-.04.032a.7.7 0 0 0-.168.061.7.7 0 0 1-.155.062.5.5 0 0 0-.14.062.5.5 0 0 1-.15.062.8.8 0 0 0-.177.064c-.07.037-.158.077-.192.09-.033.012-.1.04-.152.062-.05.021-.12.049-.153.061a2 2 0 0 0-.192.09.8.8 0 0 1-.174.065.8.8 0 0 0-.174.064c-.07.037-.158.077-.192.09a7 7 0 0 0-.295.12l-.153.062c-.04.015-.137.058-.222.095a5 5 0 0 1-.23.1 3 3 0 0 0-.158.076c-.048.025-.085.037-.085.025 0-.01-.037.01-.082.037-.046.03-.089.052-.092.046-.012-.009-.158.056-.463.207-.162.08-.4.315-.4.392 0 .025-.012.043-.024.043s-.04.096-.061.213a.8.8 0 0 0-.006.361c.079.336.216.525.512.7.094.053.165.065.424.065q.313.004.347-.037a.17.17 0 0 1 .095-.037c.027 0 .1-.028.162-.062a.5.5 0 0 1 .167-.061c.034 0 .061-.016.061-.031 0-.019.028-.031.058-.031.034 0 .07-.015.08-.03.009-.02.051-.032.094-.032.04 0 .073-.015.073-.03 0-.02.022-.031.046-.031a.5.5 0 0 0 .152-.062.5.5 0 0 1 .153-.062.5.5 0 0 0 .152-.062.5.5 0 0 1 .165-.061c.034 0 .064-.016.07-.034.006-.016.03-.034.055-.04a1 1 0 0 0 .168-.062 1 1 0 0 1 .155-.062.2.2 0 0 0 .086-.046c.027-.022.048-.03.048-.022 0 .013.037.004.086-.021.201-.108.35-.176.375-.176a1 1 0 0 0 .174-.065c.14-.065.213-.096.35-.148.113-.043.247-.102.302-.13a.3.3 0 0 1 .1-.027c.025 0 .047-.016.047-.031 0-.019.02-.031.045-.031s.07-.012.1-.028c.05-.024.095-.046.306-.132.052-.022.097-.05.097-.062 0-.016.016-.025.03-.025.044 0 .245-.204.245-.247 0-.015.009-.03.024-.03.012 0 .043-.047.067-.102.058-.127.064-.766.006-.787-.018-.006-.036-.037-.036-.071 0-.031-.012-.059-.025-.059-.015 0-.045-.034-.067-.077-.042-.08-.338-.293-.408-.293-.025 0-.055-.015-.064-.03-.01-.02-.14-.032-.29-.032m11.061-3.78c-.116.012-.21.052-.35.148-.147.102-3.108 3.11-3.205 3.258a.86.86 0 0 0-.165.546c0 .176.015.241.104.439.046.104.293.37.344.37.022 0 .04.012.04.03 0 .016.027.032.058.032.034 0 .07.012.08.03.008.019.152.031.32.031.167 0 .31-.012.32-.03.009-.02.045-.031.079-.031.03 0 .058-.016.058-.031 0-.019.015-.031.033-.031s.05-.019.07-.04c.214-.207 2.583-2.595 2.842-2.864.4-.416.5-.601.5-.925 0-.142-.012-.188-.115-.43-.055-.129-.354-.431-.427-.431a.13.13 0 0 1-.083-.028c-.036-.034-.353-.061-.503-.043m-11.042-4.04a1.1 1.1 0 0 0-.425.073c-.13.052-.38.324-.448.484-.07.16-.085.57-.027.713.021.046.06.145.091.216a.7.7 0 0 1 .058.163c0 .016.028.077.061.14a.5.5 0 0 1 .061.169c0 .034.015.062.03.062.019 0 .031.021.031.046s.012.07.028.102c.015.027.042.09.06.135l.068.17c.021.05.045.114.058.148.012.034.051.124.088.195.034.074.064.16.064.194 0 .03.015.059.03.059.019 0 .031.021.031.046s.012.07.028.102c.027.055.085.191.128.305.051.136.094.24.122.293.015.031.027.077.027.102s.015.046.03.046c.019 0 .031.022.031.047 0 .024.012.07.027.102.028.052.07.157.122.29.013.04.043.11.064.163.022.05.052.124.064.16l.055.14c.025.064.116.274.195.447.043.096.36.404.424.413.013.003.037.006.052.01.018 0 .049.021.07.04.046.049.53.055.558.009.01-.019.04-.031.064-.031.028 0 .122-.05.21-.111.147-.099.199-.16.348-.413.028-.053.043-.173.046-.374.003-.247-.009-.318-.064-.432a3 3 0 0 1-.146-.336 8 8 0 0 0-.147-.34c-.055-.13-.07-.17-.14-.348a3 3 0 0 0-.152-.355.8.8 0 0 1-.064-.176.8.8 0 0 0-.064-.176 3 3 0 0 1-.15-.348 5 5 0 0 0-.15-.361 1 1 0 0 1-.063-.176 1 1 0 0 0-.064-.164 5 5 0 0 1-.152-.358 2 2 0 0 1-.059-.145 6 6 0 0 0-.146-.355l-.104-.24c-.021-.053-.049-.099-.06-.099-.016 0-.025-.018-.025-.04 0-.062-.214-.25-.366-.324a1 1 0 0 0-.408-.082m12.765-4.146c-.277-.009-.311-.003-.503.09a.87.87 0 0 0-.415.447l-.073.16v4.715l.073.167c.11.247.378.487.54.487.03 0 .064.013.073.031.046.074.455.031.686-.074.11-.046.397-.333.397-.398 0-.028.012-.052.027-.052.061 0 .073-.337.086-2.453.009-1.704.002-2.262-.025-2.392a1 1 0 0 0-.055-.185.5.5 0 0 1-.06-.098.95.95 0 0 0-.37-.361c-.103-.053-.198-.075-.38-.084M9.921 6.337a1.6 1.6 0 0 0-.345.001c-.161.028-.536.284-.536.364 0 .022-.01.047-.022.053-.015.003-.057.077-.097.163-.04.084-.082.18-.098.207a.3.3 0 0 0-.027.102c0 .025-.012.046-.03.046-.016 0-.031.034-.031.074 0 .043-.012.087-.03.096-.016.01-.031.046-.031.08 0 .03-.012.059-.03.059-.016 0-.031.021-.031.046s-.012.07-.028.102a2 2 0 0 0-.06.136l-.068.17c-.02.049-.048.117-.06.154-.016.04-.04.104-.059.148-.015.043-.042.108-.057.145l-.095.225a6 6 0 0 0-.15.36c-.018.05-.048.124-.066.17a1 1 0 0 1-.061.14.3.3 0 0 0-.028.101c0 .025-.012.046-.03.046-.016 0-.03.028-.03.062a.5.5 0 0 1-.062.17.6.6 0 0 0-.06.139.8.8 0 0 1-.065.179 4 4 0 0 0-.094.222c-.019.043-.043.102-.058.13a.3.3 0 0 0-.028.101c0 .025-.012.047-.03.047-.016 0-.03.034-.03.07 0 .04-.01.084-.022.096-.086.087-.143.667-.07.713.018.01.03.046.03.08 0 .087.162.318.284.407.323.235.652.266 1.027.093.125-.059.397-.327.397-.395 0-.025.015-.046.03-.046.019 0 .03-.022.03-.046 0-.025.013-.072.028-.102.015-.028.043-.096.064-.145a3 3 0 0 1 .064-.145.3.3 0 0 0 .028-.102c0-.025.015-.046.03-.046.019 0 .03-.022.03-.047 0-.024.013-.07.028-.102.03-.058.092-.206.125-.299l.18-.457a2 2 0 0 1 .092-.2 1 1 0 0 0 .064-.164c0-.015.027-.095.064-.175.036-.08.073-.173.088-.207a2 2 0 0 1 .089-.195.8.8 0 0 0 .064-.178.5.5 0 0 1 .06-.152.6.6 0 0 0 .062-.139c0-.015.042-.123.094-.237.113-.25.156-.352.165-.398.006-.016.036-.093.073-.167a.8.8 0 0 0 .064-.176c0-.021.012-.04.03-.04.016 0 .028-.03.028-.07a1 1 0 0 1 .036-.204c.04-.145.01-.34-.082-.55a1.4 1.4 0 0 0-.445-.456 1.1 1.1 0 0 0-.302-.057m-.47-2.3a3 3 0 0 1 .793 0l.3.046c.06.012.121.03.13.046.01.015.049.028.089.028s.082.012.091.03c.01.016.043.032.073.032.064 0 .625.283.674.342.01.01.076.059.153.111.143.102.448.41.588.602.043.062.098.13.12.154.02.022.072.108.115.194.043.084.082.16.091.17.065.062.205.463.308.88.052.203.055 1.067.003 1.24-.018.074-.051.191-.07.262a2 2 0 0 1-.115.34l-.065.163a3 3 0 0 1-.06.154c-.016.043-.043.108-.058.145l-.095.226a6 6 0 0 0-.094.222c-.016.04-.04.105-.058.148-.016.043-.043.108-.058.145-.013.04-.055.132-.092.203a1 1 0 0 0-.064.164 1 1 0 0 1-.058.16c-.03.071-.073.17-.094.223a.5.5 0 0 0-.043.108l-.034.061a.3.3 0 0 0-.033.08 1 1 0 0 1-.07.167.8.8 0 0 0-.064.176c0 .022-.012.04-.03.04-.016 0-.031.028-.031.062a.5.5 0 0 1-.061.17.5.5 0 0 0-.061.154.5.5 0 0 1-.061.154.5.5 0 0 0-.061.154c0 .025-.012.047-.03.047-.016 0-.031.034-.031.074 0 .043-.012.086-.03.095-.016.01-.031.047-.031.08 0 .031-.012.06-.03.06-.016 0-.031.024-.031.052 0 .061-.305.697-.342.712-.015.007-.024.031-.024.056s-.01.043-.021.043c-.016 0-.077.083-.14.185-.083.127-.114.2-.098.247.009.034.033.062.048.062.016 0 .028.021.028.046s.015.046.03.046c.019 0 .03.019.03.043 0 .025.01.05.025.056.012.003.083.133.156.287l.189.395a.6.6 0 0 1 .058.163c0 .022.027.09.06.152a.5.5 0 0 1 .062.17c0 .033.015.061.03.061.019 0 .03.028.03.059 0 .034.016.07.031.08.019.01.03.052.03.096 0 .04.016.074.031.074.019 0 .03.021.03.046s.028.092.062.154c.033.062.06.13.06.154a.5.5 0 0 0 .062.155.5.5 0 0 1 .06.166c0 .031.022.074.046.096.025.019.043.046.04.056a.5.5 0 0 0 .049.144c.03.068.058.14.06.158a.24.24 0 0 0 .047.086c.02.028.03.05.02.05-.011 0-.002.037.025.083.055.108.171.373.171.395 0 .01.028.083.064.163.086.198.162.383.21.516.031.086.074.191.15.36.036.08.064.161.064.18a.3.3 0 0 0 .027.086 1 1 0 0 1 .058.176c.019.068.052.191.073.278.08.324.037 1.234-.07 1.44a.3.3 0 0 0-.027.115c0 .034-.012.07-.03.08-.016.01-.031.043-.031.074 0 .08-.323.71-.397.774-.012.01-.07.084-.13.17-.135.182-.57.583-.696.639-.049.021-.088.05-.088.062 0 .015-.022.024-.046.024s-.046.012-.046.031c0 .015-.021.03-.046.03-.067 0-.085.124-.045.313.067.348.094.669.08.937-.02.287-.071.614-.108.695a2 2 0 0 0-.067.191c-.021.083-.052.148-.064.148s-.024.028-.024.062a.44.44 0 0 1-.092.216.6.6 0 0 0-.06.108 1 1 0 0 1-.062.108 1 1 0 0 0-.058.099c-.045.092-.256.342-.43.518a2.7 2.7 0 0 1-.753.552c-.14.074-.259.145-.271.16a.07.07 0 0 1-.055.028.6.6 0 0 0-.158.053l-.135.055c-.027.01-.198.084-.314.142a.6.6 0 0 1-.158.059.8.8 0 0 0-.174.065c-.07.037-.159.077-.192.09-.034.015-.125.052-.205.089a.8.8 0 0 1-.176.064.6.6 0 0 0-.138.062.5.5 0 0 1-.149.062.8.8 0 0 0-.177.065 2 2 0 0 1-.198.092c-.04.016-.104.04-.146.059-.043.015-.107.043-.144.058-.04.016-.137.06-.222.096a12 12 0 0 1-.357.151 8 8 0 0 0-.305.124l-.162.065c-.042.015-.112.046-.158.064a3 3 0 0 1-.147.059l-.137.055c-.08.034-.201.071-.415.127-.31.083-.97.068-1.4-.028-.081-.018-.188-.04-.237-.052-.046-.01-.091-.028-.1-.043-.01-.016-.043-.028-.077-.028-.03 0-.058-.016-.058-.031 0-.019-.027-.03-.06-.03a.5.5 0 0 1-.19-.078 3 3 0 0 0-.183-.099c-.03-.009-.055-.028-.055-.043s-.018-.028-.04-.028c-.02 0-.07-.028-.106-.061a.3.3 0 0 0-.082-.062c-.016 0-.171-.133-.256-.22-.171-.172-.4-.425-.4-.44 0-.01-.049-.08-.107-.158-.112-.151-.32-.568-.32-.645 0-.024-.012-.055-.03-.064-.016-.01-.03-.047-.03-.08a.3.3 0 0 0-.028-.115c-.107-.207-.156-1.253-.07-1.543l.07-.262c.042-.166.064-.222.146-.385a.8.8 0 0 0 .064-.18c0-.024.012-.043.025-.043.015 0 .042-.049.067-.108.024-.058.051-.108.067-.108.012 0 .024-.021.024-.046s.015-.046.03-.046c.019 0 .031-.022.031-.046 0-.025.012-.047.024-.047s.05-.043.08-.095c.125-.213.637-.667.89-.787.058-.028.104-.062.104-.077 0-.016.018-.028.043-.028s.103-.031.176-.065c.07-.037.159-.077.192-.09.034-.012.132-.055.214-.092a6 6 0 0 1 .512-.213 2 2 0 0 0 .198-.092.8.8 0 0 1 .177-.065.5.5 0 0 0 .15-.062.5.5 0 0 1 .167-.062c.034 0 .061-.015.061-.03 0-.019.019-.031.04-.031a.7.7 0 0 0 .168-.062.7.7 0 0 1 .155-.062c.019 0 .08-.028.14-.062a.5.5 0 0 1 .153-.061.5.5 0 0 0 .152-.062.5.5 0 0 1 .168-.062c.034 0 .061-.015.061-.03 0-.019.018-.031.04-.031a.7.7 0 0 0 .167-.062.7.7 0 0 1 .156-.062c.018 0 .08-.028.14-.061a.5.5 0 0 1 .147-.062c.018 0 .1-.031.18-.071.11-.05.146-.087.146-.139 0-.037-.012-.068-.03-.068-.016 0-.031-.028-.031-.058 0-.034-.012-.071-.03-.08-.016-.01-.031-.053-.031-.096 0-.04-.012-.074-.03-.074-.016 0-.031-.028-.031-.059 0-.034-.012-.071-.03-.08-.016-.01-.031-.053-.031-.096 0-.04-.012-.074-.03-.074-.016 0-.031-.022-.031-.046a.5.5 0 0 0-.061-.154.5.5 0 0 1-.061-.155.5.5 0 0 0-.061-.154.5.5 0 0 1-.061-.17c0-.034-.012-.061-.03-.061-.016 0-.031-.019-.031-.04a.7.7 0 0 0-.06-.17.7.7 0 0 1-.062-.158.5.5 0 0 0-.06-.141.5.5 0 0 1-.062-.155.5.5 0 0 0-.06-.154.5.5 0 0 1-.062-.167c0-.034-.015-.065-.033-.07-.016-.007-.034-.031-.04-.056a1 1 0 0 0-.061-.17 1 1 0 0 1-.061-.163.2.2 0 0 0-.043-.075.13.13 0 0 1-.036-.077.3.3 0 0 0-.028-.095 4 4 0 0 1-.189-.454 1 1 0 0 0-.064-.154.2.2 0 0 1-.024-.093.2.2 0 0 0-.025-.092c-.036-.046-.091-.303-.13-.642a3 3 0 0 1 .063-.993c.016-.053.043-.155.064-.232a.7.7 0 0 1 .064-.17.14.14 0 0 0 .025-.077c0-.09.286-.62.402-.743.083-.09.177-.244.177-.284 0-.025-.021-.062-.046-.084-.024-.021-.04-.049-.03-.061.006-.013-.012-.046-.046-.077-.07-.065-.341-.611-.405-.818-.14-.441-.193-.892-.144-1.274.052-.435.125-.72.278-1.062.03-.074.058-.138.058-.145s.03-.077.067-.16c.036-.083.07-.167.073-.185a2 2 0 0 1 .098-.232c.048-.108.106-.247.128-.305a.6.6 0 0 1 .067-.139.13.13 0 0 0 .024-.068c0-.024.028-.102.061-.17a.7.7 0 0 0 .061-.17c0-.02.015-.04.03-.04.019 0 .031-.027.031-.061s.027-.108.061-.17a.5.5 0 0 0 .061-.154.5.5 0 0 1 .061-.154.5.5 0 0 0 .061-.155c0-.024.015-.046.03-.046.019 0 .031-.034.031-.074 0-.043.015-.086.03-.096.019-.009.031-.046.031-.08 0-.03.015-.058.03-.058.019 0 .03-.034.03-.075 0-.043.016-.086.031-.095.019-.01.03-.046.03-.08 0-.031.016-.059.031-.059.019 0 .03-.028.03-.059 0-.034.031-.12.065-.194.037-.07.076-.16.088-.194.05-.133.092-.229.247-.556.089-.188.171-.345.18-.355.012-.009.067-.086.122-.17.058-.086.12-.169.137-.187.016-.019.089-.096.156-.173.07-.077.174-.17.229-.21.058-.04.11-.083.119-.093a1.6 1.6 0 0 1 .329-.216c.018 0 .037-.009.043-.024.009-.022.24-.14.384-.195l.137-.055c.183-.077.39-.12.707-.154m6.894-.687c-.12 0-.239.01-.27.029l-.155.074a1 1 0 0 0-.411.416 3 3 0 0 1-.076.164c-.037.074-.037.509.003.534.018.009.03.046.03.08s.04.12.089.191c.137.198 3.244 3.323 3.305 3.323.027 0 .052.013.052.031 0 .015.027.03.06.03a1 1 0 0 1 .196.038c.247.068.6-.056.817-.287.284-.3.342-.71.159-1.123-.067-.148-3.208-3.326-3.351-3.391a4 4 0 0 1-.174-.083 1 1 0 0 0-.274-.026M16.35.999c.2 0 .398.015.424.047.022.025.086.052.15.062.268.04.344.058.36.083.009.015.048.028.088.028s.082.012.091.03c.01.016.043.032.077.032.058 0 .347.145.488.246.045.034.1.062.118.062.019 0 .034.01.034.025 0 .012.052.055.119.096.064.04.857.823 1.76 1.743 1.469 1.493 1.89 1.934 1.887 1.99 0 .01.027.05.06.09.034.04.062.083.062.092 0 .012.027.059.058.105a.5.5 0 0 1 .06.126.2.2 0 0 0 .037.087c.03.04.074.13.092.197.009.037.073.22.103.309.14.373.135 1.363-.009 1.712-.024.068-.033.164-.024.278.003.015.024.03.049.03.024 0 .045.013.045.031 0 .016.019.031.04.031s.07.028.107.062a.3.3 0 0 0 .082.062c.058 0 .656.614.656.675a.05.05 0 0 0 .024.04c.073.031.403.636.403.738 0 .03.015.065.03.074.018.01.03.053.03.093s.013.08.028.09c.028.018.04.086.095.496.036.29.036 4.82 0 5.075-.055.37-.08.479-.132.584a.6.6 0 0 0-.051.138c0 .053-.25.55-.311.618-.03.034-.055.08-.055.101s-.012.04-.025.04c-.012 0-.045.038-.076.084-.07.117-.314.373-.479.503a1 1 0 0 0-.146.13c-.006.012-.03.024-.055.024-.024 0-.043.012-.043.03 0 .016-.021.032-.045.032-.025 0-.046.009-.046.024 0 .013-.03.037-.067.053-.08.034-.095.157-.037.308.08.207.107.432.107.867-.003.435-.027.651-.107.861a.4.4 0 0 0-.027.114c.015.044-.204.528-.308.682a.6.6 0 0 0-.08.142c0 .012-.024.05-.051.084-.03.03-.092.108-.138.166-.042.059-.725.765-1.515 1.568-.79.802-1.436 1.468-1.436 1.48s.628.664 1.396 1.448c1.32 1.348 1.653 1.697 1.68 1.777a.4.4 0 0 0 .07.095c.031.034.055.071.055.084a.5.5 0 0 0 .077.139c.043.061.067.123.06.135q-.012.026.016.047c.037.021.128.213.119.25a.3.3 0 0 0 .024.105c.131.305.168.533.168 1.03 0 .37-.015.543-.052.682-.03.102-.06.222-.067.271-.01.047-.027.093-.043.102-.015.01-.027.043-.027.077 0 .071-.204.497-.256.528-.019.012-.025.025-.01.025.022 0-.121.216-.243.376-.11.136-.455.478-.558.55-.058.04-.113.083-.122.092a.4.4 0 0 1-.083.052c-.04.022-.1.059-.137.078a.5.5 0 0 0-.085.055 2 2 0 0 1-.265.127 1 1 0 0 0-.138.061.3.3 0 0 1-.11.028c-.03 0-.067.01-.079.022-.036.037-.299.098-.424.101-.073 0-.122.016-.13.047-.016.037-.09.046-.397.046-.311 0-.384-.01-.397-.046q-.017-.047-.149-.047c-.073 0-.143-.015-.152-.03-.01-.019-.058-.031-.107-.031s-.098-.013-.107-.031c-.009-.016-.052-.031-.091-.031-.04 0-.083-.015-.092-.03-.009-.02-.043-.032-.076-.032-.058 0-.348-.145-.488-.247a.3.3 0 0 0-.119-.061c-.018 0-.033-.013-.033-.025s-.046-.05-.098-.08c-.104-.062-3.531-3.502-3.531-3.545 0-.016-.018-.044-.037-.068a.8.8 0 0 1-.146-.188c0-.01-.04-.074-.085-.145-.101-.152-.22-.405-.22-.466 0-.025-.012-.056-.03-.065-.016-.01-.03-.046-.03-.08a.3.3 0 0 0-.028-.115 1.5 1.5 0 0 1-.12-.45c-.036-.367-.008-1.04.05-1.206.018-.053.048-.155.07-.232a2 2 0 0 1 .122-.32c.048-.1.088-.201.088-.223 0-.025.015-.043.03-.043.019 0 .031-.028.031-.062s.015-.061.03-.061c.019 0 .031-.022.031-.047 0-.024.012-.046.024-.046.016 0 .046-.037.07-.086a.7.7 0 0 1 .098-.142c.055-.065.073-.235.021-.235-.015 0-.03-.018-.03-.04s-.028-.07-.061-.108c-.034-.037-.061-.08-.061-.099 0-.015-.012-.03-.027-.03-.013 0-.07-.093-.125-.207a5 5 0 0 0-.125-.263.3.3 0 0 1-.028-.089c0-.019-.021-.052-.046-.077s-.036-.062-.027-.083c.01-.025-.006-.08-.03-.127-.025-.05-.037-.108-.028-.13.01-.024 0-.064-.021-.089-.092-.111-.098-1.225-.007-1.392a.3.3 0 0 0 .034-.123c-.003-.142.244-.682.473-1.03.113-.173.56-.645 1.768-1.867 1.677-1.694 1.888-1.898 1.934-1.898.015 0 .051-.027.082-.062.03-.033.07-.061.085-.061.104 0 .195-.24.113-.293-.015-.01-.03-.059-.03-.111a.4.4 0 0 0-.028-.145c-.073-.14-.094-.744-.094-2.79.003-2.156.015-2.465.122-2.894.07-.28.073-.336.012-.36a.4.4 0 0 1-.116-.078c-.034-.03-.073-.055-.089-.055-.064 0-.402-.327-1.908-1.855-1.766-1.783-1.867-1.894-1.988-2.181-.025-.053-.052-.099-.065-.099-.015 0-.024-.028-.024-.062s-.012-.061-.03-.061c-.016 0-.03-.019-.03-.04a.7.7 0 0 0-.062-.17.6.6 0 0 1-.06-.191.3.3 0 0 0-.028-.118c-.092-.188-.132-.44-.135-.885-.003-.312.031-.667.065-.7a.17.17 0 0 0 .036-.106c0-.04.012-.08.03-.089.016-.01.028-.05.028-.086-.003-.087.07-.3.1-.3.016 0 .025-.028.025-.061 0-.062.082-.226.186-.377a.3.3 0 0 0 .058-.114c0-.019.012-.034.024-.034s.05-.046.083-.102c.073-.126.518-.577.65-.654.051-.034.097-.07.097-.083s.015-.025.033-.025a.3.3 0 0 0 .12-.062c.14-.101.43-.246.487-.246.034 0 .067-.016.076-.031.01-.019.05-.031.089-.031.036 0 .08-.01.091-.022.03-.03.293-.099.388-.101a.18.18 0 0 0 .119-.047c.027-.032.227-.05.426-.05"/></svg>