<svg xmlns="http://www.w3.org/2000/svg" width="400" height="200" fill-rule="evenodd" stroke-linejoin="round" stroke-miterlimit="2" clip-rule="evenodd" viewBox="-13.215 0.957 58.820 29.410"><path fill="#fff" d="M8.949 16c1 0 1.977.108 2.695.622.43.308.627.944 1.07 1.283.589.451 1.518.475 2.017 1.013.915.988 1.218 2.617 1.218 4.082 0 1.336-.527 2.687-1.333 3.53-.65.679-.379 1.864-1.211 2.426-.561.379-1.524.453-2.315.554-.785.1-1.42.49-2.141.49-.848 0-1.947-.082-2.571-.487-.634-.411-.791-1.149-1.404-1.662-.595-.499-1.593-.636-2.091-1.21-.784-.903-.934-2.323-.934-3.641 0-.912.664-1.566.982-2.366.329-.826.243-1.869.774-2.536C4.838 16.677 6.94 16 8.949 16m.405 8.805a1.678 1.678 0 1 0 0 3.356 1.678 1.678 0 0 0 0-3.356m0 1a.677.677 0 1 1 0 1.354.677.677 0 0 1 0-1.354m8.978-.691 2.755-3.349a.5.5 0 0 0-.773-.635l-2.754 3.349a.5.5 0 1 0 .772.635m-5.56-9.783c-.707-.458-1.642-.556-2.598-.556q-.282 0-.566.018l-.207-.221L23.443 3.204c.12-.098.293-.091.406.014s.131.278.043.405l-1.888 2.695a.186.186 0 0 0 .256.261l7.867-5.22a.203.203 0 0 1 .27.297l-8.302 10.286a.417.417 0 0 0 .545.616l2.852-1.774a.537.537 0 0 1 .715.777l-5.643 7.598L17.32 23l-.237-.252q.09-.482.091-.973c0-1.465-.302-3.094-1.218-4.082-.499-.539-1.428-.562-2.017-1.013-.204-.157-.356-.377-.503-.598l3.424-3.425a.5.5 0 0 0-.707-.707zm-3.838 2.116a2.097 2.097 0 1 0 0 4.194 2.097 2.097 0 0 0 0-4.194m0 1a1.097 1.097 0 1 1 0 2.194 1.097 1.097 0 0 1 0-2.194m.822-5.755 2.579-2.089a.5.5 0 1 0-.629-.777l-2.579 2.089a.5.5 0 1 0 .629.777m4.463-3.559 5.158-4.179a.5.5 0 0 0-.63-.777l-5.158 4.179a.5.5 0 0 0 .63.777"/></svg>