<svg xmlns="http://www.w3.org/2000/svg" width="400" height="200" viewBox="-16.001 1 64.002 32.001"><path fill="#fff" fill-rule="evenodd" d="m12.15 21.387.023.42c.01.231.038.72.058 1.082.024.363.055.93.072 1.255.055.98.096 1.672.144 2.442.055.916.055 1.459 0 1.849q-.08.569-.14 1.04l-.14 1.046c-.018.122-.049.349-.07.508-.02.16-.05.404-.071.543-.038.275-.076.57-.13 1.007-.059.472.263.417-2.522.417-1.33 0-2.416-.006-2.416-.017 0-.01.014-.044.031-.078.028-.054.058-.122.14-.329.083-.206.114-.274.141-.329a.3.3 0 0 0 .031-.128c0-.038.017-.068.034-.068.02 0 .035-.03.035-.068 0-.037.013-.095.03-.129.018-.03.045-.095.062-.142l.069-.17a4 4 0 0 0 .068-.17c.02-.047.051-.125.075-.18l.076-.186c.02-.05.051-.119.068-.15a.3.3 0 0 0 .031-.125c0-.037.017-.078.034-.088.021-.01.035-.05.035-.088 0-.034.017-.064.034-.064.02 0 .034-.031.034-.068s.014-.095.031-.13c.031-.057.079-.172.137-.321.048-.126.113-.275.144-.336a.3.3 0 0 0 .03-.126c0-.037.018-.078.035-.088.02-.01.034-.05.034-.088 0-.034.018-.064.035-.064.02 0 .034-.038.034-.082 0-.047.017-.095.034-.105.02-.01.034-.05.034-.088 0-.034.018-.065.035-.065.02 0 .034-.03.034-.067s.014-.095.03-.13c.018-.03.049-.104.073-.159a2 2 0 0 1 .072-.16.3.3 0 0 0 .03-.111.5.5 0 0 1 .07-.17.5.5 0 0 0 .068-.186c0-.034.017-.075.034-.085.02-.01.034-.05.034-.088 0-.034.017-.065.034-.065.021 0 .035-.037.035-.081 0-.047.017-.095.034-.105.02-.01.034-.051.034-.088 0-.034.017-.065.034-.065.021 0 .035-.037.035-.081 0-.048.017-.095.034-.105.02-.01.034-.044.034-.072s.031-.115.069-.19a.8.8 0 0 0 .068-.186.6.6 0 0 1 .069-.163.5.5 0 0 0 .068-.186c0-.034.018-.075.035-.085.02-.01.034-.051.034-.088 0-.034.017-.065.034-.065.02 0 .034-.037.034-.081 0-.048.018-.095.035-.105.02-.01.034-.044.034-.075 0-.071.343-.746.442-.868.027-.03.038-.058.02-.058-.013 0-.006-.024.018-.05.04-.052.233-.4.48-.883.078-.149.17-.325.212-.39.037-.064.164-.301.284-.525.117-.224.247-.468.291-.543.045-.075.168-.305.274-.509.107-.207.233-.44.278-.522Zm-2.5-.318c.01.014.003.058-.017.102a1 1 0 0 0-.055.16c-.007.047-.035.145-.055.22a2 2 0 0 0-.058.247c-.01.061-.031.12-.048.13s-.031.06-.031.115c0 .054-.014.108-.034.118-.018.01-.035.065-.035.119s-.013.105-.03.115-.038.068-.048.13c-.01.06-.035.172-.059.247a2 2 0 0 0-.058.247c-.01.061-.03.12-.048.13-.017.01-.03.06-.03.115 0 .054-.014.108-.035.118-.017.01-.034.065-.034.119s-.014.105-.031.115-.038.068-.048.13c-.01.06-.034.165-.055.23q-.102.346-.127.475a1 1 0 0 1-.048.152 1 1 0 0 0-.048.153c-.006.047-.03.142-.051.21-.082.288-.11.373-.144.492-.02.071-.044.18-.055.24-.01.062-.03.12-.048.13-.017.01-.03.06-.03.118 0 .055-.014.099-.035.099-.017 0-.034.03-.034.068a.3.3 0 0 1-.03.128 1 1 0 0 0-.063.143c-.02.047-.051.125-.075.176-.02.055-.051.133-.072.18-.017.048-.051.126-.072.176l-.075.18a1 1 0 0 1-.062.143.3.3 0 0 0-.03.125c0 .037-.014.078-.035.088-.017.01-.034.051-.034.088 0 .034-.014.065-.035.065-.017 0-.034.03-.034.068a.3.3 0 0 1-.03.129c-.031.06-.097.21-.145.335a4 4 0 0 1-.137.323.3.3 0 0 0-.03.112.6.6 0 0 1-.069.17.5.5 0 0 0-.068.186c0 .034-.014.074-.035.084-.017.01-.034.051-.034.089 0 .034-.014.064-.034.064-.017 0-.035.03-.035.068a.3.3 0 0 1-.03.129 2 2 0 0 0-.072.16c-.024.053-.055.128-.072.159a.3.3 0 0 0-.031.112.5.5 0 0 1-.069.17.6.6 0 0 0-.068.169.6.6 0 0 1-.069.17.5.5 0 0 0-.068.186c0 .034-.014.074-.034.085-.018.01-.035.05-.035.088 0 .034-.013.064-.034.064-.017 0-.034.03-.034.068 0 .068-.014.102-.1.265-.02.044-.03.091-.02.105.007.017-.007.047-.034.071a.16.16 0 0 0-.052.105c0 .034-.03.115-.068.183a.5.5 0 0 0-.069.183c0 .034-.01.072-.024.085-.014.01-.027.04-.03.065a1 1 0 0 1-.07.176 3 3 0 0 0-.064.153l-.035.118a.6.6 0 0 1-.061.146.3.3 0 0 0-.048.119.3.3 0 0 1-.048.115c-.02.024-.028.044-.014.044s.004.024-.02.055a.3.3 0 0 0-.052.108.14.14 0 0 1-.055.078c-.024.017-1.27.027-2.768.02l-2.724-.006-.01-.417c-.01-.414-.01-.414.072-.414.048 0 .099-.034.133-.095.031-.051.093-.13.137-.177s.106-.118.134-.162c.03-.041.11-.133.175-.204.065-.068.13-.15.15-.18a2 2 0 0 1 .151-.196 21 21 0 0 0 .576-.7l.137-.169c.041-.057.325-.4.462-.56.072-.084.14-.169.155-.186.03-.04.287-.356.435-.529.113-.136.15-.18.325-.404a9 9 0 0 1 .237-.278 4 4 0 0 0 .171-.203 1 1 0 0 1 .096-.122c.024-.027.089-.102.14-.17.093-.125.227-.285.309-.366.02-.024.04-.058.04-.075 0-.02.011-.04.028-.047.028-.01.192-.2.38-.434.066-.078.141-.163.165-.19.024-.024.045-.051.045-.065 0-.013.02-.04.044-.064l.185-.21c.202-.238.257-.299.535-.604.452-.499.555-.61.623-.685.038-.038.148-.163.247-.272.096-.108.236-.264.308-.339l.309-.339a45 45 0 0 0 .627-.692c.123-.139.246-.278.274-.305.027-.027.168-.18.308-.34.14-.159.281-.311.309-.338s.167-.18.308-.34c.14-.159.322-.356.397-.44.254-.272.494-.56.494-.59q.001-.027.024-.01m6.463-.128.051.119c.028.064.062.145.079.176.017.034.03.091.03.125 0 .038.018.078.035.089.02.01.034.057.034.101s.018.092.035.102c.02.01.034.058.034.102s.017.091.034.101c.02.01.034.058.034.106 0 .044.018.081.035.081.02 0 .034.03.034.065 0 .037.017.077.034.088.02.01.034.057.034.101s.018.092.035.102c.02.01.034.058.034.102s.017.091.034.102c.02.01.035.05.035.088 0 .034.013.091.03.125q.078.149.144.363a.8.8 0 0 0 .072.166c.014.02.028.068.028.109 0 .044.017.088.034.098.02.01.034.051.034.089 0 .033.017.095.034.132.021.037.052.098.069.135.02.038.034.092.034.12 0 .026.017.08.034.118.021.037.052.098.069.136.02.037.034.098.034.132 0 .037.017.078.034.088.021.01.035.05.035.088 0 .065.013.095.096.258a.4.4 0 0 1 .04.142c0 .038.015.075.028.085s.048.095.076.19.061.18.075.19.027.054.027.098.018.092.035.102c.02.01.034.051.034.088 0 .034.017.095.034.133.02.037.052.098.069.135.02.038.034.092.034.119s.017.081.034.119c.02.037.052.098.069.135.02.038.034.099.034.133 0 .037.017.078.034.088.02.01.035.05.035.088 0 .034.017.095.034.132.02.038.051.099.068.136a.3.3 0 0 1 .035.119c0 .027.013.078.03.112.052.098.1.315.141.634.051.43.103.81.137 1.068.045.316.093.682.137 1.035.02.166.052.403.069.525s.048.35.068.51c.02.159.052.386.069.508s.048.35.068.509.052.393.072.525c.02.13.031.292.024.356l-.01.12h-5.928l-.01-.12c-.007-.064.003-.23.024-.366.02-.132.051-.356.072-.492.017-.132.048-.36.065-.498.02-.14.051-.383.072-.543s.051-.387.069-.509l.068-.508c.02-.16.051-.387.069-.51.017-.121.048-.359.068-.525.113-.892.175-1.268.21-1.292.016-.01.03-.054.03-.098s.017-.092.034-.102c.02-.01.034-.058.034-.102s.018-.091.035-.102c.02-.01.034-.057.034-.101s.017-.092.034-.102c.02-.01.035-.058.035-.102s.017-.091.034-.102c.02-.01.034-.057.034-.101s.017-.092.034-.102c.02-.01.035-.058.035-.102s.017-.091.034-.102c.02-.01.034-.057.034-.101s.017-.092.034-.102c.021-.01.035-.058.035-.102s.017-.091.034-.102c.02-.01.034-.057.034-.101s.017-.092.034-.102c.021-.01.035-.051.035-.088 0-.034.013-.092.03-.126.018-.03.11-.308.21-.617s.191-.587.209-.617a.3.3 0 0 0 .03-.126c0-.037.017-.078.035-.088.02-.01.034-.058.034-.102s.017-.091.034-.102c.02-.01.035-.057.035-.101s.017-.092.034-.102c.02-.01.034-.058.034-.102s.017-.091.034-.102c.02-.01.035-.057.035-.101s.017-.092.034-.102c.02-.01.034-.058.034-.102s.017-.091.034-.102c.02-.01.035-.057.035-.101s.017-.092.034-.102c.02-.01.034-.05.034-.088 0-.034.014-.092.03-.126.046-.081.505-1.492.535-1.635Zm3.75-.541c.017.01.058.071.089.136.03.064.068.118.086.118s.03.014.03.034c0 .017.172.289.377.597.21.309.377.573.377.587 0 .017.031.054.069.088.037.034.068.075.068.088 0 .017.196.323.439.682.24.36.449.678.462.706.052.094.11.186.48.736.202.301.367.56.367.58 0 .016.03.057.068.091s.069.071.069.088c0 .014.11.183.24.38.133.197.24.373.24.394 0 .02.013.037.027.037.017 0 .051.04.079.091a.7.7 0 0 0 .11.16c.03.037.058.088.058.112s.013.044.027.044c.017 0 .051.04.079.091.024.055.15.251.277.441.13.19.233.356.233.367 0 .01.031.05.069.091.037.04.068.095.068.119s.017.044.035.044c.02 0 .034.02.034.044s.044.132.103.244c.054.112.102.23.102.261 0 .034.018.062.035.062.02 0 .034.02.034.047 0 .037.1.258.243.536.017.034.031.085.031.112s.017.05.034.05c.02 0 .035.021.035.048 0 .037.099.258.243.536.017.034.03.085.03.112s.018.05.035.05c.02 0 .034.021.034.048 0 .024.048.143.106.262.062.118.12.247.134.284.027.072.226.502.278.6.017.035.03.085.03.113s.018.05.035.05c.02 0 .034.02.034.048 0 .037.1.258.243.536.017.034.031.085.031.112s.017.05.034.05c.02 0 .035.021.035.048 0 .037.099.258.243.536.017.034.03.085.03.112s.018.05.035.05c.02 0 .034.021.034.048s.028.105.065.18c.185.373.216.448.196.482-.017.027-.953.037-3.207.037-3.16 0-3.183 0-3.221-.068a1.5 1.5 0 0 1-.069-.339c-.037-.288-.089-.692-.137-1.051-.1-.733-.11-.804-.205-1.544-.017-.149-.048-.38-.065-.508-.018-.133-.052-.367-.072-.526s-.055-.387-.076-.509c-.024-.146-.04-1.567-.051-4.148-.007-2.598 0-3.92.024-3.907m-12.175-.306c.023 0 .013.02-.02.056-.034.034-.058.082-.058.102 0 .024-.014.04-.034.04-.017 0-.035.018-.035.038 0 .017-.058.122-.13.227s-.15.234-.174.285c-.028.055-.062.095-.08.095-.013 0-.027.017-.027.038s-.04.101-.092.18c-.055.074-.117.18-.144.23-.028.054-.062.095-.079.095-.014 0-.027.017-.027.037 0 .017-.072.143-.161.278s-.192.295-.227.356a4 4 0 0 1-.178.279c-.065.095-.12.18-.12.19s-.075.135-.17.274c-.093.14-.172.261-.172.272 0 .01-.096.132-.213.274-.116.146-.222.275-.236.295l-.158.187a32 32 0 0 0-.335.407c-.114.139-.25.309-.309.376-.113.133-.103.12-.507.618-.154.19-.301.366-.325.39a4 4 0 0 0-.137.17 2 2 0 0 1-.138.169 4 4 0 0 0-.137.17 3 3 0 0 1-.167.2c-.042.04-.117.135-.172.203-.051.071-.116.15-.14.173a4 4 0 0 0-.137.17 5 5 0 0 1-.22.26.7.7 0 0 0-.13.164.3.3 0 0 1-.082.108 3 3 0 0 0-.182.21 2 2 0 0 1-.13.167c-.147.162-.223.254-.223.268 0 .01-.034.054-.075.098-.044.04-.116.125-.164.19a4 4 0 0 1-.151.183c-.034.037-.103.125-.154.19a2 2 0 0 1-.127.156c-.017.02-.09.102-.154.183-.062.078-.14.17-.168.204a3 3 0 0 0-.137.17c-.09.111-.148.182-.295.345a.5.5 0 0 0-.082.112c0 .027-.117.153-.144.153-.03 0-.038-6.292-.007-6.404.014-.04.038-.074.062-.074.02 0 1.21-.58 2.642-1.29 1.432-.708 2.62-1.288 2.645-1.288.02 0 .044-.01.051-.027.014-.034.439-.244.493-.244.028 0 .048-.017.048-.034 0-.02.031-.034.069-.034s.068-.017.068-.034c0-.02.021-.034.048-.034.041 0 .309-.119.542-.24a.4.4 0 0 1 .126-.031c.038 0 .08-.017.09-.034.01-.02.051-.034.089-.034a.4.4 0 0 0 .126-.03c.103-.052.223-.103.384-.153a1 1 0 0 1 .18-.05m15.954-.143c.024.006.068.04.142.105.068.057.219.193.339.295.116.101.243.21.278.237.037.027.13.109.209.18s.212.187.298.254c.082.068.205.177.274.238.065.064.188.17.274.237.082.071.205.176.274.238.065.064.175.156.24.203.065.05.205.173.315.275.106.098.23.207.274.234.041.03.13.105.199.17.065.06.178.162.25.22.075.06.199.166.274.237.079.072.202.18.274.238.216.176.247.207.302.281.027.038.116.15.202.251a25 25 0 0 1 .59.695c.081.092.157.184.17.204l.172.207c.082.095.226.268.318.383.096.115.24.285.326.38.085.095.168.2.185.23.017.031.096.123.171.2.079.082.154.174.171.204.021.03.086.116.151.183.065.072.144.163.175.204.027.044.106.136.171.203.062.072.14.163.168.204.031.044.113.139.185.214s.13.149.13.17c.004.016.08.108.172.203a1 1 0 0 1 .171.196.6.6 0 0 0 .123.16c.069.074.151.17.182.21.027.044.09.115.13.163l.079.085-.007 2.221-.01 2.222-1.696.01c-.932.003-1.73 0-1.772-.01-.072-.017-.181-.183-.181-.278 0-.024-.014-.044-.034-.044-.017 0-.035-.02-.035-.048a.6.6 0 0 0-.065-.18c-.034-.071-.096-.196-.133-.281a17 17 0 0 0-.179-.39l-.17-.373-.152-.333c-.048-.105-.13-.281-.178-.39-.048-.105-.12-.258-.154-.339-.034-.078-.096-.207-.13-.288l-.175-.38-.209-.448a2 2 0 0 1-.1-.227c0-.01-.068-.16-.154-.336a4 4 0 0 1-.154-.339c0-.01-.048-.122-.11-.251a3 3 0 0 1-.112-.248l-.1-.22c-.055-.112-.1-.22-.103-.237a.3.3 0 0 0-.037-.085.2.2 0 0 1-.035-.068c0-.01-.058-.136-.13-.282-.068-.149-.127-.295-.127-.332a.3.3 0 0 0-.03-.125 1.3 1.3 0 0 1-.107-.357.3.3 0 0 0-.03-.118 1.3 1.3 0 0 1-.107-.356.3.3 0 0 0-.03-.12 1.3 1.3 0 0 1-.107-.355.3.3 0 0 0-.03-.119 1.3 1.3 0 0 1-.107-.356.3.3 0 0 0-.03-.119 1.3 1.3 0 0 1-.107-.356.3.3 0 0 0-.03-.119 1.3 1.3 0 0 1-.107-.356.3.3 0 0 0-.03-.118 1.3 1.3 0 0 1-.107-.357.3.3 0 0 0-.03-.118 1.3 1.3 0 0 1-.107-.356.3.3 0 0 0-.03-.12 1.3 1.3 0 0 1-.107-.355.3.3 0 0 0-.03-.119 1.3 1.3 0 0 1-.107-.356.3.3 0 0 0-.03-.119 1.3 1.3 0 0 1-.107-.356.3.3 0 0 0-.03-.119 1.2 1.2 0 0 1-.107-.373c0-.037-.014-.081-.034-.091-.017-.01-.035-.058-.035-.102s-.013-.092-.034-.102c-.017-.01-.034-.071-.034-.135s-.014-.126-.034-.136c-.017-.01-.035-.058-.035-.102s-.013-.088-.03-.098-.038-.051-.048-.088q-.02-.07.012-.061m2.71-1.734c.01-.017.151.034.312.115.161.078.291.136.291.126s.031.007.069.04c.038.035.068.051.068.041 0-.013.059.007.13.044.148.075.288.13.32.122a.3.3 0 0 1 .095.062c.041.037.072.054.072.044 0-.065.86.474.994.62.01.01.072.058.137.102s.14.105.168.129c.027.027.198.16.383.295.182.136.429.322.549.414s.373.285.562.427c.188.146.366.282.393.305s.107.078.172.126c.065.044.127.091.137.102s.11.084.223.17c.113.084.222.165.243.186.024.017.103.084.181.146l.14.115v2.242l-.002 2.245-.093-.105a18 18 0 0 1-.418-.488 7 7 0 0 0-.199-.231 4 4 0 0 1-.137-.17 3 3 0 0 0-.209-.25 4 4 0 0 1-.171-.204 2 2 0 0 0-.171-.204 6 6 0 0 1-.172-.203 2 2 0 0 0-.171-.204 6 6 0 0 1-.171-.203 1 1 0 0 0-.09-.116 3 3 0 0 1-.157-.183 5 5 0 0 0-.178-.213 6 6 0 0 1-.172-.204c-.14-.17-.215-.258-.308-.363a1.3 1.3 0 0 1-.13-.163 4 4 0 0 0-.171-.203 2.6 2.6 0 0 1-.429-.6 24 24 0 0 0-.219-.407 26 26 0 0 1-.288-.543 6 6 0 0 0-.192-.356c-.02-.02-.092-.156-.377-.695a22 22 0 0 0-.287-.543 31 31 0 0 1-.336-.624c-.288-.55-.308-.584-.363-.655-.028-.03-.038-.071-.028-.088M.125 17.73c.229 0 .983.043 3.579.193l.96.051.941.05c.528.031 1.738.1 1.813.103.038 0-.048.101-.09.101-.016 0-.06.03-.102.068s-.096.068-.12.068-.044.014-.044.027c0 .017-.042.051-.093.078a1 1 0 0 0-.161.105c-.038.034-.089.061-.113.061s-.045.014-.045.028c0 .017-.04.05-.092.078a1 1 0 0 0-.161.105c-.038.034-.09.06-.113.06s-.045.014-.045.028c0 .017-.04.05-.092.078a1 1 0 0 0-.161.105c-.038.034-.09.061-.113.061s-.045.014-.045.027c0 .017-.041.051-.092.078a1 1 0 0 0-.161.105c-.038.034-.09.061-.113.061s-.045.014-.045.028c0 .017-.041.05-.093.078a1 1 0 0 0-.16.105c-.038.034-.09.06-.114.06s-.044.014-.044.031-.874.462-1.943.987a319 319 0 0 0-2.484 1.221c-.295.146-.545.255-.555.244-.027-.027-.024-4.432 0-4.46.008-.007.025-.012.101-.013m31.862-1.321v1.916c0 1.055-.01 1.916-.024 1.916a.5.5 0 0 1-.137-.094 3 3 0 0 0-.353-.279 2 2 0 0 1-.137-.101 2 2 0 0 0-.137-.102 2 2 0 0 1-.158-.119l-.15-.119-.151-.118a2 2 0 0 0-.158-.119 2 2 0 0 1-.137-.102 2 2 0 0 0-.137-.101 2 2 0 0 1-.158-.12 1 1 0 0 0-.205-.152c-.014 0-.048-.027-.079-.06a1.2 1.2 0 0 0-.175-.143 2 2 0 0 1-.137-.102 2 2 0 0 0-.137-.102 2 2 0 0 1-.157-.119 1.2 1.2 0 0 0-.203-.152c-.047 0-.229-.173-.698-.675l-.514-.553-.185-.197h.287c.158 0 .497-.013.75-.03.254-.017.85-.051 1.32-.071.473-.024 1.059-.051 1.302-.065.247-.017.497-.03.558-.034ZM6.454 1h.596c.329 0 .62.01.647.02.031.01.072.085.096.17.024.081.059.15.072.15.014 0 .028.02.028.047 0 .023.061.162.137.308.075.146.137.292.137.326 0 .037.017.064.034.064.02 0 .034.03.034.068 0 .037.017.068.035.068.02 0 .034.02.034.044s.062.163.137.312c.075.15.137.299.137.33 0 .033.017.06.034.06.02 0 .035.02.035.048 0 .023.061.162.137.308.075.146.137.292.137.326 0 .037.017.064.034.064.02 0 .034.03.034.068 0 .037.017.068.034.068.021 0 .035.02.035.044s.061.163.137.312c.075.15.137.299.137.33 0 .033.017.06.034.06.02 0 .034.02.034.04 0 .038.175.418.312.68.017.033.03.084.03.111s.018.051.035.051c.02 0 .034.02.034.048 0 .037.1.257.244.535.017.034.03.085.03.112s.018.051.035.051c.02 0 .034.02.034.04 0 .038.175.418.312.68.017.033.03.084.03.111s.018.051.035.051c.02 0 .034.024.034.05 0 .086.127.059.196-.047.16-.247.829-.946 1.116-1.17.069-.05.127-.112.127-.129 0-.04-.113-.302-.353-.807a14 14 0 0 1-.178-.39 9 9 0 0 0-.188-.407l-.206-.44c-.04-.096-.12-.262-.171-.374-.055-.112-.134-.288-.182-.39s-.12-.264-.164-.356a4 4 0 0 1-.082-.187c0-.01-.045-.105-.096-.21-.093-.193-.165-.37-.165-.4a.3.3 0 0 0-.058-.082c-.03-.033-.051-.064-.045-.067.01 0-.048-.14-.13-.306-.079-.166-.133-.325-.127-.349.014-.034.155-.044.63-.044h.61l.076.139c.041.075.075.16.075.187s.018.047.035.047c.02 0 .034.02.034.048 0 .023.045.135.1.244.054.108.13.268.167.352.038.085.117.255.175.38.058.13.154.333.212.458.059.13.137.288.172.36a.6.6 0 0 1 .065.18c0 .027.017.047.034.047.02 0 .034.02.034.048 0 .027.031.105.065.18.038.07.117.233.179.365.144.316.298.648.377.808a.6.6 0 0 1 .065.18c0 .067.133.057.274-.02.065-.038.175-.092.24-.123.4-.183.575-.261.644-.288.04-.017.11-.044.154-.061a.6.6 0 0 1 .144-.044q.159-.024-.017-.346a1 1 0 0 1-.103-.262c0-.033-.014-.064-.034-.064-.018 0-.035-.03-.035-.068 0-.037-.013-.068-.034-.068-.017 0-.034-.02-.034-.047 0-.037-.1-.258-.243-.536a.3.3 0 0 1-.031-.112c0-.027-.014-.05-.035-.05-.017 0-.034-.021-.034-.048 0-.024-.048-.143-.106-.261-.058-.12-.137-.275-.171-.346a.6.6 0 0 1-.065-.18c0-.027-.014-.048-.035-.048-.017 0-.034-.02-.034-.047a1.3 1.3 0 0 0-.106-.261l-.171-.346a.6.6 0 0 1-.065-.18c0-.027-.014-.047-.035-.047-.017 0-.034-.038-.034-.085V1h1.264l.058.122a.5.5 0 0 1 .059.17c0 .027.013.047.03.047.014 0 .028.02.028.044 0 .02.075.194.171.38.093.187.172.366.172.397 0 .034.017.061.034.061.02 0 .034.02.034.048 0 .023.062.162.137.308s.137.292.137.326c0 .037.017.064.034.064.021 0 .035.03.035.068 0 .037.017.068.034.068.02 0 .034.02.034.047 0 .038.1.258.244.536.017.034.03.085.03.112s.017.051.035.051c.02 0 .034.02.034.044 0 .085.086.224.147.24.034.008.11 0 .172-.016.061-.02.469-.044.908-.054l.798-.02-.024-.106a1 1 0 0 0-.048-.156c-.15-.288-.377-.783-.377-.827 0-.03-.014-.055-.034-.055-.017 0-.034-.02-.034-.04 0-.024-.052-.15-.117-.282a7 7 0 0 1-.175-.373 15 15 0 0 0-.226-.478c-.092-.19-.168-.37-.168-.4s-.013-.055-.034-.055c-.017 0-.034-.03-.034-.064 0-.037-.014-.078-.035-.088-.017-.01-.034-.044-.034-.072 0-.04.103-.047.63-.047h.631l.123.248c.069.135.124.264.124.288 0 .02.017.04.034.04.02 0 .034.031.034.065 0 .037.017.078.034.088.021.01.035.051.035.088 0 .034.017.065.034.065.02 0 .034.02.034.047 0 .038.1.258.244.536.017.034.03.085.03.112s.018.051.035.051c.02 0 .034.02.034.048 0 .027.048.135.103.24a1 1 0 0 1 .102.241c0 .027.018.048.035.048.02 0 .034.03.034.064 0 .037.017.078.034.088.02.01.035.051.035.088 0 .034.017.065.034.065.02 0 .034.02.034.047 0 .038.1.258.243.536a.3.3 0 0 1 .031.095c0 .054.113.17.168.17.048 0 .384.105.545.173.041.017.116.047.171.067.052.02.12.051.151.068.034.017.086.03.113.03s.051.014.051.035c0 .017.021.034.048.034.045 0 .364.156.75.37.107.06.21.101.227.091.038-.024.007-.19-.034-.19-.018 0-.031-.02-.031-.044s-.062-.163-.137-.312c-.076-.15-.137-.298-.137-.332 0-.031-.014-.058-.035-.058-.017 0-.034-.02-.034-.044 0-.034-.175-.414-.312-.675a.3.3 0 0 1-.03-.112c0-.027-.014-.05-.035-.05-.017 0-.034-.021-.034-.042a1.5 1.5 0 0 0-.116-.281 7 7 0 0 1-.175-.373c-.031-.075-.12-.265-.195-.424-.076-.16-.151-.319-.165-.356a10 10 0 0 0-.171-.373c-.08-.17-.161-.34-.182-.38-.079-.17-.038-.18.596-.18.5 0 .6.01.655.058.034.03.061.07.061.091s.052.143.117.275c.065.129.147.305.185.39l.147.322c.045.092.079.18.079.193a.2.2 0 0 0 .048.068c.02.02.041.058.041.078 0 .024.02.085.048.14.082.169.206.437.21.454 0 .01.068.152.146.315.08.166.144.309.144.32 0 .01.059.142.134.294.072.15.158.336.192.41.123.282.181.414.291.645.062.129.154.332.21.448l.205.44c.058.13.133.292.168.367.068.153.332.716.38.804.017.034.03.084.03.112s.018.05.035.05c.02 0 .034.02.034.048 0 .024.045.136.1.244.054.109.13.268.168.353.037.085.147.319.246.526.1.203.192.403.206.44.013.038.058.14.1.228a.8.8 0 0 1 .071.227c0 .037.017.078.034.088.02.01.035.058.035.105a.4.4 0 0 0 .03.143c.017.03.048.125.072.21.02.085.055.2.072.258a.8.8 0 0 1 .031.176c0 .041.014.14.031.217.079.353.11.706.11 1.337a7.3 7.3 0 0 1-.213 1.845c-.017.084-.044.193-.055.247-.01.051-.03.102-.048.112-.017.01-.03.055-.03.099s-.014.091-.035.101c-.017.01-.034.058-.034.102s-.014.092-.034.102c-.017.01-.034.05-.034.085a.5.5 0 0 1-.069.186.6.6 0 0 0-.069.163c0 .024-.078.193-.174.38-.096.186-.192.373-.216.414-.02.044-.048.078-.062.078-.017 0-.027.017-.027.037s-.041.098-.093.176c-.054.078-.11.167-.13.197-.106.17-.223.332-.264.373a.5.5 0 0 0-.082.105c-.082.146-.894 1.011-.95 1.011a.3.3 0 0 0-.105.075c-.134.132-.295.264-.315.264-.01 0-.038.02-.066.04-.082.082-.188.164-.209.164a.4.4 0 0 0-.089.067c-.04.038-.096.068-.12.068s-.044.014-.044.027c0 .017-.041.051-.093.075-.055.027-.14.078-.195.115-.137.092-1.018.53-1.065.53a.8.8 0 0 0-.182.067.7.7 0 0 1-.192.068c-.027 0-.058.014-.068.03-.01.018-.062.038-.114.048-.054.01-.157.037-.233.058a9 9 0 0 1-1.045.224c-.39.067-1.822.084-2.124.023-.103-.02-.305-.054-.445-.078a1.6 1.6 0 0 1-.316-.07.3.3 0 0 0-.12-.031.6.6 0 0 1-.16-.034l-.268-.075c-.092-.024-.164-.054-.164-.068 0-.013-.038-.027-.086-.027a.5.5 0 0 1-.154-.034c-.038-.02-.1-.05-.137-.068a.3.3 0 0 0-.12-.034c-.028 0-.051-.017-.051-.034 0-.02-.028-.033-.062-.033-.072 0-.83-.373-.898-.441a.7.7 0 0 0-.12-.068.8.8 0 0 1-.168-.112c-.037-.03-.089-.058-.113-.058s-.044-.013-.044-.027c0-.017-.041-.05-.093-.078a.7.7 0 0 1-.14-.091 4 4 0 0 0-.171-.136 3 3 0 0 1-.165-.126c-.02-.02-.12-.101-.22-.186a6 6 0 0 1-.719-.712c-.123-.14-.24-.275-.264-.299s-.044-.058-.044-.068a.3.3 0 0 0-.079-.108c-.113-.126-.46-.658-.627-.967a1.5 1.5 0 0 0-.134-.22c-.075-.088-.356-.668-.335-.692.013-.01.003-.02-.018-.02-.024 0-.04-.031-.04-.068s-.014-.068-.035-.068c-.017 0-.034-.02-.034-.044 0-.02-.11-.261-.243-.533-.511-1.024-.58-1.17-.58-1.214 0-.02-.013-.04-.034-.04-.017 0-.034-.031-.034-.069 0-.037-.014-.067-.034-.067-.017 0-.035-.02-.035-.044 0-.028-.092-.228-.205-.448s-.206-.42-.206-.448c0-.024-.013-.044-.034-.044-.017 0-.034-.02-.034-.044 0-.027-.093-.227-.206-.448-.113-.22-.205-.42-.205-.447 0-.024-.014-.044-.035-.044-.017 0-.034-.031-.034-.068s-.014-.068-.034-.068c-.017 0-.034-.02-.034-.048 0-.023-.062-.162-.137-.308a2 2 0 0 1-.138-.309c0-.027-.013-.047-.034-.047-.017 0-.034-.031-.034-.068s-.014-.068-.034-.068c-.017 0-.035-.02-.035-.044s-.106-.258-.24-.516c-.13-.257-.24-.492-.24-.515s-.013-.044-.034-.044c-.017 0-.034-.03-.034-.068s-.013-.068-.034-.068c-.017 0-.034-.02-.034-.048a1 1 0 0 0-.103-.24 1 1 0 0 1-.103-.241c0-.027-.014-.048-.034-.048-.017 0-.034-.03-.034-.067s-.014-.068-.035-.068c-.017 0-.034-.02-.034-.044 0-.02-.14-.323-.312-.668l-.377-.757a.7.7 0 0 1-.065-.18c0-.027-.013-.047-.034-.047-.017 0-.034-.03-.034-.068 0-.037-.014-.068-.035-.068-.017 0-.034-.02-.034-.044 0-.02-.154-.353-.346-.736s-.39-.787-.445-.895c-.055-.109-.1-.22-.1-.244 0-.028-.013-.048-.034-.048-.017 0-.034-.02-.034-.04 0-.024-.144-.333-.322-.69a52 52 0 0 1-.466-.949c-.079-.17-.23-.475-.333-.685-.102-.21-.178-.397-.164-.417q.019-.037.644-.027l.624.01.274.546c.15.302.346.699.435.882s.25.519.36.743c.106.224.198.413.198.424 0 .01.114.237.247.508.134.272.322.658.422.865.099.204.246.512.329.678.082.17.15.326.15.35 0 .02.017.04.035.04.02 0 .034.02.034.041 0 .024.14.326.312.672.17.346.356.719.41.827.056.109.1.22.1.245 0 .027.017.047.034.047.02 0 .035.03.035.068 0 .037.017.068.034.068.02 0 .034.03.034.068 0 .037.017.067.034.067.021 0 .035.02.035.041 0 .034.459.987.654 1.357.017.034.03.085.03.112s.018.05.035.05c.02 0 .034.031.034.068s.018.068.035.068c.02 0 .034.03.034.068 0 .037.017.068.034.068.02 0 .035.03.035.068 0 .037.017.068.034.068.02 0 .034.02.034.04 0 .024.082.207.182.407.209.424.277.468.311.187.01-.095.035-.261.055-.363a8 8 0 0 0 .059-.315c.01-.068.03-.136.047-.146s.031-.048.031-.085c0-.088.213-.723.247-.736.017-.007.027-.048.027-.088 0-.041.018-.092.042-.116.024-.023.027-.04.013-.04-.017 0-.007-.024.017-.055a.3.3 0 0 0 .052-.095c.007-.02.027-.084.051-.145.038-.092.038-.12-.01-.17-.031-.034-.058-.071-.058-.088 0-.014-.055-.14-.124-.278a1.6 1.6 0 0 1-.12-.306c0-.027-.013-.05-.034-.05-.017 0-.034-.02-.034-.048 0-.037-.1-.258-.243-.536a.3.3 0 0 1-.031-.112c0-.027-.014-.05-.035-.05-.017 0-.034-.021-.034-.048 0-.024-.061-.163-.137-.309-.075-.146-.137-.291-.137-.325 0-.038-.014-.065-.034-.065-.017 0-.034-.03-.034-.068 0-.037-.014-.067-.035-.067-.017 0-.034-.02-.034-.048 0-.037-.1-.258-.243-.536a.3.3 0 0 1-.031-.112c0-.027-.014-.05-.034-.05-.017 0-.035-.021-.035-.048 0-.024-.048-.142-.106-.261l-.171-.346a.6.6 0 0 1-.065-.18c0-.027-.014-.047-.034-.047-.018 0-.035-.02-.035-.048 0-.037-.1-.258-.243-.536a.3.3 0 0 1-.03-.112c0-.027-.015-.05-.035-.05-.017 0-.034-.021-.034-.048 0-.024-.048-.142-.107-.261s-.137-.275-.17-.346a.6.6 0 0 1-.066-.18c0-.027-.014-.047-.034-.047-.017 0-.035-.02-.035-.048a.6.6 0 0 0-.065-.18c-.034-.07-.113-.227-.17-.346a1.3 1.3 0 0 1-.107-.26c0-.028-.014-.048-.034-.048-.018 0-.035-.03-.035-.065 0-.037-.013-.078-.034-.088-.017-.01-.034-.05-.034-.088 0-.034-.014-.065-.034-.065-.018 0-.035-.023-.035-.05a.6.6 0 0 0-.068-.17.6.6 0 0 1-.069-.17c0-.027-.013-.05-.034-.05-.017 0-.034-.038-.034-.085Z"/></svg>