<svg xmlns="http://www.w3.org/2000/svg" width="400" height="200" viewBox="-5.587 125.225 523.179 261.590"><path fill="#fff" fill-rule="evenodd" d="M305.269 301.171c-.892 2.935-1.604 6.422-3.53 8.328-2.698 2.669-12.997 1.824-16.567 2.019-10.891.595-27.678 4.169-37.887 2.716-2.427-.346-10.469.955-14.281.371-4.011-.615-11.573 3.101-13.378-2.044-1.183-3.36 2.246-8.474 5.596-10.089 1.514-.729 6.167-.628 7.852-.489 6.729.555 24.54-5.226 28.531-13.801.211-.444-8.424-1.468-9.206-1.397-23.98.698-48.039 7.444-71.853 3.989-17.39-3.122-25.692-4.513-38.348 9.504-6.619 6.056-13.85 11.495-20.91 17.019-2.748 2.147-5.425 4.356-8.725 5.602-.211.08-9.106.784-11.352.62-1.444-.105-6.037-8.569-6.067-9.582-.05-1.425 6.428-6.648 7.481-7.098 9.066-3.894 15.223-13.693 20.909-21.788.893-8.024 2.587-16.709 1.304-24.768-6.549-41.388-55.166-35.805-85.612-37.335-12.034-.604-20.117-4.887-23.075-17.162-.993-4.125-1.434-7.704.642-11.464 6.599-11.926 23.045-16.825 34.508-22.157 7.953-3.706 14.852-8.766 22.414-13.124 3.129-1.802 11.523-3.222 13.579-5.629 1.093-1.289.612-7.024.772-8.751 1.039-10.394 12.436-23.704 21.381-10.919-10.417 10.799-12.048 27.109-6.458 41.287-2.475-14.077 1.737-28.839 13.338-36.964 10.707 1.029 9.382 13.499 13.398 20.252 25.352 15.03 40.467 3.582 64.914-3.217 19.315-4.616 40.043-7.848 59.799-9.422 12.796-1.02 25.081-2.6 37.727.648 42.635 15.271 57.208 41.041 66.458 83.363 3.059 12.702 3.731 27.665 13.8 37.048 9.276 8.642 28.3 12.69 40.274 16.648 17.389 5.745 35.059 14.198 51.837 21.602 18.854 8.316 35.29 19.876 31.64 43.229-9.947 46.194-69.381 32.795-102.86 34.756-10.952-.051-50.604.746-49.972.538 20.488-6.844 39.772-10.864 61.424-11.87 18.863-.876 39.151 1.498 56.971-5.916 14.601-6.074 22.574-21.079 12.606-35.403-4.422-6.358-11.422-10.125-18.422-12.969-30.713-11.797-64.896-10.46-96.052-21.716-.304-6.213-.376-12.147 2.577-17.98-5.32 4.123-9.361 9.431-10.349 16.09-12.808-3.409-25.012-.185-37.536 2.042-1.182.233-2.194-.303-3.46-.494-7.788-1.556-24.682-4.201-31.218-5.199-6.081-1.499 22.626 9.999 25.386 11.076M119.493 277.09c-3.69 3.203-8.052 5.585-12.405 7.798-2.798 1.421-7.722 3.074-9.557 5.751-2.611 3.407 1.92 9.031 5.325 10.473 6.669-3.888 11.362-11.424 15.845-17.896.24-2.012.531-4.06.792-6.126" clip-rule="evenodd"/></svg>