<svg xmlns="http://www.w3.org/2000/svg" width="400" height="200" viewBox="-0.000 0.000 400.000 200.000"><path fill="#fff" fill-rule="evenodd" d="M162.333 134.521c.682 2.244 1.226 4.91 2.699 6.367 2.063 2.041 9.937 1.395 12.666 1.544 8.327.455 21.162 3.187 28.967 2.076 1.856-.264 8.004.73 10.919.284 3.066-.47 8.848 2.371 10.228-1.563.904-2.569-1.717-6.479-4.279-7.713-1.157-.558-4.715-.481-6.003-.374-5.145.424-18.762-3.996-21.813-10.552-.162-.339 6.44-1.122 7.038-1.068 18.334.534 36.728 5.691 54.936 3.05 13.295-2.387 19.643-3.451 29.319 7.266 5.06 4.63 10.589 8.789 15.987 13.012 2.1 1.642 4.147 3.33 6.67 4.283.162.061 6.962.6 8.68.474 1.104-.08 4.615-6.551 4.638-7.326.038-1.089-4.914-5.083-5.72-5.427-6.93-2.977-11.638-10.469-15.986-16.658-.682-6.135-1.977-12.775-.996-18.936 5.006-31.644 42.177-27.375 65.455-28.545 9.2-.462 15.38-3.736 17.642-13.121.759-3.154 1.096-5.89-.491-8.765-5.046-9.118-17.62-12.864-26.383-16.94-6.081-2.834-11.356-6.702-17.137-10.034-2.393-1.378-8.81-2.464-10.382-4.304-.836-.986-.468-5.37-.59-6.691-.795-7.946-9.508-18.123-16.347-8.348 7.964 8.257 9.211 20.726 4.937 31.566 1.892-10.762-1.328-22.049-10.197-28.261-8.187.787-7.174 10.321-10.244 15.484-19.383 11.491-30.939 2.739-49.63-2.459-14.768-3.53-30.615-6.001-45.72-7.204-9.783-.78-19.176-1.988-28.844.495-32.597 11.676-43.739 31.378-50.811 63.736-2.339 9.711-2.853 21.151-10.551 28.325-7.092 6.607-21.637 9.702-30.792 12.728-13.294 4.393-26.804 10.856-39.632 16.516-14.415 6.358-26.981 15.197-24.19 33.051 7.605 35.318 53.045 25.074 78.642 26.573 8.373-.039 38.689.571 38.206.412-15.664-5.233-30.408-8.307-46.962-9.076-14.422-.669-29.933 1.146-43.557-4.523-11.164-4.644-17.26-16.116-9.638-27.067 3.38-4.861 8.732-7.741 14.084-9.916 23.482-9.019 49.617-7.997 73.437-16.603.233-4.75.288-9.287-1.97-13.747 4.067 3.153 7.157 7.211 7.912 12.302 9.793-2.606 19.123-.141 28.699 1.561.903.178 1.677-.231 2.645-.377 5.954-1.19 18.871-3.212 23.868-3.975 4.649-1.146-17.299 7.644-19.409 8.468m142.036-18.411c2.821 2.448 6.156 4.27 9.484 5.962 2.14 1.086 5.904 2.35 7.307 4.397 1.996 2.604-1.468 6.904-4.071 8.007-5.099-2.973-8.687-8.735-12.114-13.683-.184-1.538-.406-3.104-.606-4.683"/></svg>