<svg xmlns="http://www.w3.org/2000/svg" width="400" height="200" viewBox="-50.608 -318.148 4132.934 2066.467"><path fill="#fff" fill-rule="evenodd" d="M3859.5 1.675c-65.807 5.581-127.168 17.257-193 36.725-42.068 12.44-115.074 37.751-159 55.124-75.188 29.737-129.026 56.267-246.5 121.468-99.898 55.447-155.329 84.922-234 124.43-110.175 55.33-176.495 84.836-280 124.573-132.261 50.778-213.426 78.593-319.5 109.493-81.021 23.601-129.168 38.418-187.5 57.702-84.643 27.982-185.211 64.399-277 100.305-42.596 16.663-79.888 30.65-103.975 38.998-43.246 14.988-78.376 29.346-153.525 62.748-55.773 24.79-73.13 32.241-98.5 42.287-111.903 44.31-247.287 79.277-352 90.915-105.132 11.684-222.425 18.846-418.5 25.554-119.981 4.105-175.565 8.085-245.5 17.582-163.48 22.199-317.756 75.028-479.71 164.268-47.239 26.03-104.772 61.72-108.828 67.511-3.542 5.056-.145 7.711 7.302 5.706 2.218-.598 14.541-6.082 27.384-12.188 130.752-62.16 245.965-104.725 361.075-133.399 96.925-24.143 206.266-36.455 323.777-36.457 62.046-.001 101.524 2.119 251 13.48 105.307 8.004 141.793 10.384 210 13.701 34.443 1.675 146.111 1.682 174 .011 103.275-6.186 195.371-14.938 360-34.211 32.725-3.831 67.375-7.482 77-8.114 18.669-1.226 61.095-.66 83 1.108 28.376 2.29 68.789 7.523 70.473 9.125.549.522 1.996 25.037 3.321 56.269l2.348 55.344-4.04 6.6c-8.797 14.373-12.663 23.493-23.599 55.667-8.606 25.319-15.442 42.619-39.652 100.344-19.39 46.232-24.796 60.956-25.589 69.701-.499 5.506-.441 5.662 3.267 8.718 8.667 7.144 26.033 13.298 42.805 15.168 5.323.593 28.717 1.069 52.592 1.069h43.004l3.585-3.147 3.584-3.147 9.017 1.443c4.96.794 9.229 1.102 9.487.685.908-1.469-4.485-10.383-8.846-14.623-5.411-5.26-15.579-9.599-28.757-12.273-19.15-3.885-29.745-9.478-34.429-18.176-2.545-4.726-1.798-7.743 5.76-23.262 11.435-23.477 20.291-36.128 52.151-74.5 23.616-28.442 31.004-40.125 40.602-64.207 3.367-8.446 15.905-50.556 15.921-53.47.002-.452 2.025 3.452 4.495 8.677l4.491 9.5.022 15c.024 16.915.716 24.689 4.979 56 1.648 12.1 3.67 29.65 4.494 39s2.467 25.55 3.652 36c1.792 15.794 2.18 25.328 2.3 56.5.147 38.071.402 40.858 3.962 43.235.605.404 29.997.741 65.315.75l64.215.015 3.417-3c3.792-3.329 5.732-3.567 15.376-1.888 3.512.612 6.63.869 6.928.571 1.189-1.189-6.268-13.055-10.259-16.325-4.773-3.911-15.903-8.52-24.892-10.307-11.237-2.235-20.988-5.223-28.134-8.622-8.063-3.834-11.376-7.964-15.401-19.195-2.161-6.033-2.223-7.154-1.662-30 .601-24.494 1.932-37.116 7.775-73.734 7.822-49.023 8.053-50.919 8.623-70.621.621-21.491-.026-28.208-4.704-48.879-1.556-6.875-2.688-12.642-2.514-12.815.173-.174 5.988.833 12.922 2.238 22.673 4.591 35.17 5.703 70.595 6.283 44.681.731 88.694-1.317 134-6.235 13.34-1.448 33.046-4.063 38.111-5.057l2.612-.512-1.751 5.299c-2.71 8.202-3.247 24.749-1.501 46.299.846 10.45 1.979 35.875 2.518 56.5s1.262 40.469 1.609 44.098c.512 5.36.258 7.438-1.354 11.082-3.962 8.958-15.87 25.318-26.985 37.075-14.663 15.51-17.259 19.287-17.259 25.114 0 3.819.608 5.212 3.972 9.098 11.522 13.314 27.073 22.764 42.912 26.078 5.756 1.204 6.901 1.176 9.888-.241 4.517-2.144 5.82-4.388 8.279-14.268 3.672-14.756 10.221-25.153 26.546-42.147 7.9-8.223 10.989-12.275 13.724-18 7.441-15.578 11.721-37.467 13.665-69.889 1.181-19.681 2.121-27.589 5.584-46.985 1.324-7.416 2.942-19.341 3.596-26.5l1.189-13.015 9.976-12.763c5.486-7.02 10.145-12.595 10.351-12.388s-.14 8.875-.77 19.263c-1.483 24.438-.763 44.222 2.013 55.388 1.163 4.675 5.007 17.275 8.542 28s8.908 28.725 11.938 40 8.046 28.825 11.146 39c5.165 16.954 5.719 19.712 6.628 33 1.213 17.728.501 43.61-1.618 58.86-1.689 12.151-1.043 18.357 2.032 19.537.864.332 15.398.603 32.298.603 24.013 0 31.125-.291 32.549-1.332 3.371-2.465 3.171-10.022-.521-19.668-3.114-8.136-3.253-9.099-3.244-22.5.006-9.224.66-17.753 1.917-25 1.471-8.48 1.892-15.582 1.838-31-.072-20.842-1.12-29.977-6.88-60-1.392-7.258-3.214-22.717-4.125-35-.898-12.1-2.663-29.184-3.922-37.965l-2.291-15.966 2.948-20.034c5.2-35.347 8.749-54.512 14.356-77.535 3.013-12.375 6.336-27.199 7.384-32.942 1.36-7.455 2.433-10.827 3.752-11.789 5.085-3.706 22.672-20.117 28.848-26.918 14.181-15.616 19.139-23.304 23.402-36.29 3.175-9.673 4.757-19.66 8.562-54.061 1.917-17.325 4.186-35.55 5.042-40.5 3.998-23.103 10.769-40.565 18.67-48.151 2.378-2.283 67.099-47.914 143.824-101.402 139.902-97.531 185.41-129.689 237.5-167.824 95.81-70.144 232.883-173.827 317.8-240.388 99.423-77.93 143.829-106.972 222.2-145.32 63.824-31.23 106.872-48.309 149.504-59.314 30.41-7.85 51.983-10.974 81.568-11.811 29.195-.826 48.726 1.634 74.312 9.36 12.184 3.679 15.721 5.709 27.715 15.902 4.173 3.546 8.159 6.448 8.859 6.448 2.355 0 6.342-3.967 10.325-10.274 2.176-3.446 4.666-6.854 5.532-7.573 1.668-1.383 4.108-8.197 5.134-14.333.954-5.707-1.259-12.3-6.58-19.599-2.678-3.673-4.869-7.296-4.869-8.052 0-1.855-14.153-25.222-23.036-38.033-8.379-12.084-19.637-24.305-25.41-27.584-5.495-3.121-31.559-9.204-44.978-10.499-9.862-.951-56.192-1.216-66.076-.378"/></svg>