<svg xmlns="http://www.w3.org/2000/svg" width="400" height="200" viewBox="-269.130 -6.564 1050.261 525.130"><path fill="#fff" d="M247.173 494.345h54.072a27.4 27.4 0 0 1 6.964-11.727l5.928-5.928h-49.309c-9.734 0-17.655 7.92-17.655 17.655M35.311 358.495v13.974c0 17.972-6.183 35.598-17.409 49.632l-7.996 9.995A45.35 45.35 0 0 0 0 460.331a45.07 45.07 0 0 0 7.591 25.074l2.547 3.82a11.48 11.48 0 0 0 9.569 5.121c2.472 0 4.922-.817 6.9-2.301l22.828-17.122a8.87 8.87 0 0 0 3.531-7.061v-15.571c0-10.095 5.61-19.172 14.641-23.687a69.3 69.3 0 0 0 24.734-20.8 230.9 230.9 0 0 1-57.03-49.309"/><path fill="#fff" d="m498.736 402.535-84.469-99.374c-30.244-35.582-74.372-55.988-121.07-55.988H159.821c-58.92 0-106.855-47.935-106.855-106.855 0-24.171 8.316-47.878 23.415-66.752l5.636-7.047L89 68.099a103 103 0 0 0 22.606 2.521h54.451c5.786 0 10.495-4.727 10.495-10.537v-.324a9.54 9.54 0 0 0-2.297-6.209l-30.406-35.471A51.71 51.71 0 0 0 104.546 0h-.003c-13.824 0-26.82 5.383-36.596 15.158C24.13 58.975.001 117.229.001 179.191v32.671c0 63.174 28.605 122.942 76.387 162.859a113.8 113.8 0 0 1-5.767-35.791v-3.481h17.655v3.481c0 19.073 5.592 37.544 16.172 53.415 12.521 18.781 19.138 40.639 19.138 63.209v13.38c0 7.36-2.867 14.279-8.071 19.484l-6.686 6.686a9.83 9.83 0 0 0-2.899 6.999c0 5.458 4.44 9.899 9.899 9.899h51.894c4.867 0 8.828-3.96 8.828-8.828V425.81c0-14.276 3.375-28.574 9.76-41.343l15.791 7.896c-4.745 9.489-7.427 20.02-7.834 30.624 5.843.479 11.732.737 17.593.737h100.523a96.4 96.4 0 0 0-10.764-21.587c-12.521-18.78-19.138-40.638-19.138-63.208v-3.481h17.655v3.481c0 19.073 5.592 37.544 16.172 53.415 12.521 18.781 19.138 40.639 19.138 63.209v13.38c0 7.36-2.867 14.279-8.071 19.484l-6.686 6.686a9.83 9.83 0 0 0-2.899 6.999c0 5.458 4.44 9.899 9.899 9.899h51.894c4.867 0 8.828-3.96 8.828-8.828V425.81c0-14.276 3.375-28.574 9.76-41.343l15.791 7.896c-4.855 9.708-7.557 20.509-7.864 31.362h44.106c14.602 0 26.483 11.881 26.483 26.483s-11.881 26.483-26.483 26.483H406.07v17.655h50.209c30.725-.001 55.722-24.998 55.722-55.723a55.8 55.8 0 0 0-13.265-36.088M114.759 17.655a8.829 8.829 0 1 1-.001 17.657 8.829 8.829 0 0 1 .001-17.657"/></svg>