<svg xmlns="http://www.w3.org/2000/svg" width="400" height="200" viewBox="-5.128 -2.564 410.255 205.128"><path fill="#fff" d="M248.176.037c1.2.025 2.274.179 2.402.306.154.154.537.256.895.256.383.025 1.124.23 1.687.511s1.175.486 1.354.511c.179 0 .511.102.767.23.23.128.715.358 1.073.511s.971.512 1.406.793c.741.485 1.201.715 1.866.92.179.05.409.358.536.664.307.767 1.508 1.892 2.3 2.122.742.23 2.02 1.584 2.25 2.402.076.358.306.92.485 1.278.205.358.358.843.358 1.073 0 .665 2.837 3.732 3.63 3.936 1.763.435 3.782 1.891 3.782 2.735 0 .128.28.613.639 1.073.358.46.639.946.639 1.074 0 .153.51.766 1.15 1.38s1.15 1.278 1.15 1.457c0 .178.128.332.255.332.997 0 .614 4.345-.536 6.083-.41.613-.741 1.175-.741 1.277 0 .41-1.457 1.84-2.377 2.352-.537.28-1.508.588-2.173.69-.639.076-1.457.306-1.84.511-.358.179-1.329.332-2.198.332-1.533 0-2.249.256-4.421 1.56-.793.46-1.355.51-6.415.587-3.042.026-5.674.153-5.827.256-.18.102-.307.383-.307.613 0 .256-.23.869-.511 1.406-.41.767-.512 1.431-.512 3.603 0 2.326.077 2.837.64 3.91.332.69.843 1.457 1.15 1.739.28.255.51.664.51.894 0 .256.18.588.384.767s.383.486.383.664c0 .205.18.358.384.358s.383.153.383.358c0 .179.23.409.511.486.537.127 1.023 1.124 1.023 2.019 0 .74.817 2.479 1.175 2.504.18 0 .358.205.46.435.128.409.333.792.972 1.712.102.154.536.69.97 1.201.41.511.767 1.048.767 1.176 0 .332 1.687 1.866 2.045 1.866.128 0 .256.153.256.332 0 .204.639 1.048 1.405 1.891.767.87 1.406 1.661 1.406 1.79 0 .127.281.51.639.843.332.306.562.664.511.766-.051.103.051.41.256.665.204.255.383.818.383 1.252 0 .41.23 1.048.511 1.406s.511.767.511.946c0 .485.87 1.916 1.56 2.606.357.358.74.87.817 1.1.102.306.435.46.92.46.41 0 .818.102.895.23.076.127.383.178.664.102.333-.103.69.05.972.383.255.281.766.614 1.15.69.383.102.766.281.817.41.077.101.281.153.46.076.18-.051 1.1.28 2.07.792.946.486 1.917.895 2.148.895.23 0 .766.178 1.175.383.384.204.895.383 1.073.383.205 0 .793.41 1.355.895.537.485 1.15.894 1.355.894.204 0 .74.384 1.2.87.46.485 1.151.945 1.509 1.047.332.077.92.486 1.303.92.358.41.767.741.92.741.384 0 1.662 1.355 1.662 1.738 0 .18.153.307.332.307s.843.511 1.457 1.15c.613.64 1.277 1.15 1.456 1.15s.716.358 1.176.767c.486.434 1.022.767 1.176.767s.28.102.28.204c0 .128.538.486 1.202.818.69.307 1.687 1.022 2.25 1.533.766.716 1.328.997 2.197 1.125.844.128 1.38.383 1.891.92.486.511.997.767 1.457.767.792 0 1.738.434 2.07.945.103.18.333.333.46.333.154 0 .64.281 1.074.613.46.332 1.124.665 1.508.767.409.077.715.281.715.409 0 .153.128.255.307.255.153 0 .511.205.792.435.384.383.92.46 2.684.409 1.201-.026 2.428-.154 2.709-.281.741-.358 1.508-.665 1.815-.69.23-.052.485-.128 1.66-.588.205-.077.435-.154.512-.154.077-.025.613-.383 1.15-.817.92-.742 1.227-.818 3.246-.92l2.249-.103v21.801l-1.559.179c-.869.077-1.712.255-1.866.383-.153.128-1.15.307-2.198.409-1.048.077-2.044.256-2.172.358-.153.128-.946.281-1.764.358-.817.076-1.635.281-1.763.409-.153.153-.511.281-.792.281-.307 0-.844.179-1.227.358-.41.204-1.227.46-1.866.562-.639.077-1.227.256-1.303.383-.077.128-.844.23-1.713.23-.945 0-1.814.154-2.095.358-.281.179-1.355.383-2.352.46-1.482.102-2.019.281-2.734.818-.563.434-1.202.665-1.79.665-.485 0-.97.127-1.047.281-.102.153-.332.204-.537.127-.179-.076-.409-.025-.486.103-.102.153-.357.255-.613.255s-.818.179-1.201.384c-.41.204-1.048.383-1.431.383-.358 0-.997.153-1.406.358-2.25 1.15-4.166 1.942-4.626 1.942-.307 0-.613.128-.69.256-.179.306-2.25 1.278-2.735 1.278-.179 0-.613.23-.971.511s-.818.511-1.048.511a1.1 1.1 0 0 0-.664.281c-.154.153-.435.281-.614.332-.332.026-3.91 1.687-4.83 2.224-.205.128-.741.409-1.201.613-.435.23-.997.639-1.253.92-.23.256-.562.486-.74.486-.18 0-.512.23-.768.511-.255.281-.587.486-.74.435-.256-.103-.589.127-2.071 1.329-.153.102-.588.281-.971.383-.383.077-.69.281-.69.409s-.41.434-.895.664-.894.511-.894.639-.281.358-.64.486c-.357.128-.638.358-.638.511a.275.275 0 0 1-.256.256c-.357 0-1.635.894-2.888 2.044-.536.486-1.252.997-1.61 1.15-.869.358-4.191 3.425-4.191 3.86 0 .204-.128.357-.256.357-.153 0-.255.154-.255.333s-.41.715-.895 1.201c-.486.485-.894.971-.894 1.073 0 .128-.282.486-.64.818-.357.332-.638.716-.638.844 0 .281-1.61 1.865-1.892 1.865-.102 0-.639.332-1.175.767-.537.409-1.074.767-1.202.767-.102 0-.945.639-1.814 1.405-.895.767-1.712 1.406-1.84 1.406s-.281.23-.384.486c-.153.485-3.194 2.146-4.549 2.453-.383.102-.767.281-.843.409-.077.128-.41.23-.716.23-.332 0-.741.179-.92.383-.46.563-1.763 1.151-2.53 1.151-.486 0-1.1.434-2.198 1.533-1.38 1.38-1.61 1.533-2.607 1.533-.588 0-1.15.128-1.227.256-.204.332-1.482.332-1.84-.025-.179-.179-.716-.231-1.406-.128-.588.102-2.453.255-4.089.358-1.763.127-3.144.332-3.322.511a1.13 1.13 0 0 1-.716.306c-.205 0-.69.154-1.074.358a7 7 0 0 1-1.456.537c-.435.102-.793.281-.793.409s-.204.23-.46.23c-.23 0-1.124.358-1.942.767-.818.434-1.764.766-2.07.766-.307 0-.716.179-.895.384-.179.204-.588.383-.894.383s-.716.179-.895.383-.511.384-.766.384c-.231 0-.588.306-.767.715-.741 1.457-1.559 2.096-2.709 2.096-.997 0-1.125.077-1.534.92-.664 1.406-1.814 2.147-3.373 2.147-.742 0-1.329.102-1.329.23s-.358.639-.818 1.15c-1.227 1.38-2.3 1.227-3.144-.46-.307-.613-2.045-.894-2.505-.434s-1.175.306-1.61-.358c-.485-.741-1.891-.869-3.092-.281-1.534.766-2.096.92-5.061 1.329-1.686.23-3.194.536-3.373.664s-.435.179-.562.102c-.128-.102-.307-.051-.409.103-.077.127-.435.255-.767.255s-.69.128-.767.256c-.077.153-.358.255-.588.255s-.766.179-1.175.384c-.384.204-.92.383-1.176.383s-.639.153-.818.358c-.204.179-.741.434-1.201.537-.46.102-1.125.332-1.508.536s-.894.358-1.125.358-.485.102-.562.23c-.076.128-.46.307-.843.384-.409.102-1.534.562-2.505 1.022-1.917.92-5.06 1.942-5.955 1.942-.306 0-.562.077-.562.205 0 .255-2.351 1.073-3.144 1.073-.332 0-.766.153-.92.358-.153.179-.766.409-1.38.486-.588.076-1.61.434-2.249.766-.639.358-1.533.716-1.968.818-.46.077-.818.281-.818.409s-.179.23-.383.23a.39.39 0 0 0-.383.383c0 .23-.231.384-.537.384s-.971.332-1.508.767c-.537.408-1.15.766-1.355.766-.204 0-.511.179-.69.384-.179.204-1.022.869-1.891 1.456l-1.559 1.099-26.657.077c-15.718.026-26.605-.025-26.529-.179.793-1.252 11.067-7.488 15.386-9.328 1.252-.537 2.403-1.125 2.556-1.329.153-.205.409-.358.537-.358.153 0 .409-.179.587-.384.179-.204.639-.383 1.048-.383.716 0 1.738-.409 2.045-.843.077-.128.204-.205.255-.205.333.051 1.253-.332 1.253-.511 0-.128.076-.23.179-.204.409.051 1.354-.358 1.354-.563 0-.127.154-.23.333-.23.178 0 .741-.23 1.277-.511.512-.281 1.227-.511 1.559-.511.333 0 .742-.179.921-.383.178-.205.46-.384.638-.384.205 0 .665-.153 1.074-.358 1.303-.664 2.581-1.175 2.965-1.175.204 0 .511-.179.69-.384.179-.204.511-.383.766-.383.256 0 .793-.179 1.176-.383.409-.205 1.048-.384 1.431-.384.409 0 .716-.127.716-.255 0-.154.128-.256.255-.256.154 0 .716-.281 1.278-.639s1.253-.639 1.559-.639c.46 0 1.227-.306 2.531-1.048.204-.127.869-.46 1.456-.766.588-.281 1.202-.69 1.38-.895.154-.204.409-.358.537-.358s.665-.332 1.176-.741c.511-.434 1.252-.843 1.636-.92.408-.102.715-.281.715-.383 0-.103.307-.281.665-.358.357-.102.792-.281.945-.409 1.534-1.252 1.968-1.559 1.968-1.406 0 .077.332-.076.767-.383.409-.307.767-.46.767-.358 0 .128.127.077.306-.102s.512-.307.767-.307c.409 0 .767-.128 1.994-.792 1.482-.792 3.092-1.508 3.424-1.508.205 0 .435-.102.512-.23.102-.128.613-.307 1.175-.409s1.074-.281 1.176-.409c.077-.128.511-.23.945-.23.461 0 1.125-.153 1.483-.358.613-.306 2.249-.741 2.965-.792a.83.83 0 0 0 .485-.204c.102-.103.562-.179.997-.179.46 0 .971-.179 1.15-.384.179-.204.69-.383 1.15-.383s.971-.179 1.15-.383c.179-.23.741-.384 1.304-.384.536 0 1.022-.102 1.124-.23.077-.128.486-.306.895-.409 1.073-.23 1.048-1.329-.026-2.428l-.818-.792.179-3.195c.077-1.763.256-3.399.384-3.629.204-.409.638-3.45 1.022-7.105.077-.869.281-1.712.434-1.917.154-.204.358-1.917.46-3.808.077-1.891.23-3.91.307-4.472s.205-2.812.256-4.984c.051-2.198.23-4.217.409-4.524.153-.307.204-1.073.153-1.738-.077-.639-.051-1.227.077-1.303.127-.077.23-1.15.23-2.403 0-1.252.102-2.326.23-2.402.102-.077.306-.844.383-1.738.102-.869.358-1.815.562-2.096s.358-.818.358-1.176c0-.357.179-.868.383-1.124.23-.307.384-1.073.384-1.815 0-1.968-.384-2.198-3.527-2.274-1.406-.026-2.709-.154-2.888-.333-.205-.153-1.099-.332-2.019-.408-2.735-.256-3.399-.461-4.294-1.278-.741-.716-1.022-.818-2.684-.895-1.533-.077-1.942-.204-2.504-.741-.792-.741-3.297-1.125-3.911-.613-.536.434-1.431 2.376-1.431 3.041 0 .307-.306 1.048-.664 1.61-.358.588-.716 1.457-.793 1.968-.102.511-.306 1.201-.511 1.585-.179.357-.332.945-.332 1.329 0 .409-.102.715-.256.715-.127 0-.332.307-.408.69-.103.384-.46.997-.793 1.355-.306.332-.588.818-.588 1.048s-.23.613-.511.869c-.281.255-.511.664-.511.894 0 .256-.179.588-.383.767s-.384.46-.384.639-.179.664-.383 1.048c-.204.409-.383.92-.383 1.15 0 .562-.92 2.377-1.38 2.76-.23.205-.767 1.073-1.227 1.994-.435.894-.895 1.686-1.023 1.763-.102.077-.383.511-.587.946-.409.894-.716 1.405-1.559 2.607a6.2 6.2 0 0 0-.716 1.303c-.102.307-.46.869-.792 1.227-.333.358-.818 1.073-1.048 1.559-.23.485-.537.894-.665.894-.127 0-.179.103-.102.23.077.128-.025.358-.23.537-.204.179-.383.46-.383.639 0 .153-.23.511-.511.767-.282.255-.512.613-.512.818 0 .562-1.354 2.121-1.84 2.121-.485 0-4.677 4.191-5.162 5.163-.154.332-.614.741-.997.92-.409.204-.818.639-.946.971s-.409.613-.588.613-.664.358-1.073.767c-.409.434-.869.767-1.048.767s-.869.281-1.533.639c-.665.357-1.355.639-1.534.639-.204 0-.358.153-.358.306 0 .179-.843.716-1.865 1.201-.997.461-2.122 1.125-2.479 1.457-.358.307-.997.665-1.406.767-.435.102-1.125.46-1.559.792-.435.307-.92.588-1.074.588-.178 0-.741.409-1.303.895-.537.485-1.201.894-1.482.894-.767 0-2.428.895-3.246 1.764-.435.434-.971.792-1.227.792s-.46.153-.46.332-.256.435-.588.562a2.1 2.1 0 0 0-.818.818c-.127.333-.358.588-.46.588-.281 0-1.175 1.074-1.201 1.431 0 .128-.358.588-.767.997-.434.409-.766.92-.766 1.176 0 .23-.179.562-.384.741-.204.179-.383.511-.383.767 0 .255-.179.587-.384.766-.204.179-.383.46-.383.639s-.179.46-.383.639-.384.511-.384.767-.179.792-.383 1.176c-.204.409-.383.92-.383 1.15s-.179.766-.384 1.15c-.204.409-.383.997-.383 1.303 0 .307-.128.639-.256.716-.153.077-.255.409-.255.716 0 .332-.179.817-.384 1.124-.204.281-.434 1.022-.536 1.636s-.333 1.354-.511 1.635c-.205.282-.358.742-.358 1.048 0 .281-.179.869-.384 1.304-.204.409-.562 1.533-.792 2.53-.23.971-.511 1.942-.613 2.147-.46.997-.971 1.763-1.968 2.939-.614.69-1.099 1.406-1.099 1.559s-.23.486-.511.741c-.282.256-.512.588-.537.741 0 .154-.46.665-1.048 1.125-.741.588-1.278.818-1.993.818-.537 0-1.023.128-1.074.255-.051.154-.537.333-1.099.435-.562.076-1.099.281-1.201.434-.102.154-1.048.307-2.096.358l-1.942.102v-7.974h2.811v-.869c0-.46.179-.996.384-1.175.204-.179.383-.486.383-.665 0-.204.102-.358.204-.358.103 0 .333-.306.511-.715.384-.818.742-1.431 1.534-2.556.716-.971 1.022-1.942 1.329-4.013.46-3.118.767-4.574 1.022-4.83.128-.128.256-.46.256-.69 0-.256.128-.767.281-1.176.179-.383.332-1.048.383-1.457.077-.408.281-.945.486-1.175s.383-.869.383-1.431.154-1.227.358-1.508c.23-.358.383-1.585.46-3.808.077-2.275.205-3.348.409-3.425.179-.051.307-.358.307-.69 0-.614 1.789-2.556 2.351-2.556.179 0 .46-.281.639-.639.307-.664 2.837-3.169 3.348-3.348.153-.051 1.304-1.022 2.53-2.147 1.227-1.124 2.3-2.044 2.403-2.044.102 0 .818-.614 1.61-1.329.792-.742 1.533-1.355 1.661-1.355.102 0 .332-.281.486-.639s.485-.639.715-.639c.256 0 .358-.077.281-.179-.23-.23.844-1.354 1.278-1.354.179 0 .333-.179.333-.384 0-.204.179-.383.383-.383s.383-.23.383-.486c0-.281.179-.664.384-.894.204-.205.383-.46.383-.588 0-.102.358-.435.767-.716s.767-.639.767-.766c0-.154.511-.793 1.15-1.406s1.15-1.227 1.15-1.355c0-.357 1.533-2.223 1.84-2.223s.971-.639.971-.946c0-.358 1.38-1.61 1.764-1.61.178 0 .817-.409 1.405-.894.614-.486 1.278-.895 1.483-.895.23 0 .536-.179.715-.383s.46-.384.614-.384c.178 0 .562-.255.869-.587.766-.818 1.124-4.984.46-5.521-.46-.383-.614-3.348-.154-3.348.332 0 .332-3.757 0-3.961-.358-.205-.332-2.607.026-2.735.153-.051.332-1.176.409-2.709.076-1.432.255-2.684.358-2.761.332-.178.281-2.658-.026-2.658-.435 0-.307-4.395.128-4.958.255-.358.383-1.15.383-2.607 0-1.354.128-2.35.383-2.811.205-.409.384-1.278.384-1.942 0-.665.102-1.253.204-1.33.128-.076.307-1.354.384-2.862.102-1.917.281-2.837.562-3.143.23-.282.383-.92.383-1.585 0-.639.154-1.303.333-1.457.204-.23.332-1.738.383-5.24.102-4.753.102-4.906.69-5.494.358-.358.69-1.073.792-1.738.077-.613.256-1.124.384-1.124.127 0 .23-.128.23-.307 0-.18.511-.844 1.124-1.483.614-.638 1.355-1.559 1.61-2.044.281-.486.767-1.022 1.125-1.201.409-.205.664-.588.741-1.125.102-.69.281-.869 1.099-1.099.511-.153 1.534-.767 2.224-1.38.69-.588 1.405-1.073 1.61-1.073.204 0 .511-.18.69-.384s.511-.383.767-.383c.255 0 .587-.18.766-.384s.588-.383.92-.383c.358 0 .614-.153.614-.358 0-.434 1.252-1.405 2.428-1.916.409-.18.945-.435 1.15-.563 1.559-.894 4.14-1.993 4.984-2.121.562-.077 1.047-.256 1.099-.409a.46.46 0 0 1 .383-.256c.179 0 .613-.153.971-.357a7.6 7.6 0 0 1 1.406-.512c.409-.102.792-.28.869-.357.179-.256 2.377-1.304 2.964-1.406.256-.051.665-.179.869-.256a8.5 8.5 0 0 1 1.15-.28c1.253-.256 1.329-.282 1.764-.64.639-.536 2.275-1.303 2.76-1.303.486 0 2.428-.946 2.658-1.304.077-.127.358-.23.665-.23.281 0 .869-.153 1.303-.357.46-.205 1.278-.435 1.84-.512.563-.076 1.048-.255 1.099-.408.051-.128.256-.256.486-.256.204 0 .741-.153 1.176-.358.46-.204 1.252-.409 1.789-.486.511-.076 1.303-.383 1.712-.69.434-.306.767-.46.767-.357 0 .076.383-.128.869-.511.485-.358 1.099-.665 1.38-.665.255 0 .997-.281 1.61-.639s1.303-.69 1.508-.792c.204-.077.588-.256.818-.384.255-.127.613-.23.792-.23.204 0 .562-.23.818-.51.255-.282.664-.512.894-.512s.537-.128.665-.256c.153-.153.869-.332 1.584-.434.742-.077 1.457-.307 1.611-.486.178-.204.792-.357 1.533-.357.664 0 1.278-.103 1.38-.23.23-.384 1.687-1.048 2.3-1.048.333 0 .639-.18.741-.384.077-.204.333-.383.588-.383.767 0 4.013-.818 4.422-1.125.869-.639 2.044-1.175 2.607-1.175.306 0 .818-.18 1.073-.384.281-.204.767-.383 1.099-.383s.588-.128.588-.256c0-.153.23-.255.511-.255s.716-.23.946-.511c.255-.281.562-.511.715-.511.179 0 .563-.282.895-.64.332-.357.767-.638.945-.638.205 0 .409-.18.486-.384.102-.204.281-.383.409-.383.153 0 .69-.358 1.201-.767 1.457-1.227 1.483-1.252 2.173-1.431.383-.077.869-.409 1.124-.716.23-.306.614-.639.818-.74.204-.103.716-.41 1.15-.69.409-.282.946-.563 1.15-.665.205-.077.716-.282 1.15-.486.665-.281 1.457-.613 1.917-.767 1.943-.664 3.374-1.508 3.578-2.07.128-.332.409-.613.639-.613.205 0 .384-.154.384-.333 0-.153.69-.638 1.533-1.047 1.125-.537 1.533-.87 1.585-1.278.025-.281.051-.741.076-.971.026-.614.895-1.483 1.457-1.483.256 0 .46-.153.46-.332 0-.153.588-.562 1.304-.895.69-.332 1.354-.792 1.43-1.022.23-.639 1.125-1.584 1.534-1.584.18 0 .333-.128.333-.256 0-.435 1.329-1.79 1.763-1.79.588-.025 3.041-2.453 3.144-3.143.05-.357.28-.587.69-.639.639-.102 1.43-.869 1.712-1.686.307-.92.971-1.432 1.866-1.432.588 0 1.048-.204 1.457-.639.434-.46.843-.639 1.533-.639.537 0 1.15-.153 1.355-.357.562-.46 1.303-.563 3.859-.46m-9.891 71.025c-.665.383-1.79 1.303-2.556 2.044-.741.741-1.457 1.355-1.584 1.355-.128 0-.41.28-.64.639-.23.332-.74.792-1.15 1.022-.408.204-1.098.971-1.533 1.738-.409.741-1.201 1.687-1.712 2.096-.537.434-1.15.97-1.38 1.226-.205.256-1.687 1.79-3.272 3.374-1.559 1.61-2.862 3.144-2.862 3.4s-.103.561-.256.715c-.383.383-1.329 3.169-1.533 4.575-.205 1.508.102 6.568.639 10.606.102.767.306 1.559.46 1.712.434.588.69 27.015.306 34.146l-.204 3.782 1.073.997c.767.716 1.304 1.022 1.84 1.022.409 0 1.176.179 1.713.409.511.205 1.968.614 3.246.895 1.252.255 2.658.664 3.067.894.74.384.869.384 1.968-.128.664-.281 1.482-.536 1.84-.536s.69-.103.766-.23c.077-.103.537-.281.997-.358 1.125-.179 3.604-1.917 5.035-3.553.639-.741 1.815-2.044 2.607-2.939.818-.869 1.482-1.687 1.482-1.789 0-.562 4.14-4.472 5.52-5.188.819-.435 1.61-.946 1.764-1.125.46-.562 2.48-1.942 2.863-1.942.306 0 1.865-.997 2.377-1.533.69-.691 2.964-1.917 3.373-1.841.128.026.205-.051.205-.204 0-.128.153-.256.332-.256.204 0 .562-.23.818-.511s.562-.434.69-.358.767-.179 1.431-.562c2.326-1.354 5.648-2.913 6.236-2.913.409 0 .767-.256 1.074-.793.255-.409.74-.869 1.099-1.022.332-.128.996-.511 1.43-.843.46-.333 1.1-.691 1.458-.767a10 10 0 0 0 1.15-.409 31 31 0 0 1 1.66-.511c.64-.179 1.483-.588 1.867-.92.409-.333.843-.614.97-.614.154 0 .64-.281 1.074-.613.46-.358 1.15-.716 1.585-.818.409-.102 1.201-.46 1.712-.792.537-.307 1.304-.588 1.687-.588.409 0 1.073-.153 1.482-.358.46-.23 1.968-.434 4.013-.511 1.866-.077 3.808-.307 4.473-.537a72 72 0 0 1 4.012-1.048c1.534-.357 3.17-.817 3.63-.996.92-.384 1.124-1.074.383-1.304-.46-.128-2.71-1.15-3.962-1.789-.409-.204-.843-.358-.971-.358-.153 0-1.099-.409-2.121-.92-1.048-.485-2.556-.997-3.425-1.124-.92-.128-1.866-.435-2.326-.793-.818-.587-2.504-.92-5.01-.971-.996-.025-1.507-.204-2.274-.792-.562-.435-1.15-.767-1.303-.767-.18 0-.511-.23-.767-.511-.281-.307-.792-.511-1.278-.511-.46 0-1.252-.179-1.738-.383-.51-.205-1.38-.384-1.917-.384-.536 0-1.2-.179-1.482-.383-.255-.205-.894-.384-1.406-.384-.51 0-1.2-.204-1.533-.46-.332-.28-1.074-.562-1.636-.639-.536-.102-1.303-.383-1.687-.664-.357-.281-1.124-.613-1.686-.767-.588-.153-1.176-.46-1.355-.639-.153-.204-.434-.332-.639-.255-.179.076-.92-.154-1.636-.512-.715-.357-1.66-.664-2.146-.664-.614 0-1.048-.204-1.56-.741-.434-.46-1.047-.792-1.507-.844-.844-.076-.844-.076-1.866-2.632-.767-1.866-1.431-2.658-4.805-5.623-1.763-1.559-4.754-4.83-6.21-6.824-1.15-1.584-4.09-4.651-5.444-5.673-1.534-1.176-3.272-1.253-5.035-.23m-40.765 24.1q-.958 0-1.457.537c-.306.332-1.226.716-2.376.997-1.713.409-1.866.486-1.943 1.15-.076.486.102.92.537 1.38.869.895 1.559 3.757 1.329 5.342-.102.664-.511 2.172-.92 3.373-.486 1.457-.818 3.17-.997 5.112-.409 4.524-1.252 9.737-1.789 10.862-.537 1.201-1.15 3.501-1.406 5.444-.102.766-.46 2.044-.792 2.888-.332.818-.613 1.738-.613 2.019 0 .741-1.457 3.706-2.76 5.623-1.278 1.84-3.042 5.622-3.272 6.926-.153.945-.511 2.581-.92 4.242-.588 2.352.23 3.783 2.3 4.09.511.051 1.176.23 1.457.357.281.128 1.764.333 3.323.46 3.68.333 6.619.844 8.101 1.406 1.125.434 1.329.46 2.812.077.894-.23 2.172-.486 2.888-.588.69-.077 1.584-.332 1.968-.511.485-.256 1.686-.358 3.884-.358 2.786 0 3.348-.077 4.294-.562 2.581-1.304 2.888-1.738 2.045-2.965-.256-.383-.665-1.38-.895-2.224-.255-.843-.588-1.891-.741-2.3-.128-.434-.358-1.201-.486-1.738a6.2 6.2 0 0 0-.715-1.661c-.256-.383-.741-1.559-1.048-2.607s-.665-2.121-.818-2.377c-.818-1.635-2.223-6.287-2.53-8.485-.486-3.527-.69-4.651-1.048-5.623-.92-2.479-1.048-2.862-1.252-3.961a69 69 0 0 1-.46-2.684c-.128-.843-.358-2.402-.537-3.45-.153-1.048-.46-2.888-.69-4.089-.205-1.201-.409-2.837-.46-3.629-.026-.818-.179-1.61-.307-1.789-.153-.179-.281-1.38-.281-2.633-.026-1.278-.153-3.118-.307-4.09-.179-.996-.357-2.197-.434-2.683-.179-1.15-.562-1.61-1.201-1.43-.307.076-.972.152-1.483.152"/></svg>