<svg xmlns="http://www.w3.org/2000/svg" width="400" height="200" viewBox="-244.636 1.184 1092.435 546.218"><path fill="#fff" d="M236.5 1.7c-2.2.1-10.3.7-18 1.3-39.7 3.1-76.4 11.3-97.6 22-7.3 3.7-20 12.3-27.1 18.3-6.4 5.5-39.2 40.2-45.5 48.2-1.8 2.2-6.6 10.8-10.8 19.2-5.1 10.2-8.6 16-10.6 17.5-11.8 9-16.8 17.3-21.3 35.3-4.2 16.7-4.7 23.9-4.2 59.7l.4 33.5 2.7 6.2c3.4 7.6 12.2 16.1 21.5 21 5 2.6 9.7 6.6 20 17.1 9 9.2 15.2 14.6 18.5 16.3 9.2 4.6 27.7 8.8 42 9.7 7.2.4 17.3 1.7 22.5 2.8 21 4.6 39.5 5 54.7 1.1 8.6-2.2 12.9-4.3 21-10.3 9.6-7.2 12.1-7.9 33.9-8.4l19-.4 2.8 8.8c2.8 8.8 2.8 9.2 3.3 40.4.4 26.4.2 33.4-1.2 42.9-3.7 24-.9 31.5 22 60.1 5.1 6.3 12.6 16.7 16.7 23.1 11.7 18 15.1 19.9 37.4 20.9 14.4.7 15.4.9 23 4.3 9.9 4.5 14.9 5.6 24.4 5.7 15.5 0 30.3 3.4 69.9 15.9 35.3 11.2 45.5 13.4 61.1 13.5 20.6.1 28.6-3.9 37.2-18.7 8.5-14.8 10.1-16.8 16.3-21.3 15.3-10.8 17.4-15.5 25.4-54.6 5.9-28.9 7.6-50 4.5-56-1.3-2.5-1.4-4-.5-9.2 3.3-19-2.2-41.8-14.2-59.6-5.3-7.7-14.7-16.9-28.2-27.3-14.6-11.3-44.3-40.4-52.3-51.2-7.9-10.6-10.2-15.8-10.2-23 0-9.5-2.9-14.2-17-27.4-10.1-9.5-12.5-12.3-15.5-18.4-1.9-4-4.2-10.5-5.1-14.6l-1.5-7.3 6-12.7c9.7-20.4 11.2-31.3 5.7-42.5-3.6-7.3-10.5-13.5-23.5-21-12.8-7.4-17.8-11-41-29.5-34.4-27.3-55-38.4-86.1-46.2-16.7-4.2-34.2-5.9-57-5.7-10.7.1-21.3.3-23.5.5"/></svg>