<svg xmlns="http://www.w3.org/2000/svg" width="400" height="200" viewBox="-5.128 -2.564 410.256 205.128"><path fill="#fff" d="M296.53 1.223c.983.724 3.26 2.018 4.968 2.846 3.053 1.449 3.208 1.604 3.777 4.037.363 1.397.621 3.467.621 4.605-.051 1.087.104 3.054.26 4.296l.31 2.225-1.139-1.139c-1.087-1.086-1.242-1.138-1.811-.31-.518.724-.518 1.345.155 3.364.88 2.898.57 4.709-.673 3.674-.517-.466-.776-.466-.776-.052 0 .31-.362.57-.776.57-.621 0-.673.207-.259.983.259.57.518 1.811.518 2.743l-.052 1.707-1.087-1.449c-.828-1.138-1.19-1.293-1.5-.776-.311.518-.57.466-1.14-.31-.672-.932-.724-.828-.724 1.19 0 2.122-.62 3.467-1.035 2.329-.103-.31-.517-1.035-.931-1.553-.725-.931-.725-.931-.776.414 0 1.915-.725 1.811-1.553-.103-1.035-2.484-1.397-2.226-1.139.88.207 2.742.207 2.846-.88 2.484-.88-.26-1.086-.104-1.086.776 0 .62-.207.983-.466.828s-.57.362-.724 1.138c-.207 1.035-1.035 1.915-2.64 2.95-1.293.828-2.38 1.656-2.38 1.863s1.604.88 3.622 1.553c3.468 1.086 9.212 5.071 8.436 5.848-.518.517 2.38 2.898 3.156 2.587.415-.155.88-.052 1.036.259.207.31.672.414 1.086.259.363-.156.932.207 1.294.828.31.62.725.983.88.828.207-.156.724.051 1.19.465.776.725.932.725 1.553 0 .828-.983 1.552-.983 1.552 0 0 .414.466.984 1.035 1.294.88.466 1.139.362 1.656-.776.673-1.5 1.45-1.708 1.45-.31 0 1.345 2.483 1.81 3.208.569.362-.518.931-.828 1.294-.673.362.155.672 0 .672-.31 0-.311.207-.57.518-.57.259 0 .517.932.517 2.07 0 1.553.207 2.07.828 2.07.725 0 .828.414.57 2.691-.518 5.02-1.398 6.676-4.089 8.022-1.293.672-3.933 1.604-5.796 2.07-3.208.88-3.881.828-13.61-.052-5.641-.518-11.955-.983-14.077-1.035l-3.83-.052-1.707 4.089c-2.018 4.812-2.38 5.226-7.556 9.16-2.173 1.707-4.14 3.311-4.295 3.622-.207.259 0 .932.518 1.5.569.674.88 2.07.983 4.969.052 2.277.414 4.606.776 5.278.362.673.518 1.553.362 1.967-.414 1.035.104.931 2.795-.621 1.966-1.139 2.743-1.294 5.072-1.035 3.57.414 6.624 1.708 7.866 3.312 1.397 1.708 1.397 3.26 0 1.604l-.984-1.242-.051 1.242c0 1.139-.052 1.191-.673.414-.983-1.293-4.192-2.432-6.52-2.225-1.553.103-2.692.725-4.503 2.329-3.157 2.794-4.865 2.794-5.537.052-.207-.725-1.087-2.174-1.967-3.261l-1.604-1.966-.828 1.19c-.414.673-1.708 2.122-2.795 3.312l-2.018 2.122 3.105 1.19c3.467 1.294 6.935 3.985 8.125 6.314.931 1.863.57 2.484-.725 1.293-1.449-1.345-1.604-1.086-.724 1.501.62 1.812.62 2.484.155 2.95-.414.414-.57.414-.466.052.156-.518-1.035-2.329-3.622-5.434-1.76-2.174-6.52-4.554-9.367-4.709-2.277-.156-2.64 0-5.175 2.277l-2.691 2.432.828 7.4c1.5 12.731 1.086 20.028-1.346 24.841-1.242 2.432-2.69 3.829-5.64 5.33-3.157 1.604-12.938 10.92-12.938 12.265 0 1.242 5.589 7.711 8.487 9.833 1.138.776 3.778 2.018 5.951 2.691 2.174.724 4.761 1.604 5.744 2.018 1.45.621 2.33.673 4.296.207 2.173-.466 2.743-.414 5.02.673 1.449.673 2.587 1.501 2.587 1.863 0 .311 1.087.88 2.433 1.19 2.898.777 5.847 3.468 5.847 5.434 0 1.449-.465 1.708-1.5.673-.518-.518-.57-.362-.31.776.206.776.206 1.811.05 2.381-.31.983-.413.931-1.862-.466-1.656-1.708-2.691-1.811-5.434-.725-2.018.88-3.364.673-4.658-.621-1.035-1.035-1.552-.569-.828.777.673 1.242.777 4.243.156 4.243-.26 0-.88-.465-1.45-1.087-1.552-1.707-2.587-2.07-3.984-1.449-1.035.466-2.484.156-8.694-1.863-5.797-1.914-8.695-2.535-13.145-2.949-3.157-.311-6.314-.828-7.038-1.191-1.605-.879-2.484-3.57-2.174-6.624.362-3.26-.621-8.435-2.484-12.834-1.915-4.451-2.07-6.728-.673-8.435.518-.673 1.656-2.07 2.433-3.105 1.138-1.346 1.604-2.692 1.914-5.124.414-3.415 2.381-8.021 4.244-9.988.569-.673 1.967-1.294 3.312-1.501 2.795-.414 3.312-1.138 1.76-2.432-1.087-.88-1.294-.88-2.07-.155-1.346 1.19-5.952.983-9.057-.414-3.778-1.76-5.123-2.018-9.263-1.604-3.623.362-3.726.414-6.003 3.001-4.503 5.227-12.731 13.041-14.232 13.611-.88.362-2.536.879-3.726 1.19-2.795.724-6.365 3.416-7.556 5.693-1.552 2.949-.983 7.814 1.553 13.041 3.415 7.09 6.107 10.298 10.868 12.834 2.225 1.242 4.347 2.484 4.761 2.795.362.31 2.07.569 3.778.569 2.484 0 3.208.207 3.933 1.087.465.621 1.552 1.242 2.328 1.449 2.277.517 5.02 3.363 5.382 5.641l.311 1.914-2.95-1.345c-1.552-.725-3.519-1.242-4.295-1.139-1.294.156-1.449.311-1.294 1.967.155 2.07-.259 4.14-.828 4.14-.207 0-.621-.673-.931-1.501-.621-1.552-2.381-2.225-4.141-1.552-1.811.724-4.709.517-5.433-.414-.621-.725-.777-.57-.984 1.656-.31 3.001-.983 3.363-2.225 1.242-.828-1.449-1.035-1.553-2.846-1.294-2.329.414-5.848-.569-8.591-2.432q-2.018-1.398-4.036-1.398c-4.089 0-6.883-4.709-8.539-14.387-.673-4.088-.725-5.692-.207-9.729.828-6.779.724-8.694-.518-11.074-1.449-2.795-1.035-4.658 1.863-8.798 1.294-1.811 2.329-3.83 2.329-4.502 0-3.623 2.743-6.573 8.642-9.264 2.07-.931 3.778-1.915 3.778-2.225 0-.259-1.811-.621-4.036-.828-2.174-.207-6.211-.673-8.902-1.087-18.423-2.691-34-1.966-48.594 2.381-7.4 2.225-18.889 6.779-26.082 10.402-3.726 1.863-6.055 2.794-6.055 2.38 0-1.242 8.953-9.419 13.093-11.954 8.073-5.02 27.894-13.507 48.439-20.753 20.648-7.296 22.46-8.331 32.292-19.51 2.277-2.639 5.486-5.382 9.574-8.228 4.399-3.105 8.281-6.52 14.077-12.42 8.797-8.85 10.505-9.988 18.63-12.627 3.933-1.294 5.123-1.398 11.385-1.398l6.987.052 4.657-5.227c6.21-6.986 6.262-7.09 4.865-9.78-.828-1.657-.984-2.692-.777-4.555.207-1.294.363-2.95.363-3.674.103-3.105.569-4.658 2.018-6.47.88-1.086 1.553-2.587 1.553-3.311 0-1.811.88-4.813 1.707-6.003.466-.621 1.346-.932 2.433-.88 4.14.103 12.886-4.088 17.698-8.487 4.192-3.83 11.179-8.953 13.87-10.195 1.552-.725 3.778-1.139 6.727-1.294 4.089-.207 4.503-.103 6.21 1.139"/></svg>