<svg xmlns="http://www.w3.org/2000/svg" width="400" height="200" viewBox="-5.126 -2.564 410.257 205.128"><path fill="#fff" d="M383.597 8.466c.537.077 2.34.576 4.029 1.113 1.688.499 3.76 1.036 4.566 1.15 1.995.346 3.722 2.073 4.758 4.912.46 1.19 1.266 3.032 1.803 4.068 1.19 2.379 1.574 4.643.96 5.755-.538.998-2.571 2.34-3.607 2.34-.422 0-1.305-.421-2.034-.997-1.727-1.304-3.261-1.918-7.252-2.8-6.37-1.42-9.017-1.612-12.509-.998-7.329 1.266-14.734 4.796-25.44 12.048-11.28 7.636-22.83 18.265-35.11 32.385-3.26 3.76-16.614 16.883-28.164 27.742-5.947 5.564-13.353 13.468-16.653 17.766-3.261 4.259-4.911 8.48-5.448 14.236-.614 6.331-2.609 10.743-6.216 13.621-1.036.844-2.149 1.996-2.418 2.533-.498.921-1.957 9.976-2.379 14.619-.153 1.573.077 3.185.768 5.948.537 2.072 1.074 4.489 1.189 5.371.307 2.341 1.267 6.255 1.919 7.79.307.729.729 2.571.921 4.067.383 2.724 1.803 6.677 2.417 6.677.192 0 .345.575.345 1.304 0 2.034-1.112 2.533-5.755 2.533h-3.837v-1.497c0-2.571-1.036-7.137-2.226-9.669-.614-1.343-1.88-4.49-2.801-6.945-.921-2.494-1.803-4.375-1.918-4.221-.154.153-.729 1.803-1.267 3.722-.575 1.88-1.381 4.566-1.842 5.947-.844 2.571-1.151 7.521-.575 9.67l.269 1.074h-3.914c-5.257-.038-5.564-.23-4.758-3.453.345-1.305.614-3.876.614-5.717 0-2.072.422-5.718 1.151-9.632.652-3.491 1.266-7.444 1.419-8.825.116-1.381.538-3.261.998-4.221 2.494-5.525 2.955-6.638 2.955-6.906 0-.192-1.957.613-4.375 1.726-4.796 2.302-9.707 4.068-14.082 5.027-3.798.882-12.24.882-15.809 0a86 86 0 0 0-2.724-.614c-.077 0-.23 1.842-.384 4.106-.307 4.719-.997 8.518-2.11 12.202-.959 3.069-1.074 8.019-.269 9.976.653 1.496 1.842 2.379 3.722 2.724 2.571.461 4.567 1.65 5.18 3.032.307.729.538 1.496.538 1.726 0 .231-2.763.384-8.02.384h-8.019l-.806-1.305c-.461-.69-.806-1.803-.806-2.494 0-.652-.115-1.189-.307-1.189-.153 0-.23-1.957-.153-4.298.076-3.453-.077-5.333-.845-9.247-.575-2.724-.997-5.449-.997-6.063s-.115-1.113-.269-1.113c-.115 0-1.189.921-2.379 2.034s-3.261 2.648-4.643 3.377-3.645 2.417-5.065 3.722c-3.146 2.954-3.491 4.067-2.264 7.214.768 2.072 1.036 4.834.576 6.062-.345.921-2.072.806-2.072-.153 0-.499-.537-1.036-1.612-1.574-1.841-.959-5.525-4.297-6.254-5.717-.499-.959-.691-2.149-.614-3.722.038-1.074 2.034-3.415 4.95-5.832 2.494-2.072 3.76-3.761 5.909-7.713 1.496-2.839 2.571-4.566 3.262-5.295.882-.921.383-6.446-.614-6.983-.346-.154-2.763-.538-5.334-.806-7.06-.691-20.106.307-34.572 2.686-14.197 2.34-29.239 2.993-41.095 1.803-10.399-1.074-18.073-1.458-23.407-1.266-7.751.345-10.053.806-27.051 5.64-11.742 3.339-13.545 3.607-21.373 3.339-8.518-.269-12.624-1.573-17.766-5.641-1.074-.806-2.992-2.225-4.297-3.108-1.305-.921-2.341-1.688-2.302-1.765.345-.307 3.184.883 5.295 2.264 2.878 1.842 6.139 3.377 9.362 4.374 1.881.576 3.53.729 9.209.691 6.178 0 7.329-.115 10.783-.998 4.758-1.228 7.981-2.379 13.007-4.643 7.981-3.568 17.267-6.599 23.79-7.751 2.111-.383 3.991-.805 4.221-.92.192-.154 1.228-.231 2.302-.192 1.036.076 2.571 0 3.377-.115l1.496-.192-1.112-1.19c-.883-.921-.921-1.113-.307-.882 1.343.537 4.221 1.381 4.566 1.381.192 0 .038-.345-.345-.767q-1.67-1.842 1.956 0c1.727.882 2.802 1.151 4.451 1.151 1.228 0 2.226-.115 2.226-.307 0-.154-.691-.691-1.535-1.228s-1.535-1.074-1.535-1.228c0-.23.614-.077 5.564 1.381 2.302.691 2.686.461 1.151-.729-.614-.498-1.036-.997-.959-1.112.115-.077 1.765.422 3.645 1.151 1.919.69 4.106 1.304 4.873 1.304 1.343 0 6.83-.997 7.137-1.304.077-.077-1.343-1.036-3.146-2.111-3.262-1.995-4.489-3.031-3.07-2.609.422.115 1.842.499 3.223.844 1.382.346 2.801.691 3.185.806.614.192.652.115.307-.575l-.46-.806 1.918.767c1.075.384 2.571.998 3.338 1.343.768.307 1.804.576 2.264.576 1.113 0 6.063-1.65 10.054-3.339l3.184-1.343-2.225-1.458c-2.226-1.458-3.799-2.916-3.454-3.261.077-.115 1.382.153 2.84.575s2.686.768 2.763.768-.231-.461-.691-1.036c-.461-.576-.652-1.113-.461-1.19.192-.038 1.766.499 3.454 1.267 1.688.729 3.223 1.343 3.453 1.343.614 0 10.821-4.95 10.821-5.257 0-.192-.883-.806-1.919-1.382-1.765-.997-2.724-2.187-1.304-1.65.345.116 1.535.346 2.686.461 1.841.23 2.072.192 1.841-.384-.307-.767 0-.767 2.303-.077 1.726.538 1.918.499 3.99-.422a67 67 0 0 1 3.53-1.458 74 74 0 0 0 2.84-1.151l1.535-.652-.96-.729-.92-.729h2.57c1.497 0 2.61-.154 2.61-.384s.498-.384 1.074-.384c.998 0 9.094-2.954 10.437-3.798.46-.346.46-.461-.115-1.113-.346-.384-.653-.768-.653-.883 0-.076 1.152-.115 2.571-.038 2.303.115 3.032-.077 6.255-1.381 2.647-1.075 3.645-1.689 3.607-2.111-.039-.499.268-.652 1.458-.652 1.688 0 3.875-.883 13.353-5.449 12.279-5.87 17.881-8.672 22.063-11.09 2.302-1.304 5.18-2.915 6.331-3.53 1.151-.613 3.837-2.301 5.948-3.683 2.11-1.381 3.99-2.609 4.221-2.686.191-.076 1.995-1.266 3.99-2.609 1.957-1.381 4.72-3.185 6.14-4.029 1.381-.844 3.223-2.034 4.067-2.648 3.261-2.379 7.329-4.95 7.751-4.95.268 0 .499-.153.499-.306 0-.192 2.532-2.034 5.64-4.106 6.139-4.144 15.617-10.782 17.766-12.509 8.441-6.792 23.598-18.226 28.932-21.795 9.209-6.216 18.533-11.434 24.212-13.66a389 389 0 0 0 3.837-1.535c3.3-1.458 11.396-3.683 16.883-4.642 2.993-.538 16.73-1.036 18.61-.691"/></svg>