<svg xmlns="http://www.w3.org/2000/svg" width="400" height="200" viewBox="-5.128 -2.564 410.256 205.128"><path fill="#fff" d="M202.09.214c.114.19.608.38 1.103.38.457 0 .989.153 1.179.343.229.19 1.142.419 2.093.533s2.473.418 3.424.647c1.75.456 5.327.989 9.132 1.37 1.141.114 2.244.38 2.435.57.228.19.761.343 1.217.343.495 0 .989.152 1.104.38.114.19.646.38 1.141.38s1.027.153 1.141.381c.115.19.609.38 1.066.38.456 0 1.674.419 2.701.952s2.359.95 2.93.95c.57 0 1.179.153 1.293.381.114.19.647.38 1.142.38s1.027.153 1.141.381c.114.19.989.38 1.902.38.914 0 1.789.153 1.903.381.114.19.723.38 1.37.38.608 0 1.103.153 1.103.381 0 .19.266.38.57.38.305 0 1.142.343 1.903.762.76.418 2.016.76 2.853.76.8 0 1.598.153 1.713.381.114.19.646.38 1.141.38s1.027.153 1.141.38c.115.191.571.381.952.381.418 0 1.331.343 2.092.761.761.419 1.636.761 2.017.761.342 0 1.217.343 1.902.761.685.419 1.484.761 1.788.761s.571.152.571.343c0 .19.418.304.99.304.532 0 1.33.38 1.825.837.457.418 1.028.799 1.256.799s.609.266.875.57c.685.8 2.435 1.56 5.403 2.283 2.168.495 3.5.533 8.599.267 5.364-.343 6.201-.457 7.533-1.294 2.13-1.331 4.527-2.092 7.762-2.549 1.56-.228 5.022-.76 7.647-1.141 2.625-.38 5.25-.647 5.783-.533.57.114 1.294 0 1.598-.266.343-.305 1.979-.457 4.452-.495 3.538 0 4.109.076 6.011 1.065 1.141.571 2.169 1.142 2.283 1.294.114.114.609.457 1.141.723 2.588 1.332 3.31 1.864 6.126 4.566 3.729 3.576 4.528 4.793 4.528 7.038 0 1.979.494 3.044 2.206 4.756 1.484 1.408 1.446 2.169-.19 5.783-.837 1.827-.913 2.435-.723 4.68.114 1.446.419 2.93.609 3.31.228.38.38 1.37.38 2.169 0 1.18.267 1.75 1.142 2.587.647.609 1.141 1.294 1.141 1.522s.419.837.951 1.332c1.066.989 1.256 2.891.495 4.3-.266.494-.419 2.092-.38 3.766.038 3.158-.495 5.06-1.865 6.43-.418.418-1.027.685-1.331.57-.685-.266-1.789.267-3.31 1.522-.571.495-1.789 1.066-2.664 1.294s-1.902.57-2.245.76c-.875.495-2.587.495-2.587 0 0-.227-.342-.38-.76-.38-.42 0-.762.267-.762.571 0 .8-.913.723-1.712-.19-.837-.913-2.853-1.027-2.853-.152 0 .38-.647 0-1.979-1.142-1.141-.989-2.397-1.75-2.853-1.75-.495 0-1.18-.152-1.56-.304-4.224-2.055-4.147-2.055-7.8-2.055-3.234 0-3.653-.076-3.805-.723-.152-.57-.532-.723-1.674-.723-.837 0-2.473-.19-3.652-.418-1.94-.419-2.283-.38-2.93.228-.418.38-.76.913-.76 1.18 0 .608-5.594 6.163-8.371 8.294-1.142.913-2.283 1.56-2.55 1.484s-1.179.494-2.092 1.331-1.979 1.598-2.397 1.75c-.457.115-2.511 1.865-4.566 3.881-2.092 1.979-4.07 3.729-4.451 3.881-.343.152-2.321 1.902-4.376 3.881a461 461 0 0 1-7.647 7.153c-3.196 2.929-3.88 3.767-3.88 4.642 0 .608.151 1.217.38 1.331.19.114.38.571.38.989 0 .381.152 1.028.342 1.408.647 1.294 1.675 3.919 2.321 5.974.229.837.951 2.587 1.56 3.88.609 1.294 1.104 2.55 1.104 2.778 0 .19.152.685.342 1.065.19.343.495 1.066.685 1.598.228.533.76 1.712 1.217 2.587.419.914.8 1.827.8 2.017s.494 1.446 1.14 2.815c.61 1.37 1.142 2.664 1.142 2.892s.609 1.636 1.332 3.12 1.332 2.853 1.332 3.044c0 .228.76 1.94 1.674 3.842a387 387 0 0 1 2.359 4.985c1.179 2.625 3.424 5.593 6.315 8.408 2.664 2.625 4.262 3.576 9.817 6.011.723.343 2.397 1.332 3.652 2.283 2.207 1.598 2.473 1.674 4.756 1.674 1.332-.038 3.538.153 4.908.381 5.517.951 8.675 1.255 10.006 1.027.99-.19 1.789-.076 2.702.343 1.217.57 2.511 1.75 1.94 1.75-.532 0 .723 1.217 1.636 1.56.723.266.875.57.761 1.56-.076 1.027-.304 1.293-1.103 1.369-.533.076-1.598.761-2.36 1.522l-1.33 1.408-.153 4.261c-.152 5.669-.114 5.631-5.745 5.631-3.88 0-4.375.076-5.403.875-1.37 1.104-1.978 1.941-2.168 3.082-.077.723-.761 1.256-2.968 2.359-1.56.799-2.892 1.636-2.968 1.864-.076.191-.38.381-.647.381-.304 0-.799.304-1.141.647-.99.989-22.372.761-30.438-.305-11.756-1.56-12.631-1.636-14.04-.951-.722.342-1.635 1.065-2.016 1.598l-.723.951-5.098-.418c-8.713-.685-9.626-.761-11.795-1.104-1.141-.19-2.206-.266-2.358-.19s-2.588 0-5.441-.228c-3.653-.267-7.495-.267-12.86 0-5.479.304-9.208.304-13.203 0a458 458 0 0 0-8.18-.533c-1.483-.114-4.718-.456-7.229-.799a323 323 0 0 0-7.799-.951c-1.789-.152-5.479-.571-8.18-.913-2.74-.343-6.507-.799-8.409-1.027-1.902-.229-7.761-.457-12.974-.495-9.055-.038-9.626 0-10.463.723-.799.723-1.408.761-8.294.723-4.071-.038-10.501-.229-14.268-.457s-9.169-.456-12.023-.456c-4.337 0-5.403-.115-6.734-.761-.837-.419-1.864-.761-2.207-.761-.951 0-3.538-.761-5.365-1.56-.913-.419-1.978-.723-2.397-.723-.799 0-3.994-2.055-5.745-3.653-.532-.494-1.065-.913-1.217-.913-.533 0-5.022-3.728-6.544-5.402-2.131-2.359-3.615-4.718-3.615-5.746 0-1.217-.913-2.929-2.092-4.071-.799-.761-.952-1.217-.952-3.12 0-1.217-.152-2.206-.38-2.206s-.38-.685-.38-1.522v-1.522h2.206c1.218 0 2.321.114 2.473.228.267.267 7.42.19 13.203-.152 4.375-.266 4.375-.266 4.299-1.217-.038-.533-.266-1.484-.533-2.093-.266-.647-.418-1.408-.38-1.75.038-.305-.305-.913-.723-1.294-.761-.685-1.027-2.397-.457-3.044.191-.228.571-1.141.837-2.092.305-.951 1.028-2.549 1.636-3.615.685-1.141.952-1.94.685-2.016-.608-.19-.494-1.104.153-1.37.304-.114.57-.533.57-.951 0-.419.305-1.027.647-1.37.495-.494.609-1.293.571-3.348 0-1.446-.229-2.853-.457-3.082-.609-.608-.456-.951 1.18-2.473 1.445-1.331 1.522-1.484 1.065-2.283-.495-.799-.38-.989 2.055-3.31 1.445-1.331 2.511-2.549 2.396-2.739-.114-.19.305-.837.914-1.408.646-.609 1.141-1.446 1.141-1.902 0-.837 1.027-1.941 3.615-3.805 2.435-1.826 3.614-3.082 3.614-3.919 0-.799 1.636-2.739 2.283-2.739.456 0 .837-1.294.571-1.979-.267-.646 2.777-3.728 5.935-5.973 1.141-.799 2.587-2.169 3.158-3.006s1.293-1.636 1.56-1.75c.647-.228 4.337-5.174 5.288-7.039.723-1.37.799-1.027-1.103-7.267-.304-.95-.647-2.93-.799-4.375-.19-2.13-.457-2.892-1.256-3.805-1.712-1.902-2.168-3.082-1.636-4.451.381-1.028.343-1.18-.342-1.332-.533-.152-.723-.495-.685-1.408.076-1.94-1.864-9.816-2.625-10.577-.266-.266-.457-.76-.457-1.103 0-.38-.342-.8-.761-.913-.799-.267-1.027-1.142-.38-1.522s.418-2.321-.381-3.348c-.418-.533-.761-1.332-.761-1.75 0-.533-.228-.8-.761-.8-.646 0-.76-.266-.76-1.674 0-1.141-.191-1.75-.571-1.902-.343-.114-.571-.685-.571-1.446 0-.685-.266-1.75-.571-2.359-.684-1.331-.722-1.902-.114-2.891.419-.647.343-1.028-.38-2.397-.457-.875-1.027-2.55-1.218-3.69-.494-2.854-1.103-4.87-1.56-5.137-.456-.305-.038-2.778.685-3.957.723-1.142 2.245-2.93 3.767-4.414 2.321-2.283 7.838-6.848 8.142-6.772.19.076.799-.304 1.37-.837 1.103-1.027 3.043-2.093 3.766-2.093.229 0 1.142-.342 2.017-.76.837-.42 1.826-.762 2.169-.762s.951-.19 1.369-.418 1.294-.419 1.903-.419c.608-.038 1.217-.19 1.331-.38.114-.152.685-.304 1.294-.304 1.179 0 4.223-.647 5.517-1.18.418-.152 3.919-.685 7.761-1.141 5.175-.61 7.381-.723 8.599-.457 1.103.266 2.511.19 4.794-.152 1.75-.304 6.43-.685 10.425-.875 3.957-.19 8.865-.533 10.843-.8 3.805-.494 17.236-.57 21.992-.151 1.864.152 2.929.114 3.31-.19.342-.267.57-.305.761 0m-2.664 87.051c-1.065.19-2.777.723-3.842 1.18-1.827.799-2.017.99-2.626 2.891-.342 1.142-.913 2.473-1.293 2.93-.913 1.218-2.816 5.441-2.892 6.468 0 .114-.38.685-.875 1.218-.457.57-.837 1.179-.837 1.369 0 .229-.19.381-.38.381-.229 0-.381.228-.381.494 0 .799-1.712 4.033-2.815 5.251-.533.609-.99 1.217-.99 1.332s-.608.837-1.331 1.559c-.723.723-1.218 1.484-1.104 1.675.114.19-.076.456-.38.57-.343.114-.609.457-.609.723 0 .761-1.522 3.234-1.978 3.234-.229 0-.305.228-.191.533.115.266-.228.951-.723 1.484-.494.532-.913 1.103-.913 1.217 0 .533-1.788 2.816-2.016 2.587-.152-.114-.266 0-.266.305 0 .342-.343.951-.761 1.408-.419.456-.761.989-.761 1.179 0 .228-.267.266-.647.152-.419-.152-.533-.114-.343.228.191.267 0 .837-.418 1.294-1.142 1.332-2.207 3.006-2.816 4.337-.266.685-.646 1.256-.799 1.256a.3.3 0 0 0-.304.304c0 .191-.647 1.028-1.484 1.903-.799.837-1.712 2.054-1.978 2.701-.305.647-.647 1.18-.799 1.18-.19 0-.305.19-.305.418s-.494 1.103-1.065 1.979c-1.332 2.016-1.978 3.5-1.978 4.603 0 1.028 1.521 2.473 3.804 3.653.952.456 2.017.989 2.359 1.179.381.19.951.343 1.256.343.304 0 .875.152 1.255.342 1.218.647 4.985 1.636 5.365 1.408.19-.152.989.114 1.75.532.723.419 1.598.761 1.903.761s.684.229.837.533c.456.761 2.092 1.56 3.348 1.598 1.56.076 5.212 1.18 5.517 1.674.228.381 8.066-.038 11.3-.571 1.369-.228 2.244-1.331 1.56-2.016-.609-.609-.609-9.093.038-10.729.761-2.017 1.217-3.158 1.598-3.881.19-.381.342-1.446.342-2.359 0-.951.152-1.788.342-1.902.571-.381 1.294-4.756 1.903-12.023.19-2.397.456-4.832.609-5.403.19-.761.038-1.294-.495-2.017-.685-.837-.723-1.179-.381-2.168.267-.799.305-1.37.038-1.789-.19-.342-.418-1.978-.418-3.614-.038-1.636-.266-3.234-.495-3.5-.304-.343-.266-.875.076-1.865.419-1.065.419-1.522.038-2.092-.342-.571-.342-.989-.038-1.788.229-.609.571-1.408.723-1.827.191-.418.419-1.674.571-2.777.19-1.75.152-1.979-.495-1.979-.38 0-.799-.114-.951-.228-.228-.228.305-1.408 1.218-2.511.304-.38.418-1.027.266-1.636-.152-.533-.114-.951.076-.951.152 0 .495-.533.761-1.218.609-1.598 0-2.359-1.598-2.054-.647.114-2.054.342-3.082.532m-46.455 18.491c-.114.305-1.256 1.294-2.549 2.283-1.294.951-2.854 2.169-3.463 2.701-.608.533-1.217.952-1.369.952-.115 0-2.207 1.902-4.604 4.261-2.397 2.321-6.696 6.011-9.588 8.142-5.174 3.843-7.648 5.859-11.452 9.284-2.664 2.397-4.338 3.576-6.316 4.489-.951.419-2.359 1.408-3.196 2.131-.799.761-1.674 1.369-1.902 1.369-.533 0-4.033 3.311-4.033 3.805 0 .19-.571 1.027-1.294 1.788-2.549 2.854-3.614 5.936-2.435 6.849.266.19 2.815.38 5.631.418 4.87.115 8.484.609 9.283 1.294.229.152.723.304 1.142.304.456 0 1.788.609 3.006 1.332s2.511 1.332 2.853 1.332 1.332.266 2.169.532c1.636.571 14.61.875 17.578.419 2.244-.381 2.701-1.065 1.369-2.017-.723-.494-1.217-1.369-1.56-2.587-.304-1.027-.684-2.207-.913-2.663-.799-1.712.305-10.235 1.446-11.072.533-.38.685-.951.647-2.13-.076-1.865.951-4.3 2.663-6.43 1.027-1.294 1.218-1.827 1.218-3.729 0-1.446.228-2.473.608-2.93.647-.761 2.74-5.098 3.196-6.582.153-.533.609-1.522 1.028-2.169.418-.684.646-1.407.532-1.598-.152-.19-.076-.456.153-.608.19-.114.38-.571.38-.99 0-.608-.152-.722-.875-.532-.647.228-.495-.038.647-1.066.799-.722 1.369-1.559 1.293-1.826-.114-.304.038-1.103.305-1.826.494-1.141.456-1.37-.076-2.017-.381-.38-.533-.684-.381-.684s.152-.191.038-.381c-.342-.533-.951-.456-1.179.152m75.257.951c-.761.457-1.598 2.283-1.598 3.425 0 .875-.837 3.919-3.082 10.919-.38 1.294-.723 2.664-.723 3.082 0 .381-.152.875-.342 1.103-.19.191-.533 1.979-.799 3.957-.266 1.979-.609 3.919-.799 4.262-.19.38-.342 1.027-.342 1.484 0 .456-.153 1.445-.343 2.206s-.571 2.397-.837 3.653c-.266 1.255-.609 2.435-.761 2.663-.609.875-1.141 4.642-.761 5.631.419 1.103 4.452 5.213 5.137 5.213.228 0 1.521 1.027 2.815 2.282 1.332 1.256 2.549 2.283 2.701 2.283.191 0 .685.343 1.18.761 1.141.989 1.217.989 14.99 2.701 1.674.191 3.234.533 3.5.761.267.191 2.131.343 4.376.267 4.68-.152 4.756-.229 3.082-3.805-.609-1.332-1.332-3.082-1.598-3.919-.685-2.169-1.484-3.919-1.864-4.147-.19-.114-.457-.685-.609-1.256-.114-.608-.457-1.331-.723-1.636s-.723-1.179-.99-1.902c-.304-.723-1.217-2.435-2.016-3.805-.837-1.369-1.864-3.081-2.283-3.842s-1.217-1.979-1.826-2.664c-.609-.723-1.103-1.484-1.103-1.75s-.343-.647-.761-.875c-.419-.228-.761-.761-.761-1.179 0-.457-.761-1.484-1.75-2.359-1.142-1.066-2.093-2.435-2.816-4.071s-1.331-2.473-1.75-2.473c-.342 0-.761-.267-.913-.571-.152-.305-.457-.951-.685-1.408-.266-.495-.456-1.446-.456-2.131s-.267-1.598-.571-2.016c-.304-.381-.571-1.027-.571-1.37 0-.342-.304-.799-.647-1.027-.494-.266-.761-1.103-.989-3.158-.456-4.375-.532-5.022-.571-5.365-.076-.342-.532-.342-1.141.076"/></svg>