<svg xmlns="http://www.w3.org/2000/svg" width="400" height="200" viewBox="-143.635 -5.900 1420.971 710.485"><path fill="#fff" fill-rule="evenodd" stroke="#fff" stroke-miterlimit="8" stroke-width="4.583" d="M466.99 5.09c38.77-2.86 78.16-5.36 128.76 10.64 39.14 6.82 74.16 9.43 106.07 30.33 37.91 30.68 74.71 58.89 76.23 83.56 46.05.87 44.09-.12 90.04 17.91 17.64 18.05 59.22 51.4 16.93 84.66 19.21 12.66-2.29 45.94 10.03 74.82 10.63 26.56 54.6 42.88 40.45 77.91 30.71 35.1 88.958 94.45 116.292 120.08 22.056 20.01 32.726-9.82 37.813 27.5 13.107 9.81 43.698 20.7 40.834 31.39-.097 38.73-40.904 12.42-48.855 30.48-7.951 13.3 22.726 45.45 22.916 58.44.192 12.99-16.906 16.76-21.77 19.48s-17.7-14.5-29.186-12.3c-11.485 2.2-8.703 13.49-39.726 25.49-34.468-17.78-51.638 15.77-94.138 9.41-27.09 2.38-21.43-22.72-74.14-22.6-5.72 25.33-58.18 5.56-77.09-4.18 12.09-32.22-11-20.58-20.3-34.78-43.68-33.68-18.95-34.93-29.8-51.56-44.4-5.24-30.72-26.66-45.57-42.47-18.23-7.1-17.87 19.58-49.23-38.66-25.63-6.67-9.23 57.86-73.63 37.59-27.74 57.64-39.96 30.93-85.93 40.14-57.29 80.08-18.44 8.98-173.88 20.87-65.84 4.28-139.16-26.67-195.51-53.03-51.21-47.8-66.85-126.87-87.94-156.52-8.63-65.09-3.03-77.88 31.7-164.05C86.68 137.36 159.04 61.56 244.83 51.41c59.86-26.97 72.12-22.23 109.15-29.95S410.55 1.18 466.99 5.09Z"/></svg>