<svg xmlns="http://www.w3.org/2000/svg" width="400" height="200" viewBox="-58.095 1.095 265.063 132.532"><path fill="#fff" d="M58.5 1.7C57.4 1.9 53.6 3 50 4s-7.7 2.1-9.1 2.4c-4.5 1-12.6 7-21.9 16.1-7.7 7.7-15 17-15.9 20.2-1.9 7.7-2.4 19.7-.8 23.4C3.8 69.9 16.1 82.9 19.9 85c1.3.6 7.3 2.5 13.4 4 8.1 2 11.8 2.5 14 1.9 1.8-.5 3.7-.4 4.8.2 2.3 1.2 5.4-.2 7-3.2 1-1.9 1.2-1.9 2.8-.5 2.6 2.4 5.4 1.9 7.3-1.1l1.7-2.8 1.1 3c.7 1.8 1 7.7.8 15-.3 11.9-.3 12 2.8 17 3.8 6.2 8.1 9.2 14.2 10 10.6 1.4 26.1 3.6 31.7 4.6 7.7 1.3 9.9.5 15.7-5.9 5-5.7 8.3-13.2 9.8-22.8 1.2-7.7.9-8.5-6.7-16.7-4.8-5.3-5.3-6.2-5.3-10.5 0-3.7.7-5.8 3.5-9.9 1.9-2.9 3.5-5.6 3.5-6s-1.4-2.8-3-5.3c-3.4-5.1-3.6-7.4-1.5-14.4 2.2-7.1.6-10-5.5-10.4-4.3-.3-4.7-.6-7.4-5.3-1.5-2.8-4.1-6.6-5.8-8.4-3-3.5-13.3-9.7-20.3-12.2-8.7-3.2-32.6-5.3-40-3.6"/></svg>