<svg xmlns="http://www.w3.org/2000/svg" width="400" height="200" viewBox="-18.431 0.792 62 31"><path fill="#fff" fill-rule="evenodd" d="M13.686.838q0 .045-.093.046-.095-.001-.074.043c.021.053-.078.112-.183.112-.056 0-.072.015-.072.067.003.06-.015.075-.096.08-.084.01-.102.026-.102.084 0 .074-.053.108-.174.108-.053 0-.068.013-.053.05.022.058-.04.105-.149.105-.062 0-.077.015-.077.067.003.056-.015.075-.08.08-.066.01-.084.029-.094.094-.006.058-.03.086-.087.098-.043.01-.077.034-.08.053-.006.092-.016.102-.09.102-.062 0-.078.015-.078.077 0 .065-.015.077-.096.077-.074 0-.093.012-.077.046.028.075-.013.14-.09.14-.053 0-.078.02-.084.067q-.01.07-.087.087-.077.015-.078.077-.001.057-.077.077a.13.13 0 0 0-.093.093c-.013.05-.044.08-.084.086a.09.09 0 0 0-.077.077c-.007.05-.035.071-.097.078-.046.006-.083.027-.08.046.01.083-.006.111-.072.12q-.066.01-.086.087c-.013.05-.044.08-.084.086a.09.09 0 0 0-.078.077q-.007.07-.09.077c-.065.007-.08.022-.068.072.013.043-.006.067-.071.095-.05.022-.09.059-.093.078-.006.092-.016.101-.09.101-.062 0-.078.016-.078.078 0 .061-.015.077-.077.077s-.078.015-.078.077c0 .04-.022.086-.05.102-.027.015-.046.037-.046.046.01.062-.003.077-.062.093-.034.009-.059.034-.056.058.013.09-.006.118-.084.118-.043 0-.07.012-.059.03.035.053-.015.155-.077.155q-.057.002-.068.068c-.007.05-.034.074-.093.08q-.081.01-.069.05c.01.024-.003.061-.024.083a.2.2 0 0 0-.04.105q-.002.061-.072.071-.075.01-.056.056c.028.07-.015.135-.09.135-.056 0-.068.013-.056.062.013.046-.006.068-.065.093-.046.015-.074.043-.065.062.01.015.006.03-.012.03-.016 0-.035.053-.04.115-.007.095-.022.12-.078.126-.053.01-.072.031-.072.087 0 .04-.012.074-.03.074-.016 0-.032.037-.032.08 0 .065-.012.077-.062.065-.052-.012-.062 0-.062.09 0 .092-.009.104-.077.104-.075 0-.078.01-.078.167 0 .16-.003.17-.084.18-.08.009-.086.02-.086.135 0 .071-.019.148-.044.176-.022.031-.03.053-.015.053.012 0 .006.018-.013.037-.03.03-.046.03-.068-.006-.022-.031-.031.018-.031.163 0 .195-.006.21-.078.238-.068.025-.077.046-.077.185 0 .12-.01.155-.05.155-.03 0-.043.018-.034.043.025.062-.012.086-.062.046-.034-.028-.04.003-.04.182 0 .204-.003.216-.078.235-.071.018-.077.034-.077.213 0 .3-.028.423-.096.423-.053 0-.06.025-.06.232 0 .126-.012.256-.027.287a1 1 0 0 0-.047.105q-.017.05-.065.037c-.04-.016-.046.034-.046.398 0 .29-.013.448-.044.519l-.046.105-.031-.077c-.022-.056-.031.256-.031 1.037l-.004 1.118.078.018.074.019.01.488c.01.469.012.484.074.494.084.012.106.123.106.525 0 .274.003.287.077.315l.078.03v.436c0 .37.006.432.043.401.078-.065.112.133.112.673 0 .309.012.494.028.47.046-.071.118-.016.136.11.028.152.028 1.563.003 1.714-.015.084-.037.118-.093.13-.071.019-.074.034-.074.25 0 .226-.003.232-.078.232-.068 0-.077.012-.077.12 0 .16-.025.22-.096.22-.044 0-.06.021-.06.077 0 .061-.015.077-.074.077s-.071.012-.059.058q.015.06-.05.102c-.037.022-.064.062-.064.09 0 .055-.063.09-.156.09q-.057.001-.068.067c-.01.062-.03.071-.17.08-.134.007-.159.02-.143.06q.052.133-.338.132c-.199 0-.236.006-.223.046q.04.107-.425.108c-.292 0-.416-.037-.388-.11.012-.035-.019-.044-.146-.044-.183 0-.291-.055-.26-.136.015-.04-.004-.05-.118-.05-.134 0-.155-.015-.143-.113.003-.019-.034-.04-.08-.047-.063-.006-.09-.028-.097-.077-.006-.046-.04-.077-.087-.09-.071-.018-.087-.046-.077-.13.003-.018-.028-.036-.068-.036-.069 0-.078-.019-.097-.151-.015-.127-.03-.155-.09-.164-.055-.006-.07-.034-.086-.164-.01-.086-.022-.13-.022-.099-.003.031-.022.047-.04.037-.019-.012-.025-.04-.016-.064.01-.025-.003-.044-.028-.044-.03 0-.046-.046-.053-.163-.009-.14-.018-.16-.077-.17-.068-.01-.071-.025-.071-.293 0-.306-.013-.35-.109-.365-.059-.012-.062-.043-.078-.429-.012-.337-.024-.417-.062-.417-.024 0-.052-.034-.065-.077-.037-.13-.03-1.525.006-1.633.035-.1.075-.124.1-.059.009.022.018-.053.018-.17.003-.114.016-.207.034-.207.02 0 .031-.034.031-.074 0-.102.05-.126.078-.04.022.065.025.065.034.006a.6.6 0 0 0-.012-.2c-.019-.112-.038-.142-.093-.149-.05-.009-.078.013-.1.068-.024.065-.05.08-.136.08s-.109.013-.118.068c-.006.053-.034.075-.096.08-.047.007-.078.025-.068.04.037.06-.019.152-.093.152-.053 0-.078.019-.084.068q-.01.07-.078.08a.086.086 0 0 0-.077.077c-.006.05-.034.072-.096.078q-.091.009-.072.055c.028.074-.015.136-.093.136-.056 0-.074.019-.074.065a.08.08 0 0 1-.06.08c-.033.01-.052.034-.046.056.01.025-.012.055-.046.077a.12.12 0 0 0-.065.108c0 .074-.028.09-.115.08-.022-.003-.034.031-.031.08.006.069-.01.09-.062.096a.086.086 0 0 0-.078.078.086.086 0 0 1-.074.077c-.062.01-.075.034-.121.238a.4.4 0 0 0-.01.074c-.002.027-.034.037-.08.027-.071-.015-.074-.006-.059.071.012.075.006.09-.043.09-.093 0-.134.062-.134.207 0 .12-.006.133-.077.133-.065 0-.078.015-.081.092a2 2 0 0 1-.025.201c0 .025-.03.046-.065.046-.05 0-.065.028-.08.155-.02.136-.028.154-.094.154-.068 0-.074.012-.074.17 0 .16-.003.17-.078.17-.074 0-.077.009-.077.17 0 .13-.01.17-.047.17-.024 0-.046.024-.046.052 0 .043-.006.046-.028.012-.04-.059-.071.056-.062.222a.8.8 0 0 1-.056.34c-.01.012-.034.01-.059-.012-.037-.031-.043.021-.043.34 0 .385-.003.398-.13.376-.016 0-.025.253-.025.568 0 .488-.007.571-.047.571s-.046.143-.046 1.081c0 .939.006 1.08.046 1.08s.047.075.05.47c.003.26.009.448.018.417.019-.071.072-.068.072.01 0 .033.015.061.03.061.02 0 .032.123.035.3.003.166.01.277.018.246.01-.03.031-.049.05-.043.053.016.09.173.084.374-.003.164 0 .179.046.142.078-.065.109-.003.13.24.02.208.022.223.09.223.069 0 .075.012.075.17 0 .157.006.17.074.17.066 0 .075.018.093.166.02.142.035.17.09.18.06.009.069.03.078.154.01.133.019.148.084.148.068 0 .074.016.083.16.01.143.019.164.087.18.06.015.078.037.078.102-.003.064.012.083.065.083.059 0 .071.022.09.151.019.136.03.155.102.164.06.006.087.03.093.077.007.043.031.071.069.071.062 0 .099.068.074.136q-.018.046.056.056.07.01.08.08a.15.15 0 0 0 .072.099c.03.018.059.052.059.074s.037.058.08.08c.05.028.075.062.066.096-.01.037.012.058.077.07.075.016.09.032.078.078-.01.046.006.062.077.077.056.012.1.043.109.08s.056.071.114.087c.066.018.097.043.097.086 0 .04.028.062.093.074.065.013.096.034.102.084.006.046.034.07.093.077s.087.03.093.077c.006.05.04.077.109.096.068.018.099.043.099.086 0 .047.028.062.124.074.1.013.127.028.133.084.01.052.031.07.093.07.106 0 .152.032.165.109.01.046.043.065.152.077.12.012.14.025.136.083-.003.068.013.071.19.071.195 0 .294.05.248.124-.013.022.17.03.573.03.404 0 .587-.008.574-.03-.012-.019-.003-.053.016-.077.028-.034.108-.047.294-.047.242 0 .255-.003.252-.07-.003-.062.015-.068.183-.084.152-.012.186-.025.186-.07q.001-.114.208-.115c.093 0 .111-.01.096-.05-.025-.064.04-.105.17-.105.062 0 .1-.015.097-.04-.01-.083.006-.114.062-.114.096 0 .155-.034.14-.077-.023-.05.08-.108.185-.108.06 0 .075-.013.06-.05-.023-.058.036-.105.136-.105.05 0 .062-.015.05-.061-.013-.05.002-.071.077-.096.062-.022.1-.056.105-.099.007-.043.038-.074.087-.083.044-.01.078-.034.08-.056.007-.09.016-.099.088-.099.059 0 .077-.018.086-.086.007-.059.028-.087.078-.093a.09.09 0 0 0 .078-.077c.006-.043.037-.074.086-.083.044-.01.078-.034.081-.056.006-.086.016-.099.075-.099q.061-.001.062-.058c0-.031.021-.074.046-.096a.15.15 0 0 0 .047-.096q.001-.057.059-.058c.043 0 .065-.025.07-.087.007-.058.029-.086.078-.092.047-.007.072-.034.078-.093s.031-.087.078-.093a.09.09 0 0 0 .077-.077c.006-.04.04-.074.087-.086.043-.013.059-.022.04-.025-.056-.003-.05-.096.003-.096.028 0 .05-.037.056-.102.006-.074.025-.102.08-.108.05-.009.069-.03.069-.086 0-.059.016-.074.074-.074q.112.001.112-.266c0-.055.016-.074.071-.074.063 0 .078-.022.103-.148.022-.12.04-.145.093-.142.056 0 .065-.016.062-.093-.003-.074.012-.096.074-.111.069-.015.078-.037.087-.16.01-.12.022-.146.078-.155.059-.01.068-.03.077-.173.01-.148.016-.16.084-.16.084 0 .115-.071.102-.229-.009-.074.007-.096.069-.111.074-.019.077-.03.087-.256.009-.229.012-.238.083-.238.075 0 .078-.006.078-.247 0-.24.003-.247.074-.247.093 0 .112-.062.112-.395 0-.148.012-.253.03-.253.02 0 .032-.031.035-.071 0-.038.01-.05.019-.031.05.123.071-.01.071-.42 0-.408.006-.463.056-.485.028-.012.062-.022.071-.019.013.004.028-.373.034-.836.01-.673.022-.862.062-.948l.047-.108.034.108c.022.08.031-.22.034-1.133.003-.797-.01-1.248-.028-1.26-.015-.01-.03.01-.03.043 0 .037-.013.065-.026.065-.037 0-.099-.405-.099-.649 0-.12-.015-.243-.037-.277-.022-.031-.028-.068-.019-.08.038-.035.087.021.087.098 0 .059.016.074.078.074s.077.016.077.074c0 .056.019.077.072.087q.068.007.077.092c.006.06.031.087.078.093q.066.01.068.071c0 .034.03.08.071.102.075.043.09.096.031.102-.022.003-.006.012.037.025.047.012.081.046.087.086a.09.09 0 0 0 .078.077c.046.006.071.034.077.093s.031.086.078.093c.05.006.068.03.065.077 0 .055.015.07.071.07.04 0 .075.01.075.022.003.016.01.059.012.1.003.04.025.082.047.095s.028.04.018.058c-.012.019.01.047.056.065.05.019.08.053.08.09q.001.061.072.07c.05.007.068.032.068.087q.001.08.062.093c.044.012.072.059.09.164.025.12.04.145.1.145.071 0 .114.065.087.136q-.019.045.055.055c.053.006.069.028.065.08-.006.038.007.068.022.068.019 0 .031.034.031.075 0 .055.019.077.072.086.058.01.07.034.083.164s.025.154.087.163c.06.01.068.028.068.145 0 .074.016.146.038.158q.029.02.012-.012-.015-.032.012-.053c.016-.01.031 0 .031.025 0 .024.022.055.05.065.037.015.047.043.031.11-.015.078-.006.093.043.093q.061.001.063.062c0 .034.012.062.027.062.019 0 .035.074.04.16.01.142.02.164.081.173.062.01.069.028.069.176 0 .145.006.164.059.148.086-.021.105.034.099.318 0 .143.012.266.028.275.018.01.03-.003.03-.03 0-.028.016-.04.032-.031.018.009.03.046.03.08 0 .03.016.058.032.058.018 0 .03.155.034.393 0 .219.01.376.019.355.021-.053.07-.047.07.009 0 .025.016.046.032.046.043 0 .04 1.584-.003 1.736-.034.126-.078.15-.1.061-.009-.028-.015.152-.018.402-.003.432-.006.457-.065.457-.093 0-.124.095-.118.358.003.197-.006.244-.053.278-.03.021-.068.034-.08.024-.016-.009-.028.062-.028.155 0 .096-.013.173-.031.173-.016 0-.031.021-.031.046 0 .056-.05.062-.072.006-.009-.018-.018.04-.021.133a1.4 1.4 0 0 1-.016.2l-.01.069c-.002.021-.033.04-.067.04q-.065-.001-.069.068c-.006.08-.012.176-.021.231 0 .022-.038.04-.081.04-.075 0-.078.01-.078.17s-.003.17-.077.17c-.072 0-.078.01-.078.154 0 .136-.009.155-.062.155-.074 0-.096.046-.102.207-.006.095-.019.117-.084.132-.068.016-.077.037-.087.18-.006.114-.021.16-.052.16q-.043.001-.025.053.023.055-.031.03c-.044-.015-.053 0-.053.096 0 .102-.012.12-.096.151-.093.037-.096.044-.078.164s.016.127-.074.158c-.084.03-.093.046-.096.176-.003.197-.037.299-.096.296-.038-.003-.056.037-.072.164-.022.17-.087.247-.142.16-.02-.028-.028.025-.028.148 0 .173-.007.192-.069.201-.068.01-.071.025-.096.472-.012.254-.015.55-.006.655.019.18.025.191.102.2.06.007.087.032.093.078q.01.07.072.071c.03 0 .059.022.059.046 0 .04.127.047.946.047s.946-.007.946-.047c0-.037.053-.046.294-.046.255 0 .292-.006.273-.05-.027-.074.047-.104.273-.104.193 0 .205-.004.202-.071-.003-.065.01-.068.233-.078.23-.009.235-.012.223-.08-.019-.086.046-.111.292-.111.136 0 .158-.01.142-.05-.028-.074.047-.104.258-.104.173 0 .189-.007.186-.071-.003-.062.012-.068.207-.078.193-.009.211-.015.193-.068-.025-.074.08-.123.267-.123.099 0 .12-.012.12-.059 0-.07.06-.095.23-.095.118 0 .13-.01.13-.071-.003-.062.013-.068.162-.078.13-.006.16-.018.16-.065 0-.086.066-.126.209-.126.108 0 .127-.01.111-.05q-.034-.102.196-.104c.112 0 .124-.01.124-.072-.003-.058.015-.07.136-.083.109-.012.14-.028.14-.07q.002-.114.205-.115c.093 0 .108-.01.108-.071-.003-.059.016-.071.137-.084.115-.012.14-.027.14-.077s.024-.065.123-.077c.093-.012.124-.03.124-.07 0-.072.069-.115.19-.115.077 0 .093-.013.093-.071-.003-.056.018-.071.105-.084.08-.012.109-.03.109-.077 0-.046.03-.065.133-.086.071-.013.124-.04.112-.056-.028-.046.05-.12.13-.12q.073.001.08-.071c.007-.05.035-.071.103-.084.065-.012.093-.034.093-.077q.002-.057.078-.077t.086-.086c.007-.047.04-.071.115-.087.075-.012.1-.03.087-.065-.022-.055.04-.102.143-.102.059 0 .065-.009.037-.043-.037-.043-.003-.09.09-.117a.08.08 0 0 0 .046-.074q.002-.057.069-.068c.046-.006.071-.034.077-.093q.008-.085.078-.092c.046-.007.071-.034.077-.093s.031-.087.08-.093c.05-.009.07-.03.07-.086 0-.059.015-.074.077-.074.059 0 .077-.016.077-.065 0-.037.025-.071.06-.08q.058-.014.043-.074c-.013-.04 0-.06.03-.06q.049 0 .06-.101c.006-.074.024-.102.08-.108.05-.01.069-.031.069-.087 0-.052.015-.074.062-.074.07 0 .124-.105.124-.25 0-.074.012-.09.077-.09.062 0 .078-.015.078-.077 0-.043.012-.077.03-.077.016 0 .029-.03.022-.07-.003-.05.01-.069.056-.069.047 0 .06-.021.062-.092 0-.071.016-.093.078-.108.068-.016.077-.037.087-.18.009-.148.015-.16.087-.16.068 0 .074-.012.074-.154 0-.133.01-.155.062-.155.077 0 .127-.092.118-.219-.01-.083.003-.105.068-.12.047-.01.08-.044.084-.078.04-.395.043-.416.105-.416.05 0 .06-.022.06-.17 0-.093.015-.17.03-.17.019 0 .031-.028.031-.065 0-.05.013-.059.062-.043.06.018.062.006.062-.263v-.284l.078.013.074.015.01-.327c.009-.306.012-.33.08-.358.065-.028.068-.047.068-.408 0-.318.007-.38.047-.38s.046-.225.046-1.837-.006-1.837-.046-1.837-.047-.065-.047-.398c0-.392 0-.402-.068-.41-.068-.01-.071-.026-.08-.325-.01-.309-.01-.318-.084-.337-.075-.018-.078-.027-.078-.274 0-.142-.012-.27-.03-.278-.016-.01-.032-.003-.032.015q-.001.03-.03.015c-.016-.009-.032-.046-.032-.08 0-.03-.012-.058-.03-.058-.02 0-.032-.09-.032-.21 0-.142-.01-.192-.03-.16-.05.08-.097-.01-.119-.236-.018-.188-.028-.213-.09-.222-.074-.01-.09-.08-.074-.29.003-.043-.01-.09-.025-.102-.019-.01-.034-.003-.034.015q-.001.029-.031.016c-.015-.01-.031-.046-.031-.08 0-.031-.012-.06-.031-.06-.015 0-.031-.07-.031-.154 0-.142-.006-.154-.075-.154-.07 0-.077-.012-.086-.16-.01-.142-.019-.164-.087-.18-.06-.015-.078-.04-.08-.11-.007-.22-.01-.23-.09-.23-.072 0-.078-.008-.078-.154 0-.145-.007-.154-.078-.154s-.077-.01-.077-.154c0-.149-.004-.158-.094-.176-.068-.013-.092-.034-.092-.084 0-.037-.028-.077-.069-.095-.04-.019-.071-.06-.074-.093-.013-.238-.01-.232-.09-.232-.068 0-.078-.012-.078-.108 0-.09-.012-.108-.065-.108-.05 0-.062-.015-.05-.062q.014-.06-.027-.061c-.025 0-.044-.031-.044-.074 0-.056-.018-.077-.068-.087-.056-.006-.075-.034-.08-.11-.01-.078-.026-.1-.075-.1-.047 0-.06-.015-.047-.058.01-.037-.003-.068-.028-.078-.024-.009-.043-.043-.043-.077q-.002-.061-.068-.07c-.05-.007-.078-.038-.09-.103-.013-.052-.022-.08-.025-.068 0 .013-.031.01-.068-.012q-.065-.033-.05-.093c.01-.03.003-.067-.012-.077-.016-.01-.028-.043-.028-.074q-.002-.057-.068-.068-.067-.01-.087-.086-.021-.076-.087-.087c-.05-.006-.068-.03-.068-.083s-.019-.077-.069-.083q-.07-.012-.087-.087c-.009-.043-.034-.077-.052-.08-.093-.006-.103-.016-.103-.087q0-.076-.065-.095-.064-.022-.05-.078t-.043-.07a.08.08 0 0 1-.059-.078q-.001-.065-.068-.074-.066-.01-.087-.086t-.087-.087c-.05-.006-.068-.03-.068-.086 0-.059-.015-.074-.077-.074-.075 0-.084-.01-.09-.102-.003-.019-.038-.043-.081-.053-.056-.012-.08-.04-.087-.102-.01-.064-.028-.083-.087-.083s-.074-.015-.074-.074-.019-.077-.084-.087c-.062-.006-.09-.027-.096-.077a.086.086 0 0 0-.078-.077c-.05-.006-.07-.034-.077-.096-.01-.061-.028-.083-.08-.083-.081 0-.143-.053-.125-.105.01-.022-.03-.05-.087-.065-.055-.018-.102-.052-.102-.077s-.05-.062-.109-.08c-.083-.028-.105-.05-.102-.1.006-.052-.012-.064-.093-.073-.074-.006-.1-.025-.1-.071 0-.043-.024-.065-.092-.077-.072-.013-.093-.031-.09-.087q.001-.069-.053-.068-.153 0-.152-.111c0-.059-.015-.074-.084-.074-.115 0-.177-.043-.155-.102.016-.037-.006-.052-.096-.059-.096-.009-.115-.021-.112-.08 0-.052-.015-.068-.08-.068-.1 0-.165-.065-.137-.133.013-.04-.009-.049-.118-.058-.108-.006-.133-.022-.133-.071 0-.047-.025-.065-.108-.077-.084-.013-.112-.031-.118-.087-.01-.059-.028-.068-.15-.068h-.136v.232c0 .219.003.231.078.25.071.018.077.034.077.182 0 .151.003.16.075.148.065-.012.074 0 .09.13a.5.5 0 0 1 .003.176c-.01.015-.01.062 0 .105.015.052.04.074.096.074.077 0 .077.003.077.247s0 .247.078.247.078.003.078.26c0 .24.003.259.058.243.084-.021.103.025.125.355.018.278.024.3.087.31.065.008.068.027.077.323.01.3.012.315.08.325.066.009.069.018.069.407 0 .392 0 .395.074.414.106.025.118.157.106 1.16l-.01.816-.077.019c-.065.015-.078.036-.08.142-.007.194-.01.197-.084.197-.056 0-.072.016-.072.068.003.065-.012.071-.214.09-.118.009-.198.018-.177.021.019.003.038.025.038.05 0 .077-.233.108-.348.046-.065-.034-.065-.037-.01-.077.05-.037.02-.044-.238-.044-.341 0-.397-.012-.397-.095 0-.05-.025-.059-.149-.059-.183 0-.288-.062-.226-.133.034-.043.018-.05-.143-.058-.164-.01-.18-.016-.177-.08.003-.062-.012-.068-.146-.068-.105 0-.151-.013-.164-.05-.01-.028-.012-.059-.003-.074.01-.012-.047-.034-.121-.043-.136-.022-.205-.087-.133-.133.021-.015-.019-.03-.103-.04-.114-.012-.14-.028-.14-.077 0-.044-.024-.065-.092-.078-.066-.009-.097-.034-.103-.08q-.01-.06-.108-.092c-.075-.022-.1-.047-.096-.1 0-.052-.016-.067-.081-.067-.093 0-.158-.053-.137-.108.01-.022-.024-.053-.08-.074-.056-.019-.093-.05-.087-.071.01-.022-.028-.065-.078-.096-.068-.04-.083-.065-.058-.09.024-.024.015-.043-.035-.07-.037-.02-.065-.06-.059-.087.007-.037-.012-.053-.07-.053-.063 0-.079-.015-.079-.074 0-.052-.021-.08-.077-.092-.062-.016-.077-.04-.077-.111 0-.065-.013-.087-.044-.075-.043.016-.093-.034-.096-.095-.01-.1-.059-.192-.118-.216-.043-.019-.065-.056-.062-.093.015-.139-.025-.232-.102-.232-.069 0-.075-.009-.075-.17 0-.16-.003-.17-.077-.17-.075 0-.078-.009-.078-.175 0-.096-.01-.164-.019-.155-.012.01-.046.006-.077-.012-.05-.025-.059-.068-.059-.272 0-.225-.003-.24-.068-.237-.087.003-.112-.078-.115-.405-.003-.204-.012-.25-.046-.238-.081.031-.112-.17-.115-.725-.003-.3-.013-.513-.019-.473-.018.1-.077.068-.112-.052-.012-.059-.021-.568-.015-1.136.01-.868.015-1.035.056-1.06q.044-.027.068.01c.012.021.025-.238.025-.575 0-.639 0-.633.133-.61.013 0 .022-.18.022-.4 0-.246.012-.4.03-.4.02 0 .032-.038.032-.08 0-.066.012-.075.062-.06.056.019.059 0 .068-.33.01-.34.013-.349.08-.346.066.003.07-.009.07-.256 0-.151.012-.256.03-.256.019 0 .031-.028.031-.065 0-.047.016-.059.047-.047.037.013.046-.015.046-.145 0-.28.031-.386.112-.404.071-.019.074-.034.074-.247 0-.216.003-.229.078-.247.074-.019.077-.028.077-.296V.792h-.186c-.146 0-.186.009-.186.046"/></svg>