<svg xmlns="http://www.w3.org/2000/svg" width="400" height="200" viewBox="-14.313 0.803 62.001 31"><path fill="#fff" fill-rule="evenodd" d="M23.668.81c0 .022-.031.041-.066.041-.043 0-.062.022-.062.075 0 .048-.022.082-.063.091-.059.016-.062.044-.062.475 0 .386.006.458.047.458.056 0 .065.252.012.305q-.038.035 0 .053c.05.032.044.249-.01.32-.043.057-.046.057-.077-.028a.6.6 0 0 1-.034-.166c0-.04-.02-.075-.038-.075-.022 0-.081-.073-.134-.16a.8.8 0 0 0-.163-.208c-.04-.028-.071-.075-.071-.107 0-.031-.013-.066-.032-.075-.015-.01-.03-.003-.03.019s-.029.028-.07.019c-.087-.025-.15.028-.15.122 0 .041-.012.075-.03.075-.057 0-.032.057.03.073.048.012.063.044.063.113 0 .053-.012.097-.031.097-.06 0-.031.07.034.085.056.016.063.035.05.135-.012.091 0 .129.044.17.065.056.078.191.022.226q-.038.024.028.047c.05.019.068.056.078.17.006.078-.003.157-.022.175q-.032.033.012.022c.06-.012.129.296.07.314-.05.016-.045.101.012.101.062 0 .09.129.065.31-.012.108-.006.18.028.243.066.132.069 1.024 0 1.08-.03.029-.04.076-.025.173.01.082.004.141-.018.154-.02.012-.035.053-.035.094a.3.3 0 0 1-.046.132.25.25 0 0 0-.047.129.5.5 0 0 1-.029.141 1 1 0 0 0-.046.157q-.021.087-.075.088-.06-.001-.013.025c.053.035.016.29-.043.29-.063 0-.085.059-.044.11.025.027.031.084.019.147-.013.056-.035.195-.053.308-.016.113-.05.22-.072.235-.032.025-.038.094-.025.27.01.186.003.245-.035.283-.037.04-.046.126-.043.433.006.337 0 .39-.05.415-.038.022-.053.072-.053.167 0 .072.009.144.022.156.024.026.015.437-.01.528-.01.032-.037.057-.062.057-.05 0-.063.204-.013.235.047.029.038.29-.012.34-.025.025-.038.075-.028.125.021.116-.016.305-.063.305-.022 0-.04.056-.04.147-.01.233-.044.362-.11.377-.043.013-.053.035-.04.085.015.07-.081.311-.206.506-.035.05-.082.138-.106.195-.032.072-.07.1-.135.11-.053.006-.084.025-.078.053.01.044-.14.317-.175.317a.4.4 0 0 0-.115.088.7.7 0 0 1-.178.123c-.05.022-.087.06-.087.084 0 .047-.12.132-.163.12-.015-.003-.025.015-.025.04 0 .067-.16.126-.19.073q-.025-.038-.044.04c-.025.098-.162.173-.181.095-.01-.038-.022-.028-.053.034-.04.085-.094.12-.094.057 0-.016-.018-.022-.043-.013a.05.05 0 0 0-.032.06c.022.057-.05.097-.084.044-.019-.031-.034-.019-.06.047-.018.057-.046.082-.074.072a.05.05 0 0 0-.063.029c-.01.025-.03.044-.053.044a.3.3 0 0 0-.112.062q-.148.117-.175.007-.014-.055-.038.047c-.018.088-.034.1-.096.085-.063-.016-.075-.007-.075.05q-.002.067-.04.053c-.023-.01-.073.02-.113.06-.05.053-.094.07-.144.056-.056-.012-.072-.006-.068.041.003.032-.016.057-.041.057s-.078.031-.122.069q-.13.126-.128.025c0-.025-.012-.047-.031-.047-.016 0-.031.035-.031.079 0 .047-.022.087-.053.1a.2.2 0 0 0-.072.04 1 1 0 0 1-.1.073c-.075.047-.087.047-.087.006 0-.025-.013-.047-.032-.047-.015 0-.03.032-.03.072 0 .088-.104.154-.2.13-.066-.016-.079-.004-.097.078-.013.053-.038.097-.06.097s-.094.05-.156.11c-.065.06-.137.11-.162.11s-.044.013-.044.025a.6.6 0 0 1-.156.142c-.112.084-.175.113-.228.1-.056-.016-.072-.006-.078.057-.003.053-.16.229-.496.568-.272.27-.51.49-.528.49-.022 0-.047.038-.056.085-.028.1-.231.355-.284.355-.025 0-.057.047-.079.106-.03.098-.156.252-.156.192 0-.053-.09.098-.093.15 0 .032-.035.092-.078.136a.4.4 0 0 0-.078.094c0 .041-.253.383-.297.399a.1.1 0 0 0-.047.079c0 .062-.072.144-.1.116-.01-.01-.025.025-.034.078-.022.107-.353.628-.4.628-.015 0-.028.029-.028.063a.2.2 0 0 1-.053.12.7.7 0 0 0-.11.163c-.03.06-.112.207-.18.33a6 6 0 0 0-.144.267l-.075.173c-.031.069-.065.15-.075.178-.009.032-.037.057-.062.057-.031 0-.04.019-.031.047.018.044-.188.625-.244.688a.2.2 0 0 0-.025.097.17.17 0 0 1-.028.098c-.012.015-.05.107-.084.2a1 1 0 0 1-.081.202.2.2 0 0 0-.025.097.26.26 0 0 1-.047.129.3.3 0 0 0-.047.144c0 .048-.013.092-.028.1-.016.01-.038.07-.047.13-.012.06-.034.11-.05.11-.019 0-.031.034-.031.078a.6.6 0 0 1-.034.163c-.02.048-.05.123-.066.167s-.05.12-.075.166a.4.4 0 0 0-.044.148c0 .031-.012.07-.03.079s-.032.044-.032.075a.6.6 0 0 1-.06.179 9 9 0 0 0-.127.28c-.147.339-.2.442-.266.533-.034.05-.09.148-.119.21a.4.4 0 0 1-.093.142.5.5 0 0 0-.094.145c-.068.15-.306.458-.356.458-.019.003-.062.038-.096.082-.035.044-.079.078-.1.078s-.032.02-.022.044c.015.041-.138.22-.178.21-.04-.009-.116.051-.125.098-.01.073-.212.239-.231.189-.016-.054-.069-.016-.069.05 0 .053-.118.15-.147.12-.009-.01-.04.015-.071.05a.2.2 0 0 1-.144.072q-.09 0-.09.047c0 .028-.029.044-.07.04q-.066-.007-.08.06c-.016.054-.028.06-.066.029-.037-.032-.047-.029-.062.019-.022.072-.172.138-.256.116-.05-.013-.072 0-.085.047-.01.047-.04.066-.096.066-.044 0-.082.012-.082.031 0 .066-.093.029-.096-.04-.004-.05-.007-.057-.02-.016-.005.031-.034.056-.058.056-.025 0-.044.022-.044.047s-.028.047-.063.047c-.034 0-.062-.015-.062-.03 0-.06-.066-.032-.094.043-.028.082-.162.126-.215.072q-.036-.038-.035.02 0 .052-.078.053c-.059 0-.078-.016-.078-.066 0-.035-.015-.054-.03-.044-.02.012-.026.034-.016.05.012.016-.004.028-.029.028-.028 0-.05.019-.05.044 0 .075-.128.097-.177.031-.022-.03-.041-.037-.041-.015s-.013.031-.028.019c-.019-.01-.047.012-.066.047-.037.069-.178.078-.165.01.003-.02-.019-.03-.053-.02-.035.01-.063.038-.063.06 0 .057-.128.11-.171.072-.053-.053-.163-.031-.181.038-.022.082-.138.069-.122-.013q.02-.117-.116.038c-.06.066-.128.1-.253.126-.093.019-.203.04-.24.053-.06.016-.072.006-.072-.053 0-.07-.003-.066-.081.028-.084.1-.178.129-.215.07-.032-.051-.1-.035-.12.024-.015.07-.202.12-.252.07-.044-.045-.081-.038-.081.012 0 .06-.103.09-.216.066-.065-.013-.093-.006-.106.028-.022.057-.209.072-.209.019 0-.057-.069-.031-.084.031-.022.082-.15.117-.219.06-.04-.038-.056-.035-.097.028-.053.082-.193.095-.193.016 0-.038-.019-.028-.075.038-.066.078-.09.084-.203.066-.1-.016-.128-.01-.128.025 0 .044-.066.081-.144.081-.025 0-.043-.022-.043-.047 0-.062-.085-.025-.103.05-.02.07-.116.082-.116.016 0-.063-.128-.022-.147.047-.015.06-.124.1-.153.057-.025-.044-.106-.035-.106.016 0 .088-.175.11-.196.025-.01-.041-.02-.035-.047.034-.028.066-.056.088-.11.079-.037-.006-.065-.028-.062-.047.003-.02-.019-.029-.053-.02-.031.01-.05.035-.044.054.025.063-.075.132-.118.088-.06-.06-.12-.044-.12.025 0 .057-.012.063-.108.044-.088-.015-.11-.01-.11.032 0 .028-.025.05-.062.05-.034 0-.062-.013-.062-.031 0-.054-.088.003-.103.069-.013.047-.035.06-.082.047-.037-.01-.068.003-.078.028-.018.05-.112.06-.112.013 0-.016-.022-.022-.047-.013-.025.01-.04.031-.037.05.003.016-.016.041-.041.054-.025.015-.078.04-.116.06a.3.3 0 0 1-.106.037c-.018 0-.053.022-.078.047s-.065.038-.09.028c-.028-.012-.047 0-.047.026 0 .053-.231.157-.297.131q-.046-.017-.047.032c0 .028-.012.05-.03.05-.016 0-.032.025-.032.054 0 .03-.05.11-.11.172a.8.8 0 0 0-.162.29c-.028.097-.071.175-.093.175-.056 0-.05.091.006.113.025.01.053.07.066.132.043.245.287.59.53.75.04.026.075.073.075.101 0 .063.147.139.169.085.006-.019.028.013.05.066.037.104.078.132.1.072.015-.044.15 0 .15.05 0 .026.034.045.08.045.066 0 .079.012.066.062-.01.035-.003.063.013.063.015 0 .028-.016.028-.031 0-.047.094-.038.112.012.01.025.035.041.056.032.022-.01.082.006.132.034.05.025.115.047.146.047.032 0 .053.026.053.063q0 .062.063.063c.034 0 .062-.016.062-.031 0-.054.063-.035.085.022.03.081.078.103.115.053.04-.053.175-.025.175.038q.002.043.094.044c.053 0 .093-.013.093-.029 0-.034.122-.081.181-.072.063.013.044-.113-.025-.15-.037-.02-.062-.067-.062-.117 0-.122.069-.326.115-.345a.07.07 0 0 0 .041-.06c0-.022.072-.113.162-.204.14-.141.166-.154.181-.104.022.057.022.054.057-.006.018-.038.028-.075.015-.085-.01-.012.019-.034.063-.05.043-.016.08-.044.087-.06.019-.044.153-.078.153-.037q-.001.037.063 0c.034-.02.062-.054.062-.079 0-.057.066-.075.131-.035.044.029.066.02.103-.037.05-.072.153-.094.187-.038.022.035.107.006.166-.053.062-.063.487-.057.54.01.031.037.072.043.187.027.172-.025.278 0 .278.066 0 .025.022.044.05.044s.072.025.094.054c.037.053.04.05.044-.016 0-.075.059-.091.118-.031.022.022.088.034.147.028.06-.003.11.006.11.022s.027.06.062.1c.062.073.062.073.062.007 0-.038.019-.07.044-.07.078 0 .143.038.143.079 0 .06.085.082.107.025.021-.056.209-.034.321.041a.4.4 0 0 0 .194.044c.068 0 .13.016.137.038.01.025.019.018.019-.016.003-.044.031-.053.16-.053.086 0 .155.009.155.025 0 .037.29.003.337-.044.022-.025.06-.044.082-.044.025 0 .087-.01.14-.02.084-.018.097-.012.097.048s.006.063.062.028c.035-.022.063-.056.063-.078 0-.054.165-.094.18-.047.02.06.091.044.11-.025.013-.044.044-.063.11-.063.052 0 .102.019.109.037q.018.039.037-.028c.025-.078.106-.12.153-.072.047.047.072.038.09-.035.016-.053.035-.062.097-.053q.084.018.082-.028.002-.044.056-.035c.028.006.05.032.043.057-.009.034 0 .034.038 0 .028-.022.05-.057.05-.079 0-.063.15-.148.218-.126.044.013.063.007.063-.028 0-.028.022-.05.044-.05.025 0 .084-.038.134-.082.053-.047.11-.072.143-.063.066.016.147-.043.15-.113.003-.06.475-.405.5-.364.028.047.215-.148.215-.223 0-.034.047-.097.103-.144.053-.048.216-.198.36-.333.255-.245.418-.358.455-.32.01.012.019.065.019.122 0 .081.012.1.047.088.05-.02.059.019.05.191-.004.05-.025.104-.05.12-.053.028-.066.21-.016.21.019 0 .031.028.031.063 0 .069-.237.584-.28.612-.02.01-.032.044-.032.079a.09.09 0 0 1-.047.075c-.025.01-.047.047-.047.082s-.012.063-.03.063c-.016 0-.032.028-.032.06 0 .034-.013.072-.031.081-.016.01-.031.05-.031.091a.2.2 0 0 1-.038.107c-.025.025-.04.126-.04.258 0 .172.012.232.071.31a.4.4 0 0 1 .069.13c0 .018.022.056.047.08.04.045.047.045.047 0 0-.078.053-.059.075.03.022.084.08.106.08.03 0-.078.054-.053.076.035.022.076.025.079.062.028.044-.062.112-.04.112.035 0 .038.025.04.113.025.094-.019.112-.012.128.047.016.066.072.094.072.035 0-.047.187-.038.19.006a.4.4 0 0 1 0 .088c-.006.04-.003.04.025 0 .038-.053.303-.066.34-.016.013.016.054.032.094.035.234.006.262.016.278.075.01.035.034.063.056.063s.05.019.06.038q.014.031.009-.022c-.01-.094.2-.107.287-.02.069.07.253.092.253.032 0-.047.256-.003.297.05.037.048.296.08.296.035 0-.05.51 0 .55.057.028.044.118.05.583.05.478 0 .553-.006.578-.053.022-.035.084-.057.206-.066.156-.013.175-.007.178.044 0 .034.01.043.019.018.006-.018.034-.037.06-.037.024 0 .043-.016.043-.032 0-.056.165-.103.225-.066.075.047.118.044.118-.01 0-.024.022-.053.05-.062.081-.031.231-.022.231.016 0 .019.019.028.04.019.02-.007.038-.032.038-.057 0-.05.256-.097.284-.053.029.044.138.028.138-.02 0-.027.05-.053.131-.065.103-.019.137-.013.169.028q.035.052.059.022c.01-.019.065-.034.125-.034s.115-.016.125-.032c.009-.019.156-.031.327-.031s.319.012.328.031c.01.016.075.032.144.032.072 0 .122.015.122.037 0 .02.018.013.04-.022.05-.066.197-.044.26.041.034.044.05.047.102.016.085-.054.256-.019.322.066.047.056.062.06.115.025.094-.057.185-.047.244.025q.058.062.165.063c.091 0 .135-.022.216-.116.075-.085.11-.104.134-.079s.15.038.328.038h.29l.04-.104c.05-.113.132-.191.176-.166.015.01.037-.003.047-.032.012-.031.043-.044.078-.034.084.022.096-.047.096-.503 0-.33-.009-.399-.062-.493-.038-.06-.084-.116-.11-.126-.024-.009-.046-.037-.046-.06 0-.024-.022-.062-.047-.084q-.047-.041-.047-.003c0 .075-.06.031-.078-.06-.022-.107-.078-.129-.078-.031 0 .09-.06.078-.097-.02-.028-.08-.03-.08-.09-.027-.075.066-.275.047-.334-.035-.028-.038-.078-.047-.234-.038-.147.007-.207-.003-.238-.037-.034-.041-.037-.038-.03.015.008.06-.013.063-.429.073-.384.006-.44 0-.474-.047-.022-.029-.04-.041-.04-.022 0 .015-.173.025-.425.018-.344-.009-.431-.003-.46.035-.043.056-.402.091-.64.063-.127-.013-.162-.029-.155-.07.006-.028.037-.053.071-.062.035-.006.072-.025.085-.047.015-.025.03-.025.056 0 .053.053.147.019.168-.06.016-.063.02-.063.075-.013.075.07.1.066.1-.009s.085-.116.135-.066c.053.053.084.04.084-.031 0-.057.015-.066.09-.054.072.01.097 0 .11-.047.012-.056.022-.056.065-.022.047.038.056.038.084-.01.022-.043.3-.21.35-.21.006 0 .019.025.025.054.01.04.022.028.056-.047.053-.113.085-.126.103-.048.01.044.016.041.035-.021.03-.11.28-.258.396-.24.081.013.09.007.09-.078 0-.05.01-.09.026-.09.03 0 .406-.368.465-.46.025-.04.069-.075.09-.075.025 0 .044-.022.044-.047s.044-.116.094-.204a.8.8 0 0 0 .094-.192c0-.015.021-.037.046-.047a.1.1 0 0 0 .047-.078c0-.035.013-.085.028-.116a1.4 1.4 0 0 0 .085-.189c.03-.072.065-.132.08-.132.013 0 .026-.034.026-.075 0-.044.015-.088.03-.098.02-.009.032-.047.032-.081 0-.06.006-.082.103-.274a.5.5 0 0 0 .053-.166c0-.031.016-.06.032-.06.018 0 .03-.028.03-.06 0-.103.216-.58.294-.646a.4.4 0 0 0 .094-.123c.019-.056.022-.056.081-.003s.062.053.062.003c0-.082.107-.047.12.038.012.075.065.09.12.034q.035-.032.091-.003c.07.035.238.088.381.116.053.013.1.038.1.057 0 .022.025.066.05.1.047.063.047.063.038 0-.007-.037.009-.065.046-.072.038-.006.053.01.053.057 0 .053.01.063.041.038s.063-.022.125.009l.169.094a.32.32 0 0 1 .124.148c.02.056.038.078.038.047.003-.075.037-.066.143.038q.193.183.253.32c.153.336.172.427.091.455-.069.029-.069.563.003.59.04.017.044.051.025.199-.01.1-.04.194-.062.207-.032.019-.038.063-.022.163.012.091.003.157-.022.189-.022.025-.038.113-.038.195 0 .144.032.235.163.48.034.06.06.135.062.163 0 .029.016.063.035.073.021.015.024.09.012.216-.019.157-.012.201.028.236.066.056.066.21 0 .248-.04.022-.047.053-.031.12.025.1.025.373 0 .458-.01.031-.038.057-.062.057-.072 0-.057.147.018.166.035.01.063.04.063.07a.3.3 0 0 0 .062.131.3.3 0 0 1 .063.138c0 .035.021.06.046.06s.06.025.075.056a.6.6 0 0 0 .153.145c.069.047.135.116.144.154.012.053.025.06.056.028.053-.053.087-.047.087.022 0 .079.05.113.076.05.021-.06.08-.06.08 0 0 .025.029.06.063.079q.064.033.063 0c0-.016.028-.032.062-.032s.062.016.062.035.022.053.047.079c.04.043.047.043.047 0 0-.076.178-.066.219.012.034.066.156.088.156.028 0-.05.318-.01.359.044.043.06.318.088.34.038.016-.047.337-.044.353.003.019.054.175.013.234-.063.047-.056.063-.06.119-.025.053.035.078.035.115.003.038-.034.056-.028.097.025.06.07.193.117.193.066 0-.022.066-.025.188-.012.14.016.209.01.28-.028.085-.044.095-.044.095 0 0 .075.043.056.102-.048.066-.11.094-.116.172-.03.06.065.06.065.078.002q.015-.062.128-.081c.09-.02.113-.038.113-.098 0-.038-.022-.085-.047-.1-.028-.016-.056-.091-.069-.189-.01-.09-.031-.163-.043-.163-.016 0-.029-.038-.029-.088v-.085l1.046-.01c.718-.006 1.046 0 1.046.023 0 .019.044.034.097.034.072 0 .1-.015.112-.066.013-.037.053-.069.106-.081.085-.016.091-.029.091-.154 0-.1-.013-.138-.047-.138-.06 0-.093-.136-.05-.214.047-.088.044-.1-.028-.1-.065 0-.09-.104-.031-.142.056-.034.034-.072-.081-.138-.081-.05-.106-.085-.1-.135.006-.054-.013-.076-.084-.098-.2-.062-.328-.128-.328-.17 0-.046-.081-.056-.11-.009-.03.054-.168.035-.234-.031q-.061-.062-.184-.063c-.069 0-.134-.015-.147-.037q-.021-.035-.05.034c-.025.075-.05.072-.262-.016-.122-.05-.293-.226-.293-.298a.15.15 0 0 0-.05-.094q-.051-.041-.031-.129c.009-.053.006-.085-.013-.072-.038.022-.094-.085-.094-.186 0-.04.02-.084.04-.09q.035-.02-.011-.02c-.029-.003-.063-.025-.072-.053-.032-.078-.022-.257.012-.28.047-.028.038-.14-.012-.14s-.066-.045-.097-.258q-.02-.148.022-.214c.034-.056.03-.072-.022-.113-.053-.04-.063-.085-.066-.32 0-.151-.018-.305-.037-.343-.047-.081-.05-.31-.006-.339.046-.031.037-.141-.016-.141-.06 0-.11-.098-.11-.217 0-.05-.015-.104-.034-.116-.022-.013-.028-.07-.018-.142q.015-.116-.025-.135c-.053-.018-.097-.28-.05-.295.05-.016.043-.1-.01-.1-.062 0-.103-.333-.053-.415s.044-.34-.01-.34c-.068 0-.08-.219-.08-1.419 0-1.102 0-1.13.062-1.146.069-.02.081-.057.031-.088-.05-.032-.037-.182.025-.267a.8.8 0 0 0 .085-.173.16.16 0 0 1 .109-.11c.044-.01.081-.038.081-.063.003-.025.006-.062.01-.081.006-.063.24-.198.312-.18.053.013.068 0 .084-.072.012-.056.069-.128.144-.185.065-.053.15-.12.184-.15a.3.3 0 0 1 .078-.054c.028 0 .103-.085.09-.1-.009-.01.029-.063.082-.123a4 4 0 0 0 .552-.782l.125-.236c.066-.113.256-.735.256-.829 0-.122.028-.191.081-.191.047 0 .063-.142.016-.17-.031-.022-.028-.945.006-.98.04-.044.025-.232-.022-.232-.06 0-.09-.158-.065-.343.015-.12.009-.157-.025-.17-.063-.021-.103-.26-.053-.32.028-.034.021-.056-.029-.107-.068-.069-.087-.204-.034-.238.056-.035.034-.11-.031-.11-.053 0-.062-.022-.062-.126a.45.45 0 0 0-.054-.207c-.04-.066-.043-.094-.015-.142.053-.084.047-.113-.028-.132-.06-.015-.066-.034-.05-.144.01-.072.003-.122-.01-.113-.037.025-.093-.088-.093-.185 0-.044-.013-.088-.032-.098-.015-.01-.03-.053-.03-.094 0-.04-.013-.085-.032-.094-.015-.01-.031-.066-.031-.123 0-.06-.022-.122-.047-.144a.17.17 0 0 1-.047-.113c0-.038-.012-.082-.031-.091-.016-.01-.031-.054-.031-.094 0-.041-.013-.082-.028-.095-.016-.01-.04-.062-.053-.116a1 1 0 0 0-.044-.15 4 4 0 0 1-.144-.356.6.6 0 0 0-.078-.166c-.015-.01-.028-.04-.028-.07a1 1 0 0 0-.075-.21c-.134-.282-.206-.455-.206-.496a.3.3 0 0 0-.04-.1 5 5 0 0 1-.225-.534c-.11-.324-.172-.764-.11-.801.035-.022.035-.038.007-.073-.028-.03-.031-.113-.019-.27.019-.179.034-.232.084-.257.044-.025.05-.044.025-.07-.043-.043-.043-.169-.003-.194.019-.01.031-.047.031-.082 0-.078.178-.436.219-.436.019 0 .031-.02.031-.041 0-.057.203-.242.262-.242.029 0 .05-.016.05-.031 0-.02.028-.032.066-.032a.2.2 0 0 0 .115-.05c.047-.047.053-.047.107.019l.056.069v-.082c0-.06.019-.084.084-.1a.2.2 0 0 1 .14.015c.054.032.063.029.079-.031.015-.06.034-.066.168-.05.122.016.153.01.153-.025 0-.025.034-.054.075-.066.081-.02.156.006.128.047-.031.053.16-.01.197-.066.04-.057.256-.085.256-.028 0 .037.165 0 .203-.048.043-.053.284-.087.312-.047.028.05.078.041.06-.01-.01-.024-.004-.052.015-.065.019-.01.044.003.053.028.025.066.075.032.075-.047 0-.075.084-.078.103-.006q.015.059.037-.047c.013-.054.035-.1.047-.1.056 0 .281-.265.356-.422.112-.229.11-.37-.012-.458-.05-.038-.094-.088-.094-.113 0-.05-.081-.06-.11-.013-.03.05-.109.038-.109-.016a.08.08 0 0 0-.053-.069.22.22 0 0 1-.134-.175c0-.092-.09-.101-.181-.016-.047.04-.112.097-.144.122-.056.041-.059.038-.043-.028.012-.038.006-.07-.01-.07-.037 0-.084.101-.068.149.018.05-.053.084-.094.044-.028-.029-.05-.02-.09.034-.047.063-.063.066-.116.031-.09-.053-.15-.047-.169.022-.018.076-.224.126-.28.07-.05-.05-.432-.048-.422.003.006.031-.06.04-.256.04-.197 0-.262-.009-.256-.04.01-.05-.216-.054-.265-.003-.054.053-.188.009-.207-.07-.015-.053-.028-.06-.08-.028-.076.038-.129.019-.129-.05 0-.025-.015-.038-.034-.028-.019.012-.05-.004-.075-.035-.038-.053-.034-.063.025-.078.037-.01.066-.035.06-.054q-.005-.035.024-.037c.016 0 .031-.02.031-.045 0-.06.15-.153.219-.135q.056.015.075-.05c.012-.053.025-.056.062-.025.053.044.113.022.113-.044 0-.056.125-.097.156-.047q.022.038.04-.028c.016-.066.085-.094.085-.035 0 .016.019.032.043.032.025 0 .041-.025.038-.057-.003-.04.019-.053.1-.05.053.003.1-.007.1-.022 0-.016.031-.044.072-.057.05-.022.078-.015.109.022.034.044.037.041.037-.019 0-.081.094-.094.097-.015 0 .034.01.04.019.015.006-.018.04-.037.072-.037.03 0 .062-.032.071-.066.016-.057.035-.066.125-.047.09.015.11.01.125-.044.022-.088.116-.082.116.006 0 .063.006.06.062-.031.034-.057.088-.101.122-.101s.072-.016.084-.035c.01-.018.053-.025.094-.015.06.015.075.006.075-.044q.002-.11.087-.025c.028.028.038.022.038-.032q0-.07.056-.069c.034 0 .084-.028.115-.063a1 1 0 0 1 .166-.132c.081-.05.112-.056.131-.025q.023.039.047-.06c.012-.056.047-.116.081-.138.031-.018.06-.047.06-.062 0-.013.037-.082.084-.151a.7.7 0 0 0 .106-.32q.023-.187.072-.217c.056-.032.068-.23.018-.26-.028-.02-.021-.161.019-.403.016-.091.01-.116-.028-.116-.05 0-.084-.063-.084-.154a.5.5 0 0 0-.038-.135c-.034-.072-.062-.085-.212-.094q-.173-.01-.197.028c-.037.06-.137.05-.175-.016-.028-.047-.03-.04-.034.032 0 .06-.022.09-.069.106-.04.013-.075.007-.08-.015-.017-.05-.104-.044-.144.01-.044.056-.456.106-.456.053 0-.02-.035-.035-.078-.035-.05 0-.078.019-.078.047 0 .063-.153.126-.2.079-.05-.05-.103-.038-.122.031-.01.035-.044.063-.075.063a.16.16 0 0 0-.094.034c-.04.041-.146.013-.118-.031.01-.016.003-.04-.016-.05-.018-.013-.031-.01-.028.006a.5.5 0 0 1 0 .1c-.003.06-.016.07-.078.054-.056-.013-.078-.003-.09.047-.01.038-.032.056-.05.044-.02-.01-.029-.035-.016-.05.01-.02-.01-.016-.047.01-.037.021-.065.059-.065.084 0 .031-.025.038-.094.022-.069-.013-.094-.006-.094.028 0 .05-.11.094-.156.063-.019-.013-.025-.035-.015-.05q.012-.024-.032-.01a.24.24 0 0 0-.08.079c-.026.047-.067.06-.2.06a.7.7 0 0 1-.229-.029l-.168-.084c-.066-.032-.119-.08-.119-.101q-.002-.043-.05-.025-.051.018-.065-.044c-.01-.035-.044-.063-.078-.063-.063 0-.316-.132-.403-.207a.16.16 0 0 0-.085-.044c-.018 0-.046-.02-.059-.041-.012-.019-.053-.04-.087-.044-.128-.013-.294-.088-.306-.141-.022-.085-.272-.079-.344.006-.056.066-.302.091-.302.031 0-.037-.1-.003-.14.05-.045.057-.191.089-.216.048-.035-.057-.103-.041-.122.028-.019.072-.144.085-.203.025-.031-.031-.044-.025-.056.031-.025.095-.138.095-.14-.003-.004-.05-.007-.056-.02-.015-.006.031-.024.056-.04.056s-.022.022-.013.047c.013.029 0 .047-.028.047s-.056-.025-.062-.056c-.013-.05-.016-.05-.019 0-.003.047-.031.056-.156.056-.122 0-.16-.012-.168-.056-.013-.05-.016-.05-.02 0-.002.069-.065.075-.065.006 0-.037-.018-.047-.075-.031-.062.015-.096-.006-.19-.116-.1-.113-.113-.148-.1-.249.01-.075.003-.116-.019-.11-.019.004-.047-.037-.062-.088-.057-.175-.075-.22-.306-.69-.128-.261-.247-.487-.269-.503-.022-.019-.043-.072-.047-.123-.006-.053-.028-.097-.059-.103a.22.22 0 0 1-.094-.098 3 3 0 0 0-.268-.358c-.125-.15-.228-.295-.228-.323 0-.035-.019-.044-.075-.028-.066.015-.078.006-.09-.073-.007-.047-.016-.069-.02-.05m3.26 26.503c.024.207.046.5.046.653 0 .28.031.4.103.4.025 0 .116.034.203.078.09.044.175.078.187.078.035 0 .178.157.222.242.022.044.034.292.034.688v.619l-.371-.02c-.49-.021-.575-.065-.73-.382-.147-.299-.194-.581-.194-1.131.003-.487.031-.694.137-.942.084-.195.19-.647.19-.81 0-.133.047-.126.088.015.022.072.06.305.084.512"/></svg>