<svg xmlns="http://www.w3.org/2000/svg" width="400" height="200" viewBox="-35.189 2.153 287.277 143.639"><path fill="#fff" d="M163.8 3c-1 .6-2 2.6-2.4 4.5-.6 3.6-2.5 4.9-5.6 4-1-.4-3.3-.2-5.1.4-2.6.9-4.3.8-7.6-.4-4.9-1.7-8.5-2-7.6-.6.8 1.4-2.3 2.1-8.8 1.9-4.9-.1-5.6-.4-5.2-1.8q.9-3-10.2-3c-2.4 0-5.3-.5-6.4-1.1-1.6-.8-3.5-.6-8.1 1-5.9 2-9.6 2.1-4.7.2 2.1-.9 2.1-1 .4-1-1.1 0-4 .4-6.5 1-3.4.8-6 .7-11-.5-3.6-.8-10.8-2-16-2.6-8.6-1.1-10.3-1-17.5.8-14.2 3.6-15.9 4.5-16 7.8 0 2.1-.4 2.8-1.5 2.5-2.4-.6-7.1-.1-9.2 1-2.6 1.4-1.8 3.3 1.8 3.9l2.9.5-4 1.7c-2.2.8-5.4 1.9-7.1 2.2-1.7.4-4.1 1.8-5.3 3L.9 30.8l2.4 2.6c1.4 1.5 3.5 2.6 5 2.6 1.4 0 2.9.4 3.2 1 1 1.7 3 1.1 9.1-2.5 3.2-1.9 6.3-3.5 6.8-3.5.6 0 .3.5-.6 1.1-2.1 1.2-2.4 2.9-.5 2.9.7 0 3-.9 5.2-2 4.6-2.3 4.8-2.3 11.4-.9S53.4 36.4 52 39c-.8 1.6-.5 1.9 2 2.5 3.2.7 3.7 2.4 2 6.9-.6 1.8-.6 2.6.1 2.6.6 0 .8 1.1.4 2.8-.4 2.2 0 3.3 2 5 3.3 2.8 3.1 6.5-.3 7-1.8.3-3 1.7-4.7 5.5-1.2 2.9-3.3 6.1-4.5 7.2-3.6 3.1-5 7.8-5 16.1 0 7.5.1 7.7 3.5 11 2.8 2.6 3.8 4.6 4.9 9.9.8 3.6 1.6 6.9 2 7.2.3.3-.2 1.2-1.1 1.8-1.5 1.1-1.3 1.4 1.5 2.9 2.5 1.3 3.2 2.3 3.2 4.5 0 1.5.8 3.5 1.8 4.4 2.7 2.5 3.4 2.1 1.9-1-.8-1.6-1.9-5.4-2.6-8.5-.7-3.2-1.7-6-2.2-6.3-1.4-.9-1.1-6.7.4-6.3 1.3.5 2.3 2.3 6.2 11.8 1.5 3.6 4 7.9 5.6 9.5 1.6 1.7 2.9 3.6 2.9 4.3 0 .9 3.5 2.2 16.1 5.8 2.7.7 5-.6 4.4-2.6-.3-1 .3-4.4 1.4-7.6 1-3.3 2.2-7.1 2.5-8.6.4-1.9 2.1-3.6 5.2-5.4 4.4-2.6 4.9-2.7 9.5-1.5 5.1 1.3 6.9.9 6.9-1.5 0-1.2 1.1-1.4 6.3-.8 7 .7 8.7 1.7 8.7 4.8 0 3.9 2.1 9.6 3.5 9.6 2 0 2.7-3.3 2-9.4-.4-3-.4-6.3 0-7.5.3-1.1 3.2-4 6.4-6.4 10-7.7 10.1-7.8 10.1-12.4 0-2.3.5-4.5 1.1-4.9.9-.5 1 .1.5 2.2-.7 2.5-.2 2.2 4.7-2.9 4.9-5 7.2-6.3 10.8-5.9.4.1.9-1.2 1.3-2.9.5-2.5 1.6-3.4 7.2-5.9 7.2-3.3 8.4-3.6 6.6-1.8-.7.7-1.2 1.8-1.2 2.4 0 1.3 2.3.9 8.5-1.6 2.8-1.1 2.9-1.2 1.2-2.5-1.4-1-1.5-1.4-.5-1.8s1-.8-.2-1.6c-.9-.6-1.9-.6-2.6-.1-.6.6-1.4.7-1.7.3-1.2-1.2-.7-4.1.8-4.7.8-.3 1.5-1.1 1.5-1.7 0-1.1-3.6-.9-7.5.6-1.1.4-.4-.3 1.5-1.6 2.7-1.8 5.4-2.4 12-2.9 9.8-.6 17-3.6 17-7.1 0-3.1-1.8-5.7-5-7.4-2.5-1.3-3-2.2-3-5.3 0-2.1-.6-4.7-1.4-5.7-1.3-1.8-1.4-1.8-4.4.3-1.6 1.2-3.9 2.2-5 2.2-1.8 0-2-.5-1.5-3.3.6-4.1-.9-5.5-7.1-6.3-3.7-.6-5-.3-6.7 1.2-3.1 2.8-4.9 6.8-4.9 10.8 0 3.3-.4 3.8-5 6.1-3.7 1.9-5.1 3.2-5.6 5.3-1 4.6-1.3 5.2-2.9 5.8s-4.5-1.2-4.5-2.7c0-.5.8-.9 1.8-.9s1.3-.3.6-.8c-.6-.4-1.1-1.8-1-3.1.1-2-.6-2.7-3.4-3.5-1.9-.6-4.2-1.6-5-2.1-.8-.6-3.1-1.5-5-2-3.1-.9-3.5-1.5-3.8-4.7-.3-3.1.2-4 3-6.1 4.7-3.6 14.8-8.7 16.9-8.7 1.1 0 3.8-1.4 6.1-3 2.8-2.1 5.3-3 7.9-3 3.5 0 4.4-.5 7.6-4.4 2.9-3.5-4.6-3.6-8.1-.1-3 3-4.3 3.1-5.1.5-.3-1.1-1.2-1.9-1.8-1.7-.7.1-1.2-1.1-1.2-3.3 0-3.7-1.7-4.8-4.7-3M31.5 30c-.3.5-1.2 1-1.8 1-.7 0-.6-.4.3-1 1.9-1.2 2.3-1.2 1.5 0M57 40c0 .5-.4 1-1 1-.5 0-1-.5-1-1 0-.6.5-1 1-1 .6 0 1 .4 1 1"/><path fill="#fff" d="M170.2 19c-1.8 1.1-3.2 2.4-3.2 2.9s2.7.8 6 .8c3.3-.1 6-.5 6-.9 0-.3-1.3-1.6-2.8-2.7-2.8-2-2.9-2-6-.1m.8 6c-1.2.8-1 1 .8 1 1.3 0 2-.4 1.7-1-.7-1.2-.6-1.2-2.5 0M17 38c-1.4 1.1-2 2-1.5 1.9 1.3 0 5-2.8 4.4-3.3-.2-.3-1.5.4-2.9 1.4m152 4c-1.3.8-1.2 1 .3 1 .9 0 1.7-.5 1.7-1 0-1.2-.1-1.2-2 0M53.5 44.3c-.4 1-.5 2.1-.1 2.4 1 1 1.8-.4 1.3-2.4-.4-1.7-.4-1.7-1.2 0M49.3 51c.1 1.1.5 2 1 2s.7-.6.4-1.4c-.4-.9.1-1.7 1.1-1.9 1.2-.3 1.1-.5-.5-.6s-2.1.4-2 1.9m3.7 7.9c0 1.8 3.4 5.1 5.2 5.1 2.2 0 .5-4.1-2.2-5.5-2.8-1.5-3-1.4-3 .4M195.5 61c.3.5 1.3 1 2.1 1s1.2-.5.9-1c-.3-.6-1.3-1-2.1-1s-1.2.4-.9 1m3.2 8.7c-1.2 1.1-.8 2.3.8 2.3.8 0 1.5-.7 1.5-1.5 0-1.6-1.2-2-2.3-.8"/></svg>