<svg xmlns="http://www.w3.org/2000/svg" width="400" height="200" viewBox="-72.205 91.897 656.410 328.205"><g fill="#fff"><path d="M256 320c-48 0-91.2-4.8-126.4-11.2C139.2 369.6 192 416 256 416s116.8-46.4 126.4-107.2C347.2 315.2 304 320 256 320m212.8-78.4s-16-4.8-40-11.2c-17.6-4.8-30.4-16-35.2-30.4C376 137.6 320 96 256 96s-120 41.6-137.6 102.4c-4.8 14.4-17.6 27.2-35.2 30.4-25.6 6.4-40 11.2-40 11.2-6.4 3.2-11.2 9.6-11.2 16s4.8 12.8 11.2 14.4c3.2 1.6 96 33.6 212.8 33.6s209.6-32 212.8-33.6c6.4-1.6 11.2-8 11.2-14.4s-4.8-12.8-11.2-14.4M256 272c-64 0-136-8-176-16 22.4-9.6 54.4-27.2 60.8-48 16-48 60.8-80 115.2-80 52.8 0 99.2 32 115.2 80 6.4 20.8 40 38.4 60.8 48-40 8-112 16-176 16"/><path d="M256 256c-43.2 0-91.2-3.2-128-8 12.8-9.6 24-20.8 28.8-35.2 12.8-41.6 52.8-68.8 99.2-68.8s86.4 27.2 99.2 68.8c4.8 12.8 16 25.6 28.8 35.2-36.8 4.8-84.8 8-128 8"/></g></svg>