<svg xmlns="http://www.w3.org/2000/svg" width="400" height="200" viewBox="-331.371 1 1219.741 609.871"><path fill="#fff" d="M4.2 4.3 1 7.6l.3 134c.3 119.8.5 135.2 2 146.4 7.9 57.5 24.8 102.7 56.2 150 41.1 62 111.2 122.3 185.8 159.6 30.2 15.2 33.2 15.8 47.5 9.5 59.4-26.1 121.1-70.4 165.5-118.6 56.5-61.4 87.3-125.9 96.2-201.5 1.3-10.4 1.5-34.7 1.5-146.1V7.3l-3.9-3.1-4-3.2H7.4zM537.3 19c.3.3.8 57 1.2 126.1.6 91.8.5 126.9-.4 130.5-.6 2.7-2 11.2-3.2 18.9-3.5 24-10.7 51.7-18.6 71.5-.6 1.4-2 5.3-3.2 8.8-1.2 3.4-4.4 11-7.1 16.8-2.8 5.8-5 10.7-5 10.9s-3.4 6.1-7.6 13.2c-18.7 31.4-48.7 68.6-70.3 87.1-35.1 30-50.2 40.9-91.8 65.8-12.8 7.6-41.3 21.6-48.5 23.8-5.6 1.7-6.4 1.4-37.8-14.1-18.3-9.1-28-14.7-44.3-25.6-23.3-15.5-34.6-23.9-45.7-33.9-4.1-3.7-7.8-6.8-8.2-6.8-2.2 0-37.1-35.1-47.5-47.8C86.4 448.5 77 435.8 77 434.1c0-.6-1.3-2.6-3-4.4-1.6-1.9-3-3.7-3-4s-1.3-2.6-2.9-5c-3.8-5.5-9-14.9-14.2-25.7-2.3-4.7-4.6-9.3-5-10.2-.5-1-.9-2.3-.9-3 0-.6-.6-1.9-1.3-2.7C43.8 375.8 32 342.6 32 338c0-1.4-.4-3-1-3.6-1.1-1.1-5.1-17-7.4-29.4-5-27.4-5-25.3-5.3-159-.2-69-.1-126 .2-126.8.4-1.1 43.8-1.3 259.4-1 142.4.2 259.2.5 259.4.8"/><path fill="#fff" d="M209.3 64.2c24.5 59.8 35.1 103.2 40.2 165.1l.7 7.8-8.4-.6c-57.6-4.2-113-15.8-160.1-33.6-7.2-2.7-13.4-4.9-13.9-4.9-.4 0-.8 29.2-.8 65v64.9l6.8-2.6c53-20.2 112.3-33.2 163-35.9l13.2-.7-.5 6.9c-2.7 32-7.5 61.9-14 87.4-4.4 17-10.8 39.4-12.6 43.5-1.6 3.8-5.1 13-5.5 14.5-.2.8-1.9 5.4-3.9 10.2-1.9 4.8-3.5 9.2-3.5 9.8 0 .7 21 1 63.3 1.1 34.7 0 65.1.1 67.5.2 2.3.1 4.2-.2 4.2-.7 0-.4-1.8-4.9-4.1-9.9-2.3-5.1-4.2-9.9-4.4-10.7-.2-.9-1.1-3.4-2-5.6-.9-2.1-2.7-7.1-4-10.9-14.2-42.8-22.6-84.9-25.9-129.4l-.4-6.4 12.3.7c20.1 1 49.8 5.1 78 10.6 22.4 4.4 63 16.2 83.8 24.4l8.7 3.4v-64.9c0-45.8-.3-64.9-1.1-64.9-.6 0-3.8 1.1-7.2 2.4-10.8 4.2-39.8 13.8-50.7 16.8-36.1 9.8-83.2 17.5-117 19l-6.5.3.3-7.5c1.3-30.4 9.7-76.4 20.7-112.5 3.2-10.6 13.6-39.5 18-49.8L345 63h-68.1c-54.1 0-68 .3-67.6 1.2"/></svg>