<svg xmlns="http://www.w3.org/2000/svg" width="400" height="200" viewBox="-4.113 0.835 45.999 23"><path fill="#fff" fill-rule="evenodd" d="M20.772.858c-.09.003-.301.022-.47.042-.165.016-.456.042-.644.052-.536.03-2.15.186-2.463.238-.106.017-.347.05-.54.07a4 4 0 0 0-.37.051c-.013.01-.201.036-.413.062-.214.026-.492.069-.621.095a37 37 0 0 1-.579.114c-.191.036-.466.092-.611.118-.146.03-.38.075-.523.098a2 2 0 0 0-.313.078 2 2 0 0 1-.282.066c-.122.02-.264.052-.31.071-.05.02-.195.056-.324.079a15 15 0 0 0-1.091.294l-.446.13c-.324.095-.599.186-1.058.343-.265.091-.533.183-.595.202a.6.6 0 0 0-.15.06 1 1 0 0 1-.164.074 15 15 0 0 0-.86.346c-.44.21-1.114.546-1.256.627-.09.05-.208.115-.265.144a2 2 0 0 0-.162.091c-.036.02-.145.088-.24.147-.196.118-.186.101-.239.585-.04.379-.066.434-.251.561l-.397.268c-.145.098-.33.225-.41.284-.142.101-.31.137-.35.075-.01-.016-.066-.039-.126-.052a3 3 0 0 1-.344-.105c-.132-.045-.257-.075-.284-.065-.036.013-.423.549-.618.856-.026.042-.149.222-.268.398a7 7 0 0 0-.32.516c-.268.516-.248.421-.305 1.42-.02.333-.043.67-.05.751-.006.082-.022.434-.032.784-.01.349-.027.738-.033.865a99 99 0 0 0-.133 2.498c-.01.313-.033.728-.05.92-.016.193-.045.768-.065 1.274-.02.51-.05 1.143-.066 1.414-.02.267-.04.6-.05.734s-.033.663-.05 1.172c-.02.51-.04.937-.046.947s-.023.255-.033.542c-.033.823-.036.833-.228.878a.7.7 0 0 0-.241.17c-.142.147-.146.157-.146.36 0 .16.01.208.047.208.026 0 .079.043.115.095.11.15.33.222.813.265.238.02.49.048.562.065.073.016.357.046.629.065.274.02.71.056.975.082.264.023.664.055.892.065s.585.033.794.049c.611.049.843.062 1.405.082.29.01.79.032 1.107.049.985.052 2.126.094 3.091.114.51.01 1.448.036 2.083.055 1.93.066 14.347.046 14.46-.02.01-.006.6-.022 1.308-.032 1.461-.026 3.306-.078 3.504-.101.073-.01.691-.04 1.372-.065a46 46 0 0 0 1.29-.066c.026-.006.294-.029.595-.049.595-.042.628-.052.836-.267.116-.124.122-.144.122-.34 0-.134-.013-.209-.036-.209-.02 0-.096-.059-.169-.127a.56.56 0 0 0-.228-.15c-.053-.013-.109-.046-.125-.076-.017-.032-.034-.277-.034-.545a17 17 0 0 0-.02-.67 73 73 0 0 1-.098-2.497c-.01-.43-.027-.878-.034-.996a88 88 0 0 1-.115-2.416c-.05-1.515-.179-2.037-.612-2.465-.112-.11-.486-.343-.552-.343a.5.5 0 0 1-.135-.046 6 6 0 0 0-.734-.244 4 4 0 0 1-.298-.085c-.32-.101-.73-.216-1.421-.395a20 20 0 0 1-.523-.147 1.2 1.2 0 0 0-.244-.062c-.03 0-.152-.03-.271-.062a17 17 0 0 0-.83-.22 31 31 0 0 1-.81-.205 7 7 0 0 0-.397-.101c-.089-.023-.221-.059-.29-.075a.3.3 0 0 0-.232.006c-.208.082-.228.079-.466-.11-.258-.203-.271-.206-.846-.147-.55.058-1.095.094-1.144.075-.05-.02-.179-.239-.179-.307a.5.5 0 0 0-.05-.137 5 5 0 0 1-.102-.252c-.132-.362-.165-.444-.188-.48a2 2 0 0 1-.086-.212 10 10 0 0 0-.136-.353 9 9 0 0 1-.135-.352 2 2 0 0 0-.086-.213 1.4 1.4 0 0 1-.08-.186c-.03-.081-.089-.251-.135-.375-.08-.212-.086-.28-.106-1.029-.013-.44-.036-.943-.053-1.123-.023-.284-.036-.33-.119-.414-.05-.053-.112-.095-.139-.095a.8.8 0 0 1-.185-.062 8 8 0 0 0-.29-.13c-.17-.07-.192-.102-.751-.95-.162-.243-.436-.664-.615-.931a190 190 0 0 1-.86-1.306 4 4 0 0 1-.175-.324 5 5 0 0 0-.191-.352l-.08-.124-.274.006c-.149.003-.344.01-.436.017m.925 5.22c.427.06.939.444 1.16.872.176.343.186.425.199 1.884.006.793 0 1.375-.02 1.404-.023.036-.205.055-.883.088-1.497.069-2.476.088-2.502.05-.013-.02-.023-.657-.02-1.418 0-1.525.013-1.636.205-2.018.228-.444.75-.813 1.243-.878.218-.03.29-.026.618.016m-4.952.549c.483.127.946.672 1.035 1.221.016.098.033.721.036 1.388.003 1.058-.003 1.214-.05 1.247-.026.023-.35.055-.753.078-.387.023-.777.053-.87.069a7 7 0 0 1-.495.046c-.182.012-.4.029-.483.039-.102.013-.162.003-.179-.02-.013-.023-.023-.65-.02-1.4.007-1.274.01-1.372.077-1.584.086-.281.188-.464.38-.673.367-.405.816-.545 1.322-.411m-4.149.552c.33.147.589.47.74.937.08.245.08.248.074 1.534l-.01 1.29-.232.036c-.44.072-.86.144-1.206.212-.192.036-.42.082-.506.098-.268.049-.314.043-.337-.062-.01-.052-.01-.722 0-1.489.016-1.387.016-1.4.102-1.639.11-.313.218-.503.397-.686.287-.29.648-.375.978-.231M8.94 8.246c.149.092.35.34.443.539.172.375.202.61.222 1.74.013.807.01 1.061-.024 1.1-.046.056-.228.112-.81.245-.234.056-.499.121-.585.15a.8.8 0 0 1-.264.04l-.11-.01v-1.273c0-1.12.007-1.306.064-1.548a1.7 1.7 0 0 1 .102-.343 1 1 0 0 0 .066-.15c.033-.108.271-.395.397-.483a.5.5 0 0 1 .5-.007M5.824 9.52c.122.094.248.336.344.653.082.27.086.303.089 1.306l.003 1.028-.116.052a5 5 0 0 1-.628.216 1 1 0 0 0-.221.082c-.02.016-.08.026-.132.02l-.093-.01-.01-.866c-.003-.477.007-1.041.023-1.257.03-.392.133-.833.222-.934a.16.16 0 0 0 .046-.094c0-.069.228-.262.31-.262a.3.3 0 0 1 .163.066m-2.347 1.724c.05.049.089.11.089.13a.5.5 0 0 0 .063.163c.086.17.168.755.191 1.349l.02.513-.129.078a1 1 0 0 1-.211.104 4 4 0 0 0-.32.124c-.341.144-.341.144-.338-.476.003-.918.08-1.499.245-1.839.125-.257.24-.3.39-.146m18.324 1.048c.515.17.856.49 1.09 1.015l.096.212.01 1.688c.01 1.202 0 1.705-.026 1.754-.036.068-.043.068-1.696.062l-1.66-.01-.01-1.711c-.006-1.659-.006-1.72.06-1.91.04-.108.11-.261.159-.343.092-.16.515-.59.575-.59.02 0 .063-.02.09-.046.059-.05.35-.148.548-.187s.542-.01.764.066m4.495.006c.126.04.252.088.282.115a.16.16 0 0 0 .082.045c.04 0 .337.307.43.441.036.052.086.15.112.212a1 1 0 0 0 .07.147c.076.105.096.523.096 2.096v1.675l-.073.017c-.043.01-.678.013-1.415.01l-1.339-.01-.01-1.74c-.006-1.49 0-1.754.043-1.855a.7.7 0 0 0 .05-.163c0-.098.155-.366.344-.585.221-.264.634-.464.965-.47.076-.003.241.026.363.065m-9.46.29c.27.118.515.344.68.621.255.431.248.376.248 2.204v1.633l-.562.02c-1.405.051-2.228.061-2.248.025-.013-.02-.02-.777-.02-1.681l.007-1.65.086-.234c.05-.13.126-.294.169-.366a1.75 1.75 0 0 1 .634-.565c.189-.088.252-.1.503-.1.248-.004.314.009.502.094m-4.206.54c.318.176.569.545.691 1.008.053.206.06.389.063 1.626.003.768-.003 1.408-.013 1.424s-.185.04-.39.052c-.205.013-.48.036-.612.052-.45.056-1.253.079-1.282.036-.014-.023-.024-.682-.02-1.466.003-1.146.013-1.472.056-1.668.026-.137.063-.261.076-.28a.3.3 0 0 0 .053-.115c.082-.284.446-.647.76-.758.136-.049.456-.003.618.089m18.414 0c.317.176.568.551.697 1.041.063.242.07.35.073 1.244v.98l-.198-.01a7 7 0 0 1-.596-.069 30 30 0 0 0-1.117-.157c-.162-.022-.231-.114-.3-.391-.034-.124-.073-.275-.093-.337-.056-.166-.037-.946.03-1.24.122-.572.452-.996.885-1.15.136-.049.457-.003.619.089m-22.096.79c.274.199.486.643.555 1.165.063.464.063 2.348.003 2.4-.05.04-.605.118-1.064.15a5 5 0 0 0-.443.053c-.245.052-.235.114-.235-1.306 0-1.182.004-1.284.07-1.542.04-.15.119-.369.178-.486.113-.219.347-.47.463-.5.129-.036.384 0 .473.066m25.47-.043c.222.095.434.389.576.8.083.245.083.261.1 1.545.01.715.006 1.338-.004 1.384-.023.088-.023.088-.261.065l-.585-.052q-.804-.075-.883-.134c-.036-.033-.043-.225-.04-1.07.007-1.186.027-1.467.133-1.784.079-.235.257-.532.396-.66a.53.53 0 0 1 .569-.094m-28.624.84c.103.081.317.483.317.594 0 .045.024.143.053.222.08.205.09 2.308.014 2.35-.083.043-.764.14-.976.144h-.198v-1.028c0-1.225.046-1.59.238-1.986.179-.359.354-.45.552-.297m-2.33.865c.115.146.234.577.264.973.016.199.026.669.023 1.048l-.003.685-.083.023-.406.092c-.483.1-.453.146-.453-.712.003-.921.04-1.434.132-1.737.155-.506.324-.627.525-.372m23.034 3.372q.485.24.757.853l.096.212.017 1.257c.01.692.01 1.29.003 1.332-.007.04-.036.088-.07.104-.059.033-2.733.053-2.766.023-.01-.01-.014-.59-.014-1.286.007-1.234.01-1.277.086-1.518.162-.53.622-.993 1.058-1.075.261-.049.625-.006.833.098m-9.785.02c.33.095.661.372.83.695.221.428.221.415.221 1.819v1.273l-1.372.007c-.753.006-1.391-.003-1.418-.02-.07-.042-.053-2.5.017-2.693l.08-.22c.042-.136.244-.427.382-.554a1.33 1.33 0 0 1 .606-.327c.234-.062.383-.055.654.02m5.028.003c.615.154 1.154.745 1.233 1.349.047.349.037 2.367-.01 2.413-.053.052-3.315.055-3.348.003-.014-.017-.02-.578-.017-1.247.003-1.205.003-1.218.086-1.44.208-.568.674-.983 1.236-1.094l.248-.05c.093-.019.364.01.572.066m8.784.239c.433.228.71.708.777 1.338.04.412.042 1.96.003 2.025-.027.039-.235.052-1.134.071-1.018.026-1.104.023-1.144-.029-.036-.046-.043-.271-.03-1.15.014-1.054.017-1.1.096-1.322.199-.571.447-.852.886-1.009.1-.035.42.007.546.076m-17.95.045c.198.095.472.379.594.614.047.091.113.28.149.425.063.235.066.342.06 1.341l-.01 1.088-.364.003c-.198 0-.698-.01-1.108-.026-.571-.02-.753-.04-.79-.075-.066-.066-.052-1.904.017-2.26.1-.522.443-.999.82-1.136a.75.75 0 0 1 .631.026m21.824.124c.225.082.453.402.588.813.09.271.093.3.11 1.244.013.924.013.97-.047 1.003-.036.016-.327.039-.651.049-.512.013-.595.01-.648-.04-.036-.029-.142-.199-.238-.378l-.178-.327-.004-.424c-.01-.914.09-1.3.443-1.74.169-.21.4-.285.625-.2m-25.474.147c.195.121.297.265.476.68.102.238.152.796.142 1.619l-.01.767-.84-.006c-.568-.007-.853-.02-.882-.046-.037-.03-.047-.206-.043-.908 0-.477.013-.934.03-1.015.095-.477.22-.745.465-.986.229-.226.417-.258.662-.105m-3.118.278c.14.14.252.379.34.731.07.268.077.372.077 1.11l.003.817h-.248c-.466-.004-.89-.053-.949-.108-.046-.046-.05-.134-.033-.725.01-.395.04-.797.073-.98.093-.519.347-.946.562-.946.04 0 .12.045.175.1m-2.327.336c.172.29.241.65.271 1.427.02.555.017.607-.036.663-.043.039-.09.052-.156.039-.05-.01-.215-.03-.367-.04-.396-.032-.386-.022-.386-.398.003-.813.105-1.426.284-1.707.126-.2.264-.193.39.016"/></svg>