<svg xmlns="http://www.w3.org/2000/svg" width="400" height="200" viewBox="-269.128 -6.564 1050.256 525.128"><path fill="#fff" d="M0 0v512h512V0zm482 482H30V30h452z"/><path fill="#fff" d="m185.264 451.425 13.195-20.246 13.195 20.246h89.059l13.012-19.966 13.012 19.966h89.059l13.723-21.057-43.252-97.998v-35.319h-30v35.319l-42.542 96.388-42.542-96.388v-35.319h-30v35.319l-42.724 96.801-42.724-96.801v-35.319h-30v35.319l-43.252 97.998 13.723 21.057zm186.002-78.743 21.513 48.743h-43.026zm-115.084 0 21.513 48.743h-43.026zm-115.447 0 21.513 48.743h-43.026zm260.456-109.04 21.057-13.723V74.297l-21.057-13.723-97.998 43.252H89.752v30h213.441l64.078 28.281-64.078 28.281H89.752v30h213.441zm-57.686-144.815 48.743-21.513v43.026zm48.743 65.049v43.026l-48.743-21.513z"/></svg>