<svg xmlns="http://www.w3.org/2000/svg" width="400" height="200" viewBox="-128.848 4.605 1324.699 662.35"><path fill="#fff" d="M121 5c-6.8.6-12.1 2.2-20 6.4-1.4.7-4.9 1.6-7.7 1.9-2.9.3-6.5 1.5-8 2.5-2 1.4-5.2 2.2-11.3 2.6-4.7.3-11 1.2-14.1 2s-9.9 1.8-15.2 2.1c-5.2.3-12.1 1-15.2 1.5-3.2.5-6.1.8-6.4.6-.4-.3-4.2 0-8.6.5-7.2.8-8.1.7-9.7-1.1-1.1-1.1-2.5-2-3.3-2C.2 22 0 26 0 49.5 0 68.1.3 77 1.1 77 2.5 77 5 83.3 5 87.2c0 1.8 1.1 6.4 2.5 10.3 1.8 5.2 2.5 9.1 2.5 15.1 0 4.4.7 10.3 1.5 13 1.9 6 6.5 37.1 6.5 43.6 0 2.6 1.1 9.6 2.4 15.5 1.9 8.2 2.6 14.9 3 27.3.2 9.1 1.1 20.3 2 25 2.4 13.1 5.3 56.4 6.2 92.5.2 11.5.7 28.6.9 38 .2 9.3.8 19.5 1.2 22.5.7 5 1 5.5 3.3 5.5 2.2 0 2.5-.5 2.8-3.7.3-3.3-.1-3.9-2.8-5.3-2.9-1.5-3.1-1.9-2.8-6.8l.3-5.2 8.1-.3c7.1-.2 8.4-.6 10.4-2.7 1.9-2 3.3-2.5 7.1-2.5 3.6 0 5-.5 6-2.1 1.3-1.8 2.5-2 11.9-2.2 9.3-.2 10.9-.5 13.4-2.5 2.2-1.7 4.2-2.2 8.5-2.2 4.4 0 5.9-.4 6.8-1.9 1.2-2 8-3.4 14.8-3.1 2.2 0 11.4.2 20.3.3 15.5.2 16.5.3 18.1 2.4 1.5 1.8 3.2 2.2 10.7 2.7 11.2.7 13.9.7 24.2 0 6.7-.4 8.4-.9 9.2-2.5 1.4-2.5 3.7-2.4 5.2.1 1 1.6 2.4 2 6.3 2 4.1 0 5.3.4 7 2.6l2 2.6 2.8-2.6 2.7-2.5 38.9-.1 38.9-.1 3 2.6 3 2.5h44.9c43.7 0 44.8 0 46.1 2 .9 1.6 2.3 2 6 2 3.9 0 5.3.5 7.2 2.5 2.1 2.2 3.2 2.5 9.2 2.5 6.1 0 6.9-.2 8.4-2.5 1.6-2.4 2-2.5 12.1-2.5 9.9 0 10.7-.2 13.6-2.6l3.1-2.6 2.3 2.6c2.5 2.9 7.7 3.6 8.7 1.1.3-.8 1.4-1.5 2.5-1.5 1 0 2.1.7 2.5 1.5.4 1.3 3.4 1.5 18.3 1.5 9.8 0 19.2.4 20.8.8 3.8 1 65.5-1.3 71.5-2.7 11.7-2.7 14-2.9 21.1-2.4 7.4.6 7.8.5 10-2.1 2-2.4 2.9-2.6 9.5-2.6 6.4 0 7.3.2 8.7 2.4 1.5 2.3 1.7 2.3 19.9 2.2 17.4-.1 18.5-.2 21.2-2.4 2.6-2 4-2.2 13.6-2.2 10.4 0 10.8.1 12.4 2.5 2.8 4.2 8.6 2.8 8.6-2.1 0-4.1 1.9-4.6 19.2-4.4 9 .1 26.9.1 39.8 0 21.2-.1 23.7-.3 26.5-2s5.4-2 22.5-2.2c18.9-.2 19.3-.2 20.8 2 1.2 1.8 2.4 2.2 7.1 2.2 3.8 0 6.6.6 8.9 2 2.7 1.7 5 2 14.5 2 10.9 0 11.4.1 13.8 2.6 2.1 2.2 3 2.5 6.8 2.1 2.5-.3 6.4.1 8.7.8s5.4 1 6.9.8c1.5-.3 3.3.1 4.3.9 1.2 1.1 5 1.7 12.4 2.1 7.5.4 11.4 1.1 13.2 2.3 2.3 1.4 5.9 1.6 27.4 1.6h24.7l2.6 2.4c2.2 2.1 2.8 2.2 3.7 1.1 1.4-1.6-1-9.8-3.4-11.8-.9-.7-1.4-3-1.4-6.1 0-3.4-.6-5.9-2-7.7-2.8-4-7-17.6-7-22.8 0-5-1.4-8.3-3.5-8.3-1.7 0-2 2.6-.5 3.5 4 2.4-3.8 9.1-9.2 8-3.5-.8-12.8-1.4-35.9-2.3-14.3-.6-18-1-19.5-2.3-1.3-1.2-4.3-1.8-9.6-2.1-5.3-.2-8.2-.8-9.5-2-1-.9-3.4-1.7-5.3-1.7-9.3-.1-16.6-1.4-18.5-3.1-1.8-1.7-4.4-1.9-25.2-2.2-22.6-.3-23.2-.4-26.4-2.7-3-2.3-3.7-2.4-14-1.8-6.9.3-11.8 1.1-13.8 2.1-2.7 1.4-11.3 1.7-67.8 2.3-57.8.5-65 .7-66.7 2.2-1.5 1.4-5.3 1.6-24.9 1.9-22 .3-23.2.2-25.8-1.7-4-3-16.7-3-19.4-.1-1.7 1.9-3.1 2-31.2 2-19.8 0-30.1.4-31.5 1.1-3.3 1.7-40.7 4.7-45.2 3.5-2.1-.5-2.6-1.2-2.6-3.8 0-1.7-1-4.7-2.2-6.6-2-3.3-2.2-4.7-2-21 .1-14.8.4-17.7 1.8-19.3 2.5-2.8 5.2-3.3 8-1.4 2 1.3 5 1.6 14 1.6 6.3 0 11.9-.3 12.5-.6 1.2-.8 9.1-1.4 29.9-2.1 14-.6 16.9-.9 18.9-2.5 2.2-1.8 4.9-1.9 48.7-1.9h46.2l3.1-2.6 3.1-2.6 38.3.4c37.7.3 38.2.3 41.2 2.5l3 2.3h55.2c52 .1 55.3.2 57.5 2 2 1.5 4.6 1.9 16.8 2.2 13 .3 14.9.5 18.2 2.6 3.4 2.1 4.6 2.2 16.2 2 11.6-.3 12.6-.1 14.8 1.9 2.1 2 3.6 2.2 19.8 2.8 9.6.3 19.1.6 21.1.6 2.9 0 4.4.8 7.5 3.9 5.2 5.3 6.9 5.3 6-.2-.4-2.3-1.6-5.6-2.7-7.4-2.6-4.3-3-24.8-.5-28.6 1.9-2.9 3.3-20.8 1.7-20.8-.7 0-1.1 2.3-1.1 5.4 0 6.2-.5 6.6-8.4 6.6-4 0-5.7-.5-7-1.9-1.6-1.8-3.5-2-21-2.3-18.1-.3-19.3-.4-22-2.6-2.2-1.7-4.2-2.2-8.8-2.2-3.9 0-7.2-.7-9.8-2-2.5-1.3-5.9-2-9.5-2-3.1 0-8.3-.9-11.8-2.2-6-2.1-7.7-2.1-60.2-2.3s-54.1-.2-57.3 1.8c-2.8 1.6-4.5 1.9-10 1.4-3.7-.3-8.5-1.3-10.7-2.3-3.1-1.3-5.7-1.5-12-1.1-4.4.4-17.4.1-29-.4-11.5-.6-22.9-1.2-25.1-1.3-2.3-.1-4.9-.8-5.8-1.5-2.2-1.8-19.8-.7-25.9 1.6-3.6 1.4-8.9 1.6-36.7 1.5-27.2-.2-33 0-35.4 1.3-3.7 2-13.3 3.5-22.1 3.5-5.3 0-7.7.5-10 2-2.8 1.9-4.7 2-31.2 2-20.1 0-28.4-.3-28.9-1.1-.4-.7-.6-4.7-.6-9 .2-6.9-.1-8.1-2.3-10.7-2.4-2.8-2.5-3.6-2.5-15.1 0-9.9-.3-12.3-1.5-12.7-2.2-.9-1.8-2.9 1.1-6.1l2.6-2.8 27.6.3c25.2.4 28 .6 30.8 2.3 4.2 2.5 6.3 2.4 10.4-.6 3.3-2.4 3.8-2.5 20.6-2.5 14.4 0 18.3.3 23.6 2 7.8 2.5 16 2.6 19.4.3 1.8-1.1 5.5-1.8 11.3-2.1 7-.4 8.9-.8 9.9-2.4 1.3-1.8 3.9-1.8 68.2-1.8 63.2.1 67 .2 69.2 1.9 1.7 1.4 4.5 2 11 2.2 7.1.3 9 .8 11 2.5 1.3 1.2 4.3 2.5 6.8 2.9 6.5 1 28.3 1 52.2 0 19.4-.8 20.8-.7 23.5 1.1 2.4 1.6 5.3 2 20.3 2.4 14.9.4 17.9.8 20.3 2.4 2.7 1.8 5.1 2.1 27.5 2.8 6.5.2 8.6.6 9.9 2 2.1 2.3 3.8 2.3 7.3-.2 2.2-1.6 4.7-2 13.6-2.2l10.9-.3.6-16.5c.4-9.1 1.1-18.1 1.8-20 .6-1.9 1.1-4.3 1.1-5.3 0-2.8-3.3-1.7-4 1.3-.8 3.5-4.4 5-12.6 5-5.7 0-7.4-.4-8.8-1.9s-3.6-2-10.4-2.4c-12.9-.8-15-1.2-17.1-3.1-1.4-1.3-3.6-1.6-9.9-1.5-6.5.1-8.7-.2-10.9-1.7-2.6-1.8-6-1.9-45.3-2.5-23.4-.4-43.2-.7-44-.7-.8-.1-10.7.2-21.9.4l-20.3.6-2.9-2.8c-2.7-2.6-3.1-2.7-10.8-2-7.4.6-8.1.5-10.8-1.8-2.4-2-4.1-2.4-11.5-2.7-6.1-.3-9.1-.9-10.4-2-2-1.7-14.3-3.4-22-3.1-3 .1-4.6-.3-5.9-1.8-1.7-1.9-3.1-2-22.3-2-20.3 0-20.5 0-22.7 2.4-2.1 2.3-2.8 2.4-13 2.2-7.7-.1-11.6.3-13.4 1.2-1.4.8-3.7 1.7-5.1 2s-22.5.8-47 1.1c-41.5.6-44.8.7-47.5 2.5-2.6 1.7-5.1 1.9-30.2 1.9-26.6 0-27.4 0-29.6-2.1-1.3-1.2-3.4-2.2-4.7-2.2-1.6 0-3.7-1.4-5.7-3.7-3-3.4-3.3-4.2-3.3-10.4 0-6.1-.2-6.8-2.6-8.4-2.6-1.7-2.6-2-2.1-8.6.6-6.5.5-7-1.9-8.5-2.1-1.4-2.4-2.4-2.4-7.5 0-5.4.2-5.9 2.4-6.5 3-.7 6.3.2 9.5 2.7 2.3 1.8 5.5 1.9 67.3 1.9h65l3-2.5c2.8-2.4 3.4-2.5 10.9-1.9 6.1.5 8.3.4 10.1-.8 4.1-2.7 8.9-3.1 41.7-3.5l32.3-.4 2.3 2.5c1.9 2.1 2.9 2.4 6.3 1.9 3.5-.5 4.4-.2 6.5 2.1 2.2 2.3 3.2 2.6 9.4 2.6 6.1 0 7.2.3 9.3 2.5 2.2 2.3 3 2.5 8.6 2.1 5.6-.3 6.5-.1 8.5 2l2.2 2.4h27.2c26.4 0 27.4-.1 34.3-2.5 3.9-1.4 9.1-2.5 11.5-2.5 3.1 0 4.9-.6 6.2-2 1.7-1.9 3.1-2 21.5-2 17.9 0 19.8.2 21.4 1.9 1.2 1.3 3.6 2 8.8 2.4s7.7 1.2 9.3 2.7c2 1.8 3.4 2 17.7 2 14 0 15.7.2 17.2 1.9 1 1.1 3.8 2.2 6.7 2.6 2.7.4 5.9 1.5 7.1 2.4 1.4 1.1 5.1 2.1 9.3 2.5 3.8.4 7.7 1.4 8.6 2.2 1.2 1 4.4 1.4 13 1.4h11.5l3.5 3.6 3.4 3.5.2 11.4c.1 12 .9 16.3 2.4 14.8 2-2 3.7-57 1.9-60.3-.6-1.1-3.1-3-5.5-4.1s-5.6-3.3-7.2-4.7c-2.7-2.6-5.8-4.6-11.3-7.3-1.4-.7-3.3-1.9-4.3-2.8-1.2-1-5.6-1.6-15.5-2.1-11.9-.5-14.2-.9-17.5-3-3.5-2-5.2-2.3-17.5-2.5-14.1-.2-28-2.8-32.6-6.1-1.4-1-4.9-1.4-11.6-1.4-6.4 0-12.1-.7-17.1-2-9.3-2.5-10.6-2.5-17.6 0-3.2 1.1-7.7 2-10.1 2-2.6 0-5.8.8-7.6 1.9-4.7 2.9-24.8 4.8-34.9 3.3-4.3-.7-13.1-1.2-19.5-1.2-9.9 0-12.2-.3-15-2-1.8-1.1-5-2-7.3-2s-6.1-1.1-8.9-2.5c-4.4-2.2-6.2-2.5-15.8-2.5-11.3 0-20.3-2.2-29.3-7-2-1.1-5.4-2-7.5-2-2.2 0-5.7-.5-7.8-1-2.4-.5-12.5-.5-26 .2-19.7.9-22.7 1.3-27.8 3.4-3.2 1.3-6.8 2.4-8 2.4-1.3 0-5.6.9-9.6 2-3.9 1.1-9 2-11.3 2-2.5 0-5.7.9-8.4 2.6l-4.4 2.5-21.4-.3c-17.2-.2-21.8-.6-23.2-1.8-1.3-1.1-4.6-1.5-11.9-1.7-13.2-.2-24.4-1.6-28.3-3.7-1.8-.9-3.9-1.6-4.8-1.6s-3.5-1-5.8-2.1c-4.1-2.2-4.1-2.2-13.4-.3l-9.3 1.8-5.2-2.2c-3-1.2-7.1-2.2-9.2-2.2s-5.3-.9-7-1.9-5.1-2.2-7.6-2.6-5.7-1.4-7.2-2.1c-1.5-.8-5-1.4-7.7-1.4-2.8 0-7.7-.9-10.8-1.9-6.1-2.1-21.2-4.2-24.1-3.4-1.8.4-18.2-4.6-23.3-7.2-4.5-2.4-26.3-2.1-30.9.4-8.1 4.3-13.4 5-42.4 5.5-16.3.3-31.9.1-37.5-.5-5.3-.5-25.9-1.4-45.8-1.8-31.3-.7-36.6-1.1-38.8-2.5-3.7-2.4-20-3.7-33.5-2.6m139.4 43.8c6.3-.7 8.1 1.3 4.2 4.9-2.5 2.3-2.7 2.9-2.1 7.8.9 6.7-.5 9.5-4.5 9.5-1.9 0-3.4-.7-4.2-2-1.6-2.6-3.4-2.5-4.8.1-.9 1.6-1.9 1.9-4.8 1.7l-3.7-.3-.3-7.4c-.3-6.7-.1-7.7 2-9.6 1.3-1.2 3.8-3.9 5.7-6l3.4-3.8 2.3 2.8c2 2.5 2.7 2.7 6.8 2.3m-66.9 4.6c3.8 4.1 4.7 4.5 9.6 4.8l5.4.3.3 3.7c.2 2.9-.1 3.9-1.7 4.8-1.8.9-2.1 2-2.1 8 0 10-3.5 12.8-9.2 7.3l-2.8-2.7-3 2.3c-2.3 1.6-4.2 2.1-7.3 1.9-4.1-.3-4.2-.4-4.5-4.3-.4-6.8-1.1-8.2-4.7-10.4-3.8-2.2-5.7-5.7-4.8-8.9.4-1.8 1.4-2.2 6.6-2.4 5.3-.3 6.2-.6 6.5-2.3.9-6.1 1.2-6.5 4.4-6.5 2.4 0 4.1 1 7.3 4.4m117.4-3c.6.7.9 2.1.5 3-.9 2.2 1.3 4.6 4.3 4.6 2.7 0 9.3 5.8 9.3 8.3 0 .9-1 2.5-2.2 3.6-1.1 1.1-2.4 3.7-2.7 5.8l-.6 3.8h-21l-.3-3c-.2-1.7-1.4-4-2.8-5.3-1.8-1.7-2.4-3.3-2.4-6.5 0-5.4.8-6.5 5-6.9 2.6-.2 3.6-.8 3.8-2.3.9-6.1 1.2-6.5 4.6-6.5 1.8 0 3.9.6 4.5 1.4M145.5 94.3c4.1 4.2 5.3 6.2 5.8 9.6.5 3.8.2 4.6-3.1 8.2-2.5 2.7-4.4 3.9-6.4 3.9-1.7 0-3.1.7-3.8 2-.9 1.7-2.1 2-6.9 2-7.1 0-8-1.3-4.4-6.3 3-4.2 2.5-6.7-1.4-6.7-3.3-.1-9.3-5.1-9.3-7.8 0-3.4 3.2-5.2 8.8-4.9 4.4.2 5.5-.2 7.9-2.6 4.1-4.1 6.8-3.5 12.8 2.6m219.1 1.2c2.1 3.2 6.6 3.4 8.6.3.9-1.4 2-1.9 3.1-1.5 1.3.5 1.7 2 1.7 6.9 0 8.2-1.1 10-4.2 7.2-1.3-1.2-2.9-1.9-3.5-1.7-2 .7-1.5 3.3.9 5.2 1.7 1.4 2.2 2.9 2.2 6.7.1 5.7-1.8 6.8-6 3.5-1.7-1.3-4.1-2.1-6.5-2.1-2.8 0-4.2-.6-5.1-2-.7-1.1-2.4-2-3.8-2-3.7 0-4.8-1.1-5.2-5-.2-2.6-.8-3.6-2.3-3.8-6.4-.9-6.6-1.1-6.3-5l.3-3.7 5.7-.3c4.7-.2 5.9-.7 7.2-2.7 1.4-2.1 2.4-2.5 6.6-2.5s5.2.4 6.6 2.5m-249.8 47.7c.7.7 1.2 2.4 1.2 4 0 1.7.7 3.1 2 3.8 1.8 1 2 2.1 2 11.5 0 9.7-.1 10.5-1.9 10.5-1.1 0-2.3-.9-2.6-2-.8-2.6-3.1-2.6-4.5.1-.9 1.6-1.9 1.9-4.8 1.7l-3.7-.3-.3-5.7c-.2-4.5-.7-6-2.2-6.8-3.8-2-2.6-6.5 3.3-12.5 5.3-5.4 9-6.8 11.5-4.3m269.7 5.2c1.2.9 2.1 3.1 2.4 6.2.7 5.6 2.9 6.8 6.4 3.6 3.4-3 4.4-3.3 6-1.8 2 2.1 1.1 10.6-1.4 12.6-1.3 1.1-1.9 3.1-2.1 7l-.3 5.5-4 .3c-7 .4-8.5 1.1-10.2 4.8-1.8 3.6-4.2 4.8-8.9 4.2-2.7-.3-2.9-.6-3.2-5.2-.3-3.9.1-5.3 1.9-7.2l2.2-2.4-2.1-2.3c-3.3-3.5-3.1-11.2.3-14.3 1.9-1.8 2.5-3.3 2.5-6.7 0-2.4.3-4.7.7-5 1.2-1.2 7.9-.7 9.8.7M120 207c.6 1.1 1.9 2 2.9 2s2.6-.9 3.6-2c3.7-4 11.5-1 11.5 4.5 0 2.5-1.6 4.5-6.4 7.8-1.5 1-2.6 2.8-2.6 4 0 1.3-1.4 3.3-3.5 5-3.3 2.7-3.9 2.8-13.2 2.5l-9.8-.3-.3-9.7-.3-9.6 3.3-3.1c2.8-2.6 4.1-3.1 8.5-3.1 4.2 0 5.4.4 6.3 2m258 15.8c0 1.9.8 3.5 2.1 4.4 1.7 1.1 2.2 2.4 2.2 6 0 2.5-.3 5-.7 5.7-.4.6-3 1.1-5.8 1.1-4.5 0-5.4-.4-8.4-3.6-3.8-4-4.1-6.2-1.5-11.9 1-2.2 2.1-5.3 2.5-7 .4-1.6 1.3-3.3 1.9-3.7 1.9-1.1 7.7 5.7 7.7 9M150.1 255c.5.8 1.3 2.7 1.9 4.2.9 2.6 1.4 2.8 5.9 2.8 3.9 0 5.3.4 6.1 1.9 1.6 3.1 1.2 4.9-1.5 7.3-2 1.7-2.5 3.1-2.5 6.8 0 5.8-1.2 7-7 7-3.5 0-5.2.5-6.5 2-1.3 1.4-2.9 2-4.9 1.8l-3.1-.3-.5-8c-.5-8.6-.1-8.1-7.7-10.1-1.7-.4-1.7-5.9 0-7.2.7-.6 3.5-1.2 6.2-1.4 4.7-.3 5-.5 5.3-3.3.2-1.7.9-3.6 1.5-4.3 1.3-1.7 5.7-1.2 6.8.8m191.4 17.2c5.2 4.9 5.5 5.5 5.5 9.9 0 4.1-.5 5.2-3.2 7.8-1.8 1.7-4.3 3.1-5.6 3.1-1.2 0-3.2 1.1-4.4 2.5-2.4 2.8-6.9 3.3-8.7 1.1-.7-.8-.9-3-.6-5.2s.2-4.4-.2-4.9c-1.7-2.1-7.3-5.5-9.1-5.5-2.5 0-4.6-2.5-3.9-4.5.9-2.1 5.4-3 8.4-1.6 2.3 1.1 2.8.8 6.6-3.4 5.7-6.1 8.1-6 15.2.7m-129.2 23.6c1.2 1 3 2.2 4 2.5 1.4.5 1.7 1.9 1.7 8 0 4.3-.5 7.8-1.2 8.5s-3.2 1.2-5.7 1.2c-4.1 0-5.1.5-9 4.5-4.5 4.5-7.6 5.6-9.9 3.3-2.1-2.1-1.4-6.6 1.3-8.4 4.4-2.9 3-8.4-2.1-8.4-3.9 0-5.9-2.7-5-6.6.5-1.9 1.3-2.4 3.9-2.4 2.4 0 4-.8 5.6-2.6 2.1-2.5 2.8-2.6 8.3-2.1 3.9.3 6.7 1.2 8.1 2.5m67.7-.3c1.3 1.4 3.4 2.5 4.8 2.5 2.6 0 8.2 5 8.2 7.3 0 .8-.9 1.7-2 2-1.4.4-2 1.4-2 3.3 0 1.8-1.1 4-3.2 6.1-3.1 3.2-3.5 3.3-11 3.3-7 0-7.8-.2-7.8-1.9 0-1 .9-2.1 2-2.4 2.5-.6 2.6-3.5.3-4.4-2.6-.9-3.3-2.3-3.3-6.5 0-2.8.8-4.6 3.7-7.7 4.2-4.8 6.9-5.2 10.3-1.6"/><path fill="#fff" d="M974.1 197.9c-.6 1.1-.7 3.8-.2 7 .9 5.5 1.8 7.3 2.5 5 1-2.8 2.2-11.5 1.8-12.7-.6-1.8-3-1.4-4.1.7m27.5 195c-.3.4.3 1.6 1.4 2.6s2 2.8 2 4.1c0 2.7 1.9 4.2 3 2.3 1-1.5.2-6.8-1.3-8.7-1.1-1.4-4.3-1.6-5.1-.3m-829 5c-1.6 1.7-3.7 2-19.4 2.5-9.7.2-18.6.5-19.7.6-1.1 0-4.1 1.9-6.7 4l-4.7 4h-15.3c-14.9 0-15.5.1-18.8 2.5-1.9 1.4-4.1 2.5-5 2.5s-2.5.9-3.5 2c-1.7 1.9-3.1 2-22.1 2-13.1 0-20.5.4-20.9 1-.8 1.4-.8 51.7 0 53 1.1 1.7 2.2 1.1 3.5-2 1.5-3.5 2.5-3.8 4.2-1 1.6 2.5 3.9 2.5 8 0 2.5-1.5 5.1-2 10.4-2 5.6 0 7.7-.4 9.6-2 1.4-1 4.5-2.2 6.9-2.6 2.5-.4 5-1.5 5.7-2.6.8-1.1 2.5-1.8 4.6-1.8 1.9 0 4.6-1 6.6-2.5 2.9-2.1 4.1-2.4 8.1-1.9 4.3.6 4.8.4 6.4-2 1.5-2.3 2.4-2.6 7-2.6 3.9 0 5.6-.5 7-2 1.6-1.7 3.1-2 11.4-2 8.5 0 9.8.2 10.9 2 1.8 2.9 11.4 2.9 13.3 0 1.4-2.1 2.1-2.1 66.9-2.2 65.4-.1 86.5.4 92.8 2.4 2.6.8 4.6.6 8.5-.6 3.7-1.1 6.1-1.4 8.3-.7 1.9.5 3.7.5 4.8-.1 1-.6 8.2-1 16-1 12.1 0 14.5-.3 17.2-1.9 3.8-2.3 5.7-2.4 9-.2 1.6 1 5.1 1.7 9.4 1.9 5.3.2 7.6.7 9.6 2.3 2.3 1.8 4.1 2.1 11.9 2.1 7.9 0 9.4.3 11 2 2.3 2.5 5.2 2.5 9 0 4.2-2.8 11.1-2.7 14.3.2 2.3 2.2 3.2 2.3 18 2.3 14.6 0 16 .2 19.2 2.2 3 2 4.9 2.3 12.6 2.3 7.6 0 9.6.3 11.7 2 2.5 2 4 2 104.5 2 100.6 0 101.9 0 103.7-2 1.7-1.9 3.1-2 19.5-2 16.9 0 17.9-.1 20.6-2.2 2.6-2.1 3.7-2.3 14.4-2 11 .3 11.6.2 14.9-2.2 3-2.2 4.5-2.6 10.8-2.6 5.1 0 9.3-.7 13.6-2.2 5.9-2.2 7.6-2.3 33.1-2.1 25.6.1 27 .2 29.7 2.2 2.1 1.6 4.3 2.1 9 2.1 5.1 0 6.6.4 9.1 2.5 2.7 2.3 3.5 2.5 9.3 1.9 5.7-.6 7-.4 11.4 2 2.8 1.4 6.7 2.6 8.8 2.6 2.3 0 4.5.7 5.8 2 2.1 2 3.3 2.1 53.9 2.1 28.4 0 52.1-.3 52.6-.6 1.7-1 1.1-4-1.5-7.5-1.4-1.9-2.5-4.1-2.5-4.9 0-.9-.6-2.6-1.3-3.8-6.2-11-7.7-13.9-7.7-15.4 0-1-.4-2-.9-2.3-1.2-.8-6.1-11.2-7.6-16-1.7-5.8-3.2-5.5-4.2.6l-.8 5.3-12.5-.2c-6.9-.1-13.8-.2-15.5-.3-3.8-.2-11.1 1.4-15.1 3.4-1.9 1-6.5 1.7-11.9 1.9-8.2.3-8.9.2-10.8-2s-2.7-2.3-13.8-2.3c-10.5 0-11.9-.2-12.8-1.9-.9-1.6-2.7-1.9-14.6-2.3-12.1-.5-13.9-.8-15.9-2.7s-3.4-2.1-14.3-2.1c-10.8 0-12.2-.2-13.4-1.9-1.3-1.8-3.5-2.1-25.4-3.1-16.9-.8-24.9-.8-26.9-.1-1.5.6-7.1 1.1-12.5 1.1-8.5 0-10 .3-11.6 2-1.7 1.9-3.1 2-21.8 2-19 0-20.2.1-22.3 2.1-1.7 1.6-2.6 1.8-4.1 1.1-1.3-.7-2.5-.7-3.8.1s-11.2 1.4-28.5 1.8c-29.6.8-35.8 1.2-38.8 2.8-1.2.6-7.1 1.1-13.6 1.1-10.5 0-11.7.2-12.8 2-1 1.6-2.4 2-6.8 2s-5.8-.4-6.8-2c-1.1-1.8-2.3-2-12.7-2-10.3 0-11.7-.2-13.2-2-1.3-1.5-3-2-6.5-2-3.9 0-5.2-.5-7-2.5-2.8-3.3-6.8-3.3-9.7.1l-2.2 2.5-52.2-.3-52.3-.3-2.8-2.3c-2.8-2.1-3.6-2.2-22.9-2.2s-20.2-.1-22.4-2.2c-1.9-1.8-3.7-2.2-9.5-2.4-5.9-.2-7.4-.6-8.7-2.3-1.6-2-2.1-2.1-56.8-2.1-53.1-.1-55.2-.2-57.6-2-2.3-1.8-4.2-2-19.6-2-15.8 0-17.4.2-20 2.1s-3.8 2-33.8 1.7c-27.9-.3-31.3-.5-33-2.1-2.5-2.2-4.6-2.2-6.7.2m863.6 71.3c.7 1.9 3.8 2.2 3.8.4 0-1-.9-1.6-2.1-1.6s-1.9.5-1.7 1.2m5.4 5.5c-1.2 1.2-.6 4.3.9 4.3.8 0 1.5-.9 1.5-1.9 0-2.1-1.3-3.4-2.4-2.4m4 10.9c-1.3 3.3-.6 6.2 1.9 7.8 1.7 1.1 2.5 2.6 2.5 4.6q0 3 1.5 3c1.9 0 2-4.7.2-6.9-.8-.9-1.9-3.5-2.6-5.9-1.2-4.4-2.5-5.3-3.5-2.6m-890.5 5.8c-2.3 2.4-3 2.6-12 2.6-7.9 0-10.1.4-12.6 2-1.9 1.3-4.7 2-7.6 2-3.6 0-5.1.5-6.9 2.5-2.1 2.2-2.9 2.4-7 1.9-4.2-.6-4.8-.4-6.3 2-1.6 2.4-2.3 2.6-9.1 2.6s-7.5.2-9 2.5c-1.4 2.2-2.2 2.4-5.4 1.9-2.9-.4-4.5 0-7.5 2-3.6 2.5-4.5 2.6-16.5 2.6-8.6 0-13.2-.4-14-1.2-.7-.7-1.2-3.6-1.2-6.4 0-5.1-1.3-7.5-3-5.8-.5.5-1 14.5-1.2 31.2-.3 28.2-.2 30.2 1.4 30.2 1 0 2.3-.9 3-2 1-1.6 2.4-2 7.1-2 4.4 0 6.5-.5 8.4-2 1.9-1.4 4.1-2 8-2 4 0 7.1-.8 11.9-3.1 5.6-2.7 7.1-3 11.7-2.5 4.6.6 5.6.4 7.2-1.4 1.6-1.7 3-2 11-2 7.5 0 9.7-.4 11.6-1.8 1.7-1.3 4.9-2.1 10.8-2.5 6.6-.5 8.8-1.1 10.3-2.7 1.6-1.7 3.1-2 11.6-2 6.6 0 10.4-.4 11.7-1.4 1.1-.7 3.3-1.6 4.9-2 1.5-.4 25.1-.7 52.3-.7 48 0 49.5.1 52.7 2.1 3.3 2 4.5 2 85.7 2h82.4l4 2.5c2.6 1.6 5.5 2.4 8.4 2.5 2.7 0 5.2.7 6.3 1.7 1.5 1.4 2.2 1.4 4.1.4 2.1-1.1 2.9-.9 6.9 1.8 2.5 1.7 5.4 3.1 6.4 3.1 1.1 0 5 1.4 8.9 3 6.1 2.6 8.1 3 16.7 3 5.4 0 10.6.4 11.6.9 4.6 2.3 9.8 3.1 20.7 3.1 12.6 0 23.8 1.5 27 3.7 1.2.8 5 1.3 10.1 1.3 6.1 0 9.3.5 12.9 2.1 4.6 2 5 2 7.6.5 2.4-1.4 7.2-1.8 29.6-2.2 24.4-.6 27-.8 29.5-2.6 2.3-1.6 5.1-2 15.3-2.5 10.4-.5 12.7-.9 14.1-2.5 1-1 3.1-1.8 4.9-1.8s3.8-.7 4.6-1.6c.8-1 2.2-1.4 4.1-1 1.5.3 4.2-.1 6-.8 2.2-.9 10-1.5 23.5-1.9 16.4-.4 20.7-.8 22.8-2.1 1.4-1 4.5-1.6 7.7-1.6 4 0 5.7-.5 7.5-2.2s3.9-2.3 9.1-2.6c4.4-.3 7.6-1.1 9.4-2.3 2.2-1.6 4.5-1.9 13.3-1.9 9.1 0 11.3-.3 14.1-2 3.1-2 4.4-2.1 37.6-1.7 22.8.3 36 .8 39.3 1.6 2.8.7 9.1 1.6 14 1.9 6.1.5 9.8 1.3 11.5 2.4 1.3 1 3.6 1.8 5.1 1.8 1.4 0 4.7 1.1 7.3 2.5s6.2 2.5 8 2.5 4.5.9 5.9 2c1.8 1.4 4 2 7.9 2 4.5 0 5.9.4 7.8 2.5l2.3 2.5H981c25.8 0 27.9.1 30.2 1.9 2.1 1.7 4.4 2 16.5 2.3 13.1.3 14.3.5 16.5 2.5 1.4 1.3 3.7 2.3 5.2 2.3 1.6 0 4.3 1.3 6.6 3.2 3.1 2.6 3.6 3.6 2.9 5.1-1.1 1.9-.3 5.7 1.1 5.7 1.5 0 2.8-3.4 2-5.4-.4-1.1 0-3.2.8-4.9 1.5-3 1.4-6.3-.7-27.2-.9-9.3-4.8-32.5-5.5-33.3-1.2-1.2-2.6 1.4-2.6 4.7 0 2.1-.5 5.2-1.1 7-1.3 3.6-4.3 4.1-10 1.7-2.6-1.1-8.5-1.4-23.8-1.4-19.2 0-20.4-.1-22.5-2.1-2-1.9-3.5-2.1-13.5-2.1-9.9 0-11.7-.3-14.3-2.1-1.7-1.2-4.9-2.3-7.2-2.5-2.7-.2-4.7-1-5.8-2.3-1.4-1.9-2.7-2.1-11.6-2.1-8.6 0-10.3-.3-12.6-2.1-2.4-1.9-4.2-2.2-15.9-2.4-9.6-.2-14.4-.8-17.7-2-3.4-1.3-8.6-1.9-21-2.2-13.9-.4-17-.8-19.8-2.4-4.3-2.5-20.2-2.8-22.2-.4-1.6 1.9-10.6 1.9-14 0-1.6-.9-5.6-1.4-11.2-1.5-7.7 0-8.9.2-9.8 2-1 1.8-2.1 2-12.8 2-11.1 0-12 .2-15.2 2.5s-4 2.5-10.6 1.9c-6.7-.6-7.2-.5-9.5 1.9-2.4 2.5-2.7 2.5-20.1 2.9-14.9.3-18 .7-19.6 2.1-1.5 1.3-3.8 1.7-10.9 1.7-8 0-9.4.3-12.7 2.5-2.9 2-4.9 2.5-9.6 2.5-4.9 0-6.3.4-8.4 2.5-2.3 2.3-2.9 2.4-10.8 1.8-7.1-.4-9.1-.2-13.8 1.7-5.1 2.1-7.5 2.3-32.5 2.8l-27.1.5-4.9-2.7c-4.2-2.2-6.3-2.6-12.7-2.6-6.7 0-7.9-.3-8.8-2-1-1.8-2.1-2-12.2-2-9.8 0-11.7-.3-16.4-2.5-3.9-1.9-6.6-2.4-10.7-2.2-4.2.1-6-.2-7.6-1.7-1.8-1.7-4.1-1.9-21.2-2.2-18.4-.3-19.2-.4-21.6-2.6-2.1-2-3.5-2.3-10.6-2.4-5.7 0-10.2-.7-14.6-2.2-4.8-1.7-8.8-2.2-15.9-2.2-8 0-10-.3-13-2.2l-3.5-2.2-62.6.2-62.6.1-2.6-2.5-2.6-2.5-33.4.5c-18.4.2-34.3.5-35.4.5-1.1.1-14.1-.2-29-.5l-27-.6zm-9.4 88.6c-1.4 1.1-4.6 2.3-7.1 2.6-2.5.4-5.3 1.5-6.2 2.5-1.4 1.6-3.2 1.9-10.4 1.9-7.4 0-9 .3-10.5 2-1 1.1-3.1 2-4.6 2s-4.1 1.1-5.7 2.5c-2.6 2.2-3.9 2.5-10.5 2.5-6.1 0-7.9.4-10.2 2.2-1.6 1.2-4.7 2.3-7.6 2.6-3 .3-5.5 1.2-6.5 2.3-1.2 1.4-3.1 1.9-6.6 1.9-2.9 0-6.3.8-8.5 2-2.1 1.1-5.2 2-7 2-2.2 0-3.6-.6-4.3-2-.6-1.1-1.7-2-2.5-2s-2-.9-2.8-2.1c-1.3-1.8-1.6-.1-2.2 16.3-1 27.1-1 35.2-.2 36.6 1.2 1.8 8.7 1.5 10.8-.4 1-.9 3.9-2 6.5-2.5s5.5-1.6 6.5-2.5c1.2-1.1 4.1-1.7 8.6-1.9 3.8-.2 8.6-1.1 10.8-2 2.2-1 5.6-2.1 7.5-2.5 10.7-2.4 19.9-4 22.5-4 1.7 0 4.9-1 7-2.2 3-1.6 6.6-2.3 14.5-2.8 5.8-.4 12.1-1.4 14-2.2 5.1-2.3 12.9-3.6 37-6.5 29-3.4 39.4-3.8 50.5-1.9 5 .8 12.8 2 17.5 2.7 9.3 1.3 19.6 4.3 22.1 6.5.8.8 3.3 1.4 5.3 1.4 2.6 0 4.8.8 6.7 2.4 5.6 4.7 28.2 4.7 36.8 0 2.8-1.6 6-2.4 9-2.4 2.6 0 6.2-.8 8.1-1.8 8.6-4.6 29.1-6.6 59.5-5.9 22.9.5 31.6 1.9 37.8 6 1.4.9 4.4 1.7 6.6 1.7 2.8 0 4.8.8 6.9 2.5 1.7 1.4 3.8 2.5 4.8 2.5 1.1 0 3 .9 4.4 2s3.2 2 4.1 2c.8 0 2.6 1.1 3.9 2.5 1.4 1.5 3.5 2.5 5.1 2.5 1.5 0 3 .4 3.4.9.3.6 2.7 2.5 5.3 4.2 4.5 3.1 5.1 3.3 13 3 5.5-.1 9.6-.8 12.5-2.1 2.3-1.1 5.3-2 6.7-2s8.4-1 15.6-2.1c12.9-2.1 13.3-2.1 23-.4 5.5 1 13.1 2.1 16.9 2.5 3.9.4 8.7 1.5 10.7 2.4 2.6 1.1 6.7 1.6 13.2 1.6 8.3 0 10.1.3 14.3 2.6 4.7 2.5 5.1 2.6 21.3 2.2 13.6-.4 17.6-.8 22.7-2.6 4.4-1.6 8.6-2.2 14.3-2.2 5 0 9.1-.5 10.8-1.4 1.5-.8 4.5-1.8 6.6-2.2 2.2-.4 5.4-1.7 7.2-2.9 2.7-1.8 4.9-2.3 10.5-2.4 3.9 0 10.1-.8 13.7-1.6 3.7-.9 10.8-2 15.7-2.6 5-.5 11.5-1.4 14.5-1.9 3-.6 7.6-1.3 10.2-1.6 3.1-.4 5.4-1.5 6.9-3 1.9-2.1 3.2-2.4 8.8-2.4 5 0 7.2-.5 9.1-2 1.4-1.1 3.2-2 4-2s3.2-.6 5.5-1.4c2.2-.8 7.4-2 11.5-2.6 4.1-.7 10.3-2.1 13.8-3.1 5.7-1.8 9.6-2 39.8-2 31.9 0 33.6.1 38.1 2.1 2.7 1.2 7.1 2.4 9.8 2.7 2.8.3 6.6 1.4 8.5 2.5 1.9 1 4.1 1.8 4.8 1.8s3 .9 5.2 2 5.7 2 7.8 2c2.8 0 4.7.7 6.6 2.5 1.7 1.6 3.9 2.5 5.9 2.5 1.8 0 4.6.9 6.2 2 1.7 1.1 3.8 2 4.8 2s3.8 1.2 6.3 2.6c3.1 1.8 5.2 2.4 7.1 2 2.1-.5 3.7 0 6.3 1.9 1.8 1.4 4.3 2.5 5.5 2.5 1.1 0 3.7.9 5.8 2 2.5 1.4 5.6 2 9.9 2 3.5 0 10.1.6 14.8 1.4 8.7 1.4 19 2.6 41.4 4.7 7.7.8 13.4 1.8 14.1 2.6 1.8 1.8 5.2 1.6 5.9-.2.3-.8 1.2-1.5 2.1-1.5 2.4 0 1.8-4.6-.9-7.3-1.4-1.4-2.7-4-3-5.8-.3-1.9-1.2-7.6-2.1-12.7-.8-5.1-1.5-15.4-1.5-23.2 0-13.2-.1-14-1.9-14-2.6 0-3.3 2.6-3 11.8.2 4.3 0 8.3-.5 9-.5.8-3.4 1.2-8.5 1.2-6.7 0-8.2-.3-11.1-2.5-2.6-1.9-4.6-2.5-8.5-2.5s-5.6-.5-7-2c-1.6-1.8-3.1-2-13-2-10.6 0-11.4-.1-13.9-2.5-2.3-2.1-3.7-2.5-9-2.5-4.8 0-6.9-.5-8.9-2-1.6-1.3-4-2-6.9-2-2.4 0-5.2-.6-6.3-1.3-2.4-1.7-7.4-2.9-13.9-3.3-3.2-.2-5.6-1-7-2.3-1.8-1.7-3.5-2.1-9.4-2.1-5.6 0-7.4-.4-8.4-1.8-3.3-4.3-7.9-6.4-15.8-7.1-5.3-.4-8.5-1.2-9.8-2.4-1-.9-2.3-1.7-2.9-1.7s-2.3-1-3.9-2.2c-2.8-2.3-3.2-2.3-40.2-2.6-27.8-.3-37.7 0-38.8.9s-2.1.9-4.5-.1c-2.7-1.1-3.3-1.1-5.9.8-1.6 1.2-4.8 2.5-7.2 2.8-2.4.4-6.1 1.5-8.3 2.5-2.9 1.3-6.5 1.9-12.6 1.9-7.3 0-8.9.3-10.4 2-1 1.1-2.7 2.2-3.9 2.6-1.1.3-2.9 1.4-4 2.3-1.4 1.2-5.2 1.8-17.5 2.3-8.6.4-17.9.9-20.7 1-2.8.2-5.9.9-6.8 1.7-1.2 1-4.8 1.4-12.6 1.5-9.8.1-11.1.3-13.2 2.4-1.7 1.5-3.7 2.2-6.4 2.2-2.2 0-4.4.4-4.9.8-1.9 1.6-9.3 3.2-15.2 3.2-4.7 0-6.6.5-9.3 2.5l-3.4 2.5h-38.7c-38.1 0-38.7 0-41.4-2.2-3.4-2.6-3.2-2.6-48.6-2.8l-36.6-.1-4.3-4.2c-3.7-3.5-4.8-4-8.3-3.8-3.1.1-4.6-.4-6.6-2.3-2.2-2-3.9-2.5-11.1-3-4.7-.3-9.6-.6-10.9-.6-1.4 0-4.5-1.7-7.1-3.9l-4.6-3.9-14.5-.4c-12.9-.3-14.8-.6-18.1-2.7-2.8-1.7-4.5-2.1-6.8-1.6-3 .7-9.2-.4-17.9-3.1-5.8-1.8-17.1-1.8-21.3 0-1.8.8-5.3 1.9-7.8 2.6s-6.5 2-9 3-7.8 2.1-11.8 2.4c-4 .4-8.3 1.2-9.5 2s-3.7 1.7-5.6 2.1c-1.8.4-5.2 1.6-7.5 2.6-5.2 2.4-11 2.4-13.4.1-6-5.7-8.4-6.7-18.7-7.3-5.5-.4-12.9-1.3-16.5-2.2-3.6-.8-10.7-1.9-15.8-2.3-6.7-.5-9.9-1.2-11.6-2.5-2.3-1.8-4.7-1.9-36.4-1.9-32.5 0-34 .1-36.5 2"/></svg>