<svg xmlns="http://www.w3.org/2000/svg" width="400" height="200" fill-rule="evenodd" clip-rule="evenodd" image-rendering="optimizeQuality" shape-rendering="geometricPrecision" text-rendering="geometricPrecision" viewBox="-897.098 -21.869 3500.839 1750.420"><path fill="#fff" d="m1037.01 938.27-88.27-8.19c-8.34-1.47-14.87-8-16.34-16.33-21.69-122.33-.25-223.06 63.76-299.4 125.06-149.19 371.85-150.9 382.29-150.9 11.07 0 20.49 8.93 20.59 20 1.19 148.85-68.52 454.81-362.02 454.81zm-404.25 65.29c-293.54 0-363.2-305.93-362.09-454.8.09-11.05 9.14-20 20.04-20 11.21 0 257.84 1.78 382.86 150.91 63.99 76.32 85.43 177.04 63.74 299.38-1.47 8.34-8 14.86-16.33 16.33-30.65 5.42-60.33 8.17-88.21 8.17zm193.15-440.74c-7.76 0-14.91-4.49-18.25-11.61-52.81-112.99-58.01-216.18-15.43-306.71C875.88 66.6 1112.49 3.27 1122.53.66c10.63-2.76 21.57 3.53 24.49 14.15 2.76 9.99 66.21 246.57-46.02 407.96-57.13 82.15-149.08 129.25-273.35 140-.57.05-1.16.07-1.74.07z"/><path fill="#fff" d="M793.17 983.13c-4.43-107.62-16.04-369.46 7.46-462.61 11.36-45.02 42.03-130.74 80.78-157.54 39.99-27.66 82.04 33.15 42.02 60.8-18.46 12.76-45.23 91.33-51.13 114.8-19.93 79.18-9.95 316.46-6.28 411.43 12.2-18.1 34.25-47.76 49.07-62.71l141.79-143.03c34.15-34.45 86.62 17.59 52.48 52.02L968.05 938.83c-43.77 44.66-96.43 125.15-94.65 191.01 2.18 81.01.52 181.63.54 264.72.01 43.26-73.91 59.81-73.91-9.97l-.11-243.27-66.81-114.72-142.22-142.2c-34.31-34.31 18.09-86.65 52.29-52.23l150 150.97z"/><path fill="#fff" d="M1432.46 1706.67H269.05c-11.99 0-21.35-10.46-20.03-22.38 10.56-95.18 95.08-163.97 191.15-155.21 69.34-122.48 214.15-177.91 346.57-135.66 142.41-110.58 349.54-68.01 437.97 87.98 131.52-45.38 262.35 74.61 227.26 210.17-2.31 8.88-10.34 15.1-19.52 15.1z"/></svg>