<svg xmlns="http://www.w3.org/2000/svg" width="400" height="200" viewBox="-459.5 -683 2966 1483"><path fill="#fff" d="M1842-309 1531-14l-21-19 275-327zm30 421-316-20V59l316-38zm-30 330-57 51-275-327 21-18zm-376-75q0 85-252 143-28.995 7-36 39c-1.33 6.667-2 27.333-2 62 0 25.333 5.33 58.833 16 100.5s16 71.167 16 88.5H524q0-32 2-92 2-66 2-94 0-208-119-297-131-98-184-219-50-114-50-298c0-128.67 65.667-243 197-343 122-93.33 249.333-140 382-140h39c220 0 347.33 46.67 382 140 8.67 36.67 19.67 77 33 121 12.67 16.67 19.33 26.17 20 28.5s1 13.83 1 34.5c0 44.67 11.33 76.67 34 96 10.67 9.33 38 22 82 38 42 14.67 75 34 99 58 4.67 4.667 7 9.667 7 15-.01 10.003-17.84 26.669-53.5 50-35.67 23.334-53.51 45.001-53.5 65q0 23.003 18 35c14 10.667 21.33 16.667 22 18-18 13.334-43.34 36.001-76 68q-24 28-54 70c56.67 18 114.33 27 173 27q9 0 9 13c0 16-4.67 32.833-14 50.5s-14 28.833-14 33.5c.01 10 9.68 22.334 29 37 19.34 14.667 29.01 32 29 52"/></svg>