<svg xmlns="http://www.w3.org/2000/svg" width="400" height="200" viewBox="-83.320 12.953 385.093 192.547"><path fill="#fff" d="M109.227 35.84c-28.232 0-51.2 22.968-51.2 51.2v61.44a3.414 3.414 0 0 0 3.413 3.413h22.849a3.414 3.414 0 0 0 0-6.826H64.853V87.04c0-24.467 19.905-44.373 44.373-44.373S153.6 62.573 153.6 87.04v58.027h-19.582a3.414 3.414 0 0 0 0 6.826h22.996a3.414 3.414 0 0 0 3.413-3.413V87.04c0-28.232-22.969-51.2-51.2-51.2"/><path fill="#fff" d="M85.333 145.067H3.413A3.414 3.414 0 0 0 0 148.48v51.2a3.414 3.414 0 0 0 3.413 3.413h81.92a3.414 3.414 0 0 0 3.413-3.413v-51.2a3.413 3.413 0 0 0-3.413-3.413m-3.413 51.2H6.827v-44.373H81.92zm133.12-51.2h-81.92a3.414 3.414 0 0 0-3.413 3.413v51.2a3.414 3.414 0 0 0 3.413 3.413h81.92a3.414 3.414 0 0 0 3.413-3.413v-51.2a3.414 3.414 0 0 0-3.413-3.413m-3.413 51.2h-75.093v-44.373h75.093z"/><path fill="#fff" d="M133.12 110.933H85.333a3.414 3.414 0 0 0-3.413 3.413v85.333a3.414 3.414 0 0 0 3.413 3.413h47.787a3.414 3.414 0 0 0 3.413-3.413v-85.333a3.414 3.414 0 0 0-3.413-3.413m-3.413 85.334h-40.96V117.76h40.96z"/><path fill="#fff" d="M133.12 83.627h-10.24a3.414 3.414 0 0 0-3.413 3.413v27.307a3.414 3.414 0 0 0 3.413 3.413h10.24a3.414 3.414 0 0 0 3.413-3.413V87.04a3.414 3.414 0 0 0-3.413-3.413m-3.413 27.306h-3.413v-20.48h3.413zM95.573 83.627h-10.24a3.414 3.414 0 0 0-3.413 3.413v27.307a3.414 3.414 0 0 0 3.413 3.413h10.24a3.414 3.414 0 0 0 3.413-3.413V87.04a3.414 3.414 0 0 0-3.413-3.413m-3.413 27.306h-3.413v-20.48h3.413zm-78.507 6.827H3.413A3.414 3.414 0 0 0 0 121.173v27.307a3.414 3.414 0 0 0 3.413 3.413h10.24a3.414 3.414 0 0 0 3.413-3.413v-27.307a3.413 3.413 0 0 0-3.413-3.413m-3.413 27.307H6.827v-20.48h3.413zm23.893-13.654h-10.24a3.414 3.414 0 0 0-3.413 3.413v13.653a3.414 3.414 0 0 0 3.413 3.413h10.24a3.414 3.414 0 0 0 3.413-3.413v-13.653a3.414 3.414 0 0 0-3.413-3.413m-3.413 13.654h-3.413v-6.827h3.413zm184.32-27.307H204.8a3.414 3.414 0 0 0-3.413 3.413v27.307a3.414 3.414 0 0 0 3.413 3.413h10.24a3.414 3.414 0 0 0 3.413-3.413v-27.307a3.414 3.414 0 0 0-3.413-3.413m-3.413 27.307h-3.413v-20.48h3.413zM20.48 165.547c-5.647 0-10.24 4.593-10.24 10.24v23.893a3.414 3.414 0 0 0 3.413 3.413h13.653a3.414 3.414 0 0 0 3.413-3.413v-23.893c.001-5.648-4.592-10.24-10.239-10.24m3.413 30.72h-6.827v-20.48c0-1.882 1.531-3.413 3.413-3.413s3.413 1.531 3.413 3.413zm20.48-30.72c-5.647 0-10.24 4.593-10.24 10.24v23.893a3.414 3.414 0 0 0 3.413 3.413H51.2a3.414 3.414 0 0 0 3.413-3.413v-23.893c0-5.648-4.592-10.24-10.24-10.24m3.414 30.72H40.96v-20.48c0-1.882 1.531-3.413 3.413-3.413s3.413 1.531 3.413 3.413v20.48zm20.48-30.72c-5.647 0-10.24 4.593-10.24 10.24v23.893a3.414 3.414 0 0 0 3.413 3.413h13.653a3.414 3.414 0 0 0 3.413-3.413v-23.893c.001-5.648-4.592-10.24-10.239-10.24m3.413 30.72h-6.827v-20.48c0-1.882 1.531-3.413 3.413-3.413s3.413 1.531 3.413 3.413v20.48zm78.507-30.72c-5.647 0-10.24 4.593-10.24 10.24v23.893a3.414 3.414 0 0 0 3.413 3.413h13.653a3.414 3.414 0 0 0 3.413-3.413v-23.893c.001-5.648-4.592-10.24-10.239-10.24m3.413 30.72h-6.827v-20.48c0-1.882 1.531-3.413 3.413-3.413s3.413 1.531 3.413 3.413zm20.48-30.72c-5.647 0-10.24 4.593-10.24 10.24v23.893a3.414 3.414 0 0 0 3.413 3.413h13.653a3.414 3.414 0 0 0 3.413-3.413v-23.893c.001-5.648-4.592-10.24-10.239-10.24m3.413 30.72h-6.827v-20.48c0-1.882 1.531-3.413 3.413-3.413s3.413 1.531 3.413 3.413zm20.48-30.72c-5.647 0-10.24 4.593-10.24 10.24v23.893a3.414 3.414 0 0 0 3.413 3.413H204.8a3.414 3.414 0 0 0 3.413-3.413v-23.893c0-5.648-4.592-10.24-10.24-10.24m3.414 30.72h-6.827v-20.48a3.417 3.417 0 0 1 3.413-3.413 3.417 3.417 0 0 1 3.413 3.413z"/><path fill="#fff" d="m17.009 120.544-5.12-27.307a3.414 3.414 0 0 0-6.71 0l-5.12 27.307a3.416 3.416 0 0 0 3.356 4.043h10.24a3.414 3.414 0 0 0 3.354-4.043m-9.483-2.784 1.007-5.371 1.007 5.371zm210.869 2.784-5.12-27.307a3.415 3.415 0 0 0-3.355-2.784 3.41 3.41 0 0 0-3.355 2.784l-5.12 27.307a3.416 3.416 0 0 0 3.356 4.043h10.24a3.414 3.414 0 0 0 3.354-4.043m-9.482-2.784 1.007-5.371 1.007 5.371zm-72.438-31.35-5.12-27.307a3.413 3.413 0 0 0-6.71 0l-5.12 27.307a3.417 3.417 0 0 0 3.356 4.043h10.24a3.413 3.413 0 0 0 3.354-4.043m-9.482-2.783L128 78.256l1.007 5.371zM98.929 86.41l-5.12-27.307a3.415 3.415 0 0 0-3.355-2.784 3.41 3.41 0 0 0-3.355 2.784l-5.12 27.307a3.417 3.417 0 0 0 3.356 4.043h10.24a3.414 3.414 0 0 0 3.354-4.043m-9.483-2.783 1.007-5.371 1.007 5.371zm-52.002 50.372-5.12-20.48a3.412 3.412 0 0 0-6.622 0l-5.12 20.48a3.41 3.41 0 0 0 3.311 4.241h10.24a3.41 3.41 0 0 0 3.311-4.241m-9.178-2.586.748-2.993.749 2.993zm166.294 0h-10.24a3.414 3.414 0 0 0-3.413 3.413v13.653a3.414 3.414 0 0 0 3.413 3.413h10.24a3.414 3.414 0 0 0 3.413-3.413v-13.653a3.414 3.414 0 0 0-3.413-3.413m-3.413 13.654h-3.413v-6.827h3.413z"/><path fill="#fff" d="m197.871 133.999-5.12-20.48a3.412 3.412 0 0 0-6.622 0l-5.12 20.48a3.41 3.41 0 0 0 3.311 4.241h10.24a3.41 3.41 0 0 0 3.311-4.241m-9.179-2.586.747-2.993.749 2.993zM109.227 15.36a3.414 3.414 0 0 0-3.413 3.413v20.48a3.414 3.414 0 0 0 6.826 0v-20.48a3.414 3.414 0 0 0-3.413-3.413m0 116.053a3.414 3.414 0 0 0-3.413 3.413v64.853a3.414 3.414 0 0 0 6.826 0v-64.853a3.414 3.414 0 0 0-3.413-3.413"/><path fill="#fff" d="M116.053 22.187H102.4a3.414 3.414 0 0 0 0 6.826h13.653a3.414 3.414 0 0 0 0-6.826m-6.826 109.226c-9.411 0-17.067 7.656-17.067 17.067v51.2a3.414 3.414 0 0 0 3.413 3.413h27.307a3.414 3.414 0 0 0 3.413-3.413v-51.2c0-9.411-7.656-17.067-17.066-17.067m10.24 64.854h-20.48V148.48c0-5.647 4.593-10.24 10.24-10.24s10.24 4.593 10.24 10.24z"/></svg>