<svg xmlns="http://www.w3.org/2000/svg" width="400" height="200" viewBox="-26.316 1.836 112.656 56.328"><circle cx="56" cy="41" r="1" fill="#fff"/><circle cx="5" cy="19" r="1" fill="#fff"/><path fill="#fff" d="M37.555 22.448A8.15 8.15 0 0 1 30 19.3a8.15 8.15 0 0 1-7.555 3.148 8 8 0 0 1-.541 4.183A8.1 8.1 0 0 1 19.3 30a8.1 8.1 0 0 1 2.6 3.368 8 8 0 0 1 .541 4.184 8 8 0 0 1 1.093-.074A8.08 8.08 0 0 1 30 40.7a8.07 8.07 0 0 1 6.462-3.221 8 8 0 0 1 1.092.074 8 8 0 0 1 .546-4.183A8.1 8.1 0 0 1 40.7 30a8.1 8.1 0 0 1-2.6-3.37 8 8 0 0 1-.545-4.182"/><circle cx="41" cy="54" r="1" fill="#fff"/><path fill="#fff" d="M19.729 53.873 19 52.54l-.729 1.333a1 1 0 0 1-.4.4L16.54 55l1.333.729a1 1 0 0 1 .4.4L19 57.46l.729-1.333a1 1 0 0 1 .4-.4L21.46 55l-1.333-.729a1 1 0 0 1-.398-.398"/><circle cx="40" cy="5" r="1" fill="#fff"/><path fill="#fff" d="M55.729 18.873 55 17.54l-.729 1.333a1 1 0 0 1-.4.4L52.54 20l1.333.729a1 1 0 0 1 .4.4L55 22.46l.729-1.333a1 1 0 0 1 .4-.4L57.46 20l-1.333-.729a1 1 0 0 1-.398-.398"/><path fill="#fff" d="M35.932 15.737a6.1 6.1 0 0 1-3.438-3.671A70 70 0 0 1 30 2.564a70.5 70.5 0 0 1-2.5 9.5 6.1 6.1 0 0 1-3.44 3.671 5.96 5.96 0 0 1-4.907-.145A70 70 0 0 1 10.6 10.6a71 71 0 0 1 4.989 8.558 5.97 5.97 0 0 1 .145 4.909 6.1 6.1 0 0 1-3.671 3.438A70 70 0 0 1 2.564 30a70.5 70.5 0 0 1 9.5 2.5 6.12 6.12 0 0 1 3.67 3.438 5.97 5.97 0 0 1-.144 4.909A70 70 0 0 1 10.6 49.4a71 71 0 0 1 8.558-4.989 5.97 5.97 0 0 1 4.909-.145 6.1 6.1 0 0 1 3.438 3.671A70 70 0 0 1 30 57.436a70.5 70.5 0 0 1 2.5-9.5 6.12 6.12 0 0 1 3.439-3.671 5.97 5.97 0 0 1 4.908.144A70 70 0 0 1 49.4 49.4a71 71 0 0 1-4.989-8.558 5.97 5.97 0 0 1-.145-4.909 6.1 6.1 0 0 1 3.671-3.438A70 70 0 0 1 57.442 30a70 70 0 0 1-9.508-2.494 6.1 6.1 0 0 1-3.671-3.44 5.97 5.97 0 0 1 .145-4.907A70 70 0 0 1 49.4 10.6a71 71 0 0 1-8.558 4.989 5.97 5.97 0 0 1-4.91.148M39.61 22.3a6.04 6.04 0 0 0 .332 3.567 6.1 6.1 0 0 0 2.323 2.791 1.6 1.6 0 0 1 0 2.692 6.1 6.1 0 0 0-2.321 2.791 6 6 0 0 0-.334 3.559 1.62 1.62 0 0 1-.441 1.491 1.56 1.56 0 0 1-1.43.421 6 6 0 0 0-1.276-.136 6.09 6.09 0 0 0-5.128 2.8A1.58 1.58 0 0 1 30 43a1.58 1.58 0 0 1-1.333-.723 6.09 6.09 0 0 0-5.128-2.8 6 6 0 0 0-1.275.136 1.56 1.56 0 0 1-1.43-.419 1.62 1.62 0 0 1-.442-1.491 6.03 6.03 0 0 0-.334-3.568 6.1 6.1 0 0 0-2.321-2.791 1.6 1.6 0 0 1 0-2.691 6.1 6.1 0 0 0 2.32-2.79 6 6 0 0 0 .333-3.563 1.62 1.62 0 0 1 .443-1.493 1.55 1.55 0 0 1 1.431-.419 6 6 0 0 0 1.273.136 6.09 6.09 0 0 0 5.128-2.8A1.58 1.58 0 0 1 30 17a1.58 1.58 0 0 1 1.333.721 6.09 6.09 0 0 0 5.128 2.8 6 6 0 0 0 1.276-.136 1.56 1.56 0 0 1 1.43.419 1.62 1.62 0 0 1 .443 1.496"/><path fill="#fff" d="M19.729 3.873 19 2.54l-.729 1.333a1 1 0 0 1-.4.4L16.54 5l1.333.729a1 1 0 0 1 .4.4L19 7.46l.729-1.333a1 1 0 0 1 .4-.4L21.46 5l-1.333-.729a1 1 0 0 1-.398-.398"/><circle cx="5" cy="41" r="1" fill="#fff"/></svg>