<svg xmlns="http://www.w3.org/2000/svg" width="400" height="200" viewBox="-159.189 0.5 535.377 267.689"><path d="M87 1c-.1.3 3.7 4 8.2 8.3 8 7.5 8.2 7.8 6.3 9.3-2.2 1.7-2.2 1.7-12.7-10.6-2.5-3-4.8-5.3-5-5-.6 1 .4 42 1 42 .4 0 3.8-2.8 7.6-6.2 5-4.5 7-5.8 7.6-4.8.5.9-1 3.7-4.6 8.4-5.7 7.5-5.7 7.1.1 9.1 1.7.6 1.5 1-2 2.5-2.3 1-5.1 3.4-6.5 5.6-4.4 6.7-3.1 20 2.7 26.6 1.3 1.5 1.2 1.8-.9 3.1-5.4 3.4-6.1 3.6-9.9 2-3.5-1.4-4.6-1.3-15.6 1.2-6.5 1.4-16.6 3-22.6 3.5-9.3.9-12 1.6-20 5.2-5 2.2-11.8 6.1-14.9 8.5L0 114.1v6.8c0 7.8 2 15.4 4.9 18.5 1.1 1.1 4.8 9.3 8.2 18 3.4 8.8 8.2 19.1 10.6 23 3 5 4.1 7.6 3.6 9.1-.3 1.1-.6 3.1-.5 4.3.1 1.3-.7 3.6-1.7 5.1-1.9 2.6-1.9 8.1 0 8.1 1.8 0 .9 5.2-1 5.7-2.9.7-4.2 5-4.8 15-.6 8.7-.4 9.4 2.2 14 5 8.6 6.7 9.9 21.8 15.4 11.2 4.2 40 9.9 50.1 10 4.5 0 10.7.4 13.9.8s6 .4 6.3-.1c.3-.4 4.5-.8 9.3-.8 15.9 0 49.1-7.8 62.8-14.9 4.5-2.2 6.1-3.9 9.8-10.4 2.6-4.6 2.8-5.3 2.2-14-.6-10-1.9-14.3-4.8-15-1.9-.5-2.8-5.7-1-5.7 1.9 0 1.9-5.5 0-8.1-1-1.5-1.8-3.8-1.7-5.1.1-1.2-.2-3.2-.5-4.3-.5-1.5.6-4.1 3.6-9.1 2.4-3.9 7.2-14.2 10.6-23 3.4-8.7 7.1-16.9 8.2-18 2.9-3.1 4.9-10.7 4.9-18.5v-6.8l-5.7-4.4c-3.2-2.4-10-6.3-15-8.5-8-3.6-10.7-4.3-20-5.2-6-.5-16.1-2.1-22.6-3.5-11-2.5-12.1-2.6-15.6-1.2-3.8 1.6-4.5 1.4-9.9-2-2.1-1.3-2.2-1.6-.9-3.1 3.5-4.1 5.1-8.8 5.1-15.8.1-5.9-.3-7.7-2.4-10.8-1.4-2.2-4.2-4.6-6.5-5.6-3.5-1.5-3.7-1.9-2-2.5 5.8-2 5.8-1.6.1-9.1-3.6-4.7-5.1-7.5-4.6-8.4.6-1 2.6.3 7.6 4.8 3.8 3.4 7.2 6.2 7.6 6.2.6 0 1.6-41 1-42-.2-.3-2.5 2-5 5-10.5 12.3-10.5 12.3-12.7 10.6-1.9-1.5-1.7-1.8 6.3-9.3 4.5-4.3 8.3-8 8.2-8.3 0-.3-9.7-.5-21.5-.5S87 .7 87 1"/></svg>