<svg xmlns="http://www.w3.org/2000/svg" width="400" height="200" viewBox="-22.584 1.708 97.169 48.584"><path fill="#fff" d="M42.09 24.065c.24.25.35.61.25.97-.81 2.9-2.01 6.13-3.46 9.34-3.45 7.66-9.62 15.31-12.18 15.31-.15 0-.29-.02-.42-.08-.39-.18-1.6-.72-.68-6.91.36-2.38 1.32-7.19 3.76-12.61 1.46-3.22 3.09-6.25 4.72-8.78.2-.3.54-.46.88-.45.51-1.04 1.07-2.17 1.62-3.27a8.1 8.1 0 0 0 3.07 2.38c1.06.48 2.24.74 3.41.74.14 0 .28 0 .42-.01-.46 1.13-.95 2.3-1.39 3.37M50 8.385c.01 2.35-.47 5.07-1.16 6.6a6.33 6.33 0 0 1-8.37 3.16 6.26 6.26 0 0 1-3.31-3.52c-.6-1.58-.55-3.3.15-4.84 1.37-2.48 2.95-2.92 4.34-3.31 1.5-.41 2.92-.81 4.66-3.68.26-.43.8-.6 1.26-.39 2 .9 2.43 3.75 2.43 5.98m-14.71 6.95a8.25 8.25 0 0 1-.22-5.26c-.89-.8-1.84-1.49-2.84-2.1-2.95-1.79-6.34-2.82-9.86-2.89-5.4-.1-10.52 1.92-14.38 5.7C4.13 14.575 2 19.635 2 25.045c0 7.46 4.11 14.24 10.72 17.69a5.3 5.3 0 0 0 2.5.63c1.01 0 2.03-.29 2.94-.86 1.65-1.04 2.59-2.79 2.53-4.7-.11-3.3.97-6.03 3.04-7.68 1.15-.91 2.57-1.45 4.15-1.6 1.4-3.04 2.97-5.89 4.52-8.3.3-.46.7-.81 1.16-1.04.58-1.17 1.21-2.46 1.82-3.65-.04-.06-.06-.13-.09-.2m-22.06 17.21c-1.82 0-3.28-1.47-3.28-3.28a3.275 3.275 0 1 1 6.55 0c0 1.81-1.46 3.28-3.27 3.28m1.76-11.19c-1.82 0-3.28-1.47-3.28-3.28s1.46-3.29 3.28-3.29c1.81 0 3.27 1.48 3.27 3.29s-1.46 3.28-3.27 3.28m11.48-1.76c-1.82 0-3.28-1.48-3.28-3.28 0-1.81 1.46-3.29 3.28-3.29 1.81 0 3.27 1.48 3.27 3.29 0 1.8-1.46 3.28-3.27 3.28"/></svg>