<svg xmlns="http://www.w3.org/2000/svg" width="400" height="200" viewBox="-98.377 -0.092 2362.077 1181.039"><path fill="#fff" fill-rule="evenodd" d="M683.274 477.855c26.636 1.159 58.46 18.754 66.354 45.35-6.53 33.097 38.672 44.138 28.754 77.878 1.135 18.548-19.766 45.47-39.515 30.374-23.245-6.332-25.869 20.874-16.033 35.202 8.751 47.42-11.594 109.956 36.984 141.285 47.271 46.535 108.777 75.26 157.76 118.994 19.438 17.192 21.173 50.197 4.755 69.177-33.525-4.733-47.874-13.18-60.142-48.987-22.986-23.608-52.535-47.055-85.802-52.451 17.545 65.306 65.991 122.464 76.27 190.627-.392 23.391 12.135 63.314-22.955 60.697-41.667 11.544-68.277-40.582-40.526-69.327 17.558-37.901-21.32-72.345-39.777-102.605-29.66-43.875-70.148-78.63-106.52-116.21-4.076-36.812-18.985-77.444-56.24-92.152-22.5 15.617-68.981 43.206-49.855 75.852 27.827 52.742 67.698 110.542 49.635 173.062-6.015 44.408-16.014 112.076 39.685 128.278 10.703 3.222 36.877 14.655 11.29 23.907-64.454 30.165-139.085 11.824-112.153-68.219-2.698-49.802 8.535-115.675-34.351-151.668-40.04 37.294-80.729 77.242-113.563 121.807-17.795 28.14 10.742 55.758 23.88 77.955-48.914 28.125-107.853-52.71-95.4-93.517 25.486-37.787 58.067-69.757 86.58-104.746-18.896-63.54-84.698-129.586-34.111-198.16 53.41-83.815 125.675-161.234 218.741-200.631 31.208-27.537 61.952-69.403 106.255-71.772m609.606-258.256c56.238-5.241 54.625 51.433 61.231 87.105 18.193 61.278-45.178 52.303-81.545 51.228-18.676 36.09 13.333 82.322 2.426 120.8-36.38 59.47-10.878 110.526 11.938 170.049 13.049 33.363 20.961 116.062-28.95 111.616-6.962-8.254-31.55-19.08-14.28-29.849 39.523-30.57.71-74.674-17.231-104.735-26.556-42.743-38.355 84.025-37.985 62.197-10.718 54.17 41.7 91.005 55.837 139.543 34.86 78.45 9.25 166.337 28.199 248.309 18.295 45.184 79.47 52.757 102.69 91.085-30.587 17.308-101.803 8.674-135.37 4.703-8.705-43.237-12.693-88.964-33.89-129.399-27.133-56.357 4.306-125.042-34.69-177.878-8.987-25.627-32.973-44.408-33.757-3.57-6.807 64.053-60.777 100.612-96.273 149.078-27.133 28.54-49.92 80.564-13.1 111.42 43.088 24.17 33.376 90.1-18.27 43.226-14.161-26.328-53.282-25.41-64.679-50.273-1.22-28.566 25.566-52 29.546-80.254 11.635-40.899 11.06-88.166 45.466-118.69 35.262-32.077 41.094-80.149 36.438-125.143 2.042-45.393-23.393-87.291-15.391-133.273 10.814-64.383 38.446-125.83 39.099-192.437 6.002-47.133 14.505-103.244 59.011-130.012 39.683-30.977 62.146-80.03 109.59-101.968 13.014-8.46 28.424-13.105 43.94-12.878M1699.28 0c33.14-2.09 57.882 31.954 50.258 64.078 7.127 33.052.478 66.04-16.748 94.692-36.22 2.472-45.965 38.715-19.05 64.456 31.02 56.142 6.113 119.925 4.33 179.071 25.943 46.47 72.782 82.844 82.74 137.375-17.073 13.506-56.072 5.477-52.01-22.797-6.234-14.312-42.764-43.961-44.2-12.806-7.494 66.877-.7 134.52 25.687 197.035 23.83 72.193 34.092 148.748 24.784 224.156.278 50.881-3.014 102.194 1.889 152.841 19.09 29.865 61.05 13.89 90.31 13.662 20.414-8.791 16.398 36.508.801 37.362-37.539 10.744-103.187 55.188-135.191 23.938-.506-60.537-3.572-122.484-32.37-177.35-5.19-50.263 15.685-102.412-9.424-150.057-11.108-11.088-18.948-97.222-34.378-71.785-20.936 65.769-40.59 132.741-84.256 187.32-23.902 51.98-65.118 101.33-58.212 161.578 7.255 28.556 44.585 35.1 55.92 60.107-39.775 16.51-115.828 8.975-146.36-25.051 3.618-38.909 36.297-71.448 40.4-111.11 15.977-58.68 31.31-118.718 68.96-167.854 28.598-67.894 23.6-144.837 28.47-217.081-.748-65.698.097-131.148 18.32-194.995-22.767-44.665 3.192-96.836 1.321-144.654-1.22-51.497 15.236-101.213 44.089-143.421 21.285-48.073-8.956-124.374 49.92-149.6 14.232-5.225 28.73-9.38 44-9.11"/></svg>