<svg xmlns="http://www.w3.org/2000/svg" width="400" height="200" viewBox="-379.523 6.424 1536.212 768.106"><path fill="#fff" d="M373 6.6c-51.3 2.3-104.8 15.7-149.5 37.3-62.6 30.3-110.8 71.3-151.2 128.6-15.2 21.6-33.2 55.6-43 81.5C4.5 319.2-2 394.3 11.1 462.8c10.6 55.3 32.5 106.4 65.2 152.1C117 671.6 175.4 718.4 239.1 745c32.4 13.6 67.8 23.1 103.4 27.6 17.6 2.3 71.1 2.6 87.5.6 76.7-9.5 141.7-36.6 200.2-83.5 14.5-11.6 41-37.8 53.6-53 37.1-44.6 62.8-94.9 77.2-151.3 17.7-68.9 15.2-146-6.9-213.2-19.3-58.7-50.7-109.8-94.1-153.2C597.4 56.4 516.2 17.8 428 8.6c-15.2-1.6-42.2-2.6-55-2m42 18c17.8 1 41.8 4.8 62.5 10 11 2.7 29.5 8.3 29.5 8.8 0 .2-6.6 5.5-14.7 11.7-8.2 6.2-24.5 18.8-36.4 28l-21.6 16.7-13.9-1.9c-54.3-7.2-109.8-4.2-156.8 8.6l-13.6 3.7-11.8-6.8C221.4 93.7 197 78.7 197 78c0-1.8 36.2-20.3 54.8-27.9C303.2 29 353.9 21.1 415 24.6M383.3 117c10.9.5 23.7 1.4 28.5 2 12.4 1.5 39.5 6 40.8 6.8.7.4 4.7 5 9 10.2s14.4 17.4 22.4 27c43.7 52.8 50.5 61.3 50.5 62.9 0 1-17.3 36.8-38.4 79.7l-38.5 77.9-28.5.1c-38.8.1-69.3 2.7-106 9-7.9 1.4-14.5 2.3-14.6 2.2-20-24.8-105.9-132.6-106.2-133.4-.2-.7 8.7-18.9 19.8-40.6 11.1-21.6 26-50.7 33.1-64.5 7.1-13.9 13.3-25.5 13.9-25.8 1.6-1.1 14-4.3 26.4-6.9 17.3-3.6 33.8-5.7 51.5-6.5 8.5-.5 15.7-.9 16-.9.3-.1 9.4.3 20.3.8m294.2 47.2c26.3 33.9 48.3 75.1 60.5 113.3 9.7 30.5 15.5 62.4 17.6 97.2.4 6.8.3 11.3-.2 11.3-.6 0-1.8-3-2.8-6.7-4.2-16-19-52-28.9-70.3-12.9-24.2-29.3-49.6-43.1-67l-7.6-9.5v-21c0-11.6-.3-28.1-.7-36.8-.3-9.2-.2-15.7.3-15.7.5.1 2.7 2.4 4.9 5.2M63.9 258.9l3.6 27.6-5.2 13.5c-12.4 32.3-23.6 75.6-28.8 111-2.3 15.2-4.5 35.7-4.5 41.4 0 8.7-1.7 3.7-3.9-11.4-3.5-24.5-4.4-39.1-3.7-60 .4-10.7.9-21.5 1.2-24 3.9-33.3 8.8-56.5 17.6-82 7.2-20.9 18.7-47.4 19.5-45.1.3.7 2.2 13.8 4.2 29m592.4-11.5c11.1 13.2 28.3 37.3 37 51.8 13.7 22.8 31 59.4 38.6 81.7 3.8 11.1 3.9 10.6-3 31.3-10.3 31.3-30.6 76.9-43.6 98.3l-4.9 8-52.5.7c-28.8.4-59.5.7-68.2.5l-15.8-.2-7.8-23.5c-9.9-29.9-16.3-46-26.1-65.7-8.7-17.6-15.5-28.3-22.4-35.8l-4.7-5 14.5-29.5c8-16.2 24.8-50.5 37.5-76.3L558 237h89.6zm-422.1 94.7 52.6 66-4 11.7c-10.5 31-20.2 69.9-25.8 104.2-1.6 10.2-3.3 20-3.8 21.9l-.7 3.4-17.5 4.9c-9.6 2.7-35.3 9.9-57 15.8l-39.5 10.9-3.2-3.7c-3.1-3.6-29.5-36.8-64.1-80.9-14.6-18.5-17.1-21.2-19.5-21.2l-2.9-.1.7-8.8C53.7 411 65.8 357 84.3 311.6l2.5-5.9 28.3-8.8c15.6-4.9 36.7-11.5 46.9-14.8 10.2-3.2 18.7-5.9 19-5.9s24.2 29.6 53.2 65.9m438.1 238.6c-.2 20.3-.6 38.6-.9 40.9-.4 3.4-2 5.8-10.2 14.9-18.6 20.9-44.4 43-70.2 60.2-14.4 9.6-22.1 14-41.9 23.7-21.3 10.5-34 15.6-38.9 15.6-8.1.1-77.8-7.4-78.8-8.4-1.1-1-9.2-78.4-8.3-78.9.2-.1 4.5-2.2 9.4-4.5 25.6-12.3 68.8-47.6 107.5-87.8l10.5-10.9 39-.5c21.5-.3 48.9-.6 61-.8l22-.2zm-387.6 5c36.6 25.4 74.4 46.3 103.4 57.3l8.7 3.3.6 5.1c1.2 10.7 7.6 75.2 7.6 77.2 0 1.7-4.3 3.7-30.8 14.3-35.4 14.1-29.4 13.3-56.9 8-47.7-9.2-94.2-28.6-134.6-56.2-11.6-7.9-35.7-26.7-38.9-30.3-1.3-1.6-1.8-5.6-2.4-22.4-.5-11.3-.9-23.9-.9-28v-7.4l30-8.3c16.5-4.6 44.4-12.4 62-17.2 17.6-4.9 32.2-8.9 32.5-8.8s9.2 6.2 19.7 13.4"/></svg>