<svg xmlns="http://www.w3.org/2000/svg" width="400" height="200" viewBox="-47.358 0.88 291.76 145.88"><path fill="#fff" d="M65 5.2c-4 5.5-6.1 12.5-6.7 22.7-.6 9.2 1 22.8 3.3 27.6.8 1.8 1.2 2.1.8.8-3.7-15.1-1.3-37.1 5.3-48C69.5 5.2 71 2.4 71 1.9c0-2.3-3.3-.5-6 3.3M90 18c0 .5.5 1 1 1 .6 0 1-.5 1-1 0-.6-.4-1-1-1-.5 0-1 .4-1 1m-4.4 4.6c-3.1 3.1-7.9 10.7-11.2 17.9-4.7 10.2-4.3 11.6.7 2 2.2-4.3 5.5-10 7.3-12.5 5.4-7.6 7-11.3 3.2-7.4m-51 13.1c-1.1 1.1-.6 2.3.9 2.3.8 0 1.5-.4 1.5-.9 0-1.3-1.6-2.2-2.4-1.4m3.4 4.9c0 .3 1.9 2.3 4.2 4.3 6.6 5.7 11.8 11.4 13.5 14.4.8 1.6 1.7 2.7 1.9 2.4.9-.8-4.1-7.9-9.2-13.3-4.7-4.8-10.4-9.1-10.4-7.8m70.5.6c-9.1 2.8-18 8.2-28.1 17-6.1 5.4-5.8 6.6.4 1.5 3.7-3.1 9.8-6.4 24.4-13.1 3.1-1.4 6.1-2.6 6.6-2.6 1.5 0 2.2-2.8.9-3.3-.7-.2-2.5 0-4.2.5M70.1 52.6c0 1.1.3 1.4.6.6.3-.7.2-1.6-.1-1.9-.3-.4-.6.2-.5 1.3M4.2 59.3c-6.9 2.2-2.6 3.1 15.9 3.2 14.3.2 19.6.6 23.9 2 3 .9 6.1 2.2 6.8 2.7.7.6 1.2.6 1.2.1 0-.9-5.8-4.1-9-4.9-14.4-3.9-31.9-5.3-38.8-3.1m85.2 6.8c-1.1.3-2.2.5-2.6.3-.4-.3-.9 0-1.3.5-.3.6.4.8 1.7.5 4.6-.9 17.5-.4 24.8 1 3.2.6 3.3.6 1.7-.8-2.6-2-19.9-3.2-24.3-1.5m-7.4 2c0 .5.5.7 1 .4.6-.3 1-.8 1-1.1 0-.2-.4-.4-1-.4-.5 0-1 .5-1 1.1m36.6-.2c-.3.5.1 1.1.9 1.5.9.3 1.5 0 1.5-.9 0-1.6-1.6-2-2.4-.6M84.5 75c2.5 1.1 5.8 1.2 5.1.2-.2-.4-1.9-.8-3.8-.9-2.7-.2-2.9 0-1.3.7m7.1.9c.5.4 5.2 2.2 10.5 3.9s14 5.2 19.4 7.7c5.3 2.5 9.9 4.5 10.2 4.5 1.3 0 19.8 11.5 26.8 16.7 12 8.9 28.4 25.5 35.8 36.3 2.2 3.2 2.2 1.7 0-1.8-3.1-5-11.6-14.6-21.3-24.2-11.3-11.1-13.8-13.4-20.5-18-2.8-1.9-5.2-3.8-5.5-4.1-.3-.4-6.3-3.8-13.5-7.6-13-7-16.7-8.4-32.5-12.3-9.4-2.3-10.9-2.4-9.4-1.1m-41.1.6c-.5.2-4.1 1.3-7.9 2.5-6.5 2-12.1 4.8-11.3 5.7.3.2 2.2-.4 4.3-1.3 2.2-.9 4.8-2 5.9-2.4s3.1-1.2 4.5-1.9c1.4-.6 3.5-1.2 4.7-1.4 2.5-.4 4.4-1.7 2.2-1.6-.8 0-1.8.2-2.4.4M78 77.6c0 .2 2.6 1.7 5.8 3.3 3.1 1.6 7.1 4.1 8.7 5.5 1.7 1.5 5.2 4.5 7.9 6.9 6.4 5.5 7.6 6.1 8.9 4.8.7-.7-.5-2.5-4.3-6.1-2.9-2.7-5.6-5-6-5-.5 0-1.5-.7-2.3-1.5-2.5-2.4-18.7-9.3-18.7-7.9m-22 11c-7.1 10.2-12.8 28.6-11 35.4 1 3.7 2.4 2.8 3.3-2.2 3-17.5 5.3-25.5 9.5-33.6 2.9-5.5 2.1-5.4-1.8.4m12.1 1c1.4 7.4 2.8 11.8 4.3 13.9 2.5 3.5 2.6 1.1.1-4-1.3-2.8-2.7-7.1-3.1-9.8-.4-2.6-1-4.7-1.4-4.7s-.4 2.1.1 4.6M23 87.9c0 .6.5 1.3 1 1.6.6.3 1-.1 1-.9 0-.9-.4-1.6-1-1.6-.5 0-1 .4-1 .9M74.5 112c.3.5.8 1 1.1 1 .2 0 .4-.5.4-1 0-.6-.5-1-1.1-1-.5 0-.7.4-.4 1"/></svg>