<svg xmlns="http://www.w3.org/2000/svg" width="400" height="200" viewBox="-0.3 -1.113 931.3 465.65"><path fill="#fff" d="M437 1c-38.7 3.1-80.3 11.3-114.5 22.5-23.5 7.7-37.5 13.4-61 25-49 24.1-85.1 50-124 89-17.1 17-30.9 32.5-42 47-.9 1.1-2.7 3.3-4.1 5-3.8 4.7-20.6 30-26.8 40.5-31.2 52.7-52.8 116.4-60.2 176.9-.8 6.9-1.9 15.3-2.4 18.6S.8 438.6.4 447.2L-.3 463H365v-64.9c0-58.2.2-64.9 1.6-65.5.9-.3 15.2-.6 31.9-.6 29.1 0 30.5.1 31.5 1.9.6 1.3 1 23.6 1 65.5V463h51.2l-3.1-3.5c-4.2-4.9-6.8-10.3-9.3-19.3-1.8-6.7-2.1-11.4-2.5-36.5-.6-34.1.4-31.7-13.5-31.7H445v-19.4c0-16.8.2-19.5 1.6-20 .9-.3 5.6-.6 10.4-.6 5.5 0 9.1-.4 9.6-1.1.4-.6.6-5 .5-9.8-.2-10.2.2-11.6 3.7-13 6.5-2.5 58.1-18.1 60-18.1 2.2 0 2.2.1 2.2 19.8 0 14.1.3 20.1 1.2 21 .8.8 5.4 1.2 13.9 1.2 10 0 12.9.3 13.9 1.5.9 1.1 1 5.9.5 19.9l-.7 18.4-13.3.4c-7.4.2-13.7.7-14.2 1.1-.4.5-.8 11.1-.8 23.5 0 25.8.5 28 7.9 31.6 3.5 1.7 4.6 1.8 11.4.7 4.2-.6 7.9-.8 8.4-.3.4.4 1.1 8.2 1.6 17.3l.7 16.4 21.5.3 21.5.2-5-3.4c-11.2-7.5-18.7-18.2-23.5-33.1-3.4-10.6-4-32.8-1.1-44.7 6.1-25.6 23.5-41.9 52.5-49.3 8.3-2.1 12.2-2.5 24.8-2.5 22.7 0 35.4 3.3 48.4 12.5 10.9 7.8 17.8 18.8 22.1 35.4 2.1 8 2.6 12.1 2.7 24.6l.1 15-43.5.3c-23.9.1-43.8.6-44.3 1.1-1.4 1.4 1 7.4 4.1 10.3 6.3 5.9 16.5 8.8 31.2 8.8 11 0 24.5-1.9 33-4.6 12-3.8 12-3.8 12 8.4 0 4.2.3 10.7.7 14.4l.6 6.8h24.9l-.8-63.8c-.6-56.3-.5-63.9.8-65 1.2-.9 8.5-1.2 31.4-1l29.9.3.5 11.8.5 11.8 5.2-7.5c5.9-8.4 13.5-14.7 21.4-17.7 6.7-2.6 19.5-3.5 22.9-1.7l2.5 1.3-.4 15.5c-.2 8.5-.6 20.6-1 26.9l-.6 11.5h-12c-10.5.1-12.5.4-16.2 2.4-10.2 5.4-15.5 13.3-17.3 25.7-.5 3.8-1 16.6-1 28.2V463h119v-9.3c0-11.3-1.5-32-3.6-48.2-7.9-62-29.4-124.2-61.6-178-8.7-14.4-23.4-36.3-26.7-39.6-.9-.9-2.3-2.6-3.1-3.9-.8-1.2-2.4-3.2-3.5-4.5s-3.6-4.2-5.5-6.6C775 108.9 705.3 58.8 628 30 593.4 17.1 562.8 9.6 521.5 3.9c-18.7-2.5-26-3.1-48-3.4-14.3-.2-30.7 0-36.5.5m-7 275.9c1.6 3.1 1.3 36.6-.4 38-.9.8-10.4 1.1-32.7.9l-31.4-.3-.3-19c-.1-10.4 0-19.5.2-20.2.4-1 7.4-1.3 32-1.3 30.1 0 31.6.1 32.6 1.9"/><path fill="#fff" d="M648.4 365c-5.4 2.1-9.8 11.3-9.2 18.8l.3 3.7h31l-.3-5c-.5-7-4.3-15-8.1-16.9-3.2-1.7-10.3-2-13.7-.6"/></svg>