<svg xmlns="http://www.w3.org/2000/svg" width="400" height="200" viewBox="-235.739 -5.750 919.958 459.979"><path fill="#fff" d="M443.885 205.279c-4.096-61.952-34.816-119.808-83.456-158.208S248.301-7.201 186.861 3.039C77.293 21.983-3.091 123.359 4.589 234.975c3.584 53.76 26.112 103.424 64 141.312-9.728 14.336-18.432 23.552-41.472 41.984-4.608 3.584-6.656 9.216-5.12 14.848 1.024 5.632 5.12 10.24 10.24 11.776 7.68 2.56 18.944 3.584 31.744 3.584 27.136 0 61.44-6.144 88.064-19.968 35.328 12.288 73.216 15.36 110.592 8.704 109.568-19.456 188.928-121.344 181.248-231.936m-322.048 54.784c-19.968 0-35.84-15.872-35.84-35.84s15.872-35.84 35.84-35.84 35.84 15.872 35.84 35.84-15.872 35.84-35.84 35.84m102.4 0c-19.968 0-35.84-15.872-35.84-35.84s15.872-35.84 35.84-35.84 35.84 15.872 35.84 35.84-15.872 35.84-35.84 35.84m102.4 0c-19.968 0-35.84-15.872-35.84-35.84s15.872-35.84 35.84-35.84 35.84 15.872 35.84 35.84-15.872 35.84-35.84 35.84"/></svg>