<svg xmlns="http://www.w3.org/2000/svg" width="400" height="200" viewBox="-90.497 0.241 517.294 258.647"><path fill="#fff" d="M178.2 1.2c-.8.8-1.2 4.5-1.2 10.3 0 7.1-.4 9.9-2 13-1.2 2.4-2 5.9-2 9.1 0 6 .9 5.4-12.2 8-4.9.9-9.6 2.3-10.5 3-1.7 1.3-1.7 1.5.1 2.8 1.8 1.4 1.7 1.9-1.8 14.8-5.5 20.5-10.6 46.6-10.6 54.2 0 3.8 3 2.6 9.2-3.6 6.3-6.5 18.6-13.8 23.1-13.8 1.8 0 1.9.4 1.3 5.6-.8 7-1.1 7.4-4.5 7.4-1.5 0-3.6.6-4.6 1.4-1.6 1.1-1.7 1.6-.7 2.9 1.1 1.3.8 3.3-1.7 11.4-3.9 12.7-5.8 21-7.6 33.6-2 14.2-2 16.7.4 16.7 1.1 0 2.3-.5 2.7-1.1.8-1.4 12.4-8.9 13.6-8.9.5 0 .6 8.7.2 21l-.7 21h7.4c4.1 0 8.4.3 9.6.6l2.3.6.2-24.3.3-24.4 6.9.2c7.9.3 15.8 2.3 22.8 5.9 4.6 2.3 6.8 2.4 6.8.4 0-.5-2.5-4.6-5.5-9.1-12.4-18.1-22.6-44.6-19.3-49.9 2-3.1 0-4.3-5.3-3.1-7.7 1.8-7.9 1.7-7.9-4v-5.2l5.3.6c5.2.5 17.5 4.2 19 5.6.5.5.1 4.8-.7 9.7-2.1 11.5-2 14.4 0 14.4.9 0 2.5-1.1 3.5-2.4 2.3-2.9 10.5-8.2 14-9.1l2.7-.7-.5 12.4c-1.3 31.9-2.9 82.3-2.6 82.7.2.2 2-.1 4.1-.7 5.6-1.7 8.5-5.2 8.6-10.6l.1-4.4 9.5-1.5c5.2-.8 26-3.8 46.2-6.8 40.3-5.9 37.9-5.1 36.1-11.8-.6-2.2-.9-2.3-5.9-1.7l-5.4.6-.1-31.7c0-17.5-.4-32.6-.7-33.6-.4-1-4.2-3.7-8.4-6-23.4-13-56.7-33.4-57.2-35.1-.4-1.4-1.1-1.7-3-1.2-1.4.3-3.7.9-5 1.2-1.9.4-2.6.1-3.1-1.5-.4-1.2-1.7-2.9-3.1-3.7-2.2-1.5-2.6-1.5-4.9 0-1.4.9-2.7 3-3 5-.7 3.3-.9 3.5-7.8 5.1-8.2 2-9.5 2.8-7.8 4.9 1.1 1.4.6 5.4-1.5 11.6-1.5 4.3-12.9-22.5-16.5-38.8l-2.3-10.4 2.3-1.7c4.9-3.8.3-4.9-9.6-2.4-1.9.4-2.3.1-2.3-1.8 0-3.6-1.9-9.7-3.5-11.3-1-1-1.5-4.4-1.7-11.7-.3-10.1-1.1-12.2-3.6-9.7M273 85c9.4 5.5 17 10.5 17 11 0 1.2 2.2 1.8-17.5-4.4-16.6-5.3-17-5.5-18.2-8.7-1.8-5-1.7-9.3.2-8.5.9.3 9.2 5.1 18.5 10.6m11.2 15 23.7 7.4-.6 6.5c-.2 3.6-.8 19.2-1.1 34.6l-.7 27.9-28.4 4.3c-15.6 2.4-28.5 4.2-28.7 4.1-.4-.5-2.5-69-2.1-69.4.9-.9 10.3 1.9 17.6 5.2 4.1 1.9 7.8 3.4 8.2 3.4 1.9 0 .7-3.8-2.7-9-4.1-6.4-11.4-20.4-11.4-22.1 0-.6.6-.9 1.3-.7.6.3 11.9 3.8 24.9 7.8M99 66.4c-2.2 2-89 53.6-90.3 53.6-.6 0-2.1-.9-3.3-2.1-2.2-2.1-4.4-1.9-4.4.4 0 .7 9.2 10.4 20.5 21.7 19.5 19.4 20.4 20.5 17.8 21-2.3.4-2.9 1.2-3.7 4.8-.9 4.1-1 4.2-4 3.7-15.2-2.8-19.8-3.2-20.3-1.8-.9 2.3.6 3 9.7 4.8 8.4 1.7 12.9 3.8 18.2 8.9s7.6 9.3 10.2 18.6c8.6 30.5 26.9 50.6 52.2 57 10.9 2.8 13.1 2.5 6.2-1-27.6-13.6-43.5-36.5-51.7-74.3-1.7-7.7-1.7-8.7-.3-8.7 1.8 0 58.4 7.8 62.3 8.6 2.4.5 2.7.2 3.3-3.7.8-5.1.4-5.4-7.5-6.3l-5.9-.7v-51.1l3.3.7c5.5 1.1 13 3.7 18 6.2 8.1 4 8.8 1.5 2.2-7.2-9.6-12.6-18.7-36.2-15.4-40.1 1.9-2.3 0-3.7-4.1-3l-3.7.6-.6-4.7c-.7-6.4-5.1-9.4-8.7-5.9M83.3 83.9c.2 1.1-.8 6.2-2.3 11.4-2.4 8.1-5.5 22-7.4 33.5-.9 5.1 1.6 5.2 7 .2 4.4-4.1 13-8.7 14.1-7.6.7.6-1.1 46.3-1.7 46.9-.3.3-10-.9-21.7-2.6l-21.1-3-19.4-19.5c-10.6-10.7-18.8-19.6-18.3-19.8.6-.3 16.3-9.7 35-20.9s34.3-20.4 34.6-20.4c.4-.1.9.8 1.2 1.8"/><path fill="#fff" d="M62 181.3c0 2.6 4.7 17.9 7.4 23.9 2.8 6.4 1.4 5.7 20.7 10.2 49.8 11.8 110.3 14.7 162.9 8 24.2-3.1 65.4-12.2 70.1-15.5 1.4-1 4.7-2.3 7.4-3l4.8-1.2-.6-8c-.4-4.4-.8-8.1-.9-8.2-.2-.1-19.7 2.7-43.4 6.3l-43.1 6.6-1.6 4.7c-2.1 5.9-6.2 9.4-13.3 11.5-5 1.4-9 1.5-37.7.5-39.5-1.4-46.4-2.5-59.1-8.9-6.3-3.1-15.8-12.1-18-17l-1.7-3.8-23.7-3.3c-13-1.8-25.2-3.6-26.9-3.8-2.5-.4-3.3-.2-3.3 1"/><path fill="#fff" d="M77.5 221c1.1 2.2 2.8 2.9 12.7 5.3 60.8 14.6 115.9 16.3 175.8 5.2 20.6-3.8 46.8-10.5 47.4-12.1.7-1.9 0-1.8-11.2 1-34 8.6-68.7 12.6-108.2 12.6-37.2 0-70.9-3.7-103.7-11.3l-14.2-3.3z"/><path fill="#fff" d="M295.5 231.3c-37.6 9.5-66.9 13.1-105.5 13.1-36.4 0-62.9-3-96-10.9l-9.5-2.3 5.9 5.3c10.2 9.2 28.1 18.6 41.1 21.5 5.4 1.2 104 .5 135.8-1 16.6-.7 16.9-.8 24.2-4.4 8.8-4.3 14.5-10.3 17.5-18.3 1.1-3.1 1.9-5.9 1.8-6.2-.2-.3-7 1.1-15.3 3.2"/></svg>