<svg xmlns="http://www.w3.org/2000/svg" width="400" height="200" viewBox="-17 1.001 62 31"><path fill="#fff" fill-rule="evenodd" d="M6.047 23.67c-.033.033-.026.67.01.982.07.595.47 1.15 1.275 1.762.182.136.367.296.41.354a.495.495 0 0 1-.066.663.65.65 0 0 1-.467.134c-.202-.046-.754-.452-1.32-.979-.14-.13-.285-.244-.322-.253-.162-.052-1.804.656-2.69 1.16-.878.497-1.504.953-1.69 1.222-.079.12-.095.176-.095.342.003.357.195.617.533.715 1.142.335 5.356.89 7.677 1.01.192.014.721.043 1.175.066 1.221.068 4.029.097 5.4.052 3.28-.101 6.292-.39 9.066-.865 1.354-.23 1.689-.328 1.824-.523.216-.309.199-.598-.043-.914-.427-.549-2.747-1.85-4.028-2.256l-.325-.104-.318.31c-1.354 1.31-3.141 2.083-5.8 2.512-.734.117-1.886.162-3.072.117-1.059-.04-1.27-.062-2.059-.218-1.033-.201-1.91-.429-2.191-.569a.66.66 0 0 1-.308-.38c-.053-.143.01-.348.149-.494.142-.15.354-.137 1.066.065 1.48.416 2.463.553 3.986.553 1.76 0 3.227-.205 4.548-.64 1.407-.462 2.533-1.161 3.129-1.945.152-.198.268-.448.334-.728.053-.227.102-1.034.07-1.121-.03-.072-.08-.046-.487.256a12 12 0 0 1-1.92 1.187c-1.576.78-2.907 1.138-4.651 1.261-.428.03-1.5.03-1.904-.003-1.503-.11-3.151-.562-4.46-1.222-.72-.364-1.098-.595-1.823-1.118-.526-.38-.586-.42-.613-.39m17.662-4.736c-.017 0-.17.117-.338.26-.63.527-1.165.865-2.036 1.284-1.281.615-2.516.995-4.039 1.248q-2.881.479-5.657.15c-3.003-.354-5.356-1.251-7.124-2.717-.285-.238-.364-.274-.328-.153.146.494.854 1.8 1.275 2.35.513.666 1.483 1.612 2.095 2.041 1.076.758 2.43 1.356 3.84 1.697 1.59.384 3.728.37 5.287-.036a12 12 0 0 0 2.225-.809c1.098-.536 1.718-.972 2.562-1.794.913-.894 1.287-1.405 1.87-2.546.348-.685.457-.975.368-.975m-1.518-2.35q.244-.146.483.025c.202.143.242.218.242.452 0 .198-.004.208-.156.37-.248.257-.665.56-1.288.927-.943.562-2.135 1.008-3.35 1.261-.35.072-.917.14-1.513.179-.579.042-.649.062-.903.25a1.48 1.48 0 0 1-.917.283q-.651.003-1.073-.403c-.212-.202-.268-.332-.268-.618 0-.338.05-.497.222-.682.271-.3.688-.442 1.215-.416.44.022.652.107 1.062.419l.133.1.563-.015c1.049-.033 1.989-.244 3.095-.69.483-.198 1.38-.666 1.655-.868.046-.032.218-.162.384-.286.169-.123.354-.253.414-.289m-11.86-3.37c.799-.004 2.188.02 2.315.05a.5.5 0 0 1 .364.402c.02.12.01.18-.053.303-.136.26-.192.283-.742.296l-.473.012-.023.183c-.02.152-.043.204-.146.302-.242.237-.609.237-.867-.003-.1-.091-.13-.147-.133-.231-.01-.264.04-.238-.493-.257-.503-.016-.556-.03-.698-.185-.126-.13-.163-.215-.163-.37q.002-.416.58-.488c.066-.009.266-.013.533-.014m5.952-.003c.89-.004 2.154.025 2.198.059.03.023.093.107.146.185.165.26.11.543-.15.732-.082.058-.155.071-.592.084l-.503.016-.036.17c-.053.22-.123.318-.288.402a.634.634 0 0 1-.904-.425c-.013-.062-.043-.124-.063-.137s-.179-.026-.354-.026c-.42 0-.513-.023-.646-.15a.51.51 0 0 1-.013-.74l.126-.13.374-.023c.154-.01.409-.015.705-.017m-3.19-4.384c.946-.062 2.32.013 3.343.182 2.201.358 3.853 1.09 5.194 2.292.741.663 1.31 1.81 1.32 2.646.004.48-.145.68-.509.682-.328 0-.45-.123-.526-.523-.173-.94-.414-1.394-1.086-2.032-1.192-1.137-3.142-1.898-5.502-2.148-.616-.065-2.268-.055-2.89.016-1.364.16-2.645.514-3.665 1.011-.798.39-1.3.744-1.844 1.297-.526.536-.711.884-.874 1.661-.053.257-.122.494-.155.54a.55.55 0 0 1-.636.146c-.215-.11-.347-.445-.294-.748.013-.071.043-.24.062-.373.212-1.252 1.262-2.448 2.94-3.345.202-.11.374-.199.384-.199a3 3 0 0 0 .225-.094c1.179-.53 2.847-.904 4.512-1.01m.777-6.757c-2.344.049-4.453.79-6.257 2.2a13.3 13.3 0 0 0-1.569 1.548 10.35 10.35 0 0 0-1.973 3.933c-.112.43-.162.78-.11.76a3 3 0 0 0 .286-.292c.496-.549 1.32-1.248 1.651-1.394.212-.094.46-.088.586.016s.219.335.192.488c-.026.166-.152.308-.566.63-.394.31-.903.81-1.231 1.206-.553.673-.967 1.567-1.036 2.24-.057.53-.047 2.47.013 2.809.073.419.357 1 .682 1.404.192.24.662.692.973.933.897.695 2.139 1.293 3.592 1.726 1.692.504 2.542.608 4.966.608 1.658 0 1.97-.017 2.734-.143 2.109-.352 3.996-1.05 5.326-1.974 1.126-.78 1.87-1.817 1.97-2.733.043-.394.04-1.947 0-2.448-.07-.822-.374-1.563-.963-2.34-.288-.377-1.01-1.073-1.453-1.395-1.47-1.07-3.347-1.775-5.579-2.097-1.059-.152-3.168-.156-4.243-.003-1.242.172-2.56.52-3.523.93-.642.27-.917.276-1.119.026-.053-.068-.07-.133-.07-.293 0-.185.01-.218.11-.325.325-.367 2.3-1.024 3.95-1.313.946-.166 1.4-.195 2.793-.182 1.695.02 2.238.068 3.377.312a14.5 14.5 0 0 1 3.215 1.089c1.069.527 1.853 1.076 2.754 1.928.308.292.576.523.596.516.063-.022.03-.253-.11-.783a10 10 0 0 0-3.068-5 10.22 10.22 0 0 0-6.197-2.56c-.285-.017-.6-.03-.699-.027m-.947-1.014c1.467-.17 3.191.049 4.82.605 1.47.5 2.894 1.375 4.069 2.5 1.85 1.768 2.973 3.971 3.33 6.536.11.79.122 5.786.016 6.807a9 9 0 0 1-.32 1.56c-.332 1.08-.785 1.957-1.546 2.981l-.308.416-.02.325c-.014.179-.024.816-.027 1.414l-.003 1.09.324.123c2.1.79 4.125 2.044 4.539 2.808.301.553.265 1.288-.093 1.834-.125.195-.41.458-.592.549-.255.127-.782.273-1.278.354l-.775.13c-4.21.719-9.289 1.04-13.58.865a60 60 0 0 0-1.207-.042 2 2 0 0 1-.242-.017c-.12-.01-.46-.035-.761-.055a64 64 0 0 1-7.449-.93c-.61-.113-.87-.21-1.142-.432-.778-.63-.9-1.667-.295-2.477.48-.64 2.457-1.817 4.162-2.47l.46-.176-.02-1.024a52 52 0 0 1-.017-1.43l.004-.406-.288-.387c-.788-1.06-1.202-1.834-1.55-2.896-.169-.517-.318-1.138-.357-1.486-.017-.166-.04-1.554-.053-3.082-.023-3.383 0-3.842.238-4.934.275-1.242.934-2.766 1.636-3.777 1.33-1.921 3.164-3.361 5.283-4.155a12.2 12.2 0 0 1 3.042-.721"/></svg>