<svg xmlns="http://www.w3.org/2000/svg" width="400" height="200" data-name="Layer 1" viewBox="-17.948 7.430 98.593 49.296"><path fill="#fff" d="m16.381 54.531-.553-3.271a1 1 0 0 1 .098-.627l13.106-25.275L13.271 8.046c-2.228 1.631-6.362 5.072-6.996 7.55-.983 3.844-2.824 22.846-2.589 25.197.25 1.371 6.326 7.716 12.695 13.738m26.091-34.645L17.177 9.365 30.892 24.43c1.138.735 11.625 7.469 17.37 10.058 4.216 1.9 8.818-.917 10.769-2.366z"/><path fill="#fff" d="M47.44 36.312c-5.228-2.356-13.953-7.847-16.817-9.677L17.856 51.257l.82 4.853c5.201-.998 28.917-5.564 31.672-6.408 1.232-.543 4.829-7.534 7.984-14.706-2.694 1.582-6.827 3.149-10.893 1.316z"/></svg>