<svg xmlns="http://www.w3.org/2000/svg" width="400" height="200" viewBox="0 -66.002 1504.002 752.001"><path fill="#fff" fill-rule="evenodd" d="M927.2 105.414c-46.84 0-84.82 37.706-84.82 84.217 0 23.256 9.5 44.311 24.85 59.551l22.15 14.829v115.252h1.42l1.64 7.301c5.92 12.543 19.77 21.344 35.91 21.344s29.99-8.801 35.91-21.344l1.64-7.301h1.42V262.476l19.86-13.294c15.35-15.24 24.84-36.295 24.84-59.551 0-46.511-37.97-84.217-84.82-84.217M724.32 0c195.33.631 265.53 41.821 318.56 120.397 195.39 343.513 286.56 363.453 455.85 472.513 8.17 15.48 7.17 26.38-5.29 25.83-463.84-43.16-1025.11-54.24-1470.604 1.14C2.616 621.2 7.612 611.07 0 606.66c18.031-30.26 156.68-83.85 245.2-178.128 82.8-71.363 152.22-197.535 203.41-284.425C505.53 66.677 548.48.514 724.32 0"/></svg>