<svg xmlns="http://www.w3.org/2000/svg" width="400" height="200" viewBox="-27 0 166 83"><path fill="#fff" fill-rule="evenodd" d="m62.37 51.75-1.06.27c-1.72.35-3.49.53-5.31.53-2.05 0-4.04-.23-5.95-.67l-.45-.12-.14.58q-.45 2.13-.45 4.38c0 6.01 2.44 11.45 6.39 15.39l.6.54.6-.54c3.95-3.94 6.39-9.38 6.39-15.39 0-1.03-.07-2.04-.21-3.04Zm8.42-3.78-2.23 1.41-1.85.89.24 1c.38 1.76.57 3.58.57 5.45 0 7.26-2.95 13.83-7.71 18.58l-.12.11.74.44c3.09 1.68 6.63 2.63 10.4 2.63 12.04 0 21.81-9.74 21.81-21.76 0-1.5-.15-2.96-.44-4.38l-.16-.6-1.08.28c-1.71.35-3.49.53-5.31.53-5.46 0-10.52-1.65-14.73-4.49Zm-29.66-.01-1.12.79a26.3 26.3 0 0 1-13.66 3.8c-1.82 0-3.6-.18-5.31-.53l-1.08-.28-.16.6c-.29 1.42-.44 2.88-.44 4.38 0 12.02 9.77 21.76 21.81 21.76 3.77 0 7.31-.95 10.4-2.63l.74-.44-.12-.11c-4.76-4.75-7.71-11.32-7.71-18.58 0-1.81.18-3.58.53-5.29l.3-1.15-.73-.32c-1.15-.55-2.26-1.19-3.31-1.9ZM56 40.79l-.6.55a22.2 22.2 0 0 0-3.76 5.01l-.53 1.1 2.11.41c.91.11 1.84.17 2.78.17 1.51 0 2.98-.15 4.4-.44l.48-.13-1.05-2.02c-1-1.64-2.22-3.14-3.61-4.46Zm24.04-3.76-.07.17c-.91 1.99-2.07 3.86-3.44 5.55l-2.03 2.2.75.45c3.09 1.68 6.64 2.63 10.4 2.63 1.51 0 2.98-.15 4.4-.44l.49-.13-.53-1.11a21.9 21.9 0 0 0-8.79-8.75Zm-48.07 0-2.11 1.09c-3.3 2-6.02 4.84-7.87 8.23l-.53 1.11.49.13c1.42.29 2.89.44 4.4.44 3.1 0 6.06-.65 8.73-1.81l2.41-1.25-.12-.11a26.7 26.7 0 0 1-4.54-6.06Zm18.41-.01-.86 1.78a26.4 26.4 0 0 1-4.1 5.6l-.58.54.76.46 1.2.56.86-1.76c1.21-2.23 2.75-4.27 4.53-6.06l.11-.09-.73-.45Zm11.24 0-1.19.58-.76.45 2.04 2.2c.72.91 1.39 1.86 2 2.85l1.5 2.88 1.19-.58.72-.45-.1-.09a26.7 26.7 0 0 1-4.54-6.06Zm9.21-2.05c-1.51 0-2.98.15-4.4.44l-.49.13.53 1.11c1.01 1.84 2.28 3.53 3.76 5.01l.6.55.22-.19c1.56-1.48 2.9-3.2 3.97-5.09l.7-1.39-.5-.13c-1.42-.29-2.89-.44-4.39-.44m-29.66 0c-1.03 0-2.05.07-3.05.21l-1.82.39.52 1.08c1.01 1.84 2.27 3.53 3.76 5.01l.58.53.98-.91c1.32-1.38 2.47-2.94 3.39-4.63l.53-1.11-.49-.13c-1.42-.29-2.89-.44-4.4-.44m29.66-24.62-.6.54a21.67 21.67 0 0 0-6.39 15.39c0 1.5.15 2.96.44 4.38l.16.6 1.08-.28c1.71-.35 3.49-.53 5.31-.53 1.81 0 3.59.18 5.31.53l1.08.28.12-.47c.31-1.45.47-2.97.47-4.51 0-6.01-2.44-11.45-6.39-15.39Zm-29.66 0-.59.54a21.67 21.67 0 0 0-6.39 15.39c0 1.5.15 2.96.44 4.38l.15.58.92-.22c1.77-.38 3.6-.57 5.47-.57 1.82 0 3.6.18 5.31.53l1.08.28.16-.6c.29-1.42.44-2.88.44-4.38 0-6.01-2.44-11.45-6.39-15.39ZM26.35 4.52c-12.05 0-21.82 9.74-21.82 21.76 0 8.26 4.62 15.44 11.42 19.12l1.2.58.86-1.78a26.46 26.46 0 0 1 9.5-9.95l2.97-1.54-.29-1.14c-.35-1.71-.54-3.48-.54-5.29 0-7.26 2.95-13.83 7.72-18.58l.11-.11-.73-.44a21.7 21.7 0 0 0-10.4-2.63m29.65 0c-3.76 0-7.31.95-10.4 2.63l-.73.44.11.11c4.77 4.75 7.72 11.32 7.72 18.58 0 1.81-.19 3.58-.54 5.29l-.3 1.15 1.87.9 2.24 1.41.12-.09c.7-.48 1.43-.92 2.18-1.32l1.87-.9-.3-1.15c-.35-1.71-.54-3.48-.54-5.29 0-7.26 2.95-13.83 7.72-18.58l.11-.11-.73-.44A21.7 21.7 0 0 0 56 4.52m29.65 0c-3.76 0-7.31.95-10.4 2.63l-.73.44.11.11c4.77 4.75 7.72 11.32 7.72 18.58 0 1.55-.14 3.08-.4 4.57l-.41 1.88 1.85.89c4.47 2.43 8.17 6.11 10.6 10.58l.86 1.78 1.2-.58c6.8-3.68 11.42-10.86 11.42-19.12 0-12.02-9.77-21.76-21.82-21.76m0-4.52C100.2 0 112 11.76 112 26.28c0 9.97-5.58 18.65-13.79 23.1l-1.87.9.3 1.15c.35 1.71.53 3.48.53 5.29C97.17 71.24 85.38 83 70.83 83c-5.46 0-10.53-1.65-14.74-4.49l-.09-.07-.09.07A26.26 26.26 0 0 1 41.17 83c-14.55 0-26.34-11.76-26.34-26.28 0-1.81.18-3.58.53-5.29l.3-1.15-1.87-.9C5.58 44.93 0 36.25 0 26.28 0 11.76 11.8 0 26.35 0c5.46 0 10.52 1.65 14.73 4.49l.09.07.1-.07C45.47 1.65 50.54 0 56 0s10.53 1.65 14.73 4.49l.1.07.09-.07C75.13 1.65 80.19 0 85.65 0"/></svg>