<svg xmlns="http://www.w3.org/2000/svg" width="400" height="200" viewBox="-205.521 25.239 923.042 461.521"><path fill="#fff" d="M497 90.991h-49.442c-105.278 0-179.228-19.819-276.991-58.931-4.585-1.816-9.829-1.26-13.975 1.509A15.02 15.02 0 0 0 150 45.991v210a15.01 15.01 0 0 0 9.434 13.931c101.309 40.518 179.008 61.069 288.124 61.069H497c8.291 0 15-6.709 15-15v-210c0-8.291-6.709-15-15-15m-482 390h331c8.291 0 15-6.709 15-15v-30H90c-24.814 0-45-20.186-45-45v-150H15c-8.291 0-15 6.709-15 15v210c0 8.291 6.709 15 15 15"/><path fill="#fff" d="M120 255.991v-90H90c-8.291 0-15 6.709-15 15v210c0 8.291 6.709 15 15 15h331c8.291 0 15-6.709 15-15v-30.293c-110.931-1.518-191.02-24.245-287.714-62.915C131.089 290.884 120 274.478 120 255.991"/></svg>