<svg xmlns="http://www.w3.org/2000/svg" width="400" height="200" viewBox="0 -5.589 78 39"><path fill="#fff" d="M47.7 1c-.3.8-.8 3.7-1.2 6.5-1.3 9.7-2.6 13.6-5.1 14.6-1.3.4-2.4 1.3-2.4 1.9 0 .5-1.1 1-2.5 1-1.8 0-2.6-.7-3.1-2.5-.7-3-2-3.2-2.9-.5-.6 2-.7 2-2.4-.1-1.6-2-2.9-2.3-14.9-2.7-9.5-.3-13.2-.1-13.2.7 0 .7 3.7 1.1 11.9 1.1 6.6 0 12.7.3 13.6.6.8.4 2.3 2 3.1 3.7 1.2 2.3 1.8 2.7 2.5 1.6.5-.8 2.1-1.2 4.3-1.1 1.9.2 4.3-.2 5.1-1 4.9-3.9 5.4-4.9 6.6-12.2L48.4 5l1.3 5.2c.7 2.9 2.2 6.4 3.2 7.8 1.7 2.4 2.3 2.5 13.5 2.8 8.3.2 11.6-.1 11.6-.9 0-.9-2.8-1-10.5-.5-10.2.7-10.5.7-12.9-1.7-1.5-1.5-2.8-4.5-3.5-8.3-1.5-7.6-2.7-10.5-3.4-8.4"/></svg>