<svg xmlns="http://www.w3.org/2000/svg" width="400" height="200" viewBox="-5.486 -60.549 966.881 483.441"><path fill="#fff" fill-rule="evenodd" d="M872.767 7.25c-3.071 4.04-5.129 8.074-6.76 13.25-.693 2.2-1.964 4.806-2.825 5.791-1.424 1.628-1.407 2.057.183 4.75 1.707 2.89 1.7 2.959-.328 2.959-1.142 0-3.755-1.051-5.807-2.337-14.388-9.012-30.459-7.068-47.041 5.692-7.494 5.766-12.538 11.411-15.512 17.359-3.34 6.682-8.677 22.561-8.677 25.818 0 5.668-3.199 23.925-5.067 28.917-2.377 6.353-8.165 13.332-12.59 15.181-5.014 2.095-15.182 1.765-19.093-.619-1.788-1.09-3.25-2.353-3.25-2.806 0-.454-1.975-3.138-4.389-5.966-3.092-3.623-4.746-6.706-5.602-10.44-.668-2.914-2.68-7.561-4.473-10.325s-3.568-5.999-3.945-7.189c-.378-1.189-2.309-3.586-4.292-5.327s-5.297-5.306-7.364-7.921c-3.018-3.819-4.702-4.993-8.548-5.961-2.766-.697-6.338-2.606-8.457-4.52-4.027-3.639-9.975-6.039-13.002-5.247-2.557.668-10.265-1.538-16.118-4.613-3.616-1.899-5.691-2.351-9.06-1.971-3.63.409-5.616-.136-11.746-3.223-6.545-3.296-8.174-3.704-14.441-3.615-4.569.065-8.099-.44-9.996-1.429-2.122-1.106-5.582-1.482-12.5-1.356-5.271.095-10.831-.338-12.382-.964-4.991-2.017-10.839-1.401-15.203 1.603-3.45 2.374-5.292 2.821-13.787 3.345-10.713.661-13.707 2.003-16.727 7.494-1.192 2.169-3.042 3.38-7.19 4.71-6.332 2.029-10.355 5.506-11.288 9.757-.368 1.673-2.251 4.179-4.445 5.918-4.882 3.866-6.703 7.812-8.584 18.596-1.088 6.244-2.211 9.541-3.951 11.609-2.288 2.719-2.823 4.454-3.924 12.705-.248 1.856-1.559 4.556-2.913 6s-2.787 4.163-3.184 6.042c-.396 1.879-1.567 4.804-2.601 6.5s-1.882 3.853-1.884 4.794c-.002.942-1.691 3.509-3.754 5.706-4.724 5.032-9.115 10.512-12.285 15.329-2.654 4.034-4.806 5.017-14.812 6.767-3.491.611-7.541 1.587-9 2.17-1.459.584-7.828 2.528-14.153 4.321-6.325 1.794-15.962 5.129-21.416 7.412-18.68 7.818-69.288 24.415-85.584 28.067-9.682 2.169-32.636 5.563-44.5 6.579-4.4.377-8.762.824-9.694.993s-4.757.615-8.5.99-7.219.929-7.723 1.23c-.504.302-3.325.726-6.269.942s-8.831 1.043-13.083 1.839c-4.252.795-15.992 2.34-26.088 3.434-57.301 6.205-111.025 19.889-150.18 38.252-12.75 5.979-27.341 14.875-45.296 27.614-14.341 10.176-14.947 10.75-18.25 17.31-2.12 4.208-3.417 8.243-3.417 10.628 0 2.113-.626 6.062-1.391 8.774C6.07 337.575 6.04 338 7.942 338c.965 0 5.311-3.148 9.657-6.995 19.044-16.859 65.658-35.172 109.724-43.107 24.169-4.352 36.048-5.073 90.677-5.508 51.956-.413 90.077-1.603 107.5-3.355 4.95-.498 14.175-1.403 20.5-2.013 33.537-3.231 80.876-13.734 124.926-27.715 14.262-4.526 14.535-4.57 24-3.879 17.514 1.278 24.903 2.065 25.56 2.723 1.241 1.243 2.329 29.089 1.394 35.689-.507 3.584-2.77 10.823-5.027 16.088-4.803 11.199-5.069 14.606-1.997 25.572 1.233 4.4 2.65 12.893 3.15 18.874.499 5.98 1.117 11.082 1.371 11.337 1.73 1.729 17.424 2.695 41.623 2.562 15.125-.084 29.3-.292 31.5-.463 5.179-.401 5.256-2.542.193-5.382-4.921-2.76-11.757-4.157-24.326-4.971-5.573-.361-11.196-1.186-12.496-1.834-3.94-1.964-7.123-8.976-7.255-15.981-.174-9.245 2.379-26.649 4.535-30.907 1.048-2.071 6.28-8.396 11.627-14.054 10.015-10.599 17.355-21.616 21.137-31.726l2.071-5.533 11.257-1.264c6.191-.695 13.732-1.676 16.757-2.18s10-1.63 15.5-2.502 13.825-2.477 18.5-3.568 11.114-2.598 14.308-3.349l5.808-1.365-.525 2.653c-.289 1.459-1.192 6.928-2.007 12.153-.814 5.225-2.004 12.819-2.644 16.875-.639 4.056-2.07 9.424-3.178 11.93-3.324 7.514-14.427 23.753-18.801 27.497-2.25 1.925-3.721 3.728-3.27 4.007 1.785 1.103 6.399-.694 10.253-3.993 4.508-3.859 4.677-3.801 2.617.9-.791 1.806-1.703 4.534-2.026 6.062-.363 1.716-2.092 3.819-4.523 5.5-2.165 1.497-3.953 3.059-3.974 3.472s1.59.75 3.58.75c2.92 0 4.413-.805 7.75-4.18 3.285-3.323 4.76-4.13 7.194-3.939 5.179.406 12.084-8.229 22.297-27.881 3.489-6.713 6-14.49 10.174-31.5 2.734-11.146 4.723-17.343 4.974-15.5.114.834.828 6.993 1.97 17 .597 5.225.794 13.325.438 18-.918 12.076-.544 32.569.685 37.4.573 2.255 1.45 6.345 1.948 9.088 1.043 5.738 2.845 10.512 3.967 10.512.425 0 1.027-3.488 1.337-7.75.571-7.854 4.316-34.588 4.588-32.75.081.55.543 5.5 1.028 11 1.283 14.574 4.677 21.712 8.503 17.886 1.657-1.656 2.151-6.889.558-5.904-1.563.966-2.342-4.175-1.64-10.821.358-3.389.879-10.661 1.157-16.161.279-5.5.771-10.675 1.094-11.5s.904-9.381 1.291-19.013c.388-9.633 1.124-18.247 1.637-19.143s4.532-4.322 8.932-7.614 10.475-8.544 13.5-11.671c3.135-3.241 7.551-6.575 10.27-7.754 7.64-3.313 13.69-10.771 17.351-21.387 3.491-10.123 5.128-11.673 17.879-16.93 9.878-4.073 17.218-11.257 22.309-21.836 6.655-13.827 9.237-29.065 7.284-42.995-1.386-9.889-.028-13.405 6.611-17.115l4.505-2.518 13.145 3.888c7.231 2.139 15.846 4.647 19.146 5.575 3.913 1.099 10.623 4.661 19.295 10.24 13.634 8.772 15.888 10.585 22.573 18.158 3.587 4.064 4.226 4.382 8.816 4.382 2.722 0 5.953-.538 7.18-1.194 2.906-1.555 5.342-5.338 3.774-5.86-.786-.262-.674-1.038.363-2.518 2.75-3.927 1.758-4.449-4.001-2.109-1.674.68-1.552.279.75-2.463 1.513-1.802 2.75-3.961 2.75-4.799 0-1.254-.625-1.153-3.557.577-1.957 1.155-3.749 2.099-3.984 2.099s.322-1.569 1.236-3.487c.915-1.919 1.379-3.773 1.03-4.121-.348-.348-2.524.865-4.835 2.695l-4.203 3.329.518-2.708c.589-3.08-.685-3.489-3.351-1.076-1.668 1.51-1.994 1.506-4.359-.044-1.62-1.061-2.489-2.484-2.371-3.881.103-1.214.117-3.289.032-4.612-.147-2.265-.262-2.309-1.985-.75-2.454 2.221-3.475 2.092-2.206-.279 1.73-3.234 1.23-4.553-.971-2.56-2.664 2.41-3.563 1.281-1.994-2.506 1.531-3.697.686-4.931-1.823-2.661-2.014 1.824-4.177 2.196-4.177.72 0-.518.45-1.219 1-1.559s1-1.255 1-2.034c0-1.118-.557-1.205-2.639-.413-2.999 1.14-4.304.49-2.544-1.27 1.946-1.946 1.347-3.048-1.375-2.527-1.883.36-2.419.127-2.031-.884.336-.876-.185-1.372-1.442-1.372-1.214 0-1.969-.676-1.969-1.763 0-.969-.843-2.207-1.873-2.75-2.727-1.437-12.003-8.869-12.07-9.67-.031-.375.817-.96 1.886-1.299 2.286-.725 8.36 2.164 12.359 5.879 1.54 1.432 3.473 2.603 4.293 2.603.867 0 1.369.734 1.199 1.75-.216 1.287.301 1.687 1.956 1.512 1.659-.176 2.25.284 2.25 1.75 0 2.108 1.459 2.673 2.51.972 1.095-1.773 2.241-.131 1.739 2.492-.474 2.484 1.029 3.502 2.251 1.524 1.089-1.762 2.331-1.069 1.79 1-.6 2.292 1.557 2.745 3.573.75 1.016-1.006 1.06-.713.225 1.5-.814 2.156-.746 2.75.314 2.75.744 0 1.909-.67 2.589-1.489 1.841-2.218 3.1-.806 1.809 2.029-1.433 3.145-.357 4.274 2.023 2.121 2.813-2.547 3.414-2.022 2.677 2.339-.526 3.114-.36 4 .752 4 .785 0 2.008-1.237 2.719-2.75l1.291-2.75.952 2.75c1.141 3.294 2.404 3.528 3.328.618.526-1.658.865-1.827 1.526-.758.676 1.094 1.102 1.12 2.09.132 2.099-2.099 5.604-1.39 9.337 1.888 3.454 3.032 3.515 3.206 1.955 5.587-1.98 3.022-1.36 3.84 1.677 2.215 2.291-1.226 2.293-1.221.586 1.384-2.252 3.436-2.163 3.955.537 3.139 6.163-1.862 10.391-9.549 8.674-15.769-.769-2.784-1.809-3.685-6.497-5.628-3.069-1.272-8.134-3.981-11.254-6.02S920.55 75.272 914.5 71.533c-20.646-12.758-27.087-17.454-29.257-21.325-3.964-7.074-6.444-19.66-6.322-32.085.143-14.476-1.376-17.159-6.154-10.873M663.615 300.465c-2.066 3.153-2.197 5.263-.226 3.627 1.148-.952 2.908-6.092 2.087-6.092-.135 0-.973 1.109-1.861 2.465"/></svg>