<svg xmlns="http://www.w3.org/2000/svg" width="400" height="200" viewBox="4.272 -2.019 663.271 331.635"><path fill="#fff" d="M509.9 6.3c-3.1 2.2-3.4 2.7-3.3 7.3.1 2.8 2.1 11.3 4.4 18.9 6.4 21.3 7.3 24.5 6.9 24.9-.2.2-11.4 3.9-24.9 8.1s-24.7 7.9-24.9 8.1 2.1 8.6 5.2 18.6c9.1 29.8 9.3 31.2 5.1 32.8-7.2 2.8-8.3 1-17.1-26-3.6-11.3-6.7-20.6-6.9-20.8-.3-.5-35.4 10.5-36.2 11.2-.3.4 1.7 8.2 4.6 17.4 5.7 18.8 8.2 28.1 8.2 31 0 2.2-4.6 4.6-7.6 4-2.9-.5-5.4-5.9-12.4-26.7-4.9-14.7-7-19.7-8.4-19.9-2.5-.5-33.7 9-34.3 10.4-.2.7 2.3 10.2 5.6 21.3 3.4 11.1 6.4 21.8 6.7 23.9.6 3.6.4 3.9-3 5.7-6.8 3.7-9.4-.2-17.7-25.8-3.4-10.6-6.5-19.6-6.9-20-.7-.7-33.7 8.8-35.1 10.2-.4.3 1.7 8.5 4.7 18 5.8 18.9 7.9 28.1 6.9 31.1-.9 2.7-8.2 4.7-10.2 2.7-.8-.8-4.7-11.5-8.8-23.8-4-12.3-7.8-22.5-8.5-22.7-1.1-.4-31.5 9.2-33.8 10.7-1.5.9-.3 6 7.3 31.1 1.9 6.3 3.4 13.2 3.5 15.3 0 3.5-.3 3.9-3.7 5.4-2.4.9-4.3 1.2-5.2.6-1.8-1.1-5.8-11.5-12.3-32.1-3-9.3-5.6-16.1-6.2-15.9-.6.3-8.7 2.8-18.1 5.7-9.3 2.9-17.2 5.5-17.4 5.6-.2.2 1.7 7 4.2 15.1 5.9 18.8 8.7 29.2 8.7 31.9 0 5-8.4 7.5-11.3 3.3-.9-1.1-4.8-11.8-8.8-23.7-3.9-12-7.3-21.8-7.4-21.9-.1-.2-6.4 1.8-14.1 4.2-24.2 7.9-40.6 17.5-50.1 29.4-5.5 6.9-14.7 25.4-16.8 34-1.1 4.4-1.6 10.6-1.6 19.6l.1 13.2-5.8 1.7c-56.7 17.4-98.5 31.1-103.7 33.9-6.8 3.8-7 11.1-.4 16 2.7 1.9 2.7 1.9 12.6-.6 5.5-1.4 31-9.1 56.9-17.2 42.4-13.2 47-14.5 47.9-12.9 11.7 19.9 24.1 31 44 39.5 9.5 4.1 16.2 5.4 28 5.4 12.3-.1 13-.2 56-13.1 32.7-9.8 63.4-19.4 159-49.4 43.5-13.7 82.8-26.1 87.5-27.5 4.7-1.5 21.3-6.7 36.9-11.6 15.6-5 28.7-8.6 29.1-8.2s3.8 10 7.6 21.3c7.1 21.3 9.1 25 13.8 25 5.9 0 11.6-4.4 11.6-8.9 0-3.8-4-18-13.7-49.4-5.2-16.6-8.3-28.1-7.7-28.6.9-.9 56-18.6 59.9-19.3 1.6-.2 2.4 1.2 5.5 10.2 5.4 16 7.8 19 15.1 19 3.4 0 7.5-3.5 8.4-7.3 1-3.9-15.4-59.5-34.7-117.5-8.5-25.8-10.9-30.2-16.2-30.2-5.8 0-10.6 4.8-10.6 10.7 0 1.5 1.4 7.9 3.2 14.1 1.7 6.1 2.9 11.5 2.5 11.8-.7.7-59.7 19.4-61.3 19.4-.5 0-2-3.3-3.3-7.3-8-25.7-19.6-60.9-21.3-65-3.3-7.6-9.5-9.7-15.9-5.4"/></svg>