<svg xmlns="http://www.w3.org/2000/svg" width="400" height="200" viewBox="-206.623 -7.082 1514.540 757.270"><path fill="#fff" fill-rule="evenodd" stroke="#fff" stroke-miterlimit="8" stroke-width="4.583" d="M459.58 16.34C594.27-6.2 618.69 4.84 671.49 6.89c53.94 16.94 129.3 56.91 163.32 99.6 26.61 33.53 33.76 60.61 79.72 78.64 12.79 35.93 34.29 59.78 49.21 84.78 3.04 36.19-5.45 35.44-13.95 70.92 10.04 28.7 40.1 37.92 52.43 66.8 10.63 26.56-9.57 7.36-24.87 45.83 13.08 68.19 4.44 39.98 10.46 66.68 8.79 25.6 34.79 27.52 52.59 57.14s71.5 106.3 54.23 120.6c-25.3 7.42-33.3-1.42-56.32 42.63-49.3 1.75-161.47-8.03-234.88-2.71-47.79-61.27-62.54-36.17-88.79-64.65-26.25-28.49-42.74-27.35-68.71-106.26-53.27 22.62-100.77-14.78-165.29 54.81-37.82 36.53-106.67 62.84-225.44 67.84-65.848 4.29-127.712-39.27-161.139-77.08-51.211-47.8-55.391-7.71-76.486-37.36-29.256-67.38-9.899-199.33 24.83-285.5 48.317-88.28 98.901-183.57 183.546-231.53C386.44-16.73 385.32 24.87 459.58 16.34Z"/></svg>