<svg xmlns="http://www.w3.org/2000/svg" width="400" height="200" viewBox="-305.404 -8.132 1813.010 906.505"><path fill="#fff" fill-rule="evenodd" stroke="#fff" stroke-miterlimit="8" stroke-width="4.583" d="M283.99 56.75c161.87-87.39 312.53-49.72 420.1-13.69 96.53 42.96 117.42 83.27 172.05 113.03 59.15 54.56 145.95 9.85 155.73 65.53 43.42 50.7-39.96 109.55-63.77 132-23.81 22.46-60.37-13.75-79.1 2.74-22.91 5.51-16.7 42.98-26.29 57.7L926.44 431c30.19 63.34 64.42 70.65 97.71 63.81 28.99 7.93 53.18 36.11 67.47 50.58 14.29 14.48-5.65 28.6 8.44 59.03 35.24 82.48-20.82 85.18-12.42 123.4 23.57 44.77 74.66 60.35 111.39 104.06-45.68 26.13-325 65.31-385.48 52.74-7.62-54.84 34.41-66.19 9.08-125.73-50.77-90.12-58-43.76-87-65.65-14.69 10.46-23.42-52.63-59.83-39.34-45.83 12.68-82.38 68.68-127.86 108.82-35.13 26.6-74.43 28.15-107.55 43.63s-52.78 55.44-91.18 49.25-69.83-48.6-110.73-70.64c-40.91-22.04-118.74-96.49-157.72-136.61-46.75-6.1-80.1-97.98-77.44-162.14S49.92 334.98 96.7 263.4s25.42-119.26 187.29-206.65Z"/></svg>