<svg xmlns="http://www.w3.org/2000/svg" width="400" height="200" viewBox="-44.5 0 178 89"><path fill="#fff" fill-rule="evenodd" d="M89 40v9h-8.94l.11-1.51L80 40Zm-4 23.3L80.52 71 73 66.7l2.44-3.74L77.48 59ZM71 80.49 62.65 85 58 77.47l7.05-3.62 1.33-.85ZM49 80v9h-9v-8.94l1.51.11Zm-19-2.52L25.7 85 18 80.52 22.3 73l3.74 2.44ZM16 66.74 8.52 71 4 63.29 11.53 59l3.62 6.5ZM9 49H0v-9h8.94l-.11 1.51Zm7-26.34-2.44 4.05L11.52 31 4 26.34 8.48 18Zm14-11.13-6.5 3.62-1.24.85L18 8.51 25.71 4ZM49 0v8.94l-1.51-.11L40 9V0Zm22 8.48L66.34 16l-4.05-2.44L58 11.52 62.66 4Zm14 17.87L77.47 31l-3.62-7.05-.85-1.33L80.48 18Z"/></svg>