<svg xmlns="http://www.w3.org/2000/svg" width="400" height="200" viewBox="19.862 12.403 54.387 27.193"><path fill="#fff" d="M30 16.5V20h-5c-3.8 0-5 .4-5 1.5s1.2 1.5 5.1 1.5c4.7 0 5 .1 4.4 2.2-1 3.4-3.8 7-7.3 9.4-2.2 1.5-2.8 2.4-2 3.2 1.8 1.8 6.6-1.4 9.7-6.3l2.7-4.3 1.9 3.5c1.1 1.9 3.5 4.7 5.3 6.1 2.8 2.1 3.5 2.3 4.3 1.1.6-1-.2-2.3-3.1-4.8-3.5-2.8-7-7.7-7-9.6 0-.3 2.5-.5 5.5-.5 4.2 0 5.5-.3 5.5-1.5S43.7 20 38.9 20h-6.1l.6-3.5c.6-3.1.4-3.5-1.4-3.5-1.6 0-2 .6-2 3.5m22 0c0 1.2 1.7 1.5 9.5 1.5s9.5-.3 9.5-1.5-1.7-1.5-9.5-1.5-9.5.3-9.5 1.5m-3 7c0 1 1.1 1.5 3.5 1.5 3.2 0 3.5.2 3.5 3 0 3-2 5.8-5.6 7.8-1.5.8-1.6 1.4-.7 2.3s1.9.6 4.3-1.1c3.3-2.4 5-5.6 5-9.6 0-1.7.5-2.4 2-2.4 1.8 0 2 .7 2 5.8 0 6.6 1.1 8.2 5.4 8.2 4 0 5.5-1 5.8-3.9.4-3-1.8-3.9-2.5-1.1-.4 1.6-1.2 2.1-2.9 1.8-2-.3-2.3-.9-2.6-5.6l-.3-5.2h4c3 0 4.1-.4 4.1-1.5 0-1.3-2.1-1.5-12.5-1.5S49 22.2 49 23.5"/></svg>