<svg xmlns="http://www.w3.org/2000/svg" width="400" height="200" viewBox="-197.154 -6.022 1408.231 704.115"><path fill="#fff" fill-rule="evenodd" stroke="#fff" stroke-miterlimit="8" stroke-width="4.583" d="M351.03 14.28C476.97-6.502 592.82.871 677.67 36.477c83.16 19.958 126.41 82.706 171.34 125.417 80.39 31.12 71.35 35.865 84.75 63.288 9.07 60.148-46.94 71.128-41.78 104.948l46.4 79.02c16.53 21.21-12.65 68.43-.45 104.89 12.2 36.45 55.79 49.66 73.65 113.84-5.99 23.4-73.78 35.83-109.6 26.53l-99.9 13.26c3.41 5.05-27.44 30.78-65.64 18.19 6.54-9.01 15.55-49.99-58.53-66.95-30.9-22.64-56.66-53.04-64.19-84.02-30.15-9.53-30.95 36.97-94.95-1.4-60.79 21.3-14.37 91.03-113.59 104.06-99.96 11.87-15.57-26.08-240.75-39.02-52.5-35.62-96.05 40.43-157.29-138.36-14.51-69.36 2.49-200.959 70.26-277.804S225.1 35.062 351.03 14.28Z"/></svg>