<svg xmlns="http://www.w3.org/2000/svg" width="400" height="200" viewBox="-696.5 -717 3108 1554"><path fill="#fff" d="m1060 800-76-89Q805 837 597 837q-239 0-396.5-128.5C43 580 43 515.333 43 386Q43 89 448-68 315-243 315-384c0-97.33 40.833-177.17 122.5-239.5C519.167-685.84 623.333-717 750-717q198 0 325.5 87C1203-543 1203-497.67 1203-407c0 156.67-118.67 269.668-356 339q169 265 316 456c72.67-88.667 109-176.333 109-263q0-61.002-72-61c-10.67 0-27.01-1-49-3l-16-1V-64h537V60l-22 1c-45.33 2.667-78.5 12.833-99.5 30.5S1506 147 1480 205c-46 100.667-121.67 196-227 286 60 79.333 106.67 129.833 140 151.5s81.33 32.5 144 32.5l30 2v123zM778-181q130-103.995 130-255c-.003-52-10.17-90.83-30.5-116.5-20.333-25.67-50.833-38.5-91.5-38.5q-62.001 0-93.5 33c-21 22-31.5 55.34-31.5 100 0 56.67 39 149 117 277m131 791Q695 356 517 58q-113 84-113 213 0 148 106.5 261.5C617 646 663 646 755 646q70 0 154-36"/></svg>