<svg xmlns="http://www.w3.org/2000/svg" width="400" height="200" viewBox="-776.5 -680 2960 1480"><path fill="#fff" d="m580-582-16-23q-31-43.005-33-75h345q-3 31.995-33 75l-16 23h185c102 0 164.5 11.67 187.5 35s34.5 85.67 34.5 187v938c0 95.333-13.84 156.167-41.5 182.5Q1150.995 800 999 800H407q-151 0-192.5-39.5C173 721 173 673.333 173 578v-938c0-101.33 11.5-163.67 34.5-187 23-23.34 85.5-35.01 187.5-35zM457-434h493l-197-98v-50l49-49H605l49 49v50zm92-98H395c-81.333.02-130.5 8.35-147.5 25Q222-481.995 222-360v938q0 117 28 145t145 28h617c78 0 126.33-9.333 145-28s28-67 28-145v-938q0-121.995-25.5-147c-25.5-25.005-66.17-25-147.5-25H858l109 54c50.67 24.67 78 56 82 94H358c4-38 31.333-69.33 82-94z"/></svg>