<svg xmlns="http://www.w3.org/2000/svg" width="400" height="200" viewBox="-182.771 -5.639 1376.388 688.194"><path fill="#fff" fill-rule="evenodd" stroke="#fff" stroke-miterlimit="8" stroke-width="4.583" d="M290.51 46.847c77.61-18.541 213.55-60.733 304.92-36.642 81.12 7.001 148.14 71.295 169.53 86.528 52.47 48.091 65.37 28.167 83.16 39.74 22.73 8.708 16.46 11.384 32.01 37.649 10.65 30.176-27.14 33.869-40.44 93.872 14.18 29.885 34.58 29.959 51.87 44.938 14.51 27.879 44.62 91.237 75.06 135.421 18.59 25.304 1.16 45.322 39.96 124.75 10.42 26.524-23.37 27.439-48.55 28.89-3.01 9.159-14.87 7.718-13.24 18.355-6.98 30.928 28.11 37.144-14.88 45.916-18.46 8.08-88.5 7.801-116.14 7.634-27.63-.168-33.74-3.67-52.26-8.434-2.19-16.312.53-15.717-38.55-25.223-8.75-13.864 13.69-50.415-41.49-35.923-35.89-13.779 3.97-33.099-18.43-43.683-85.52-13.268-37.04-21.79-88.45-41.857-30.81-7.086-17.68 16.097-62.65 8.792-20.09 14.563 6.88 51.399-54.78 53.333 9.93 31.502-3.9 61.192-39.95 39.41-19.59 11.385-23.51 18.98-70.01 26.571-88.69-5.996 18.24 13.752-207.25 18.84C84.77 634.41 64.49 625.25 13.54 530.148-2.87 431.704-7.19 337.101 42.37 257.764 91.86 156.018 184.35 85.779 290.51 46.847Z"/></svg>