<svg xmlns="http://www.w3.org/2000/svg" width="400" height="200" viewBox="-33.535 -1.846 695.385 347.692"><path fill="#fff" fill-rule="evenodd" stroke="#fff" stroke-miterlimit="8" stroke-width="4.583" d="m179.928 4.715 2.249 2.32 58.695 56.895L301.96 4.715l36.75 37.912-95.523 92.593-2.244 2.315-.071-.07-.071.069-2.233-2.303-58.713-56.911-31.678 30.707 198.866 192.77-36.749 37.911L3.815 42.628l36.75-37.913 69.681 67.545 67.3-65.236 2.238-2.309.072.07ZM494.167 2.5h44.667v55.331H624.5v44.422h-85.666v47.157H624.5v44.422h-85.666v47.156H624.5v44.423h-85.666V341.5h-44.667v-56.089H408.5v-44.423h85.667v-47.156H408.5V149.41h85.667v-47.157H408.5V57.831h85.667Z"/></svg>