<svg xmlns="http://www.w3.org/2000/svg" width="400" height="200" viewBox="-367 -717 3108 1554"><path fill="#fff" d="M876-328v136c238.67 97.333 358 263.667 358 499 0 146.667-51.83 271.667-155.5 375Q923 837 703 837q-219 0-374.5-155C173 527 173 454.333 173 309q0-344 358-501v-136c33.333-17.34 74.667-30 124-38v-21c.001-68.67 22.334-126.5 67-173.5Q789-631 886-631q131.003 0 316 159l53 46c128 110 232.33 165 313 165 27.33 0 61.33-10.67 102-32 6-3.37 14-5.03 24-5 30.67 0 46 12.34 46 37 0 26-18.17 49-54.5 69s-77.83 30-124.5 30c-99.33 0-222.67-62-370-186l-57-48c-108-90.67-191.333-136-250-136-86.667 0-130 55.33-130 166 43.333 9.33 84 22 122 38m474-356 40-33 246 324zm346-33h51l-24 293zm355 0 41 31-280 294zm92 331 8 47-294 27zm58 348-24 41-337-225zm-310 142-48 17-74-284zm-338 120-47-17 167-372z"/></svg>