<svg xmlns="http://www.w3.org/2000/svg" width="400" height="200" viewBox="-1079.5 -711 3096 1548"><path fill="#fff" d="M493-132v63q159 15 203 52.5C740 21 740 60.333 740 139v518q-.001 95-63.5 137.5T472 837q-132 0-221-48-38-21-46-40.5t-8-89.5V140q0-93 8.5-117Q214-1.003 255-23q62-34.002 189-46v-63q-84-5-134.5-52c-33.667-31.33-50.5-70.67-50.5-118 0-51.33 21.667-108 65-170l25-37q67-96 67-165c-.003-8.67-1.337-21-4-37 169.333 96 254 217.67 254 365q0 82.995-43 136.5Q580-156 493-132m-35-496c-7.333 36-32 88.33-74 157l-22 37c-36 60-54 105.33-54 136 0 34 14.667 63.17 44 87.5q44 36.503 105 36.5 66 0 112.5-46.5C616-267 616-289 616-333c0-99.33-52.667-197.67-158-295M444 35v-51Q259-1.996 259 43q0 20.004 63 37 63 17.004 138 17 108 0 162-14c54-14 54-23 54-41q0-43.003-183-58v51zm246 61q-39 25-94.5 37.5Q540 146.011 468 146q-71 0-126.5-12.5C286 121 272.667 112.667 246 96v561q0 65 55.5 98C357 788 394 788 468 788s129.5-11 166.5-33 55.5-54.667 55.5-98z"/></svg>