<svg xmlns="http://www.w3.org/2000/svg" width="400" height="200" viewBox="-85.585 61.233 558.029 279.014"><g fill="#fff"><path d="M264.973 208.335c-4.195 9.604-15.38 13.988-24.984 9.794-9.603-4.195-13.988-15.38-9.793-24.983 4.194-9.604 15.38-13.988 24.983-9.794 9.603 4.195 13.988 15.38 9.794 24.983"/><path d="M302.014 76.123c-68.824-30.06-148.986 1.364-179.047 70.188-9.054 20.73-12.523 42.488-11.079 63.598a65 65 0 0 1 3.621-1.552c12.949-5.076 28.304-6.493 42.128-3.887 4.933.93 9.593 2.344 13.851 4.204 12.217 5.336 21.025 14.154 25.472 25.5 5.996 15.295 2.838 32.977-8.662 48.512-7.008 9.466-16.724 17.582-27.3 22.956 9.524 7.852 20.284 14.53 32.156 19.715 68.824 30.061 148.987-1.363 179.047-70.187s-1.363-148.986-70.187-179.047m-69.62 159.394c-19.175-8.375-27.962-30.79-19.587-49.966s30.791-27.963 49.967-19.587c19.176 8.375 27.963 30.79 19.587 49.966s-30.791 27.963-49.967 19.587"/><path d="M154.122 223.116c-10.416-1.964-21.966-.905-31.687 2.907-12.857 5.039-18.288 13.321-20.582 19.38-1.695 4.479-2.309 9.317-1.861 14.331-1.183-.222-2.431-.567-3.888-.97-5.573-1.543-13.205-3.657-23.998.575-10.797 4.232-14.964 10.969-18.005 15.888-2.504 4.048-3.882 6.278-8.792 8.203s-7.436 1.226-12.024-.043c-5.574-1.542-13.21-3.653-24.006.58a9.487 9.487 0 0 0-5.37 12.295 9.46 9.46 0 0 0 5.035 5.232 9.45 9.45 0 0 0 7.26.138c4.91-1.924 7.436-1.225 12.023.043 5.575 1.542 13.21 3.653 24.007-.579s14.963-10.969 18.005-15.889c2.503-4.048 3.882-6.278 8.792-8.203 4.902-1.921 7.427-1.223 12.009.047 3.994 1.106 9.047 2.504 15.563 1.65 3.382 5.245 7.768 9.284 12.955 11.865q.637.318 1.336.624c5.891 2.573 15.02 4.278 26.933-.393 9.722-3.81 18.914-10.882 25.222-19.402 7.641-10.322 9.86-21.082 6.247-30.298-3.613-9.217-12.552-15.602-25.174-17.981"/></g></svg>