<svg xmlns="http://www.w3.org/2000/svg" width="400" height="200" viewBox="-165.446 -0.223 660.892 330.446"><path fill="#fff" d="M329.997 18.837q-.003-.705-.071-1.406c-.023-.238-.067-.47-.102-.705-.037-.248-.065-.498-.114-.744-.052-.266-.125-.524-.191-.785-.054-.213-.101-.427-.164-.637-.078-.258-.174-.507-.265-.759-.076-.209-.144-.42-.229-.626-.1-.24-.216-.471-.327-.705-.099-.208-.191-.419-.301-.623-.124-.232-.265-.454-.401-.678-.117-.194-.226-.391-.352-.58-.174-.261-.367-.508-.557-.758-.107-.14-.203-.285-.314-.421a15 15 0 0 0-2.111-2.11c-.131-.107-.269-.199-.402-.301-.255-.195-.509-.392-.777-.571-.183-.122-.373-.227-.559-.34-.232-.141-.46-.286-.701-.414-.194-.104-.395-.192-.593-.286-.245-.117-.486-.238-.738-.342-.191-.079-.387-.142-.581-.212-.267-.098-.531-.199-.805-.282-.189-.057-.381-.098-.572-.147-.283-.073-.563-.151-.852-.208-.209-.041-.42-.064-.631-.096-.272-.042-.542-.091-.82-.118-.34-.033-.681-.041-1.022-.052-.149-.004-.294-.023-.444-.023h-47.359c-8.284 0-15 6.716-15 15s6.716 15 15 15h11.148l-22.598 22.598c-17.445-13.128-39.123-20.919-62.587-20.919-15.969 0-31.107 3.612-44.651 10.054-13.543-6.442-28.682-10.054-44.651-10.054C46.79 35.586 0 82.377 0 139.889c0 52.419 38.871 95.923 89.3 103.219v19.497H70.812c-8.284 0-15 6.716-15 15s6.716 15 15 15H89.3v18.488c0 8.285 6.716 15 15 15 8.285 0 15-6.716 15-15v-18.488h18.488c8.284 0 15-6.716 15-15s-6.716-15-15-15H119.3v-19.497a103.5 103.5 0 0 0 29.653-8.972c13.544 6.442 28.682 10.054 44.651 10.054 57.512 0 104.302-46.79 104.302-104.302 0-23.252-7.65-44.749-20.562-62.111L300 55.121v11.146c0 8.284 6.716 15 15 15s15-6.716 15-15v-47.36zM178.603 139.889c0 24.224-11.656 45.773-29.651 59.346-17.995-13.573-29.651-35.122-29.651-59.346 0-24.225 11.656-45.774 29.651-59.347 17.995 13.573 29.651 35.123 29.651 59.347m-148.603 0c0-40.971 33.331-74.303 74.302-74.303 5.038 0 9.959.509 14.719 1.47-18.374 18.812-29.719 44.521-29.719 72.833s11.344 54.02 29.719 72.832c-4.76.96-9.681 1.47-14.719 1.47-40.971 0-74.302-33.332-74.302-74.302m163.603 74.302c-5.038 0-9.959-.51-14.719-1.47 18.375-18.813 29.719-44.52 29.719-72.832s-11.344-54.021-29.719-72.833a74.3 74.3 0 0 1 14.719-1.47c40.97 0 74.302 33.332 74.302 74.303s-33.331 74.302-74.302 74.302"/></svg>