<svg xmlns="http://www.w3.org/2000/svg" width="400" height="200" viewBox="-395.461 -8.231 1316.923 658.461"><path fill="#fff" fill-rule="evenodd" d="M509.39 505.797c4.07-.692 8.3.176 11.52 2.365s5.09 5.466 5.09 8.927V642H0v-41.952c0-5.476 4.63-10.197 11.07-11.292ZM96.9 503.734c3.73-.007 7.3 1.269 9.86 3.526 2.57 2.11 4 4.994 3.98 7.997v33.414l-27.69 4.609v-38.023c0-6.364 6.2-11.523 13.85-11.523m110.73-23.044c3.73-.007 7.31 1.268 9.87 3.526 2.57 2.11 4 4.994 3.97 7.996v38.023l-27.68 4.609v-42.632c0-6.363 6.2-11.522 13.84-11.522m110.74-23.044c3.73-.008 7.3 1.268 9.87 3.526 2.57 2.109 4 4.994 3.97 7.996V511.8l-27.68 4.609v-47.241c0-6.363 6.19-11.522 13.84-11.522m110.74-23.044c3.73-.008 7.3 1.268 9.86 3.526 2.57 2.109 4 4.993 3.98 7.996v47.241l-27.69 4.608v-51.849c0-6.363 6.2-11.522 13.85-11.522m-276.85-46.088c3.74-.008 7.31 1.267 9.87 3.525 2.57 2.11 4 4.994 3.98 7.997v22.56l-27.69 5.761v-28.321c0-6.364 6.2-11.522 13.84-11.522m335.08-7.977c2.03.358 3.97 1.097 5.65 2.189 3.36 2.183 5.33 5.534 5.33 9.083v92.338l-27.69 4.609v-42.632c-.1-18.572-17.72-33.797-40.02-34.566-11.54.082-22.57 3.988-30.65 10.855-8.07 6.868-12.53 16.13-12.38 25.739v54.43l-27.68 4.609v-38.023c-.1-18.572-17.73-33.796-40.02-34.566-11.55.082-22.58 3.988-30.65 10.856-8.08 6.867-12.54 16.129-12.39 25.738v49.822l-27.68 4.609v-33.415c-.1-18.572-17.73-33.796-40.02-34.566-11.54.082-22.57 3.989-30.65 10.856s-12.53 16.129-12.38 25.738v45.213l-27.69 4.609v-28.805c-.1-18.573-17.72-33.797-40.02-34.567-11.54.082-22.57 3.989-30.65 10.856-8.07 6.867-12.53 16.13-12.38 25.739v40.604l-27.69 4.608.3-78.373c.01-5.272 4.33-9.861 10.47-11.142l442.66-92.35c2.07-.431 4.2-.453 6.23-.095M263 365.469c3.73-.007 7.3 1.268 9.87 3.526 2.57 2.11 4 4.994 3.97 7.996v22.492l-27.68 5.761v-28.253c0-6.363 6.2-11.522 13.84-11.522m110.74-23.044c3.73-.008 7.3 1.268 9.87 3.526 2.56 2.109 4 4.994 3.97 7.996v22.422l-27.68 5.761v-28.183c0-6.363 6.19-11.522 13.84-11.522m85.92-65.633c2.03.358 3.96 1.097 5.65 2.189 3.36 2.183 5.32 5.534 5.32 9.083v70.988l-55.37 11.522v-16.627c-.1-18.572-17.72-33.796-40.01-34.566-11.55.082-22.58 3.988-30.65 10.856-8.08 6.867-12.54 16.129-12.39 25.738v31.951l-27.68 5.761v-16.695c-.1-18.573-17.73-33.797-40.02-34.567-11.55.082-22.57 3.989-30.65 10.856s-12.53 16.129-12.39 25.738v32.02l-27.68 5.761v-16.764c-.1-18.572-17.72-33.797-40.02-34.567-11.54.082-22.57 3.989-30.65 10.856-8.07 6.867-12.53 16.129-12.38 25.739v32.1l-55.37 11.522.39-76.783c.01-5.269 4.32-9.856 10.46-11.142l387.21-80.874c2.06-.431 4.19-.453 6.23-.095M431.8 161.759c2.06.34 4.02 1.067 5.73 2.157 3.41 2.178 5.41 5.554 5.42 9.134v82.372l-27.69 5.761V204.16c0-6.363-6.19-11.522-13.84-11.522-7.64 0-13.84 5.159-13.84 11.522v62.772l-41.53 8.665v-59.915c0-6.363-6.19-11.522-13.84-11.522-7.64 0-13.84 5.159-13.84 11.522v65.722l-41.53 8.665v-51.343c0-6.363-6.19-11.522-13.84-11.522-7.64 0-13.84 5.159-13.84 11.522v57.115l-41.53 8.665v-54.258c0-6.363-6.2-11.522-13.84-11.522-7.65 0-13.84 5.159-13.84 11.522v60.042l-41.53 8.665V261.77c0-6.363-6.2-11.522-13.84-11.522-7.65 0-13.84 5.159-13.84 11.522v62.969L83.05 330.5l.21-83.374c.01-5.206 4.22-9.759 10.26-11.107l332-74.088c2.08-.463 4.23-.512 6.28-.172M403.86 58.45c2.1.312 4.1 1.024 5.85 2.112 3.49 2.175 5.55 5.594 5.55 9.227v70.573l-27.68 6.187v-46.088c0-6.363-6.2-11.522-13.84-11.522-7.65 0-13.85 5.159-13.85 11.522v52.299l-27.68 6.176v-46.953c0-6.363-6.2-11.522-13.84-11.522-7.65 0-13.84 5.159-13.84 11.522v53.128l-27.69 6.176v-47.782c0-6.363-6.2-11.522-13.84-11.522s-13.84 5.159-13.84 11.522v53.958l-27.69 6.188v-48.624c0-6.363-6.19-11.522-13.84-11.522-7.64 0-13.84 5.159-13.84 11.522v54.799l-27.68 6.176v-49.453c0-6.363-6.2-11.522-13.85-11.522-7.64 0-13.84 5.159-13.84 11.522v55.629l-27.59 6.164.47-70.641c.04-5.079 4.07-9.539 9.92-10.981L397.5 58.739c2.1-.514 4.27-.602 6.36-.289M376.6.25c2.04.358 3.97 1.097 5.65 2.189 3.36 2.183 5.33 5.534 5.33 9.083V37.17L138.42 98.41V57.599c.01-5.281 4.33-9.882 10.48-11.165L370.37.346c2.07-.432 4.2-.454 6.23-.096"/></svg>