<svg xmlns="http://www.w3.org/2000/svg" width="400" height="200" viewBox="-467 -493 2726 1363"><path fill="#fff" d="M1485-238c-.01 30-17.34 61-52 93l-142 12q-24 2-42 25.5C1231-84 1231-76 1231-60q0 42 31.5 97c31.5 55 31.5 73.333 31.5 110q0 51-12 151c-12 100-12 117-12 151 0 18-1.17 44.667-3.5 80s-3.5 62-3.5 80q0 18 3 55c3 37 3 43 3 55q0 31 24 39.5c24 8.5 24 13.833 24 24.5 0 3.333-.67 9-2 17h-110c33.34 13.333 50.01 27.667 50 43 0 18-21.34 27-64 27-30.67 0-51.01-9.667-61-29-6.68-13.333-10.02-37-10-71 0-19.333.33-48.167 1-86.5s1-67.167 1-86.5c0-124.667-21.34-230.333-64-317-1.33 2.667-2 7-2 13 .01 17.333 6.67 41 20 71 14.01 32 21.67 55.334 23 70 12.67 119.333 19 188.333 19 207 0 16.667-3.17 40.167-9.5 70.5s-9.5 48.833-9.5 55.5c0 2 2.83 7.5 8.5 16.5s8.5 18.167 8.5 27.5q0 50-150 50-64 0-84-18-118 0-202-119-103-19-171-77-76-66-76-157 0-56 34-140c34-84 34-95.667 34-119q0-119-133-163-61-20-61-37 0-28.005 31-28 93 0 160.5 70.5C566 144 566 175.333 566 238q0 56.001-34 135-34 79-34 113 0 71 51 116 47 42 121 49 0-261 169-532 36-59 119-154.5c55.33-63.667 94-113.167 116-148.5 23.33-39.33 46.33-79 69-119 32-51.34 61.67-83.67 89-97-1.33-7.33-2-14.33-2-21 .01-14.67 9.68-37.33 29-68 12.67 9.33 24.33 25.67 35 49 8.67-22 27.33-39.67 56-53q15 28.995 15 48c0 8.68-2 18.01-6 28 28.67 4.67 48.33 19.67 59 45 18.67 42.67 30 66.34 34 71q33 40.005 33 63m-66-82c-12.67-10-24.01-15-34-15-9.33.01-19.67 8.34-31 25 10.67 9.33 21 14 31 14 10.67 0 22-8 34-24m59 80-21 1 12 24zm-238 124a3601 3601 0 0 1-64-43c-29.33-23.333-49-48.33-59-75l-28 53q19.995 31 132 116zm26 323c0-41.333-.67-72.333-2-93-4.68 48.667-14.01 121-28 217q30-82 30-124m136-522c0 10-4.67 15-14 15q-15 0-15-15c0-9.36 5-14.03 15-14 9.37 0 14.03 4.67 14 14"/></svg>