<svg xmlns="http://www.w3.org/2000/svg" width="400" height="200" fill-rule="evenodd" stroke-linejoin="round" stroke-miterlimit="2" clip-rule="evenodd" viewBox="1.238 16.522 61.522 30.761"><path fill="#fff" d="m21.442 43.748-.014-.018c-.799-1.09-1.497-2.311-1.69-3.31a1 1 0 0 1 1.963-.38c.148.764.728 1.673 1.34 2.507a24 24 0 0 0 1.676 2.019q.748.688 1.774 1.295c.757.448 2.698.971 3.972 1.032.498.024.915-.028 1.19-.125a1.4 1.4 0 0 0 .603-.4c.258-.298.434-.741.415-1.291a2.7 2.7 0 0 0-.127-.707c-1.137-1.333-2.283-2.845-2.897-3.848a1 1 0 0 1 1.706-1.044c.792 1.294 2.535 3.495 3.891 4.907 2.275.022 4.424-.042 6.354-.254 6.707-.736 10.692-2.938 13.063-5.459 3.656-3.889 3.549-8.616 3.36-10.527-.127-1.282-.376-2.059-.123-2.81.149-.444.503-.853 1.136-1.398.656-.565 1.155-1.573 1.466-2.656.423-1.469.526-3.046.492-3.459a1.001 1.001 0 0 0-1.714-.613c-1.273 1.31-1.327 1.608-2.802 1.938-1.744.391-2.623 1.162-3.09 1.796a3 3 0 0 0-.149.22 6.2 6.2 0 0 0-3.058-.152c-2.778.564-4.496.891-4.496.891a1 1 0 0 0-.784 1.219c.316 1.297 2.078 3.404 4.556 2.977 1.135-.196 2.064-.19 2.598.341.541.537.546 1.5.174 2.953-.199.778-.497 1.304-.928 1.596-.665.448-1.554.316-2.521 0-2.078-.68-4.434-2.356-6.247-3.703-3.301-2.454-8.011-6.304-18.481-6.645-6.228-.203-11.48.256-15.051 1.368-2.656.828-4.427 2.061-5.182 3.558-.467.927-.747 2.447-.805 4.167-.082 2.439.255 5.291.926 7.275.329.972.75 1.75 1.217 2.241.451.476.963.725 1.496.766.234.017 1.314.016 2.571-.015-.813.223-1.818.468-2.028.569-.174.083-.161.597-.036.88a1 1 0 0 0 .674.567s5.97 1.474 8.884 1.543c1.534.037 3.118.106 4.726.189m-5.837-11.097a1.06 1.06 0 1 1 .086 2.119 1.06 1.06 0 0 1-.086-2.119"/></svg>