<svg xmlns="http://www.w3.org/2000/svg" width="400" height="200" viewBox="-262.5 -451 1846 923"><path fill="#fff" d="m623 195-25 32Q411 472 307 472q-78 0-159-128 28 6 43 6 131 0 298-215l39-49-28-34C365.333-104.667 298-214.67 298-278c0-45.33 36.667-103 110-173 30.667 137.33 94.667 267 192 389l22 28 42-51q206-255 328-255c40 0 73 19.67 99 59 4.67 6.68 11.33 16.01 20 28-103.33 46.67-219 141-347 283l-41 46 30 33q182 200 336 200 45 0 84-10c-33.33 69.333-61.17 114.667-83.5 136s-52.83 32-91.5 32q-126 0-328-221z"/></svg>