<svg xmlns="http://www.w3.org/2000/svg" width="400" height="200" viewBox="-305.228 -7.445 1191.135 595.567"><path fill="#fff" d="M198.807 174.23a182.72 182.72 0 0 1 132.213 21.819 183.37 183.37 0 0 1 84.172 129.311c7.907 79.268-37.132 145.124-109.494 160.137a143 143 0 0 1-28.224 2.802 132.35 132.35 0 0 1-72.562-21.118 115.3 115.3 0 0 1-49.743-73.663c-8.983-43.716 14.022-87.719 55.047-105.29 38.733-18.216 80.269-11.21 103.289 17.315 22.219 27.524 21.518 60.652-1.701 84.472a58.97 58.97 0 0 1-54.747 15.413 43.74 43.74 0 0 1-32.328-30.426 10.18 10.18 0 0 1 6.806-12.511c5.302-1.511 10.834 1.523 12.411 6.806a23.8 23.8 0 0 0 17.915 16.714 38.88 38.88 0 0 0 35.631-10.009c15.914-16.314 16.114-38.433.4-57.85-19.817-24.521-54.046-23.62-79.168-11.81-32.489 13.826-50.828 48.542-43.938 83.171a95.15 95.15 0 0 0 41.135 60.952 114.58 114.58 0 0 0 85.774 15.413c62.954-13.011 100.586-68.659 93.58-138.519a164.94 164.94 0 0 0-74.864-114.398 160.87 160.87 0 0 0-113.898-19.717 200 200 0 0 0-40.835 14.613C86.21 245.691 48.978 318.153 63.391 406.729a204.39 204.39 0 0 0 105.29 145.825 226.4 226.4 0 0 0 109.294 28.124 231.3 231.3 0 0 0 90.878-18.716v-.1c82.671-35.33 163.34-137.118 150.029-256.02C498.464 121.084 329.319-3.623 190.4.08a9.9 9.9 0 0 0-9.608 8.707 348.64 348.64 0 0 0 18.015 165.443M310.703 70.341c-5.528 0-10.009-4.481-10.009-10.009s4.481-10.009 10.009-10.009 10.009 4.481 10.009 10.009c.019 5.508-4.43 9.989-9.938 10.009zm125.407 97.984a10.1 10.1 0 0 1-5.905 1.902 10.01 10.01 0 0 1-8.107-4.104 332.3 332.3 0 0 0-81.07-77.667c-4.588-3.095-5.798-9.324-2.702-13.912s9.324-5.798 13.912-2.702a350.7 350.7 0 0 1 85.974 82.471c3.268 4.455 2.329 10.711-2.102 14.012"/></svg>