<svg xmlns="http://www.w3.org/2000/svg" width="400" height="200" data-name="Layer 3" viewBox="-29.538 1.231 123.077 61.538"><path fill="#fff" d="M32 57a13.8 13.8 0 0 0-8.841 3.2A7.76 7.76 0 0 1 18.19 62 8.19 8.19 0 0 1 10 53.81a6.48 6.48 0 0 1 3.331-5.661l1.3-.723a14.4 14.4 0 0 0 6.292-7.041A12 12 0 0 1 32 33a12 12 0 0 1 11.076 7.385 14.4 14.4 0 0 0 6.292 7.041l1.3.723A6.48 6.48 0 0 1 54 53.81 8.19 8.19 0 0 1 45.81 62a7.76 7.76 0 0 1-4.969-1.8A13.8 13.8 0 0 0 32 57"/><ellipse cx="23" cy="24" fill="#fff" rx="6" ry="9"/><ellipse cx="41" cy="24" fill="#fff" rx="6" ry="9"/><ellipse cx="11" cy="37" fill="#fff" rx="6" ry="8"/><ellipse cx="53" cy="37" fill="#fff" rx="6" ry="8"/><path fill="#fff" d="M9.572 26A2.43 2.43 0 0 0 12 23.572a2.4 2.4 0 0 0-.257-1.086A7.05 7.05 0 0 1 11 19.338V16l-.343.458A13.28 13.28 0 0 0 8 24.428 1.57 1.57 0 0 0 9.572 26m14-14A2.43 2.43 0 0 0 26 9.572a2.4 2.4 0 0 0-.257-1.086A7.05 7.05 0 0 1 25 5.338V2l-.343.458A13.28 13.28 0 0 0 22 10.428 1.57 1.57 0 0 0 23.572 12m30.856 14A2.43 2.43 0 0 1 52 23.572a2.4 2.4 0 0 1 .257-1.086A7.05 7.05 0 0 0 53 19.338V16l.343.458A13.28 13.28 0 0 1 56 24.428 1.57 1.57 0 0 1 54.428 26m-14-14A2.43 2.43 0 0 1 38 9.572a2.4 2.4 0 0 1 .257-1.086A7.05 7.05 0 0 0 39 5.338V2l.343.458A13.28 13.28 0 0 1 42 10.428 1.57 1.57 0 0 1 40.428 12"/></svg>