<svg xmlns="http://www.w3.org/2000/svg" width="400" height="200" viewBox="-233.385 -5.692 910.769 455.385"><path fill="#fff" fill-rule="evenodd" d="M94.281 287.39c-1.652 0-3.303.61-4.524 1.75a6.15 6.15 0 0 0-1.928 4.5c0 2.22 1.165 4.23 2.802 5.52 34.022 29.54 71.29 57 121.407 57.01.971 0 1.956-.01 2.969-.04 31.885-.74 67.946-11.5 95.946-29.08l.166-.11c3.663-2.21 7.34-4.69 10.781-7.47 2.165-1.59 3.635-4.06 3.635-6.66-.083-4.62-3.996-7.73-8.214-7.73-1.318-.01-2.691.3-3.982.92-1.429.57-2.914 1.22-4.287 1.82l-2.054.86-2.636 1.07v.01c-28.791 11.67-59.038 18.52-87.024 19.15-1.027.02-2.053.02-3.08.02-44.012.02-79.934-20.41-116.148-40.52-1.276-.67-2.567-1.02-3.829-1.02m240.717-10.17c-4.634 0-9.754.45-14.874 1.56l-.014-.34-5.148 1.71-.083.06-2.913.94v.12c-3.428 1.42-6.536 3.21-9.422 5.28-1.803 1.36-3.302 3.13-3.385 5.85-.042 1.49.721 3.21 1.97 4.22s2.692 1.35 3.968 1.35c.32 0 .597-.02.861-.06l.222-.01.208-.05c2.511-.54 6.202-.88 10.503-1.49 3.691-.41 7.604-.73 10.989-.73 2.401 0 4.565.17 6.05.49.749.17 1.29.35 1.609.51.111.05.194.07.222.11.07.21.153.74.139 1.49.055 2.83-1.166 8.12-2.803 13.25-1.609 5.15-3.58 10.31-4.87 13.74a6.9 6.9 0 0 0-.486 2.6c-.041 1.38.528 3.04 1.721 4.17 1.151 1.09 2.664 1.55 3.926 1.55h.056c1.901-.03 3.51-.79 4.912-1.87 13.098-11.8 17.649-30.61 17.843-41.18l-.056-1.71h-.013c-.111-2.8-.694-4.93-1.873-6.69l-.111-.18-.139-.18c-1.193-1.3-2.331-1.77-3.566-2.33-3.663-1.41-9.019-2.16-15.443-2.18m-98.61-87.549v7.118c-.027 13.671.555 24.321-6.535 36.171-4.148 8.27-11.252 13.6-18.953 15.42-1.193 0-2.955.57-4.745.57-13.015 0-20.716-10.09-20.716-24.88 0-18.984 11.267-27.864 25.475-32.012 7.701-1.762 16.581-2.387 25.474-2.387M210.9 87.815c-30.192 1.762-62.174 14.804-69.292 52.142-1.193 4.745 2.387 6.507 4.746 7.09l33.147 4.149c3.566-.597 5.356-3.566 5.925-6.508 2.969-13.042 13.625-19.563 25.474-20.743h2.387c7.104 0 14.79 2.97 18.939 8.894 4.731 7.118 4.162 16.581 4.162 24.892l-.027 4.745c-7.701.583-16.595 1.166-25.475 2.345-13.625 1.804-27.236 4.163-38.489 9.504-21.909 8.88-36.727 27.834-36.727 55.685 0 34.96 22.505 52.73 50.949 52.73 9.476 0 17.177-1.2 24.267-2.95 11.267-3.57 20.716-10.07 31.996-21.94 6.507 8.88 8.283 13.05 19.536 22.52 2.955 1.17 5.925 1.17 8.283-.57 7.132-5.94 19.55-16.61 26.044-22.53 2.983-2.36 2.372-5.92.583-8.87-6.494-8.29-13.015-15.41-13.015-31.42v-53.324c0-22.52 1.776-43.263-14.791-58.65-13.611-12.432-34.937-17.191-51.518-17.191ZM222 0c122.613 0 222 99.387 222 222 0 122.6-99.387 222-222 222S0 344.6 0 222C0 99.387 99.387 0 222 0"/></svg>