<svg xmlns="http://www.w3.org/2000/svg" width="400" height="200" viewBox="-16.821 -0.410 65.641 32.821"><path fill="#fff" d="M16 0C7.163 0 0 7.163 0 16s7.163 16 16 16 16-7.164 16-16S24.837 0 16 0"/><path fill="#fff" d="M6.532 21.561c2.452 2.129 5.138 4.108 8.75 4.109l.214-.003c2.298-.053 4.897-.829 6.915-2.096l.012-.008c.264-.159.529-.338.777-.538a.61.61 0 0 0 .262-.48c-.006-.333-.288-.557-.592-.557a.65.65 0 0 0-.287.066c-.103.041-.21.088-.309.131l-.148.062-.19.077v.001c-2.075.841-4.255 1.335-6.272 1.38l-.222.002c-3.172.001-5.761-1.471-8.371-2.921a.6.6 0 0 0-.276-.073c-.119 0-.238.044-.326.126s-.14.202-.139.324c0 .16.084.305.202.398"/><path fill="#fff" d="M25.667 20.813a.9.9 0 0 0-.135-.482l-.008-.013-.01-.013c-.086-.094-.168-.128-.257-.168-.264-.102-.65-.156-1.113-.157a5 5 0 0 0-1.072.112l-.001-.024-.371.123-.006.004-.21.068v.009a3.4 3.4 0 0 0-.679.38c-.13.098-.238.226-.244.422a.4.4 0 0 0 .142.304.45.45 0 0 0 .348.093l.016-.001.015-.003c.181-.039.447-.064.757-.108.266-.029.548-.052.792-.052.173 0 .329.012.436.035a.5.5 0 0 1 .116.037q.012.004.016.008a.4.4 0 0 1 .01.107c.004.204-.084.585-.202.955-.116.371-.258.743-.351.99a.5.5 0 0 0-.035.188.4.4 0 0 0 .124.3.42.42 0 0 0 .283.112h.004a.6.6 0 0 0 .354-.135c.944-.85 1.272-2.206 1.286-2.968zm-8.632-9.103c-.555.042-1.196.084-1.836.169-.982.13-1.963.3-2.774.685-1.579.64-2.647 2.006-2.647 4.013 0 2.52 1.622 3.801 3.672 3.801a7 7 0 0 0 1.749-.213c.812-.257 1.493-.726 2.306-1.581.469.64.597.94 1.408 1.623.213.084.427.084.597-.041a70 70 0 0 0 1.877-1.624c.215-.17.171-.427.042-.639-.468-.598-.938-1.111-.938-2.265v-3.843c0-1.623.128-3.118-1.066-4.227-.981-.896-2.518-1.239-3.713-1.239H15.2c-2.176.127-4.481 1.067-4.994 3.758-.086.342.172.469.342.511l2.389.299c.257-.043.386-.257.427-.469.214-.94.982-1.41 1.836-1.495h.172c.512 0 1.066.214 1.365.641.341.513.3 1.195.3 1.794zm-.469 5.08c-.299.596-.811.98-1.366 1.111-.086 0-.213.041-.342.041-.938 0-1.493-.727-1.493-1.793 0-1.368.812-2.008 1.836-2.307.555-.127 1.195-.172 1.836-.172v.513c-.002.985.04 1.753-.471 2.607"/></svg>