<svg xmlns="http://www.w3.org/2000/svg" width="400" height="200" viewBox="-731.5 -816 3306 1653"><path fill="#fff" d="M1429-413h-260c-48 .01-78.67 6.34-92 19-13.33 12.67-20 41.33-20 86v158h372zm50 0v263h241v-158c-.01-46.67-6.35-75.83-19-87.5-12.67-11.67-43.67-17.5-93-17.5zm-422 312v557c0 91.333 32.33 169.5 97 234.5s142.67 97.5 234 97.5c92 0 170.33-32.333 235-97s97-143 97-235v-557zm348-362c0-90.67-17.17-155.67-51.5-195-34.33-39.34-90.83-59.01-169.5-59-156.67 0-276.334 112.33-359 337l-16 45Q663 60 383 60q-112-.001-210.5-86.5Q74-113 74-211c0-33.34 15.667-50.01 47-50 20.667 0 41.667 26.34 63 79Q244-39 384-39q107-.001 174.5-68.5c45-45.667 95.834-133.17 152.5-262.5l37-82c108.667-242.67 255.33-364 440-364 210 0 315 117.67 315 353h102c70 0 114.83 9.5 134.5 28.5S1769-372.33 1769-305v761c0 105.333-37.17 195.167-111.5 269.5S1493.33 837 1388 837q-157.005 0-268.5-111.5C1008.005 614 1008 561.333 1008 456v-761q0-97.005 31.5-127.5c21-20.34 65.17-30.51 132.5-30.5z"/></svg>