<svg xmlns="http://www.w3.org/2000/svg" width="400" height="200" viewBox="-482.5 -718 3036 1518"><path fill="#fff" d="M1503-384h100q171 0 213 34.5c42 34.5 50 87.83 66 194.5l102 683c8.67 58.667 13 104.667 13 138 0 50-18.17 84.833-54.5 104.5S1841.67 800 1749 800h-589q-139.995 0-189-29.5Q922 741 922 656q0-52 11-128l99-684c14.67-100.67 37.33-163.83 68-189.5s98.33-38.5 203-38.5h101c0-156.67-73.67-235-221-235-156 0-275.333 112.33-358 337l-17 46Q663 158 383 158q-113 0-211-86C74-14 74-47 74-113q0-49.004 46-49 31 0 64 78Q244 60 384 60q106-.001 173.5-68.5Q625-77 711-272l37-82c108.667-242.67 255-364 439-364 210.67 0 316 111.33 316 334m-416 218L984 543q-11.015 73-11 105 .003 61 35.5 82c23.67 14 69.83 21 138.5 21h625c69.34 0 115.67-7 139-21 23.34-14 35.01-41.333 35-82 0-21.333-3.67-56.333-11-105l-103-709c-11.33-79.33-27-127.33-47-144s-72.67-25-158-25h-335c-84 0-136.67 8.67-158 26s-37 65-47 143m181-70h370v444h-370z"/></svg>