<svg xmlns="http://www.w3.org/2000/svg" width="400" height="200" viewBox="-234.637 -5.694 981.145 490.572"><path fill="#fff" d="M67.055 306.934a123 123 0 0 0 15.23-61.836 153.45 153.45 0 0 0-27.914-84.114 663 663 0 0 0-40.894 99.989 90.36 90.36 0 0 1 53.578 45.96m92.495-142.402a198 198 0 0 1 14.684-22.27c-3.164-6.503-6.187-12.8-8.832-18.515-9.691-21.11-24.437-53.238-36.324-86.437 2.578 66.992 10.387 110.457 30.473 127.222m-72.957 16.731a157.9 157.9 0 0 1 13.976 63.836c0 4.656-.308 8.996-.656 13.304a45.21 45.21 0 0 1 37.887 0c-.348-4.308-.656-8.648-.656-13.304a157.9 157.9 0 0 1 13.976-63.836c-16.027-11.207-26.094-31.559-32.266-61.934-6.168 30.375-16.234 50.727-32.261 61.934M39.113 399.98a150.3 150.3 0 0 0 15.742-63.453c0-31.672-23.386-48.714-46.226-57.82A282.2 282.2 0 0 0 0 345.672c0 22.562 17.05 38.207 39.113 54.308m79.742-54.308a98.4 98.4 0 0 1 47.325 11.152 141 141 0 0 1-1.61-20.297c0-1.902.102-3.757.239-5.613a124.2 124.2 0 0 1-22.27-45.02 27.662 27.662 0 0 0-47.363 0 124.2 124.2 0 0 1-22.27 45.02c.137 1.828.239 3.711.239 5.613a141 141 0 0 1-1.61 20.297 98.4 98.4 0 0 1 47.32-11.152m64-9.145a150.35 150.35 0 0 0 15.747 63.453c22.062-16.101 39.113-31.746 39.113-54.308a282.2 282.2 0 0 0-8.633-66.965c-22.836 9.106-46.227 26.148-46.227 57.82M54.246 410.738c24.383 17.145 50.988 36.262 64.61 65.364 13.624-29.094 40.23-48.22 64.613-65.364a200 200 0 0 1-10.805-26.43 70.93 70.93 0 0 0-53.809-20.351 70.93 70.93 0 0 0-53.804 20.352 201 201 0 0 1-10.805 26.43M170.66 306.934a90.36 90.36 0 0 1 53.578-45.961 663 663 0 0 0-40.898-99.989 153.47 153.47 0 0 0-27.91 84.114 123 123 0 0 0 15.23 61.836M108.637 37.309c-11.887 33.199-26.633 65.328-36.324 86.437-2.645 5.742-5.672 12.012-8.833 18.516a198 198 0 0 1 14.684 22.27C98.25 147.765 106.06 104.3 108.637 37.308M510.73 348.734a118.4 118.4 0 0 1-24.43 2.688 104.95 104.95 0 0 1-52.8-13.824 88.4 88.4 0 0 1-22.07-18.032v159.18a618 618 0 0 1 59.117-70.656c21.777-23.168 36.148-38.649 40.183-59.356M361.89 321.79a63.1 63.1 0 0 0 31.255-41.228V.438C363.62 56.05 295.059 198.91 292.699 329.645a91.3 91.3 0 0 0 69.192-7.856m-43.618 29.633a118.4 118.4 0 0 1-24.43-2.688c4.032 20.688 18.403 36.188 40.18 59.356a629 629 0 0 1 59.122 70.508V319.566a88.5 88.5 0 0 1-22.075 18.032 104.95 104.95 0 0 1-52.797 13.824M442.68 321.79a91.23 91.23 0 0 0 69.191 7.843C509.511 198.91 440.95 56.05 411.43.438v280.125a63.07 63.07 0 0 0 31.25 41.226m0 0"/></svg>