<svg xmlns="http://www.w3.org/2000/svg" width="400" height="200" viewBox="-20.923 117.538 553.846 276.923"><path fill="#fff" d="M488.5 221s-55 15-70 5c0 0-5-105-145-105 0 0-165 5-205 55 0 0-25 25-30 85 0 0-10 115-15 130h45s7.43-13.938 15.883-30.586L98.5 391h45l-16.48-72.508c4.551 1.492 10.004 2.508 16.48 2.508 25 0 55-25 55-25v95h40s3.434-41.094 13.121-63.758L283.5 391h45l-27.469-109.875c6.496-1.105 13.289-3.855 17.469-10.125 10-15 5-30 5-30s35 10 60 5c0 0 25 50-10 65 0 0-10 5-10-15h-25s0 50 35 50 55-40 50-95c0 0 50 0 65-30"/></svg>