<svg xmlns="http://www.w3.org/2000/svg" width="400" height="200" viewBox="-663 -677 3374 1687"><path fill="#fff" d="M1639-77c0 187.333-38.34 371-115 551-66 154.667-149.67 284.333-251 389q-142.995 147-249 147-106 0-249-147-152-157-251-389Q409 204 409-77q0-264 154-426 165-174 461-174c197.33 0 351 58 461 174 102.67 108 154 250 154 426m-189 198c-38 6.667-72.34 15-103 25q-111 35-153 88c-34.67 44.667-53.34 120-56 226 35.34-6.001 68-13.668 98-23 71.33-22 121.67-49.667 151-83q67.995-77 63-233M910 460q-1-46-7-86-15-94-49-140-62-80-256-113-5 156 63 233 65 74 249 106"/></svg>