<svg xmlns="http://www.w3.org/2000/svg" width="400" height="200" viewBox="74 -364 2604 1302"><path fill="#fff" d="M1662 419 2068-3q211.995-221 363-221c72.67 0 132.01 25.5 178 76.5Q2678-71 2678 50q0 104.001-45 104c-27.35 0-41.02-14-41-42q0-10.004 3-20l8-24q15-44 15-68c-.02-48-18.19-89-54.5-123-36.34-34-80.18-51-131.5-51-88 0-200.33 72.333-337 217l-433 456q-24 131-124.5 216c-100.5 85-143.84 85-230.5 85-101.33 0-182.5-31.667-243.5-95S964.667 549.667 950 429q18-23 18-44-.008-30-23-45-23-15-69-15-97 0-97 62 0 21 20 42-31 191-119.5 281C591 800 539.333 800 436 800q-152 0-257-110.5C74 579 74 525.667 74 419L540-55q168-171 309-171c70 0 127.834 25.67 173.5 77 45.67 51.333 68.5 116.667 68.5 196q0 104.001-45 104c-27.34 0-41-13.667-41-41q0-10.004 3-20l8-25q15-44 15-68c0-47.333-17.33-87.5-52-120.5Q927-173 853-173q-132 0-291 163L145 419h499q89 0 89-33v-19q0-90 148-90 55.002.003 94 26 39 27 39 64v13c0 26 30.33 39 91 39zM585 469H282q-93 .004-116.5 7-23.5 7-23.5 36 0 81 97 156.5C336 744 371 744 441 744q103 0 187.5-65C713 614 713 587 713 533q0-40-23.5-52C666 469 639 469 585 469m897 0h-300c-63.33 0-104 4-122 12s-27 26.334-27 55q0 78 85.5 143c85.5 65 119.83 65 188.5 65q102 0 199.5-76c97.5-76 97.5-102.667 97.5-156 0-28.667-40.67-43-122-43"/></svg>