<svg xmlns="http://www.w3.org/2000/svg" width="400" height="200" viewBox="-490.5 -622 3056 1528"><path fill="#fff" d="M1344-470 894-145l131 890c-9.34 13.333-19.67 20-31 20q-16 0-20-28L794-583q-4.996-39 20-39c8.67 0 19.336 50.67 32 152q180 3 498 0m-36 1255c0 42.667-39.34 75-118 97q-84 24-171 24c-87 0-115-8-171-24q-117-33-117-97 0-49 74-85 62-29 118-29 8 0 28.5 64.5C972 800 984.667 800 1010 800q22.995 0 30-66.5c7.005-66.5 11.67-66.5 21-66.5 40.67 0 89 10.333 145 31q102 38 102 87m-60-1219H853l35 245c90.668-68 210.67-149.67 360-245"/></svg>