<svg xmlns="http://www.w3.org/2000/svg" width="400" height="200" viewBox="-18.115 118.943 548.230 274.115"><path d="M510.438 194.233c-.529-.438-1.187-.545-1.902-.456-4.485 2.927-9.035 5.775-13.604 8.598-5.564 4.695-10.508 10.529-15.401 15.917-5.735 9.22-12.974 18.601-21.572 24.894-4.953 3.625-10.702 3.59-16.336 1.856q-2.76-.63-5.631-1.91c-6.196-2.763-12.356-5.815-18.024-9.516-21.246-13.875-43.281-25.925-68.229-31.827-1.975-.467-3.833-1.424-5.745-2.154-5.394-2.061-10.684-5.937-13.759-10.916-1.058-1.713-1.652-3.574-1.996-5.506-1.071-1.454-1.113-3.282-.447-4.946-.067-2.365-.014-4.743-.169-7.009a13.5 13.5 0 0 0-.252-1.77q-.117-.462-.232-.925l-.138-.563c-1.313-4.398-4.159-8.405-4.103-13.276.09-7.643 3.552-15.318 6.334-22.302 1.439-3.614 4.778-7.977-1.454-7.849-4.002.082-7.652 2.917-11.44 3.927-7.361 1.963-14.216 5.472-20.517 9.708-5.659 3.805-10.819 8.662-16.937 11.418-22.331 10.061-44.991 19.393-65.685 32.721-18.358 3.56-34.193 13.307-51.01 20.667-4.953 2.168-10.296 3.52-15.55 4.907-10.542 2.783-21.234 5.027-31.702 8.057-12.447 3.603-24.918 6.56-37.799 8.535-13.396 2.053-26.766 4.772-39.998 7.605-5.497 1.177-11.038 2.108-16.513 3.404-4.255 1.006-15.71 2.335-18.218 6.057 7.367 2.838 16.028 2.325 23.789 3.339 18.762 2.45 37.489 3.795 56.068 7.078a54 54 0 0 1 4.035-.145c.77.004 1.405.281 1.902.704 2.748.198 5.567.696 6.719 2.821 1.812 3.352-2.131 2.931-4.51 3.015-10.261.365-19.976 3.466-29.831 6.227-5.809 1.627-11.744 2.257-17.665 3.332-5.906 1.072-11.402 2.949-17.071 4.909-1.279.442-9.933 2.451-10.188 4.399-.218 1.678 18.535 1.172 37.601.276 3.497-.361 6.996-.624 10.445-.888 5.081-.388 12.395-2.198 17.912-.632 5.758-.328 9.834-.557 10.888-.557 1.845 0 3.642.056 5.416.158a50 50 0 0 1 6.359.318c3.624.424 7.073 1.512 10.51 2.666.395.121.786.228 1.183.356a66 66 0 0 1 2.561.893c1.748.57 3.507 1.104 5.301 1.52 7.159 1.661 15.006 2.906 22.226 5.463.472.134.938.289 1.392.48.115.049.226.104.34.155 2.716 1.063 5.314 2.354 7.741 3.94.107.042.211.09.319.131 2.414.902 4.516 1.83 6.572 3.075a5.4 5.4 0 0 1 1.5.967q.524.363 1.052.763l-.064.518c.458.897.601 1.961.208 3.121-.341 1.011-.66 2.018-.969 3.024a520 520 0 0 0-1.161 9.86c-1.384 13.165-.975 26.514 1.485 39.529 1.242 6.571 3.297 12.785 5.175 19.177.743 2.528 1.109 6.744 2.689 9.517.244.285.473.582.726.858a82 82 0 0 1 2.39 1.691c3.282.364 4.345-7.319 5.23-9.902 1.587-4.629 1.871-9.308 4.145-13.684.987-1.899 2.341-3.607 3.246-5.549a18.2 18.2 0 0 0 1.562-5.426 3.3 3.3 0 0 1 .141-1.742q.061-1.566-.094-3.131c-1.104-3.093-1.729-6.417-2.626-9.531a225 225 0 0 0-1.854-6.021c-.76-2.127-1.469-4.242-1.99-6.339l-.039-.15c-.129-.431-.266-.86-.391-1.292-.61-2.104-1.582-5.203-1.989-8.229-.375-1.99-.626-3.991-.587-5.75-.883-1.205-1.035-2.904-.252-4.243 1.057-1.806 3.125-2.19 4.938-1.497 4.166-.157 6.654 2.18 7.852 5.497.291.7.492 1.417.599 1.945.132.651.188 1.292.21 1.93.411 3.839.405 7.728.809 11.57.03.288.071.574.104.862.546 1.926 1.071 3.851 1.652 5.724 1.761 5.68 3.486 11.383 5.663 16.921a85 85 0 0 0 1.845 4.329 65 65 0 0 0 3.534 5.286c6.672 8.972 15.148 17.438 25.022 22.807.102.055.208.1.311.153.562-.322 1.271-.397 2.094-.054 3.255 1.358 6.484 2.873 9.751 4.29 1.979.543 3.951 1.076 5.866 1.68 1.911.603 5.685 2.167 9.464 3.096 2.635.337 5.24.377 7.834.294 1.178-.426 2.093-1.199 2.583-2.461 1.171-3.011-1.379-8.506-2.216-11.604-1.277-4.727-3.133-8.668-5.726-12.884-2.705-4.398-5.229-8.84-7.51-13.398-2.413-4.823-5.964-8.682-9.301-12.961-2.633-3.376-4.727-6.896-6.907-10.398a48 48 0 0 1-1.529-2.183 4 4 0 0 1-.432-.892c-.12-.183-.236-.367-.357-.549-1.841-2.763-6.873-6.152-5.999-9.828.355-1.491 6.965 1.173 7.571 1.389 4.614 1.651 7.81 2.483 12.742 3.012 6.472.693 13.012 1.531 19.529 1 .313-.025.619-.077.929-.112 2.176-.7 4.529-1.099 6.886-1.359 3.96-1.077 7.841-2.487 11.832-3.507 3.27-.836 6.782-1.375 10.125-1.16 2.865.185 5.106-.508 7.853-.743 4.062-.346 8.167.795 12.27.409a55 55 0 0 0 3.996-.529c8.09-2.425 16.002-5.493 24.146-7.639 2.389-.865 4.813-1.703 7.339-2.438 3.234-.942 7.246-2.775 10.614-2.847 1.401-.03-.225 8.34-.361 9.743l-.009.25c.013 3.188 1.622 5.891 2.622 8.859 2.342 6.95 6.538 13.194 12.022 18.094 2.72 2.43 5.495 3.271 8.464 4.218 1.305-.062 2.542-.374 3.651-1.049.793-1.792.141-4.653-.245-7.326a1.9 1.9 0 0 1-.095-.696c-.257-2.078-.249-3.965.876-5.035.691.505 1.32.998 1.913 1.473 5.902 4.732 11.615 9.495 18.385 12.499 1.996.702 4.042 1.296 6.004 1.981q.369.13.735.267c.305.069.604.147.914.209 1.824.363 4.072.813 6.23.947a32 32 0 0 1 2.32-.317c.705-.07 1.351-.082 1.967-.051 2.1-.647 3.553-2.164 3.455-5.292-.214-6.859-5.55-12.339-9.225-17.825-2.161-3.227-4.41-5.939-6.066-9.398-1.556-3.249-2.574-6.686-5.801-8.615-3.36-2.009-11.982-2.22-13.613-6.361-.881-2.237.656-4.015 3.263-5.439.4-.323.89-.592 1.479-.782.123-.04.233-.061.352-.095 5.602-2.37 13.922-3.582 16.37-4.275 2.74-.777 5.346-1.734 8.173-2.189 13.764-2.216 28.287 3.38 37.867 13.244 3.398 3.5 16.654 20.318 19.796 9.151.313-1.113.52-2.275.65-3.467l.002-.348c-.152-.986-.072-1.878.172-2.666.06-4.585-.694-9.417-1.02-13.663-.852-11.104-.866-21.391-.144-32.444.527-8.075 3.958-12.753 7.983-19.329 3.599-5.88 6.395-12.198 9.146-18.506.539-1.234 2.278-4.08 3.881-7.142a48 48 0 0 0 1.416-4.586c.13-1.354.73-2.341 1.568-2.986.171-1.169.026-2.101-.601-2.619" style="fill:#fff"/><path d="M505.968 195.422a821 821 0 0 1-12.381 7.784c-3.927 3.11-7.768 6.345-11.195 9.932a6.2 6.2 0 0 1-.597 1.397c-6.047 10.359-14.065 21.499-23.836 28.65-10.542 7.717-24.69-1.147-33.665-7.686-1.443-1.051-2.307-2.436-2.681-3.888a6.4 6.4 0 0 1-1.722-.22c-8.437-2.254-16.465-8.995-24.002-13.344-7.654-4.416-15.478-8.539-23.88-11.345-8.439-2.819-17.273-4.105-25.33-8.045-3.378-1.652-6.756-3.549-9.657-5.958-1.586-1.317-2.947-2.727-4.11-4.436-.733-1.079-1.195-2.532-2.326-3.251-4.35-1.909-3.864-6.434-1.236-9.128-.918-2.348-1.596-4.821-2.213-7.322-1.485-6.012-2.864-11.589-1.819-17.805.88-5.229 3.109-9.446 5.082-14.265 1.063-2.597 3.719-8.59 1.324-10.977a4.34 4.34 0 0 1-1.257-2.527c-2.218.372-4.434.761-6.633 1.236-1.192.257-2.383.535-3.573.809-.577.216-1.151.439-1.73.654-2.074 1.524-3.974 3.319-5.803 5.17q-1.363 1.377-2.757 2.725a13.2 13.2 0 0 0-2.339-2.488 439 439 0 0 1-15.323 7.35 3.2 3.2 0 0 1-1.293.279c-5.466 4.183-11.523 7.574-17.464 11.109-6.015 3.581-12.452 8.938-19.8 8.728-.046-.001-.083-.013-.129-.015-8.425 5.268-17.644 9.317-26.21 14.378-1.727 2.705-2.247 6.185-1.749 9.433-11.07 1.747-21.988 3.884-33.019 6.35-1.339.299-2.723.503-4.134.666-2.792 1.42-5.769 2.581-8.825 3.592-.23.251-.501.487-.854.683-3.177 1.766-6.545 2.854-9.978 3.827-.335.41-.779.774-1.345 1.064-7.844 4.016-16.888 6.236-25.481 8.024-3.022.628-6.103 1.335-9.202 1.847-9.481 4.149-19.9 6.945-29.76 9.373-9.407 2.317-20.108 4.951-30.226 5.319-2.289.411-4.575.809-6.83 1.236.124 1.539 1.047 3.067 2.634 3.507 5.894 1.631 12.539 2.302 18.638 2.07 7.927-.301 14.986-2.611 22.568-4.646 5.832-1.565 11.949-2.76 17.922-3.59 3.24-.45 6.556-.206 9.812-.581 2.985-.344 5.939-1.159 8.904-1.736-.077 1.317.133 2.702.709 4.132 7.453 18.488 31.98 14.696 47.503 11.065 8.813-2.061 17.334-4.665 26.376-5.613 9.911-1.039 19.873-1.564 29.793-2.529 5.283-.515 10.552-.831 15.81-1.596 4.788-.696 9.726-2.218 14.551-2.451 8.263-.399 17.393 2.104 25.443 3.884 9.774 2.162 19.568 4.245 29.356 6.343 9.149 1.962 17.686 4.835 26.498 7.932 21.227 7.461 44.11 11.611 66.53 12.417a9.6 9.6 0 0 0 2.61-.272l.319.052c3.631 1.311 7.253 2.651 11.036 3.5 6.784 1.523 11.872-.37 16.824-3.511a59 59 0 0 0 3.454-.661c2.32.187 4.684-.358 6.488-1.864 7.176-2.553 13.56-6.529 19.877-11.896a295 295 0 0 0 5.303-4.588c1.294-3.105 2.704-6.129 3.915-8.998 3.431-8.129 8.437-16.3 10.59-24.867.044-.457.147-.868.289-1.243-1.056-1.297-2.336-2.398-3.794-3.175m-71.649 132.819a118 118 0 0 0-1.188-2.75c-9.396-3.633-19.414-6.133-27.363-12.41-5.451-4.305-8.542-9.458-11.187-15.812-1.447-3.477-2.633-7.022-4.343-10.392-1.552-3.061-4.436-4.896-5.567-8.074-1.208-3.395-6.66-1.932-5.438 1.5.434 1.216.485 2.509.377 3.838a6.6 6.6 0 0 0-1.768-1.629c-10.423-6.611-24.074-1.821-35.488-.076-6.46.988-12.87 1.978-19.209 3.597-6.015 1.537-12.233 3.703-18.465 3.939-6.402.242-12.697-.182-19.084.585-6.284.754-12.527 1.975-18.846 2.406-6.29.429-12.345-.461-18.566-1.215-1.279-.155-2.592-.193-3.867-.375-.935-1.202-2.223-2.144-3.47-2.948-5.25-3.385-12.06.057-13.769 5.602-5.033 16.331 13.964 21.352 26 23.266 4.333.689 8.636.845 12.927.741 4.847-3.56 12.112-3.894 18.175-4.27a149 149 0 0 0 3.591-.807c7.788-1.869 17.672-4.042 25.61-1.61 14.632-2.776 28.155-9.669 42.834-12.041a2.5 2.5 0 0 1 .729-.006 7.2 7.2 0 0 1 2.212-1.286 3.8 3.8 0 0 1 1.851-.173c1.803-1.355 5.094-.233 4.888 2.372-.41 5.187-.773 10.39.999 15.379 1.79 5.041 5.213 9.299 8.561 13.388 2.398 2.93 4.974 5.423 8.058 7.298 3.608.944 7.364 1.305 10.022-1.275.145-.141.3-.258.457-.371a3 3 0 0 1-.012-.639c-.165-.903-.351-1.794-.657-2.673a34 34 0 0 1-.889-1.884c-.023-.038-.039-.076-.062-.114l.009-.005c-.074-.173-.156-.338-.228-.513-1.002-2.426 2.671-3.531 3.961-1.67.256.37.474.755.679 1.147.338.537.76 1.166 1.242 1.835a3.7 3.7 0 0 1 1.357.069c3.614.91 6.112 2.985 9.3 4.723 3.251 1.772 6.999 2.688 10.478 3.902 1.828.638 3.59 1.367 5.376 2.007 1.509-.452 3.119-.733 4.823-.902 2.062-.205 3.636.077 5.37.514.318-4.114 1.213-8.243-.42-12.188m-57.607-33.053a9 9 0 0 0-.412-.264c.819-.712 1.604-1.537 2.438-2.508.037 1.482.128 2.963.26 4.442a12 12 0 0 0-2.286-1.67" style="fill:#fff"/><path d="M271.464 380.931c-2.083-7.477-5.001-14.678-8.55-21.576a191 191 0 0 0-7.374-13 12 12 0 0 0-4.416-.902 43 43 0 0 1-1.499-1.963c-1.007-1.419-1.667-3.215-2.719-4.563a18 18 0 0 0-.354-1.191c.146-.547.266-1.1.338-1.666.117-.632.183-1.269.219-1.903-3.444-4.16-7.229-8.037-10.212-12.571-.114-.173-.19-.35-.272-.525-7.4-1.085-12.74 3.048-18.498 7.433l.061-.049q-1.455.954-2.889 1.937c-.489.341-.966.699-1.448 1.05-.102-.363-.206-.726-.272-1.1-1.004-5.631-3.328-11.028-4.729-16.586-1.391-5.516-2.867-11.1-3.732-16.727-.957-6.23-2.871-12.308-3.701-18.499-.475-3.538-5.047-3.549-5.52 0-.531 3.986-1.581 7.818-2.446 11.702a17 17 0 0 0-.857-1.688c-.179-.303-.372-.581-.564-.862a522 522 0 0 0 1.937-6.444c2.425-8.276 5.196-16.179 2.678-24.786-.625-2.135-3.469-1.962-4.166 0-1.249 3.519-2.616 6.998-4.003 10.471 1.458-8.565-.272-17.749-1.88-26.166-.713-3.733-7.209-2.934-6.718.909.177 1.384.352 2.771.515 4.157-2.076-.508-4.561.51-5.298 2.903-2.635 8.55-2.548 16.354-9.842 22.706q-.613.53-1.261 1.004c-4.664-.905-9.463-.874-14.168-.397-5.507.559-10.814 1.919-16.375 1.982-6.277.071-12.485-.272-18.758.197a8 8 0 0 0-1.873.369 2.51 2.51 0 0 0-1.569-1.501c-10.416-3.616-20.863-3.511-31.737-3.447-5.009.029-9.87.584-14.784 1.547-4.64.91-10.274 1.323-14.422 3.637-1.189.664-1.269 2.101-.583 3.115 4.667-.589 9.369-.938 13.981-1.291 6.258-.478 15.902-3.114 21.405 1.061 6.04-2.076 12.866-2.51 19.17-1.772 6.774.793 12.938 3.899 19.554 5.435 11.973 2.779 25.872 4.386 35.522 12.959 3.077-.729 6.997 2.006 5.764 5.655-4.178 12.369-5.926 24.364-4.929 37.447.678 8.895 2.414 17.614 4.021 26.36.337.423.634.91.852 1.496 1.112 2.992 2.043 6.042 3.058 9.053a38 38 0 0 1 3.324 5.696 31 31 0 0 0 1.62 1.914 73 73 0 0 1 4.416 3.235c1.207-4.801 3.313-9.609 4.795-13.712 1.519-4.204 3.173-8.354 4.642-12.577.581-1.67 1.035-3.415 1.803-5.013.398-.83 1.158-1.869 1.86-2.917-.21-.357-.403-.696-.574-.96-.764-1.181-.457-2.858.473-3.841-1.644-3.61-2.331-7.704-3.421-11.488-1.334-4.628-2.933-9.18-4.274-13.802-.972-3.351-2.865-9.218-1.914-13.304-1.43-1.161-1.861-3.297-.914-4.918 1.118-1.912 3.373-2.246 5.256-1.378 1.236.57 2.523 1.058 3.733 1.685.514.267.958.578 1.416.934.181.141.508.342.684.552 1.311.621 2.049 2.916 2.3 4.154.414 2.045.291 4.018-.408 5.974a3.7 3.7 0 0 1-.781 1.247c1.635 4.167 2.657 8.646 3.966 12.865 1.761 5.68 3.486 11.383 5.663 16.921 1.586 4.034 3.44 7.796 5.462 11.423 1.604 1.962 3.122 4.014 4.662 6.05.637.081 1.278.143 1.93.169 6.297 5.627 13.71 10.242 21.449 12.791.417.137.839.251 1.26.375a69 69 0 0 0 2.319 3.577c5.93 2.65 11.865 5.45 18.217 6.778 4.616.965 9.116.829 13.616.57.02-.131.029-.256.05-.388.264-1.604.454-3.375.964-4.988-.088-.347-.157-.696-.251-1.034" style="fill:#fff"/><path d="M142.702 236.797c-.11-4.676-2.771-8.799-7.092-10.623-3.734-1.576-7.731-1.072-11.208.947-3.949 2.293-7.111 6.33-8.355 10.717-1.262 4.447-.018 9.44 3.298 12.679 5.521 5.392 16.222 5.257 20.111-2.141a12.6 12.6 0 0 0 1.38-4.792c1.244-2.031 1.922-4.422 1.866-6.787m-117.345 8.485c.296.144.596.279.894.419 5.574.77 11.096 1.758 16.418 2.589 11.354 1.773 22.713 2.236 33.9 4.221l.23-.018c3.958-.361 5.152-5.985.974-7.189a57 57 0 0 0-4.988-1.183c1.739-.671 3.369-1.638 5.046-2.458 1.065-.521.866-.408 1.836-.772.979-.368 1.912-.729 2.663-1.48.2-.2 1.461-1.982.984-1.471 1.289-1.38 1.305-3.452 0-4.837-.288-.305-.443-.736-.984-1.277-1.089-1.089-2.342-1.392-3.792-1.571-1.387-.171-2.781-.294-4.18-.216-4.007.223-8.067 1.754-10.114 5.405-1.535 2.738-.73 5.796 1.232 7.652-6.229-.589-12.524-.588-18.843-.876-4.984-.227-9.963-.803-14.93-1.271-4.509-.424-10.868.891-14.598-2.053-1.003-.791-2.431.53-1.442 1.443 2.644 2.441 6.496 3.392 9.694 4.943m86.406-5.471c.791-1.318 1.107-3.32.628-4.801-.531-1.643-1.495-2.693-2.863-3.724-1.585-1.193-3.562-1.404-5.509-1.278a7 7 0 0 0-1.528-.122l-2.408.323a9.07 9.07 0 0 0-3.999 2.33l-.266.209c-1.851 1.452-2.564 4.193-2.665 6.434-.127 2.841 1.415 5.467 3.586 7.145 3.988 3.081 10.967 2.42 13.368-2.553.087-.182.164-.36.246-.54.523-.929.932-1.926 1.14-2.956.09-.155.176-.313.27-.467m376.258 60.593.017-2.229c-.153-.988-.072-1.881.173-2.67-1.808-1.578-3.816-2.956-5.763-4.648-4.052-3.52-7.658-7.537-11.312-11.449-7.323-7.84-15.033-13.926-26.004-15.024-10.169-1.018-21.291.124-30.817 3.827-5.118 1.989-10.378 4.155-14.233 8.247-2.185 2.318-5.724 7.403-2.536 10.336 1.298 1.193 2.834 1.896 4.502 2.284.264-1.253 1.136-2.393 2.781-2.923 1.396-.45 2.521-.515 3.596-.414 7.791-1.117 15.273-4.882 23.27-4.678.653.017 1.325.059 2.001.115.436-.239.9-.461 1.414-.656 1.246-.471 2.901-.47 4.415-.044.838-.264 1.807-.271 2.883.106 5.215 1.831 10.025 2.436 14.694 5.634 4.166 2.854 7.576 6.054 10.809 9.933 3.733 4.478 6.931 8.711 12.292 11.33 1.5.733 3.061 1.29 4.548 1.902.965-1.018 2.089-1.969 2.91-2.978.241-.295.461-.603.694-.903.119-.857.213-1.712.24-2.561-.38-.694-.596-1.538-.574-2.537M424.293 235.5c-1.448-1.055-2.313-2.446-2.684-3.903a6.4 6.4 0 0 1-1.719-.204c-8.437-2.254-16.465-8.995-24.002-13.344-7.654-4.416-15.478-8.539-23.88-11.345-8.439-2.819-17.273-4.105-25.33-8.045-3.378-1.652-6.756-3.549-9.657-5.958-1.586-1.317-2.947-2.727-4.11-4.436-.733-1.079-1.195-2.532-2.326-3.251-4.344-1.906-3.865-6.423-1.246-9.119-.918-2.35-1.585-4.83-2.204-7.332-1.485-6.012-2.864-11.589-1.819-17.805.88-5.229 3.109-9.446 5.082-14.265 1.063-2.597 3.719-8.59 1.324-10.977a4.34 4.34 0 0 1-1.257-2.53c-2.219.372-4.434.763-6.633 1.239-1.167.252-2.331.524-3.495.791q-1.888.704-3.774 1.403c-7.936 4.298-16.04 8.272-24.256 12.025a3.2 3.2 0 0 1-1.293.279c-5.466 4.183-11.523 7.574-17.464 11.109-6.015 3.581-12.452 8.938-19.8 8.728-.045-.001-.083-.013-.128-.015-8.461 5.295-17.728 9.352-26.327 14.445-.466.276-.936.39-1.389.399a96 96 0 0 1-10.541 5.464 31.9 31.9 0 0 1-9.42 5.003c-1.624.535-3.158.034-4.292-.964-3.876 1.35-7.561 2.965-11.195 4.706a2.9 2.9 0 0 1-1.381 1.5c-2.832 1.486-5.868 2.699-8.99 3.749l-.572.298a3.4 3.4 0 0 1-.685.502c-.9.5-1.82.934-2.748 1.338-2.737 1.504-5.449 3.062-8.196 4.545-1.633.882-3.225 1.845-4.87 2.702-1.65.858-4.308 2.922-5.959 3.327-2.195.539-2.38 4.214 0 4.629 2.045.356 3.53 1.503 5.553 1.827 1.948.312 4.193.104 6.147-.078 4.769-.444 9.632-1.49 14.3-2.537 4.886-1.095 9.729-2.622 14.459-4.264 4.613-1.602 9.194-2.509 13.949-3.585 9.294-2.104 18.942-1.704 28.427-2.728 4.967-.536 9.878-1.284 14.892-1.037 4.708.232 9.339.679 14.064.744 18.972.259 38.18 5.065 56.246 10.563 9.643 2.935 19.009 6.676 28.615 9.702 8.144 2.565 17.069 5.997 25.785 6.446 4.088 1.778 8.318 3.266 12.436 4.585 6.653 2.131 12.873 4.929 18.967 8.337 6.394 3.575 12.928 4.576 20.206 3.722.695-.081 1.354-.315 1.966-.641-3.211-1.81-6.206-3.872-8.776-5.744m69.311-32.309c-3.934 3.115-7.781 6.354-11.213 9.946a6 6 0 0 1-.597 1.397c-4.368 7.481-9.768 15.362-16.108 21.861 5.286-3.547 10.575-7.063 15.736-10.848 3.703-2.716 7.414-5.204 10.408-8.735 3.104-3.659 4.955-7.71 7.385-11.784 1.262-2.115 1.276-4.074.555-5.66-2.049 1.284-4.108 2.553-6.166 3.823m-303.6 146.813c-.764-1.181-.457-2.858.473-3.841-1.644-3.61-2.331-7.704-3.421-11.488-1.334-4.628-2.933-9.18-4.274-13.802-.972-3.351-2.865-9.218-1.914-13.304-1.43-1.161-1.861-3.297-.914-4.918a3.6 3.6 0 0 1 1.753-1.537c-3.062-1.893-6.406-1.732-9.745-.214 2.463-1.12-2.158-.774-2.951-.827-1.285-.084-2.563-.2-3.846-.303-.021.072-.024.14-.049.212-1.484 4.396-2.656 8.744-3.513 13.11 1.778 1.501 4.005 2.721 6.321 3.624.166.637.332 1.275.486 1.916 1.047 4.345 1.801 8.767 2.704 13.143 1.806 8.749 4.137 16.99 8.686 24.746 1.61 2.744 4.432 3.519 6.933 2.88l.182-.507c.581-1.67 1.035-3.415 1.803-5.013.398-.831 1.158-1.871 1.858-2.919-.21-.356-.402-.694-.572-.958m.895-62.411c-6.896-4.63-13.695-6.906-22.072-6.525-3.694.168-7.142.978-10.743 1.697-2.978.595-5.745.33-8.061 2.428-.931.844-.7 2.181 0 3.055.077.096.16.177.239.27 2.638 1.201 5.14 2.656 7.444 4.439 3.266.859 6.836 1.009 10.245 1.4 7.371.846 14.339 4.815 21.772 2.228 4.089-1.423 4.775-6.576 1.176-8.992m56.499 95.801c.205.2.422.378.638.559 2.625 1.034 5.296 1.922 8.036 2.566 2.718-.169 5.358-1.247 7.305-3.158a27 27 0 0 0 2.48-1.074c2.212-1.096 3.744-2.635 4.706-4.395-1.892-6.068-4.329-11.945-7.192-17.622-1.158-.41-2.4-.636-3.713-.615-.73-.733-1.452-1.476-2.183-2.206-4.515-4.513-12.201-4.515-16.715 0a12 12 0 0 0-1.826 2.347q-.916-.192-1.841-.397c-7.43-1.656-13.189-5.986-18.321-11.56-5.131-5.572-8.479-12.871-10.602-20.071-1.157-3.923-2.112-7.905-3.276-11.829-1.312-4.429-2.867-8.338-4.602-12.543-1.08-2.617-5.625-2.668-5.421.733.255 4.244-.096 8.267.493 12.542.644 4.676 1.341 9.383 2.16 14.032 1.493 8.497 4.537 17.088 9.339 24.296 4.819 7.234 10.804 15.074 18.67 19.102 4.018 2.057 8.353 3.528 12.619 4.972 3.094 1.047 6.888 2.023 9.246 4.321m147.405-57.123c-1.168-1.125-2.3-2.106-2.935-2.908.204.13-.992-2.232-.949-2.144-.19-.399-.325-.675-.42-.865a70 70 0 0 0-.584-1.483c-2.593-6.441-3.067-13.732-6.815-19.66-1.931-3.054-5-4.547-8.167-4.795a9.5 9.5 0 0 0-4.407-1.516c.656-1.327.034-3.311-1.887-3.279-2.172.036-3.632-1.824-5.973-2.011-2.751-.219-5.164.857-7.61 2.028-2.788 1.334-5.541 2.751-7.719 4.562-.068.005-.132.005-.202.013-9.13 1-18.332 1.413-27.5 1.895-9.394.494-18.655 1.602-28.016 2.432-9.43.835-18.618.304-28.044.088-4.181-.096-8.322-.245-12.473.33-3.892.539-8.193.127-11.672 2.057-2.037 1.13-1.43 4.076.62 4.745 2.2.718 4.012 2.115 6.254 2.775 2.043.602 4.15.779 6.244 1.108 4.399.691 8.665 1.968 13.007 2.933 3.686.818 7.392 1.414 11.113 1.812 2.549-.333 5.123-.475 7.517-.623 1.205-.258 2.402-.521 3.583-.805 7.788-1.869 17.672-4.042 25.61-1.61 14.632-2.776 28.155-9.669 42.834-12.041a2.5 2.5 0 0 1 .729-.006 7.2 7.2 0 0 1 2.212-1.286 3.74 3.74 0 0 1 1.856-.176c1.804-1.349 5.088-.227 4.883 2.375-.41 5.187-.773 10.39.999 15.379 1.79 5.041 5.213 9.299 8.561 13.388 2.398 2.93 4.974 5.423 8.058 7.298 3.608.944 7.364 1.305 10.022-1.275.145-.141.3-.258.457-.371a3 3 0 0 1-.012-.639c-.165-.903-.351-1.794-.657-2.673a34 34 0 0 1-.889-1.884c-.023-.038-.039-.076-.062-.114l.009-.005c-.074-.173-.156-.338-.228-.513-.75-1.818 1.124-2.893 2.653-2.536" style="fill:#fff"/><path d="M396.113 327.137c.026.038.044.08.07.119a30 30 0 0 0 2.493 2.836c.24.008.479.037.715.096 3.614.91 6.112 2.985 9.3 4.723 1.661.906 3.452 1.587 5.27 2.199 2.603-.423 4.484-3.41 2.154-5.703-5.807-5.714-12.622-10.356-17.11-17.304-5.643-8.737-10.475-18.156-15.602-27.206-1.097-1.936-3.722-.234-2.901 1.696 4.801 11.294 7.395 27.687 15.41 38.308.07.074.14.148.201.236m-267.066-89.545q-.165.163-.257.249c-.233.12-.514.255-.672.407l-.117-.004c-.533-.011-1.063-.021-1.596-.048-.322-.017-.658-.015-.979-.044a4 4 0 0 0-.247-.101c-2.71-1.017-5.456 2.057-4.65 4.65.982 3.162 3.795 5.122 6.813 6.173 4.443 1.548 8.372-.466 10.752-4.302 3.472-5.597-4.44-11.58-9.047-6.98m-34.484 20.189c.288-2.221-1.04-4.754-3.956-4.938-.727-.045-1.467-.089-2.21-.126.692.694 1.046 1.708.998 2.671.583.702.281 2.077-.907 2.077h-.077a2.9 2.9 0 0 1-1.271.592c-6.928 1.439-13.951 2.529-20.951 3.745-6.924 2.509-14.602 2.996-21.802 4.852.086.153.232.28.461.339 3.121.801 6.084.339 9.245.039.287-.027.564-.045.846-.066.405.95 1.196 1.713 2.407 1.954 4.223.84 7.393-.005 11.477-1.072 3.644-.951 7.098-1.014 10.738-1.57 3.7-.565 15.292-3.429 15.062-8.229-.003-.095-.037-.179-.06-.268m123.605-11.276c-.599-1.854-2.309-2.778-3.079-4.396-.062-.13-.124-.169-.183-.162.395-.685 1.275-1.384 1.635-2.133 1.763-3.673-.874-10.758-5.543-10.795l.028-.059c1.081-2.288 1.077-4.753-.177-6.971a7.9 7.9 0 0 0-2.306-2.558c2.041-2.264 3.718-5.147 3.693-8.003-.043-4.954-3.499-7.295-7.635-8.069 1.48-1.27 2.814-2.644 3.803-4.276 2.022-3.336.283-8.922-3.921-9.636-2.812-.479-5.236-.129-7.673.642q.556-.488 1.123-.857c1.118.413 2.524-.321 2.723-1.839l.12-.922c.117-.9-.769-1.96-1.629-2.139-2.528-.527-5.548.328-8.468 1.866.077 1.126-.382 2.262-1.601 2.901-1.84.966-3.774 1.806-5.752 2.576-1.342 1.338-2.461 2.693-3.195 3.919-1.938 3.239-.835 7.269 2.357 8.611-.489.649-.942 1.32-1.313 2.034-2.031 3.914-.308 8.792 3.536 10.883 3.49 1.898 7.002.861 10.59.046.069-.016.135-.022.204-.037-.017.036-.035.076-.052.109-1.336 2.84-1.685 6.065.371 8.677.875 1.112 1.841 1.728 2.873 2.084a3.7 3.7 0 0 0-.282.644c-.671 2.095-.478 4.4.455 6.371 1.094 2.311 2.742 3.334 4.565 4.122-.269 2.025-.059 3.863.755 5.753.817 1.899 2.019 3.094 3.535 4.44.026.022.063.061.105.105-.117 2.291 1.515 4.762 4.136 4.621 4.114-.222 7.667-3.014 6.202-7.552m39.111-28.088c2.367-1.755 3.947-5.44 3.983-8.039.031-2.22-.758-4.19-2.067-5.769.277-.222.557-.44.825-.671 3.463-2.982 6.371-7.752 4.505-12.448-1.042-2.624-2.574-4.265-4.771-5.156.664-1.565.864-3.314.314-4.981-1.068-3.234-3.187-5.23-5.927-6.253.282-1.493.075-3.112-.7-4.611-1.999-3.872-5.386-5.067-9.225-4.969a4.9 4.9 0 0 0-.698-1.239c-5.434 2.861-10.956 5.589-16.224 8.71a2.8 2.8 0 0 1-1.383.398 96 96 0 0 1-10.371 5.387 420 420 0 0 1 6.069-2.248c.439 3.288 3.755 6.34 7.778 5.672.401-.067.797-.167 1.195-.256.956 2.158 2.217 3.871 3.85 5.137-1.132 1.198-2.066 2.609-2.673 4.384-.871 2.544.054 6.04 2.067 7.823 1.436 1.271 2.867 2.097 4.304 2.617a11.6 11.6 0 0 0-.667 1.625c-1.32 4.165.167 8.816 3.993 11.094q.375.222.752.402c-.684 2.459-.673 4.934.507 7.397 1.092 2.276 2.778 3.641 4.746 5.127 2.555 1.929 2.495 1.528.766 4.583-2.766 4.887-3.319 8.627-1.304 13.998 1.399 3.729 1.064 1.518-.456 4.88-1.093 2.417-1.202 5.479-.935 8.063.691 6.684 10.648 4.317 8.485-1.149a51 51 0 0 0-1.245-3.002 6.4 6.4 0 0 0 2.011-.678c1.625-.845 2.744-2.251 3.418-3.9.814-1.988.687-3.669.124-5.712-.332-1.206-1.623-2.971-1.453-4.292.288-2.248 4.123-5.225 4.925-7.893 1.067-3.547.568-7.259-1.337-10.41-.851-1.415-1.972-2.532-3.181-3.621" style="fill:#fff"/><path d="M249.232 216.335c.025-.001.052.003.078.001 1.992-.132 1.497.861-.078-.001m103.353-11.661c.764-.91 1.341-1.919 1.68-3.024-2.579-.829-5.12-1.785-7.586-2.992-3.378-1.652-6.756-3.549-9.657-5.958-1.586-1.317-2.947-2.727-4.11-4.436-.733-1.079-1.195-2.532-2.326-3.251-4.344-1.906-3.865-6.423-1.246-9.119-.918-2.35-1.585-4.83-2.204-7.332-1.485-6.012-2.864-11.589-1.819-17.805.88-5.229 3.109-9.446 5.082-14.265.512-1.252 1.392-3.294 1.9-5.34a13.5 13.5 0 0 0-4.32-2.303 18 18 0 0 0-1.576-.426c-.003-1.539-.552-3.126-1.458-4.423-.371.075-.743.144-1.113.224-1.178.254-2.354.529-3.531.799q-1.858.693-3.715 1.382c-7.943 4.304-16.056 8.282-24.279 12.039-.423.193-.86.274-1.293.279-5.464 4.185-11.523 7.574-17.463 11.109l-.308.188c.478 1.104 1.19 2.086 2.127 2.805-2.499 3.127-1.816 7.661.729 10.588 1.698 1.954 3.927 2.883 6.312 3.302a8.7 8.7 0 0 0-.988 2.218c-1.54 5.429 1.344 9.403 5.693 12.157.535.339 1.18.665 1.873.992-2.313 1.373-4.374 3.11-5.8 6.019-.983 2.002-1.491 4.866 0 6.823 1.396 1.833 2.751 3.219 4.688 4.263a7.7 7.7 0 0 0-.505 1.355c-1.291 4.877 1.549 9.169 4.941 12.334.712.665 1.456 1.305 2.194 1.942-.77.518-1.524 1.316-1.919 1.733-3.199 3.368-2.81 7.988-.634 11.774.21.366.538.95.891 1.499-1.235.857-2.488 2.333-2.96 3.105-2.319 3.786-.232 7.975.976 11.722.5 1.548.433.505.237 1.361-.214.938-1.009 1.994-1.431 2.897-.93 1.993-1.729 3.841-1.746 6.067-.029 3.783 5.475 5.477 7.305 1.979.982-1.878 3.871-2.758 5.077-4.876 1.373-2.412 2.141-5.001 1.761-7.771-.215-1.574-.783-3.611-1.498-5.248.4-.21.781-.436 1.06-.594 4.679-2.645 5.317-8 2.743-12.401a26 26 0 0 0-.897-1.456 9.2 9.2 0 0 0 2.525-2.153c3.146-3.841 3.013-9.958.452-14.025a23 23 0 0 0-3.527-4.25c3.215-2.632 5.087-6.459 2.881-10.718-.666-1.286-1.704-2.339-2.9-3.176.992-.346 1.918-.691 2.671-1.086 2.544-1.333 4.375-5.255 3.279-8.058-1.265-3.24-3.25-5.318-5.503-7.085.547-.154 1.09-.322 1.624-.518 5.603-2.054 10.655-7.625 8.021-13.758 1.571 1.058 3.34 1.842 5.122 2.649.793.358 1.587.768 2.388 1.187-2.714 3.545-2.538 8.207-.382 12.085 1.84 3.31 4.787 5.976 7.46 8.596a78 78 0 0 1 1.849 1.881c-.271.81-.437 1.65-.501 2.433-.365 4.366 2.65 7.845 6.279 9.825.219.119.456.251.698.386-.907 1.208-1.45 2.643-1.258 4.104.307 2.336.891 4.94 2.354 6.908-.38.309-.73.628-1.019.925-3.754 3.869-3.18 9.714.235 13.492-1.758 1.547-2.874 3.893-3.085 6.096-.233 2.436.552 4.685 1.304 6.983.273.836.595 1.658.856 2.499.11.351.187.624.251.86-1.613 1.364-2.581 3.435-1.827 5.658 1.427 4.211-3.758 6.423-6.019 10.343-2.779 4.82 3.449 9.128 7.413 5.72 2.14-1.84 5.366-4.438 6.682-6.938.958-1.82.867-3.564.802-5.39 4.58-1.451 6.352-6.701 5.283-12.199-.207-1.064-.434-2.262-.796-3.327 1.057-.644 2.123-1.458 2.428-1.729 1.501-1.334 2.496-2.973 3.001-4.926.859-3.322-.107-6.471-1.954-9.195 2.417-2.214 3.924-5.235 3.77-8.631-.088-1.946-.741-3.774-1.744-5.403m-38.308-61.657a9.2 9.2 0 0 0-1.153-2.154c1.127.345 2.298.573 3.48.751-.759.493-1.547.944-2.327 1.403m84.942 77.07a87 87 0 0 0-3.331-2.038c-7.138-4.118-14.43-7.967-22.194-10.745a7 7 0 0 0 .012 3.459c.985 3.788 3.074 6.478 5.312 9.384-1.316.589-2.555 1.525-3.668 2.969-3.254 4.224-2.032 7.639-.358 11.212-1.234.963-2.035 2.397-1.886 4.287.138 1.754.553 4.002 1.18 6.11-2.088.276-4.047 1.489-4.507 3.789-.996 4.981-1.116 8.698.977 13.34 1.061 2.352 4.9 2.195 6.01 0 .708-1.401 1.202-2.764 1.617-4.132.08.023.154.055.237.074 2.499.585 5.208.094 7.006-1.869 1.92-2.096 2.243-4.979 1.994-7.692-.128-1.393-.625-2.754-1.166-4.103.041-.027.08-.049.12-.078 2.487-1.733 3.35-4.085 2.855-7.016-.146-.861-.514-2.069-1.025-3.279.095.059.195.116.278.175 3.857 2.714 8.196-.373 9.668-3.933 1.248-3.019.605-5.739-.866-8.316a8 8 0 0 0 1.735-1.598m25.074 15.413c-1.443-1.051-2.307-2.436-2.681-3.888a6.4 6.4 0 0 1-1.722-.22c-.296-.079-.591-.176-.886-.267-2.08 1.292-3.599 3.74-3.462 6.033.035.573.103 1.108.195 1.627-2.595.806-4.725 2.678-5.781 6.187-2.132 7.08 1.427 18.571 9.884 18.917 2.944.12 6.127-2.781 5.84-5.84-.141-1.504-.315-2.827-.984-4.187l-.172-.347c1.948.108 3.95-.762 5.324-2.067 1.576-1.497 2.429-3.338 2.642-5.315 2.011-.27 3.843-1.106 5.172-2.581-4.935-2.166-9.607-5.311-13.369-8.052m-259.137-5.81c-.291-1.421-.6-2.814-1.245-4.126a6 6 0 0 0-.243-.449c.971-4.137-1.649-9.331-5.976-10.43.147-.4.26-.74.312-.916.777-2.668.202-5.803-1.824-7.794-.813-.799-1.841-1.395-2.955-1.788.076-.115.153-.237.23-.355-3.805 1.066-7.658 1.946-11.429 2.73-2.41.501-4.857 1.051-7.321 1.514-1.181 2.162-.866 5.086.917 6.919 2.227 2.286 4.549 2.786 7.643 2.35.028 1.413.36 2.82 1.039 4.056.96 1.75 2.68 3.096 4.395 4.039q.708.387 1.455.703c.268 1.554 1.182 2.668 1.763 4.13 1.342 3.376 1.846 7.389 2.872 10.994 1.834 6.442 13.138 5.498 12.178-1.648-.447-3.339-1.135-6.631-1.811-9.929m-44.398-16.772a213 213 0 0 1-10.004 2.898c-.48 1.723.383 3.892 1.922 4.699l.007.004c-.284 1.17-.316 2.432.004 3.595.346 1.254 1.051 2.266 1.953 3.148-.024.364-.051.728-.071 1.091-.416 6.736 10.065 6.711 10.479 0 .106-1.714.217-3.38-.362-5.034a7 7 0 0 0-.426-.962c.731-1.291.953-2.594 1.055-4.069.204-2.981-2.026-4.849-4.557-5.37m-22.411 6.015c-3.323.799-6.759 1.582-10.235 2.255-.004.079-.017.157-.02.235a8.57 8.57 0 0 0 2.193 5.939c.022.667.038 1.333.021 2.001-.061 2.223-.532 3.583-.022 6.213 1.087 5.61 8.488 5.447 11.228 1.467 2.954-4.292 1.874-12.972-1.252-16.794-.492-.602-1.165-1.036-1.913-1.316m-26.536 9.026c-.051-.03-1.7-.854-2.672-1.105-.132-.135-.269-.264-.396-.403.185.305.185.337.014.115-.013-.096-.027-.199-.042-.331-.067-.589-.144-1.136-.457-1.662a3.2 3.2 0 0 0-.441-.571c-2.255.412-4.484.845-6.666 1.336-.949 1.13-1.539 2.563-1.557 4.059-.017 1.455.21 3.043.614 4.449.194.674.473 1.239.797 1.758a11 11 0 0 0-.485 2.99c-.072 2.355 1.909 5.472 4.434 5.824 3.757.524 7.064-.369 9.259-3.716 1.79-2.729 2.324-5.965.896-8.98-.735-1.55-1.785-2.878-3.298-3.763m-25.254-.209c-3.099.475-6.165 1.049-9.104 1.922-.553.779-.965 1.572-1.19 2.57-.995 4.409 2.07 8.86 6.749 8.86 4.564 0 7.884-4.46 6.749-8.86-.478-1.852-1.609-3.481-3.204-4.492" style="fill:#fff"/><path d="M133.536 231.009a3.3 3.3 0 0 0-1.948-.788 4.1 4.1 0 0 0-1.108-.534c-2.169-.667-4.694.826-6.18 2.31-.769.768-1.373 1.526-1.828 2.516-.248.54.045-.146-.2.346-.35.701-.542 1.364-.526 2.147.059 2.797 2.991 4.506 5.528 4.329 2.288-.159 3.963-1.61 5.401-3.271 1.672-1.929 3.277-4.984.861-7.055" style="fill:#fff"/><path fill="#fff" d="M127.342 247.639c2.576-.106 4.481-1.101 6.717-2.216.227-.113.127-.517-.133-.491-2.351.235-4.689 1.263-7.104.53-1.584-.48-3.079-2.212-4.099-3.698-.029-.132-.063-.264-.085-.394 1.699 1.616 4.782 1.896 6.918 1.177 4.604-1.551 7.804-6.378 5.758-10.835.121.07.221.164.337.24.778 1.898 1.252 3.638.993 5.91-.21 1.835-.857 3.557-1.296 5.341-.132.539.546.768.85.358 1.378-1.854 1.972-4.16 2.03-6.481.036-1.433-.272-2.53-.78-3.538.819 1.622 2.079 2.535 2.444 4.385a9.37 9.37 0 0 1-.687 5.715c-.701 1.504.166 2.295 1.369 1.111.888-.875 1.115-3.219 1.269-4.391.355-2.709-.042-5.277-1.22-7.42-1.044-1.901-2.703-3.468-4.993-4.504-4.072-1.843-8.956-1.117-11.856 2.429-3.549 4.338-5.355 8.119-2.612 13.435 1.037 2.009 3.95 3.428 6.18 3.337m-1.624-14.641c1.236-1.352 4.837-4.048 6.428-2.151 2.546 3.037.724 7.609-2.417 9.142-1.989.971-6.064.921-6.754-1.811-.479-1.896 1.624-3.956 2.743-5.18m9.04 17.669c-2.346.291-4.565 1.493-6.948 1.422-3.26-.098-5.058-2.539-7.396-4.391-.277-.219-.653.128-.397.397 1.902 2 3.425 4.818 6.345 5.39 2.967.581 6.036-.516 8.675-1.787.476-.229.265-1.098-.279-1.031"/><path fill="#fff" d="M125.58 237.442q.114.137.233.245c1.078.966 2.757.161 2.814-1.246.035-.847-.491-1.659-1.236-2.042-.578-.297-1.246-.268-1.759.145-.549.441-.684 1.053-.762 1.719-.057.495.278.939.71 1.179m-46.023-6.028c-1.222.11-2.892.396-3.888 1.166-.105.081-.12.225 0 .303.933.609 2.457.28 3.517.299.47.009 1.096.041 1.515.333.004.057.027.188-.01.374a1.5 1.5 0 0 1-.113.355l-.042-.009c-.644-.075-1.259.114-1.888.238-.643.127-1.492.116-2.026.528-.722.557-1.492 2.108-1.324 3.012.209 1.123 1.276 1.706 2.351 1.441.835-.206 2.135-.852 2.781-1.408.46-.396.778-.95 1.192-1.394.395-.422.782-.838 1.018-1.371.36-.814.523-2.338-.136-3.052-.691-.746-2.02-.899-2.947-.815m5.59-1.121c-.146-.034-.276.153-.153.264 1.814 1.639.735 4.292-.108 6.128-.588 1.278-1.029 2.778-1.761 3.961-.161.262.11.651.417.542.765-.273 1.295-1.126 1.685-1.813.729-1.28 1.334-2.898 1.689-4.334.434-1.755.422-4.236-1.769-4.748m4.059 2.094c.667 2.772-.896 5.637-2.118 8.061-.131.26.087.611.396.516.653-.202.677-.539 1.049-1.12.501-.784 1.058-1.492 1.321-2.401.531-1.829.604-3.44-.124-5.2-.129-.315-.608-.206-.524.144m71.76 26.104c-.026-.401-.631-.661-.834-.226-3.507 7.521-11.289 11.401-17.763 15.737-.544.365-.193 1.136.433 1.027 4.521-.788 8.457-3.844 11.74-6.935 2.288-2.152 6.651-6.157 6.424-9.603m-14.778 5.111c.154-.23-.202-.509-.386-.298-3.39 3.876-7.423 6.306-11.863 8.773-.315.175-.197.764.195.72 5.035-.573 9.402-5.244 12.054-9.195m22.595 14.576c10.052-6.381 14.807-17.731 13.843-29.45-.416-5.044-2.466-10.817-4.464-15.438-.791-1.827-2.011-4.356-4.348-4.407-.269-.006-.424.354-.224.54 2.013 1.872 2.647 5.572 3.191 8.122.924 4.33 2.442 8.449 2.303 12.952-.172 5.526-1.154 11.014-4.227 15.7-2.349 3.583-5.242 6.856-7.642 10.415-.642.952.624 2.165 1.568 1.566m11.066-4.511c4.694-3.755 7.492-9.659 9.692-15.131 2.217-5.516 4.62-10.826 3.976-16.872-.053-.496-.7-.485-.763 0-1.489 11.205-8.976 21.245-14.312 30.918-.517.94.64 1.698 1.407 1.085m7.607-.811c.521-.703-.504-1.705-1.207-1.207-3.54 2.51-6.764 5.31-10.096 8.079-3.926 3.262-8.284 4.305-12.671 6.548-.274.14-.137.564.153.564 4.619 0 8.871-1.055 12.639-3.804 3.9-2.846 8.304-6.288 11.182-10.18m7.524-.635c-2.871 2.051-5.295 5.297-7.847 7.769-2.885 2.795-5.679 5.532-8.914 7.926-.343.253-.058.739.332.568 3.553-1.56 6.479-3.505 9.37-6.141 1.635-1.49 3.35-2.935 4.826-4.588 1.395-1.563 1.824-3.13 2.864-4.903.22-.376-.243-.909-.631-.631m27.195-1.157c-3.299-2.798-7.609-3.679-11.796-3.279-.343.033-.333.483 0 .527 3.597.47 7.879 2.144 10.522 4.664 2.031 1.938 3.042 4.572 4.578 6.866.161.241.477.177.578-.076 1.256-3.131-1.66-6.819-3.882-8.702m84.391 29.734c-8.928.075-17.881 1.289-26.813 1.587-9.266.31-18.323 1.323-27.415-1.21-.949-.265-1.346 1.189-.406 1.473 8.974 2.702 17.617 2.375 26.881 2.128 9.277-.248 18.865-.475 27.937-2.607.771-.182.6-1.378-.184-1.371m33.255-12.258c-20.732 3.76-40.69 9.013-61.925 8.64-.406-.007-.513.642-.098.724 10.392 2.054 20.768 1.272 31.143-.597 10.318-1.858 21.556-3.31 31.265-7.371.849-.355.552-1.566-.385-1.396"/><path fill="#fff" d="M511.291 192.04a1.68 1.68 0 0 0-1.844-.75c-3.009.738-5.55 3.322-8.086 4.988-2.72 1.787-5.529 3.476-8.202 5.331-5.918 4.108-11.205 9.727-16.155 14.932-5.304 5.578-10.166 11.589-15.396 17.249-2.589 2.802-8.083 8.522-13.044 9.751-3.49-1.832-7.858-2.359-11.524-3.84-4.692-1.895-8.854-3.908-13.031-6.822-9.502-6.631-19.699-12.401-29.675-18.216-9.015-5.254-18.832-8.534-28.646-11.989-6.232-2.194-12.752-3.708-19.047-5.706-1.871-.594-3.633-1.429-5.313-2.412-4.211-4.277-9.039-8.885-10.207-15.042-.487-2.568.109-5.259-.388-7.886-.468-2.475-1.381-5.085-2.409-7.387-1.298-2.911-3.15-4.962-3.085-8.335.071-3.719 1.639-7.682 2.645-11.229 1.005-3.545 1.986-6.799 3.423-10.212.762-1.81 3.111-5.635 3.277-7.8.604-7.885-14.439-2.783-17.895-1.332a77 77 0 0 1-1.457.589c-6.467 1.171-12.036 3.89-17.279 7.215-.475.236-.94.486-1.386.767-.672.423-1.19.593-1.631 1.168-.041.052-.065.078-.101.122-6.746 4.632-13.139 9.966-20.487 13.867-8.365 4.442-17.858 6.85-26.623 10.393-8.265 3.341-15.644 8.137-22.927 13.204-6.465 4.498-12.852 7.671-20.451 9.458-6.657 1.566-13.402 3.201-19.512 6.361-7.657 3.959-14.882 8.321-22.955 11.516-3.681 1.457-7.328 3.041-11.131 4.162-1.916.565-4.146.711-5.962 1.571-7.53.219-15.84 3.428-22.339 5.269-6.669 1.888-13.509 3.089-20.066 5.456-5.69 2.055-11.145 3.269-16.918 4.106-2.904.168-5.826.315-8.796.8-1.587.26-3.139.618-4.675 1.014-10.543 1.727-20.885 4.337-31.382 6.553-2.099.235-4.191.517-6.262.94-6.212 1.269-12.351 2.958-18.481 4.615-4.021 1.086-13.298 1.981-15.706 5.881-.259.42-.216 1.147.19 1.479.282.229.589.42.907.593.014.021.017.045.031.065 1.719 2.227 3.869 1.938 6.596 2.449 3.773.707 7.524 1.152 11.283 1.912 8.204 1.657 16.887 2.024 25.187 3.163.758.104 1.517.199 2.274.298 1.134.263 2.274.495 3.425.657 4.345.614 8.803 1.025 13.265 1.271 1.887.235 3.786.426 5.676.627 1.672.255 3.456.513 5.212.641.509.073 1.023.137 1.527.221 4.57.757 9.061 1.447 13.571 2.532q.634.154 1.269.304c-.573.021-1.149.044-1.717.063-4.708.158-9.519.636-14.025 2.03-4.776 1.478-9.688 1.837-14.57 2.886-9.406 2.022-18.366 5.418-27.635 7.765-7.065 1.79-14.411 3.716-21.111 6.634-1.145.499-.795 2.378.344 2.633 9.593 2.148 19.631 2.505 29.446 1.224 11.596-1.514 23.12-1.218 34.823-1.705 10.776-.448 22.334-2.217 32.903.549 4.879 1.277 9.475 3.643 14.212 5.359.491.178.985.33 1.481.469 1.381.769 2.985 1.252 4.428 1.601 3.528.851 7.086 1.479 10.65 1.4 1.032.119 2.081.248 3.172.473 2.58.531 4.844 2.038 7.145 3.364 1.592 1.065 3.374 1.966 5.206 2.749 2.458 1.266 4.851 2.398 7.568 3.173-2.962 16.925-4.004 34.546-1.465 51.552 1.434 9.605 2.667 18.465 6.538 27.394 1.454 3.354 6.072 14.958 11.565 10.331 1.92-1.617 2.876-5.348 3.505-7.659 1.252-4.602 1.805-9.366 3.055-14 1.083-4.012 2.587-7.479 4.051-11.351 1.276-3.375 1.164-5.815.679-9.331-1.968-14.25-9.677-27.192-9.379-41.701 1.345.474 2.907.994 4.374 1.138 1.704.613 3.432 1.332 5.217 1.305a85 85 0 0 0 .067 5.826c.474 9.655.664 20.561 4.352 29.615 1.593 3.911 3.044 8.22 5.251 11.827 2.618 4.279 6.295 8.033 9.693 11.681 7.011 7.526 14.226 13.315 23.879 17.17 8.615 3.44 17.561 5.622 26.553 7.69 5.85 1.346 12.123 2.298 11.38-5.62-.925-9.864-5.359-19.27-10.062-27.811-5.465-9.924-13.312-18.284-18.979-28.129-3.061-5.318-7.403-9.97-10.189-15.408-.067-.132-.125-.265-.189-.397 1.552.829 3.347 1.358 4.977 1.922 5.479 1.896 11.058 3.436 16.824 4.146 13.65 1.683 26.989-.712 40.277-3.598 7.104-1.543 13.885-.318 21.029-.835 5.869-.424 11.89-1.28 17.548-2.903 6.775-1.943 12.768-5.33 19.326-7.787 2.62-.981 5.414-1.789 8.173-2.677 1.477-.096 2.919-.369 3.546-.469.086-.014.186-.026.273-.04-.674 2.341-1.225 7.294-1.159 8.244.17 2.498.839 5.034 1.593 7.406 2.139 6.725 6.94 14.275 12.653 18.398 2.919 2.106 12.187 9.259 16.145 5.213 1.948-1.993.737-8.669-.861-11.889-.005-.046-.007-.092-.014-.138q.033.036.067.068c5.526 5.199 12.646 9.163 19.71 11.835 3.62 1.369 7.327 2.839 11.175 3.416 2.491.373 6.143 1.32 8.651.801 5.652-1.169 4.287-9.377 3.259-13.464-.892-3.55-3.291-4.964-5.471-7.799-2.713-3.527-5.222-7.459-7.496-11.277-2.719-4.563-4.735-12.938-10.37-14.71-2.427-.764-4.357-.5-6.5-2.003-1.439-1.009-2.884-2.316-3.929-3.795 4.603-.437 9.259-2.827 13.487-4.204 7.929-2.582 16.21-4.064 24.583-3.7 8.637.375 15.541 3.929 21.861 9.727 2.468 2.264 4.478 4.98 7.003 7.196 2.592 2.275 5.709 3.863 8.425 6.003 2.452 1.933 7.894 5.116 10.496 1.334 1.075-1.562.92-4.926 1.075-6.762.4-4.718.419-9.647-.162-14.341-1.035-8.364-1.913-17.123-.787-25.562 1.153-8.643 5.127-16.988 9.099-24.653 3.863-7.453 6.788-15.4 10.193-23.057 1.587-3.569 2.55-7.422 3.417-11.22.586-2.554 1.909-5.735.384-8.147M59.806 265.584c4.366-1.023 8.87-1.452 13.144-2.89 4.994-1.68 9.534-3.008 14.883-3.407 2.984-.222 5.983-.366 8.988-.471-1.693.52-3.389 1.034-5.078 1.554-4.383 1.349-8.819 2.19-13.334 2.942-4.927.819-9.683 1.911-14.575 2.968-5.006 1.082-10.118 1.562-15.053 2.973-1.932.349-3.861.725-5.787 1.15 5.574-1.679 11.128-3.487 16.812-4.819m79.09 17.405c-4.884-.831-10.082-.856-14.645-2.627-4.974-1.93-9.917-4.432-15.14-5.591-9.919-2.203-20.097-1.093-30.157-.563-10.641.561-21.438.107-31.96 1.797-8.816 1.417-17.815 2.596-26.625 1.456 1.7-.273 3.388-.783 5.003-1.19 4.987-1.258 10.243-1.651 15.322-2.423 8.826-1.341 17.666-2.682 26.47-4.219 7.337-1.281 14.751-2.652 22.017-4.275 7.77-1.735 16.167-2.883 23.631-5.612.188.041.367.099.558.134 4.453.817 9.655.281 14.117-.249.803-.095.981-1.119.192-1.414-4.414-1.649-8.833-.901-13.376-1.722-3.862-.697-7.153-3.169-10.971-3.742-2.356-.354-4.711-.256-7.07-.464-2.054-.181-3.781-1.098-5.667-1.848-1.684-.67-3.676-.734-5.449-1.042-2.977-.515-5.984-.743-9.015-.737-2.087.004-4.178-.029-6.27-.075-2.774-.214-5.54-.395-8.315-.696-6.503-.705-12.972-1.466-19.481-2.189a27 27 0 0 0-1.854-.283 65 65 0 0 0-2.88-.241c-7.02-.755-13.987-1.485-20.938-2.663-2.301-.39-4.689-.367-6.989-.678-1.096-.147-3.927.015-4.644-.456a1 1 0 0 1-.25-.214c4.718-.188 10.042-2.039 14.422-2.937 6.787-1.392 13.442-3.133 20.151-4.862 1.201-.31 2.413-.615 3.624-.92 5.341-.499 10.827-.699 15.938-2.154 4.294-1.224 8.317-2.638 12.477-3.792a168 168 0 0 1 8.756-1.107c4.754-.462 9.602-.912 14.289-1.978a26 26 0 0 0 2.905-.746c.199-.064.396-.134.594-.199.33-.102.662-.191.989-.301 6.918-2.325 13.699-4.764 20.849-6.351 7.188-1.595 14.393-4.262 21.695-5.983 3.195-.589 6.42-1.036 9.753-1q1.152.207 2.317.209 1.357-.346.672 1.1c.727 1.448-.417 4.234-.673 5.667-.364 2.033-.776 3.83-.74 5.887.077 4.417 1.574 7.528 5.008 10.36 4.365 3.6 11.848 5.479 12.158 11.901.331 6.841-1.234 12.378-3.953 18.481-.742 1.666-1.427 3.281-2.169 4.835-2.837 3.595-5.444 7.185-9.188 9.982a38 38 0 0 1-3.919 2.549 31 31 0 0 1-3.424 1.102c-1.106.288-5.42 1.673-8.145 2.083m45.419 48.224c2.403 6.027 5.306 15.148 2.841 21.47-2.721 6.979-6.178 13.777-8.047 21.078-.548 2.142-1.118 3.929-2.019 5.974-.22.5-.384.858-.51 1.131-2.523-3.298-4.088-7.593-5.597-11.389-3.085-7.761-3.964-16.493-5.227-24.708-1.216-7.92-1.25-15.485-.788-23.488.256-4.456.139-8.905.237-13.358.073-3.355.734-6.638.855-9.96q.449.087.892.178c3.553 1.094 7.131 2.083 10.677 3.229.1.032.203.058.303.089-1.477 3.601-.204 8.771.37 12.155 1.053 6.194 3.708 11.819 6.013 17.599m206.207 3.276c-1.506.698-5.79-2.729-7.084-3.486-3.756-2.202-5.996-4.297-8.542-7.819-3.15-4.359-5.867-8.682-7.214-13.928-.847-3.298.559-7.271.001-10.541 3.313-.454 7.149-1.065 9.588-2.562.127.769.276 1.537.48 2.302.959 3.605 2.332 7.238 3.77 10.684 1.951 4.679 4.868 9.569 8.296 13.666-.301 1.258-.249 2.18.159 3.513.143.466.266.997.433 1.505.104 2.763.911 6.297.113 6.666m18.029-34.696c1.88.364 3.224-.181 4.823.904 2.064 1.4 2.469 4.278 3.559 6.346 3.587 6.807 8.115 13.25 12.631 19.463 1.339 1.841 1.703 3.13 1.934 5.366.082.797.487 5.097.014 5.449-.742.553-6.963-.623-8.017-.803-8.273-1.411-16.693-5.43-23.576-10.096-6.568-4.452-11.946-11.515-15.339-18.675-2.434-5.136-3.961-10.691-6.052-15.942.042-4.465-.02-9.064 3.186-12.639 3.798-4.234 8.44-3.265 12.155.462 2.623 2.633 1.917 5.746 2.848 9.098.851 3.062 2.681 5.482 5.028 7.56 1.998 1.769 4.149 2.993 6.806 3.507m97.697-97.114c-1.303 3.859-3.177 7.083-5.096 10.625-3.536 6.526-6.268 13.52-9.624 20.147-3.206 6.329-5.891 12.674-7.439 19.591-1.555 6.944-.742 13.356-.34 20.354.495 8.602 2.264 16.934 2.068 25.626-.097 4.329-.158 7.336-5.148 4.159-2.626-1.672-5.239-4.426-7.275-6.75-4.275-4.881-7.534-9.612-12.975-13.431-5.31-3.727-11.167-5.238-17.521-5.652-6.825-.444-14.103.293-20.764 1.908-4.104.996-8.226 2.486-12.213 3.882-3.029 1.061-5.993 2.712-9.156 3.358-.855-2.492-1.166-5.139-2.915-7.216-4.491-5.334-11.006-8.146-17.041-3.682-5.144 3.805-5.85 10.565-4.546 16.333a7 7 0 0 0-1.258.131c-3.164.616-6.322 1.708-9.477 2.447-.225.052-1.43.26-2.875.601-9.748 1.488-18.827 5.881-28.197 8.841-5.998 1.895-12.292 3.059-18.559 3.563-6.378.513-12.601-.611-18.939.553-13.465 2.471-26.274 6.033-40.157 5.026-6.275-.455-12.685-1.835-18.775-3.423-2.171-.566-4.562-1.988-6.82-2.501-1.215-4.295-1.449-8.727-2.374-13.212a20 20 0 0 0-1.487-4.423c.264-1.941.049-4.073-.252-5.681-.116-.62-.49-1.928-1.099-2.85-1.184-2.055-3.368-3.802-5.136-5.032-4.617-3.212-9.142-4.914-14.709-3.62-.308.072-.234.539.074.543 4.575.059 8.903 2.109 12.466 4.898 1.42 1.112 3.052 2.266 4.088 3.766.488.707.881 1.425 1.278 2.141q.066.49.115.986c-2.874-3.241-6.795-5.477-11.3-5.602-1.113-.031-1.418 1.817-.269 1.991 11.651 1.773 11.115 12.032 12.274 21.021 1.101 8.534 5.064 14.333 10.07 21.116 4.807 6.512 8.761 13.567 13.829 19.936 6.519 8.19 12.629 16.511 16.07 26.545 1.364 3.978 3.179 8.357 3.542 12.579.278 3.238-.508 4.351-3.888 3.734-1.658-.303-3.293-.798-4.949-1.129-8.086-1.617-16.825-3.795-24.241-7.547-7.676-3.883-13.64-9.841-19.478-16.017-3.135-3.317-6.44-6.604-9.121-10.317-2.373-3.286-3.691-7.025-5.359-10.678-4.281-9.373-5.041-20.199-5.833-30.42-.729-9.396-.204-18.749.108-28.137.031-.921-1.437-1.146-1.629-.221-1.31 6.318-2.331 12.463-2.764 18.732-4.354.013-9.801-2.431-13.932-3.55-.993-.269-1.989-.521-2.985-.769a38 38 0 0 0-3.437-.839c-1.838-.447-3.673-.91-5.498-1.424-.324-.242-.725-.365-1.09-.305-2.898-.847-4.686-1.406-7.454-2.358-3.542-1.218-6.198-3.284-9.187-5.064 3.066-1.136 6.303-2.908 9.242-5.145a25.2 25.2 0 0 0 7.097-6.499c2.062-2.765 3.034-6.102 4.365-9.231 1.223-2.877 2.987-5.523 3.813-8.523 1.395-5.063 2.88-13.751-.146-18.409-4.102-6.313-14.276-6.068-16.205-14.282-.954-4.063 3.475-13.851.072-16.905a2.6 2.6 0 0 0-.621-.389c3.152-1.006 6.239-2.192 9.345-3.343 7.387-2.739 14.075-6.486 21.057-10.053 6.654-3.4 14.261-4.708 21.52-6.212 6.988-1.449 12.881-4.6 18.875-8.524 7.5-4.91 14.508-10.368 22.631-14.289 8.083-3.901 16.838-6.383 24.996-10.138 7.196-3.312 13.945-8.012 19.907-13.206a71 71 0 0 1 6.047-4.704c2.823-1.287 5.649-3.064 8.096-3.89 3.551-1.199 7.371-1.407 10.931-2.622 2.254-.77 3.87-1.504 6.3-1.776.042-.005 2.307-.172 3.765-.334-2.51 6.077-4.3 12.483-5.9 18.839-.921 3.657-2.019 7.493-1.695 11.313.243 2.874 1.706 4.919 2.674 7.616 2.354 6.556.616 13.279 3.281 19.629 1.941 4.626 4.607 8.12 8.413 10.475 5.112 5.17 13.671 7.378 20.094 9.438 11.65 3.737 23.874 7.581 34.523 13.683 10.5 6.016 21.715 11.212 31.666 18.187 3.62 2.537 7.445 4.832 11.534 6.531 2.062.856 4.16 1.399 6.291 2.03 3.373.998 6.749 3.167 10.342 2.858 3.265-.28 6.257-2.037 8.819-3.969 5.428-4.094 9.52-9.601 13.807-14.802 5.416-6.569 10.472-13.092 16.624-19.025 3.366-3.246 6.737-6.049 10.517-8.802 2.44-1.777 5.902-5.111 9.003-6.509-.05 2.354-1.958 6.148-2.481 7.699"/><path fill="#fff" d="M385.011 270.444c-4.672 1.452-8.151 3.438-11.25 7.33-1.277 1.604-2.21 3.226-2.805 5.183q-.444 1.453-.607 2.961-.089.666-.118 1.337c-.002.229.12.36.347.405l-.01.011-.049.108c-.147.327.278.585.485.283 2.09-3.043 2.448-6.72 4.985-9.647 2.616-3.019 5.917-5.284 9.266-7.394.293-.185.11-.687-.244-.577m-11.054 3.127c.76-.98 1.284-2.171 2.276-2.958.266-.211.046-.696-.279-.674-1.229.084-2.536 1.217-3.521 1.9-1.75 1.211-3.717 2.887-5.146 4.468-1.367 1.513-4.477 5.805-2.272 7.667.263.222.727.169.814-.215.58-2.545 2.748-5.099 4.639-6.743 1.205-1.047 2.506-2.178 3.489-3.445m15.776-4.576c-.517.093-.487.902 0 1.015 2.086.486 4.054.863 5.888 2.043 1.962 1.263 3.146 3.375 4.884 4.891.578.504 1.673.035 1.386-.807-1.516-4.456-7.522-7.982-12.158-7.142m-35.722 22.059c-9.771 2.583-20.809 8.355-31.033 7.814-.384-.021-.468.586-.091.672 4.879 1.109 9.828-.332 14.552-1.655 5.722-1.602 11.532-3.488 16.947-5.941.513-.232.145-1.027-.375-.89m-34.95-5.523c9.162-1.275 18.686-3.038 27.237-6.652.465-.197.231-1.004-.26-.957-9.173.882-18.248 4.553-27.453 5.883-1.138.164-.65 1.883.476 1.726m-63.999-100.786c9.408-.209 18.466 1.027 27.82 1.433.679.029.827-1.034.162-1.189-9.728-2.275-18.99-3.283-28.991-3.051-7.817.181-18.612-.017-25.619 4.08-.395.231-.209.815.226.834 8.671.375 17.658-1.913 26.402-2.107m1.644-6.439c14.753 1.024 29.015 1.603 43.442 5.238.744.188 1.26-.899.537-1.275-12.835-6.686-29.991-5.78-43.979-4.805-.541.037-.542.805 0 .842m31.607 9.235c4.849 3.069 10.293 4.448 15.658 6.354 6.043 2.147 11.802 5.483 17.977 7.151.823.222 1.313-.934.578-1.372-5.03-3.002-10.388-5.163-15.898-7.11-5.902-2.085-12.209-3.154-17.956-5.637-.411-.178-.757.362-.359.614m149.966 85.566c-11.519-.874-25.652 1.871-35.88 7.156-.312.161-.079.58.224.529 11.948-1.986 23.569-5.415 35.656-7 .429-.057.45-.651 0-.685m3.756-5.456c-10.125-2.219-19.729.513-29.725 1.77-.358.045-.382.594 0 .579 5.088-.198 10.128-.915 15.213-1.056 4.746-.132 9.592.696 14.287.363.896-.065 1.208-1.441.225-1.656M268.22 294.957c.372-.064.275-.646-.088-.646-6.6 0-13.033-.412-19.549-1.547-4.988-.869-11.804-1.707-16.232-4.213-.365-.207-.631.305-.319.546 4.467 3.45 11.566 4.506 16.993 5.425 6.577 1.112 12.597 1.582 19.195.435m29.71-11.136c-8.941 1.914-17.978 3.624-27.149 3.546-4.146-.035-8.278.165-12.414.442-4.325.29-11.132 1.764-14.723-1.297-.319-.271-.766.159-.465.465 5.307 5.412 18.129 2.151 24.91 2.069 10.459-.126 20.055-1.227 30.08-4.363.55-.172.323-.983-.239-.862m158.41-9.89c-3.678-1.62-7.198-2.554-11.205-2.333-.773.042-.786 1.204 0 1.211 6.492.065 12.672 4.052 18.184 7.188.494.281 1.196-.313.829-.829-1.777-2.494-5.074-4.032-7.808-5.237"/></svg>