<svg xmlns="http://www.w3.org/2000/svg" xmlns:xlink="http://www.w3.org/1999/xlink" width="400" height="200" viewBox="-155.329 7.356 650.657 325.329"><defs><path id="a" fill="#fff" d="M303.325 103.715s3.966-26.154-6.772-39.794-10.447-25.248-10.447-25.248l-31.343 3.482-18.031 21.951a17 17 0 0 0-3.867 8.944c-.376 3.539.37 7.639 4.857 9.882 10.127 5.063 12.963-5.3 12.978-5.371a29.93 29.93 0 0 1 17.959-1.451 10.83 10.83 0 0 1 3.389 5.3 35.5 35.5 0 0 1 3.5 9.745 13.378 13.378 0 0 1-14.4 15.66 73 73 0 0 1-31.047-10.1s-29.6-14.441-69.36 7a421 421 0 0 0-39.65 21.833 150.5 150.5 0 0 0-45.274 43.907q-.647.974-1.285 1.969a148.3 148.3 0 0 1-15.4 19.876 1592 1592 0 0 1-19.7 21.208C23.756 229.05 1.99 260.683 11.857 296.96c0 0 5.23 27.863 34.831 31.346a42.73 42.73 0 0 0 23.358-3.761 1.877 1.877 0 0 0-.713-3.565c-9.521-.427-26.5-4.513-34.933-26.826-1.89-10.31-3.466-20.488-.625-28.805l17.524-28.4 120.464-36.629 89.094-43.532 29.312-30.182z"/></defs><path fill="#fff" d="M301.267 118.3s-3.272 11-.248 26.433a46.3 46.3 0 0 0 9.276 19.919 127 127 0 0 0 8.628 9.7c7.761 7.929 8.78 20.276 7.462 29.512a7.937 7.937 0 0 1-14.294 3.458c-2-2.85-3.534-6.958-3.79-12.879a21.85 21.85 0 0 0-7.085-15.039c-1.957-1.809-4.11-3.726-6.207-5.448a30.4 30.4 0 0 1-10.216-16.013 114.4 114.4 0 0 1-3.582-27.67zm-89.415 68.185s3.222 27.391-3.466 50.455a29.2 29.2 0 0 1-4.926 9.63l-4.1 5.344a36.2 36.2 0 0 0-7.541 22.559 52 52 0 0 0 1.114 10.411s1.892 9.777 16.715 15.454a13.76 13.76 0 0 1 6.173 6.572 7.476 7.476 0 0 1-6.823 10.577h-7.776a10.46 10.46 0 0 1-9.006-5.1 57.7 57.7 0 0 0-10.381-12.835 13.4 13.4 0 0 1-4.3-9.645c-.135-8.882-1.216-25.943-6.992-39.718l-3.527-48.427z"/><use xlink:href="#a"/><use xlink:href="#a"/><path fill="#fff" d="M90.251 218.407c-93.168 27.683-66.723 89.1-57.4 105.887a41.8 41.8 0 0 0 13.839 4.012 42.73 42.73 0 0 0 23.358-3.761 1.877 1.877 0 0 0-.713-3.565c-9.521-.427-26.5-4.513-34.933-26.826-1.89-10.31-3.466-20.488-.625-28.805 9.111-19.637 30.291-34.317 56.474-46.942"/><path fill="#fff" d="M303.325 103.715s-13.525 7.622-22.625 24.761l-16.814 7.948s-2.167 16.212-26.826 24.81c-18.15 6.328-36.671-3.019-42.341-6.311a21.5 21.5 0 0 0-9.383-2.968c-5.17-.325-12.236 1.055-18.832 8.441-28.491 31.9-60.663 42.67-60.663 42.67-31.883 5.96-53.616 25.516-53.616 25.516a67.5 67.5 0 0 0-15.371 19.577c-4.908 13.25-4.7 29.1-2.458 46 0 0-4.176-35.1 26.154-54.79a61.5 61.5 0 0 1 13.33-6.417c11.542-4.016 41.647-13.318 68.053-11.4 0 0 25.911 5.065 59.343-21.488a41.47 41.47 0 0 1 21.057-8.721c14.8-1.7 40.347-9.658 53.184-43.033.004-.01 26.898-8.866 27.808-44.595"/><path fill="#fff" d="m280.7 128.476-5.95 2.812c-13.238 34.017-40.783 42.451-57.831 45.106a51.3 51.3 0 0 0-20.152 7.88 11.817 11.817 0 0 1-15.942-2.689s-6.1-8.786-11.727-13.705a70.8 70.8 0 0 0 7.3 29.7 52.6 52.6 0 0 1-13.662 3.508c-10.422 1.226-24.012 4.215-36.605 7.371a56 56 0 0 0-12.444-4.015c-1.766-.329-7.295-3.469-1.834 3.085l.028.033a3.188 3.188 0 0 1-1.646 5.081c-11.627 3.194-19.989 5.767-19.989 5.767-26.307 7.816-43.076 18.322-53.389 29.754a57 57 0 0 0-2.457 45.99s-4.176-35.1 26.154-54.79a61.6 61.6 0 0 1 13.33-6.417c11.543-4.016 41.647-13.318 68.053-11.4 0 0 25.92 5.067 59.36-21.5a41.35 41.35 0 0 1 21.018-8.705c14.8-1.7 40.362-9.644 53.206-43.036 0 0 26.894-8.858 27.8-44.587.004-.004-14.605 3.541-22.621 24.757"/><path fill="#fff" d="M105.845 203.066a99.4 99.4 0 0 1 23.991 11.07 36.164 36.164 0 0 1 14.761 42.1 87 87 0 0 1-9.231 19.037 11.76 11.76 0 0 0-1.9 6.377v11.2a11.63 11.63 0 0 0 3.454 8.3A44.8 44.8 0 0 1 145.2 312a10.02 10.02 0 0 0 8.86 5.489h10.085a6.725 6.725 0 0 0 5.732-10.244 24.8 24.8 0 0 0-8.227-8.286 14.3 14.3 0 0 1-6.691-12.015l-.058-3.5a14.5 14.5 0 0 1 2.289-8.056 149.7 149.7 0 0 1 16.51-21.431s21.084-18.555 8.6-50.891-15.788-42.67-15.788-42.67zm158.045-66.642s4.191 11.065-.771 28.955a50.63 50.63 0 0 0 .595 30.155q.421 1.214.917 2.454a20.5 20.5 0 0 1-.493 15.883 21.82 21.82 0 0 0-1.016 14.415 7.427 7.427 0 0 0 12.513 3.294c5.006-5.284 9.224-15.1 3.253-32.646a33.95 33.95 0 0 1-1.257-21.254 30 30 0 0 1 4.145-8.7c3.736-5.548 14.133-24.391 3.08-49.2zm22.216-97.751s-17.8 10.184-31.343 3.482c0 0 10.563-14.05 23.607-23.645a35.42 35.42 0 0 1 26.79-6.653 40.6 40.6 0 0 1 6.75 1.748 75 75 0 0 1 15.232 7.166 7.435 7.435 0 0 1 .686 12.1c-.246.192-.5.379-.777.56-4.305 2.855-10.125 2.522-13.579-1.319q-.276-.308-.536-.649a12.69 12.69 0 0 0-12.361-5.07c-5.083.954-10.866 4.032-14.469 12.28M38.208 229.624a1.231 1.231 0 0 1-1.872-1.558c3-4.961 8.877-12.393 19.874-19.837 8.939-6.052 23.752-18.512 33.505-33.322 8.374-12.716 30-31.984 32.109-28.73 3 4.627-18.383 20.484-26.323 32.54-10.424 15.83-27.82 28.665-37.18 35.027a197 197 0 0 0-20.113 15.88m92.229-92.637c3.147-4.456 17.883-19.686 47.293-25.478 3.282-.647 1.291 4.67-4.039 5.825-10.626 2.3-21.661 5.821-37.067 19.807a9.85 9.85 0 0 1-4.476 2.485 1.691 1.691 0 0 1-1.711-2.639m125.651-15.21a51.6 51.6 0 0 1-20.2-4.337c-8.013-3.6-12.919-5.741-20.779-5.442-3.153.119-7.465-.735-7.846-2.334-.528-2.217 4.506-4.266 7.605-4.256 8.9.029 14.9 1.689 23.858 5.711a44.8 44.8 0 0 0 17.908 3.723 26.1 26.1 0 0 0 12.008-2.256 1.52 1.52 0 0 1 1.75 2.4c-2.262 2.53-6.225 5.33-13.105 6.754a1.5 1.5 0 0 1-.231.019c-.073.004-.41.018-.968.018M284.065 72.8a16.6 16.6 0 0 0-2.03-8.353 1.412 1.412 0 0 0-2.592 1.029 13 13 0 0 1 .265 1.61 8.14 8.14 0 0 1-6.559 8.675 21.6 21.6 0 0 1-4.49.346 34 34 0 0 1 3.389 5.3c4.252-.256 12.017-1.672 12.017-8.607m-23.191-11.564A3.464 3.464 0 0 1 258.793 55l1.13-.847a3.464 3.464 0 0 1 4.156 5.543l-1.13.847a3.44 3.44 0 0 1-2.075.693"/><path fill="#fff" d="M143.178 197.658c2.123-3.073-3.9-5.765-6.052-2.712a83.5 83.5 0 0 0-9.484 17.836q1.091.653 2.192 1.353a36 36 0 0 1 3.586 2.612 75.1 75.1 0 0 1 9.758-19.089M265.949 40.912l-6.331.7-4.855.539-18.031 21.955a17 17 0 0 0-3.867 8.944c-.376 3.539.37 7.639 4.857 9.882 10.127 5.063 12.963-5.3 12.978-5.371-9.988-2.074-6.344-10.848-6.344-10.848 3.326-8.122 10.058-14.74 13.407-18.383a12.75 12.75 0 0 1 9.393-4.086h.818zm-71.986 66.367a7.8 7.8 0 0 0-3.339 1.386c-1.7 1.2-1.209 4.619.717 5.065a9.5 9.5 0 0 0 3.808.178 7.36 7.36 0 0 0 3.076-1.437c1.607-1.224 1.118-4.5-.728-5a8.5 8.5 0 0 0-3.534-.192M146.8 182.814a7.1 7.1 0 0 0-1.5 2.95c-.465 1.848 1.906 3.933 3.511 3.1a8.7 8.7 0 0 0 2.756-2.141 6.74 6.74 0 0 0 1.286-2.828c.391-1.807-1.9-3.794-3.477-3.044a7.8 7.8 0 0 0-2.576 1.963m-.544 29.932a43.8 43.8 0 0 0-6.143 11.312 36.3 36.3 0 0 1 4.443 8.8 97 97 0 0 0 5.886-18.156 2.364 2.364 0 0 0-4.186-1.956"/></svg>