<svg xmlns="http://www.w3.org/2000/svg" width="400" height="200" viewBox="-20.621 14.716 141.386 70.693"><path fill="#fff" d="M75.4 63.8s-8.2-4.3-17.8-7c-4.1-1.2-7.2-4.6-7.8-8.9-1.8-12.6-.3-28.8-12.7-31.7-1.6-.4-3.2-.6-5.2-.6-3.1 0-7 .6-13.5 2.2-3.6.9-3 1.6-5.2 2.7s-6.7 2.7-7.7 4 0 3.7 0 3.7l1.8 1.5.7-2.5 2.2 1.3.7-2.1 1.7 1.4 1-2.1 1.8 1.1.9-1.6c.3-.1.6-.1.6-.1l1 2.7s-.4.3-1.1.9h-1.3l-.5 1.1-.2.2-1.4-.2v1.5l-.1.1-1.5-.4-.3 1.8-1.6-.3-.2 1.6c-.5.6-.9 1.5.7 1.9h.2c1.7 0 5.6-3.6 8-4.7 2-1 5.5-6.8 11.7-6.8 1.4 0 3 .3 4.7 1 5.1 2.2 3.5 5.3 4.9 33.7 0 0 .9 7.4 7.8 11.6 1.3 3.6 4 8.5 10.1 13 0 0 3.5 2.8 2.4-2.6-.6-2.9-.7-5.3-1.4-7.5h1.8c3 0 5.8-.3 8.6-.4 2.2 2.9 5.7 6.3 11.1 8.7 0 0 3.4 1.7.8-3-1-1.7-1.7-3.3-2.5-4.7 2.8.9 5.9 2.4 9.5 4.9 1.4 1 4 4.4 6 4.4.3 0 .5-.1.7-.2 1.9-1-5.7-10.6-19.4-19.6M17.6 22c-.5 0-.9-.4-.9-.9s.4-.9.9-.9.9.4.9.9-.4.9-.9.9"/><path fill="#fff" d="M62.6 75.1c-.4 1.6-.5 3.5-.2 5.6.1.6.8 1 1.4.7 1.4-.8 4-2.7 6.1-6.6-1.3 0-2.5.1-3.8.2-1.2-.1-2.3 0-3.5.1m-20.7-7.8c-1.2 1.9-3.1 5.9-2.4 10.8.1.6.8 1 1.4.7 1.4-.8 4-2.7 6.2-6.7-2.4-1.5-4-3.2-5.2-4.8"/></svg>