<svg xmlns="http://www.w3.org/2000/svg" width="400" height="200" viewBox="-38.156 5.922 176.312 88.156"><path fill="#fff" d="M9.286 43.214H63.57c1.8 0 3.527.715 4.798 1.988A6.78 6.78 0 0 1 70.357 50v36.19a6.78 6.78 0 0 1-1.988 4.798 6.78 6.78 0 0 1-4.798 1.988H9.286a6.78 6.78 0 0 1-4.798-1.988A6.78 6.78 0 0 1 2.5 86.19V50c0-1.8.715-3.526 1.988-4.798a6.78 6.78 0 0 1 4.798-1.988m65.595 15.813 19.235-10.99A2.26 2.26 0 0 1 97.5 50v36.19a2.26 2.26 0 0 1-3.384 1.963l-19.235-10.99zM18.333 38.69C9.596 38.69 2.5 31.595 2.5 22.857S9.596 7.024 18.333 7.024s15.834 7.095 15.834 15.833S27.07 38.69 18.333 38.69m36.191 0c-8.738 0-15.834-7.095-15.834-15.833S45.786 7.024 54.524 7.024s15.833 7.095 15.833 15.833S63.262 38.69 54.524 38.69"/></svg>