<svg xmlns="http://www.w3.org/2000/svg" width="400" height="200" fill-rule="evenodd" stroke-linejoin="round" stroke-miterlimit="2" clip-rule="evenodd" viewBox="-29.538 1.231 123.077 61.539"><path fill="#fff" d="M19 45.477a6.4 6.4 0 0 0-2.04-.215c-2.16.109-4.69 1.272-6.74 3.458-2.02 2.143-3.11 4.76-3.21 7.009-.08 1.814.46 3.42 1.54 4.572 1.13 1.201 2.71 1.78 4.49 1.69 2.16-.109 4.69-1.272 6.74-3.458 2.02-2.143 3.11-4.76 3.21-7.009.01-.157.01-.505.01-.524V21.678l30-5.294v23.093a6.4 6.4 0 0 0-2.04-.215c-2.16.109-4.69 1.272-6.74 3.458-2.02 2.143-3.11 4.76-3.21 7.009-.08 1.814.46 3.42 1.54 4.572 1.13 1.201 2.71 1.78 4.49 1.69 2.16-.109 4.69-1.272 6.74-3.458 2.02-2.143 3.11-4.76 3.21-7.009.01-.157.01-.505.01-.524V4c0-.591-.26-1.152-.72-1.532-.45-.38-1.04-.54-1.63-.438l-34 6C19.7 8.199 19 9.03 19 10z"/></svg>