<svg xmlns="http://www.w3.org/2000/svg" width="400" height="200" viewBox="-269.132 -6.564 1050.269 525.135"><path d="M502.651 421.879c-.469-7.523-2.529-15.955-5.705-22.753-6.126-13.114-13.357-24.454-25.551-32.588-3.064-2.043-6.334-3.769-9.332-5.906-2.047-1.457-5.337-2.584-6.998-4.298-3.609-3.724-8.299-5.208-13.119-6.679-4.634-1.414-8.471-3.396-12.736-5.559-8.48-4.301-14.56-11.462-20.023-19.057-4.852-6.745-12.453-12.044-18.744-17.408-9.061-7.725-19.025-14.327-27.907-22.322-9.36-8.425-19.267-16.34-30.222-22.606-11.529-6.594-23.252-9.708-36.25-12.164-15.178-2.869-30.525-4.787-45.654-7.927-9.461-1.964-18.764-3.994-28.344-5.103-7.837-.908-14.461 1.673-22.066-1.507-7.326-3.063-12.747-8.255-18.352-13.797-7.055-6.975-12.958-14.834-19.787-21.994-7.77-8.147-11.405-18.123-16.084-28.167-3.373-7.241-7.16-14.327-10.02-21.8-5.191-13.563-9.088-27.72-10.984-42.122-2.313-17.554-5.586-34.98-8.397-52.469-2.196-13.664-8.313-28.184-19.209-37.031-3.868-3.141-7.989-5.44-12.206-8.108-4.443-2.812-8.947-5.745-13.967-7.43-2.525-.848-5.004-1.12-7.499-1.174-2.684-.058-5.388.135-8.194.135-3.689 1.592-7.357 3.238-11.072 4.765-6.432 2.645-12.409 5.547-18.896 7.963-5.256 1.958-12.324 4.726-14.843 10.2-1.491 3.242.506 6.291 2 9.055 3.318 6.141 5.382 9.658 12.646 7.753 2.079-.545 12.309-4.179 11.697.661-.607 4.801-13.095 4.522-11.27 10.491 1.383 4.521 7.347 1.09 9.89.161 5.819-2.126 12.19-3.88 18.431-3.794 8.406.117 9.818 3.581 13.113 10.452.964 2.013 2.577 4.606 4.624 5.698.97.517 2.612.258 3.416.844 4.806 3.51 5.647 15.645 4.815 20.745-.299 1.839.951 3.926 1.465 5.903 3.082 11.869 6.436 23.675 9.168 35.624 3.795 16.6 5.634 33.341 6.195 50.505.711 21.716 4.336 43.353 7.08 64.976.588 4.622 2.01 9.509 4.385 13.471 13.063 21.784 21.14 45.662 30.666 69.005 6.152 15.076 6.988 28.514-.03 43.078-10.94 22.701-20.464 45.97-26.44 70.587-1.402 5.78-4.941 10-8.674 14.308-2.078 2.397-7.92 9.535-6.021 13.007 1.869 3.416 11.275 2.088 14.15 1.843 3.971-.338 7.995-.407 11.994-.291 3.258.094 8.064 1.225 11.003-.851 4.16-2.938 2.408-9.345 2.932-13.547.939-7.53 4.247-14.377 8.055-20.845 1.88-3.194 3.735-6.506 5.583-9.653 1.866-3.178 4.958-5.285 6.91-8.386 1.826-2.9 1.662-6.385 3.019-9.43 3.067.565 4.313 19.764 4.538 23.49.518 8.618-1.486 17.031-5.823 24.497-3.2 5.509-6.215 10.966-9.927 16.078-1.93 2.658-7.297 9.583-3.293 12.596 1.295.973 5.229.691 6.825.829 4.286.37 8.526.097 12.807.236 5.199.17 14.915 2.563 17.673-2.878 2.043-4.027 2.996-9.752 4.312-14.104 2.481-8.209 5.55-15.144 9.409-22.907 6.162-12.398 7.547-24.283 2.242-37.377-2.113-5.213-5.537-11.318-1.033-17.877 6.798-.614 11.379 3.695 15.091 8.338 7.407 9.266 17.159 13.037 28.461 13.957 8.228.67 15.714 3.537 24.155 7.316.572 11.842 1.676 23.661 1.859 35.52.075 4.77.373 9.819.18 14.528-.187 4.581-3.542 7.623-5.799 11.349-1.007 1.662-3.646 5.725-2.814 7.857 1.638 4.203 16.32 1.845 19.916 1.66 3.244-.167 6.48-.164 9.736-.28 2.338-.083 8.402-.03 10.347-1.296 3.973-2.587 2.307-10.032 1.524-13.762-1.023-4.876-2.156-10.079-2.517-15.075-.589-8.137 1.304-16.115.865-24.217-.171-3.167-1.859-14.831 2.102-16.007.536-.159 4.119.677 5.087.614 1.053-.069 3.199-.528 4.146-.324 5.521 1.19 7.78 7.844 9.786 12.217 2.845 6.203 5.803 12.358 8.312 18.708 3.81 9.644 3.021 16.734-4.129 24.44-1.532 1.653-7.827 7.201-5.959 9.843 1.043 1.475 7.078 1.479 8.862 1.64 4.017.363 8.356-.229 12.361-.588 7.368-.662 19.596 1.09 21.661-8.198 2.499-11.238-4.666-22.491-8.495-32.66-2.181-5.789-4.008-11.689-6.32-17.431-1.604-3.984-4.715-9.321-3.549-13.764 1.277-4.865 7.248-6.552 11.275-8.292 5.5-2.377 9.148-1.941 15.065-2.296 7.991-.479 15.23-2.71 22.954-4.623 4.044-1.001 7.9-2.749 12.027-3.417 12.748-2.065 27.645 5.011 39.424 9.17 5.75 2.03 11.735 3.851 16.918 6.936 10.941 6.512 13.127 14.523 8.178 26.061-3.889 9.066-10.176 16.199-18.361 21.458-18.92 12.153-38.029 24.009-57.033 36.032-2.613 1.653-4.875 3.663-7.352 5.378-3.316 2.295-7.547 3.189-11.028 5.236-1.444.849-8.028 3.896-4.31 5.334 2.058.795 8.527-2.016 10.906-2.57 5.61-1.307 10.841-2.762 16.564-3.506 8.694-1.131 17.514-3.495 25.759-6.373 7.892-2.754 16.016-4.777 23.909-7.522 8.003-2.784 14.13-6.803 21.112-11.201 6.66-4.195 13.311-7.906 18.493-13.979 10.04-11.765 15.216-27.847 14.26-43.258M61.47 18.824c-3.082 3.541-8.705 2.661-10.305-1.863-.294-.83.164-1.629.844-2.069.549-2.17 2.916-3.375 5.104-3.089.354.046.689.142 1.015.26 1.397-.178 2.866-.003 3.868 1.057 1.631 1.728.859 4.112-.526 5.704" style="fill:#fff"/><path d="M502.651 421.879c-.469-7.523-2.529-15.955-5.705-22.753-6.126-13.114-13.357-24.454-25.551-32.588-3.064-2.043-6.334-3.769-9.332-5.906-2.047-1.457-5.337-2.584-6.998-4.298-3.609-3.724-8.299-5.208-13.119-6.679-4.634-1.414-8.471-3.396-12.736-5.559-8.48-4.301-14.56-11.462-20.023-19.057-4.852-6.745-12.453-12.044-18.744-17.408-9.061-7.725-19.025-14.327-27.907-22.322-9.36-8.425-19.267-16.34-30.222-22.606-11.529-6.594-23.252-9.708-36.25-12.164-15.178-2.869-30.525-4.787-45.654-7.927-9.461-1.964-18.764-3.994-28.344-5.103-7.837-.908-14.461 1.673-22.066-1.507-7.326-3.063-12.747-8.255-18.352-13.797-7.055-6.975-12.958-14.834-19.787-21.994-7.77-8.147-11.405-18.123-16.084-28.167-3.373-7.241-7.16-14.327-10.02-21.8-5.191-13.563-9.088-27.72-10.984-42.122-2.313-17.554-5.586-34.98-8.397-52.469-2.196-13.664-8.313-28.184-19.209-37.031-3.868-3.141-7.989-5.44-12.206-8.108-4.443-2.812-8.947-5.745-13.967-7.43-2.195-.737-4.354-1.026-6.52-1.128-2.813 2.917-5.047 6.403-6.233 10.095 1.362-.154 2.78.036 3.755 1.068 1.632 1.729.859 4.113-.525 5.705a6.22 6.22 0 0 1-3.847 2.109c.175.878.415 1.752.748 2.617 2.048 3.072 5.12 6.144 9.216 7.168 7.168 1.024 14.336-4.096 20.48-1.024 13.312 6.144-10.24 16.384-2.049 24.576 3.072 3.072 10.24 1.024 13.313 5.12 3.072 4.096-4.096 8.192-4.096 13.312 0 7.168 14.336 5.12 13.313 13.312-1.025 6.144-13.313 12.288-7.169 17.408s16.384 7.168 13.312 17.408c-3.071 7.168-12.287 13.312-9.215 21.504 2.047 8.192 17.407 2.048 19.455 6.144 8.192 12.288-18.432 21.504-7.168 36.864 6.145 8.192 17.408-1.024 18.433 5.12 2.048 15.36 2.048 26.624 19.456 30.72 10.24 3.072-3.072 16.384 1.023 23.552 5.12 11.264 14.336-3.072 22.528-2.048 5.12 0 6.144 7.168 5.12 11.264-2.049 17.408-20.48 44.032 2.048 55.296 4.097 2.048 8.192-1.024 12.288-3.072 9.216-6.144 9.216-18.432 14.336-27.648 4.096-7.168 15.359-9.216 20.48-2.048 1.023 2.048 3.072 4.096 3.072 7.168 1.023 10.24-4.097 20.48-2.049 30.72 3.072 10.24 14.336 6.144 19.456 0 4.097-4.096 3.072-13.312 8.192-14.336 16.384-4.096 1.023 22.528 7.168 28.672 4.096 5.12 16.384-5.12 18.432 1.024 4.096 11.264-15.359 40.96 8.191 39.936 4.097 0 7.168-5.12 9.217-9.216 3.072-13.312 1.023-33.792 18.432-34.816 4.096 0 7.168 3.072 10.24 6.144 8.191 10.24 0 28.672 14.336 33.792 3.072 1.024 6.145-2.048 8.191-4.096 5.121-6.144 7.168-14.336 13.313-20.48 3.072-3.072 8.192-5.12 11.264-2.048 9.217 8.192 4.097 23.552 15.36 28.672 12.288 6.144 17.408-11.264 28.672-11.264 9.216 0 4.097 16.384 11.265 16.384 9.215 1.024 22.527-11.264 27.647 4.096 1.024 5.12-3.071 9.216-2.048 13.312 1.023 8.192 12.288 2.048 16.384 4.096 6.144 2.048 2.048 11.264 3.071 17.408 1.025 2.048 4.098 3.072 6.145 5.12 4.096 5.12 3.072 12.288-4.096 12.288 1.023 9.216 1.023 19.456-4.096 28.672-6.145 8.192-13.313 11.264-22.528 15.36-1.024 0-2.048 3.072-4.096 5.12-3.072 3.072-6.144-2.048-10.24-1.024s-3.071 6.144-5.12 8.192c-9.216 5.12-24.576 1.024-28.672 11.264-.932 2.422-2.141 4.603-3.541 6.619 6.74-1.278 13.46-3.189 19.837-5.415 7.892-2.754 16.016-4.777 23.909-7.522 8.003-2.784 14.13-6.803 21.112-11.201 6.66-4.195 13.311-7.906 18.493-13.979 10.042-11.768 15.218-27.85 14.262-43.261" style="fill:#fff"/><path d="M223.98 283.606c-3.19-1.297-5.99 3.152-7.66 5.395-5.727 7.686-7.99 13.854-1.963 21.802 10.577 13.947 26.236-23.861 9.623-27.197m36.408 34.618c-2.665-.53-6.496 2.367-9.281 4.874-3.002 2.702-11.255 9.21-10.85 13.159.625 6.092 11.342 5.818 15.049 3.853 5.812-3.083 8.801-10.716 8.084-17.012-.362-3.18-1.496-4.574-3.002-4.874m-37.348 12.679c4.662 4.424 11.61 3.217 13.316-3.412 1.73-6.726-8.391-8.399-12.661-5.068-2.961 2.309-3.495 5.785-.655 8.48m-51.871-77.912c-7.078 2.937-18.756 28.973-9.683 27.709 3.517-.49 6.495-4.862 8.432-7.36 2.382-3.073 5.683-6.229 7.677-9.542 2.239-3.723 2.787-11.532-1.839-13.968-1.671.513-2.944 1.567-4.587 3.161m-29.094-25.648c-1.922 2.957-2.229 8.853-1.57 11.805.967 4.33 3.586 8.808 8.434 5.627 5.291-3.472 4.115-13.35-.153-17.235-3.193-2.906-5.353-2.284-6.711-.197m-17.217-30.611c-3.919 5.626-3.156 25.882 6.898 21.19 10.688-4.988-.256-28.69-6.529-21.66q-.189.215-.369.47m206.799 156.129c.534-3.12 1.485-9.544-1.167-12.126-2.604-2.536-9.77-1.712-12.837-.581-5.16 1.903-5.696 6.391-6.786 11.166-1.262 5.528-.908 12.998 5.282 15.347 8.524 3.235 14.317-6.848 15.508-13.806m43.108-6.899c-6.264.11-14.16 12.532-6.633 19.607 8.821 8.292 13.964-8.95 11.548-15.447-1.114-2.995-2.933-4.194-4.915-4.16m46.302 26.04c-5.703-2.278-17.406-.05-14.713 7.114 3.229 8.585 20.954 1.594 17.33-5.074-.476-.877-1.413-1.559-2.617-2.04m-225.023 15.696c2.473-7.723-2.552-17.609-4.525-25.071-1.803-6.809-.694-19.951 5.588-24.151 3.9 3.846 3.742 12.613 6.639 17.549 4.443 7.569 6.41 4.78 13.273 4.356 5.961-.369 8.231 4.614 10.162 9.429 3.212 8.007 4.109 12.825 13.075 14.469 5.856 1.074 7.872 1.88 11.919 6.033 2.97 3.046 8.088 6.67 12.479 5.717 1.449-.314 4.593-3.791 6.327-2.546 1.319.946.235 5.545.116 6.778-.479 4.946-2.633 11.357-6.867 14.569-2.913 2.208-5.789 1.003-9.211.226-9.875-2.24-21.174-3.407-30.281-8.223-4.439-2.349-8.822-5.625-12.717-8.784-3.83-3.107-10.272-6.756-15.977-10.351" style="fill:#fff"/><path d="M205.61 342.158c-1.742 4.354 6.67 17.263 10.549 11.599 1.649-2.409-1.812-12.065-3.332-13.778-1.742-1.962-7.313-4.626-7.217 2.179m24.11 21.43c1.047 5.084 3.801 9.683 7.412 13.399 2.188 2.253 10.809 8.696 13.213 3.317 1.521-3.406-5.688-9.99-7.408-11.987-4.192-4.866-10.413-14.617-13.217-4.729m40.565 28.32c-2.155-.388-4.724-.435-6.832-1.117-4.401-1.424-11.56-8.703-5.94-12.649 5.818-4.085 11.92 5.08 15.354 8.516-.709 1.104-1.071 2.398-2.582 5.25m-133.557-68.885c-2.145-9.926-7.643-19.131-9.845-29.161-1.937-8.82-6.495-15.258-11.229-22.751-2.953-4.676-5.561-8.09-7.05-13.475-1.671-6.041-2.919-12.211-4.034-18.38-.963-5.334-1.482-10.708-2.164-16.08-.818-6.43-3.102-12.808-3.515-19.278-.53-8.316.011-16.535-.91-24.85-.64-5.786-.743-11.578-1.019-17.382-.205-4.321-.569-8.031-1.355-12.261-.426-2.292-1.214-4.571.138-6.655 6.017 1.729 7.267 20.996 8.071 25.998 1.969 12.236 2.977 24.938 5.598 37.035 1.89 8.721 1.908 17.176 3.131 26.047.688 4.983 1.631 11.284 4.422 15.617 1.518 2.358 3.332 3.319 5.258 5.281 4.656 4.745 6.203 12.794 10.134 18.375 2.778 3.944 4.876 7.681 6.56 12.19 2.875 7.703 2.924 12.972 2.018 20.907-.803 7.015.492 16.376-4.209 18.823m-46.69-193.258c.194-7.548-3.236-15.831-4.723-23.188-.586-2.908-3.961-18.111 2.041-14.663 2.619 1.505 3.75 12.217 4.429 14.702 1.494 5.469 2.304 11.199 3.992 16.593 1.885 6.023 5.456 17.588-5.739 6.556M60.954 48.252c1.996 3.587 3.021 8.792 5.319 11.904 1.444 1.957 4.724 3.609 6.647 4.889 2.412 1.604 3.013 1.433 4.106 4.669 1.431 4.234-.805 13.223 2.69 16.047 6.045 4.883 4.227-13.679 4.201-16.637-.061-7.29-2.231-12.223-5.22-18.779-1.512-3.316-2.952-8.357-7.258-8.572-3.941-.197-8.92 4.819-10.485 6.479" style="fill:#fff"/><path d="M115.59 219.637c-.042.346-.07.669-.085.959-.215 4.014.027 8.395.455 12.433.453 4.296 1.996 19.504 9.346 17.662 5.569-1.405.781-20.429.025-23.718-.639-2.784-1.935-12.201-5.191-13.329-2.937-1.017-4.207 3.194-4.55 5.993m15.779 34.885c-.2 4.532 2.509 10.05 4.347 13.893 1.719 3.592 5.916 11.407 8.289 5.12 1.636-4.336-3.3-15.519-5.367-19.11-3.125-5.429-7.33-6.313-7.269.097m182.16 151.928c-3.493.411-12.321 5.587-11.793 10.218.434 3.812 7.752 2.677 10.731 2.037 7.146-1.536 13.521-5.487 20.165-8.41 3.706-1.63 7.009-4.124 10.902-5.205 3.609-1.002 7.405-.718 11.06-1.405 3.891-.732 7.351-2.923 11.381-2.516 5.061.511 7.668.771 13.025-.728 5.368-1.503 10.736-2.49 15.865-4.696 2.31-.993 12.98-2.756 12.526-6.975-.617-5.723-14.854-5.005-18.03-4.666-6.707.716-15.58 3.533-22.333 1.642-3.651-1.022-5.007-4.069-8.804-4.301-4.602-.281-7.798 2.684-10.972 5.493-9.052 8.013-20.052 13.576-33.723 19.512m68.119-34.442c-4.6.488-15.551 1.705-16.938 6.581 5.402 3.538 17.518 2.97 23.558 1.022 6.926-2.234 5.147-6.604-6.62-7.603m40.182 25.257c1.341.225 2.599.732 3.904 1.196 5.565 1.978 10.806 2.105 16.501 3.444 3.938.925 14.813 9.06 18.744 6.704 6.741-4.04-7.39-10.806-9.949-11.829-6.861-2.74-24.847-9.14-30.711-2.622.457 1.367 1.471 2.147 1.511 3.107m37.264-4.905c1.126-.227-4.196-4.342-4.467-4.515-2.092-1.333-4.224-2.595-6.486-3.621-3.37-1.528-10.032-4.432-13.003-.674 5.172 3.809 17.426 10.126 23.956 8.81m12.106 45.026c-3.167 1.527-7.218 7.774-8.785 9.167-2.85 2.53-9.449 6.948-9.118 11.395.483 6.472 9.408-1.678 11.319-3.34 3.47-3.017 11.639-9.369 10.251-14.768-.719-2.8-2.083-3.218-3.667-2.454m-56.347 46.423c-.682 5.371 11.235-1.222 12.811-2.085 5.096-2.791 14.992-7.279 17.201-12.833-5.932-5.968-17.258 4.112-21.955 7.536-1.229.894-7.743 4.893-8.057 7.382M207.218 325.125c-.391.238-.887.688-1.444 1.25.713-1.666 1.288-3.332 1.799-5.005 1.007-2.884 1.838-5.858 2.552-8.987.965-4.226-4.984-7.109-7.216-3.042-2.812 5.125-4.284 11.111-6.766 16.484a45.4 45.4 0 0 0-.446-10.504c-.217-1.344-2.4-1.61-2.969-.388-.915 1.97-1.922 3.497-2.438 5.643-.626 2.604-.771 5.287-1.323 7.9-1.135 5.365-4.187 10.563-6.295 15.606a31 31 0 0 0-1.75 5.743c-.339.737-.49 1.608-.408 2.59-.344 3.173-.103 6.388 1.086 9.092.262 3.124.496 6.253 1.022 9.35.228 1.336.526 2.668.845 3.999-4.221.274-9.115 1.935-11.891 1.562-3.734-.503-5.353 5.215-1.578 5.724 4.777.644 10.25 1.858 15.284 1.357.08.651.142 1.303.17 1.956.044.959.03 1.894 0 2.819-1.735.267-3.428.626-5.351 1.12-4.142 1.066-7.876.037-11.783-1.405-3.856-1.423-6.653 5.064-2.827 6.704 5.012 2.147 10.034 4.431 15.621 3.775 1.334-.157 2.789-.4 4.202-.798.083.812.195 1.631.386 2.471 1.206 5.32 3.142 10.423 4.505 15.69-1.481-.313-3.018-.266-4.656-.1-2.324.235-5.207 1.263-7.445.405-1.385-.531-2.602.181-3.282 1.271-.14-.037-.278-.057-.419-.097-.715-.206-1.105.792-.496 1.177.139.087.27.179.405.267-.206 1.17.167 2.388 1.44 2.96 2.157.968 4.186 1.515 6.403 1.853 1.101.439 2.278.767 3.601.905 1.635.169 3.399.227 5.127.058q.015.366.033.729a12.4 12.4 0 0 1-.607 1.686c-1.855-.363-3.78-.272-5.727-.044-2.695.315-4.49 1.028-6.955-.298-4.188-2.253-7.811 3.911-3.73 6.383 2.529 1.532 4.793 2.666 7.75 3.105 1.017.151 1.999.347 2.972.535-.252.454-.495.912-.739 1.37-1.648.365-3.365.334-5.109.076-2.196-.325-4.424.548-5.063 2.875-.54 1.967.669 4.701 2.876 5.063 1.098.18 2.191.354 3.276.493-1.729 4.396-2.681 8.742-3.484 13.469-.998 5.877-4.771 10.503-5.877 16.208-1.048 5.4 4.923 9.008 9.126 5.313 3.273-2.878 5.145-6.548 6.43-10.539 7.752-11.64 14.946-24.274 15.34-37.994 2.183-4.2 2.529-8.393 1.791-13.38-.924-6.229-3.498-11.913-5.359-17.882-.915-2.934-2.178-6.217-1.988-9.318.161-2.616.348-4.331.043-6.925-.632-5.379-2.455-10.227-3.43-15.576-.404-2.213-.661-4.442-.882-6.674.237-.54.384-1.108.403-1.677.133-3.678-.682-7.625-1.967-11.06-.054-.142-.126-.257-.187-.39l.051-.438c.13-1.114.377-2.227.685-3.333 1.493-.952 2.963-1.909 4.264-3.178 6.547.879 15.92-9.96 16.638-14.746.345-2.325-1.891-4.691-4.239-3.258m-46.64 83.383c-.255-3.092-1.719-5.767-2.916-8.556a11.5 11.5 0 0 1-1.118-2.889l-.078-.292c.137.091 1.231-1.853 1.356-2.261 1.709-5.571-1.778-13.126-3.333-18.418-1.061-3.608-2.085-7.125-2.88-10.805-.724-3.35-2.114-5.763-3.362-8.758a2.1 2.1 0 0 0-.398-1.187l-.224-.31c-1.28-1.772-4.608-1.914-5.128.67-.482 2.391.398 4.438.895 6.784.74 3.496 1.029 7.07 1.795 10.561.715 3.252 1.539 6.483 2.27 9.733.576 2.562 2.258 6.553 1.471 9.095-.324 1.042-.809 1.793-1.192 2.591-2.757-1.341-5.382-2.727-7.866-4.55-3.314-2.434-6.503 3.104-3.222 5.513 3.828 2.811 7.573 6.091 11.96 7.203.273.642.561 1.283.841 1.935-1.177-.468-2.387-.893-3.443-1.371-2.981-1.349-5.941-2.621-8.743-4.328-2.863-1.745-5.307 2.597-2.6 4.449 3.4 2.325 6.818 4.624 10.206 6.966.937.647 2.174 1.261 3.437 1.574q-.178.203-.367.426c-.135.161-.275.311-.413.467-4.335-1.263-8.581-2.463-12.865-4.046-.87-.322-8.313-2.479-6.552 1.373.703 1.539 2.482 2.295 3.841 3.19 2.53 1.667 5.04 3.55 7.749 4.913.82.413 1.721.805 2.648 1.11-5.108 8.491-9.764 17.656-12.302 27.128-.724 2.699-1.588 5.363-2.312 8.058-.215.801-.461 1.664-.563 2.487-2.027-.134-6.224.422-6.76.595-2.758.891-4.452 2.607-5.084 5.418-.646 2.876 1.355 6.117 4.563 5.99 2.332-.092 4.354-.614 6.722-.523 2.938.113 5.302.138 7.659-1.928 3.462-3.034 3.996-8.734 5.18-12.93.744-2.641 1.221-5.402 2.004-8.021.711-2.375 2.08-4.754 3.061-7.127 2.322-5.619 4.59-11.658 8.431-16.378 3.239-3.981 8.104-7.84 7.632-13.551" style="fill:#fff"/><path d="M353.091 370.239c-4.162 4.327-10.918 7.509-16.086 10.574-5.798 3.439-11.893 6.058-17.945 8.995-6.459 3.135-13.535 5.648-19.133 10.215-1.689 1.378-3.545 2.746-5.31 4.218-4.786-.838-9.565-1.78-14.351-2.594-3.75-.638-5.406 5.042-1.594 5.778 3.615.697 6.807 2.206 10.123 3.315a14 14 0 0 0-1.006 2.192c-1.629-.512-3.337-.771-4.972-1.365-2.3-.834-4.404-1.594-6.806-2.105-3.045-.646-5.065 3.505-2.18 5.169 2.512 1.448 4.444 3.425 7.182 4.617 1.819.793 3.578 1.307 5.36 1.287-.265 3.47-.194 7.033-.194 10.258 0 .305.021.611.027.917-2.564-.397-4.955-.051-7.504-.19-3.592-.196-4.515 5.823-.863 6.38 2.978.454 5.787 1.822 8.725 2.461-.002.264.013.528.004.792-.007.225-.025.448-.039.672-.354-.037-.701-.083-1.066-.091-1.902-.046-3.722.508-5.611.408-4.332-.229-4.864 6.077-.99 7.315 2.262.723 4.574 1.41 6.893 2.035.207 2.428 1.021 5.021.903 7.37-.144 2.881-1.429 5.688-1.534 8.657-.1 2.827.169 7.113 1.579 9.619l.14.421c-.965.705-1.478 3.466-1.643 4.345-.732 3.891 2.691 9.103 7.255 7.255 2.481-1.004 4.228-2.592 5.447-4.572 2.729-.547 5.296-3.202 4.468-6.398-2.434-9.4-2.281-19.533-3.447-29.203l.004-.05-.011.001c-.062-.5-.122-.999-.189-1.496a4.24 4.24 0 0 0-.73-1.871c.144-3.137.361-6.28.16-9.45-.36-5.693-.646-12.067.248-17.723.496-3.14 2.909-4.418 5.203-6.35 2.478-2.086 4.61-4.468 7.421-6.123 5.822-3.426 12.07-6.41 18.086-9.492 5.712-2.927 11.533-6.035 16.458-10.217 2.339-1.986 4.7-4.415 6.663-6.781 1.699-2.05 2.48-4.608 3.934-6.821 1.228-1.867-1.546-3.968-3.079-2.374" style="fill:#fff"/><path d="M361.071 466.379c-2.293-9.926-6.395-19.382-9.375-29.082-1.563-5.086-1.729-10.747-4.063-15.571-.996-2.06-2.424-3.926-3.59-5.889-1.006-1.693-1.717-3.28-3.699-4.11-3.054-1.277-7.664.847-10.537 2.001-4.699 1.888-9.698 3.564-14.119 6.02-2.067 1.148-1.6 4.414.654 5.015 3.719.992 8.293-.015 11.965-.987 2.277-.603 4.957-1.805 7.511-2.32 1.431 2.724 2.349 5.829 3.061 8.874-4.155.489-8.132 2.361-12.288 2.994-3.181.485-2.094 5.05.715 5.28 4.475.367 8.877-.119 13.297-.705.09.311.189.616.283.923-1.235.287-2.398.802-3.637 1.452-1.687.885-3.289 1.393-4.206 2.943-1.407.179-1.425 2.417.003 2.239.61-.076 1.442.813 2.167.864 1.022.072 2.231-.25 3.232-.403 1.591-.243 3.103-.508 4.624-.895.855 2.277 1.704 4.561 2.369 6.943 1.457 5.215 3.109 10.296 4.676 15.491 1.154 3.831 1.162 4.755-1.273 7.86-1.428 1.821-3.047 3.554-4.178 5.578-1.707 3.054 1.657 6.152 4.635 4.635 8.127-4.138 14.026-9.395 11.773-19.15m-19.796-161.883c-.097-.042-.195-.075-.292-.116 2.574-.29 3.814-3.196 2.014-5.467-5.568-7.021-16.01-8.31-24.434-7.612-9.438.781-17.955 4.766-26.505 8.531-1.684.741-.473 3.378 1.229 2.917 7.932-2.15 16.086-3.59 24.338-3.206 4.418.206 8.549 1.307 12.68 2.458-6.594-.382-13.396.834-19.765 2.208-9.163 1.978-17.546 6.275-23.03 13.87-1.567 2.169 1.684 4.183 3.474 2.681 6.692-5.619 15.831-7.396 24.254-8.228 4.416-.436 8.806-.639 13.241-.45 3.992.169 7.842.77 11.799.039 3.36-.62 4.239-6.202.997-7.625m20.012-3.973c-2.89-2.939-6.935 1.369-4.435 4.435 3.883 4.763 6.447 9.67 8.1 15.02-2.939-5.161-7.461-7.892-12.137-11.324-1.885-1.383-4.004 1.579-2.443 3.167 4.029 4.095 6.462 8.372 7.789 13.995 1.025 4.35-.011 9.761 2.493 13.64 2.502 3.878 7.498 1.923 8.047-2.179.122-.912.163-1.842.17-2.776 2.478 2.242 6.806 2.04 7.988-2.123 3.588-12.621-7.619-23.763-15.572-31.855m-55.662-33.887c-2.2-1.947-3.956-4.123-6.69-5.385-3.121-1.441-6.676-2.268-9.899-3.479-6.37-2.395-13.839-3.171-20.578-2.56-3.509.319-7.081.698-10.608.624-3.646-.077-7.158-1.266-10.638-2.298-6.919-2.054-14.56-4.779-21.669-1.917-4.006 1.613-3.918 6.455 0 8.1 5.795 2.433 12.391 3.748 18.41 5.637 6.895 2.164 12.943 2.7 20.107 2.054 6.526-.588 12.381-1.097 18.951-.508 3.25.292 6.389 1.139 9.629 1.559 3.354.434 7.113.167 10.135 1.868 2.256 1.269 4.91-1.873 2.85-3.695M120.23 75.11c-.785-5.892-1.395-11.683-3.084-17.406-1.631-5.525-3.486-10.774-6.204-15.868-1.21-2.267-2.539-4.436-4.168-6.429-1.857-2.274-4.419-3.46-6.329-5.596-.384-.429-1.092-.078-1.1.456-.067 4.727 2.976 9.28 4.448 13.656 1.888 5.611 3.081 11.359 4.282 17.142 2.413 11.62 2.105 23.485 7.809 34.24 1.733 3.271 7.119 1.787 6.991-1.894-.215-6.181-1.832-12.185-2.645-18.301M66.942 16.516c-.137-1.293-.66-2.525-1.699-3.501-2.484-2.334-6.133-2.197-9.211-1.221a5 5 0 0 1 1.08.009c.354.046.689.142 1.015.26 1.397-.178 2.866-.003 3.868 1.057 1.632 1.729.859 4.113-.525 5.705-3.082 3.541-8.705 2.661-10.305-1.863-.294-.83.164-1.629.844-2.069.181-.713.57-1.309 1.071-1.795-.495.291-.972.605-1.411.954-.88.309-1.789.564-2.4.816-2.084.862-3.944 1.494-6.188 1.865-3.79.628-7.861 1.371-10.797 4.09-2.947 2.73-3.029 6.814-.701 9.968 2.449 3.319 6.947 4.615 10.914 3.871 3.922-.735 8.984-2.807 11.867-5.638.061-.06.115-.125.175-.188a8.6 8.6 0 0 0 3.14.559c3.525-.054 7.239-2.749 8.979-5.706 1.478-2.509 1.39-5.085.284-7.173m1.952 20.568c-3.354 1.124-6.314 2.733-9.562 4.07-3.64 1.498-7.401 1.27-11.169 2.096-3.236.71-6.163 2.224-9.04 3.826-1.219.679-2.577 1.329-3.663 2.215-.811.661-1.722 2.323-2.625 2.857-.34.2-.152.635.184.678 3.248.414 4.912-.008 8.055-1.126 4.163-1.482 7.885-1.959 12.302-2.109 7.063-.24 12.152-2.874 18.021-6.57 2.995-1.887 1.122-7.152-2.503-5.937" style="fill:#fff"/><path d="M61.677 12.075c-.842-.217-1.574-.184-2.322-.06.986.052 1.931.353 2.641 1.104 1.632 1.729.859 4.113-.525 5.705a6.4 6.4 0 0 1-1.699 1.378c1.888-.567 3.516-1.854 4.307-3.899.66-1.715-.744-3.8-2.402-4.228m257.83 309.24c-.308-.287-.703-.472-1.145-.447-3.743.211-8.014 4.214-9.363 7.566-.708 1.755-1.39 3.8-.515 5.603 1.093 2.254 3.687 2.465 5.888 2.085 4.358-.752 10.219-1.371 11.6-6.42 1.117-4.082-2.435-8.135-6.465-8.387m24.373-4.959a4.2 4.2 0 0 0-1.625-2.988c-1.387-1.072-3.296-1.098-4.793-.375-2.251.064-4.399 1.401-3.812 3.984.401 1.771 1.93 2.587 3.507 3.137.54.188 1.13.342 1.732.44 1.027.295 2.104.369 2.965.097 1.252-.396 2.316-1.59 2.26-2.968a5.2 5.2 0 0 0-.234-1.327m25.441 2.224a5.2 5.2 0 0 0-3.508-1.246c-2.061-.441-4.049.745-5.68 2.406a7.6 7.6 0 0 0-1.588 1.884 20 20 0 0 0-1.742 2.854c-2.955 6.002 8.492 5.063 11.406 4.224 5.082-1.466 4.998-8.07 1.112-10.122m-18.091-29.656a4.6 4.6 0 0 0-.904-.305c-.239-.318-.613-.541-1.007-.513-.591.042-1.167.263-1.726.545-.899.19-1.757.534-2.439.992a5.8 5.8 0 0 0-1.246 1.135c-1.01.654-1.975 1.448-2.424 2.414-1.199 2.574 1.277 4.096 3.646 4.485.416.199.846.359 1.29.469 2.059.942 4.916.272 6.29-1.688.041-.043.092-.075.133-.12 2.264-2.497 1.395-6.465-1.613-7.414m-20.465 8.791c-1.284-1.792-3.367-3.112-5.553-1.913-.023.013-.043.031-.066.044-.752.299-1.434.823-1.991 1.425-.716.772-1.065 1.699-1.498 2.636-.449.974-.985 1.869-.675 2.998.676 2.455 3.148 2.457 5.23 2.446.465-.003.967-.007 1.48-.033.07.015.141.033.212.046 1.167.224 2.313-.084 3.075-.835a3.1 3.1 0 0 0 1.463-1.938c.431-1.622-.73-3.555-1.677-4.876m5.83-16.904a4 4 0 0 0-.555-.487 3 3 0 0 1-.142-.215c-.191-.32-.419-.619-.607-.94a7 7 0 0 1-.616-1.319c-.603-1.681-1.326-3.103-3.203-3.603-1.721-.458-2.836.208-3.829 1.134-2.03.638-4.919 3.527-4.689 5.542.18 1.572 1.347 3.213 2.962 3.372 1.531 1.296 4.068 1.912 6.049 2.138 1.483.871 3.283.948 4.631-.399 1.47-1.472 1.343-3.742-.001-5.223m6.748-21.939c-.348-1.142-.951-2.106-2.361-2.494-1.055-.291-2.299-.031-3.368-.005-1.121.027-2.259-.121-3.361.15-1.147.282-2.222.979-2.554 2.185-.352 1.281.218 2.656 1.341 3.342.628.383 1.347.465 2.034.667.006.165.044.33.079.495-.091.407.156 1.069.303 1.48.504 1.408 1.552 2.483 3.097 2.667a4.1 4.1 0 0 0 2.285-.41c.619.003 1.234-.132 1.758-.422 2.487-1.375 2.499-5.579.747-7.655m-36.01-10.753c-1.469-5.184-8.304-4.547-13.333-3.193-.521.141-.95.381-1.291.689-1.169-.109-2.334-.226-3.517-.34-1.268-.123-2.97.241-4.084-.32-2.538-1.276-2.136-4.744-5.746-5.455-2.486-.49-4.533 1.007-6.471 2.354-.514.263-1.006.672-1.424 1.301l-.074.111c-2.278 3.428 2.548 6.405 5.332 4.113 2.381-1.961 3.461.717 5.24 1.885 1.979 1.296 4.741.98 6.948 1.646 5.142 1.552 10.849 2.596 16.227 3.137 3.039.307 4.459-4.238 2.193-5.928m-54.336-9.952c-.474-.555-1.074-.957-1.736-1.274-1.291-1.411-3.113-2.528-4.6-3.176-3.102-1.351-6.896-.063-9.95.879-3.255 1.004-2.782 4.987 0 6.159 1.816.765 4.457.47 6.413.911 1.252.283 2.543.474 3.782.798 1.032.269 1.885.911 2.914 1.161 3.304.801 5.256-3.018 3.177-5.458m-30.367-5.489c-2.171-4.47-8.611-2.802-12.394-1.121-1.541.685-2.026 2.876-1.405 4.288.73 1.661 2.314 2.287 4.051 1.988l.431-.074c.979-.168 1.644-.756 2.021-1.51.922-.535 2.159-.966 3.064-1.097 1.178-.17 2.023.568 3.218.55 1.651-.023 2.186-2.05 1.014-3.024m-26.096-4.307a6.4 6.4 0 0 0-.583-1.614 10.4 10.4 0 0 0-1.206-3.101c-1.279-2.179-4.718-4.097-7.266-3.802-1.383.16-2.574.728-3.129 2.104-.469 1.167-.355 2.875.709 3.739 2.199 1.786 3.961 3.986 6.093 5.806a3.5 3.5 0 0 0 1.737.815l.021.032c.757 1.053 2.485 1.014 2.866-.375.082-.298.146-.598.202-.898.521-.698.776-1.632.556-2.706m-24.879-26.048c-.35-1.744-1.961-3.458-3.508-4.282-1.609-.857-3.868-.458-4.772 1.251-.728 1.377-.557 3.551.833 4.516.191.19.385.379.572.576.005.018.007.03.02.058.084.209.262.424.385.609.611.927 1.533 1.537 2.547 1.691q.039.023.081.042c.575.895 2.349.656 2.503-.47l.002-.016.25-.277c.037-.065.068-.144.104-.216.906-.862 1.249-2.159.983-3.482m-15.7-19.817a3.9 3.9 0 0 0-1.45-1.328c-.129-.056-.259-.106-.388-.161-.882-1.868-3.597-2.499-5.321-1.489-2.039 1.193-2.576 4.284-.768 5.953.468.432.891.852 1.428 1.217.59.4 1.274.532 1.948.463.519 1.337 1.151 2.661 2.376 3.433.33.208.863.232 1.191 0 1.66-1.179 1.668-3.207 1.705-5.069.023-1.104-.093-2.061-.721-3.019m-17.881 2.229c-.697-1.027-1.496-1.925-2.749-2.247-1.475-.377-2.857.258-3.775 1.384-.525.338-1 .772-1.371 1.22-1.412 1.702-1.515 4.323-.838 6.354.728 2.19 2.375 4.129 4.848 4.169 2.714.044 4.09-2.371 4.635-4.684.5-2.128.521-4.323-.75-6.196m-3.969-19.714c-.387-1.778-2.127-3.099-3.909-3.141-3.208-.076-4.643 3.55-3.358 5.953.004.113-.011.222.004.337.225 1.667 1.535 2.913 3.244 2.975 1.444.053 2.754-1.09 3.416-2.298.649-1.187.894-2.492.603-3.826m-7.455-21.733c-.683-.905-1.767-1.586-2.953-1.202a3 3 0 0 0-1.22.776c-.551.471-.918 1.146-.881 1.958.043.953-.053 1.837.168 2.787.357 1.53 2.506 2.562 3.861 1.57.67-.49 1.217-1.043 1.402-1.88a10 10 0 0 0 .23-1.505c.047-.773-.127-1.869-.607-2.504m-4.293-23.167c-.283-1.559-1.671-2.674-3.231-2.747-1.158-.054-2.23.651-2.859 1.581-.315.469-.401.944-.53 1.463-.377 1.518-.287 3.002.833 4.192 1.237 1.316 3.415 1.218 4.65-.024.14-.14.246-.304.359-.463a3.5 3.5 0 0 0 .686-1.242c.269-.892.258-1.853.092-2.76m-7.202-13.54c-.461-1.223-1.314-1.852-2.598-1.978-1.648-.162-2.826 1.253-3.349 2.628-.321.843-.457 1.625-.29 2.544.294 1.623 2.346 2.424 3.783 1.816 1.962-.443 3.122-3.238 2.454-5.01m-1.537-15.342c.009-1.285-.379-2.625-1.041-3.39-.561-.648-1.514-.783-2.301-.608-1.324.293-2.189 1.567-2.394 2.837-.038.244-.066.49-.098.736l-.024.161c-.127.828-.238 1.662.002 2.487.569 1.959 2.619 3.278 4.547 2.17 1.446-.831 1.669-2.883 1.309-4.393m-1.988-28.651c-.878-1.537-2.621-2.311-4.349-1.86-1.548.404-2.63 1.854-2.978 3.354-.176.764-.197 1.61.022 2.37.347 1.199 1.392 2.364 2.664 2.594 1.496.271 2.976-.184 3.787-1.541.095-.158.173-.314.245-.47 1.226-1.14 1.447-2.979.609-4.447m-8.449-22.199c-.057-.328-.183-.636-.242-.962-.124-.676-.789-1.486-1.386-1.801a3.1 3.1 0 0 0-1.921-.358 3.12 3.12 0 0 0-1.968 1.123 2.8 2.8 0 0 0-.591.717c-.391.695-.534 1.442-.574 2.232-.029.563.02 1.182.148 1.723.492 2.08 2.982 3.175 4.844 2.123 1.123-.636 1.6-1.729 1.762-2.94.088-.653.043-1.202-.072-1.857m45.871 168.712c-1.084-.972-3.076-1.271-4.121 0a5.3 5.3 0 0 0-1.037 2.011c-.594 1.383-.504 3.387-.174 4.763.422 1.761 1.754 3.51 3.761 3.379.979-.064 2.058-.496 2.517-1.443 1.249-2.583 1.364-6.642-.946-8.71m14.912 13.55c-.17-.103-.349-.168-.527-.233-.389-.473-.836-.867-1.34-1.131-3.108-1.623-5.565 1.591-5.187 4.498-.3.537-.579 1.084-.78 1.657-1.044 2.984 1.773 4.682 4.402 4.647a6 6 0 0 0 1.309-.179 3.3 3.3 0 0 0 1.219.227c1.666 0 2.939-1.339 2.98-2.981a3 3 0 0 0-.054-.638c.441-2.103-.151-4.744-2.022-5.867m5.896 23.481c-.073-1.943-1.077-3.72-2.876-4.677a3.5 3.5 0 0 0-.835-.305c-2.129-1.034-4.507.371-5.383 2.443-.459 1.091-.574 2.321-.387 3.492-.084.757-.008 1.508.389 2.184.342.58.82.99 1.359 1.272a4.68 4.68 0 0 0 3.225 1.307c.203.003.385-.032.574-.055.244.057.496.104.762.13 1.437.143 3.086-.447 3.761-1.807.734-1.479.378-3.024-.589-3.984m25.454 3.34c-.063-.036-.131-.059-.195-.091a5.8 5.8 0 0 0-1.73-1.106c-1.668-.704-3.609-.453-4.873.919-1.012 1.099-1.644 2.664-1.582 4.164.145 3.604 3.994 5.857 7.31 4.676 1.942-.692 3.26-2.203 3.332-4.312.056-1.686-.785-3.393-2.262-4.25m-7.286 20.185c-1.418.052-2.678.666-3.71 1.586q-.498.384-.951.826c-2.903.61-6.459 1.841-6.459 4.918 0 3.887 4.616 5.922 7.954 5.937a9.27 9.27 0 0 0 4.725-1.296 6.5 6.5 0 0 0 1.777-1.415c.858-.904 1.5-2.007 1.789-3.281.803-3.552-1.155-7.419-5.125-7.275m38.879-19.519c-.467-1.3-1.441-2.252-2.762-2.5-.115-1.078-.707-2.099-1.662-2.658-2.047-1.198-4.114.019-5.695 1.358-1.336 1.132-2.984 2.382-3.455 4.132-.471 1.754.59 3.475 2.28 4.015q.29.092.571.129c1.955 1.179 4.263 1.518 6.49 1.021 2.495-.556 5.288-2.555 4.233-5.497m-6.076 15.363c-.089-.093-.189-.173-.285-.258-.363-.742-.906-1.387-1.674-1.83-1.959-1.128-3.986-.187-5.466 1.221-3.214 2.018-5.728 6.455-2.04 9.243 2.018 1.526 4.814.941 6.797-.375.28-.186.534-.394.773-.611.043-.02.088-.036.132-.057 2.861-1.371 4.161-4.828 1.763-7.333m30.592-7.205a6.7 6.7 0 0 0-1.517-1.048 3.8 3.8 0 0 0-.668-.674c-1.021-.792-2.096-.947-3.128-.722-.953-.248-2.045-.002-2.612.987-.153.268-.312.532-.468.797-.264.25-.514.512-.74.779-1.01 1.182-1.713 2.611-1.895 4.089-.096.219-.204.43-.293.654-.903 2.295-.413 5.12 2.35 5.804a3.9 3.9 0 0 0 2.251-.122c1.054.194 2.192-.152 3.151-.895-.305.236.566-.18.646-.219a40 40 0 0 0 1.531-.792c.945-.518 1.881-1.158 2.551-2.01 1.821-2.309.808-4.86-1.159-6.628m-14.674 30.492c-.467-2.333-2.38-3.503-4.48-3.572a3.9 3.9 0 0 0-.686-.925c-.678-.647-1.393-.958-2.115-1.019a3.9 3.9 0 0 0-2.742-.201c-1.937.562-3.569 2.334-4.807 3.833-1.557 1.887-3.035 4.284-1.836 6.741.631 1.297 1.724 1.951 2.954 2.209.63.553 1.41.977 2.296 1.223 2.598.722 5.528-.186 7.701-1.646 2.161-1.454 4.276-3.847 3.715-6.643m-59.376 10.48-.03-.004c-.983-.873-2.278-1.36-3.614-1.18-3.804.511-5.007 6.077-1.55 7.965a4.8 4.8 0 0 0 1.848.569h.004c.525.05 1.045 0 1.545-.145.344.022.689-.02 1.023-.137.798-.28 1.39-.739 1.773-1.458.18-.109.352-.23.506-.374 1.819-1.698.78-4.653-1.505-5.236m53.562 17.704c-.17-.755-.533-1.458-1.094-2.138-.508-.615-1.171-.857-1.847-.853-.653-.578-1.569-.866-2.417-.575a5.3 5.3 0 0 0-1.322.695 3.5 3.5 0 0 0-.73.438c-.838.661-1.052 1.168-1.639 1.863-.375.443-.709.913-1.047 1.382.498-.693-.296.343-.438.601-.754 1.364-.629 3.086.525 4.204.875.846 1.938.815 2.892.98 2.021.35 4.104.046 5.593-1.468.546-.235 1.028-.653 1.362-1.287.391-.742.547-1.39.596-2.224.033-.569-.141-1.124-.434-1.618m24.496-10.188a4.1 4.1 0 0 0-.619-1.252c-.586-.802-1.5-1.338-2.477-1.625a8 8 0 0 0-.283-.338c-1.162-1.286-2.595-2.144-4.389-1.636-1.75.494-2.471 2.162-3.072 3.698-1.136 2.897-.453 6.138 2.45 7.677 1.388.736 2.911 1.071 4.429.614 1.578-.142 3.149-1.034 3.949-2.405.838-1.44.822-3.29.012-4.733m30.002-9.048-.008-.004a3.64 3.64 0 0 0-2.278-1.595 4 4 0 0 0-.765-1.073c-2.643-2.606-5.812-.06-7.262 2.406-1.644 2.796-2.086 6.669 1.143 8.558a4.5 4.5 0 0 0 1.709.577 3.2 3.2 0 0 0 1.725.054 3.4 3.4 0 0 0 1.039-.458q.382-.152.749-.346c1.831.201 3.817-.405 5.007-1.687 1.834-1.977 1.287-5.134-1.059-6.432m9.879-30.071a6 6 0 0 0-.449-.494 2 2 0 0 0-.251-.221l-.125-.16c-.409-.511-.829-.972-1.437-1.263a4 4 0 0 0-.67-.238 3.5 3.5 0 0 0-1.416-.874c-1.131-.356-2.645.156-3.332 1.169-.744.325-1.369.919-1.48 1.743-.275 2.034-1.813 4.397.246 6.12.761.636 1.602.911 2.474.802.206.09.418.169.642.225 1.312.326 2.654-.017 3.834-.588a2.8 2.8 0 0 0 .513-.327c.858-.227 1.623-.719 2.104-1.54.847-1.452.356-3.147-.653-4.354m-18.985 6.921-.009-.309c-.052-1.789-1.327-3.014-2.802-3.455a3.6 3.6 0 0 0-.735-.224 5 5 0 0 0-.377-.535c-.138-1.096-.545-2.103-1.335-2.864-2.807-2.709-6.253-.083-8.057 2.331-1.16 1.554-2.119 3.569-2.199 5.513-.799 2.054-.455 4.328 1.629 5.536 1.75 1.013 3.867 1.007 5.797.692 1.908-.311 3.934-1.069 5.488-2.239.705-.531 1.137-1.119 1.406-1.748.741-.666 1.225-1.611 1.194-2.698m38.663 2.676c-.514-1.631-1.96-2.712-3.541-2.883-.01-1.607-1.411-2.669-2.912-2.881-.958-.414-2.104-.256-2.876.827-3.551 2.687-6.898 10.296-2.344 13.132 1.395.868 2.92.829 4.324.295 2.996 1.264 6.621-1.026 7.365-4.311.306-1.354.404-2.846-.016-4.179m-46.301 48.047c-.746-1.368-2.208-2.119-3.754-2.127-1.891-.011-4.057.917-5.461 2.166-1.463 1.302-1.957 3.287-1.058 5.072 1.037 2.061 3.289 2.136 5.25 1.841 2.493-.375 5.323-1.751 5.417-4.403a3.85 3.85 0 0 0-.394-2.549m80.627 17.969c-.051-.028-.106-.045-.157-.071-.126-.144-.245-.289-.396-.428-1.236-1.166-2.8-1.397-4.266-1.021-2.55.372-5.218 2.779-5.876 5.18-.522 1.908.388 3.907 2.106 4.825 1.172.626 2.567.655 3.854.356a5.9 5.9 0 0 0 1.921-.11c1.42-.326 2.775-1.04 3.715-2.163 1.706-2.044 1.599-5.154-.901-6.568m45.457-3.511c.087-3.288-2.635-5.197-5.715-4.571-2.295.466-4.354 2.016-5.32 4.16q-.133.298-.232.606c-.626.689-1.093 1.47-1.289 2.304-.502 2.119.766 4.308 2.896 4.861 1.142.297 2.254.178 3.2-.268 2.189.029 4.477-.967 5.565-2.918a4.6 4.6 0 0 0 .585-2.266 7.3 7.3 0 0 0 .31-1.908m-3.094-18.289c-.72-.96-1.536-1.986-2.432-2.793a2.7 2.7 0 0 0-1.279-1.815c-1.168-.684-3.207-.39-3.8.997l-.37.869c-.724.928-.838 2.149-1.104 3.309l.03.004c-.049.262-.108.519-.137.793-.152 1.463 1.256 2.786 2.6 2.945.297.035.578.02.851-.021.298.009.599-.032.882-.138.622.868 1.336 1.54 2.506 1.829 1.346.333 2.948-.424 3.272-1.858.362-1.604-.055-2.834-1.019-4.121m-2.716-25.936c-.776-.673-1.564-1.057-2.555-1.202a1 1 0 0 0-.163-.072l-.014-.004a3.6 3.6 0 0 0-1.115-.744c-1.266-.534-2.732-.495-4.034-.103-.999.301-2.125 1.181-2.291 2.291-.202 1.352-.087 2.51.966 3.527.656.635 1.476.923 2.316 1.23.102.038.207.07.311.108.063.118.106.245.186.355 1.076 1.51 3.425 2.674 5.171 1.356.579-.437 1.151-.81 1.507-1.481l.109-.26c1.101-1.385.904-3.876-.394-5.001m-22.066-15.85a21.5 21.5 0 0 0-2.733-2.641c-1.769-1.429-3.534-2.495-5.85-1.361-1.227.601-1.819 2.177-1.649 3.443.108.809.469 1.459.995 1.965l-.045.019c.613.543 1.164 1.156 1.73 1.746l.012.011.002.002q.22.299.445.595c.45.594.926 1.314 1.492 1.822 1.543 1.381 4.1 1.635 5.601 0 1.543-1.681 1.442-3.917 0-5.601m55.801 51.729c.355-.607.57-1.296.551-2.095-.059-2.293-1.748-3.621-3.885-3.885-1.631-.202-4.184.704-5.264 1.926-1.483 1.676-1.707 3.915-.857 5.929 1.15 2.728 4.77 4.642 7.646 4.11 1.406-.26 2.812-2.023 2.651-3.483-.103-.955-.332-1.785-.842-2.502m-1.556 23.091q.075-.426.07-.918c-.055-4.223-6.453-5.885-9.408-3.431a3.7 3.7 0 0 0-1.293.461c-2.565 1.55-1.766 5.019.637 6.208.126.063.269.12.406.178.283.389.602.75.946 1.071 1.027.96 2.205 1.443 3.579 1.628 1.771.238 3.07-.203 4.46-1.306 1.294-1.027 1.251-2.607.603-3.891m30.472-6.087c-.339-1.778-2.304-3.198-4.053-3.169a3.64 3.64 0 0 0-2.898 1.455c-.761.985-.874 2.017-.661 3.218.25 1.413 1.688 2.747 3.029 3.08 1.3.323 2.667-.001 3.625-.958.997-.998 1.213-2.29.958-3.626m2.205 22.012c-.179-1.138-.994-2.155-2.021-2.761a3.8 3.8 0 0 0-1.459-1.251c.229-1.425-.713-2.808-2.123-3.312-1.529-.547-3.791.585-4.927 1.657-1.323 1.248-2.013 3.202-1.519 4.99.574 2.076 2.568 3.339 4.706 3.674.696.804 1.603 1.435 2.575 1.771 1.283.443 2.841-.067 3.771-.997 1.062-1.061 1.218-2.36.997-3.771m20.387-10.085c-.91-1.601-2.578-2.794-4.217-3.568.021.01-.018-.001-.075-.021a2.9 2.9 0 0 0-1.031-.646c-.325-.116-.64-.268-.976-.354.887.226-.372-.175-.469-.209a3.2 3.2 0 0 0-.926-.123c-2.478.04-3.49 2.697-2.403 4.661.452.817 1.129 1.276 1.802 1.871.297.263.575.561.838.866.026.054.244.361.305.466.179.309.342.624.526.93 1.034 1.72 3.492 2.509 5.249 1.376 1.764-1.136 2.44-3.381 1.377-5.249" style="fill:#fff"/><path d="m467.439 355.555.012.002c-.024-.006-.024-.006-.012-.002m8.835 28.959a4 4 0 0 0-.244-.72c-.078-1.35-1.111-2.434-2.389-2.933-1.739-.943-4.012-.693-5.406.768a3.57 3.57 0 0 0-.555 4.192c.414.758 1.041 1.252 1.728 1.747l.015.008c.242.181.506.334.778.475.131.07.267.13.403.194q.03.015.063.028c.896.413 1.895.707 2.781.732 1.063.031 2.254-.616 2.746-1.575.524-1.026.485-2.046.08-2.916m8.411 55.175c-.898.179-1.604.607-2.212 1.159-.915.471-1.691 1.35-2.366 2.058-.992 1.043-1.752 2.192-2.256 3.539a2.27 2.27 0 0 0-.078 1.249c-.274.94-.088 1.933.49 2.669.636 1.209 2.168 1.933 3.59 1.1a6.8 6.8 0 0 0 1.158-.873c.278-.191.549-.398.803-.618a8.56 8.56 0 0 0 2.332-3.225c.824-1.076 1.755-2.326 2.008-3.589.435-2.183-1.288-3.904-3.469-3.469m-18.495 23.779c-1.554-.71-3.022-.522-4.439.054-2.091.094-4.718 1.348-5.094 3.571-.614.756-1.052 1.612-1.084 2.581-.097 2.876 2.819 4.092 5.215 3.207 1.86-.688 3.978-1.656 4.983-3.474.186-.167.375-.333.541-.516q-.692.418.394-.351.32-.386.604-.797c.908-1.284.322-3.617-1.12-4.275m-185.491 16.416c-.239-.283-.548-.486-.881-.651l-.035-.044c-1.331-1.523-3.681-1.2-5.056 0a4 4 0 0 0-.395.411c-.29-.399-.66-.704-1.037-1.038-.019-.123-.027-.247-.048-.37-.185-1.091-1.261-1.978-2.267-2.266-4.104-1.178-10.736 5.408-10.333 9.465.223 2.239 2.024 3.913 4.368 3.328.105-.026.201-.062.303-.094a7.5 7.5 0 0 0 2.678 1.906c2.301.956 5.424 1.034 7.492-.415 1.139.004 2.239-.213 3.224-.764.876-.192 1.669-.722 2.163-1.704l.412-.819c.167-.333.283-.709.352-1.102.723-1.972.52-4.108-.94-5.843m52.786-2.65c-.503-1.537-.579-3.586-1.844-4.753-1.199-1.106-3.549-1.244-4.847-.271-.521.39-.942.877-1.344 1.392-.247.102-.49.238-.722.43-.656.542-1.443 1.276-2.014 2.088-1.402.734-2.66 1.898-3.451 3.163-1.088 1.737-.051 4.221 1.918 4.718.293.073.568.112.838.136.965 1.022 2.389 1.313 3.854 1.181.653-.059 1.384-.287 2.02-.272.862.019 1.71.381 2.589.375 1.885-.012 3.972-1.055 4.505-2.992.534-1.938-.939-3.479-1.502-5.195m-161.96-.448c-2.454-2.113-5.229-2.573-7.871-1.853-.764.098-1.517.332-2.435.663-.592.213-1.26.628-1.889 1.04-1.308-2.417-3.052-5.014-5.814-5.04-3.394-.032-6.549 3.868-7.981 6.581-.505.958-.675 2.312 0 3.254 2.756 3.847 6.96 1.379 10.726 1.938 4.576.679 10.221 2.914 14.898 1.381 4.127-1.353 2.99-5.705.366-7.964m-50.938-12.283c-.439-.765-.721-1.578-1.092-2.366-.383-1.827-1.732-2.523-3.152-2.41-.563-.795-1.428-1.347-2.496-1.499-.797-.113-1.558.071-2.279.413-.402.19-.795.615-1.192.989a8 8 0 0 0-.692-.381l.078-.137c.287-.499.295-1.148.325-1.708.099-1.844-1.579-3.146-3.26-3.26-2.979-.201-4.428 2.578-6.085 4.553-1.84 2.194-3.513 4.004-2.98 7.06.188 1.085 1.291 2.08 2.328 2.329 2.047.492 4.961.715 7.1.761 2 .042 3.91-.437 5.83-.867 1.318.991 2.994 1.675 4.514 1.848 2.768.314 4.272-3.207 3.053-5.325M60.38 12.61c-.66-.258-1.377-.377-2.05-.311a5.2 5.2 0 0 0-2.367.835 8 8 0 0 0-2.015.818 4 4 0 0 0-.627.465c-1.041-.045-2.02.997-1.729 2.125-.218.579-.189 1.231.232 1.82.073.103.161.184.239.279.194.613.56 1.184 1.131 1.646.927.748 1.963.785 2.747.357a8.4 8.4 0 0 0 2.516-.114c2.846-.561 4.747-2.676 5.75-5.286.916-2.383-2.087-3.772-3.827-2.634" style="fill:#fff"/><path fill="#fff" d="M77.459 38.734c1.29-1.793 2.165-3.789 3.024-5.815.393-.922-.925-1.75-1.38-.807a62 62 0 0 1-3.142 5.747c-.598.965.858 1.764 1.498.875M60.38 10.636c-2.094-.61-4.115-.069-6.102.711-4.214 1.654-5.197 4.249-7.066 7.942-.09.178.024.345.211.367.564.067 1.104-.151 1.622-.522.156 5.131 4.53 9.832 10.097 7.789.589-.215.559-1.218-.158-1.17-2.621.172-5.285-.782-6.776-2.998-.621-.924-1.307-1.861-1.582-2.954-.157-.625-.208-1.268-.272-1.908l.107-.121c.035.943.426 1.921.975 2.618 1.292 1.637 3.567 2.672 5.639 2.632 2.064-.041 4.123-1.105 5.566-2.542.641-.638.604-1.19 1.084-1.886.256-.369.756-.611 1.164-.427.431.193.565.736.582 1.207.078 2.312-2.019 3.556-1.978 5.819.009.468.708.721.935.253 1.015-2.104 2.35-3.558 2.679-6.016.268-1.998-.509-3.929-1.802-5.493-1.299-1.571-3.118-2.773-4.925-3.301m2.327 4.29c-.935 2.59-2.354 5.186-5.493 5.477-1.541.143-3.392-.599-4.33-1.83-.77-1.01-1.404-2.423.021-3.167.193-.101.688 1.468.74 1.559.723 1.26 2.293 1.204 3.301.341.761-.652 1.189-1.808 1.139-2.802a2.7 2.7 0 0 0-.314-1.144c.932-.088 1.865-.031 2.758.242.897.274 1.584.733 2.354 1.026a1 1 0 0 0-.176.298M23.774 27.698c-.751-.731-1.882-.668-2.669-.04-.374.3-.738.879-.705 1.394-.11.204-.201.411-.248.607-.178.74.019 1.535.564 2.074l.029.024c.057.508.442.819.942.876.446.051.866-.148 1.233-.45.207-.071.411-.163.604-.285.568-.358.768-1.018.671-1.611.314-.895.328-1.86-.421-2.589m1.653-3.884c-.811-.383-1.527.804-.711 1.217 2.507 1.268 2.393 4.265 2.571 6.713.081 1.116 1.647 1.115 1.733 0 .255-3.266-.38-6.411-3.593-7.93m4.38.299c.892 2.327 1.183 4.764 1.301 7.246.026.546.915.739 1.011.137.434-2.727-.737-5.063-1.764-7.535-.137-.33-.681-.194-.548.152M85.46 70.667c-.036-.34-.564-.353-.542 0 .726 11.164 1.609 22.752 6.296 33.064.283.622 1.361.177 1.114-.47-4.011-10.504-5.692-21.461-6.868-32.594m6.691 7.488c-.168-1.058-1.733-.594-1.594.439 1.975 14.601 3.924 28.944 9.706 42.595.373.881 1.806.25 1.536-.647-4.222-14.031-7.351-27.905-9.648-42.387m99.786 190.143c-2.555-1.354-5.051-.644-7.535.458-1.444.641-3.215 1.317-4.613 2.325-1.857.971-3.738 1.96-4.451 4.126-.794 2.407.594 5.453 2.035 7.346 1.794 2.355 5.785 3.572 8.572 4.144 3.047.624 6.292-.687 8.477-2.839 4.191-4.127 2.675-12.825-2.485-15.56m-2.383 13.074c-2.607 1.293-8.059-.228-9.663-2.583-1.247-1.831-1.254-2.706.215-4.518.295-.363.585-.694.868-1.026.977-.533 2.161-.889 2.965-1.212 1.857-.749 4.399-2.069 6.393-.987 3.896 2.113 2.816 8.543-.778 10.326m19.404 29.573c-1.851 10.073-5.875 18.986-10.074 28.268-.462 1.021.885 1.85 1.521.889 5.845-8.834 8.146-18.467 9.966-28.768.161-.919-1.241-1.317-1.413-.389m-66.734 88.158c-3.166-.323-6.223-1.338-9.35-1.902-1.34-.242-1.928 1.786-.568 2.064 3.328.682 6.496 1.822 9.918 1.952 1.381.052 1.326-1.978 0-2.114m34.299-16.408c-2.32-.226-4.6-.472-6.938-.507-1.32-.02-1.29 1.936 0 2.032 2.354.175 4.576.548 6.938.264 1.136-.137 1.161-1.675 0-1.789m-61.501 68.38c-.877-.647-1.838-1.176-2.72-1.821-.271-.198-.498.207-.328.426.639.828 1.33 1.555 2.066 2.292.703.703 1.072 1.64 1.779 2.339.643.635 1.877-.227 1.299-1.001-.607-.813-1.273-1.628-2.096-2.235m4.805-1.07c-1.551-.458-2.99-1.205-4.422-1.942-.359-.186-.644.312-.314.538 1.199.826 1.94 2.08 3.223 2.817 1.144.657 2.506 1.046 3.548 1.862.987.773 2.349-.469 1.418-1.417-.988-1.007-2.125-1.465-3.453-1.858m51.571 17.772c-3.627-.554-6.621.067-9.98 1.476-.326.137-.208.664.15.549 3.357-1.074 6.166-.37 9.56-.029 1.127.113 1.402-1.823.27-1.996m3.771-4.628c-3.141-1.49-6.424-1.596-9.822-2.001-1.172-.14-1.459 1.895-.281 2.076 3.111.479 6.234 1 9.228 2.005 1.205.406 2.048-1.523.875-2.08m188.477-86.278c6.693-7.825 7.782-15.531 6.544-25.653-.091-.74-1.237-.783-1.192 0 .255 4.406.359 8.861-.852 13.156-1.186 4.2-3.696 7.722-5.84 11.462-.467.815.692 1.792 1.34 1.035"/><path fill="#fff" d="M375.116 357.384c-1.565 12.531-9.997 20.383-17.297 29.87-.811 1.056.885 2.23 1.788 1.379 4.382-4.128 8.762-8.431 11.659-13.772 3.123-5.759 4.053-11.054 4.365-17.477.017-.339-.475-.319-.515 0m-70.614-47.226c-7.749 3.536-14.98 7.146-21.72 12.44-.611.479.201 1.547.836 1.085 6.799-4.942 14.674-7.698 21.582-12.332.748-.502.106-1.56-.698-1.193m-54.489 90.178c-7.764-2.526-15.166-4.694-21.85-9.619-6.3-4.642-11.502-10.448-16.701-16.248-.785-.875-2.039.405-1.283 1.284 11.095 12.916 21.744 24.602 39.564 26.579 1.186.132 1.307-1.658.27-1.996"/><path fill="#fff" d="M251.126 393.171c-8.172-1.729-15.714-4.488-22.004-10.157-.773-.697-1.896.406-1.149 1.149 6.174 6.153 13.882 11.196 22.927 10.684.912-.051 1.216-1.466.226-1.676m-24.64-112.317c-2.411.39-4.241 2.411-5.353 4.46-1.357 2.503-3.683 6.05-3.298 9.037.36 2.788 2.462 5.275 5.136 6.001 3.375.916 6.982-.856 10.018-2.157 2.764-1.185 5.992-4.323 6.252-7.486.45-5.466-7.89-10.641-12.755-9.855m4.848 3.921c1.898.932 3.474 1.754 3.804 3.994.283 1.922.012 1.862-1.185 3.11-.884.922-1.481 1.532-2.737 2.108-1.394.64-3 1.24-4.433 1.74-1.854.648-4.903.952-5.6-1.613a2.5 2.5 0 0 1-.068-.703c.056-2.416 2.055-5.356 3.131-7.448 1.459-2.837 4.694-2.363 7.088-1.188m-20.698-9.71c4.104 1.523 12.571 1.058 13.649-4.429.898-4.574-3.665-10.536-8.563-9.883-3.441.459-5.799 3.587-7.221 6.496-.614 1.255-1.792 3.425-1.686 4.865.13 1.739 2.376 2.415 3.821 2.951m4.181-10.501c3.248-2.002 8.739 3.662 5.244 6.25-1.858 1.375-5.564 1.236-7.625.542-3.65-1.23.467-5.613 2.381-6.792m108.954 57.222c-.625-.88-1.576-1.586-2.582-2.019-2.643-1.139-5.215.011-7.307 1.691-3.389 2.722-10.488 10.957-5.595 15.074 4.455 3.747 13.462 2.165 17.655-1.16 2.555-2.025 3.112-4.749 2.188-7.836-.842-2.81-2.124-4.129-4.359-5.75m-.108 9.583c-2.389 2.157-6.729 3.003-9.846 3.208-.834.054-3.092.25-3.689-.372-1.127-1.17-.753-3.565-.086-4.834.33-.626.744-1.23 1.16-1.801 1.624-2.229 4.101-4.655 6.91-5.204 4.418-.864 9.306 5.611 5.551 9.003m-33.613-30.694c-.266-1.07-.869-2.161-1.735-3.187a61 61 0 0 0-3.119-3.446c-1.741-1.767-3.642-3.542-6.313-3.242-4.994.561-5.979 6.988-6.1 11.494-.578 1.554-.791 3.196.243 4.701 1.36 1.98 3.848 2.007 5.979 1.624 2.922-.525 5.963-1.353 8.568-2.801 2.299-1.277 2.963-3.174 2.477-5.143m-4.904 1.025c-1.223.529-2.43 1.083-3.646 1.629-1.692.759-5.266 3.3-5.981.317-.395-1.652.602-3.629 1.055-5.148.32-1.07.63-2.785 1.524-3.543 2.602-2.206 6.003 3.835 7.45 5.265 1.037 1.023 1.082.839-.402 1.48m-7.782-23.465c1.152-2.603-.338-5.494-1.594-7.747-2.251-4.036-5.577-9.463-10.838-6.054-3.386 2.194-5.352 6.348-5.883 10.246-.412 3.022-.117 9.003 3.817 9.434 3.267.357 6.423-.4 9.296-1.918 1.797-.948 4.331-1.991 5.202-3.961m-2.75-1.566c-.669 1.706-2.587 2.033-4.273 2.518-1.912.551-3.601.597-5.562.465-4.991-.337-1.544-7.176-.156-9.354.938-1.474 2.729-3.802 4.741-2.894 1.452.656 2.498 2.673 3.34 3.943 1.045 1.575 2.658 3.415 1.91 5.322m-32.875-5.838c2.829.349 6.116-.345 8.674-1.586 1.789-.868 4.852-2.943 5.202-5.083.667-4.062-6.302-10.188-10.019-10.191-2.746-.002-4.626 3.153-5.783 5.238-1.255 2.263-3.65 6.253-2.719 8.816.716 1.965 2.753 2.573 4.645 2.806m.063-9.66c.631-1.793 1.727-4.319 3.971-4.364 2.641-.052 4.98 2.845 6.014 4.985.786 1.628.301 2.004-1.011 3.069-1.399 1.137-2.956 1.685-4.688 2.091-1.154.271-3.678 1.086-4.76.331-1.605-1.119-.048-4.633.474-6.112m73.752 22.766c.998-2.721-.362-5.574-1.495-8.026-.946-2.048-2.345-6.222-4.777-6.937-2.356-.693-4.948 1.644-6.287 3.313-1.044 1.301-1.723 2.868-2.274 4.492-.027.031-.056.054-.082.089-3.254 4.198-4.42 9.179 1.793 11.04 4.389 1.314 11.244 1.153 13.122-3.971m-9.295.565c-.975-.077-2.729-.188-3.525-.76-1.848-1.327-.251-3.414.415-4.938q.064-.153.097-.313c.774-1.427 1.307-2.933 2.294-4.241.722-.957 1.267-1.693 2.476-1.861 1.439-.2 1.445.433 2.145 1.766.887 1.695 1.7 3.603 2.091 5.484.835 4.03-2.671 5.128-5.993 4.863m-18.313-8.558c3.375-.02 10.668-.662 10.51-5.477-.068-2.085-1.789-3.657-3.243-4.93-1.511-1.322-3.569-3.125-5.657-3.315-2.479-.226-3.66 2.353-4.34 4.306-.684 1.971-2.33 5.395-1.525 7.362.716 1.754 2.555 2.064 4.255 2.054m-1.163-4.464c.03-.95.13-1.92.333-2.849.33-1.506 1.083-3.783 3.056-3.437s4.753 2.521 5.47 4.418c1.289 3.413-5.153 3.636-7.237 3.561-1.537-.054-1.668-.253-1.622-1.693m-27.739 39.812c.957-2.222-.052-4.832-1.729-6.625-.832-.889-1.827-1.577-2.828-1.917-1.084-.369-1.701-.893-2.712-1.501-2.105-1.266-4.554-1.74-6.652-.182-2.966 2.201-3.483 7.242-2.048 10.43 1.9 4.223 6.635 4.229 10.597 3.483 2.227-.419 4.441-1.526 5.372-3.688m-5.955.185c-1.143.385-2.483.37-3.688.559-1.752.276-2.979-.168-3.725-1.845-.846-1.897-.709-5.367 1.036-6.767 4.09-3.281 12.49 5.994 6.377 8.053m82.164-8.422c-.092-2.124-2.273-3.851-3.347-5.553-1.026-1.628-2.17-3.446-4.217-3.789-2.499-.418-3.202.843-4.661 2.437-.967 1.055-1.893 2.159-2.666 3.366-.572.895-1.814 2.421-1.986 3.472-.414 2.54 3.249 3.827 5.105 4.221 2.646.562 5.482-.093 8.076-.667 1.823-.403 3.791-1.309 3.696-3.487m-3.369.15c-.508.547-3.684.704-4.32.796-1.506.217-3.145.288-4.578-.332-2.705-1.17.525-4.748 1.635-5.889.945-.973 1.65-2.044 3.041-1.239 1.25.724 1.955 2.455 2.715 3.613.435.662 2.212 2.288 1.507 3.051m7.505-5.566c1.821 2.164 6.04 2.236 8.644 2.387 2.389.138 5.516-.229 7.023-2.351 2.268-3.192-.434-8.597-3.062-10.804-2.927-2.457-6.36.32-8.888 3.249-2.649 1.723-6.36 4.38-3.717 7.519m2.809-3.44c.902-1.039 1.818-2.063 2.829-3.006.967-.903 3.567-3.096 5.005-2.36 1.4.718 3.451 5.085 2.726 6.498-.729 1.421-3.62.886-4.954.702-.546-.075-5.588-.566-5.781-1.105-.057-.159.02-.417.175-.729m-145.263-46.048c-1.006-2.028-4.053-2.761-6.405-2.012-1.993.635-4.103 2.773-5.218 4.49-1.131 1.74-1.229 3.9.072 5.563 2.504 3.202 9.512 5 13.016 2.548 3.431-2.401 1.988-8.893-1.465-10.589m-.002 7.033c-.684 2.35-5.949 1.161-7.549.249-1.352-.771-2.377-1.856-1.289-3.396.543-.77 1.359-1.523 2.041-2.172 3.457-3.29 7.91 1.488 6.797 5.319m-26.726-11.976q-.16-.263-.341-.539c-1.514-2.313-4.06-5.092-7.014-3.791-3.037 1.338-6.182 7.139-4.433 10.322 2.134 3.886 8.101 4.375 11.739 2.848 4.204-1.763 1.755-6.043.049-8.84m-.809 5.719c-.713.858-3.098.913-4.105.813-1.2-.119-3.715-.921-4.154-2.234-.52-1.558 2.127-6.589 4.006-5.974 1.837.602 5.961 5.337 4.253 7.395m-7.795-14.493c2.396.184 5.158.606 7.109-1.144 3.068-2.75 1.011-7.006-1.559-9.774-.719-.776-1.479-1.435-2.179-1.911-2.083-1.418-5.15-5.214-7.58-2.118-1.606 2.047-2.429 5.28-3.417 7.662-.715 1.724-1.373 3.654.121 5.176 1.787 1.818 5.137 1.928 7.505 2.109m-3.57-8.989c.312-.731.979-3.682 1.608-3.9.988-.338 2.758 1.68 3.518 2.186 1.49.99 2.541 2.581 2.706 4.368.048.512.022.914-.067 1.23-.319 1.143-1.464 1.167-2.979 1.229-1.521.062-4.092.486-5.485-.265-1.864-1.007.086-3.408.699-4.848m59.513 31.656c3.461.394 9.766.639 11.039-3.581 1.285-4.264-4.131-8.959-7.967-9.611-2.811-.478-5.089 2.622-6.882 4.418-1.595 1.6-4.295 4.531-2.47 6.875 1.259 1.616 4.45 1.69 6.28 1.899m-3.142-5.367c.669-1.809 2.78-3.017 4.051-4.367 1.526-1.624 3.241-.616 4.776.607 1.16.926 3.34 2.761 2.711 4.5-.749 2.07-4.205 1.636-5.932 1.598-1.714-.04-6.589.321-5.606-2.338m119.749 36.241c2.236.305 4.122-.609 5.024-2.864 1.015-2.536-1.256-4.358-2.493-6.351-1.28-2.065-2.452-5.101-4.841-6.127-2.224-.955-4.474.352-5.999 1.965-.531.561-2.43 3.504-2.975 5.607a1.34 1.34 0 0 0-.47.482c-3.64 6.794 8.168 6.798 11.754 7.288m-7.861-8.948c.542-.784 1.1-1.526 1.816-2.166 1.703-1.52 3.134-1.135 4.354.75.807 1.249 1.528 2.557 2.332 3.809.495.77 2.196 2.296 1.102 3.246-.15.13-2.148-.378-2.717-.421-1.604-.121-3.438-.279-4.994-.706-2.754-.753-3.621-2.012-1.893-4.512m47.786 49.889c1.478-2.276-.093-4.792-.929-7.065-.953-2.599-2.316-5.312-4.976-6.498-7.113-3.173-19.313 12.089-11.677 15.098 3.078 1.212 6.689 1.151 9.938 1.098 2.62-.043 6.068-.205 7.644-2.633m-12.998-1.329c-.684-.069-3.343-.126-3.754-.946-.8-1.599 1.5-4.138 2.409-5.231 1.588-1.909 3.294-3.891 6.063-3.734 3.303.188 6.829 6.305 5.06 8.971-1.378 2.075-7.414 1.178-9.778.94m-15.719 11.73c-4.81.049-9.338 8.617-7.112 12.771 1.055 1.967 3.175 2.067 5.195 2.045 1.123-.013 2.201-.125 3.262-.495 1.102-.385 2.393-.541 3.416-1.105 1.8-.994 2.604-2.702 2.861-4.684.495-3.798-3.696-8.572-7.622-8.532m4.913 8.461c-.582 2.204-3.379 2.621-5.401 3.011-1.571.303-4.003.392-4.573-1.51-.703-2.343 1.766-6.079 3.781-7.12 2.895-1.494 6.943 2.777 6.193 5.619m39.003.127c4.128-.323 8.358-1.914 7.292-6.677-.511-2.287-3.18-8.048-6.201-7.557-3.883.631-11.537 7.223-8.534 11.717 1.498 2.242 4.982 2.71 7.443 2.517m-.135-10.783c1.273-.918 1.864-1.59 3.109-.085.643.777 1.067 1.862 1.405 2.8.47 1.303.951 2.875-.392 3.695-.965.59-2.728.801-3.805.915-1.218.128-4.178.314-4.844-1.047-1.163-2.377 3.06-5.222 4.527-6.278m-120.955-14.853c-.759-.243-1.281.215-1.447.811-3.835-1.138-7.507-.504-9.344 3.542-1.531 3.369-.066 6.167 3.425 6.957 3.38.765 7.95.792 9.937-2.59 1.002-1.704 1.225-3.807.651-5.699-.537-1.772-1.519-2.475-3.222-3.021m-1.014 7.074c-1.057 1.246-2.969 1.458-4.482 1.505-1.109.034-2.762.202-3.324-1.057-.314-.704.07-1.977.359-2.585 1.355-2.849 3.999-3.18 6.771-2.618a.76.76 0 0 0 .574-.097c1.071 1.413 1.39 3.332.102 4.852M144.327 219.719c1.436.917 3.826.924 5.34.203 1.611-.767 2.227-2.609 2.519-4.249.28-1.572.021-3.607-.735-5.315-.875-1.978-2.416-3.518-4.56-3.396-4.007.229-6.372 4.093-5.647 7.845.322 1.667 1.613 3.971 3.083 4.912m1.016-9.912c1.02-1.092 2.404-1.175 3.022.118.53 1.11 1.198 2.242 1.39 3.477.273 1.77-.767 4.609-3.078 3.503-1.944-.931-2.771-5.561-1.334-7.098m-16.748-23.277c-.926 4.296 1.008 9.097 5.662 10.045 5.014 1.021 6.924-4.049 6.646-8.129-.158-2.323-.642-4.784-2.504-6.356-4.158-3.514-8.833-.069-9.804 4.44m6.878-3.04c1.823.669 2.124 4.309 1.938 5.932-.237 2.07-1.112 4.304-3.604 3.693-2.61-.641-3.41-3.388-3.105-5.761.279-2.156 2.088-4.847 4.771-3.864m-8.888-21.21c-.902 1.184-1.31 2.798-1.267 4.27.04 1.397.335 2.797 1.276 3.879 1.641 1.889 4.686 2.376 6.488.477 1.816-1.912 2.274-5.433 1.119-7.785-.664-1.352-2.059-2.19-3.531-2.39-1.513-.203-3.11.267-4.085 1.549m4.351.915c1.774 1.054 1.587 3.826.756 5.405-.651 1.239-1.819 1.498-3.052.632-1.045-.732-1.302-2.032-1.353-3.232-.081-1.893 1.805-3.9 3.649-2.805m-44.8-134.976c-1.885 6.965-5.91 13.167-10.318 18.819-.451.579.137 1.641.871 1.128 5.955-4.163 8.809-13.01 9.865-19.831.043-.27-.343-.392-.418-.116m-.783 35.127c.229-8.556.313-16.274 2.782-24.596.097-.324-.379-.439-.497-.137-3.158 8.117-6.021 16.187-4.121 24.98.228 1.057 1.808.78 1.836-.247m18.233 66.283c-.036-.357-.588-.372-.569 0 .53 10.566-.186 21.041-.024 31.601.134 8.773 1.031 16.962 2.394 25.604.113.722 1.248.53 1.25-.169.027-8.8-.887-17.751-1.375-26.545-.568-10.196-.648-20.313-1.676-30.491m5.382 29.674c-.028-.343-.557-.353-.542 0 .774 19.326-.548 39.703 6.392 58.137.555 1.474 2.883.897 2.402-.663-5.699-18.532-6.69-38.258-8.252-57.474m12.198 76.545c-.088-.598-1.134-.464-1.065.144 1.805 15.917 3.566 31.9 10.211 46.675.404.899 1.802.252 1.56-.658-4.1-15.414-8.379-30.322-10.706-46.161m15.65 34.233c-5.031-12.274-7.801-25.548-10.862-38.411-.094-.395-.672-.224-.601.166 2.346 12.832 3.467 27.339 10.027 38.851.426.749 1.781.238 1.436-.606m14.121 5.068c-2.988 2.358-5.496 5.072-7.797 8.104-2.434 3.207-3.547 6.881-5.436 10.381-.201.374.323.667.562.328 2.214-3.143 3.948-6.551 6.422-9.514 2.36-2.826 5.045-5.326 7.321-8.226.605-.772-.301-1.682-1.072-1.073m3.222-6.693c-7.305 4.393-12.837 9.642-17.6 16.707-.195.289.27.658.49.377 5.111-6.522 11.141-11.048 17.902-15.728.823-.567.087-1.885-.792-1.356m78.625 106.771c-4.404-2.396-9.021-4.387-13.287-7.039-4.854-3.019-8.156-7.417-11.549-11.924-.523-.696-1.715-.035-1.193.698 2.91 4.083 5.711 8.435 9.646 11.625 4.704 3.814 10.224 5.887 15.798 8.026.808.31 1.331-.981.585-1.386"/><path fill="#fff" d="M503.585 411.361c-1.246-10.672-4.473-20.519-10.812-29.188-4.35-5.947-10.359-11.207-16.434-15.822.292-1.726-.028-3.767-.226-5.24-.322-2.417-1.51-4.429-3.588-5.75-2.219-1.412-5.322-2.396-7.841-1.254-1.008.458-2.228 1.393-2.987 2.5-2.365-1.342-4.777-2.606-7.201-3.844l.005-.057c.147-1.094.222-2.168-.003-3.262-.439-2.144-1.898-4.354-4.051-5.076-2.109-.707-6.104.52-7.326 2.802-.736-.354-1.475-.708-2.209-1.063-4.93-2.38-9.939-4.809-14.556-7.78.157-.38.258-.792.281-1.203.237-4.119.537-11.21-3.987-13.279-1.99-.91-4.177-.405-6.123.356-.982.384-2.387.898-3.541 1.59-5.607-8.308-13.016-15.272-21.015-21.479.354-1.807.464-3.81.36-5.42-.166-2.564-.912-5.357-3.271-6.759-2.115-1.257-4.442-.738-6.65-.036-1.157.368-2.363.701-3.449 1.257-.49.251-.87.534-1.209.837-3.021-2.045-5.842-4.254-8.576-6.549.588-4.086 2.143-8.144-.912-11.856-3.749-4.555-9.134-2.632-13.784-.81-2.54-1.928-5.192-3.583-7.909-5.326.461-1.115.141-2.295.221-3.732.087-1.532.656-3.127.313-4.655-.693-3.094-2.563-6.156-5.752-7.026-3.029-.826-7.154-.163-9.867 1.42-.176.103-.739.527-1.307 1.062-5.752-3.293-12.418-4.163-19.045-5.235-.635-4.569-2.842-8.952-7.517-10.111-2.626-.652-5.097-1.306-7.621-.106-2.587 1.23-3.932 3.196-5.323 5.258-.273-.083-.547-.16-.82-.241-1.121-1.48-2.42-2.867-3.545-4.345-1.443-1.896-2.974-3.654-5.291-4.461-5.027-1.752-8.415 2.063-10.531 6.12-4.588-.283-9.174-.579-13.688-1.391a11 11 0 0 0-.214-1.329c-.812-3.535-3.104-6.371-6.097-8.354-3.102-2.057-7.285-3.709-10.883-1.949-2.061 1.009-4.84 3.398-6.013 5.902-2.146-.61-4.3-1.178-6.474-1.628-2.744-4.042-5.773-8.802-11.241-8.61-2.923.103-8.372 4.237-8.765 7.872-2.416.086-4.818-.005-7.086-.599-.996-2.934-.781-6.165-2.031-9.138-1.082-2.577-3.625-6.119-6.236-7.265-2.673-1.172-6.312 1.017-7.932 3.167a6 6 0 0 0-.314.562c-3.973-3.209-7.191-7.223-10.338-11.342 1.097-2.224 1.082-4.604.581-7.266-.491-2.613-.967-5.072-3.743-6.047-1.205-.422-5.227-.315-7.193.888a44 44 0 0 0-1.32-1.228 57 57 0 0 1-3.341-3.201c.106-1.17-.188-2.303-.034-3.512.16-1.238.49-2.45.609-3.696.226-2.339-.246-4.511-2.148-6.022-1.787-1.419-5.258-2.147-7.699-1.2-1.135-2.657-2.203-5.364-3.386-8.001-2.167-8.933-6.505-17.303-8.913-26.177-3.416-12.597-6.527-25.37-7.992-38.359-1.344-11.909-3.467-23.638-5.074-35.496-.609-4.494-1.725-8.492-3.037-12.595-.359-6.98-2.38-14.038-4.877-20.427-2.948-7.542-7.898-12.331-13.848-17.578-4.929-4.348-9.73-9.111-16.096-11.178-2.645-.859-5.25-1.523-7.803-2.423C71.87 2.1 65.827-.334 58.341.037c-3.19.158-6.099.83-9.046 2.035-3.854 1.576-7.748 2.043-11.582 3.529-6.558 2.542-12.234 6.992-18.521 10.132-3.821 1.908-10.025 4.904-10.579 9.725a6.1 6.1 0 0 0-.587 1.908c-.227 1.744.605 3.901 1.404 5.426 1.604 3.059 3.6 5.279 4.672 8.674 1.256 3.972 3.186 5.564 7.508 4.609 4.754-1.051 9.332-2.557 14.011-3.826-.435.235-.872.466-1.323.676-2.316 1.079-4.902 1.63-7.102 2.981-2.823 1.734-4.711 5.346-3.031 8.488 1.834 3.433 4.653 4.461 8.029 2.955 3.259-1.455 5.531-2.844 9.237-3.506 1.935-.345 3.559-.793 5.126-1.441 2.291-.211 4.599-.362 6.807-.754a42 42 0 0 0 3.587-.808c.375.287.794.543 1.24.827 1.792 1.137 3.104 1.788 4.087 3.853.477 1.002.754 2.156 1.195 3.19 1.328 3.117 3.565 6.177 6.641 7.751 1.334.682 2.566.602 3.625 1.719 3.646 3.853 2.424 9.564 2.275 14.443-.254 8.389 4.598 14.924 6.082 22.979 1.495 8.11 3.995 15.843 5.588 23.898 1.773 8.971 2.8 17.835 6.094 26.451.061.16.156.3.256.436-.285 7.076-.661 14.191-.455 21.254.479 16.457 1.41 32.819 4.398 48.996 1.541 8.342 1.844 17.12 3.996 25.318 1.998 7.605 6.878 13.511 10.255 20.485 3.468 7.163 8.133 13.689 10.841 21.226 1.911 5.318 3.598 10.359 5.826 15.286.826 2.945 1.862 5.832 2.703 8.776 1.705 5.963 3.736 11.583 7.34 16.506.48 2.063.982 4.128 1.467 6.212a188 188 0 0 0 1.984 7.804c-1.211 8.849-5.312 17.679-8.83 25.736-3.211 7.35-8.67 14.667-10.104 22.633-.803 4.457-1.434 7.541-3.698 11.544-1.854 3.279-3.612 6.627-4.896 10.178-3.416 9.435-2.901 20.233-8.646 28.765-2.247 3.335-4.481 6.481-6.244 10.115-1.02 2.1-3.936 6.497-3.768 9.148.087 1.39.484 2.285 1.906 2.892 1.027.438 2.51.177 3.563.323 2.126.296 4.156 1.125 6.287 1.443 4.072.606 8.254-.227 12.375-.021 4.295.214 8.936.245 13.194-.396 8.194-1.233 6.952-6.867 8.304-13.898 1.918-9.99 4.274-20.529 10.376-28.861 2.436-3.325 5.425-6.213 7.245-9.982.813-1.683 1.207-3.391 1.445-5.121 1.369 5.274 1.76 10.708 1.895 16.23.082 3.415.312 6.806.063 10.23-.345 4.74-2.366 8.535-4.834 12.466-3.966 6.318-7.952 12.563-11.419 19.18-2.004 3.822-6.714 9.858-2.104 13.646 3.38 2.776 10.372 2.667 14.413 2.375 3.604-.261 7.146-.307 10.756-.397 3.975-.1 8.086.491 12.006.313 4.843-.22 5.001-5.086 6.894-8.716 3.251-6.232 4.935-12.681 7.305-19.249 4.72-13.073 14.408-24.39 12.259-39.085-.723-4.935-2.736-9.614-4.325-14.313-1.55-4.588-2.554-9.314-4.075-13.903-.055-.164-.098-.328-.148-.492.402.16.805.325 1.201.512 3.652 1.732 6.859 3.951 9.736 6.801 4.57 4.529 8.12 10.431 14.285 12.962 6.68 2.743 13.926 2.75 20.959 3.777 6.445.94 11.059 5.534 17.822 3.956.051-.012.094-.035.143-.049.32 3.795 1.15 7.634 1.338 11.292.335 6.523-.898 13.12-.295 19.565.238 2.534.861 4.815 1.438 7.25 1.297 5.473.868 8.737-2.067 13.436-2.424 3.882-12.33 17.622-3.86 19.89 5.411 1.449 12.866 1.654 18.476 1.233 3.378-.254 6.727-.907 10.105-1.122 3.488-.222 7.006.364 10.453.202 10.74-.507 6.109-16.648 4.956-22.94-1.321-7.212-2.413-14.217-2.55-21.569-.074-3.978.092-7.892.699-11.828.441-2.861 1.273-5.702 1.02-8.614-.174-2.01-.484-3.773-.525-5.416 2.712 1.469 5.979 1.661 9.257.997 2.78 3.584 4.423 8.031 6.638 11.928 2.663 4.683 4.807 9.492 6.466 14.643 1.318 4.094 4.136 9.1 4.075 13.512-.08 5.893-5.846 10.828-8.854 15.338-3.031 4.548-4.552 7.761 1.553 9.121 8.791 1.957 17.043.824 25.877.714 6.373-.079 13.98.071 16.035-7.521 2.217-8.191-.353-17.648-3.571-25.1-4.29-9.93-8.573-19.14-10.932-29.738-.65-2.921-1.491-8.997-3.673-12.986 2.154-.368 4.273-.845 6.396-1.677 4.047-1.586 7.244-4.163 10.805-6.517 2.525.395 5.113 1.07 7.541.997 3.879-.117 7.734-.854 11.527-1.637 8.808-1.818 17.947-6.59 26.99-6.584 4.732.003 8.344 3.166 12.476 5.073 3.4 1.57 6.942 2.793 10.544 3.815 8.226 2.335 16.877 3.168 24.568 7.147 3.357 1.737 6.922 4.2 9.605 6.882 5.225 5.22 3.502 11.589.572 17.548-4.299 8.747-10.4 15.283-18.652 20.407-14.186 8.808-27.406 18.919-41.794 27.393-8.638 5.087-17.754 9.284-26.306 14.514-3.383 2.068-12.923 6.829-11.73 11.923.14.594.719 1.234 1.34 1.339 3.256.553 7.003-1.256 10.264-1.734 5.389-.79 10.635-2.258 16.004-3.209 5.525-.979 11.171-1.513 16.578-3.059 5.718-1.634 11.129-4.031 16.697-6.065 5.174-1.89 10.447-1.69 15.756-2.766 4.746-.962 9.197-3.604 13.483-5.754 9.782-4.906 20.364-9.167 27.818-17.472 6.965-7.759 11.496-17.358 14.251-27.343 2.802-10.168 4.287-22.662 3.063-33.139m-38.068-53.779c1.801-.751 4.564.45 5.705 1.971.777 1.035.834 2.295.752 3.584-.227-.162-.455-.332-.681-.492a105 105 0 0 0-6.833-4.436c.332-.243.676-.468 1.057-.627m-18.801-9.937c1.261-.342 2.512-.319 3.297.849.465.689.562 1.47.53 2.277a642 642 0 0 0-5.15-2.508c.592-.302 1.161-.573 1.323-.618m-28.606-20.118c1.283-.281 2.402-.481 3.223.699.682.982.697 2.502.721 3.644.019.873-.145 2.056-.211 3.25-1.939-1.519-3.93-2.871-5.785-4.331a61 61 0 0 0-1.311-2.244c1.133-.316 2.254-.775 3.363-1.018m-35.066-31.868c1.889-.25 3.748-.679 4.056 1.777.126 1-.005 2.054-.191 3.09a268 268 0 0 0-6.572-4.589c.992-.126 1.98-.182 2.707-.278m-25.215-17.94c1.525-.307 3.17-1.133 4.757-.644 3.177.98 2.639 4.063 2.011 6.615-2.244-1.98-4.484-3.984-6.78-5.97zm-23.854-19.237c2.25-.497 6.28-1.573 7.725.886 1.12 1.907.337 4.434.051 6.741-2.724-2.228-5.293-4.641-7.999-6.911-.192-.162-.391-.307-.586-.46.276-.105.549-.199.809-.256m-31.39-13.366c2.293.827 3.707 2.542 4.213 4.995.051.241.078.46.105.678-3.399-.579-6.799-1.25-10.054-2.284-1.478-.469-2.956-.962-4.443-1.438 3.043-2.075 6.734-3.194 10.179-1.951m-26.195-4.031c3.163-1.626 5.549 1.306 7.033 3.7-3.43-.532-6.893-.804-10.363-1.028 1.074-.976 2.082-2.03 3.33-2.672m-37.065-5.805c3.078-1.963 5.927-1.401 8.709.869 1.828 1.491 2.494 3.032 2.842 4.72-3.473-.935-6.908-2.006-10.425-2.765-1.255-.27-2.545-.675-3.829-.917.889-.657 1.776-1.315 2.703-1.907m-19.473-2.659c.351.334.664.769.962 1.25-2.73-.276-5.482-.353-8.26-.132q-.812.064-1.639.133c2.807-2.274 5.75-4.293 8.937-1.251m-32.804-10.944c.964-.464 2.441-1.23 3.523-.778.771.322 1.645 1.813 2.181 2.454 1.526 1.827 2.5 4.069 2.479 6.502a9 9 0 0 1-.118 1.265c-.156-.121-.315-.232-.468-.363-1.688-1.437-2.867-3.313-4.525-4.783-1.389-1.231-2.918-2.338-4.424-3.456.465-.312.916-.631 1.352-.841m-21.43-22.407c1.229-.08 2.869-.167 3.566 1.096.59 1.07.643 3.088.588 4.674-1.533-1.979-3.11-3.919-4.798-5.754.246-.002.471-.004.644-.016m-10.474-14.869c-.068 1.114-.449 2.443-.748 3.784a41 41 0 0 1-4.326-7.294q-.075-.168-.148-.338c2.665-.012 5.412.712 5.222 3.848M104.929 466.83c-2.066-.274-4.24-.633-4.492-.949-.619-.778 3.743-7.56 4.563-8.98a99 99 0 0 1 1.572-2.622c.809.556 1.748.853 2.493 1.557.437.413.802.857 1.163 1.304-1.271.941-2.287 2.291-3.078 3.631-.901 1.53-2.458 4.088-2.221 6.059m3.758.431c-.143-.013-.43-.041-.795-.08.309-1.213 1.465-2.673 2.089-3.696 1.319-2.163 2.788-4.296 5.479-3.085 1.891.85 3.187 1.939 3.498 3.956.146.954.291 1.75.672 2.468-3.65.267-7.514.737-10.943.437m47.246-50.497c-1.743 3.227-4.441 5.786-6.676 8.646-4.548 5.82-7.27 12.056-9.963 18.854-1.383 3.489-2.15 7.276-2.914 10.944-.539 2.586-.213 8.441-2.072 9.981-1.771 1.467-7.631 1.439-10.824 1.466-.066-2.384-.871-5.633-2.738-7.19-2.016-1.682-4.684-3.765-7.448-3.544-.095.008-.181.037-.274.048-.119-.804-.523-1.593-1.031-2.257-.553-.724-1.155-1.473-1.941-1.958-.496-.306-1.018-.424-1.543-.552 2.816-4.442 5.443-8.706 6.813-14.271 2.197-8.925 4.182-16.425 8.975-24.365.61-1.013 1.236-2.034 1.822-3.078 1.123 1.374 2.797 2.53 3.957 3.21 3.561 2.089 6.698 2.294 10.566 1.034 1.384-.451 1.127-2.463-.342-2.528-2.725-.12-5.178.151-7.81-.821-1.882-.695-3.677-1.734-5.312-2.943.431-.914.809-1.849 1.091-2.818.042-.147.069-.296.106-.443 3.921 1.729 7.992 3.44 12.309 3.068 1.02-.088 1.27-1.476.244-1.81-4.017-1.307-8.191-1.708-12.203-2.976.447-2.885.362-5.834 1.398-8.642 3.105-8.413 7.363-16.348 10.26-24.887 1.369-4.038 3.327-8.821 4.168-13.53.924 2.81 1.937 5.622 3.07 8.502 1.287 3.271 2.581 6.459 4.123 9.613 1.882 3.848 2.229 6.835 1.932 11.15-.549 7.957 2.233 14.795 5.181 22.06-.647 3.384-1.333 7.092-2.924 10.037m-.652 65.662c-1.257-.063-2.486-.244-3.641-.675-3.7-1.382-2.429-2.849-.64-6.042.504-.901 1.02-1.794 1.53-2.691.84.156 1.732.722 2.343 1.102.764.475 1.526.974 2.143 1.631.271.29.492.542.746.754-1.511 1.82-2.558 3.969-2.481 5.921m8.283-.456c-1.631.063-3.375.279-5.127.403.234-.498.474-.996.77-1.466 1.102-1.747 3.17-4.416 5.182-5.209 4.485-1.767 6.365 2.764 8.229 6.094-3.013.038-6.052.061-9.054.178m98.547 4.22c-.177-.263 3.431-6.288 5.617-9.985.651.443 1.258.994 1.93 1.375 1.136.645 2.409 1.045 3.591 1.608a36 36 0 0 0-1.512 2.125c-.934 1.387-2.953 4.22-2.93 6.373-2.491-.12-5.966-.405-6.696-1.496m18.183 1.268a43.3 43.3 0 0 1-9.299.328l-.034-.002c2.579-2.894 6.757-9.276 8.624-8.107 1.224.765 1.104 3.868 1.264 5.102.117.901.237 1.769.548 2.532-.369.048-.742.095-1.103.147m49.97-3.935c-2.469.003-9.253.613-9.731-2.417-.367-2.313 6.836-7.306 8.852-9.259.633.803 1.359 1.546 1.797 2.589.762 1.82 1.221 3.707 1.588 5.64.129.674.336 2.119.775 3.364a76 76 0 0 1-3.281.083m16.688-50.191c2.265 7.784 6.365 14.878 9.372 22.378 2.944 7.341 7.487 24.663-4.505 25.917-4.709.493-9.425 1.148-14.156 1.545-.395-4.598-2.455-10.995-6.998-12.724 4.142-4.829 5.305-9.395 2.983-15.706-1.54-4.19-2.971-8.573-4.782-12.742a70 70 0 0 1 2.668-.563c1.381-.267 2.655-.723 4.006-1.082.994-.265.806-1.833-.244-1.81-1.43.032-2.682.433-4.057.771-1.08.265-2.156.521-3.224.819a49 49 0 0 0-1.45-2.856 38 38 0 0 0 3.461-.817c2.04-.591 4.355-.978 5.854-2.577.667-.711-.167-1.687-1.002-1.298-1.783.831-3.975 1.168-5.842 1.884a33 33 0 0 1-3.475 1.11c-.307-.495-.604-.996-.936-1.474-2.859-4.14-5.939-9.779-10.035-13.376 8.76-2.844 16.262-7.168 25.527-8.607l.646-.096c1.481 1.551 2.743 7.374 3.089 8.6 1.188 4.198 1.881 8.517 3.1 12.704m150.951-6.894c-1.293 11.398-3.473 21.772-9.357 31.773-6.029 10.247-13.982 15.799-24.158 21.389-8.982 4.935-17.095 11.092-27.362 12.787-11.448 1.889-21.644 8.021-33.152 10.051-5.692 1.004-11.395 1.936-16.999 3.373-2.944.754-5.83 1.306-8.842 1.772-1.371.212-3.096.738-4.702.889 2.576-1.949 8.433-4.197 9.659-4.83 4.633-2.39 9.195-4.913 13.844-7.275 8.77-4.455 16.826-9.96 24.798-15.696 6.995-5.034 13.233-10.829 20.37-15.71 7.306-4.998 15.092-8.941 20.79-15.919 5.046-6.178 9.899-14.448 11.069-22.432.852-5.809-1.359-9.757-4.926-13.187-2.607-4.992-6.683-9.019-11.376-12.583-6.487-4.927-13.245-9.437-21.147-11.619-.693-.191-.977.858-.297 1.071 7.145 2.244 13.809 8.045 19.557 12.693a49 49 0 0 1 4.358 3.978c-5.866-3.116-12.292-4.588-18.94-5.923-4.412-.887-8.853-1.741-13.158-3.063-4.489-1.378-8.297-3.917-12.603-5.623-8.765-3.473-18.963 1.816-27.317 4.291-5.223 1.546-10.553 2.983-15.922 3.928-1.716.302-3.461.297-5.205.231.719.027 2.193-1.042 2.885-1.339a97 97 0 0 1 3.498-1.41c2.259-.867 4.537-1.68 6.775-2.597 2.211-.905 4.417-1.892 6.455-3.147 3.155-1.945 5.599-2.945 9.298-3.597 8.583-1.514 17.207-1.612 25.823-2.693 1.639-.206 1.633-2.333 0-2.547-13.705-1.798-28.145.553-40.995 5.752-5.146 1.452-10.327 2.937-15.073 5.246-8.17 3.977-13.77 9.986-23.129 11.421-7.352 1.128-13.77 3.14-20.504 6.203-3.369 1.532-6.758 3.602-10.245 4.82-3.114 1.088-5.648.865-8.28.108.459-1.269 1.302-2.512 2.776-3.8 3.046-2.658 6.953-4.481 10.563-6.199 6.361-3.025 13.003-5.526 19.154-8.979 12.502-7.019 22.576-19.079 28.758-31.855.782-1.616-1.575-3.04-2.433-1.423-6.067 11.448-14.733 21.47-25.862 28.283-10.01 6.127-21.876 8.755-31.646 15.247-3.152 2.095-5.96 4.529-7.223 8.222-.728 2.128-.717 4.076-.516 6.267.304 3.307.264 6.018-.188 9.309-1.681 12.246.466 24.691 2.139 36.798.538 3.893 3.71 14.708-1.479 16.026-3.776.958-8.039 1.436-12.158 1.915-.069-2.048-.87-4.485-1.531-6.207-.826-2.149-2.605-4.229-5.031-4.593-1.051-.157-2.012.144-2.886.688-1.362-1.28-3.027-1.504-4.935-2.069-.598-.177-1.24-.464-1.885-.635.114-.203.211-.376.268-.485 2.256-4.37 3.521-7.312 2.305-12.19-1.119-4.495-1.598-8.211-1.533-12.175 3.175 1.912 6.619 3.453 10.377 2.727.854-.165.853-1.557 0-1.725-1.93-.378-3.868-.247-5.799-.59-1.623-.29-3.085-.888-4.529-1.62.043-1.001.115-2.022.219-3.08.588.236 1.169.442 1.709.602 2.348.695 4.883.806 7.283.391.988-.171 1.005-1.855 0-2.012-2.018-.315-4.072-.211-6.082-.547a27 27 0 0 1-2.66-.584c.047-.349.09-.693.142-1.052.103-.703.188-1.407.263-2.111 3.824 1.276 8.018 1.253 11.937.225 1.617-.425 1.349-3.206-.407-3.007-3.803.43-7.581.916-11.319.068.21-3.77.06-7.551-.355-11.318-.38-3.449-1.274-6.937-1.007-10.416.08-1.037.294-2.027.574-2.997 3.908 3.161 8.77 4.564 13.974 3.092 1.321-.375 1.062-2.384-.324-2.396-4.665-.041-9.093-.495-12.848-3.01.4-1.009.839-2.014 1.27-3.028.493.363 1.094.613 1.579.688q.19.027.374.008c4.841 1.639 10.169 4.639 15.093 2.336 1.012-.473.229-1.799-.699-1.659-4.535.685-9.314-.953-13.691-2.272-.031-.036-.05-.082-.087-.111-.478-.379-1.157-.683-1.844-.805 1.848-5.257 1.265-10.399 1.473-16.003.265-7.132.935-14.4 2.208-21.423 1.233-6.81 2.928-13.613 4.938-20.234a91.6 91.6 0 0 1 4.621-12.142c.498-1.067 1.048-2.377 1.684-3.696.309-.284.615-.608.975-.976 1.988-2.043 3.863-4.038 6.115-5.815 4.312-3.401 9.238-5.527 13.803-8.507 1.477-.963.2-3.079-1.367-2.339-6.068 2.863-12.306 6.153-16.913 11.009-3.031 1.627-4.514 4.966-6.232 7.999-3.489 6.156-5.88 12.784-7.972 19.523-4.094 13.191-6.736 26.812-7.428 40.624-.189 3.809-.125 7.146-1.729 10.722-.987 2.199-2.192 4.408-2.931 6.706a16.7 16.7 0 0 0-.677 3.226 2.5 2.5 0 0 0-.909-.077c-5.653.583-10.508-3.493-16.069-4.256-7.84-1.077-17.272-.35-23.888-5.443-4.448-3.426-7.698-8.169-12.377-11.385-2.333-1.603-4.892-2.879-7.555-3.837-1.201-.433-2.768-.511-4.176-.738-1.425-6.954-.76-13.867-3.269-20.691-1.46-3.97-3.399-8.035-3.474-12.361-.013-.801.077-1.599.208-2.395 2.849 4.14 5.222 8.446 8.874 12.092 4.184 4.175 9.143 6.229 14.473 8.551 1.416.617 2.678-1.363 1.244-2.129-5.034-2.693-10.192-4.894-14.473-8.77-3.67-3.323-6.818-6.921-9.947-10.689 1.625-7.307 5.92-13.581 7.924-20.798 1.976-7.111 2.684-14.514 2.422-21.879-.02-.539-.832-.542-.841 0-.097 5.964-1.28 11.441-2.813 16.85.181-2.992.112-6.025-.3-9.142-.246-1.851-3.188-1.891-2.955 0 .997 8.036-.198 15.509-2.844 23.125-2.01 5.785-4.985 11.172-4.412 17.433.516 5.656 3.646 10.515 4.543 16.035.551 3.382-.625 7.483-.377 10.95.27 3.784 1.427 7.185 2.336 10.847 1.705 6.874 3.557 13.598 5.553 20.398 2.529 8.615 1.306 15.781-2.475 23.754-2.738 5.774-5.658 11.159-7.797 17.209-2.181 6.165-3.424 12.358-6.293 18.29-.636 1.311-1.891 5.977-2.847 6.82-.954.841-2.768.822-4.521.667q.002-.144-.017-.294c-.314-2.313-3.173-4.247-4.772-5.842-2.195-2.187-4.219-3.982-7.615-3.647-1.457.144-3.18 1.063-4.732 2.384-.475-1.868-2.057-3.393-3.629-4.462a8 8 0 0 0-1.398-.746c.43-.752.855-1.506 1.285-2.259 3.324-5.83 7.51-11.486 10.096-17.678 2.07-4.957 2.254-9.969 1.753-15.281l-.069-.783c1.15.363 2.408.48 3.639.631 2.834.346 5.619.41 8.334-.581 1.387-.506 1.32-2.901-.375-2.768-1.921.151-3.825.389-5.756.373-1.527-.014-4.586.153-6.105-.635-.123-1.431-.238-2.859-.355-4.289 4.613.623 8.883 1.009 13.259-1.78 1.431-.912.188-2.947-1.313-2.246-4.154 1.938-7.93 2.099-12.119 1.903-.27-3.308-.541-6.616-.852-9.926-.587-6.25-2.821-12.384-4.695-18.351-.036-.114-.064-.223-.098-.336 2.098 1.099 4.211 1.941 6.789 2.293 3.373.46 6.463-.334 9.693-1.234 1.539-.429 1.219-2.74-.374-2.768-2.789-.048-5.444.81-8.218.773-3.336-.044-5.926-.913-8.699-2.381a26 26 0 0 1-.393-4.04c2.193.576 4.369 1.222 6.615 1.55 2.133.311 3.817.133 5.914-.208 1.041-.169.662-1.609-.23-1.703-1.912-.202-3.854-.08-5.779-.24-2.219-.184-4.347-.623-6.513-1.08.019-.567.048-1.143.097-1.743.303-3.712.346-7.07-1.076-10.588-2.742-6.788-6.391-13.323-9.307-20.066-3.305-7.64-5.057-16.678-7.021-24.777-4.238-17.473.636-35 10.871-49.544.693-.986-.896-2.226-1.682-1.297-9.141 10.82-15.421 24.452-15.387 38.74.001.076.007.149.008.225l-.705-1.818a1.7 1.7 0 0 0-.063-.604c-2.289-7.926-4.539-16.006-7.166-23.83-.623-1.854-1.382-3.63-2.212-5.366-2.458-8.168-5.747-15.985-7.328-24.522-2.198-11.861-4.542-23.95-5.015-36.02-.016-.383-.587-.385-.597 0-.384 15.45.929 30.892 4.897 45.658-3.838-6.982-9.271-13.681-10.94-21.465-1.788-8.334-2.023-17.058-3.577-25.468-1.665-9.011-2.574-17.444-2.834-26.597-.223-7.862-1.513-15.654-1.785-23.517-.218-6.317.662-13.659-1.42-19.645-1.057-3.038-1.365-6.276-1.873-9.449-.535-3.347-1.676-7.093-1.676-10.477-.556-3.471-.914-7.047-1.677-10.477-.6-2.697-1.722-5.326-2.491-8.021-1.26-4.411-1.715-9.001-2.848-13.441-1.199-4.697-3.736-8.271-5.445-12.703-1.916-4.969-.668-10.252-1.037-15.397-.421-5.851-2.23-16.886-8.073-19.991-.294-.157-.546.149-.427.426.928 2.142 3.642 7.312 2.359 9.638-1.886-1.174-3.529-2.29-5.037-3.992-1.686-1.905-2.309-4.161-3.404-6.387-.595-1.21-1.436-2.259-2.533-3.047-.269-.192-1.24-.537-1.332-.847-.418-1.429 1.809-1.051 2.492-1.11 1.373-.118 2.78-.604 4.045-1.126 2.605-1.076 4.943-2.721 7.125-4.484.923-.746-.324-2.388-1.281-1.66-2.896 2.203-5.769 4.25-8.967 5.431 2.541-1.695 4.759-3.882 6.5-6.717.487-.792-.541-1.972-1.353-1.353-6.552 4.996-12.577 7.285-20.602 8.809-3.214.61-6.13 1.581-8.979 2.702-1.367.273-2.728.572-4.067.959-2.124.615-8.914 5.827-9.976 1.945-.779-2.852 6.297-5.23 8.249-6.378 2.313-1.359 5.666-3.507 6.197-6.421.437-2.389-1.868-2.149-3.712-2.38-2.317-.291-4.654-.341-6.979-.094-2.648.281-9.506 3.507-11.383 2.348-1.816-1.122-3.152-5.366-4.688-7.224-1.983-2.398-4.258-3.631-2.993-7.441 3.754-3.528 10.188-4.764 14.558-7.009 5.208-2.675 9.827-6.633 15.487-8.395 5.612-1.747 10.441-5.531 16.413-6.142 5.597-.572 10.714.862 15.834 2.56 1.19.919 2.478 1.763 4.071 2.419 7.24 2.984 12.103 6.484 17.626 12.005 6.017 6.013 11.773 10.942 14.671 19.241 2.646 7.58 4.633 15.513 6.565 23.3.101.406.309.677.556.872 2.083 15.496 3.394 31.149 5.47 46.664 1.563 11.68 4.823 22.918 8.728 34.012 1.811 5.149 4.1 10.035 6.066 15.117 1.836 4.739 3.274 9.617 5.289 14.277 2.056 8.29 6.422 16.522 11.91 22.333 4.617 4.889 9.219 9.243 13.147 14.79 3.726 5.26 6.692 10.116 11.751 14.232 8.371 6.811 13.936 14.696 25.714 14.638 6.772-.033 13.118-1.605 19.896-.269 4.804.947 9.373 1.754 14.184 2.013 1.484.546 2.982 1.067 4.456 1.635 2.804 1.082 5.606 2.139 8.479 2.987q.294.143.607.174c.901.255 1.809.496 2.729.7 8.828 1.96 18.028 1.36 26.884 3.171 8.558 1.75 16.452 5.175 25.192 6.474 9.771 1.452 17.809 2.134 25.715 8.54 6.604 5.351 14.167 9.481 20.228 15.435 5.679 5.577 11.11 11.337 17.63 15.957 7.721 5.472 15.195 10.988 22.412 17.132 4.816 4.099 8.881 8.545 12.755 13.295 2.755 6.277 8.694 10.54 14.298 14.563 3.875 2.783 8.408 4.794 12.639 6.986 4.866 2.522 9.787 5.459 14.783 7.666 8.634 3.812 16.521 8.457 24.029 14.243 7.802 6.013 15.709 13.11 20.383 21.92 5.338 10.063 6.111 22.04 4.859 33.085"/><path fill="#fff" d="M284.88 474.265c-.551-1.258-2.006-2.069-3.232-2.489-1.783-.61-3.506-.126-5.314.036-1.017.091-1.039 1.54 0 1.599 1.906.108 3.559.329 5.166 1.437 1.058.728 3.795 3.083 3.6.303a2.7 2.7 0 0 0-.22-.886m-8.334-7.435c-.992-.327-1.365 1.176-.426 1.542 2.549.99 5.41 1.601 7.415 3.589 1.154 1.144 2.964-.67 1.782-1.782-2.456-2.311-5.719-2.345-8.771-3.349m-94.244-50.243c-3.6.394-7.166.841-10.789.974-1.412.052-1.415 2.146 0 2.195 3.757.13 7.469.367 11.136-.614 1.37-.367 1.149-2.719-.347-2.555m251.9-39.693c-17.364-3.358-34.342-1.352-51.589 1.77-.399.072-.223.657.166.601 16.957-2.44 33.94-2.832 50.919-.542 1.174.158 1.728-1.592.504-1.829m18.821 8.818c-.786-.67-1.922.424-1.148 1.149 3.951 3.708 7.98 7.378 11.287 11.693 3.516 4.589 6.051 9.796 8.765 14.876.577 1.081 2.414.343 2.005-.846-3.915-11.399-11.949-19.239-20.909-26.872m27.353 49.132c-.127 1.125 1.609 1.273 1.916.26 2.19-7.263 2.803-15.261 1.578-22.768-1.125-6.906-4.867-12.988-8.17-19.028-.369-.675-1.381-.078-1.029.602 3.554 6.869 6.572 13.67 6.91 21.508.278 6.497-.477 12.983-1.205 19.426m-23.189 23.926c-8.148 6.124-16.473 12.009-24.254 18.603-.767.65.252 1.991 1.084 1.405 8.242-5.808 16.4-11.732 24.483-17.762 1.328-.991.025-3.251-1.313-2.246m-45.03-99.027c3.04 1.221 9.938 3.059 11.453-1.303.557-1.6-.021-3.845-.715-5.306-1.424-3.004-7.313-7.307-10.768-5.913-2.129.859-3.316 3.002-4.414 4.876-2.385 4.072.932 6.235 4.444 7.646m-1.418-6.313c2.934-8.093 11.85.352 9.516 3.098-1.032 1.214-5.168.231-6.301-.073-.83-.224-2.178-.489-2.876-1.038-.915-.718-.744-.872-.339-1.987m-27.34-26.444c.936.281 1.73.662 2.646 1.02 2.62 1.024 9.839 1.74 8.771-3.074-.428-1.934-2.14-3.595-3.01-5.369-.787-1.604-2.049-3.892-3.682-4.789-3.285-1.806-4.799 3.329-5.605 6.174l-.025.03c-.842 1.35-1.938 3.052-1.041 4.667.42.753 1.166 1.106 1.946 1.341m1.911-7.65c.604-1.211 1.18-2.659 2.3-1.141 1.481 2.007 2.547 4.269 3.937 6.335.771 1.145.506.817-.691.708-1.633-.148-2.872-.507-4.299-1.3-1.082-.601-1.955-.415-2.102-1.874-.093-.908.488-1.993.855-2.728m66.264 44.37a1.4 1.4 0 0 0-.347-.333c-.463-.842-1.254-1.449-2.15-1.776-2.156-.787-4.182.34-5.867 1.63-1.416 1.083-3.113 2.337-3.43 4.216-.313 1.857 1.361 3.581 2.514 4.845 2.581 2.831 7.747 4.911 11.326 2.787 4.903-2.909.043-8.383-2.046-11.369m.283 8.351c-.334.391-1.254.411-1.693.415-1.363.011-2.797-.555-3.943-1.256-1.015-.621-2.07-1.504-2.645-2.57-.762-1.415.367-2.036 1.457-2.926.965-.788 3.012-2.322 4.075-.875.362.492.413 1.84.784 2.501.517.922 1.219 1.728 1.683 2.683.342.707.927 1.269.282 2.028m26.677 16.802c1-1.522.758-3.144-.059-4.564-.914-1.591-2.549-2.929-3.971-3.592-2.654-1.236-6.195-1.48-7.783 1.477-1.513 2.815 1.959 6.214 4.329 7.235 2.145.924 5.925 1.821 7.484-.556m-4.758-1.552c-1.879-.203-3.25-.981-4.463-2.441-1.432-1.724.1-2.958 1.871-3.194 2.795-.373 3.498 1.102 4.131 3.529.126.486.758 1.603.42 1.994-.314.363-1.558.156-1.959.112m9.766 51.679c-3.285 1.055-4.894 4.679-5.889 7.694-.78 2.369-2.588 7.332 1.564 7.452 1.807.052 3.627-1.302 4.951-2.365 1.589-1.277 4.252-2.975 4.802-5.079.799-3.054-1.293-9.029-5.428-7.702m3.082 6.777c-.396.905-1.684 1.5-2.424 2.102-1.041.847-2.033 1.741-3.191 2.43-.27.16-.667.445-.979.525-.241.062-.472.199-.7.289-.64-2.039 1.108-5.992 2.255-7.718.732-1.101 2.081-2.961 3.646-2.364 1.483.564 1.99 3.373 1.393 4.736m-20.067 16.208c-3.354-1.101-8.542.894-10.504 3.656-1.851 2.606-3.401 6.943.171 8.735 3.689 1.852 8.178.067 10.861-2.771 1.637-1.732 2.62-6.134 1.079-8.406a3.05 3.05 0 0 0-1.607-1.214m-2.292 6.799c-1.327 1.301-3.807 2.996-5.695 2.964-3.035-.051-1.4-3.731-.403-5.249.847-1.288 2.351-1.936 3.834-2.128.375-.048 4.34.029 4.341.047.071 1.531-1.172 3.477-2.077 4.366M345.086 321.464c2.767-3.869.705-7.442-2.636-9.178-2.68-1.392-6.181-1.602-8.678.165-3.729 2.639-2.123 6.367 1.262 8.493 2.752 1.726 7.634 3.902 10.052.52m-7.876-2.682c-.928-.387-2.135-.954-2.664-1.856-.799-1.359.446-2.336 1.633-2.933 1.881-.945 3.899-.484 5.79.172.169.229.353.45.548.723.785 1.091.916 2.38.446 3.669-.862 2.366-3.991.959-5.753.225m-107.796-5.844c-1.597-.802-3.791-1.135-5.452-.334-1.133.546-1.771 1.477-2.27 2.516-1.088 1.715-2.793 2.883-3.234 4.986-.326 1.563-.156 3.157 1.459 3.795 3.695 1.462 9.039 1.232 12.176-1.438 1.625-1.384 1.551-2.841.811-4.699-.778-1.953-1.506-3.83-3.49-4.826m-1.597 8.615c-1.369.423-2.771.709-4.205.474-.502-.082-1.17-.227-1.648-.427-.875-.365-.916-.078-.865-1.132.152-3.18 5.02-7.65 7.846-4.682.644.677 1.247 2.092 1.438 2.999.418 1.988-.976 2.277-2.566 2.768m-46.445-17.897c1.094-3.262-1.398-5.722-4.479-6.605-2.959-.848-6.457-.242-7.841 2.504-.769 1.524-1.306 3.929-.757 5.59.592 1.794 2.201 2.575 3.814 3.249 4.265 1.778 7.842-.5 9.263-4.738m-2.73-.266c-1.272 2.208-3.032 3.233-5.526 2.325-.919-.334-1.714-.572-2.093-1.522-.368-.923-.084-2.217.26-3.159 1.461-4.011 9.507-1.374 7.359 2.356m-57.795-159.949c-.686 2.136-.133 5.085 1.52 6.663.811.774 1.85 1.174 2.948.843 1.229-.371 1.739-1.376 2.271-2.449 1.108-2.242 1.014-5.107-.456-7.239-1.76-2.552-5.567-.048-6.283 2.182m3.653-.486c1.743.289 1.481 3.364.887 4.483-.921 1.731-2.063.119-2.486-.987-.437-1.143-.289-3.808 1.599-3.496M99.337 46.759c2.781 1.096 5.814-1.555 6.069-4.315.222-2.412-2.269-6.805-4.951-6.932-6.164-.293-5.954 9.341-1.118 11.247m-1.75-6.829c.531-.961 1.452-2.073 2.297-2.072 1.161.001 2.861 2.938 2.918 3.984.076 1.435-1.346 3.103-2.808 2.968-2.746-.255-2.692-2.729-2.407-4.88m6.699 20.7c-1.534 2.436-1.398 5.755.268 8.021 1.771 2.411 5.615 1.961 7.477-.128 2.341-2.628 1.201-5.887-.703-8.374-2.015-2.632-5.408-2.114-7.042.481m5.441 1.502c.874 1.551 1.476 3.856-.36 5.063-.516.339-1.414.585-2.042.531-1.157-.1-1.904-1.359-2.2-2.438-.706-2.557 2.878-6.215 4.602-3.156m-.983 34.852c2.6 2.091 5.145.724 6.264-2.062 1.212-3.017.696-6.8-1.659-9.147-1.005-1.002-2.488-1.628-3.869-1.014-4.097 1.82-3.858 9.712-.736 12.223m.05-6.057c.598-2.222 2.406-4.231 3.491-1.034.479 1.413.394 2.971-.187 4.34-.655 1.546-1.984.909-2.843-.063-.898-1.018-.806-1.959-.461-3.243m13.983 26.569c-.743-1.216-1.8-2.275-3.231-2.604-7.892-1.819-6.362 16.4 1.86 11.4 3.288-2 3.16-5.866 1.371-8.796m-2.902 6.702c-1.577 1.064-2.919-.026-3.584-1.536-1.236-2.808 1.946-7.391 4.079-3.759.971 1.656 1.376 4.032-.495 5.295m-5.177-12.699c2.375-1.796 2.275-5.571.384-7.678-.86-.958-2.237-1.823-3.558-1.401-2.631.842-4.206 5.977-2.865 8.266 1.225 2.091 4.252 2.165 6.039.813m-.891-5.727c.905 1.344.889 3.557-.642 4.445-5.842 3.391-2.352-8.889.642-4.445"/></svg>