<svg xmlns="http://www.w3.org/2000/svg" width="400" height="200" viewBox="-252.307 -6.153 984.619 492.310"><path fill="#fff" d="M165.105 480.003H64.025c-17.47 0-31.53-13.69-32.02-31.17-1.763-62.115-.636-126.622 3.87-192.43.84-12.2 8.739-23.013 20.13-27.54 4.909-1.951 4.09-1.57 4.19-1.67.99-.137-3.47 1.604 51.12-20.1a8 8 0 0 0 4.48-10.39 8.005 8.005 0 0 0-10.39-4.48L78.3 202.999c-5.507 2.187-11.397-2.163-10.927-8.069l1.316-16.561a8 8 0 0 1 7.975-7.366h78.629a8 8 0 0 1 7.862 6.476 2085 2085 0 0 1 33.929 268.604c1.113 18.369-13.574 33.92-31.979 33.92m294.11-347.3c-2.736 1.149-4.893 3.308-6.08 6.02-4.341 9.92-14.25 16.28-25.08 16.28h-176.49c-5.481 0-9.338-5.386-7.574-10.575l5.795-17.065c2.89-7.99 10.53-13.36 19.03-13.36h23.81c15.05 0 28.31-9.07 33.77-23.1 1.6-4.12-.44-8.75-4.56-10.36-4.12-1.6-8.76.44-10.36 4.56-3.04 7.84-10.45 12.9-18.85 12.9h-23.81c-15.26 0-28.97 9.65-34.11 24.02-.051.101-9.997 29.406-9.368 27.551a8 8 0 0 1-7.576 5.429H47.205a32.1 32.1 0 0 1-17.16-4.97l-14.16-8.96c-9.36-5.92-14.95-16.07-14.95-27.14v-45.7c0-17.53 13.73-31.63 31.25-32.1l85.99-2.295c5.217-.139 9.169 4.674 8.016 9.765l-.836 3.691a4.07 4.07 0 0 1-2.37 2.81l-32.4 13.39a8.01 8.01 0 0 0-4.94 7.39c0 5.659 5.75 9.594 11.06 7.4l34.25-14.16c4.83-2 8.4-6.22 9.56-11.33l4.57-20.18c3.24-14.28 15.73-24.56 30.37-24.99l256.94-7.61c16.41-.46 30.49 11.41 32.75 27.67l10.59 75.92c1.72 12.299-5.08 24.269-16.52 29.099m-12.19 347.3h-118.13c-18.333 0-32.848-15.271-32-33.51a2848 2848 0 0 1 25.391-268.624 8.006 8.006 0 0 1 7.928-6.866h71.862a8 8 0 0 1 7.971 7.323l9.868 116.197c.36 4.17 3.85 7.33 7.97 7.33 4.668 0 8.374-3.995 7.98-8.68l-1.513-17.795c-.583-6.883 7.224-11.192 12.776-7.081 6.848 5.07 11.639 12.826 12.748 21.827l18.95 153.93c2.346 19.09-12.565 35.949-31.801 35.949"/></svg>