<svg xmlns="http://www.w3.org/2000/svg" width="400" height="200" viewBox="-877.5 -717 3108 1554"><path fill="#fff" d="m800-5-20 51q-38 13-103 13-32 0-58-3.5C593 52 586.667 50 574 46L554-5 414-72l-13-84c-2.001-16.001-16.334-47.33-43-94-20.667-34.67-31.001-90.33-31-167 0-89.34 32.333-161.67 97-217 64.667-55.34 149-83 253-83s188.333 27.67 253 83c64.668 55.33 97 127.67 97 217 0 76.67-21.33 151.67-64 225q-6 12-10 36l-13 84zm66 23-25 99-61 53q-16 31-42.5 46.5Q711 232.006 675 232q-72 0-105-62l-61-53-25-99 36-9q6 15.005 9 23 23 53 50.5 70 27.5 17.004 91.5 17 72-.004 99.5-16Q798 87 821 32q3-8 9-23zM681 431q65-36 228-105 8-4 42-18c38.667-39.333 70.67-68.833 96-88.5 25.34-19.67 43.67-29.503 55-29.5 14 0 24.33 4.333 31 13s10 22 10 40c-.03 15.334-2.37 37-7 65 28.67 36 43 62.667 43 80q0 22-12 33.5-12 11.503-36 11.5c-8-.002-20.17-4.169-36.5-12.5-16.33-8.334-37.17-20.5-62.5-36.5q-92 17-264 103 22.004 13.001 32 19 60 34 148 91 11 7 50 30c121.33 14 182 44.667 182 92 0 30.667-32.67 51.333-98 62-30.67 37.333-56 56-76 56q-36 0-70-94-3.01-10-11-29-140-115-252-174-137 77-254 184-16 113-68 113-33 0-76-64-102 0-102-56 0-41 38-59.5C249 639 289.667 633 371 621q91-67 216-134-168-84-274-103-25 22-46 33c-21 11-27 11-39 11q-26-.002-39.5-11-13.5-11-13.5-32 0-19 44-77-10-41-10-62 0-30.003 12-44.5 12-14.506 35-14.5 23 0 60 30c37 30 54.333 50.333 89 91q115 41 276 123M448-254q0 96 83 96 84-.001 84-103c0-56.67-27-85-81-85-28.667 0-50.167 7.67-64.5 23S448-284.67 448-254m296 0q0 96 84 96 84-.001 84-103c0-28.67-6.833-50-20.5-64s-34.167-21-61.5-21c-57.334 0-86.001 30.67-86 92m-66 81q-18 30.002-37 53-24 27-24 42 0 16 9.5 24 9.5 8.01 27.5 8 11 0 24-8 13 8.01 24 8 37.002 0 37-33 0-14-24-41-20.002-24-37-53"/></svg>