<svg xmlns="http://www.w3.org/2000/svg" width="400" height="200" viewBox="-181.901 37.059 875.803 437.902"><path d="M504.396 236.028v1.237l-15.117 2.727-58.277 10.524c0 51.22-31.034 94.908-70.727 109.102l-63.701 17.104c-.193.061-.375.122-.568.172-41.984 12.207-83.958 11.639-122.363.983l-58.855-1.136C51.352 337.365 7.604 267.104 7.604 184.282V56.292c20.409 158.162 76.678 197.693 76.678 197.693l28.125-28.125a189.8 189.8 0 0 1 37.158-28.936 188 188 0 0 1 32.21-15.228h.01l1.146-.416a190 190 0 0 1 51.585-10.493c.679-.041 1.359-.071 2.038-.112q4.836-.243 9.672-.243c9.186 0 18.361.659 27.465 1.987q3.087.456 6.174 1.004a189 189 0 0 1 41.183 12.369h.01a186 186 0 0 1 8.05 3.69 186 186 0 0 1 22.102 12.694 189.7 189.7 0 0 1 28.844 23.684l19.578-19.578a47.13 47.13 0 0 1 45.451-12.207l34.056 9.084c14.895 3.964 25.257 17.458 25.257 32.869" style="fill:#fff"/><path d="m489.279 233.821-58.277 10.524c0 51.22-31.034 94.908-70.727 109.102l-63.701 17.104c-.193.061-.375.122-.568.172-41.984 12.207-83.958 11.639-122.363.983l-58.855-1.135C51.352 331.192 7.604 260.932 7.604 178.109v-80.5c.72 4.704 1.399 9.885 2.028 15.553C28.895 285.518 105.949 335.197 256 328.1c114.314-5.407 142.717-62.596 149.762-89.53 2.105-8.046 9.754-13.369 18.042-12.671 17.186 1.446 45.001 4.151 65.475 7.922" style="fill:#fff"/><path d="M114.792 292.079v152.839c0 9.368 7.595 16.963 16.963 16.963h68.68c0-13.521-10.961-24.481-24.481-24.481h-2.308v-73.608c25.494 0 46.159-20.667 46.159-46.159V292.08c0-22.662-18.371-41.033-41.033-41.033h-22.947c-22.661 0-41.033 18.371-41.033 41.032m245.527 42.288v108.288h1.813c10.618 0 19.227 8.608 19.227 19.227H327.42c-7.358 0-13.322-5.965-13.322-13.322v-66.433c-10.512 0-19.032-8.521-19.032-19.032v-28.727c0-18.019 14.608-32.627 32.627-32.627 18.019-.001 32.626 14.606 32.626 32.626M337.231 83.08l8.871 61.552-22.122 9.429 4.005 22.863 1.125 6.387a184 184 0 0 0-8.05-3.69h-.01a188.8 188.8 0 0 0-41.183-12.369q-3.087-.548-6.174-1.004l4.157-4.157 26.533-26.533-13.048-20.987zM130.21 183.016l19.355 7.736a189.3 189.3 0 0 0-28.591 20.886l-20.642-2.829-4.522-48.432 35.769 13.677zm106.344-18.513c-.679.041-1.359.071-2.038.112a190 190 0 0 0-51.585 10.493l7.097-17.732-22.356-15.613 8.445-58.682 44.944 30.832-13.454 21.646 27.516 27.516z" style="fill:#fff"/><path d="m190.028 157.376-7.097 17.732-1.146.416h-.01a187.7 187.7 0 0 0-32.21 15.228l-19.355-7.736 1.369-8.963 7.918-51.971 28.175 19.679zM380.675 129.9l-3.417 61.531-26.046 4.573a187 187 0 0 0-22.102-12.694l-1.125-6.387-4.005-22.863 22.122-9.429zm-89.342-15.329 13.048 20.987-26.533 26.533-4.157 4.157a190 190 0 0 0-27.465-1.987q-4.836 0-9.672.243l-1.43-1.43-27.516-27.516 13.454-21.646L256 57.723z" style="fill:#fff"/><path fill="#fff" d="m481.098 189.638-34.056-9.08c-18.805-5.015-39.031.421-52.789 14.18l-14.299 14.3a199 199 0 0 0-9.949-8.612l8.568-1.505a7.6 7.6 0 0 0 6.277-7.068l3.417-61.531a7.606 7.606 0 0 0-10.572-7.418l-25.476 10.856-7.461-51.766a7.6 7.6 0 0 0-11.828-5.185l-39.336 26.988-31.137-50.087A7.6 7.6 0 0 0 256 50.12a7.6 7.6 0 0 0-6.457 3.589l-30.735 49.435-38.388-26.335a7.61 7.61 0 0 0-7.356-.693 7.6 7.6 0 0 0-4.472 5.88l-6.686 46.462-18.054-12.609a7.605 7.605 0 0 0-11.871 5.088l-6.5 42.644-26.955-10.307a7.604 7.604 0 0 0-10.287 7.809l4.522 48.432a7.6 7.6 0 0 0 6.538 6.826l5.012.686-20.338 20.339c-5.282-5.28-14.429-15.903-24.513-34.195-9.731-17.649-17.538-37.274-23.807-57.215l22.878-29.113a7.603 7.603 0 0 0-1.281-10.677 7.603 7.603 0 0 0-10.677 1.281l-16.148 20.549a495 495 0 0 1-2.555-9.895l21.47-47.428a7.605 7.605 0 0 0-13.855-6.272L22.366 93.385c-3.158-15.834-5.498-30.894-7.221-44.239A7.605 7.605 0 0 0 0 50.119v127.99c0 80.082 39.988 153.273 107.188 196.646v26.815a7.605 7.605 0 0 0 15.208 0V294.643a7.605 7.605 0 0 0-15.208 0v61.746C49.34 315.304 15.207 249.648 15.207 178.11v-47.888c25.189 94.952 62.754 122.443 64.704 123.813a7.6 7.6 0 0 0 9.748-.846l28.125-28.125a182.6 182.6 0 0 1 35.668-27.777 180.7 180.7 0 0 1 30.702-14.538q.114-.037.226-.078l1.089-.395a182.3 182.3 0 0 1 49.5-10.072l1.969-.107a184 184 0 0 1 35.644 1.672c1.982.293 3.987.618 5.941.965a181.5 181.5 0 0 1 39.524 11.87q.109.047.219.09a179.5 179.5 0 0 1 28.726 15.634 182.7 182.7 0 0 1 27.689 22.736 7.6 7.6 0 0 0 10.753 0l19.573-19.573c9.936-9.935 24.54-13.859 38.118-10.239l34.056 9.08c9.892 2.637 17.229 10.719 19.13 20.494l-66.656 12.035a7.604 7.604 0 0 0-6.252 7.483c0 19.29-4.749 38.339-13.733 55.089a7.604 7.604 0 0 0 13.401 7.189c9.171-17.1 14.442-36.301 15.385-55.896l67.294-12.15a7.604 7.604 0 0 0 6.252-7.483v-1.234c-.002-18.831-12.71-35.37-30.904-40.221M181.903 96.269l28.867 19.803-9.62 15.472a7.6 7.6 0 0 0 1.081 9.39l17.504 17.504a198 198 0 0 0-23.838 4.734l1.189-2.972a7.605 7.605 0 0 0-2.705-9.06l-18.516-12.932zm-58.768 82.697-.443 2.905a7.6 7.6 0 0 0 4.695 8.206l5.749 2.297a198 198 0 0 0-14.521 11.265l-11.274-1.545-2.825-30.248zm25.821 3.354-10.319-4.124.435-2.856.023-.152 6.076-39.866 35.554 24.833-3.598 8.992a196 196 0 0 0-28.171 13.173m90.63-25.539-22.334-22.333 38.747-62.321 38.739 62.322-23.76 23.76a199 199 0 0 0-24.751-1.551c-2.194-.002-4.413.049-6.641.123m49.694 4.631 20.478-20.478a7.6 7.6 0 0 0 1.081-9.391l-9.209-14.815 29.819-20.459 6.293 43.662-16.743 7.136a7.605 7.605 0 0 0-4.509 8.307l2.674 15.245a197 197 0 0 0-29.884-9.207m46.663 16.842-3.433-19.564 39.894-17.001L370 184.984 352.827 188a195 195 0 0 0-16.884-9.746"/><path fill="#fff" d="M406.911 318.324a7.605 7.605 0 0 0-10.724.806c-8.244 9.585-17.874 17.29-28.264 22.687V331.14a7.605 7.605 0 0 0-15.208 0v111.514a7.605 7.605 0 0 0 7.604 7.604h1.813a11.6 11.6 0 0 1 8.784 4.019H327.42a5.724 5.724 0 0 1-5.718-5.718v-66.433a7.605 7.605 0 0 0-7.604-7.604c-6.301 0-11.428-5.127-11.428-11.428v-10.876a7.605 7.605 0 0 0-15.208 0v10.876c0 .694.033 1.381.086 2.062-31.505 8.152-64.159 9.17-95.651 3.038 20.687-7.49 35.513-27.32 35.513-50.56V287.63a7.605 7.605 0 0 0-15.208 0v30.004c0 21.26-17.296 38.556-38.555 38.556a7.605 7.605 0 0 0-7.604 7.604v73.608a7.605 7.605 0 0 0 7.604 7.604h2.308c6.572 0 12.279 3.777 15.065 9.273h-59.264c-5.161 0-9.359-4.198-9.359-9.359v-18.003a7.605 7.605 0 0 0-15.208 0v18.003c0 13.546 11.021 24.567 24.567 24.567h68.68a7.605 7.605 0 0 0 7.604-7.604c0-15.888-11.608-29.116-26.789-31.648v-48.76a229.3 229.3 0 0 0 51.633 5.881c20.176 0 40.41-2.649 60.2-7.93 3.369 4.325 8.032 7.595 13.411 9.2v59.934c0 11.539 9.387 20.926 20.926 20.926h53.939a7.605 7.605 0 0 0 7.604-7.604c0-12.807-9.019-23.547-21.04-26.201v-77.075c14.805-6.272 28.478-16.4 39.794-29.558a7.604 7.604 0 0 0-.807-10.724m26.274-100.568c1.816 2.757 5.382 4.008 8.53 3.051 2.917-.888 5.054-3.499 5.363-6.529.309-3.023-1.318-6.018-3.987-7.446-2.975-1.591-6.762-.986-9.089 1.459-2.429 2.552-2.747 6.532-.817 9.465"/></svg>