<svg xmlns="http://www.w3.org/2000/svg" width="400" height="200" viewBox="-203.801 16.967 3526.361 1763.181"><path fill="#fff" fill-rule="evenodd" d="M1854 40c0 .55-.835 1-1.855 1s-4.243 2.587-7.161 5.75a2430 2430 0 0 1-12.896 13.815c-10.246 10.889-15.993 17.183-25.965 28.435-4.631 5.225-9.141 10.212-10.022 11.082-.88.869-5.651 6.215-10.601 11.878-12.399 14.185-24.36 26.735-42 44.067-21.308 20.936-25.908 24.813-74.5 62.784-7.641 5.971-13.644 10.169-26.009 18.189-3.816 2.475-11.112 7.425-16.214 11-5.103 3.575-11.392 7.85-13.976 9.5-8.864 5.659-31.307 20.884-44.801 30.392-20.114 14.173-37.534 29.533-67 59.074-14.575 14.612-28.3 27.885-30.5 29.494-2.2 1.61-5.233 4.044-6.74 5.41-1.506 1.366-3.021 2.202-3.365 1.858-.345-.345-1.332-5.487-2.194-11.427-1.17-8.063-1.58-19.42-1.617-44.801-.051-34.278.867-49.046 4.036-64.92.892-4.469 1.31-9.614.96-11.806-.385-2.407-.05-5.568.879-8.305 1.51-4.447 3.384-11.109 8.57-30.469 6.972-26.028 9.329-34.968 15.004-56.917 3.331-12.879 6.234-23.705 6.451-24.058.473-.765 4.009-17.422 5.992-28.227 1.525-8.309 1.059-14.656-1.139-15.499-3.18-1.22-7.3 1.942-10.885 8.354-1.978 3.536-5.099 7.797-6.936 9.469s-3.892 4.466-4.565 6.209c-4.436 11.476-11.309 24.989-21.956 43.169-2.899 4.95-6.263 10.8-7.476 13-1.212 2.2-8.592 14.575-16.4 27.5s-14.735 24.4-15.395 25.5-2.668 4.326-4.462 7.169-3.262 5.357-3.262 5.585c0 1.571-16.685 27.894-19.758 31.172-3.438 3.665-14.242 18.818-14.242 19.973 0 .257-3.15 5.221-7 11.031s-7 10.814-7 11.12c0 1.165-13.749 20.389-26.326 36.807-8.154 10.645-23.427 29.114-43.416 52.5-4.533 5.304-11.552 13.919-15.599 19.145-10.759 13.897-9.769 13.527-16.558 6.19-3.152-3.405-6.434-6.192-7.295-6.192s-3.307-1.69-5.435-3.755c-2.129-2.065-5.346-4.805-7.149-6.088-4.622-3.29-13.458-14.643-16.466-21.157-4.428-9.588-12.44-32.168-14.726-41.5-1.596-6.514-2.31-13.005-2.587-23.5-.209-7.975-.618-19.675-.907-26s-.591-25.45-.67-42.5c-.21-44.823-2.3-54.5-11.768-54.5-.994 0-4.084 2.406-6.865 5.347-4.963 5.248-9.774 13.751-16.212 28.653-1.782 4.125-3.847 8.85-4.589 10.5-2.011 4.469-6.429 16.377-7.976 21.5-.748 2.475-2.462 8.325-3.809 13-1.348 4.675-5.136 17.5-8.418 28.5-3.283 11-6.994 23.6-8.248 28-2.655 9.317-14.004 43.704-16.832 51-9.951 25.673-21.182 48.983-32.003 66.424-6.16 9.927-14.146 23.883-14.146 24.719 0 .486-1.504 3.128-3.343 5.87-3.391 5.06-8.903 14.994-15.734 28.36-2.073 4.055-4.141 7.738-4.596 8.186-1.049 1.032-21.693-19.901-44.327-44.949-9.625-10.652-19.075-21.039-21-23.082-5.777-6.133-14.448-18.905-20.049-29.528-2.899-5.5-6.099-11.073-7.111-12.385s-1.84-2.911-1.84-3.553c0-.643-1.583-5.87-3.519-11.616-4.193-12.448-6.898-21.613-9.577-32.446-1.088-4.4-2.611-10.475-3.385-13.5s-2.767-12.475-4.43-21c-6.556-33.619-7.437-36.236-12.388-36.816-1.845-.217-2.701.145-2.701 1.143 0 .802-.605 1.691-1.345 1.975-.739.284-1.816 2.469-2.392 4.857-2.184 9.042-3.186 12.517-5.293 18.341-1.787 4.942-2.244 8.822-2.594 22-.234 8.8-.849 18.925-1.367 22.5-.517 3.575-1.411 13.025-1.987 21-.98 13.595-2.419 27.638-8.501 83-2.347 21.367-3.753 28.313-9.31 46-5.287 16.826-14.274 37.006-16.475 36.992-.68-.004-4.161-.916-7.736-2.027s-10.1-2.716-14.5-3.568-9.939-2.401-12.31-3.443c-12.354-5.431-37.006-35.83-46.186-56.954-7.616-17.526-35.812-72.691-42.049-82.27-1.35-2.074-3.466-4.035-4.703-4.358-2.417-.632-5.931.282-4.93 1.283.334.334.13 1.5-.453 2.59-1.357 2.535-1.331 67.924.036 88.48.54 8.126.965 19.95.944 26.275-.041 12.534.976 23.453 4.33 46.5 2.886 19.829 3.119 44.001.519 53.773-.992 3.725-2.44 8.578-3.219 10.785-2.393 6.785-4.4 19.348-4.61 28.869-.17 7.711-.449 9.073-1.862 9.073-2.015 0-18.761-9.977-25.007-14.898-2.475-1.95-8.775-7.209-14-11.686s-10.85-8.84-12.5-9.695c-3.673-1.902-31.718-33.119-42.497-47.303-2.474-3.255-4.746-6.143-5.048-6.418-.303-.275-3.657-4.55-7.454-9.5-8.319-10.846-16.331-20.544-18.381-22.25-2.149-1.788-4.888-1.544-7.236.644-2.022 1.883-2.022 1.915-.097 5.75 3.263 6.501 13.779 32.235 17.513 42.856 1.353 3.85 3.258 9.25 4.233 12 1.838 5.182 9.014 22.076 21.451 50.5 12.62 28.842 17.198 43.291 19.488 61.5.346 2.75.855 6.575 1.131 8.5.6 4.179 1.305 11.295 1.931 19.5.252 3.3.899 11.4 1.438 18 .54 6.6.991 12.788 1.004 13.75.041 2.997-2.376 1.909-4.665-2.099-1.204-2.109-5.554-7.393-9.668-11.743-4.113-4.349-8.978-9.805-10.811-12.123-10.691-13.522-17.867-22.288-21.888-26.741-2.506-2.774-6.031-6.957-7.834-9.294-2.641-3.424-3.897-4.25-6.462-4.25-2.334 0-3.594.674-4.717 2.525-1.387 2.286-1.36 3.354.281 11.25.998 4.799 2.281 12.325 2.851 16.725.571 4.4 1.281 9.575 1.578 11.5s.387 11.375.2 21c-.188 9.625-.227 25.038-.088 34.25.209 13.851.009 16.75-1.155 16.75-1.357 0-5.643-6.619-10.361-16-1.245-2.475-2.912-5.625-3.705-7-.792-1.375-2.068-3.85-2.835-5.5-2.643-5.686-14.761-25.004-16.723-26.657-3.701-3.12-8.896.818-9.1 6.897-.435 13.009 1.236 22.061 8.08 43.76 1.561 4.95 3.344 13.275 3.961 18.5.618 5.225 1.614 12.964 2.214 17.197 1.583 11.161-1.523 44.021-5.699 60.303-2.713 10.577-3.342 13.913-3.391 18l-.047 4-3.439-5.5c-7.799-12.474-15.376-27.916-17.419-35.5-6.135-22.783-9.272-35.44-11.674-47.111-6.552-31.829-8.469-35.434-13.787-25.92-3.681 6.586-4.44 9.744-5.633 23.428-1.893 21.711-4.937 34.947-11.178 48.603-1.257 2.75-3.21 7.89-4.34 11.422s-2.562 6.591-3.182 6.798c-1.272.424-1.672-3.029-3.906-33.72-2.792-38.355-2.626-37.57-8.187-38.613-2.977-.559-3.818-.288-5.365 1.725-3.864 5.029-11.427 33.659-15.291 57.888-1.445 9.062-4.539 21.727-9.71 39.75-1.673 5.832-2.828 8.25-3.939 8.25-1.342 0-1.756-3.154-2.83-21.55-.692-11.852-1.693-25.24-2.224-29.75s-1.111-9.55-1.288-11.2c-2.226-20.799-3.894-26.161-7.268-23.361-.733.608-1.332 1.578-1.332 2.155s-.634 1.759-1.409 2.627c-1.648 1.846-5.99 16.501-11.08 37.397-3.686 15.134-4.826 17.776-14.74 34.182-2.991 4.95-6.493 11.137-7.782 13.75s-2.826 4.749-3.416 4.747c-.745-.002-1.093-12.166-1.14-39.75-.067-39.952-.57-46.315-3.828-48.482-4.386-2.916-11.019 3.77-17.615 17.756-2.744 5.819-4.99 10.827-4.99 11.128 0 .655-5.395 12.083-15.979 33.851-4.279 8.8-8.045 16.788-8.369 17.75-1.571 4.667-2.47.572-2.636-12-.211-16.012-1.681-45.665-2.764-55.75-.746-6.944-.776-7-3.752-7-2.576 0-3.298.635-5.109 4.5-1.16 2.475-3.359 8.775-4.885 14-1.527 5.225-6.058 17.6-10.07 27.5-13.333 32.901-18.164 48.975-18.717 62.275-.298 7.164-2.699 6.742-4.463-.785-3.826-16.321-5.605-34.431-5.354-54.49.138-11 .669-21.633 1.18-23.629 1.454-5.676.226-29.118-1.597-30.481-.817-.611-1.485-1.848-1.485-2.75 0-6.259-13.521 5.954-21.735 19.633-8.562 14.257-15.729 33.886-18.848 51.619-.812 4.616-1.908 16.286-2.435 25.934-.996 18.25-1.256 19.128-5.658 19.159-6.623.046-26.074 4.732-46.324 11.158l-17.5 5.553c-8.863 2.812-24.846 11.123-30.5 15.86-3.025 2.534-7.075 5.69-9 7.013l-11.5 7.907c-44.204 30.397-63.193 45.787-81.228 65.834-7.116 7.91-10.462 15.538-13.31 30.34-1.464 7.613-.179 12.347 4.198 15.464 2.739 1.951 3.372 2.031 6.885.871 3.118-1.029 5.014-1.034 9.772-.024 8.823 1.873 20.451.789 25.188-2.346 5.592-3.7 13.391-5.565 21.495-5.139 32.103 1.688 55.665.323 95-5.501 3.3-.489 8.25-.559 11-.156 3.109.455 6.806.268 9.774-.494 7.909-2.029 20.626-2.65 28.726-1.404 9.248 1.424 24.593 6.887 39.5 14.064 2.2 1.06 17.725 8.054 34.5 15.543a21307 21307 0 0 1 33.651 15.044c1.733.785 3.407 1.428 3.72 1.428s2.946 1.075 5.849 2.39a320 320 0 0 0 10.78 4.59c3.025 1.211 7.525 3.032 10 4.047 2.475 1.016 9.45 3.698 15.5 5.96s11.9 4.475 13 4.916c3.639 1.46 11.928 4.28 16.75 5.699 2.613.769 7.113 2.113 10 2.986 4.908 1.485 31.682 7.452 41.75 9.306 20.486 3.771 47.791 8.005 62.5 9.691 12.807 1.469 49.095 2.826 61.5 2.301 16.925-.716 44.406-3.108 68.604-5.973 18.18-2.152 20.164-2.02 27.002 1.802 3.144 1.757 4.336 3.042 4.276 4.611-.075 1.975.956 7.135 7.035 35.174 3.883 17.916 6.723 25.507 15.341 41 8.487 15.258 21.798 29.39 34.361 36.481 4.921 2.776 5.293 3.262 5.942 7.741.654 4.511 4.676 20.758 7.867 31.778 1.292 4.463 4.277 12.831 10.467 29.349 1.103 2.943 2.685 6.387 3.516 7.655s1.324 3.277 1.095 4.463c-.228 1.186.199 3.591.95 5.345 3.1 7.245 5.813 22.359 6.131 34.165.178 6.588.78 21.663 1.339 33.5.56 11.838 1.259 29.398 1.556 39.023.296 9.625.771 24.925 1.056 34s.951 22.575 1.481 30 .967 19.669.972 27.209c.009 13.007 1.478 28.118 2.946 30.291.372.55.605 5.725.519 11.5-.133 8.91-.641 11.939-3.358 20-1.76 5.225-3.554 9.854-3.986 10.287-.432.432-2.096 1.004-3.699 1.27-7.127 1.184-9.028 1.767-10.771 3.304-3.112 2.745-8.724 15.292-9.166 20.493-.186 2.198 5.783 5.038 15.163 7.214 5.525 1.282 8.007 1.22 24.795-.614 10.26-1.12 19.823-2.481 21.249-3.024 1.427-.542 2.831-.749 3.12-.46s-.673 2.896-2.138 5.792c-3.275 6.472-3.283 7.742-.067 10.085 2.121 1.545 4.003 1.79 11.52 1.5 8.427-.325 8.954-.229 8.487 1.556-.697 2.664 1.721 6.899 4.918 8.609 2.92 1.563 4.685 1.602 23.477.515 6.875-.398 17.025-.846 22.555-.996s11.156-.587 12.5-.971c7.629-2.18 16.833-5.932 16.374-6.675-.293-.474.165-.594 1.019-.267.856.329 1.552.073 1.552-.57 0-.641.4-.919.889-.617s2.005-.909 3.37-2.691 4.766-5.592 7.558-8.467c8.162-8.404 8.79-14.156 4.633-42.43-1.955-13.296-2.421-19.577-1.997-26.916.998-17.262 3.195-30.031 7.3-42.427 6.664-20.123 17.121-59.296 23.225-87 .969-4.4 2.908-13.175 4.308-19.5 6.78-30.621 10.163-50.035 12.285-70.5 1.927-18.579 1.839-22.957-.618-30.646-1.959-6.133-9.936-18.527-12.577-19.54-1.285-.493-7.222-12.102-8.913-17.429l-.681-2.147 40.359.7c54.634.949 130.79-1.252 185.359-5.355 6.6-.497 12.083-.822 12.185-.724s.439 2.287.748 4.864 3.097 15.169 6.195 27.982 5.846 24.42 6.108 25.795c.79 4.152 5.25 18.993 8.264 27.5 1.559 4.4 3.156 9.575 3.548 11.5 2.643 12.972 10.2 35.867 19.969 60.5 2.399 6.05 5.007 12.8 5.794 15 1.758 4.907 8.186 20.905 10.046 25 2.61 5.746 3.519 8.025 4.785 12 .702 2.2 1.577 4.45 1.945 5 .616.918 5.321 12.682 9.37 23.427 2.583 6.855 6.326 23.645 9.115 40.891 2.748 16.992 2.645 21.403-.742 31.601-1.081 3.256-2.065 7.472-2.186 9.37-.243 3.806-3.5 7.211-6.897 7.211-3.284 0-15.813 4.015-21.011 6.733-10.19 5.328-19.183 22.871-12.606 24.591 1.356.354 1.925 1.089 1.567 2.022-.309.807.356 2.296 1.478 3.31 1.757 1.588 3.692 1.83 13.933 1.745 6.54-.055 11.892.006 11.892.135 0 .13-.672 1.524-1.494 3.1-1.915 3.671-2.021 13.229-.155 13.945 2.049.786 16.905-1.297 22.649-3.176 2.793-.913 5.298-1.441 5.567-1.172s.084 1.565-.41 2.878c-.495 1.314-.693 3.771-.441 5.459.413 2.769.938 3.169 5.348 4.072 5.651 1.158 17.346.049 22.587-2.141 2.212-.924 5.491-1.279 9.149-.989 16.818 1.333 27.92.904 38.603-1.49 2.52-.565 4.923-.93 5.339-.812s1.658-.273 2.758-.87 6.275-1.328 11.5-1.624c12.012-.68 20.804-3.59 24.884-8.237 4.669-5.318 6.05-15.434 4.639-33.979-.335-4.4-.997-23.3-1.472-42-1.197-47.167-2.86-81.544-4.728-97.73-3.013-26.112-.09-67.599 10.268-145.77 2.857-21.555 2.905-21.876 3.709-24.5.337-1.1.905-5.15 1.262-9 .863-9.304.942-10.021 2.707-24.5.838-6.875 1.572-13.85 1.63-15.5s.975-5.925 2.039-9.5c1.063-3.575 2.227-8.413 2.586-10.75.358-2.338.725-4.273.814-4.301s2.187-.305 4.662-.615c6.035-.758 21.435-6.368 32.56-11.861 4.982-2.46 9.631-4.473 10.33-4.473 2.379 0 22.653-10.932 38.154-20.573 17.509-10.89 25.856-16.969 41.956-30.557 2.475-2.089 7.875-6.571 12-9.961 9.801-8.055 20.653-18.246 41.637-39.098 9.426-9.367 18.876-17.897 21-18.956 8.282-4.129 9.349-5.041 11.576-9.894 1.815-3.958 2.765-4.961 4.7-4.961 6.452 0 22.328-12.198 44.429-34.134 14.923-14.813 14.297-14.448 28.158-16.41 2.75-.39 5.549-1.145 6.219-1.679 1.247-.993 1.904-1.092 18.281-2.752 5.225-.53 16.025-1.874 24-2.988 19.512-2.724 28.884-3.822 38.966-4.563 4.656-.343 8.808-.834 9.226-1.093.418-.258 4.484-1.1 9.034-1.87 25.472-4.311 31.97-5.485 35.44-6.4 2.109-.556 14.184-2.632 26.834-4.612 12.65-1.981 25.475-4.027 28.5-4.548s11.35-1.863 18.5-2.983 15.25-2.458 18-2.972c2.75-.515 8.6-1.41 13-1.99s11.375-1.704 15.5-2.498 10.425-1.729 14-2.079c3.575-.349 8.75-1.249 11.5-2 7.702-2.103 30.579-6.435 44.5-8.426 4.125-.59 10.875-1.931 15-2.981 15.169-3.86 27.565-7.19 30-8.06 6.679-2.387 29.629-7.597 42.5-9.648 24.132-3.846 34.001-5.313 39-5.795 3.3-.318 10.05-1.05 15-1.626 4.95-.577 10.35-1.194 12-1.371 23.655-2.548 92.564-2.577 120.5-.052 1.925.174 8.91.796 15.521 1.381 6.612.586 15.612 1.727 20 2.536 4.389.809 11.129 1.957 14.979 2.551 20.624 3.184 47.273 8.792 53 11.154 1.1.453 3.984 1.33 6.408 1.947 6.764 1.723 21.723 6.722 24.822 8.295 1.524.773 5.695 2.407 9.27 3.631 6.67 2.285 9.048 3.295 22 9.353 9.24 4.321 19.352 8.845 24 10.735 5.381 2.189 66.808 33.243 72.794 36.801 2.912 1.73 5.677 3.146 6.145 3.146s4.164 2.362 8.213 5.25 8.332 5.925 9.517 6.75 5.624 3.91 9.864 6.856c12.128 8.425 41.51 33.287 52.369 44.313 16.118 16.365 32.686 34.749 41.651 46.217a6912 6912 0 0 0 9.947 12.697c3.399 4.32 14.802 18.123 17.107 20.709.837.94 4.08 4.899 7.207 8.8 11.763 14.67 31.052 36.343 43.308 48.658 12.006 12.063 12.903 12.75 16.661 12.75 6.294 0 6.932-1.697 3.805-10.132-1.456-3.928-2.417-7.372-2.136-7.654.282-.281 2.657.521 5.28 1.782 14.599 7.022 52.609 21.327 72.989 27.468 6.171 1.86 11.685 3.669 12.253 4.02 2.167 1.339 43.857 11.849 59.026 14.88 34.947 6.984 71.4 9.744 91.5 6.929 7.639-1.07 20.224-6.236 18.759-7.701-.326-.325-2.61-.592-5.076-.592s-7.903-.656-12.083-1.457c-4.18-.802-15.025-2.876-24.1-4.61-21.464-4.1-31.21-6.66-52.759-13.854-28.57-9.539-67.74-25.567-94.275-38.578-23.791-11.666-52.158-26.211-68.466-35.107-4.4-2.4-10.25-5.481-13-6.847s-7.7-3.994-11-5.84l-6-3.357.188-17.448c.104-9.596.661-18.69 1.239-20.21 1.012-2.662 1.244-2.741 6.312-2.129 2.894.349 8.861 1.459 13.261 2.466 10.025 2.296 46.615 7.168 56.129 7.474 3.921.126 7.563.498 8.094.826 1.386.856 40.308 2.068 63.777 1.985 40.222-.143 75.613-4.069 96.146-10.665 8.547-2.745 10.076-3.64 10.509-6.149.337-1.956-.406-2.016-34.155-2.733-77.228-1.641-120.478-5.563-169-15.326-14.798-2.977-48.862-11.692-56.551-14.468a8464 8464 0 0 0-12.949-4.658c-5.578-2.001-23.061-9.037-38-15.294-1.1-.46-5.15-2.043-9-3.518s-13.435-5.391-21.299-8.704l-14.3-6.025.628-7.137c1.311-14.914 7.051-37.041 13.045-50.288.784-1.733 1.426-3.505 1.426-3.937s1.976-5.089 4.391-10.349c4.311-9.39 9.643-20.834 10.395-22.314.6-1.182-3.075.372-5.286 2.234-1.1.927-4.073 2.865-6.606 4.309-4.78 2.723-26.674 24.768-31.829 32.05-5.535 7.817-16.28 24.054-16.78 25.357-.876 2.284-2.343 1.435-7.624-4.417-7.5-8.31-30.65-30.709-41.661-40.309-11.408-9.946-20-17.915-20-18.549 0-.255 1.209-2.367 2.687-4.694 3.827-6.024 8.715-16.311 10.8-22.73 3.811-11.728 8.423-18.643 19.697-29.531 9.506-9.18 10.693-10.052 24.316-17.853 5.5-3.15 14.306-8.739 19.57-12.421 19.545-13.674 33.381-23.809 37.841-27.718 2.524-2.213 6.389-5.357 8.589-6.987 6.234-4.618 30.938-29.531 33.705-33.99 3.561-5.738 3.962-9 1.399-11.376-3.511-3.254-9.647-2.259-20.604 3.343-17.113 8.749-19.163 9.7-32.905 15.259-31.287 12.658-32.402 13.043-45.595 15.775-13.246 2.742-26.101 3.626-65.5 4.5-21.725.483-42.425 1.337-46 1.899-9.184 1.444-20.057 3.791-23.338 5.039-5.679 2.159-6.408 1.626-7.104-5.189-.351-3.437-1.099-9.217-1.662-12.842-.9-5.8-.764-7.362 1.132-12.991 1.186-3.52 3.689-8.489 5.564-11.042 1.874-2.554 3.414-5.483 3.422-6.509s5.651-8.841 12.541-17.366c31.919-39.493 35.942-44.702 53.039-68.679 2.423-3.399 4.406-6.606 4.406-7.128 0-.521.63-1.471 1.4-2.11 2.027-1.682 5.926-11.791 5.239-13.582-.321-.837-.558-1.804-.526-2.15.103-1.116-2.547-2.32-5.144-2.336-1.391-.008-9.491 1.708-18 3.815-14.249 3.527-31.168 9.759-38.469 14.169-8.513 5.142-24.985 12.605-32.5 14.725-12.184 3.438-27.95 3.978-53.172 1.823-11.18-.955-23.703-1.537-27.828-1.292-8.663.512-19.946 3.486-25 6.589-5.707 3.503-8.41 2.659-5.987-1.869 4.371-8.166 5.723-37.75 2.552-55.812-2.548-14.513-1.857-28.826 1.916-39.663 2.265-6.507 12.571-28.135 16.439-34.5.501-.825 1.737-3.612 2.746-6.194 1.293-3.31 5.407-8.472 13.945-17.5 6.661-7.043 14.019-15.056 16.352-17.806s5.036-5.675 6.006-6.5c1.716-1.459 20.505-22.75 26.531-30.065 12.671-15.38 21.684-26.089 25.572-30.385 5.039-5.566 12.783-15.354 17.428-22.027 1.65-2.371 5.025-7.171 7.5-10.667s5.604-8.749 6.952-11.673c2.921-6.332 2.23-8.244-3.403-9.414-4.597-.955-5.548-.439-37.549 20.387-19.795 12.883-24.548 15.844-25.429 15.844-.414 0-3.3 1.742-6.412 3.87-15.587 10.66-60.826 38.685-77.516 48.019a1899 1899 0 0 0-14.485 8.244c-40.984 23.546-93.07 45.778-124.658 53.209-35.056 8.247-35.11 8.255-36.446 5.759-.58-1.083-1.054-3.942-1.054-6.354 0-5.445-2.429-13.962-5.496-19.273-11.418-19.768-11.633-23.241-3.402-55.06 3.33-12.875 2.788-11.907 18.657-33.307 2.608-3.517 6.5-8.917 8.65-12s9.126-12.498 15.5-20.92 12.521-16.855 13.657-18.739 2.973-4.444 4.082-5.687c1.11-1.244 5.392-7.436 9.517-13.761s11.534-16.675 16.466-23 11.87-15.446 15.418-20.27a1837 1837 0 0 1 12.685-17c3.428-4.526 7.756-10.48 9.617-13.23s6.481-9.169 10.266-14.264c5.969-8.034 12.532-17.533 15.883-22.988.55-.895 2.912-4.292 5.25-7.548s4.25-6.263 4.25-6.682 2.394-4.757 5.319-9.64c9.87-16.474 12.799-25.376 9.303-28.277-1.984-1.646-5.156-.148-11.733 5.544-3.086 2.67-9.161 7.626-13.5 11.013s-11.939 10.143-16.889 15.013-10.575 10.039-12.5 11.487-6.55 5.586-10.277 9.193c-3.728 3.608-10.703 9.903-15.5 13.99s-12.098 10.43-16.223 14.097c-6.644 5.905-16.338 13.695-38.863 31.228-3.651 2.841-8.887 6.707-11.637 8.591-9.515 6.52-17.565 11.743-18.098 11.743-.295 0-1.968 1.089-3.719 2.42-7.749 5.89-29.567 17.54-41.85 22.347-10.94 4.28-46.45 16.229-48.262 16.239-.589.004-2.337.667-3.884 1.474-3.666 1.912-29.071 8.11-38.687 9.438-7.861 1.086-20.032 2.195-28.5 2.597-24.403 1.158-44.262 3.767-53.537 7.035-11.448 4.033-12.32 4.15-11.492 1.543.381-1.201 2.404-4.751 4.496-7.888 2.092-3.138 7.061-11.33 11.043-18.205s8.028-13.644 8.991-15.042 2.631-4.323 3.706-6.5c2.52-5.101 6.06-11.288 8.272-14.458.96-1.375 3.33-5.508 5.268-9.185 1.938-3.676 4.475-8.02 5.638-9.654 1.163-1.633 2.115-3.282 2.115-3.665 0-.382 1.525-3.237 3.39-6.345a6586 6586 0 0 0 9.632-16.151c12.469-20.976 26.857-42.534 34.359-51.484 8.601-10.261 10.945-14.078 10.281-16.739-.477-1.912 1.455-4.203 12.038-14.277 10.358-9.859 34.796-35.838 60.248-64.045 10.235-11.344 27.692-32.845 33.664-41.464 4.584-6.615 6.388-10.529 6.388-13.86 0-6.565-2.869-8.219-5.485-3.161-.844 1.634-2.396 3.431-3.447 3.994s-2.51 1.616-3.24 2.341-3.529 2.414-6.218 3.754-6.74 4.048-9 6.02c-10.201 8.897-30.578 23.245-43.11 30.355-2.75 1.56-5.9 3.614-7 4.565-1.1.95-4.7 3.18-8 4.954-3.3 1.775-6.675 3.78-7.5 4.456-1.344 1.101-6.728 4.403-20.904 12.82-2.528 1.501-6.396 3.691-8.596 4.867-2.2 1.175-4.675 2.709-5.5 3.408-1.398 1.183-18.025 10.612-33 18.712a2481 2481 0 0 0-16 8.769c-11.944 6.605-41.938 21.772-52.5 26.548-20.159 9.116-58.429 23.979-95.5 37.091-6.875 2.431-13.85 5.032-15.5 5.78s-8.625 3.24-15.5 5.537c-6.875 2.298-17.45 6.131-23.5 8.518s-16.4 6.476-23 9.085c-16.368 6.472-50.302 22.544-54.233 25.687-.892.713-1.516.245-2.25-1.687-.56-1.471-1.017-3.249-1.017-3.953s-.919-3.936-2.043-7.184-2.908-9.732-3.965-14.407c-2.781-12.297-9.059-31.145-16.519-49.589-7.512-18.571-9.883-28.736-9.076-38.911.923-11.651 8.34-41.565 14.753-59.5 2.261-6.325 5.093-14.756 6.293-18.736 1.2-3.979 3.105-8.254 4.233-9.5 2.411-2.66 14.324-20.395 14.324-21.323 0-.35 2.475-4.149 5.5-8.441s5.5-8.072 5.5-8.4c0-.327 1.526-2.734 3.391-5.348 1.866-2.613 6.212-9.477 9.658-15.252 3.447-5.775 7.545-12.065 9.109-13.978 1.563-1.913 2.842-3.989 2.842-4.613s2.859-5.359 6.354-10.522 7.146-10.962 8.113-12.887c.968-1.925 3.677-6.425 6.021-10s6.849-11 10.012-16.5 7.27-12.356 9.126-15.235 3.374-5.398 3.374-5.599c0-.2 3.745-7.07 8.322-15.265 10.925-19.563 14.025-26.053 13.321-27.889-.64-1.667-4.643-2.108-4.643-.512m905 1177.566c0 1.118 2.342 4.994 4.897 8.102 1.431 1.742 4.118 5.229 5.97 7.75s3.877 4.578 4.5 4.574 2.708-2.482 4.633-5.507 4.287-6.465 5.25-7.645c3.736-4.582 2.988-5.037-11.159-6.795-9.385-1.166-14.091-1.326-14.091-.479"/></svg>