<svg xmlns="http://www.w3.org/2000/svg" width="400" height="200" viewBox="-11.188 -9.934 923.735 461.867"><path fill="#fff" fill-rule="evenodd" d="m437.97 129.01 7.22 1.16c5.93.96 11.27 4.38 14.68 9.35l18.93 27.54c-10.32-2.46-22.45-5.3-36.66-8.64l-8.23-24.55c-.42-1.27-.17-2.63.67-3.61.85-.98 2.13-1.49 3.39-1.25m-44.52-.73 9.63 4.28c1.03.42 1.8 1.3 2.09 2.38l6.77 24.07c13.89 3.23 91.97 21.3 117.67 28.15 20.64 5.53 25.32 17.16 26.29 23.6.39 2.71-.36 5.45-2.06 7.61-1.68 2.12-4.19 3.45-6.85 3.63-15.86 1.11-46.94-6.19-53.97-7.91l-59.6 31.54a20.32 20.32 0 0 1-14.57 1.74l-8.26-2.12c-.49-.15-.93-.36-1.34-.68a3.7 3.7 0 0 1-1.33-2.02c-.3-1.31.1-2.74 1.11-3.64l39.3-36.05c-10.02-3.17-30.06-9.55-43.06-14.1-10.08-3.5-16.3-8.63-19.73-12.3-3.86-4.14-5.4-10.03-4.07-15.76l6.92-29.83c.26-1.07.96-1.98 1.95-2.48.99-.49 2.12-.51 3.11-.11M811 0v442H611V27.55Zm10 3 80 13.49V442h-80ZM.52 75.8a6.51 6.51 0 0 1 7.78-4.9l354.76 80.51c3.49.79 5.69 4.27 4.89 7.77-.79 3.5-4.27 5.69-7.77 4.9L5.42 83.57c-3.5-.79-5.69-4.27-4.9-7.77"/></svg>