<svg xmlns="http://www.w3.org/2000/svg" width="400" height="200" viewBox="-121.808 -5.654 904.615 452.308"><path fill="#fff" fill-rule="evenodd" d="m130.22 96.28 16.49 2.64c13.55 2.18 25.77 9.93 33.57 21.18l43.27 62.44c-23.59-5.58-51.32-12.01-83.81-19.58l-18.8-55.65c-.97-2.88-.4-5.96 1.54-8.18 1.94-2.23 4.85-3.38 7.74-2.85M28.46 94.65l22.01 9.68c2.35.96 4.11 2.96 4.78 5.39l15.48 54.58c31.74 7.3 210.22 48.27 268.95 63.78 47.18 12.55 57.87 38.92 60.09 53.52.9 6.13-.83 12.35-4.71 17.23-3.83 4.81-9.58 7.82-15.65 8.23-36.25 2.51-107.31-14.01-123.36-17.91l-136.23 71.48c-10.24 5.38-22.07 6.77-33.31 3.94l-18.87-4.81c-1.12-.33-2.14-.8-3.07-1.52a8.53 8.53 0 0 1-3.05-4.6c-.68-2.97.23-6.21 2.55-8.25l89.83-81.72c-22.9-7.17-68.7-21.62-98.42-31.95-23.06-7.93-37.27-19.56-45.11-27.87-8.83-9.38-12.33-22.74-9.3-35.73L16.9 100.5a8.5 8.5 0 0 1 4.45-5.61c2.25-1.13 4.83-1.16 7.11-.24m450.48 161.74c-9.12 0-16.49 7.35-16.49 16.46v28.19c0 9.1 7.37 16.46 16.49 16.46s16.49-7.36 16.49-16.46v-28.19c0-9.11-7.37-16.46-16.49-16.46m0-75.99c-9.12 0-16.49 7.36-16.49 16.46v28.19c0 9.1 7.37 16.46 16.49 16.46s16.49-7.36 16.49-16.46v-28.19c0-9.1-7.37-16.46-16.49-16.46m128.12-75.97c-9.12 0-16.49 7.36-16.49 16.46v28.17c0 9.1 7.37 16.46 16.49 16.46s16.49-7.36 16.49-16.46v-28.17c0-9.1-7.37-16.46-16.49-16.46m-64.06 0c-9.12 0-16.49 7.36-16.49 16.46v28.17c0 9.1 7.37 16.46 16.49 16.46s16.49-7.36 16.49-16.46v-28.17c0-9.1-7.37-16.46-16.49-16.46m-64.06 0c-9.12 0-16.49 7.36-16.49 16.46v28.17c0 9.1 7.37 16.46 16.49 16.46s16.49-7.36 16.49-16.46v-28.17c0-9.1-7.37-16.46-16.49-16.46m128.12-75.99c-9.12 0-16.49 7.36-16.49 16.46v28.19c0 9.1 7.37 16.46 16.49 16.46s16.49-7.36 16.49-16.46V44.9c0-9.1-7.37-16.46-16.49-16.46m-64.06 0c-9.12 0-16.49 7.36-16.49 16.46v28.19c0 9.1 7.37 16.46 16.49 16.46s16.49-7.36 16.49-16.46V44.9c0-9.1-7.37-16.46-16.49-16.46m-64.06 0c-9.12 0-16.49 7.36-16.49 16.46v28.19c0 9.1 7.37 16.46 16.49 16.46s16.49-7.36 16.49-16.46V44.9c0-9.1-7.37-16.46-16.49-16.46M425 0h236v441H425V329.97Z"/></svg>