<svg xmlns="http://www.w3.org/2000/svg" width="400" height="200" viewBox="-33.308 -5.654 904.615 452.308"><path fill="#fff" fill-rule="evenodd" d="M654.85 256.39c-9.12 0-16.49 7.35-16.49 16.46v28.19c0 9.1 7.37 16.46 16.49 16.46 9.13 0 16.5-7.36 16.5-16.46v-28.19c0-9.11-7.37-16.46-16.5-16.46m0-75.99c-9.12 0-16.49 7.36-16.49 16.46v28.19c0 9.1 7.37 16.46 16.49 16.46 9.13 0 16.5-7.36 16.5-16.46v-28.19c0-9.1-7.37-16.46-16.5-16.46m128.19-75.97c-9.13 0-16.5 7.36-16.5 16.46v28.17c0 9.1 7.37 16.46 16.5 16.46 9.12 0 16.5-7.36 16.5-16.46v-28.17c0-9.1-7.38-16.46-16.5-16.46m-64.09 0c-9.13 0-16.5 7.36-16.5 16.46v28.17c0 9.1 7.37 16.46 16.5 16.46 9.12 0 16.49-7.36 16.49-16.46v-28.17c0-9.1-7.37-16.46-16.49-16.46m-64.1 0c-9.12 0-16.49 7.36-16.49 16.46v28.17c0 9.1 7.37 16.46 16.49 16.46 9.13 0 16.5-7.36 16.5-16.46v-28.17c0-9.1-7.37-16.46-16.5-16.46m-523.64-8.25 16.49 2.64c13.55 2.17 25.77 9.91 33.57 21.14l43.26 62.32c-23.59-5.57-51.31-11.99-83.8-19.55l-18.8-55.54c-.97-2.87-.4-5.94 1.54-8.17 1.94-2.22 4.85-3.37 7.74-2.84M29.46 94.55l22.01 9.67c2.34.96 4.1 2.95 4.77 5.38l15.48 54.47c31.74 7.29 210.21 48.18 268.93 63.67 47.18 12.52 57.87 38.84 60.09 53.41.9 6.12-.83 12.33-4.72 17.2-3.82 4.8-9.57 7.81-15.64 8.22-36.25 2.51-107.3-13.99-123.35-17.88l-136.22 71.34c-10.24 5.38-22.07 6.76-33.3 3.93l-18.87-4.79c-1.13-.33-2.15-.81-3.08-1.52-1.47-1.14-2.57-2.73-3.05-4.59-.67-2.97.23-6.2 2.56-8.23l89.81-81.57c-22.89-7.15-68.69-21.59-98.41-31.89-23.05-7.92-37.26-19.53-45.11-27.82-8.82-9.36-12.32-22.7-9.29-35.66l15.82-67.5c.6-2.41 2.19-4.47 4.45-5.59 2.26-1.13 4.84-1.16 7.12-.25m753.58-66.11c-9.13 0-16.5 7.36-16.5 16.46v28.19c0 9.1 7.37 16.46 16.5 16.46 9.12 0 16.5-7.36 16.5-16.46V44.9c0-9.1-7.38-16.46-16.5-16.46m-64.09 0c-9.13 0-16.5 7.36-16.5 16.46v28.19c0 9.1 7.37 16.46 16.5 16.46 9.12 0 16.49-7.36 16.49-16.46V44.9c0-9.1-7.37-16.46-16.49-16.46m-64.1 0c-9.12 0-16.49 7.36-16.49 16.46v28.19c0 9.1 7.37 16.46 16.49 16.46 9.13 0 16.5-7.36 16.5-16.46V44.9c0-9.1-7.37-16.46-16.5-16.46M600.89 0H837v441H600.89V329.97Z"/></svg>