<svg xmlns="http://www.w3.org/2000/svg" width="400" height="200" viewBox="-64.263 0.246 257.527 128.763"><path fill="#fff" d="M48.312 47.873a1.5 1.5 0 0 1 .219 1.145c-.764 3.384 1.856 3.126 2.889 5.712a7.5 7.5 0 0 1 .32 1.986 1.27 1.27 0 0 1-.146.688 16.1 16.1 0 0 0-1.825 6.788.353.353 0 0 0 .646.207c2.447-3.509 8.667-9.97 9.183-10.567a1.57 1.57 0 0 1 2.336-.089 1.514 1.514 0 0 1 .016 1.957c-.59.68-8.143 8.534-10.791 13.067a98 98 0 0 0-1.439 2.647 28.8 28.8 0 0 0-3.129 12.05.184.184 0 0 0 .357.064A64 64 0 0 1 51.93 72.88a1.5 1.5 0 1 1 2.55 1.59c-.039.058-11.006 21.105-8.2 36.975a.928.928 0 0 0 1.426.633c4.26-2.837 19.243-12.72 24.088-14.657a5 5 0 0 1 1.859-.491c2.2-.019 3.869 5.085 5.97 6.01a1.61 1.61 0 0 0 2.48-1.42 24 24 0 0 0-.06-3.1c-.01-.17-.769-6.066-1.48-9.8-1.3-6.842-2.81-14.43-2.81-21.04 0-5.91.54-16.5.03-18.58-.019-.074-.047-.149-.07-.223.57-4.288-4.32-15.4-4.32-15.4a3.74 3.74 0 0 0 1.65-3.08v-.006l4.527-1.431a1.55 1.55 0 0 0 1.108-1.66 1.5 1.5 0 0 0-1.939-1.222l-4.46 1.411a11 11 0 0 0-2.016-3.105l3.137-4.016a1.5 1.5 0 1 0-2.363-1.848l-3.1 3.961a8 8 0 0 0-2.438-.929V15.18a1.5 1.5 0 1 0-3 0v6.2a8.4 8.4 0 0 0-2.535.879l-3-3.839a1.5 1.5 0 1 0-2.364 1.848l2.99 3.824a11.1 11.1 0 0 0-2.149 3.208l-3.92-1.24a1.5 1.5 0 0 0-1.938 1.222 1.55 1.55 0 0 0 1.109 1.662L56.65 30.2a3.72 3.72 0 0 0 1.65 3.18 50 50 0 0 1-2.375 6.607c-1.1-.687-2.032-.919-2.664.463-3.794-5.58-4.62-14.031-4.425-17.856.1-1.971 2.478-1.706 2.278-4.656a2.714 2.714 0 0 0-2.852-2.438c-3.6 0-4.343 5.537-4.405 6.688-.174 3.212-1.252 10.526 1.294 19.145a28.2 28.2 0 0 0 3.161 6.54m16.849-3.807a4.66 4.66 0 0 1-2.81-2.5 2.4 2.4 0 0 0 .159-.366c.04-.11.08-.24.11-.36a5.1 5.1 0 0 0 3.22 1.47 4.76 4.76 0 0 0 2.85-1.16c.03.12.07.25.11.37a6 6 0 0 0 .365.854 20 20 0 0 0-4.004 1.692M71.27 67.19a100 100 0 0 0-2.62 11.04 1.494 1.494 0 0 1-1.48 1.27 2 2 0 0 1-.23-.02 1.5 1.5 0 0 1-1.26-1.71 104 104 0 0 1 2.69-11.38c1.63-5.89 3.17-11.45 2.88-16.1a1.5 1.5 0 1 1 2.99-.19c.32 5.15-1.35 11.22-2.97 17.09m-5.85-40.02a.489.489 0 0 1 .85 0 20.6 20.6 0 0 0 4.89 5.14 1.9 1.9 0 0 1 .74 1.79c-.58 3.76-3.67 6.66-6.06 6.66s-5.47-2.9-6.06-6.66a1.9 1.9 0 0 1 .75-1.79 20.6 20.6 0 0 0 4.89-5.14"/><path fill="#fff" d="M83.77 83a1.6 1.6 0 0 0 2.09-1.15l1.49-6.44a1.5 1.5 0 0 1-.75-.07c-1.61-.52-1.59-3.83-.66-5.59a2.01 2.01 0 0 1 2.18-.79 4 4 0 0 1 .66.27l.36-1.54a1.6 1.6 0 0 0-.95-1.85c-1.5-.62-4.65-1.89-7.37-3-.04 1.72-.07 3.38-.07 4.74a87 87 0 0 0 1.75 15zM45.528 13.705h6.805a1.5 1.5 0 0 0 0-3h-6.8a1.5 1.5 0 0 0 0 3zM49.3 9.529a3.035 3.035 0 0 0 3.035-3.035c0-1.676-1.889-2.393-2.31-4.2-.38-1.632-3.76 1.635-3.76 4.2A3.035 3.035 0 0 0 49.3 9.529M90.339 124.4h-4.547l-3.834-18.021a.52.52 0 0 0-.605-.413 4.6 4.6 0 0 1-1.013.11 4.9 4.9 0 0 1-1.81-.35 5.95 5.95 0 0 1-2.152-1.513.517.517 0 0 0-.9.369c.287 5.092 1.011 16.937 1.141 19.818h-3c-.133-3.025-1.046-17.828-1.318-23.179a.512.512 0 0 0-.74-.436c-1.112.545-2.519 1.333-4.141 2.291a.53.53 0 0 0-.257.409L65.52 124.4h-3.009l1.428-18.2a.517.517 0 0 0-.788-.483 296 296 0 0 0-5.8 3.774.5.5 0 0 0-.219.317c-.9 4.132-2.258 10.506-3.094 14.6h-3a959 959 0 0 1 2.281-11.1.516.516 0 0 0-.8-.534c-2.33 1.588-5.889 4-6.775 4.436a.5.5 0 0 0-.248.274l-2.512 6.916h-4.323a1.5 1.5 0 0 0 0 3h51.678a1.5 1.5 0 0 0 0-3"/></svg>