<svg xmlns="http://www.w3.org/2000/svg" width="400" height="200" viewBox="-691 -717 3108 1554"><path fill="#fff" d="M863 837q-322 0-549.5-227.5C86 382 86 274.667 86 60s75.833-397.83 227.5-549.5S648.333-717 863-717c214.67 0 397.83 75.83 549.5 227.5S1640-154.667 1640 60s-75.83 397.833-227.5 549.5S1077.67 837 863 837m0-99c187.33 0 347.17-66.167 479.5-198.5C1474.84 407.167 1541 247.333 1541 60s-66.17-347.33-198.5-480S1050.33-619 863-619c-187.333 0-347.167 66.34-479.5 199C251.167-287.33 185-127.333 185 60s66.167 347.167 198.5 479.5S675.667 738 863 738M407 103h61q73 321 395 321c214.67 0 346.33-107 395-321h62c-15.33 138.667-63.5 247.333-144.5 326S990.333 547 863 547s-231.333-39.333-312-118-128.667-187.333-144-326M616-64q-51 0-87-36c-36-36-36-53-36-87s12-63 36-87 53-36 87-36q52.001 0 88 36t36 87q-.002 51-36.5 87-36.501 36-87.5 36m494 0c-34 0-63.17-12-87.5-36q-36.503-36-36.5-87 0-51 36.5-87c24.34-24 53.5-36 87.5-36s63 12 87 36 36 53 36 87-12 63-36 87-53 36-87 36"/></svg>