<svg xmlns="http://www.w3.org/2000/svg" width="400" height="200" viewBox="-5.128 -2.564 410.256 205.128"><path fill="#fff" d="M67.478 2.282c-.148 2.081-1.189 15.015-2.378 28.989-1.189 13.825-2.23 31.07-2.23 38.057 0 11.744-.297 13.082-3.271 15.014-3.419 2.23-3.419 2.379-.743 7.731 1.487 3.419 2.527 8.919 2.527 14.866 0 8.176-.446 9.811-3.419 11.744l-3.27 2.081 3.567 6.392c3.568 6.393 3.568 6.393 2.528 39.544l-1.19 33.3h281.266v-33.895c.148-27.353.445-34.34 2.229-36.57 3.271-4.311 2.825-9.96-.743-10.852-2.676-.743-2.973-2.081-2.973-10.704.148-6.243.892-10.852 2.23-12.636 2.824-3.716 2.824-7.879.148-9.365-1.338-.892-2.23-6.69-2.973-20.515-1.338-27.354-4.757-61.397-5.649-58.721-1.04 2.824-4.162 53.815-4.162 67.789 0 8.176-.595 10.852-2.23 11.595-2.527.892-2.973 6.244-.744 7.582.892.446 1.487 6.244 1.487 12.785 0 9.217-.446 12.041-2.23 12.636-2.824 1.189-2.824 4.906.149 8.771 1.784 2.378 2.23 7.284 1.932 24.083 0 11.744-.446 21.258-.892 21.258s-3.419-.743-6.392-1.635c-7.879-2.379-15.312-.595-20.664 4.906-4.162 4.311-4.906 4.459-8.176 2.824-1.933-1.04-5.798-2.378-8.474-2.973-4.757-.892-5.054-1.338-5.5-8.028-.297-4.608.297-8.176 1.784-10.257 2.973-4.163 2.973-8.028.148-9.217-2.824-1.041-2.973-11.15-.446-18.285 1.487-4.163 1.487-5.352-.148-6.393-1.635-.892-1.933-4.014-1.189-13.23.446-6.69.148-12.488-.595-12.934s-1.338-5.352-1.338-10.852c0-17.245-1.933-41.922-3.122-40.733-.595.595-1.635 11.893-2.081 24.975-.595 13.082-1.635 25.272-2.527 27.056-1.19 2.379-1.19 4.46-.149 6.838 1.933 4.014.743 17.691-1.635 19.178-1.041.743-1.041 2.527.297 6.095 2.527 7.135 2.379 17.244-.446 18.285-2.824 1.189-2.824 4.906 0 8.622 1.338 1.784 2.23 6.244 2.23 11.596 0 8.176-.149 8.622-3.717 8.622-1.932 0-5.351-.743-7.433-1.784-3.121-1.338-3.716-2.676-3.716-8.176 0-3.568.743-7.879 1.635-9.514 1.041-1.933 1.041-3.568.149-4.758-.892-1.04-1.487-8.176-1.338-15.906 0-7.731-.446-21.556-1.189-30.476-1.041-13.676-1.487-15.46-2.379-10.852-1.189 5.352-2.824 33.746-2.824 49.504 0 7.582-2.974 13.677-5.798 11.893-.892-.446-1.635-2.081-1.635-3.568 0-3.122-4.014-7.136-8.177-7.879-2.23-.297-3.122-1.784-3.419-5.946-.595-6.987-3.419-9.515-7.73-7.136-2.973 1.635-3.865 1.189-7.582-3.419-2.378-2.973-6.838-6.839-9.96-8.623-2.973-1.783-6.987-4.608-8.771-6.243-2.081-1.784-3.419-2.23-3.419-1.19 0 .892-2.825 2.974-6.393 4.46-3.419 1.487-8.771 5.501-11.893 8.92-3.419 3.865-6.838 6.095-9.068 6.095-4.311 0-6.392 2.378-7.135 8.176-.298 3.568-1.19 4.609-4.609 4.906-2.379.297-5.054 2.081-6.392 4.162-1.338 1.933-3.42 3.568-4.46 3.568-1.189 0-2.081 1.19-2.081 2.528 0 1.932-.595 1.486-2.082-1.338-1.338-2.528-2.23-9.366-2.378-18.583-.298-25.272-1.635-42.219-3.122-41.327-.743.594-1.338 6.541-1.338 13.379s-.595 12.785-1.338 13.231c-.743.594-.743 3.419 0 7.135.892 3.866.892 6.69 0 7.582-.743.743-1.041 4.757-.595 8.622.446 4.312.149 8.028-.743 9.217-1.041 1.19-1.041 2.676-.297 4.014.892 1.189 1.486 5.501 1.486 9.366 0 6.987-.148 7.135-4.013 6.689-4.014-.446-4.163-.892-4.609-9.662-.297-6.096.297-10.704 1.784-13.529 2.081-4.013 2.081-4.608-.595-6.987-3.567-3.27-4.013-12.338-.743-18.433 1.933-3.866 1.933-4.46 0-6.095-2.824-2.23-2.973-16.65-.446-20.813 1.487-2.23 1.487-3.27 0-4.757-1.041-1.041-1.784-6.095-1.932-12.19 0-5.798-.892-19.921-1.784-31.368l-1.784-20.812-1.933 24.529c-1.041 13.528-1.784 27.502-1.784 31.367 0 3.717-.743 7.433-1.784 8.474-1.338 1.338-1.338 2.676 0 5.5 2.825 5.947 2.23 18.137-.743 19.921-2.379 1.189-2.379 1.784.149 7.433 3.121 6.541 2.527 13.825-1.487 18.136-2.081 2.379-2.081 2.974 0 7.136 1.487 2.825 2.379 8.325 2.379 15.015v10.406h-8.028c-5.649 0-8.92.892-11.744 2.973-2.081 1.635-5.947 2.973-9.069 2.973h-5.203l-.446-25.718c-.446-22.893-.148-26.164 2.379-31.367l2.973-5.798-3.27-2.23c-2.825-1.932-3.271-3.419-3.271-12.785 0-7.135.743-11.744 2.23-13.676 2.676-3.568 2.676-4.311.149-6.839-1.338-1.486-2.23-7.879-2.825-20.515-.743-18.285-3.716-57.383-4.608-63.18-.298-2.23-.595-2.082-.744.743"/></svg>