<svg xmlns="http://www.w3.org/2000/svg" width="400" height="200" viewBox="-637.5 -717 3110 1555"><path fill="#fff" d="m173 112 56-16q42 271 178.5 438C544 701 603.667 701 723 701q94 0 158.5-67.5C946 566 946 533.333 946 468q0-179-144-325-75 104-178 151l-70-166Q786.001 60 786-94q-.002-59-35-88.5c-23.334-19.67-58.667-29.51-106-29.5q-105 0-221 63l-68-165c64-30.67 130.333-46 199-46q136 0 220.5 88.5C860-183 860-135.667 860-41q0 61-24 108l31 29c88.667-84.667 173.33-127 254-127 6.67.025 17 .692 31 2 31.33-162.667 114-244 248-244 87.33 0 152.83 35.67 196.5 107 43.67 71.333 65.5 178.333 65.5 321 0 144.667-27.34 259.5-82 344.5-54.67 85-128.33 127.5-221 127.5q-97.005 0-138-62c-40.995-62-41-110.667-41-208v-74c0-91.333-24.34-137-73-137-41.33 0-92.67 21.333-154 64q129 173 129 333c0 88-28.84 159.167-86.5 213.5Q909 838 768 838q-229 0-398.5-207C200 424 191 320 173 112M1202-11c35.34 18 53.01 61.333 53 130l-1 117v63c0 120 37.67 180 113 180 63.33 0 116-29.5 158-88.5s63-133.167 63-222.5c0-86.667-19.17-157.167-57.5-211.5S1442.67-125 1382-125q-124.995 0-180 114M669-518l50-37c62 80.67 136.334 121 223 121 81.33 0 151.67-40.33 211-121l138 115c-89.33 94.67-179.67 142-271 142-138.667 0-255.667-73.33-351-220m294-199 105 106-105 102-104-109z"/></svg>