<svg xmlns="http://www.w3.org/2000/svg" width="400" height="200" viewBox="-269.128 -6.565 1050.256 525.128"><path fill="#fff" d="M256.969 217.416 7.79 466.595c-10.387 10.387-10.387 27.228 0 37.614 10.387 10.387 27.228 10.387 37.614 0l249.178-249.178zM511.887 72.965l-1.006-26.884c-.914-24.444-20.52-44.05-44.964-44.964L439.033.112a160.82 160.82 0 0 0-119.729 46.991l-44.655 44.655c-9.277 9.277-9.277 24.317 0 33.593l37.191 37.191-36.347 36.347 37.614 37.614 36.347-36.347 37.191 37.191c9.277 9.277 24.317 9.277 33.593 0l44.655-44.655a160.8 160.8 0 0 0 46.994-119.727"/></svg>