<svg xmlns="http://www.w3.org/2000/svg" width="400" height="200" viewBox="-474 -556 3004 1502"><path fill="#fff" d="m499 440-46 17 34 61q-127-47-217-133-108-104.001-108-222 0-82 13-164 19-117 56-133-41-76-41-154c0-104.67 30.667-157 92-157q28 0 83.5 6c55.5 6 64.833 6 83.5 6q106 0 218-61.5Q779.001-556 842-556q175 0 175 213 0 27-6 60c30.67 60.67 52.67 101.667 66 123q42 70 87 108c16.67-27.333 40.33-52.333 71-75q52.005-38 93-38c32 0 59.33 15.333 82 46q64.995 89 99 124c40 41.334 83.33 71.667 130 91 58 23.335 115.67 46.668 173 70 54.67 33.334 82 86 82 158-.01 38.667-12.34 75.334-37 110q-37.005 52-90 77 18 114 18 193c0 40-15.67 83.333-47 130-6.67 10-36.33 47.333-89 112v-68l-70 34q159-105 159-217c-.01-48.667-5.35-103-16-163-27.33 11.333-47.67 21-61 29q-30 74-102 120-13.995 9-144 70-126 61-222 61-136.005 0-183-114-29.006-71-29-231c0-196.667 38.67-312 116-346 7.34-25.333 19.67-63.333 37-114-60-66-106.67-139-140-219l-7 38q24 51 24 108 0 39-48 202-82 276-247 276-106 0-273.5-156.5C275 99 275 64 275-6q0-22 7-44l-27-43q-43 65-43 191 0 117 32 178 27 52 96 89a32373 32373 0 0 0 159 75m1369-117c0-64.667-26.34-111.667-79-141l-160-62c-49.33-20-94.67-51.667-136-95q-33-33-105-130c-16.68-22.668-37.34-34.002-62-34-33.33 0-74 25-122 75-23.33 25.334-50.67 92.667-82 202-52.67 14-87.34 61.667-104 143q-12 61-12 193c0 94 8.67 163 26 207q42 105 162 105c70 0 155.67-25.333 257-76q163.995-83 198-171 60-24 153-80 66-62 66-136M998-351q-.003-76.005-41-126-44-54-118-54c-32 0-86.833 20.67-164.5 62S522-407 450-407q-28 0-83-6t-83-6c-46 0-69 39.67-69 119q0 70.005 28 129 9 19 68 114-12 24-12 51 0 94 160.5 242.5C620 385 652 385 716 385q148 0 223-256 46.003-158 46-209-.005-56-23-100 3.006-16.001 22-85c9.333-34.67 14-63.33 14-86m674 763c-.01 9.333-6.35 14-19 14-12.67-.001-39.34-17.667-80-53-40.67-35.334-61.01-59-61-71q0-14.003 18-14c20.67 0 49.5 15.667 86.5 47s55.5 57 55.5 77m-294-204c0 10.667-6.67 16-20 16-5.33 0-28.67-15.5-70-46.5s-65.67-51.167-73-60.5c0-12.669 11.33-19.003 34-19 22.67 0 49.83 12.833 81.5 38.5S1378 186 1378 208m1 25q-15 106-129 133 45-42 129-133m153 374-17 5c-35.33-15.333-53-55-53-119 16.67 36.667 26 57 28 61q16.995 31 42 53m-169-110-1 3-7 3c-7.33 0-17-3.833-29-11.5s-18-15.167-18-22.5l1-3 7-3c8 .002 17.83 3.835 29.5 11.5 11.67 7.667 17.5 15.167 17.5 22.5m-96-55-4 4q-12-1-34.5-15c-15.01-9.333-22.84-17.333-23.5-24l5-4q12 .003 34.5 14.5Q1267 432 1267 442m-72-122c-22.67 12-49 18-79 18q-16.005-.003-45-8l-3-22c10.67 6.669 38 10.002 82 10q21 0 45 2m233 251c-34 74.667-100.33 112-199 112-52.67 0-88.33-22.667-107-68-11.33-28.667-17-74.333-17-137q0-19 9-50 10.995-36 12-49c11.34 59.333 40.17 108.833 86.5 148.5S1312 587 1372 587c25.34 0 44.01-5.334 56-16M877-267c0 23.33-44.667 35-134 35q-64 0-64-15c0-14.67 18-26.33 54-35q39-9 72-9 72 0 72 24M724-33q-.002 20.004-44 20-18 0-18-8 0-20 44-20 18 .01 18 8m-154-89q0 46-27 80 2-37 2-57v-21q0-35-4-70 29 38.001 29 68m-44-78q-.002 23-41 30-29 3-59 7-64 15-70 15-15-.01-15-13 0-25.001 33-44c19.333-11.33 38.333-17 57-17 63.334 0 95 7.33 95 22m97 183q-1 20.004-57 20l-14-5q2-20 57-20zm251 201q-171-79.001-229-79-37 0-136 82-3-10.004-3-17 .001-52.001 91-79 64-18 138-18 115 0 139 111"/></svg>