<svg xmlns="http://www.w3.org/2000/svg" width="400" height="200" viewBox="-269.129 -6.564 1050.257 525.129"><path fill="#fff" d="M503.72 146.204c.842-4.672-.535-9.666-4.147-13.277-5.857-5.857-15.355-5.858-21.213 0L466.688 144.6h-3.635l-8.8-8.812 26.919-26.919C501.052 89.008 512 62.562 512 34.4c0-9.105-3.48-17.619-9.812-24.036a17 17 0 0 0-.262-.27C495.442 3.585 486.817 0 477.64 0c-28.207 0-54.662 10.962-74.469 30.844L376.215 57.79l-8.814-8.829v-3.648l11.673-11.673c5.858-5.858 5.858-15.355 0-21.213-3.611-3.611-8.604-4.988-13.276-4.147C363.331 3.374 358.265 0 352.4 0s-10.93 3.374-13.396 8.28c-4.672-.842-9.666.535-13.277 4.147-5.858 5.858-5.858 15.355 0 21.213L337.4 45.313v9.853a15 15 0 0 0 4.385 10.598L354.998 79l-83.579 83.549c-26.293 26.305-60.233 42.195-96.819 45.614V181.88l7.28-7.28h25.92c8.284 0 15-6.716 15-15 0-7.063-4.888-12.969-11.461-14.562 4.868-5.892 4.549-14.63-.966-20.144-5.513-5.514-14.25-5.834-20.144-.966-1.593-6.573-7.5-11.46-14.562-11.46-8.284 0-15 6.716-15 15v25.92l-11.674 11.674a15 15 0 0 0-4.394 10.606v33.91C63.604 217.162 0 285.515 0 368.467c0 46.886 10.398 88.596 33.717 135.241a15 15 0 0 0 26.834-.001c23.317-46.645 33.716-88.355 33.716-135.256 0-31.367 21.857-56.82 50.333-63.553v31.444c0 3.979 1.581 7.794 4.395 10.608l11.673 11.67v25.922c0 8.284 6.716 15 15 15 7.065 0 12.973-4.891 14.564-11.467a14.95 14.95 0 0 0 9.536 3.425 14.95 14.95 0 0 0 10.607-4.395c5.511-5.512 5.833-14.244.972-20.136 6.57-1.595 11.454-7.5 11.454-14.561 0-8.284-6.716-15-15-15h-25.918l-7.282-7.281v-27.371c71.422-3.519 144.854-32.226 202.305-89.619l56.135-56.135L446.22 170.2a15 15 0 0 0 10.614 4.401h9.854l11.673 11.673c5.858 5.859 15.357 5.857 21.213 0 3.612-3.611 4.989-8.604 4.147-13.276 4.906-2.466 8.279-7.531 8.279-13.396 0-5.867-3.374-10.932-8.28-13.398"/></svg>