<svg xmlns="http://www.w3.org/2000/svg" width="400" height="200" viewBox="-268 -496 2592 1296"><path fill="#fff" d="M1704 565c0 28.667-27.34 43-82 43q6 10 6 28c-.01 28.667-8.35 46.667-25 54v44l38 66H425l41-66v-43q-28.002-11-28-60 0-12 7-23l-30 1q-63 1-63-44V-453c0-28.67 14.333-43 43-43h1266c28.67.01 43 14.34 43 43zM1590 31c0-157.333-9-275.33-27-354-4.69-18.67-9.52-30.5-14.5-35.5Q1541-366 1514-372c-72-14.67-228-22-468-22-258.667.01-426.333 7.34-503 22q-28 6-35 13.5c-4.669 5-9.335 16.84-14 35.5-18.668 80.67-28.001 200.667-28 360q0 272 28 405 9 40 49 48 137 28.001 513 28c220 0 372.67-9.333 458-28 26.67-5.333 43-21.333 49-48q27-130 27-411m-65 675c-.02-20.667-10.35-31-31-31q-30 0-30 31 0 30 30 30c20.67 0 31-10 31-30m-137 30v-53h-104v53zm-135 0v-53h-104v53zm-138 0v-53h-103v53z"/></svg>