<svg xmlns="http://www.w3.org/2000/svg" width="400" height="200" viewBox="-572 -634 3160 1580"><path fill="#fff" d="M1025-399c-30.003-8.67-47.669-13-53-13q-7 0-35 15 11-30 39-30c15.333.01 31.67 9.34 49 28m23 27c-20.67-6.67-40.67-10-60-10q-28 0-66 21c19.333-27.34 39.333-41 60-41q31.005 0 66 30m12 18-34-1c-8.67 0-41.667 3.67-99 11 18-18.67 39-28 63-28 20.67 0 44 6 70 18m923 1004c-.01 29.333-20.34 56-61 80q-55.005 31-102 31c-23.33 0-78-44.333-164-133-82-86-129.33-143.667-142-173q-25.995-59-36-59-9 0-51 33-91.995 75-189 100-73.005 18-213 18-48 0-140-21.5-92-21.501-140-21.5-54 0-84 12-19 8-39 123-23 138-57 201-57 106-169 106-46 0-74-50-25.002-43-25-92 0-481 93-712c92.667-228.667 270.667-371.33 534-428q70-15 154-15c294.67 0 526 135.67 694 407 38 61.333 81.67 158 131 290 53.34 144 80 245.333 80 304M1019-504c-.01 29.33-4.68 56.67-14 82q-15-15-25-15c-12.005 0-20.672 1.67-26 5 12-21.34 18-50 18-86q0-81-111-81-97 0-280 150C441-335 353.667-271.33 319-258c-54.667 16.67-109 33-163 49Q79-173 79-76q0 145 250 358l-10 63Q149 163 139 150 33 18 33-81c0-82.667 34-138.67 102-168 68.667-20 137.333-39.67 206-59 11.333-4 48.333-33.67 111-89q270-237 419-237c98.667 0 148 43.33 148 130m625 518c-.01-12.668-8.85-24.502-26.5-35.5-17.68-11-33.51-16.5-47.5-16.5q-27 0-27 33 0 21.002 22.5 36.5c15 10.339 29.83 15.506 44.5 15.5 22.67 0 34-11 34-33m-163-117q0-28.008-36-28-45 0-45 18 0 31 42 31 39 0 39-21m-83 59q0-33-42-33-39 0-39 16 0 37 36 37 45 0 45-20m141 135q0-20-30-38-25.995-15-48-15-30 0-30 30 0 22 27 38c16.01 10 31.67 15 47 15 22.67 0 34-10 34-30M1317 7c0-24.668-16.67-37.002-50-37q-39 .005-39 29c0 22.667 16.67 34 50 34q39 0 39-26m107 171q0-25-28.5-43.5C1367 116 1358 116 1340 116q-39 0-39 30 0 25 30 44c17.34 12 35.01 18 53 18 26.67 0 40-10 40-30m158 76c-85.33 29.333-146.67 76-184 140 20.67-18 82-64.667 184-140m-522-363c-8.67-15.333-21.34-23-38-23-20.67 0-35.667 11-45 33q18-8 51-8h25c2.67-.694 5-1.361 7-2m57 157c0-29.333-21.34-44-64-44q-69 0-69 49 0 45 72 45c40.67 0 61-16.667 61-50m25 132c-.01-10.669-6.34-20.502-19-29.5-12.67-9-28-13.5-46-13.5q-28.005.008-49.5 15.5c-14.34 10.335-21.51 22.168-21.5 35.5 0 30 24.33 45 73 45q63 0 63-53m24 169c0-33.334-22.67-50-68-50s-68 16.667-68 50c0 32.667 22.67 49.001 68 49 45.34 0 68-16.333 68-49M805 191q-.003-60-56-95-49-32-117-32-73 0-135 46-69 49-69 119 0 61 54 99 49 36 117 36 72 0 136-49 70.001-54 70-124m-39 283-64-40q-38-21-70-21-19 0-86 9 78 12 220 52m331-428c0 28-14.67 42-44 42q-54-.002-54-37c.002-23.333 17.34-35 52-35 30.67 0 46 10 46 30m29 141c0 20.667-17.67 31-53 31-34.67 0-52.01-9.667-52-29 0-26 17.33-39 52-39 35.34 0 53.01 12.333 53 37m-419-28q0 25-28 25-12 0-36-6.5c-24-6.5-28.333-6.5-37-6.5q-31 0-52.5 28c-21.5 28-26.833 28-37.5 28q-26 0-33-26 21-.003 39.5-53.5Q541 93.997 598 94q32 0 107 52 2 6 2 13m73 40q0 35-31 77.5c-31 42.5-42.667 43.833-66 46.5q-29 24-81 24-153 0-153-116 0-43 32-82.5T555 96q-46 30-48 43-4 23.003-24 51.5-20 28.5-20 34.5 0 37 52 48 52.002 11.002 52 24-8.006 6-8 20 .01 21 13 21 18 0 41-12c23-12 27.667-12 37-12q11 .006 23 4 33.003-6 46-32-15-3.003-15-19 0-13 24.5-48c24.5-35 24.5-41 24.5-53q0-43-139-86 9.004-1.034 19-1 62 0 120 39 27 19 27 81m-128 3q-.003 35.001-56 35-30 0-30-26 .003-34.002 49-34 37.002 0 37 25m90-33q-.002 27-33.5 61.5Q674.998 265 675 275q0 5.018 13.5 6.5Q702 283 702 296q0 12-10 12-7-.011-20-2-13-2.011-20-2-20 .003-45 14.5-25 14.503-30 14.5l-7-6q-2.025-4-2-8 0-5.001 6-11.5 6-6.5 6-10.5-.002-23-50-27-53-4-59-48 30 31 114 31 48.001-.003 91-25 51-29 51-73 0-10.004-3-20 18 14.002 18 34m313-136q0-6-18-6c-15.34 0-23 6-23 18 0 .667 7.67 1 23 1q18-.009 18-13m22 139q0-6-18-6c-15.33 0-23 6-23 18 .01.667 7.68 1 23 1q18-.01 18-13m-434 30q-35.001 6-68 16 12.004 11.006 28 11 23 0 40-27"/></svg>