<svg xmlns="http://www.w3.org/2000/svg" width="400" height="200" viewBox="-493 0 1970 985"><path fill="#fff" fill-rule="evenodd" d="M492 0c271.72 0 492 220.5 492 492.5 0 102-30.98 196.758-84.03 275.36l-4.11 5.79-.03-.04v.09l.03-.05L984 861.87 861 985l-88.14-88.23.23-.16h-.39l.16.16-5.78 4.12C688.56 953.99 593.9 985 492 985c-115.7 0-226.62-36.19-318.59-100.98l-6.3-4.73.06-.07h-.15l.09.07-14.7 14.71.94 6.18c.27 2.59.4 5.21.4 7.87 0 42.5-34.42 76.95-76.87 76.95C34.42 985 0 950.55 0 908.05s34.42-76.96 76.88-76.96c2.65 0 5.27.14 7.85.4l6.18.94 9.81-9.82.15.14v-.28l-.15.14-4.59-4.43a553 553 0 0 1-64.76-80.046l76.25-76.337C204.02 762.49 337.3 819.42 476.63 819.42c59.01 0 114.54-14.97 163-41.31l9.27-5.34v-.08L322.88 446.328l-92.26 92.344L92.25 400.156l243.66-243.909c54.25 16.859 113.34 4.318 156.09-33.122l76.88 76.953-123 123.125 326.07 326.409-.05.086h.14l-.09-.086 5.37-9.337c26.32-48.503 41.27-104.087 41.27-163.166C818.59 265.824 688.84 76.273 492 0"/></svg>