<svg xmlns="http://www.w3.org/2000/svg" width="400" height="200" viewBox="0 -169.499 4399.998 2199.999"><path fill="#fff" fill-rule="evenodd" d="M4305.52 872.712c-14.69-4.996-39.51 14.476-77.17 59.569-50.24 61.946-170.73 240.494-170.73 253.246 0 12.756 73.95-4.553 116.84-26.416 53.89-28.24 105-80.167 128.75-132.999 18.27-40.084 24.64-111.14 13.71-140.289-2.75-7.062-6.5-11.444-11.4-13.111M662.759 827.35c-203.606 20.95-325.039 50.106-353.342 84.725-23.74 28.236 32.867 92.915 149.736 170.346 61.173 40.084 151.564 85.629 189.91 94.74l24.653 6.378V1004.99c0-137.556-2.737-178.55-10.957-177.64M1908.94 694.21c4.68-.46 9.93 2.05 18.15 7.06 10.96 7.29 23.74 27.33 30.13 45.55 14.61 41.9 29.22 221.359 31.96 385.335 2.74 116.603.91 131.175-14.61 148.484-22.83 25.508-62.09 24.599-94.05-2.733l-25.56-21.862v-213.163c0-219.541 10.04-305.171 39.26-337.971 5.93-6.83 10.04-10.24 14.72-10.7m546.66-1.71c71.33 1.49 139.81 7.41 164.92 16.97 43.82 16.4 59.34 37.35 45.65 59.21-19.18 30.98-55.7 39.18-219.13 48.29-172.57 9.11-253.82 20.04-274.83 38.26-21.9 18.216 4.57 25.503 164.35 44.632 186.26 22.775 239.22 37.351 276.65 77.431 64.83 67.412 59.35 184.014-11.87 251.426-50.22 47.37-107.74 65.591-208.17 66.503-115.04 0-185.35-23.687-252.91-85.633-39.26-36.438-46.56-47.37-50.22-84.72-4.56-40.081-2.74-45.546 23.74-70.141 57.52-53.748 186.26-58.305 321.39-12.756 55.7 20.042 66.65 40.084 31.95 61.946-41.08 27.329-112.3 27.329-181.69.909-33.78-12.752-77.61-23.684-97.69-23.684-31.04 0-38.35 3.645-47.48 22.775-12.78 28.24-.91 41.905 46.56 58.301 39.26 12.756 150.66 12.756 212.74 0 71.22-14.576 143.35-51.923 156.13-78.342 9.13-20.043 7.3-25.508-14.61-43.726-31.04-27.328-119.61-46.458-293.08-62.858-147.91-14.576-176.22-25.507-189-71.965-22.83-85.628 64.82-169.438 214.56-203.148 36.52-8.19 110.71-11.16 182.04-9.68m1579.18-.71c4.56 1.82 8.22 20.95 7.31 42.81-.91 27.33-15.53 62.86-51.14 125.72-61.17 108.399-95.85 211.337-80.36 236.845 4.6 8.198 25.59-12.752 68.48-70.145 113.22-153.041 248.34-274.2 304.05-274.2 31.96 0 73.04 34.62 94.97 79.26 29.21 59.208 29.21 174.902 0 248.688-54.8 139.377-196.32 245.048-348.78 261.445l-53.89 5.466-17.34 60.125c-37.43 127.533-46.55 164.883-74.85 296.972-15.53 74.7-33.81 142.11-40.18 149.398-10.06 10.932-17.37 9.11-45.64-8.199-42.02-26.418-57.55-50.103-64.86-101.116-8.19-64.679 28.3-261.445 73.07-392.627 39.24-113.869 39.24-117.511 26.46-154.862-45.64-130.266 21-324.303 165.27-479.16 15.53-16.4 31.96-28.24 37.43-26.42m-382.02-19.66c73.05-.92 112.32 17.3 142.47 68.32 31.92 54.66-14.62 75.61-177.14 76.52h-87.67l-10.02 28.24c-21 61.03-19.19 62.854 74.85 62.854s106.85 6.378 106.85 50.103c0 44.637-11.88 50.102-118.72 50.102-63.89 0-102.26 3.642-111.38 10.932-16.43 12.752-48.39 105.671-40.17 113.87 2.75 3.644 52.04-.913 108.65-9.111 133.31-20.039 148.81-20.039 165.24 4.557 35.61 50.103 4.59 87.453-122.34 146.663-64.83 30.973-87.63 37.351-138.78 37.351-72.13.909-101.34-15.488-132.38-76.522-26.48-50.103-26.48-84.718-1.83-155.774 13.7-39.172 18.26-67.412 14.61-93.828-6.39-44.637-.91-55.568 32.88-68.324 23.74-9.107 39.24-33.706 55.67-90.183 5.5-14.58 2.75-21.87-10.03-25.51-51.13-16.39-69.39-27.33-83.08-47.37-13.7-20.95-13.7-22.77 1.82-33.7 8.22-6.38 61.17-18.22 117.78-26.42s112.32-16.4 125.09-18.22c12.78-1.82 52.05-3.64 87.63-4.55m-619.72-71.69c12.46-5.46 33.52 7.52 64.33 38.95 83.09 87.45 134.22 234.113 134.22 387.154 0 83.809-2.74 102.026-23.74 147.576-25.57 55.568-65.74 89.274-106.83 89.274-33.78 0-89.47-64.676-146.08-168.526-102.26-189.48-109.57-198.59-111.39-134.823-1.83 119.335-16.44 302.44-25.57 319.746-20.08 37.351-72.13 21.863-93.13-27.328-43.82-102.939 31.04-503.763 94.96-515.603 27.39-5.47 57.52 30.06 168 197.677 73.04 109.316 107.73 154.862 114.12 148.488 15.52-15.488-6.39-159.419-47.47-318.835-20.09-76.52-33.78-144.85-31.04-152.13 2.28-5.92 5.47-9.8 9.62-11.62M2157.77 254.7c-13.92 1.26-31.73 8.32-60.94 21.98-32.87 15.49-74.87 48.28-125.09 99.3-42 41.9-75.78 81.07-75.78 86.53 0 18.23 30.13 21.87 94.04 10.94 124.18-21.87 225.52-93.83 225.52-160.33 0-22.78-6.39-35.53-20.08-45.55-13.7-9.56-23.74-14.12-37.67-12.87m-233.9-8.66c-32.53 8.49-100.5 52.73-123.78 86.21-22.82 33.7-30.13 79.25-14.6 88.36 4.56 2.73 18.26-10.02 31.04-29.15 13.69-18.22 46.56-56.48 74.87-83.81 27.39-27.33 50.21-52.83 50.21-56.48 0-6.83-6.9-7.97-17.74-5.13m135.07-118.19c36.98 1.94 71.21 9 87.19 20.38 13.7 10.03 44.74 28.24 67.57 41 47.47 25.51 84 72.87 84 109.31 0 40.09-44.74 115.7-94.05 160.33-26.48 22.78-82.17 58.3-124.17 79.26-73.96 36.43-81.26 38.26-162.52 38.26-77.61.91-86.74 2.73-99.52 20.95-7.3 10.93-19.17 20.04-25.56 20.04-17.35 0-42-40.08-42-68.32 0-12.76-10.05-43.73-22.83-68.32-43.82-85.63-24.65-162.16 61.17-242.32 51.13-48.28 103.18-79.25 167.09-100.21 26.93-9.11 66.65-12.29 103.63-10.36M431.877.88c82.973 2.51 168.34 10.25 224.49 22.09C1134.8 125 1562.09 410.13 1714.57 727.15c81.26 170.348 51.13 331.588-91.3 472.786-139.69 140.288-415.43 209.521-674.729 169.438-120.523-18.218-119.611-18.218-119.611 6.377 0 39.172-24.65 61.038-68.475 61.038-52.042 0-74.871-27.332-83.087-99.297-5.48-51.927-6.389-53.748-48.39-73.79-75.782-36.435-188.998-114.781-253.824-175.815-142.433-134.82-144.259-222.274-5.477-295.147 60.259-31.89 176.215-71.06 248.345-84.72 27.389-5.47 53.866-14.58 57.522-20.96 3.648-5.46 7.304-35.52 7.304-65.59.912-111.13 27.389-241.4 49.302-241.4 20.088 0 52.042 41.9 65.738 87.45 7.305 24.6 16.437 82.9 19.173 128.45l5.48 84.72h55.694c75.782 0 215.475 21.86 293.085 46.46 115.95 35.53 178.04 93.83 178.04 168.524 0 69.236-69.39 128.446-139.69 119.336-55.7-7.287-59.35-20.039-16.44-46.459 84.91-53.747 28.3-92.919-186.25-128.441-44.746-7.29-105.005-13.67-132.397-13.67h-51.13l3.652 197.68c1.825 109.316 6.392 202.235 10.957 205.877 3.652 4.557 49.305 11.843 100.435 17.309 231.913 25.507 484.813-40.993 583.423-152.129 70.31-80.167 92.22-190.392 56.61-290.597-59.35-167.62-222.78-336.15-454.69-468.24-169.823-96.56-376.17-168.52-596.209-207.7-153.39-26.41-465.647-17.3-465.647 14.58 0 9.11 22.827 18.22 45.652 18.22 25.566 0 39.261 22.77 22.826 36.44-18.26 15.49-101.347 7.29-120.52-10.93-35.608-35.53 30.13-129.36 106.824-152.13 22.826-6.38 70.304-18.22 105-24.6C268.331 1.11 348.905-1.62 431.877.88"/></svg>