<svg xmlns="http://www.w3.org/2000/svg" width="400" height="200" viewBox="-8.5 0 2474 1237"><path fill="#fff" fill-rule="evenodd" d="m1917.31 841.8 30.85 82.1c-26.72 1.1-52.18-.2-61.39-.77Zm-453.83-29.71c14.82 0 43.13 3.41 66.06 26.27 20.24 20.18 30.5 49.67 30.5 87.65 0 35.19-7.69 62.95-22.83 82.51-16.73 21.6-42.32 32.55-76.06 32.55-23.32 0-43.31-8.15-59.45-24.25-25.94-25.86-35.15-65.71-35.15-92 0-26.79 8.59-64 32.71-88.04 16.44-16.39 38.05-24.69 64.22-24.69m646.38-9.69-53.96 3.23 2.4 11.29c.76.18 1.86.25 3.71.38 7.56.5 25.24 1.69 29.13 12.58.77 2.11 1.53 5.77 2.02 18.23.36 46.96.94 171.27-.84 181.9-.31 1.9-6.58 5.06-11.97 6.04-4.5.65-8.1 1.04-11.18 1.38-6.89.75-9.43 1.03-12.11 4.31-1.98 2.43-2.14 4.58-1.94 5.97.25 1.57 1.11 2.91 2.34 3.73 1.57 1.06 4.47 1.06 20.04.52 6.81-.24 15.3-.53 23.87-.59 9.66-.07 19.41.28 25.86.51 15.44.55 19.98.61 21.99-1.28 2.01-1.91 2.84-5.61-.1-9.24-2.71-3.3-5.28-3.58-12.62-4.37-2.62-.29-6.22-.69-11.05-1.37-3.71-.68-10.68-1.92-11.49-5.82-.93-21.46-1.14-141.84-1.19-172.71l30.4 33.06c46.17 50.36 123.45 134.63 158.25 168.69l8.99-.79c.28-.01.54-.14 2.32-2.12l.28-.75-.54-32.57c.1-15.66-5.34-197.37-5.4-198.49-.05-1.1 5.31-4.25 11.93-5.45 4.61-.65 8.18-1.04 11.17-1.36 6.87-.74 9.44-1.01 12.14-4.32 1.95-2.43 2.13-4.57 1.93-5.93-.24-1.56-1.07-2.92-2.31-3.75-1.6-1.08-4.49-1.07-20.04-.53-6.81.22-15.3.52-23.91.59-9.28.07-18.42-.25-25.75-.5-15.53-.56-20.06-.63-22.09 1.27-2.01 1.91-2.83 5.61.1 9.23 2.71 3.31 5.28 3.59 12.15 4.32 2.31.25 6.19.67 11.58 1.45 3.44.61 10.63 1.92 11.46 6.6 1.29 29.52 5.52 127.46 6.83 170.74l-160.77-176.43c-8.16-8.56-17.05-15.15-21.63-17.65m-641.26-6.12c-44.8 0-82.03 14.14-107.71 40.91-22.46 23.42-34.83 55.14-34.83 89.33 0 35.69 13.81 69.92 37.91 93.93 24.62 24.54 58.9 37.52 99.14 37.52 78.3 0 114.73-54.49 116.24-56.82l.03.01c21.81-32.77 23.65-55.85 23.65-76.67 0-34.03-13.06-65.79-36.77-89.43-25.11-25.01-59.78-38.78-97.66-38.78m460.1-6.04-12.78 1.84c-5.54 13.58-26.37 68.75-44.75 117.41l-.87 2.31c-20.36 53.92-41.39 109.66-43.42 113.69-2.52 5.03-12.14 9.21-16.54 9.81-5.67.74-9.8 1.12-12.97 1.42-6.46.58-9.12.82-12.57 3.63-2.47 2.05-2.87 4.22-2.75 5.68.18 2.5 1.94 4.42 3.54 5.4 1.51.93 3.97.93 17.11.53 5.79-.18 12.99-.39 21.24-.48 8.7-.09 16.54.17 22.51.38 9.49.32 17.7.6 26.26-.22 1.99-.19 3.59-1.1 4.5-2.56.92-1.5 1.06-3.36.35-5.25-2.57-6.15-6.3-6.5-13.09-7.13-2.44-.22-5.37-.48-9.28-1.07-2.31-.45-6.19-1.2-7.46-3.38-.63-1.07-.62-2.62.04-4.6l17.78-47.73 3.41-9.14 10.68-28.58c8.34-.45 35.44-1.54 75.57.61l9.77 26.16c13.05 35.07 22.26 60.41 22.68 63.38-1.14 1.88-6.4 2.92-8.64 3.36-4.39.66-7.8 1.05-10.65 1.36-6.55.73-9.54 1.07-11.19 5.01-1.5 3.67-.04 7.42 2.09 9.08 2.17 1.47 6.88 1.39 22.91.87 7.58-.24 15.04-.49 23.2-.55 9.4-.09 18.49.29 25.15.57 12.01.48 17.92.66 21.37-.76 1.25-.82 2.69-2.49 2.98-4.72.17-1.38-.02-3.48-1.99-5.68-2.83-3.16-4.75-3.85-15.86-5.64-4.27-.73-12.25-2.08-15.04-6.75-1.75-4.07-15.98-41.14-32.47-84.03-34.09-88.78-58.33-151.77-60.82-154.23m-104.09-1c-4.69 0-8.34 6.86-14.47 19.1-.25.79-1.66 1.18-2.38 1.18l-157.22-.66c-20.79.43-23.14-3.38-26.14-8.21l-1.52-2.86c-3.56-6.6-4.4-8.15-9.22-8.15-4.28 0-6.33 4.26-6.87 6.76l-16.14 64.11c-.58 5.18 1.8 6.97 3.27 7.58 3.97 1.66 8.62-1.75 11.4-5.19 4.75-5.9 11.46-14.97 13.84-18.54 10.41-12.96 18.71-17.62 31.67-17.75l46.39-.15-.09 21.03c-.2 55.28-.64 170.3-1.97 178.82-.6 3.43-13.03 8.19-19.02 9.26-4.49.64-8.04 1.04-11.18 1.37-6.84.73-9.41 1.01-12.12 4.31-1.56 1.93-2.13 4.3-1.58 6.53.47 1.93 1.7 3.4 3.64 4.17 5.11 1.05 10.47.79 20.57.29 8.79-.42 20.83-.99 39.33-.99 14.91.08 27.87.54 38.28.89 19.47.67 23.08.67 24.9-.73 3.06-2.36 3.56-6.02 1.27-9.53-2.69-4.12-7.13-4.63-16.88-5.79l-9.42-1.2c-5.02-.92-14.91-4.44-15.9-8.78-2.52-10.99-2.25-79.91-2.05-135.59.1-25.93.19-50.41-.04-64.19l30.61-.1c34.02-.02 43.17-.02 49.19 26.16 2.97 12.95 4.29 17.43 10.05 17.43 4.2 0 6.91-2.46 7.27-6.56l.05-63.37c0-8.77-4.1-10.64-7.52-10.65M947.58 679.21l-15.37 4.9c-25.94 123.17-123.27 220.11-246.8 245.69l-4.77 15.3c135.28-24.7 241.92-131 266.94-265.89m-654.384-.47-.009.02c24.801 134.95 131.302 241.4 266.459 266.35l-4.936-15.36C431.301 903.86 334.188 806.73 308.535 683.5Zm327.349-60.1-.011 421.38 99.206-319.38 294.73-94.06-312.29 67.19Zm60.775-326.81 4.94 15.36c123.41 25.89 220.52 123.01 246.18 246.24l15.33 4.76.01-.02c-24.8-134.95-131.3-241.39-266.46-266.34m-120.993-.05c-135.272 24.71-241.918 131.01-266.939 265.9l15.369-4.9c25.941-123.17 123.275-220.12 246.808-245.7Zm68.332-66.76 67.311 311.69-75.433 81.64.044.04h423.079L722.9 519.13Zm1095.801-2.7 30.85 82.11c-26.72 1.1-52.18-.21-61.39-.78ZM620.437 196.87l-99.209 319.38-294.723 94.06 312.283-67.19 81.637 75.13Zm1571.093-4.28c14.82 0 43.12 3.41 66.05 26.27 20.25 20.18 30.5 49.67 30.5 87.65 0 35.19-7.68 62.95-22.83 82.51-16.73 21.6-42.32 32.56-76.06 32.56-23.31 0-43.3-8.16-59.45-24.25-25.94-25.86-35.15-65.72-35.15-92 0-26.8 8.59-64 32.71-88.05 16.44-16.38 38.05-24.69 64.23-24.69m-810.08-9.72-53.96 3.24 2.4 11.29c.76.17 1.86.24 3.71.38 7.56.5 25.24 1.68 29.13 12.57.77 2.11 1.53 5.77 2.02 18.23.36 46.96.94 171.27-.84 181.9-.31 1.91-6.58 5.07-11.97 6.05-4.5.64-8.1 1.04-11.18 1.38-6.89.74-9.43 1.02-12.11 4.3-1.98 2.43-2.14 4.58-1.93 5.97.25 1.57 1.1 2.92 2.33 3.74 1.57 1.05 4.47 1.05 20.04.51 6.81-.23 15.3-.53 23.87-.58 9.66-.08 19.42.27 25.86.51 15.44.54 19.98.6 21.99-1.29 2.01-1.9 2.84-5.61-.1-9.24-2.7-3.29-5.27-3.57-12.62-4.36-2.61-.3-6.21-.69-11.05-1.38-3.71-.67-10.68-1.92-11.48-5.81-.94-21.47-1.15-141.85-1.19-172.71l30.39 33.06c46.17 50.36 123.45 134.63 158.25 168.69l8.99-.79c.28-.02.54-.15 2.32-2.13l.28-.75-.54-32.56c.1-15.67-5.34-197.37-5.39-198.5-.06-1.1 5.3-4.25 11.92-5.45 4.62-.64 8.19-1.04 11.17-1.36 6.87-.73 9.44-1.01 12.15-4.32 1.94-2.43 2.13-4.57 1.92-5.93-.24-1.55-1.07-2.91-2.31-3.75-1.6-1.08-4.49-1.07-20.03-.52-6.82.22-15.31.52-23.92.58-9.28.08-18.42-.25-25.75-.5-15.52-.55-20.06-.63-22.09 1.28-2.01 1.9-2.83 5.61.11 9.22 2.7 3.31 5.27 3.59 12.14 4.32 2.31.25 6.19.68 11.58 1.45 3.44.62 10.63 1.92 11.46 6.61 1.29 29.52 5.52 127.46 6.83 170.74l-160.77-176.43c-8.16-8.57-17.05-15.16-21.63-17.66m815.19-6.09c-44.79 0-82.03 14.14-107.71 40.91-22.46 23.43-34.83 55.14-34.83 89.33 0 35.69 13.81 69.92 37.92 93.94 24.61 24.54 58.9 37.51 99.13 37.51 78.3 0 114.73-54.48 116.25-56.81h.02c21.81-32.77 23.65-55.85 23.65-76.67 0-34.03-13.06-65.79-36.77-89.42-25.11-25.01-59.77-38.79-97.66-38.79m-460.8-6.02-12.77 1.85c-5.54 13.57-26.37 68.74-44.75 117.4l-.87 2.31c-20.36 53.92-41.39 109.66-43.42 113.69-2.52 5.04-12.15 9.21-16.54 9.81-5.67.74-9.8 1.13-12.97 1.42-6.46.58-9.12.82-12.57 3.63-2.47 2.05-2.87 4.22-2.75 5.68.18 2.51 1.94 4.42 3.54 5.4 1.51.93 3.97.93 17.11.53 5.79-.17 12.99-.39 21.24-.48 8.7-.09 16.54.17 22.51.38 9.49.32 17.7.6 26.26-.22 1.98-.19 3.59-1.1 4.5-2.56.92-1.5 1.05-3.36.35-5.24-2.57-6.15-6.3-6.51-13.09-7.14-2.44-.21-5.38-.48-9.28-1.06-2.31-.46-6.19-1.2-7.47-3.39-.62-1.07-.61-2.62.05-4.59l17.78-47.74 3.4-9.14 10.68-28.58c8.35-.45 35.45-1.54 75.58.62l9.77 26.15c13.04 35.07 22.25 60.41 22.68 63.39-1.15 1.87-6.4 2.91-8.64 3.35-4.39.66-7.8 1.05-10.65 1.36-6.55.73-9.55 1.07-11.19 5.01-1.5 3.67-.04 7.42 2.08 9.08 2.18 1.48 6.89 1.39 22.92.88 7.58-.25 15.04-.49 23.2-.56 9.4-.09 18.49.29 25.14.57 12.02.48 17.93.66 21.38-.76 1.25-.82 2.69-2.49 2.98-4.72.17-1.37-.02-3.48-1.99-5.68-2.83-3.16-4.75-3.85-15.86-5.64-4.28-.73-12.25-2.07-15.04-6.75-1.75-4.07-15.99-41.14-32.47-84.03-34.09-88.78-58.33-151.77-60.83-154.23m312.45-1.01c-4.68 0-8.34 6.85-14.46 19.09-.25.79-1.66 1.19-2.38 1.19l-157.23-.66c-20.79.42-23.14-3.39-26.13-8.22l-1.53-2.85c-3.55-6.61-4.39-8.16-9.21-8.16-4.29 0-6.33 4.26-6.87 6.77l-16.15 64.1c-.57 5.19 1.81 6.97 3.28 7.59 3.96 1.65 8.62-1.76 11.4-5.2 4.74-5.9 11.45-14.97 13.83-18.54 10.42-12.96 18.72-17.61 31.67-17.75l46.39-.14-.08 21.02c-.21 55.29-.65 170.3-1.97 178.82-.6 3.43-13.03 8.19-19.02 9.26-4.5.64-8.04 1.04-11.18 1.37-6.85.74-9.42 1.01-12.12 4.31-1.57 1.93-2.13 4.3-1.59 6.53.47 1.93 1.71 3.4 3.65 4.17 5.11 1.06 10.47.79 20.56.3 8.8-.43 20.83-1 39.34-1 14.91.09 27.86.54 38.28.89 19.46.68 23.08.68 24.9-.73 3.06-2.36 3.55-6.02 1.26-9.53-2.68-4.12-7.12-4.63-16.87-5.79l-9.42-1.2c-5.02-.92-14.91-4.43-15.91-8.78-2.51-10.98-2.25-79.91-2.04-135.58.1-25.94.19-50.42-.05-64.2l30.61-.1c34.02-.02 43.18-.02 49.2 26.17 2.97 12.94 4.29 17.42 10.05 17.42v.01c4.2 0 6.9-2.47 7.27-6.56l.04-63.38c0-8.77-4.09-10.63-7.52-10.64M629.755 0l611.215.04v.07H2457v609.12h-611.13v-67.97h-18.61v67.97h-611.13v-.08h-130.29v9.28h-.16v9.21h155.15v.2h586.36v68.03h18.61v-68.03h611.07V1237H1216.06v-.21H629.578v-154.61h-9.045v.13h-9.318v154.62L0 1236.9V627.78h155.134v-9.28h42.035l320.904 99.3 94.237 294.11-67.315-311.68 75.462-81.67-.067-.06H155.286v-9.26H.142V.1l611.25-.01V154.7h9.046v-.08h9.317Z"/></svg>