<svg xmlns="http://www.w3.org/2000/svg" width="400" height="200" viewBox="-415.5 0 1686 843"><path fill="#fff" fill-rule="evenodd" d="M758.82 482.25C733.77 617.12 627.02 723.4 491.6 748.1l4.77-15.3c123.66-25.57 221.1-122.5 247.07-245.64Zm-655.073-.46 15.355 4.76c25.68 123.21 122.895 220.31 246.438 246.2l4.94 15.36c-135.302-24.95-241.915-131.38-266.742-266.3Zm327.693-60.093 81.72 75.113 312.61-67.175-295.03 94.035L431.43 843ZM0 421.554h431.28l.07.062-75.54 81.654L423.2 814.9l-94.34-294.06L7.619 421.558H0ZM492.28 94.941c135.3 24.945 241.91 131.372 266.74 266.299l-.01.017-15.35-4.756c-25.68-123.211-122.9-220.317-246.44-246.203Zm-121.12-.044-4.77 15.298c-123.663 25.576-221.098 122.504-247.067 245.649l-15.385 4.903c25.048-134.869 131.805-241.148 267.222-265.85m68.4-66.751 94.34 294.058L855 421.446H431.47l-.04-.041 75.52-81.628ZM431.33 0l-.01 421.302-81.72-75.113-312.614 67.176 295.034-94.039Z"/></svg>