<svg xmlns="http://www.w3.org/2000/svg" width="400" height="200" viewBox="-699.441 0.614 2800.092 1400.046"><path fill="#fff" fill-rule="evenodd" d="m.58 704.65 139.76-141.37 31.47 31.12 124.07 122.65L421.16 840.9l33.83-34.22 71.3-72.12 33.83-34.22-249.35-246.505-31.47-31.115L696.59.614 837.96 140.37l-31.11 31.474L684.2 295.906 560.34 421.191l34.23 33.834 72.11 71.295 34.23 33.83 246.5-249.345 31.12-31.474 422.1 417.289-139.75 141.37-216.66-214.18-63.55-62.83-.62-.61-33.83 34.23-105.13 106.34.62.6 63.55 62.84 124.07 122.64 92.58 91.54-417.29 422.1-141.37-139.75 214.18-216.66 62.84-63.55.6-.62-34.22-33.83-106.34-105.13-.61.62-62.83 63.55-122.65 124.07-91.53 92.59Z"/></svg>