<svg xmlns="http://www.w3.org/2000/svg" width="400" height="200" viewBox="-430.229 40.818 2010.832 1005.416"><path d="M573.938 40.826c-6.073.319-8.154 10.432-9.854 40.963-2.12 38.056-12.632 80.992-28.105 114.791-6.765 14.776-7.927 21.564-7.979 46.574l-.06 29.278-47.069 48.289-47.068 48.289v145.14h15.203v266.041h.004v266.043h252.36V514.151h15.202l-.103-72.213-.104-72.211-47.025-48.03-47.026-48.027v-28.365c0-23.243-1.303-31.317-7.22-44.707-17.583-39.792-26.817-75.959-28.239-110.596-1.675-40.845-2.63-45.926-9.109-48.412-1.421-.546-2.684-.823-3.808-.764m.558 333.67a65.33 65.33 0 0 1 65.332 65.332 65.33 65.33 0 0 1-65.332 65.33 65.33 65.33 0 0 1-65.33-65.33 65.33 65.33 0 0 1 65.33-65.332m-2.074 4.494-10.715 62.219 11.06-.346h12.1zm-96.05 168.606h27.362v133.78h-27.363v-133.78m57.767 0h27.365v133.78h-27.365zm54.73 0h27.363v133.78H588.87v-133.78m57.768 0h24.324v133.78h-24.324zM476.37 714.822h27.363v135.629l-11.988.264c-6.593.145-12.75-.498-13.682-1.43-.931-.932-1.693-31.567-1.693-68.078zm57.768 0h27.365v133.145l-12.32 1.174c-6.776.645-12.933.561-13.682-.188s-1.363-31.235-1.363-67.746zm54.73 0h27.363v66.89c0 63.914-.259 66.892-5.832 66.892-3.207 0-7.653.575-9.88 1.279-11 3.474-11.65-.353-11.65-68.422zm57.768 0h24.441l-.818 67.647-.819 67.646-11.402.364-11.402.363zM476.365 872.928h27.365v67.65l-.007.002v67.65l-9.88.291c-18.15.54-17.478 3.191-17.478-68.957zm57.774 0h27.482l-.818 67.4c-.903 74.328.366 70.038-19.823 66.99l-6.841-1.03zm54.73 0h27.363v66.89c0 63.913-.259 66.891-5.832 66.891-3.207 0-7.653.576-9.88 1.28-11 3.474-11.65-.356-11.65-68.425zm57.768 0h24.324v68.41c0 37.626-.342 68.18-.76 67.9s-5.89-1.047-12.162-1.703l-11.402-1.193z" style="fill:#fff"/></svg>