<svg xmlns="http://www.w3.org/2000/svg" width="400" height="200" viewBox="-514.115 -8.808 1409.231 704.615"><path fill="#fff" fill-rule="evenodd" d="m153.57 452.85-3.21 11.49c-5.38 19.3-12.26 45.4-12.26 46.53 0 .58 23.19 1.06 51.52 1.06s51.52-.73 51.53-1.64c0-.9-3.14-14.19-7-29.54l-7.01-27.9zM184.37 0h11.04v19.95l8.2 3.416c19.81 8.264 11.31 16.716 15.23 47.675s5.63 98.039 8.28 138.079l10.18 103.03c4.03 26.86 9.36 53.49 16.17 81.07 7.98 32.3 8.43 33.37 13.91 33.37 3.11 0 7.85 1.54 10.53 3.41 8.22 5.74 5.23 18.48-4.33 18.48-2.17 0-3.96.74-3.98 1.64s4.54 14.63 10.12 30.52l10.13 28.88 10.17 5.04c11.88 5.89 14.54 13.8 7.12 21.2l-4.4 4.39 8.41 19.36c9.42 21.67 31.56 64.09 41.54 82.87s13.64 22.39 18.36 29.82l9.95 14.74-46.43-.03-46.43-.04-2.68-16.9c-11.62-73.52-89.09-109.29-148.89-68.76-24.68 16.73-37.13 39-43.37 77.58L91.87 687H45.93C20.67 687 0 686.52 0 685.95c0-.58 4.76-8.21 10.57-16.96 20.07-30.2 48.93-85.25 62.01-118.3 4.11-10.39 4.11-10.53-.34-16.54-6.41-8.66-3.05-16.72 8.42-20.15 8.51-2.54 8.52-2.57 18.75-31.3 5.63-15.81 10.23-29.87 10.22-31.23-.03-1.37-1.9-2.97-4.19-3.57-5.74-1.5-8.87-8.2-6.62-14.16 1.33-3.5 4.3-5.27 10.53-6.27l8.68-1.38 4.48-16.71c8.08-30.09 14.41-59.52 19.05-88.66l10.98-94.6c3.16-41.28 6.56-119.64 10.56-153.045.96-30.349-3-39.509 13.44-47.36l8.01-4.612z"/></svg>