<svg xmlns="http://www.w3.org/2000/svg" width="400" height="200" viewBox="-1619.132 0.668 4480.003 2240.002"><path fill="#fff" fill-rule="evenodd" d="M.37 2237.24c0-1.89 15.5-26.78 34.44-55.32 65.37-98.48 159.38-278.05 201.97-385.82 13.4-33.9 13.39-34.35-1.11-53.96-20.89-28.24-9.92-54.53 27.42-65.71 27.72-8.3 27.76-8.38 61.08-102.09 18.34-51.58 33.31-97.42 33.28-101.87-.08-4.45-6.18-9.68-13.64-11.64-18.69-4.88-28.9-26.74-21.56-46.16 4.32-11.43 14-17.2 34.29-20.45l28.28-4.52 14.6-54.49c52.59-196.3 82.47-383.87 91.25-572.896 4.36-93.725 3.98-97.484-10.06-101.94-25.38-8.053-24.15-54.114 1.45-54.114 7.45 0 10.29-17.925 12.14-76.724 3.12-98.983 15.43-126.059 68.96-151.665l37.3-17.843-1.55-178.428-1.55-178.429 18.07-2.145c25.15-2.985 37 13.017 27.71 37.427-4.12 10.835-7.29 84.127-7.29 168.495v149.32l26.68 11.142c64.53 26.952 80.42 58.232 80.42 158.294 0 73.184.83 77.535 16.07 84.217 22.17 9.721 21.75 40.303-.67 49.867-16.58 7.068-16.7 7.94-12.17 89.215 10.37 186.177 35.41 353.557 79.8 533.497 25.99 105.34 27.45 108.85 45.3 108.85 10.14 0 25.58 5 34.31 11.11 26.76 18.73 17.03 60.26-14.12 60.26-7.07 0-12.89 2.41-12.94 5.35-.07 2.94 14.78 47.74 32.94 99.55l33.02 94.2 33.11 16.43c38.71 19.2 47.37 45 23.2 69.15l-14.34 14.33 27.4 63.13c30.66 70.67 102.76 214.69 135.3 270.28 14.87 25.4 19.08 38.74 13.88 43.94-5.21 5.2-4.29 7.13 3.02 6.35 5.78-.61 25.08 20.52 42.91 46.97l32.4 48.08-151.24-.12-151.24-.12-8.7-55.1c-37.86-239.79-290.21-356.48-484.99-224.27-80.39 54.57-120.93 127.19-141.26 253.03l-4.33 26.77H149.99c-82.29 0-149.62-1.55-149.62-3.43m785.48-572.9c0-2.94-10.23-46.3-22.8-96.35l-22.85-91H500.58l-10.44 37.47c-17.54 62.96-39.94 148.06-39.94 151.75 0 1.91 75.51 3.48 167.8 3.48s167.82-2.4 167.85-5.35"/></svg>