<svg xmlns="http://www.w3.org/2000/svg" xmlns:xlink="http://www.w3.org/1999/xlink" width="400" height="200" viewBox="-95.68 3.409 541.935 270.967"><path id="a" d="M206.835 111.748q6.603 0 11.045 4.659 4.587 4.802 4.587 12.486 0 7.635-4.587 12.462-4.442 4.658-11.237 4.658-6.82 0-11.262-4.658-4.586-4.85-4.586-12.414 0-7.78 4.586-12.534 4.49-4.659 11.454-4.659m-.36 4.106q-4.73 0-7.828 3.578t-3.097 9.46q0 5.836 3.097 9.413 3.098 3.602 7.996 3.602t7.972-3.602q3.097-3.577 3.097-9.388 0-5.883-3.097-9.485-3.074-3.578-8.14-3.578" style="fill:#fff;stroke:none"/><path d="M186.112 21.154h-16.448v15.03h-4.682V3.41h4.682v13.638h16.448V3.41h4.682v32.776h-4.682z" style="fill:#fff;stroke:none"/><use xlink:href="#a" width="100%" height="100%" transform="translate(-189.508 -109.176)"/><use xlink:href="#a" width="100%" height="100%" transform="translate(-62.694 -109.084)"/><path d="m265.441 219.648-.177-56.709m8.945 56.774-.239-56.812m-51.16-24.734 46.816 27.029 63.36-36.581M35.587 25.279l49.2 28.201m-53.64-20.64 49.32 28.199m.36 78.12 53.88 30.96m0 63-53.88 31.08m-54.48-31.439v-62.28m54.304-41.188 63.062 36.27M127.465 29.1 80.65 56.13v73.163l-63.062 36.27v72.543l63.062 36.271 63.062-36.27v-72.543l46.896-27.075" style="fill:none;stroke:#fff;stroke-width:3.12"/><use xlink:href="#a" width="100%" height="100%" transform="translate(63.106 109.785)"/></svg>