<svg xmlns="http://www.w3.org/2000/svg" width="400" height="200" viewBox="-49.462 0.270 198.923 99.462"><path d="M98.48 49.966q-.002.97-.9 1.868l-42.561.204a9960 9960 0 0 1 28.923 29.416c.28.28.425.756.425 1.426q-.002 1.544-1.903 1.75L52.097 55.333v41.984c-.535.777-1.184 1.171-1.953 1.171q-.702 0-1.97-.645l-.22-42.51c-1.733 1.596-4.319 4.038-7.745 7.32-3.397 3.397-5.541 6.428-6.42 9.086-.917 2.751-1.452 4.964-1.596 6.624-.034.25-.179 3.295-.425 9.137a2.6 2.6 0 0 1-1.647.577q-1.428 0-3.55-3.498a251 251 0 0 0-2.497-4.297c-1.201-1.626-2.844-3.278-4.925-4.942q-.803-.42-4.518-2.497c-1.8-.98-2.7-2.025-2.7-3.125 0-.947.297-1.465.9-1.545q6.995.001 13.842-1.75 4.193-1.05 9.137-5.52a2331 2331 0 0 1 9.12-8.593l-20.108-.221q-2.026.276-3.703.645-1.667.375-3.94 1.325c-4.53 1.881-8.887 5.032-13.06 9.443q-.205.051-.748.051-1.852 0-1.851-2.751 0-1.799.917-5.571c.62-2.51.934-4.386.934-5.622q0-.49-.9-5.69L1.52 38.3c0-1.096.67-1.648 2.021-1.648.166 0 1.193.87 3.074 2.598q3.344 3.076 6.369 5.044 4.516 2.925 8.645 3.55l23.047-.153Q31.287 33.48 22.172 32.78c-1.779-.098-4.895-.315-9.34-.646q-.97-.05-.901-1.58 0-.42.051-1.018 1.152-.95 6.844-4.722c2.794-1.864 4.722-3.673 5.775-5.418.497-.946 1.26-2.343 2.293-4.178 1.163-2.025 2.242-3.04 3.227-3.04q1.014.001 1.766.85v6.742q.098.801.424 2.921.149.802.527 2.921.25 4.25 5.57 9.919a1677 1677 0 0 0 9.29 9.409l.154-19.328a28.7 28.7 0 0 0-1.699-7.37q-1.005-2.715-3.72-6.913a732 732 0 0 1-3.396-4.076q-2.65-3.19-2.65-3.72-.001-2.019 1.75-2.02c-1.902 0-.71.36 3.583 1.07q6.452 1.055 8.526 1.053c3.529 0 7.354-.705 11.464-2.123.45 0 .858.377 1.223 1.12.246.535.374.96.374 1.274 0 .285-.803 1.227-2.395 2.82-2.05 2.016-3.681 3.944-4.891 5.774-1.936 2.98-3.248 6.11-3.924 9.392l.221 23.047c19.63-19.527 29.73-29.297 30.3-29.297 1.163 0 1.749.586 1.749 1.75 0 1.052-2.71 4.203-8.119 9.442q-8.445 8.172-12.788 12.738-2.279 2.28-8.17 8.22h42.035q1.154 1.396 1.155 2.174M54.22 7.728h-9.018c1.482 1.88 3.04 4.521 4.67 7.914 2.162-3.575 3.61-6.216 4.348-7.914M30.24 30.503q-1.072-2.715-2.174-8.186-1.975 1.975-6.166 5.995 3.97.75 8.34 2.19M15.378 50.136c-1.847-1.096-4.488-2.569-7.915-4.416v8.764c1.945-1.164 4.586-2.616 7.915-4.348m14.86 19.31q-4.993 2.72-8.44 2.446 2.324 2.446 6.267 6.046.727-3.701 2.173-8.492" style="fill:#fff"/></svg>