<svg xmlns="http://www.w3.org/2000/svg" width="400" height="200" viewBox="-516 0 4128 2064"><path fill="#fff" fill-rule="evenodd" d="M2451.42 1419.45c-13.86 15.79-26.1 30.3-36.1 46.41-27.07 45.12-36.41 94.1-20.94 133.74 30.29 84.12 41.89 105.39 41.89 172.1h-21.59c-1.29-73.48-29.01-122.79-70.26-137.61-18.05-6.77-41.57-3.55-63.17 18.69-26.75 27.39-34.48 103.13 43.83 117.63-8.38-12.25-7.41-39.32 9.03-48.67 12.57-6.44 27.07-3.86 33.52 1.62 10.95 6.44 21.27 27.07 21.27 48.34h-37.07v41.57h77.03c-.97 21.59-12.57 38.35-34.16 47.7 2.58 9.02 15.79 27.39 33.84 26.1 3.54 19.34 6.77 30.3 22.88 48.02 16.12-17.72 19.34-28.68 22.88-48.02 18.05 1.29 31.27-17.08 33.84-26.1-21.59-9.35-33.19-26.11-34.16-47.7h77.03v-41.57h-37.06c0-21.27 10.31-41.9 21.27-48.34 6.44-5.48 20.95-8.06 33.51-1.62 16.44 9.35 17.41 36.42 9.03 48.67 78.32-14.5 70.58-90.24 43.83-117.63-21.59-22.24-45.12-25.46-63.17-18.69-41.25 14.82-68.97 64.13-70.26 137.61h-21.59c0-66.71 11.6-87.98 41.9-172.1 15.47-39.64 6.12-88.62-20.95-133.74-9.99-16.11-22.24-30.62-36.1-46.41m-1806.84 0c-13.86 15.79-26.11 30.3-36.1 46.41-27.07 45.12-36.42 94.1-20.95 133.74 30.3 84.12 41.9 105.39 41.9 172.1h-21.59c-1.29-73.48-29.01-122.79-70.26-137.61-18.05-6.77-41.58-3.55-63.17 18.69-26.75 27.39-34.48 103.13 43.83 117.63-8.38-12.25-7.41-39.32 9.03-48.67 12.56-6.44 27.07-3.86 33.51 1.62 10.96 6.44 21.28 27.07 21.28 48.34h-37.07v41.57h77.03c-.97 21.59-12.57 38.35-34.16 47.7 2.57 9.02 15.79 27.39 33.84 26.1 3.54 19.34 6.76 30.3 22.88 48.02 16.11-17.72 19.34-28.68 22.88-48.02 18.05 1.29 31.26-17.08 33.84-26.1-21.59-9.35-33.19-26.11-34.16-47.7h77.03v-41.57H707.1c0-21.27 10.32-41.9 21.27-48.34 6.45-5.48 20.95-8.06 33.52-1.62 16.44 9.35 17.41 36.42 9.03 48.67 78.31-14.5 70.58-90.24 43.83-117.63-21.6-22.24-45.12-25.46-63.17-18.69-41.25 14.82-68.97 64.13-70.26 137.61h-21.59c0-66.71 11.6-87.98 41.89-172.1 15.47-39.64 6.13-88.62-20.94-133.74-10-16.11-22.24-30.62-36.1-46.41m1162.26-128.91H3096V2064H1806.84ZM0 1290.54h1289.16V2064H0ZM644.58 128.91c-13.86 15.791-26.11 30.294-36.1 46.407-27.07 45.119-36.42 94.104-20.95 133.744 30.3 84.114 41.9 105.384 41.9 172.095h-21.59c-1.29-73.479-29.01-122.787-70.26-137.611-18.05-6.768-41.58-3.546-63.17 18.691-26.75 27.394-34.48 103.128 43.83 117.631-8.38-12.247-7.41-39.318 9.03-48.664 12.56-6.445 27.07-3.867 33.51 1.611 10.96 6.446 21.28 27.071 21.28 48.342h-37.07v41.573h77.03c-.97 21.592-12.57 38.351-34.16 47.697 2.57 9.023 15.79 27.393 33.84 26.104 3.54 19.336 6.76 30.294 22.88 48.019 16.11-17.725 19.34-28.683 22.88-48.019 18.05 1.289 31.26-17.081 33.84-26.104-21.59-9.346-33.19-26.105-34.16-47.697h77.03v-41.573H707.1c0-21.271 10.32-41.896 21.27-48.342 6.45-5.478 20.95-8.056 33.52-1.611 16.44 9.346 17.41 36.417 9.03 48.664 78.31-14.503 70.58-90.237 43.83-117.631-21.6-22.237-45.12-25.459-63.17-18.691-41.25 14.824-68.97 64.132-70.26 137.611h-21.59c0-66.711 11.6-87.981 41.89-172.095 15.47-39.64 6.13-88.625-20.94-133.744-10-16.113-22.24-30.616-36.1-46.407m1806.84 0c-13.86 15.791-26.1 30.294-36.1 46.407-27.07 45.119-36.41 94.104-20.94 133.744 30.29 84.114 41.89 105.384 41.89 172.095h-21.59c-1.29-73.479-29.01-122.787-70.26-137.611-18.05-6.768-41.57-3.546-63.17 18.691-26.75 27.394-34.48 103.128 43.83 117.631-8.38-12.247-7.41-39.318 9.03-48.664 12.57-6.445 27.07-3.867 33.52 1.611 10.95 6.446 21.27 27.071 21.27 48.342h-37.07v41.573h77.03c-.97 21.592-12.57 38.351-34.16 47.697 2.58 9.023 15.79 27.393 33.84 26.104 3.54 19.336 6.77 30.294 22.88 48.019 16.12-17.725 19.34-28.683 22.88-48.019 18.05 1.289 31.27-17.081 33.84-26.104-21.59-9.346-33.19-26.105-34.16-47.697h77.03v-41.573h-37.06c0-21.271 10.31-41.896 21.27-48.342 6.44-5.478 20.95-8.056 33.51-1.611 16.44 9.346 17.41 36.417 9.03 48.664 78.32-14.503 70.58-90.237 43.83-117.631-21.59-22.237-45.12-25.459-63.17-18.691-41.25 14.824-68.97 64.132-70.26 137.611h-21.59c0-66.711 11.6-87.981 41.9-172.095 15.47-39.64 6.12-88.625-20.95-133.744-9.99-16.113-22.24-30.616-36.1-46.407M0 0h1289.16v773.459H0Zm1806.84 0H3096v773.459H1806.84Z"/></svg>