<svg xmlns="http://www.w3.org/2000/svg" width="400" height="200" viewBox="-1426.001 0 4942 2471"><path fill="#fff" fill-rule="evenodd" d="M1010.76 2456.08c-419.85-288.35-786.18-690.7-941.95-1183.91C-28.5 980.14 8.32 670.024 1 368.066V0h2089c-2.69 322.983 4.19 646.244-6.98 969-45.68 508.03-354.37 955.16-735.68 1276.84-98.19 82.37-200.75 160.71-311.66 225.16l-8.15-4.38zm66.04-69.86c426.6-289.66 799.7-706.97 922.65-1218.99 61.38-255.05 32.09-519.192 39.67-778.831.22-112.714.43-225.427.65-338.141H51.24c1.83 299.627-4.72 599.523 4.92 898.942 43.56 501.45 351.45 937.99 720.15 1262.03 94.64 50.21 191.88 223.63 300.49 174.99M548.91 1059.56c-106.47-73.26-246.02 4.24-360.48-42.75-27.03-218.527-10.96-392.872-12.14-652.685 69.07-49.198 162.6-40.097 251.12-38.709 64.3-2.51 123.72 23.335 184.08-1.899 81.02 2.495 154.42-16.167 229.53-2.793 99.48 44.14 88.09 119.677 95.53 232.317-10.25 151.152-4.46 198.757-8.63 323.039-21.09 151.33-124.04 151.52-223.69 148.5-66.56-15.16-99.4 22.47-155.32 34.98m22.57-36.53c62.58-64.22-73.15-94.02-36.6-9.19 9.15 8.89 24.05 16.76 36.6 9.19m-76.8-28.57c-13.94-67.33-201.42 13.44-260.73-45.42-14.49-183.912-5.93-369.176-3.67-553.491-65.53 62.524-27.62 374.445-31.72 480.391 5.99 85.31 22.84 143.54 116.55 118.46 59.68-.94 120.37 3.94 179.57.06m248.29-3c106.27 20.46 156.32-11.73 145.56-123.16 22.43-103.31 15.45-287.506 16.46-399.137-34.23-58.843-.18-78.21-42.43-94.325 12.31 185.901 5.09 372.862 2.98 559.112-41.08 81.65-221.46-6.7-250.77 56.22 42.5 7.09 85.42.48 128.2 1.29M517.9 948.75c-38.18-51.98-175.17-25.68-236.66-28.53-7.77 63.6 187.57 15.12 236.66 28.53m212.63.68c54.81 21.15 157.67-24.28 59.83-42.62-52.7 37.7-203.64-22.13-202.74 42.02 46.1 7.29 95.73-1.47 142.91.6m-465.88-29.35c37.18-104.953 5.87-228.006 16.41-340.215-13.3-58.965 28.35-193.959-18.39-208.022-33.25 107.713-6.18 229.05-15.32 341.887 11.88 55.468-21.93 186.24 17.3 206.35m581.64-14.06c4.75-171.037 2.24-342.26 3.42-513.382-37.04-77.099-40.79 5.014-35.91 44.167 1.21 146.471-5.97 293.631 2.43 439.565 3.56 7.65 15.34 39.53 30.06 29.65m-312.71-4.09c-7.66-172.423 12.62-348.021-4.28-520.365-53.05-33.826-179.23-29.415-223.51-16.334-4.15 171.728-1.38 343.534.5 515.279 67.07 30.5 156.44 10.6 227.29 21.42m76.48-3.78c85.07 1.91 223.24 18.97 181.24-111.999-2.7-146.526 5.49-293.826-.88-439.82-76.82 31.402-259.78-35.9-232.29 108.157-5.59 147.181-1.38 297.96-.05 442.782 12.73 13.13 36.59-3.1 51.98.88"/><path fill="#fff" fill-rule="evenodd" d="M1532.33 1060c-106.48-73.28-246.04 4.24-360.51-42.77-27.03-218.607-10.96-393.021-12.14-652.936 69.07-49.218 162.61-40.113 251.14-38.725 64.31-2.511 123.73 23.345 184.09-1.899 81.03 2.496 154.44-16.174 229.56-2.795 99.49 44.158 88.09 119.724 95.53 232.41-10.25 151.211-4.46 198.835-8.63 323.165-21.08 151.39-124.04 151.58-223.71 148.56-66.57-15.17-99.4 22.48-155.33 34.99m22.57-36.54c62.59-64.25-73.15-94.06-36.6-9.19 9.15 8.89 24.05 16.76 36.6 9.19m-76.81-28.58c-13.93-67.36-201.43 13.44-260.74-45.44-14.49-183.985-5.94-369.322-3.68-553.71-65.53 62.548-27.62 374.593-31.72 480.58 5.99 85.34 22.85 143.6 116.56 118.5 59.69-.93 120.38 3.95 179.58.07m248.31-3.01c106.28 20.48 156.34-11.72 145.58-123.2 22.43-103.353 15.45-287.622 16.46-399.297-34.23-58.866-.18-78.241-42.43-94.362 12.31 185.974 5.09 373.009 2.98 559.339-41.08 81.67-221.48-6.71-250.79 56.23 42.5 7.1 85.42.49 128.2 1.29m-225.09-42.72c-38.18-52-175.18-25.69-236.68-28.54-7.76 63.62 187.59 15.13 236.68 28.54m212.66.68c54.81 21.15 157.68-24.29 59.83-42.64-52.71 37.72-203.66-22.13-202.76 42.04 46.11 7.29 95.74-1.47 142.93.6m-465.92-29.36c37.18-104.997 5.87-228.098 16.41-340.351-13.3-58.988 28.35-194.035-18.39-208.105-33.26 107.756-6.19 229.141-15.32 342.023 11.87 55.489-21.93 186.313 17.3 206.433m581.68-14.06c4.76-171.112 2.24-342.403 3.42-513.592-37.03-77.129-40.79 5.016-35.91 44.185 1.21 146.528-5.96 293.747 2.44 439.737 3.56 7.66 15.34 39.55 30.05 29.67m-312.73-4.1c-7.66-172.49 12.62-348.157-4.28-520.57-53.05-33.839-179.25-29.426-223.53-16.34-4.15 171.796-1.38 343.67.5 515.49 67.08 30.5 156.45 10.6 227.31 21.42m76.49-3.78c85.08 1.91 223.26 18.98 181.25-112.044-2.7-146.584 5.5-293.942-.88-439.994-76.82 31.415-259.8-35.913-232.31 108.2-5.59 147.239-1.37 298.079-.05 442.958 12.73 13.13 36.59-3.1 51.99.88M1042.33 2090c-106.48-73.18-246.04 4.24-360.51-42.71-27.03-218.31-10.96-392.49-12.14-652.06 69.07-49.15 162.61-40.06 251.14-38.67 64.31-2.51 123.73 23.31 184.09-1.9 81.03 2.49 154.44-16.15 229.56-2.79 99.49 44.1 88.09 119.56 95.53 232.1-10.25 151-4.46 198.56-8.63 322.73-21.08 151.18-124.04 151.38-223.71 148.36-66.57-15.15-99.4 22.45-155.33 34.94m22.57-36.49c62.59-64.16-73.15-93.93-36.6-9.18 9.15 8.88 24.05 16.74 36.6 9.18m-76.81-28.54c-13.93-67.28-201.43 13.42-260.74-45.38-14.49-183.74-5.94-368.83-3.68-552.97-65.53 62.47-27.62 374.09-31.72 479.94 5.99 85.22 22.85 143.4 116.56 118.34 59.69-.93 120.38 3.94 179.58.07m248.31-3.01c106.28 20.45 156.34-11.71 145.58-123.03 22.43-103.22 15.45-287.24 16.46-398.76-34.23-58.79-.18-78.14-42.43-94.24 12.31 185.73 5.09 372.51 2.98 558.59-41.08 81.56-221.48-6.7-250.79 56.16 42.5 7.08 85.42.48 128.2 1.28m-225.09-42.66c-38.18-51.93-175.18-25.65-236.68-28.51-7.76 63.54 187.59 15.11 236.68 28.51m212.66.68c54.81 21.12 157.68-24.26 59.83-42.58-52.71 37.67-203.66-22.11-202.76 41.98 46.11 7.28 95.74-1.47 142.93.6m-465.92-29.32c37.18-104.86 5.87-227.79 16.41-339.9-13.3-58.9 28.35-193.77-18.39-207.82-33.25 107.61-6.19 228.83-15.32 341.56 11.87 55.42-21.93 186.06 17.3 206.16m581.68-14.05c4.76-170.88 2.24-341.94 3.42-512.9-37.03-77.02-40.79 5.01-35.91 44.13 1.21 146.33-5.96 293.35 2.44 439.14 3.56 7.65 15.34 39.5 30.05 29.63m-312.73-4.09c-7.66-172.26 12.62-347.69-4.28-519.87-53.05-33.79-179.25-29.38-223.53-16.32-4.15 171.57-1.38 343.21.5 514.8 67.08 30.46 156.45 10.59 227.31 21.39m76.49-3.77c85.08 1.9 223.26 18.95 181.25-111.9-2.7-146.38 5.5-293.54-.88-439.4-76.82 31.37-259.8-35.86-232.31 108.06-5.59 147.04-1.37 297.67-.05 442.36 12.73 13.11 36.59-3.1 51.99.88"/><path fill="none" d="M301.48 945.8c-11.38-4.53-21.66-16.65-17.56-20.69 1.74-1.71 43.73-3.11 93.31-3.11 86.88 0 90.94.38 111.96 10.53L511 943.06l-43.62 2.91c-61.72 4.11-155.4 4.02-165.9-.17"/></svg>