<svg xmlns="http://www.w3.org/2000/svg" width="400" height="200" viewBox="-1055.151 -24.869 4121.479 2060.739"><path fill="#fff" fill-rule="evenodd" d="m1195.774 1901.544 1.121 1.378c24.822 25.683 56.695 43.184 91.113 50.647l.58.081-32.292 22.203c-12.829 6.578-26.729 11.585-41.501 14.722-25.864 5.493-51.598 4.66-75.598-1.436l-22.088-7.393 10.934-8.834c19.22-17.996 34.473-40.188 44.292-65.102l.494-1.669Zm-383.645-.656 26.212 5.25.498 1.672 11.58 23.957 1.158 1.697.77 1.554 4.47 6.125 8.476 12.43 2.792 3.036 2.018 2.762 5.389 5.255 7.65 8.291 4.873 3.934 3.6 3.519 5.287 3.671 3.959 3.188-11.59 4.107c-23.886 6.524-49.593 7.792-75.544 2.764-25.43-4.935-48.366-15.41-67.823-29.913l-16.658-14.414 15.79-4.59c24.68-9.188 47.315-23.769 65.997-42.958Zm710.405-139.236 1.597.867c24.547 10.724 51.011 15.685 77.334 14.88l22.42-2.34-5.449 11.35c-12.335 21.471-29.663 40.506-51.612 55.247-21.95 14.732-46.138 23.549-70.68 26.839l-16.45.968 9.3-17.085c10.87-23.98 16.468-50.318 16.007-77.107l-.176-1.69Zm-1036.228-1.396 17.28 11.379-.195 1.82c-.557 26.79 4.947 53.142 15.723 77.167l10.314 19.104-15.197-1.035c-24.025-3.424-47.678-12.171-69.192-26.586-21.965-14.708-39.307-33.74-51.663-55.192l-6.46-13.43 20.586 2.2c26.317.883 52.802-3.996 77.374-14.653Zm1383.415-277.186-.946 13.787c-3.42 24.025-12.162 47.677-26.577 69.19-14.714 21.967-33.742 39.308-55.2 51.665l-14.165 6.811 2.162-19.944c.919-26.315-3.93-52.795-14.554-77.395l-.758-1.403 10.905-16.567 1.832.204c26.781.62 53.15-4.826 77.199-15.557Zm-1728.124-4.029 16.675 9.105c23.975 10.887 50.307 16.51 77.091 16.075l1.68-.172 13.064 19.389-.86 1.583c-10.7 24.569-15.618 51.038-14.782 77.358l2.302 21.767-12.088-5.795c-21.471-12.339-40.508-29.673-55.248-51.62-14.731-21.948-23.548-46.134-26.838-70.676ZM29.342 1117.02l8.834 10.935c17.996 19.221 40.188 34.473 65.103 44.3l1.669.493 4.433 22.127-1.387 1.123c-25.698 24.8-43.233 56.657-50.729 91.065l-.151 1.116-4.566-4.99c-15.325-19.451-26.545-42.626-32.037-68.49-5.491-25.856-4.659-51.588 1.439-75.586Zm1957.825-7.22 4.258 12.017c6.52 23.887 7.796 49.593 2.76 75.545-5.037 25.953-15.839 49.327-30.823 69.04l-14.318 16.197-.785-3.728c-8.651-28.852-24.5-55.4-46.389-76.809l-1.306-1.072 5.665-28.243 1.664-.496c28.48-11.232 53.391-29.547 72.563-52.776Zm-850.854-59.145-2.765 8.899-.717 1.328.717-1.328ZM879.026 948.866l-1.395 2.576-.81 2.589.81-2.589Zm74.787-72.036-2.283.708-3.18 1.728 3.18-1.728ZM62.136 728.402l.783 3.734c8.652 28.85 24.493 55.4 46.387 76.805l1.301 1.072-5.665 28.246-1.655.491c-28.488 11.232-53.396 29.548-72.569 52.778l-6.705 9.68-4.26-12.022c-6.525-23.886-7.794-49.601-2.766-75.55 5.039-25.954 15.84-49.321 30.822-69.036Zm1891.927-5.576 4.569 4.989c15.326 19.448 26.538 42.622 32.03 68.479 5.492 25.863 4.667 51.596-1.432 75.596l-7.396 22.099-8.83-10.934c-18.001-19.22-40.19-34.474-65.11-44.301l-1.663-.495-4.44-22.131 1.389-1.123c25.705-24.797 43.236-56.654 50.725-91.064Zm-179.596-335.424 15.08 7.045c20.224 12.201 38.162 28.913 52.194 49.818 14.733 21.95 23.557 46.135 26.84 70.678l1.003 17.02-16.682-9.101c-23.977-10.89-50.308-16.512-77.092-16.076l-1.676.174-13.062-19.394.862-1.585c10.692-24.561 15.617-51.032 14.774-77.352Zm-1536.122-.945-2.16 19.966c-.922 26.319 3.925 52.802 14.546 77.395l.758 1.403-10.906 16.569-1.822-.203c-26.783-.617-53.157 4.828-77.203 15.554l-20.079 10.78.716-12.274c3.262-24.545 12.069-48.738 26.787-70.701 17.162-25.621 40.198-44.957 66.125-57.417Zm189.337-141.3a168.6 168.6 0 0 1 27.909 4.43l21.755 7.37-.992.668 435.22 646.222-4.184 3.452-4.383 5.308L269.866 495.84l-8.873-16.458c-26.563-61.49-14.627-135.596 35.707-185.725 35.956-35.805 84.059-51.962 130.982-48.502m1054.497-103.079 22.757 1.573c21.266 4.094 42.08 12.424 61.205 25.237 21.96 14.716 39.304 33.743 51.657 55.203l6.388 13.282-1.77-.44a180.3 180.3 0 0 0-37.543-1.262 179.7 179.7 0 0 0-33.441 5.573l-26.204 9.738-17.642-11.612.197-1.825c.558-26.782-4.944-53.138-15.725-77.165Zm-950.748-.436-9.254 16.984c-10.864 23.986-16.465 50.322-16 77.106l.174 1.69-17.718 11.932-1.585-.868c-24.553-10.723-51.01-15.684-77.337-14.874l-22.423 2.338 5.45-11.359c12.338-21.471 29.66-40.51 51.618-55.246 23.514-15.784 49.603-24.786 75.943-27.458ZM829.956 16.76a165.4 165.4 0 0 1 32.63 3.001 166.4 166.4 0 0 1 30.895 9.153l.617.322-10.961 8.854c-19.221 18-34.473 40.188-44.3 65.11l-.492 1.658-22.945 4.602-1.12-1.375C789.463 82.4 757.582 64.899 723.172 57.44l-.621-.085 5.349-4.899c19.45-15.327 42.626-26.539 68.49-32.031a167.5 167.5 0 0 1 33.566-3.666m333.867-2.933a167.5 167.5 0 0 1 33.63 3.076c25.952 5.037 49.32 15.84 69.035 30.822l15.321 13.545-15.664 4.556c-24.68 9.183-47.317 23.762-66.003 42.956l-1.09 1.335-26.221-5.259-.493-1.659c-9.826-24.92-25.077-47.108-44.299-65.11l-17.16-13.86 12.486-4.957a165.5 165.5 0 0 1 40.458-5.445M1005.588.89c71.041 0 131.783 44.092 156.354 106.403l1.317 4.433-151.552 755.515 21.869 2.204 19.692 6.113 151.392-754.712 3.49-4.273c20.026-20.567 44.887-35.484 71.92-43.656l25.324-5.388 4.838-.596 26.007-1.044c19.163.87 38.501 5.062 57.223 12.899 57.342 24 94.376 76.096 101.805 133.607l1.056 19.559-4.83-3.178-428.31 650.68.933.508-4.087-2.218 23.205 12.595 11.899 9.817-.123-.1.234.192 3.237 2.672 417.961-634.96 14.302-7.737a168 168 0 0 1 54.924-13.412c46.933-3.327 94.993 12.97 130.845 48.878 43.92 43.989 58.38 106.25 43.398 162.27l-6.41 18.362-.04-.058-646.22 435.22 13.505 16.367 10.19 18.777 634.938-427.622 10.12-1.049c66.973-1.09 130.921 38.21 158.053 103.865a169 169 0 0 1 8.933 28.487l2.659 20.65.383 5.334c.05 7.11-.36 14.183-1.209 21.18l-2.585 12.428 2.172 2.372-4.995 22.969a169 169 0 0 1-17.354 38.508l-25.123 31.335-761.4 152.732-1.978-6.376-.947-1.742.947 1.742a138 138 0 0 1 8.092 26.069l1.843 18.286.361 3.583 755.509-151.555 4.442 1.326c62.312 24.571 106.403 85.307 106.402 156.347 0 71.04-44.092 131.784-106.402 156.355l-4.429 1.318-755.522-151.554.616-6.122c0 9.59-.97 18.955-2.822 27.987l-4.64 14.95-1.47 4.75 750.922 150.63 7.608 6.245c47.889 46.833 64.946 119.924 37.37 185.391-24.127 57.292-76.307 94.207-133.834 101.507l-19.606 1.015 4.32-6.57-650.68-428.303-.073.128-10.811 19.921-16.203 19.634 3.622-4.388 633.14 416.764 8.88 16.465c26.559 61.494 14.631 135.598-35.708 185.719-44.045 43.867-106.324 58.248-162.325 43.194l-18.39-6.451 1.059-.715-435.22-646.216-16.366 13.505-18.136 9.842-.64.35 428.492 636.226.876 8.39c1.15 66.973-38.09 130.96-103.721 158.148a169.6 169.6 0 0 1-28.48 8.961l-24.78 3.208-2.054.15c-7.11.048-14.183-.361-21.178-1.207l-13.705-2.855-1.625 1.879-21.593-4.677a169 169 0 0 1-38.524-17.314l-32.363-25.902-152.537-760.421 6.377-1.978 2.701-1.463-2.7 1.463a138 138 0 0 1-26.07 8.092l-17.093 1.729-4.774.482 151.557 755.517-1.319 4.431c-24.57 62.314-85.317 106.405-156.357 106.403-71.04-.003-131.783-44.086-156.354-106.4l-1.32-4.433 151.554-755.526-1.137-.106-5.286-.534-15.452-1.564-19.69-6.113-151.386 754.724-3.49 4.268c-46.729 47.994-119.785 65.217-185.312 37.79-57.347-24-94.376-76.094-101.806-133.605l-1.058-19.567 4.835 3.175 428.302-650.68-20.048-10.883-15.245-12.577-417.972 634.961-14.295 7.738c-61.457 26.639-135.571 14.807-185.771-35.471-43.019-43.084-57.775-103.71-44.27-158.829l7.331-21.747 646.216-435.219-3.073-3.733-10.433-12.638-8.092-14.904.587 1.081-2.687-4.95-2.607-4.813-.932-2.992.932 2.992 2.607 4.813-634.946 427.632-10.113 1.044c-66.966 1.085-130.914-38.207-158.045-103.864a167.7 167.7 0 0 1-8.932-28.485l-2.658-20.649-.389-5.346a168 168 0 0 1 1.206-21.182l2.585-12.428-2.168-2.361 4.997-22.97a168.8 168.8 0 0 1 17.35-38.504l25.127-31.343 761.401-152.735-6.114-19.69-2.211-21.87-755.519 151.553-4.43-1.315C45.066 1137.287.975 1076.543.978 1005.503c.002-71.041 44.095-131.784 106.4-156.353l4.443-1.32 755.514 151.549-.622 6.12a140 140 0 0 1 2.818-27.987l6.122-19.694-750.934-150.632-7.602-6.237c-47.893-46.83-64.95-119.925-37.369-185.397 24.126-57.286 76.305-94.202 133.833-101.503l19.597-1.014-4.311 6.558 650.682 428.312.697-1.29 10.184-18.762a139.7 139.7 0 0 1 37.516-37.512l18.36-9.967.413-.223L518.22 243.92l-.87-8.384c-1.148-66.971 38.086-130.954 103.72-158.146a169 169 0 0 1 28.48-8.959l19.668-2.55 8.179-.82a166 166 0 0 1 32.073 3.099l.971.287 1.524-1.394 22.524 4.876a169 169 0 0 1 38.518 17.32l32.367 25.9 152.534 760.41 19.69-6.114 16.999-1.713 4.872-.492-151.552-755.513 1.317-4.433C873.805 44.983 934.548.89 1005.588.89"/></svg>