<svg xmlns="http://www.w3.org/2000/svg" width="400" height="200" viewBox="-1056.063 -24.869 4121.481 2060.741"><path fill="#fff" fill-rule="evenodd" d="m1179.074 1882.07 16.911 20.852c24.822 25.683 56.695 43.184 91.113 50.647l.58.081-32.292 22.203c-12.829 6.578-26.729 11.585-41.501 14.722-25.864 5.493-51.598 4.66-75.598-1.436l-22.088-7.393 10.934-8.834c19.22-17.996 34.473-40.188 44.292-65.102Zm-349.778-3.31 8.633 29.05 11.58 23.957 1.158 1.697.77 1.554 4.47 6.125 8.476 12.43 2.792 3.036 2.018 2.762 5.389 5.255 7.65 8.291 4.873 3.934 3.6 3.519 5.287 3.671 3.959 3.188-11.59 4.107c-23.886 6.524-49.593 7.792-75.544 2.764-25.43-4.935-48.366-15.41-67.823-29.913l-16.658-14.414 15.79-4.59c24.68-9.188 47.315-23.769 65.997-42.958Zm672.228-128.062 21.697 11.82c24.547 10.725 51.011 15.686 77.334 14.88l22.42-2.338-5.449 11.35c-12.335 21.47-29.663 40.505-51.612 55.246-21.95 14.732-46.138 23.549-70.68 26.839l-16.45.968 9.3-17.085c10.87-23.98 16.468-50.318 16.007-77.107Zm-996.469-1.078-2.574 23.835c-.557 26.79 4.947 53.142 15.723 77.167l10.314 19.104-15.197-1.035c-24.025-3.424-47.678-12.171-69.192-26.586-21.965-14.708-39.307-33.74-51.663-55.192l-6.46-13.43 20.586 2.2c26.317.883 52.802-3.996 77.374-14.653Zm1363.756-266.55-.946 13.787c-3.42 24.025-12.162 47.677-26.577 69.19-14.714 21.967-33.742 39.308-55.2 51.665l-14.165 6.811 2.162-19.944c.919-26.315-3.93-52.795-14.554-77.395l-10.948-20.298 22.927 2.532c26.781.62 53.15-4.826 77.199-15.557Zm-1728.124-4.029 16.675 9.105c23.975 10.887 50.307 16.51 77.091 16.075l26.678-2.762-12.794 23.562c-10.7 24.569-15.618 51.038-14.782 77.358l2.302 21.767-12.088-5.795c-21.471-12.339-40.508-29.673-55.248-51.62-14.731-21.948-23.548-46.134-26.838-70.676Zm851.45-335.928 12.545 1.262 11.679-1.182-.003 1.861 3.497.004 148.993 726.067-.835 8.295-.108.36.247-.042-7.116 23.971c-24.57 62.314-85.317 106.405-156.357 106.403-71.04-.003-131.783-44.086-156.354-106.4l-7.116-23.975.244.04-.107-.356a167.4 167.4 0 0 1-3.383-33.6l.097-1.033 141.965-699.736 12.115.003Zm77.767-15.718.194.296.593 1.397.26-.106 412.98 625.555 6.395-3.883 2.591 24.813c1.15 66.972-38.09 130.96-103.721 158.147a169.6 169.6 0 0 1-28.48 8.961l-24.78 3.208-2.054.15c-7.11.048-14.184-.361-21.178-1.207l-13.705-2.855-1.625 1.879-21.593-4.677c-27.003-8.27-51.81-23.274-71.758-43.91l-15.422-19.022 7.154-1.836-.36-.445-14.618-26.665-144.378-703.565 11.994-5.083-.703-1.66 11.044-3.43Zm-139.436-1.721 8.488 3.575.726-1.73 10.942 5.937 11.351 3.53-.7 1.661 2.965 1.251L815.154 1874.7l2.542.657-15.578 19.072c-46.729 47.994-119.785 65.217-185.312 37.79-65.539-27.433-104.541-91.56-103.15-158.519l2.668-24.693.634.387Zm-902.036-8.655 8.834 10.935c17.996 19.221 40.188 34.473 65.103 44.3l24.91 7.395-20.195 16.348c-25.698 24.8-43.233 56.657-50.729 91.065l-.151 1.116-4.566-4.99c-15.325-19.451-26.545-42.626-32.037-68.49-5.491-25.856-4.659-51.588 1.439-75.586Zm1957.825-7.22 4.258 12.017c6.52 23.887 7.796 49.593 2.76 75.545-5.037 25.953-15.839 49.327-30.823 69.04l-14.318 16.197-.785-3.728c-11.533-38.463-35.866-72.848-70.246-96.39l-.226-.126.198-1.279.318-.037c40.824-8.353 76.592-30.588 102.153-61.564Zm-871.608-16.85 607.2 406.069-.44 1.044 3.7 1.136 10.313 6.898 1.418 1.744.284.532.401-.535 11.75 21.785c26.559 61.494 14.631 135.598-35.708 185.719-50.338 50.13-124.492 61.749-185.87 34.935l-23.07-12.562-6.913-5.678-2.684-8.917-5.968 2.474-.74-.61-1.569 1.56-.164.076-400.74-607.013 8.975-8.94-1.27-1.273 9.324-7.695 7.79-9.444 1.327 1.333Zm-223.923-4.123 6.785 6.82 1.273-1.273 7.695 9.325 9.444 7.788-1.333 1.326 2.769 2.785-403.516 608.634-2.121-.889-2.056 6.734-9.328 7.583-.532.287 1.444 1.074-21.73 11.76c-61.458 26.639-135.572 14.807-185.772-35.471-57.356-57.449-64.462-146.076-21.361-211.251l5.324-6.508.753-.498 6.15-1.848-.725-1.778Zm249.377-45.334 733.665 150.941.217.19.062-.249 19.103 15.684c47.889 46.833 64.946 119.924 37.37 185.391-27.574 65.477-91.788 104.334-158.752 102.792l-24.601-2.709.13-.222-.614-.064-1.476-.453-10.045-6.72-3.1-3.809-1.046 1.04-606.235-405.426 3.978-9.442-1.646-.693 5.525-10.19 3.781-12.171 1.741.734Zm-271.73-1.964 2.926 6.892 1.734-.736 3.687 11.873 5.679 10.469-1.651.698 1.634 3.844-623.424 415.647.156.253-24.846 2.578c-66.966 1.085-130.914-38.207-158.045-103.864a167.7 167.7 0 0 1-8.932-28.485l-2.658-20.649-.389-5.346a168 168 0 0 1 1.206-21.182l2.585-12.428-2.168-2.361 4.997-22.97c8.294-26.991 23.321-51.784 43.98-71.72l19-15.383 2.03 7.921.444-.36 14.093-7.726ZM151.404 840.086l713.714 146.838.004 6.035h1.943l-1.263 12.54 1.182 11.68h-1.86l-.003 8.17-711.976 145.741-2.57-.26-1.596-3.858-5.8 3.111-12.422-1.252-.36-.106.043.249-23.971-7.117C44.155 1137.287.064 1076.543.067 1005.503c.002-71.041 44.095-131.784 106.4-156.353l23.964-7.118-.03.24.355-.105Zm1702.855-.368 4.52.45 1.598 3.863 5.812-3.115 12.413 1.248.356.109-.036-.238 23.965 7.117c62.312 24.571 106.403 85.307 106.402 156.347 0 71.04-44.092 131.784-106.402 156.355l-23.966 7.124.037-.253-.356.106-31.826 3.211-702.541-144.538-.001-10.325-1.86-.003 1.178-11.68-1.264-12.54 1.947.005-.001-7.902ZM61.226 728.402l.783 3.734c11.532 38.466 35.865 72.844 70.246 96.388l.22.123-.197 1.285-.31.03c-40.826 8.355-76.596 30.593-102.16 61.566l-6.705 9.68-4.26-12.022c-6.525-23.886-7.794-49.601-2.766-75.55 5.039-25.954 15.84-49.321 30.822-69.036Zm1891.927-5.576 4.569 4.989c15.326 19.448 26.538 42.622 32.03 68.479 5.492 25.863 4.667 51.596-1.432 75.596l-7.396 22.099-8.83-10.934c-18.001-19.22-40.19-34.474-65.11-44.301l-24.906-7.398 20.192-16.35c25.705-24.798 43.236-56.655 50.725-91.065Zm-178.068-204.867c66.972-1.09 130.92 38.21 158.052 103.865a169 169 0 0 1 8.933 28.487l2.659 20.65.383 5.334c.05 7.11-.36 14.183-1.209 21.18l-2.585 12.428 2.172 2.372-4.995 22.969c-8.294 26.995-23.323 51.788-43.982 71.72l-18.995 15.379-2.037-7.92-.444.36-12.356 6.775-719.93 147.368-3.027-7.142-1.656.703-3.428-11.044-6.094-11.226 1.725-.731-2.986-7.045 607.029-404.728 1.114 1.117 3.349-4.093 2.568-1.712 6.95-2.085a167 167 0 0 1 28.79-2.98m-1537.499-5.2 24.6 2.716-3.188 5.248 622.956 416.612-1.026 2.439 1.729.725-5.936 10.943-3.53 11.352-1.66-.7-3.601 8.56L145.429 822.01l-9.55-5.204-.507-.417-.062.24-19.104-15.68c-47.893-46.83-64.95-119.924-37.369-185.396 27.57-65.47 91.788-104.335 158.75-102.793m1535.971-125.357 15.08 7.045c20.224 12.201 38.162 28.913 52.194 49.818 14.733 21.95 23.557 46.135 26.84 70.678l1.003 17.02-16.682-9.101c-23.977-10.89-50.308-16.512-77.092-16.076l-26.675 2.762 12.799-23.567c10.692-24.561 15.617-51.032 14.774-77.352Zm-1536.122-.945-2.16 19.966c-.922 26.319 3.925 52.802 14.546 77.395l10.956 20.3-22.926-2.531c-26.783-.617-53.157 4.828-77.203 15.554l-20.079 10.78.716-12.274c3.262-24.545 12.069-48.738 26.787-70.701 17.162-25.621 40.198-44.957 66.125-57.417Zm1347.323-139.643c46.933-3.327 94.993 12.97 130.845 48.878 50.195 50.273 61.91 124.412 35.175 185.826l-11.964 22.03-623.247 415.54-3.112-3.127-1.335 1.33-8.243-9.991-8.777-7.242 1.273-1.267-8.69-8.735 401.121-605.024-2.27 7.391 7.977-6.482 4.12 1.725 2.056-6.745 9.333-7.583.551-.268-1.46-1.092 21.723-11.752a168 168 0 0 1 54.924-13.412m-1157.986-1.658c18.767 1.385 37.352 5.908 54.886 13.57l23.052 12.558 9.597 14.527.016.076.028-.01L917.03 895.839l-1.89 1.882 1.326 1.337-9.985 8.241-7.245 8.779-1.262-1.275-8.052 8.008-601.819-402.473-2.71-3.332 2.555-6.064-9.974-3.063-5.455-6.721-.286-.528-.397.536-11.752-21.783c-26.563-61.49-14.627-135.596 35.707-185.725 35.956-35.805 84.059-51.962 130.982-48.502M1481.27 142.078l22.757 1.573c21.266 4.094 42.08 12.424 61.205 25.237 21.96 14.716 39.304 33.743 51.657 55.203l6.388 13.282-1.77-.44a180.3 180.3 0 0 0-37.543-1.262c-22.524 1.596-44.804 7.43-65.546 17.504l-14.1 8.027 2.556-23.657c.558-26.782-4.944-53.138-15.725-77.165Zm-950.748-.436-9.254 16.984c-10.864 23.986-16.465 50.322-16 77.106l2.57 24.571-21.699-11.817c-24.553-10.723-51.01-15.684-77.337-14.874l-22.423 2.338 5.45-11.359c12.338-21.471 29.66-40.51 51.618-55.246 23.514-15.784 49.603-24.786 75.943-27.458ZM1335.33 65.89c19.163.87 38.501 5.062 57.223 12.899 65.533 27.428 104.543 91.554 103.15 158.52l-2.669 24.684-6.95-4.223-414.125 624.637-2.346-.988-.693 1.647-10.185-5.528-12.176-3.78.733-1.74-10.934-4.606L1179.41 162.31l13.962-25.612.443-.502-2.155-.554 15.58-19.068c20.026-20.567 44.887-35.484 71.92-43.656l25.324-5.388 4.838-.596Zm-658.842-.828a166 166 0 0 1 32.073 3.099l.971.287 1.524-1.394 22.524 4.876c26.997 8.27 51.805 23.276 71.758 43.916l15.416 19.01-7.794 2.005 150.72 734.441-1.922.815.737 1.736-11.874 3.685-10.468 5.682-.698-1.65-9.425 3.998-401.842-608.673.76-.758-2.75-2.258-6.84-10.353-2.918-27.989c-1.147-66.971 38.087-130.954 103.72-158.146a169 169 0 0 1 28.48-8.959l19.67-2.55Zm152.56-48.303a165.4 165.4 0 0 1 32.629 3.001 166.4 166.4 0 0 1 30.895 9.153l.617.322-10.961 8.854c-19.221 18-34.473 40.188-44.3 65.11l-7.644 25.734-16.913-20.85C788.553 82.4 756.672 64.9 722.262 57.44l-.621-.085 5.349-4.899c19.45-15.327 42.626-26.539 68.49-32.031a167.5 167.5 0 0 1 33.566-3.666m333.866-2.933a167.5 167.5 0 0 1 33.63 3.076c25.952 5.037 49.32 15.84 69.035 30.822L1280.9 61.27l-15.664 4.556c-24.68 9.183-47.317 23.762-66.003 42.956l-19.176 23.468-8.628-29.05c-9.826-24.921-25.077-47.109-44.299-65.11l-17.16-13.86 12.486-4.958a165.5 165.5 0 0 1 40.458-5.445M1004.678.89c71.041 0 131.783 44.092 156.354 106.403l7.117 23.963-.245-.039.106.357.265 2.636-148.456 731.733h-3.46v1.857l-11.68-1.177-12.54 1.265v-1.946h-12.72l-139.198-678.33-2.261-22.438 1.406-13.954 3.07-1.271-2.478-4.608 1.388-13.767.11-.357-.249.038 7.117-23.961C872.895 44.983 933.638.89 1004.678.89"/></svg>