<svg xmlns="http://www.w3.org/2000/svg" width="400" height="200" viewBox="-1280.625 -30.597 4999.924 2499.962"><path fill="#fff" fill-rule="evenodd" d="m1379.74 2360.56-22.93 25.98 19.68-21.13Zm-448.919-25.49-31.137 15.24 26.285-12Zm467.889-6.86-13.14 23.61 7.49-11.19Zm-358.824 0 5.659 12.42 7.485 11.2Zm437.994-15.73 9.98 9.31 11.2 7.48Zm-517.152-.02-21.17 16.78 11.192-7.48Zm454.082-32.25-11.47 37.84 2.65-5.82Zm-420.842-5.94-25.076 30.57 4.678-4.36Zm810.812-63.56-11.78 34.38 11.38-31.79Zm4.86-37.74-2.97 25.75 3.16-20.11Zm-1180.674-.03-.182 5.65 3.161 20.12Zm1282.144-33.27 2.56.62 33.73 1.65Zm-1383.589-.03-36.277 2.27 33.724-1.66Zm1279.109-7.46 2.52 25.46-.53-16.3Zm-1174.652-.03-1.991 9.17-.526 16.31Zm1242.412-2.43 5.15 2.33 19.79 4.78Zm-1310.142-.04-24.938 7.11 19.79-4.78Zm1273.602-18.35 7.71 5.34 14.87 6.73Zm-1237.066-.04-22.571 12.07 14.861-6.72ZM2139.59 1911.2l2.27 36.27-1.66-33.72Zm-9.95-36.73 7.1 24.93-4.78-19.78Zm-1820.638-.03-2.33 5.15-4.779 19.79Zm1802.238-36.5 12.07 22.56-6.72-14.85Zm-1783.845-.04-5.348 7.71-6.728 14.87Zm1871.265-31.14-25.76 2.98 5.65.18ZM240 1806.73l20.114 3.16 5.648-.18Zm1892.1 0 9.17 1.99 16.31.52Zm-1825.544-.03-25.475 2.52 16.304-.53Zm1938.474-13.61-34.39 11.79 2.59-.41Zm90-285.21 15.24 31.13-12-26.28Zm-22.62-29.9 16.78 21.16-7.47-11.19Zm-2186.158-.04-9.312 9.99-7.479 11.2Zm2147.978-33.2 30.57 25.07-4.37-4.68Zm43.78-41.32-37.85 11.47 32.02-8.81Zm-2197.347 0 5.825 2.66c10.071 3.65 20.746 6.62 32.025 8.81Zm2231.107-17.76-23.61 13.14 12.42-5.66Zm-2264.876 0 11.194 7.48 12.424 5.66Zm2299.606-28.77-25.99 22.93 4.85-3.24Zm-25.99-297.939 25.99 22.926-21.14-19.684Zm-1141.174-2.065c67.314 0 125.064 40.924 149.734 99.244l6.15 19.83 3.31 10.68.02.17 3.29 32.58c0 11.21-1.14 22.17-3.31 32.75l-6.98 22.49-2.48 8.01-.97 1.78-14.02 25.82-12.49 15.15-7.35 8.9c-14.7 14.7-32.21 26.6-51.651 34.83l-8.543 2.65-21.96 6.81a163 163 0 0 1-32.75 3.31c-22.436 0-43.811-4.55-63.252-12.77l-1.067-.58-26.536-14.41c-43.225-29.2-71.645-78.65-71.645-134.74 0-22.44 4.547-43.82 12.77-63.26l14.888-27.425.095-.175c29.202-43.225 78.656-71.645 134.747-71.644m1108.824-16.911 23.61 13.137-11.19-7.481Zm-2217.649-.003-12.422 5.659-11.194 7.483Zm48.002-16.094c-11.279 2.197-21.954 5.164-32.025 8.816l-5.825 2.654Zm2107.617-1.304 14.03 1.304 37.85 11.469-5.83-2.652c-10.07-3.653-20.74-6.62-32.02-8.817Zm34.3-48.93-28.6 21.654 2.39-1.258Zm22.84-25.14-22.83 25.125 21.28-22.81Zm17.27-27.446-11.35 18.57 9.08-13.591Zm11.32-27.58-6.31 16.623 4.72-10.351ZM2240.6 644.096l12.74 6.539-8.3-4.952Zm-2011.14-10.29-11.101 2.486-10.652 4.015Zm1978.95-.261 16.42 4.906-11.6-4.148Zm-50.83-4.016-16.31.526-9.16 1.99Zm20.97-.677-5.18.167 17.84 1.823Zm-1908.032-.342 39.03 3.856-6.644-1.528Zm-.011 0-26.838 2.114-5.168 1.157Zm1847.113-37.668-6.37 9.982 5.34-7.7ZM312.936 573.541l2.765 7.538 1.825 2.981Zm-11.542-35.014.905 6.017 2.083 5.677ZM2140.61 516.8l-.93 10.368.52-2.15ZM296.973 504.942l-.156 3.159 1.068 7.101Zm1843.947-20.054.73 10.569.21-4.175ZM578.215 315.407l22.569 12.072-7.71-5.347Zm1282.215-.037-14.87 6.727-7.71 5.348ZM539.316 301.982l24.931 7.104-5.147-2.329Zm1360.014-.037-19.79 4.776-5.15 2.33Zm-1408.081-5.081 36.27 2.27-2.551-.615Zm1456.151-.036-33.73 1.655-2.55.616Zm-138.6-4.881-.65 7.665.47-2.184Zm-1179.602-7.203-.065 4.52.832 4.513Zm1180.022-28.419.44 8.996.17-5.165Zm-1179.524-6.34-.002.009v.008-.008Zm9.619-39.951-1.659 3.756-.859 3.908Zm1151.545-19.94 3.32 6.89-1.18-3.316Zm-339.27-34.537-6.95 8.927-2.19 4.144Zm-482.118-20.7 7.95 8.255-2.053-2.823Zm503.338-3.83-7.77 7.243-3.32 4.265Zm-69.47-10.311 11.46 37.834-8.81-32.012Zm92.94-9.36-8.42 5.627-3.72 3.466Zm-554.743-.566 9.651 7.227-4.443-4.091Zm580.033-14.433-8.93 4.075-4.04 2.7ZM912.2 93.85l9.116 4.763-6.143-3.7Zm473.37-6.902 13.14 23.607-5.65-12.418Zm-332.541-.005-7.483 11.194-5.659 12.422Zm492.171-.1-6.27 1.586-4.3 1.961Zm-188.39-34.62 22.93 25.99-3.25-4.85ZM1219.3.653c37.501 0 75 9.668 107.23 29.004l8.57 6.391.74-.383c26.55-11.306 55.33-16.392 84.01-15.718 52.68 1.238 105.04 21.905 142.7 59.141l2.01 2.467 20.29-3.537c9.33-.93 18.71-1.187 28.06-.8 62.36 2.573 123.46 33.696 160.75 84.023l6.43 9.902 11.04-.568c73.91 3.596 143.99 49.706 176.78 115.973l5.6 13.427 2.08.251c73.9 14.657 136.62 72.817 158.32 144.649l4.52 20.2 18.93 8.376c66.22 35.297 111.03 108.156 110.99 183.5l-.15 1.898 23.78 18.049c48.71 43.917 75.22 111.6 68.71 176.935l-3.79 20.237 17.91 19.375c40.44 52.035 54.35 123.778 36.14 187.135l-8.63 22.529 6.74 9.05c38.68 64.451 38.68 150.001 0 214.451l-6.68 8.97 9 24.16c17.62 63.21 3.44 134.51-37.03 186.16l-17.56 18.88 2.74 10.84c11.06 74.35-21.67 153.38-82.07 198.13l-9.74 5.81.43-.25-2.02 31.74c-10.18 67.15-54.7 128.52-116.09 157.98l-11.98 4.47-1.66 11.35c-18.23 72.92-78.72 133.41-151.64 151.64l-11.35 1.66-4.47 11.96c-29.46 61.4-90.83 105.92-157.98 116.1l-31.75 2.01-5.55 9.31c-52.21 70.46-151.08 103.27-234.73 72.81l-31.14-15.24 4.85 3.24c8.54 4.75 17.33 8.74 26.29 12l25.75 6.51-18.87 17.56c-51.65 40.47-122.95 54.65-186.16 37.03l-24.16-9-8.96 6.67c-75.198 45.12-179.104 37.6-244.729-22.56l-22.939-26 3.245 4.86c6.07 7.65 12.662 14.7 19.693 21.15l21.3 15.87-24.148 9c-63.21 17.61-134.504 3.43-186.162-37.03l-18.875-17.57-10.835 2.74c-86.737 12.91-179.856-33.8-217.465-114.49l-11.788-34.4.407 2.6a183 183 0 0 0 11.381 31.8l13.781 23.11-31.732-2.01c-67.154-10.19-128.518-54.7-157.981-116.1l-4.468-11.97 19.529 2.85-30.87-4.51c-85.074-21.27-153.23-100.05-157.097-189l2.273-36.29-.617 2.56a182.5 182.5 0 0 0-1.656 33.73l3.798 26.01-11.961-4.46c-61.398-29.47-105.912-90.83-116.098-157.98l-2.012-31.74 23.12 13.78a182 182 0 0 0 31.803 11.38l2.595.41-34.397-11.79C101.407 1750.08 53.572 1634.6 88.387 1539l15.245-31.15-3.242 4.86A182 182 0 0 0 88.387 1539l-6.515 25.76-17.558-18.87c-40.463-51.66-54.645-122.95-37.03-186.16l9.004-24.15 15.877 21.31a183 183 0 0 0 21.149 19.69l4.854 3.24-26.002-22.93c-68.75-75-68.75-200 0-275.004l26.001-22.938-4.853 3.245a182.5 182.5 0 0 0-21.148 19.693l-15.879 21.308-9.003-24.151c-17.614-63.21-3.433-134.504 37.03-186.162l17.455-18.755 2.263 12.083c11.879 42.553 39.234 82.127 85.27 110.989l34.702 17.785-1.005 4.761 3.854-.358 840.738 166.074-3.42 33.93 3.42 33.92-840.738 166.08-15.666-1.46 11.812 1.1 1.014 4.8-39.572 20.88c-9.58 6.34-18.307 13.17-26.214 20.4l-4.366 4.68 30.58-25.08c12.773-8.47 27.062-16.08 42.941-22.65l840.254-168.3.094.93c2.333 11.4 5.774 22.4 10.207 32.88l15.681 28.89-713.163 475.15-3.252 1.17 2.414 3.67-14.502 15.9h-.003.003a268 268 0 0 1 16.849-18.47l711.869-477.03.253.47a176.1 176.1 0 0 0 47.313 47.31l.425.24-477.018 711.85-2.58 2.36 3.67 2.41-7.325 20.27-.001.01.001-.01a267 267 0 0 1 8.498-23.51l475.153-713.17 28.932 15.71a173.7 173.7 0 0 0 32.88 10.2l.882.09-168.295 840.24-1.781 3.38 4.818 1.01 4.134 44.5c2.198 11.28 5.164 21.95 8.817 32.02l2.654 5.83-11.47-37.85c-2.93-15.04-4.493-31.16-4.493-48.34l166.073-840.74 33.963 3.42 33.893-3.42 166.071 840.74-.36 3.86 4.82-1.02 20.88 39.58c6.34 9.58 13.17 18.3 20.4 26.21l4.68 4.37-25.08-30.58c-8.46-12.78-16.07-27.06-22.65-42.94l-168.3-840.26.948-.1a173 173 0 0 0 32.882-10.21l28.87-15.67 475.15 713.16 1.18 3.26 3.68-2.43 15.9 14.51-18.47-16.85-477.03-711.87.47-.26a176.2 176.2 0 0 0 47.32-47.31l.23-.42 711.85 477.01 2.36 2.58 2.42-3.68 20.27 7.32h.01-.01c-7.73-2.38-15.57-5.21-23.51-8.5l-713.17-475.15 15.7-28.91c4.43-10.48 7.87-21.48 10.2-32.88l.09-.9 840.25 168.29 3.37 1.78 1.02-4.83 44.49-4.14-48.34 4.5-840.74-166.08 3.42-33.92-3.42-33.93 840.74-166.074 3.85.358-1.01-4.789-3.38 1.734-840.25 168.301-.09-.91a173.7 173.7 0 0 0-10.2-32.877l-15.7-28.914 713.17-475.152 3.24-1.174-2.42-3.687 14.49-15.892 3.03-4.361-19.88 22.833-711.85 477.018-.23-.425a176.2 176.2 0 0 0-47.32-47.313l-.47-.254 477.03-711.868a268 268 0 0 1 18.47-16.85l.01-.004-.01.005-15.9 14.502-3.68-2.424 7.32-20.259.51-2.337-9.01 25.851-475.15 713.161-28.87-15.673a174 174 0 0 0-32.882-10.207l-.947-.095 168.299-840.26 1.68-3.383-4.73-1 .36 3.862-166.07 840.735-33.894-3.418-33.963 3.424-166.072-840.741c-.001-17.188 1.562-33.3 4.491-48.34l11.47-37.85-2.653 5.825c-3.653 10.07-6.619 20.746-8.817 32.025l-4.135 44.494-4.726.997 1.69 3.395 168.296 840.241-.883.089a174 174 0 0 0-32.88 10.207l-28.931 15.703-475.154-713.166c-4.111-9.925-7.497-19.695-10.203-29.293l-.002-.011.002.011 9.065 26.027-3.704 2.439 2.579 2.353 477.018 711.857-.425.23a176.1 176.1 0 0 0-47.312 47.313l-.254.468-711.87-477.026c-9.114-9.115-17.18-18.424-24.256-27.869l-.008-.012.007.012 21.957 25.227-2.46 3.738 3.252 1.175 713.163 475.15-15.681 28.891a174 174 0 0 0-10.207 32.877l-.094.93-840.254-168.296c-180.625-74.818-155.469-283.228-34.54-359.649l26.517-13.611-4.652 1.754a186 186 0 0 0-21.865 11.857l-2.327 1.767 1.244-25.564c8.138-66.144 49.743-127.403 108.366-159.161l20.092-9.025-1.644 7.349-.001.019v-.019c12.353-84.133 81.337-155.681 164.48-172.17l1.932-.233 7.52-16.978c33.508-64.37 102.402-108.91 174.985-112.443l10.965.67-6.326 9.744-.004.008.004-.008c34.858-61.856 103.42-100.883 173.569-103.779a200 200 0 0 1 28.069.8l20.273 3.535 2.018-2.476c37.657-37.235 90.018-57.902 142.698-59.14 28.682-.674 57.46 4.412 84.01 15.718l.722.376-21.687 16.16a182.6 182.6 0 0 0-19.693 21.15l-3.244 4.852 22.938-26.002C1119.3 17.84 1169.301.653 1219.3.653"/></svg>