<svg xmlns="http://www.w3.org/2000/svg" width="400" height="200" viewBox="-1055.421 -24.868 4121.479 2060.739"><path fill="#fff" fill-rule="evenodd" d="m1195.504 1901.545 1.121 1.377c24.822 25.684 56.695 43.184 91.113 50.647l.58.081-32.292 22.203c-12.829 6.579-26.729 11.585-41.501 14.723-25.864 5.492-51.598 4.66-75.598-1.437l-22.088-7.393 10.934-8.834c19.22-17.995 34.473-40.188 44.292-65.101l.494-1.67Zm-383.645-.656 26.212 5.249.498 1.673 11.58 23.957 1.158 1.696.77 1.554 4.47 6.125 8.476 12.43 2.792 3.037 2.018 2.761 5.389 5.255 7.65 8.292 4.873 3.933 3.6 3.52 5.287 3.67 3.959 3.188-11.59 4.107c-23.886 6.525-49.593 7.793-75.544 2.764-25.43-4.935-48.366-15.409-67.823-29.913l-16.658-14.414 15.79-4.59c24.68-9.188 47.315-23.768 65.997-42.958Zm710.405-139.237 1.597.867c24.547 10.725 51.011 15.685 77.334 14.88l22.42-2.339-5.449 11.35c-12.335 21.47-29.663 40.506-51.612 55.247-21.95 14.731-46.138 23.548-70.68 26.838l-16.45.968 9.3-17.084c10.87-23.981 16.468-50.319 16.007-77.107l-.176-1.69Zm-1036.228-1.395 17.28 11.378-.195 1.82c-.557 26.79 4.947 53.142 15.723 77.168l10.314 19.104-15.197-1.036c-24.025-3.424-47.678-12.17-69.192-26.586-21.965-14.708-39.307-33.74-51.663-55.192l-6.46-13.43 20.586 2.201c26.317.882 52.802-3.996 77.374-14.653Zm1383.415-277.187-.946 13.788c-3.42 24.024-12.162 47.676-26.577 69.19-14.714 21.966-33.742 39.307-55.2 51.665l-14.165 6.81 2.162-19.944c.919-26.314-3.93-52.795-14.554-77.394l-.757-1.404 10.904-16.566 1.832.203c26.781.62 53.15-4.826 77.199-15.556Zm-1728.124-4.028 16.675 9.104c23.975 10.887 50.307 16.51 77.091 16.076l1.68-.173 13.064 19.39-.86 1.582c-10.7 24.57-15.618 51.038-14.782 77.359l2.302 21.767-12.088-5.796c-21.471-12.339-40.508-29.672-55.248-51.619-14.731-21.948-23.548-46.134-26.838-70.676Zm851.45-335.928 12.545 1.261 11.679-1.182-5.563.568 151.557 755.518-1.319 4.43c-24.57 62.314-85.317 106.405-156.357 106.403s-131.783-44.085-156.354-106.4l-1.32-4.433L999.2 1143.753zm-45.058-11.573 3.545 1.916 11.351 3.529-4.98-1.55-151.387 754.724-3.49 4.268c-46.729 47.995-119.785 65.217-185.312 37.791-57.347-24-94.376-76.094-101.806-133.605l-1.058-19.567 4.835 3.174Zm122.825-4.146-6.355 3.456 428.492 636.225.876 8.391c1.15 66.972-38.09 130.96-103.721 158.147a169.6 169.6 0 0 1-28.48 8.962l-24.78 3.208-2.054.15c-7.11.048-14.184-.362-21.178-1.207l-13.705-2.855-1.625 1.878-21.593-4.676a169 169 0 0 1-38.524-17.315l-32.363-25.902-152.537-760.42 6.377-1.979ZM29.072 1117.02l8.834 10.934c17.996 19.222 40.188 34.473 65.103 44.3l1.669.493 4.433 22.128-1.387 1.122c-25.698 24.8-43.233 56.658-50.729 91.065l-.151 1.116-4.566-4.99c-15.325-19.45-26.545-42.626-32.037-68.489-5.491-25.856-4.659-51.589 1.439-75.587Zm1957.825-7.22 4.258 12.017c6.52 23.886 7.796 49.592 2.76 75.545-5.037 25.952-15.839 49.326-30.823 69.039l-14.318 16.198-.785-3.729c-8.651-28.852-24.5-55.399-46.389-76.809l-1.306-1.072 5.665-28.243 1.664-.496c28.48-11.231 53.391-29.546 72.563-52.775Zm-879.002-11.407 633.14 416.764 8.88 16.465c26.559 61.494 14.631 135.599-35.708 185.72-44.045 43.866-106.324 58.248-162.325 43.193l-18.39-6.45 1.059-.716-435.22-646.215-1.126.924 5.313-4.38Zm-208.47-4.02 7.694 9.325 5.307 4.383-417.972 634.962-14.295 7.738c-61.457 26.638-135.571 14.806-185.771-35.472-43.019-43.083-57.775-103.71-44.27-158.828l7.331-21.748 646.216-435.218zm-24.043-41.194 1.978 6.378 5.294 9.764-2.687-4.95-634.946 427.632-10.113 1.044c-66.966 1.085-130.914-38.208-158.045-103.864a167.7 167.7 0 0 1-8.932-28.486l-2.658-20.648-.389-5.346a168 168 0 0 1 1.206-21.183l2.585-12.428-2.168-2.361 4.997-22.97a168.8 168.8 0 0 1 17.35-38.503l25.127-31.344Zm261.677-5.797-1.8 5.8 750.923 150.63 7.608 6.246c47.889 46.834 64.946 119.925 37.37 185.391-24.127 57.293-76.307 94.208-133.834 101.508l-19.606 1.015 4.32-6.571-650.68-428.302-.2.36 2.118-3.906ZM867.705 992.96l-.229 2.34Zm1031.38-145.134 4.442 1.326c62.312 24.572 106.403 85.307 106.402 156.347 0 71.04-44.092 131.785-106.402 156.355l-4.429 1.319-755.522-151.555.616-6.121-1.264-12.541.648 6.425Zm-1787.535.004 755.514 151.55-.622 6.12.615 6.119-755.519 151.553-4.43-1.315C44.796 1137.287.705 1076.544.708 1005.503c.002-71.04 44.095-131.784 106.4-156.353ZM61.866 728.402l.783 3.734c8.652 28.85 24.493 55.4 46.387 76.805l1.301 1.072-5.665 28.246-1.655.492c-28.488 11.232-53.396 29.548-72.569 52.777l-6.705 9.68-4.26-12.022c-6.525-23.885-7.794-49.6-2.766-75.55 5.039-25.953 15.84-49.32 30.822-69.035Zm1891.927-5.576 4.569 4.989c15.326 19.448 26.538 42.623 32.03 68.479 5.492 25.863 4.667 51.596-1.432 75.597l-7.396 22.098-8.83-10.934c-18.001-19.22-40.19-34.473-65.11-44.3l-1.663-.496-4.44-22.13 1.389-1.123c25.705-24.797 43.236-56.654 50.725-91.065ZM1775.725 517.96c66.972-1.09 130.92 38.209 158.052 103.864a169 169 0 0 1 8.933 28.488l2.659 20.65.383 5.333c.05 7.11-.36 14.184-1.209 21.18l-2.585 12.429 2.172 2.371-4.995 22.97a169 169 0 0 1-17.354 38.507l-25.123 31.335-761.4 152.732-1.978-6.376-2.613-4.813 634.937-427.622Zm-1542.818-4.924-4.311 6.558 650.682 428.311 1.726-3.185-3.643 6.723-1.979 6.376-750.934-150.633-7.602-6.237c-47.893-46.83-64.95-119.924-37.369-185.396 24.126-57.287 76.305-94.203 133.833-101.504Zm1541.29-125.633 15.08 7.045c20.224 12.2 38.162 28.913 52.194 49.817 14.733 21.95 23.557 46.136 26.84 70.678l1.003 17.021-16.682-9.102c-23.977-10.89-50.308-16.511-77.092-16.076l-1.676.174-13.062-19.393.862-1.586c10.692-24.56 15.617-51.031 14.774-77.352Zm-1536.122-.946-2.16 19.966c-.922 26.319 3.925 52.803 14.546 77.396l.758 1.402-10.906 16.57-1.822-.204c-26.783-.617-53.157 4.828-77.203 15.555l-20.079 10.779.716-12.274c3.262-24.545 12.069-48.738 26.787-70.7 17.162-25.622 40.198-44.957 66.125-57.418Zm1347.323-139.642c46.933-3.327 94.993 12.97 130.845 48.877 43.92 43.99 58.38 106.25 43.398 162.271l-6.41 18.361-.04-.058-646.22 435.22 4.789 5.805-8.243-9.99-8.777-7.243 3.471 2.865 417.961-634.959 14.302-7.738a168 168 0 0 1 54.924-13.411m-1157.986-1.658a169 169 0 0 1 27.909 4.43l21.755 7.37-.992.669 435.22 646.221-4.184 3.453-4.383 5.307L269.596 495.84l-8.873-16.458c-26.563-61.489-14.627-135.595 35.707-185.724 35.956-35.806 84.059-51.963 130.982-48.502m1054.497-103.078 22.757 1.573c21.266 4.093 42.08 12.424 61.205 25.236 21.96 14.716 39.304 33.744 51.657 55.203l6.388 13.282-1.77-.44a180.3 180.3 0 0 0-37.543-1.262 179.7 179.7 0 0 0-33.441 5.574l-26.204 9.737-17.642-11.612.197-1.825c.558-26.782-4.944-53.138-15.725-77.164Zm-950.748-.436-9.254 16.983c-10.864 23.986-16.465 50.323-16 77.107l.174 1.69-17.718 11.931-1.585-.867c-24.553-10.724-51.01-15.685-77.337-14.875l-22.423 2.338 5.45-11.359c12.338-21.47 29.66-40.51 51.618-55.245 23.514-15.785 49.603-24.787 75.943-27.459ZM1335.97 65.89c19.163.871 38.501 5.062 57.223 12.899 57.342 24 94.376 76.097 101.805 133.608l1.056 19.558-4.83-3.178-428.31 650.68.933.508-4.472-2.427-12.176-3.78 5.8 1.801 151.392-754.712 3.49-4.272c20.026-20.568 44.887-35.485 71.92-43.657l25.324-5.388 4.838-.595Zm-658.842-.828a166 166 0 0 1 32.073 3.1l.971.287 1.524-1.395 22.524 4.876a169 169 0 0 1 38.518 17.32l32.367 25.9 152.534 760.41-6.378 1.979-7.287 3.955 2.475-1.343-428.498-636.23-.87-8.384c-1.148-66.97 38.086-130.954 103.72-158.145a169 169 0 0 1 28.48-8.96l19.668-2.55Zm152.56-48.303a165.4 165.4 0 0 1 32.629 3.002 166.4 166.4 0 0 1 30.895 9.153l.617.321-10.961 8.854c-19.221 18-34.473 40.189-44.3 65.11l-.492 1.658-22.945 4.603-1.12-1.376c-24.817-25.683-56.698-43.185-91.108-50.644l-.621-.085 5.349-4.898c19.45-15.327 42.626-26.54 68.49-32.032a167.5 167.5 0 0 1 33.566-3.666m333.866-2.933a167.5 167.5 0 0 1 33.63 3.077c25.952 5.037 49.32 15.84 69.035 30.822l15.321 13.544-15.664 4.556c-24.68 9.183-47.317 23.763-66.003 42.957l-1.09 1.334-26.221-5.259-.493-1.658c-9.826-24.92-25.077-47.109-44.299-65.11l-17.16-13.86 12.486-4.958a165.5 165.5 0 0 1 40.458-5.445M1005.318.891c71.041 0 131.783 44.093 156.354 106.404l1.317 4.433-151.552 755.514 5.561.56-11.68-1.177-12.54 1.264 6.42-.648-151.55-755.511 1.317-4.434C873.535 44.984 934.278.891 1005.318.891"/></svg>