<svg xmlns="http://www.w3.org/2000/svg" width="400" height="200" viewBox="-567.872 -26.436 4229.744 2114.872"><path fill="#fff" fill-rule="evenodd" d="m0 0 827.39 678.84 11.2-12.32a520 520 0 0 1 36.62-33.27l26.67-19.94L398.42 0h286.6l301.42 563.77 16.06-7.73a516 516 0 0 1 47.38-17.34l27.93-7.18L916.53 0h205.16l50.94 517.071 30.59-1.544c17.8 0 35.39.902 52.73 2.662l11.79 1.799L1318.97 0h205.16l-163.87 540.06 43.68 15.98 43.27 20.84L1755.64 0h286.6l-516.48 629.16 5.47 4.09a515 515 0 0 1 36.62 33.27l25.82 28.4L2440.66 0H3094L1648.74 772.3l7.91 13.02a515 515 0 0 1 21.72 45.07l14.77 40.35L3094 445.909V841.07L1715.98 976.75l.25 1.59c1.76 17.34 2.66 34.92 2.66 52.71 0 17.8-.9 35.38-2.66 52.71l-.23 1.49 1378 135.68v395.16l-1400.83-424.82-14.8 40.45a513 513 0 0 1-21.72 45.06l-7.86 12.94L3094 2062h-653.34l-846.93-694.87-25.88 28.46a518 518 0 0 1-36.62 33.27l-5.41 4.05L2042.24 2062h-286.6l-308.38-576.79-43.32 20.86-43.65 15.97L1524.13 2062h-205.16l-51.22-519.88-11.8 1.8a522 522 0 0 1-52.73 2.66l-30.6-1.54-50.93 516.96H916.53l161.25-531.42-27.9-7.18a513 513 0 0 1-47.38-17.33l-16.11-7.76L685.02 2062h-286.6l503.41-613.24-26.62-19.9a522 522 0 0 1-36.62-33.27l-11.25-12.38L0 2062v-359.52l761.27-406.8-11.48-18.9a513 513 0 0 1-21.71-45.06l-13.34-36.42L0 1412.05v-257.37l690.66-68-.44-2.92a522 522 0 0 1-2.66-52.71c0-17.79.9-35.37 2.66-52.71l.46-3.02L0 907.32V649.95l714.78 216.76 13.3-36.32a515 515 0 0 1 21.71-45.07l11.53-18.97L0 359.525Z"/></svg>