<svg xmlns="http://www.w3.org/2000/svg" width="400" height="200" viewBox="-1083.372 -26.436 4229.744 2114.872"><path fill="#fff" fill-rule="evenodd" d="M1031.5 687.333c189.89 0 343.83 153.865 343.83 343.667 0 189.8-153.94 343.67-343.83 343.67S687.667 1220.8 687.667 1031c0-189.802 153.943-343.667 343.833-343.667m0-343.666c-379.788 0-687.667 307.729-687.667 687.333 0 379.6 307.879 687.33 687.667 687.33 379.79 0 687.67-307.73 687.67-687.33 0-379.604-307.88-687.333-687.67-687.333M1031.5 0C1601.18 0 2063 461.594 2063 1031c0 569.41-461.82 1031-1031.5 1031C461.818 2062 0 1600.41 0 1031 0 461.594 461.818 0 1031.5 0"/></svg>