<svg xmlns="http://www.w3.org/2000/svg" width="400" height="200" viewBox="-209.001 0 1022 511"><path fill="#fff" fill-rule="evenodd" d="M156.884 366.566q5.966 2.242 11.189 8.965c11.932 11.955 16.905 24.901 14.915 38.846-.993 10.961-5.966 21.918-13.919 33.873q.991.994 1.987 1.989c12.599 9.298 25.194 18.601 37.794 27.901-.34.65-.67 1.32-1 1.99-9.28-3-18.56-5.98-27.845-8.97-9.943-2.99-17.898-7.967-24.861-13.946-.994-.995-2.983-1.99-3.976-4.982-.997-2.984-.997-6.97 0-10.953l5.966-11.955c4.969-14.947 2.983-26.895-6.963-35.862l-1.99 8.967q-4.97 40.835-9.946 81.681c-4.969-12.96-7.953-22.91-8.949-28.89-2.983-28.891-3.976-50.801-.993-66.736 1.989-11.955 6.959-18.933 15.912-21.917q6.712-2.244 12.679-.001m114.616-8.97c1.99 1.002 2.98 1.997 3.97 4.981l-.99 4.981-1.99 4.985c-1-1.997-1.99-3.986-2.98-5.976-10.94 18.926-18.9 41.838-23.87 68.733 7.96-2.992 13.92-8.968 16.9-17.931.67-4.655 1.33-9.298 1.99-13.945v-12.95c1.33-1.666 2.65-3.322 3.98-4.981 1.66-.665 3.31-1.332 4.97-1.99 2.99.995 5.97 1.99 6.96 4.981q8.955 19.916 17.91 39.841c-.34.331-.67.658-1 .995-4.97-5.649-9.95-11.287-14.92-16.936v2.991c-.99 10.954-4.97 19.921-11.93 28.885-6.96 8.967-14.92 14.94-24.86 19.921-8.95 2.341-17.91 2.01-26.86-.995q-5.955-7.473 0-23.9c6.97-17.931 14.92-34.867 23.87-49.807 3.98-7.972 9.95-16.936 18.9-27.897 2.98-3.986 6.96-4.981 9.95-3.986m77.56-17.924c3.98 0 6.96.995 9.95 3.979 2.98 2.992 4.97 6.974 6.96 11.956l5.97 23.906c3.65 16.599 7.29 33.201 10.94 49.807-.66.331-1.33.658-1.99.995-5.3-7.308-10.61-14.609-15.91-21.91-3.65-9.635-7.29-19.264-10.94-28.892-2.98 12.951-6.96 29.887-13.93 48.812-.66.995-1.33 1.99-1.98 2.985-.67.995-1.33 1.99-1.99 2.992-5.97-.982-11.94-3.639-17.9-9.966h.99c-.66-25.57-1.33-51.133-1.99-76.699 3.65 9.629 7.29 19.257 10.94 28.892 2.99-10.961 4.98-18.933 7.96-24.902 2.98-7.972 6.96-11.955 12.92-11.955m92.49-25.904c1 .007 2.99 1.002 5.97 1.997-3.31 4.974-6.63 9.959-9.94 14.94-3.65 7.308-7.3 14.609-10.95 21.917-1.99 4.974-2.98 9.958-3.97 16.929-1 7.973 0 12.957.99 15.942 1.99 2.991 4.97 5.976 8.95 6.971 5.64 1.325 11.27 2.654 16.91 3.986l15.91 2.984c.33.664.66 1.325.99 1.997l-21.87 7.965c-8.95 1.99-15.92 1.99-22.88 0-7.95-2.991-13.92-6.971-18.89-13.945-6.96-9.965-7.96-20.922-3.98-31.883 6.96-20.915 18.89-36.85 35.8-46.815 2.99-1.99 4.97-2.985 6.96-2.985m75.58-15.934c-.77.778-3.69 1.897-4.97 2.984-6.98 5.952-12.93 15.942-15.91 28.892l-.99 3.986c.66 1.325 1.32 2.654 1.99 3.979l.99-.995c5.96-6.97 9.94-12.95 12.93-18.925 2.98-6.971 4.97-12.95 5.96-19.921m-415.441-8.842c7.46-1.369 14.67-1.12 21.631.873-14.919 6.97-25.855 13.945-34.804 21.91-11.935 10.96-18.898 24.902-20.885 42.833-.33 2.985-.663 5.976-.997 8.964l24.862-2.985 26.851-.994v3.979q-12.93 8.473-25.858 16.936c-9.942 6.971-18.895 10.961-26.851 13.952l.993 7.965c.997 16.93 5.966 41.832 12.929 72.715 2.983 11.62 5.966 23.24 8.949 34.87-.663.33-1.326.65-1.99.99-16.905-20.92-29.834-44.823-38.786-72.719q-5.965-16.431-8.95-32.871c-.33-1.659-.659-3.322-.993-4.981q-18.892.476-37.79.947v-1.243c5.966-3.886 11.936-7.773 17.902-11.652 6.629-4.324 13.259-8.64 19.888-12.957 0-8.964.993-17.931 3.98-26.895 6.959-23.907 18.895-40.837 36.794-50.802 7.957-4.478 15.666-7.466 23.125-8.835m-60.912-29.01q-4.476 1.496-5.966 8.967-.996 5.97-1.99 11.956v1.989c.33.33.66.657.993.995h.997c2.051-.812 3.55-3.281 4.969-5.976 2.248-4.981 4.303-9.965 4.973-14.94v-1.993c-1.323-.334-2.65-.664-3.976-.998m36.796-7.969c-.398.406-2.769 2.547-3.192 2.943-2.076 1.948-2.925 4.62-3.77 8.017.333.331.663.658.996.995 2.984-.995 4.974-1.993 5.966-3.986.994-2.988.994-4.981 0-7.969m186.467-5.477q2.235 0 4.47 1.494c6.76 2.255 2.13 11.356-.17 14.434-3.71 1.184-7.45-.245-11.76-3.477-.99-4.981 0-7.969 2.98-10.957 1.49-.996 2.98-1.494 4.48-1.494m-186.22-.754c1.74 0 3.232.747 4.723 2.241 1.987 2.988 1.804 6.888 0 10.957-2.172 4.902-5.966 8.097-10.939 7.102-.33.003-.66-.124-.993-.124-.997 4.981 0 6.97 2.983 7.965 1.99-.657 3.979-1.325 5.966-1.989 2.32-1.333 4.643-2.654 6.959-3.986.33.337.66.664.994 1.001l-2.983 3.979c-3.977 4.982-7.953 6.971-11.933 5.977-3.98-.995-6.959-3.98-7.952-8.965a24.3 24.3 0 0 1 0-11.955c.993-4.981 3.976-7.969 6.959-9.962 2.487-1.494 4.475-2.241 6.216-2.241m-29.087-12.695q2.983 0 2.983 2.988c.996 5.976 1.99 11.952 1.99 16.929-.33 3.322-.664 6.641-.994 9.966.33 1.99.664 3.979.994 5.976q1.493 5.97 2.983 11.955h-.994c-1.326-3.329-2.653-6.644-3.979-9.966-.664 1.653-1.323 3.322-1.987 4.982-2.058 4.041-4.948 7.535-7.956 10.96-3.98 4.974-7.956 4.974-11.935 1.99-.994-.995-1.99-1.99-2.984-4.982-.993-4.98.994-10.96 3.977-16.936 2.983-7.965 6.962-10.957 11.935-8.964l1.99.999q.5-2.993.994-5.98-.005-7.967-.004-15.934c0-2.988.997-3.983 2.987-3.983m201.877-56.785c3.98.007 10.94 1.002 19.89 3.99q-10.44 2.488-20.88 4.981c-7.96 2.988-13.92 5.976-18.9 8.964-8.94 6.971-15.91 14.94-20.88 24.902-4.97 9.958-6.96 20.915-6.96 31.876 0 10.957 2.98 20.919 7.96 29.886 4.97 9.959 12.92 16.929 22.87 21.911 10.94 5.975 22.87 7.965 34.8 5.975q19.395-1.491 32.82-14.946c9.94-8.964 15.91-21.911 16.91-36.854q1.485-22.415-11.94-38.85c-5.97-7.969-12.93-12.95-19.89-14.94-6.96-1.993-13.92-1.993-22.88 0-6.95.995-13.92 3.983-19.88 8.964-2.83 2.654-5.15 5.308-6.97 7.966q-.99-.5-1.98-.995c.99-8.964 5.96-16.937 14.91-22.912 7.95-4.978 17.9-7.966 28.84-8.964 12.93-.998 23.87 2.988 34.81 10.957 8.95 7.969 16.91 17.927 21.88 29.883 4.97 12.95 6.96 25.9 5.96 38.846-.99 13.952-5.96 25.897-12.92 36.857-8.95 12.95-20.89 22.913-35.8 29.887-20.89 8.964-42.77 7.965-64.65-2.992-22.87-10.953-36.8-26.895-43.752-49.8-4.973-18.929-3.98-36.86 2.983-55.786 7.949-18.926 19.889-32.871 36.799-41.835 8.95-4.981 17.9-6.971 26.85-6.971M526 153.756c-7.29.213-14.7 1.484-22.31 3.605l-12.25 5.228 16.74 13.724-.99 2.988-24.97-11.591-9.84 7.448c-7.61 10.168-13.53 20.336-16.07 30.508-2.54 11.014-1.69 24.574 2.54 38.982 3.38 12.711 10.15 22.033 20.3 29.659 4.66 2.965 9.73 5.508 15.23 7.415l8.89 1.802 4.05-2.505c3.85-1.62 7.83-2.617 11.8-3.116 3.98 0 6.96.995 9.95 1.989l2.87 5.172 17.44-3.131c11.84-4.232 21.99-11.017 29.61-18.641 7.61-8.475 11.85-18.646 12.69-30.51.85-10.172 0-21.186-4.23-32.203-3.38-11.018-8.46-20.34-16.08-28.816-7.61-7.626-15.22-12.713-23.68-15.252-7.2-2.119-14.39-2.966-21.69-2.755m-324.12-19.285c.33.665.67 1.329 1 1.993-15.912 14.944-27.848 23.907-35.804 27.894s-14.915 6.97-21.878 8.963l8.949 59.766q1.495 21.414 2.983 42.833c0 15.935-.997 29.879-2.983 41.831-2.65 7.308-5.303 14.609-7.956 21.917-.66-.337-1.323-.664-1.99-.994-3.316-15.278-6.629-30.551-9.946-45.828l-8.949-85.663c0-12.95.993-23.906 1.99-30.877-1.327.33-2.65.664-3.98.995q-37.29-1.988-74.587-3.983 34.808-9.96 69.614-19.924l40.777-6.968c14.255-3.982 28.511-7.965 42.76-11.955m128.29-13.945c2.99 11.291 5.97 22.582 8.95 33.866 2.98 12.953 6.96 22.912 11.94 31.876l.99-1.993 6.96-56.778H361c6.96 20.919 10.94 37.855 11.93 48.812 1 15.935-2.98 26.895-11.93 33.866-3.98 2.988-8.95 3.983-13.93 1.993-4.97-.998-9.94-3.986-12.92-8.964-4.98-9.965-7.96-19.924-8.95-30.881-.99-10.953.99-28.885 4.97-51.797m200.64-43.139c2.49.104 4.73.819 6.21 2.3 6.96 7.969 6.96 14.943-.99 21.917-2.98 2.988-7.96 2.988-12.93.995-4.97-2.988-7.96-6.974-7.96-13.949-1.59-6.405 8.19-11.577 15.67-11.263m-96.21-3.673c11.27.334 22.55.665 33.81.999 5.96.987 11.93 1.986 16.9 3.979 12.93 5.976 18.9 12.95 19.89 19.924 0 5.976-3.98 11.952-10.94 18.926-7.29 5.311-14.59 10.626-21.88 15.938-2.65 2.323-5.3 4.651-7.95 6.974l17.05 13.975 18.74-7.999c8.96-2.492 17.66-3.987 26.23-4.236 8.58-.25 17.04.747 25.49 3.238 9.95 2.984 18.9 8.963 27.84 17.927 8.95 9.962 14.92 20.919 18.9 33.869 4.97 12.95 5.97 25.897 4.97 37.852-.99 13.945-5.97 25.9-14.92 35.862-8.95 8.961-20.88 16.937-34.8 21.911l-19.98 3.587-.03 3.013c-.62 3.612-1.87 7.347-3.86 11.331-3.98 8.967-9.95 16.936-16.91 24.901-2.32 1.99-4.64 3.987-6.96 5.977-3.97 2.991-6.96 3.986-9.94 2.991-.66-.671-1.33-1.332-1.99-1.997l-.99 11.956c0 10.96 1.99 18.925 5.96 23.907 1.99 2.984 3.98 3.986 6.96 3.986 4.97.995 10.94 0 17.9-2.992 10.61-6.643 21.22-13.277 31.83-19.92 6.63-4.654 13.25-9.298 19.89-13.945.66.33 1.32.657 1.98.995-15.91 19.92-28.84 34.86-39.78 43.827-4.64 2.655-9.27 5.312-13.92 7.966-9.95 3.986-17.9 4.981-24.86 3.986-8.95-1.997-14.92-5.976-19.89-12.95-3.98-6.97-6.96-12.95-7.95-18.926-2.99-10.96-2.99-21.917-1.99-31.876.99-9.965 3.98-19.928 9.95-30.881 2.48-3.986 4.97-7.723 7.7-11.085l3.92-3.759-1.68-.34c-6.46-2.242-12.43-5.231-17.9-8.716-11.94-8.964-19.89-19.921-23.87-34.861-4.97-16.936-5.97-32.874-2.98-45.82 2.98-11.956 9.94-23.907 18.89-35.859l6.84-5.184-3.85-1.79c-10.94-4.978-17.9-9.962-20.89-14.94-1.98-4.981-1.98-8.964 1-11.955l26.85-27.89c.99-.995 1.99-1.993 2.98-2.988-1.99-.33-3.98-.664-5.96-.995-5.97-.33-11.93-.664-17.9-.998q-12.93 2.493-25.86 4.981a4936 4936 0 0 1-8.95 2.988c-.66.664-1.32 1.329-1.99 1.993l-1.98 30.878c-3.98 49.807-9.95 94.633-18.9 135.473l-6.96 12.95V140.454l-.99-32.871c0-4.981 1.98-9.965 4.97-14.943 2.98-4.981 7.95-7.969 12.93-9.962 8.95-4.978 18.89-7.965 29.83-8.964m-131.28-36.86c-1.14-.727-3.22-.155-4.97 1.993-3.98 3.983-6.96 9.962-9.95 18.926v.995c.33 1.328.67 2.657 1 3.986l.99-.998c3.98-1.99 6.96-5.976 9.95-10.958 1.98-3.986 2.98-8.963 2.98-13.944m-2.99-11.956c3.98-.994 7.57-.388 9.94 1.993 3.98 2.992 4.98 7.966 2.99 14.944-1.99 7.965-5.97 14.94-11.94 19.921-2.98 2.987-6.95 4.98-9.94 4.98-1.99 0-2.98-.994-3.98-1.993-.32-.661-.66-1.325-.99-1.989-1.99 8.964-1.99 15.938 1 20.919.99 2.988 1.99 3.983 3.98 4.977 3.98.999 8.94 0 13.92-2.987 4.97-2.988 11.93-6.971 18.89-13.945h1c-5.97 16.929-15.92 25.896-30.83 27.889-8.95.995-14.92-2.987-19.89-12.95-4.98-10.957-4.98-21.917-1-34.864q7.455-22.414 26.85-26.895M229.73 0c4.97 8.964 8.95 16.933 9.94 23.907 2.99 14.94 3.98 30.878 3.98 46.816v22.912c.34 2.988.67 5.976 1 8.964l.99 2.988h1c8.29-2.988 16.57-5.976 24.86-8.964l.99 1.993c-4.31 3.986-8.61 7.969-12.92 11.952-4.98 4.981-10.94 6.97-15.92 7.965-1.65-.33-3.31-.661-4.97-.995-3.98-2.988-6.96-7.968-9.95-14.939-.99-6.31-1.98-12.617-2.98-18.926l.99-38.85c.67-10.957 1.33-21.914 1.99-32.871.34-3.983.67-7.966 1-11.952"/></svg>