<svg xmlns="http://www.w3.org/2000/svg" width="400" height="200" viewBox="-1666.423 -28.962 4633.846 2316.923"><path fill="#fff" fill-rule="evenodd" d="m577.14 1148.98 7.3 17.86 13.59 31.01Zm185.74-322.209 22.14 43.003 31.27 58.944Zm-78.26-155.877 2.07 4.38c15.2 31.321 31.1 63.345 47.54 95.84l11.26 21.87Zm232.79-389.203 12.75 28.558-12.74-28.543Zm-21.66-37 8.93 15.245-8.93-15.24ZM708.07 132.949c-50.37-4.236-99.93 11.397-144.8 35.441l-.01.003-.92 15.531c-2.24 53.219-1.35 220.251 81.04 399.73l39.43 83.407 28.25-55.036c94.89-186.082 140.79-344.877 152.99-390.709l3.22-12.476-30.05-27.308c-33.01-25.361-75.2-44.046-129.15-48.583M697.66.156c79.89-3.401 158.2 48.406 210.22 190.303 17.27 47.093 29.7 100.229 36.23 157.679-2.92-9.308-6.5-19.805-10.89-31.031l-.02-.027 10.89 31.023c12.89 113.442 2.67 243.72-39.24 377.645-10.09 32.262-21.88 67.229-35.08 104.382l-43.53 117.36 11.87 22.37c215.61 401.32 462.89 803.26 462.89 803.26l-201 451.44s-216.58-394.46-418.61-837.78l-31.02-69.41 12.06 27.54C467.2 1795.83 242.33 2259 242.33 2259L0 1909.29s270.75-473.16 511.95-919.71l5.01 12.25-7.23-17.89c-51.75-132.465-95.95-259.992-126.36-373.254-24.73-92.088-19.72-222.697 5.69-297.284l.01-.017 24.92-62.096c26.3-56.975 54.48-97.302 64-110.188C536.3 62.166 617.76 3.557 697.66.156"/></svg>