<svg xmlns="http://www.w3.org/2000/svg" width="400" height="200" viewBox="-33.638 -0.820 131.281 65.640"><path fill="#fff" d="M45 5.329A5.33 5.33 0 0 0 37.437.491L34.514 1.84a6 6 0 0 1-5.028 0L26.563.491A5.33 5.33 0 0 0 19 5.329V10h26Z"/><circle cx="32" cy="49" r="1" fill="#fff"/><path fill="#fff" d="M32 39a13 13 0 0 1-3.5-.493l3.5 5.607 3.505-5.607A13 13 0 0 1 32 39m6.886-1.994-.138.084-5.694 9.11a3 3 0 0 1 1.9 2.328l6.162-4.74a3.785 3.785 0 0 0-2.23-6.782m-13.634.084-.138-.084a3.785 3.785 0 0 0-2.228 6.783l6.162 4.74a3 3 0 0 1 1.9-2.328ZM23.032 60h4a18.2 18.2 0 0 1 2.888-8.849 3 3 0 0 1-.824-1.449A13.36 13.36 0 0 0 23.032 60m11.052-8.849A18.2 18.2 0 0 1 36.972 60h3.992a13.37 13.37 0 0 0-6.056-10.3 3 3 0 0 1-.824 1.451"/><path fill="#fff" d="M55.563 50.584a9 9 0 0 0-6.894-7.866l-4.149-.976a5.73 5.73 0 0 1-2.187 3.632L37.485 49.1A15.37 15.37 0 0 1 43 60.944 1.05 1.05 0 0 1 42 62h-6a1 1 0 0 1-1-1 16.15 16.15 0 0 0-2.792-9.021c-.07.005-.137.021-.208.021s-.138-.016-.208-.021A16.15 16.15 0 0 0 29 61a1 1 0 0 1-1 1h-6a1 1 0 0 1-1-1 15.42 15.42 0 0 1 5.515-11.9l-4.848-3.73a5.73 5.73 0 0 1-2.185-3.623l-4.151.967a9 9 0 0 0-6.894 7.866L7.205 62.9A1 1 0 0 0 8.2 64H14v-9a1 1 0 0 1 2 0v9h32v-9a1 1 0 0 1 2 0v9h5.8a1 1 0 0 0 1-1.1ZM16 21a3 3 0 0 0 3 3v-5.28c-.514-.085-1.03-.182-1.547-.279A2.99 2.99 0 0 0 16 21m29-2.28V24a2.993 2.993 0 0 0 1.547-5.559c-.517.097-1.033.194-1.547.279m-2 .31a78.5 78.5 0 0 1-11 .747 78.5 78.5 0 0 1-11-.747V26a11 11 0 0 0 22 0ZM27 23a1 1 0 0 1-2 0v-1a1 1 0 0 1 2 0Zm8.207 8.672a4.544 4.544 0 0 1-6.414 0 1 1 0 1 1 1.414-1.414 2.54 2.54 0 0 0 3.586 0 1 1 0 1 1 1.414 1.414M39 23a1 1 0 0 1-2 0v-1a1 1 0 0 1 2 0Zm-24.116-7.123A75.8 75.8 0 0 0 32 17.778a75.8 75.8 0 0 0 17.116-1.9.96.96 0 0 0 .2-1.826L45 12H19l-4.314 2.051a.96.96 0 0 0 .198 1.826"/></svg>