<svg xmlns="http://www.w3.org/2000/svg" width="400" height="200" viewBox="-268.791 -6.563 1050.254 525.127"><path fill="#fff" d="M418.027 417.742c-30.234 30.219-39.359 66.695-21.226 84.844 21.785 21.785 61.652 1.996 84.86-21.211 30.234-30.234 39.359-66.71 21.21-84.875-18.148-18.133-54.625-8.992-84.844 21.242m71.407-325.211c-6.914-4.601-16.215-2.754-20.801 4.16-4.598 6.899-2.723 16.215 4.16 20.801 5.965 3.969 9.375 10.356 9.375 17.52s-3.41 13.55-9.375 17.52c-14.238 9.491-22.734 25.37-22.734 42.48s8.496 32.988 22.734 42.48c7.016 4.653 16.281 2.633 20.8-4.16 4.602-6.898 2.739-16.203-4.16-20.8-5.96-3.97-9.374-10.356-9.374-17.52s3.414-13.551 9.375-17.52c14.238-9.492 22.734-25.37 22.734-42.48s-8.492-32.989-22.734-42.48m-75-90.001c-6.914-4.613-16.215-2.738-20.801 4.16-4.598 6.899-2.723 16.215 4.16 20.801 5.965 3.969 9.375 10.356 9.375 17.52s-3.41 13.55-9.375 17.52c-14.238 9.491-22.734 25.37-22.734 42.48s8.496 32.988 22.734 42.48c7.016 4.653 16.281 2.633 20.8-4.16 4.602-6.898 2.739-16.203-4.16-20.8-5.96-3.97-9.374-10.356-9.374-17.52s3.414-13.551 9.375-17.52c14.238-9.492 22.734-25.37 22.734-42.48s-8.492-32.989-22.734-42.48M245.96 266.973c5.868 5.714 15.274 5.714 21.095-.106 5.812-5.797 5.82-15.258.05-21.105-.027-.035-.07-.04-.093-.075-.024-.023-.024-.054-.043-.078-5.848-5.812-15.297-5.793-21.14.051-5.817 5.832-5.825 15.262-.063 21.13.027.022.062.026.093.05.043.039.059.094.102.133m-41.063 85.761a1278 1278 0 0 0 46.868 43.473c12.597-31.23 31.62-60.812 57.71-86.902 25.973-25.98 55.704-45.27 86.77-57.86-13.867-15.699-28.332-31.343-43.516-46.894-19.043 9.554-37.195 21.62-54.511 35.246 6.336 16.164 3.078 35.258-9.942 48.297-12.445 12.406-31.25 16.754-48.484 9.93-13.719 17.41-25.363 35.687-34.895 54.71m0 0"/><path fill="#fff" d="M217.68 277.648c-9.38-17.105-7.528-38.734 6.937-53.199 14.496-14.496 36.2-16.328 53.32-6.847 16.829-13.407 34.516-25.188 52.954-35.098C207.01 61.457 60.223-34.684 12.813 12.64-34.507 59.977 61.52 206.688 182.52 330.566c9.886-18.375 21.667-36.02 35.16-52.918m113.008 52.868c-25.907 25.918-44.583 55.336-55.301 86.406 27.297 22.848 56.695 45.59 82.187 62.672-.472-26.559 12.922-56.766 39.242-83.078 24.961-24.977 54.727-39.301 81.649-39.301.5 0 .95.117 1.45.129-17.067-25.477-39.911-54.746-62.74-82.02-30.85 10.703-60.64 29.36-86.488 55.192m0 0"/></svg>