<svg xmlns="http://www.w3.org/2000/svg" width="400" height="200" viewBox="-25.476 3.317 114.952 57.476"><path fill="#fff" d="M59.683 16.547c-1.312-2.496-3.607-2.042-5.8-1.03l-5.398-5.4c.21-.57.41-1.109.62-1.609a3.282 3.282 0 0 0-5.35-3.54c-1.56 2.165-2.39 5.618-3.13 9.129 2.052.168 4.5.657 6.46.97a25 25 0 0 1 .7-2.82l3.969 3.97c-2.535.707-3.906 1.063-5.61.73-17.553-3.79-31.42 1.921-30.224 21.466 2.246-.182 4.394.483 6.619.77a28.3 28.3 0 0 1-.01-5.6l7.889 7.89a32.5 32.5 0 0 1-7.65-.24c-2.937-.387-5.725-1.264-8.678-.59a39 39 0 0 0-8.038 2.4 3.284 3.284 0 0 0-1.74 4.418c1.306 2.503 3.63 2.032 5.799 1.03l5.4 5.4c-.21.57-.41 1.11-.61 1.61a3.27 3.27 0 1 0 6.058 2.459 40 40 0 0 0 2.41-8.049c-2.151-.177-4.395-.658-6.44-.97-.21.75-.373 1.795-.719 2.82l-3.98-3.98a13.5 13.5 0 0 1 5.23-.8c17.399 4.041 32.004-1.839 30.614-21.386-2.272.18-4.363-.484-6.618-.77a28.3 28.3 0 0 1 .01 5.6l-7.889-7.89a28.3 28.3 0 0 1 5.669.02c2.515.135 5.024.866 7.529 1.05 3.768.14 8.636-1.598 11.168-2.64a3.273 3.273 0 0 0 1.74-4.418M32.827 41.063l-9.888-9.889a11.6 11.6 0 0 1 2.17-4.649l12.367 12.368a11.6 11.6 0 0 1-4.649 2.17m8.229-8.23a11.6 11.6 0 0 1-2.17 4.65L26.518 25.115a11.6 11.6 0 0 1 4.65-2.17z"/></svg>