<svg xmlns="http://www.w3.org/2000/svg" width="400" height="200" viewBox="-252.599 -6.161 985.751 492.875"><path fill="#fff" d="M159.509 438.439 170 469.911c2.994 8.982-9.126 14.221-14.481 7.527l-18.673-23.342a8 8 0 0 1 .827-10.882l8.827-8.13c4.269-3.932 11.174-2.151 13.009 3.355m161.295-.359-11.069 31.726c-3.307 9.478 9.99 14.27 15.299 7.633l18.673-23.342a8 8 0 0 0-.827-10.882l-9.103-8.384c-4.234-3.9-11.077-2.186-12.973 3.249m-25.283-42.452c-29.646 31.972-30.882 31.623-29.699 37.063l9.011 41.449c1.743 8.019 13.469 8.522 16.114.943l23.418-67.119c1.126-3.228-.313-7.368-3.139-9.293a41 41 0 0 1-4.414-3.474c-3.271-2.962-8.291-2.804-11.291.431m-121.788-.427a41 41 0 0 1-4.397 3.458c-2.78 1.893-4.223 5.994-3.16 9.185l22.376 67.127c2.545 7.636 15.353 7.514 17.167-.83 9.65-44.388 10.845-44.505 7.059-48.587l-27.749-29.925c-3.001-3.239-8.021-3.389-11.296-.428m251.403 74.55c-13.65-38.27-50.12-63.98-90.77-63.98-3.084 0-4.318 3.874-2.297 5.735l32.627 30.051a8 8 0 0 1 .827 10.882l-18.342 22.927c-1.636 2.045-.18 5.075 2.439 5.075h67.8c6.061 0 9.475-5.739 7.716-10.69m-310.107-17.313a8 8 0 0 1 .827-10.882c34.876-32.123 34.447-30.734 33.526-33.497-.923-2.768-4.196-2.289-3.196-2.289-40.65 0-77.12 25.71-90.77 63.98-1.754 4.938 1.642 10.69 7.716 10.69h67.507c2.737 0 4.259-3.166 2.549-5.303zm138.281-1.98c-.667-3.069-4.479-4.236-6.699-2.015-4.048 4.048-8.549 4.104-12.608.032-2.241-2.248-6.081-1.144-6.755 1.958l-5.469 25.159a4 4 0 0 0 3.909 4.85h29.179a4 4 0 0 0 3.909-4.85zm-10.101-21.946 32.836-35.412c2.716-2.93-.057-7.552-3.935-6.592a134.4 134.4 0 0 1-63.438.278c-3.869-.923-6.606 3.684-3.901 6.6l32.572 35.126a4 4 0 0 0 5.866 0M374.136 175.92v47.255c0 8.326 11.169 11.131 15.063 3.771a43.7 43.7 0 0 0 5.077-20.505v-33.618c0-6.672-7.657-10.373-12.935-6.293-3.845 2.972-7.205 4.541-7.205 9.39m-15.86 18.934v59.9c0 53.815-36.189 100.238-85.433 114.882-4.083 1.214-6.908-3.975-3.755-6.839 4.625-4.2 8.33-9.422 10.658-15.491 3.744-9.763-11.021-15.781-14.991-5.596-8.701 22.319-40.451 22.184-49.009-.134a8.002 8.002 0 0 0-11.151-4.24c-9.565 4.91-.491 19.056 7.271 25.971 3.135 2.793.26 7.928-3.785 6.8-32.105-8.953-58.861-31.129-73.674-60.206q-.03-.03-.03-.06c-15.658-30.571-13.641-52.808-13.049-112.804.053-5.391 5.321-9.179 10.45-7.521 91.471 29.578 170.132 19.494 215.111-1.906 5.288-2.517 11.387 1.386 11.387 7.244m-139 38.346c0-10.57-16-10.585-16 0v12.48c0 10.57 16 10.585 16 0zm58 0c0-10.57-16-10.585-16 0v12.48c0 10.57 16 10.585 16 0zm-11.168-94.845c-10.471-1.545-8.113-17.381 2.336-15.828 48.424 7.149 98.547-.214 143.18-24.387a7.87 7.87 0 0 0 3.657-4.242c5.077-14.157 8.121-29.758 8.985-46.777.249-4.732-3.791-9.441-10.24-8.11-34.02 7.01-69.52 2.15-99.97-13.68-124.54-64.762-228.78 3.999-228.78 100.91 0 93.822-1.74 94.452 5.256 106.169 4.169 6.982 14.885 4.036 14.883-4.097-.009-57.433-.192-64.149.571-64.912 1.31-3.85 5.68-6.28 9.93-4.78 7.498 2.727 4.014 7.912 8.62 11.1 4.626 4.168 110.327 40.616 198.84 9.77.792 0 32.494-9.766 59.385-35.395 6.061-5.777.135-15.815-7.879-13.39-35.819 10.839-73.071 12.92-108.774 7.649"/></svg>