<svg xmlns="http://www.w3.org/2000/svg" width="400" height="200" viewBox="-1125.077 -22.539 3606.158 1803.079"><path fill="#fff" fill-rule="evenodd" d="m382.51 1603.93 38.38 115.14c10.96 32.85-33.38 52.02-52.98 27.53l-68.31-85.39c-9.6-12.01-8.28-29.39 3.02-39.81l32.3-29.74c15.62-14.39 40.88-7.87 47.59 12.27m590.1-1.31-40.49 116.06c-12.1 34.67 36.54 52.21 55.97 27.93l68.31-85.4c9.61-12 8.28-29.39-3.02-39.81l-33.31-30.67c-15.49-14.26-40.52-7.99-47.46 11.89m-92.5-155.3C771.65 1564.28 767.13 1563 771.46 1582.9l32.97 151.64c6.37 29.33 49.27 31.17 58.95 3.45l85.67-245.54c4.12-11.81-1.14-26.96-11.48-34-5.61-3.82-11.01-8.06-16.15-12.71-11.97-10.83-30.33-10.26-41.31 1.58m-445.56-1.56c-5.12 4.62-10.49 8.84-16.09 12.65-10.17 6.92-15.45 21.92-11.56 33.6l81.87 245.57c9.31 27.93 56.17 27.49 62.8-3.04 35.31-162.38 39.68-162.81 25.83-177.74l-101.52-109.48c-10.98-11.85-29.35-12.4-41.33-1.56m919.76 272.72c-49.94-140-183.36-234.06-332.08-234.06-11.29 0-15.8 14.18-8.41 20.98l119.37 109.94c11.31 10.41 12.63 27.8 3.03 39.81l-67.11 83.87c-5.98 7.48-.66 18.57 8.92 18.57h248.05c22.18 0 34.67-21 28.23-39.11m-1134.53-63.34c-9.6-12-8.28-29.39 3.03-39.8 127.59-117.52 126.02-112.44 122.65-122.55-3.37-10.12-15.35-8.37-11.69-8.37-148.72 0-282.14 94.05-332.08 234.06-6.42 18.06 6 39.1 28.23 39.1h246.97c10.01 0 15.58-11.58 9.33-19.4zm505.9-7.24c-2.44-11.23-16.38-15.5-24.5-7.37-14.81 14.81-31.28 15.01-46.13.12-8.2-8.23-22.25-4.19-24.71 7.16l-20.01 92.04c-1.99 9.12 4.96 17.74 14.3 17.74h106.75c9.33 0 16.28-8.62 14.3-17.74zm-36.95-80.28 120.13-129.55c9.94-10.72-.21-27.63-14.4-24.12-76.57 18.96-156.31 19.1-232.08 1.02-14.16-3.38-24.17 13.48-14.28 24.15l119.17 128.5c5.79 6.24 15.67 6.24 21.46 0m479-924.06v172.88c0 30.45 40.86 40.72 55.1 13.79 11.86-22.41 18.58-47.95 18.58-75.01V632.234c0-24.408-28.01-37.947-47.32-23.021-14.07 10.872-26.36 16.612-26.36 34.347m-58.03 69.27v219.13c0 196.87-210.08 367.04-312.55 420.27-94.61 49.15-176.74 19.98-236.94 1.72-87.97-26.68-215.34-113.87-269.53-220.25-.08-.07-.11-.14-.11-.22-57.29-111.83-49.91-193.18-47.74-412.66.19-19.73 19.46-33.58 38.23-27.52 334.65 108.21 622.43 71.32 786.98-6.97 19.35-9.21 41.66 5.07 41.66 26.5M601.17 853.11c0-38.67-58.54-38.72-58.54 0v45.66c0 38.66 58.54 38.72 58.54 0zm212.19 0c0-38.67-58.53-38.72-58.53 0v45.66c0 38.66 58.53 38.72 58.53 0zm-40.85-346.97c-38.31-5.652-29.69-63.584 8.54-57.903 177.16 26.153 360.54-.783 523.83-89.215 6.19-3.358 10.99-8.886 13.38-15.518 18.57-51.79 29.71-108.863 32.87-171.124.91-17.311-13.87-34.537-37.47-29.668-124.46 25.645-254.33 7.865-365.74-50.046-455.63-236.917-836.99 14.63-836.99 369.158 0 343.226-6.37 345.536 19.23 388.396 15.25 25.54 54.46 14.76 54.45-14.99-.03-210.104-.7-234.673 2.09-237.464 4.79-14.085 20.78-22.974 36.33-17.487 27.43 9.976 14.68 28.944 31.53 40.607 16.93 15.248 403.64 148.584 727.46 35.744 2.9 0 118.88-35.729 217.26-129.488 22.18-21.133.49-57.855-28.82-48.984-131.05 39.652-267.34 47.265-397.95 27.982"/></svg>