<svg xmlns="http://www.w3.org/2000/svg" width="400" height="200" viewBox="-269.126 -6.564 1050.256 525.128"><path fill="#fff" d="M204.422 365.27a129.4 129.4 0 0 1-11.3 28.363c-1.43 2.61-2.892 5.27-4.36 7.957a159.2 159.2 0 0 1 67.27-14.93 159.1 159.1 0 0 1 67.257 14.93c-1.45-2.668-2.898-5.328-4.309-7.93a130 130 0 0 1-11.37-28.39zm99.59-90c2.84-21.02 12.578-40.938 27.66-56.047a60 60 0 0 1 2.219-2.133 124.7 124.7 0 0 1-29.692 3.582c-16.629 0-33.027-3.3-48.199-9.621-15.18 6.332-31.57 9.62-48.2 9.62-10.062 0-20.01-1.21-29.671-3.57a66 66 0 0 1 2.2 2.122c15.343 15.308 24.94 34.859 27.702 56.047zm47.32 45c0-8.286-6.715-15-15-15H175.668c-8.285 0-15 6.714-15 15 0 8.28 6.715 15 15 15h160.664c8.285 0 15-6.72 15-15m113.539 148.421c-10.152 0-20.16 2.621-29 7.442-1.41-1.883-2.95-3.922-4.562-6.07-21.829-29.07-60.72-38.274-92.809-23.532-47.54-39.82-117.379-39.82-164.98-.011-32.098-14.797-70.97-5.579-92.75 23.53-1.622 2.16-3.16 4.212-4.59 6.11-8.852-4.84-18.88-7.469-29.051-7.469-15.91 0-31.488 6.45-42.738 17.7A14.98 14.98 0 0 0 0 496.992V497c0 8.281 6.719 15 15 15h482c8.281 0 15-6.719 15-15.008 0-3.98-1.578-7.793-4.39-10.601-11.25-11.25-26.829-17.7-42.739-17.7M63.2 206.734c15.831 0 30.855-5.851 42.347-16.28q2.906.215 5.855.214c16.602 0 32.477-5.106 45.801-14.563a95.36 95.36 0 0 0 50.598 14.563c17.172 0 33.637-4.492 48.199-13.07 14.563 8.578 31.027 13.07 48.2 13.07 17.933 0 35.515-5.11 50.636-14.563 13.277 9.461 29.137 14.563 45.766 14.563 1.996 0 3.953-.07 5.886-.215a63.03 63.03 0 0 0 42.313 16.281c34.851 0 63.203-28.351 63.203-63.199 0-24.805-14.219-46.82-36.137-57.14a79.8 79.8 0 0 0-25.226-36.48c-14.086-11.466-31.856-17.782-50.04-17.782a78.7 78.7 0 0 0-22.28 3.187C360.304 13.004 333.405 0 304.198 0 287.027 0 270.562 4.492 256 13.074 241.437 4.492 224.973 0 207.8 0c-29.16 0-56.034 13.008-74.042 35.324-7.211-2.12-14.692-3.187-22.356-3.187-18.152 0-35.898 6.312-49.976 17.785a79.8 79.8 0 0 0-25.207 36.46C14.25 96.693 0 118.716 0 143.536c0 34.848 28.352 63.2 63.2 63.2m0 0"/></svg>