<svg xmlns="http://www.w3.org/2000/svg" width="400" height="200" viewBox="-238.359 8.821 988.718 494.359"><path d="M86.655 111.568V54.81c0-16.463 13.597-29.808 30.37-29.808h0c16.773 0 30.37 13.346 30.37 29.808v57.758m0 0v-67.76c0-16.463 13.597-29.808 30.37-29.808h0c16.773 0 30.37 13.346 30.37 29.808v70.76" style="fill:none;stroke:#fff;stroke-width:30;stroke-linecap:round;stroke-linejoin:round;stroke-miterlimit:10"/><path d="M208.135 144.131V61.929c0-16.463 13.597-29.808 30.37-29.808h0c16.773 0 30.37 13.346 30.37 29.808v62.2m0 17.12v-62.2c0-16.463 13.597-29.808 30.37-29.808h0c16.773 0 30.37 13.346 30.37 29.808v62.2m-192.858 64.027v-20.003c39.421 0 71.378-31.366 71.378-70.058v0H85.176c-13.418 0-24.296 10.677-24.296 23.847v88.257a46.42 46.42 0 0 0 20.192 38.301l36.291 24.85-.015 128.822M238.853 497H97.025v-73.329h141.48m-30.346-197.807v-56.758c0-16.463 13.597-29.808 30.37-29.808h0c16.773 0 30.37 13.346 30.37 29.808v57.758" style="fill:none;stroke:#fff;stroke-width:30;stroke-linecap:round;stroke-linejoin:round;stroke-miterlimit:10"/><path d="M268.9 226.865v-67.759c0-16.463 13.597-29.808 30.37-29.808h0c16.773 0 30.37 13.346 30.37 29.808v70.406m30.37 38.722c-16.773 0-30.37-13.346-30.37-29.808v-62.2c0-16.463 13.597-29.808 30.37-29.808h0c16.773 0 30.37 13.346 30.37 29.808v62.2c0 16.462-13.597 29.808-30.37 29.808m60.74 17.12c-16.773 0-30.37-13.346-30.37-29.808v-62.2c0-16.463 13.597-29.808 30.37-29.808h0c16.773 0 30.37 13.346 30.37 29.808v62.2c0 16.462-13.597 29.808-30.37 29.808" style="fill:none;stroke:#fff;stroke-width:30;stroke-linecap:round;stroke-linejoin:round;stroke-miterlimit:10"/><path d="M258.262 319.572v-20.003c39.421 0 71.378-31.366 71.378-70.058v0H206.68c-13.418 0-24.296 10.677-24.296 23.847v68.254a46.42 46.42 0 0 0 20.192 38.301l36.291 24.85L238.853 497H394.4l.012-118.374 14.096-23.19a91.16 91.16 0 0 0 13.26-47.347v-18.06" style="fill:none;stroke:#fff;stroke-width:30;stroke-linecap:round;stroke-linejoin:round;stroke-miterlimit:10"/></svg>