<svg xmlns="http://www.w3.org/2000/svg" width="400" height="200" data-name="Layer 1" viewBox="-31.590 0.205 127.179 63.590"><path fill="#fff" d="M37 23H27L38 1h10zm-6.12-12.24-5 10L16 1h10zM32 25a19 19 0 1 0 19 19 19 19 0 0 0-19-19m13 16.3a1.21 1.21 0 0 1-.61 1.05L38 46l2.469 7.407a1.21 1.21 0 0 1-1.748 1.434L32 51l-6.721 3.841a1.21 1.21 0 0 1-1.748-1.434L26 46l-6.39-3.652A1.21 1.21 0 0 1 19 41.3v-.215a1.21 1.21 0 0 1 1.076-1.2L28 39l2.706-7.215A1.21 1.21 0 0 1 31.839 31h.322a1.21 1.21 0 0 1 1.133.785L36 39l7.924.88A1.21 1.21 0 0 1 45 41.083z"/><path fill="#fff" d="M41 24H23a1 1 0 0 1 0-2h18a1 1 0 0 1 0 2"/></svg>