<svg xmlns="http://www.w3.org/2000/svg" width="400" height="200" viewBox="-10.785 19.607 121.570 60.785"><path fill="#fff" d="m22.257 57.676-3.863 6.663c-1.35-.318-2.426-1.164-3.304-2.601-.45-.747-.417-1.746.088-2.547l1.317-2.064c0-.01.01-.01.01-.021l.165-.264c.516-.801 1.405-1.262 2.262-1.174 1.426.142 2.502.79 3.325 2.008m9.44 4.204-5.861 8.87c-3.81-.484-4.687-2.416-4.896-4.227l4.5-7.76c1.834-1.559 3.886-1.46 5.126-.637 1.219.802 1.625 2.163 1.131 3.754m6.476 7.179-4.72 6.52c-2.283-.11-3.863-1.076-4.895-2.975l5.62-8.496c1.547-.197 2.788.088 3.501.868.79.867.966 2.348.494 4.083m4.819 6.596-1.087 1.8a3.27 3.27 0 0 1-2.678 1.581c-1.13.044-2.053-.439-2.679-1.306-.087-.132-.186-.274-.285-.417l4.39-6.07c1.46-.252 1.954.176 2.284.615.79 1.02.812 2.557.055 3.797"/><path fill="#fff" d="M80.948 60.41c-.769 1.207-2.207 1.887-4.369 2.085l-12.315-7.65c-.769-.473-1.79-.242-2.261.526a1.65 1.65 0 0 0 .526 2.272l12.02 7.464c-.033 1.12-.297 1.976-.846 2.569-.757.823-2.13 1.273-4.06 1.36l-10.209-5.75a1.633 1.633 0 0 0-2.239.625c-.45.79-.165 1.789.626 2.239l9.692 5.466c-.253 1.471-1.34 2.953-5.17 3.469l-9.484-4.522a1.643 1.643 0 0 0-2.195.779c-.395.823-.044 1.8.78 2.195l8.978 4.28c-.143.89-.713 1.373-1.899 1.67-.834.219-1.79.186-2.81-.067l-9.681-2.48c1.196-2.327 1.032-5.115-.483-7.091-1.141-1.482-2.59-1.932-3.842-1.976.132-2.03-.417-3.83-1.602-5.126-1.186-1.306-2.887-1.986-4.907-2.02.022-2.173-.976-4.137-2.82-5.356-1.965-1.295-4.973-1.69-7.772-.055-1.35-1.7-3.172-2.71-5.345-2.92-1.482-.153-2.953.34-4.105 1.274l-2.711-3.578a8.8 8.8 0 0 0-3.48-2.766L2.5 44.46l4.632-24.093 15.51 7.244c3.468 1.537 7.101 2.667 11.042 3.447-1.164 1.723-2.338 3.446-3.535 5.224a5.293 5.293 0 0 0 3.007 8.057 5.3 5.3 0 0 0 3.349-.187c3.183-1.25 6.08-3.742 8.857-7.595l4.248-1.208 13.655 7.344 15.992 14.203c.022.011.044.033.066.044l1.23 1.097c.691.615.867 1.636.395 2.371"/><path fill="#fff" d="m97.5 45.855-6.125 1.416a9.6 9.6 0 0 0-4.094 2.041 34.8 34.8 0 0 1-6.63 4.413L65.306 40.103c-.087-.088-.197-.153-.307-.22l-14.423-7.749a1.6 1.6 0 0 0-1.23-.131l-5.443 1.547c-.363.11-.68.33-.9.648-2.492 3.578-5.017 5.828-7.684 6.882a2.06 2.06 0 0 1-1.306.088c-1.02-.275-1.47-1.175-1.47-1.943 0-.395.109-.78.34-1.108 1.679-2.47 3.314-4.896 4.939-7.31l.022-.023c0-.01 0-.01.01-.01l.231-.352c.11-.154.209-.307.297-.439a7.18 7.18 0 0 1 4.599-3.018c4.686-.857 9.286-1.263 13.687-1.197.505 0 1.065.077 1.669.22l10.109 2.403c1.47.34 3.018.374 4.511.11l3.161-.593a11 11 0 0 0 2.283-.68l14.346-6.103z"/></svg>