<svg xmlns="http://www.w3.org/2000/svg" xmlns:xlink="http://www.w3.org/1999/xlink" width="400" height="200" viewBox="-338.325 1.504 1359.317 679.658"><defs><path id="a" d="M0 0c0-17.617-14.281-31.898-31.898-31.898S-63.796-17.617-63.796 0s14.281 31.898 31.898 31.898S0 17.617 0 0"/><path id="b" d="M0 0v-17.389"/></defs><path d="M0 0v155.75c0 28.18 19.6 52.56 47.12 58.61l73.67 16.19a19.97 19.97 0 0 1 15.57 17.25" style="fill:none;stroke:#fff;stroke-width:15;stroke-linecap:round;stroke-linejoin:round;stroke-miterlimit:10;stroke-dasharray:none;stroke-opacity:1" transform="matrix(1.33333 0 0 -1.33333 104 672.667)"/><path d="M0 0c.95-8.39 7.14-15.4 15.57-17.24l73.67-16.19c27.52-6.05 47.12-30.43 47.12-58.61v-155.75" style="fill:none;stroke:#fff;stroke-width:15;stroke-linecap:round;stroke-linejoin:round;stroke-miterlimit:10;stroke-dasharray:none;stroke-opacity:1" transform="matrix(1.33333 0 0 -1.33333 396.853 342.28)"/><path d="M0 0v-44.874" style="fill:none;stroke:#fff;stroke-width:15;stroke-linecap:round;stroke-linejoin:round;stroke-miterlimit:10;stroke-dasharray:none;stroke-opacity:1" transform="matrix(1.33333 0 0 -1.33333 204 612.835)"/><path d="M0 0h-9.12a24.56 24.56 0 0 0-17.44 7.23c-4.47 4.47-7.23 10.63-7.23 17.45 0 13.631 11.05 24.671 24.67 24.671h8.59" style="fill:none;stroke:#fff;stroke-width:15;stroke-linecap:round;stroke-linejoin:round;stroke-miterlimit:10;stroke-dasharray:none;stroke-opacity:1" transform="matrix(1.33333 0 0 -1.33333 196.973 227.493)"/><path d="M0 0h8.59c13.62 0 24.67-11.04 24.67-24.671 0-6.819-2.76-12.979-7.23-17.449a24.56 24.56 0 0 0-17.44-7.231H-.53" style="fill:none;stroke:#fff;stroke-width:15;stroke-linecap:round;stroke-linejoin:round;stroke-miterlimit:10;stroke-dasharray:none;stroke-opacity:1" transform="matrix(1.33333 0 0 -1.33333 486.4 161.693)"/><path d="M0 0c-14.988-18.464-23.969-42-23.969-67.634v-45.308c0-41.596 25.069-79.096 63.508-94.993l27.944-11.556a45.42 45.42 0 0 1 34.723.002l27.92 11.551c38.434 15.898 63.498 53.391 63.498 94.983v45.321c0 59.31-48.081 107.39-107.39 107.39H83.42c-20.905 0-40.416-5.974-56.917-16.308" style="fill:none;stroke:#fff;stroke-width:15;stroke-linecap:round;stroke-linejoin:round;stroke-miterlimit:10;stroke-dasharray:none;stroke-opacity:1" transform="matrix(1.33333 0 0 -1.33333 228.23 63.008)"/><path d="M0 0c3.002-1.646 9.366-4.613 17.943-4.703C26.973-4.798 33.67-1.652 36.684 0" style="fill:none;stroke:#fff;stroke-width:15;stroke-linecap:round;stroke-linejoin:round;stroke-miterlimit:10;stroke-dasharray:none;stroke-opacity:1" transform="matrix(1.33333 0 0 -1.33333 316.878 292.863)"/><use xlink:href="#a" style="fill:none;stroke:#fff;stroke-width:15;stroke-linecap:round;stroke-linejoin:round;stroke-miterlimit:10;stroke-dasharray:none;stroke-opacity:1" transform="matrix(1.33333 0 0 -1.33333 446.395 188.667)"/><use xlink:href="#b" style="fill:none;stroke:#fff;stroke-width:15;stroke-linecap:round;stroke-linejoin:round;stroke-miterlimit:10;stroke-dasharray:none;stroke-opacity:1" transform="matrix(1.33333 0 0 -1.33333 403.865 177.074)"/><use xlink:href="#a" style="fill:none;stroke:#fff;stroke-width:15;stroke-linecap:round;stroke-linejoin:round;stroke-miterlimit:10;stroke-dasharray:none;stroke-opacity:1" transform="matrix(1.33333 0 0 -1.33333 321.333 188.667)"/><use xlink:href="#b" style="fill:none;stroke:#fff;stroke-width:15;stroke-linecap:round;stroke-linejoin:round;stroke-miterlimit:10;stroke-dasharray:none;stroke-opacity:1" transform="matrix(1.33333 0 0 -1.33333 278.802 177.074)"/><path d="M0 0c2.772 1.444 8.827 4.119 16.86 3.827A33.84 33.84 0 0 0 31.269 0" style="fill:none;stroke:#fff;stroke-width:15;stroke-linecap:round;stroke-linejoin:round;stroke-miterlimit:10;stroke-dasharray:none;stroke-opacity:1" transform="matrix(1.33333 0 0 -1.33333 320.511 180.33)"/><path d="m0 0-31.092-11.948" style="fill:none;stroke:#fff;stroke-width:15;stroke-linecap:round;stroke-linejoin:round;stroke-miterlimit:10;stroke-dasharray:none;stroke-opacity:1" transform="matrix(1.33333 0 0 -1.33333 486.395 161.687)"/><path d="m0 0 31.092-11.948" style="fill:none;stroke:#fff;stroke-width:15;stroke-linecap:round;stroke-linejoin:round;stroke-miterlimit:10;stroke-dasharray:none;stroke-opacity:1" transform="matrix(1.33333 0 0 -1.33333 196.271 161.687)"/><path d="M0 0a82.84 82.84 0 0 1 36.684 0" style="fill:none;stroke:#fff;stroke-width:15;stroke-linecap:round;stroke-linejoin:round;stroke-miterlimit:10;stroke-dasharray:none;stroke-opacity:1" transform="matrix(1.33333 0 0 -1.33333 316.878 82.103)"/><path d="M0 0a20.6 20.6 0 0 1 11.672 0" style="fill:none;stroke:#fff;stroke-width:15;stroke-linecap:round;stroke-linejoin:round;stroke-miterlimit:10;stroke-dasharray:none;stroke-opacity:1" transform="matrix(1.33333 0 0 -1.33333 333.552 122.103)"/><path d="M0 0c69.119-16.658 128.246-10.997 158.891-6.324" style="fill:none;stroke:#fff;stroke-width:15;stroke-linecap:round;stroke-linejoin:round;stroke-miterlimit:10;stroke-dasharray:none;stroke-opacity:1" transform="matrix(1.33333 0 0 -1.33333 366.812 550.8)"/><path d="M0 0c23.895-23.486 59.928-53.081 109.536-76.142a384 384 0 0 1 38.54-15.443" style="fill:none;stroke:#fff;stroke-width:15;stroke-linecap:round;stroke-linejoin:round;stroke-miterlimit:10;stroke-dasharray:none;stroke-opacity:1" transform="matrix(1.33333 0 0 -1.33333 124.322 415.648)"/><path d="M0 0c13.373-13.59 29.513-27.285 48.885-39.601 90.866-57.765 191.096-45.904 231.031-38.783" style="fill:none;stroke:#fff;stroke-width:15;stroke-linecap:round;stroke-linejoin:round;stroke-miterlimit:10;stroke-dasharray:none;stroke-opacity:1" transform="matrix(1.33333 0 0 -1.33333 205.445 378.371)"/><path d="M0 0c30.864-23.358 76.392-52.217 136.4-73.043 92.249-32.014 173.259-29.266 219.6-24.043" style="fill:none;stroke:#fff;stroke-width:15;stroke-linecap:round;stroke-linejoin:round;stroke-miterlimit:10;stroke-dasharray:none;stroke-opacity:1" transform="matrix(1.33333 0 0 -1.33333 104 506.719)"/><path d="M0 0c-3.094-8.893-8.173-20.154-16.718-31.628-18.615-24.993-42.589-36.108-54.529-40.653" style="fill:none;stroke:#fff;stroke-width:15;stroke-linecap:round;stroke-linejoin:round;stroke-miterlimit:10;stroke-dasharray:none;stroke-opacity:1" transform="matrix(1.33333 0 0 -1.33333 434.43 368.966)"/><path d="M0 0a143.4 143.4 0 0 0-10.775-33.735c-8.637-18.672-19.69-31.974-27.959-40.402" style="fill:none;stroke:#fff;stroke-width:15;stroke-linecap:round;stroke-linejoin:round;stroke-miterlimit:10;stroke-dasharray:none;stroke-opacity:1" transform="matrix(1.33333 0 0 -1.33333 509.527 391.185)"/></svg>