<svg xmlns="http://www.w3.org/2000/svg" width="400" height="200" data-name="Layer 1" viewBox="-39.224 12.382 206.458 103.229"><path fill="#fff" d="M62.92 98.93a1 1 0 0 0-.74 1.86l.87.34a1 1 0 0 0 .37.08 1 1 0 0 0 .93-.63 1 1 0 0 0-.56-1.3Zm-3.72.67a1 1 0 0 0 .8-1.86l-4.69-1.87a1 1 0 0 0-.82 0l-4.36 2.17v-5.8a1 1 0 0 0-2 0v6.07L34.15 93.8a1 1 0 0 0-.74 0L21.8 99.35a1 1 0 0 0 .43 1.9.94.94 0 0 0 .43-.1l11.25-5.33 14.86 4.82a1 1 0 0 0 .17 0 .7.7 0 0 0 .14 0 .7.7 0 0 0 .21 0 .6.6 0 0 0 .18 0l5.4-2.7ZM1.5 97.63h12.67l4.3 2a.9.9 0 0 0 .42.1 1 1 0 0 0 .42-1.91l-4.5-2.08a1 1 0 0 0-.42-.09H1.5a1 1 0 0 0 0 2Zm51.22 13.93-1.49.9a1 1 0 0 0 .52 1.86 1 1 0 0 0 .52-.15l1.48-.89a1 1 0 0 0-1-1.72Zm3.86-.16a1 1 0 0 0 .51-.14l28.23-17L99 100.64a1 1 0 1 0 .84-1.81l-14.16-6.65a1 1 0 0 0-.94 0l-28.68 17.37a1 1 0 0 0-.34 1.37 1 1 0 0 0 .86.48m62.07-16.31-12.53 7.14a1 1 0 0 0 .5 1.86 1 1 0 0 0 .49-.13l12.53-7.13a1 1 0 0 0 .38-1.36 1 1 0 0 0-1.37-.38m7.35-4.18-3.44 2a1 1 0 0 0-.38 1.36 1 1 0 0 0 .87.51 1.1 1.1 0 0 0 .5-.13l3.43-2a1 1 0 0 0 .38-1.37 1 1 0 0 0-1.36-.37M15.92 50.56a1 1 0 0 0-.29 1.44l12.73 19.59a1 1 0 0 0 .84.46 1 1 0 0 0 .8-1.54L17.31 50.86a1 1 0 0 0-1.39-.3m17.31 15.78a1 1 0 0 0 .54.15 1 1 0 0 0 .84-.46l5.78-9.09a1 1 0 0 0 0-1L39 53.37a1 1 0 0 0-1.75 1l1.13 2L32.92 65a1 1 0 0 0 .31 1.34m1.02-17.11L39.46 47a1 1 0 0 0 .61-.92v-4.49a1 1 0 0 0-2 0v3.86l-4.41 1.86H20.92a2.93 2.93 0 0 1-1.67-.53l-2.6-1.86a2.85 2.85 0 0 1-1.2-2.07l-.76-8a1 1 0 1 0-2 .19l.76 8a4.84 4.84 0 0 0 2 3.51l2.6 1.86a4.86 4.86 0 0 0 2.83.9h12.98a1 1 0 0 0 .39-.08"/><path fill="#fff" d="M20.56 40.71a1.1 1.1 0 0 0 .44-.11l2.08-1.08H27l1.37 1a1 1 0 0 0 1.39-.22 1 1 0 0 0-.21-1.4l-1.64-1.19a1 1 0 0 0-.59-.19h-4.46a1 1 0 0 0-.46.11l-2.3 1.19a1 1 0 0 0 .46 1.89M15.92 25.7l-1.46 2a1 1 0 0 0 1.63 1.17l1.25-1.75 4-1.16L23.08 27l-1.43 7.34a1 1 0 0 0 .16.77 1 1 0 0 0 .67.41l3.7.55h.15a1 1 0 0 0 .14-2l-2.66-.39 1.37-7a1 1 0 0 0-.47-1L22 24a1 1 0 0 0-.79-.1l-4.71 1.38a1 1 0 0 0-.58.42m17.94 2.71a1 1 0 0 0 .46-1.89l-4.39-2.26a1 1 0 0 0-.82-.05l-1.31.51a1 1 0 0 0-.58 1.28 1 1 0 0 0 1.29.58l.9-.35 4 2.06a1 1 0 0 0 .45.12"/><path fill="#fff" d="M20.37 30a1 1 0 0 0-.08-.38.9.9 0 0 0-.22-.32 1 1 0 0 0-1.07-.18.9.9 0 0 0-.32.22 1 1 0 0 0-.22.32 1 1 0 0 0-.07.38 1 1 0 0 0 .29.71A1 1 0 0 0 19 31a1.1 1.1 0 0 0 .39.07 1 1 0 0 0 .7-.29 1 1 0 0 0 .28-.78m10.11 1.05a1 1 0 0 0 .7-.3.9.9 0 0 0 .22-.32 1 1 0 0 0 .08-.39 1 1 0 0 0-.08-.38.9.9 0 0 0-.22-.32 1 1 0 0 0-1.63.32 1 1 0 0 0-.07.38 1 1 0 0 0 .07.39 1.07 1.07 0 0 0 .54.54 1.1 1.1 0 0 0 .39.08M51.12 43a1 1 0 0 0-.29-.71 1 1 0 0 0-1.42 0 1 1 0 0 0-.29.71 1 1 0 0 0 .29.7 1 1 0 0 0 .71.3h.38l.18-.09.15-.13a1.2 1.2 0 0 0 .22-.32 1 1 0 0 0 .07-.46m22.32 17.58a1 1 0 0 0-.29.7 1 1 0 0 0 .07.38.8.8 0 0 0 .22.33 1 1 0 0 0 .71.29h.38a1 1 0 0 0 .17-.1.6.6 0 0 0 .15-.12.8.8 0 0 0 .22-.33 1 1 0 0 0 .07-.38 1 1 0 0 0-.29-.7 1 1 0 0 0-1.41-.07m27.01 1.35a1 1 0 0 0-.29-.71 1.2 1.2 0 0 0-.33-.22 1.14 1.14 0 0 0-.58-.06l-.18.06-.17.09-.16.13a1 1 0 0 0-.29.71 1 1 0 0 0 .29.7l.16.13.17.09.18.06h.2a1 1 0 0 0 .38-.08.9.9 0 0 0 .33-.22 1 1 0 0 0 .29-.68m9.13-1.15a1.07 1.07 0 0 0-.54-.54 1 1 0 0 0-.77 0 .9.9 0 0 0-.32.22 1 1 0 0 0-.22.32 1 1 0 0 0-.07.38 1 1 0 0 0 .07.39 1.07 1.07 0 0 0 .54.54 1 1 0 0 0 .39.07 1 1 0 0 0 .38-.07 1 1 0 0 0 .32-.22.9.9 0 0 0 .22-.32 1 1 0 0 0 .08-.39 1 1 0 0 0-.08-.38M45.2 47a1 1 0 0 0 .15 1.41l1.75 1.43a1 1 0 1 0 1.27-1.55l-1.76-1.43a1 1 0 0 0-1.41.14m17.72 14.9L53 59.36l-3.86-2.26-.48-2.69a1 1 0 0 0-.41-.64l-4.65-3.28a1 1 0 0 0-1.15 1.64l4.31 3 .49 2.73a1 1 0 0 0 .48.68l4.33 2.58a1.2 1.2 0 0 0 .26.1l9.68 2.5 4.38 8.92 2.58 4.28.61 2.93a1 1 0 0 0 .35.57l4.4 3.58a1 1 0 0 0 .63.22l10.31-.1a1 1 0 0 0 1-1 1 1 0 0 0-1-1l-10 .1-3.87-3.12-.57-2.74a1 1 0 0 0-.12-.32l-2.62-4.34-4.55-9.26a1 1 0 0 0-.61-.54m-11.09-8.7 3.91-.31 2 .26.54.51a1 1 0 0 0 .69.28 1 1 0 0 0 .72-.31 1 1 0 0 0 0-1.41l-.77-.74a1 1 0 0 0-.57-.27l-2.45-.32h-.2l-4 .31a1 1 0 0 0 .16 2ZM36 39.38a1 1 0 0 0 1.37-.38l2.42-4.19a1 1 0 0 0 .1-.76l-1.36-5a1 1 0 0 0-1.23-.7 1 1 0 0 0-.7 1.23l1.25 4.57L35.63 38a1 1 0 0 0 .37 1.38m-4.73-20.1a11.64 11.64 0 0 0-5-1.06 11.2 11.2 0 0 0-5.71 1.46 1 1 0 0 0 .52 1.85.94.94 0 0 0 .51-.14 9.2 9.2 0 0 1 4.68-1.17 9.6 9.6 0 0 1 4.1.86 1 1 0 0 0 1.34-.47 1 1 0 0 0-.44-1.33"/><path fill="#fff" d="M.6 32.46a1 1 0 0 0 1.33.46l6.38-3.07h4.09a1 1 0 0 0 1-1v-2.27l4.52-6.94a6.5 6.5 0 0 1 2.63-2.32c3-1.42 8.57-3.19 12.6.88a82 82 0 0 1 8.69 10V31a1 1 0 0 0 .3.72 7.56 7.56 0 0 1 2.08 5c0 2.66-1.35 3.46-1.39 3.49a.94.94 0 0 0-.52.66l-1.57 6.59a1 1 0 0 0 .74 1.2 1 1 0 0 0 .23 0 1 1 0 0 0 1-.77l1.48-6.21a5.93 5.93 0 0 0 2.06-5 9.68 9.68 0 0 0-2.38-6.06v-2.71a1 1 0 0 0-.17-.55 78 78 0 0 0-9.1-10.57c-4.9-4.95-11.43-2.92-14.88-1.27a8.44 8.44 0 0 0-3.44 3l-4.69 7.18a1.1 1.1 0 0 0-.16.55v1.57H8.08a1.1 1.1 0 0 0-.44.1l-6.57 3.2a1 1 0 0 0-.47 1.34m55.73 12.8a1 1 0 0 0-.77.16l-2 1.45a1 1 0 0 0-.23 1.39 1 1 0 0 0 .82.42 1 1 0 0 0 .58-.19l1.66-1.19 2.11.4a1 1 0 0 0 .76-.16 1 1 0 0 0 .41-.66L60 45a1 1 0 0 0-.15-.72l-2.34-3.51v-.15l2.67.78a1 1 0 0 0 .57-1.92l-3.64-1.06a1 1 0 0 0-.77.08 1 1 0 0 0-.48.61l-.44 1.57a1 1 0 0 0 .13.82l2.38 3.56-.08.47Zm-2.81-7.43-1.74-.63a1 1 0 0 0-.66 0l-2.87 1a1 1 0 0 0-.63 1.26 1 1 0 0 0 1 .68 1 1 0 0 0 .32 0l2.54-.86 1.41.51a1 1 0 1 0 .68-1.88Z"/><path fill="#fff" d="M66.47 47.93h.17a1 1 0 0 0 .81-1.16L65.9 38a1 1 0 0 0-.31-.56l-7.43-6.9a1 1 0 0 0-.68-.27H51l-.77-.58a1 1 0 0 0-.61-.21h-2.8a1 1 0 0 0 0 2h2.47l.76.59a1 1 0 0 0 .61.2h6.39L64 38.65l1.49 8.45a1 1 0 0 0 .98.83m2.07 20.5a1 1 0 0 0 1-1v-3a1 1 0 0 0-.29-.71l-1.13-1.12a1 1 0 0 0-1.42 0 1 1 0 0 0 0 1.41l.84.84v2.58a1 1 0 0 0 1 1m9.15-7.74h.09a1 1 0 0 0 1-.91l.12-1.37a1 1 0 0 0-.85-1.08l-3.48-.52a1.1 1.1 0 0 0-.41 0l-3.86 1a1 1 0 0 0 .52 1.93l3.66-1 2.34.35v.43a1 1 0 0 0 .87 1.17M102 73a1.05 1.05 0 0 0 .65-.23l.4-.35 3.36-.64 1.93.5a1 1 0 0 0 1.22-.72 1 1 0 0 0-.72-1.22l-2.15-.55a.9.9 0 0 0-.44 0l-3.83.72a1.05 1.05 0 0 0-.45.22l-.61.52A1 1 0 0 0 102 73m-1.18-5.4a1 1 0 0 0 .91.58h4.81a1 1 0 1 0 0-2h-4.17l-.24-.52 1.87-3.45a1.1 1.1 0 0 0 .12-.56l-.27-3a1 1 0 0 0-.8-.9l-3.38-.64a.9.9 0 0 0-.49 0l-2 .65a1 1 0 0 0 .61 1.91l1.79-.57 2.39.45.17 2-1.93 3.63a1 1 0 0 0 0 .89Zm10.68-8.19a1 1 0 0 0 .75.33 1 1 0 0 0 .75-1.66l-1.2-1.34a1 1 0 0 0-.74-.33h-4a1 1 0 1 0 0 2h3.5Z"/><path fill="#fff" d="M122.1 46.94a1 1 0 0 0 .51.14h3.89a1 1 0 0 0 0-2h-3.62L120 43.43a.9.9 0 0 0-.41-.13l-11.48-1.13a1 1 0 0 0-.26 0L97 43.93a1 1 0 0 0-.72.51l-3.48 6.39a1.1 1.1 0 0 0-.12.42v.5l-2.15 1-.53-.85a1 1 0 0 0-.61-.46 1.06 1.06 0 0 0-.76.11l-3.45 2.08c.39-1.71.81-5.13-2.4-7.32a9.67 9.67 0 0 0-5.49-1.43l-.63-.6A1 1 0 0 0 76 44h-5.44a1 1 0 0 0 0 2h5l.65.62a1 1 0 0 0 .79.27A8.14 8.14 0 0 1 81.66 48c1.46 1 2 2.42 1.69 4.53l-5.78-3a1 1 0 0 0-.57-.11l-2.26.24-3.3-.24a1 1 0 0 0-1.06.8l-.6 3L64.53 59a1 1 0 0 0 .08 1.41 1 1 0 0 0 1.39-.07l5.43-6.06a1 1 0 0 0 .23-.47l.49-2.37 2.51.18a.5.5 0 0 0 .18 0l2-.21 6.19 3.2.2 5.07-1.59-.22a1 1 0 0 0-.89.33 1 1 0 0 0-.2.93L82 65.46l-1.5 1.77a42 42 0 0 0-5.24-1c-1 0-2.7 1.34-3.95 2.45a1 1 0 0 0-.32.61l-.51 3.59a1 1 0 0 0 1.3 1.09l3.64-1.21 3.37.45 2.07 1.57v2l-1.53.95-3.1-.56a1 1 0 0 0-.35 2l3.47.63h.18a1 1 0 0 0 .52-.15l2.34-1.45a1 1 0 0 0 .47-.85v-2.57a3.71 3.71 0 0 0 1.71-4 6.06 6.06 0 0 0-2.22-2.66l1.54-1.8a1 1 0 0 0 .21-.93L83 61.65l1.26.17a1 1 0 0 0 .81-.25 1 1 0 0 0 .32-.78L85.16 56l3.65-2.2.43.71a1 1 0 0 0 1.27.4l2-.9-.22 3.74a1 1 0 0 0 .1.5l3.08 6.26-.29 3.36a1.1 1.1 0 0 0 .07.47l3.18 7.79h-.08a2.18 2.18 0 0 0-.12 3.72l4 2.63a1 1 0 0 0 .28.12l2.45.71a1.3 1.3 0 0 0 .27 0 .8.8 0 0 0 .21 0l7.88-1.69a.92.92 0 0 0 .49-.27l5.71-5.62a1 1 0 0 0-1.4-1.42l-5.5 5.42-7.35 1.58-2.06-.6-3.85-2.54a.18.18 0 0 1-.09-.16.19.19 0 0 1 .1-.16l.55-.32 2.74.34a1 1 0 0 0 .87-.33l1.17-1.31 5.26.57a1 1 0 0 0 .83-.3l2.78-2.89h1.08a1 1 0 0 0 .61-.21l4.38-3.4 5.3 1.38a1 1 0 0 0 .25 0h1.32a1 1 0 0 0 0-2h-1.19l-4.9-1.28v-6.17a1 1 0 0 0-.63-.93l-3.07-1.23a1 1 0 0 0-.74 1.86l2.44 1v5.87l-4.12 3.19h-1.16a1 1 0 0 0-.72.3l-2.73 2.85-5.29-.57a1 1 0 0 0-.86.33l-1.15 1.3-2-.24-3.19-7.86.3-3.4a1 1 0 0 0-.1-.53l-3.09-6.28.35-6 3.17-5.77 10.25-1.66 11.14 1.09ZM81.85 73l-2.12-1.6a1 1 0 0 0-.47-.19l-3.86-.52h-.13a.9.9 0 0 0-.32 0l-2.32.77.24-1.62a11.4 11.4 0 0 1 2.37-1.71 53 53 0 0 1 5.18 1.09 6.7 6.7 0 0 1 2.17 2.06 1.69 1.69 0 0 1-.74 1.72"/><path fill="#fff" d="M115.21 56.86h.25a1 1 0 0 0 1-.75l.49-1.9a1 1 0 0 0-.33-1l-4.77-4a1 1 0 0 0-.7-.22l-8.6.59a1 1 0 0 0-.66.31l-3 3.19-2.79 1a1 1 0 1 0 .7 1.87l3-1.13a1 1 0 0 0 .38-.25l2.87-3.07 7.81-.54 4 3.29-.34 1.29a1 1 0 0 0 .69 1.32m-57.9 24.53a1 1 0 0 0-1 1V85a1 1 0 1 0 2 0v-2.61a1 1 0 0 0-1-1M28.6 76.85a1 1 0 0 0 1 .07l22-11.4 4.69 3.9v7.13a1 1 0 1 0 2 0V69a1 1 0 0 0-.37-.77l-5.55-4.63a1 1 0 0 0-1.1-.12l-22 11.43-12-8.53a1.2 1.2 0 0 0-.59-.19h-4l-7.83-5.3 8.15-2.4a.94.94 0 0 0 .56-.42l1.2-1.89a1 1 0 1 0-1.69-1.07l-1 1.57-9.83 2.89A1 1 0 0 0 2 61.36L11.84 68a.9.9 0 0 0 .57.17h4Zm32.06-17.11a1 1 0 0 0 .73-.31l1.71-1.82a1 1 0 0 0 .28-.63l.42-8.61a1 1 0 1 0-2-.1l-.41 8.24-1.47 1.55a1 1 0 0 0 0 1.41 1 1 0 0 0 .74.27M89 87.4a1 1 0 0 0 .51-.14l6.56-3.84a1 1 0 0 0 .36-1.37 1 1 0 0 0-1.43-.36l-6.56 3.85a1 1 0 0 0-.36 1.36 1 1 0 0 0 .92.5m-63.9-7.27v12.11a1 1 0 0 0 2 0V80.13a1 1 0 0 0-2 0m-11.96.15a1 1 0 0 0-.51-.87l-6.51-3.73a1 1 0 1 0-1 1.74l6 3.44v3.6a1 1 0 0 0 2 0Zm-1 7.39a1 1 0 0 0-1 1V90a1 1 0 0 0 2 0v-1.33a1 1 0 0 0-1-1"/></svg>