<svg xmlns="http://www.w3.org/2000/svg" width="400" height="200" viewBox="-269.128 -6.564 1050.256 525.128"><circle cx="256.001" cy="256" r="47" fill="#fff"/><path fill="#fff" d="M452.2 268.453a298 298 0 0 0-9.828-12.454 297 297 0 0 0 9.828-12.453c33.504-44.964 42.561-86 25.502-115.547-23.332-40.414-82.354-41.348-128.529-33.437a297 297 0 0 0-5.857-14.703C321.128 28.361 290.119 0 256.001 0s-65.127 28.361-87.315 79.859a296 296 0 0 0-5.858 14.703c-46.188-7.914-105.2-6.972-128.53 33.437-17.059 29.547-8.003 70.582 25.502 115.546a297 297 0 0 0 9.828 12.453 297 297 0 0 0-9.829 12.454c-33.504 44.964-42.561 85.999-25.502 115.546 23.333 40.415 82.354 41.349 128.53 33.438a296 296 0 0 0 5.858 14.704c22.189 51.499 53.197 79.86 87.316 79.86s65.127-28.361 87.315-79.859a296 296 0 0 0 5.858-14.704c45.892 7.863 105.154 7.049 128.529-33.437 17.058-29.547 8.002-70.583-25.503-115.547m-59.97-147.822c30.036 0 51.163 7.943 59.491 22.368 10.539 18.254 1.945 48.369-23.578 82.622a264 264 0 0 1-6.178 7.953c-14.996-15.159-32.105-29.965-50.866-44.027-2.796-23.273-7.063-45.49-12.692-66.052 11.921-1.88 23.268-2.864 33.823-2.864M256 356.037c-30.478-13.933-59.959-31.022-86.691-49.986-3.077-32.846-3.079-67.237 0-100.105 26.695-18.936 56.161-36.028 86.692-49.985 30.486 13.936 59.959 31.023 86.693 49.986 3.076 32.835 3.079 67.235.001 100.103-26.701 18.94-56.165 36.029-86.695 49.987m81.311-10.227c-2.285 12.707-5.066 24.925-8.312 36.535-11.627-2.998-23.6-6.714-35.76-11.088a574 574 0 0 0 44.072-25.447m-118.55 25.447c-12.161 4.374-24.132 8.09-35.758 11.087-3.247-11.61-6.027-23.827-8.312-36.534a573 573 0 0 0 44.07 25.447m-81.194-89.747c-9.879-8.347-19.084-16.879-27.528-25.511 8.443-8.633 17.649-17.165 27.528-25.512a575 575 0 0 0 0 51.023m37.124-115.324c2.285-12.706 5.065-24.923 8.312-36.532 11.625 2.998 23.597 6.713 35.757 11.087a573 573 0 0 0-44.069 25.445m118.548-25.445c12.161-4.373 24.134-8.09 35.759-11.087 3.247 11.61 6.028 23.827 8.312 36.534a573 573 0 0 0-44.071-25.447m81.195 89.748c9.879 8.346 19.083 16.878 27.526 25.51-8.442 8.632-17.648 17.164-27.526 25.51a575 575 0 0 0 0-51.02M196.237 91.73C213.139 52.5 234.923 30 256.001 30s42.86 22.5 59.764 61.73a266 266 0 0 1 3.785 9.291c-20.554 5.392-41.925 12.803-63.55 22.06-21.624-9.256-42.995-16.668-63.548-22.06a264 264 0 0 1 3.785-9.291M60.278 142.999c8.329-14.424 29.456-22.368 59.492-22.368 10.555 0 21.902.984 33.823 2.863-5.628 20.562-9.896 42.778-12.691 66.051-18.762 14.062-35.872 28.869-50.868 44.028a264 264 0 0 1-6.177-7.952c-25.524-34.253-34.118-64.367-23.579-82.622m59.491 248.369c-30.036 0-51.163-7.944-59.491-22.369-10.539-18.254-1.945-48.369 23.578-82.622a267 267 0 0 1 6.178-7.954c14.996 15.159 32.106 29.966 50.868 44.028 2.796 23.273 7.063 45.49 12.691 66.053-11.92 1.88-23.269 2.864-33.824 2.864m195.995 28.902C298.861 459.5 277.079 482 256.001 482s-42.861-22.5-59.764-61.73a264 264 0 0 1-3.786-9.293c20.554-5.392 41.925-12.804 63.549-22.061 21.625 9.257 42.996 16.669 63.55 22.061a262 262 0 0 1-3.786 9.293M451.722 369c-8.328 14.424-29.456 22.368-59.491 22.368-10.555 0-21.902-.984-33.823-2.863 5.628-20.563 9.895-42.78 12.691-66.053 18.761-14.062 35.871-28.868 50.866-44.027a263 263 0 0 1 6.179 7.954c25.524 34.252 34.117 64.367 23.578 82.621"/></svg>