<svg xmlns="http://www.w3.org/2000/svg" width="400" height="200" viewBox="-63.241 105.423 674.663 337.331"><path fill="#fff" d="M547.888 273.237c-4.948-6.661-32.264-15.513-81.94-26.551l-100.502-9.135-63.953-18.273h-18.268L199.568 118.78h19.698q7.427 0 12.85-1.287 5.425-1.287 5.424-3.284 0-1.995-5.424-3.284-5.423-1.284-12.85-1.285h-91.359v9.135h18.274v118.771h-45.683L45.68 173.592H18.274l-9.136 9.136v54.818h9.136v9.135h36.547v2.284L0 255.818v36.546l54.821 6.851v2.283H18.274v9.13H9.139v54.823l9.136 9.134h27.406l54.818-63.954h45.683v118.777h-18.274v9.13h91.36q7.427.001 12.85-1.28c3.617-.862 5.424-1.954 5.424-3.288q0-1.996-5.424-3.289-5.423-1.281-12.85-1.28H199.57l83.656-100.502h18.268l63.953-18.273 100.506-9.131q81.939-18.275 82.228-27.408z"/></svg>