<svg xmlns="http://www.w3.org/2000/svg" width="400" height="200" viewBox="-266.608 -5.470 875.216 437.608"><path fill="#fff" d="M11 21.332h10.668v64h298.664v-64H331c5.89 0 10.668-4.773 10.668-10.664S336.891 0 331 0H11C5.11 0 .332 4.777.332 10.668S5.109 21.332 11 21.332m320 320c5.89 0 10.668-4.773 10.668-10.664S336.891 320 331 320H11C5.11 320 .332 324.777.332 330.668S5.109 341.332 11 341.332h10.668v64H11C5.11 405.332.332 410.109.332 416S5.109 426.668 11 426.668h320c5.89 0 10.668-4.777 10.668-10.668s-4.777-10.668-10.668-10.668h-10.668v-64zm0-234.664H11c-5.89 0-10.668 4.773-10.668 10.664S5.109 128 11 128h10.668v170.668h298.664V128H331c5.89 0 10.668-4.777 10.668-10.668s-4.777-10.664-10.668-10.664M171 256c-23.555-.027-42.64-19.113-42.668-42.668 0-19.07 22.313-64 42.668-64s42.668 44.93 42.668 64c-.027 23.555-19.113 42.64-42.668 42.668m0 0"/><path fill="#fff" d="M171 171.406c-7.312 5.77-21.332 29.887-21.332 41.926 0 11.785 9.55 21.336 21.332 21.336s21.332-9.55 21.332-21.336c0-12.039-14.02-36.156-21.332-41.926m0 0"/></svg>