<svg xmlns="http://www.w3.org/2000/svg" width="400" height="200" viewBox="-248.720 3.690 1009.637 504.818"><path fill="#fff" d="m372.058 46.953-45.009-3.483.847 22.553h80.024a50.77 50.77 0 0 0-35.862-19.07m-75.316 413.649c-10.415 6.477-21.598 11.582-33.353 15.121-4.619 9.549-11.038 17.065-18.531 21.573V502h88.733c0-21.483-16.074-38.843-36.849-41.398"/><path d="m372.058 46.953-45.009-3.483.847 22.553h80.024v0a50.77 50.77 0 0 0-35.862-19.07" style="fill:none;stroke:#fff;stroke-width:20;stroke-linecap:round;stroke-linejoin:round;stroke-miterlimit:10"/><path d="m323.206 93.678 4.69-27.655-.847-22.553c-9.2-19.7-28.934-33.47-52.111-33.47-31.902 0-57.763 25.862-57.763 57.764l-.004-.003c-39.897 69.019-62.73 149.137-62.73 234.59 0 27.144 1.069 54.039 3.168 80.643 3.544 44.928-17.745 91.044-53.089 119.007-.431.34-.202.167.015 0 30.356-.656 68.335-7.37 90.347-23.939 7.802 14.62 19.972 23.939 33.656 23.939 14.396 0 27.125-10.315 34.845-26.265 63.401-19.088 110.082-83.992 110.082-161.137 0-80.272-18.737-154.748-50.259-220.921" style="fill:none;stroke:#fff;stroke-width:20;stroke-linecap:round;stroke-linejoin:round;stroke-miterlimit:10"/><path d="M297.856 460.74c20.235 3.027 35.735 20.161 35.735 41.26v0H228.538" style="fill:none;stroke:#fff;stroke-width:20;stroke-linecap:round;stroke-linejoin:round;stroke-miterlimit:10"/><path fill="#fff" d="M193.705 477.778h-.002zm129.501-384.1 4.69-27.654-.847-22.553c-9.2-19.7-28.934-33.47-52.111-33.47-31.902 0-57.763 25.861-57.763 57.763l-.004-.002c-39.897 69.019-62.73 149.138-62.73 234.59 0 27.144 1.069 54.039 3.168 80.643 3.544 44.928-17.745 91.045-53.089 119.007-.431.341-.202.167.015 0 30.353-.657 58.519-10.193 82.003-26.116l-.001-.001c2.364.703 4.758 1.321 7.166 1.895a294 294 0 0 1-.13-8.534c0-57.486 16.818-108.845 43.201-142.783 1.781-2.291 5.452-1.246 5.786 1.637l6.193 53.437c.512 4.42 5.958 6.221 9.013 2.986 23.996-25.405 38.708-59.672 38.708-97.377 0-25.715-6.847-49.83-18.812-70.626-3.06-5.318-4.482-11.42-4.243-17.551l2.07-53.091c.18-5.467-3.14-10.395-8.223-12.416-5.762-2.291-10.762-5.955-14.693-10.441-11.375-12.986-3.093-33.51 14.293-34.9 8.097-.648 15.894 3.273 20.627 9.875 7.978 11.126 19.205 20.28 45.298 17.793 4.549 11.24-3.07-8.434-9.585-22.111m-35.798-21.466c-6.75 0-12.222-5.472-12.222-12.222s5.472-12.222 12.222-12.222S299.63 53.24 299.63 59.99s-5.472 12.222-12.222 12.222"/></svg>