<svg xmlns="http://www.w3.org/2000/svg" width="400" height="200" viewBox="-42.309 3.846 184.617 92.308"><path fill="#fff" fill-rule="evenodd" d="M61.31 92.738A2.263 2.263 0 0 0 63.57 95h18.095a6.785 6.785 0 0 0 6.786-6.786V59.286h2.262a6.786 6.786 0 0 0 4.797-11.583L54.798 6.988a6.78 6.78 0 0 0-9.594 0L4.488 47.703a6.786 6.786 0 0 0 4.798 11.583h2.262v28.928A6.785 6.785 0 0 0 18.334 95h18.095a2.263 2.263 0 0 0 2.262-2.262V70.595a6.785 6.785 0 0 1 6.785-6.786h9.048a6.785 6.785 0 0 1 6.785 6.786z" clip-rule="evenodd"/></svg>