<svg xmlns="http://www.w3.org/2000/svg" width="400" height="200" viewBox="-269.129 -6.564 1050.256 525.128"><path fill="#fff" d="M112 62h288c17.121 0 31-13.879 31-31S417.121 0 400 0H112C94.879 0 81 13.879 81 31s13.879 31 31 31M61.147 271.556 121 307.024l59.853-35.469a15 15 0 0 1 15.294 0L256 307.024l59.853-35.469a15 15 0 0 1 15.294 0L391 307.024l59.853-35.469a15 15 0 0 1 15.294 0l42.827 25.379c-5.471-37.083-21.93-71.752-47.709-99.679l-.793-.859C394.107 213.34 325.705 221.888 256 221.888s-138.107-8.548-204.472-25.491l-.793.859c-25.779 27.927-42.239 62.596-47.709 99.679l42.827-25.379a15 15 0 0 1 15.294 0"/><path fill="#fff" d="m458.5 301.896-59.853 35.469a15 15 0 0 1-15.294 0L323.5 301.896l-59.853 35.469a15 15 0 0 1-15.294 0L188.5 301.896l-59.853 35.469a15 15 0 0 1-15.294 0L53.5 301.896 1.198 332.889a187 187 0 0 0 3.902 30.62C85.919 388.993 170 401.888 256 401.888s170.081-12.894 250.899-38.379a187 187 0 0 0 3.902-30.62z"/><path fill="#fff" d="M16.103 398.169C44.796 465.04 111.284 512 188.54 512h134.92c77.256 0 143.744-46.96 172.437-113.831-77.564 22.394-157.891 33.719-239.897 33.719S93.667 420.563 16.103 398.169m420.992-227.097-16.159-17.506C405.057 136.363 395.052 114.911 392 92H120c-3.052 22.911-13.057 44.363-28.936 61.566l-16.159 17.506C133.096 184.68 193.722 191.887 256 191.887s122.904-7.206 181.095-20.815"/></svg>