<svg xmlns="http://www.w3.org/2000/svg" width="400" height="200" viewBox="-4.928 13.532 73.857 36.928"><path fill="#fff" d="M59 33a8.1 8.1 0 0 0-5.83 2.505 4.117 4.117 0 0 1-6.348 0 8.034 8.034 0 0 0-11.658 0 4.112 4.112 0 0 1-6.343 0 8.03 8.03 0 0 0-11.656 0 4.107 4.107 0 0 1-6.338 0A8.08 8.08 0 0 0 5 33a2 2 0 0 0-2 2v9a2 2 0 0 0 2 2 4.22 4.22 0 0 1 3.169 1.494 8.03 8.03 0 0 0 11.654 0 4.11 4.11 0 0 1 6.341 0 8.034 8.034 0 0 0 11.658 0 4.113 4.113 0 0 1 6.344 0 8.037 8.037 0 0 0 11.66 0A4.22 4.22 0 0 1 59 46a2 2 0 0 0 2-2v-9a2 2 0 0 0-2-2m0-19a8.1 8.1 0 0 0-5.83 2.5 4.117 4.117 0 0 1-6.348 0 8.034 8.034 0 0 0-11.658 0 4.112 4.112 0 0 1-6.343 0 8.03 8.03 0 0 0-11.656 0 4.107 4.107 0 0 1-6.338 0A8.08 8.08 0 0 0 5 14a2 2 0 0 0-2 2v9a2 2 0 0 0 2 2 4.22 4.22 0 0 1 3.169 1.494 8.03 8.03 0 0 0 11.654 0 4.11 4.11 0 0 1 6.341 0 8.034 8.034 0 0 0 11.658 0 4.113 4.113 0 0 1 6.344 0 8.037 8.037 0 0 0 11.66 0A4.22 4.22 0 0 1 59 27a2 2 0 0 0 2-2v-9a2 2 0 0 0-2-2"/></svg>