<svg xmlns="http://www.w3.org/2000/svg" width="400" height="200" viewBox="-260.767 40.283 1204.201 602.101"><path d="m0 0 31.528 3.72c7.589.895 13.767 5.652 16.847 12.065L-.674 5.781C-.302 3.887-.074 1.955 0 0" style="fill:#fff;fill-opacity:1;fill-rule:nonzero;stroke:none" transform="matrix(1.33333 0 0 -1.33333 484.091 356.878)"/><path d="m0 0 59.463-29.398v-85.552c0-14.839 12.029-26.867 26.867-26.867s26.866 12.028 26.866 26.867v102.24a26.87 26.87 0 0 1-14.959 24.084L61.306 29.632 6.286 2.183A26.4 26.4 0 0 0 0 0" style="fill:#fff;fill-opacity:1;fill-rule:nonzero;stroke:none" transform="matrix(1.33333 0 0 -1.33333 245.849 445.764)"/><path d="m0 0-5.864 28.753C-8.773 43.018.398 56.948 14.733 59.872l30.612 6.183c.293 2.436-.16-.384 13.596 63.511l2.85-60.306a21.49 21.49 0 0 1 15.553-19.647l89.225-25.55c11.36-3.251 23.297 3.283 26.579 14.747 3.269 11.412-3.334 23.312-14.745 26.579l-74.402 21.304-2.122 44.904 9.628-30.347 5.851-1.676c3.19 1.132 2.473.664 29.725 6.323l-6.158 7.881 2.31 4.989c7.578 16.36.458 35.767-15.902 43.345l-52.829 24.469c-16.36 7.578-35.766.458-43.344-15.903L-38.105 18.162l-.108-.508-13.925-74.625-88.385-55.771c-12.549-7.919-16.303-24.51-8.384-37.059 7.929-12.568 24.527-16.291 37.058-8.384l98.307 62.032A26.86 26.86 0 0 1-1.469-78.36L10.18-15.933C4.998-12.087 1.304-6.395 0 0" style="fill:#fff;fill-opacity:1;fill-rule:nonzero;stroke:none" transform="matrix(1.33333 0 0 -1.33333 204.075 418.413)"/><path d="M0 0c24.219-11.218 52.947-.678 64.165 23.541 11.217 24.219.678 52.947-23.541 64.165s-52.947.678-64.165-23.541S-24.219 11.218 0 0" style="fill:#fff;fill-opacity:1;fill-rule:nonzero;stroke:none" transform="matrix(1.33333 0 0 -1.33333 368.8 170.733)"/><path d="m0 0-29.703-6c-6.965-1.42-11.461-8.219-10.04-15.185l5.865-28.753c1.699-8.334 10.837-12.699 18.358-8.946l66.549 33.201-25.215 7.22C22.294-16.784 6.497-16.284 0 0" style="fill:#fff;fill-opacity:1;fill-rule:nonzero;stroke:none" transform="matrix(1.33333 0 0 -1.33333 266.887 348.231)"/><path d="m0 0-14.316-2.92-1.702 8.342c-1.077 5.282-6.228 8.661-11.478 7.59a9.73 9.73 0 0 1-7.589-11.478l1.701-8.343-168.951-34.457 37.89-10.849c9.271-2.655 16.721-8.572 21.469-16.146l52.313 10.669c5.266 1.074 8.664 6.213 7.59 11.479-.838 4.106-4.151 7.066-8.065 7.665l95.027 19.38c5.265 1.074 8.663 6.213 7.589 11.479C10.401-2.308 5.25 1.07 0 0" style="fill:#fff;fill-opacity:1;fill-rule:nonzero;stroke:none" transform="matrix(1.33333 0 0 -1.33333 667.098 241.154)"/></svg>