<svg xmlns="http://www.w3.org/2000/svg" width="400" height="200" viewBox="-252.306 -6.152 984.613 492.307"><path fill="#fff" d="M222.55 467.711a8.01 8.01 0 0 1-2.47 11.05c-3.736 2.36-8.684 1.25-11.04-2.47L65.047 249.277c-3.821-6.024 2.006-13.493 8.787-11.281q.52.17 1.042.335c1.732.549 3.229 1.664 4.202 3.198zm256.21-247.63c-2.396 3.757-7.355 4.831-11.05 2.47L241.528 79.079c-2.338-1.483-2.942-3.43-3.533-5.244-2.212-6.781 5.258-12.608 11.281-8.787L476.29 209.041a8.007 8.007 0 0 1 2.47 11.04m-276-51.26-21.964-21.964c-2.97-2.97-3.129-7.72-.381-10.897 13.599-15.724 26.725-33.318 37.007-51.357 1.778-3.12 6.446-2.489 7.346.987 6.881 26.572 4.117 55.711-9.298 81.355-2.488 4.754-8.917 5.669-12.71 1.876"/><path fill="#fff" d="M413.63 402.321c-12.329-12.309-279.15-279.16-279.15-279.16a7.985 7.985 0 0 1 0-11.31c3.113-3.114 8.184-3.127 11.31 0l12.289 12.289c3.292 3.292 8.707 3.102 11.727-.44 15.627-18.33 31.781-40.791 41.666-62.544a7.98 7.98 0 0 0-.507-7.543C190.745 21.437 154.927.003 114.203.002 51.387 0-.001 51.388 0 114.204c.001 40.725 21.436 76.543 53.612 96.763a8 8 0 0 0 7.563.499c26.233-11.894 53.759-33.066 75.207-52.929 3.148-2.915 8.038-2.805 11.072.229 3.199 3.199 3.126 8.423-.188 11.503-18.778 17.451-40.467 34.503-62.665 47.155-3.127 1.782-2.482 6.447 1.002 7.35 35.127 9.098 74.07 1.17 103.447-24.412l213.27 213.27c3.119 3.119 8.19 3.12 11.31 0a7.99 7.99 0 0 0 0-11.311M82.35 71.581C68.78 81.741 61 97.281 61 114.201c0 4.42-3.58 8-8 8s-8-3.58-8-8c0-22.01 10.12-42.21 27.76-55.42a8.004 8.004 0 0 1 11.2 1.6c2.65 3.54 1.93 8.56-1.61 11.2m31.85-10.58c-1.351 0-2.975.07-3.01.07-4.24 0-7.78-3.33-7.98-7.61a7.99 7.99 0 0 1 7.6-8.38c1.13-.05 2.27-.08 3.39-.08 4.42 0 8 3.58 8 8s-3.58 8-8 8"/></svg>