<svg xmlns="http://www.w3.org/2000/svg" width="400" height="200" viewBox="-50.497 102.750 612.987 306.493"><path fill="#fff" d="m374.854 164.614-16.863-35.587a8.54 8.54 0 0 0-7.932-5.37h-8.538v-8.538a8.54 8.54 0 0 0-8.538-8.538h-68.304a8.54 8.54 0 0 0-8.538 8.538v8.538h-25.614c-.555.051-1.11.111-1.665.162l-41.87 8.376h-24.769a8.54 8.54 0 0 0-8.538 8.538v8.538h-85.38a8.536 8.536 0 0 0-8.538-8.538H8.538A8.54 8.54 0 0 0 0 149.271v17.076a8.54 8.54 0 0 0 8.538 8.538h51.228a8.536 8.536 0 0 0 8.538-8.538h85.38v8.538a8.54 8.54 0 0 0 8.538 8.538h204.913a8.54 8.54 0 0 0 8.538-8.538v-6.617c0-1.263-.281-2.51-.819-3.654m111.814 61.5h-17.076v-17.076a8.54 8.54 0 0 0-8.538-8.538h-350.06a8.54 8.54 0 0 0-8.538 8.538v17.076H42.69a8.5 8.5 0 0 0-6.036 2.502L2.502 262.767c-3.33 3.33-3.33 8.743 0 12.073l25.614 25.614c3.33 3.33 8.743 3.33 12.073 0L60.8 279.843a8.53 8.53 0 0 1 6.036-2.502h419.832a8.54 8.54 0 0 0 8.538-8.538v-34.152c0-4.712-3.825-8.537-8.538-8.537"/><path fill="#fff" d="M510.719 323.456c-4.235-17.366-17.332-29.038-32.59-29.038-.077 0-.162-.009-.239 0H85.141c-15.257 0-28.355 11.672-32.59 29.038-3.919 16.094.777 36.816 19.817 46.677l59.766 34.152a8.5 8.5 0 0 0 4.235 1.127h290.532a8.5 8.5 0 0 0 4.235-1.127l59.459-33.981c19.356-10.032 24.043-30.754 20.124-46.848"/></svg>