<svg xmlns="http://www.w3.org/2000/svg" width="400" height="200" viewBox="-269.129 -6.565 1050.259 525.129"><path fill="#fff" d="m483.311 512-32.442-64.255H328.204L360.646 512H396v-10.434c0-8.284 6.716-15 15-15s15 6.716 15 15V512zm-454.622 0H86v-10.434c0-8.284 6.716-15 15-15s15 6.716 15 15V512h35.354l32.442-64.255H61.131zM198.88 174.923h114.24L268.871 87.37l33.17-65.607c3.734-7.395.766-16.417-6.629-20.151s-16.417-.765-20.15 6.629L256 46.392 236.738 8.243c-3.732-7.395-12.755-10.362-20.15-6.629s-10.363 12.756-6.629 20.151l33.17 65.606zm43.73 156.337c5.547-10.986 21.233-10.986 26.78 0l43.667 86.485h122.665L376.185 299.83h-240.37L76.278 417.746h122.665zM211 258c0-8.284 6.716-15 15-15s15 6.716 15 15v11.83h30V258c0-8.284 6.716-15 15-15s15 6.716 15 15v11.83h60.038l-32.772-64.907H183.733l-32.772 64.907H211z"/><path fill="#fff" d="M184.961 512h142.078L256 371.302z"/></svg>