<svg xmlns="http://www.w3.org/2000/svg" width="400" height="200" viewBox="-269.128 -6.564 1050.255 525.128"><circle cx="161.003" cy="441" r="71" fill="#fff"/><circle cx="467" cy="166.002" r="45" fill="#fff"/><path fill="#fff" d="M60.714 373.071c-1.989-10.93-15.745-15.846-24.22-8.67-9.224 7.393-6.201 22.652 5.159 25.95 10.553 3.428 21.437-6.444 19.061-17.28M422.291 50.932c1.874 10.303 14.43 15.51 23.04 9.54 10.469-6.832 8.023-23.305-3.971-26.819-10.558-3.43-21.441 6.437-19.069 17.279M259.209 276.277l-10.418-23.843 51.526-22.516c14.363-6.276 26.771-15.625 36.568-27.285l22.503 13.759c7.066 4.321 16.302 2.095 20.622-4.973 4.322-7.068 2.096-16.3-4.972-20.622l-22.53-13.776c9.02-21.408 10.171-43.973 4.515-64.907l24.157-10.556c7.592-3.317 11.057-12.16 7.739-19.751-3.317-7.592-12.162-11.057-19.751-7.739L345.01 84.627c-11.553-18.426-28.991-32.928-50.69-40.81l5.191-25.862c1.63-8.122-3.633-16.028-11.755-17.658-8.129-1.631-16.028 3.633-17.659 11.755l-5.186 25.839c-15.213-.732-30.505 2.044-44.868 8.32l-50.697 22.153-10.526-24.089c-3.317-7.592-12.159-11.057-19.751-7.739-7.592 3.317-11.057 12.16-7.739 19.751l10.526 24.089-51.994 22.72c-14.605 6.382-26.922 15.852-36.533 27.306l-22.537-13.78c-7.068-4.323-16.302-2.095-20.622 4.973-4.322 7.068-2.096 16.3 4.972 20.622l22.547 13.786c-8.469 20.087-10.431 42.881-4.52 64.891l-24.171 10.56c-7.592 3.317-11.057 12.16-7.739 19.751 3.317 7.591 12.16 11.056 19.751 7.739l24.168-10.561c12.136 19.291 30.199 33.326 50.692 40.757l-5.203 25.92c-1.861 9.275 5.233 17.955 14.723 17.955 7 0 13.261-4.925 14.691-12.051l5.2-25.907c15.888.775 31.057-2.223 44.854-8.252l51.167-22.358 10.418 23.842c3.317 7.592 12.158 11.056 19.751 7.739 7.591-3.317 11.055-12.16 7.738-19.751m-62.121-95.324c-24.316-5.016-42.596 2.262-54.301 21.639-4.283 7.092-13.503 9.367-20.595 5.083s-9.367-13.504-5.083-20.595c18.447-30.538 49.012-43.147 86.075-35.501 18.893 3.943 33.663-3.152 43.928-21.082 4.117-7.189 13.281-9.68 20.471-5.564s9.681 13.281 5.564 20.471c-16.713 29.19-44.434 42.149-76.059 35.549M497 368.478h-23.942a90.36 90.36 0 0 0-15.656-37.711l16.954-16.954c5.858-5.858 5.858-15.355 0-21.213s-15.355-5.858-21.213 0l-16.954 16.954a90.34 90.34 0 0 0-37.711-15.656v-23.941c0-8.284-6.716-15-15-15s-15 6.716-15 15v23.941a90.36 90.36 0 0 0-37.711 15.656L313.813 292.6c-5.857-5.858-15.355-5.858-21.213 0s-5.858 15.355 0 21.213l16.954 16.954a90.35 90.35 0 0 0-15.656 37.711h-23.942c-8.284 0-15 6.716-15 15s6.716 15 15 15h23.942a90.36 90.36 0 0 0 15.656 37.711L292.6 453.144c-5.858 5.858-5.858 15.355 0 21.213s15.356 5.858 21.213 0l16.954-16.954a90.4 90.4 0 0 0 37.711 15.656V497c0 8.284 6.716 15 15 15s15-6.716 15-15v-23.942a90.36 90.36 0 0 0 37.711-15.656l16.954 16.954c5.857 5.858 15.356 5.858 21.213 0s5.858-15.355 0-21.213l-16.955-16.955a90.35 90.35 0 0 0 15.656-37.711H497c8.284 0 15-6.716 15-15s-6.716-14.999-15-14.999m-92.309 15-21.213 21.213c-5.857 5.858-15.355 5.858-21.213 0s-5.858-15.355 0-21.213l21.213-21.213c5.857-5.858 15.355-5.858 21.213 0s5.859 15.355 0 21.213"/></svg>