<svg xmlns="http://www.w3.org/2000/svg" width="400" height="200" viewBox="-238.357 8.821 988.712 494.356"><path d="M123.214 442.89c88.23-19.639 176.752-19.704 265.569 0m66.271-174.591V134.127C455.054 68.335 401.719 15 335.927 15h-6.203c-40.717 0-73.725 33.008-73.725 73.725s33.008 73.725 73.725 73.725h6.864c28.827 0 52.195 23.369 52.195 52.195v174.137" style="fill:none;stroke:#fff;stroke-width:30;stroke-miterlimit:10"/><path d="M421.918 301.435c-18.3 0-33.136-14.835-33.136-33.135v-33.136h33.136c18.3 0 33.135 14.835 33.135 33.135.001 18.3-14.834 33.136-33.135 33.136zm10.539 87.348c-24.121 0-43.674-19.554-43.674-43.674v-43.674h43.674c24.121 0 43.674 19.554 43.674 43.674s-19.553 43.674-43.674 43.674zm10.433 108.214c-29.883 0-54.107-24.225-54.107-54.107v-54.107h54.107c29.882 0 54.107 24.225 54.107 54.107 0 29.883-24.224 54.107-54.107 54.107zM56.943 268.299V134.127C56.943 68.335 110.278 15 176.07 15h6.203c40.717 0 73.725 33.008 73.725 73.725s-33.008 73.725-73.725 73.725h-6.864c-28.827 0-52.195 23.369-52.195 52.195v174.137" style="fill:none;stroke:#fff;stroke-width:30;stroke-miterlimit:10"/><path d="M90.079 301.435c18.3 0 33.136-14.835 33.136-33.135v-33.136H90.079c-18.3 0-33.135 14.835-33.135 33.135-.001 18.3 14.834 33.136 33.135 33.136zM79.54 388.783c24.121 0 43.674-19.554 43.674-43.674v-43.674H79.54c-24.121 0-43.674 19.554-43.674 43.674s19.553 43.674 43.674 43.674zM69.107 496.997c29.883 0 54.107-24.225 54.107-54.107v-54.107H69.107C39.225 388.783 15 413.007 15 442.89s24.225 54.107 54.107 54.107z" style="fill:none;stroke:#fff;stroke-width:30;stroke-miterlimit:10"/></svg>