<svg xmlns="http://www.w3.org/2000/svg" width="400" height="200" viewBox="-32.800 0.078 131.487 65.744"><path fill="#fff" d="M57.1 57.6q-.6 1.2-1.5 2.1c-1.8 1.8-4.3 2.8-7.2 2.3-5.8-.9-15.1-2.5-15.9-2.4L17.6 62c-3.1.4-5.7-.6-7.5-2.7q-.75-.9-1.2-1.8c-4.6 1.9-5.1 6.3-5.1 6.4-.1.6.4 1.1 1 1.1h56.3c.6 0 1-.5 1-1.1 0 0-.5-4.3-5-6.3M27.2 22.4c-.9-.9-1.6-1.9-2.1-3.1v.8c0 1.3-.3 2.8-.9 4 .4-.1.8-.1 1.1-.1 1.4-.2 1.8-.9 1.9-1.6m13 1.6c.4 0 .8 0 1.2.1-.6-1.3-.9-2.8-.9-4.1v-.8c-.5 1.2-1.3 2.3-2.2 3.2.3 1.3 1.4 1.5 1.9 1.6M29.4 34.4c.1 1.8.5 4 1.6 5.3 1.1 1.2 2.6 1.3 3.7 0 .7-.7 1.4-2.2 1.5-4.9-.9.4-1.9.7-2.9.7h-.1c-1.4 0-2.7-.4-3.8-1.1"/><path fill="#fff" d="m17.4 60.1 14.9-2.4c1.2-.2 1.1.2 1.7 0L48.8 60c4.1.6 7.2-2.4 7.2-6.1 0-3.6-3.7-6.3-7.2-6.3 1-1.8.7-3.4.6-3.8l-1.9-11.3c-.4-3-2.1-4.8-3.8-5.7-.9-.5-1.9-.8-2.7-.9-.2 2.6-1.1 5.3-2.8 7.3.2 3.5-.5 6.2-2 7.7-2 2.1-4.7 1.9-6.6-.1-2.2-2.4-2.2-7-2.2-8.3-1.2-1.5-2-3.6-2.6-6.6-.8.1-1.7.3-2.6.7-1.9.9-3.7 2.6-4.2 5.8L16 44c0 .1-.2 1.8 1.1 3.7-4.5.1-6.6 2.9-6.9 5.3-.5 3.8 2.4 7.8 7.2 7.1"/><path fill="#fff" d="M29.2 21.5c0 .3.2 3.1-2.4 4.1.6 2.9 1.3 4.8 2.4 6 1 1.2 2.5 1.9 4.1 1.9h.1c1.4 0 2.7-.6 3.6-1.7 2-2.4 2.2-6.1 2.2-6.1-2.8-.9-2.8-3.5-2.7-4.2 4.6-3.4 4.1-11.3-.7-13.9.4-.5.6-1 .6-1.6 0-1.2-1-2.3-2.3-2.7.2-.3.4-.6.4-.9 0-.8-.7-1.5-1.5-1.5s-1.5.7-1.5 1.5c0 .4.2.7.4 1-1.3.4-2.1 1.4-2.1 2.6 0 .6.2 1.1.6 1.6-2.2 1.2-3.8 3.9-3.9 7v.2c-.4 2.8.8 5.3 2.7 6.7m-.5-9.6c2.4 1 5.6 1 8.2 0 .4.9.7 1.9.7 3 0 2.5-1.3 4.7-3.1 5.5-1.1.5-2.3.5-3.4 0-1.8-.8-3.1-3-3.1-5.5 0-1 .2-2.1.7-3"/></svg>