<svg xmlns="http://www.w3.org/2000/svg" width="400" height="200" viewBox="-23.263 4.830 108.518 54.259"><path fill="#fff" d="M58.25 14.19c-3.79-12.086-20.329-11.008-24.89-.14-1.347 3.45-.627 7.699 1.46 12.26 1.774 8.418 9.244 2.085 13.86 6.79.911.926-.477 2.33-1.41 1.41-1.49-1.48-3.24-1.44-5.27-1.39-4.046.39-7.528-1.159-8.74-4.93-1.396 1.204-2.592 4.288-2.03 6.53.3 1.81 3.85 2.4 6.99 2.92 2.96.49 5.75.96 7.09 2.45.588.612.094 1.702-.74 1.67a.98.98 0 0 1-.74-.33c-2.3-1.974-9.04-1.752-11.96-3.32-.26 4.57-1.65 8.73-1.71 8.92-.441 1.24-2.302.61-1.9-.64.02-.05 1.67-4.99 1.65-9.78-.33-.44-.56-.96-.66-1.56.22-12.083-10.386-4.964-18 3.11-1.054 1.01-2.449-.627-1.29-1.55.48-.5 1.05-1.07 1.67-1.67-1.586-6.008-6.351-5.207-8.31-1.14-.31.66-1.24 2.68 2.51 10.24 2.176 4.165 7.19 3.798 10.14.75-5.588 16.954 19.341 16.923 29.9 6.27 6.425-5.829 10.145-13.885 5.72-18.84-.467-.428-.376-1.243.16-1.57.41-.25 9.96-6.39 6.5-16.46"/></svg>