<svg xmlns="http://www.w3.org/2000/svg" width="400" height="200" fill-rule="evenodd" stroke-linejoin="round" stroke-miterlimit="2" clip-rule="evenodd" viewBox="-33.641 -0.821 131.282 65.641"><path fill="#fff" d="M40 6h-6V0h-4v6h-6V0h-4v6h-4c-2.65 0-5.2 1.054-7.07 2.929A9.98 9.98 0 0 0 6 16v4H0v4h6v6H0v4h6v6H0v4h6v4a9.98 9.98 0 0 0 2.93 7.071A10 10 0 0 0 16 58h4v6h4v-6h6v6h4v-6h6v6h4v-6h4c2.65 0 5.2-1.054 7.07-2.929A9.98 9.98 0 0 0 58 48v-4h6v-4h-6v-6h6v-4h-6v-6h6v-4h-6v-4a9.98 9.98 0 0 0-2.93-7.071A10 10 0 0 0 48 6h-4V0h-4zm0 14v24h4V20zm-20 7v17h4v-7h6v7h4V27c0-3.866-3.13-7-7-7s-7 3.134-7 7m10 6v-6c0-1.657-1.34-3-3-3s-3 1.343-3 3v6z"/></svg>