<svg xmlns="http://www.w3.org/2000/svg" width="400" height="200" viewBox="-12.700 1.650 57.400 28.700"><path fill="#fff" d="M11.474 29.769c-4.077.595-7.39-.099-8.268-.976-.88-.88-1.574-4.209-.97-8.301 2.612 3.689 5.706 6.793 9.238 9.277m9.018-27.533c4.092-.604 7.422.091 8.302.97.877.877 1.571 4.191.976 8.268-2.485-3.532-5.589-6.626-9.278-9.238m-2.734.576c-3.143.883-6.498 2.576-9.434 5.512s-4.629 6.291-5.512 9.434c3.056 4.773 6.89 8.612 11.415 11.434 3.147-.882 6.508-2.576 9.448-5.516s4.635-6.302 5.516-9.448c-2.821-4.526-6.66-8.36-11.433-11.416m.766 6.294c-.366.217-.726.454-1.084.692l.736.736a.75.75 0 1 1-1.061 1.061l-.916-.916c-.529.398-1.05.814-1.557 1.257l1.066 1.066a.75.75 0 1 1-1.061 1.061l-1.106-1.106c-.21.204-.324.263-1.376 1.438l1.076 1.076a.75.75 0 1 1-1.061 1.061l-.984-.984a26 26 0 0 0-1.198 1.616l.775.775A.75.75 0 1 1 9.712 19l-.544-.544c-.223.373-.451.745-.652 1.126a.75.75 0 0 1-1.327-.699c.272-.516.572-1.022.882-1.524l-.827-.829a.75.75 0 1 1 1.061-1.061l.614.614q.571-.818 1.21-1.604l-.417-.417a.75.75 0 1 1 1.061-1.061l.332.332c1.119-1.242 1.136-1.204 1.377-1.438l-.301-.301a.75.75 0 1 1 1.061-1.061l.337.337a29 29 0 0 1 1.549-1.265l-.479-.479a.75.75 0 1 1 1.061-1.061l.646.646q.693-.473 1.405-.896a.75.75 0 0 1 1.027.263.75.75 0 0 1-.264 1.028"/></svg>