<svg xmlns="http://www.w3.org/2000/svg" width="400" height="200" data-name="glyph" viewBox="-25.436 3.282 114.874 57.437"><path fill="#fff" d="M15.398 10.356h21.288V4H15.398a1.374 1.374 0 0 0-1.375 1.375v3.607a1.38 1.38 0 0 0 1.375 1.374m19.104 28.701h-22.32v3.561a.67.67 0 0 0 .668.668h21.652zm-17.708-7.22 22.116.155 2.698-19.338a.566.566 0 0 0-.579-.668H19.15a3.9 3.9 0 0 1 .342 2.257zm5.085-16.64a.816.816 0 0 1 .807-.71h14.912a.822.822 0 0 1 .807.922l-1.711 13.315a.82.82 0 0 1-.807.717H20.86a.83.83 0 0 1-.806-.929z"/><path fill="#fff" d="M36.669 16.118H23.395l-1.598 11.693H35.17zM51.452 7.57l-8.524-3.521L42.68 4h-4.366v6.356h2.714a2.227 2.227 0 0 1 2.192 2.526L40.434 32.93a.9.9 0 0 1-.17.4l-4.132 5.198v4.76a2.7 2.7 0 0 1 2.754 2.697v13.43a2 2 0 0 1-.082.586H50.7a1.12 1.12 0 0 0 1.12-1.12V8.116a.6.6 0 0 0-.367-.546m-7.228 48.633a.815.815 0 0 1-1.63 0v-2.804a.815.815 0 0 1 1.63 0zm3.235 0a.815.815 0 0 1-1.63 0v-2.804a.815.815 0 0 1 1.63 0z"/><path fill="#fff" d="m37.949 33.622-21.71-.163-3.177 3.968h21.864zm-19.232 2.974a1.068 1.068 0 0 1 0-2.135 1.068 1.068 0 0 1 0 2.135m5.786 0a1.068 1.068 0 0 1 0-2.135 1.068 1.068 0 0 1 0 2.135m5.794 0a1.068 1.068 0 0 1 0-2.135 1.068 1.068 0 0 1 0 2.135m5.892 8.32h-21.27c.716 1.367.236 12.29.367 13.965A1.12 1.12 0 0 0 16.406 60h20.263a.587.587 0 0 0 .587-.587v-13.43a1.07 1.07 0 0 0-1.067-1.067m-2.527 3.39a1.068 1.068 0 0 1 0 2.135 1.068 1.068 0 0 1 0-2.135m-4.107 0a1.068 1.068 0 0 1 0 2.135 1.068 1.068 0 0 1 0-2.135m5.762 4.971h-.84v3.121a1.217 1.217 0 0 1-1.214 1.214h-3.308a1.21 1.21 0 0 1-1.215-1.214v-3.12h-.725a.815.815 0 0 1 0-1.63h7.302a.815.815 0 0 1 0 1.63"/><path fill="#fff" d="M30.37 53.277h2.477v2.705H30.37z"/></svg>