<svg xmlns="http://www.w3.org/2000/svg" width="400" height="200" viewBox="-313.519 -7.641 1223.510 611.755"><path fill="#fff" d="m539.836 581.942-384.204-39.323v-20.751l361.274 36.937h.104a89.2 89.2 0 0 0 18.365 19.402zM74.6 440.835H53.745L14.526 56.528l1.556 1.868a151 151 0 0 0 10.687 11.517L37.87 80.806zM583.101.448l-99.739 30.68a10.377 10.377 0 0 0-4.285 17.244l27.173 27.173-386.04 386.04H62.253L0 523.839h57.957l-44.542 44.542a10.375 10.375 0 1 0 14.671 14.671l44.542-44.542v57.957l62.253-62.253v-57.957l386.04-386.04 27.173 27.173a10.375 10.375 0 0 0 17.254-4.285l30.67-99.688A10.375 10.375 0 0 0 583.101.448M12.845 22.382A10.531 10.531 0 0 1 27.682 7.535c24.828 20.854 21.975 18.447 26.27 22.162l-12.72 25.43c-2.988-2.926-6.09-6.329-9.483-10.272zm115.251 44.853c-14.899 0-43.639 1.307-58.57 2.075a43.5 43.5 0 0 1-10.946-2.417l14.443-28.927a17.3 17.3 0 0 0 2.864-.84c4.15-1.266 33.71-5.717 44.718-7.19a538 538 0 0 1 121.269-.498 422.7 422.7 0 0 1 119.453 30.95c3.414 1.473 6.786 3.113 10.158 4.669l-39.987 39.987a427.3 427.3 0 0 0-96.326-28.958 614.6 614.6 0 0 0-107.076-8.851"/><path fill="#fff" d="M390.948 74.892a349.4 349.4 0 0 1 51.67 34.862l-38.493 38.493a315.3 315.3 0 0 0-52.707-33.72zm131.664 132.495-39.634 39.531a315.6 315.6 0 0 0-34.758-54.575l38.493-38.493a344.5 344.5 0 0 1 35.899 53.537m-30.306 59.607 40.029-40.029a414.8 414.8 0 0 1 34.696 127.753 536.4 536.4 0 0 1-4.991 151.119c-.093.56-.425 2.428-.83 4.69l-33.098-4.731c.093-1.411.228-2.781.28-4.15a635.8 635.8 0 0 0-7.989-140.318 428.4 428.4 0 0 0-28.097-94.334m95.34 316.628a10.5 10.5 0 0 1-13.55 0L548.8 562.311a51.94 51.94 0 0 1-19.444-25.316 41.4 41.4 0 0 1-2.013-10.375l31.51 4.493a20.9 20.9 0 0 0 4.026 6.869c7.854 9.255 17.638 20.803 26.063 30.763 3.75 4.466 3.17 11.126-1.296 14.877"/></svg>