<svg xmlns="http://www.w3.org/2000/svg" width="400" height="200" viewBox="-34.718 -0.359 137.436 68.718"><path fill="#fff" d="M58.624 34c5.61-6.319 7.904-12.538 5.474-16.748C61.066 12 52.82 12.368 46.855 13.618a40 40 0 0 0-1.155-3.056 4.503 4.503 0 0 0-3.146-7.716 4.5 4.5 0 0 0-1.616.312C39.153 1.446 37.177.5 35.086.5c-4.861 0-9.101 5.098-11.77 13.118-5.96-1.249-14.208-1.62-17.242 3.634-2.43 4.21-.135 10.43 5.475 16.749-1.391 1.567-2.578 3.127-3.54 4.653-.187-.024-.371-.057-.565-.057a4.51 4.51 0 0 0-4.505 4.505c0 1.626.877 3.038 2.174 3.826-.006 1.397.302 2.685.96 3.824 3.033 5.252 11.286 4.878 17.243 3.63 2.669 8.02 6.909 13.118 11.77 13.118 4.862 0 9.102-5.098 11.77-13.117 3.26.682 6.364 1.013 9.517.63.822 1.088 2.112 1.803 3.57 1.803a4.51 4.51 0 0 0 4.506-4.506c0-.575-.118-1.12-.316-1.626 2.368-4.21.072-10.396-5.51-16.683M35.086 47.209a76 76 0 0 1-11.457-6.593 77 77 0 0 1 .012-13.22 74.5 74.5 0 0 1 11.445-6.601 74.5 74.5 0 0 1 11.445 6.6c.393 4.407.376 8.986.012 13.221a76 76 0 0 1-11.457 6.593m11.006-2.684a57 57 0 0 1-1.262 6.295 58 58 0 0 1-6.103-2.044 76 76 0 0 0 7.365-4.25m-14.646 4.251a58 58 0 0 1-6.104 2.044 57 57 0 0 1-1.262-6.295 77 77 0 0 0 7.366 4.251M20.469 38.27a57 57 0 0 1-4.808-4.226 56 56 0 0 1 4.806-4.274 77 77 0 0 0 .002 8.5m3.641-14.81a56 56 0 0 1 1.288-6.262 58 58 0 0 1 6.048 2.03 76 76 0 0 0-7.336 4.232m14.616-4.233a58 58 0 0 1 6.048-2.029 56 56 0 0 1 1.288 6.261 76 76 0 0 0-7.336-4.232m10.98 10.542a56 56 0 0 1 4.805 4.275 57 57 0 0 1-4.808 4.227c.158-2.934.156-5.603.002-8.502M61.5 18.752c1.615 2.799-.16 7.704-4.911 13.094-2.078-2.068-4.497-4.124-7.203-6.1-.357-3.317-.924-6.426-1.67-9.25C52 15.63 59.328 14.993 61.5 18.752M35.086 3.5c1.183 0 2.393.573 3.567 1.642a4.45 4.45 0 0 0-.603 2.209 4.51 4.51 0 0 0 4.505 4.506c.136 0 .263-.029.396-.04q.503 1.186.957 2.517c-2.844.78-5.82 1.848-8.822 3.17-3.003-1.322-5.978-2.39-8.822-3.17C28.576 7.546 31.933 3.5 35.086 3.5M8.673 18.752c2.17-3.76 9.502-3.121 13.784-2.256-.747 2.824-1.314 5.933-1.671 9.25-2.706 1.977-5.124 4.032-7.202 6.1-4.75-5.39-6.527-10.295-4.91-13.094m-.001 30.5c-.29-.503-.46-1.086-.522-1.728 2.147-.34 3.8-2.181 3.8-4.422a4.48 4.48 0 0 0-1.231-3.074 34 34 0 0 1 2.915-3.822c2.066 2.051 4.468 4.09 7.152 6.05.357 3.316.924 6.425 1.671 9.248-4.263.861-11.614 1.51-13.785-2.252M35.086 64.5c-3.234 0-6.597-3.996-8.89-10.815 2.865-.782 5.864-1.855 8.89-3.188 3.026 1.333 6.025 2.406 8.89 3.188-2.293 6.818-5.656 10.815-8.89 10.815m12.63-12.997c.746-2.822 1.313-5.931 1.67-9.247 2.684-1.96 5.086-3.999 7.152-6.05 4.199 4.801 6.104 9.232 5.359 12.072a4.5 4.5 0 0 0-1.953-.462c-2.4 0-4.36 1.9-4.473 4.284-2.563.227-5.217-.083-7.756-.597"/><path fill="#fff" d="M35.085 27.59c-3.53 0-6.41 2.88-6.41 6.41s2.88 6.41 6.41 6.41c3.54 0 6.41-2.88 6.41-6.41s-2.87-6.41-6.41-6.41"/></svg>