<svg xmlns="http://www.w3.org/2000/svg" width="400" height="200" viewBox="-269.128 -6.564 1050.256 525.128"><path fill="#fff" d="M484.024 345.569c-16.192 19.115-25.021 43.091-25.021 68.428 0 25.308 8.991 49.5 25.099 68.523C501.359 464.868 512 440.721 512 414.085c0-26.676-10.673-50.856-27.976-68.516M343.419 481.857c15.887-19.021 24.542-42.774 24.542-67.86 0-24.939-8.764-48.848-24.468-67.76-16.919 17.599-27.323 41.507-27.323 67.848 0 26.303 10.373 50.18 27.249 67.772"/><path fill="#fff" d="M460.079 500.54a135.87 135.87 0 0 1-31.075-86.543c0-31.906 10.909-62.133 30.958-86.429-13.686-7.272-29.298-11.398-45.876-11.398-16.926 0-32.847 4.295-46.737 11.854a136 136 0 0 1 30.613 85.973c0 31.764-10.811 61.866-30.69 86.106C381.178 507.688 397.128 512 414.085 512c16.626 0 32.28-4.149 45.994-11.46m35.638-484.258c-21.709-21.709-56.906-21.709-78.615 0l-99.424 99.424a627 627 0 0 0-34.736 37.7l-68.027 89.409c-9.041 11.883-18.494 23.45-28.402 34.621a1153 1153 0 0 1-20.353 22.344l46.059 46.06a1153 1153 0 0 1 22.344-20.353c11.17-9.908 22.737-19.361 34.621-28.402l89.409-68.027a627 627 0 0 0 37.7-34.736l99.424-99.424c21.709-21.71 21.709-56.907 0-78.616m-350.331 305.15a1186 1186 0 0 1-6.505 6.572L76.765 390.12a73.9 73.9 0 0 1 17.149 12.791l15.173 15.173a73.9 73.9 0 0 1 12.792 17.149l62.116-62.116c2.18-2.18 4.375-4.343 6.572-6.505zM67.838 509.656 2.343 444.161a8 8 0 0 1 0-11.314l8.723-8.723c17.02-17.02 44.615-17.02 61.635 0l15.173 15.174c17.02 17.02 17.02 44.615 0 61.635l-8.723 8.723a8 8 0 0 1-11.313 0"/></svg>