<svg xmlns="http://www.w3.org/2000/svg" width="400" height="200" viewBox="-12.612 -0.308 49.224 24.612"><path fill="#fff" d="m15.209 11.1-3.369 3.366a2.42 2.42 0 0 1-.684 1.69 2.37 2.37 0 0 1-1.658.685 2.343 2.343 0 1 1 0-4.685h.022l3.369-3.369a5.17 5.17 0 0 0-2.835-1.059 2.18 2.18 0 0 0-1.6.631 6.7 6.7 0 0 0-1.245 1.615 4.8 4.8 0 0 1-.919 1.262 4.46 4.46 0 0 1-2.246.92 5.47 5.47 0 0 0-2.781 1.209c-2.631 2.62-.631 5.722 1.508 7.861a9.45 9.45 0 0 0 4.043 2.641 3.79 3.79 0 0 0 3.818-1.144 5.73 5.73 0 0 0 1.23-2.824c.5-2.213 1.091-2.534 1.968-3.026a7.3 7.3 0 0 0 1.807-1.348c.963-.962.792-2.674-.428-4.425m-8.042 9.035a.38.38 0 0 1-.257.107.42.42 0 0 1-.257-.107l-2.791-2.8a.35.35 0 0 1 0-.514.37.37 0 0 1 .513 0l2.792 2.8a.35.35 0 0 1 0 .514"/><path fill="#fff" d="M11.113 14.5a1.618 1.618 0 0 1-2.759 1.134 1.613 1.613 0 0 1 0-2.278 1.613 1.613 0 0 1 2.278 0 1.58 1.58 0 0 1 .481 1.144m9.294-9.638L11.659 13.6a2.4 2.4 0 0 0-.5-.759 2.3 2.3 0 0 0-.77-.514l8.738-8.748zm2.619-.781-.245-.245.547-.547.245.245a.245.245 0 1 0 .347-.347l-.245-.245.315-.315V1.589L22.407.006h-1.048l-.31.311L20.8.072a.245.245 0 1 0-.347.346l.247.245-.547.548-.243-.245a.245.245 0 1 0-.347.346l.245.245-.31.31v1.049L21.081 4.5h1.038l.315-.315.245.245a.245.245 0 1 0 .347-.347z"/></svg>