<svg xmlns="http://www.w3.org/2000/svg" width="400" height="200" data-name="Layer 1" viewBox="-25.233 -0.616 98.464 49.232"><path fill="#fff" d="M47.492.508a1.73 1.73 0 0 0-2.244-.176l-5.282 3.839a4 4 0 0 0-1.332 1.676l-.312.736c-.1.237-.245.452-.427.634L19.686 25.426l-.483-.483a3.62 3.62 0 0 1 0-5.122l.232-.232c.63-.63.184-1.707-.707-1.707h-.097a7.466 7.466 0 0 0-7.178 5.415l-.051.177a7.31 7.31 0 0 1-5.777 5.192l-.236.041A6.44 6.44 0 0 0 .07 34.563l-.036.478c-.56 7.389 5.62 13.528 13.006 12.918l.203-.017c3.09-.255 5.576-2.509 6.127-5.506l.038-.207a7.3 7.3 0 0 1 4.452-5.45l.344-.138a5.55 5.55 0 0 0 2.893-2.669 5.64 5.64 0 0 0 .306-4.307l-.005-.016a.5.5 0 0 0-.828-.195l-.81.81a3.705 3.705 0 0 1-5.236 0l-.01-.01 20.131-20.131c.232-.232.517-.403.83-.499l1.101-.336a4 4 0 0 0 2.268-1.779l2.91-4.888A1.73 1.73 0 0 0 47.49.509zM11.828 41.061l-.707.707a1 1 0 0 1-1.414 0l-3.536-3.536a1 1 0 0 1 0-1.414l.707-.707a1 1 0 0 1 1.414 0l3.536 3.536a1 1 0 0 1 0 1.414m2.94-4.353a1 1 0 0 1-1.414 0l-2.121-2.121a.999.999 0 1 1 1.414-1.414l2.121 2.121a1 1 0 0 1 0 1.414m3-3a1 1 0 0 1-1.414 0l-2.121-2.121a.999.999 0 1 1 1.414-1.414l2.121 2.121a1 1 0 0 1 0 1.414"/></svg>