<svg xmlns="http://www.w3.org/2000/svg" width="400" height="200" viewBox="19.550 58.600 156.000 78.000"><path fill="#fff" d="M159.7 111.1c-2-1.6-4.1-3.2-6.3-4.7-.7-.5-1.5-1-2.2-1.4-9.3-5.8-19.5-10.1-28.4-13.1L134 79.2l-4-3.5-12.7 14.6c-7.4-2.2-13.4-3.5-16.1-4v-.5l4.5-20.6L95.5 63l-5.2 23.6c-6.6-1.7-10.2 1.3-11.2 8-13.7-4.9-26.9-9.6-40.3-14.4-.9 2-1.7 3.7-2.7 5.8C48.2 92.5 72 106.2 72 106.5H21.5c.7 1.2 1.2 2 1.7 2.8 4.5 6.8 9.1 13.4 13.5 20.3 1.2 1.9 2.5 2.6 4.8 2.6 37.8-.1 75.6 0 113.4-.1 1.3 0 2.9-.9 3.8-1.9 4.7-5.6 9.2-11.3 13.8-17 .4-.5.7-1.1 1.1-2-5-.1-9.4-.3-13.9-.1"/></svg>