<svg xmlns="http://www.w3.org/2000/svg" width="400" height="200" data-name="solid final" viewBox="-23.692 0.154 95.385 47.692"><path fill="#fff" d="M26.63 8.07V.75h-5.25v7.316L24 7.114zm12.01 15.354V14.03L24 8.71 9.37 14.03v9.389L24 15.48zm-6.088-7.883a.75.75 0 0 1 .961-.448l2.054.747a.75.75 0 0 1-.513 1.409L33 16.5a.75.75 0 0 1-.448-.959m-3.942-1.608a.75.75 0 0 1 .961-.449l2.053.747a.75.75 0 0 1-.513 1.41l-2.053-.747a.75.75 0 0 1-.448-.961M14.928 16.5l-2.053.747a.75.75 0 1 1-.513-1.409l2.054-.747a.75.75 0 0 1 .512 1.409m3.943-1.608-2.054.747a.8.8 0 0 1-.256.045.75.75 0 0 1-.256-1.455l2.053-.747a.75.75 0 0 1 .513 1.41M16.25 47.25h15.5c-2.94 0-5.488-3.78-7.75-3.78s-4.81 3.78-7.75 3.78m-15.5 0h15.5c-2.94 0-5.488-3.78-7.75-3.78S3.69 47.25.75 47.25m38.75-3.78c-2.262 0-4.81 3.78-7.75 3.78h15.5c-2.94 0-5.488-3.78-7.75-3.78"/><path fill="#fff" d="M8.5 41.97c1.55 0 2.928 1.015 4.259 2 1.189.877 2.418 1.783 3.491 1.783s2.3-.906 3.491-1.783a9.6 9.6 0 0 1 3.509-1.911V23.65a.75.75 0 0 1 1.5 0v18.406a9.6 9.6 0 0 1 3.509 1.911c1.189.877 2.418 1.783 3.491 1.783s2.3-.906 3.491-1.783c1.331-.982 2.709-2 4.259-2a4 4 0 0 1 .452.036L45.89 29.06 24.75 17.6v3.03a.75.75 0 0 1-1.5 0V17.6L2.12 29.06l6.124 12.93c.085-.006.169-.02.256-.02"/></svg>