<svg xmlns="http://www.w3.org/2000/svg" width="400" height="200" viewBox="-107.268 66.382 694.600 347.300"><path fill="#fff" d="M333.198 116.49c4.193 2.854 4.653 8.799 1.053 12.372-8.774 8.71-14.188 20.779-14.188 34.043v174c0 7.118 1.545 13.823 4.284 19.83 1.91 4.189.022 9.116-4.25 10.832-75.251 30.214-194.358 63.864-260.134 22.529-61.281-38.512-83.537-195.888-28.79-240.18 21.332-17.273 50.486-24.158 77.52-25.24 48.388-2.285 100.98 11.959 145.1 31.05 4 1.74 8.65-.05 10.46-4.02v-.01c1.85-4.07 0-8.87-4.11-10.65-36.673-15.889-77.599-27.959-117.882-31.515-5.899-.521-9.288-7.044-6.185-12.087 3.044-4.948 6.528-8.611 9.787-11.287 29.277-24.048 107.131-24.258 187.335 30.333m79.865 14.416h-45c-17.673 0-32 14.327-32 32v174c0 17.673 14.327 32 32 32h45a8 8 0 0 0 8-8v-222a8 8 0 0 0-8-8m-28 149a8 8 0 0 1-8-8v-44a8 8 0 0 1 16 0v44a8 8 0 0 1-8 8m61.275-148.511c-4.866-.767-9.275 2.981-9.275 7.906V360.51c0 4.926 4.409 8.673 9.275 7.906 19.111-3.011 33.725-19.554 33.725-39.511v-158c0-19.956-14.615-36.499-33.725-39.51"/></svg>