<svg xmlns="http://www.w3.org/2000/svg" width="400" height="200" viewBox="-3.630 13.180 67.260 33.630"><path fill="#fff" d="M9 28.69c.2 0 .41-.02.61-.06.57-.12 1.05-.39 1.44-.76.69.92 1.63 1.63 2.74 2.03l-2.63 9.76-4.53 1.82c-.51.2-.76.79-.56 1.3.16.39.53.63.93.63.12 0 .25-.03.37-.07l5-2c.29-.12.51-.37.6-.67l3.01-11.22c.02-.07.01-.15.01-.22 2.07-5.16 7.12-8.82 13.01-8.82 3.54 0 6.76 1.33 9.23 3.5l15.05-4.43c.5-.15.81-.66.7-1.17l-.82-3.92a.997.997 0 0 0-1.11-.78l-37.43 4.78c-2.3.49-4.06 2.29-4.59 4.49-.52-.19-1.09-.24-1.64-.12-.79.16-1.46.62-1.9 1.29s-.59 1.47-.43 2.26A3.01 3.01 0 0 0 9 28.69"/><path fill="#fff" d="M37.49 25.92a.2.2 0 0 0-.05-.03c-2.17-2.15-5.15-3.48-8.44-3.48s-6.27 1.33-8.44 3.48c-.01.01-.03.02-.05.03-.01.01-.02.03-.03.05C18.33 28.13 17 31.11 17 34.4s1.33 6.27 3.48 8.44c.01.01.02.03.03.04s.03.02.04.03c2.17 2.15 5.15 3.48 8.44 3.48s6.27-1.33 8.44-3.48c.01-.01.03-.02.04-.03s.02-.03.03-.04c2.17-2.16 3.5-5.15 3.5-8.44s-1.33-6.27-3.48-8.44c-.02-.01-.02-.03-.03-.04m-16.23 2.16 4.3 4.31q-.285.48-.42 1.02h-6.09c.2-2.02 1-3.85 2.21-5.33m-2.21 7.32h6.09c.09.36.24.7.42 1.02l-4.3 4.3a9.9 9.9 0 0 1-2.21-5.32M28 44.35c-2.01-.2-3.84-1-5.32-2.21l4.3-4.3c.32.19.66.33 1.02.43zm0-13.8c-.36.09-.7.24-1.02.42l-4.31-4.31a10 10 0 0 1 5.32-2.21v6.1zm2-6.1c2.01.2 3.84 1 5.32 2.21l-4.31 4.31q-.48-.285-1.02-.42v-6.1zm0 19.9v-6.09c.36-.09.71-.24 1.02-.43l4.3 4.3A9.9 9.9 0 0 1 30 44.35m6.74-3.62-4.3-4.3q.285-.48.42-1.02h6.09c-.2 2-1 3.84-2.21 5.32m-3.88-7.33c-.09-.36-.24-.7-.42-1.02l4.3-4.31a10 10 0 0 1 2.21 5.32h-6.09z"/></svg>