<svg xmlns="http://www.w3.org/2000/svg" width="400" height="200" viewBox="-145.058 102.385 829.602 414.801"><path fill="#fff" d="M73.17 122.267c8.802 9.283 18.622 18.441 28.94 27.792 47.021 42.598 66.519 67.006 42.188 97.401-30.103 37.646-28.535 67.207-21.899 85.386 10.181 27.935 39.507 48.647 80.464 56.807 39.038 7.797 94.75 3.279 114.448 31.187 17.983 25.49-.833 86.446-1.567 91.161h35.786c2.404-3.816 47.873-46.85 40.825-104.989-8.077-66.632-79.31-106.505-88.433-114.99 24.457-23.243 155.801-59.856 162.394-184.452C406.656 148.328 274.621 150 255.684 150c-16.335 0-116.85-1.267-182.514-27.733"/><ellipse cx="255.684" cy="60" fill="#fff" rx="210" ry="60"/></svg>