<svg xmlns="http://www.w3.org/2000/svg" width="400" height="200" viewBox="-159.292 48.354 830.585 415.292"><path fill="#fff" d="M96.369 362.592c-15.933-28.013-28.951-57.614-38.694-87.982a455 455 0 0 1-5.459-18.331C32.351 251.054 0 244.416 0 244.416v18.38c0 43.691 24.783 111.868 94.629 160.223 28.138 19.48 58.409 31.526 88.673 35.436-32.571-19.449-61.788-51.655-86.933-95.863m363.417-106.313a457 457 0 0 1-5.46 18.331c-9.743 30.368-22.762 59.969-38.694 87.982-25.144 44.207-54.361 76.413-86.933 95.862 30.264-3.91 60.537-15.956 88.673-35.435C487.218 374.665 512 306.487 512 262.796v-18.38s-32.351 6.638-52.214 11.863M187.309 425.167c-23.09-34.783-34.803-80.261-34.803-135.233 0-45.308 6.528-85.324 15.386-118.794-41.852-38.649-76.995-55.274-79.37-56.373l-19.059-8.819-2.161 20.888c-.443 4.283-10.105 106.205 55.144 220.925 19.47 34.23 41.226 60.176 64.863 77.406m172.186-135.233c0 54.766-12.01 100.456-35.686 135.867 23.978-17.225 46.034-43.385 65.746-78.041 65.249-114.721 55.588-216.642 55.145-220.925l-2.161-20.888-19.059 8.819c-2.376 1.099-37.515 17.723-79.363 56.367 8.883 33.558 15.378 73.544 15.378 118.801M256 53.545s-24.401 34.433-36.896 62.239c-17.035 37.908-36.598 98.016-36.598 174.15 0 116.966 57.591 150.535 73.494 158.516 13.334-6.012 73.495-41.551 73.495-158.516 0-77.783-20.419-138.838-37.702-176.582C279.752 87.054 256 53.545 256 53.545"/></svg>