<svg xmlns="http://www.w3.org/2000/svg" width="400" height="200" viewBox="-75.057 90.472 662.113 331.056"><path fill="#fff" d="M285.518 286.222c19.295 9.837 38.33 21.298 56.897 34.27 50.676 35.405 80.178 69.605 81.409 71.044l21.298 24.823-1.202 1.031h53.02c8.316 0 15.059-6.742 15.059-15.059v-157.11c-20.743-.26-138.327.239-226.481 41.001m-71.797-123.11c-48.463 0-89.261 34.135-98.931 80.152 5.389.03 10.863.159 16.396.409 39.617 1.788 79.69 10.71 119.107 26.516l.302.123c18.502-10.693 39.204-20.157 61.806-28.137-10.087-45.185-50.499-79.063-98.68-79.063m187.233 248.021c-.285-.333-28.732-33.202-76.493-66.444-43.557-30.315-112.681-67.23-194.634-70.929-58.049-2.619-110.944 9.065-111.472 9.183L0 286.99v115.341c0 8.316 6.742 15.059 15.059 15.059h391.264zM213.721 94.61c-8.317 0-15.059 6.742-15.059 15.059v23.424c0 8.316 6.742 15.059 15.059 15.059s15.059-6.742 15.059-15.059v-23.424c0-8.317-6.743-15.059-15.059-15.059m-52.522 48.521-11.713-20.286c-4.158-7.202-13.368-9.67-20.57-5.511s-9.67 13.368-5.512 20.57l11.713 20.286c2.789 4.832 7.851 7.531 13.055 7.531a15 15 0 0 0 7.515-2.02c7.202-4.158 9.67-13.368 5.512-20.57m-53.508 42.485-20.286-11.713c-7.204-4.158-16.413-1.691-20.57 5.512-4.158 7.202-1.691 16.412 5.511 20.57l20.286 11.713a15 15 0 0 0 7.515 2.02c5.204 0 10.266-2.701 13.055-7.531 4.158-7.203 1.691-16.413-5.511-20.571m252.918-6.201c-4.157-7.202-13.368-9.67-20.57-5.512l-20.287 11.713c-7.202 4.158-9.67 13.368-5.512 20.57 2.789 4.831 7.85 7.531 13.055 7.531a15 15 0 0 0 7.515-2.02l20.287-11.713c7.202-4.157 9.67-13.367 5.512-20.569m-62.083-62.081c-7.203-4.161-16.414-1.692-20.57 5.512l-11.713 20.286c-4.158 7.202-1.691 16.411 5.512 20.57a15 15 0 0 0 7.515 2.02c5.204 0 10.267-2.701 13.055-7.531l11.713-20.286c4.158-7.202 1.69-16.412-5.512-20.571"/></svg>