<svg xmlns="http://www.w3.org/2000/svg" width="400" height="200" viewBox="-188.443 33.778 888.886 444.443"><path fill="#fff" d="M256 69.334c56.559 0 109.482 27.867 141.572 74.543l24.721-16.996C384.605 72.062 322.44 39.334 256 39.334S127.393 72.062 89.707 126.882l24.723 16.995C146.517 97.201 199.441 69.334 256 69.334"/><path fill="#fff" d="m347.65 177.28 24.604-17.165C345.702 122.055 302.243 99.334 256 99.334c-46.242 0-89.702 22.722-116.255 60.782l24.604 17.165c20.946-30.023 55.208-47.947 91.651-47.947s70.705 17.924 91.65 47.946"/><path fill="#fff" d="m190.673 192.033 23.986 18.018c9.89-13.166 24.957-20.717 41.34-20.717 16.647 0 32.387 8.134 42.102 21.758l24.426-17.418c-15.333-21.502-40.203-34.34-66.527-34.34-25.526 0-49.948 12.224-65.327 32.699m83.057 52.299 38.562 77.124-38.593 48.242-16.048 57.978-39.478-61.577 36.402-55.404-66.364-66.362H0v228.333h512V244.332zm-126.397 64v30h-30v-30zm-51.333 64v30H66v-30zm245.333 8.334h30v30h-30zm66-42.415v-30h30v30z"/></svg>