<svg xmlns="http://www.w3.org/2000/svg" width="400" height="200" viewBox="-6.464 19.195 103.046 51.523"><path fill="#fff" d="M76.896 56.344a9.24 9.24 0 0 1-3.5 3.156c-1.469.761-3.115 1.261-4.756 1.146-2.182-.15-2.488-.339-4.566-.948a11 11 0 0 0-8.266.865c-3.203 1.708-5.262 4.802-5.875 7.104-.131.489-.074.875.182 1.219.547.719 1.885 1.188 2.656 1.188l15.822-.038c5-.005 8.012-3.134 8.49-8.801.12-1.49.042-3.13-.187-4.891"/><path fill="#fff" d="M66.188 19.839a7.4 7.4 0 0 0-3.322.781c-1.979.995-3.203 2.828-3.203 4.782 0 .624-.494 1.129-1.109 1.129s-1.115-.505-1.115-1.129c0-1.954-1.223-3.782-3.197-4.782-2.057-1.037-4.609-1.037-6.656 0-1.979 1-3.188 2.828-3.209 4.782-.01.989-1.26 1.645-2.025.634-.609-.801-1.375-1.541-2.35-2.03-2.051-1.041-4.598-1.046-6.645 0-1.98.995-3.168 2.828-3.209 4.776-.021.875-1.266 1.719-2.047.609-.537-.76-1.24-1.442-2.156-1.896-1.797-.891-4.037-.891-5.834 0-1.875.921-3.344 2.672-3.848 4.573L12.98 48.807c.031 1.907 1.238 3.688 3.166 4.672 2.031 1.032 4.547 1.032 6.568 0a6.15 6.15 0 0 0 2.297-2v-9.724c0-.624.494-1.129 1.109-1.129.613 0 1.113.505 1.113 1.129v10.084c0 2.307 1.396 4.468 3.641 5.64 2.313 1.208 5.184 1.208 7.496 0 2.25-1.172 3.645-3.333 3.645-5.64V41.755c0-.624.496-1.129 1.109-1.129.615 0 1.115.505 1.115 1.129v10.084c0 2.307 1.396 4.468 3.646 5.64 2.313 1.208 5.182 1.208 7.488 0 2.25-1.172 3.646-3.333 3.646-5.64V41.755c0-.624.494-1.129 1.109-1.129s1.115.505 1.115 1.129v10.084c0 2.307 1.395 4.473 3.645 5.64 2.309 1.208 5.184 1.208 7.496 0 2.234-1.161 3.625-3.295 3.641-5.588 0 0-3.412-27.333-3.412-27.36-.006-1.046-1.125-2.916-3.1-3.911a7.36 7.36 0 0 0-3.325-.781"/></svg>