<svg xmlns="http://www.w3.org/2000/svg" width="400" height="200" viewBox="-326.678 -8.588 1374.356 687.178"><path fill="#fff" fill-rule="evenodd" d="M586.224 59.98c-15.643 105.01-66.336 188.27-150.533 250.76a1.5 1.5 0 0 1-.889.29c-45.09-.18-84.091 7.88-117.765 23.15-11.103 5.04-18.435 14.27-20.825 26.23-6.284 31.42-11.57 54.97-9.245 87.26 4.008 55.63 36.326 86.52 40.411 144.53 1.75 24.82-1.282 50.11-9.289 75.88-.146.45-.063.94.222 1.32.287.39.705.6 1.191.6H537.12c.468 0 .868-.19 1.159-.56.29-.37.388-.8.282-1.26l-55.162-236.44c-.153-.63.127-1.28.687-1.61l174.247-102.97c.192-.11.355-.27.476-.45 45.161-67.38 54.216-149.83 47.685-238.8-.013-.16 0-.32.038-.47l13.99-57.01c1.722-7.02-1.296-14.06-7.564-17.65L691.007.2a1.47 1.47 0 0 0-1.025-.17l-78.574 15.72a1.45 1.45 0 0 0-.978.69l-8.969 14.95c-.203.35-.547.6-.945.68L90.134 146.35a.3.3 0 0 1-.095.02q-.695.105-1.37.3l-.092.03-70.983 15.77a11.06 11.06 0 0 0-8.219 7.68l-.013.04C1.97 192.55-1.06 214.99.327 237.5c1.394 22.62 7.234 45.29 17.572 67.99a11.05 11.05 0 0 0 10.053 6.47v.03h47.856c5.925.01 10.806-4.65 11.083-10.57l14.886-134c.064-.63.527-1.15 1.146-1.28L584.435 58.32c.491-.11.962.01 1.33.36.371.34.533.8.459 1.3m-181.42 163.3c0 37.22-30.166 67.39-67.38 67.39s-67.381-30.17-67.381-67.39 30.166-67.39 67.381-67.39c37.212 0 67.38 30.17 67.38 67.39m197.991-31.92 15.91-55.7c.026-.08.06-.17.1-.25l23.034-46.08c.2-.41.581-.7 1.03-.79.446-.09.91.03 1.254.33 12.506 10.71 18.059 25.81 14.502 46.64l-.009.04-23.792 118.99c-.078.42-.335.78-.705.98l-75.716 44.24a1.46 1.46 0 0 1-1.82-.26 1.46 1.46 0 0 1-.161-1.83c20.788-31.52 37.13-71.56 46.364-106.28z"/></svg>