<svg xmlns="http://www.w3.org/2000/svg" width="400" height="200" viewBox="-149.790 50.106 799.580 399.790"><path fill="#fff" fill-rule="evenodd" d="M381.342 89.998c-9.102 61.091-38.599 109.534-87.591 145.886a.83.83 0 0 1-.517.169c-26.237-.104-48.93 4.588-68.524 13.473-6.461 2.93-10.727 8.301-12.118 15.258-3.656 18.28-6.732 31.983-5.379 50.766 2.332 32.363 21.137 50.334 23.514 84.085 1.018 14.443-.746 29.155-5.405 44.147a.84.84 0 0 0 .129.766c.167.227.41.35.693.35H352.77c.272 0 .505-.113.674-.326s.226-.466.164-.73l-32.097-137.558a.85.85 0 0 1 .4-.936L423.3 245.437a.8.8 0 0 0 .277-.261c26.278-39.198 31.547-87.17 27.747-138.931a.8.8 0 0 1 .022-.268l8.14-33.171c1.002-4.082-.754-8.178-4.401-10.268l-12.773-7.319a.82.82 0 0 0-.596-.097l-45.72 9.144a.83.83 0 0 0-.569.401l-5.219 8.698a.83.83 0 0 1-.55.397L92.681 140.248q-.027.007-.055.01a6 6 0 0 0-.797.178l-.054.014-41.303 9.178a6.43 6.43 0 0 0-4.782 4.463l-.008.026c-4.301 13.011-6.064 26.065-5.257 39.159.811 13.161 4.209 26.348 10.225 39.558a6.43 6.43 0 0 0 5.849 3.76v.022h27.846a6.455 6.455 0 0 0 6.449-6.153l8.662-77.96a.85.85 0 0 1 .667-.745l280.178-62.727c.286-.064.56.01.774.21.216.2.31.468.267.757M110.465 361.919c19.485 27.119 45.479 49.856 78.183 68.075a6.433 6.433 0 0 1-6.253 11.245C114.35 403.368 72.839 345.838 58.527 269.726a6.44 6.44 0 0 1 12.657-2.371c6.779 35.893 19.806 67.46 39.281 94.564m165.314-176.915c0 21.653-17.553 39.207-39.207 39.207-21.653 0-39.207-17.553-39.207-39.207 0-21.653 17.553-39.207 39.207-39.207 21.653 0 39.207 17.553 39.207 39.207M86.097 156.05l-7.432 66.891a.86.86 0 0 1-.855.766H61.284a.85.85 0 0 1-.797-.536c-8.211-20.162-9.711-40.575-3.75-61.303a.84.84 0 0 1 .64-.602l27.679-6.151a.84.84 0 0 1 .761.2c.213.191.312.45.28.735m304.887 10.383 9.258-32.403a1 1 0 0 1 .058-.148l13.403-26.807a.84.84 0 0 1 .599-.459.84.84 0 0 1 .73.19c7.277 6.234 10.508 15.017 8.438 27.136l-.005.024-13.844 69.223a.83.83 0 0 1-.41.574L365.154 229.5a.854.854 0 0 1-1.059-.151.85.85 0 0 1-.094-1.065c12.096-18.342 21.605-41.635 26.978-61.835z" clip-rule="evenodd"/></svg>