<svg xmlns="http://www.w3.org/2000/svg" width="400" height="200" viewBox="-257.902 -6.291 1006.447 503.224"><path fill="#fff" d="M281.544 97.077c-57.709-47.809-.021-.021-57.673-47.789a23.5 23.5 0 0 0-7.342-4.096L144.197 20.74c-12.066-4.075-25.176 2.398-29.268 14.482-4.077 12.082 2.397 25.174 14.481 29.268l68.293 23.085c33.524 27.786 23.932 19.837 42.396 35.128l-44.523 78.067c-8.783 15.329-10.551 36.051-1.264 54.355l20.884 97.237-19.008 105.68c-2.705 15.057 7.304 29.467 22.362 32.172 15.545 2.705 29.539-7.719 32.172-22.363l19.964-111.049c.63-3.555.577-7.199-.18-10.715l-15.113-70.422 61.494-107.859c8.874-15.546 14.483-29.557 2.257-46.818-6.743-9.592-28.73-21.766-37.6-23.911m9.54-17.457c20.431 11.686 46.475 4.545 58.139-15.869 11.651-20.47 4.509-46.493-15.922-58.142-20.451-11.669-46.475-4.544-58.123 15.905-11.65 20.45-4.546 46.454 15.906 58.106m172.709 55.905c-2.688-12.461-14.97-20.486-27.431-17.692l-66.994 14.446-27.429-6.168c.145.505.414.955.557 1.479 4.563 16.646 1.154 30.641-6.762 44.455l28.457 6.402c3.211.72 6.563.757 9.935.035l71.975-15.527c12.462-2.688 20.379-14.969 17.692-27.43"/><path fill="#fff" d="m174.115 203.728-39.26-23.282L77.22 92.154c-8.349-12.805-25.534-16.393-38.341-8.043-12.803 8.348-16.409 25.519-8.041 38.34l61.15 93.686a27.5 27.5 0 0 0 9.072 8.674l77.762 46.094-2.092-9.702c-8.728-18.739-9.251-39.027-2.615-57.475"/></svg>