<svg xmlns="http://www.w3.org/2000/svg" width="400" height="200" viewBox="-31.660 85.140 467.200 233.600"><path fill="#fff" d="M114.2 263.02a392.7 392.7 0 0 0 88 8.84 392.7 392.7 0 0 0 88-8.84c25.44-6.16 41.16-16 41.16-27.68 0-118.64-37.32-147.28-74.68-147.28-24.88.04-48.92 13.16-62 20.28-3.28 1.8-5.76 3.16-6.92 3.56-7.68 2.88-18.6 1.2-30.04-.56a153.4 153.4 0 0 0-24.68-2.44c-32.28.28-60.92 19.08-60 126.44 0 12 15.72 21.56 41.16 27.68"/><path fill="#fff" d="M380.96 235.18a188.3 188.3 0 0 0-39.24-13.44v13.6c0 23.28-31.08 33.68-49.32 38.08a396.8 396.8 0 0 1-90.32 9.16 396.8 396.8 0 0 1-90.48-9.16c-18.24-4.4-49.52-14.8-49.52-38.08v-13.56a188 188 0 0 0-39.16 13.44C8.24 242.62 0 251.58 0 261.82c0 16.68 24 30.8 62.44 40 36 8.64 85.08 14 139.36 14s103.84-5.32 139.64-13.84c38.6-9.32 62.44-23.44 62.44-40 0-10.4-8.2-19.4-22.92-26.8"/></svg>