<svg xmlns="http://www.w3.org/2000/svg" width="400" height="200" viewBox="-120.930 67.535 753.861 376.930"><path fill="#fff" d="M495.295 372.934c-9.222 0-16.705 7.477-16.705 16.705 0 9.211-7.494 16.705-16.705 16.705h-27.559v-34.067c16.713-2.157 32.179-9.729 44.307-21.893 14.573-14.606 22.567-33.997 22.513-54.595-.003-1.409.318-6.965-.556-10.442-5.62-81.545-73.672-146.28-156.575-146.28h-9.918v-33.41h150.344c9.222 0 16.705-7.477 16.705-16.705s-7.483-16.705-16.705-16.705H150.344c-9.222 0-16.705 7.477-16.705 16.705s7.483 16.705 16.705 16.705h150.344v33.41H33.41v-16.705c0-9.228-7.483-16.705-16.705-16.705S0 113.134 0 122.362v100.229c0 9.227 7.483 16.704 16.705 16.704s16.705-7.477 16.705-16.705v-12.014l154.39 38.599c.011 0 .011 0 .011.006a16.66 16.66 0 0 1 12.648 16.199c0 44.896 27.653 83.45 66.82 99.537v41.427h-50.115c-9.222 0-16.705 7.477-16.705 16.705s7.483 16.705 16.705 16.705h244.722c27.634 0 50.115-22.48 50.115-50.115-.001-9.228-7.484-16.705-16.706-16.705M334.098 172.475h9.918c60.122 0 110.377 43.236 121.405 100.229H350.802c-9.211 0-16.705-7.494-16.705-16.705zm66.819 233.868H300.688V372.68c2.42.164 4.859.254 7.319.254h92.91z"/></svg>