<svg xmlns="http://www.w3.org/2000/svg" width="400" height="200" viewBox="-33.638 -0.821 131.282 65.641"><path fill="#fff" d="M63.81.42A1.01 1.01 0 0 0 63 0h-9a1.02 1.02 0 0 0-.93.62L36.33 42H4.72a4.7 4.7 0 0 0-4.53 6l1.61 5.64A6.015 6.015 0 0 0 7.56 58H12v-5c0-4.42 6.72-6 13-6 6.13 0 12.68 1.51 12.98 5.69.01.1.02.21.02.31v5h3.13a5 5 0 0 0 4.74-3.39L63.95 1.32a1 1 0 0 0-.14-.9"/><ellipse cx="25" cy="53" fill="#fff" rx="11" ry="4"/><path fill="#fff" d="M14 56.53V60c0 2.75 5.7 4 11 4s11-1.25 11-4v-3.47C33.54 58.3 29.17 59 25 59s-8.54-.7-11-2.47"/></svg>