<svg xmlns="http://www.w3.org/2000/svg" width="400" height="200" viewBox="-162.187 46.911 836.361 418.180"><path fill="#fff" fill-rule="evenodd" d="M79.209 68.559c42.13 5.027 75.318 32.672 107.102 58.077 13.479 8.58 29.384 11.105 43.374 18.638 11.252 6.054 20.277 15.072 32.823 18.63 43.33 11.791 83.595-13.311 127.089-11.842 8.173-.215 17.84-1.597 25.763.93 9.992 3.724 19.184 10.268 26.285 18.2 25.123 30.258-6.694 69.124 1.786 104.98 2.285 15.489 11.842 26.908 17.397 41.088 10.893 26.061 10.83 54.665 15.223 82.097.843 5.323 2.738 11.574 2.116 16.967-.531 4.629-5.034 7.68-5.656 12.34-.602 4.582 2.688 11.273 1.113 15.386-2.988 7.767-13.829 11.541-20.989 13.827-.873.278-8.404 2.748-8.785 1.751-1.524-3.967.943-10.372 1.946-14.143 3.349-12.608 13.017-23.244 13.919-36.467.943-13.835-4.563-27.967-9.527-40.566-5.896-14.964-11.683-29.438-19.405-43.611-3.851-7.068-7.16-17.766-12.666-23.525-1.013 5.032-1.482 12.024-1.936 17.648 1.341 35.724-11.944 68.805-25.904 101.041-1.403 3.291-3.789 5.929-7.38 6.629-.381.074-6.869.111-6.93 1.464-.11 2.319 2.928 10.468.933 12.401-6.609 6.377-25.061 8.184-33.445 5.702-1.113-.333.873-2.173 1.344-3.246 1.504-3.469 3.249-6.838 5.054-10.162 7.2-13.284 21.109-20.996 27.427-34.959 4.463-9.857 5.215-20.578 7.14-31.079 5.345-29.216 5.736-55.061-4.984-83.303-3.049-8.042-12.776-18.748-22.123-18.64-5.626.065-10.58 3.502-15.424 5.958-24.995 15.336-100.312 13.599-111.997 14.039 3.735 34.196 13.387 68.325 23.557 101.407 2.006 6.53 7.481 16.566 6.168 23.488-.331 1.759-7 .722-7.431 2.567-.421 1.765.602 4.711.722 6.559.391 5.554.471 11.211.562 16.776.01.81-6.368 3.585-7.441 4.109-8.354 4.094-18.302 6.647-27.588 7.003-.893.034.521-1.944.792-2.504 4.66-11.962 13.492-22.041 15.655-34.89 1.604-12.741-4.985-23.703-9.628-35.098-10.878-25.219-10.238-56.303-28.982-77.818-9.537-10.436-23.467-13.924-34.237-22.509-13.639-10.877-20.307-27.941-24.158-44.495-.682-5.703.963-11.801-.782-17.341-1.835-5.842-5.987-10.864-9.046-16.085-5.546-9.467-10.901-19.214-15.313-29.267-8.431-19.443-13.194-24.154-34.337-15.281-7.331 2.054-14.852 2.711-21.26 7.266-9.116 6.484-17.439 20.719-30.546 16.799-4.021-1.203-6.659-4.78-8.524-8.347-11.042-21.265 14.205-32.372 18.502-50.935 3.279-13.327-1.043-27.72 10.008-38.331l-.742-25.744L62.29 70.931l4.703-18.793zm89.694 215.802c.642 27.361-.341 54.524-1.003 81.9-.321 13.048 1.896 27.251-.602 40.094-3.862 16.947-26.379 21.4-30.245 38.599.31.549 6.588.025 7.44.027 6.488.019 12.997.142 19.475-.015 1.434-.035 5.395.456 6.498-.436 1.173-.949 1.284-4.091 1.454-5.417.139-18.741 6.292-14.302 12.045-28.034 3.84-12.438 2.146-27.907 2.657-40.845.802-19.916 4.202-42.236 12.806-60.749-6.11-12.662-18.719-18.971-30.525-25.124m273.903-119.324c78.662-3.283 48.387 134.447 47.033 226.553-23.767-115.786-37.024-125.919-24.128-190.22 1.715-8.557-4.673-14.683-11.673-18.625-2.027-6.079-6.178-12.648-11.232-17.708" clip-rule="evenodd"/></svg>