<svg xmlns="http://www.w3.org/2000/svg" width="400" height="200" viewBox="-269.128 -6.564 1050.256 525.128"><path fill="#fff" d="M0 56.887v184.89h241.777V0H56.887C25.469 0 0 25.469 0 56.887m78.223 49.781h28.445V78.223c0-7.856 6.367-14.223 14.223-14.223s14.222 6.367 14.222 14.223v28.445h28.446c7.851 0 14.222 6.367 14.222 14.223s-6.367 14.222-14.222 14.222h-28.446v28.446c0 7.851-6.367 14.222-14.222 14.222s-14.223-6.367-14.223-14.222v-28.446H78.223c-7.856 0-14.223-6.367-14.223-14.222s6.367-14.223 14.223-14.223M455.113 0h-184.89v241.777H512V56.887C512 25.469 486.531 0 455.113 0m-21.336 135.113h-85.332c-7.855 0-14.222-6.367-14.222-14.226 0-7.856 6.367-14.223 14.222-14.223h85.332c7.856 0 14.223 6.367 14.223 14.223 0 7.86-6.367 14.226-14.223 14.226M0 455.113C0 486.531 25.469 512 56.887 512h184.89V270.223H0zM80.668 371c-5.457-5.652-5.3-14.652.348-20.11 5.511-5.324 14.25-5.324 19.761 0L120.891 371 141 350.89c5.652-5.456 14.656-5.3 20.113.348 5.32 5.512 5.32 14.25 0 19.762L141 391.113l20.113 20.11c5.649 5.457 5.805 14.46.348 20.109-5.457 5.652-14.461 5.809-20.11.352-.12-.114-.234-.23-.351-.352l-20.11-20.11-20.113 20.11c-5.648 5.461-14.652 5.305-20.109-.348-5.324-5.511-5.324-14.25 0-19.761l20.11-20.11zm189.555 141h184.89C486.531 512 512 486.531 512 455.113v-184.89H270.223zm78.222-163.555h85.332c7.856 0 14.223 6.368 14.223 14.223s-6.367 14.223-14.223 14.223h-85.332c-7.855 0-14.222-6.368-14.222-14.223s6.367-14.223 14.222-14.223m0 56.887h85.332c7.856 0 14.223 6.367 14.223 14.223 0 7.855-6.367 14.222-14.223 14.222h-85.332c-7.855 0-14.222-6.367-14.222-14.222 0-7.856 6.367-14.223 14.222-14.223m0 0"/></svg>