<svg xmlns="http://www.w3.org/2000/svg" width="400" height="200" viewBox="-29.559 -0.720 114.874 57.437"><g fill="#fff"><path d="M4.444 53.8a6.4 6.4 0 0 1-2.957-.721 2.444 2.444 0 1 0 4.841.438 6.4 6.4 0 0 1-1.752.282zm-.089-30.034L9.5 26.218a4.46 4.46 0 0 1 2.015-3.253l-2.406-6.779a1.303 1.303 0 1 0-2.453.877l.772 2.172a2.157 2.157 0 0 1-1.307 2.749l-1.711.61a.636.636 0 0 0-.059 1.172zm8.503 5.172a2.464 2.464 0 1 0 2.132-4.443 2.464 2.464 0 0 0-2.132 4.443m-7.07-15.479c.31.15.668.167.992.05a1.307 1.307 0 0 0-.435-2.535 1.307 1.307 0 0 0-.559 2.487zM48.069 1.586A17 17 0 0 1 45.741.03a.12.12 0 0 0-.106-.03.14.14 0 0 0-.1.071l-2.473 4.188 4.111-1.465c.221-.455.525-.864.896-1.208M1.277 50.464a4.446 4.446 0 0 0 7.617-2.953l-8.859.179a4.4 4.4 0 0 0 1.242 2.774m22.014-34.948a11.1 11.1 0 0 0-9.447 1.776l-1.757 1.294.95 2.679a9.44 9.44 0 0 1 4.031-2.854 1 1 0 1 1 .672 1.883 7.4 7.4 0 0 0-3 2.057 4.336 4.336 0 0 1 3.598 4.172l2.908-1.036-.093-2.568a6.79 6.79 0 0 1 4.4-6.741 37 37 0 0 0-2.262-.662m-5.723 13.719a4.4 4.4 0 0 1-2.013 1.611 9.5 9.5 0 0 0 1.36 1.666 1 1 0 1 1-1.383 1.446 11.7 11.7 0 0 1-1.854-2.325 8.24 8.24 0 0 0-1.673 3.674c.944 1.513 3.474 2.026 5.967 1.138 2.722-.969 4.469-3.348 3.814-5.194-.486-1.366-2.186-2.151-4.218-2.016M53.151 2.631a1 1 0 0 0-1.274-.609l-1.77.622a2.034 2.034 0 0 0-1.23 2.593l1.827 5.148a2.02 2.02 0 0 0 2.584 1.235l1.768-.62a1 1 0 0 0 .608-1.277z"/><path d="m46.8 5.052-23.6 8.406c.2.043.4.07.6.122q1.7.435 3.348 1.038c.66.244 1.095.878 1.083 1.582a1.62 1.62 0 0 1-1.079 1.537l-.922.329a4.8 4.8 0 0 0-3.08 4.785l.07 1.938 6.175-2.2a7.06 7.06 0 0 0 3.283-2.434l1.536-2.055-2.307.821a1 1 0 1 1-.672-1.883l5.421-1.938h.018l12.057-4.295-1.737-4.893a4 4 0 0 1-.194-.86M9.912 28.627l-4.6-2.19A25.5 25.5 0 0 0 .358 40.225l-.284 5.463 8.941-.18.879-9.668c.01-.157.033-.321.057-.485a10.2 10.2 0 0 1 1.923-4.687 4.4 4.4 0 0 1-1.962-2.041m-3.323 5.024a24.2 24.2 0 0 0-1.22 7.487 1 1 0 0 1-1 .991h-.008a1 1 0 0 1-.992-1.008c.013-2.754.46-5.49 1.323-8.105a1.002 1.002 0 0 1 1.9.635z"/></g></svg>