<svg xmlns="http://www.w3.org/2000/svg" width="400" height="200" viewBox="-249.893 3.053 1011.787 505.893"><path fill="#fff" d="M227.237 69.357a220 220 0 0 0-4.419-3.938C193.29 39.853 141.94 9.377 65.001 9.377c-8.284 0-15 6.716-15 15v10.726c75.095 4.107 137.23 20.601 177.236 34.254m102.077-14.658c42.188-10.898 86.683-17.49 132.675-19.707V24.377c0-8.284-6.716-15-15-15-76.939 0-128.288 30.476-157.816 56.042-.789.683-1.561 1.366-2.328 2.049 12.194-4.22 26.377-8.612 42.469-12.769"/><path fill="#fff" d="M497 64.141c-130.548 0-216.272 36.223-241 48.174v.291c-25.122-11.214-117.854-48.465-241-48.465-8.284 0-15 6.716-15 15v358.482c0 8.284 6.716 15 15 15 134.198 0 232.915 47.742 234.348 48.444a15 15 0 0 0 6.651 1.556H256q.494 0 .987-.034c.106-.007.212-.021.318-.03q.335-.027.668-.069.188-.027.375-.059.302-.046.602-.105.2-.042.4-.089.285-.063.567-.139.205-.056.409-.119a15 15 0 0 0 1.891-.711q.257-.118.511-.247.2-.099.398-.204c.05-.027.101-.05.151-.078.867-.481 88.404-48.116 233.723-48.116 8.284 0 15-6.716 15-15V79.141c0-8.285-6.716-15-15-15M59.503 141.832a15 15 0 0 1 16.356-14.939c43.558 3.954 85.307 12.069 124.085 24.121a15 15 0 0 1 10.548 14.324v60a14.998 14.998 0 0 1-19.451 14.324c-36.768-11.427-76.433-19.129-117.894-22.893-7.727-.701-13.644-7.18-13.644-14.938zM209.817 409.79c-1.998 6.429-7.924 10.552-14.32 10.552-1.475 0-2.974-.219-4.456-.68-36.768-11.427-76.433-19.129-117.894-22.893-8.25-.749-14.332-8.044-13.583-16.294s8.05-14.335 16.294-13.583c43.558 3.954 85.307 12.069 124.085 24.121 7.913 2.46 12.333 10.866 9.874 18.777m0-60c-1.998 6.429-7.924 10.552-14.32 10.552-1.475 0-2.974-.219-4.456-.68-36.768-11.427-76.433-19.129-117.894-22.893-8.25-.749-14.332-8.044-13.583-16.294s8.05-14.333 16.294-13.583c43.558 3.954 85.307 12.069 124.085 24.121 7.913 2.46 12.333 10.866 9.874 18.777m0-60c-1.998 6.429-7.924 10.552-14.32 10.552-1.475 0-2.974-.219-4.456-.68-36.768-11.427-76.433-19.129-117.894-22.893-8.25-.749-14.332-8.044-13.583-16.294s8.05-14.339 16.294-13.583c43.558 3.954 85.307 12.069 124.085 24.121 7.913 2.46 12.333 10.866 9.874 18.777m228.536 106.981c-41.46 3.764-81.125 11.466-117.894 22.893-1.482.46-2.982.68-4.457.68-6.396 0-12.321-4.123-14.319-10.552-2.458-7.911 1.961-16.317 9.873-18.776 38.78-12.052 80.528-20.167 124.085-24.121 8.244-.749 15.546 5.332 16.294 13.583.75 8.248-5.331 15.544-13.582 16.293m0-60c-41.46 3.764-81.125 11.466-117.894 22.893-1.482.46-2.982.68-4.457.68-6.396 0-12.321-4.123-14.319-10.552-2.458-7.911 1.961-16.317 9.873-18.776 38.78-12.052 80.528-20.167 124.085-24.121 8.244-.753 15.546 5.332 16.294 13.583.75 8.248-5.331 15.544-13.582 16.293m0-60c-41.46 3.764-81.125 11.466-117.894 22.893-1.482.46-2.982.68-4.457.68-6.396 0-12.321-4.123-14.319-10.552-2.458-7.911 1.961-16.317 9.873-18.776 38.78-12.052 80.528-20.167 124.085-24.121 8.244-.749 15.546 5.332 16.294 13.583.75 8.248-5.331 15.544-13.582 16.293m0-60.001c-41.46 3.764-81.125 11.466-117.894 22.893-1.482.46-2.982.68-4.457.68-6.396 0-12.321-4.123-14.319-10.552-2.458-7.911 1.961-16.317 9.873-18.776 38.78-12.052 80.528-20.167 124.085-24.121 8.244-.754 15.546 5.331 16.294 13.583.75 8.249-5.331 15.544-13.582 16.293m0-60c-41.46 3.764-81.125 11.466-117.894 22.893-1.482.46-2.982.68-4.457.68-6.396 0-12.321-4.123-14.319-10.552-2.458-7.911 1.961-16.317 9.873-18.776 38.78-12.052 80.528-20.167 124.085-24.121 8.244-.75 15.546 5.332 16.294 13.583.75 8.249-5.331 15.544-13.582 16.293"/></svg>