<svg xmlns="http://www.w3.org/2000/svg" width="400" height="200" viewBox="-32.777 0.149 131.596 65.798"><path fill="#fff" d="M57.1 39.3c0 .1-.1.2-.3.2-.1 0-5.1-.6-9.1-4.9-4.7-5.1 1.8-7.8 2.3-11.7.3-2.1-1.2-4.1-2.8-5.1-1.7-1-3.7-1.5-5.5-1.8l-.1.3-2-.2c3.4 9.4-1.7 13.6-7.4 11.2l.4 12.5c2.1 2.8 8.7 12.7 5.3 22.3-1.3 3.5-6.5 1.5-5.2-1.9C34.9 54 30.9 47 28.8 44c0 5.8-1.1 12-3.3 19.2-1.1 3.5-6.4 1.8-5.3-1.7 2.5-8 3.5-14.6 3-20.7L19.7 24c-3.9-2-7-5.3-8.8-8.8-2.3-4.5-2.2-8-1.6-12.9.2-1.9 3.1-1.7 3.1.2-.6 9 3.7 14.4 9.6 16.5 6.3-.4 8.4-1.7 9.7.8.1.1 3 4.1 4.2 3.3.5-.2.8-1.6.9-1.8 0-.3.4-1.5-.4-4.9v-.1c-.1-.3 0-.5 0-.8l-1-.1c-1.4 1.5-3.8.3-3.4-1.7s3.1-2.2 3.8-.3l5.9 1.6v.3c1.9.4 4 .8 5.7 1.9 2.1 1.3 3.3 3.5 3.1 5.6-.5 4.1-6.7 6.6-2.4 11.3 4.6 5.2 9.2 4.4 9 5.2"/><path fill="#fff" d="M21.4 9.8c2.7-3.3 8.2-1.8 8.7 2.6.3 2.8-1.9 5.4-4.9 5.4-4.1 0-6.4-4.8-3.8-8"/></svg>