<svg xmlns="http://www.w3.org/2000/svg" width="400" height="200" viewBox="-6.564 124.718 525.129 262.565"><path fill="#fff" d="M501.333 128H10.667A10.66 10.66 0 0 0 0 138.667v234.667A10.66 10.66 0 0 0 10.667 384h490.667a10.66 10.66 0 0 0 10.667-10.667V138.667A10.66 10.66 0 0 0 501.333 128M64 362.667H21.333V149.333h21.333v117.333a10.66 10.66 0 0 0 10.667 10.667H64zm85.333 0h-64v-85.333H96a10.66 10.66 0 0 0 10.667-10.667V149.333H128v117.333a10.66 10.66 0 0 0 10.667 10.667h10.667v85.334zm106.667 0h-85.333v-85.333h10.667a10.66 10.66 0 0 0 10.667-10.667V149.333h42.667v117.333a10.66 10.66 0 0 0 10.667 10.667H256zm85.333 0h-64v-85.333H288a10.66 10.66 0 0 0 10.667-10.667V149.333H320v117.333a10.66 10.66 0 0 0 10.667 10.667h10.667zm85.334 0h-64v-85.333h10.667a10.66 10.66 0 0 0 10.667-10.667V149.333h21.333v117.333a10.66 10.66 0 0 0 10.667 10.667h10.667zm64 0H448v-85.333h10.667a10.66 10.66 0 0 0 10.667-10.667V149.333h21.333z"/></svg>