<svg xmlns="http://www.w3.org/2000/svg" width="400" height="200" viewBox="-0.364 127.816 512.731 256.365"><path fill="#fff" d="M487.593 253.757c-29.897-18.004-71.753-28.721-131.678-33.687-29.981-14.395-62.564-45.025-120.895-45.025h-42.444c-39.157 0-59.665 15.246-102.761 30.714H65.081c-19.833 0-35.974 16.141-35.974 36.007v44.633c0 11.991 9.77 21.761 21.761 21.761h8.397c-11.889-36.32 15.36-73.452 53.227-73.452 30.91 0 56.037 25.127 56.037 56.004 0 6.077-.98 11.959-2.777 17.448h190.034c-11.889-36.32 15.36-73.452 53.227-73.452 37.974 0 65.125 37.21 53.259 73.452h21.924c11.991 0 21.761-9.77 21.761-21.761-.001-13.331-7.026-25.846-18.364-32.642m-248.129-28.59c-21.892 0-39.634-17.742-39.634-39.667v-5.555h35.19c57.067 0 86.873 29.196 119.425 44.894 1.241.098 2.451.229 3.659.327h-118.64zM65.081 195.956h19.768l-16.01-19.18c-.915-1.111-2.287-1.732-3.758-1.732H10.94c-2.222 0-4.182 1.47-4.738 3.627a4.944 4.944 0 0 0 2.32 5.522l32.642 18.526a45.55 45.55 0 0 1 23.917-6.763"/><path fill="#fff" d="M409.011 244.51c-43.794 0-63.009 55.59-28.348 82.642h-87.59a4.902 4.902 0 0 0 0 9.802h115.93c.06 0 .115-.015.174-.018 25.41-.091 46.068-20.763 46.068-46.226 0-25.451-20.748-46.2-46.234-46.2M409 307.552c-9.257 0-16.787-7.55-16.787-16.829 0-9.257 7.53-16.79 16.787-16.79 9.279 0 16.829 7.534 16.829 16.79-.001 9.279-7.55 16.829-16.829 16.829"/><path fill="#fff" d="M409 283.735c-3.851 0-6.985 3.133-6.985 6.988 0 3.874 3.133 7.026 6.985 7.026 3.874 0 7.026-3.153 7.026-7.026 0-3.855-3.153-6.988-7.026-6.988m-296.517 0c-3.851 0-6.985 3.133-6.985 6.988 0 3.874 3.133 7.026 6.985 7.026 3.874 0 7.026-3.153 7.026-7.026.001-3.855-3.152-6.988-7.026-6.988"/><path fill="#fff" d="M112.491 244.51c-43.794 0-63.009 55.59-28.348 82.642H34.004a4.902 4.902 0 0 0 0 9.802h78.482c.061 0 .117-.016.177-.018 25.406-.094 46.062-20.765 46.062-46.225.001-25.452-20.748-46.201-46.234-46.201m-.008 63.042c-9.257 0-16.787-7.55-16.787-16.829 0-9.257 7.53-16.79 16.787-16.79 9.279 0 16.829 7.534 16.829 16.79 0 9.279-7.55 16.829-16.829 16.829"/></svg>