<svg xmlns="http://www.w3.org/2000/svg" width="400" height="200" viewBox="-38.450 108.781 588.923 294.462"><path fill="#fff" d="M444.552 399.562v-31.088c0-103.961-84.579-188.54-188.54-188.54s-188.54 84.579-188.54 188.54v31.088h37.472v-31.088c0-83.299 67.769-151.068 151.068-151.068S407.08 285.175 407.08 368.474v31.088z"/><path fill="#fff" d="M256.013 112.462c-68.383 0-132.674 26.63-181.028 74.984C26.63 235.801 0 300.091 0 368.474v31.088h37.472v-31.088c0-120.503 98.037-218.54 218.54-218.54s218.54 98.037 218.54 218.54v31.088h37.472v-31.088c0-68.383-26.63-132.673-74.984-181.028s-112.644-74.984-181.027-74.984"/><path fill="#fff" d="M377.081 399.562v-31.088c0-66.757-54.312-121.068-121.068-121.068-66.757 0-121.068 54.311-121.068 121.068v31.088h37.472v-31.088c0-46.095 37.501-83.596 83.596-83.596s83.597 37.501 83.597 83.596v31.088z"/></svg>