<svg xmlns="http://www.w3.org/2000/svg" width="400" height="200" viewBox="-0.821 15.590 65.641 32.821"><path fill="#fff" d="m17.377 28.096-14.564.91A3.005 3.005 0 0 0 0 32v9c0 1.033.521 1.979 1.392 2.532a2.99 2.99 0 0 0 2.895.178L20.229 36H23c.961 0 1.871-.466 2.434-1.246s.717-1.791.413-2.703c-.121-.364-.271-1.254.04-1.685.175-.242.55-.366 1.113-.366h2v3a1 1 0 0 0 1 1h4a1 1 0 0 0 1-1v-3h5a1 1 0 1 0 2 0h3c1.654 0 3-1.346 3-3v-3H23c-2.102 0-4.667 2.912-5.623 4.096M31 30h2v2h-2zm32-6v-1a1 1 0 1 0-2 0v1h-2v-1a1 1 0 1 0-2 0v1h-7v2h13a1 1 0 1 0 0-2m-20-3a1 1 0 0 0-1-1H28c-.379 0-.725.214-.895.553L26.382 22H43z"/></svg>