<svg xmlns="http://www.w3.org/2000/svg" width="400" height="200" data-name="Layer 1" viewBox="-15.490 8.264 94.980 47.490"><path fill="#fff" d="M23.67 48.21c6.85 3.52 13.8 5.89 19.56 6.68 1.34.18 2.59.27 3.73.27 4.06 0 6.83-1.13 7.95-3.31 0-.01 0-.02.01-.03l6.55-12.76c3.16-6.15-8.26-16.66-21.14-23.28C27.46 9.17 12.26 6.01 9.1 12.15L2.54 24.92c0 .01-.01.01-.01.02-3.16 6.14 8.27 16.66 21.14 23.27m9.18-17.87c5.31 2.73 10.04 5.9 13.67 9.12-4.74-1.09-10.07-3.08-15.37-5.81-5.61-2.88-10.22-6.06-13.64-9.11 4.72 1.08 10.04 3.08 15.34 5.8M4.3 25.87c0-.01.01-.01.01-.02l4.68-9.1c.71 2.09 2.3 4.38 4.5 6.69.08.13.19.26.33.34 4.07 4.17 10.06 8.39 16.42 11.65 6.85 3.52 13.8 5.89 19.55 6.68 1.34.18 2.58.27 3.73.27 1.66 0 3.09-.2 4.29-.58l-4.68 9.13c-.01.01-.01.02-.01.02-1.01 1.94-4.52 2.65-9.62 1.96-5.54-.76-12.26-3.06-18.92-6.48C10.22 39.05 2.38 29.69 4.3 25.87"/></svg>