<svg xmlns="http://www.w3.org/2000/svg" width="400" height="200" fill-rule="evenodd" clip-rule="evenodd" image-rendering="optimizeQuality" shape-rendering="geometricPrecision" text-rendering="geometricPrecision" viewBox="-22.684 -0.505 88.717 44.359"><path fill="#fff" d="m14.062 25.984-.794-.801-6.285 3.628 1.426 1.426zm1.348 1.36-.807-.814-5.65 4.251 1.51 1.51zm1.344 1.356-.806-.814-4.945 4.945 1.508 1.508zm-2.304 7.578 3.639-6.232-.793-.8-4.241 5.637zM33.699 5.327l4.346 4.346c-.957 1.195-1.898 2.265-2.684 3.047L18.566 29.447l-1.023-1.032-.032-.032-1.27-1.28a.4.4 0 0 0-.047-.049l-1.269-1.28-.031-.032-1.026-1.034L30.67 7.974c.78-.776 1.841-1.704 3.029-2.647m4.822 3.743-4.217-4.217c1.45-1.118 3.036-2.226 4.498-3.098C40.872.522 42.636-.242 43.245.156c.396.614-.378 2.381-1.624 4.45-.874 1.452-1.982 3.025-3.1 4.464M.28 41.665a.954.954 0 0 0 1.349 1.35l7.546-7.547a.954.954 0 0 0-1.35-1.35zm.002-5.707a.954.954 0 0 0 1.35 1.35l3.878-3.88a.954.954 0 1 0-1.349-1.349zm5.696 5.712a.954.954 0 0 0 1.35 1.35l3.878-3.879a.954.954 0 0 0-1.35-1.35z"/></svg>