<svg xmlns="http://www.w3.org/2000/svg" width="400" height="200" viewBox="-25.421 3.293 114.843 57.421"><path fill="#fff" d="M9.626 47.47a17.46 17.46 0 0 1 13.568.64.98.98 0 0 0 .81.02.96.96 0 0 0 .56-.59 49.5 49.5 0 0 0 2.51-10.479 52.06 52.06 0 0 0-3.9-26.736 1.006 1.006 0 0 0-1.92.37A58.3 58.3 0 0 1 8.506 45.91a1.004 1.004 0 0 0 1.12 1.56m48.973 2.58a1 1 0 0 0-.8-.35L6.126 51.738a1.01 1.01 0 0 0-.82.49 1 1 0 0 0-.04.96l3.13 6.259a1 1 0 0 0 .9.55H48.12a11.45 11.45 0 0 0 6.26-2.13 11.6 11.6 0 0 0 4.439-6.969 1.01 1.01 0 0 0-.22-.85"/><path fill="#fff" d="M29.133 20.284a47.1 47.1 0 0 1-1.47 26.876 1.009 1.009 0 0 0 1.4 1.22 37 37 0 0 1 15.698-4 36.5 36.5 0 0 1 10.338 1.18 1.01 1.01 0 0 0 1.25-1.07C54.629 25.07 39.807 9.046 23.703 4.056a1.006 1.006 0 0 0-1.14 1.51 45.8 45.8 0 0 1 6.57 14.718"/></svg>