<svg xmlns="http://www.w3.org/2000/svg" width="400" height="200" viewBox="-162.539 46.730 837.079 418.539"><path fill="#fff" d="m438.782 372.488-86.797 65.094H437c8.291 0 15-6.709 15-15 0-17.851-4.872-34.834-13.218-50.094m-363.562 0C66.872 387.748 62 404.731 62 422.582c0 8.291 6.709 15 15 15h85.01zm392.63-191.254-8.943-4.471-89.568 134.359c-4.521 6.793-13.786 8.811-20.801 4.16-6.899-4.6-8.76-13.901-4.16-20.801l80.142-120.22c.029-.059.073-.103.103-.161l18.452-27.673c-5.658-11.107-13.66-21.013-24.238-28.636-15.018-10.833-32.62-15.412-50.429-14.355L316.37 276.889c-2.344 7.824-10.605 12.453-18.677 10.063-7.939-2.388-12.437-10.752-10.063-18.677l53.765-179.216C319.932 65.805 289.831 51.962 257 51.962s-62.933 13.843-84.395 37.097l53.765 179.216c2.373 7.925-2.124 16.289-10.063 18.677-8.079 2.391-16.335-2.247-18.677-10.063l-52.035-173.447c-17.82-1.057-35.42 3.525-50.431 14.35-10.66 7.681-18.506 17.726-24.012 28.976l98.47 147.713c4.6 6.899 2.739 16.201-4.16 20.801-7.018 4.653-16.28 2.631-20.801-4.16l-89.57-134.359-8.941 4.471C18.919 194.857 0 222.221 0 252.675v19.907c0 4.717 2.227 9.17 6.006 11.997l223.982 166.494c7.954 5.977 17.49 8.965 27.012 8.965 9.536 0 19.058-2.988 26.997-8.965l222.997-166.494c3.779-2.827 5.006-7.28 5.006-11.997v-19.907c0-30.454-16.919-57.818-44.15-71.441"/></svg>