<svg xmlns="http://www.w3.org/2000/svg" width="400" height="200" viewBox="-22.736 4.608 109.500 54.750"><path fill="#fff" d="M42.044 42.668c-.055-.065-9.235-9.218-9.27-9.281-1.109 2.924-2.532 7.908-1.958 13.23.04.194-.328.22-.353.003V26.528h.834v.376c.021 1.314 1.978 1.315 2 0v-2.752c-.022-1.314-1.979-1.315-2 0v.376h-.833v-3.752h.833v.376c.021 1.313 1.978 1.315 2 0V18.4c-.022-1.314-1.979-1.315-2 0v.376h-.833v-3.753h.833v.376c.021 1.314 1.978 1.315 2 0v-2.752c-.022-1.313-1.979-1.315-2 0v.376h-.833v-2.182c-.098-6.717-11.31-8.18-11.697.36h-1.454c-1.312.028-1.318 1.975 0 2 1.334-.005 4.118.005 5.464 0a1 1 0 0 0 .964-.732l.475-1.712c.096-.377.69-.28.65.114.006.26-3.116 38.421-3.086 38.638.2 3.226 2.719 9.35 9.415 9.16 1.102 0 5.709-.267 8.3-4.57.374-.461 1.802-2.497 1.316-6.108-.257-1.9.627-3.63 1.714-4.928-.165-.125-.332-.247-.48-.395m-6.868-2.803c-.01.041-.95 4.155-.242 7.138.283 1.28-1.619 1.74-1.946.463-.82-3.447.197-7.87.241-8.056.318-1.271 2.224-.832 1.947.455"/><path fill="#fff" d="m46.963 37.75-9.228-9.229c-.936-.937-2.568-.936-3.504 0a2.48 2.48 0 0 0 0 3.505l9.228 9.228c2.367 2.248 5.754-1.132 3.504-3.504"/></svg>