<svg xmlns="http://www.w3.org/2000/svg" width="400" height="200" fill-rule="evenodd" clip-rule="evenodd" image-rendering="optimizeQuality" shape-rendering="geometricPrecision" text-rendering="geometricPrecision" viewBox="0.249 1.831 6.328 3.164"><path fill="#fff" d="M2.928 2.962c-.317.374-1.628.659-1.684.67a.07.07 0 0 1-.082-.05 1.47 1.47 0 0 0-.627-.855c.129.344.349 1.08.102 1.587a.95.95 0 0 0 .53-.458.07.07 0 0 1 .102-.026c.196.134 1.055.405 1.482.53a.07.07 0 0 1 .05.067c0 .043 0 .13-.611.529.532-.093 1.038-.405 1.043-.409a.07.07 0 0 1 .043-.01c1.32.111 1.987-.11 2.316-.325l-.086-.108a.107.107 0 0 1 .075-.174c.133-.01.249-.04.375-.095a.73.73 0 0 0 .336-.27c-.812-.634-2.6-.659-2.618-.659a.07.07 0 0 1-.067-.051c-.12-.437-.383-.793-.548-.984.01.402-.11 1.028-.116 1.059a.1.1 0 0 1-.015.032m-.268.585a.07.07 0 0 1-.036-.13c.024-.015.577-.336 1.088-.256a.07.07 0 0 1-.022.139c-.462-.073-.989.234-.994.237a.1.1 0 0 1-.036.01m2.278.368a.07.07 0 0 1-.062-.037.56.56 0 0 1 0-.497.07.07 0 0 1 .124.066.41.41 0 0 0 0 .364.07.07 0 0 1-.062.104m.354.053a.07.07 0 0 1-.062-.037c-.16-.298-.007-.591 0-.604a.07.07 0 0 1 .124.067.54.54 0 0 0 0 .47.07.07 0 0 1-.062.104"/></svg>