<svg xmlns="http://www.w3.org/2000/svg" width="400" height="200" viewBox="-201.130 -5.714 914.260 457.130"><path fill="#fff" d="M497 207.848h-24.816l4.394-4.395c5.86-5.86 5.86-15.351 0-21.21-5.86-5.86-15.351-5.86-21.21 0l-25.606 25.605h-32.578l34.394-34.395c5.86-5.86 5.86-15.351 0-21.21-5.86-5.86-15.351-5.86-21.21 0l-55.606 55.605h-21.07l24.425-27.555c4.29-4.82 4.992-11.852 1.77-17.445-3.235-5.582-9.696-8.512-15.996-7.192l-36.063 7.375 10.531-18.246 75.954-20.347c7.996-2.141 12.742-10.372 10.605-18.372-2.125-8.011-10.371-12.757-18.371-10.601l-46.977 12.582 16.29-28.211 34.964-9.363c8-2.137 12.746-10.371 10.606-18.368-2.14-8-10.297-12.73-18.368-10.605l-5.996 1.602L388.965 22.5c4.144-7.176 1.683-16.348-5.492-20.492C376.309-2.125 367.12.324 362.977 7.5l-11.895 20.605-1.61-6c-2.152-8.011-10.386-12.757-18.367-10.605-8 2.14-12.761 10.371-10.605 18.371l9.375 34.965-16.29 28.215-12.597-46.98c-2.14-7.997-10.355-12.716-18.37-10.606-7.997 2.14-12.759 10.37-10.606 18.37l20.363 75.954-10.54 18.254-11.64-34.941a14.98 14.98 0 0 0-14.222-10.254 14.99 14.99 0 0 0-14.227 10.254l-11.648 34.945-10.532-18.246 20.352-75.965c2.137-7.996-2.61-16.23-10.606-18.367-7.953-2.098-16.214 2.62-18.37 10.605L198.354 93.06l-16.289-28.215 9.364-34.973c2.14-7.996-2.606-16.23-10.606-18.367-7.922-2.125-16.226 2.605-18.367 10.601l-1.605 5.993-11.887-20.594c-4.16-7.18-13.344-9.625-20.492-5.496-7.176 4.148-9.637 13.316-5.493 20.496l11.895 20.605-6.008-1.609c-7.922-2.11-16.226 2.625-18.367 10.605-2.14 8.016 2.605 16.23 10.605 18.372l34.973 9.359 16.285 28.215-46.98-12.586c-7.942-2.137-16.23 2.61-18.371 10.605-2.137 7.996 2.61 16.23 10.605 18.368l75.953 20.347 10.535 18.246-36.066-7.375c-6.328-1.273-12.762 1.61-15.996 7.192-3.223 5.593-2.52 12.625 1.77 17.445l24.425 27.555h-21.054l-55.606-55.606c-5.86-5.86-15.351-5.86-21.21 0-5.86 5.86-5.86 15.352 0 21.211l34.394 34.395H82.184l-25.606-25.606c-5.86-5.86-15.351-5.86-21.21 0-5.86 5.86-5.86 15.352 0 21.211l4.394 4.395H15c-8.285 0-15 6.714-15 15s6.715 15 15 15h24.762l-4.399 4.398c-5.855 5.856-5.855 15.352 0 21.211 5.86 5.856 15.356 5.856 21.211 0l25.606-25.605h32.578l-34.395 34.394c-5.86 5.86-5.86 15.352 0 21.211s15.352 5.86 21.211 0l55.606-55.605h21.054l-24.422 27.554c-4.292 4.817-4.996 11.852-1.773 17.446 3.238 5.582 9.727 8.539 15.996 7.191l36.067-7.375-10.536 18.246-75.953 20.344c-7.996 2.14-12.742 10.37-10.601 18.37 2.136 8.028 10.398 12.833 18.367 10.606l46.984-12.586-16.289 28.211-34.972 9.364c-7.997 2.14-12.743 10.355-10.606 18.37 2.14 7.997 10.43 12.802 18.371 10.606l6.004-1.61-11.894 20.606c-4.145 7.18-1.684 16.348 5.492 20.492 7.11 4.106 16.308 1.735 20.496-5.492l11.887-20.593 1.601 5.988c2.156 8.082 10.477 12.734 18.371 10.605 7.996-2.136 12.742-10.37 10.606-18.367l-9.368-34.973 16.29-28.214 12.59 46.984c2.148 8.066 10.445 12.742 18.367 10.605 8-2.136 12.746-10.37 10.605-18.367l-20.352-75.965 10.532-18.246 11.652 34.942c2.035 6.125 7.762 10.254 14.223 10.254s12.187-4.13 14.222-10.254l11.641-34.938 10.54 18.254-20.36 75.953c-2.157 7.996 2.605 16.23 10.601 18.367 7.918 2.137 16.203-2.53 18.371-10.601l12.598-46.984 16.29 28.214-9.376 34.97c-2.152 8 2.606 16.23 10.606 18.37 7.918 2.133 16.199-2.531 18.367-10.605l1.61-6 11.898 20.605c4.148 7.184 13.34 9.625 20.492 5.492 7.176-4.144 9.636-13.316 5.492-20.492l-11.895-20.605 5.993 1.605c8.086 2.211 16.23-2.605 18.367-10.605 2.14-7.996-2.606-16.23-10.606-18.367l-34.965-9.368-16.289-28.21 46.98 12.585c8.013 2.243 16.243-2.593 18.368-10.605 2.14-7.996-2.605-16.23-10.605-18.367l-75.954-20.348-10.53-18.246 36.066 7.375c6.254 1.305 12.757-1.61 15.996-7.191 3.222-5.594 2.52-12.625-1.774-17.446l-24.426-27.554h21.07l55.606 55.605c5.86 5.86 15.352 5.86 21.211 0s5.86-15.352 0-21.21l-34.394-34.395h32.578l25.605 25.605c5.86 5.86 15.352 5.86 21.211 0s5.86-15.352 0-21.21l-4.394-4.395H497c8.285 0 15-6.72 15-15 0-8.29-6.715-15.004-15-15.004m0 0"/></svg>