<svg xmlns="http://www.w3.org/2000/svg" width="400" height="200" data-name="Layer 1" viewBox="-252.718 1.641 1017.435 508.718"><path fill="#fff" d="m320.024 150.98 41.269 41.269-10.514 10.522-41.273-41.273zM15.083 464.19c-9.079 9.1-9.084 23.904 0 32.988 9.094 9.095 23.894 9.096 32.989 0l281.586-281.586-32.974-32.973zm321.913-330.181 41.263 41.262 10.498-10.506-41.258-41.259-10.502 10.502zm26.328-28.619 13.288 13.288L424.02 71.27c4.686-4.686 12.284-4.686 16.971 0 4.687 4.687 4.687 12.285 0 16.971l-47.408 47.408 12.752 12.752 58.111-4.258L503.728 8 367.581 47.309z"/></svg>