<svg xmlns="http://www.w3.org/2000/svg" width="400" height="200" viewBox="-47.126 1.437 194.251 97.125"><path fill="#fff" d="M3.567 94.288c-1.423-2.148-1.423-5.37 0-7.545 1.101-1.772 2.873-2.497 5.048-2.873.35 0 .698 0 .698-.349 1.8-2.524 3.974-5.397 6.847-7.894 3.222-3.249 6.444-5.746 9.317-7.545.376-.35.376-.725 0-.725l-8.243-8.27c-1.799-1.772-1.799-4.645 0-6.444 1.8-1.799 4.672-1.799 6.444 0l6.471 6.444c.376.376.725.376 1.074 0l40.222-46.666s.376-.376.725-.376l23.36-9.317c1.074-.376 2.497.698 1.772 1.772l-9.317 23.36c0 .35-.376.35-.376.725L40.916 68.807c-.349.349-.349.698 0 1.074l6.471 6.47c1.8 1.773 1.8 4.646 0 6.445a4.6 4.6 0 0 1-3.249 1.343c-1.154 0-2.309-.457-3.222-1.343l-8.243-8.243c-.376-.376-.725-.376-.725 0-1.799 2.873-4.296 6.095-7.545 9.317-2.873 2.873-5.37 5.048-7.894 6.847-.349 0-.349.349-.349.698 0 1.45-.725 2.873-1.799 4.323-3.598 2.497-8.619 2.148-10.794-1.45"/></svg>