<svg xmlns="http://www.w3.org/2000/svg" width="400" height="200" viewBox="-10.709 2.646 53.418 26.709"><path fill="#fff" d="M30.93 2.98H1.07C.48 2.98 0 3.46 0 4.05v19.42c0 .59.48 1.06 1.07 1.06h8.6l-1.4 2.97c-.25.53-.02 1.17.51 1.42.54.25 1.17.02 1.42-.51l1.83-3.88h7.94l1.82 3.88c.19.38.57.61.97.61a1.067 1.067 0 0 0 .97-1.52l-1.4-2.97h8.6c.59 0 1.07-.47 1.07-1.06V4.05c0-.59-.48-1.07-1.07-1.07m-3.37 18.18h-2.94c-.58 0-1.06-.48-1.06-1.07s.48-1.06 1.06-1.06h2.94c.59 0 1.07.47 1.07 1.06s-.48 1.07-1.07 1.07"/></svg>