<svg xmlns="http://www.w3.org/2000/svg" width="400" height="200" viewBox="-13.128 9.436 90.256 45.128"><path fill="#fff" d="M42 10H22A20.023 20.023 0 0 0 2 30v4a20.023 20.023 0 0 0 20 20h20a20.023 20.023 0 0 0 20-20v-4a20.023 20.023 0 0 0-20-20m-12 6h11a15.017 15.017 0 0 1 15 15v2a15.017 15.017 0 0 1-15 15H23A15.017 15.017 0 0 1 8 33v-2a15.017 15.017 0 0 1 15-15h1v2h-1a13.015 13.015 0 0 0-13 13v2a13.015 13.015 0 0 0 13 13h18a13.015 13.015 0 0 0 13-13v-2a13.015 13.015 0 0 0-13-13H30Zm0 4h11a11.013 11.013 0 0 1 11 11v2a11.013 11.013 0 0 1-11 11H23a11.013 11.013 0 0 1-11-11v-2a11.013 11.013 0 0 1 11-11h1v2a10 10 0 0 0 0 20h16a10 10 0 0 0 0-20H30Zm-4-8h2v2h-2Zm0 4h2v2h-2Zm0 4h2v2h-2Zm14 4a8 8 0 0 1 0 16H24a8 8 0 0 1 0-16Zm20 10a18.02 18.02 0 0 1-18 18H22A18.02 18.02 0 0 1 4 34v-4a18.02 18.02 0 0 1 18-18h2v2h-1A17.02 17.02 0 0 0 6 31v2a17.02 17.02 0 0 0 17 17h18a17.02 17.02 0 0 0 17-17v-2a17.02 17.02 0 0 0-17-17H30v-2h12a18.02 18.02 0 0 1 18 18Z"/></svg>