<svg xmlns="http://www.w3.org/2000/svg" width="400" height="200" viewBox="-246.001 -6.000 960.002 480.001"><circle cx="37.199" cy="256.19" r="20.501" fill="#fff"/><path fill="#fff" d="m233.396 100.391 165.871-14.908c13.59-1.221 25.557 8.9 26.608 22.505l.111 1.434c1.02 13.215-8.658 24.843-21.839 26.238l-101.261 10.715 56.41 103.952a41 41 0 0 1 4.957 20.348l-1.103 57.136 81.823 90.435c8.447 9.336 8.438 23.556-.021 32.882-9.174 10.114-24.847 10.771-34.835 1.461l-84.906-79.142a41 41 0 0 1-11.831-20.089l-21.678-87.089-40.845 84.983 23.807 85.254c3.292 11.79-2.627 24.2-13.861 29.061l-.949.41c-13.495 5.839-29.057-1.447-33.214-15.551l-28.848-97.878a41 41 0 0 1 1.334-27.004l37.315-91.996-18.178-39.991-28.764 34.682a41 41 0 0 1-35.979 14.589l-53.687-5.819c-13.677-1.482-23.449-13.937-21.636-27.573l.104-.782c1.797-13.513 14.283-22.958 27.775-21.009l40.929 5.912 41.016-65.348c9.838-15.768 26.864-26.207 45.375-27.818"/><path fill="#fff" d="m91.65 177.39.628 1.261c8.482-2.971 20.192-.38 28.834.84l-9.153-13.827c-4.419-6.676-4.724-15.242-.862-22.255 8.015-14.553 8.046-33.772-1.508-50.318-13.96-24.181-43.098-33.495-65.081-20.803s-28.485 42.582-14.525 66.763c9.553 16.547 26.213 26.129 42.823 26.465 8.006.162 15.272 4.709 18.844 11.874"/><circle cx="175.844" cy="49.444" r="49.444" fill="#fff"/></svg>