<svg xmlns="http://www.w3.org/2000/svg" width="400" height="200" viewBox="-15.022 0.489 62.043 31.022"><path fill="#fff" d="M7.247 23.586h17.507a2.38 2.38 0 0 0 2.38-2.379V6.828a5.95 5.95 0 0 0-5.95-5.951H10.816a5.95 5.95 0 0 0-5.949 5.951v14.379a2.38 2.38 0 0 0 2.38 2.379m15.199-3.272a1.588 1.588 0 1 1 .002-3.176 1.588 1.588 0 0 1-.002 3.176m1.586-13.289v6.545H17.25V7.025zm-16.064 0h6.781v6.545H7.968zm1.587 10.116a1.587 1.587 0 1 1-.001 3.173 1.587 1.587 0 0 1 .001-3.173m15.699 13.982h2.991l-4.395-5.752h-2.992l1.194 1.563H9.947l1.194-1.563H8.15l-4.395 5.752h2.99L8.291 29.1h15.418z"/></svg>