<svg xmlns="http://www.w3.org/2000/svg" width="400" height="200" viewBox="-268.970 -6.485 1049.939 524.970"><path fill="#fff" d="M410.832 86.797c-13.048 0-23.663 10.639-23.663 23.717V401.64c1.194 31.473 46.23 31.36 47.416 0V110.514c0-13.077-10.655-23.717-23.753-23.717m-154.832 0c-13.098 0-23.753 10.639-23.753 23.717V401.64c1.197 31.429 46.321 31.404 47.507 0V110.514c0-13.077-10.656-23.717-23.754-23.717m77.415 86.72c-13.047 0-23.661 10.639-23.661 23.717v117.687c1.194 31.475 46.229 31.358 47.415 0V197.234c0-13.078-10.656-23.717-23.754-23.717m154.832 43.361c-13.047 0-23.662 10.639-23.662 23.717v30.966c1.194 31.474 46.229 31.359 47.415 0v-30.966c0-13.078-10.655-23.717-23.753-23.717m-464.493 0C10.656 216.878 0 227.517 0 240.594v30.966c1.198 31.382 46.233 31.451 47.415 0v-30.966c0-13.077-10.614-23.716-23.661-23.716m77.415-86.721c-13.098 0-23.754 10.639-23.754 23.717V358.28c1.198 31.384 46.234 31.45 47.417 0V153.874c0-13.078-10.615-23.717-23.663-23.717M178.585.077c-13.098 0-23.753 10.639-23.753 23.717V488.36c1.197 31.383 46.232 31.45 47.415 0V23.794c0-13.078-10.615-23.717-23.662-23.717"/></svg>