<svg xmlns="http://www.w3.org/2000/svg" width="400" height="200" viewBox="-193.690 2.634 785.293 392.647"><path fill="#fff" d="M151.834 237.421a6.5 6.5 0 0 0 5.321 3.344l39.243 2.219q.185.01.368.01a6.5 6.5 0 0 0 5.503-3.042l23.032-36.649a6.5 6.5 0 0 0 .22-6.539l-18.257-33.926a6.5 6.5 0 0 0-3.996-3.186l-38.049-10.489a6.5 6.5 0 0 0-7.392 3.077l-25.012 44.415a6.5 6.5 0 0 0-.024 6.335zm-2.331-31.077 26.355-.001 12.828 23.183-27.213-1.539zm62.777-6.753-13.454 21.408-11.691-21.128 12.937-22.966zm-45.617-36.545 22.761 6.275-13.533 24.023-26.291.001z"/><path fill="#fff" d="m397.83 198.807-9.929-61.392a6.5 6.5 0 0 0-1.152-2.775l-68.19-94.161a6.5 6.5 0 0 0-2.346-1.995l-60.186-30.25a6.5 6.5 0 0 0-3.229-.685L124.093 13.71a6.5 6.5 0 0 0-3.334 1.11L54.392 59.757a6.5 6.5 0 0 0-2.146 2.431L.709 163.312a6.5 6.5 0 0 0-.706 3.146l2.344 78.534a6.5 6.5 0 0 0 1.025 3.315l69.069 107.695a6.5 6.5 0 0 0 2.393 2.215l58.346 31.38a6.5 6.5 0 0 0 3.079.775H266.73a6.5 6.5 0 0 0 4.123-1.475l90.793-74.497a6.5 6.5 0 0 0 2.087-3.104l33.89-109.532a6.5 6.5 0 0 0 .207-2.957m-42.092-5.463-7.834-48.394 28.047.003 7.826 48.392zm13.013-61.393-25.165-.002-58.767-81.16 25.156.002zm-82.867-94.162-12.255-.001-33.105-16.638 11.191-.536zM82.476 347.566 15.287 242.804l-2.24-75.071 50.021-98.15 63.469-42.976 87.554-4.191 53.661 26.968 66.346 91.626 9.448 58.367-32.868 106.211-87.487 71.783h-85.297zm181.929 29.807h-20.721l74.952-61.498h20.719zm88.325-74.497-27.605-.001 29.873-96.532 27.6.001z"/></svg>