<svg xmlns="http://www.w3.org/2000/svg" width="400" height="200" viewBox="-269.129 -6.564 1050.258 525.129"><path fill="#fff" d="m311.211 178.149 6.762-11.999a11.9 11.9 0 0 0 1.531-5.835V131.41c0-3.93 1.943-7.606 5.19-9.82l30.293-20.654a11.9 11.9 0 0 1 4.307-1.823l21.364-4.382a11.885 11.885 0 0 0 9.497-11.643V60.077c0-5.325-3.542-10-8.667-11.441l-9.133-2.569a11.886 11.886 0 0 0-13.839 6.107 11.89 11.89 0 0 1-10.618 6.551l-22.006.005c-8.817.002-14.566-9.26-10.653-17.161l4.774-9.639c2.981-6.018.387-13.31-5.726-16.092L281.844 1.069A11.9 11.9 0 0 0 276.918 0h-46.582a11.9 11.9 0 0 0-5.244 1.219l-37.796 18.583a11.9 11.9 0 0 0-3.908 3.083l-22.031 26.591a11.9 11.9 0 0 0-2.733 7.583v40.092c0 2.154-.585 4.268-1.694 6.115l-13.539 22.565c-19.132 33.269 12.327 50.117.665 81.637-12.803 34.44-11.124 27.178-8.272 63.735a44.1 44.1 0 0 1-2.06 17.279l-9.679 29.499a44.13 44.13 0 0 0 1.902 32.341l13.979 30.117a11.9 11.9 0 0 1 .842 7.489l-11.639 54.435a11.89 11.89 0 0 0 2.202 9.732l13.406 17.428q.267.347.558.673l31.916 37.839a11.9 11.9 0 0 0 8.862 3.966h29.312c4.362 0 8.373-2.389 10.451-6.225l3.955-7.301a11.89 11.89 0 0 0-1.143-13.052l-17.525-24.192a12 12 0 0 0-1.255-1.351l-12.278-11.31c-4.661-4.293-5.134-11.488-1.075-16.355l11.54-13.836a11.9 11.9 0 0 0 2.735-6.872l1.074-17.191a11.88 11.88 0 0 0-4.437-10.022l-6.349-5.079c-6.738-5.39-5.667-15.937 2.016-19.864l17.545-8.967a11.88 11.88 0 0 0 5.896-6.916l7.586-23.39c.725-2.234.771-4.633.133-6.893l-2.737-9.703c-2.497-8.853 5.577-17.065 14.471-14.718l2.323.613a11.89 11.89 0 0 0 10.818-2.511l16.119-13.974a11.9 11.9 0 0 1 5.866-2.749l35.09-5.742a11.88 11.88 0 0 0 9.804-9.775l6.094-36.565a11.88 11.88 0 0 0-3.405-10.442l-15.454-15.146a11.89 11.89 0 0 1-2.032-14.324"/></svg>