<svg xmlns="http://www.w3.org/2000/svg" width="400" height="200" viewBox="-1383.436 58.028 5766.667 2883.334"><path fill="#fff" fill-rule="evenodd" d="M430.25 680.701c-20.9-38.438-210.625-312.814-150.699-304.879 180.235 5.151 125.014.575 234.065-45.158 231.823-82.325 108.629-92.811 296.877-169.226 69.131-30.296 141.774-43.812 204.166-47.156 74.718-19.955 138.083-47.004 148.673 40.462-.118 62.582-41.598 113.908-27.993 176.987 15.933 157.665 41.784 232.19 179.17 350.8 52.033 39.852 103.948 21.33 157.613 25.288 29.678 1.123 58.81 13.875 83.172 32.027 140.605 111.746 170.43 27.72 292.73 146.976 136.968 93.57 228.963-33.16 325.07 171.642 21.915 46.714 61.627 146.286 28.687 159.784-66.011 35.815-71.594 18.737-27.27 116.526 13.049 26.361 19.202 42.548 19.893 72.09 9.983 147.98 288.225 61.629 328.021 95.422 52.757 45.994 23.557 144.586 64.778 198.512 29.771 41.85 82.069 63.72 117.088 102.58 74 77.277-26.977 149.302-2.421 232.472 2.753 17.777 5.153 34.7 1.18 51.442-12.276 47.235-71.853 71.203-70.022 114.673 2.286 37.184 33.959 74.457 25.357 109.265-15.138 37.492-134.259-104.303-162.39-97.875-130.149-44.357-403.164-70.983-546.021-28.12-66.385 18.608-115.79 66.798-149.05 137.076-69.952 137.31-69.75 412.549-128.387 422.83-28.814 1.67-71.55-64.296-100.712-85.74-10.927-10.496-23.353-6.082-46.086 2.179-102.15 37.9-187.896 188.12-210.147 174.598-74.176-131.455-123.84-63.247-205.956-112.624-45.054-28.51-104.807-93.066-143.631-91.032-7.757 3.404-21.994 24.003-35.6 43.74-10.596 15.453-20.351 29.922-25.84 35.162-83.496 72.134-126.384 205.47-257.921 193.09-57.353 1.316 14.731-44.15.646-112.311-26.987-64.069-75.33-93.899-75.583-158.101-4.333-168.193-36.294-154.288-120.42-263.776-8.235-11.55-8.326-12.642-8.694-21.573-.589-44.432 49.128-164.208 58.28-214.82 12.972-75.16-77.823-81.238-96.805-141.196-11.572-31.187-10.87-67.86-24.837-97.304-40.503-73.891-153.963-167.757-85.475-261.581 34.7-45.389 102.35-70.76 132.48-105.51 17.928-16.073 18.61-53.57 11.841-87.929-30.07-135.25-200.162-197.155-113.629-288.676 84.245-96.505 71.024-45.355 43.795-209.928-5.067-38.837 44.844-218.99 62.007-261.108" clip-rule="evenodd"/></svg>