<svg xmlns="http://www.w3.org/2000/svg" width="400" height="200" viewBox="-269.127 -6.564 1050.255 525.128"><path fill="#fff" d="M272.066 512c-3.979 0-7.794-1.58-10.606-4.394l-48.2-48.2c-5.857-5.857-5.857-15.355 0-21.213l22.003-22.003c7.381-7.381 6.481-19.584-1.841-25.828l-34.622-25.96a15 15 0 0 1-6-12v-38.929l-23.841-11.921a15 15 0 0 1-8.292-13.416v-21.322l-37.943-12.647a15 15 0 0 1-10.257-14.23v-23.93l-42.559 21.278a14.99 14.99 0 0 1-17.314-2.81l-48.2-48.199a15 15 0 0 1 0-21.212L48.2 121.257V84.588c0-13.008 7.034-25.078 18.356-31.5 11.188-6.339 24.938-6.254 36.025.19 1.178.648 8.677 5.448 17.419.496a16.83 16.83 0 0 0 8.532-14.631V31.07a15 15 0 0 1 10.257-14.23l48.2-16.066c7.861-2.619 16.354 1.628 18.974 9.487l12.647 37.943h31.175l27.741-27.74a15 15 0 0 1 12.085-4.32 15 15 0 0 1 11.002 6.606l29.758 44.636c20.321 9.237 114.703 52.137 154.767 70.342 16.32 7.421 26.862 23.796 26.862 41.717 0 11.933-4.645 23.148-13.077 31.581L463.8 246.149v58.053c0 3.978-1.58 7.794-4.394 10.606l-64.267 64.266a15 15 0 0 1-10.606 4.394c-26.712 0-49.267 21.566-49.267 49.251V448.8c0 3.978-1.58 7.794-4.394 10.606l-48.2 48.2A15 15 0 0 1 272.066 512"/></svg>