<svg xmlns="http://www.w3.org/2000/svg" width="400" height="200" viewBox="-11.563 -0.283 45.121 22.560"><path d="M12.523 1.229C12.294.838 12.412-.032 11.91 0c-.715.047-.245.798-.207 1.256-.407 2.699-.693 5.426-1.261 8.094-.326 1.534-1.073 2.928-.329 4.576.23.505.268 1.458-.629 1.835-.357.149-.7.319-.237.739.393.356.183.746.058 1.132-.47 1.427.742 3.951 2.093 4.246.345.075.968.376 1.048-.427.079-.799-.112-1.52-.996-1.586-1.085-.082-1.505-1.228-1.295-1.554 1.491-2.322.154-4.974 1.037-7.354.438-1.186.781-2.469.447-3.826-.106-.421.182-.979.382-1.436.639-1.439 1.484-2.81.502-4.466" style="fill:#fff"/></svg>