<svg xmlns="http://www.w3.org/2000/svg" width="400" height="200" viewBox="-724.426 387.703 4449.285 2224.643"><path fill="#fff" fill-rule="evenodd" d="M266.49 1550.522c-296.695-233.167-107.168-143.057-168.954-302.017-4.411-16.323-5.997-31.067 1.875-44.3 40.531-50.71 93.523-22.368 123.117-21.254 45.718-.045 104.67-8.14 153.174-29.513 33.06-14.237 49.161-31.915 71.962-59.23 77.637-84.218-8.299-119.867 51.885-156.458 24.068-12.139 49.377 4.705 74.852-8.619 28.196-14.709 30.46-50.94 52.633-73.42 46.754-42.381 93.69 23.784 133.271-42.106 14.47-21.913 24.862-49.226 43.162-66.053 60.364-60.066 155.389 82.752 174.287 137.207 10.197 22.263-9.462 66.603-4.416 95.774 17.417 63.881 109.518 41.156 151.263 101.518 38.216 41.403 81.346 104.61 122.297 129.629 108.646 47.524 138.387-66.85 304.528 23.889 28.38 12.063 56.863 21.076 88.628 16.556 48.414-8.489 241.179-84.772 290.064-115.732 50.426-43.82-63.126-117.694 87.738-127.845 9.388-2.052 19.773-8.463 28.194-15.526 47.23-44.736 108.93-69.65 168.882-86.822 34.768-9.852 41.494-21.297 22.763-45.765-8.774-19.558-20.922-27.883-38.545-29.818-60.099-4.85-143.89 50.746-161.17-43.795-10.46-77.42 113.689-100.453 164.573-138.316 67.998-50.31-6.158-146.727 72.38-210.816 56.796-44.544 163.812-15.738 222.663 31.292 45.072 33.185 51.76 95.168 93.571 123.347 82.827 40.363 90.11 3.989 143.09 87.06 39.496 39.783 125.44-185.594 168.51 38.23 25.67 205.498-83.388 97.372-87.943 181.565-.35 27.52 18.443 54.386 19.775 82.279.308 64.951-104.538 117.197-145.016 147.281-26.834 15.378-43.758 44.27-58.878 71.06-45.798 61.424-123.434 115.53-192.064 143.669 2.398-22.501 14.377-50.526 13.872-71.351-1.806-22.227-21.957-44.575-37.006-28.518-83.069 73.995-58.249 74.21-134.293 114.792-20.04 6.314 1.235 129.378 32.57 135.023 73.055 4.522 63.236-71.177 166.518-25.637-5.415 19.435-50.861 36.11-62.989 53.351-29.735 35.067-47.49 87.363-29.985 129.365 65.2 97.387 98.245 32.06 161.862 245.542 11.691 45.703 42.605 91.208 46.564 109.388 15.41 72.492-83.347 97.571-95.101 163.626-19.96 127.302-26.657 118.535-95.97 198.185-170.128 162.478-159.672 50.594-240.803 109.836-83.832 47.737-130.723 97.527-249.598 107.463-18.57-4.071-36.145-17.547-51.39-19.533-115.572-8.942-71.487-27.359-128.745-84.053-23.255-19.34-52.296-27.454-81.158-35.895-22.213-11.24-59.909 21.136-102.873 43.433-75.443 40.329-53.564-7.549-81.94 72.07-10.85 21.703-59.283-.031-81.683-2.243-12.182-1.935-45.105.529-63.307-6.353-12.121-3.55-18.776-20.397-21.117-34.29-1.91-109.543-66.874-75.453-74.785-140.196 8.01-94.044 83.532-190.309 6.434-270.507-16.434-14.194-85.013-46.117-131.634-60.366-65.153-31.626-95.619 66.196-164.649 83.006-56.98 15.852-93.841-34.315-144.974-37.016-42.122-.141-74.032 29.82-109.98 24.334-182.446-9.702-184.619-89.477-293.711-210.476-40.962-64.652-215.716-71.458-186.514-140.741 11.889-21.855 46.895-41.692 59.684-58.918 21.176-51.787-31.16-44.653 4.55-156.272" clip-rule="evenodd"/></svg>