<svg xmlns="http://www.w3.org/2000/svg" width="400" height="200" viewBox="-3.192 14.649 71.389 35.694"><path fill="#fff" d="M62.856 32.585c-.109-.136-.129-.412-.15-.704-.029-.412-.063-.878-.403-1.299-.359-.361-.843-.38-1.23-.395l-.396-.017a39 39 0 0 1-.482-1.177c-.539-1.348-.572-1.404-.72-1.547-.376-.3-.851-.341-1.307-.341l-.374.003c-.186 0-.395-.007-.6-.071-.555-.111-1.479-.388-1.884-.646.009.003.006-.007-.017-.049-.062-.128-.227-.467-.615-.467a1 1 0 0 0-.252.054c-.366.151-.792.379-.839.814a.66.66 0 0 0 .054.345q-.156.02-.366.043a.63.63 0 0 1-.369-.163c-.058-.057-.092-.193-.127-.336-.061-.244-.137-.547-.443-.847-.201-.151-.495-.248-.798-.333.132-.043.25-.061.357-.076.2-.029.504-.072.66-.37.19-.365.033-.692-.56-1.878-.123-.415-.799-.532-1.141-.188a.6.6 0 0 0-.093.128c-.086.172-.099.355-.109.503l-.002.031c-.135.015-.323-.013-.489-.038a3.3 3.3 0 0 0-1.11.022c-.159.028-.321.06-.476.06-.052 0-.104-.012-.101-.003-.243-.081-.609-.297-.997-.525-.887-.522-1.99-1.172-3.104-1.172-.12 0-.239.008-.373.026a.61.61 0 0 0-.483.386c-.174.458.182.964 1.096 2.095.128.158.283.351.398.501a3 3 0 0 1-.49.126c-.35.07-.745.15-1.102.439-.234.234-.315.551-.381.805-.028.114-.077.304-.07.322a.7.7 0 0 1-.264.057c-.596 0-1.065-1.128-1.318-1.733-.12-.29-.207-.499-.312-.638a.5.5 0 0 0-.141-.127l-2.087-1.271c.137-.212.503-.466.788-.664.563-.391 1.146-.795 1.095-1.436-.049-.628-.712-1.024-1.244-1.278a.94.94 0 0 0-.488-.121c-.594 0-1.573.426-2.215.74-.01-.214-.054-.474-.252-.701-.229-.333-.722-.293-1.095-.14q-.07.03-.14.056c-.067-.264-.194-.596-.557-.865-.697-.429-1.373-.458-2.027-.487-.749-.032-1.456-.063-2.279-.73-.281-.205-.272-.331-.254-.608.047-.706-.178-1.204-1.398-1.338a4.6 4.6 0 0 0-.788-.083c-.155 0-.626 0-.903.341-.269.331-.184.735-.116 1.06.047.224.095.456.02.564-.041.059-.195.203-.75.285a.5.5 0 0 0-.374.271l-.079.162c-.057.117-.134.277-.093.284a.5.5 0 0 0-.11.012c-.272 0-.984-.877-1.367-1.349-.757-.933-1.472-1.814-2.286-1.814-.591 0-1.047.442-1.35 1.296-.271.678.463 1.077.96 1.342-.572.349-1.242.563-1.894.771-.631.201-1.283.41-1.82.724-.365.183-.379.576-.379.785-.222.054-.562.035-.873.008a7 7 0 0 0-.551-.031c-.292 0-.722.035-1.073.327-.391.312-.499.747-.586 1.096q-.033.136-.066.243a.77.77 0 0 0-.523-.219c-.037 0-.134.014-.17.022-.771.171-1.114.804-1.39 1.312-.145.267-.281.519-.435.638-.052 0-.146-.021-.23-.04a2 2 0 0 0-.447-.063c-.318 0-.521.136-.558.187-.378.251-.378.686-.378.945 0 .084 0 .226-.011.263-.182 0-.539-.185-.775-.307-.295-.153-.524-.271-.807-.256-2.297.368-3.082 1.863-3.71 3.256a1.2 1.2 0 0 0-.291-.425c-.413-.505-1.088-.639-1.699-.759a1.4 1.4 0 0 0-.185-.021.64.64 0 0 0-.629.465c-.278.941 1.735 3.737 3.579 4.931.056.028.138.059.236.092.328.111.5.199.533.394.097.45.036.484-.3.676-.322.185-.809.463-.925 1.125-.247.743 2.568 4.92 2.6 4.952 1.1 1.101 1.788 1.165 2.34 1.218.365.035.586.056.965.436.288.287.466.679.655 1.093.229.502.466 1.021.956 1.438.424.304 1.013.626 1.638.968 1.562.854 3.505 1.918 3.965 3.232a.5.5 0 0 0 .454.335c.424.229.831.562 1.26.91.872.71 1.772 1.443 2.975 1.443.369 0 .748-.072 1.071-.199.461-.116.614-.549.705-.808l.031-.087c.174.048.384.17.59.289.454.264 1.033.553 1.581.394a.5.5 0 0 0 .34-.333l.734-2.382c.069.022.148.054.214.08.186.075.378.152.582.152.239 0 .449-.11.514-.226.234-.233.266-.579.23-2.469a60 60 0 0 0-.023-.951c.126.003.301.05.489.129 0 .202.003.614.38.803a.5.5 0 0 0 .224.053c.41 0 .737-.218 1-.394.167-.11.339-.226.446-.226 1.516 0 2.861.624 4.286 1.285 1.21.562 2.462 1.143 3.872 1.296.135 0 .282.029.434.057.36.065.736.107 1.031.032a.5.5 0 0 0 .103-.038c.427-.213.69-.584.903-.882.14-.195.283-.396.375-.43.234 0 .702.381 1.012.633.365.298.681.555 1.101.628.294 0 .523-.169.726-.318.039-.028.089-.064.124-.093.406.371.406.643.406.737a.5.5 0 0 0 .438.496.493.493 0 0 0 .547-.373c.809-3.181 2.023-2.909 3.391-2.846 1.379.064 2.998.175 4.597-1.853.207-.311.164-.656.132-.909-.01-.082-.025-.206-.043-.206h-.001c.04-.054.222-.09.368-.119.297-.06.704-.141.974-.5a.5.5 0 0 0 .084-.175c.573-2.221.757-2.972.815-3.249.677-1.143 2.326-2.337 4.903-3.55a.5.5 0 0 0 .274-.34.5.5 0 0 0-.099-.42"/></svg>