<svg xmlns="http://www.w3.org/2000/svg" width="400" height="200" viewBox="-11.519 -0.281 44.955 22.478"><path d="M3.088 21.275c.23.776.677.842 1.284.225.674-.688 1.433-1.128 2.307-.196.367.391.905.425 1.193-.043.423-.682 1.146-.578 1.721-.873.203.454-.172 1.125.437 1.348.682.248.952-.401 1.351-.777.519-.486 1.024-1.024 1.636-1.363.928-.513 1.325-1.305 1.297-2.254-.038-1.403.079-2.642 1.117-3.778.536-.585.875-1.294 1.651-1.706.711-.377 1.087-.981 1.255-1.924.497-2.818.304-5.816 1.947-8.368.353-.547.154-1.06-.104-1.566H16.8c-.388.667-1.556-.125-1.653.694-.178 1.468-1.111 2.657-1.283 4.02-2.038-.589-4.084-1.109-6.252-.952-1.3.094-1.013 1.021-.97 1.812.058 1.08.728.532 1.181.398.701-.206 1.218-.25 1.643.558.42.793 0 1.013-.504 1.453-.619.541-1.099 1.307-.296 2.082 1.059 1.022 1.504 2.835.744 4.085-.14.228.109 2.354-1.258.681-.033-.039-.207-.021-.26.03-1.142 1.058-1.646.165-2.234-.674-.28-.395-.821-.483-.858.145-.058.971-.489 1.033-1.294.909-1.051-.162-1.198.573-.902 1.305.123.3.202.652.399.948.381.567.515.997-.493.729-.408-.108-.75.264-.976.617-.277.428.145.62.329.904.363.546 1.018.823 1.225 1.531" style="fill:#fff"/></svg>