<svg xmlns="http://www.w3.org/2000/svg" width="400" height="200" viewBox="-31.826 0.341 128.652 64.326"><path fill="#fff" d="M17.317 32.743c.211-.35.067-.695-.02-.901l-.015-.037c.061-.022.157-.05.302-.078.02.123.033.292.042.409.027.35.055.711.201 1.004.095.188.25.286.419.354-.143.265-.272.558-.136.853.081.175.24.298.371.32.421.148.732.218.98.218a.88.88 0 0 0 .544-.173l.067.069c.168.178.436.447.733.44q.166.027.3.026c.817 0 1.006-.648 1.098-.96.029-.101.069-.238.07-.255.005-.003.168-.01.338.001q.159.012.325.013c.988 0 1.528-.581 1.651-1.789.065-.877-.039-1.412-.339-1.735a.9.9 0 0 0-.333-.231c.154-.261.223-.546.117-.836-.172-.544-.358-1.098-.858-1.098a.66.66 0 0 0 .13-.33c.111-.506.012-1.135-.258-1.626a.59.59 0 0 0-.557-.344c-.062 0-.136.01-.271.034a1 1 0 0 1-.222-.157c-.179-.146-.423-.347-.758-.394a2 2 0 0 0-.17-.014c-.229 0-.423.076-.579.137-.113.044-.211.083-.326.089a1 1 0 0 1-.175-.081c-.167-.086-.375-.193-.625-.193a.73.73 0 0 0-.404.107c-.288.143-.448.403-.577.612-.028.046-.068.11-.104.161l-.03-.038a.5.5 0 0 0-.401-.201c-1.012 0-1.314.741-1.514 1.23-.107.263-.202.495-.376.649-.093-.009-.214-.031-.34-.052a5 5 0 0 0-.71-.083c-.104 0-.419 0-.606.26a.7.7 0 0 0-.093.445c.031.181.12.321.226.434l-1.227.315a.5.5 0 0 0-.39.188c-.25.312-.059.708.013.857.28.582 1.93 2.941 3.086 2.941h.002c.794-.067 1.2-.23 1.399-.56"/><path fill="#fff" d="M51.746 48.404c-.723-1.01-2.116-1.673-4.145-1.97a2.5 2.5 0 0 0-.35-.028c-.716 0-.86.493-.93.73-.048.162-.09.307-.28.472-.05-.046-.101-.097-.127-.123a1 1 0 0 1-.08-.147c-.079-.16-.188-.38-.35-.496l-.037-.034c.034-.013.072-.018.116-.024.243-.034.61-.086 1.05-.523.988-1.043-.038-2.581-.609-3.424a.6.6 0 0 0 .358-.205c.179-.232.124-.518.05-.8-.089-.311-.271-.65-.465-1.01-.264-.492-.588-1.096-.552-1.508l.082-.044c.188-.098.58-.302.58-.768 0-1.011-.605-1.178-.896-1.258-.054-.015-.136-.037-.193-.125-.067-.108-.091-.295-.116-.492-.039-.312-.088-.699-.347-1.002-.626-.773-.804-.888-1.192-1.041a3.7 3.7 0 0 1-.624-.315 1 1 0 0 1-.145-.122c-.135-.127-.303-.284-.548-.345l-.046-.01c-.252-1.25-.538-4.168-.588-5.052 0-.306 0-.652.047-.932.005-.027.019-.077.019-.105.036-.105.111-.325-.059-.652-.152-.203-.355-.309-.519-.394a2 2 0 0 1-.199-.113c-.108-.125-.238-.535-.333-.835-.176-.554-.327-1.033-.597-1.218-.013-.013-1.154-.941-1.972-1.459.284-.025.777-.189.888-.996.074-.525-.367-.805-.604-.955l-.117-.073.021-.048c1.116-.239 3.366-3.707 3.661-4.209a.58.58 0 0 0 .079-.472c.042-.198.12-.38.179-.466l1.228-1.226a.5.5 0 0 0 .121-.198c.163-.497.049-.964-.071-1.323-.461-1.02-2.199-1.223-3.596-1.387-.45-.053-.876-.103-1.098-.167-.099-.028-.223-.11-.354-.196-.219-.144-.467-.306-.745-.345-.56-.12-1.158.107-1.632.313a8 8 0 0 1-.351.147c.096-.088.167-.183.222-.255.032-.042.049-.071.036-.064.044-.033.104-.069.164-.106.273-.169.584-.36.568-.732-.007-.148-.113-.326-.241-.43l.001-.001a.8.8 0 0 0-.164-.105l.642-.41C39 7.786 39.25 7.584 39.365 7.295c.079-.237.079-.459.079-.637 0-.128 0-.239-.003-.251.026-.042.141-.135.209-.191.212-.174.477-.392.493-.733a.64.64 0 0 0-.176-.479.88.88 0 0 0-.706-.311c-.186 0-.361.04-.532.079-.123.028-.25.058-.351.058l-.366-.056c-1.181-.183-2.784-.396-3.511-.202l-.02.005c-.054-.218-.193-.438-.532-.547a1 1 0 0 0-.219-.002c-.249-.226-.594-.409-.964-.592a.5.5 0 0 0-.64.17c-.056.083-.12.162-.183.24-.19.235-.426.529-.463.841a.6.6 0 0 0-.031.161c-.147.032-.32.127-.397.23-.186.248-.142.559-.068.826-.111-.109-.276-.209-.405-.209-.249 0-.471.219-.506.465-.036.253.042.489.122.688-.293-.06-.688.207-.712.518a1.5 1.5 0 0 0 .039.479.8.8 0 0 0-.268-.052.73.73 0 0 0-.442.188.7.7 0 0 0-.112.169.57.57 0 0 0-.315-.09 1 1 0 0 0-.245.054c-.452.185-.618.506-.678.743-.192.757.448 1.665 1.027 2.371l.033.025c.022.055.014.242.008.366q-.006.131-.007.265c0 .153.021.317.045.483.014.1.043.305.035.413-.065-.003-.134-.013-.202-.022a3 3 0 0 0-.354-.031c-.496 0-.691.284-.764.453a.5.5 0 0 0 .226.639c.184.097.381.232.516.346l-.037.008c-.056 0-.176-.058-.273-.105-.236-.115-.63-.24-.894-.163-.385.096-.847.262-.995.687-.105.301.003.57.14.787-.576-.09-1.134-.042-1.413.334a.67.67 0 0 0-.091.581c-.354.158-.571.344-.554.667.024.442.462.537.751.599.071.015.186.04.284.068-.139.188-.244.324-.323.422-.202-.133-.539-.187-.958-.018l.003.007a.67.67 0 0 0-.337.33.66.66 0 0 0 .044.61c.148.261.471.55 1.175.55.539 0 1.234-.18 1.784-.411-.07.243-.076.538-.081.847-.005.252-.012.633-.054.724-.051.061-.27.174-.388.234-.325.167-.661.341-.702.715-.02.181.043.357.221.527-.125.179-.18.366-.076.57q.06.15.177.25l-.358.306a.5.5 0 0 0-.075.08c-.229.306-.297.664-.357.979-.044.229-.085.446-.201.604-.029.041-.141.14-.215.206-.267.237-.57.505-.52.884.027.203.155.376.399.495.493.184 1.11.092 1.681-.235a.57.57 0 0 0 .284-.367.57.57 0 0 0-.101-.45q.074-.094.173-.199c.167-.184.358-.392.45-.645.099-.195.069-.388.028-.546a.4.4 0 0 0 .023-.136c.004-.013.026-.053.017-.057.037-.017.082-.024.125-.035.193-.046.595-.143.706-.588.07-.385-.06-.745-.175-1.063-.05-.137-.125-.345-.147-.359.143-.112.88-.529 1.457-.837a6 6 0 0 1-.041.223c-.051.267-.107.559-.054.851a1 1 0 0 0-.134.227c-.111.298-.111.596-.111.835 0 .121 0 .237-.02.341-.464.249-.403.612-.329.821.014.029.071.116.16.237.405.55.57.843.634.998l-.013.004c-.145.052-.325.116-.455.248-.695.629-.929.841-.783 1.219l.03.063-.035.04c-.145.165-.269.292-.374.401-.458.472-.647.739-.658 1.541-.278.007-.698.019-.806.428-.049.184-.027.452.359.684.522.308.889.445 1.19.445.1 0 .236-.016.369-.085.124.157.251.323.307.395.051.076.103.188.159.304.2.414.408.841.849.841.205 0 .393-.106.525-.305.102-.163.165-.327.2-.486q.059.1.142.201c.12.12.278.198.434.217.209.146.572.145.746.054.195-.079.342-.2.459-.297.098-.082.176-.146.195-.157.037 0 .112.018.179.033.158.037.364.075.553.05-1.111 1.274-1.072 1.74-1.057 1.922a.5.5 0 0 0 .047.176l.583 1.21-.037.115c-.077.231-.194.582-.023.924.107.215.3.369.605.47q.033.009.079.014c-.067.291-.09.577.092.815.126.164.344.235.577.254a1.2 1.2 0 0 0 .287-.059 1 1 0 0 0-.001.131c-.521-.041-.801.159-.917.339-.233.365-.076.815.067 1.117a.83.83 0 0 0 .282.388c-.265.21-.697.573-.78 1.067a2.3 2.3 0 0 0-.031.545.62.62 0 0 0-.403.328c-.369-.207-.776-.075-1.022.053a.77.77 0 0 1-.438.108c-.046-.007-.153-.094-.23-.158-.169-.139-.401-.329-.64-.354-.212-.069-.504.021-.624.214a.5.5 0 0 0-.077.276c-.258.037-.364.009-.498-.008a3 3 0 0 0-.345-.025 1 1 0 0 0-.121.019l-.395-.74a.495.495 0 0 0 .246-.585.5.5 0 0 0-.628-.324c-.522.167-.898.351-1.041.706-.145.363.033.687.19.971.078.143.165.3.25.521-.08.119-.176.324-.063.561.019.039.063.063.094.098-.004.03-.013.065-.016.092l-.003.038c-.239.151-.538.258-.806.353-.458.162-1.15.408-.974 1.009.056.328.205 1.2.915 1.199.374 0 .665-.274.946-.541.137-.129.391-.37.47-.387l.08.078c.181.278.375 1.834.343 2.088-.266.621-1.857 1.943-2.488 2.105-.029-.004-.111-.041-.165-.065a1.4 1.4 0 0 0-.638-.148c-.426.061-.639.388-.765.583-.029.045-.07.108-.043.117-.081-.001-.19-.014-.316-.027a8 8 0 0 0-.774-.052c-1.371 0-1.519.807-1.519 1.153q-.002.122-.012.251c-.023.341-.052.765.219 1.168a.75.75 0 0 0 .364.251.7.7 0 0 0 .075.307c.187.382.697.643.921.683.358.12.791.091 1.382-.104a.5.5 0 0 0 .195-.119.74.74 0 0 0 .19-.354c.18-.048.292-.068.362-.076q.114.098.279.133c.123 1.21.148 1.461.46 1.615.405.204.927.02 1.316-.167.122-.059.325-.157.313-.194.138.139.212.39.292.655.121.406.258.866.723 1.189 1.221.689 1.813.293 2.208-.067.131-.12.258-.235.438-.333-.261.184-.291.229-.339.326-.1.199-.129.412-.156.6-.018.129-.045.323-.082.354-.407.323-1.041-.002-1.684-.335-.422-.219-.859-.445-1.277-.511a6 6 0 0 0-1.02-.104c-1.34 0-1.564.761-1.684 1.17a.4.4 0 0 0-.028.145l-.055-.057c-.153-.155-.362-.367-.678-.367a.7.7 0 0 0-.234.045c-.493.212-.578.856-.653 1.425-.018.136-.04.351-.015.314-.071.086-.219.154-.375.227-.197.091-.421.194-.533.319a.75.75 0 0 0-.251.284.78.78 0 0 0-.614.098c-.276.197-.436.454-.577.682-.061.098-.116.188-.177.266a.73.73 0 0 0-.528.118q-.226.15-.256.481c-.107.133-.192.2-.236.227-.717.008-2.595.111-2.595.98 0 .747.787.848 1.165.896.157.021.449.058.53.14.02.043.035.183.045.267.032.279.098.86.652.951l.082.007c.481 0 .958-.831 1.307-1.631q.074.015.154.034c.264.063.509.156.951-.003.299-.15.377-.454.418-.628.315-.017.747.158 1.151.333.27.116.525.224.76.282.197.046.345.048.465.019l.053.054c.647.642 1.367 1.397 2.153 1.065.835-.39 1.373-2.128 1.592-2.983q.189-.033.427-.033c.905 0 2.066.366 2.54.833.179.144.362.292.437.401a1 1 0 0 1-.033.111c-.042.144-.107.361.051.572a.51.51 0 0 0 .405.203.57.57 0 0 0 .376-.162.5.5 0 0 0 .077-.098c.111-.186.144-.388.17-.55l.011-.066q.242.111.73.419l.164.102a.8.8 0 0 0 .33.095c.102.04.228.091.376.091.257 0 .477-.157.577-.479a.9.9 0 0 0-.075-.506l.173.022c.529.068 1.129.146 1.603.146.471 0 .797-.098.975-.282q.185.135.404.212a.7.7 0 0 0 .206.028q.032.017.064.027a1 1 0 0 0 .146.028.8.8 0 0 0 .478.22c.313.238.796.238.99.238.529 0 1.185-.095 1.711-.171.3-.043.547-.082.618-.091.117.025.427.25.631.398.445.322.866.627 1.29.627.42 0 .656-.29.798-.463a1 1 0 0 1 .102-.115c.193-.087.391-.114.618-.146.304-.042.643-.088.981-.295.179.184.478.358 1.157.13.415-.171.465-.593.491-.82l.006-.047c.123-.03.278-.049.43-.066.483-.056 1.145-.132 1.354-.856.023-.185.028-.361.033-.532.006-.215.011-.401.027-.499.02-.026.091-.089.133-.126.162-.141.406-.354.325-.691-.037-.159-.199-.324-.351-.385-.521-.207-1.161-.103-1.665.021q-.128.032-.249.059a1.1 1.1 0 0 0-.316-.44l-.097-.076-.035-.027c.231-.089.464-.245.633-.52.174-.291.268-.572.284-.819a1 1 0 0 0 .111.008c.045 0 .172-.02.216-.031.702-.193 1.21-.333 1.239-.808a.5.5 0 0 0-.052-.274c1.136-.562 2.313-3.009 2.478-3.948.187-.995.022-1.859-.487-2.57M40.636 4.27c.462 0 .844-.234 1.048-.642a.5.5 0 0 0-.223-.67 4 4 0 0 0-.304-.132 1.5 1.5 0 0 1-.229-.104.5.5 0 0 0-.118-.058 2 2 0 0 0-.128-.038.7.7 0 0 0 .04-.235h.002c0-.652-.542-1.246-1.173-1.246h-.003c-1.19.085-1.256.85-1.248 1.083.033.916 1.32 2.042 2.336 2.042M23.955 8.971c.543 0 .787-.468.932-.748l.082-.153c.136.053.38.075.542-.005a.66.66 0 0 0 .249-.209q.137.074.33.102c1.033 0 1.199-1.407 1.27-2.008.005-.044.01-.083.007-.091.06-.082.247-.242.374-.351.246-.21.524-.449.693-.719a.54.54 0 0 0 .041-.449 1 1 0 0 1-.026-.201c-.021-.239-.069-.8-.633-.91a2 2 0 0 0-.138-.009c-.459 0-.797.319-1.068.576a6 6 0 0 1-.169.156l-.059.047a.8.8 0 0 0-.409-.117c-.355 0-.615.257-.77.447a.6.6 0 0 0-.17.308.9.9 0 0 0-.493-.161c-.607 0-.855.687-.962.992q-.068.269-.009.555a.6.6 0 0 0-.143.159.63.63 0 0 0-.045.492q.052.135.134.239a.7.7 0 0 0-.456.32c-.206.308-.203.743.007 1.135.201.378.534.603.889.603"/></svg>