<svg xmlns="http://www.w3.org/2000/svg" width="400" height="200" viewBox="-205.538 25.231 923.077 461.538"><path fill="#fff" d="M322.213 481H271v-41.459L246.729 391H241v60h-54.271l-24.839-49.678-17.005 17.005L91 445.271V481H39.931L0 442.358v-72.716l46.173-44.683L76 354.787l15-15v-30l37.888-37.888L196 261.832l48.094 7.214 5.464-27.32-6.063-20.209-14.533-7.267L196 247.213l-46.612-46.612 19.9-79.601h50.499l30-30H301v60h5.729L331 102.459V31h51.213L421 69.787v32.672L445.271 151H512v54.339l-50.575 24.873L481 249.787v29.855l31 30V361h-82.213L406 337.213 382.213 361h-30l-17.962 17.962 30 60z"/><path fill="#fff" d="M121 256H69.787L31 217.213v-42.426l60-60 30 30z"/></svg>