<svg xmlns="http://www.w3.org/2000/svg" width="400" height="200" viewBox="-11.261 -0.275 43.945 21.973"><path d="M20.321 10.402c-.84-1.055-.507-2.308-.767-3.443-.141-.609-1.092-.873-.8-1.324 1.469-2.259-1.52-3.111-1.462-4.901.003-.117-.399-.4-.633-.162-.986.999-2.476.917-3.554 1.691-.469.334-.904.311-1.417.07l.669-1.271c-.837.637-1.943.602-2.286-.022C9.2-.553 7.869.205 6.558.037c1.101.487.051 1.231.378 1.736.281.434.556.837-.071 1.054-.505.178-.383 1.259-1.49.692-1.342-.685-1.913-.081-1.841 1.441.027.562-.04 1.159-.591 1.469-.25.144-.414.183-.305.52.341 1.063.113 1.493-.93 1.69-.311.061-.823.172-.664.391.831 1.143-.835 2.559.457 3.605.148.119.117.315.083.541-.314 2.068.405 3.01 2.488 3.37.449.077.888.223 1.54.388-.816.845-1.025 1.778-1.202 2.74-.172.933.229 1.327 1.067 1.021 1.264-.459 2.433-.052 3.645.138.456.072.923.656.978.584.92-1.184 2.285.217 3.313-.634.493-.406 1.359-.438 2.046-.095.819.408.903.102.613-.587-.278-.666-.324-1.012.539-1.438 1.694-.841 1.634-1.015.075-2.224-.361-.276-.79-.484-1.102-.809-.645-.673-1.307-1.885-.661-2.345 1.261-.898 2.895-1.747 4.367-1.736 1.349.01 1.21-.923 1.031-1.147" style="fill:#fff"/></svg>