<svg xmlns="http://www.w3.org/2000/svg" width="400" height="200" viewBox="-1379.637 56.607 5766.640 2883.320"><path fill="#fff" fill-rule="evenodd" d="M650.54 2732.005c91.47-14.114 98.978-54.714 122.28-133.09 3.604-12.07 19.82-39.157 16.276-51.77-20.179-71.65-130.748-76.935-166.182-142.038-50.629-92.912-10.69-202.159-14.894-301.854-2.583-60.06-28.589-122.581-22.943-182.52 6.787-72.61 76.394-106.603 106.002-168.043 36.936-76.755 27.087-172.608 75.615-243.598 44.142-64.502 127.564-108.586 139.816-191.707 17.777-120.477-91.169-237.592-107.985-352.483-8.047-54.895 31.23-105.223 30.15-159.456-.902-45.525-30.75-84.743-33.693-129.427-4.565-68.646 11.65-139.216 8.828-208.583-6.126-150.027-165.22-237.472 65.705-331.464 58.076-23.663 146.602 18.498 207.441 22.582 101.139 6.846 197.173-33.514 296.87-34.474 49.188-.48 90.148 39.458 141.918 39.399 100.298-.06 196.992 3.843 294.587-23.664 45.224-12.732 82.941-65.523 135.553-40.54 93.392 44.324-16.576 131.948-2.402 188.404 15.736 62.4 172.788 123.66 187.022 203.298 5.586 31.351-26.607 199.456-39.939 229.605-11.11 25.165-60.239 73.931-46.785 100.957 22.882 46.006 86.424-13.933 115.132 30.871 20.42 31.89-33.512 98.556-41.38 124.982-9.07 30.39 25.825 64.323 29.009 91.23 3.303 27.086-24.324 47.686-23.603 74.892 1.802 71.289 93.331 105.283 134.651 147.505 16.696 16.995-81.438 70.808-79.578 89.247 7.028 69.368 40.84 130.206 43.123 202.698 1.502 46.244-47.447 93.872-30.51 140.177 12.012 32.791 54.832 30.809 66.005 55.553 4.864 10.752-91.53 105.283-86.605 143.06 8.468 65.104 93.69 188.163 145.702 230.805 5.344 4.384 109.667 67.326 107.324 75.853-11.471 40.9-57.956 47.867-84.622 73.152-36.576 34.713-39.219 85.043-89.248 111.768-36.875 19.64-58.918-12.432-92.13-6.965-54.893 9.008-102.4 44.443-157.773 54.653-29.73 5.466-62.823-11.17-92.49-1.921-102.52 31.95-168.644 112.068-262.455 156.572-152.91 72.49-309.242 111.468-466.837 170.146-75.854 28.228-107.684 120.599-202.517 118.015-54.173-1.502-93.63-94.051-153.75-110.087-51.352-13.693-126.123-32.252-170.687-61.74" clip-rule="evenodd"/></svg>