<svg xmlns="http://www.w3.org/2000/svg" width="400" height="200" viewBox="-1384.673 57.682 5768.584 2884.292"><path fill="#fff" fill-rule="evenodd" d="M485.822 1349.737c25.364-33.931-45.446-162.246-80.446-211.471-15.915-22.436-55.516-42.616-49.485-76.014 28.66-158.988 165.429-37.922 238.29-83.262 90.454-56.317 97.977-172.173 150.757-249.871 23.003-33.87 95.242-81.528 106.059-120.29 12.496-44.816-68.758-85.58-82.497-124.584-28.038-79.954-1.305-180.822-12.371-215.648-14.113-44.662-66.893-59.588-62.355-113.12 7.46-87.558 171.21-66.372 221.318-31.483 45.32 31.556 125.33 96.684 172.765 115.8 60.55 24.445 126.635-76.367 180.97-37.182 99.905 72.053-47.745 146.17-42.336 215.94 1.99 25.856 40.16 84.263 30.4 105.96-17.158 38.332-71.99 46.476-86.288 88.532-21.2 62.71 146.468 116.938 175.376 149.893 36.244 41.429-37.985 96.006-45.756 137.056-.932 5.135 68.198 38.326 74.228 43.038 35.063 27.41 68.012 76.485 109.789 93.464 58.563 23.779 120.232-1.486 180.038 6.59 86.165 11.618 188.742 126.3 278.264 67.122 51.972-34.347-22.815-142.246 26.795-159.392 117.745-40.714 94.246 86.021 135.899 108.682 4.6 2.511 178.918-18.763 196.574-24.749 17.966-6.111 4.227-49.846 15.915-67.396 30.774-46.42 89.21-120.954 139.568-148.531 72.798-39.818 282.615 22.946 295.049 118.46 3.793 28.772-47.062 33.515-66.022 44.513-49.859 28.933-123.901 98.157-145.1 151.447-9.886 24.935 19.52 59.694 23.872 85.208 4.227 25.377-20.578 76.485-32.142 99.307-20.018 39.359-91.946 3.376-108.544 64.786-17.096 62.988 77.15 123.515 31.706 183.39-17.22 22.641-68.821-72.06-75.847-89.995-2.797-7.174-1.864-5.352-3.916-10.699-.932-2.45-1.865-4.88-2.86-7.298-.87-2.157-2.052-5.31-3.606-7.038-18.9-20.84-102.639 30.406-119.673-15.293-30.028-80.582-1.43-105.767 27.168-174.413 5.47-13.18-28.162-4.924-42.337-6.677-27.914-3.456-56.325-3.357-83.244-12.11-58.81-19.122-84.175-125.809-141.182-59.687-68.945 79.966 102.265 289.329 48.801 376.707-37.487 61.366-120.916 54.732-168.786 100.227-25.488 24.177-7.709 56.592-32.514 83.349-23.934 25.794-58.003 37.687-82.31 63.69-98.536 105.438-188.742 217.738-288.522 320.806-57.257 59.14-147.09 55.354-195.332 130.31-18.713 29.082 31.83 125.896 29.467 170.358-2.425 46.445-35.622 93.662-41.466 141.594-3.668 30.145 19.77 79.594 7.957 105.474-24.62 53.806-109.415 92.213-151.13 131.535-34.753 32.743-57.382 108.676-119.487 98.157-113.955-19.328-100.837-213.852-135.215-296.043-17.967-42.864-56.635-76.448-77.523-119.263-32.08-65.93-25.427-141.998-53.465-208.523-34.006-80.632-88.9-145.884-106.929-233.112-29.28-142.054 13.989-252.396-6.465-382.643-.933-6.005-12.123-45.314-21.573-46.495-33.82-4.222-74.602 59.053-103.447 71.978-44.823 20.068-145.721-49.225-177.8-72.718-56.885-41.696-58.936-56.187-17.531-113.24 12.247-16.84-62.107-66.873-70.5-76.124-.932-1.039 2.736-8.542 2.798-8.592 12.744-25.924 80.01-61.18 106.557-76.274 32.141-18.277 91.14 16.978 129.622 5.857" clip-rule="evenodd"/></svg>