<svg xmlns="http://www.w3.org/2000/svg" width="400" height="200" viewBox="-1124.699 187.767 5248.232 2624.116"><path fill="#fff" fill-rule="evenodd" d="M97.03 395.3c-2.781-44.187-13.718-147.797 30.043-174.732 21.803 1.449 79.58 81.034 91.22 89.493 94.558 86.245 253.99 129.546 334.256 6.702 14.092-16.28 29.964-30.19 43.753-24.296 88.413 45.173 96.015 197.256 130.333 262.302 28.297 49.842 135.107 139.632 214.763 191.409 78.159 58.39 165.35 51.225 311.487 35.746 191.505-17.585 211.742-134.754 363.412-201.449 33.463-13.572 168.104-34.998 231.662-37.835 54.19-5.616 120.143 66.305 188.72 81.3 183.39 12.42 115.967 31.591 228.5 117.227 38.927 22.077 85.41 21.515 124.205 40.95 171.009 107.877 6.028 311.434-7.465 445.743-9.636 40.433 46.467 54.453 42.975 92.614-10.305 113.377-5.39 78.314 21.239 157.571 18.549 50.63 1.353 101.428 13.946 147.636 18.043 60.096 107.04 31.411 137.567 71.538 32.78 54.86-12.088 109.327-46.43 153.688-61.61 85.724-39.458 69.267 20.543 179.836 100.685 175.1 81.291 119.634 225.435 180.258 91.984 47.305 2.86 141 86.578 187.737 85.974 55.612-112.979 100.988-162.63 142.713-58.829 52.256-51.687 122.038-48.235 192.327 1.676 15.057.89 35.778.218 44.407-1.94.735-9.017.967-18.675.878-221.576-6.634-568.115-22.64-688.126-94.973-80.167-59.603-22.011-245.447-179.15-243.445-84.795 8.27-153.353 124.067-224.764 145.627-56.533 17.627-245.565-71.88-310.604-109.451-14.497-7.517-40.225-27.907-56.115-45.63-102.941-120.518-109.809-95.553-191.051-146.506-122.735-95.304-99.496-306.171-270.142-383.852-60.962-31.157-125.895-46.27-157.594-13.092-2.637-.442-9.722-7.207-18.188-15.993-143.79-137.694 10.74-272.667-148.754-391.105-56.759-43.845-134.729-82.115-184.447-151.686-39.516-51.719-56.384-144.358-51.103-187.97 4.282-40.96 30.317-66.685 51.057-91 91.255-110.783 87.661-108.473 78.6-127.876-24.092-49.96-91.158-68.335-109.16-124.651C142.124 563.326 97.506 540.043 97.03 395.3" clip-rule="evenodd"/></svg>