<svg xmlns="http://www.w3.org/2000/svg" width="400" height="200" viewBox="-30.732 0.883 126.468 63.234"><path fill="#fff" d="M57.852 28.521c.508 0 1.357 0 1.737-.585.673-.673-.001-1.424-.375-1.833v-.005a.5.5 0 0 0-.198-.399l-.47-.587a.5.5 0 0 0-.134-.117c-.427-.256-.696-.36-.932-.36-.402 0-.64.259-.706.769-.034.265-.034.27-.34.27-.378 0-.953-.13-1.765-.403.074-.206.254-.533.362-.729a7 7 0 0 0 .347-.688.6.6 0 0 0 .03-.113c.143-.989-.728-1.248-1.146-1.373-.13-.039-.349-.104-.387-.137-.213-.427-.271-1.167-.326-1.882-.1-1.28-.212-2.731-1.439-2.731-.08 0-.166.008-.236.021-1.507.21-2.327.566-2.661 1.152-.329.58-.083 1.165.114 1.635.112.266.238.566.167.684-.058.096-.386.42-2.198.576-1.476 0-5.637-5.115-6.173-6.667a342 342 0 0 0 5.004-1.262.5.5 0 0 0 .351-.326c.264-.791-.438-1.29-.95-1.655a4 4 0 0 1-.422-.328c.373.024.87.105 1.316.178.896.146 1.579.241 1.873.046 1.052-.658 1.479-1.708 1.857-2.633.524-1.288.886-2.016 2.197-2.016a.5.5 0 0 0 .39-.813c-.131-.163-.261-.351-.396-.544-.452-.651-.966-1.389-1.728-1.643a.5.5 0 0 0-.125-.025 1 1 0 0 0-.295-.322c-1.137-.758-2.486-.962-3.791-1.159-.679-.103-1.379-.208-2.036-.396-.168-.042-.336-.117-.498-.187-.299-.128-.606-.261-.93-.261a1.1 1.1 0 0 0-.387.073c-3.653 1.686-3.859 1.853-3.786 2.387.063.453.518.526.883.584.276.044.74.119.858.295.036.053.039.133.029.211-.093.046-.271.098-.374.129-.328.097-.668.197-.759.552-.044.171.043.44.168.565.077.077.181.172.297.278l.083.076c-.601-.271-1.255-.466-1.775.072a.74.74 0 0 0-.124.651c-.442-.209-.906-.372-1.361-.372-.57 0-1.327.26-1.705 1.521-.111.448-.058.855.159 1.212.481.789 1.645 1.061 2.414 1.241.121.028.269.063.379.093-.014.05-.055.146-.08.207-.106.251-.239.563-.049.853a.7.7 0 0 0 .458.255c.733.055 1.192-.189 1.493-.482a.65.65 0 0 0 .273.129c.198.045.538.03.959 0l.187-.013c-.491.51-1.097 1.012-1.829 1.287-.097.007-.259.004-.464.004-1.912.01-3.906.101-4.182 1.349-.082.66.23 1.263.507 1.795q.09.171.17.335l-.2-.176c-1.755-1.545-3.252-2.766-4.287-2.186-.428.256-.632.742-.813 1.171-.079.187-.21.499-.257.539-.141-.046-.148-.549-.153-.917-.007-.481-.015-1.027-.213-1.489-.673-1.748-4.907-1.937-6.696-1.937-.923 0-1.714.053-2.116.143-.485.108-.868.193-.9.616-.028.356.264.507.41.568-.102.125-.24.262-.368.389-.363.359-.737.731-.738 1.203 0 .163.046.405.272.631a.8.8 0 0 0 .568.239c.443 0 .812-.338 1.203-.696.125-.114.311-.285.432-.375.062.242-.085.599-.314 1.107-.204.452-.415.92-.415 1.397 0 .133.053.26.146.354.535.535.803 1.024.784 1.214l-.087.086c-.007.004-.077.037-.33.037q-.159-.001-.315-.01a7 7 0 0 0-.307-.009c-.173 0-.579 0-.78.326a.64.64 0 0 0-.03.601c.077.262.316.636 1.051.636.333 0 .718-.069 1.126-.142.705-.125 1.512-.205 1.631-.026.034.05.178.359-.271 1.433-.06.118-.181.131-.23.131-.394 0-.812-.138-1.254-.283-.648-.213-1.416-.4-1.972-.242-1.255.314-2.011 1.36-2.584 2.354a.5.5 0 0 0-.111.261 8 8 0 0 0-1.289-.127c-.899 0-1.483.258-1.736.767-.315.634-.044 1.48.834 2.637.624.934 1.802.991 2.941 1.047 1.396.068 2.266.158 2.532 1.112.236.803-.055 1.172-.313 1.497-.172.218-.409.517-.287.896.138.428.61.629 1.623.918 1.788.488 3.466.502 4.58.512a.7.7 0 0 0-.089.355.64.64 0 0 0 .127.4 5.3 5.3 0 0 1-1.594.324l-.096-.162c-.152-.267-.383-.67-.839-.67-.033 0-.135.015-.167.021-.726.146-1.104.723-1.407 1.186-.079.12-.158.241-.197.303-.128.128-.412.292-.686.45-.59.34-1.2.691-1.303 1.242a.84.84 0 0 0 .17.691c.072.108.161.19.262.255l-.064.061c-.417.417-.649.904-.854 1.334-.127.268-.241.507-.379.69l-.102-.025c-.331-.085-.791-.071-.996.076-.648.253-1.208.597-1.749.929-.376.231-.761.468-1.125.654-.127.042-.613.042-.82.042-.465 0-.867 0-.939.447-.035.215.149.469.344.567.149.074.348.108.642.108.868 0 2.583-.304 3.511-.481.014.104.047.217.109.339q.062.095.138.192l-.416-.065a14 14 0 0 0-.656-.094.5.5 0 0 0-.121.015c-.497.124-.716.537-.877.839-.097.183-.189.356-.279.401-.218.094-.533.105-.783.105l-.711-.011c-.447 0-1.378 0-1.727.816-.241.482-.079 1.063.239 1.643-.407-.25-.81-.415-1.339-.429a15 15 0 0 0-1.928-.141c-.903 0-1.528.112-1.878.323-.315.157-.389.45-.406.673-.063-.027-.122-.056-.165-.075-.225-.105-.374-.175-.54-.175-.173 0-.36.1-.451.247a.59.59 0 0 0 .035.616c.632.844 3.062 2.243 4.454 2.863-.284.06-.771.059-1.278.043q-.298-.01-.589-.012c-.562 0-1.879 0-2.135 1.153l-.005.113c0 .146.037.279.089.399-.257-.129-.501-.243-.75-.243-.328 0-.593.209-.686.604-.156 1.556.886 3.708 2.413 4.049.121.027.102.025 1.212-.108a.5.5 0 0 0-.01.116.6.6 0 0 0 .075.252c-2.431.746-2.431.748-2.361 1.21.034.225.24.404.466.428.872.091 1.791.137 2.732.137 1.274 0 2.355-.081 3.145-.141.495-.037.885-.063 1.084-.058l.021.011q.078.039.159.066c-.515.409-1.575.926-2.333 1.294-1.579.769-2.41 1.197-2.57 1.787-.057.208-.022.421.16.676.171.172.43.235.954.235.819 0 2.326-.179 3.236-.359-.224.279-.369.583-.232.908.195.463.781.465.978.465.104.033.282-.008.483-.028.536-.076 1.009-.322 1.467-.56.455-.236.885-.459 1.403-.522.283 0 .949.284 1.537.534.914.39 1.95.831 2.781.831q.11 0 .217-.011a.5.5 0 0 0 .109-.023c.545-.183.578-.748.598-1.087l.006-.106c.111.044.24.136.367.264l.045.04.021.089c.038.171.153.691.694.691a.5.5 0 0 0 .121-.015c.498-.125.801-.55 1.044-.891.111-.156.237-.333.306-.38.223-.133.501-.218.796-.308.509-.155 1.036-.315 1.374-.767a.5.5 0 0 0 .064-.114c.206-.517-.094-1.109-.358-1.632-.056-.111-.129-.255-.183-.376.528.034.651.277.878 1.039.24.802.68 2.143 2.714 1.065.431-.287.742-.701 1.043-1.102.325-.434.633-.842.953-.99.051.013.181.132.258.203.223.206.528.487.978.487a.5.5 0 0 0 .108-.012c1.027-.229 2.775-.741 2.958-1.704 0-.291-.155-.543-.322-.759.638-.116 1.168.047 1.794.259.545.185 1.16.393 1.996.454.137.03.288.023.44-.008l.004.008a.5.5 0 0 0 .063.095c.515.616 1.846.39 3.161.048.577-.15 1.174-.306 1.53-.306.087 0 .13.01.161.019.063.016.151.169.229.304.158.277.376.658.789.757.72.29 1.407.117 1.736-.018a.62.62 0 0 0 .607.424c.355 0 .635-.264.63-.53.068-.48.019-.967-.03-1.438-.056-.531-.107-1.034.021-1.481.034-.137.204-.239.461-.381.171-.094.348-.191.455-.303.844-.703 5.642-7.643 6.097-9.011.411-1.337.248-2.325.074-3.372-.071-.433-.147-.888-.186-1.357.005-.035.052-.129.082-.191.083-.167.187-.374.177-.724-.081-.409-.354-.729-.594-1.01l-.116-.141c.505.241 1.168.475 1.614-.15.285-.572-.116-1.064-.383-1.391a4 4 0 0 1-.256-.331q.015-.06.015-.121c0-.209.166-.401.44-.691.3-.317.64-.677.64-1.197 0-.656-.33-1.139-.622-1.564-.214-.313-.416-.608-.458-.867 0-.421.127-.866.261-1.336.179-.627.363-1.276.28-1.904 0-.452-.355-.736-.693-.945q.177-.01.353-.008zM48.551 6.688c.18-.24.614-.597.872-.808q.23-.187.436-.365c.014.07.026.142.031.195-.712.697-1.119.917-1.339.978M24.048 42.422c-.039.188-.046.382.018.574a.6.6 0 0 0 .045.1q.077.127.188.227a45 45 0 0 1-1.309-.133 25 25 0 0 0 1.058-.768m-12.065 6.896c.331.03.714.193.937.337-.245.146-.567.216-.914.257.061-.214.015-.445-.023-.594"/></svg>