<svg xmlns="http://www.w3.org/2000/svg" width="400" height="200" viewBox="-1355.918 71.865 5715.045 2857.522"><path fill="#fff" fill-rule="evenodd" d="m94.785 1484.85 705.962-459.595s-11.764-144.431 4.184-218.727c10.856-50.225 67.74-87.612 65.618-140.446-3.821-93.387-74.776-131.763-23.167-226.568 45.848-84.114 173.08-72.912 237.849-141.999 64.526-68.886 62.464-157.415 168.349-187.142 44.574-12.517 102.125 20.68 145.729 28.878 140.755 26.49 183.085-38.515 249.006 94.83 2.122 4.306 9.4-1.91 14.009-3.226 36.567-10.413 72.41-38.072 110.554-40.57 35.78-2.342 79.808 56.216 99.396 82.294 20.194 26.932 12.796 65.557 27.472 93.981 14.857 28.698 44.574 44.15 56.035 76.158 14.131 39.503 3.275 90.93 32.081 123.708 44.15 50.341 118.44 48.976 177.265 39.898 7.641-1.183 96.849-3.954 94.424 4.615-8.855 30.91-51.608 48.037-59.31 79.438-8.37 33.986 25.165 74.29 9.52 105.013-18.436 36.156-60.281 56.284-82.295 90.433-21.164 32.778-17.163 64.901-30.869 98.978-40.935 101.591-120.62 248.485-50.456 360.458 39.358 62.694 113.648 49.68 162.043 94.06 38.993 35.774 22.255 95 61.553 128.366 27.411 23.257 60.22 37.06 86.904 61.918 31.171 29.073 49.728 69.256 84.478 94.836 27.41 20.195 60.827 25.058 90.542 40.498 62.646 32.554 109.099 92.938 147.67 150.26 55.064 81.705-55.551 229.74-21.65 294.92 11.099 21.334 91.453 14.816 115.528 36.872 35.78 32.814-5.155 77.752 6.49 111.695 23.468 68.674 141.12 106.898 127.655 199.714-3.032 20.826-85.447 9.394-97.94 6.44-98.243-23.184-202.25-84.927-296.128-6.059-76.472 64.29-150.64 316.867-240.272 332.302-76.413 13.166-152.522-27.38-224.992-43.67-87.57-19.68-232.269 42.954-285.695-28.37-102.066-136.256-1268.443-965.188-1382.272-897.72-25.288 14.967-115.224-5.623-133.235-29.547-36.51-48.375-22.378-58.346-71.318-95.054-11.704-8.738-9.823-69.517-13.16-86.425-15.342-77.54-67.557-225.445-67.557-225.445" clip-rule="evenodd"/></svg>