<svg xmlns="http://www.w3.org/2000/svg" width="400" height="200" viewBox="-1383.237 57.576 5765.673 2882.836"><path fill="#fff" fill-rule="evenodd" d="M1058.427 1647.235c209.176-279.451 131.755-214.132 167.58-324.458 189.31-384.427 187.66-433.042 257.9-782.099 29.83-173.171 42.483-81.466 89.886-159.784 26.807-61.05 1.297-133.58 79.284-146.78 150.797-6.159 144.607 40.498 201.561-99.346 27.955-64.613 82.086-42.072 84.847-7.519 5.13 31.993-6.567 81.847-9.153 109.316.826 25.83-.135 81.9-11.327 104.027-23.244 57.221-56.312 84.977-45.365 155.541 3.847 25.896 12.49 57.204 20.756 89.875 67.683 249.418-73.936 157.854-78.973 121.078-12.296-56.188-88.93-74.298-142.603-59.671-35.595 10.69-83.511 78.648-93.125 102.47-6.457 15.048-9.43 29.116-11.74 44.991-13.898 148.061-60.855 203.29-53.486 255.316 2.619 26.188 14.956 55.671 43.598 98.73 69.355 109.52 125.628 82.229 98.199 100.417-107.455 68.487-177.501 123.034-189.647 233.67 6.54 48.356 86.358 77.731 121.897 57.163 42.895-19.985 90.224-73.213 129.585-84.476 54.695-19.158 76.43 81.35 65.746 134.3-34.496 167.643 99.194 122.721-7.504 279.096-103.644 219.79-123.948 268.835-145.681 435.244-24.957 145.048 27.828 141.538-8.342 214.094-84.171 168.152 5.078 125.284-94.611 278.478-9.604 17.405-15.677 30.068-19.005 46.539-29.616 141.04-35.815-1.461-54.531-42.02-15.215-45.63-36.507-85.882-50.262-131.558-37.574-215.308-65.32-196.941-132.442-359.412-13.786-35.391-21.966-69.55-28.558-105.333-36.739-283.425-104.3-335.875-184.484-557.889" clip-rule="evenodd"/></svg>