<svg xmlns="http://www.w3.org/2000/svg" width="400" height="200" viewBox="-11.525 -0.282 44.974 22.487"><path d="M20.862 14.09c-.858-.732-1.874-1.208-2.895-1.665-.381-.169-1.126-.202-.945-.743.317-.948-.228-.766-.734-.75-1.466.046-2.491-.72-2.946-1.999-.396-1.106-1.02-1.916-2.044-2.301-1.572-.59-.412-1.919-.837-2.835-.189-.412.787-.34 1.155-.645.182-.151.455-.263.689-.269.743-.021.521-.535.391-.848-.154-.368.411-1.058-.494-1.116-.503-.034-1.231.002-1.46-.299C9.867-.526 8.941.27 7.985.251c-1.163-.021-1.637 1.804-2.941.89-.396 1.014-.889 1.244-1.569.21-.027-.039-.347.019-.369.081-.311.976-1.158.819-1.88.913-.263.035-.633.27-.57.35.726.931-.418 1.825.039 2.826.468 1.023 1.628 1.84 2.362 1.259 1.729-1.367 3.295-.938 3.881 1.208.282 1.041.993 1.603 1.724 2.133 1.315.958 2.381 2.187 4.146 2.652 1.195.319 2.126 1.67 3.295 2.425.745.48.938 1.509.888 2.292-.026.469-.673 1.016-1.44 1.248-1.406.425-2.777.195-4.161.145-.435-.015-.705.062-.778.496-.069.42.152.604.547.769.979.405 1.95.849 2.87 1.37.413.232.775.584 1.231.301.455-.284.438-.766.221-1.306.071-.457.048-1.31.658-1.215 1.351.214 1.325-.943 1.947-1.481 1.042-.905 1.234-1.444-.018-2.199-.097-.057-.04-.484.044-.706.309-.837 1.21-.837 2.124-.002.268.245.442.828.905.348.433-.446.08-.86-.279-1.168" style="fill:#fff"/><path d="M4.772 12.595c-.62.242-2.5.355-1.308 2.063.163.232.022.675.022 1.168-.112.552-.347 1.512.688 1.451.688-.04 1.806-.304 1.607-1.631-.081-.517.271-1.101.195-1.62-.1-.686-.25-1.803-1.204-1.431" style="fill:#fff"/></svg>