<svg xmlns="http://www.w3.org/2000/svg" width="400" height="200" viewBox="-123.735 8.997 530.937 265.469"><path fill="#fff" fill-rule="evenodd" d="M48.697 12.315c2.087.496 3.852 1.145 4.894 2.101 3.261 2.989 4.076 9.24 11.142 7.881s10.87-5.707 15.218-3.805c4.348 1.903 6.794 2.718 10.326 5.163s5.979 2.99 8.696 4.348c2.718 1.358 2.717 2.445 6.522 2.989 3.805.543 2.174 10.326 7.338 15.489s12.093 3.941 20.381 5.299 14.81 1.359 19.566 6.386 12.364 11.956 15.761 11.956 8.832-6.25 11.278-9.375 6.521-4.891 4.755-8.56-4.484-12.093-2.31-16.033 9.104-11.278 11.685-12.093 6.658-1.36 11.277-2.991c4.62-1.63 11.549-2.989 14.539-1.766 2.989 1.223 10.19 3.94 11.006 5.299.815 1.359.815 5.707 2.174 7.337 1.359 1.631 5.843.68 7.065 1.087s2.853 2.853 5.435 3.397 5.707-.544 9.647-.544 8.56.815 9.375 2.582c.816 1.766.816 7.473.816 7.473s-4.413-.585-4.413 4.442 3.397 8.425 1.902 10.191-5.571 9.511-5.163 10.19 5.434 13.995 5.705 21.74c.272 7.745 4.234 131.885 4.234 131.885.545-.001.595 36.131.595 36.131l-14.811.001-.009 10.632c-29.086-16.314-120.865-67.858-122.637-69.687-2.106-2.174-8.017-4.688-10.191-4.145s-23.777 13.859-25 15.286-4.348-1.019-6.59-2.786c-2.242-1.766-5.774-6.862-10.734-9.307-4.959-2.446-20.583-5.57-20.583-5.57s-5.978-7.202-6.929-9.511c-.951-2.31-5.028-3.804-8.832-8.424s-9.511 1.902-9.511 1.902-3.533-2.446-4.348-5.028-2.718-8.424-2.718-11.413-4.481-9.918-4.481-9.918-7.473-3.94-4.348-10.055c3.125-6.114 9.104-.816 5.843-9.104s2.175-13.994 2.991-17.12c.816-3.125-2.446-5.028-3.125-8.832s.545-18.751-1.629-23.507c-2.174-4.755-5.979-9.512-5.027-12.093.952-2.582 11.143-8.558 12.638-10.189s2.446-6.386 2.038-8.968-2.853-4.348-3.261-8.153c-.408-3.804 7.745-6.386 7.745-6.386s12.23-6.793 14.676-9.51c2.446-2.718-.951-4.755-.951-4.755z" clip-rule="evenodd"/></svg>