<svg xmlns="http://www.w3.org/2000/svg" width="400" height="200" viewBox="-76.044 32.846 435.551 217.775"><path fill="#fff" fill-rule="evenodd" d="M222.468 201.76c1.626-2.877 4.878-8.881 3.752-16.761s-.876-14.009 5.128-19.387 12.258-4.753 16.261-9.882-3.502-8.757 3.878-11.508c7.379-2.752 12.007 1.126 14.259-1.876s10.132-9.506 10.757-10.882c.626-1.376-13.634-3.628-15.385-3.628s-7.255 2.752-4.128-2.377 5.504-12.008 5.754-12.758c.25-.751 7.757-1.377 4.88-8.132-2.877-6.754-8.631-7.504-12.508-7.88-3.878-.375-9.007-7.505-13.134-13.759s-13.258-14.76-20.388-19.263-11.382-4.879-17.261-5.254-14.26-10.757-17.262-16.261-7.005-6.38-10.757-2.127-6.629 11.758-10.257 11.758c-3.627 0-6.754-8.881-10.507-2.627s-6.38 5.065-9.945 1.375-11.32-6.068-17.199-7.319c-5.878-1.251-10.132 5.003-14.635 1.376s-1.376.751-12.133 2.502-10.007-8.506-19.513-8.506-17.761-6.254-28.769-.751c-11.007 5.504-19.012 6.504-23.265 8.506-4.253 2.001-25.016 6.503-23.015 29.018s7.004 28.019 4.002 35.023 2.502 19.013 11.007 24.516c8.506 5.503 22.015 7.505 27.518 13.008 5.503 5.504 22.515-1 26.518 5.504s19.013 8.506 14.01 19.513-11.007 10.507-10.507 19.013 2.253 16.762 8.757 17.262 12.508-.25 15.76 8.506 17.511 8.756 16.01 17.261c-1.501 8.506 4.002 14.01 11.007 12.759s9.257-7.255 16.261-3.252 17.761 4.003 20.013 2.001c2.251-2.001 3.752-10.757 6.254-9.506s7.255 6.254 8.756 3.752-4.253-9.005-.25-13.258 7.005 5.504 13.259-.25 12.508-12.008 12.508-12.008 7.505-7.004 7.755 1.751c.25 8.756 4.254 12.509 8.757 10.257s5.753-6.004 1.5-11.008c-4.251-5.005-3.503-14.441-3.503-14.441" clip-rule="evenodd"/></svg>