<svg xmlns="http://www.w3.org/2000/svg" width="400" height="200" viewBox="-361.049 568.120 3730.771 1865.385"><path fill="#fff" fill-rule="evenodd" d="M102.769 614.663c254.41-95.072 488.62 133.445 647.19 118.226 209.659 1.27 147.518-61.457 252.108-41.03 54.26 11.54 101.86 21.729 141.816 47.533 30.953 23.012 47.272 57.705 72.741 88.455 104.673 90.245 49.66 41.481 108.647 115.054 12.902 14.206 31.042 10.653 46.397-2.895 22.255-19.195 39.702-49.86 60.139-55.001 53.126-15.126 149.087 21.861 177.11 55.89 37.124 39.306 54.84 102.152 84.068 139.343 125.894 160.473 126.908 139.367 224.911 167.33 11.266 4.569 42.676 11.547 32.394 21.647-35.456 55.395-38.065 116.667-42.493 177.344-17.046 367.627 33.67 324.334 92.681 411.24 22.073 34.233 32.966 67.56 62.52 93.636 31.025 27.651 70.8 32.6 106.39 48.134 30.345 11.394 48.065 44.024 81.082 48.116 48.187 5.787 90.955-16.682 139.176-21.848 74.047-11.174 116.25-32.044 153.212-93.217 24.705-41.737 44.892-77.578 49.711-118.684 9.116-77.003 101.363-89.1 170.684-88.745 32.246-.269 60.595 2.96 85.179.895 138.725-13.914-17.83 27.33-12.597 183.74-1.62 25.88-3.501 51.182-11.712 73.82-9.79 43.368-105.44 86.407-163.466 111.034-21.94 17.036-139.374-1.142-138.402 37.574 152.713 210.08-51.392 100.932-77.221 182.839-12.42 32.033.828 74.053-24.232 95.095-11.671-2.336-21.215-11.55-30.932-19.412-251.435-217.834-296.937-77.896-420.897-96.867-68.25-8.831-131.28-36.96-194.814-61.18-188.653-52.474-161.2-89.482-290.44-151.655-48.67-20.165-111.13-25.915-144.101-49.625-57.52-40.563-157.42-125.492-161.32-176.147-4.535-26.31 14.207-66.505 10.807-102.605-6.68-54.18-42.107-160.976-72.224-187.81-77.962-71.427-88.91-127.515-143.616-188.574-45.414-52.327-101.906-67.456-161.991-105.492-7.354-6.77-.876-28.275-6.422-41.07-18.064-80.057-103.757-134.107-166.532-194.112-104.747-91.298-93.59-248.36-201.269-309.46-24.94-13.976-58.233-25.36-81.97-14.213-63.087 74.002 29.678 148.322 69.12 218.521 104.6 211.62 152.223 177.57 201.351 281.972 42.43 87.038 58.158 186.549 113.988 229.647 32.4 27.729 76.925 57.283 85.36 87.945 6.126 20.495-6.998 42.924-47.05 62.327-52.804 23.276-65.245-63.731-95.687-89.77-137.762-138.818-93.838-106.86-120.946-240.381-24.828-80.057-117.892-68.895-179.688-98.931-96.663-59.73-14.894-72.13-10.448-114.614-1.136-50.732-34.615-82.216-69.52-107.647-13.41-10.531-25.75-20.696-36.219-34.362-17.6-22.885-28.015-48.55-37.643-75.716-42.541-160.248-126.777-148.501-124.93-216.294" clip-rule="evenodd"/></svg>