<svg xmlns="http://www.w3.org/2000/svg" width="400" height="200" viewBox="56.842 790.058 2886.757 1443.379"><path fill="#fff" fill-rule="evenodd" d="M167.22 1253.033c-9.346-60.877-92.333-78.496-70.714-150.876 15.986-50.328 73.256-26.465 116.07-40.52 70.963-38.904 147.341-98.434 232.692-115.084 57.425-13.567 81.019-.132 114.407 14.552 20.25 9.023 44.059 8.832 65.62 13.39 60.249 11.686 18.95 86.01 98.162 94.019 47.429 2.072 83.793-15.492 121.962 14.591 22.622 15.424 42.56 33.923 72.917 32.82 28.644-3.99 81.992-21.987 81.275-50.568-25.054-119.564-23.143-88.775 25.683-187.86 25.967-92.803 64.914-15.004 116.571-5.026 55.75 16.974 116.033 25.319 166.076 53.551 58.327 65.411-10.553 104.998 108.43 138.488 29.563 8.966 50.744 19.11 65.732 15.38 16.363-5.186 40.542-24.148 56.099-31.522 30.661-12.475 86.734-12.715 128.703-8.85 172.616 24.867 127.112 131.736 371.575 138.523 70.952 7.65 86.895-16.654 130.064-36.226 23.46-11.128 50.845-8.292 72.157-25.318 24.602-19.56 29.612-50.877 53.898-68.837 112.439-69.165 124.932-21.008 150.385-11.345 45.424 26.354 121.696-84.83 131.127 14.221-1.543 25.41-12.612 40.657-22.47 63.792-8.838 24.438-8.564 44.42-18.118 68.759-57.113 110.935 33.404 115.532 48.539 109.745 45.264-20.185 65.466 4.982 82.607-6.948 8.493-5.392 13.26-12.83 18.676-21.533 56.214-98.335 160.023-7.815 202.272 50.005 76.302 94.851-90.47 71.648-104.234 82.142-46.27 16.277-82.664 39.748-130.123 63.613-94.522 56.339 16.487 95.612-147.332 147.66-18.183 6.81-35.631 14.312-51.527 25.922-19.333 14.122-33.86 34.197-49.626 49.675-73.281 70.786-119.108-23.913-161.128 13.834-18.201 14.635-27.082 42.993-29.229 67.701-7.121 71.286 89.486 81.964-54.645 144.816-15.932 7.259-28.963 14.685-42.742 28.389-26.316 26.375-37.028 57.521-58.795 83.194-80.25 91.954-214.083-6.779-298.866 62.441-41.845 29.552-76.814 77.446-122.985 97.638-88.264 36.005-75.017-40.023-134.614-45.12-167.635 12.728-111.981-24.782-230.996-73.741-27.847-7.216-54.51-5.973-81.622-3.95-221.289 34.733-190.297-43.46-349.536-35.905-133.363-4.573-92.622-59.506-122.513-120.266-11.529-20.014-24.773-34.82-25.511-61.874-.708-86.689-83.515-55.354-121.016-85.537-13.311-9.952-21.1-21.123-29.416-32.973-54.15-90.302-135.616-27.525-204.483-46.518-12.707-3.707-23.628-16.28-35.562-24.051-10.56-6.586-26.136-10.247-33.835-21.768-29.172-48.392 51.79-137.72 62.284-181.418-.114-28.354-41.117-44.72-47.782-69.009-8.195-20.404-3.165-45.634-10.605-61.9-14.518-28.588-79.693-52.882-103.959-64.318" clip-rule="evenodd"/></svg>