<svg xmlns="http://www.w3.org/2000/svg" width="400" height="200" viewBox="-1377.258 56.874 5762.007 2881.003"><path fill="#fff" fill-rule="evenodd" d="M882.001 1254.015c-26.809-91.784 55.798-35.405 32.572-156.045-2.418-20.8-3.94-40.783 1.845-55.587 3.412-17.262 48.548-9.035 66.16-19.51 11.632-6.888-.755-47.654 4.45-62.598 2.069-16.333 7.09-25.59 14.992-38.863 44.624-64.755 27.66-93.238 22.029-149.251-12.494-31.358 81.216-3.316 84.105-8.478 34.389 4.016 76.633-99.729 91.51-128.025 10.356-18.965 3.204-49.554 5.245-74.415 9.13-42.944 47.82-73.57 63.04-115.746 19.236-61.639-30.21-98.9 24.742-119.799 218.784-121.433 140.762-79.782 221.36-57.875 9.66-90.346-4.747-69.981 51.187-119.48 6.458-11.016 13.468-52.944 19.693-55.456 13.746 8.767 169.316 147.009 183.55 180.347 56.42 109.8-56.551 200.538-57.1 281.978-1.145 7.864-3.156 14.718-7.469 21.696-42.8 47.657-139.127 68.054-96.94 154.247 25.304 37.206 97.981-12.015 131.935 1.406 13.293 4.88 21.89 24.595 25.283 42.259 6.11 110.773 103.447 86.83 115.47 151.114-21.817 92.207-121.738 94.153 143.196 194.948 90.895 19.254 141.899-31.127 82.488 22.67-63.923 44.58-54.031 62.165-85.669 99.828-79.065 90.642-49.936 58.105-137.025 90.39-14.236 6.587-24.655 17.544-33.604 31.138-67.553 113.023-122.31 43.643-198.34 171.951-53.06 40.265-35.122 77.877 8.963 112.133 50.237 36.804 85.533 47.986 82.503 107.01-12.56 159.436 144.454 128.84 6.04 309.975-13.543 19.08-23.742 34.36-22.981 43.332 20.83 98.736 155.869 123.08 159.486 201.446 2.085 36.378-16.274 78.125-14.195 113.524 1.83 43.688 44.376 73.7 59.146 109.993 21.527 57.803-21.445 147.74-59.06 215.183-24.48 44.432-54.837 70.013-75.18 130.47-37.812 87.164 7.703-109.47 14.145-169.816 8.376-58.144-22.486-110.726-30.584-171.27-3.492-19.525-4.204-37.338.374-57.386 36.702-116.208-68.445-130.65-93.936-220.383-98.77-280.915-4.694-298.503-136.512-467.398-8.573-10.74-52.048 70.733-76.248 106.437-52.509 60.928-156.147 126.635-238.578 120.38-86.537-11.677-87.314-19.884-75.257-91.771 11.098-78.481 39.395-206.144 16.116-291.809-18.05-47.14-65.084-76.338-79.637-124.206-10.151-31.178-11.985-65.734-26.31-95.325-36.852-68.053-139.096-100.688-187-163.363" clip-rule="evenodd"/></svg>