<svg xmlns="http://www.w3.org/2000/svg" width="400" height="200" viewBox="-134.761 3.487 552.987 276.494"><path fill="#fff" d="M238.067 109.729c-3.188 0-9.561-2.552-9.561-10.52s3.824-11.155 7.012-8.923 12.429 6.375 14.343 5.1c1.912-1.276-.32-3.187 1.912-12.112 2.231-8.924 6.374-15.617 7.968-21.355 1.594-5.736 3.506-13.704.637-19.76s-5.418-10.199-11.156-13.387c-5.736-3.187-12.748-8.924-14.343-14.023-1.593-5.099-8.922-4.781-15.616-1.275s-9.562 5.418-17.211 5.418-17.211 0-21.036 2.231-14.98 7.33-17.211 10.517c-2.231 3.188-12.749 10.838-12.749 13.706s-5.1 19.443-3.187 24.542 14.023 4.144 16.254 4.462c2.231.319-1.594 9.88-.637 13.068.956 3.187 11.474 12.112 11.474 14.661 0 2.551-16.573.32-21.354 5.738-4.782 5.418-10.837 13.705-14.025 13.705-3.187 0 .318-10.518-2.55-14.343-2.869-3.825-1.276-13.386 2.55-13.705s15.618-4.462 8.924-8.924c-6.693-4.463-12.111-8.924-12.43-14.98-.32-6.057-9.562-5.101-12.43-8.925s-.956-20.079 8.287-25.178 15.618-12.749 26.773-14.343 16.314-17.175 2.608-13.669-20.101 8.612-26.157 9.249c-6.055.638-23.554 17.709-28.015 25.039s2.162 31.014.887 35.476c-1.275 4.463-.637 32.828-11.793 49.721s-9.246 23.266-23.27 33.465-19.117 11.548-21.985 17.923c-2.869 6.375 20.392 9.168 20.392 18.412s-25.817-6.056-30.279-1.594c-4.461 4.463-9.129 20.788 5.532 22.063s22.311-10.198 27.41-2.868 19.011 7.579 21.56 2.798c2.55-4.781 11.475-10.838 16.892-5.738 5.418 5.1 19.761-5.419 24.224 1.912 4.462 7.331 5.418 17.849 12.749 14.98 7.33-2.869 21.992 4.462 22.628 9.562.637 5.1-2.23 15.619-3.187 21.036s-4.62 7.33 1.116 12.111c5.738 4.781 12.75 6.375 14.662 5.101 1.912-1.276 11.793-9.881 11.793-13.069 0-3.187-12.75-7.649-12.75-14.024s8.287-5.418 12.75-8.924 6.055-10.199 3.187-10.199c-2.869 0-17.531 1.911-8.925-4.143 8.607-6.056 17.53-7.969 15.299-18.168s-8.287-12.749-11.156-20.079-5.419-14.981-3.506-17.211 14.982-2.868 19.124-1.911c4.142.955 16.892-1.913 19.122-2.869 2.232-.957 11.794-8.925 11.794-8.925s-8.605-1.595-8.286-7.331c.318-5.736 8.286-11.155 10.835-11.793 2.551-.637 5.26-5.736 6.536-15.458 1.274-9.721-1.913-11.952-3.348-12.271-1.432-.32-9.081.001-9.081.001"/><path fill="#fff" d="M21.608 235.197c.159.797 1.116 13.068 9.403 7.809s11.633-7.809 14.502-4.463 11.474 8.606 17.052 7.65 13.068-6.852 13.705-8.765-3.028-8.446-3.028-8.446-11.316-.478-15.14-.956-7.012 3.506-15.458-.319-15.776-6.216-17.211-3.825-3.825 11.315-3.825 11.315"/></svg>