<svg xmlns="http://www.w3.org/2000/svg" width="400" height="200" viewBox="-1384.183 57.613 5767.009 2883.505"><path fill="#fff" fill-rule="evenodd" d="M775.878 1124.793c-274.557-146-113.352-143.52-210.064-266.444-9.553-14.056-17.897-27.694-22.813-43.548-32.9-114.586 131.098-266.329 141.959-200.35 22.58 145.483-59.554 78.373 137.785 221.927 94.84 27.859 187.422-214.482 240.355-268.134 148.748-168.938 242.875-4.598 376.595-258.993 23.562-45.16 47.453-94.264 55.895-145.87-2.444-25.955-33.44-57.501-11.64-66.345 43.669-10.205 81.482 4.747 98.59 17.729 66.099 47.43 148.971 184.304 200.72 246.53 38.682 39.15 37.676 68.963 73.374 81.294 53.785 16.011 98.626-23.129 151.966-12.471 199.948 39.461 314.164-7.857 205.51 129.714-11.986 14.407-18.675 35.357-17.917 52.957 14.68 129.307-156.366 110.625-232.263 154.02-208.801 150.544-119.493 202.07-144.438 270.026-14.986 27.52-45.088 56.57-70.553 86.45-27.849 30.455-62.971 83.603-58.56 107.48 9.936 16.983 79.23 82.192 93.5 103.426 11.402 20.196 43.212 88.558 31.105 104.8-16.02 27.601-24.386 35.333-15.967 47.299 19.13 31.006 119.561 127.944 154.873 149.787 9.43 6.872 38.928 12.11 72.82 14.514 79.665 6.494 68.98-22.668 120.75-45.809 18.548-.082 30.004 32.46 28.07 56.98-3.643 72.84-42.583 182.349 60.071 153.774 82.1-34.955 144.676 10.029 192.368 78.505 81.69 106.622-19.877 94.81-9.807 195.659 1.218 116.81 26.878 163.001-19.697 266.86-30.968 72.929-54.863 82.493-77.402 101.797-10.952 9.457-20.84 24.2-17.08 27.948 7.008 16.885 53.63 54.568 79.508 85.97 59.493 66.42-55.962 113.042-87.069 216.507-18.83 43.175-50.201 107.257-84.526 116.032-55.72 4.043-113.271-39.736-132.482-86.519-30.81-75.51-33.123-67.568-95.597-110.163-68.804-44.734-153.52-97.488-176.864-108.936-217.51-91.848-200.25-44.96-329.11-207.067-205.554-173.09-76.97-178.39-121.456-298.116-16.728-29.591-48.103-47.255-76.476-65.028-90.036-49.493-76.686-119.468-112.444-187.34-132.563-266.37-111.695-185.15-148.665-256.423-121.238-315.931-111.026-242.114-242.924-460.429" clip-rule="evenodd"/></svg>