<svg xmlns="http://www.w3.org/2000/svg" width="400" height="200" viewBox="-11.002 -0.268 42.935 21.468"><path fill="#fff" d="M16.84 18.524c.413.282.307.786.502 1.171 1.234-2.338.827-4.45-1.396-5.575.729 1.064.27 1.215-.495 1.398-.507.122-.899.71-1.354 1.074-.021.018-.141-.119-.226-.157-1.119-.51-2.838.318-3.11 1.526-.047.21-.435.54.053.698.263.085.404-.104.521-.366.544-1.221 1.715.028 2.45-.577.048-.04.387.263.28.562-.489 1.387.231 2.014 1.464 2.261.304.062.438.637.854.271.389-.344.398-.803.205-1.208-.224-.472-.351-.844.252-1.078M7.292 3.634c-.014-.005-.135.235-.125.351.145 1.484.938 2.652 1.849 3.765-.042.641-.674.1-.876.47.207.396.391.846.66 1.234.221.317.282 1.014.837.778.547-.23.537-.864.424-1.405-.072-.344-.768-.573-.172-1.03l.251-.18c.908.699 2.255.515 3.044 1.508.062.077.444.747.883.181.369-.476-.271-.509-.295-.802l.424-.308h.001a.46.46 0 0 0 .151-.21l.082-.109c-.022-.005-.043-.016-.064-.022a.3.3 0 0 0-.043-.125.5.5 0 0 0-.105-.122c-.078-.063-.303-.058-.375.008-.017.015-.022.031-.037.045-.426-.172-.847-.374-1.275-.525l-.051-.017a4 4 0 0 0-.391-.113q-.068-.017-.135-.029a3 3 0 0 0-.492-.055 2.4 2.4 0 0 0-.343.021q-.076.004-.153.017a2.4 2.4 0 0 0-.512.151c-.24-1.3-.953-2.651.728-3.632.308-.177.709-.943.3-1.45C10.974 1.4 11.2.758 11.314.021c-.365.053-.637.151-.892.115C8.186-.163 8.25-.165 8.043 2.24c-.026.321 1.007 1.804-.751 1.394m7.341 7.786c-.215-.06-.134.296-.164.47a.32.32 0 0 0-.238.023c-.483.232-1.256 1.027-1.441.232-.298-1.277-1.431-.81-2.005-1.578l-.138 2.396c.492.331.946-.591 1.321.057.123.211.051.509-.246.741-1.077.847.148 1.162.49 1.476.668.608.691-.247.922-.586.16-.235.312-.479.467-.717.494-.191 1.139.574 1.535-.24.629.149 1.116-.153.812-.72-.689-1.28.684-.559.83-.951-.166-.513-.422-.943-.338-1.542.07-.509-.375-.879-.932-.874-.357.004-.863-.231-1.045.235-.172.442.305.641.567.91.674.688.668.962-.397.668m-9.115 2.323c-.68.948-1.894 1.422-2.615 2.867 1.42-.752 2.419-1.363 2.82-2.617 1.246-.346 1.722-1.037.996-2.313-.44.684-.499 1.571-1.201 2.063"/></svg>