<svg xmlns="http://www.w3.org/2000/svg" width="400" height="200" viewBox="-21.176 5.655 107.388 53.694"><path fill="#fff" d="M26.359 8.035c.095.284.283.666.966 1.145a.5.5 0 0 0 .227.048c.189 0 .393-.083.493-.222.188-.262.152-.689-.026-.859-.284-.38-.644-.56-.961-.719a.5.5 0 0 0-.551.07.5.5 0 0 0-.148.537"/><path fill="#fff" d="M62.566 39.256c.097-.028.204-.054.272-.07.3-.07.61-.144.704-.478a.58.58 0 0 0-.199-.58 28 28 0 0 0-.558-.41c-1.117-.813-2.646-1.928-3.127-2.939-.02-.05.01-.233.027-.343.041-.259.093-.581-.032-.953-.146-.338-.408-.601-.641-.833-.185-.185-.359-.36-.432-.528-.174-.39-.068-1.057.034-1.702.174-1.104.391-2.476-.689-3.34-.711-.534-1.529-.732-2.109-.803-.178-.051-.354-.011-.546.128a.13.13 0 0 1-.033-.07c-.063-.325.244-1.245 2.994-3.765.148-.135.259-.237.316-.294.108-.108.361-.359.36-.74-.138-2.535-1.428-4.817-2.674-7.023-.776-1.373-1.509-2.67-1.985-4.022a.37.37 0 0 0-.165-.216c-.021-.048-.021-.218-.021-.33 0-.341 0-.808-.303-1.212-.653-.941-.949-1.313-1.608-1.118-.152.044-.38.112-1.113-.202-.08-.032-.103-.066-.178-.262-.171-.448-.489-.923-1.449-.603-.318.106-.443.378-.519.542-.018.039-.04.088-.003.071-3.22 1.888-12.723 2.196-16.644 1.647a.5.5 0 0 0-.433.151c-1.255 1.326-3.052 1.891-4.369 1.376-.708-.283-.842-.768-1.004-1.537-.066-.314-.134-.638-.296-.98a.498.498 0 0 0 .018-.868c-.517-.31-.971-.494-1.386-.563-2.307-.385-4.681 1.145-6.592 2.374-.387.249-.751.483-1.075.676-.222.123-.491.172-.776.223-.402.073-.858.155-1.237.48-.808.713-1.236 1.665-1.521 2.294-.076.169-.167.372-.228.473-2.094.521-4.108 1.349-6.056 2.15-.511.21-1.021.42-1.55.632-.367.164-.66.439-.918.682-.247.232-.48.451-.768.521a1 1 0 0 1-.21-.049c-.208-.063-.525-.157-.921.006-.741.411-.328 1.286-.082 1.809.031.065.068.143.102.219l-.035.014a.5.5 0 0 0-.273-.168.6.6 0 0 0-.191-.072.5.5 0 0 0-.29-.083.6.6 0 0 0-.121-.03 1 1 0 0 0-.108-.061.5.5 0 0 0-.304-.123h-.092c-.276 0-.464.224-.464.5 0 .184.115.344.272.431a.4.4 0 0 0 .125.067.5.5 0 0 0 .28.14.6.6 0 0 0 .21.071.6.6 0 0 0 .149.06.47.47 0 0 0 .319.087.4.4 0 0 0 .071 0 .5.5 0 0 0 .236-.04c.061.074.144.13.237.16.167.698.526 1.564.85 2.344.224.541.456 1.1.498 1.305.082.656-.344 1.247-.794 1.873-.511.709-1.09 1.514-.752 2.429.198.593.91.918 1.663 1.262.488.223 1.304.595 1.304.86 0 .332-.109.574-.225.83-.189.419-.449.994.083 1.637.142.236.338.389.512.523.143.111.266.207.299.305a.5.5 0 0 0 .046.101c.028.048-.01.258-.03.371-.038.206-.08.439-.016.741.096.286.319.408.49.471-.011.198-.198.61-.557 1.227-.08.138-.147.256-.16.289-.492.738.102 1.313.421 1.621.163.157.331.319.375.435-.002.037-.047.14-.076.208-.097.225-.277.644-.01.999.272.408.71.505 1 .569.096.021.241.053.291.094.583.533.595 3.845.02 5.21a.5.5 0 0 0 .534.689c.528-.078.884-.258 1.086-.549.241-.347.184-.731.133-.986q.108.01.291.041c.111.013.187.026.237.039-.016.245-.043.74.501 1.136.771.625 1.482.655 2.054.68.39.017.698.03.954.185.025.02.042.091.066.196.03.137.067.307.175.468a.5.5 0 0 0 .192.169.61.61 0 0 0 .625-.044c.02.163.077.354.243.521.157.156.4.191.593.086.593-.324 1.272-.601 1.5-.614.152.074.248.135.308.179a5 5 0 0 1-.324.238c-.438.304-1.039.72-.934 1.4a.5.5 0 0 0 .234.351l1.527.932.083.199c.266.639.892 2.134 2.223 1.6.362-.182.455-.542.516-.78.016-.063.04-.158.001-.133.057-.045.237-.081.37-.108.344-.069.816-.164 1.046-.627.172-.343-.022-.584-.493-1.166-.048-.06-.108-.133-.17-.212.363.14.734.357 1.06.55.321.189.599.353.887.446.278.072.556.021.779-.02.172-.03.321-.036.491-.011q.081.013.175.023l-.055.05c-.152.115-.275.39-.239.576.075.389.447.489.84.596.128.035.339.093.341.076a1 1 0 0 1 .05.164c.044.178.104.42.31.626.219.218.595.329.904.356.628-.064 1.1-.113 1.273-.443.527.224 1.16.358 1.157.35.257.086.531.079.772.08a5 5 0 0 1 .425.004c.07.158.191.464.313.768.381.953.404.996.556 1.141.256.192.559.204.803.213.093.005.25.01.247-.016.046.057.06.256.071.4.021.292.047.654.261.919.217.326.565.309.795.271-.039.232-.053.555.232.838.333.271.655.281.866.249.681-.115 1.148-.871 1.602-1.603a8 8 0 0 1 .464-.695c.051.086.096.198.145.32.101.25.215.534.453.771a.5.5 0 0 0 .179.117.56.56 0 0 0 .432.442c.305.063.573-.038.769-.11l.067-.025c.011.139-.012.404-.121.904-.033.151-.05.228-.05.31a.6.6 0 0 0 .289.535c.1.059.2.082.3.082.229 0 .458-.127.682-.251.067-.038.168-.094.25-.131l.067.054c.179.146.547.446.989.229a.5.5 0 0 0 .129-.094c.074-.074.104-.136.2-.343.775-1.646 1.258-1.97 1.462-2.018.033.004.123.044.183.07.184.081.436.204.703.141.263-.065.431-.237.553-.362l.036-.038c.113.045.256.171.395.293.276.244.621.549 1.105.549.526 0 1.033-.365 1.443-1.058a.5.5 0 0 0 .042-.126.44.44 0 0 0 .244-.053c.268-.091.394-.306.495-.515 1.011-.229 3.148-.13 3.821.377.017.028.041.123.058.187.062.238.154.599.463.748.372.248.771.325 1.124.394.146.028.293.057.433.096.724.223 1.398.32 2.051.415l.73.105c.17 0 .339-.024.507-.052.141-.022.271-.043.372-.038.033.03.066.065.096.095.099.099.404.399.753.149.177-.126.242-.384.177-.59-.387-1.225-.49-1.554-.927-1.575-.174-.022-.298.047-.412.178l-.05-.056c.021-.049.051-.11.074-.157.111-.229.251-.513.176-.877-.119-.398-.347-.732-.566-1.057-.201-.295-.392-.575-.487-.932.138-.969 3.979-8.114 4.531-8.677.365-.305.654-.318.961-.332.9-.043 1.354-.364 1.498-2.118 0-.323-.162-.84-1.405-2.052"/></svg>