<svg xmlns="http://www.w3.org/2000/svg" width="400" height="200" viewBox="-51.415 45.159 386.294 193.147"><path fill="#fff" fill-rule="evenodd" d="M6.996 130.035s-1.01-6.283 5.61-6.732 13.128-2.244 15.708-2.581 6.844.56 7.742-2.805S50.979 90.764 52.55 85.603s6.957-19.299 16.382-21.992 12.791-2.468 15.933-5.385 7.63-11.22 10.548-8.976c2.917 2.244 9.424 4.488 13.913 6.507 4.488 2.02 13.913-.897 17.504 1.795s6.283 4.937 9.425 7.405 3.141 5.385 7.63 2.917.225-8.529 9.65-9.426 10.772 1.122 15.035-.897c4.264-2.02 4.264-4.937 10.323-8.303s15.26-1.122 16.606 2.02 3.141 5.61 5.61 11.445c2.468 5.834 11.669 16.605 16.157 24.908s10.323 10.547 13.016 17.279 3.142 10.996 1.571 16.83-6.059 7.63-4.488 14.586 6.509 12.117 4.938 14.586 6.732 14.362 6.732 14.362 2.244 4.713 11.669 2.02 14.137-11.445 16.157-9.65c2.02 1.796 11.894 6.957 9.201 11.669s-2.244 5.162-2.244 9.649c0 4.488 5.386 5.161-2.917 6.283s-15.036.897-16.831 4.937c-1.795 4.039-4.711 8.976-4.936 17.054s1.796 19.299-.224 20.87c-2.02 1.57-2.02 4.263-8.303 1.122s-12.791-6.507-16.83-7.181c-4.039-.673-17.055-5.61-18.626-5.61s-7.182-.449-11.894 1.346-10.996 3.141-16.606 4.937c-5.61 1.795-9.874 5.834-10.772 6.956s-9.987 6.844-15.597 6.171c-5.61-.674-10.771-4.601-11.557-4.488s-6.844 2.468-9.649 1.122-3.367-6.058-6.733-2.917-4.712 7.068-9.313 3.59c-4.6-3.478-20.308-9.985-25.806-7.966s-12.118 3.029-13.24.561 6.62-6.059 7.293-7.181 5.499-2.02-2.356-5.162-12.567-3.478-11.669-8.639c.898-5.162 7.181-14.026-2.468-15.149s-8.302 12.343-13.015 8.303-5.834-10.996-9.201-11.445c-3.366-.449-8.078.001-8.078-4.937 0-4.937 11.893-9.874 3.815-13.465s-14.811-8.303-14.811-8.303-2.469-10.548-5.162-16.158c-2.693-5.608-11.336-13.568-11.336-13.568" clip-rule="evenodd"/></svg>