<svg xmlns="http://www.w3.org/2000/svg" width="400" height="200" data-name="Layer 1" viewBox="-44.457 105.602 601.409 300.704"><path fill="#fff" d="M479.81 225.466c-7.7-3.835-15.836-12.382-10.434-44.691 5.068-30.309-4.317-36.51-17.113-41.467-.748-.289-1.5-.581-2.257-.888-.894-.363-1.067-1.784-.8-6.608.377-6.887 1.08-19.708-16.333-22.047-8.526-1.144-14.258.137-17.519 3.923-4.382 5.087-2.381 11.989-.92 17.029a29 29 0 0 1 .871 3.437c.194 1.551-.263 2.619-1.316 4.887a27.76 27.76 0 0 0-3.1 12.74c0 6.8-1.258 9.142-14.594 18.526a74 74 0 0 1-11.81 6.355c-9.577 4.421-20.432 9.432-22.126 24.965-1.387 12.715-9.086 21.586-11.62 22.03a4.5 4.5 0 0 1-.693-1.209c-1.8-4.28-4.6-7.15-8.315-8.532-7.7-2.864-16.66 1.587-25.326 5.889-1.141.566-2.273 1.128-3.385 1.663-7.122 3.428-15 4.966-19.021 5 .838-1.349 1.954-2.785 3.044-4.192 3.4-4.378 8.534-11 3.9-17.463-4.765-6.645-10.273-4.191-14.3-2.4A47.5 47.5 0 0 1 275.968 206c-9 1.847-12.838 6.639-15.642 10.138-2.153 2.688-3.12 3.79-5.458 4.082-9.667 1.205-9.267 10.893-9.052 16.1.111 2.707.279 6.8-.854 7.624-4.225 3.083-8.653 9.249-8.389 15.5a3.69 3.69 0 0 1-1.48 3.1 3.16 3.16 0 0 1-2.956.5c-1.643-.56-1.907-1.212-1.907-2.555a31 31 0 0 1 .229-5.1c.138-.132.35-.322.53-.483a34 34 0 0 0 6.381-7.541c8.669-13.216.117-24.055-.253-24.51a5 5 0 0 0-2.541-1.67c-7.15-2-11.277 4.148-14.593 9.084-3.985 5.932-8.5 12.656-18.388 13.721-13.75 1.481-15.014.154-16.924-1.858a24.8 24.8 0 0 0-10.536-6.936c-8.98-3.356-24.278-.693-39.072 1.881-7.724 1.344-19.4 3.376-21.975 2.347-.039-.015-.064-.028-.074-.031-.1-.188-1.014-2.322 1.471-9.062a.84.84 0 0 1 .519-.512 1.03 1.03 0 0 1 .872.062c6.046 3.274 12.178 3.463 17.73.545 5.153-2.71 7.843-8.221 7.191-14.745-.854-8.573-7.807-19.036-19.44-22.447-9.844-2.885-15.817 4.7-21.586 12.038-6.727 8.557-14.351 18.255-30.288 20.831a37.37 37.37 0 0 0-25.876 16.5c-11.011 16.248-11.87 41.781-7.834 59.877 2.431 10.906.639 15.011-.244 16.269a2.7 2.7 0 0 1-1.46 1.142c-2.95-.178-14.493-.334-20.055 7.326-3.625 4.992-3.692 11.679-.2 19.874 14.553 34.137 24.484 49.876 33.2 52.624a9.2 9.2 0 0 0 7.842-.921c3.749-2.335 5.632-7.679 9.206-18.583 4.3-13.138 10.81-32.993 22-36.3 5.6-1.652 12.66.837 20.976 7.407 5.294 8.273 14.929 21.025 23.285 19.439 6.069-1.152 8.117-6.736 9.612-10.813 1.034-2.822 2.012-5.487 3.716-6.3a31.6 31.6 0 0 0 6.5-4.3 11.8 11.8 0 0 1 2.416-1.7 4.4 4.4 0 0 1 1.866.807c.8.483 1.525.935 2.208 1.358 6.2 3.841 9.378 5.589 19.691 6.764 2.162.246 2.943 1.336 4.691 5.234 1.707 3.807 4.888 10.895 14.131 9.269 6.174-1.087 7.868 1.39 12.8 10.143l.928 1.641c7.443 13.091 19.716 19.688 36.566 19.688a76 76 0 0 0 10.748-.805c15.366-2.191 21.076-6.01 24.488-8.292 2.186-1.462 2.187-1.462 4.475-.819 6.066 1.7 10.95-.863 14.874-2.921 4.715-2.475 7.834-4.106 13.363-.724 9.426 5.766 15.98 3.218 21.248 1.173 4.144-1.61 7.725-3 13.686-1.515 11.159 2.78 15.8-.813 19.886-3.985a22.83 22.83 0 0 1 12.744-5.507c13.1-1.8 13.393-13.364 13.586-21.016.238-9.314 1.056-11.027 5.473-11.461 7.881-.771 9.307 1.216 11.47 4.226 2.076 2.887 5.213 7.251 12.882 7.251 3.492 0 14.118 0 17.992 4.432 1.541 1.762 2.058 4.33 1.583 7.849-.916 6.781-.124 12.514 2.352 17.038a12.609 12.609 0 0 0 23.136-2.6c10.387-35.927 4.679-49.864-.841-63.343a88 88 0 0 1-4.584-13.19c-1.252-5.214-1.978-8.026-3.546-9.971-2.758-3.423-6.55-2.641-8.815-2.174a28.9 28.9 0 0 1-9.164.592 3.38 3.38 0 0 1-2.762-1.5c-3.1-4.318-2.012-16.2-.254-23.254a4.05 4.05 0 0 0 .017-2.374c-.1-.7-.688-6.573 5.171-16.714 4.171-7.223 4.619-15.761 4.947-21.994.044-.848.1-1.815.16-2.733 2.384 2.279 4.3 5.792 6.727 10.239a113.5 113.5 0 0 0 9.135 14.712c8.348 11.1 19.285 18.952 26.6 19.106a8.76 8.76 0 0 0 7.135-3.07c2-2.44 2.409-6.271 1.246-11.712-2.156-10.06-10.031-26.66-20.796-32.026"/></svg>