<svg xmlns="http://www.w3.org/2000/svg" width="400" height="200" viewBox="-7.569 1.698 37.071 18.536"><path d="M20.419 12.449c-2.364-.223-3.284-1.899-4.129-3.772-.625-1.39-2.137-3.394-3.885-3.321-1.546.064-2.616-.626-3.678-1.535-1.841-1.576-3.772-2.723-6.228-1.115.781 1.082.111 2.322-1.4 2.476-.43.043-.881-.27-1.013.479-.096.533-.252.918.436 1.195.316.13.534.608.705.969 1.053 2.222 3.338 3.78 3.48 6.51.016.325.419.762.75.915.734.338.958.998 1.327 1.604.545.895 1.185 1.733 2.167 3.148-.226-1.91.724-1.576 1.443-1.561.71.016 1.465 0 2.113.235.557.205.857.16 1.124-.311.604-1.073 1.668-1.373 2.737-1.419 1.523-.064 2.876-.653 4.279-1.103 1.238-.398 1.21-1.576 1.282-2.512.073-.932-.932-.829-1.51-.882" style="fill:#fff"/></svg>