<svg xmlns="http://www.w3.org/2000/svg" width="400" height="200" viewBox="-99.615 21.059 482.692 241.346"><path fill="#fff" fill-rule="evenodd" d="M12.315 142.167s4.139.534 4.806-2.536 2.269-8.81 5.072-7.075 4.539 2.403 5.206 4.005.534 4.138 2.136 5.74 3.738.535 6.407 3.738c2.67 3.204 4.939 6.141 8.543 3.471s5.473-2.402 6.808-1.335.534 4.538 3.337 2.002 8.01-9.344 9.211-9.344 4.939-3.07 4.939-3.07l1.712-65.355 9.138 11.361c2.172 2.701 2.536 12.281 1.602 14.683-.935 2.403-3.338 9.612 1.602 12.281 4.939 2.67 6.808-5.873 8.677-8.81s7.208-6.274 12.281-4.272 7.076.935 7.81-.266 1.268-8.744 6.875-14.551 8.944 1.603 11.214 3.738 15.485 4.806 23.36 4.806c7.876 0 8.944-11.213 8.944-11.213s1.335-14.55 2.803-13.349 9.744-.401 11.747-4.405c2.002-4.005 7.209-10.145 9.211-13.883s6.141 2.804 11.614-6.007S214.19 24.1 214.19 24.1s8.369-.472 16.378 2.731c8.009 3.204 16.686-1.335 18.822 3.203s4.405 13.082 5.073 16.286 4.672 8.009 5.206 10.145 2.002 22.025 0 30.435-2.269 8.808-6.007 4.87-6.14-3.404-6.941.534.067 4.672-.935 7.275c-1.001 2.603-3.137 2.27-4.005 3.137-.868.868-2.136 5.206-.601 7.142s.999 5.739 5.872 7.408 7.809 2.67 9.678 2.136 1.536-4.672 1.402-5.873-2.002-1.802 4.005-2.336 9.011 2.536 9.011 2.536-1.736 5.073-1.869 5.407-3.271 6.941-3.271 6.941 1.001 9.811-3.537 15.017-7.743 7.609-10.946 10.946-7.342 7.075-8.944 10.679-14.816 29.233-22.825 32.17-16.82 16.019-20.023 20.29c-3.204 4.271-25.363 19.222-29.368 20.557s-7.476 1.602-12.014 2.67c-4.539 1.068-12.281 3.203-15.485 4.271s-17.087 1.335-20.29 0-10.412 2.67-13.883 2.67-10.145-.534-14.417 2.136c-4.271 2.669-5.34-2.936-17.888 1.869-12.548 4.806 2.403 15.217-13.082 6.941s-15.218-12.815-17.888-13.082-10.145-1.602-11.213-9.077 1.869-15.485 1.869-15.485 4.271 3.738 4.271-5.073 1.602-18.155-3.471-22.426-13.349-17.086-13.349-18.421c.002-1.334-11.21-30.562-11.21-30.562" clip-rule="evenodd"/></svg>