<svg xmlns="http://www.w3.org/2000/svg" width="400" height="200" viewBox="0.275 16.571 64.373 32.187"><path fill="#fff" d="M63.827 36.601c-.167-.59-.271-.96-.742-.989a2 2 0 0 1-.152-.17c-.127-.155-.045-.455-.001-.616a.9.9 0 0 0 .045-.274.5.5 0 0 0-.02-.118c-.117-.408-1.009-.764-1.246-.852.051-.128.108-.26.16-.379.062-.141.12-.275.177-.424q.021-.059.053-.12c.058-.123.131-.275.151-.542-.046-.745-.517-.803-.659-.803l-.071.004a63 63 0 0 0-.214-1.404.5.5 0 0 0-.174-.306.8.8 0 0 0-.266-.148c.006-.035.02-.071.031-.108.04-.129.089-.29.069-.514a1.06 1.06 0 0 0-.307-.561c.286-.051.606-.188.768-.555.14-.353.109-.736.079-1.05q.114.059.28.16c.151.09.42.052.575-.031a.498.498 0 0 0 .109-.803 13 13 0 0 0-1.114-.937c-.56-.399-1.164-.45-1.862-.363-.211.026-.447.05-.678.046l-.001-.003c-.069-.248-.225-.419-.34-.547a1.3 1.3 0 0 1-.123-.145c-.046-.097.071-.389.148-.583.09-.225.184-.457.205-.707.063-.884-.613-1.32-.977-1.554a1 1 0 0 0-.121-.074.8.8 0 0 0-.082-.425.88.88 0 0 0-.76-.443 1 1 0 0 0-.096.014.5.5 0 0 0-.035-.132c-.128-.284-.419-.37-.632-.433-.056-.016-.113-.03-.197-.075-.025-.013-.069-.049-.111-.083a1.5 1.5 0 0 0-.291-.2.7.7 0 0 0-.104-.224.68.68 0 0 0-.455-.216c-.163 0-.29.064-.397.103l-.104-.003c-.09 0-.364 0-.564.214a.82.82 0 0 0-.214.459c-.124-.011-.284-.019-.433-.04-.405-.054-.824-.061-1.118.058a.7.7 0 0 0-.362.322 1 1 0 0 0-.109-.04 3 3 0 0 0-.271-.065c-.071-.015-.146-.029-.291-.074a.5.5 0 0 0-.57.221c-.394.65-.718 1.049-1.373 1.389a.51.51 0 0 0-.442.106c-.226.141-.465.361-.719.595-.323.298-.758.696-1.017.785l-.011-.008a.95.95 0 0 0-.536-.227.66.66 0 0 0-.373.119 1 1 0 0 0-.18-.08.67.67 0 0 0-.384.015c-.252-.207-.541-.405-.852-.405a1 1 0 0 0-.255.049.8.8 0 0 0-.323.235.73.73 0 0 0-.458-.021.84.84 0 0 0-.372.271c-.042.018-.137.025-.22.032-.15.013-.337.028-.542.115a2.7 2.7 0 0 0-.487.3 1.2 1.2 0 0 1-.373.21c-.043.016-.174.054-.453.054a5 5 0 0 1-1.104-.142q-.053-.248-.35-.479a.75.75 0 0 0-.439-.145c-.357 0-.606.251-.768.435l-.107-.061-.028-.016a.6.6 0 0 0-.395-.303 1.5 1.5 0 0 0-.454.004.7.7 0 0 0-.117-.209 1.7 1.7 0 0 0-.76-.507c-.741-.206-1.249.142-1.485.345-.038.033-.089.076-.072.087a.8.8 0 0 1-.232-.15c-.04-.06-.087-.28-.114-.413-.083-.4-.209-1.006-.714-1.073l-.04-.01a.6.6 0 0 0-.316-.196c-.244-.046-.5.07-.749.202-.354.188-.761.371-1.135.085-.254-.197-.298-.311-.305-.311.011-.023.055-.069.078-.094.265-.278.222-.519.161-.625-.177-.428-.606-.492-.813-.523-.043-.006-.086-.011-.106-.019-.11-.065-.499-.153-.71.037-.146.13-.214.288-.264.404-.014.032-.025.065-.048.093-.017.01-.185.096-.893.096-.558 0-1.248-.052-1.857-.099a21 21 0 0 0-1.382-.078c-.12 0-.224.004-.271.011-.408.011-.771.233-1.09.43-.111.069-.217.135-.338.192-.105.056-.295.077-.479.097a3 3 0 0 0-.575.107c-.635.251-1.198.659-1.743 1.054-.331.239-.664.481-1.031.697a6 6 0 0 1-.712.396c-.181-.027-.475.088-.578.28a1.5 1.5 0 0 0-.186.681.8.8 0 0 0-.276-.044h-.005c-.369.022-.552.09-.691.164a4 4 0 0 1-.351-.083c-.103-.032-.254-.112-.421-.196-.473-.237-.833-.406-1.19-.406h-.004a.62.62 0 0 0-.481.268c-.177.063-.639.093-1.154-.026-.217-.039-.546-.119-.86-.195-.666-.161-.872-.216-1.036-.196-.273-.169-.631-.293-1.039-.434-.579-.2-1.235-.427-1.54-.774-.501-.568-.447-.732-.366-.981.052-.158.116-.355.101-.605a.5.5 0 0 0-.354-.448 2 2 0 0 0-.141-.036c-.055-.007-.107-.023-.16-.038-.123-.033-.259-.043-.503-.074-.268.017-.492.113-.69.198a2 2 0 0 0-.129.059q-.088-.083-.172-.173c-.279-.294-.614-.681-1.431-.532a.5.5 0 0 0-.168.064l-.538.325-.031-.012c-.184-.072-.567-.123-.73-.032a.72.72 0 0 0-.438.623h-.027c-.194.003-.52.008-.731.283q-.211.276-.109.698a.5.5 0 0 0 .237.314c.437.251.728.703.713.822a.64.64 0 0 1-.266.076c-.327.046-.67.136-.957.668a.5.5 0 0 0-.06.223l-.024.806c-.146.165-.489.459-.602.506a.5.5 0 0 0-.354.298l-.133.327a.5.5 0 0 0 .022.426c.082.153.204.246.322.336l.118.091a.9.9 0 0 0 .448.155 1.1 1.1 0 0 0-.437.485.58.58 0 0 0 .081.5c-.024.041-.061.093-.097.146-.15.222-.294.435-.261.666a1 1 0 0 0-.089.208c-.079.33-.06.594-.045.807.011.156.016.251-.006.333l-.046.069c-.159.233-.399.586-.29.978.059.209.209.378.482.5.143.043.061.052 1.237-.112l.13-.018a.5.5 0 0 0-.212.225c-.073.156-.016.415.077.56.101.156.251.256.41.361a4 4 0 0 1 .216.15c-.159.146-.37.412-.224.774a.5.5 0 0 0 .217.251 1.5 1.5 0 0 0-.463.304c-.258-.212-.765-.272-1.016-.004-.239.25-.236.567-.234.778l.001.067a.6.6 0 0 0-.099.205.525.525 0 0 0-.379.454.53.53 0 0 0-.182.286.58.58 0 0 0 .109.474c.193.236.449.293.619.33.03.007.072.016.097.023l.077.095c.241.3.415.517.712.517a.6.6 0 0 0 .204-.041q.074-.032.137-.071a.8.8 0 0 0 .285.375c.181.106.457.076.616-.001.11.064.267.162.424.264-.009.096-.023.2-.04.282-.062.008-.13.014-.177.018-.302.026-.677.059-.788.433-.064.218.063.509.257.626.142.086.288.131.407.167-.112.213-.251.477-.146.77a.6.6 0 0 0 .146.229.55.55 0 0 0-.182.166c-.2.313-.052.69.128 1.072.16.301.559.424.859.301a.6.6 0 0 0 .229.231l-.125.045c-.114.041-.227.082-.37.129-.219.088-.383.344-.343.576.074.428.47.443.854.458.086.003.169.005.167.022.117.085.402.238.658.146a.6.6 0 0 0 .363-.34l.005.001a.5.5 0 0 0-.01.274c.107.428.718.626 1.021.404.06-.043.292-.189.538-.345.331-.209.536-.339.666-.431a.8.8 0 0 0 .108.24c.161.199.376.287.55.356.025.011.056.022.084.035.119.246.434.38.675.268a.8.8 0 0 0 .197-.128q-.014.112-.042.259c-.035.189-.063.339.072.574.451.592.961.72 1.411.832.101.025.205.051.322.088.119.316.339.408.484.423.334.06.843-.149 1.712-.552.094-.045.179-.088.123-.071.067-.012.164-.026.221-.063l.02.001a.5.5 0 0 0 .077.221.54.54 0 0 0 .658.143c.309-.163.567-.48.675-.829a.57.57 0 0 0-.036-.431c.061-.064.12-.13.167-.195.213-.297.171-.632.139-.901a3 3 0 0 1-.025-.286c.443-.001 1.421.103 1.536.117.211.078 2.437 1.025 2.602 1.11.362.233.489.469.65.767.24.442.539.994 1.587 1.406.264.103.413.142.549.142.15 0 .423-.052.535-.361 0 0 .02-.015.062-.019a.94.94 0 0 0 .434.121 1 1 0 0 0 .188-.025.57.57 0 0 0 .357-.288c.182.007.398.029.582.049.316.031.502.048.634.001a.8.8 0 0 0 .188-.102.6.6 0 0 0 .172.027c.257 0 .356-.125.619-.461l.002-.003q.14.09.329.09h.001c.118 0 .479 0 .719-.271.229-.26.192-.572.169-.759-.005-.039-.012-.075-.037-.027.168-.344.822-.853 1.213-1.157l.281-.223a.28.28 0 0 1 .179-.053c.368 0 .918.379 1.283.629.449.31.744.47 1.036.349.18-.076.308-.186.412-.273l.058-.049c.104.027.239.059.378.059a.72.72 0 0 0 .583-.265.8.8 0 0 0 .151-.563l.005-.016q.074-.031.157-.077c.183-.132.295-.314.384-.46l.021-.033c.062.101.124.266.148.402-.104.096-.271.24-.402.354-.766.657-1.075.939-1.033 1.338.048.35.274.605.455.812.052.059.155.176.199.289l-.003.001a.5.5 0 0 0 .246.902c.051.029.137.095.191.137.203.153.412.313.672.313a.8.8 0 0 0 .284-.072c.35-.183.377-.539.38-.73a.78.78 0 0 0 .445-.265.5.5 0 0 0 .108-.276l.031-.453.181-.015c.432-.034.538-.045.659-.109a.5.5 0 0 0 .086-.058c.437-.364.056-.854-.223-1.21l-.032-.016c-.07-.181-.037-.815.031-1.118.133.031.299.079.438.126a.6.6 0 0 0 .088.391.6.6 0 0 0 .521.272c.069 0 .142-.009.248-.035a.6.6 0 0 0 .309-.211c.061.006.12.018.181.027.254.043.56.056.708.018.521-.088.988-.422 1.44-.745.511-.365 1.092-.724 1.486-.637.11.025.261.147.406.266.212.171.451.365.767.461.796.245 1.943-.03 2.854-.292l.422-.119c.831-.23 1.502-.703 2.151-1.159.551-.388 1.071-.754 1.647-.953.362-.115.791-.127 1.244-.139.498-.014 1.012-.027 1.5-.174l.13-.034c.471-.124 1.183-.311 1.567-.692a1.7 1.7 0 0 0 .199-.24l.002-.004q.016.051.025.148a.5.5 0 0 0 .733.398c.101-.053.249-.137.288-.178l.102-.047c.131-.057.311-.135.46-.324.08-.101.129-.22.217-.438l.076-.189c.121.057.34.116.52.085.244-.04.412-.189.534-.299.034-.03.086-.076.115-.081.146 0 .441.081.702.152.701.193 1.559.349 2.027.02q.258-.177.38-.374c-.04.278-.088.687.229 1.093a.63.63 0 0 0 .412.179c.347 0 .572-.28.885-.667.1-.124.271-.337.369-.43l.064.014c.482.092.679-.076.76-.179a.62.62 0 0 0 .098-.501M10.422 26.055c-.259.192-.313.401-.307.552-.145-.027-.272-.05-.366-.064a4 4 0 0 0-.989-.015.6.6 0 0 0-.078-.162c-.235-.365-.654-.388-.904-.401q-.085-.003-.162-.013a.5.5 0 0 0-.631.107.53.53 0 0 0-.101.458.9.9 0 0 0 .113.254c-.093.022-.226.04-.409.041-.084 0-.093 0-.166-.217-.047-.141-.11-.331-.313-.459q.107-.074.21-.168c.229-.213.438-.441.658-.742a1.3 1.3 0 0 0 .109-.399c.064-.039.096-.05.098-.054.023.009.074.042.112.065.168.105.422.265.865.265h.004c.219-.005.39-.118.518-.354a1 1 0 0 1 .329-.064l.106.001c.146 0 .231.063.352.166.082.069.187.159.335.194a.5.5 0 0 0 .299.142c.233.04.862.088 1.201.018.124.112.27.196.401.259q0 .082.027.162c-.57.164-1.158.344-1.311.428"/></svg>