<svg xmlns="http://www.w3.org/2000/svg" width="400" height="200" viewBox="-64.432 95.552 640.570 320.285"><path fill="#fff" fill-rule="evenodd" d="M40.392 116.256c4.693 2.284 14.242 13.284 17.642 13.177 1.19-.035 2.297-5.37 2.409-6.336.618-5.37 1.564-13.79 9.04-12.753 12.351 1.72 23.823 9.067 35.878 12.247 22.829 6.029 47.833 9.42 71.26 12.365 23.691 2.967 43.033-2.862 66.05-2.674 13.551.106 25.023 6.677 37.958 9.562 7.227 1.614 14.487-.483 21.535.943 7.814 1.578 6.381 14.132 14.153 17.7 5.643 2.602 11.87 2.72 17.981 2.638 1.235-.012 6.037-.706 7.081.978 5.64 9.138-5.8 41.83 15.535 39.922 6.908-.623 9.615-7.925 15.266-10.399 5.669-2.496 13.129 1.143 19.056-2.06 5.562-3.015 9.542-8.573 14.688-12.224 6.756-4.804 14.933-7.324 20.343-13.884 4.72-5.723 6.167-13.52 11.241-18.971 4.645-4.993 10.992-7.76 16.097-12.177 8.776-7.597 6.872-18.913 12.582-27.852 11.114-17.161 19.144 1.861 24.86 11.919 1.343 1.966 4.7 5.193 3.993 7.713-2.944 10.481-14.296 15.356-18.689 25.166-2.909 6.488 3.191 13.39.448 20.113-3.274 8.009-11.085 11.718-15.409 18.772-3.708 6.041-.122 12.424-2.526 18.465-3.296 8.29-11.41 13.166-14.126 22.305-4.083 13.743 14.642 24.895 8.595 39.321-5.359 12.79-22.02 20.95-30.658 31.467-2.388 2.897-6.815 8.113-7.232 12.059-3.417 24.198 35.217 52.411 27.64 74.98-3.954 5.947-9.738 3.639-13.243-.6-8.846-10.682-15.972-22.847-25.079-33.493-10.967-12.8-24.37-7.231-38.939-9.103-7.38-.942-13.775-5.617-21.572-3.591-9.096 2.366-10.723 17.37-19.22 22.21-23.857 10.201-44.455-9.615-56.148 27.134-2.351 8.773-2.24 20.36-14.938 20.538-4.275.07-8.895-5.782-11.158-8.81-7.666-10.21-10.487-23.222-18.681-33.386-8.953-11.117-18.196 2.414-28.322-2.956-11.832-6.265-14.49-22.811-27.38-30.784-11.961-7.396-25.144 4.039-37.907 2.58-12.299-1.403-22.344-12.155-33.237-17.217-9.703-4.51-21.774-4.475-30.861-9.457-5.125-2.814-8.159-8.338-12.173-12.388-6.41-6.466-14.437-10.61-19.012-18.784-6.795-12.13-4.981-27.369-8.727-40.5-3.394-11.905-10.942-23.022-9.801-35.835 1.667-18.749 11.825-35.212 16.884-53.053 3.272-11.53 1.007-24.318 6.823-34.987" clip-rule="evenodd"/></svg>