<svg xmlns="http://www.w3.org/2000/svg" width="400" height="200" viewBox="-7.072 1.742 35.255 17.627"><path fill="#fff" d="M20.21 6.563c-.279.044-.862.255-.677-.312.431-1.326-.641-1.277-1.312-1.596-.498-.231-1.166-.115-1.511-.804.341-.161.698-.329 1.057-.5-1.016-.537-2.304.55-3.146-.684-.045-.065-.361-.044-.458.321-.313 1.191-1.167 1.647-2.196.976-.934-.61-1.808-.531-2.776-.462-.431.033-.884.271-1.25-.381-.69-1.236-2.02-1.396-3.346-.889-.598.23-1.453 1.055-1.966.389-.737-.951-1.054-.17-1.406.148-.8.726-.717 1.88-1.193 2.791-.214.411.792.067.834.704.026.407.448.793.468 1.195.09 1.813.783 1.878 2.256 1.761.589-.046 1.273-.026 1.478.298.838 1.318 2.029 1.139 3.243.979.468-.06.99.037.588.523-1.272 1.545.833 3.2-.252 4.698a1.4 1.4 0 0 0 .196.161c.729.473.814 1.287 1.091 2.011.436 1.142 1.684 1.614 2.661.965 1.051-.7 2.151-1.353 3.123-2.416-1.577-.17-1.282-1.368-1.511-2.337.838-.143 1.923.493 2.076.333.806-.84 1.955-.679 2.826-1.222.745-.465 1.126-.867.338-1.68-.72-.739-.791-1.494.363-1.989.231-.099.852-.257.438-.639-.776-.714-.023-.846.319-1.167.231-.221.688-.339.502-.781-.145-.341-.465-.45-.857-.394"/></svg>