<svg xmlns="http://www.w3.org/2000/svg" width="400" height="200" viewBox="-11.622 -0.281 45.358 22.679"><path d="M5.793 1.591c.403.727.999 1.328 1.336 2.129.159.378.726.409 1.224.243.903-.301.735.76 1.207 1.064.23.148-.061.43-.329.489-1.492.334-.845.787-.09 1.287 1.7 1.129 2.713 2.907 3.987 4.415.943 1.119.035 2.735.411 4.103.21.761-.105 1.317-.946 1.55-1.353.372-1.9 1.898-3.231 2.331-.084.027-.171.318-.165.322 1.149.631-.034 1.784.624 2.59.153-.069.343-.124.494-.232 1.541-1.106 2.805-2.587 4.614-3.333.51-.206 1.017-.538 1.153-1.146.544-2.406.318-4.72-1.479-6.517-1.03-1.028-2.034-2.047-2.954-3.18-.826-1.019-.651-1.731.134-2.625.726-.826 1.492-1.579 2.559-2.279-1.558-.467-2.011-.692-1.906-1.244.16-.825-.161-1.105-.821-.945-.687.168-.971-1.033-1.595-.45-1.067.995-2.308.861-3.575.762-.482-.035-.757.477-.652.666" style="fill:#fff"/></svg>