<svg xmlns="http://www.w3.org/2000/svg" width="400" height="200" viewBox="-123.739 8.998 530.944 265.472"><path fill="#fff" fill-rule="evenodd" d="M16.44 189.803c.835.792 1.602 1.385 2.063 1.488 1.137.252 5.114-3.914 4.293-5.303s.568-6.377 2.525-8.207 4.545-2.21 4.545-2.21 5.239 6.376 5.871 6.629c.631.252 5.239-3.599 6.375-4.293 1.137-.695 6.061 2.272 8.144 2.02s5.429-3.346 10.417-3.219c4.987.126 58.206.252 58.206.252s2.904-9.849 3.156-11.995-6.187-6.818-5.429-10.985-9.595-141.664-9.595-141.664h27.273l86.926 67.02s-.884 3.914.505 5.682 6.187 5.05 6.439 6.06 1.894 5.555 5.303 4.545 5.429-2.525 6.187-.631 5.177 4.419 7.702 4.672 4.798-.758 5.051 2.146.631 6.818.631 8.333-4.671 2.778-1.641 5.682 11.868-1.641 13.005-1.641c.213 0 1.185-.119 2.634-.313-.805 16.903-2.249 46.996-2.608 52.832-.505 8.207-6.06 9.723-8.712 12.753s-3.536-.757-4.42-.757-10.858.632-12.121.632-15.404 1.389-16.414 1.515-3.031 2.651-6.187 4.798c-3.156 2.146-9.47-.379-9.47-.379s-6.593.428-8.172.112c-1.578-.316-5.997-2.714-9.407-.631-3.409 2.084-12.373 8.396-15.151 9.533s-1.136 4.293-3.599 6.376-3.156-1.578-4.672-2.525-3.346 1.389-7.071 3.724-1.199 4.672-1.956 6.187-1.136.632-3.599-.315-.505 3.219-.631 5.303-4.861 3.22-6.755 1.768-4.798-3.599-5.808-3.22-4.861 6.123-5.556 6.628c-.694.505 2.462 1.831 2.147 4.419s-1.01 1.137-3.03 1.957-.632 2.652-.316 3.662.694 2.525-.189 4.419c-.884 1.894-4.545 4.04-6.187 5.24s-7.008 3.851-7.008 3.851 1.831 3.977 1.705 5.935c-.127 1.957-2.018 6.754-3.533 10.668-.772 1.993-1.002 4.803-1.044 7.083-2.694-.993-4.605-1.437-5.001.306-.632 2.778-.316 7.071-3.346 4.735s-3.851-5.24-3.472-7.008 1.073-5.113-2.273-3.156-5.681 2.967-5.997 4.735-.065 6.503-3.789 4.483-6.944-3.914-7.576-3.599c-.631.316-1.831.063-2.588 2.399-.638 1.967-4.142-.945-6.251-1.349-.592-.808-1.138-1.732-1.39-2.698-.757-2.904.885-7.575-.505-7.828-1.389-.253-4.293-1.516-4.672-2.147s3.662-5.934 3.662-5.934-5.303-.883-5.682-4.04.126-5.05-.884-7.954-4.546-6.692-5.556-6.692-1.642 2.146-2.778 3.914-5.555 4.672-6.944 4.167-3.662-3.914-6.187-3.031c-2.525.884-6.944 5.429-6.944 5.429s-.884-4.672-1.515-5.303-5.429 3.283-5.429 3.283-3.156-.631-3.788-2.02c-.298-.654-.413-3.619-.69-6.527 0-3.415.637-5.357-.155-9.116-.273-1.294-2.71-4.488-2.84-5.025-.568-2.335-5.808-.82-6.566-3.219-.757-2.399-.126-5.934.189-6.376.316-.442 2.715-2.778 1.578-7.071s-3.282-6.692-3.346-8.397a3 3 0 0 0-.087-.597" clip-rule="evenodd"/></svg>