<svg xmlns="http://www.w3.org/2000/svg" width="400" height="200" data-name="Layer 1" viewBox="-67.283 -1.641 262.567 131.283"><path fill="#fff" d="M106.168 90.202a12.6 12.6 0 0 0-.395-3.219 3.6 3.6 0 0 1 .277-2.718 5.43 5.43 0 0 0-.732-5.535 6.1 6.1 0 0 1-1.143-2.968c-.176-1.523.333-2.12 1.83-3.619a16.7 16.7 0 0 0 3.413-4.438c.832-1.648 2.774-3.147 4.652-4.597 2.583-1.995 5.254-4.057 6.018-7.085.397-1.571.891-3.093 1.37-4.565.874-2.693 1.63-5.019 1.534-6.928a2 2 0 0 0-1.818-1.89 15.6 15.6 0 0 0-7.452 1.646 3.7 3.7 0 0 1-3.42.016c-.325-1.747-1.676-4.128-5.306-5.779-1.337-.608-1.365-.82-1.486-1.713a6.72 6.72 0 0 0-3.26-5.205c-1.551-1.097-1.608-1.522-1.712-2.293a6.9 6.9 0 0 0-2.689-4.795c-3.202-2.853-5.146-9.808-5.146-12.105a2 2 0 0 0-.881-1.657 7.55 7.55 0 0 0-7.195-.307 8.04 8.04 0 0 0-5.814-.985c-1.705-1.15-5.139-2.936-7.531-.724a9.8 9.8 0 0 0-2.224 3.036 65 65 0 0 1-3.03-1.333 3.8 3.8 0 0 0-.725-1.235c-1.085-1.246-2.884-1.862-5.489-1.873a4 4 0 0 1-.418-.528 5.05 5.05 0 0 0 .452-4.028A4.76 4.76 0 0 0 54.906.135a2 2 0 0 0-1.203-.077l-4.63 1.146-6.971-.585a2 2 0 0 0-.903.134l-4.483 1.775-5.936-.678a2 2 0 0 0-1.509.45L24.57 6.222a2 2 0 0 0-.573.787 25 25 0 0 1-3.062 5.276c-.527.675-1.324.882-2.576 1.144-1.45.302-3.873.808-4.371 3.523-.112.605-.766 1.109-1.822 1.88a9 9 0 0 0-3.38 3.72c-1.15 2.783-1.845 4.463-1.102 8.142.322 1.59-1.19 5.152-2.367 7.173a2 2 0 0 0-.258.772c-.066.563-.55 5.565 3.01 7.503 1.664.907 2.687 3.934 2.29 5.046-.46 1.293-.025 2.725 1.295 4.255 2.033 2.357 6.583 5.307 9.39 4.748a2 2 0 0 0 .328-.094c1.644-.629 6.48-1.996 9.082-.789a2 2 0 0 0 1.943-.145c1.464-.966 6.247-3.616 8.938-3.13q.15.026.243.054l-.001.284a3.67 3.67 0 0 0 1.005 2.938 5.1 5.1 0 0 0 3.96.95 9.2 9.2 0 0 1 2.894.07 8.5 8.5 0 0 1-.493 2.059c-1.368 4.195-1.871 6.584 2.622 10.884a14.96 14.96 0 0 1 3.767 6.273 6.21 6.21 0 0 0-.237 6.562 14.28 14.28 0 0 0-1.778 9.644 10.32 10.32 0 0 0 3.257 6.65 2.82 2.82 0 0 1 1.18 2.317c.115 3.895.234 7.92 4.513 10.662 1.386 1.653 2.622 3.718 2.706 4.517a3.4 3.4 0 0 0-.58 2.414c.296 2.431 2.985 4.639 3.803 5.257a2.03 2.03 0 0 0 1.221.433 2 2 0 0 0 .307-.026 1.92 1.92 0 0 0 1.312-.847c.043-.056 1.093-1.375 4.4-1.739 5.147-.566 8.87-3.162 10.276-5.483a12 12 0 0 1 1.36-1.362c1.772-1.623 4.547-4.164 4.588-7.544 2.277-.784 5.085-2.312 4.576-4.998a23 23 0 0 0-.649-2.363 21.5 21.5 0 0 1-.772-2.983c1.355-.967 4.731-3.235 6.352-4.317 1.929-.571 5.002-2.423 5.002-6.136m11.438.885a2 2 0 0 0-2.558 1.313c-.347 1.136-1.777 4.56-3.737 5.361a16 16 0 0 1-2.095.657c-2.012.53-5.05 1.33-4.421 6.006.205 1.52-.429 2.414-1.232 3.544a6.45 6.45 0 0 0-1.563 3.804c0 1.836 1.086 3.524 1.958 4.88a13 13 0 0 1 .82 1.39 2.4 2.4 0 0 0 .65 1.86c.311.331 1.021 1.086 3.811 1.086a24 24 0 0 0 3.092-.233 2 2 0 0 0 1.509-1.054c3.961-7.558 4.859-9.337 5.062-10.045l.002.001c.141-.497 1.555-4.328 2.84-7.744a2 2 0 0 0 .104-.4c.487-3.17.143-8.933-4.242-10.426"/></svg>