<svg width="65" height="65" xmlns="http://www.w3.org/2000/svg" xmlns:xlink="http://www.w3.org/1999/xlink" xml:space="preserve" overflow="hidden"><defs><clipPath id="clip0"><rect x="3127" y="1731" width="65" height="65"/></clipPath></defs><g clip-path="url(#clip0)" transform="translate(-3127 -1731)">
	<circle cx="3159.5" cy="1763.5" r="28" fill="#fff" />
	<path d="M3170.97 1776.79 3176.14 1776.79 3174.74 1778.41 3174.73 1778.42C3173.73 1779.43 3172.63 1780.33 3171.45 1781.12 3170.27 1781.91 3168.99 1782.6 3167.62 1783.19L3167.63 1783.19 3164.09 1784.29 3167.35 1781.23C3168.73 1779.76 3169.94 1778.28 3170.97 1776.79ZM3160.87 1776.79 3166.72 1776.79 3164.16 1779.71 3160.87 1782.69ZM3151.26 1776.79 3157.86 1776.79 3157.86 1783.47 3154.23 1780.18ZM3141.85 1776.79 3147.76 1776.79C3148.79 1778.28 3150 1779.76 3151.38 1781.23L3154.95 1784.57 3154.44 1784.49C3153.01 1784.21 3151.63 1783.78 3150.3 1783.22 3150.28 1783.21 3150.26 1783.2 3150.25 1783.19 3148.88 1782.6 3147.6 1781.91 3146.42 1781.12L3143.54 1778.75ZM3175.36 1764.55 3181.12 1764.55 3180.81 1767.11C3180.53 1768.54 3180.1 1769.92 3179.53 1771.25 3179.53 1771.27 3179.52 1771.29 3179.51 1771.31 3179.14 1772.18 3178.72 1773.01 3178.26 1773.81 3178.19 1773.79 3178.12 1773.79 3178.05 1773.79L3172.69 1773.79 3174.51 1769.63C3175.01 1767.95 3175.3 1766.25 3175.36 1764.55ZM3160.87 1764.55 3172.2 1764.55 3171.41 1768.75C3170.84 1770.44 3170.03 1772.12 3168.97 1773.79L3160.87 1773.79ZM3146.37 1764.55 3157.86 1764.55 3157.86 1773.79 3149.35 1773.79 3147.32 1769.62C3146.75 1767.93 3146.44 1766.24 3146.37 1764.55ZM3137.51 1764.55 3143.37 1764.55C3143.43 1766.25 3143.72 1767.95 3144.22 1769.63L3146.04 1773.79 3140.03 1773.79 3139.22 1772.17 3139.22 1772.17C3138.64 1770.82 3138.21 1769.42 3137.92 1767.97 3137.7 1766.86 3137.56 1765.72 3137.51 1764.55ZM3171.97 1752.31 3178.27 1752.31C3178.73 1753.09 3179.14 1753.92 3179.51 1754.79L3179.51 1754.79C3180.09 1756.13 3180.52 1757.53 3180.81 1758.99L3181.12 1761.54 3175.14 1761.54 3174.3 1757.37C3173.74 1755.69 3172.97 1754 3171.97 1752.31ZM3160.87 1752.31 3168.61 1752.31C3169.71 1754.01 3170.56 1755.71 3171.18 1757.39L3172.12 1761.54 3160.87 1761.54ZM3150.12 1752.31 3157.86 1752.31 3157.86 1761.54 3146.61 1761.54 3147.55 1757.39C3148.17 1755.71 3149.02 1754.01 3150.12 1752.31ZM3140.46 1752.31 3146.36 1752.31 3144.43 1756.51C3143.88 1758.2 3143.54 1759.87 3143.41 1761.54L3137.61 1761.54 3137.92 1758.99C3138.21 1757.55 3138.63 1756.17 3139.2 1754.84 3139.2 1754.82 3139.21 1754.8 3139.22 1754.79 3139.59 1753.92 3140 1753.09 3140.46 1752.31ZM3160.87 1743.53 3163.93 1746.46 3166.37 1749.3 3160.87 1749.3ZM3157.86 1743.53 3157.86 1749.3 3152.36 1749.3 3154.8 1746.46ZM3154.92 1741.72 3151.67 1744.89C3150.33 1746.37 3149.15 1747.84 3148.13 1749.3L3142.59 1749.3 3143.99 1747.68 3144 1747.67C3145 1746.66 3146.1 1745.76 3147.28 1744.97 3148.46 1744.18 3149.74 1743.49 3151.11 1742.9L3151.11 1742.9ZM3162.71 1741.49 3163.43 1741.6C3164.86 1741.89 3166.24 1742.31 3167.57 1742.88 3167.59 1742.88 3167.61 1742.89 3167.62 1742.9 3168.99 1743.49 3170.27 1744.18 3171.45 1744.97 3172.63 1745.76 3173.73 1746.66 3174.73 1747.67L3174.74 1747.68 3176.14 1749.3 3169.91 1749.3 3167.06 1745.75 3166.27 1744.98 3166.2 1744.89ZM3158.94 1738.16C3157.25 1738.16 3155.61 1738.32 3154.03 1738.64 3152.44 1738.95 3150.9 1739.43 3149.4 1740.07L3149.4 1740.07 3149.4 1740.07C3147.93 1740.71 3146.54 1741.46 3145.23 1742.33 3143.93 1743.21 3142.73 1744.2 3141.62 1745.3 3140.52 1746.41 3139.53 1747.61 3138.65 1748.91 3137.78 1750.22 3137.03 1751.61 3136.39 1753.08 3136.38 1753.1 3136.38 1753.12 3136.37 1753.14 3135.74 1754.62 3135.27 1756.14 3134.96 1757.71 3134.64 1759.3 3134.48 1760.93 3134.48 1762.62L3134.52 1763.05 3134.48 1763.48C3134.48 1765.16 3134.64 1766.8 3134.96 1768.39 3135.27 1769.97 3135.75 1771.51 3136.39 1773.01L3136.39 1773.01 3136.39 1773.01C3137.03 1774.49 3137.78 1775.88 3138.65 1777.18 3139.53 1778.48 3140.51 1779.68 3141.62 1780.79 3142.73 1781.9 3143.93 1782.89 3145.23 1783.76 3146.54 1784.63 3147.93 1785.39 3149.4 1786.02 3149.42 1786.03 3149.44 1786.04 3149.46 1786.04 3150.94 1786.67 3152.46 1787.14 3154.03 1787.45 3155.61 1787.77 3157.25 1787.93 3158.94 1787.93L3159.21 1787.91 3159.48 1787.93 3159.64 1787.92 3159.79 1787.93C3161.48 1787.93 3163.11 1787.77 3164.7 1787.45 3166.29 1787.14 3167.83 1786.66 3169.32 1786.02L3169.33 1786.02 3169.33 1786.02C3170.8 1785.39 3172.19 1784.63 3173.5 1783.76 3174.8 1782.89 3176 1781.9 3177.11 1780.79 3178.21 1779.68 3179.2 1778.48 3180.08 1777.18 3180.95 1775.88 3181.7 1774.49 3182.34 1773.01 3182.35 1772.99 3182.35 1772.97 3182.36 1772.95 3182.99 1771.47 3183.46 1769.95 3183.77 1768.39 3184.09 1766.8 3184.25 1765.16 3184.25 1763.48 3184.25 1761.79 3184.09 1760.16 3183.77 1758.57 3183.46 1756.98 3182.98 1755.44 3182.34 1753.95L3182.34 1753.94 3182.34 1753.94C3181.7 1752.47 3180.95 1751.08 3180.08 1749.77 3179.2 1748.47 3178.22 1747.27 3177.11 1746.17L3176.64 1745.78 3176.25 1745.3C3175.14 1744.2 3173.94 1743.21 3172.64 1742.33 3171.33 1741.46 3169.94 1740.71 3168.47 1740.07 3168.45 1740.06 3168.43 1740.06 3168.41 1740.05 3166.93 1739.42 3165.41 1738.95 3163.84 1738.64 3162.26 1738.32 3160.62 1738.16 3158.94 1738.16ZM3159.5 1731C3177.45 1731 3192 1745.55 3192 1763.5 3192 1781.45 3177.45 1796 3159.5 1796 3141.55 1796 3127 1781.45 3127 1763.5 3127 1745.55 3141.55 1731 3159.5 1731Z" fill-rule="evenodd"/>
</g></svg>