<svg xmlns="http://www.w3.org/2000/svg" width="400" height="200" viewBox="-567 -680 2960 1480"><path fill="currentColor" d="M173 60c0-204.667 72.167-379.17 216.5-523.5S708.333-680 913-680c204.67 0 379.17 72.17 523.5 216.5S1653-144.667 1653 60s-72.17 379.167-216.5 523.5S1117.67 800 913 800q-307 0-523.5-216.5C173 367 173 264.667 173 60m569-467-325 23v85q36-3 78-3c26 .01 42.5 5.34 49.5 16 7 10.67 10.5 36 10.5 76v549q0 59-11.5 80c-11.5 21-23.167 22-46.5 24q-57 4.004-80 4v82h464v-82q-23 0-81-4-38-4-48-21t-10-83zm424 954c91.33 0 166.67-45.833 226-137.5 59.34-91.667 89-208.167 89-349.5s-29.67-258-89-350-134.67-138-226-138-166.5 46-225.5 138S852-81.333 852 60s29.5 257.833 88.5 349.5Q1029.003 547 1166 547m0-86q-123 0-123-401c0-267.33 40.67-401 122-401 83.34 0 125 133.67 125 401 0 267.333-41.34 401-124 401"/></svg>