<svg xmlns="http://www.w3.org/2000/svg" width="400" height="200" viewBox="-567 -680 2960 1480"><path fill="currentColor" d="M173 60c0-204.667 72.167-379.17 216.5-523.5S708.333-680 913-680c204.67 0 379.17 72.17 523.5 216.5S1653-144.667 1653 60s-72.17 379.167-216.5 523.5S1117.67 800 913 800q-307 0-523.5-216.5C173 367 173 264.667 173 60m438 444h623V329H793q8-69 110-148l53-40q18.001-15.002 88-58c128.67-78.667 193-169.667 193-273 0-78.67-29.84-141-89.5-187q-89.505-69-241.5-69c-42.667 0-86.5 4.17-131.5 12.5S683.333-412.67 636-396v192h84l2-23c2.669-58.67 12.336-93 29-103 32.667-20.67 69.001-31 109-31 120 0 180 59.67 180 179q0 144-182 299l-38 33Q661 287 611 427z"/></svg>