<svg xmlns="http://www.w3.org/2000/svg" width="400" height="200" viewBox="-567 -680 2960 1480"><path fill="currentColor" d="M173 60c0-204.667 72.167-379.17 216.5-523.5S708.333-680 913-680c204.67 0 379.17 72.17 523.5 216.5S1653-144.667 1653 60s-72.17 379.167-216.5 523.5S1117.67 800 913 800q-307 0-523.5-216.5C173 367 173 264.667 173 60m571-35V0c.001-231.33 77.334-347 232-347 40 0 77.67 9 113 27q25.995 13.005 30 93l2 23h85v-187c-39.33-12.67-80-22-122-28s-85.333-9-130-9q-185 0-295 138Q548.999-152 549 79q0 220 97.5 343C744 545 802 545 918 545q145.995 0 241.5-94.5C1255.005 356 1255 307.333 1255 210c0-85.333-27.17-155.667-81.5-211S1050-84 966-84Q826-84 744 25m5 161q0-169 161-169c105.33.001 158 75.667 158 227 0 146.667-47.33 220-142 220q-177 0-177-278"/></svg>