<svg xmlns="http://www.w3.org/2000/svg" width="400" height="200" viewBox="-567 -680 2960 1480"><path fill="currentColor" d="M173 60c0-204.667 72.167-379.17 216.5-523.5S708.333-680 913-680c204.67 0 379.17 72.17 523.5 216.5S1653-144.667 1653 60s-72.17 379.167-216.5 523.5S1117.67 800 913 800q-307 0-523.5-216.5C173 367 173 264.667 173 60m485 456q60.001 14 110.5 21.5 50.502 7.5 92.5 7.5c114 0 203.33-25.833 268-77.5s97-122.833 97-213.5q0-299-417-299-17.002.038-58 2v-198h457v-164H675V43q37-4.017 65-4 288 0 288 229 0 196-168 196-64 0-87.5-23.5C749 417 747.333 394 744 348l-1-23h-85z"/></svg>