<svg width="432" height="60" xmlns="http://www.w3.org/2000/svg" xmlns:xlink="http://www.w3.org/1999/xlink" xml:space="preserve" overflow="hidden"><defs><clipPath id="clip0"><rect x="225" y="2131" width="432" height="60"/></clipPath></defs><g clip-path="url(#clip0)" transform="translate(-225 -2131)"><path d="M642.176 2166.85C641.056 2167.23 639.947 2167.66 638.847 2168.15 637.747 2168.64 636.847 2169.15 636.147 2169.69 635.408 2170.24 634.828 2170.96 634.408 2171.82 633.988 2172.69 633.778 2173.71 633.778 2174.89 633.778 2176.44 634.133 2177.57 634.843 2178.26 635.553 2178.96 636.427 2179.31 637.467 2179.31 638.567 2179.31 639.472 2179.09 640.182 2178.64 640.892 2178.19 641.516 2177.64 642.056 2176.98ZM465.17 2166.85C464.05 2167.23 462.94 2167.66 461.84 2168.15 460.741 2168.64 459.841 2169.15 459.141 2169.69 458.401 2170.24 457.821 2170.96 457.401 2171.82 456.981 2172.69 456.771 2173.71 456.771 2174.89 456.771 2176.44 457.126 2177.57 457.836 2178.26 458.546 2178.96 459.421 2179.31 460.461 2179.31 461.561 2179.31 462.465 2179.09 463.175 2178.64 463.885 2178.19 464.51 2177.64 465.049 2176.98ZM341.817 2162.05C341.438 2162.05 340.935 2162.06 340.308 2162.09 339.68 2162.12 339.217 2162.15 338.918 2162.17L338.918 2177.67C339.097 2178.4 339.655 2179.03 340.591 2179.53 341.528 2180.04 342.664 2180.3 343.999 2180.3 346.37 2180.3 348.297 2179.5 349.782 2177.91 351.266 2176.31 352.008 2174.07 352.008 2171.19 352.008 2168.24 351.132 2165.98 349.378 2164.41 347.625 2162.83 345.104 2162.05 341.817 2162.05ZM582.146 2153.07 582.594 2153.52 582.594 2177.19C582.594 2177.89 582.744 2178.48 583.043 2178.97 583.341 2179.46 583.77 2179.82 584.328 2180.06 584.726 2180.24 585.165 2180.39 585.643 2180.53 586.121 2180.67 586.619 2180.77 587.137 2180.83L587.137 2183.01 568.249 2183.01 568.249 2180.83C568.767 2180.79 569.275 2180.74 569.773 2180.68 570.271 2180.62 570.699 2180.52 571.058 2180.38 571.696 2180.15 572.144 2179.8 572.403 2179.36 572.662 2178.91 572.792 2178.32 572.792 2177.58L572.792 2160.23C572.792 2159.53 572.632 2158.92 572.313 2158.39 571.995 2157.87 571.596 2157.44 571.118 2157.13 570.759 2156.89 570.216 2156.66 569.489 2156.44 568.762 2156.22 568.099 2156.08 567.502 2156.02L567.502 2153.85ZM413.411 2153.07 413.859 2153.52 413.859 2177.19C413.859 2177.89 414.008 2178.48 414.307 2178.97 414.606 2179.46 415.035 2179.82 415.592 2180.06 415.991 2180.24 416.429 2180.39 416.907 2180.53 417.386 2180.67 417.884 2180.77 418.402 2180.83L418.402 2183.01 399.513 2183.01 399.513 2180.83C400.032 2180.79 400.54 2180.74 401.038 2180.68 401.536 2180.62 401.964 2180.52 402.323 2180.38 402.96 2180.15 403.409 2179.8 403.668 2179.36 403.927 2178.91 404.056 2178.32 404.056 2177.58L404.056 2160.23C404.056 2159.53 403.897 2158.92 403.578 2158.39 403.259 2157.87 402.861 2157.44 402.383 2157.13 402.024 2156.89 401.481 2156.66 400.754 2156.44 400.026 2156.22 399.364 2156.08 398.766 2156.02L398.766 2153.85ZM391.693 2152.74C393.546 2152.74 395.035 2153.31 396.161 2154.46 397.287 2155.6 397.849 2157.08 397.849 2158.89 397.849 2160.4 397.381 2161.72 396.445 2162.87 395.508 2164.01 394.273 2164.58 392.739 2164.58 391.284 2164.58 390.054 2164.21 389.048 2163.48 388.042 2162.75 387.539 2161.67 387.539 2160.25 387.539 2159.55 387.588 2159.01 387.688 2158.63 387.788 2158.24 387.877 2157.88 387.957 2157.54 387.041 2157.58 386.074 2157.9 385.058 2158.49 384.042 2159.08 383.145 2159.87 382.368 2160.85L382.368 2177.22C382.368 2177.92 382.478 2178.5 382.697 2178.95 382.916 2179.41 383.285 2179.77 383.803 2180.03 384.241 2180.25 384.953 2180.43 385.94 2180.58 386.926 2180.73 387.638 2180.81 388.077 2180.83L388.077 2183.01 368.082 2183.01 368.082 2180.83C368.58 2180.79 369.084 2180.74 369.592 2180.67 370.1 2180.6 370.533 2180.5 370.892 2180.38 371.529 2180.17 371.968 2179.83 372.207 2179.37 372.446 2178.91 372.565 2178.32 372.565 2177.58L372.565 2160.23C372.565 2159.51 372.396 2158.87 372.057 2158.3 371.719 2157.74 371.31 2157.29 370.832 2156.95 370.473 2156.71 370.02 2156.51 369.472 2156.35 368.924 2156.19 368.322 2156.08 367.664 2156.02L367.664 2153.85 381.92 2153.07 382.368 2153.52 382.368 2157.84 382.488 2157.84C383.862 2156.25 385.322 2155 386.866 2154.1 388.41 2153.19 390.019 2152.74 391.693 2152.74ZM550.612 2152.62C553.859 2152.62 556.295 2153.54 557.919 2155.38 559.543 2157.22 560.355 2159.66 560.355 2162.7L560.355 2177.31C560.355 2178.05 560.464 2178.64 560.683 2179.07 560.903 2179.51 561.311 2179.86 561.909 2180.12 562.228 2180.26 562.621 2180.39 563.089 2180.53 563.557 2180.67 564.09 2180.77 564.688 2180.83L564.688 2183.01 546.726 2183.01 546.726 2180.83C547.105 2180.79 547.563 2180.74 548.101 2180.68 548.639 2180.62 549.047 2180.52 549.326 2180.38 549.745 2180.17 550.044 2179.85 550.223 2179.43 550.402 2179.01 550.492 2178.4 550.492 2177.58L550.492 2163.63C550.492 2161.6 550.117 2160.07 549.368 2159.05 548.619 2158.03 547.515 2157.51 546.057 2157.51 545.257 2157.51 544.513 2157.63 543.824 2157.87 543.135 2158.11 542.46 2158.46 541.801 2158.92 541.222 2159.31 540.757 2159.72 540.408 2160.14 540.058 2160.56 539.763 2160.92 539.523 2161.24L539.523 2177.25C539.523 2177.95 539.623 2178.53 539.822 2179 540.022 2179.47 540.35 2179.82 540.809 2180.06 541.128 2180.24 541.526 2180.39 542.004 2180.53 542.482 2180.67 542.951 2180.77 543.409 2180.83L543.409 2183.01 525.238 2183.01 525.238 2180.83C525.736 2180.79 526.239 2180.74 526.747 2180.67 527.255 2180.6 527.688 2180.5 528.047 2180.38 528.685 2180.17 529.123 2179.83 529.362 2179.37 529.601 2178.91 529.721 2178.32 529.721 2177.58L529.721 2160.23C529.721 2159.61 529.561 2159 529.243 2158.41 528.924 2157.81 528.505 2157.32 527.987 2156.95 527.629 2156.71 527.175 2156.51 526.628 2156.35 526.08 2156.19 525.477 2156.08 524.819 2156.02L524.819 2153.85 539.075 2153.07 539.523 2153.52 539.523 2157.84 539.643 2157.84C540.201 2157.34 540.878 2156.75 541.675 2156.05 542.472 2155.36 543.21 2154.79 543.887 2154.35 544.624 2153.88 545.591 2153.47 546.786 2153.13 547.982 2152.79 549.257 2152.62 550.612 2152.62ZM507.601 2152.62C510.848 2152.62 513.284 2153.54 514.908 2155.38 516.532 2157.22 517.344 2159.66 517.344 2162.7L517.344 2177.31C517.344 2178.05 517.453 2178.64 517.672 2179.07 517.892 2179.51 518.3 2179.86 518.898 2180.12 519.217 2180.26 519.61 2180.39 520.078 2180.53 520.546 2180.67 521.079 2180.77 521.677 2180.83L521.677 2183.01 503.715 2183.01 503.715 2180.83C504.094 2180.79 504.552 2180.74 505.09 2180.68 505.628 2180.62 506.036 2180.52 506.315 2180.38 506.734 2180.17 507.033 2179.85 507.212 2179.43 507.391 2179.01 507.481 2178.4 507.481 2177.58L507.481 2163.63C507.481 2161.6 507.106 2160.07 506.357 2159.05 505.608 2158.03 504.504 2157.51 503.046 2157.51 502.246 2157.51 501.502 2157.63 500.813 2157.87 500.124 2158.11 499.449 2158.46 498.79 2158.92 498.211 2159.31 497.746 2159.72 497.397 2160.14 497.047 2160.56 496.752 2160.92 496.513 2161.24L496.513 2177.25C496.513 2177.95 496.612 2178.53 496.811 2179 497.011 2179.47 497.339 2179.82 497.798 2180.06 498.116 2180.24 498.515 2180.39 498.993 2180.53 499.471 2180.67 499.94 2180.77 500.398 2180.83L500.398 2183.01 482.227 2183.01 482.227 2180.83C482.725 2180.79 483.228 2180.74 483.736 2180.67 484.244 2180.6 484.678 2180.5 485.036 2180.38 485.674 2180.17 486.112 2179.83 486.351 2179.37 486.59 2178.91 486.71 2178.32 486.71 2177.58L486.71 2160.23C486.71 2159.61 486.55 2159 486.232 2158.41 485.913 2157.81 485.494 2157.32 484.976 2156.95 484.618 2156.71 484.164 2156.51 483.617 2156.35 483.069 2156.19 482.466 2156.08 481.808 2156.02L481.808 2153.85 496.064 2153.07 496.513 2153.52 496.513 2157.84 496.632 2157.84C497.19 2157.34 497.868 2156.75 498.664 2156.05 499.461 2155.36 500.199 2154.79 500.876 2154.35 501.613 2153.88 502.58 2153.47 503.775 2153.13 504.971 2152.79 506.246 2152.62 507.601 2152.62ZM638.321 2152.56C640.253 2152.56 642.027 2152.68 643.641 2152.91 645.255 2153.14 646.709 2153.61 648.004 2154.32 649.239 2155.02 650.221 2156.03 650.948 2157.35 651.675 2158.67 652.039 2160.4 652.039 2162.52 652.039 2164.77 651.994 2167.43 651.904 2170.51 651.815 2173.6 651.77 2175.62 651.77 2176.6 651.77 2177.49 651.904 2178.2 652.173 2178.71 652.442 2179.23 652.856 2179.62 653.414 2179.88 653.752 2180.04 654.285 2180.13 655.013 2180.16 655.74 2180.19 656.402 2180.21 657 2180.21L657 2182.38C656.125 2182.76 655.091 2183.11 653.898 2183.43 652.705 2183.74 651.442 2183.9 650.11 2183.9 647.664 2183.9 645.865 2183.54 644.712 2182.81 643.558 2182.09 642.773 2181.05 642.355 2179.7L642.176 2179.7C641.498 2180.37 640.844 2180.95 640.216 2181.43 639.587 2181.91 638.913 2182.31 638.195 2182.65 637.257 2183.09 636.354 2183.42 635.486 2183.63 634.618 2183.85 633.405 2183.96 631.849 2183.96 629.534 2183.96 627.558 2183.28 625.922 2181.92 624.285 2180.55 623.467 2178.75 623.467 2176.5 623.467 2175.2 623.647 2174.1 624.006 2173.2 624.365 2172.29 624.874 2171.49 625.533 2170.79 626.131 2170.16 626.825 2169.63 627.613 2169.21 628.401 2168.79 629.264 2168.4 630.202 2168.05 631.998 2167.39 634.154 2166.71 636.668 2166 639.183 2165.29 641.019 2164.66 642.176 2164.1L642.176 2161.24C642.176 2160.74 642.136 2160.09 642.057 2159.27 641.977 2158.46 641.808 2157.77 641.549 2157.22 641.269 2156.58 640.831 2156.04 640.233 2155.61 639.635 2155.17 638.848 2154.95 637.871 2154.95 636.994 2154.95 636.262 2155.07 635.674 2155.32 635.085 2155.57 634.612 2155.82 634.253 2156.08 634.313 2156.48 634.483 2157.09 634.763 2157.9 635.043 2158.72 635.183 2159.5 635.183 2160.26 635.183 2160.59 635.093 2161.02 634.913 2161.52 634.733 2162.03 634.473 2162.43 634.133 2162.73 633.674 2163.13 633.16 2163.44 632.59 2163.66 632.021 2163.88 631.146 2163.98 629.968 2163.98 628.289 2163.98 627.02 2163.58 626.161 2162.78 625.301 2161.97 624.872 2160.92 624.872 2159.63 624.872 2158.52 625.315 2157.52 626.202 2156.63 627.088 2155.75 628.169 2155.02 629.444 2154.44 630.7 2153.85 632.144 2153.38 633.778 2153.06 635.412 2152.73 636.926 2152.56 638.321 2152.56ZM607.328 2152.56C610.994 2152.56 613.893 2153.25 616.025 2154.64 618.156 2156.02 619.222 2157.88 619.222 2160.23 619.222 2161.66 618.844 2162.81 618.087 2163.69 617.33 2164.56 616.025 2165 614.172 2165 612.677 2165 611.427 2164.64 610.421 2163.92 609.415 2163.21 608.912 2162.27 608.912 2161.12 608.912 2160.15 609.071 2159.18 609.39 2158.23 609.708 2157.28 609.898 2156.55 609.958 2156.05 609.738 2155.69 609.459 2155.42 609.121 2155.23 608.782 2155.04 608.254 2154.95 607.537 2154.95 606.64 2154.95 605.823 2155.16 605.086 2155.58 604.349 2155.99 603.661 2156.73 603.024 2157.78 602.406 2158.78 601.913 2160.11 601.545 2161.78 601.176 2163.45 600.992 2165.46 600.992 2167.8 600.992 2171.34 601.823 2174.19 603.487 2176.36 605.151 2178.53 607.138 2179.61 609.449 2179.61 611.661 2179.61 613.419 2179.12 614.724 2178.13 616.029 2177.15 617.19 2175.75 618.206 2173.94L620.448 2175.49C619.83 2176.71 619.093 2177.82 618.236 2178.82 617.379 2179.82 616.353 2180.71 615.158 2181.49 613.903 2182.3 612.627 2182.92 611.332 2183.34 610.037 2183.75 608.533 2183.96 606.819 2183.96 604.05 2183.96 601.604 2183.56 599.482 2182.75 597.36 2181.95 595.612 2180.85 594.237 2179.46 592.862 2178.05 591.836 2176.38 591.159 2174.45 590.481 2172.52 590.143 2170.43 590.143 2168.16 590.143 2166.09 590.556 2164.12 591.383 2162.25 592.21 2160.39 593.331 2158.75 594.745 2157.33 596.2 2155.88 598.008 2154.73 600.17 2153.86 602.331 2153 604.717 2152.56 607.328 2152.56ZM461.314 2152.56C463.247 2152.56 465.02 2152.68 466.634 2152.91 468.248 2153.14 469.702 2153.61 470.997 2154.32 472.233 2155.02 473.214 2156.03 473.941 2157.35 474.669 2158.67 475.032 2160.4 475.032 2162.52 475.032 2164.77 474.987 2167.43 474.898 2170.51 474.808 2173.6 474.763 2175.62 474.763 2176.6 474.763 2177.49 474.898 2178.2 475.167 2178.71 475.436 2179.23 475.849 2179.62 476.407 2179.88 476.746 2180.04 477.279 2180.13 478.006 2180.16 478.733 2180.19 479.396 2180.21 479.993 2180.21L479.993 2182.38C479.119 2182.76 478.085 2183.11 476.891 2183.43 475.698 2183.74 474.436 2183.9 473.104 2183.9 470.658 2183.9 468.858 2183.54 467.705 2182.81 466.552 2182.09 465.766 2181.05 465.348 2179.7L465.17 2179.7C464.491 2180.37 463.838 2180.95 463.209 2181.43 462.58 2181.91 461.907 2182.31 461.188 2182.65 460.25 2183.09 459.348 2183.42 458.479 2183.63 457.611 2183.85 456.399 2183.96 454.842 2183.96 452.527 2183.96 450.552 2183.28 448.915 2181.92 447.279 2180.55 446.461 2178.75 446.461 2176.5 446.461 2175.2 446.64 2174.1 447 2173.2 447.359 2172.29 447.868 2171.49 448.526 2170.79 449.125 2170.16 449.818 2169.63 450.606 2169.21 451.395 2168.79 452.258 2168.4 453.196 2168.05 454.992 2167.39 457.147 2166.71 459.662 2166 462.176 2165.29 464.012 2164.66 465.17 2164.1L465.17 2161.24C465.17 2160.74 465.13 2160.09 465.05 2159.27 464.97 2158.46 464.801 2157.77 464.542 2157.22 464.263 2156.58 463.824 2156.04 463.226 2155.61 462.628 2155.17 461.841 2154.95 460.864 2154.95 459.988 2154.95 459.255 2155.07 458.667 2155.32 458.079 2155.57 457.605 2155.82 457.247 2156.08 457.307 2156.48 457.477 2157.09 457.757 2157.9 458.036 2158.72 458.176 2159.5 458.176 2160.26 458.176 2160.59 458.086 2161.02 457.906 2161.52 457.727 2162.03 457.467 2162.43 457.127 2162.73 456.667 2163.13 456.153 2163.44 455.583 2163.66 455.014 2163.88 454.14 2163.98 452.961 2163.98 451.282 2163.98 450.013 2163.58 449.154 2162.78 448.295 2161.97 447.865 2160.92 447.865 2159.63 447.865 2158.52 448.309 2157.52 449.195 2156.63 450.082 2155.75 451.163 2155.02 452.438 2154.44 453.693 2153.85 455.138 2153.38 456.771 2153.06 458.405 2152.73 459.919 2152.56 461.314 2152.56ZM424.785 2144.51 434.468 2144.51 434.468 2153.55 442.866 2153.55 442.866 2156.8 434.528 2156.8 434.528 2173.12C434.528 2175.44 434.853 2177.09 435.502 2178.06 436.152 2179.03 437.317 2179.52 438.996 2179.52 439.536 2179.52 440.286 2179.48 441.245 2179.4 442.205 2179.32 442.875 2179.23 443.255 2179.13L443.255 2181.64C441.979 2182.19 440.615 2182.7 439.16 2183.14 437.706 2183.59 435.932 2183.81 433.84 2183.81 430.732 2183.81 428.426 2183.06 426.922 2181.55 425.417 2180.04 424.665 2177.89 424.665 2175.09L424.665 2156.8 419.285 2156.8 419.285 2153.55 424.785 2153.55ZM341.966 2143.41C341.588 2143.41 341.095 2143.42 340.487 2143.45 339.879 2143.48 339.356 2143.51 338.918 2143.53L338.918 2159.21 340.472 2159.21C343.7 2159.21 346.081 2158.46 347.615 2156.96 349.149 2155.46 349.916 2153.43 349.916 2150.86 349.916 2148.52 349.254 2146.69 347.929 2145.38 346.604 2144.07 344.616 2143.41 341.966 2143.41ZM322.092 2140.7 345.134 2140.7C350.932 2140.7 355.116 2141.49 357.687 2143.08 360.257 2144.67 361.542 2147.02 361.542 2150.12 361.542 2151.55 361.253 2152.81 360.675 2153.89 360.097 2154.97 359.271 2155.91 358.195 2156.71 357.218 2157.44 356.053 2158.08 354.698 2158.62 353.343 2159.15 351.889 2159.6 350.335 2159.96L350.335 2160.53C351.889 2160.68 353.503 2161.03 355.176 2161.55 356.85 2162.08 358.304 2162.76 359.54 2163.6 360.815 2164.47 361.851 2165.57 362.648 2166.89 363.445 2168.21 363.843 2169.77 363.843 2171.56 363.843 2173.71 363.39 2175.52 362.483 2177 361.577 2178.48 360.277 2179.65 358.583 2180.5 356.79 2181.42 354.723 2182.06 352.382 2182.44 350.041 2182.82 347.286 2183.01 344.118 2183.01L322.092 2183.01 322.092 2180.68C322.709 2180.62 323.486 2180.53 324.423 2180.41 325.359 2180.3 326.017 2180.16 326.395 2180 327.132 2179.7 327.636 2179.31 327.905 2178.82 328.174 2178.33 328.308 2177.7 328.308 2176.93L328.308 2147.11C328.308 2146.39 328.198 2145.79 327.979 2145.32 327.76 2144.84 327.232 2144.42 326.395 2144.07 325.778 2143.81 325.06 2143.59 324.243 2143.42 323.427 2143.26 322.709 2143.12 322.092 2143.02ZM259.189 2138.07 259.19 2138.07 259.19 2138.07ZM576.886 2136.85C578.5 2136.85 579.885 2137.39 581.04 2138.46 582.196 2139.53 582.774 2140.83 582.774 2142.34 582.774 2143.85 582.191 2145.13 581.025 2146.2 579.86 2147.26 578.48 2147.79 576.886 2147.79 575.272 2147.79 573.882 2147.26 572.717 2146.2 571.551 2145.13 570.968 2143.85 570.968 2142.34 570.968 2140.83 571.551 2139.53 572.717 2138.46 573.882 2137.39 575.272 2136.85 576.886 2136.85ZM408.151 2136.85C409.765 2136.85 411.149 2137.39 412.305 2138.46 413.461 2139.53 414.038 2140.83 414.038 2142.34 414.038 2143.85 413.456 2145.13 412.29 2146.2 411.124 2147.26 409.745 2147.79 408.151 2147.79 406.537 2147.79 405.147 2147.26 403.981 2146.2 402.816 2145.13 402.233 2143.85 402.233 2142.34 402.233 2140.83 402.816 2139.53 403.981 2138.46 405.147 2137.39 406.537 2136.85 408.151 2136.85ZM248.735 2135.76C250.345 2135.8 253.563 2136.03 255.393 2139.66 253.507 2138.88 252.145 2138.92 248.735 2135.76ZM283.714 2135.09C283.112 2136.33 281.739 2138.77 277.018 2138.95 278.548 2137.74 278.975 2136.66 283.714 2135.09ZM225 2134.82C234.597 2135.38 235.624 2152.27 242.706 2143.16 241.867 2148.12 236.261 2158.4 244.995 2151.34 243.809 2158.7 244.019 2164.72 248.876 2160.54 250.35 2162.73 250.455 2163.89 252.697 2165.22 256.18 2165.84 255.655 2162.64 256.282 2162.63 256.598 2162.62 257.624 2163.22 258.769 2165.94 259.051 2166.61 258.786 2167.78 260.194 2168.57 262.077 2169.08 264.273 2166.72 260.763 2164.49 262.487 2162.68 261.127 2162.17 259.065 2162.16 260.594 2160.2 258.249 2160.13 255.23 2159.98 257.454 2157.92 253.391 2157.88 251.242 2157.21 254.556 2155.88 250.81 2155.38 248.391 2154.73 252.438 2152.2 249.036 2152.17 247.117 2150.89 251.747 2151.48 249.118 2149.84 247.764 2148.24 252.413 2149.41 251.719 2149.44 250.635 2145.73 253.29 2146.58 253.975 2145.79 253.122 2143.71 257.544 2145.15 255.927 2142.7 252.439 2139.52 261.007 2142.65 258.026 2144.63 257.541 2138.67 263.825 2143.23 260.031 2140.94 260.913 2137.27 267.469 2144.37 262.608 2137.88 266.894 2137.13 268.406 2143.14 267.874 2138.71 271.754 2137.38 271.774 2141.12 271.493 2142.39 274.559 2138.66 274.453 2144.62 276.844 2138.95 281.352 2139.52 276.685 2142.46 276.942 2143.79 278.011 2144.07 278.569 2144.22 279.483 2143.47 279.504 2143.86 277.887 2145.7 279.024 2147.51 281.78 2145.6 280.403 2150.82 281.639 2148.12 284.651 2148.39 280.427 2152.17 282.797 2150.01 285.878 2151.23 281.804 2151.99 282.074 2153.23 283.264 2154.22 280.303 2154.95 280.12 2156.1 281.081 2157.41 277.543 2157.55 275.603 2158.74 278.067 2159.89 275.387 2160.45 274.122 2158.93 273.078 2161.72 271.453 2162.28 270.782 2163.01 271.747 2163.84 272.531 2164.51 270.883 2164.97 270.668 2165.73 270.303 2167.01 270.903 2168.55 272.464 2168.36 273.264 2167.12 274.23 2163.83 275.888 2162.67 277.668 2168.13 283.078 2162.82 283.785 2160.6 284.161 2161.95 288.261 2162.12 288.768 2158.48 288.994 2156.85 287.687 2154.88 286.989 2151.65 297.053 2157.39 288 2147.03 289.722 2143.06 290.93 2144.09 294.247 2147.38 294.895 2145.93 295.889 2143.69 299.476 2137.07 305.939 2134.87 305.421 2137.11 301.527 2139.78 300.589 2142.36 298.817 2147.24 301.157 2150.9 306.543 2147.74 304.948 2150.61 299.117 2153.13 297.899 2156.06 297.372 2157.33 297.765 2158.07 301.062 2159.48 302.104 2159.93 303.09 2160.8 303.722 2161.82 295.048 2159.82 290.077 2165.77 297.727 2167.69 293.764 2169.07 290.395 2166.73 288.298 2167.41 285.382 2168.35 288.831 2171.38 291.549 2172.04 286.876 2173.6 281.174 2167.16 279.251 2171.76 278.919 2172.55 280.602 2173.86 283.432 2174.22 281.042 2177.88 273.501 2169.95 273.015 2175.51 269.34 2176.82 271.949 2178.18 272.651 2179.55 270.49 2181.32 271.094 2182.7 272.651 2183.95 271.709 2187.2 275.608 2189.44 282.779 2190.99L249.745 2191 249.744 2191C253.819 2189.4 264.634 2186.49 259.915 2184.37 262.127 2182.44 263.105 2180.71 259.792 2179.04 263.821 2176.31 261.391 2175.88 259.367 2175.3 262.088 2171.51 253.125 2174.69 250.128 2175.12 254.674 2170.55 252.664 2169.67 249.156 2170.38 247.104 2170.79 245.784 2172.64 241.141 2172.57 248.199 2168.24 244.715 2167.3 243.631 2167.3 241.454 2167.32 232.322 2170.52 235.437 2168.03 243.157 2164.89 236.811 2160.91 229.29 2161.67 228.192 2159.89 238.602 2159.11 233.678 2154.76 229.009 2150.64 230.537 2153.46 226.052 2148.33 234.23 2150.9 235.491 2147.03 225 2134.82ZM253.777 2133.36C254.418 2133.74 255.378 2136.58 255.611 2137.26 254.585 2137.5 250.223 2132.65 253.282 2133.96 253.386 2133.37 253.564 2133.23 253.777 2133.36ZM278.744 2133.25C279.053 2133.24 279.463 2133.39 279.721 2133.78 282.531 2132.85 278.867 2137.45 276.838 2137.42 276.35 2137.06 279.206 2135.23 278.376 2133.72 278.228 2133.45 278.435 2133.27 278.744 2133.25ZM255.729 2132.68C256.283 2133.3 256.82 2133.71 257.383 2134.43L259.189 2138.07 256.988 2136.56C256.265 2135.74 255.698 2134.53 255.729 2132.68ZM277.545 2132.43C276.74 2134.05 276.867 2135.09 273.347 2138.4 273.299 2137.15 273.378 2134.62 277.545 2132.43ZM272.577 2131.78C272.895 2131.59 273.199 2131.78 273.415 2132.61 276.499 2131.23 272.181 2135.9 271.359 2136.79 270.543 2136.33 271.623 2132.35 272.577 2131.78ZM259.035 2131.67C260.046 2132.12 261.541 2135.34 260.705 2136.44 260.043 2136.59 259.593 2133.5 257.508 2133.27 256.763 2133.19 257.169 2132.26 258.289 2132.31 258.415 2131.67 258.698 2131.52 259.035 2131.67ZM269.975 2131.18C269.885 2132.88 270.4 2133.81 268.547 2137.77L268.547 2137.77C268.021 2136.63 267.113 2134.29 269.975 2131.18ZM261.665 2131.16C262.934 2132.05 265.359 2133.96 264.156 2137.98 263.21 2136.32 262.082 2135.63 261.665 2131.16ZM265.164 2131.15C265.369 2130.86 265.741 2130.96 266.331 2131.71 268.537 2129.37 266.747 2135.37 266.409 2136.52 265.434 2136.31 264.549 2132.02 265.164 2131.15Z" fill-rule="evenodd"/></g></svg>