<svg width="1296" height="972" xmlns="http://www.w3.org/2000/svg" xmlns:xlink="http://www.w3.org/1999/xlink" xml:space="preserve" overflow="hidden"><g transform="translate(-2360 -101)"><path d="M3616.09 316.974 3613.38 311.657C3572.24 228.329 3502.17 163.318 3416.26 128.665 3300.2 81.8502 3168.69 95.3237 3064.81 164.919 2997.18 210.073 2924.7 248.411 2849.26 278.377 2787.11 303.144 2722.32 322.412 2656.81 336.114 2545.25 359.319 2451.76 430.363 2400.55 531.133 2349.93 630.451 2347.16 745.69 2393.01 847.179L2397.17 856.247C2436.41 943.242 2506.4 1010.54 2594.67 1046.15 2648.79 1067.98 2708.09 1076.48 2766.07 1070.94 2894.92 1058.3 3021.64 1028.95 3142.25 983.844 3270.19 935.775 3391.15 869.902 3501.73 788.434 3649.12 679.579 3697.22 481.263 3616.09 316.974ZM3128.39 947.001C3010.95 991.063 2887.69 1019.69 2762.4 1031.87 2710.53 1036.92 2657.64 1029.31 2609.32 1009.82 2530.5 978.028 2467.76 917.876 2432.78 840.203L2428.81 831.209C2387.76 740.317 2390.13 637.586 2435.37 548.982 2481.28 458.743 2564.82 395.088 2664.74 374.577 2732.57 360.336 2799.58 340.275 2863.7 314.822 2941.69 283.773 3016.72 244.351 3086.75 197.423 3179.89 135.106 3297.54 123.01 3401.61 164.99 3478.61 196.053 3541.47 254.351 3578.31 328.975L3581.02 334.292C3653.58 481.609 3610.48 659.137 3478.36 756.836 3370.89 836.386 3253.02 900.34 3128.39 947.001Z" fill-rule="evenodd"/><path d="M3548.83 350.272 3546.12 344.954C3507.58 266.689 3437.12 208.915 3352.81 186.522 3268.76 164.021 3178.93 178.888 3106.63 227.228 3034.59 275.46 2957.2 316.039 2876.91 348.063 2810.76 374.382 2741.78 395.129 2671.95 409.618 2582.76 428.125 2508.15 484.823 2467.26 565.257 2427.02 644.057 2424.9 735.696 2461.54 816.574L2461.47 816.756 2465.52 825.569C2497.28 896.032 2554.44 949.076 2622.55 976.549 2664.87 993.62 2711.32 1000.96 2758.83 996.257 2881.06 984.32 3001.23 956.558 3115.95 913.505 3237.33 868.072 3352.07 805.6 3457.25 728.08 3575.26 640.741 3613.8 481.856 3548.83 350.272ZM2701.73 599.651C2696.54 607.273 2686.75 610.082 2678.39 606.711 2677.12 606.199 2675.74 605.431 2674.55 604.736L2631.39 575.081C2622.46 568.945 2620.24 556.646 2626.38 547.718 2632.44 538.971 2644.56 536.679 2653.56 542.633L2696.71 572.289C2705.64 578.424 2707.86 590.723 2701.73 599.651ZM2709.4 812.022 2719.09 807.905C2729.03 803.678 2740.65 808.367 2744.88 818.308 2749.1 828.248 2744.49 839.69 2734.55 843.917L2724.61 848.143C2719.76 850.202 2714.31 850.113 2709.59 848.208 2705.05 846.376 2701.06 842.656 2699 837.813 2694.77 827.872 2699.46 816.248 2709.4 812.022ZM2955.32 560.458C2949.89 563.969 2943.16 564.423 2937.53 562.152 2933.72 560.613 2930.53 558.058 2928.39 554.451L2901.96 513.17C2896.13 504.062 2898.93 491.887 2908.04 486.058 2917.15 480.23 2929.32 483.029 2935.15 492.138L2961.4 533.345C2967.23 542.454 2964.43 554.629 2955.32 560.458ZM2697.69 735.509C2683.46 693.254 2782.68 620.601 2823.23 604.598 2863.79 588.595 2906.07 600.856 2941 639.491 2955.27 664.541 2993.6 686.154 2983.81 714.641 2984.36 752.13 2890.28 765.54 2808.22 801.102 2770.84 817.183 2693.66 745.498 2697.69 735.509ZM3095.1 402.921C3103.23 395.853 3115.59 396.617 3122.84 404.82L3159.27 445.912C3166.52 454.116 3165.76 466.478 3157.56 473.728 3151.72 478.766 3143.9 479.834 3137.18 477.124 3134.46 476.025 3132.03 474.199 3130 471.902L3093.46 430.555C3086.32 422.607 3087.08 410.244 3095.1 402.921ZM3318.36 354.656C3325.68 362.679 3325.17 374.933 3317.15 382.256L3284.77 412.274C3279.04 417.567 3270.96 418.743 3264.06 415.959 3261.52 414.934 3259.09 413.108 3256.99 410.993 3249.84 403.044 3250.24 390.535 3258.19 383.394L3290.76 353.449C3298.78 346.126 3311.03 346.634 3318.36 354.656ZM3360.46 545.016 3348.28 494.066C3345.77 483.549 3352.12 473.021 3362.64 470.506 3373.34 468.064 3383.87 474.422 3386.38 484.94L3398.56 535.89C3401.08 546.407 3394.54 556.862 3384.02 559.377 3379.98 560.492 3375.73 560.044 3372.1 558.578 3366.46 556.307 3361.93 551.312 3360.46 545.016ZM3328.98 651.844C3324.95 661.833 3313.67 666.783 3303.49 662.68 3293.51 658.651 3287.9 646.888 3291.93 636.899 3295.96 626.909 3306.52 621.667 3316.51 625.696L3318.15 626.356C3328.32 630.458 3333.01 641.855 3328.98 651.844ZM3196.84 609.31C3192.54 610.534 3188.29 610.086 3184.48 608.547 3178.85 606.276 3174.42 601.535 3172.88 595.421L3165.57 567.979C3162.8 557.57 3169.05 546.787 3179.46 544.017 3189.87 541.247 3200.66 547.497 3203.43 557.906L3210.73 585.348C3213.5 595.758 3207.25 606.54 3196.84 609.31ZM2981.6 791.103 3012.96 799.74C3023.28 802.425 3029.43 813.353 3026.67 823.855 3023.8 834.102 3013.06 840.326 3002.56 837.568L2971.2 828.931C2970.47 828.638 2969.67 828.526 2969.12 828.306 2960.04 824.643 2954.84 814.518 2957.48 804.815 2960.35 794.568 2971.1 788.344 2981.6 791.103ZM3046.22 627.747 3054.5 607.223C3058.53 597.234 3070 592.358 3079.99 596.388 3089.98 600.417 3094.86 611.887 3090.83 621.876L3082.55 642.399C3078.52 652.389 3067.05 657.265 3057.06 653.235 3047.07 649.206 3042.2 637.736 3046.22 627.747ZM3126.97 775.197C3121.39 765.979 3124.38 753.878 3133.77 748.377L3184.74 717.831C3194.14 712.331 3206.24 715.312 3211.74 724.711 3217.31 733.928 3214.15 745.956 3204.94 751.53L3153.79 782.002C3148.25 785.259 3141.85 785.423 3136.4 783.225 3132.59 781.686 3129.21 779.058 3126.97 775.197Z" fill-rule="evenodd"/></g></svg>