<svg id="Layer_1" viewBox="0 0 64 64" xmlns="http://www.w3.org/2000/svg" data-name="Layer 1"><path d="m16.381 54.531-.553-3.271c-.036-.214-.002-.434.098-.627l13.106-25.275-15.761-17.312c-2.228 1.631-6.362 5.072-6.996 7.55-.983 3.844-2.824 22.846-2.589 25.197.25 1.371 6.326 7.716 12.695 13.738z"/><path d="m42.472 19.886-25.295-10.521 13.715 15.065c1.138.735 11.625 7.469 17.37 10.058 4.216 1.9 8.818-.917 10.769-2.366z"/><path d="m47.44 36.312c-5.228-2.356-13.953-7.847-16.817-9.677l-12.767 24.622.82 4.853c5.201-.998 28.917-5.564 31.672-6.408 1.232-.543 4.829-7.534 7.984-14.706-2.694 1.582-6.827 3.149-10.893 1.316z"/></svg>