<svg id="Layer_3" height="512" viewBox="0 0 64 64" width="512" xmlns="http://www.w3.org/2000/svg" data-name="Layer 3"><path d="m32 57a13.811 13.811 0 0 0 -8.841 3.2 7.764 7.764 0 0 1 -4.969 1.8 8.19 8.19 0 0 1 -8.19-8.19 6.478 6.478 0 0 1 3.331-5.661l1.3-.723a14.383 14.383 0 0 0 6.292-7.041 12 12 0 0 1 11.077-7.385 12 12 0 0 1 11.076 7.385 14.383 14.383 0 0 0 6.292 7.041l1.3.723a6.478 6.478 0 0 1 3.332 5.661 8.19 8.19 0 0 1 -8.19 8.19 7.764 7.764 0 0 1 -4.969-1.8 13.811 13.811 0 0 0 -8.841-3.2z"/><ellipse cx="23" cy="24" rx="6" ry="9"/><ellipse cx="41" cy="24" rx="6" ry="9"/><ellipse cx="11" cy="37" rx="6" ry="8"/><ellipse cx="53" cy="37" rx="6" ry="8"/><path d="m9.572 26a2.428 2.428 0 0 0 2.428-2.428 2.423 2.423 0 0 0 -.257-1.086 7.046 7.046 0 0 1 -.743-3.148v-3.338l-.343.458a13.28 13.28 0 0 0 -2.657 7.97 1.572 1.572 0 0 0 1.572 1.572z"/><path d="m23.572 12a2.428 2.428 0 0 0 2.428-2.428 2.423 2.423 0 0 0 -.257-1.086 7.046 7.046 0 0 1 -.743-3.148v-3.338l-.343.458a13.28 13.28 0 0 0 -2.657 7.97 1.572 1.572 0 0 0 1.572 1.572z"/><path d="m54.428 26a2.428 2.428 0 0 1 -2.428-2.428 2.423 2.423 0 0 1 .257-1.086 7.046 7.046 0 0 0 .743-3.148v-3.338l.343.458a13.28 13.28 0 0 1 2.657 7.97 1.572 1.572 0 0 1 -1.572 1.572z"/><path d="m40.428 12a2.428 2.428 0 0 1 -2.428-2.428 2.423 2.423 0 0 1 .257-1.086 7.046 7.046 0 0 0 .743-3.148v-3.338l.343.458a13.28 13.28 0 0 1 2.657 7.97 1.572 1.572 0 0 1 -1.572 1.572z"/></svg>