<svg width="341" height="235" xmlns="http://www.w3.org/2000/svg" xmlns:xlink="http://www.w3.org/1999/xlink" xml:space="preserve" overflow="hidden"><defs><clipPath id="clip0"><rect x="1230" y="1517" width="341" height="235"/></clipPath><radialGradient cx="936567" cy="651164" r="1140689" gradientUnits="userSpaceOnUse" spreadMethod="pad" id="fill1" gradientTransform="matrix(0.000360892 0 0 0.000360892 1233 1517)"><stop offset="0" stop-color="#E0E5F7" stop-opacity="0"/><stop offset="0.38" stop-color="#E0E5F7" stop-opacity="0"/><stop offset="1" stop-color="#FFFFFF" stop-opacity="0.458824"/></radialGradient><radialGradient cx="0" cy="0" r="1142966" fx="-1.49488e-11" fy="-1.49488e-11" gradientUnits="userSpaceOnUse" spreadMethod="pad" id="fill2" gradientTransform="matrix(0.000360892 0 0 0.000360892 1230 1517)"><stop offset="0" stop-color="#C775E7" stop-opacity="0"/><stop offset="0.36" stop-color="#C775E7" stop-opacity="0"/><stop offset="1" stop-color="#C269E5"/></radialGradient><linearGradient x1="1459.53" y1="1476.43" x2="1344.47" y2="1792.57" gradientUnits="userSpaceOnUse" spreadMethod="reflect" id="fill3"><stop offset="0" stop-color="#00B0F0" stop-opacity="0"/><stop offset="0.56" stop-color="#00B0F0" stop-opacity="0"/><stop offset="1" stop-color="#00B0F0" stop-opacity="0.341176"/></linearGradient></defs><g clip-path="url(#clip0)" transform="translate(-1230 -1517)"><path d="M1233 1556.17C1233 1534.54 1250.54 1517 1272.17 1517L1531.83 1517C1553.46 1517 1571 1534.54 1571 1556.17L1571 1712.83C1571 1734.46 1553.46 1752 1531.83 1752L1272.17 1752C1250.54 1752 1233 1734.46 1233 1712.83Z" fill="#C775E7" fill-rule="evenodd"/><path d="M1233 1556.17C1233 1534.54 1250.54 1517 1272.17 1517L1531.83 1517C1553.46 1517 1571 1534.54 1571 1556.17L1571 1712.83C1571 1734.46 1553.46 1752 1531.83 1752L1272.17 1752C1250.54 1752 1233 1734.46 1233 1712.83Z" fill="url(#fill1)" fill-rule="evenodd"/><path d="M1230 1556.17C1230 1534.54 1247.54 1517 1269.17 1517L1529.83 1517C1551.46 1517 1569 1534.54 1569 1556.17L1569 1712.83C1569 1734.46 1551.46 1752 1529.83 1752L1269.17 1752C1247.54 1752 1230 1734.46 1230 1712.83Z" fill="url(#fill2)" fill-rule="evenodd"/><path d="M1233 1556.17C1233 1534.54 1250.54 1517 1272.17 1517L1531.83 1517C1553.46 1517 1571 1534.54 1571 1556.17L1571 1712.83C1571 1734.46 1553.46 1752 1531.83 1752L1272.17 1752C1250.54 1752 1233 1734.46 1233 1712.83Z" fill="url(#fill3)" fill-rule="evenodd"/></g></svg>