<svg width="341" height="236" xmlns="http://www.w3.org/2000/svg" xmlns:xlink="http://www.w3.org/1999/xlink" xml:space="preserve" overflow="hidden"><defs><clipPath id="clip0"><rect x="1230" y="1466" width="341" height="236"/></clipPath><radialGradient cx="936567" cy="651206" r="1140713" gradientUnits="userSpaceOnUse" spreadMethod="pad" id="fill1" gradientTransform="matrix(0.000360892 0 0 0.000360892 1233 1466)"><stop offset="0" stop-color="#E0E5F7" stop-opacity="0"/><stop offset="0.38" stop-color="#E0E5F7" stop-opacity="0"/><stop offset="1" stop-color="#FFFFFF" stop-opacity="0.458824"/></radialGradient><radialGradient cx="-0.0625" cy="-0.0625" r="1142965" fx="0" fy="0" gradientUnits="userSpaceOnUse" spreadMethod="pad" id="fill2" gradientTransform="matrix(0.000360892 0 0 0.000360892 1230 1466)"><stop offset="0" stop-color="#C775E7" stop-opacity="0"/><stop offset="0.36" stop-color="#C775E7" stop-opacity="0"/><stop offset="1" stop-color="#C269E5"/></radialGradient><linearGradient x1="1459.54" y1="1425.43" x2="1344.46" y2="1741.59" gradientUnits="userSpaceOnUse" spreadMethod="reflect" id="fill3"><stop offset="0" stop-color="#00B0F0" stop-opacity="0"/><stop offset="0.56" stop-color="#00B0F0" stop-opacity="0"/><stop offset="1" stop-color="#3FCDFF" stop-opacity="0.160784"/></linearGradient></defs><g clip-path="url(#clip0)" transform="translate(-1230 -1466)"><path d="M1233 1505.17C1233 1483.54 1250.54 1466 1272.17 1466L1531.83 1466C1553.46 1466 1571 1483.54 1571 1505.17L1571 1661.85C1571 1683.48 1553.46 1701.02 1531.83 1701.02L1272.17 1701.02C1250.54 1701.02 1233 1683.48 1233 1661.85Z" fill="#C775E7" fill-rule="evenodd"/><path d="M1233 1505.17C1233 1483.54 1250.54 1466 1272.17 1466L1531.83 1466C1553.46 1466 1571 1483.54 1571 1505.17L1571 1661.85C1571 1683.48 1553.46 1701.02 1531.83 1701.02L1272.17 1701.02C1250.54 1701.02 1233 1683.48 1233 1661.85Z" fill="url(#fill1)" fill-rule="evenodd"/><path d="M1230 1505.17C1230 1483.54 1247.54 1466 1269.17 1466L1529.83 1466C1551.46 1466 1569 1483.54 1569 1505.17L1569 1661.83C1569 1683.46 1551.46 1701 1529.83 1701L1269.17 1701C1247.54 1701 1230 1683.46 1230 1661.83Z" fill="url(#fill2)" fill-rule="evenodd"/><path d="M1233 1505.17C1233 1483.54 1250.54 1466 1272.17 1466L1531.83 1466C1553.46 1466 1571 1483.54 1571 1505.17L1571 1661.85C1571 1683.48 1553.46 1701.02 1531.83 1701.02L1272.17 1701.02C1250.54 1701.02 1233 1683.48 1233 1661.85Z" fill="url(#fill3)" fill-rule="evenodd"/></g></svg>