<svg width="339" height="235" xmlns="http://www.w3.org/2000/svg" xmlns:xlink="http://www.w3.org/1999/xlink" xml:space="preserve" overflow="hidden"><defs><radialGradient cx="939338" cy="651163" r="1142965" fx="939338" fy="651163" gradientUnits="userSpaceOnUse" spreadMethod="pad" id="fill0" gradientTransform="matrix(0.000360892 0 0 0.000360892 1632 1466)"><stop offset="0" stop-color="#E0E5F7" stop-opacity="0"/><stop offset="0.4" stop-color="#E0E5F7" stop-opacity="0"/><stop offset="1" stop-color="#FFFFFF" stop-opacity="0.458824"/></radialGradient><linearGradient x1="1691.47" y1="1424.78" x2="1911.53" y2="1742.22" gradientUnits="userSpaceOnUse" spreadMethod="reflect" id="fill1"><stop offset="0" stop-color="#229BEE" stop-opacity="0"/><stop offset="0.37" stop-color="#229BEE" stop-opacity="0"/><stop offset="1" stop-color="#229BEE"/></linearGradient><linearGradient x1="1859.09" y1="1425.27" x2="1743.91" y2="1741.73" gradientUnits="userSpaceOnUse" spreadMethod="reflect" id="fill2"><stop offset="0" stop-color="#65BDFF" stop-opacity="0"/><stop offset="0.56" stop-color="#65BDFF" stop-opacity="0"/><stop offset="1" stop-color="#65BDFF" stop-opacity="0.666667"/></linearGradient></defs><g transform="translate(-1632 -1466)"><path d="M1801.5 1466C1883.41 1466 1951.75 1494.45 1967.56 1532.28L1971 1549.01 1971 1701 1632 1701 1632 1549.01 1635.44 1532.28C1651.25 1494.45 1719.59 1466 1801.5 1466Z" fill="#68BBF4" fill-rule="evenodd"/><path d="M1801.5 1466C1883.41 1466 1951.75 1494.45 1967.56 1532.28L1971 1549.01 1971 1701 1632 1701 1632 1549.01 1635.44 1532.28C1651.25 1494.45 1719.59 1466 1801.5 1466Z" fill="url(#fill0)" fill-rule="evenodd"/><path d="M1801.5 1466C1883.41 1466 1951.75 1494.45 1967.56 1532.28L1971 1549.01 1971 1701 1632 1701 1632 1549.01 1635.44 1532.28C1651.25 1494.45 1719.59 1466 1801.5 1466Z" fill="url(#fill1)" fill-rule="evenodd"/><path d="M1801.5 1466C1883.41 1466 1951.75 1494.45 1967.56 1532.28L1971 1549.01 1971 1701 1632 1701 1632 1549.01 1635.44 1532.28C1651.25 1494.45 1719.59 1466 1801.5 1466Z" fill="url(#fill2)" fill-rule="evenodd"/></g></svg>