<svg width="339" height="235" xmlns="http://www.w3.org/2000/svg" xmlns:xlink="http://www.w3.org/1999/xlink" xml:space="preserve" overflow="hidden"><defs><clipPath id="clip0"><rect x="1632" y="1517" width="339" height="235"/></clipPath><radialGradient cx="939338" cy="651164" r="1142966" gradientUnits="userSpaceOnUse" spreadMethod="pad" id="fill1" gradientTransform="matrix(0.000360892 0 0 0.000360892 1632 1517)"><stop offset="0" stop-color="#E0E5F7" stop-opacity="0"/><stop offset="0.4" stop-color="#E0E5F7" stop-opacity="0"/><stop offset="1" stop-color="#FFFFFF" stop-opacity="0.458824"/></radialGradient><linearGradient x1="1691.47" y1="1475.78" x2="1911.53" y2="1793.23" gradientUnits="userSpaceOnUse" spreadMethod="reflect" id="fill2"><stop offset="0" stop-color="#229BEE" stop-opacity="0"/><stop offset="0.37" stop-color="#229BEE" stop-opacity="0"/><stop offset="1" stop-color="#229BEE"/></linearGradient><linearGradient x1="1859.09" y1="1476.27" x2="1743.91" y2="1792.73" gradientUnits="userSpaceOnUse" spreadMethod="reflect" id="fill3"><stop offset="0" stop-color="#0070C0" stop-opacity="0"/><stop offset="0.56" stop-color="#0070C0" stop-opacity="0"/><stop offset="1" stop-color="#0070C0" stop-opacity="0.670588"/></linearGradient></defs><g clip-path="url(#clip0)" transform="translate(-1632 -1517)"><path d="M1801.5 1517C1883.41 1517 1951.75 1545.45 1967.56 1583.28L1971 1600.01 1971 1752 1632 1752 1632 1600.01 1635.44 1583.28C1651.25 1545.45 1719.59 1517 1801.5 1517Z" fill="#3BA8F0" fill-rule="evenodd"/><path d="M1801.5 1517C1883.41 1517 1951.75 1545.45 1967.56 1583.28L1971 1600.01 1971 1752 1632 1752 1632 1600.01 1635.44 1583.28C1651.25 1545.45 1719.59 1517 1801.5 1517Z" fill="url(#fill1)" fill-rule="evenodd"/><path d="M1801.5 1517C1883.41 1517 1951.75 1545.45 1967.56 1583.28L1971 1600.01 1971 1752 1632 1752 1632 1600.01 1635.44 1583.28C1651.25 1545.45 1719.59 1517 1801.5 1517Z" fill="url(#fill2)" fill-rule="evenodd"/><path d="M1801.5 1517C1883.41 1517 1951.75 1545.45 1967.56 1583.28L1971 1600.01 1971 1752 1632 1752 1632 1600.01 1635.44 1583.28C1651.25 1545.45 1719.59 1517 1801.5 1517Z" fill="url(#fill3)" fill-rule="evenodd"/></g></svg>