<svg width="338" height="235" xmlns="http://www.w3.org/2000/svg" xmlns:xlink="http://www.w3.org/1999/xlink" xml:space="preserve" overflow="hidden"><defs><clipPath id="clip0"><rect x="1725" y="881" width="338" height="235"/></clipPath></defs><g clip-path="url(#clip0)" transform="translate(-1725 -881)"><path d="M0 0 0 91.3081 0 246.692 0 338 1.11379 338 19.8966 316.6 38.6795 338 40.3779 338 59.1607 316.6 77.9436 338 79.642 338 98.4248 316.6 117.208 338 118.906 338 137.689 316.6 156.472 338 158.17 338 176.953 316.6 195.736 338 197.434 338 216.217 316.6 235 338 235 246.692 235 91.3081 235 0 216.217 21.4 197.434 0 195.736 0 176.953 21.4 158.17 0 156.472 0 137.689 21.4 118.906 0 117.208 0 98.4248 21.4 79.642 0 77.9436 0 59.1607 21.4 40.3779 0 38.6795 0 19.8966 21.4 1.11379 0Z" fill="#FFFFFF" fill-rule="evenodd" transform="matrix(1.83697e-16 1 1 -1.83697e-16 1725 881)"/></g></svg>