<svg width="338" height="235" xmlns="http://www.w3.org/2000/svg" xmlns:xlink="http://www.w3.org/1999/xlink" xml:space="preserve" overflow="hidden"><defs><clipPath id="clip0"><rect x="2032" y="1517" width="338" height="235"/></clipPath><radialGradient cx="651164" cy="936568" r="1140690" fx="651164" fy="936568" gradientUnits="userSpaceOnUse" spreadMethod="pad" id="fill1" gradientTransform="scale(0.000360892 0.000360892)"><stop offset="0" stop-color="#E0E5F7" stop-opacity="0"/><stop offset="0.35" stop-color="#E0E5F7" stop-opacity="0"/><stop offset="1" stop-color="#FFFFFF" stop-opacity="0.458824"/></radialGradient><radialGradient cx="651164" cy="936568" r="1140690" fx="651164" fy="936568" gradientUnits="userSpaceOnUse" spreadMethod="pad" id="fill2" gradientTransform="scale(0.000360892 0.000360892)"><stop offset="0" stop-color="#FF4747" stop-opacity="0"/><stop offset="0.41" stop-color="#FF4747" stop-opacity="0"/><stop offset="1" stop-color="#FF4747"/></radialGradient><linearGradient x1="-40.5707" y1="226.533" x2="275.571" y2="111.467" gradientUnits="userSpaceOnUse" spreadMethod="reflect" id="fill3"><stop offset="0" stop-color="#FFC000" stop-opacity="0"/><stop offset="0.56" stop-color="#FFC000" stop-opacity="0"/><stop offset="1" stop-color="#FBA305" stop-opacity="0.670588"/></linearGradient></defs><g clip-path="url(#clip0)" transform="translate(-2032 -1517)"><path d="M0 0 0 91.3082 0 246.692 0 338 1.11379 338 19.8966 316.6 38.6795 338 40.3779 338 59.1607 316.6 77.9436 338 79.642 338 98.4248 316.6 117.208 338 118.906 338 137.689 316.6 156.472 338 158.17 338 176.953 316.6 195.736 338 197.434 338 216.217 316.6 235 338 235 246.692 235 91.3082 235 0 216.217 21.4 197.434 0 195.736 0 176.953 21.4 158.17 0 156.472 0 137.689 21.4 118.906 0 117.208 0 98.4248 21.4 79.642 0 77.9436 0 59.1607 21.4 40.3779 0 38.6795 0 19.8966 21.4 1.11379 0Z" fill="#F86042" fill-rule="evenodd" transform="matrix(1.83697e-16 1 1 -1.83697e-16 2032 1517)"/><path d="M0 0 0 91.3082 0 246.692 0 338 1.11379 338 19.8966 316.6 38.6795 338 40.3779 338 59.1607 316.6 77.9436 338 79.642 338 98.4248 316.6 117.208 338 118.906 338 137.689 316.6 156.472 338 158.17 338 176.953 316.6 195.736 338 197.434 338 216.217 316.6 235 338 235 246.692 235 91.3082 235 0 216.217 21.4 197.434 0 195.736 0 176.953 21.4 158.17 0 156.472 0 137.689 21.4 118.906 0 117.208 0 98.4248 21.4 79.642 0 77.9436 0 59.1607 21.4 40.3779 0 38.6795 0 19.8966 21.4 1.11379 0Z" fill="url(#fill1)" fill-rule="evenodd" transform="matrix(1.83697e-16 1 1 -1.83697e-16 2032 1517)"/><path d="M0 0 0 91.3082 0 246.692 0 338 1.11379 338 19.8966 316.6 38.6795 338 40.3779 338 59.1607 316.6 77.9436 338 79.642 338 98.4248 316.6 117.208 338 118.906 338 137.689 316.6 156.472 338 158.17 338 176.953 316.6 195.736 338 197.434 338 216.217 316.6 235 338 235 246.692 235 91.3082 235 0 216.217 21.4 197.434 0 195.736 0 176.953 21.4 158.17 0 156.472 0 137.689 21.4 118.906 0 117.208 0 98.4248 21.4 79.642 0 77.9436 0 59.1607 21.4 40.3779 0 38.6795 0 19.8966 21.4 1.11379 0Z" fill="url(#fill2)" fill-rule="evenodd" transform="matrix(-1.83697e-16 -1 -1 1.83697e-16 2370 1752)"/><path d="M0 0 0 91.3082 0 246.692 0 338 1.11379 338 19.8966 316.6 38.6795 338 40.3779 338 59.1607 316.6 77.9436 338 79.642 338 98.4248 316.6 117.208 338 118.906 338 137.689 316.6 156.472 338 158.17 338 176.953 316.6 195.736 338 197.434 338 216.217 316.6 235 338 235 246.692 235 91.3082 235 0 216.217 21.4 197.434 0 195.736 0 176.953 21.4 158.17 0 156.472 0 137.689 21.4 118.906 0 117.208 0 98.4248 21.4 79.642 0 77.9436 0 59.1607 21.4 40.3779 0 38.6795 0 19.8966 21.4 1.11379 0Z" fill="url(#fill3)" fill-rule="evenodd" transform="matrix(1.83697e-16 1 1 -1.83697e-16 2032 1517)"/></g></svg>