<svg width="339" height="235" xmlns="http://www.w3.org/2000/svg" xmlns:xlink="http://www.w3.org/1999/xlink" xml:space="preserve" overflow="hidden"><defs><radialGradient cx="939338" cy="651163" r="1142965" fx="939338" fy="651163" gradientUnits="userSpaceOnUse" spreadMethod="pad" id="fill0" gradientTransform="matrix(0.000360892 0 0 0.000360892 2431 1466)"><stop offset="0" stop-color="#E0E5F7" stop-opacity="0"/><stop offset="0.31" stop-color="#E0E5F7" stop-opacity="0"/><stop offset="1" stop-color="#FFFFFF" stop-opacity="0.458824"/></radialGradient><radialGradient cx="-0.0625" cy="-0.0625" r="1142965" fx="0" fy="0" gradientUnits="userSpaceOnUse" spreadMethod="pad" id="fill1" gradientTransform="matrix(0.000360892 0 0 0.000360892 2431 1466)"><stop offset="0" stop-color="#00CC5C" stop-opacity="0"/><stop offset="0.41" stop-color="#00CC5C" stop-opacity="0"/><stop offset="1" stop-color="#00CC5C"/></radialGradient><linearGradient x1="2658.09" y1="1425.27" x2="2542.91" y2="1741.73" gradientUnits="userSpaceOnUse" spreadMethod="reflect" id="fill2"><stop offset="0" stop-color="#FFD966" stop-opacity="0"/><stop offset="0.56" stop-color="#FFD966" stop-opacity="0"/><stop offset="0.87" stop-color="#FFD966" stop-opacity="0.490196"/><stop offset="1" stop-color="#FFD966" stop-opacity="0.490196"/></linearGradient></defs><g transform="translate(-2431 -1466)"><path d="M2431 1466 2431.06 1466 2473.09 1477.37C2512.25 1485.62 2555.31 1490.19 2600.5 1490.19 2645.69 1490.19 2688.75 1485.62 2727.91 1477.37L2769.94 1466 2770 1466 2770 1701 2769.93 1701 2727.91 1689.63C2688.75 1681.38 2645.69 1676.81 2600.5 1676.81 2555.31 1676.81 2512.25 1681.38 2473.09 1689.63L2431.07 1701 2431 1701Z" fill="#36E67F" fill-rule="evenodd"/><path d="M2431 1466 2431.06 1466 2473.09 1477.37C2512.25 1485.62 2555.31 1490.19 2600.5 1490.19 2645.69 1490.19 2688.75 1485.62 2727.91 1477.37L2769.94 1466 2770 1466 2770 1701 2769.93 1701 2727.91 1689.63C2688.75 1681.38 2645.69 1676.81 2600.5 1676.81 2555.31 1676.81 2512.25 1681.38 2473.09 1689.63L2431.07 1701 2431 1701Z" fill="url(#fill0)" fill-rule="evenodd"/><path d="M2431 1466 2431.06 1466 2473.09 1477.37C2512.25 1485.62 2555.31 1490.19 2600.5 1490.19 2645.69 1490.19 2688.75 1485.62 2727.91 1477.37L2769.94 1466 2770 1466 2770 1701 2769.93 1701 2727.91 1689.63C2688.75 1681.38 2645.69 1676.81 2600.5 1676.81 2555.31 1676.81 2512.25 1681.38 2473.09 1689.63L2431.07 1701 2431 1701Z" fill="url(#fill1)" fill-rule="evenodd"/><path d="M2431 1466 2431.06 1466 2473.09 1477.37C2512.25 1485.62 2555.31 1490.19 2600.5 1490.19 2645.69 1490.19 2688.75 1485.62 2727.91 1477.37L2769.94 1466 2770 1466 2770 1701 2769.93 1701 2727.91 1689.63C2688.75 1681.38 2645.69 1676.81 2600.5 1676.81 2555.31 1676.81 2512.25 1681.38 2473.09 1689.63L2431.07 1701 2431 1701Z" fill="url(#fill2)" fill-rule="evenodd"/></g></svg>