<svg width="339" height="235" xmlns="http://www.w3.org/2000/svg" xmlns:xlink="http://www.w3.org/1999/xlink" xml:space="preserve" overflow="hidden"><defs><clipPath id="clip0"><rect x="2431" y="1517" width="339" height="235"/></clipPath><radialGradient cx="939338" cy="651164" r="1142966" gradientUnits="userSpaceOnUse" spreadMethod="pad" id="fill1" gradientTransform="matrix(0.000360892 0 0 0.000360892 2431 1517)"><stop offset="0" stop-color="#E0E5F7" stop-opacity="0"/><stop offset="0.31" stop-color="#E0E5F7" stop-opacity="0"/><stop offset="1" stop-color="#FFFFFF" stop-opacity="0.458824"/></radialGradient><radialGradient cx="0" cy="0" r="1142966" gradientUnits="userSpaceOnUse" spreadMethod="pad" id="fill2" gradientTransform="matrix(0.000360892 0 0 0.000360892 2431 1517)"><stop offset="0" stop-color="#00CC5C" stop-opacity="0"/><stop offset="0.41" stop-color="#00CC5C" stop-opacity="0"/><stop offset="1" stop-color="#00CC5C"/></radialGradient><linearGradient x1="2658.09" y1="1476.27" x2="2542.91" y2="1792.73" gradientUnits="userSpaceOnUse" spreadMethod="reflect" id="fill3"><stop offset="0" stop-color="#FFD966" stop-opacity="0"/><stop offset="0.56" stop-color="#FFD966" stop-opacity="0"/><stop offset="0.87" stop-color="#FFD966" stop-opacity="0.490196"/><stop offset="1" stop-color="#FFD966" stop-opacity="0.490196"/></linearGradient></defs><g clip-path="url(#clip0)" transform="translate(-2431 -1517)"><path d="M2431 1517 2431.06 1517 2473.09 1528.37C2512.25 1536.62 2555.31 1541.19 2600.5 1541.19 2645.69 1541.19 2688.75 1536.62 2727.91 1528.37L2769.94 1517 2770 1517 2770 1752 2769.93 1752 2727.91 1740.63C2688.75 1732.38 2645.69 1727.81 2600.5 1727.81 2555.31 1727.81 2512.25 1732.38 2473.09 1740.63L2431.07 1752 2431 1752Z" fill="#36E67F" fill-rule="evenodd"/><path d="M2431 1517 2431.06 1517 2473.09 1528.37C2512.25 1536.62 2555.31 1541.19 2600.5 1541.19 2645.69 1541.19 2688.75 1536.62 2727.91 1528.37L2769.94 1517 2770 1517 2770 1752 2769.93 1752 2727.91 1740.63C2688.75 1732.38 2645.69 1727.81 2600.5 1727.81 2555.31 1727.81 2512.25 1732.38 2473.09 1740.63L2431.07 1752 2431 1752Z" fill="url(#fill1)" fill-rule="evenodd"/><path d="M2431 1517 2431.06 1517 2473.09 1528.37C2512.25 1536.62 2555.31 1541.19 2600.5 1541.19 2645.69 1541.19 2688.75 1536.62 2727.91 1528.37L2769.94 1517 2770 1517 2770 1752 2769.93 1752 2727.91 1740.63C2688.75 1732.38 2645.69 1727.81 2600.5 1727.81 2555.31 1727.81 2512.25 1732.38 2473.09 1740.63L2431.07 1752 2431 1752Z" fill="url(#fill2)" fill-rule="evenodd"/><path d="M2431 1517 2431.06 1517 2473.09 1528.37C2512.25 1536.62 2555.31 1541.19 2600.5 1541.19 2645.69 1541.19 2688.75 1536.62 2727.91 1528.37L2769.94 1517 2770 1517 2770 1752 2769.93 1752 2727.91 1740.63C2688.75 1732.38 2645.69 1727.81 2600.5 1727.81 2555.31 1727.81 2512.25 1732.38 2473.09 1740.63L2431.07 1752 2431 1752Z" fill="url(#fill3)" fill-rule="evenodd"/></g></svg>