<svg width="336" height="235" xmlns="http://www.w3.org/2000/svg" xmlns:xlink="http://www.w3.org/1999/xlink" xml:space="preserve" overflow="hidden"><defs><radialGradient cx="931025" cy="651163" r="1136143" fx="931025" fy="651163" gradientUnits="userSpaceOnUse" spreadMethod="pad" id="fill0" gradientTransform="matrix(0.000360892 0 0 0.000360892 2831 1466)"><stop offset="0" stop-color="#E0E5F7" stop-opacity="0"/><stop offset="0.32" stop-color="#E0E5F7" stop-opacity="0"/><stop offset="1" stop-color="#FFFFFF" stop-opacity="0.458824"/></radialGradient><radialGradient cx="0.0625" cy="0.0625" r="1136143" fx="0" fy="0" gradientUnits="userSpaceOnUse" spreadMethod="pad" id="fill1" gradientTransform="matrix(0.000360892 0 0 0.000360892 2831 1466)"><stop offset="0" stop-color="#FFC000" stop-opacity="0"/><stop offset="0.35" stop-color="#FFC000" stop-opacity="0"/><stop offset="1" stop-color="#FFC000"/></radialGradient><linearGradient x1="3056.42" y1="1425.75" x2="2941.58" y2="1741.25" gradientUnits="userSpaceOnUse" spreadMethod="reflect" id="fill2"><stop offset="0" stop-color="#F74B29" stop-opacity="0"/><stop offset="0.52" stop-color="#F74B29" stop-opacity="0"/><stop offset="0.95" stop-color="#F74B29" stop-opacity="0.25098"/><stop offset="1" stop-color="#F74B29" stop-opacity="0.25098"/></linearGradient></defs><g transform="translate(-2831 -1466)"><path d="M2831 1466 2845.4 1466 3152.6 1466 3167 1466 3167 1484.69 3152.6 1484.69 3152.6 1682.31 3167 1682.31 3167 1701 3152.6 1701 2845.4 1701 2831 1701 2831 1682.31 2845.4 1682.31 2845.4 1484.69 2831 1484.69Z" fill="#F3DB4B" fill-rule="evenodd"/><path d="M2831 1466 2845.4 1466 3152.6 1466 3167 1466 3167 1484.69 3152.6 1484.69 3152.6 1682.31 3167 1682.31 3167 1701 3152.6 1701 2845.4 1701 2831 1701 2831 1682.31 2845.4 1682.31 2845.4 1484.69 2831 1484.69Z" fill="url(#fill0)" fill-rule="evenodd"/><path d="M2831 1466 2845.4 1466 3152.6 1466 3167 1466 3167 1484.69 3152.6 1484.69 3152.6 1682.31 3167 1682.31 3167 1701 3152.6 1701 2845.4 1701 2831 1701 2831 1682.31 2845.4 1682.31 2845.4 1484.69 2831 1484.69Z" fill="url(#fill1)" fill-rule="evenodd"/><path d="M2831 1466 2845.4 1466 3152.6 1466 3167 1466 3167 1484.69 3152.6 1484.69 3152.6 1682.31 3167 1682.31 3167 1701 3152.6 1701 2845.4 1701 2831 1701 2831 1682.31 2845.4 1682.31 2845.4 1484.69 2831 1484.69Z" fill="url(#fill2)" fill-rule="evenodd"/></g></svg>