<svg width="336" height="235" xmlns="http://www.w3.org/2000/svg" xmlns:xlink="http://www.w3.org/1999/xlink" xml:space="preserve" overflow="hidden"><defs><clipPath id="clip0"><rect x="2831" y="1517" width="336" height="235"/></clipPath><radialGradient cx="931025" cy="651164" r="1136144" gradientUnits="userSpaceOnUse" spreadMethod="pad" id="fill1" gradientTransform="matrix(0.000360892 0 0 0.000360892 2831 1517)"><stop offset="0" stop-color="#E0E5F7" stop-opacity="0"/><stop offset="0.32" stop-color="#E0E5F7" stop-opacity="0"/><stop offset="1" stop-color="#FFFFFF" stop-opacity="0.458824"/></radialGradient><radialGradient cx="0" cy="0" r="1136144" gradientUnits="userSpaceOnUse" spreadMethod="pad" id="fill2" gradientTransform="matrix(0.000360892 0 0 0.000360892 2831 1517)"><stop offset="0" stop-color="#FFC000" stop-opacity="0"/><stop offset="0.35" stop-color="#FFC000" stop-opacity="0"/><stop offset="1" stop-color="#FFC000"/></radialGradient><linearGradient x1="3056.42" y1="1476.75" x2="2941.58" y2="1792.25" gradientUnits="userSpaceOnUse" spreadMethod="reflect" id="fill3"><stop offset="0" stop-color="#F74B29" stop-opacity="0"/><stop offset="0.52" stop-color="#F74B29" stop-opacity="0"/><stop offset="0.95" stop-color="#F74B29" stop-opacity="0.25098"/><stop offset="1" stop-color="#F74B29" stop-opacity="0.25098"/></linearGradient></defs><g clip-path="url(#clip0)" transform="translate(-2831 -1517)"><path d="M2831 1517 2845.4 1517 3152.6 1517 3167 1517 3167 1535.69 3152.6 1535.69 3152.6 1733.31 3167 1733.31 3167 1752 3152.6 1752 2845.4 1752 2831 1752 2831 1733.31 2845.4 1733.31 2845.4 1535.69 2831 1535.69Z" fill="#F3DB4B" fill-rule="evenodd"/><path d="M2831 1517 2845.4 1517 3152.6 1517 3167 1517 3167 1535.69 3152.6 1535.69 3152.6 1733.31 3167 1733.31 3167 1752 3152.6 1752 2845.4 1752 2831 1752 2831 1733.31 2845.4 1733.31 2845.4 1535.69 2831 1535.69Z" fill="url(#fill1)" fill-rule="evenodd"/><path d="M2831 1517 2845.4 1517 3152.6 1517 3167 1517 3167 1535.69 3152.6 1535.69 3152.6 1733.31 3167 1733.31 3167 1752 3152.6 1752 2845.4 1752 2831 1752 2831 1733.31 2845.4 1733.31 2845.4 1535.69 2831 1535.69Z" fill="url(#fill2)" fill-rule="evenodd"/><path d="M2831 1517 2845.4 1517 3152.6 1517 3167 1517 3167 1535.69 3152.6 1535.69 3152.6 1733.31 3167 1733.31 3167 1752 3152.6 1752 2845.4 1752 2831 1752 2831 1733.31 2845.4 1733.31 2845.4 1535.69 2831 1535.69Z" fill="url(#fill3)" fill-rule="evenodd"/></g></svg>