<svg xmlns="http://www.w3.org/2000/svg" width="632" height="616" version="1.0" viewBox="0 0 474 462"><path d="M253.9 3.3c-2.6 3.2-5.7 8.9-9.9 18.2-1.3 2.7-2.7 5.7-3.1 6.6s-1.1 3.3-1.4 5.3c-.4 2-1.1 3.9-1.6 4.2s-.9 2.1-.9 4.1-.6 4.1-1.4 4.7c-1.2.9-3.2 9.1-5 20.6-.9 5.2-2.7 12.6-3.5 14-.5.9-1.2 3.1-1.6 5s-1.3 4.6-2 6c-.8 1.4-2.3 5-3.4 8s-2.3 6.4-2.7 7.5-.9 2.4-.9 3c-.1.5-.5 2.1-.9 3.5-.9 3.6-2.8 21.6-2.8 28 0 6.7 1.5 15.9 3.3 19.1.7 1.3 1.2 2.6 1.2 2.9-.1 1.3 1.3 3.8 4 7.2 3.4 4.5 6.3 4.9 10.5 1.3 1.7-1.4 3.5-2.5 4-2.5.6 0 1.4-.9 1.7-2 .4-1.1 1.7-3.2 2.9-4.8 4-4.8 8.3-13.7 9.1-18.8.4-2.7 1.1-5.4 1.7-6.1.5-.6.8-2 .7-3s.1-2.5.4-3.3 2.4-7.1 4.7-14c2.3-6.8 5.3-14.6 6.6-17.2s2.4-5 2.4-5.3c.1-.3.9-2.4 1.9-4.7 1-2.4 2.1-6.1 2.5-8.3s1.1-5.1 1.6-6.5c.8-2.2 1.9-8.1 5.1-29 .6-3.6 1.4-7.4 1.9-8.5 1.3-3.2 3-13.4 3-18.4 0-7.1-1.6-11.4-6-15.9L272.1 0l-7.8.1c-7.5 0-7.9.2-10.4 3.2m108.9 12.3c-2.1.9-3.8 2-3.8 2.5 0 .4-2.9 4.1-6.5 8.1-3.6 3.9-6.5 7.7-6.5 8.4s-.3 1.4-.7 1.6c-1.2.5-6.5 8.5-10.8 16.3-4.7 8.4-7.4 14.7-10.4 24.6-1.3 4.1-2.9 9.2-3.7 11.4-.7 2.2-1.8 8.3-2.5 13.5-.6 5.2-1.6 10.5-2.1 11.6-1.1 2.3-.8 6 1.2 16.1 1.4 7.5 4.1 10.4 8.5 9.6 4-.8 13.3-10.3 16.9-17.3 1.6-3 3.2-5.7 3.5-6 .9-.6 8.3-14.2 19.6-35.5 1.7-3.4 5.1-9.4 7.6-13.5 11.7-20 13-23.2 13.5-34 .4-7.2-1.9-12.6-6.7-16.2-3.5-2.7-12.4-3.3-17.1-1.2m64.5 58.7c-2.9 1.7-5.4 5.1-9.2 12.7-1.7 3.6-6.3 11.9-10.1 18.5-18.8 32.9-18.8 32.8-21.7 47.5-.8 4.1-1.8 8.2-2.1 9s-.7 2.2-.8 3c-.2.8-.8 3.3-1.3 5.5-1.4 5.2-1.4 11.2-.1 12 2.5 1.5 21.2-15.8 33.7-31.1 17.6-21.6 19.5-24.5 25.7-39.4 3.7-8.8 4-10.2 4-19.2.1-9.4 0-9.8-2.9-12.9-4.6-4.8-11.7-7.5-15.2-5.6m-128.1 68c-2.8 1.3-5.7 6.6-6.6 12.2-.4 2.2-1.1 5.3-1.6 7-3.9 13.2-4 14.1-4.7 22.4-.4 5.9-.3 6.5 2.3 9.2 2.3 2.4 3.6 2.9 7.5 2.9 4.9 0 13-2.9 16.3-5.8 1-.9 3.4-5.1 5.3-9.2 1.8-4.1 4-8.6 4.7-10 .8-1.4 1.7-4.3 2.1-6.5s1.2-4.5 1.6-5.1c.6-.7.3-2.6-.6-4.8-1.4-3.2-1.9-3.6-5.1-3.6-4.3 0-6.8-1.2-11.4-5.5-4.2-3.9-6.7-4.7-9.8-3.2m155.3 30.4c-2.9.6-12.7 7.4-13.9 9.8-.6 1-1.7 2.5-2.3 3.3-2.6 2.8-10.3 13.1-10.3 13.7 0 .4-1.3 2.4-2.9 4.4s-3.6 5.2-4.5 7.1c-2.2 4.6-8.4 15.1-10.1 17-.8.9-2.6 3.8-4 6.5-1.5 2.7-4.8 7.5-7.3 10.7-14 17.2-18.2 23.4-18.2 26.4 0 .8-.5 2.3-1.2 3.3-1.7 2.7 1.8 8.3 5.9 9.5 6.3 1.7 13.6-1.9 28.6-14.1 2.9-2.4 6.6-5.3 8.2-6.4 3.3-2.4 5.7-5.7 11.9-16.4 2.2-3.9 5.7-9.1 7.8-11.6s3.8-4.8 3.8-5.2 2.4-3.3 5.4-6.4c4.5-4.9 10.4-11.8 13.4-15.8 2-2.7 5.4-13 5.9-17.9.4-3.8 1-5.6 1.9-5.6 1.9 0 1.8-1.6-.1-2.4-.9-.3-1.5-1.8-1.5-4 0-4.5-3.2-6.6-9.7-6.5-2.6.1-5.7.4-6.8.6m-440.1 4c-1.9.2-4.8 2-7 4.1C0 187.9 0 187.9 0 200.5c0 7.1.4 11.5 1 11.5s2.6 2.4 4.4 5.2c1.9 2.9 11.2 13.4 20.6 23.3s18.4 19.8 19.9 22 4 5.8 5.5 8c3.6 5.2 8.5 9.6 13.2 11.9 2.2 1.1 4.7 2.3 5.6 2.7 4.4 2.2 10.8-.3 12.8-5 2-5-.4-21.7-5.3-36.1-6.1-17.8-7.7-22.4-8.7-24.5-.4-1.1-2.2-5.4-3.8-9.5-3.6-9.2-6.6-13.7-14-21.3-8.1-8.4-15.5-11.9-25.7-12.2-4.4-.2-9.4-.1-11.1.2m334.7 6.8c-3.9 3.7-5.3 5.8-7 11.3-3.2 10.3-4.5 15.6-4.2 17 .1.8-.2 1.9-.7 2.5-1.6 2-2.4 9.4-1.3 11.6 1.5 2.7 7 3.6 11.8 2 4.8-1.5 20.7-17.4 25.1-25 2.8-4.8 2.9-5.5 1.7-7.9-.8-1.5-2.1-3.2-2.9-3.9-.9-.8-1.6-2.3-1.6-3.5s-1.5-3.6-3.3-5.4c-2.8-2.7-4.1-3.2-8-3.2-4.3 0-5.3.5-9.6 4.5M215.5 193c-1.1.4-4.7 1.6-8 2.6-9.7 2.9-18.5 11.2-18.5 17.4 0 1.5-.4 3-.9 3.5-.6.6-1.5 6.5-2 13.3-.6 6.9-1.8 13.6-2.6 15.2-3.7 7.2-.6 12.7 6.6 11.7 3.7-.5 5.5-1.8 14.8-11 11.4-11.2 12.1-11.6 23.4-12.4 10.5-.7 11.1-.4 15.6 8.6 2.2 4.2 5.5 9.1 7.3 10.7l3.4 3 9.9-.8c8.9-.8 10-.7 11.5.9 1.9 2 5.6 11.9 6.6 17.5 1.2 7.1 9.8 14.6 18.5 16.2 2.1.4 4.1 1.2 4.7 1.9.5.6 1.2 5.4 1.5 10.6.3 5.5 1.1 9.7 1.8 10.1 2.5 1.6.6 20-2.1 20-.4 0-1.2 1.1-1.8 2.5-1.6 3.5-9.3 11.6-14.3 15.1-4.1 2.8-4.2 2.8-22.8 3.2-16.7.3-19 .6-22.9 2.5-2.4 1.2-4.8 3.1-5.3 4.2s-1.8 3.3-2.9 5c-2.7 4.1-4 7.2-5 12-2.2 10.9-5.7 16.5-13.6 22.1-3.7 2.7-17.1 9.5-18.1 9.2-3.2-.6-14.1 4-14.8 6.3-.4 1.1-1.1 1.9-1.6 1.9-1.1 0-1.2 13.4 0 15.8.4.9 1.8 3.9 3 6.5 2.8 6.4 10.1 14 16.4 17.3 4.2 2.1 7.1 2.7 14.9 3.1 13.6.8 20.6-.7 34.8-7.1 11.2-5.1 24.1-15.6 29.6-24.1 1.7-2.7 6.7-8.8 10.9-13.5 16-17.8 23-26.2 28.2-34.3 2.5-4 5.4-8.4 6.4-9.8s2.2-4.6 2.9-7c.6-2.4 1.5-5.3 2-6.4.9-1.9 2.9-11.3 3.4-16.5.2-1.4.7-3.4 1.1-4.4.5-1.1.9-11.5.9-23.1l.1-21.1-5.9-8.8c-3.2-4.8-6.4-9.3-7-10-1.5-1.7-3.4-4.7-4.8-7.6-7.1-15.5-7.4-15.9-15.1-22-4.1-3.3-7.8-6-8.3-6-1 0-6.4-5.1-6.4-6.1 0-.5-1-1.9-2.2-3.2-1.3-1.3-3.3-4.2-4.6-6.3-2.6-4.4-6.7-7.3-13.2-9.4-7.7-2.5-11.3-4.8-17.6-11.1-4-4-7.3-6.4-10-7.1-4.6-1.3-25-1.9-27.9-.8m-55.3 83.5c-4.4 4.1-8.3 7.5-8.7 7.5s-2.5 1.5-4.8 3.3c-6.2 5-14.1 8.8-19.2 9.2-.5 0-1.4.3-2 .6-.5.4-2.7 1-4.9 1.3-5.7 1.1-8 2.5-16.8 10.6-6.2 5.7-9.5 10.9-10.8 17.2-.7 3.8.5 24.2 1.7 26.8.4.8.8 2.8.9 4.5.2 1.6 1 7.3 1.9 12.5s2 14.4 2.5 20.4c.6 6.1 1.4 11.4 2 12 .5.5 1 1.7 1 2.5 0 2.4 9.1 15 14.1 19.4 15.2 13.6 24.5 17.2 36.9 14.4 5.9-1.3 15.1-8.8 17-13.9.6-1.8 1.7-4.3 2.2-5.4.6-1.2.8-4.4.5-7-.6-5.5-3.9-19.4-5.6-23.8-1.9-4.8-2.6-20.8-1.1-26.3.7-2.6 1.8-5.4 2.4-6.2.7-.9 1.3-12.4 1.7-32.7.3-20 .9-31.7 1.6-32.6.6-.7 1.4-4 1.8-7.4.3-3.3 1-6.6 1.5-7.3.4-.7.3-2.6-.3-4.2-.9-2.4-1.7-2.9-4.3-2.9s-4.7 1.4-11.2 7.5"/></svg>