<?xml version="1.0" standalone="no"?>
<!DOCTYPE svg PUBLIC "-//W3C//DTD SVG 20010904//EN"
 "http://www.w3.org/TR/2001/REC-SVG-20010904/DTD/svg10.dtd">
<svg version="1.0" xmlns="http://www.w3.org/2000/svg"
 width="900.000000pt" height="225.000000pt" viewBox="0 0 900.000000 225.000000"
 preserveAspectRatio="xMidYMid meet">

<g transform="translate(0.000000,225.000000) scale(0.100000,-0.100000)"
fill="#000000" stroke="none">
<path d="M8500 1875 l0 -365 -60 0 -59 0 -3 153 -3 152 -62 3 -63 3 0 149 0
150 -85 0 -85 0 0 -460 0 -460 -3169 0 -3170 0 -11 58 c-47 236 -152 435 -308
584 -151 144 -315 217 -507 226 -140 6 -237 -13 -359 -72 -307 -146 -503 -452
-546 -850 -30 -277 61 -595 234 -812 162 -205 393 -324 631 -324 387 0 740
316 841 752 l18 78 3626 2 3625 3 0 605 0 605 -60 0 -60 0 -3 -117 -3 -118
-89 0 -90 0 0 210 0 210 -90 0 -90 0 0 -365z m-7485 -160 c172 -45 323 -190
402 -385 36 -91 53 -183 53 -300 0 -221 -70 -399 -210 -540 -172 -170 -395
-207 -604 -98 -76 40 -188 152 -239 238 -79 137 -118 331 -98 490 24 189 87
325 206 445 139 140 317 195 490 150z"/>
<path d="M5760 2004 c0 -116 0 -116 -22 -109 -105 31 -178 31 -244 -3 -92 -48
-139 -135 -138 -259 1 -68 6 -92 28 -138 61 -123 190 -157 324 -85 l52 28 0
-29 c0 -28 1 -29 50 -29 l50 0 0 370 0 370 -50 0 -50 0 0 -116z m-39 -176 l39
-11 0 -158 0 -157 -47 -24 c-36 -17 -65 -23 -115 -23 -60 0 -70 3 -96 28 -66
63 -69 238 -5 309 40 46 140 62 224 36z"/>
<path d="M1980 2085 c-109 -31 -171 -83 -219 -185 -23 -49 -26 -67 -26 -165 0
-100 3 -116 29 -173 49 -106 127 -160 263 -183 84 -14 188 -2 277 32 l56 20 0
54 0 54 -54 -33 c-67 -40 -156 -61 -234 -53 -146 13 -233 115 -235 275 -1 127
39 211 122 260 42 24 55 27 146 27 94 0 104 -2 170 -35 39 -19 74 -36 78 -38
4 -2 7 20 5 49 l-3 54 -70 24 c-90 30 -227 37 -305 16z"/>
<path d="M2502 2048 l3 -43 58 -3 57 -3 0 46 0 45 -61 0 -60 0 3 -42z"/>
<path d="M3220 2045 l0 -46 58 3 57 3 3 43 3 42 -60 0 -61 0 0 -45z"/>
<path d="M6060 2045 l0 -45 55 0 55 0 0 45 0 45 -55 0 -55 0 0 -45z"/>
<path d="M2810 1985 l0 -75 -35 0 c-33 0 -35 -2 -35 -35 0 -33 2 -35 34 -35
l34 0 4 -177 c3 -147 7 -184 21 -211 34 -62 117 -90 222 -74 l50 7 3 44 c3 39
1 43 -15 36 -10 -4 -41 -10 -69 -12 -43 -5 -54 -2 -80 20 l-29 25 -3 171 -3
171 100 0 101 0 0 35 0 35 -100 0 -100 0 0 75 0 75 -50 0 -50 0 0 -75z"/>
<path d="M4235 1906 c-132 -42 -188 -118 -189 -261 -1 -95 24 -157 82 -205 79
-65 230 -84 365 -46 l67 19 0 48 0 48 -57 -26 c-67 -31 -180 -42 -237 -23 -69
22 -126 90 -126 150 0 19 6 20 215 20 l215 0 0 43 c0 69 -27 143 -65 182 -59
58 -177 80 -270 51z m172 -76 c36 -22 63 -66 63 -105 l0 -25 -165 0 c-96 0
-165 4 -165 9 0 42 48 106 95 127 46 20 134 17 172 -6z"/>
<path d="M4933 1906 c-23 -8 -58 -23 -77 -36 l-36 -22 0 31 c0 30 -1 31 -50
31 l-50 0 0 -265 0 -265 50 0 50 0 0 200 0 199 47 28 c34 19 65 28 108 31 54
4 65 1 91 -21 l29 -25 3 -206 3 -206 50 0 49 0 0 188 c0 103 -5 204 -11 225
-29 104 -134 151 -256 113z"/>
<path d="M7254 1906 c-23 -7 -52 -21 -65 -30 -33 -23 -49 -20 -49 9 0 23 -4
25 -45 25 l-45 0 0 -265 0 -265 45 0 45 0 0 199 0 199 48 28 c31 19 65 29 103
32 116 9 129 -19 129 -273 l0 -185 45 0 45 0 0 199 0 199 48 28 c31 19 65 29
103 32 116 9 129 -19 129 -273 l0 -185 45 0 45 0 0 203 c0 175 -3 207 -19 242
-22 49 -44 69 -95 85 -58 19 -139 5 -212 -35 l-62 -34 -19 21 c-45 52 -136 70
-219 44z"/>
<path d="M2512 1648 l3 -263 48 -3 47 -3 0 265 0 266 -50 0 -50 0 2 -262z"/>
<path d="M3230 1644 l0 -265 48 3 47 3 3 263 2 262 -50 0 -50 0 0 -266z"/>
<path d="M3490 1875 l0 -35 162 -2 161 -3 -166 -197 c-137 -161 -167 -202
-167 -227 l0 -31 230 0 230 0 0 35 0 35 -170 0 c-93 0 -170 2 -170 5 0 3 74
92 165 198 138 162 164 197 165 225 l0 32 -220 0 -220 0 0 -35z"/>
<path d="M6070 1645 l0 -265 45 0 45 0 0 265 0 265 -45 0 -45 0 0 -265z"/>
<path d="M6360 1717 c0 -105 4 -208 10 -226 25 -87 127 -137 227 -112 26 7 67
23 90 37 23 13 44 24 47 24 3 0 6 -13 6 -30 0 -29 2 -30 45 -30 l45 0 0 265 0
265 -45 0 -45 0 0 -200 0 -201 -62 -29 c-112 -53 -195 -35 -218 48 -5 20 -10
115 -10 210 l0 172 -45 0 -45 0 0 -193z"/>
<path d="M2180 605 l0 -185 25 0 25 0 0 104 0 104 34 16 c84 40 106 14 106
-122 l0 -102 25 0 25 0 0 100 c0 105 -13 151 -45 164 -29 11 -85 6 -115 -9
l-30 -16 0 66 c0 63 -1 65 -25 65 l-25 0 0 -185z"/>
<path d="M5134 768 c3 -13 6 -42 6 -65 0 -36 3 -43 20 -43 15 0 20 7 20 28 0
15 3 44 6 65 7 36 6 37 -26 37 -29 0 -32 -3 -26 -22z"/>
<path d="M7870 736 l0 -54 -60 5 c-46 4 -65 2 -85 -11 -81 -53 -88 -198 -13
-250 28 -20 84 -20 120 -2 16 9 30 11 33 5 4 -5 15 -9 26 -9 18 0 19 9 19 185
0 178 -1 185 -20 185 -18 0 -20 -7 -20 -54z m-25 -86 c25 -10 26 -11 23 -92
l-3 -83 -37 -18 c-68 -33 -120 4 -122 87 -2 90 59 137 139 106z"/>
<path d="M1800 760 c0 -18 7 -20 70 -20 l70 0 0 -161 0 -160 23 3 c22 3 22 6
25 160 l3 157 67 3 c54 2 67 6 70 21 3 16 -10 17 -162 17 -159 0 -166 -1 -166
-20z"/>
<path d="M3105 766 c-68 -31 -111 -111 -102 -192 12 -106 80 -165 191 -163 86
1 130 18 134 53 l3 27 -43 -22 c-57 -29 -137 -31 -175 -3 -84 61 -83 204 1
259 45 30 98 30 160 2 l56 -26 0 25 c0 19 -8 28 -35 40 -43 18 -150 18 -190 0z"/>
<path d="M5545 757 c-61 -35 -86 -87 -83 -172 4 -84 29 -127 92 -156 47 -21
133 -24 186 -6 27 9 36 18 38 39 l3 26 -43 -21 c-26 -13 -61 -21 -93 -21 -88
0 -138 54 -139 149 -1 58 18 100 57 129 40 29 129 29 180 -1 l37 -22 0 28 c0
24 -6 30 -39 39 -64 20 -150 15 -196 -11z"/>
<path d="M3400 750 c0 -13 7 -20 20 -20 13 0 20 7 20 20 0 13 -7 20 -20 20
-13 0 -20 -7 -20 -20z"/>
<path d="M3770 750 c0 -15 7 -20 25 -20 18 0 25 5 25 20 0 15 -7 20 -25 20
-18 0 -25 -5 -25 -20z"/>
<path d="M8010 750 c0 -15 7 -20 25 -20 18 0 25 5 25 20 0 15 -7 20 -25 20
-18 0 -25 -5 -25 -20z"/>
<path d="M3560 725 c0 -22 -6 -38 -15 -41 -8 -4 -15 -12 -15 -19 0 -7 7 -15
15 -19 12 -4 15 -25 15 -101 0 -117 12 -135 90 -135 44 0 50 3 50 21 0 18 -4
20 -29 14 -23 -5 -35 -1 -51 15 -18 18 -20 31 -18 103 l3 82 48 3 c32 2 47 8
47 17 0 9 -15 15 -47 17 -48 3 -48 3 -51 41 -3 29 -7 37 -23 37 -15 0 -19 -7
-19 -35z"/>
<path d="M2559 673 c-40 -24 -59 -65 -59 -123 0 -64 20 -103 64 -124 64 -30
176 -16 176 23 0 18 -3 18 -45 5 -25 -7 -59 -11 -75 -8 -35 8 -69 41 -72 74
-3 25 -3 25 100 28 l102 3 0 30 c0 37 -24 85 -49 99 -30 15 -113 12 -142 -7z
m119 -30 c12 -10 22 -27 24 -38 3 -18 -3 -20 -71 -23 -91 -4 -104 6 -63 47 35
36 78 41 110 14z"/>
<path d="M4245 668 c-78 -61 -70 -199 14 -243 59 -30 181 -12 181 27 0 15 -4
18 -17 13 -10 -4 -33 -11 -51 -17 -63 -18 -132 24 -132 79 0 22 2 23 105 23
99 0 105 1 105 20 0 33 -26 86 -51 104 -35 24 -119 21 -154 -6z m131 -31 c18
-16 25 -30 21 -40 -5 -14 -21 -17 -82 -17 -77 0 -84 4 -64 41 22 42 85 50 125
16z"/>
<path d="M4608 674 c-16 -8 -28 -10 -28 -4 0 5 -11 10 -25 10 l-25 0 0 -130 0
-130 25 0 25 0 0 106 0 105 35 15 c46 19 61 18 85 -6 17 -17 20 -33 20 -120
l0 -100 25 0 c25 0 25 0 25 94 0 100 -10 141 -38 162 -23 18 -91 17 -124 -2z"/>
<path d="M4869 661 c-57 -57 -29 -104 76 -129 67 -16 70 -18 70 -46 0 -24 -5
-31 -30 -38 -27 -8 -82 0 -130 18 -13 5 -16 2 -13 -17 4 -29 51 -43 127 -37
44 4 59 10 78 32 49 58 22 101 -79 126 -75 18 -95 42 -59 71 28 23 54 24 110
4 40 -14 41 -14 41 9 0 28 -21 36 -103 36 -51 0 -62 -4 -88 -29z"/>
<path d="M5875 657 c-56 -56 -59 -150 -6 -209 23 -26 37 -32 82 -35 45 -4 60
-1 89 19 70 47 78 162 15 225 -30 30 -39 33 -90 33 -51 0 -60 -3 -90 -33z
m147 -27 c28 -29 30 -35 26 -86 -6 -69 -31 -98 -84 -98 -51 0 -84 39 -84 99 0
54 15 90 44 103 37 19 67 13 98 -18z"/>
<path d="M6248 674 c-16 -8 -28 -10 -28 -4 0 5 -11 10 -25 10 l-25 0 0 -130 0
-130 25 0 25 0 0 106 0 105 35 15 c85 35 105 12 105 -124 l0 -102 25 0 25 0 0
106 0 105 35 15 c85 35 105 12 105 -124 l0 -102 25 0 c25 0 25 0 25 94 0 101
-12 151 -40 166 -31 16 -93 11 -129 -11 l-33 -20 -22 20 c-27 25 -88 27 -128
5z"/>
<path d="M6768 674 c-16 -8 -28 -10 -28 -4 0 5 -11 10 -25 10 l-25 0 0 -180 0
-180 25 0 c23 0 25 3 25 50 l0 49 50 -6 c59 -7 103 9 130 47 42 59 34 170 -17
209 -31 25 -95 27 -135 5z m103 -33 c21 -17 24 -28 24 -85 0 -80 -23 -111 -83
-110 -69 0 -72 4 -72 99 l0 86 33 14 c44 19 71 18 98 -4z"/>
<path d="M7064 671 c-61 -37 -80 -144 -37 -209 19 -31 71 -52 127 -52 59 0 96
15 96 39 0 18 -2 18 -50 4 -64 -19 -113 -5 -135 37 -30 57 -25 60 90 60 104 0
105 0 105 24 0 43 -22 86 -51 101 -39 21 -108 19 -145 -4z m133 -38 c7 -9 13
-25 13 -35 0 -16 -9 -18 -74 -18 -41 0 -77 4 -81 10 -8 13 14 46 40 59 27 14
87 5 102 -16z"/>
<path d="M7420 673 c-17 -12 -25 -13 -28 -5 -2 7 -15 12 -28 12 l-24 0 0 -130
0 -130 25 0 25 0 0 103 0 103 35 17 c84 40 105 16 105 -121 l0 -102 26 0 26 0
-4 116 c-3 108 -5 117 -27 135 -29 24 -98 25 -131 2z"/>
<path d="M8580 673 c-17 -12 -25 -13 -28 -5 -2 7 -15 12 -28 12 l-24 0 0 -130
0 -130 25 0 25 0 0 103 0 103 35 17 c85 41 105 18 105 -119 l0 -104 25 0 25 0
0 103 0 103 35 17 c85 41 105 18 105 -119 l0 -104 26 0 26 0 -4 116 c-3 108
-5 117 -27 135 -30 25 -96 25 -137 0 -29 -18 -31 -18 -53 0 -29 24 -98 25
-131 2z"/>
<path d="M3400 550 c0 -123 1 -130 20 -130 19 0 20 7 20 130 0 123 -1 130 -20
130 -19 0 -20 -7 -20 -130z"/>
<path d="M3770 550 l0 -130 25 0 25 0 0 130 0 130 -25 0 -25 0 0 -130z"/>
<path d="M3900 665 c0 -12 16 -15 85 -15 47 0 85 -3 85 -6 0 -3 -38 -47 -85
-97 -47 -51 -85 -100 -85 -109 0 -16 12 -18 120 -18 100 0 120 3 120 15 0 12
-16 15 -85 15 -47 0 -85 4 -85 10 0 5 38 52 85 105 47 52 85 100 85 105 0 6
-48 10 -120 10 -100 0 -120 -2 -120 -15z"/>
<path d="M8010 550 l0 -130 25 0 25 0 0 130 0 130 -25 0 -25 0 0 -130z"/>
<path d="M8170 580 c0 -105 13 -151 45 -164 31 -12 91 -6 115 11 17 12 25 13
28 5 2 -7 15 -12 28 -12 l24 0 0 130 0 130 -25 0 -25 0 0 -104 0 -104 -45 -17
c-42 -16 -46 -16 -70 -1 -24 16 -25 20 -25 121 l0 105 -25 0 -25 0 0 -100z"/>
</g>
</svg>
