<svg width="446" height="60" xmlns="http://www.w3.org/2000/svg" xmlns:xlink="http://www.w3.org/1999/xlink" xml:space="preserve" overflow="hidden"><defs><clipPath id="clip0"><rect x="229" y="2024" width="446" height="60"/></clipPath></defs><g clip-path="url(#clip0)" transform="translate(-229 -2024)"><path d="M605.014 2041.48C603.888 2041.48 602.756 2041.82 601.618 2042.49 600.481 2043.17 599.562 2044.35 598.86 2046.04 598.159 2047.74 597.809 2049.91 597.809 2052.57 597.809 2056.85 598.653 2060.55 600.343 2063.65 602.033 2066.76 604.259 2068.31 607.023 2068.31 609.085 2068.31 610.785 2067.46 612.125 2065.74 613.464 2064.03 614.133 2061.08 614.133 2056.91 614.133 2051.68 613.017 2047.57 610.785 2044.57 609.276 2042.51 607.352 2041.48 605.014 2041.48ZM384.63 2041.48C383.503 2041.48 382.371 2041.82 381.234 2042.49 380.097 2043.17 379.177 2044.35 378.476 2046.04 377.774 2047.74 377.424 2049.91 377.424 2052.57 377.424 2056.85 378.269 2060.55 379.959 2063.65 381.649 2066.76 383.875 2068.31 386.638 2068.31 388.7 2068.31 390.401 2067.46 391.74 2065.74 393.079 2064.03 393.749 2061.08 393.749 2056.91 393.749 2051.68 392.633 2047.57 390.401 2044.57 388.892 2042.51 386.968 2041.48 384.63 2041.48ZM450.503 2041.35C448.632 2041.35 446.964 2042.2 445.497 2043.89 443.562 2046.12 442.595 2049.38 442.595 2053.66 442.595 2057.99 443.531 2061.3 445.401 2063.61 447.272 2065.91 449.355 2067.06 451.651 2067.06 453.585 2067.06 455.455 2066.09 457.263 2064.14L457.263 2048.97C457.135 2047.51 456.752 2046.18 456.115 2044.98 455.477 2043.78 454.632 2042.88 453.58 2042.27 452.527 2041.66 451.502 2041.35 450.503 2041.35ZM249.205 2039.96C249.469 2039.87 249.473 2040.35 249.419 2041.33 249.339 2042.97 249.073 2043.76 247.554 2047.01 246.154 2049.99 245.927 2050.81 245.941 2052.65 245.941 2054.46 246.141 2055.07 247.793 2058.62 248.42 2059.97 249.06 2061.53 249.206 2062.09 249.446 2063.05 249.553 2064.93 249.379 2065.12 249.193 2065.29 248.873 2064.98 248.1 2063.88 245.648 2060.4 243.035 2057.97 239.97 2056.35 237.984 2055.3 236.331 2054.73 232.999 2053.99 230.6 2053.47 229.228 2053.03 229.067 2052.72 228.761 2052.15 229.374 2051.91 233.466 2050.96 237.131 2050.11 239.183 2049.32 241.276 2047.95 243.635 2046.41 245.461 2044.66 247.42 2042.04 248.413 2040.72 248.94 2040.06 249.205 2039.96ZM631.574 2039.39 632.913 2039.39 632.913 2046.01C635.358 2041.6 637.866 2039.39 640.438 2039.39L643.116 2040.39 643.116 2040.26 656.731 2040.26 656.731 2041.45 656.061 2041.45C655.104 2041.45 654.387 2041.66 653.909 2042.08 653.43 2042.49 653.192 2043.01 653.192 2043.63 653.192 2044.47 653.542 2045.63 654.244 2047.1L661.354 2061.95 667.89 2045.69C668.251 2044.81 668.432 2043.94 668.432 2043.09 668.432 2042.7 668.358 2042.41 668.209 2042.22 668.039 2041.99 667.773 2041.8 667.412 2041.66 667.05 2041.52 666.413 2041.45 665.499 2041.45L665.499 2040.26 675 2040.26 675 2041.45C674.214 2041.54 673.608 2041.71 673.183 2041.96 672.758 2042.22 672.29 2042.7 671.78 2043.41 671.589 2043.71 671.227 2044.53 670.696 2045.88L658.803 2075.25C657.655 2078.1 656.151 2080.26 654.291 2081.71 652.431 2083.17 650.641 2083.9 648.919 2083.9 647.665 2083.9 646.634 2083.53 645.826 2082.81 645.018 2082.08 644.615 2081.24 644.615 2080.3 644.615 2079.4 644.907 2078.68 645.491 2078.13 646.076 2077.58 646.878 2077.31 647.898 2077.31 648.6 2077.31 649.557 2077.55 650.768 2078.02 651.618 2078.34 652.15 2078.5 652.362 2078.5 653 2078.5 653.696 2078.17 654.451 2077.5 655.205 2076.84 655.965 2075.55 656.731 2073.65L658.803 2068.54 648.313 2046.33C647.994 2045.67 647.484 2044.84 646.783 2043.86 646.252 2043.11 645.816 2042.61 645.475 2042.35L643.935 2041.76 644.487 2042.96C644.487 2043.8 644.211 2044.5 643.658 2045.08 643.105 2045.66 642.446 2045.95 641.681 2045.95 640.937 2045.95 640.103 2045.58 639.178 2044.84 638.254 2044.1 637.568 2043.73 637.121 2043.73 636.739 2043.73 636.325 2043.94 635.878 2044.37 634.922 2045.25 633.933 2046.7 632.913 2048.71L632.913 2062.82C632.913 2064.45 633.115 2065.68 633.518 2066.51 633.795 2067.09 634.284 2067.57 634.985 2067.96 635.687 2068.35 636.697 2068.54 638.015 2068.54L638.015 2069.7 623.061 2069.7 623.061 2068.54C624.549 2068.54 625.654 2068.3 626.377 2067.83 626.908 2067.49 627.28 2066.94 627.493 2066.19 627.599 2065.83 627.652 2064.79 627.652 2063.08L627.652 2051.67C627.652 2048.24 627.583 2046.2 627.445 2045.55 627.307 2044.89 627.052 2044.42 626.68 2044.12 626.308 2043.82 625.845 2043.67 625.293 2043.67 624.634 2043.67 623.89 2043.83 623.061 2044.15L622.742 2042.99ZM606.003 2039.39C610.424 2039.39 613.974 2041.08 616.652 2044.47 618.927 2047.36 620.064 2050.68 620.064 2054.43 620.064 2057.07 619.436 2059.73 618.182 2062.43 616.928 2065.13 615.201 2067.17 613.001 2068.54 610.801 2069.91 608.352 2070.6 605.652 2070.6 601.252 2070.6 597.755 2068.83 595.162 2065.29 592.973 2062.32 591.878 2058.97 591.878 2055.27 591.878 2052.57 592.542 2049.88 593.871 2047.22 595.199 2044.55 596.948 2042.58 599.116 2041.3 601.284 2040.03 603.58 2039.39 606.003 2039.39ZM547.335 2039.39 548.738 2039.39 548.738 2063.04C548.738 2064.89 548.871 2066.11 549.137 2066.72 549.403 2067.33 549.796 2067.79 550.317 2068.09L552.182 2068.38 552.182 2059.64 553.234 2059.64C553.829 2062.64 554.966 2064.9 556.646 2066.42 558.325 2067.94 560.206 2068.7 562.289 2068.7 563.756 2068.7 564.952 2068.27 565.876 2067.4 566.801 2066.53 567.263 2065.49 567.263 2064.26 567.263 2062.79 566.748 2061.54 565.717 2060.54 564.686 2059.53 562.629 2058.26 559.547 2056.71 556.465 2055.17 554.446 2053.78 553.489 2052.54 552.533 2051.31 552.055 2049.77 552.055 2047.91 552.055 2045.49 552.878 2043.46 554.526 2041.83 556.172 2040.21 558.304 2039.39 560.918 2039.39 562.066 2039.39 563.458 2039.64 565.095 2040.13 566.179 2040.45 566.902 2040.61 567.263 2040.61 567.603 2040.61 567.869 2040.54 568.06 2040.39 568.252 2040.24 568.475 2039.91 568.73 2039.39L569.782 2039.39 569.782 2049.42 568.73 2049.42C567.922 2046.27 566.886 2044.13 565.621 2042.99 564.356 2041.86 562.746 2041.29 560.791 2041.29 559.303 2041.29 558.102 2041.68 557.188 2042.48 556.273 2043.27 555.817 2044.15 555.817 2045.11 555.817 2046.31 556.156 2047.34 556.837 2048.2 557.496 2049.08 558.835 2050.01 560.854 2050.99L565.509 2053.27C569.825 2055.4 571.982 2058.19 571.982 2061.66 571.982 2064.34 570.978 2066.5 568.969 2068.14 566.96 2069.78 564.712 2070.6 562.225 2070.6 560.44 2070.6 558.399 2070.27 556.104 2069.63 555.402 2069.42 554.828 2069.31 554.382 2069.31 553.893 2069.31 553.51 2069.59 553.234 2070.15L552.182 2070.15 552.182 2069.7 538.982 2069.7 538.982 2068.54C540.406 2068.54 541.363 2068.4 541.851 2068.12 542.34 2067.84 542.728 2067.38 543.015 2066.74 543.302 2066.1 543.445 2064.86 543.445 2063.04L543.445 2051.7C543.445 2048.51 543.35 2046.44 543.159 2045.5 543.01 2044.81 542.776 2044.34 542.457 2044.07 542.138 2043.8 541.703 2043.67 541.15 2043.67 540.555 2043.67 539.832 2043.83 538.982 2044.15L538.535 2042.99ZM411.189 2039.39 412.529 2039.39 412.529 2046.01C414.973 2041.6 417.481 2039.39 420.053 2039.39 421.222 2039.39 422.189 2039.75 422.955 2040.47 423.72 2041.19 424.103 2042.02 424.103 2042.96 424.103 2043.8 423.826 2044.5 423.273 2045.08 422.721 2045.66 422.062 2045.95 421.296 2045.95 420.553 2045.95 419.718 2045.58 418.794 2044.84 417.869 2044.1 417.184 2043.73 416.737 2043.73 416.354 2043.73 415.94 2043.94 415.494 2044.37 414.537 2045.25 413.549 2046.7 412.529 2048.71L412.529 2062.82C412.529 2064.45 412.73 2065.68 413.134 2066.51 413.411 2067.09 413.899 2067.57 414.601 2067.96 415.303 2068.35 416.312 2068.54 417.63 2068.54L417.63 2069.7 402.676 2069.7 402.676 2068.54C404.164 2068.54 405.27 2068.3 405.992 2067.83 406.524 2067.49 406.896 2066.94 407.108 2066.19 407.214 2065.83 407.267 2064.79 407.267 2063.08L407.267 2051.67C407.267 2048.24 407.198 2046.2 407.06 2045.55 406.922 2044.89 406.667 2044.42 406.295 2044.12 405.923 2043.82 405.461 2043.67 404.908 2043.67 404.249 2043.67 403.505 2043.83 402.676 2044.15L402.358 2042.99ZM385.618 2039.39C390.04 2039.39 393.59 2041.08 396.267 2044.47 398.542 2047.36 399.679 2050.68 399.679 2054.43 399.679 2057.07 399.052 2059.73 397.798 2062.43 396.544 2065.13 394.817 2067.17 392.617 2068.54 390.416 2069.91 387.967 2070.6 385.268 2070.6 380.867 2070.6 377.371 2068.83 374.777 2065.29 372.588 2062.32 371.494 2058.97 371.494 2055.27 371.494 2052.57 372.158 2049.88 373.486 2047.22 374.815 2044.55 376.563 2042.58 378.731 2041.3 380.899 2040.03 383.195 2039.39 385.618 2039.39ZM582.886 2030.59 583.875 2030.59 583.875 2040.26 590.698 2040.26 590.698 2042.51 583.875 2042.51 583.875 2061.6C583.875 2063.5 584.146 2064.79 584.688 2065.45 585.23 2066.12 585.926 2066.45 586.776 2066.45 587.478 2066.45 588.158 2066.23 588.817 2065.79 589.476 2065.35 589.986 2064.7 590.347 2063.85L591.591 2063.85C590.847 2065.95 589.795 2067.53 588.435 2068.59 587.074 2069.65 585.671 2070.18 584.225 2070.18 583.248 2070.18 582.291 2069.9 581.356 2069.36 580.421 2068.81 579.73 2068.03 579.283 2067.01 578.837 2065.99 578.614 2064.43 578.614 2062.3L578.614 2042.51 573.991 2042.51 573.991 2041.45C575.16 2040.98 576.355 2040.18 577.578 2039.06 578.8 2037.93 579.889 2036.6 580.846 2035.05 581.335 2034.24 582.015 2032.75 582.886 2030.59ZM492.845 2026.12 511.37 2026.12 511.37 2027.31 509.808 2027.31C508.788 2027.31 507.82 2027.56 506.906 2028.05 506.247 2028.39 505.79 2028.91 505.535 2029.61 505.28 2030.3 505.152 2031.72 505.152 2033.87L505.152 2046.33 525.24 2046.33 525.24 2033.87C525.24 2031.64 525.102 2030.17 524.825 2029.46 524.612 2028.93 524.166 2028.47 523.486 2028.08 522.572 2027.57 521.605 2027.31 520.585 2027.31L519.054 2027.31 519.054 2026.12 537.547 2026.12 537.547 2027.31 536.016 2027.31C534.996 2027.31 534.029 2027.56 533.115 2028.05 532.435 2028.39 531.973 2028.91 531.728 2029.61 531.483 2030.3 531.361 2031.72 531.361 2033.87L531.361 2061.98C531.361 2064.19 531.499 2065.65 531.776 2066.35 531.989 2066.89 532.424 2067.35 533.083 2067.74 534.018 2068.25 534.996 2068.51 536.016 2068.51L537.547 2068.51 537.547 2069.7 519.054 2069.7 519.054 2068.51 520.585 2068.51C522.349 2068.51 523.635 2067.98 524.442 2066.93 524.974 2066.25 525.24 2064.6 525.24 2061.98L525.24 2048.71 505.152 2048.71 505.152 2061.98C505.152 2064.19 505.291 2065.65 505.567 2066.35 505.779 2066.89 506.226 2067.35 506.906 2067.74 507.82 2068.25 508.788 2068.51 509.808 2068.51L511.37 2068.51 511.37 2069.7 492.845 2069.7 492.845 2068.51 494.376 2068.51C496.161 2068.51 497.458 2067.98 498.266 2066.93 498.776 2066.25 499.031 2064.6 499.031 2061.98L499.031 2033.87C499.031 2031.64 498.893 2030.17 498.616 2029.46 498.403 2028.93 497.968 2028.47 497.309 2028.08 496.374 2027.57 495.396 2027.31 494.376 2027.31L492.845 2027.31ZM313.017 2026.12 329.023 2026.12 329.023 2027.31 328.258 2027.31C327.132 2027.31 326.271 2027.57 325.676 2028.08 325.08 2028.6 324.783 2029.22 324.783 2029.95 324.783 2030.69 325.251 2032.42 326.186 2035.12L334.699 2059.57 341.873 2038.78 340.597 2035.12 339.577 2032.19C339.131 2031.12 338.632 2030.18 338.079 2029.37 337.802 2028.96 337.462 2028.62 337.059 2028.34 336.527 2027.95 335.996 2027.67 335.464 2027.5 335.06 2027.37 334.422 2027.31 333.551 2027.31L333.551 2026.12 350.386 2026.12 350.386 2027.31 349.238 2027.31C348.048 2027.31 347.176 2027.57 346.624 2028.08 346.071 2028.6 345.795 2029.29 345.795 2030.17 345.795 2031.26 346.273 2033.17 347.229 2035.89L355.519 2059.57 363.745 2035.57C364.681 2032.91 365.148 2031.07 365.148 2030.04 365.148 2029.55 364.994 2029.09 364.686 2028.66 364.378 2028.23 363.99 2027.93 363.522 2027.76 362.715 2027.46 361.662 2027.31 360.366 2027.31L360.366 2026.12 373.279 2026.12 373.279 2027.31C372.152 2027.31 371.238 2027.51 370.537 2027.92 369.835 2028.33 369.166 2029.09 368.528 2030.2 368.103 2030.95 367.433 2032.74 366.52 2035.57L354.467 2070.69 353.192 2070.69 343.34 2042.83 333.551 2070.69 332.403 2070.69 319.554 2034.51C318.598 2031.81 317.991 2030.21 317.737 2029.72 317.311 2028.91 316.732 2028.3 315.999 2027.9 315.266 2027.51 314.271 2027.31 313.017 2027.31ZM244.728 2024.11C244.808 2024.11 245.154 2024.3 245.501 2024.52 245.834 2024.74 247.354 2026.24 248.886 2027.84 250.406 2029.44 252.325 2031.45 253.138 2032.3 253.951 2033.15 256.697 2036.05 259.255 2038.75 263.934 2043.68 268.092 2048.06 271.477 2051.62 272.49 2052.66 273.343 2053.67 273.397 2053.86 273.49 2054.26 273.357 2054.48 272.024 2055.86 270.931 2057 266.706 2061.45 257.123 2071.59 247.54 2081.72 246.127 2083.18 245.488 2083.61 244.461 2084.3 244.062 2084.06 244.515 2083.02 244.995 2081.92 249.366 2074.53 253.285 2068.23 257.616 2061.23 259.016 2058.72 259.682 2056.69 259.988 2055.77 260.042 2055.38 260.042 2053.99 260.055 2052.68 260.002 2052.21 259.749 2051.4 259.016 2049.05 257.416 2046.18 252.391 2038.21 249.753 2034.02 245.914 2027.71 244.888 2025.84 244.288 2024.77 244.235 2024.11 244.728 2024.11ZM290.59 2024.01C290.799 2024.03 290.909 2024.1 290.909 2024.21 290.909 2024.27 290.456 2024.89 289.91 2025.58 289.35 2026.28 288.67 2027.25 288.364 2027.75 285.591 2032.38 283.939 2042.32 283.259 2058.56 283.046 2063.34 283.033 2064.03 282.713 2073.67 282.473 2081.22 282.419 2082.04 282.246 2082.9 282.073 2083.69 281.7 2084.15 281.393 2083.9 280.834 2083.43 280.674 2081.06 280.247 2067.09 279.847 2054.17 279.154 2045.41 277.968 2038.28 277.208 2033.7 276.595 2031.4 275.449 2028.98 274.863 2027.72 274.329 2026.93 272.77 2024.95 272.463 2024.55 272.263 2024.19 272.317 2024.09 272.437 2023.91 273.357 2024.01 274.263 2024.31 274.596 2024.43 275.276 2024.86 275.782 2025.29 277.715 2026.93 278.488 2027.49 279.434 2027.98 281.713 2029.12 283.499 2028.58 286.698 2025.8 288.071 2024.59 288.55 2024.32 289.67 2024.11 290.07 2024.03 290.38 2024 290.59 2024.01ZM546.092 2024C546.985 2024 547.745 2024.32 548.372 2024.95 548.999 2025.58 549.312 2026.35 549.312 2027.25 549.312 2028.15 548.999 2028.92 548.372 2029.56 547.745 2030.2 546.985 2030.52 546.092 2030.52 545.2 2030.52 544.434 2030.2 543.796 2029.56 543.159 2028.92 542.84 2028.15 542.84 2027.25 542.84 2026.35 543.153 2025.58 543.78 2024.95 544.407 2024.32 545.178 2024 546.092 2024ZM461.088 2024 462.523 2024 462.523 2058.03C462.523 2061.48 462.603 2063.58 462.762 2064.34 462.922 2065.11 463.177 2065.64 463.527 2065.94 463.878 2066.24 464.287 2066.39 464.755 2066.39 465.329 2066.39 466.094 2066.2 467.051 2065.84L467.402 2066.96 458.729 2070.6 457.263 2070.6 457.263 2066.39C455.838 2067.89 454.446 2068.96 453.085 2069.61 451.725 2070.27 450.258 2070.6 448.685 2070.6 445.497 2070.6 442.712 2069.25 440.332 2066.56 437.951 2063.87 436.761 2060.42 436.761 2056.2 436.761 2051.98 438.079 2048.12 440.715 2044.61 443.35 2041.11 446.74 2039.36 450.885 2039.36 453.457 2039.36 455.583 2040.19 457.263 2041.83L457.263 2036.4C457.263 2033.04 457.182 2030.97 457.023 2030.2 456.864 2029.43 456.614 2028.91 456.274 2028.63 455.934 2028.35 455.509 2028.21 454.998 2028.21 454.446 2028.21 453.713 2028.38 452.799 2028.72L452.384 2027.6ZM432.998 2024 434.433 2024 434.433 2063.04C434.433 2064.89 434.566 2066.11 434.832 2066.71 435.097 2067.31 435.506 2067.76 436.059 2068.07 436.612 2068.38 437.643 2068.54 439.152 2068.54L439.152 2069.7 424.836 2069.7 424.836 2068.54C426.175 2068.54 427.089 2068.4 427.578 2068.12 428.067 2067.84 428.449 2067.38 428.726 2066.74 429.002 2066.1 429.14 2064.86 429.14 2063.04L429.14 2036.31C429.14 2032.99 429.066 2030.95 428.917 2030.19 428.768 2029.43 428.529 2028.91 428.199 2028.63 427.87 2028.35 427.45 2028.21 426.94 2028.21 426.388 2028.21 425.686 2028.38 424.836 2028.72L424.294 2027.6Z" fill-rule="evenodd"/></g></svg>