<svg width="881" height="286" xmlns="http://www.w3.org/2000/svg" xmlns:xlink="http://www.w3.org/1999/xlink" xml:space="preserve" overflow="hidden"><defs><clipPath id="clip0"><rect x="2275" y="1299" width="881" height="286"/></clipPath></defs><g clip-path="url(#clip0)" transform="translate(-2275 -1299)"><path d="M2883.81 1534.57 2883.81 1559.12 2962.72 1559.12C2964.71 1559.12 2966.21 1555.61 2966.21 1555.61L2966.21 1534.57ZM2451.8 1533.06C2451.8 1533.06 2446.3 1534.57 2442.81 1541.07 2441.31 1544.58 2442.31 1548.1 2442.81 1549.1 2443.31 1550.11 2445.29 1553.6 2450.8 1556.11L2493.25 1556.11 2493.25 1533.06ZM2307.46 1519.03 2307.46 1551.09 2358.4 1551.09C2367.39 1549.6 2370.89 1543.58 2370.39 1544.08 2374.88 1538.06 2372.89 1530.05 2372.89 1530.05 2369.39 1521.54 2359.9 1519.53 2359.9 1519.53L2358.4 1519.03ZM2665.05 1502.98 2682.53 1502.98 2682.53 1542.58 2666.55 1542.58C2666.55 1542.58 2655.07 1542.07 2651.57 1529.05 2649.57 1523.54 2651.57 1516.52 2652.57 1514.01 2653.57 1511.01 2657.06 1504.99 2665.05 1502.98ZM3089.07 1492.96 3107.05 1492.96 3109.55 1508.5C3110.05 1512.5 3112.05 1514.51 3115.54 1514.01L3119.04 1514.01 3119.04 1530.55 3107.55 1530.55C3096.56 1531.05 3091.57 1527.04 3092.07 1518.02ZM3011.66 1492.96 3030.14 1492.96 3029.14 1561.13C3029.64 1571.65 3024.65 1576.17 3014.16 1575.16L3006.17 1575.16 3006.17 1558.62 3008.65 1558.62C3010.16 1558.62 3010.66 1557.12 3011.16 1553.6ZM2883.31 1491.96 2883.31 1515.01 2965.71 1515.01 2965.71 1491.96ZM2729.48 1488.95 2710.5 1489.45 2710.5 1540.57C2710.5 1540.57 2711.5 1553.6 2729.48 1558.12L2775.43 1558.12 2775.43 1489.45 2755.45 1489.45 2755.45 1541.07 2736.47 1541.07C2736.47 1541.07 2730.48 1540.07 2729.48 1535.07ZM2538.2 1469.41 2569.16 1469.41 2569.16 1577.16 2538.2 1577.16ZM2421.83 1469.41 2487.76 1469.41C2519.22 1473.91 2523.22 1500.47 2522.72 1499.97L2522.72 1577.16 2439.31 1577.16C2421.33 1573.66 2415.34 1560.13 2414.34 1558.12 2413.84 1556.11 2412.34 1550.11 2413.34 1538.56 2420.33 1514.01 2440.81 1512 2440.81 1512L2493.75 1512 2493.75 1503.99C2493.75 1495.47 2479.75 1491.96 2479.75 1491.96L2421.83 1491.96ZM2683.53 1460.38 2683.53 1486.94 2662.06 1486.94C2662.06 1486.94 2640.58 1488.45 2633.09 1513 2630.09 1529.55 2635.09 1539.06 2636.09 1541.07 2636.59 1543.08 2643.58 1555.11 2661.06 1558.62L2701.01 1558.62 2701.5 1558.62 2701.5 1460.88ZM2307.46 1457.89 2307.46 1488.95 2356.89 1488.95C2365.89 1487.95 2369.39 1481.44 2369.39 1481.44 2372.89 1475.41 2370.89 1466.4 2370.39 1465.9 2366.89 1457.38 2356.39 1457.89 2356.39 1457.89ZM3089.07 1444.35 3107.05 1444.35 3109.55 1462.38C3110.05 1466.9 3111.55 1468.91 3115.04 1468.41L3119.54 1468.41 3119.54 1485.94 3104.56 1485.94C3101.06 1485.94 3098.06 1484.93 3096.56 1483.44 3094.57 1481.44 3093.07 1477.42 3092.07 1471.9ZM2856.34 1439.33 2993.18 1439.33 2993.18 1460.38 2943.74 1460.38 2939.23 1473.41 2989.19 1473.41 2989.19 1565.63C2989.19 1565.63 2990.19 1578.16 2977.7 1578.16L2858.82 1578.16 2858.82 1473.41 2908.78 1473.41 2914.27 1460.88 2855.34 1460.88ZM3124.03 1437.32 3145.51 1437.32 3145.51 1538.56 3156 1538.06 3156 1559.12 3145.51 1559.63 3145.51 1578.66 3123.53 1578.66 3123.53 1560.63 3082.08 1564.12 3082.08 1574.66 3073.59 1574.66C3065.6 1575.16 3061.6 1570.15 3061.6 1559.63L3061.09 1492.46 3078.09 1492.46 3079.08 1552.1C3079.08 1554.61 3080.08 1555.61 3081.08 1555.61L3082.08 1555.61 3082.08 1543.08 3124.03 1539.57ZM3062.1 1435.82 3083.58 1435.82 3083.58 1443.35C3083.58 1449.86 3082.58 1455.38 3080.58 1456.88 3078.59 1458.87 3073.59 1459.87 3066.6 1459.87L3055.11 1459.87 3055.11 1469.41 3084.08 1469.41 3084.08 1486.94 3053.61 1486.94 3053.61 1577.16 3035.63 1577.16 3035.63 1486.94 3009.16 1486.94 3009.16 1468.91 3035.63 1468.91 3035.63 1460.38 3009.66 1460.38 3009.66 1441.84 3055.11 1441.84C3057.61 1441.84 3062.1 1440.84 3062.1 1438.33ZM2538.2 1430.32 2569.16 1430.32 2569.16 1457.89 2538.2 1457.89ZM2275 1429.31 2350.91 1429.31C2350.91 1429.31 2399.86 1427.3 2401.85 1467.4 2401.85 1467.4 2404.35 1493.47 2384.37 1503.99 2384.37 1503.99 2407.85 1513 2406.85 1539.06 2406.85 1539.06 2410.34 1578.66 2360.4 1578.66L2275 1578.66ZM2704.88 1415.27C2719.99 1413.52 2736.98 1420.04 2750.96 1441.84 2771.43 1471.42 2806.89 1498.97 2806.89 1498.97 2806.89 1498.97 2833.36 1519.53 2816.88 1560.63 2799.9 1600.22 2737.97 1579.67 2737.97 1579.67 2737.97 1579.67 2715 1572.15 2688.53 1578.16 2662.06 1583.68 2639.08 1581.67 2639.08 1581.67 2639.08 1581.67 2608.12 1582.18 2599.13 1543.08 2590.64 1503.48 2630.09 1481.94 2633.09 1478.42 2636.09 1474.41 2657.06 1460.38 2670.05 1438.33 2676.54 1427.05 2689.77 1417.03 2704.88 1415.27ZM2806.89 1385.7C2833.86 1385.7 2841.35 1412.27 2841.35 1421.28 2841.35 1429.81 2844.85 1467.9 2811.39 1468.91 2777.43 1469.41 2775.93 1445.84 2775.93 1428.81 2775.93 1410.76 2779.42 1385.7 2806.89 1385.7ZM2609.62 1365.16C2629.59 1363.15 2644.08 1385.2 2645.58 1397.73 2646.58 1405.74 2650.57 1442.85 2619.61 1449.35 2589.14 1455.88 2577.65 1420.28 2581.15 1403.75 2581.15 1403.75 2584.65 1367.15 2609.62 1365.16ZM2757.28 1306.5C2759.37 1306.09 2761.44 1306.07 2763.44 1306.51 2779.42 1310.02 2794.41 1331.57 2791.41 1350.12 2788.41 1368.65 2773.93 1393.21 2750.96 1390.22 2727.98 1387.21 2722.99 1366.15 2724.99 1345.6 2726.73 1331.13 2742.63 1309.36 2757.28 1306.5ZM2677.04 1299C2694.14 1299 2708.01 1318.73 2708.01 1343.09 2708.01 1367.45 2694.14 1387.21 2677.04 1387.21 2659.93 1387.21 2646.08 1367.45 2646.08 1343.09 2646.08 1318.73 2659.93 1299 2677.04 1299Z" fill-rule="evenodd"/></g></svg>