<svg width="1197" height="187" xmlns="http://www.w3.org/2000/svg" xmlns:xlink="http://www.w3.org/1999/xlink" xml:space="preserve" overflow="hidden"><g transform="translate(-1892 -1385)"><path d="M0 8.62299 222.999 8.60379 222.999 0 0 0ZM213.319 23.4813 213.319 14.7227 9.75632 14.7227 9.75632 23.4472ZM19.0245 38.1547 203.972 38.0801 203.972 29.4901 19.0245 29.4901ZM187.595 119.302C185.454 119.302 185.08 116.402 185.08 116.402L185.08 52.0764C185.08 52.0764 185.08 49.7397 187.413 49.7397 189.751 49.7397 190.119 52.2535 190.119 52.2535L190.119 116.958C190.119 116.958 189.751 119.302 187.595 119.302ZM86.462 126.424 105.131 126.424 105.131 119.451 94.0005 119.451 94.0005 89.0014 101.372 89.0014 101.372 81.2566 93.464 81.2566 93.464 50.0727 104.238 50.0727 104.238 42.6798 86.462 42.6798ZM25.1531 126.424 32.5129 126.424 32.5129 52.3456C32.5129 52.3456 32.8097 50.0727 34.6213 50.0727 36.4446 50.0727 36.6211 52.0764 36.6211 52.0764L36.6211 126.424 43.9809 126.424 43.9809 50.2586C43.9809 50.2586 43.8094 42.6798 34.2906 42.6798 24.8163 42.6798 25.2661 50.4376 25.2661 50.4376ZM55.9767 126.424 62.0876 126.424 67.47 99.2784 67.47 126.424 73.7596 126.424 73.7596 42.5095 67.9931 42.5095 61.3594 72.0768 61.3594 42.4479 55.9767 42.4479ZM187.413 126.424C195.986 126.424 197.287 119.451 197.287 119.451L197.287 50.6256C197.287 50.6256 197.262 42.3302 187.413 42.3302 177.554 42.3302 177.919 48.9923 177.919 48.9923L177.919 120.208C177.919 120.208 178.546 126.424 187.413 126.424ZM157.295 126.424C165.36 126.424 166.803 120.208 166.803 120.208L166.803 101.08 159.192 101.08 159.27 117.495C159.27 117.495 158.914 119.636 156.582 119.636 154.251 119.636 154.251 117.112 154.251 117.112L154.251 52.0764C154.251 52.0764 153.703 49.3528 156.226 49.3528 158.741 49.3528 158.914 52.2535 158.914 52.2535L158.914 71.1666 166.082 71.1666 166.082 50.2586C166.082 50.2586 164.766 42.3302 155.854 42.3302 148.68 42.3302 147.789 49.8894 147.789 49.8894L147.789 119.636C147.789 119.636 149.209 126.424 157.295 126.424ZM127.003 126.425C135.087 126.425 135.952 120.389 135.952 120.389L135.952 100.722 128.839 100.722 128.839 117.112C128.839 117.112 128.079 119.1 126.631 119.1 125.21 119.1 124.286 117.495 124.286 117.495L124.286 100.915C124.286 100.915 125.919 94.6116 128.792 87.7684 131.645 80.9121 135.246 69.5521 135.246 69.5521L135.246 48.4553C135.246 48.4553 133.469 41.7997 125.919 41.7997 118.359 41.7997 116.96 48.1002 116.96 48.1002L116.96 71.167 123.581 71.167 123.581 51.5271C123.581 51.5271 123.394 49.1883 125.919 49.1883 128.442 49.1883 128.079 50.9709 128.079 50.9709L128.079 68.9948C128.079 68.9948 125.37 77.2881 122.854 83.2552 120.344 89.2061 117.47 99.8273 117.47 99.8273L117.47 120.208C117.47 120.208 118.916 126.425 127.003 126.425ZM1130.64 140.984C1119.25 140.984 1110.01 137.043 1103.05 129.189 1096.04 121.279 1092.57 109.418 1092.57 93.5341 1092.57 77.8961 1096.15 66.0444 1103.32 57.9566 1110.49 49.9187 1119.62 45.8741 1130.64 45.8741 1141.7 45.8741 1150.8 49.8622 1157.82 57.8558 1164.94 65.8868 1168.48 77.8961 1168.48 93.9098 1168.48 109.719 1165.05 121.514 1158.14 129.303 1151.24 137.091 1142.09 140.984 1130.64 140.984ZM203.944 141.474 203.944 131.224 19.1437 131.224 19.1437 141.449ZM619.172 162.427 720.479 162.427 720.479 138.974 646.8 138.974 646.8 108.56 715.318 108.56 715.318 85.0843 646.8 85.0843 646.8 47.8955 723.18 47.8955 723.18 24.4302 619.172 24.4302ZM461.924 162.427 488.744 162.427 545.048 70.0325 545.048 162.427 570.65 162.427 570.65 24.4302 542.971 24.4302 487.559 115.034 487.559 24.4302 461.924 24.4302ZM304.237 162.429 331.892 162.429 331.892 87.6774C331.892 75.8174 332.21 68.1028 332.892 64.6223 334.073 58.9649 336.892 54.4246 341.365 50.98 345.814 47.5785 351.885 45.8752 359.623 45.8752 367.467 45.8752 373.384 47.4774 377.36 50.6999 381.361 53.9134 383.758 57.9319 384.568 62.6164 385.384 67.3089 385.771 75.1554 385.771 86.0665L385.771 162.429 413.383 162.429 413.383 89.892C413.383 73.3 412.668 61.6055 411.176 54.7717 409.671 47.9277 406.907 42.1265 402.913 37.4167 398.881 32.7014 393.509 28.9752 386.778 26.1512 380.067 23.3707 371.279 21.9667 360.439 21.9667 347.387 21.9667 337.467 23.5026 330.704 26.5415 323.942 29.589 318.601 33.5325 314.687 38.4276 310.786 43.2824 308.204 48.3756 306.947 53.7079 305.13 61.64 304.237 73.3 304.237 88.7807ZM1130.32 164.888C1150.53 164.888 1166.69 158.566 1178.82 145.939 1190.95 133.296 1197 115.736 1197 93.2312 1197 70.9304 1191 53.4775 1178.97 40.882 1166.95 28.2556 1150.85 21.9656 1130.69 21.9656 1110.33 21.9656 1094.11 28.2299 1082.06 40.7693 1070.04 53.3123 1064.02 70.5833 1064.02 92.588 1064.02 106.69 1066.12 118.484 1070.31 128.051 1073.41 135.069 1077.68 141.404 1083.07 147 1088.43 152.577 1094.35 156.71 1100.78 159.41 1109.3 163.079 1119.16 164.888 1130.32 164.888ZM971.713 164.888C988.504 164.888 1002.18 159.893 1012.66 149.858 1018.92 143.913 1023.6 135.419 1026.71 124.321L999.323 117.785C997.691 124.95 994.293 130.608 989.127 134.781 983.975 138.921 977.693 140.984 970.321 140.984 960.112 140.984 951.885 137.34 945.485 129.99 939.146 122.683 935.957 110.797 935.957 94.3739 935.957 76.9707 939.111 64.5425 945.38 57.1989 951.667 49.7785 959.824 46.1052 969.845 46.1052 977.266 46.1052 983.631 48.4227 988.975 53.163 994.293 57.8555 998.123 65.2726 1000.45 75.3957L1027.19 67.0495C1023.05 51.8894 1016.21 40.6153 1006.61 33.2514 996.98 25.8668 984.813 22.1964 970.085 22.1964 951.824 22.1964 936.829 28.4404 925.059 40.9798 913.32 53.4916 907.435 70.6021 907.435 92.3471 907.435 115.289 913.32 133.116 925.138 145.844 936.956 158.535 952.482 164.888 971.713 164.888ZM813.631 164.888C830.793 164.888 843.728 161.088 852.414 153.475 861.1 145.844 865.654 135.673 866.095 122.985L838.467 121.843C837.293 128.971 834.737 134.093 830.867 137.214 826.945 140.357 821.121 141.89 813.361 141.89 805.355 141.89 799.082 140.214 794.523 136.899 791.605 134.749 790.156 131.865 790.156 128.292 790.156 125.039 791.504 122.236 794.231 119.912 797.712 116.957 806.184 113.847 819.577 110.673 832.992 107.496 842.904 104.173 849.356 100.772 855.781 97.3388 860.833 92.6666 864.433 86.7223 868.102 80.7722 869.89 73.4032 869.89 64.6726 869.89 56.7888 867.726 49.3542 863.359 42.4367 858.993 35.5242 852.833 30.3883 844.867 27.0089 836.862 23.6381 826.945 21.9656 815.049 21.9656 797.712 21.9656 784.393 26.0049 775.11 34.1148 765.818 42.2262 760.295 54.0297 758.471 69.5586L785.414 72.2471C787.054 63.1933 790.318 56.5134 795.286 52.226 800.264 48.0017 806.952 45.8741 815.367 45.8741 824.258 45.8741 830.963 47.7437 835.496 51.5434 840.02 55.3214 842.262 59.7577 842.262 64.8045 842.262 68.0655 841.315 70.855 839.409 73.1141 837.525 75.3957 834.204 77.4051 829.498 79.0773 826.238 80.2026 818.892 82.1987 807.392 85.0839 792.582 88.7793 782.212 93.2928 776.266 98.6813 767.842 106.278 763.658 115.537 763.658 126.465 763.658 133.458 765.63 140.034 769.583 146.167 773.535 152.257 779.211 156.902 786.662 160.073 794.109 163.3 803.082 164.888 813.631 164.888ZM111.939 171.505 181.65 146.036 160.729 146.036 111.939 162.645 60.8594 146.036 40.2813 146.036ZM111.939 187 203.892 151.58 203.892 146.029 191.571 146.029 111.939 175.549 31.1128 146.029 19.1289 146.029 19.1289 151.558Z" fill="#231F20" fill-rule="evenodd" transform="matrix(1 0 0 -1 1892 1572)"/></g></svg>