<svg width="630" height="400" xmlns="http://www.w3.org/2000/svg" xmlns:xlink="http://www.w3.org/1999/xlink" xml:space="preserve" overflow="hidden"><defs><clipPath id="clip0"><rect x="3234" y="1171" width="630" height="400"/></clipPath></defs><g clip-path="url(#clip0)" transform="translate(-3234 -1171)"><path d="M3601.46 1172.8 3648 1180.61 3648 1571 3601.46 1571 3601.46 1172.8ZM3595.99 1171 3595.99 1571 3480 1571 3480 1186.97 3595.99 1171Z" fill-rule="evenodd"/><path d="M3290.97 1258.01 3298.19 1259.17C3304.12 1260.13 3309.46 1263.55 3312.87 1268.52L3331.8 1296.06C3321.48 1293.6 3309.35 1290.76 3295.14 1287.42L3286.91 1262.87C3286.49 1261.6 3286.74 1260.24 3287.58 1259.26 3288.43 1258.28 3289.71 1257.77 3290.97 1258.01ZM3246.45 1257.28 3256.08 1261.56C3257.11 1261.98 3257.88 1262.86 3258.17 1263.94L3264.94 1288.01C3278.83 1291.24 3356.91 1309.31 3382.61 1316.16 3403.25 1321.69 3407.93 1333.32 3408.9 1339.76 3409.29 1342.47 3408.54 1345.21 3406.84 1347.37 3405.16 1349.49 3402.65 1350.82 3399.99 1351 3384.13 1352.11 3353.05 1344.81 3346.02 1343.09L3286.42 1374.63C3281.94 1377.01 3276.76 1377.62 3271.85 1376.37L3263.59 1374.25C3263.1 1374.1 3262.66 1373.89 3262.25 1373.57 3261.61 1373.07 3261.12 1372.37 3260.92 1371.55 3260.62 1370.24 3261.02 1368.81 3262.03 1367.91L3301.33 1331.86C3291.31 1328.69 3271.27 1322.31 3258.27 1317.76 3248.19 1314.26 3241.97 1309.13 3238.54 1305.46 3234.68 1301.32 3233.14 1295.43 3234.47 1289.7L3241.39 1259.87C3241.65 1258.8 3242.35 1257.89 3243.34 1257.39 3244.33 1256.9 3245.46 1256.88 3246.45 1257.28Z" fill-rule="evenodd"/><path d="M3817.46 1172.8 3864 1180.61 3864 1571 3817.46 1571 3817.46 1172.8ZM3811.99 1171 3811.99 1571 3696 1571 3696 1186.97 3811.99 1171Z" fill-rule="evenodd"/></g></svg>