<svg width="65" height="65" xmlns="http://www.w3.org/2000/svg" xmlns:xlink="http://www.w3.org/1999/xlink" xml:space="preserve" overflow="hidden"><defs><clipPath id="clip0"><rect x="3054" y="1731" width="65" height="65"/></clipPath></defs><g clip-path="url(#clip0)" transform="translate(-3054 -1731)">
	<circle cx="3086.5" cy="1763.5" r="28" fill="#fff" />
	<path d="M3095.18 1754.95C3093.29 1754.95 3091.75 1756.48 3091.75 1758.37 3091.75 1760.27 3093.29 1761.8 3095.18 1761.8 3097.07 1761.8 3098.6 1760.27 3098.6 1758.37 3098.6 1756.48 3097.07 1754.95 3095.18 1754.95ZM3072.92 1753.3 3100.08 1753.3 3100.08 1769.95 3089 1769.95 3079.73 1759.9 3072.92 1767.19ZM3068.49 1749.14 3068.49 1777.86 3104.5 1777.86 3104.5 1749.14ZM3086.5 1731C3104.45 1731 3119 1745.55 3119 1763.5 3119 1781.45 3104.45 1796 3086.5 1796 3068.55 1796 3054 1781.45 3054 1763.5 3054 1745.55 3068.55 1731 3086.5 1731Z" fill-rule="evenodd"/>
</g></svg>