<svg width="107" height="39" xmlns="http://www.w3.org/2000/svg" xmlns:xlink="http://www.w3.org/1999/xlink" xml:space="preserve" overflow="hidden"><defs><clipPath id="clip0"><rect x="586" y="340" width="107" height="39"/></clipPath></defs><g clip-path="url(#clip0)" transform="translate(-586 -340)"><path d="M611.317 357.732 619.177 357.732C619.177 357.732 619.488 356.55 618.089 354.779 615.323 351.922 612.217 353.817 612.217 353.817 610.694 354.624 608.738 357.98 609.886 362.796 611.317 367.613 616.816 368.604 620.232 367.486 622.493 366.746 623.797 365.115 624.424 364.092 624.626 363.265 624.77 362.437 624.861 361.614L611.317 361.614 611.317 357.732Z"/><path d="M604.447 340.028C596.152 340.469 588.752 346.21 586.603 354.684 583.957 365.115 590.266 375.725 600.697 378.372 608.107 380.252 615.622 377.612 620.29 372.184 618.238 372.675 615.835 372.708 613.228 371.809 604.496 368.794 602.896 360.714 605.072 355.059 607.244 349.405 614.853 346.769 620.134 350.559 624.661 353.806 624.909 359.59 624.884 361.184 625.717 351.827 619.689 342.977 610.29 340.591 608.335 340.095 606.361 339.926 604.447 340.028ZM594.947 357.216C596.331 357.216 597.447 358.332 597.447 359.716 597.447 361.1 596.331 362.216 594.947 362.216 593.563 362.216 592.415 361.1 592.415 359.716 592.415 358.332 593.563 357.216 594.947 357.216Z"/><path d="M683.134 348.809C681.583 348.87 679.998 349.126 678.697 349.622 675.968 350.738 674.603 353.393 674.603 356.184L679.54 356.184C679.416 354.759 680.487 353.463 681.478 353.091 681.913 352.906 682.513 352.778 683.134 352.778 684.373 352.717 685.641 353.034 686.509 353.841 687.068 354.398 687.226 355.128 687.04 355.934 686.729 357.237 685.304 357.685 683.134 357.997 682.389 358.12 681.531 358.186 680.603 358.309 677.999 358.619 674.282 359.904 673.415 363.684 673.105 365.174 673.342 367.919 675.634 369.716 677.184 370.895 679.367 371.435 681.04 371.372 681.785 371.372 682.544 371.309 683.165 371.184 684.899 370.813 686.241 370.018 687.54 368.966 687.603 369.276 687.918 370.437 688.165 370.747L693.384 370.747C692.58 369.135 692.697 366.798 692.697 365.497L692.697 358.809C692.636 357.073 692.631 355.328 692.259 353.716 691.885 352.103 690.474 349.431 685.884 348.872 685.017 348.811 684.063 348.809 683.134 348.809ZM687.353 359.966C687.353 360.462 687.413 364.001 687.103 364.684 686.544 366.171 684.993 367.032 683.134 367.216 682.764 367.277 682.346 367.339 681.915 367.278 680.675 367.278 679.631 366.677 679.197 365.747 678.7 364.817 679.01 363.868 679.322 363.309 680.065 362.008 681.365 361.774 683.165 361.403 683.721 361.342 684.329 361.214 685.009 361.028 686.374 360.718 686.671 360.462 687.353 359.966Z"/><path d="M646.871 351.852C644.7 349.433 641.352 348.378 637.942 348.874 634.842 349.37 632.61 351.107 631.06 353.587 630.253 355.013 629.696 356.625 629.447 358.175 628.951 361.959 630.005 368.282 636.641 370.762 639.739 371.942 643.647 371.507 646.623 369.337 648.297 368.096 649.973 365.306 650.095 363.57L644.577 363.57C644.39 364.315 643.957 365.306 642.965 366.05 640.732 367.662 638.19 366.61 637.073 365.801 635.4 364.561 634.842 362.515 634.78 359.601 634.78 358.052 635.214 355.572 636.516 354.393 637.942 353.214 639.678 352.905 641.352 353.401 643.152 353.959 644.515 355.943 644.39 357.74L636.578 357.74 636.578 361.649 650.095 361.649C650.219 360.221 649.973 358.858 649.724 357.555 649.29 355.634 648.112 353.277 646.871 351.852Z"/><path d="M662.869 357.618C661.194 357.308 659.273 357.245 658.282 356.131 657.847 355.634 657.847 354.766 658.095 354.269 658.777 352.905 660.452 352.471 662.064 352.594 663.489 352.594 664.792 353.339 665.35 354.579 665.599 355.076 665.661 355.634 665.722 356.192L670.309 356.192C670.372 354.393 669.628 352.533 668.512 351.354 667.086 349.867 663.737 348.317 659.585 348.937 657.35 349.246 654.375 350.549 653.381 353.462 652.513 356.192 653.381 358.671 655.055 359.973 657.165 361.588 661.133 362.02 662.746 362.393 664.606 362.764 665.535 363.013 665.845 364.066 666.032 364.749 665.97 365.555 665.535 366.114 664.357 367.662 661.939 367.786 660.018 367.227 658.405 366.734 657.723 365.43 657.413 363.692L652.576 363.692C652.576 365.306 653.072 366.424 653.879 367.725 654.932 369.4 656.793 370.762 659.521 371.197 662.497 371.695 665.535 371.321 667.335 370.33 668.388 369.708 669.195 368.904 669.877 368.035 670.869 366.795 671.737 363.692 670.186 360.965 668.823 358.609 665.722 358.114 662.869 357.618"/></g></svg>