<svg width="310" height="260" xmlns="http://www.w3.org/2000/svg" xmlns:xlink="http://www.w3.org/1999/xlink" xml:space="preserve" overflow="hidden"><defs><clipPath id="clip0"><rect x="62" y="1811" width="310" height="260"/></clipPath></defs><g clip-path="url(#clip0)" transform="translate(-62 -1811)"><path d="M0 11.9893 310 11.9625 310 0 0 0ZM296.544 32.6477 296.544 20.47 13.5626 20.47 13.5626 32.6004ZM26.4468 53.0494 283.55 52.9458 283.55 41.0024 26.4468 41.0024ZM260.783 165.875C257.807 165.875 257.287 161.843 257.287 161.843L257.287 72.4057C257.287 72.4057 257.287 69.1568 260.531 69.1568 263.781 69.1568 264.292 72.652 264.292 72.652L264.292 162.616C264.292 162.616 263.781 165.875 260.783 165.875ZM260.531 175.777C272.448 175.777 274.257 166.082 274.257 166.082L274.257 70.3886C274.257 70.3886 274.222 58.855 260.531 58.855 246.825 58.855 247.333 68.1175 247.333 68.1175L247.333 167.134C247.333 167.134 248.204 175.777 260.531 175.777ZM218.662 175.777C229.874 175.777 231.88 167.134 231.88 167.134L231.88 140.539 221.299 140.539 221.408 163.362C221.408 163.362 220.913 166.339 217.671 166.339 214.431 166.339 214.431 162.83 214.431 162.83L214.431 72.4057C214.431 72.4057 213.669 68.6188 217.176 68.6188 220.673 68.6188 220.913 72.652 220.913 72.652L220.913 98.9481 230.877 98.9481 230.877 69.8783C230.877 69.8783 229.048 58.855 216.659 58.855 206.686 58.855 205.448 69.3652 205.448 69.3652L205.448 166.339C205.448 166.339 207.422 175.777 218.662 175.777ZM120.194 175.777 146.147 175.777 146.147 166.082 130.674 166.082 130.674 123.745 140.921 123.745 140.921 112.977 129.928 112.977 129.928 69.6198 144.906 69.6198 144.906 59.3411 120.194 59.3411ZM77.8157 175.777 86.3105 175.777 93.793 138.034 93.793 175.777 102.536 175.777 102.536 59.1042 94.5202 59.1042 85.2981 100.214 85.2981 59.0186 77.8157 59.0186ZM34.9662 175.777 45.1974 175.777 45.1974 72.7802C45.1974 72.7802 45.6101 69.6198 48.1284 69.6198 50.663 69.6198 50.9085 72.4057 50.9085 72.4057L50.9085 175.777 61.1397 175.777 61.1397 69.8783C61.1397 69.8783 60.9014 59.3411 47.6688 59.3411 34.4983 59.3411 35.1233 70.1271 35.1233 70.1271ZM176.552 175.778C187.79 175.778 188.993 167.386 188.993 167.386L188.993 140.042 179.104 140.042 179.104 162.83C179.104 162.83 178.048 165.594 176.035 165.594 174.06 165.594 172.775 163.362 172.775 163.362L172.775 140.31C172.775 140.31 175.045 131.546 179.039 122.031 183.005 112.498 188.011 96.7035 188.011 96.7035L188.011 67.3711C188.011 67.3711 185.541 58.1173 175.045 58.1173 164.536 58.1173 162.591 66.8775 162.591 66.8775L162.591 98.9489 171.795 98.9489 171.795 71.642C171.795 71.642 171.535 68.3902 175.045 68.3902 178.552 68.3902 178.048 70.8688 178.048 70.8688L178.048 95.9285C178.048 95.9285 174.282 107.46 170.784 115.756 167.295 124.03 163.3 138.798 163.3 138.798L163.3 167.134C163.3 167.134 165.31 175.778 176.552 175.778ZM283.511 196.702 283.511 182.45 26.6125 182.45 26.6125 196.667ZM155.611 238.456 252.519 203.045 223.436 203.045 155.611 226.138 84.6031 203.045 55.9969 203.045ZM155.611 260 283.439 210.753 283.439 203.035 266.311 203.035 155.611 244.079 43.2513 203.035 26.5919 203.035 26.5919 210.723Z" fill="#231F20" fill-rule="evenodd" transform="matrix(1 0 0 -1 61.9999 2071)"/></g></svg>