<svg width="345" height="345" xmlns="http://www.w3.org/2000/svg" xmlns:xlink="http://www.w3.org/1999/xlink" xml:space="preserve" overflow="hidden"><defs><clipPath id="clip0"><rect x="2774" y="1670" width="345" height="345"/></clipPath></defs><g clip-path="url(#clip0)" transform="translate(-2774 -1670)"><path d="M2914.05 1890.71C2932.8 1906.11 2945.16 1918.47 2958.54 1930.02 2943.67 1959.37 2925.98 1992.89 2915.81 2012.09 2918.53 2012.82 2920.04 2013.32 2925.46 2015L2913.75 2014.09 2894.59 1967.02 2865.25 1979.83C2886.65 1967.55 2916.33 1951.16 2934.99 1940.14 2927.27 1924.2 2923.52 1909.42 2914.05 1890.71ZM2894.32 1868.11C2902.89 1890.81 2907.45 1907.68 2913.28 1924.36 2885.75 1942.39 2853.7 1962.63 2835.31 1974.2 2837.3 1976.19 2838.36 1977.38 2842.22 1981.54L2832.52 1974.91 2839.4 1924.56 2807.56 1921.04C2832.25 1921.06 2866.15 1921.65 2887.82 1921.4 2889.08 1903.73 2893.2 1889.05 2894.32 1868.11ZM3000.67 1912.3C3002.46 1945.15 3003.9 1983.02 3004.68 2004.73 3007.4 2004 3008.96 2003.68 3014.5 2002.43L3003.9 2007.49 2963.78 1976.29 2944.76 2002.05C2957.16 1980.72 2974.68 1951.69 2985.33 1932.82 2970.68 1922.88 2960.05 1911.95 2942.49 1900.47 2966.43 1904.45 2983.31 1908.97 3000.67 1912.3ZM2888.46 1838.29C2884.48 1862.23 2879.96 1879.1 2876.63 1896.46 2843.77 1898.25 2805.89 1899.69 2784.17 1900.47 2784.89 1903.19 2785.22 1904.75 2786.47 1910.28L2781.4 1899.69 2812.62 1859.58 2786.85 1840.57C2808.19 1852.97 2837.22 1870.48 2856.1 1881.13 2866.05 1866.48 2876.98 1855.85 2888.46 1838.29ZM2898.33 1809.86C2882.92 1828.61 2870.56 1840.97 2859.01 1854.34 2829.65 1839.47 2796.11 1821.79 2776.92 1811.62 2776.18 1814.34 2775.68 1815.85 2774 1821.27L2774.91 1809.56 2821.99 1790.41 2809.18 1761.08C2821.46 1782.47 2837.86 1812.15 2848.88 1830.8 2864.83 1823.08 2879.61 1819.34 2898.33 1809.86ZM3028.24 1875.85C3046.28 1903.38 3066.53 1935.41 3078.09 1953.8 3080.09 1951.81 3081.27 1950.75 3085.44 1946.89L3078.81 1956.59 3028.44 1949.71 3024.92 1981.54C3024.94 1956.86 3025.53 1922.97 3025.28 1901.3 3007.61 1900.05 2992.93 1895.92 2971.98 1894.8 2994.68 1886.24 3011.56 1881.68 3028.24 1875.85ZM3119 1863.73 3118.09 1875.44 3071.01 1894.59 3083.82 1923.92C3071.54 1902.53 3055.14 1872.85 3044.12 1854.2 3028.18 1861.92 3013.39 1865.66 2994.67 1875.14 3010.08 1856.39 3022.44 1844.03 3033.99 1830.66 3063.35 1845.53 3096.89 1863.21 3116.09 1873.38 3116.82 1870.66 3117.32 1869.14 3119 1863.73ZM2868.08 1703.46C2868.06 1728.14 2867.47 1762.03 2867.72 1783.7 2885.39 1784.95 2900.07 1789.08 2921.02 1790.2 2898.32 1798.76 2881.44 1803.32 2864.76 1809.15 2846.72 1781.62 2826.47 1749.58 2814.91 1731.2 2812.91 1733.19 2811.73 1734.25 2807.56 1738.11L2814.19 1728.41 2864.56 1735.29ZM3106.53 1774.72 3111.6 1785.31 3080.38 1825.42 3106.15 1844.43C3084.81 1832.03 3055.78 1814.52 3036.9 1803.87 3026.95 1818.52 3016.02 1829.15 3004.54 1846.71 3008.52 1822.77 3013.04 1805.89 3016.37 1788.54 3049.23 1786.75 3087.11 1785.31 3108.83 1784.53 3108.11 1781.81 3107.78 1780.25 3106.53 1774.72ZM2948.24 1682.95C2935.84 1704.28 2918.32 1733.31 2907.67 1752.18 2922.32 1762.12 2932.95 1773.05 2950.51 1784.53 2926.57 1780.55 2909.69 1776.03 2892.33 1772.7 2890.54 1739.85 2889.1 1701.98 2888.32 1680.27 2885.6 1680.99 2884.04 1681.32 2878.5 1682.57L2889.1 1677.5 2929.22 1708.71ZM2979.25 1670.91 2998.41 1717.98 3027.75 1705.16C3006.35 1717.45 2976.67 1733.84 2958.01 1744.86 2965.73 1760.8 2969.48 1775.58 2978.95 1794.29 2960.2 1778.88 2947.84 1766.53 2934.46 1754.98 2949.33 1725.63 2967.02 1692.11 2977.19 1672.91 2974.47 1672.18 2972.96 1671.68 2967.54 1670ZM3050.78 1703.46 3060.48 1710.09 3053.6 1760.44 3085.44 1763.96C3060.75 1763.94 3026.85 1763.35 3005.18 1763.6 3003.92 1781.27 2999.8 1795.95 2998.68 1816.89 2990.11 1794.19 2985.55 1777.32 2979.72 1760.64 3007.25 1742.61 3039.3 1722.37 3057.7 1710.8 3055.7 1708.81 3054.64 1707.62 3050.78 1703.46Z" fill-rule="evenodd"/></g></svg>