<svg width="229" height="260" xmlns="http://www.w3.org/2000/svg" xmlns:xlink="http://www.w3.org/1999/xlink" xml:space="preserve" overflow="hidden"><g transform="translate(-760 -375)"><path d="M760.003 622.904 989 622.904 989 635 760 635ZM769.04 604.767 979.966 604.767 979.966 619.883 769.04 619.883ZM957.875 441.512 971.921 441.512 974.436 442.787 975.698 463.174 976.951 496.302 976.951 528.162 975.698 567.877 975.488 594.632 971.921 595.698 959.347 595.698 955.57 594.632 954.098 567.877 952.844 528.375 952.844 496.517 954.098 463.174 955.255 442.677ZM900.625 441.512 914.665 441.512 917.18 442.787 918.441 463.174 919.703 496.302 919.703 528.162 918.441 567.877 918.231 594.632 914.665 595.698 902.091 595.698 898.318 594.632 896.85 567.877 895.594 528.375 895.594 496.517 896.85 463.174 898.005 442.677ZM831.319 441.512 845.364 441.512 847.879 442.787 849.138 463.174 850.396 496.302 850.396 528.162 849.138 567.877 848.931 594.632 845.364 595.698 832.787 595.698 829.012 594.632 827.546 567.877 826.29 528.375 826.29 496.517 827.546 463.174 828.702 442.677ZM777.086 441.512 791.128 441.512 793.641 442.787 794.9 463.174 796.158 496.302 796.158 528.162 794.9 567.877 794.69 594.632 791.128 595.698 778.552 595.698 774.779 594.632 773.313 567.877 772.052 528.375 772.052 496.517 773.313 463.174 774.464 442.677ZM769.04 414.302 979.966 414.302 979.966 435.465 769.04 435.465ZM872.331 375 982.98 400.422 978.537 408.256 766.629 408.256 760 401.903Z" fill-rule="evenodd"/></g></svg>