<svg width="237" height="260" xmlns="http://www.w3.org/2000/svg" xmlns:xlink="http://www.w3.org/1999/xlink" xml:space="preserve" overflow="hidden"><defs><clipPath id="clip0"><rect x="770" y="65" width="237" height="260"/></clipPath></defs><g clip-path="url(#clip0)" transform="translate(-770 -65)"><path d="M882.942 170.699C896.667 169.108 912.1 175.036 924.799 194.854 943.393 221.744 975.603 246.79 975.603 246.79 975.603 246.79 999.647 265.481 984.677 302.844 969.254 338.835 912.999 320.153 912.999 320.153 912.999 320.153 892.134 313.317 868.091 318.78 844.046 323.798 823.172 321.971 823.172 321.971 823.172 321.971 795.05 322.435 786.883 286.889 779.172 250.89 815.006 231.308 817.732 228.108 820.456 224.463 839.505 211.708 851.304 191.663 857.199 181.408 869.217 172.3 882.942 170.699ZM975.603 143.818C1000.1 143.818 1006.9 167.972 1006.9 176.163 1006.9 183.917 1010.08 218.545 979.691 219.463 948.843 219.917 947.48 198.49 947.48 183.009 947.48 166.599 950.651 143.818 975.603 143.818ZM796.412 125.145C814.552 123.318 827.714 143.363 829.077 154.754 829.985 162.036 833.609 195.772 805.487 201.681 777.809 207.617 767.372 175.254 770.551 160.227 770.551 160.227 773.731 126.954 796.412 125.145ZM930.54 71.8181C932.438 71.4454 934.318 71.427 936.135 71.8271 950.651 75.0182 964.267 94.6087 961.542 111.473 958.817 128.318 945.664 150.645 924.799 147.927 903.925 145.19 899.392 126.045 901.209 107.363 902.789 94.209 917.232 74.4181 930.54 71.8181ZM857.654 65C873.186 65 885.785 82.9362 885.785 105.082 885.785 127.227 873.186 145.19 857.654 145.19 842.111 145.19 829.531 127.227 829.531 105.082 829.531 82.9362 842.111 65 857.654 65Z" fill-rule="evenodd"/></g></svg>