<svg width="182" height="260" xmlns="http://www.w3.org/2000/svg" xmlns:xlink="http://www.w3.org/1999/xlink" xml:space="preserve" overflow="hidden"><defs><clipPath id="clip0"><rect x="296" y="1412" width="182" height="260"/></clipPath></defs><g clip-path="url(#clip0)" transform="translate(-296 -1412)"><path d="M97.0159 259.985C101.367 260.259 105.962 256.671 113.759 248.383 116.205 245.682 120.363 240.034 122.809 235.859 125.866 230.456 128.068 228.123 129.657 228.123 132.225 228.123 143.966 222.229 148.858 218.423L151.915 216.09 141.153 204.18C129.046 190.796 124.154 183.674 121.586 175.447 119.996 170.658 117.183 153.714 114.126 130.999 113.392 124.982 114.982 118.842 117.428 118.842 119.629 118.842 140.419 140.699 146.901 149.785 153.26 158.626 153.872 162.309 150.203 167.098 148.858 168.817 147.757 170.782 147.757 171.396 147.757 173.851 154.239 177.78 158.397 177.78 162.31 177.78 162.8 177.289 165.735 170.782 169.526 162.186 169.893 153.223 166.713 147.084 163.289 140.453 152.038 130.016 136.995 119.579 123.42 110.125 114.737 102.758 114.737 100.425 114.737 98.2146 119.384 96.7409 122.442 97.8463 126.233 99.3196 146.657 101.652 155.584 101.652 159.253 101.652 163.778 101.038 165.735 100.302 173.684 97.3548 182 85.4446 182 77.2178 182 72.9202 181.511 71.8152 178.209 69.8508 169.526 64.5706 160.476 65.4304 148.369 72.9202 137.117 79.7965 125.866 85.1991 118.161 87.4091 114.37 88.5144 111.068 89.3735 110.701 89.3735 110.09 89.3735 108.989 76.9719 106.788 43.3286 105.075 16.1926 103.364 3.79094 101.407 1.8265 100.795 1.21261 97.8602 0.353166 94.8023 0.107611 87.2202-0.752194 78.1704 3.54539 68.1419 13 59.581 20.9813 55.1783 27.7348 56.4013 30.8042 57.0128 32.5235 58.1134 32.4003 65.696 29.5764 70.4656 27.8572 75.113 26.7522 76.091 27.1209 79.7599 28.5942 80.861 37.4346 80.0049 59.9047 79.1485 82.498 78.2924 90.6017 76.8248 90.6017 76.3356 90.6017 70.2206 82.252 63.25 71.938 36.4669 32.5235 27.1722 21.8407 18.0002 19.3852 11.3961 17.5431 4.91425 19.999 1.97908 25.5244-2.79021 34.2423 1.36795 52.0466 11.1515 65.1845 16.8995 72.9202 31.575 100.179 31.575 103.003 31.4527 103.986 27.5391 106.687 22.7699 109.02 18.0002 111.353 12.4968 114.791 10.54 116.632 7.48252 119.457 7.11562 120.316 8.33861 122.526 9.1947 124 13.4752 126.946 17.8779 129.034 27.4168 133.577 40.0136 134.928 46.6177 132.227 51.1424 130.385 62.1493 122.526 62.1493 121.053 62.1493 120.562 57.1354 113.686 51.0205 105.704 23.9928 70.7102 11.8853 50.0818 18.4894 50.0818 22.6476 50.0818 41.2362 66.9037 58.7249 86.4268 75.6022 105.336 79.7599 110.984 84.5296 121.053 87.954 128.297 88.4432 130.507 88.4432 139.717 88.3209 152.241 86.3641 159.853 82.0836 163.783 80.3714 165.379 73.6454 168.694 67.1636 171.15 49.186 178.026 43.8049 180.482 43.8049 181.587 43.8049 182.078 46.9846 183.674 50.8978 185.148 62.7608 189.691 77.9258 197.426 82.4505 201.355 92.2344 210.073 92.3567 217.072 82.8174 227.632 79.2708 231.561 76.8248 235.491 76.8248 237.087 76.8248 240.893 82.6951 249.856 88.8101 255.505 91.883 258.267 94.4052 259.821 97.0159 259.985Z" fill-rule="evenodd" transform="matrix(1 0 0 -1 296 1672)"/></g></svg>