<svg width="584" height="257" xmlns="http://www.w3.org/2000/svg" xmlns:xlink="http://www.w3.org/1999/xlink" xml:space="preserve" overflow="hidden"><defs><clipPath id="clip0"><rect x="44" y="778" width="584" height="257"/></clipPath></defs><g clip-path="url(#clip0)" transform="translate(-44 -778)"><path d="M101.778 198.534C86.8044 198.182 72.2208 191.582 60.1725 179.464 46.4195 165.614 39.1385 149.919 36.3648 128.106 34.0534 109.756 38.5607 87.3661 47.6908 71.5549 53.5849 61.6296 66.5289 48.7036 75.3123 44.0872 99.4666 31.5074 125.239 35.7776 145.117 55.3974 161.297 71.6703 169.387 92.2134 169.387 117.719 169.387 131.222 167.422 141.84 163.262 152.342 154.132 174.847 136.681 191.582 116.802 196.775 111.804 198.074 106.769 198.651 101.778 198.534ZM527.949 257 538.351 257 548.752 257 548.752 232.764 548.752 208.528 559.153 208.528 569.438 208.528 569.785 222.146 570.132 235.649 577.066 235.649 584 235.649 584 165.826 584 96.0024 199.898 95.7911 197.818 86.7891C186.145 36.4701 145.348 0 100.622 0 73.1164 0 46.4195 13.7342 27.697 37.3934 7.70318 62.4375-2.8138 99.138 0.653338 131.107 5.6229 177.04 28.2748 212.356 63.7552 229.206 77.8548 236.015 89.0652 238.208 105.245 237.515 127.435 236.477 146.389 228.052 163.84 211.432 181.869 194.236 194.004 171.27 199.436 144.033L200.707 137.339 479.41 136.973 479.41 190.062 479.41 243.151 489.234 243.151 499.057 243.151 499.057 225.839 499.057 208.643 506.338 208.297 513.503 207.951 513.85 190.408 514.196 172.75 521.015 172.75 527.949 172.75 527.949 214.875 527.949 257Z" fill-rule="evenodd" transform="matrix(1 0 0 -1 44 1035)"/></g></svg>