<svg width="354" height="260" xmlns="http://www.w3.org/2000/svg" xmlns:xlink="http://www.w3.org/1999/xlink" xml:space="preserve" overflow="hidden"><defs><clipPath id="clip0"><rect x="3173" y="1098" width="354" height="260"/></clipPath></defs><g clip-path="url(#clip0)" transform="translate(-3173 -1098)"><path d="M3276.04 1118.63C3283.03 1118.8 3297 1119.8 3304.94 1135.53 3296.76 1132.15 3290.84 1132.32 3276.04 1118.63ZM3427.89 1115.72C3425.28 1121.1 3419.32 1131.67 3398.82 1132.45 3405.47 1127.21 3407.32 1122.53 3427.89 1115.72ZM3173 1114.55C3214.66 1116.98 3219.12 1190.17 3249.87 1150.69 3246.22 1172.19 3221.89 1216.73 3259.8 1186.14 3254.66 1218.03 3255.57 1244.12 3276.65 1226.01 3283.05 1235.5 3283.51 1240.52 3293.24 1246.29 3308.36 1248.97 3306.08 1235.11 3308.8 1235.06 3310.18 1235.02 3314.63 1237.62 3319.6 1249.41 3320.82 1252.31 3319.67 1257.38 3325.79 1260.8 3333.96 1263.01 3343.49 1252.79 3328.26 1243.12 3335.74 1235.28 3329.84 1233.07 3320.89 1233.03 3327.52 1224.53 3317.34 1224.23 3304.24 1223.58 3313.89 1214.65 3296.25 1214.48 3286.92 1211.58 3301.31 1205.81 3285.05 1203.65 3274.55 1200.83 3292.12 1189.87 3277.35 1189.74 3269.02 1184.19 3289.12 1186.75 3277.7 1179.64 3271.82 1172.71 3292.01 1177.78 3288.99 1177.91 3284.29 1161.83 3295.81 1165.51 3298.79 1162.09 3295.09 1153.08 3314.28 1159.32 3307.26 1148.7 3292.12 1134.92 3329.32 1148.48 3316.38 1157.06 3314.27 1131.24 3341.55 1151 3325.08 1141.07 3328.91 1125.17 3357.37 1155.94 3336.27 1127.81 3354.87 1124.56 3361.44 1150.61 3359.13 1131.41 3375.97 1125.65 3376.06 1141.85 3374.84 1147.36 3388.15 1131.19 3387.69 1157.02 3398.07 1132.45 3417.64 1134.92 3397.38 1147.66 3398.49 1153.42 3403.14 1154.64 3405.56 1155.29 3409.53 1152.04 3409.62 1153.73 3402.6 1161.7 3407.53 1169.54 3419.5 1161.27 3413.52 1183.89 3418.89 1172.19 3431.96 1173.36 3413.62 1189.74 3423.91 1180.38 3437.29 1185.66 3419.6 1188.96 3420.77 1194.33 3425.94 1198.62 3413.09 1201.78 3412.29 1206.77 3416.46 1212.44 3401.1 1213.05 3392.68 1218.21 3403.38 1223.19 3391.74 1225.62 3386.25 1219.03 3381.72 1231.12 3374.67 1233.55 3371.75 1236.71 3375.94 1240.31 3379.35 1243.21 3372.19 1245.2 3371.26 1248.5 3369.67 1254.04 3372.28 1260.72 3379.05 1259.89 3382.53 1254.52 3386.72 1240.26 3393.92 1235.24 3401.65 1258.9 3425.13 1235.89 3428.2 1226.27 3429.83 1232.12 3447.63 1232.85 3449.83 1217.08 3450.82 1210.02 3445.14 1201.48 3442.11 1187.48 3485.8 1212.36 3446.5 1167.46 3453.98 1150.26 3459.22 1154.72 3473.62 1168.98 3476.43 1162.7 3480.75 1152.99 3496.32 1124.3 3524.38 1114.77 3522.13 1124.48 3505.22 1136.05 3501.15 1147.23 3493.46 1168.37 3503.62 1184.23 3527 1170.54 3520.08 1182.98 3494.76 1193.9 3489.47 1206.59 3487.19 1212.1 3488.89 1215.3 3503.21 1221.41 3507.73 1223.36 3512.01 1227.13 3514.75 1231.55 3477.1 1222.89 3455.52 1248.67 3488.73 1256.99 3471.52 1262.97 3456.9 1252.83 3447.79 1255.78 3435.13 1259.85 3450.11 1272.98 3461.91 1275.84 3441.62 1282.6 3416.87 1254.69 3408.52 1274.63 3407.08 1278.05 3414.38 1283.73 3426.67 1285.29 3416.29 1301.15 3383.56 1266.78 3381.45 1290.88 3365.49 1296.55 3376.82 1302.45 3379.87 1308.38 3370.48 1316.05 3373.11 1322.03 3379.87 1327.45 3375.78 1341.53 3392.7 1351.24 3423.83 1357.96L3280.43 1358 3280.42 1358C3298.11 1351.07 3345.06 1338.46 3324.58 1329.27 3334.18 1320.91 3338.42 1313.41 3324.04 1306.17 3341.53 1294.34 3330.98 1292.48 3322.2 1289.97 3334.01 1273.54 3295.1 1287.32 3282.09 1289.19 3301.82 1269.38 3293.1 1265.57 3277.87 1268.65 3268.96 1270.42 3263.23 1278.44 3243.07 1278.14 3273.71 1259.37 3258.59 1255.3 3253.88 1255.3 3244.43 1255.39 3204.79 1269.25 3218.31 1258.46 3251.82 1244.86 3224.27 1227.61 3191.62 1230.9 3186.86 1223.19 3232.05 1219.81 3210.67 1200.96 3190.4 1183.11 3197.04 1195.33 3177.57 1173.1 3213.07 1184.23 3218.54 1167.46 3173 1114.55ZM3297.93 1108.23C3300.71 1109.87 3304.88 1122.18 3305.89 1125.13 3301.44 1126.17 3282.5 1105.15 3295.78 1110.83 3296.23 1108.27 3297 1107.66 3297.93 1108.23ZM3406.32 1107.75C3407.66 1107.71 3409.44 1108.36 3410.56 1110.05 3422.76 1106.02 3406.85 1125.95 3398.04 1125.82 3395.92 1124.26 3408.32 1116.33 3404.72 1109.79 3404.08 1108.62 3404.98 1107.84 3406.32 1107.75ZM3306.4 1105.28C3308.81 1107.97 3311.14 1109.74 3313.58 1112.86L3321.42 1128.64 3311.87 1122.09C3308.73 1118.54 3306.27 1113.3 3306.4 1105.28ZM3401.11 1104.2C3397.62 1111.22 3398.17 1115.72 3382.89 1130.07 3382.68 1124.65 3383.02 1113.69 3401.11 1104.2ZM3379.54 1101.38C3380.93 1100.56 3382.24 1101.38 3383.18 1104.98 3396.57 1099 3377.83 1119.23 3374.26 1123.09 3370.71 1121.1 3375.4 1103.85 3379.54 1101.38ZM3320.76 1100.9C3325.14 1102.85 3331.63 1116.81 3328 1121.57 3325.13 1122.22 3323.18 1108.83 3314.13 1107.84 3310.89 1107.49 3312.65 1103.46 3317.52 1103.68 3318.06 1100.9 3319.29 1100.25 3320.76 1100.9ZM3368.25 1098.78C3367.86 1106.15 3370.09 1110.18 3362.05 1127.34 3359.77 1122.4 3355.82 1112.26 3368.25 1098.78ZM3332.17 1098.69C3337.68 1102.55 3348.21 1110.83 3342.99 1128.25 3338.88 1121.05 3333.98 1118.06 3332.17 1098.69ZM3349.27 1098.17C3350.1 1098.53 3351.15 1099.45 3352.43 1101.08 3362.01 1090.94 3354.24 1116.94 3352.77 1121.92 3348.53 1121.01 3344.69 1102.42 3347.36 1098.65 3347.81 1098.02 3348.43 1097.82 3349.27 1098.17Z" fill-rule="evenodd"/></g></svg>