<svg width="296" height="187" xmlns="http://www.w3.org/2000/svg" xmlns:xlink="http://www.w3.org/1999/xlink" xml:space="preserve" overflow="hidden"><defs><clipPath id="clip0"><rect x="70" y="2233" width="296" height="187"/></clipPath></defs><g clip-path="url(#clip0)" transform="translate(-70 -2233)"><path d="M283.168 2233 283.793 2233.75 283.793 2239.08C283.793 2240.54 282.949 2241.26 281.321 2241.26 273.31 2241.63 271.652 2242.41 268.71 2246.65 267.146 2248.89 263.985 2253.85 260.699 2259.4L232.567 2311.88 231.816 2313.47 266.175 2383.63 268.241 2384.19 322.378 2255.97C324.255 2250.83 323.974 2247.15 321.533 2245 319.123 2242.94 317.402 2241.66 311.144 2241.38L306.043 2241.17C305.417 2241.17 304.854 2240.95 304.259 2240.51 303.727 2240.11 303.414 2239.58 303.414 2238.95L303.414 2233.62 304.197 2233.06 365.343 2233.06 366 2233.62 366 2238.95C366 2240.39 365.155 2241.13 363.528 2241.13 355.517 2241.48 349.571 2243.19 345.722 2246.31 341.873 2249.42 338.869 2253.66 336.71 2259.3 336.71 2259.3 286.923 2373 269.868 2410.83 263.359 2423.21 256.944 2422.08 251.311 2410.49 245.366 2398.24 233.975 2373.53 224.118 2351.9L218.829 2340.3 213.071 2352.18C202.494 2373.84 190.29 2398.52 183.687 2410.71 176.083 2423.89 169.825 2422.18 164.849 2411.02 147.544 2370.29 111.996 2298.76 95.2847 2258.65 92.1866 2251.26 89.8397 2246.53 87.6493 2244.66 85.4278 2242.82 80.8273 2241.7 73.8491 2241.32 71.2832 2241.01 70.0001 2240.42 70.0001 2239.39L70.0001 2233.81 70.626 2233.25C82.0164 2233.19 137.123 2233.25 137.123 2233.25L137.75 2233.81 137.75 2239.11C137.75 2240.6 136.81 2241.29 134.964 2241.29L128.049 2241.6C122.072 2241.82 119.099 2243.6 119.099 2246.87 119.099 2248.43 119.756 2250.92 121.133 2254.26 134.432 2286.7 180.433 2383.47 180.433 2383.47L182.123 2383.94 211.789 2324.85 211.288 2323.69C207.939 2316.37 205.843 2311.73 205.843 2311.73L185.44 2271.65 185.44 2271.74C185.44 2271.74 181.528 2263.73 180.182 2261.08 171.233 2243.41 171.421 2242.44 162.346 2241.2 159.811 2240.89 158.497 2240.54 158.497 2239.3L158.497 2233.72 159.279 2233.16C175.614 2233.12 212.039 2233.12 212.039 2233.12L213.447 2233.59 213.447 2239.17C213.447 2240.45 212.508 2241.1 210.662 2241.1L206.844 2241.66C197.175 2242.41 198.739 2246.34 205.186 2259.12L224.743 2299.07 246.367 2256.03C249.997 2248.18 249.246 2246.18 247.744 2244.38 246.899 2243.38 243.989 2241.7 237.73 2241.48L235.289 2241.2C234.632 2241.2 234.069 2240.98 233.506 2240.57 232.942 2240.17 232.661 2239.67 232.661 2239.02L232.661 2233.69 233.443 2233.12C248.745 2233.03 283.168 2233.12 283.168 2233.12Z" fill-rule="evenodd"/></g></svg>