<svg width="70" height="75" xmlns="http://www.w3.org/2000/svg" xmlns:xlink="http://www.w3.org/1999/xlink" xml:space="preserve" overflow="hidden"><defs><clipPath id="clip0"><rect x="383" y="22" width="70" height="75"/></clipPath></defs><g clip-path="url(#clip0)" transform="translate(-383 -22)"><path d="M283.138 124.247 283.138 124.247 283.138 124.247ZM57.1195 108.548 57.1061 108.562 57.1122 108.554ZM437.21 107.861C432.965 108.424 430.031 109.326 428.419 110.594 426.853 111.848 426.065 113.467 426.065 115.426 426.065 117.057 426.482 118.323 427.306 119.203 428.187 120.048 429.277 120.47 430.565 120.47 431.4 120.47 432.315 120.282 433.336 119.907 434.392 119.532 435.644 119.015 437.071 118.358L437.071 118.358ZM304.941 94.0651C302.123 94.0651 299.502 95.4376 297.055 98.1941L297.055 118.089C299.038 120.974 301.659 122.429 304.941 122.429 307.249 122.429 309.07 121.772 310.415 120.47 311.795 119.156 312.792 117.455 313.396 115.355 314.034 113.256 314.358 111.027 314.358 108.705 314.358 106.37 314.057 104.082 313.466 101.83 312.862 99.59 311.865 97.7484 310.485 96.3056 309.139 94.8041 307.296 94.0651 304.941 94.0651ZM376.346 92.5874C373.168 92.5874 370.768 93.7839 369.145 96.1651 367.532 98.4995 366.721 101.748 366.721 105.902 366.721 108.33 367.045 110.663 367.695 112.904 368.344 115.144 369.399 116.986 370.884 118.429 372.357 119.884 374.317 120.599 376.764 120.599 379.861 120.599 382.33 119.25 384.175 116.54L384.175 96.7282C382.192 93.9716 379.582 92.5874 376.346 92.5874ZM341.021 92.3761C339.037 92.3761 337.31 93.1972 335.825 94.8277 334.352 96.4699 333.425 98.9216 333.054 102.183L333.054 102.183 347.387 101.913C347.434 101.819 347.457 101.702 347.457 101.561 347.457 101.373 347.457 101.256 347.457 101.209 347.457 98.687 346.912 96.5873 345.799 94.8981 344.732 93.2207 343.143 92.3761 341.021 92.3761ZM207.975 92.3755C205.03 92.3755 202.733 93.6659 201.121 96.2348 199.556 98.8037 198.767 102.37 198.767 106.945 198.767 111.707 199.532 115.496 201.052 118.288 202.629 121.056 204.948 122.429 208.045 122.429 211.003 122.429 213.264 121.115 214.829 118.499 216.406 115.848 217.184 112.294 217.184 107.859 217.184 103.144 216.406 99.3785 214.829 96.5867 213.264 93.7832 210.979 92.3755 207.975 92.3755ZM434.716 89.7252C436.432 89.7252 437.998 90.0537 439.425 90.6988 440.909 91.3089 442.081 92.2354 442.962 93.5024 443.878 94.7223 444.342 96.2354 444.342 98.0537 444.342 99.1798 444.318 100.646 444.273 102.464 444.226 104.236 444.18 106.147 444.133 108.212 444.133 110.218 444.109 112.13 444.064 113.948 444.017 115.767 444.006 117.245 444.006 118.358 444.006 119.861 444.644 120.599 445.931 120.599 446.766 120.599 448.042 120.33 449.746 119.767 449.932 120.001 450.049 120.259 450.095 120.529 450.187 120.822 450.257 121.068 450.303 121.303 449.144 122.569 447.926 123.473 446.627 124.036 445.386 124.599 444.11 124.881 442.823 124.881L442.822 124.881C439.773 124.881 437.86 123.333 437.07 120.259 433.8 123.427 430.448 125.022 427.039 125.022 424.685 125.022 422.666 124.318 421.008 122.91 419.397 121.468 418.584 119.484 418.584 116.963 418.584 110.805 424.8 106.922 437.21 105.339 437.21 104.212 437.21 103.074 437.21 101.913 437.256 100.74 437.279 99.4965 437.279 98.1945 437.279 96.5639 436.688 95.297 435.481 94.4173 434.334 93.4789 432.919 93.0096 431.26 93.0096 430.054 93.0096 429.045 93.1973 428.21 93.5727 428.21 94.6402 427.978 95.7428 427.514 96.8689 427.05 97.9833 426.412 98.9452 425.577 99.7311 424.8 100.482 423.826 100.857 422.666 100.857 421.658 100.857 420.846 100.576 420.243 100.013 419.698 99.4144 419.419 98.6872 419.419 97.8426 419.419 96.7282 419.929 95.6724 420.938 94.6988 422.005 93.6665 423.339 92.7985 424.951 92.1065 426.575 91.3557 428.256 90.7692 430.008 90.3469 431.771 89.9363 433.336 89.7252 434.716 89.7252ZM341.855 89.7249C345.915 89.7249 349.069 90.9566 351.343 93.4317 353.65 95.8598 354.799 99.0153 354.799 102.886 354.799 103.355 354.774 103.778 354.729 104.142 354.729 104.469 354.706 104.751 354.659 104.986L332.844 104.775C332.844 104.963 332.844 105.126 332.844 105.268 332.844 109.843 333.888 113.443 335.965 116.059 338.04 118.664 340.951 119.977 344.686 119.977 347.828 119.977 350.925 118.945 353.975 116.892 354.428 117.455 354.775 117.995 355.008 118.499 351.087 122.851 346.518 125.022 341.3 125.022L341.299 125.022C338.017 125.022 335.245 124.247 332.984 122.71 330.722 121.162 328.994 119.11 327.788 116.54 326.64 113.924 326.06 111.063 326.06 107.93 326.06 104.705 326.663 101.725 327.869 98.9684 329.111 96.2118 330.908 93.9947 333.262 92.3173 335.616 90.5812 338.48 89.7249 341.855 89.7249ZM208.323 89.7245C211.698 89.7245 214.632 90.4635 217.126 91.9651 219.607 93.4548 221.556 95.5074 222.936 98.1234 224.316 100.739 225.012 103.707 225.012 107.014 225.012 110.428 224.281 113.514 222.796 116.258 221.37 118.968 219.353 121.115 216.777 122.71 214.192 124.246 211.164 125.021 207.709 125.021 204.334 125.021 201.376 124.294 198.837 122.85 196.343 121.349 194.407 119.32 193.026 116.751 191.635 114.135 190.939 111.144 190.939 107.789 190.939 104.141 191.657 100.974 193.085 98.2641 194.568 95.5544 196.621 93.4548 199.254 91.9651 201.886 90.4635 204.914 89.7245 208.323 89.7245ZM409.723 89.3733 410.907 89.7956C410.861 91.2384 410.802 92.5874 410.768 93.8542 410.768 95.1094 410.768 96.3059 410.768 97.4202L410.768 116.2C410.768 118.019 410.861 119.321 411.034 120.118 411.266 120.905 411.73 121.42 412.426 121.655 413.157 121.843 414.293 121.983 415.824 122.077 415.952 122.77 415.952 123.496 415.824 124.247L415.823 124.247C414.525 124.247 413.191 124.223 411.8 124.178 410.42 124.13 408.912 124.107 407.3 124.107 405.827 124.107 404.32 124.131 402.801 124.178 401.327 124.224 399.889 124.247 398.509 124.247 398.37 123.496 398.37 122.77 398.509 122.077 400.074 121.983 401.235 121.843 401.965 121.655 402.708 121.42 403.195 120.951 403.426 120.259 403.659 119.555 403.774 118.429 403.774 116.893L403.774 101.21C403.774 99.3792 403.705 98.0303 403.566 97.1387 403.426 96.259 402.986 95.649 402.244 95.3206 401.559 94.9451 400.33 94.6402 398.579 94.4173 398.439 93.7604 398.439 93.1504 398.579 92.5874 400.608 92.212 402.545 91.7545 404.388 91.1914 406.244 90.6284 408.019 90.0302 409.723 89.3733ZM296.15 89.373 297.112 89.8657C297.078 91.027 297.055 92.0357 297.055 92.8686 297.055 93.6662 297.055 94.4405 297.055 95.1795 298.853 93.2675 300.627 91.895 302.378 91.0504 304.129 90.1589 306.008 89.7249 307.991 89.7249 310.902 89.7249 313.349 90.4874 315.333 92.0357 317.362 93.5724 318.905 95.5783 319.971 98.0534 321.038 100.529 321.56 103.215 321.56 106.112 321.56 109.514 320.818 112.669 319.345 115.567 317.918 118.405 315.901 120.705 313.326 122.429 310.74 124.153 307.736 125.022 304.315 125.022 302.981 125.022 301.717 124.903 300.51 124.669 299.305 124.482 298.18 124.2 297.113 123.825L297.113 133.28C297.113 135.097 297.252 136.411 297.531 137.209 297.809 137.995 298.412 138.487 299.328 138.675 300.256 138.91 301.717 139.074 303.7 139.167 303.746 139.907 303.746 140.657 303.7 141.408 302.123 141.408 300.534 141.384 298.923 141.338 297.345 141.291 295.616 141.268 293.726 141.268 291.929 141.268 290.374 141.292 289.088 141.338 287.789 141.385 286.408 141.408 284.935 141.408L284.935 141.408C284.889 140.657 284.889 139.931 284.935 139.238 286.547 139.144 287.719 138.98 288.461 138.746 289.203 138.511 289.667 138.041 289.853 137.338 290.073 136.693 290.189 135.614 290.189 134.124L290.189 101.209C290.189 99.3788 290.096 98.03 289.91 97.1384 289.783 96.2587 289.342 95.6487 288.6 95.3202 287.904 94.9448 286.71 94.6399 284.993 94.417 284.912 93.7601 284.912 93.1501 284.993 92.5871 286.895 92.2117 288.739 91.7777 290.537 91.2616 292.334 90.7455 294.213 90.112 296.15 89.373ZM277.038 89.373 278.221 89.7953C278.174 91.2381 278.128 92.5871 278.081 93.8539 278.081 95.1091 278.081 96.3056 278.081 97.4199L278.081 116.2C278.081 118.018 278.174 119.321 278.359 120.118 278.592 120.904 279.043 121.42 279.74 121.655 280.482 121.843 281.607 121.983 283.138 122.077L283.138 124.247 279.113 124.177C277.733 124.13 276.238 124.107 274.614 124.107 273.141 124.107 271.633 124.13 270.114 124.177 268.642 124.224 267.203 124.247 265.823 124.247 265.684 123.496 265.684 122.769 265.823 122.077 267.388 121.983 268.549 121.843 269.279 121.655 270.021 121.42 270.508 120.951 270.74 120.259 270.972 119.555 271.089 118.429 271.089 116.892L271.089 101.209C271.089 99.3788 271.019 98.03 270.879 97.1384 270.74 96.2587 270.299 95.6487 269.557 95.3202 268.873 94.9448 267.644 94.6399 265.892 94.417 265.754 93.7601 265.754 93.1501 265.892 92.5871 267.922 92.2117 269.858 91.7542 271.703 91.1912 273.558 90.6281 275.333 90.0299 277.038 89.373ZM175.039 89.3726 176.211 89.7949 176.211 95.9532C179.446 91.8008 182.751 89.7245 186.114 89.7245 187.726 89.7245 188.932 90.1585 189.71 91.05 190.498 91.8946 190.892 92.8447 190.892 93.924 190.892 95.179 190.475 96.1644 189.652 96.8682 188.817 97.5133 187.866 97.8418 186.811 97.8418 185.929 97.8418 185.059 97.6073 184.178 97.138 183.343 96.6806 182.728 95.9532 182.311 94.9679 180.733 94.9679 179.33 95.6013 178.077 96.8682 176.883 98.0764 176.28 99.4958 176.28 101.138L176.28 116.199C176.28 118.018 176.372 119.32 176.558 120.117 176.79 120.904 177.347 121.419 178.216 121.655 179.144 121.842 180.618 121.983 182.646 122.076 182.751 122.733 182.751 123.449 182.646 124.246 181.081 124.246 179.469 124.223 177.811 124.177 176.141 124.129 174.436 124.106 172.685 124.106 170.968 124.106 169.448 124.13 168.115 124.177 166.816 124.223 165.459 124.246 164.022 124.246 163.882 123.496 163.882 122.769 164.022 122.076 165.598 121.983 166.747 121.842 167.489 121.655 168.231 121.42 168.707 120.95 168.938 120.259 169.17 119.554 169.287 118.428 169.287 116.892L169.287 101.209C169.287 99.3785 169.194 98.0295 169.009 97.138 168.869 96.2583 168.429 95.6483 167.698 95.3198 167.002 94.9444 165.808 94.6395 164.091 94.4166 163.952 93.7597 163.952 93.1497 164.091 92.5867 165.946 92.2113 167.744 91.8008 169.495 91.3316 171.247 90.8154 173.102 90.1585 175.039 89.3726ZM138.042 74.3814C139.794 74.3814 141.673 74.5222 143.656 74.8037 145.639 75.0382 147.344 75.3668 148.782 75.789 149.652 76.0236 150.464 76.223 151.206 76.4107 151.937 76.5984 152.679 76.6922 153.421 76.6922 153.966 76.6922 154.523 76.6218 155.079 76.481 155.172 78.5338 155.265 80.6688 155.357 82.8505 155.45 85.0558 155.59 87.3432 155.776 89.7245 154.801 89.8653 153.99 89.9122 153.352 89.8653 152.424 85.5602 150.742 82.3932 148.295 80.3403 145.848 78.2288 142.589 77.1849 138.53 77.1849 135.294 77.1849 132.534 77.7948 130.215 79.0031 127.953 80.1761 126.109 81.7831 124.683 83.836 123.291 85.8887 122.282 88.2699 121.632 90.9796 120.982 93.6423 120.658 96.4929 120.658 99.5192 120.658 103.965 121.331 107.883 122.677 111.296 124.01 114.698 126.039 117.384 128.764 119.343 131.537 121.255 134.993 122.218 139.144 122.218 140.443 122.218 141.87 122.099 143.447 121.865 145.013 121.584 146.521 121.161 147.947 120.598L147.947 111.777C147.947 110.335 147.877 109.209 147.738 108.423 147.646 107.577 147.344 106.968 146.833 106.593 146.381 106.229 145.616 105.971 144.549 105.83 143.54 105.643 142.137 105.478 140.328 105.338 140.188 104.587 140.188 103.848 140.328 103.097 141.301 103.097 142.473 103.121 143.865 103.167 145.245 103.167 146.636 103.192 148.017 103.237 149.443 103.237 150.626 103.237 151.554 103.237 152.98 103.237 154.615 103.214 156.46 103.167 158.361 103.12 159.973 103.097 161.308 103.097 161.4 103.801 161.4 104.516 161.308 105.267 159.416 105.501 158.06 105.736 157.225 105.971 156.39 106.206 155.891 106.663 155.706 107.367 155.52 108.071 155.428 109.255 155.428 110.944L155.428 113.185C155.428 115.379 155.473 117.22 155.566 118.71 155.706 120.211 155.822 121.279 155.915 121.936 149.49 124.129 143.494 125.232 137.904 125.232L137.904 125.232C132.685 125.232 128.139 124.246 124.266 122.287 120.391 120.328 117.365 117.478 115.196 113.736 113.074 110.006 112.007 105.526 112.007 100.293 112.007 95.0619 113.074 90.5105 115.196 86.6396 117.365 82.7686 120.391 79.7538 124.266 77.6072 128.185 75.4606 132.777 74.3814 138.042 74.3814ZM66.1495 74.0926C69.1906 74.1508 72.2485 74.7751 75.1709 75.9967 77.1712 76.7559 78.9162 77.8373 80.2772 78.8427L72.7223 82.4068C65.6902 79.3925 57.6329 81.4424 52.7155 86.4674 46.0654 93.2571 44.7204 105.032 52.5146 112.639L52.5085 112.646 31.2332 132.069C32.5821 130.168 34.2587 128.375 35.9273 126.581 40.6395 121.521 45.3175 116.507 42.4628 109.42 38.6433 99.938 40.8666 88.823 47.941 81.5942 52.8499 76.5759 59.4592 73.9645 66.1495 74.0926ZM406.813 72.6343C408.112 72.6343 409.214 73.1035 410.142 74.0302 411.104 74.9686 411.591 76.083 411.591 77.3967 411.591 78.6049 411.127 79.7311 410.211 80.7515 409.283 81.737 408.112 82.2296 406.674 82.2296 405.386 82.2296 404.273 81.7604 403.356 80.8219 402.43 79.8953 401.966 78.7692 401.966 77.4671 401.966 76.1064 402.43 74.9686 403.356 74.0302 404.32 73.1035 405.479 72.6343 406.813 72.6343ZM274.127 72.634C275.426 72.634 276.528 73.1032 277.454 74.0298 278.418 74.9683 278.905 76.0826 278.905 77.3965 278.905 78.6047 278.441 79.7308 277.524 80.7512 276.596 81.7367 275.426 82.2293 273.988 82.2293 272.7 82.2293 271.587 81.76 270.67 80.8217 269.742 79.8949 269.278 78.7688 269.278 77.4668 269.278 76.1061 269.742 74.9683 270.67 74.0298 271.633 73.1032 272.793 72.634 274.127 72.634ZM390.067 71.3087 391.237 71.7193C391.192 72.7515 391.145 73.9128 391.099 75.2266 391.099 76.5287 391.099 77.9598 391.099 79.4964L391.099 114.229C391.099 116.001 391.167 117.339 391.307 118.23 391.446 119.11 391.864 119.743 392.548 120.118 393.244 120.447 394.426 120.74 396.085 121.022 396.224 121.631 396.224 122.265 396.085 122.91 394.241 123.203 392.432 123.496 390.681 123.825 388.93 124.153 387.248 124.576 385.624 125.092L385.624 125.091 384.523 124.599 384.245 119.767C382.632 121.537 380.963 122.875 379.257 123.754 377.599 124.599 375.743 125.022 373.714 125.022 370.85 125.022 368.344 124.247 366.176 122.711 364.042 121.115 362.407 119.062 361.258 116.54 360.099 114.018 359.519 111.297 359.519 108.353 359.519 104.939 360.238 101.83 361.664 99.0389 363.149 96.2353 365.201 93.9949 367.834 92.3174 370.513 90.5814 373.621 89.7251 377.181 89.7251 378.237 89.7251 379.35 89.8188 380.499 89.995 381.658 90.1358 382.864 90.3938 384.105 90.7692L384.105 81.8072C384.105 80.3645 383.966 79.2853 383.688 78.5815 383.41 77.8424 382.864 77.3263 382.029 77.0448 381.241 76.7163 380.046 76.4817 378.423 76.341 378.283 75.731 378.283 75.1094 378.423 74.4525 380.278 74.218 382.168 73.8659 384.105 73.4084 386.042 72.8923 388.025 72.1885 390.067 71.3087ZM239.509 71.3081 240.691 71.7186C240.645 72.7509 240.599 73.9122 240.552 75.226 240.552 76.528 240.552 77.9592 240.552 79.4958L240.552 105.478C241.109 105.478 241.562 105.384 241.933 105.197 242.304 105.009 242.605 104.821 242.837 104.634 242.929 104.54 243.115 104.376 243.393 104.141 243.672 103.872 244.147 103.379 244.844 102.675 245.539 101.971 246.525 100.927 247.823 99.5194 249.03 98.1704 249.969 97.1148 250.665 96.3758 251.396 95.5781 251.767 94.9212 251.767 94.4168 251.767 94.0414 251.442 93.7365 250.804 93.5019 250.201 93.2205 249.366 93.0561 248.311 93.0092 248.264 92.8215 248.242 92.6338 248.242 92.4461 248.242 92.2584 248.242 92.0825 248.242 91.8948 248.242 91.7071 248.242 91.5194 248.242 91.3318 248.242 91.1441 248.265 90.9564 248.311 90.7687 249.227 90.7687 250.387 90.7928 251.767 90.839 253.205 90.8858 254.469 90.9092 255.582 90.9092 256.128 90.9092 256.916 90.9092 257.936 90.9092 258.993 90.8624 260.059 90.839 261.114 90.839 262.182 90.839 262.959 90.839 263.468 90.839 263.515 91.0266 263.538 91.2144 263.538 91.4021 263.585 91.5898 263.608 91.7774 263.608 91.9651 263.608 92.1528 263.584 92.3287 263.538 92.5281 263.538 92.669 263.515 92.8212 263.468 93.0091 261.068 93.0559 259.038 93.666 257.38 94.8272 255.722 95.9533 254.122 97.2906 252.602 98.8273L247.615 103.871 257.171 116.61C258.192 117.971 259.015 119.039 259.665 119.836 260.36 120.587 261.091 121.115 261.88 121.443 262.669 121.772 263.747 121.983 265.139 122.076 265.231 122.733 265.231 123.449 265.139 124.246 264.536 124.246 263.631 124.223 262.436 124.177 261.277 124.13 259.457 124.106 256.963 124.106 256.592 124.106 256.035 124.106 255.304 124.106 254.562 124.106 253.866 124.153 253.228 124.247 253.228 123.731 252.95 123.027 252.393 122.147 251.836 121.209 251.396 120.529 251.083 120.118 250.944 119.884 250.596 119.391 250.039 118.639 249.482 117.854 248.821 116.939 248.033 115.906 247.291 114.839 246.525 113.76 245.748 112.693 244.959 111.567 244.24 110.593 243.602 109.749 243.092 109.056 242.605 108.517 242.141 108.142 241.736 107.719 241.202 107.508 240.552 107.508L240.552 116.2C240.552 118.018 240.622 119.321 240.761 120.118 240.946 120.904 241.341 121.42 241.933 121.655 242.582 121.843 243.556 121.983 244.844 122.077 244.936 122.769 244.936 123.496 244.844 124.247 243.649 124.247 242.373 124.223 241.039 124.177 239.74 124.13 238.337 124.107 236.818 124.107 235.333 124.107 233.884 124.13 232.445 124.177 231.019 124.224 229.616 124.247 228.224 124.247L228.224 124.246C228.178 124.059 228.155 123.871 228.155 123.683 228.155 123.496 228.155 123.308 228.155 123.12 228.155 122.944 228.155 122.769 228.155 122.639 228.155 122.452 228.179 122.264 228.224 122.076 229.79 121.983 230.949 121.842 231.692 121.655 232.422 121.42 232.909 120.95 233.142 120.259 233.373 119.554 233.49 118.428 233.49 116.892L233.49 81.8066C233.49 80.3638 233.35 79.2847 233.072 78.5809 232.841 77.8418 232.318 77.3257 231.483 77.0442 230.695 76.7157 229.5 76.4811 227.877 76.3404 227.83 76.1644 227.807 75.9884 227.807 75.8477 227.807 75.7068 227.807 75.578 227.807 75.4372 227.807 75.2495 227.807 75.0852 227.807 74.9445 227.807 74.8036 227.83 74.6395 227.877 74.4519 229.731 74.2172 231.623 73.8653 233.559 73.4078 235.496 72.8916 237.479 72.1879 239.509 71.3081ZM98.2415 66.4084C98.0767 66.6484 97.9098 66.8823 97.7449 67.1162 90.7409 76.9734 87.3213 81.7933 90.0655 93.8542L90.0493 93.8357C91.9411 102.045 89.9167 111.15 83.3811 117.828 75.1408 126.254 61.9551 128.131 51.0972 120.545L58.6661 116.965C65.5977 119.746 73.1807 118.524 78.6287 112.955 84.0787 107.386 85.303 99.2752 82.563 92.5287 82.0442 91.2483 80.4823 90.9282 79.3906 91.749L57.1195 108.548 89.0241 75.7977 89.0241 75.8264Z" fill="#141414" fill-rule="evenodd" transform="matrix(1.01314 0 0 1 351.356 -44.4084)"/></g></svg>