<svg width="194" height="188" xmlns="http://www.w3.org/2000/svg" xmlns:xlink="http://www.w3.org/1999/xlink" xml:space="preserve" overflow="hidden"><defs><clipPath id="clip0"><rect x="2586" y="2212" width="194" height="188"/></clipPath></defs><g clip-path="url(#clip0)" transform="translate(-2586 -2212)"><path d="M2649.32 2262.01C2650.14 2261.72 2650.16 2263.23 2649.99 2266.3 2649.74 2271.44 2648.9 2273.91 2644.14 2284.1 2639.76 2293.43 2639.04 2296 2639.09 2301.77 2639.09 2307.44 2639.71 2309.35 2644.89 2320.47 2646.86 2324.7 2648.86 2329.59 2649.32 2331.35 2650.07 2334.35 2650.41 2340.24 2649.86 2340.84 2649.28 2341.37 2648.28 2340.4 2645.85 2336.95 2638.17 2326.05 2629.98 2318.44 2620.38 2313.36 2614.15 2310.07 2608.97 2308.28 2598.53 2305.97 2591.02 2304.34 2586.72 2302.96 2586.21 2301.99 2585.25 2300.2 2587.17 2299.45 2600 2296.47 2611.48 2293.81 2617.91 2291.33 2624.47 2287.04 2631.86 2282.22 2637.58 2276.73 2643.72 2268.52 2646.83 2264.39 2648.49 2262.32 2649.32 2262.01ZM2635.29 2212.34C2635.54 2212.34 2636.62 2212.94 2637.71 2213.63 2638.75 2214.32 2643.52 2219.02 2648.32 2224.03 2653.08 2229.04 2659.09 2235.34 2661.64 2238.01 2664.19 2240.67 2672.79 2249.76 2680.81 2258.21 2695.47 2273.66 2708.5 2287.39 2719.11 2298.54 2722.28 2301.8 2724.95 2304.96 2725.12 2305.56 2725.42 2306.81 2725 2307.5 2720.82 2311.83 2717.4 2315.4 2704.16 2329.34 2674.13 2361.11 2644.1 2392.85 2639.67 2397.43 2637.67 2398.78 2634.45 2400.94 2633.2 2400.19 2634.62 2396.93 2636.12 2393.48 2649.82 2370.32 2662.1 2350.58 2675.67 2328.65 2680.06 2320.79 2682.15 2314.43 2683.11 2311.54 2683.27 2310.32 2683.27 2305.97 2683.32 2301.86 2683.15 2300.39 2682.36 2297.85 2680.06 2290.49 2675.05 2281.5 2659.3 2256.52 2651.03 2243.39 2639 2223.62 2635.79 2217.76 2633.91 2214.41 2633.74 2212.34 2635.29 2212.34ZM2779 2212.03C2779.66 2212.09 2780 2212.31 2780 2212.66 2780 2212.84 2778.58 2214.79 2776.87 2216.95 2775.11 2219.14 2772.98 2222.18 2772.03 2223.75 2763.34 2238.26 2758.16 2269.4 2756.03 2320.29 2755.36 2335.26 2755.32 2337.42 2754.32 2367.63 2753.56 2391.29 2753.4 2393.86 2752.85 2396.55 2752.31 2399.03 2751.14 2400.47 2750.18 2399.68 2748.43 2398.21 2747.93 2390.79 2746.59 2347.01 2745.34 2306.53 2743.16 2279.08 2739.45 2256.74 2737.07 2242.39 2735.15 2235.19 2731.55 2227.6 2729.72 2223.65 2728.04 2221.18 2723.16 2214.98 2722.2 2213.72 2721.57 2212.59 2721.74 2212.28 2722.12 2211.72 2725 2212.03 2727.84 2212.97 2728.88 2213.35 2731.01 2214.69 2732.6 2216.04 2738.66 2221.18 2741.08 2222.93 2744.04 2224.47 2751.18 2228.04 2756.78 2226.35 2766.8 2217.64 2771.11 2213.85 2772.61 2213 2776.12 2212.34 2777.37 2212.09 2778.34 2212 2779 2212.03Z" fill-rule="evenodd"/></g></svg>