<svg width="1976" height="996" xmlns="http://www.w3.org/2000/svg" xmlns:xlink="http://www.w3.org/1999/xlink" xml:space="preserve" overflow="hidden"><defs><clipPath id="clip0"><rect x="107" y="81" width="1976" height="996"/></clipPath></defs><g clip-path="url(#clip0)" transform="translate(-107 -81)"><path d="M1670.38 513.38C1679.93 513.38 1692.75 517.263 1696.05 525.064 1699.31 532.865 1700.96 549.532 1700.96 575.065 1700.96 585.375 1700.96 636.922 1700.96 729.742 1699.97 761.53 1698.52 779.983 1696.6 785.104 1693.71 792.767 1681.06 796.651 1671.51 796.651 1662.16 796.651 1655.94 792.939 1652.78 785.482 1649.62 778.059 1648.07 761.117 1648.07 734.587 1648.07 718.642 1648.07 591.011 1648.07 575.065 1648.07 547.573 1649.45 530.425 1652.23 523.587 1654.98 516.817 1661.03 513.38 1670.38 513.38ZM1244.11 381.075C1261.19 381.075 1272.84 382.896 1279.03 386.47 1285.21 390.079 1289.2 395.715 1290.92 403.412 1292.63 411.11 1293.53 428.567 1293.53 455.853 1293.53 479.256 1293.53 666.476 1293.53 689.879 1293.53 730.051 1290.92 754.657 1285.73 763.729 1280.5 772.801 1266.62 777.303 1244.11 777.303 1244.11 737.68 1244.11 420.698 1244.11 381.075ZM337.762 281.795 337.762 885.415 494.571 885.415 494.571 281.795ZM1087.44 277.843 1087.44 881.463 1277.41 881.463C1321.19 880.089 1349.3 878.061 1361.74 875.312 1380.4 871.223 1396.07 864.006 1408.79 853.731 1421.47 843.421 1430.37 829.16 1435.46 810.912 1440.58 792.699 1443.6 756.512 1443.6 702.388 1443.6 681.219 1443.6 511.628 1443.6 490.424 1443.6 433.31 1441.37 395.027 1437.9 375.577 1434.39 356.092 1425.7 338.394 1411.78 322.517 1397.83 306.641 1377.48 295.231 1350.75 288.29 1323.98 281.348 1280.33 277.843 1204.42 277.843 1196.62 277.843 1157.65 277.843 1087.44 277.843ZM546.325 277.843 546.325 881.463 683.683 881.463 684.164 482.898 741.966 881.463 839.804 881.463 894.616 474.032 895.132 881.463 1032.04 881.463 1032.04 277.843 827.192 277.843 790.868 559.841C777.397 467.846 769.905 416.711 768.427 406.505 761.864 357.26 755.609 314.407 749.63 277.843 736.055 277.843 668.322 277.843 546.325 277.843ZM1497 272.585 1497 876.205 1638.18 876.205C1644.05 853.147 1647.28 840.328 1647.94 837.751 1660.72 853.215 1674.78 864.831 1690.21 872.529 1705.57 880.261 1728.56 884.109 1746.36 884.109 1771.14 884.109 1792.51 877.615 1810.55 864.59 1828.56 851.6 1840.04 836.205 1844.92 818.507 1849.8 800.774 1852.24 773.832 1852.24 737.612 1852.24 720.67 1852.24 585.203 1852.24 568.261 1852.24 531.834 1851.41 508.054 1849.8 496.885 1848.18 485.717 1843.37 474.342 1835.36 462.692 1827.36 451.042 1815.71 442.004 1800.45 435.544 1785.19 429.083 1767.18 425.853 1746.43 425.853 1728.39 425.853 1705.29 429.461 1689.9 436.574 1674.54 443.688 1660.58 454.479 1648.07 468.946 1648.07 455.853 1648.07 390.422 1648.07 272.585ZM187.14 81.0001C368.794 81.0001 1822 81.0001 2003.65 81.0001 2045.1 87.8046 2077.64 122.754 2083 166.603 2083 248.942 2083 825.483 2083 990.194 2077.02 1039.16 2037.12 1077 1988.81 1077 1810.14 1077 380.65 1077 201.985 1077 149.51 1077 107 1032.43 107 977.444 107 897.649 107 259.148 107 179.318 107 129.661 141.743 88.4572 187.14 81.0001Z" fill-rule="evenodd"/></g></svg>