<svg width="127" height="192" xmlns="http://www.w3.org/2000/svg" xmlns:xlink="http://www.w3.org/1999/xlink" xml:space="preserve" overflow="hidden"><g transform="translate(-1958 -678)"><path d="M102.454 187.068C97.9158 182.541 98.084 177.344 102.79 176.673 104.976 176.338 106.824 174.829 107.16 173.32 108.001 168.961 100.101 169.464 84.4691 174.662 73.7117 178.35 69.5096 178.853 60.7692 178.182 33.5397 175.667 12.1929 155.884 2.27617 124.03-1.75815 111.12-2.09419 108.27-1.42174 87.8164-0.74966 69.2069 0.0909887 63.6743 3.6207 54.6209 12.3611 32.1553 27.993 13.3779 44.9695 5.16299 62.1141-3.21979 90.8564-1.8786 110.858 8.3485 119.767 12.8752 120.775 15.7254 115.565 22.7666 111.867 27.7964 111.699 29.6404 111.195 61.4947 110.69 94.858 110.69 95.0258 114.892 102.235 118.59 108.438 118.758 109.947 116.909 111.624 115.06 113.132 113.38 112.965 109.346 110.953 102.118 107.097 92.0331 107.6 80.6033 112.462 67.3248 117.994 57.2395 117.994 50.5161 112.462 38.0779 101.9 40.2631 78.0928 53.7098 78.0928 59.2565 78.0928 63.7947 82.7869 63.7947 88.4873 63.7947 93.349 59.7607 97.8757 57.912 94.858 56.231 92.0078 53.7098 93.0137 53.7098 96.5345 53.7098 101.229 59.0887 100.894 68.8375 95.5286 74.7202 92.3431 78.7542 91.3372 83.6288 91.8403L90.3522 92.3431 91.0246 60.4888C91.5288 41.7118 92.7052 26.6227 93.8819 23.605 96.5713 17.234 93.7137 15.0544 81.2758 13.3779 66.6523 11.7015 55.0543 16.0607 43.1203 28.1317 33.3715 37.8557 23.2866 55.7946 20.9332 67.1951 18.5802 78.5955 18.0759 106.929 20.0929 116.988 24.2951 138.448 38.0779 157.561 53.3738 162.758 63.7947 166.111 65.8117 166.111 83.6288 160.243 101.95 154.375 109.346 154.04 116.741 158.567 122.624 162.255 124.305 165.943 124.305 175.5 124.305 188.242 110.858 195.451 102.454 187.068Z" fill-rule="evenodd" transform="matrix(1 0 0 -1 1960 869)"/></g></svg>