<svg xmlns="http://www.w3.org/2000/svg" width="400" height="200" overflow="hidden" viewBox="-14.999 1.001 63.999 32"><defs><clipPath id="a"><path d="M111 358h34v34h-34z"/></clipPath></defs><g clip-path="url(#a)" transform="translate(-111 -358)"><path fill-rule="evenodd" d="M127.965 386.497c.031-.007.077.003.33.07.17.045.263.1.444.274.18.174.232.257.312.51.028.084.042.532.042 1.404 0 1.25-.007 1.358-.115 1.615-.055.125-.371.448-.492.5-.326.14-.51.164-.736.087-.26-.083-.343-.135-.517-.316-.319-.337-.326-.372-.326-1.886 0-1.275.007-1.358.125-1.633.052-.121.375-.437.5-.493.073-.031.322-.108.433-.132m6.359-1.682c.028.01.111.028.184.039.07.006.139.027.149.045s.045.03.076.03c.035 0 .083.032.111.07s.077.07.104.07c.07 0 .243.177.243.246 0 .028.031.073.07.101.038.028.069.077.069.111 0 .035.017.063.035.063.02 0 .034.031.034.07 0 .038.018.069.035.069.02 0 .035.031.035.07 0 .038.014.069.027.069.018 0 .052.042.077.094a1 1 0 0 0 .104.163.2.2 0 0 1 .048.087c-.01.045.049.163.104.208.032.028.104.146.16.268.059.121.121.229.139.24.02.013.066.09.104.173a.8.8 0 0 0 .1.174c.056.03.143.229.143.316 0 .045.017.09.034.1.049.028.045.313-.003.466a1 1 0 0 1-.288.483c-.236.25-.468.354-.784.354-.132 0-.25-.017-.26-.035-.01-.02-.052-.034-.09-.034-.035 0-.066-.018-.066-.035 0-.02-.025-.035-.056-.035-.073 0-.465-.389-.465-.462 0-.035-.014-.059-.034-.059-.018 0-.035-.031-.035-.07 0-.038-.014-.069-.031-.069-.014 0-.08-.104-.142-.236a2 2 0 0 0-.205-.33c-.045-.052-.073-.094-.056-.094.014 0 0-.031-.034-.07-.035-.037-.049-.069-.035-.069.017 0-.01-.041-.055-.097a1.5 1.5 0 0 1-.184-.292 1 1 0 0 0-.125-.219c-.042-.024-.139-.225-.139-.284 0-.025-.014-.046-.035-.046-.017 0-.034-.03-.034-.07 0-.037-.014-.069-.028-.069-.048 0-.111-.225-.111-.413 0-.281.291-.837.437-.837.02 0 .06-.024.083-.052a.6.6 0 0 1 .344-.157.3.3 0 0 0 .142-.034c.028-.018.076-.025.104-.01m-12.579 0c.028.01.1.028.156.035.136.02.31.1.365.167.024.028.062.052.083.052.073 0 .215.184.326.424.087.18.11.278.11.44 0 .115-.013.22-.034.23-.017.01-.035.052-.035.09 0 .035-.013.066-.034.066-.017 0-.035.021-.035.046 0 .055-.146.35-.215.434a1.3 1.3 0 0 0-.132.233 1.3 1.3 0 0 1-.17.267c-.048.056-.072.097-.055.097.014 0 0 .031-.035.07-.035.038-.048.07-.035.07.018 0-.01.04-.055.093a2 2 0 0 0-.205.33c-.062.132-.128.236-.142.236-.017 0-.031.031-.031.07 0 .038-.014.07-.035.07-.017 0-.035.027-.035.062 0 .076-.391.458-.468.458-.028 0-.052.014-.052.035 0 .017-.031.035-.066.035-.038 0-.08.014-.09.034-.01.018-.128.035-.26.035-.316 0-.548-.104-.78-.354-.205-.216-.26-.31-.26-.424 0-.049-.014-.097-.035-.108-.042-.027-.045-.344-.004-.427.018-.031.052-.125.077-.208a.6.6 0 0 1 .09-.188.6.6 0 0 0 .114-.187.7.7 0 0 1 .1-.17 1 1 0 0 0 .13-.22c.051-.107.134-.24.183-.295.045-.052.073-.094.055-.094-.013 0 0-.03.035-.07.035-.037.049-.069.035-.069s-.007-.027.02-.062a1 1 0 0 0 .101-.156c.025-.052.06-.094.077-.094.013 0 .027-.031.027-.07 0-.038.018-.07.035-.07.02 0 .035-.03.035-.069 0-.038.017-.07.034-.07.021 0 .035-.027.035-.062 0-.034.031-.083.07-.11.038-.029.069-.077.069-.105 0-.07.177-.243.246-.243.028 0 .073-.031.1-.07.028-.038.077-.07.112-.07.03 0 .069-.016.08-.034.01-.02.072-.035.131-.035a.4.4 0 0 0 .163-.034c.028-.018.077-.025.104-.01m-4.972-4.562c.195-.08.48-.052.729.066.24.11.423.253.423.326 0 .021.024.06.052.084.08.066.156.243.156.364 0 .06.017.125.038.146.028.028.028.06 0 .108a.5.5 0 0 0-.038.177c0 .056-.014.115-.035.125-.017.01-.034.049-.034.08 0 .035-.031.083-.07.111-.038.028-.069.077-.069.104 0 .066-.173.244-.236.244-.024 0-.076.03-.118.069-.041.038-.097.07-.121.07s-.045.013-.045.034c0 .018-.032.035-.07.035s-.069.014-.069.035c0 .017-.031.034-.07.034-.038 0-.069.014-.069.032 0 .017-.114.087-.256.156-.143.07-.278.15-.299.18a1.2 1.2 0 0 1-.263.153c-.122.06-.23.122-.24.14a.6.6 0 0 1-.173.104.7.7 0 0 0-.174.1c-.03.056-.228.143-.315.143-.045 0-.09.014-.1.035-.029.048-.313.045-.466-.004a1 1 0 0 1-.482-.288c-.25-.236-.354-.47-.354-.785 0-.132.018-.25.035-.26.021-.011.035-.053.035-.091 0-.035.017-.066.035-.066.02 0 .034-.024.034-.056 0-.08.382-.465.458-.465.035 0 .063-.018.063-.035 0-.02.03-.035.069-.035.038 0 .07-.014.07-.031 0-.014.103-.08.235-.142a2 2 0 0 0 .33-.205c.052-.046.093-.073.093-.056 0 .014.031 0 .07-.035.038-.034.069-.048.069-.034 0 .017.042-.007.097-.056.052-.049.174-.125.267-.17.097-.045.201-.104.233-.132.083-.07.378-.216.433-.216.024 0 .045-.013.045-.027 0-.018.042-.046.097-.066m22.13-.046c.192 0 .42.06.42.112 0 .014.021.027.046.027.055 0 .35.146.433.216.032.028.139.087.233.132.097.045.215.121.27.17.052.049.094.073.094.056 0-.014.031 0 .07.034.037.035.069.049.069.035 0-.017.041.01.097.056.052.048.198.139.33.205.128.062.232.128.232.142 0 .017.03.031.07.031.037 0 .068.014.068.035 0 .017.028.035.063.035.076 0 .458.385.458.465 0 .032.017.056.034.056.021 0 .035.031.035.066 0 .038.017.08.035.09.02.01.034.129.034.26 0 .181-.02.286-.083.424-.09.192-.388.508-.54.574-.275.114-.56.149-.688.083a1.4 1.4 0 0 0-.208-.076.6.6 0 0 1-.187-.09.6.6 0 0 0-.187-.115.6.6 0 0 1-.17-.105 1.2 1.2 0 0 0-.24-.139 1.2 1.2 0 0 1-.263-.152c-.021-.032-.156-.112-.299-.181-.142-.07-.256-.139-.256-.156 0-.018-.031-.032-.07-.032-.038 0-.069-.017-.069-.034 0-.021-.031-.035-.07-.035-.037 0-.069-.017-.069-.035 0-.02-.024-.035-.052-.035s-.083-.03-.121-.069c-.038-.038-.087-.07-.111-.07-.063 0-.236-.177-.236-.243 0-.027-.031-.076-.07-.104-.038-.028-.069-.076-.069-.111 0-.031-.014-.07-.035-.08-.017-.01-.034-.07-.034-.125a.5.5 0 0 0-.038-.177c-.028-.049-.028-.08 0-.108.02-.02.038-.087.038-.146 0-.121.076-.298.156-.364.028-.025.052-.063.052-.084 0-.073.166-.205.41-.32a.9.9 0 0 1 .419-.118m2.834-6.303c1.297-.003 1.374.004 1.651.122.104.045.545.465.49.465-.018 0-.011.024.013.052.021.028.045.084.052.129s.028.135.045.201a.6.6 0 0 1 0 .243 3 3 0 0 0-.045.202.3.3 0 0 1-.052.129c-.024.027-.031.052-.014.052.056 0-.385.42-.489.465-.274.118-.357.125-1.63.125s-1.356-.007-1.63-.125c-.111-.049-.42-.354-.5-.497a.5.5 0 0 1-.055-.156 3 3 0 0 0-.045-.195.6.6 0 0 1 0-.243c.017-.066.038-.156.045-.201a.3.3 0 0 1 .052-.129c.024-.028.031-.052.014-.052s.062-.094.176-.212c.198-.198.281-.25.52-.333.067-.025.6-.038 1.402-.042m-27.516 0c1.297-.003 1.374.004 1.651.122.104.045.545.465.49.465-.018 0-.011.024.013.052.056.066.08.202.08.452 0 .246-.02.358-.083.472-.08.143-.389.448-.5.497-.274.118-.357.125-1.63.125s-1.356-.007-1.63-.125c-.104-.045-.545-.465-.49-.465.018 0 .011-.025-.013-.053a.3.3 0 0 1-.052-.128 3 3 0 0 0-.045-.202.6.6 0 0 1 0-.243c.017-.066.038-.156.045-.201a.3.3 0 0 1 .052-.129c.024-.028.031-.052.014-.052s.062-.094.177-.212c.197-.198.28-.25.52-.333.066-.025.6-.038 1.401-.042m13.306-5.892a1 1 0 0 0-.245.022 1.2 1.2 0 0 1-.295.045 1.4 1.4 0 0 0-.333.052.7.7 0 0 1-.198.038c-.055 0-.11.014-.121.035-.01.017-.073.035-.139.035s-.128.014-.138.034c-.01.018-.066.035-.122.035s-.11.014-.121.035c-.01.017-.06.035-.104.035-.045 0-.094.014-.104.034-.01.018-.049.035-.087.035a.9.9 0 0 0-.26.104 1.3 1.3 0 0 1-.24.105c-.069 0-.367.16-.457.246-.046.042-.084.066-.084.049 0-.014-.027-.004-.062.027-.035.035-.073.05-.087.039-.01-.01-.059.02-.104.07-.045.048-.107.09-.132.09-.027 0-.072.03-.1.069-.028.038-.07.07-.094.07s-.11.062-.19.138c-.084.077-.164.14-.184.14-.046 0-.92.878-.92.923a.8.8 0 0 1-.138.181c-.077.08-.14.167-.14.191s-.03.066-.069.094c-.038.028-.069.073-.069.1 0 .025-.035.08-.076.122a.3.3 0 0 0-.084.108.44.44 0 0 1-.152.267c-.038.025-.07.063-.07.087a.6.6 0 0 1-.069.167.6.6 0 0 0-.07.17 1 1 0 0 1-.103.247 1 1 0 0 0-.104.26c0 .038-.014.077-.035.087-.017.01-.035.06-.035.104 0 .046-.014.094-.034.105-.018.01-.035.065-.035.121s-.014.111-.035.122c-.017.01-.034.073-.034.139s-.014.128-.035.139c-.017.01-.035.066-.035.121a.7.7 0 0 1-.038.198 1.7 1.7 0 0 0-.052.334 1.2 1.2 0 0 1-.045.298c-.049.09-.014 1.345.048 1.74.028.181.063.397.073.48.014.08.038.156.052.167.018.01.032.07.032.135 0 .066.017.129.034.14.021.01.035.065.035.12 0 .056.017.112.035.122.02.01.034.06.034.105s.018.093.035.104c.02.01.035.048.035.087 0 .034.048.153.104.26.059.108.104.219.104.24 0 .07.16.368.246.458.042.046.066.084.049.084-.014 0 0 .031.034.07.035.037.056.08.042.09-.01.01.017.055.066.1.045.042.083.101.083.125 0 .028.031.073.07.101.038.028.069.07.069.094s.062.111.139.19a.8.8 0 0 1 .138.182c0 .045.874.923.92.923.02 0 .1.063.183.14.08.076.167.138.191.138s.066.032.094.07.073.07.1.07c.025 0 .087.041.132.09s.094.08.104.07c.014-.011.052.003.087.037.035.032.062.042.062.028 0-.017.038.007.084.049.09.087.388.246.457.246.021 0 .132.046.24.105.107.055.225.104.26.104.038 0 .076.014.087.035.01.017.059.034.104.034s.093.014.104.035c.01.017.066.035.121.035.056 0 .108.014.118.031s.07.038.132.049c.28.048.482.09.513.11.021.011.146.029.278.036.135.01.27.03.305.048.076.042 1.35.018 1.62-.031a1 1 0 0 1 .27-.02.3.3 0 0 0 .163-.04.4.4 0 0 1 .18-.04.3.3 0 0 0 .157-.032.4.4 0 0 1 .163-.042c.048 0 .097-.017.107-.034s.066-.035.122-.035.11-.018.121-.035c.01-.02.06-.035.104-.035.045 0 .094-.014.104-.034s.049-.035.087-.035c.035 0 .153-.049.26-.104.108-.06.219-.105.24-.105.069 0 .367-.16.457-.246.045-.042.084-.066.084-.049 0 .014.027.004.062-.028.035-.034.073-.048.087-.038.01.01.059-.02.104-.07.045-.048.107-.09.132-.09.027 0 .072-.03.1-.07.028-.037.07-.069.094-.069s.11-.062.19-.138c.084-.077.164-.14.185-.14.045 0 .919-.878.919-.923a.8.8 0 0 1 .138-.181c.077-.08.14-.167.14-.191s.03-.066.069-.094c.038-.028.069-.073.069-.1 0-.025.038-.084.083-.126.049-.045.076-.09.066-.1-.014-.01.004-.05.035-.084.034-.035.052-.073.038-.083-.01-.01.02-.052.07-.09.051-.039.09-.087.09-.108s.03-.09.069-.16a.6.6 0 0 0 .07-.17c0-.028.048-.14.103-.247a.9.9 0 0 0 .104-.26c0-.039.018-.077.035-.087.02-.01.035-.06.035-.104 0-.046.017-.094.034-.105.021-.01.035-.066.035-.121 0-.056.017-.111.035-.122.02-.01.034-.073.034-.139s.014-.125.032-.135a.5.5 0 0 0 .052-.167c.01-.083.045-.299.072-.48.073-.454.077-1.608.004-2.049-.031-.18-.066-.396-.076-.48a.5.5 0 0 0-.052-.166c-.018-.01-.032-.07-.032-.135 0-.066-.013-.129-.034-.14-.018-.01-.035-.065-.035-.12 0-.056-.014-.112-.035-.122-.017-.01-.034-.06-.034-.105s-.014-.094-.035-.104c-.017-.01-.035-.048-.035-.087a.9.9 0 0 0-.104-.26 1.3 1.3 0 0 1-.104-.24c0-.059-.153-.358-.232-.448-.087-.104-.156-.236-.136-.257.007-.01-.02-.052-.069-.097-.045-.042-.083-.101-.083-.125 0-.028-.031-.073-.07-.101-.038-.028-.069-.07-.069-.094s-.062-.111-.139-.191a.8.8 0 0 1-.138-.18c0-.046-.874-.925-.92-.925-.02 0-.1-.062-.183-.139-.08-.076-.167-.139-.191-.139s-.066-.03-.094-.069c-.028-.038-.073-.07-.1-.07-.025 0-.087-.041-.132-.09s-.094-.08-.104-.07c-.014.011-.052-.003-.087-.038-.035-.03-.062-.041-.062-.027 0 .017-.039-.007-.084-.049-.09-.087-.388-.246-.458-.246a1.3 1.3 0 0 1-.239-.105.9.9 0 0 0-.26-.104c-.038 0-.076-.017-.087-.035-.01-.02-.059-.034-.104-.034s-.093-.018-.104-.035c-.01-.021-.066-.035-.121-.035-.056 0-.108-.014-.118-.031s-.07-.038-.132-.049c-.33-.055-.489-.094-.527-.125a.14.14 0 0 0-.111-.017c-.035.01-.16 0-.274-.021-.213-.04-.975-.063-1.375-.053m-12.439-1.56a.6.6 0 0 1 .229.027c.03.017.125.052.208.076.08.024.163.066.187.09.02.028.108.08.187.115a.6.6 0 0 1 .17.104c.01.018.118.08.24.14.121.055.239.124.263.152.021.031.156.111.299.18.142.07.256.14.256.157s.032.031.07.031.069.014.069.035c0 .017.031.035.07.035.038 0 .069.014.069.035 0 .017.02.034.045.034s.08.032.121.07c.042.038.094.07.118.07.063 0 .236.176.236.242 0 .028.031.077.07.105.038.027.069.076.069.11 0 .032.014.067.031.077.028.018.073.233.073.368.007.181-.097.476-.19.556-.029.024-.053.063-.053.084 0 .072-.184.215-.423.326a.9.9 0 0 1-.44.111c-.115 0-.22-.017-.23-.034-.01-.021-.052-.035-.09-.035-.034 0-.066-.018-.066-.035 0-.02-.03-.035-.069-.035-.038 0-.07-.017-.07-.034 0-.021-.02-.035-.044-.035-.06 0-.26-.097-.285-.14a1 1 0 0 0-.218-.124 1.5 1.5 0 0 1-.292-.184c-.055-.045-.097-.073-.097-.056 0 .014-.031 0-.07-.035-.037-.034-.069-.048-.069-.034 0 .017-.041-.01-.093-.056a2 2 0 0 0-.33-.205c-.132-.062-.236-.128-.236-.142 0-.018-.03-.031-.069-.031-.038 0-.07-.018-.07-.035 0-.021-.024-.035-.058-.035-.073 0-.462-.392-.462-.466 0-.03-.014-.055-.034-.055-.018 0-.035-.031-.035-.066 0-.038-.014-.08-.035-.09-.017-.01-.034-.129-.034-.26 0-.317.104-.55.353-.786a.98.98 0 0 1 .73-.323m25.791-.005c.094.001.203.014.28.039a1 1 0 0 1 .482.288c.25.236.353.469.353.785 0 .132-.013.25-.034.26-.018.011-.035.053-.035.09 0 .036-.014.067-.035.067-.017 0-.034.024-.034.052 0 .077-.382.469-.458.469-.035 0-.063.014-.063.035 0 .017-.03.035-.069.035-.038 0-.07.013-.07.03 0 .015-.103.08-.232.143a1.8 1.8 0 0 0-.33.205c-.055.045-.096.073-.096.056 0-.014-.032 0-.07.034-.038.035-.07.05-.07.035 0-.017-.04.007-.093.056a1.4 1.4 0 0 1-.27.17 1.5 1.5 0 0 0-.233.132c-.083.07-.378.215-.433.215-.025 0-.045.014-.045.028 0 .049-.226.111-.413.111-.281 0-.836-.291-.836-.437 0-.021-.024-.06-.052-.084-.094-.08-.198-.375-.19-.556 0-.135.044-.35.072-.368.017-.01.031-.045.031-.076 0-.035.031-.084.07-.111.038-.028.069-.077.069-.105 0-.093.187-.25.427-.354.051-.024.093-.055.093-.07 0-.013.031-.027.07-.027.038 0 .069-.017.069-.035 0-.02.031-.035.07-.035.037 0 .069-.014.069-.03 0-.018.114-.088.256-.157.143-.07.278-.15.299-.18a1.1 1.1 0 0 1 .263-.154c.122-.059.23-.121.24-.139a.6.6 0 0 1 .173-.104.7.7 0 0 0 .173-.1c.032-.056.23-.143.316-.143.045 0 .09-.017.1-.035.014-.024.093-.035.186-.035m-13.18-.63c.376.002 1.083.03 1.307.056l.45.056c.098.014.205.034.244.052a1 1 0 0 0 .208.048c.076.007.2.032.277.053.077.017.188.045.243.058a.4.4 0 0 1 .156.07c.031.024.09.038.132.024.052-.01.083 0 .097.042q.024.058.1.038c.05-.014.098 0 .122.031.024.028.08.053.125.053.042 0 .09.013.1.034.01.018.049.035.084.035.034 0 .184.063.333.139s.291.139.315.139c.028 0 .049.014.049.035 0 .017.031.034.07.034.037 0 .069.014.069.035 0 .017.03.035.069.035.038 0 .07.014.07.035 0 .017.03.034.069.034.038 0 .07.014.07.035 0 .017.03.035.065.035.038 0 .1.041.139.09.038.049.083.08.1.07.021-.01.052.003.077.03.024.029.055.046.069.036.014-.007.063.024.104.07.045.048.1.086.121.086s.084.045.14.104c.055.056.117.104.138.104.02 0 .083.046.139.105.055.055.118.104.138.104s.153.118.295.26.274.26.292.26c.048 0 .367.32.367.366 0 .02.118.152.26.295.143.142.26.274.26.295s.05.084.105.139c.059.056.104.118.104.139 0 .02.048.083.104.139.059.055.104.118.104.139 0 .02.038.076.087.122.045.041.076.09.069.104-.01.014.007.045.035.07.027.024.041.055.03.076-.01.017.022.062.07.1s.09.101.09.14c0 .034.018.065.035.065.02 0 .035.031.035.07 0 .038.017.07.035.07.02 0 .034.03.034.069 0 .038.018.07.035.07.02 0 .035.03.035.069 0 .038.017.07.034.07.021 0 .035.03.035.069 0 .038.017.07.035.07.02 0 .034.02.034.048 0 .027.049.139.104.246a.9.9 0 0 1 .104.26c0 .036.021.08.049.105.028.02.042.063.031.09-.01.028.007.08.038.115.035.035.049.087.035.122-.014.038 0 .076.038.104q.064.046.038.108a.13.13 0 0 0 .025.118c.027.03.059.1.072.16.014.055.039.166.06.243.232.927.322 2.264.211 3.16l-.062.504a1 1 0 0 1-.049.226 1 1 0 0 0-.049.209 2 2 0 0 1-.052.277c-.017.077-.045.185-.059.243a.5.5 0 0 1-.072.164c-.028.031-.042.076-.028.094.024.045-.045.274-.111.354a.23.23 0 0 0-.045.128c0 .039-.014.084-.035.094-.017.01-.035.049-.035.087a.9.9 0 0 1-.104.26 1 1 0 0 0-.104.247c0 .028-.014.049-.034.049-.018 0-.035.031-.035.07 0 .037-.014.069-.035.069-.017 0-.035.031-.035.07 0 .037-.013.069-.034.069-.017 0-.035.031-.035.07 0 .037-.014.069-.034.069-.018 0-.035.03-.035.07 0 .037-.014.069-.035.069-.017 0-.035.03-.035.066 0 .038-.041.1-.09.139-.048.038-.08.083-.07.1.011.021-.003.052-.03.077-.028.024-.045.055-.035.07.007.013-.024.062-.07.103-.048.046-.086.101-.086.122s-.045.083-.104.139c-.056.056-.104.118-.104.139 0 .02-.045.083-.104.139-.056.055-.104.118-.104.139 0 .02-.118.153-.26.295s-.26.274-.26.292c0 .048-.32.368-.365.368-.02 0-.153.118-.295.26s-.274.261-.294.261c-.021 0-.084.045-.14.104-.055.056-.117.105-.138.105-.02 0-.083.048-.139.104-.055.059-.118.104-.138.104s-.077.038-.122.087c-.041.045-.09.076-.104.07-.014-.011-.045.006-.07.034-.024.028-.055.042-.072.031-.017-.01-.07.021-.115.07-.045.048-.107.09-.138.09s-.056.014-.056.035c0 .017-.031.035-.07.035-.037 0-.069.013-.069.034 0 .018-.03.035-.069.035-.038 0-.07.014-.07.035 0 .017-.03.034-.069.034-.038 0-.07.014-.07.035 0 .018-.02.035-.048.035a2 2 0 0 0-.315.139c-.15.076-.299.139-.333.139s-.073.014-.083.035c-.01.017-.06.034-.101.034-.045 0-.1.021-.121.049a.12.12 0 0 1-.111.031c-.042-.014-.087.004-.115.042q-.046.063-.107.038a.12.12 0 0 0-.118.024.4.4 0 0 1-.16.073l-.243.06c-.076.02-.201.045-.277.052a1 1 0 0 0-.208.048 1 1 0 0 1-.226.049l-.503.062c-.447.056-1.495.056-1.942 0l-.503-.062a1 1 0 0 1-.226-.049 1 1 0 0 0-.208-.048 2 2 0 0 1-.277-.053c-.077-.017-.184-.045-.243-.059a.5.5 0 0 1-.16-.073c-.03-.024-.08-.038-.11-.027-.028.014-.101 0-.157-.032-.055-.027-.11-.045-.118-.034-.01.007-.038-.007-.062-.039a.2.2 0 0 0-.125-.052c-.042 0-.09-.017-.1-.034-.01-.021-.05-.035-.087-.035a1 1 0 0 1-.26-.104 1 1 0 0 0-.247-.105c-.027 0-.048-.017-.048-.034 0-.021-.031-.035-.07-.035-.038 0-.069-.017-.069-.035 0-.02-.031-.035-.07-.035-.037 0-.069-.017-.069-.034 0-.021-.03-.035-.07-.035-.037 0-.068-.017-.068-.035 0-.02-.032-.034-.07-.034s-.07-.018-.07-.035c0-.021-.03-.035-.065-.035-.038 0-.1-.042-.139-.09-.038-.049-.083-.08-.1-.07-.021.01-.052-.003-.077-.031-.024-.028-.055-.045-.07-.035-.013.007-.061-.024-.103-.07-.045-.048-.1-.086-.122-.086-.02 0-.083-.045-.138-.104-.056-.06-.118-.104-.14-.104-.02 0-.082-.046-.138-.105-.055-.055-.118-.104-.139-.104-.02 0-.152-.118-.294-.26-.143-.143-.274-.26-.292-.26-.048 0-.367-.32-.367-.366 0-.02-.118-.153-.26-.295s-.26-.274-.26-.295-.046-.084-.105-.14c-.055-.055-.104-.117-.104-.138 0-.02-.045-.083-.104-.139-.055-.056-.104-.118-.104-.139 0-.02-.038-.076-.087-.122-.045-.041-.076-.09-.069-.104.01-.014-.007-.045-.035-.07-.027-.024-.041-.055-.03-.076.01-.017-.022-.062-.07-.1s-.09-.101-.09-.14c0-.034-.014-.065-.035-.065-.018 0-.035-.032-.035-.07s-.014-.07-.035-.07c-.017 0-.034-.03-.034-.069 0-.038-.014-.07-.035-.07-.017 0-.035-.03-.035-.069 0-.038-.013-.07-.034-.07-.018 0-.035-.03-.035-.069 0-.038-.014-.07-.035-.07-.017 0-.034-.02-.034-.048a1 1 0 0 0-.104-.246 1 1 0 0 1-.104-.26.16.16 0 0 0-.049-.105c-.028-.021-.042-.063-.031-.09.01-.028-.007-.08-.038-.115-.035-.035-.049-.087-.035-.122.014-.038 0-.076-.038-.104q-.064-.046-.038-.108a.13.13 0 0 0-.025-.118.5.5 0 0 1-.073-.16l-.058-.243c-.34-1.344-.34-3.043 0-4.376.02-.077.045-.188.058-.244a.4.4 0 0 1 .073-.16.13.13 0 0 0 .025-.118q-.026-.061.038-.107c.038-.028.052-.066.038-.104-.014-.035 0-.087.035-.122.03-.035.048-.087.038-.115-.01-.027.003-.07.031-.09a.16.16 0 0 0 .049-.104c0-.035.048-.153.104-.26a1 1 0 0 0 .104-.247c0-.028.017-.049.034-.049.021 0 .035-.031.035-.07 0-.038.017-.069.035-.069.02 0 .034-.031.034-.07 0-.038.018-.069.035-.069.02 0 .035-.031.035-.07 0-.037.017-.069.034-.069.021 0 .035-.031.035-.07 0-.038.017-.069.035-.069.02 0 .035-.031.035-.066 0-.038.041-.1.09-.139.048-.038.08-.083.07-.1-.011-.021.003-.053.03-.077.028-.024.045-.055.035-.07-.007-.013.024-.062.07-.103.048-.046.086-.101.086-.122s.049-.084.104-.14c.06-.055.104-.117.104-.138 0-.02.049-.083.104-.139.06-.055.104-.118.104-.139 0-.02.118-.153.26-.295.143-.143.26-.275.26-.292 0-.049.32-.368.365-.368.02 0 .152-.118.295-.26.142-.143.274-.261.294-.261.021 0 .084-.049.14-.104.055-.06.117-.105.138-.105.02 0 .083-.048.139-.104.055-.059.118-.104.138-.104s.077-.038.122-.087c.041-.045.09-.076.104-.07.014.011.045-.006.07-.034.023-.028.055-.042.076-.031.017.01.062-.021.1-.07.038-.048.1-.09.139-.09.035 0 .066-.018.066-.035 0-.02.031-.035.07-.035.037 0 .069-.017.069-.034 0-.021.03-.035.069-.035.038 0 .07-.018.07-.035 0-.02.03-.035.069-.035.038 0 .069-.017.069-.034 0-.021.031-.035.07-.035.038 0 .069-.017.069-.035 0-.02.02-.034.048-.034s.14-.05.247-.105a.9.9 0 0 1 .26-.104c.038 0 .076-.017.086-.035.01-.02.056-.034.098-.034a.26.26 0 0 0 .138-.053c.038-.024.087-.038.115-.027s.073-.01.097-.042q.046-.064.108-.038a.12.12 0 0 0 .117-.025.5.5 0 0 1 .16-.073c.059-.013.166-.041.243-.058a2 2 0 0 1 .277-.053 1 1 0 0 0 .208-.048c.073-.031.14-.042.746-.104a4 4 0 0 0 .416-.053c.022-.006.11-.008.236-.007M120.557 361c.135-.003.26.01.27.031.01.018.052.035.09.035.035 0 .066.014.066.035 0 .017.025.035.052.035.077 0 .469.382.469.458 0 .035.017.063.034.063.021 0 .035.031.035.07 0 .037.014.069.031.069.014 0 .08.104.142.232a1.8 1.8 0 0 0 .205.33c.045.056.073.098.055.098-.013 0 0 .03.035.07.035.037.049.069.035.069-.017 0 .01.041.055.093.049.056.132.188.184.296a1 1 0 0 0 .125.219c.042.024.139.225.139.284 0 .025.017.046.034.046.021 0 .035.03.035.069 0 .038.014.07.028.07.049 0 .11.225.11.413 0 .281-.29.837-.436.837-.021 0-.06.024-.083.052-.08.094-.375.198-.555.191-.136 0-.35-.045-.368-.073-.01-.017-.045-.031-.076-.031-.035 0-.084-.031-.111-.07-.028-.038-.073-.069-.1-.069-.07 0-.247-.174-.247-.243 0-.028-.031-.077-.07-.104-.038-.028-.069-.077-.069-.112 0-.034-.014-.062-.035-.062-.017 0-.034-.031-.034-.07 0-.038-.014-.069-.035-.069-.017 0-.035-.031-.035-.07 0-.038-.014-.069-.027-.069-.018 0-.052-.042-.077-.097a1 1 0 0 0-.1-.156c-.028-.032-.035-.06-.021-.06s0-.03-.035-.07c-.035-.037-.048-.068-.035-.068.018 0-.01-.042-.055-.098a1.5 1.5 0 0 1-.184-.292 1 1 0 0 0-.128-.218.7.7 0 0 1-.1-.17.6.6 0 0 0-.115-.188.6.6 0 0 1-.09-.188 1.4 1.4 0 0 0-.077-.208c-.07-.132-.031-.414.094-.705.066-.15.364-.435.558-.525a.86.86 0 0 1 .417-.08m14.878-.003a.9.9 0 0 1 .423.083c.19.09.506.39.572.542.115.274.15.56.084.688a1.4 1.4 0 0 0-.077.208.6.6 0 0 1-.09.188.6.6 0 0 0-.114.187.6.6 0 0 1-.104.17c-.018.011-.08.119-.14.24-.055.122-.127.24-.159.268a.4.4 0 0 0-.118.222.3.3 0 0 1-.048.087c-.02.028-.063.094-.09.146-.025.055-.06.097-.077.097-.013 0-.027.031-.027.07 0 .038-.014.069-.035.069-.017 0-.035.031-.035.07 0 .038-.014.069-.034.069-.018 0-.035.028-.035.063 0 .034-.031.083-.07.11-.038.028-.069.077-.069.105 0 .07-.177.243-.246.243-.028 0-.073.031-.1.07-.029.038-.077.069-.112.069-.03 0-.066.014-.076.031-.017.028-.232.073-.368.073-.18.007-.475-.097-.555-.19-.024-.029-.062-.053-.083-.053-.073 0-.215-.184-.326-.424a.9.9 0 0 1-.111-.441c0-.115.017-.219.035-.23.02-.01.034-.051.034-.09 0-.034.018-.065.035-.065.02 0 .035-.032.035-.07s.017-.07.034-.07c.021 0 .035-.02.035-.045 0-.059.097-.26.139-.284a1 1 0 0 0 .125-.22 1.6 1.6 0 0 1 .184-.295c.045-.052.072-.093.055-.093-.014 0 0-.032.035-.07.034-.038.048-.07.034-.07-.017 0 .01-.041.056-.097.048-.052.139-.198.205-.33.062-.128.128-.232.142-.232.017 0 .031-.032.031-.07s.017-.07.035-.07c.02 0 .034-.027.034-.062 0-.076.385-.458.465-.458.031 0 .056-.018.056-.035 0-.02.03-.035.066-.035.038 0 .08-.017.09-.035.01-.02.128-.034.26-.034m-7.177-1.96c.253.08.336.132.51.313.319.337.326.371.326 1.886s-.007 1.55-.326 1.886c-.174.18-.257.233-.517.316-.226.077-.41.052-.736-.087-.121-.052-.437-.375-.492-.5-.108-.257-.115-.365-.115-1.615 0-1.515.007-1.55.326-1.886.167-.174.25-.226.49-.31a.96.96 0 0 1 .534-.003"/></g></svg>