<svg xmlns="http://www.w3.org/2000/svg" width="400" height="200" overflow="hidden" viewBox="-10.5 1 46 23"><defs><clipPath id="a"><path d="M180 367h24v25h-24z"/></clipPath></defs><g clip-path="url(#a)" transform="translate(-180 -367)"><path fill-rule="evenodd" d="M201.216 382.665q.604 0 1.058.169.452.168.752.46.299.292.447.679t.148.825q0 .394-.071.784a3.2 3.2 0 0 1-.299.845 6.4 6.4 0 0 1-.659 1.009q-.43.555-1.145 1.279l-1.318 1.358h3.62q.052 0 .1.029.048.028.084.086a.4.4 0 0 1 .051.142q.016.087.016.2 0 .115-.016.203a.6.6 0 0 1-.045.15.2.2 0 0 1-.183.117h-4.598a.5.5 0 0 1-.157-.022.3.3 0 0 1-.116-.073.3.3 0 0 1-.071-.146 1 1 0 0 1-.022-.235q0-.127.009-.222a.5.5 0 0 1 .044-.168 1 1 0 0 1 .082-.146q.05-.074.13-.156l1.663-1.688q.576-.585.924-1.048t.537-.844a2.7 2.7 0 0 0 .308-1.276 1.4 1.4 0 0 0-.093-.517 1.3 1.3 0 0 0-.269-.429 1.3 1.3 0 0 0-.441-.292 1.6 1.6 0 0 0-.61-.108q-.405 0-.727.108t-.564.235a5 5 0 0 0-.405.235q-.162.108-.242.108a.14.14 0 0 1-.083-.026.17.17 0 0 1-.059-.082.6.6 0 0 1-.037-.152 2 2 0 0 1-.007-.394.6.6 0 0 1 .023-.12.5.5 0 0 1 .042-.096.5.5 0 0 1 .102-.111q.078-.067.267-.181.19-.114.476-.225.287-.11.63-.187.345-.077.724-.077m-11.758-12.554q-1.627 0-2.731.603a5.1 5.1 0 0 0-1.794 1.608q-.69 1.005-.988 2.347a13 13 0 0 0-.298 2.822q0 1.637.276 3.015t.93 2.376a4.44 4.44 0 0 0 1.75 1.551q1.098.553 2.753.553 1.642 0 2.76-.603a4.94 4.94 0 0 0 1.801-1.63q.683-1.026.974-2.376t.29-2.858q0-1.578-.283-2.936-.284-1.356-.944-2.355a4.54 4.54 0 0 0-1.765-1.557q-1.104-.56-2.731-.56m.153-2.111q2.079 0 3.621.617 1.542.618 2.568 1.802 1.025 1.185 1.527 2.929.502 1.745.502 3.999t-.539 4.063q-.537 1.81-1.607 3.08T193 386.443q-1.615.682-3.768.682-2.123 0-3.672-.625-1.55-.624-2.56-1.816-1.011-1.191-1.505-2.958-.495-1.765-.495-4.063 0-2.197.538-3.992t1.615-3.051 2.69-1.938q1.615-.682 3.768-.682"/></g></svg>