<svg xmlns="http://www.w3.org/2000/svg" width="400" height="200" viewBox="-62.645 0.105 333.789 166.895"><path d="M110.5 3.4c-10.7 3.5-19.7 7.3-33.9 14.2-4.9 2.4-9.1 4.4-9.3 4.4s-.1-1.1.3-2.5c.3-1.4.4-3.2 0-4-.5-1.4-.9-1.4-3.3-.1-1.6.8-4.4 3-6.2 5-1.9 2-4.3 3.6-5.4 3.6-3.9 0-10.7 5.2-13.3 10.2-1.6 3.1-1.9 8.4-.4 9.3.6.4-.3 3.1-2.1 6.7-2.7 5.4-2.9 6.4-1.8 8.9.9 2.4.9 3.3-.3 4.7-14 16.3-14.9 18.4-10.2 22.1 1.4 1.1 3 2.1 3.6 2.3.8.3.8 1.3 0 3.7-.9 2.6-.9 3.3.3 3.8q2.85 1.05 0 3.9c-2 2.1-1.9 3 .7 5.6 1.6 1.6 2.1 3.2 1.9 6-.1 2.1.1 4.7.4 5.9 1 3 6.4 4.9 14.1 4.9h6.7l-.7 3.1c-.3 1.7-.6 5.3-.6 8v4.9h-4.8c-16 0-34.8 10.5-43.2 24.2L0 167h178.2l-3-5.2c-1.5-2.9-3.9-7-5.1-9l-2.3-3.8 5.8 3.5c9.2 5.6 13.7 4.1 9.5-3-1.2-2-2.1-3.7-2.1-3.9 0-.1 1.9-.2 4.3-.2 4.2.1 4.2.1 4.1-3.4 0-1.9-.4-4.3-.8-5.2-.7-1.6-.3-1.7 3.8-1.2 5.8.8 6.9-1.1 3.9-6.8l-2.1-3.8h3.9c4.3 0 7.9-2.7 7.9-5.8 0-1.1-1.4-3.8-3.1-6.1-2.4-3.4-2.8-4.5-1.8-5.7 2.4-2.9-1.2-6.7-13.1-13.9l-5.4-3.3 7.9.4c8.9.6 11.7-.4 9.9-3.3-2.1-3.4-7.4-6.1-23.9-11.8-9.1-3.2-16.3-6-16-6.3.2-.3 10.4.6 22.6 1.9 22.9 2.4 25.4 2.3 25.4-1.6 0-3.2-4.8-5.5-20.4-9.9-8.3-2.4-15.5-4.7-15.9-5.1s1.8-.4 4.8 0c10.1 1.1 17.8 1.1 19.2-.3 2.1-2.1-1.9-4.8-12.2-8l-9.5-3 5.5-.1c11.6-.2 13.5-3 4-5.8-6.3-1.9-7.8-3.3-3.4-3.3 4.3 0 11.2-2.1 12.8-3.9 1.5-1.6 1.5-1.9-.2-3.4-1.1-1-4.2-2.3-7-2.9-5.6-1.4-6.3-2.1-3.2-3.8 4.6-2.4 1.7-5.3-6.4-6.5l-5-.8 2.7-2.1c1.5-1.2 2.7-2.7 2.7-3.3 0-3.7-19.9-6-36.9-4.2-7.8.8-8.5.7-9.8-1.1-2.1-2.9-8-2.5-19.8 1.4m18.3.4c.2.7-.6 1.2-2 1.2-2.3 0-14.4 2.4-18.1 3.6-3.2 1-1-1.4 3.4-3.6 7.2-3.7 15.6-4.3 16.7-1.2m40.8 1.3c1.2 2.1-13.4 3-21.6 1.3-4.3-.9-4.1-.9 4.5-1.5 12.6-.7 16.5-.7 17.1.2m-6.7 4.3c-.3.3-6.3 1-13.4 1.6-20.1 1.7-38.6 3.9-54.9 6.5-8.3 1.4-15.1 2.3-15.3 2.1-.4-.4 17.2-5 25.2-6.6 11.8-2.4 27.3-3.8 42.9-3.9 8.8-.1 15.7.1 15.5.3m11.4 6.7c2.1.5 3.7 1.6 3.7 2.4 0 1.7-6.6 2.1-9 .5-1.3-.9-1.3-1 0-1 1.1-.1 1-.4-.4-1.5-2-1.5-2-1.5 0-1.5 1 0 3.6.5 5.7 1.1m-14.8 3.8c3.8.5.9.8-11.9 1.4-18.2.8-32.9 2.1-44.2 3.8-4 .6-7.8.9-8.5.7-1.7-.6 10.8-3.7 21.5-5.3 8.7-1.4 35-1.8 43.1-.6M85 27.4c0 1.9-2.3 3.3-2.8 1.8C82 28.5 81 28 80 28s-2.2-.5-2.5-1c-.4-.6 1-1 3.4-1 2.9 0 4.1.4 4.1 1.4m105 1.1c0 3-12.5 4.4-43.5 4.9-13.7.2-22.7.2-20 0 2.8-.2 12-.8 20.5-1.4 16.3-1.2 34.6-3.5 38.3-4.9 2.7-1 4.7-.4 4.7 1.4m-130.4 2c-4.3 3.9-5.4 4.1-8 2.2-1.7-1.2-1.3-1.5 3.5-3.5 7.7-3 9-2.6 4.5 1.3m15.4 0c-3.3 4-11 6.6-11 3.6 0-.5 9.5-4.5 11.9-5 .2-.1-.2.6-.9 1.4m21.3 2.4c1.1.2.9 2.9-.3 3.6-.6.3-1.7-.1-2.6-.9-.8-.9-2.5-1.6-3.7-1.7-2.1 0-2.1-.1-.2-.8 1.7-.7 3.7-.8 6.8-.2M60.8 40c6.7 3.2 16.1 11.7 19.6 18.1 1.9 3.4 1.9 3.4-3-1.1-10.2-9.5-19.7-14.4-30-15.6-4.2-.5-5.4-1-5-2.1.4-.8.6-1.9.6-2.5 0-1.9 11.2.1 17.8 3.2m22.7-.5c-5.3 2.5-9 3.1-10 1.6-.3-.5 2.3-1.6 5.7-2.4 8.9-2.1 10.1-1.9 4.3.8m95.6.5c-3.2 1.9-41.2 5.5-52.1 4.8-3.6-.2 4.7-1.4 23.5-3.4 16-1.6 29.2-2.9 29.5-2.7.2.2-.2.8-.9 1.3M109 43.4c0 1.9-2 3.2-2.9 1.8-.3-.5-2.2-1.5-4.1-2-3.5-1-3.5-1 1.8-1.1 3.9-.1 5.2.3 5.2 1.3m-52.6 4.8c7.5 2.5 13.9 6.8 17.7 12.1l3 4.1-2.6 2c-1.9 1.6-2.8 3.5-3.4 7.6-.9 5.4-4.3 10-7.6 10-.7 0-2.1.7-2.9 1.6-2 2-2.1 13-.2 22.9 1.6 8.1 1.9 7.8-7.6 10-14.3 3.2-19.3 1.3-19.3-7.3q0-4.95-1.8-6.9c-2-2.3-2.2-3.3-.4-3.3.6-.1 2.6-.7 4.2-1.4l3-1.3L34 96c-2.5-1.2-4.6-2.4-4.8-2.5-.1-.1.2-1.4.7-2.9 1-2.4.8-2.7-2.9-4.6-6.1-3.1-5.5-5.5 4-15.4 7.9-8.2 8-8.3 6.9-11.6-1.1-2.9-.9-3.9 1.7-8.7l2.9-5.4 4 .7c2.2.3 6.7 1.5 9.9 2.6m44.6-2.3c-.8.5-4.7 1.8-8.6 2.9-6 1.7-7.3 1.7-8.9.6-1-.8-1.7-1.6-1.4-1.8.4-.4 13.9-2.3 17.9-2.4 1.9-.1 2.1.1 1 .7m11.6 5.2c1 1.7-1.4 3.5-2.8 2.1-.7-.7-2-1.2-3-1.2s-1.8-.5-1.8-1c0-1.4 6.7-1.3 7.6.1m74.4 1c0 1.1-21.4 1.2-25 .1-1.5-.4 2.3-.9 10-1.2 13-.5 15-.4 15 1.1m-84.1 3.3c-.2.2-3.7 1.3-7.6 2.4-7 2-7.3 2-7.3.2 0-1.1.9-2 2.3-2.3 2.9-.6 13.2-.8 12.6-.3m49.1 5c4.1.8 8.6 1.9 10 2.5 2.1.9 1.5 1-3.5.6-15-1.3-31.6-2.5-38-2.6-5.7-.1-6.4-.3-3.5-.9 6-1.3 27.1-1 35 .4m42.8 4.1c5.1 1.9 10.2 4.1 11.4 4.9 1.9 1.4 2 1.6.4 2.2-3.2 1.2-29.9-2.3-27.4-3.6.7-.4 3.3-1.1 5.8-1.5 4.4-.7 4.4-.8 2.2-2.3-1.2-.8-2.2-1.8-2.2-2.3 0-1.2-.8-1.4 9.8 2.6m-95.5 4.6c2.1 2.3 2.7 3.9 2.7 7.5 0 3.9-.5 5.1-3.5 8.1-3.1 3.1-4 3.5-6.8 2.9-10-2-11.7-17.1-2.4-21.1 4-1.8 6.5-1.1 10 2.6m9.6 1.6c.6 1.3 1.1 3.8 1 5.6 0 3.1-.1 3.1-2.3-1.8-1.2-2.8-3-5.6-3.9-6.4-2.8-2.3-1.9-3.3 1.2-1.5 1.6 1 3.4 2.8 4 4.1m-29.7 2.5c-.4 6.5 1.1 10.8 3.7 10.8 1.5 0 2 1 2.7 5.7.6 5 .8 5.4 1.3 2.8.8-3.8 1.7-2.5 2.7 4l.9 5L91 97l.5-4.5 2.2 4.5 2.1 4.5.1-4.3c.1-2.3.5-4.2 1-4.2.4 0 2.4 4.9 4.4 10.9 2 5.9 5.4 15 7.7 20.1 2.2 5.2 3.8 9.5 3.7 9.7-.2.2-2.1-1.4-4.1-3.5-3.9-3.8-5.9-6.9-8.8-13.7-2.1-5-2.2-3.9-.3 13 .9 7.6 1.4 14 1.1 14.2-.7.7-5.6-12.7-8-21.9-2.3-8.9-2.6-9.1-4-2.5-.4 1.5-1.1 2.5-1.6 2.2-1.9-1.2-5.2-14.1-5.9-22.8-.6-8.3-.8-9-1.9-6.9-.8 1.3-1.4 3.7-1.4 5.3-.1 4.3-2 3.1-4.1-2.7-1.4-3.5-1.7-6.4-1.4-10.2.6-5.2 4.9-16.2 6.4-16.2.4 0 .7 2.4.5 5.2m62.8 2.3c5.2.8 11.5 2.1 14 3 2.5.8 3.4 1.3 2 1-5.5-1.1-26.8-4.4-30.5-4.8l-4-.4 4.5-.1c2.5-.1 8.8.5 14 1.3m45 5.9c13.3 6.4 12 8.6-4 6.6-5.5-.7-10-1.6-10-2 0-.5 1.6-1.4 3.6-2l3.6-1.2-3.4-3.5c-3.1-3.4-3.2-3.5-.8-2.8 1.4.4 6.3 2.6 11 4.9m-38 3.3c7.7 2.2 20.6 8.1 19.7 9-.2.2-5.8-1.2-12.5-3.1-6.6-1.9-18.2-4.5-25.9-5.8-11.3-1.9-13.2-2.4-10.3-3 5.9-1.1 20.1.3 29 2.9M67.5 89c-.3.5-.1 1 .5 1s.8 1.1.6 2.4c-.2 1.4.1 2.7.7 3 .9.4.8.8-.2 1.2-1.1.5-1.1.8 0 1.5 1.2.8 1.2 1 0 1.8-1.1.7-1.1.9 0 1.4 1.2.4 1.1.7-.1 1.6-1.3.9-1.3 1.1.3 1.1.9 0 1.7.4 1.7.9 0 1.1-5.8 6.1-7 6.1-1.9 0-3.1-14.1-1.6-18.8.4-1.1 1.6-2.4 2.9-3 2.9-1.4 2.9-1.4 2.2-.2m60 2.2c12.5 3 24.8 9.4 33.5 17.5 3.3 3.1 5.9 5.8 5.6 6-.2.3-4.9-2.4-10.3-5.8-8.3-5.3-15.4-9-36.3-18.7-2.4-1.1-2.4-1.1.5-.6 1.7.3 4.8 1 7 1.6m60 6.3c7.9 4.3 12 7.5 9.6 7.5-.6 0-5.4-1.4-10.6-3-9-2.9-12.1-5-7.3-5 2 0 2.1-.1.3-2-2.7-3-1.1-2.5 8 2.5m-1.8 7.5c9.3 4.5 17.7 11.7 17.1 14.7-.8 4-10.7 1.4-24.8-6.4l-6.5-3.7 3.3-1.3c3.7-1.5 3.7-1.6 1.6-4.8-2.3-3.5-.6-3.3 9.3 1.5m-111.6 6.8c-.5 1-1.7 2.4-2.5 3.2-2.5 2-1.9 2.7 2.9 3.5 5.6.8 4.9 2.5-1.1 2.5-2.4 0-4.4.4-4.4.8s2.3 1.6 5 2.6c7 2.5 7.3 3.8.8 3.1l-5.3-.6 6.5 3.5 6.5 3.5-4.5.1-4.5.1 3.8 2c2 1.1 3.7 2.4 3.7 2.9 0 .6-2.4 1-5.2 1l-5.3.1 3.8 1.4c2.1.7 4.1 1.6 4.4 1.9.5.5-7.4 10.6-8.2 10.6-.2 0-3.4-4.1-7-9.1-7-9.5-8.4-13.4-7.1-20.2.5-2.7 1.4-3.8 4.4-5.1 2-.9 6-3.4 8.7-5.6 5.8-4.5 5.9-4.6 4.6-2.2m47.8 22.4c2.5 2.9 3.8 3.7 5.3 3.2 1.7-.5 1.9-.3 1.3 1.8-.4 1.2-1.1 2.7-1.6 3.2-2.2 2.4-9.3-8.6-15.3-23.3-3.8-9.3-3.2-8.8 2.3 1.8 2.6 5.2 6.2 11.2 8 13.3m60.8-15.2c13.3 8.7 16.6 13.7 8.8 13.3-3.5-.3-19.9-7.4-24-10.6-1.9-1.4-1.7-1.5 2.8-2.2 2.6-.4 4.7-.9 4.7-1.1 0-.3-.7-1.6-1.6-2.9-.9-1.4-1.2-2.5-.7-2.5s5 2.7 10 6m-27.5 19c5.1 6.8 10.5 15.9 8 13.5-.6-.6-3.7-4.6-6.9-9-3.3-4.4-9.7-12.5-14.2-18l-8.2-10 7.8 8c4.3 4.4 10.4 11.4 13.5 15.5m-26.7-11.8c7.1 10.8 14.5 19.8 17.9 21.9 2.5 1.5 2.7 1.9 1.3 2.5-2.6 1-6.3-2-11.6-9.3-4.5-6.1-13.8-22.3-12.8-22.3.2 0 2.6 3.3 5.2 7.2m-36.4 4.4c1.9 4.2 1.9 4.7.5 7-2.7 4-3.6 2.8-3.6-4.6 0-3.9.3-7 .6-7s1.4 2.1 2.5 4.6m84.7-.2c7.1 4.6 12 9.2 10.9 10.2-1.2 1.2-7.7-.7-15.7-4.7-4.4-2.2-8-4.4-8-5 0-.5 1.7-.9 3.7-.9 2.9 0 3.4-.3 2.5-1.2-1.3-1.3-1.6-2.8-.6-2.8.3 0 3.6 2 7.2 4.4m-28.9 7.6c6 9.7 3.1 12-5.2 4.1q-8.1-7.8-1.2-5.1c2.6 1 2.7.9 2.1-1.5-1-4.1 1-2.9 4.3 2.5m25.8 3.2c5.9 4.5 9 8.5 7.5 10-1.2 1.2-9.8-2.2-17-6.9l-5.7-3.7 3.9-1.1c2.4-.7 3.5-1.4 2.8-1.9-.7-.4-1.2-1.2-1.2-1.7 0-1.3 3.3.5 9.7 5.3M55 142.5c4 4.2 3.5 5.2-1.5 3.1-4.7-2-5.6-2-4.9-.1.5 1.3.2 1.4-2.1.5-4.1-1.6-5-1.2-2.9 1.1 2.1 2.5 2.9 2.4-6.3.3-2.8-.7-2.8-.7-.9 1.5l1.9 2.1H33c-5.1 0-5.2.1-3.7 1.8 1 1 1.7 2.1 1.7 2.4s-2.9.5-6.5.3c-6.1-.2-6.4-.1-5 1.5 2.4 2.6 1.9 3-4.5 3-3.3 0-6-.4-6-.8 0-1.5 10.5-11.2 14.7-13.6 7-4 15-6.2 23.4-6.5 3.9-.1 4.9.3 7.9 3.4"/><path d="M43 54c-1 2.4-1 3.6 0 6 .7 1.6 1.6 3 2.1 3s.9 1.2.9 2.7c.1 2.8.1 2.8 1.3.6s1.4-2.2 3.6-.6c1.4.9 2.1 1.1 1.7.5-.4-.7-2.2-1.9-3.9-2.8-5.7-3-5.8-5.4-.1-5.4 1.9 0 5.1.7 7.2 1.5 3.3 1.3 3.5 1.3 1.7 0-2.2-1.7-7.9-3.5-11.4-3.5-2 0-2.2-.4-1.7-2.5.9-3.4.1-3.1-1.4.5m-5.1 14.2c-5.3 7.1-5.2 6.8-3.1 6.8 2.3 0 5.2-2.1 5.5-4 .2-.8.6-2.1 1.1-2.8.5-.8.4-1.8-.1-2.3-.6-.6-1.9.3-3.4 2.3m9.1.8c-.9.6-1 1-.3 1 .6 0 1.5-.5 1.8-1 .8-1.2.4-1.2-1.5 0m-14.9 9.6c0 1.1.3 1.4.6.6.3-.7.2-1.6-.1-1.9-.3-.4-.6.2-.5 1.3m7 1.1c.7 1 1.5 2 1.6 2.2.2.2.3-.5.3-1.7 0-1.4-.6-2.2-1.6-2.2-1.4 0-1.5.3-.3 1.7m5.7 1c-2.3.6-2.3.6.6 5.2 1.7 2.6 2.6 5.7 2.8 9.2l.3 5.4 1.8-3.3c1-1.9 1.3-3.2.7-3.2-.7 0-.8-.5-.3-1.3 1.3-2.1 1.2-3.7-.4-3.7-1.3 0-1.3-.2-.2-1.7 1.2-1.5 1.2-1.6-.5-1-1.7.7-1.7.6-.5-1 1.2-1.5 1.2-1.6-.5-1-1.4.6-1.7.4-1.2-.8q.6-1.65-.6-.9c-.8.5-.9.2-.5-.9.3-1 .5-1.6.4-1.6-.1.1-1 .3-1.9.6M33 85c1.9 1.3 3 1.3 3 0 0-.6-1-1-2.2-1-1.9 0-2 .2-.8 1m7 10.9c0 1.7.4 3.2.8 3.5.4.2.6-1.1.4-3-.5-4.2-1.2-4.5-1.2-.5m9 11.2c0 .6-1.4 2.4-3.1 4-3.3 3.1-2.5 4.1.9 1.1 1.9-1.6 4-6.2 2.8-6.2-.3 0-.6.5-.6 1.1m44.9-35.9c3.5 2.2 3.5 2.2 1 2.8-2.3.6-2.3.6-.4 1.9 1.3.8 1.6 1.4.8 1.7-.7.3-.9 1.2-.6 2.1.5 1.2.3 1.4-.7.8-.9-.6-1.1-.4-.5.5.4.7.2 1.6-.6 2.1-1.1.7-.9.9.7.9 3.2 0 5.4-3.1 5.4-7.8 0-4.4-2.5-7.2-6.5-7.2-1.6 0-1.3.5 1.4 2.2"/></svg>