<svg xmlns="http://www.w3.org/2000/svg" width="400" height="200" viewBox="-81.733 1 274 137"><path d="M52 4.5c0 3.4-.1 3.5-4 3.5-3.8 0-4 .2-4 2.9s.3 3 3.8 3.3c3.4.3 3.7.6 3.7 3.2 0 2.5-.5 3.1-3.2 3.8-5 1.3-7.6 5.3-6.8 10.5.3 2.4.4 4.3.2 4.3-.3 0-3-1.2-6.2-2.6-9.3-4.3-18.6-2.4-26.8 5.5-4.8 4.5-6.6 7.9-7.7 14.4C-.8 65 3.7 76.7 15.1 90l7 8.1-1.1 18.6c-.6 10.2-1 18.6-.8 18.8 1 .9 26.9 2.5 40.5 2.5 13.2 0 28.9-1.2 29.9-2.3.2-.2-.2-8.7-.8-18.9l-1.1-18.7 6-6.6c13.4-14.9 17.9-28.5 13.7-42.4-1.9-6.6-8-13.4-13.9-15.7-6.7-2.5-17-1.6-22.3 1.9L68 38l.6-4.4c1-7.1 0-9.5-5.1-11.7-3.5-1.6-4.5-2.5-4.5-4.4 0-2 .5-2.4 3.8-2.7 3.4-.3 3.7-.6 4-3.6.3-3.1.2-3.2-3.7-3.2-4 0-4.1-.1-4.1-3.5 0-3.3-.2-3.5-3.5-3.5S52 1.2 52 4.5m8.9 25.2c.6 1.3 1.1 3.9 1.1 5.7 0 7.7-5.5 28.5-7.1 26.9-.5-.5-2-5.3-3.4-10.7-2.6-10.4-3.2-19.4-1.4-22.7 2.3-4.5 8.6-4 10.8.8M33.3 40.4c10.2 4.3 16 17.8 17.3 40.2l.7 11.1-10.9.7-10.9.8-7.5-7.9C12.6 75.5 8.9 68.9 8.3 60.6c-.6-7 1.3-12 6.5-16.9 4.7-4.5 12.4-5.9 18.5-3.3m57.4.1C98 43.6 102 49.7 102 57.9c0 9.2-4.8 18.3-15.5 29.9l-5.4 5.9-5.3-.4c-2.9-.2-7.7-.6-10.7-.9l-5.4-.6.7-10.6c1.4-22.5 7-35.7 17.1-40.3 4.9-2.3 8.4-2.4 13.2-.4M71.5 101c4.9.6 9 1.2 9.1 1.3s.5 2.2.9 4.6l.7 4.4-5.3-.8c-16.9-2.3-34.1-2.3-45.3.1-2.9.6-2.9.6-2.3-3.6.3-2.3.8-4.5 1.2-4.8 2-2 27.3-2.7 41-1.2m6.8 16c4.1 1 4.7 1.5 4.7 3.7v2.5l-7.7-.8c-10-1.1-32.9-1.2-41-.1l-6.3.9v-2.6c0-2.6 2.2-3.6 10.5-5 5.3-.8 34.8.2 39.8 1.4m-8.6 10c3.5.6 7.5 1.6 9 2.2 2.7 1.1 2.6 1.2-2.7 1.9-11 1.4-47.5.6-46.5-1.1.2-.4 3-1.2 6.2-1.9s6.3-1.5 6.8-1.6c2.4-.8 21.6-.4 27.2.5"/></svg>