<svg xmlns="http://www.w3.org/2000/svg" xml:space="preserve" width="400" height="200" overflow="hidden" viewBox="-44.5 0 178 89"><defs><clipPath id="clip0"><path d="M3936 2172h89v89h-89z"/></clipPath></defs><g fill-rule="evenodd" clip-path="url(#clip0)" transform="translate(-3936 -2172)"><path d="M4025 2212v9h-8.94l.11-1.51-.17-7.49Zm-4 23.3-4.48 7.7-7.52-4.3 2.44-3.74 2.04-3.96Zm-14 17.19-8.35 4.51-4.65-7.53 7.05-3.62 1.33-.85Zm-22-.49v9h-9v-8.94l1.51.11Zm-19-2.52-4.3 7.52-7.7-4.48 4.3-7.52 3.74 2.44Zm-14-10.74-7.48 4.26-4.52-7.71 7.53-4.29 3.62 6.5Zm-7-17.74h-9v-9h8.94l-.11 1.51Zm7-26.34-2.44 4.05-2.04 4.29-7.52-4.66 4.48-8.34Zm14-11.13-6.5 3.62-1.24.85-4.26-7.49 7.71-4.51Zm19-11.53v8.94l-1.51-.11-7.49.17v-9Zm22 8.48-4.66 7.52-4.05-2.44-4.29-2.04 4.66-7.52Zm14 17.87-7.53 4.65-3.62-7.05-.85-1.33 7.48-4.62Z"/></g></svg>