<svg xmlns="http://www.w3.org/2000/svg" width="400" height="200" viewBox="-357.5 -779 3208 1604"><path fill="currentColor" d="m2320 825-878-66c-32 17.333-63.34 30.5-94 39.5-30.67 9-60.34 13.5-89 13.5q-43.995 0-94.5-13.5C1113.995 785 1095 776.333 1057 759l-884 66V-565l187-11 72-141q118-31.005 223.5-46.5c70.333-10.37 136.167-15.54 197.5-15.5 106.667.01 190.17 13.84 250.5 41.5q90.495 41.505 142.5 139.5c31.33-64 78.67-110.17 142-138.5 63.33-28.34 150.33-42.51 261-42.5 56.67 0 118.83 5.17 186.5 15.5s141.17 25.83 220.5 46.5l68 130 196 11zm-50-53V-532l-123-7 49 81V690l-801-50c-38.67 32.667-88 49-148 49-59.33 0-108-16.333-146-49l-805 50V-458l37-71-111 6V772l851-63q49.995 27 96 40.5c46.005 13.5 60.33 13.5 89 13.5 26.67 0 54-4.5 82-13.5s57-22.5 87-40.5zM346-448V595l98-191V-628zm1702-176V404l99 186V-437zM384 640l731-58c21.34 27.333 57 46.667 107 58q-13.995-126-97.5-180.5T862 405q-83 .004-178.5 11.5Q588 428 480 451zm1733 0-96-186c-77.33-16.667-149.17-29-215.5-37s-126.83-12-181.5-12c-235.33 0-353 78.333-353 235 49.34-8 87-27.667 113-59zM494 397q116-21 205.5-31C789 356 810 356 852 356c171.33 0 294.67 41.333 370 124v-931c0-93.33-29-163.17-87-209.5-58-46.34-145.333-69.5-262-69.5-60 0-121.5 4.17-184.5 12.5S560.667-696.67 494-680zM1999-682c-73.33-16-141-28-203-36s-118.33-12-169-12c-123.33 0-216.67 25.34-280 76-50.67 40-76 108.34-76 205v933q69-73 147-100.5c52-18.334 123.67-27.501 215-27.5 60.67 0 121.5 3.5 182.5 10.5s122.17 17.834 183.5 32.5z"/></svg>