<svg xmlns="http://www.w3.org/2000/svg" width="400" height="200" viewBox="-359.5 -583 2766 1383"><path fill="currentColor" d="m1700 724-95 76H347V-583h1353zM1229 52c-.01-50.667-17.84-93.834-53.5-129.5-35.67-35.669-78.83-53.503-129.5-53.5q-75 0-128.5 53.5C864-24 864 1.333 864 52q.003 76 53.5 129.5Q971 235 1046 235c50.67-.002 93.83-17.835 129.5-53.5 35.67-35.667 53.5-78.834 53.5-129.5M506-397v-164H384v164zm929 1157V315H766v445zM1079 81h-64V20h64zM490-418h-92v-66h92zm871 1112h-37v16h-69v-16h-45V355h151z"/></svg>