<svg xmlns="http://www.w3.org/2000/svg" width="400" height="200" viewBox="-517.5 -680 2960 1480"><path fill="currentColor" d="M1629-680v962H296v-962zm0 1011 71 148c34.67 71.333 52 140.333 52 207v114H173V686q0-99 52-207l71-148zm-50-962H346v863h1233zm17 1012H325l-63 135q-40 86-40 139v96h1481v-37c-.01-66.667-15.34-133.333-46-200zM444-429V31q0 69.002 17.5 86 17.5 17.004 87.5 17h824q72 0 90-16.5 18-16.501 18-83.5v-465c0-44.67-6.17-72.67-18.5-84-12.33-11.34-42.17-17.01-89.5-17H549q-70 0-87.5 16.5c-11.668 11-17.501 39.84-17.5 86.5m-43 871h123v49h125v-49h121v49h126v-49h121v49h125v-49h122v49h125v-49h123v49h-122v51h122v48h-123v-48h-125v48h-122v-48h-125v48H896v-48H770v48H649v-48H524v48H401v-48h122v-51H401zm248 98h121v-47H649zm247 0h121v-47H896zm246 0h122v-47h-122zM395 32v-462c0-68 8.333-110.33 25-127s59.667-25 129-25h827c69.33.02 112.33 8.35 129 25 16.67 16.67 25 59 25 127V32q0 101-25.5 126c-25.5 25-59.83 25-128.5 25H549q-103-.006-128.5-25Q395 133 395 32"/></svg>