<svg xmlns="http://www.w3.org/2000/svg" width="400" height="200" viewBox="-887.5 -717 3108 1554"><path fill="currentColor" d="M222-345q-9-7.995-14-12c-23.333-19.34-35-43.67-35-73v-122q0-61.995 51-90 138-75 442-75 305 0 443 75 51 28.005 51 90v122c0 29.33-11.67 53.67-35 73-3.33 2.67-8 6.67-14 12v957q0 104-48 137-131 88-397 88-265 0-396-88-48-33-48-137zm445-113q183 0 313.5-30c130.5-30 130.5-44 130.5-72 0-26.67-47-51.33-141-74s-195.333-34-304-34q-165 0-304.5 34.5C222-599 222-585.66 222-559c0 27.33 43.833 51 131.5 71s192.167 30 313.5 30m-445-37v30c0 111.33 148 167 444 167 296.667 0 445-55.67 445-167v-30q-84 43.005-195.5 64.5C841.166-416.17 758-409 666-409c-91.334-.01-174-7.18-248-21.5Q307-451.995 222-495m50 176v928q0 89 57 118 121 61 337 61 217 0 338-61 57-29 57-118v-928c-22.67 9.33-47.33 18.33-74 27v934l-49 13v-934q-60 10.995-148 21v935h-50v-935q-60.001 3-74 3-13 0-74-3v935h-49v-935q-88-10.005-148-21v934l-49-13v-934q-40-13.005-74-27"/></svg>