<svg xmlns="http://www.w3.org/2000/svg" width="400" height="200" viewBox="-642 -691 3304 1652"><path fill="currentColor" d="M1426 545c0 114.667-40.67 212.667-122 294s-179.33 122-294 122q-173 0-294.5-122C594 717 594 659.667 594 545q0-134 77-241c77-107 117.667-121.667 199-151q-44-50-43-124Q727 4.999 672-84.5 617-174 617-309v-382h786v382c0 195.333-72.33 307.333-217 336v3q-4.995 74-45 120 126 42 204 149 81 110 81 246M1111-10v-656H907v656zm35 43c-20 2-41.34 3-64 3H897q-15.008-.035-29-1 3 71 45 105 48.002-11 97-11c29.34 0 58 3 86 9 28.67-23.333 45.33-58.333 50-105m229 517-88-56 60-86-103-17 23-103-104 24-16-103-86 61-56-90-55 92-86-63-15 106-105-27 28 104-108 16 66 87-94 55 94 54-66 87 107 15-27 105 104-27 16 108 85-65 56 92 55-90 87 63 17-105 103 24-24-102 104-18-61-85z"/></svg>