<svg xmlns="http://www.w3.org/2000/svg" width="400" height="200" viewBox="-499 -717 3108 1554"><path fill="currentColor" d="m74 837 330-507L1779-717c157.33 47.33 243 158.33 257 333L657 663zM1534-468c100.67 53.33 163.33 138 188 254l257-195c-23.33-122.67-86.67-206.33-190-251zM526 298q17-4 28-4 40.002 0 40 38l-1 10 829-635c-22-16.67-43.67-29.67-65-39zm96 82q46.002 11 46 59l833-638c-10-22-24-41.67-42-59zm75 98q19.004 1.004 28 9.5 9 8.5 9 24.5 0 14-13 41l828-633c-8-28.667-16.67-53.667-26-75zM258 643l57 72 311-92q68-60 68-89-.015-12-6.5-17.5-6.508-5.5-20.5-5.5-29 0-100 35 60-57 60-95 0-19-10.5-28.5-10.5-9.502-32.5-9.5-23 0-94 34 63-54 63-95 0-11-6-16.5c-6-5.5-10.333-5.5-19-5.5q-45 0-96 39z"/></svg>