<svg xmlns="http://www.w3.org/2000/svg" width="400" height="200" viewBox="-1060 -717 3108 1554"><path fill="currentColor" d="M674 746q-112 66-256 91-16.001-74-16-144 0-121 64-254h18q123 0 123-373 0-385-123-385h-18c-49.333-85.33-74-169.67-74-253 .001-48.67 8.667-97 26-145 89.333 14.67 174.667 45 256 91 39.333 104.67 68.667 213.83 88 327.5Q791-128 791 57q-.006 190-29 362-29 172-88 327m-293 91h-40q-76 0-105-32.5T207 684q0-245 179-245h38q-63 119-63 254 .001 77 20 144m37-1156h-31c-66.667 0-115-19.17-145-57.5S197-476.67 197-562q0-91.005 30-123c20-21.34 58.333-32.01 115-32h36q-28.002 84-28 150c0 86 22.667 168.67 68 248"/></svg>