<svg xmlns="http://www.w3.org/2000/svg" width="400" height="200" viewBox="-383.5 -643 2812 1406"><path fill="currentColor" d="m858 158-78 46q-117 67-149 110c-32 43-30.333 69.667-27 123l3 41q3 48 3 61-.001 91-68 157-69 67-164 67-94 0-162-68c-68-68-68-99.667-68-163q0-177 231-238l35-10q160-42 219-182l67-42-63-41q-74-147.001-253-196l-49-14c-122.667-34-184-108.67-184-224 0-63.33 22.167-117.17 66.5-161.5C261.833-620.84 316.333-643 381-643c68 0 123.333 23.34 166 70 42.667 46.67 64.001 107.33 64 182v16l-4 41a251 251 0 0 0-2 32q0 120 137 197l116 66q-99 14-99 100 0 83 99 97m0-197 618-382c138-86.67 228.67-130 272-130 48.67 0 91.33 27.34 128 82l21 30-873 500 865 504-19 28c-39.33 60-82.67 90-130 90q-57 0-264-133L858 158q99-11 99-99c0-88-33-91.334-99-98M247-415c0 35.33 12.667 65.67 38 91 25.334 25.33 56 38 92 38s66.5-12.5 91.5-37.5S506-379 506-415s-12.5-66.67-37.5-92c-25-25.34-55.5-38.01-91.5-38-36 0-66.667 12.67-92 38s-38 56-38 92m0 950q0 53 38 91t92 38c54 0 66.5-12.5 91.5-37.5S506 571 506 535s-12.667-66.667-38-92q-38-38-91-38-54 0-92 38c-38 38-38 56-38 92"/></svg>