<svg xmlns="http://www.w3.org/2000/svg" width="400" height="200" viewBox="-601.5 -636 3248 1624"><path fill="currentColor" d="M1339 691q0 123-93 210c-93 87-136.67 87-224 87q-131 0-223.5-87C706 814 706 773 706 691q0-141 117-230v-900q0-82.005 59-139.5c39.333-38.34 86.667-57.51 142-57.5 54.67.01 101.33 19.34 140 58 38.67 38.67 58 85.33 58 140v899q117 89 117 230m-155-10q0-72-60-118V-443c-.01-28-9.85-52-29.5-72-19.67-20-43.5-30-71.5-30-28.001.01-52.168 9.84-72.5 29.5-20.339 19.67-30.505 43.5-30.5 71.5V563q-60 45-60 118 .003 63 47.5 107 47.503 44 114.5 44c44.67 0 82.83-14.667 114.5-44s47.5-65 47.5-107m-90-671v586c30.67 23.333 46 51.667 46 85q0 46-34.5 78.5C1071 792 1054.66 792 1022 792q-49 0-83.5-32.5C904 727 904 711.667 904 681q0-50 47-85V10z"/></svg>