<svg id="Glyph" enable-background="new 0 0 32 32" height="512" viewBox="0 0 32 32" width="512" xmlns="http://www.w3.org/2000/svg"><path d="m28.258 20.768c-.48-.276-1.09-.111-1.366.366l-2.648-1.529c.358-.816.598-1.695.699-2.616.02.001.037.011.057.011h2c.552 0 1-.447 1-1s-.448-1-1-1h-2c-.02 0-.037.01-.057.011-.101-.922-.342-1.8-.699-2.616l2.648-1.529c.186.32.521.5.867.5.169 0 .341-.043.499-.134.478-.276.642-.888.366-1.366l-1-1.732c-.276-.478-.887-.644-1.366-.366-.478.276-.642.888-.366 1.366l-2.655 1.533c-.526-.713-1.153-1.343-1.863-1.873l1.463-2.247c.301-.463.17-1.083-.292-1.384s-1.083-.171-1.383.292l-1.513 2.324c-.825-.368-1.715-.617-2.649-.72v-3.059c.552 0 1-.447 1-1s-.448-1-1-1h-2c-.552 0-1 .447-1 1s.448 1 1 1v3.059c-.934.103-1.824.352-2.649.719l-1.513-2.324c-.301-.463-.921-.593-1.383-.292-.463.301-.594.921-.293 1.384l1.463 2.247c-.71.53-1.337 1.161-1.863 1.873l-2.654-1.532c.276-.479.112-1.09-.366-1.366-.48-.278-1.091-.112-1.367.366l-1 1.732c-.276.479-.112 1.09.366 1.366.158.091.33.134.499.134.346 0 .681-.18.867-.5l2.648 1.529c-.357.816-.599 1.695-.699 2.616-.019-.001-.036-.011-.056-.011h-2c-.552 0-1 .447-1 1s.448 1 1 1h2c.02 0 .037-.01.057-.011.101.922.342 1.8.699 2.616l-2.648 1.529c-.277-.478-.888-.643-1.366-.366-.478.276-.642.888-.366 1.366l1 1.732c.186.32.521.5.867.5.169 0 .341-.043.499-.134.478-.276.642-.888.366-1.366l2.655-1.533c.526.713 1.153 1.343 1.863 1.873l-1.463 2.247c-.301.463-.17 1.083.292 1.384.168.11.357.163.544.163.327 0 .647-.16.839-.454l1.513-2.324c.826.367 1.715.616 2.649.719v3.059c-.552 0-1 .447-1 1s.448 1 1 1h2c.552 0 1-.447 1-1s-.448-1-1-1v-3.059c.934-.103 1.824-.352 2.649-.719l1.513 2.324c.192.294.512.454.839.454.187 0 .376-.053.544-.162.463-.301.594-.921.292-1.384l-1.463-2.247c.71-.53 1.337-1.161 1.863-1.873l2.655 1.533c-.276.479-.112 1.09.366 1.366.158.091.33.134.499.134.346 0 .682-.18.867-.5l1-1.732c.276-.48.112-1.091-.366-1.367zm-16.258-.768c-1.105 0-2-.895-2-2s.895-2 2-2 2 .895 2 2-.895 2-2 2zm4.5-7c-.828 0-1.5-.672-1.5-1.5s.672-1.5 1.5-1.5 1.5.672 1.5 1.5-.672 1.5-1.5 1.5zm1.5 6.5c0-.828.672-1.5 1.5-1.5s1.5.672 1.5 1.5-.672 1.5-1.5 1.5-1.5-.672-1.5-1.5z"/></svg>