<svg xmlns="http://www.w3.org/2000/svg" width="952" height="578.667" version="1.0" viewBox="0 0 714 434"><path d="M5 4.9c0 .5 1.3 6.1 2.9 12.3 5.1 19.6 5.3 27.3 4.9 178.3-.4 152.7-.1 143.9-6.8 156.4-1.7 3-2.8 5.6-2.6 5.9.3.2 18.3.9 40.1 1.4 29.4.8 41.3.8 45.9 0 16-3 29.8-14.4 38-31.4 8.5-17.6 11.8-36.5 11.9-66.8 0-22.8-1.7-36.7-6-50.4-6.4-20.2-14.4-30.3-28.8-35.8-3-1.1-5.5-2.4-5.5-2.7s1.8-1.6 4-2.9c7.4-4.2 14.7-15.3 19.4-29.4 4.7-14 6-24.4 6-48.8 0-25.3-1.3-36.1-6.5-51.4-7.3-22-17.7-32.1-35.4-34.6C77.5 3.8 5 3.7 5 4.9m70.1 24.3C80 32.5 85.4 44 88.2 57c1.9 9.2 2.2 13.6 2.3 35 0 23-.1 25-2.3 32-3.2 10.1-7.7 18.3-12.4 22.5-3.3 3-4.5 3.5-8.8 3.5-2.7 0-6.8-.7-9-1.6l-4-1.6V29.2l6.3-1c9.6-1.5 11.2-1.4 14.8 1m-1.2 154.3c7.3 3.7 15.2 16.6 20.4 33.1 5.9 18.6 7.6 37 5.8 62-3 40.8-11.8 58.3-29.4 58.4-7.8 0-11.3-2-14-7.8-2.2-4.7-2.2-5.4-2.5-73.9l-.3-69.1 5.8-2c7.1-2.5 10.5-2.7 14.2-.7M261.5 29.2c-.7 2.3-4.5 16.8-4.5 17.4 0 .3 1.6-.7 3.6-2.3 2.9-2.1 5-2.8 9.9-3.1l6.3-.4.7 6.7c.4 3.7.5 28.4.3 54.9-.5 50.5-.7 52.8-5.1 56.5-1 .7-1.7 1.7-1.7 2.2s7.7.9 17.2.9h17.1l-2.1-2.3c-1.3-1.3-2.7-3.9-3.2-5.8-.6-2-1-25.6-1-58.3V40.8l6 .4c4.9.3 6.7 1 10.2 3.8 2.3 1.9 3.9 2.7 3.6 1.9-.5-1.3-4.7-15.1-5.4-17.7-.3-.9-6.3-1.2-25.9-1.2s-25.7.3-26 1.2"/><path d="M312.7 60.2c1 8.3 1 82.9 0 89.1l-.8 4.8 10.8-.3c9-.3 10.7-.5 10.4-1.8-.3-.8-.7-12.4-.9-25.8l-.4-24.2h22.3l-.4 23.7c-.2 13.1-.6 24.7-.8 25.8-.4 1.9.2 2 10.9 2.3 9.4.2 11.3 0 11.8-1.3.4-.8-.1-6.6-1-12.8-.8-6.1-1.8-18.6-2.1-27.7-.6-16.7.7-51.6 2-55.8.7-2.2.7-2.2-10.2-2.2h-10.9l.1 17.2v17.3h-21v-14c0-7.7.2-15.4.5-17l.5-3-10.8-.3-10.8-.3zm64.9-3.5c1.1 3.5 1.2 89.8.1 93.5l-.7 2.8h24c13.2 0 24-.1 24-.3 0-.1.6-3.9 1.4-8.5.7-4.5 1.2-8.2 1-8.2s-2.4 1.5-4.8 3.4c-3.4 2.6-6.2 3.7-11.5 4.6-11.4 1.9-10.6 3.5-10.9-19.8L400 104h7.4c4.1 0 8.6.4 10 1l2.6 1V91.4l-10 .4-10 .4V65h9.9c7.7 0 10.1.3 11.1 1.5 1.9 2.3 2.7.8 3.4-6.3l.7-6.2h-48.3zM415 167c-3.6.4-22.8.8-42.7.9-19.9 0-36.4.5-36.7.9-1.2 2-9.8 51.2-9 52 .1.2 1.2-1.6 2.4-4 2.8-5.5 7.5-10.4 12.2-12.9 3.7-1.9 14.5-2.6 19.6-1.3l2.2.6v92.2c0 50.6-.5 96.4-1 101.7-1 10.7-3.3 17.5-8.5 26.2-1.9 3.2-3.5 6-3.5 6.3 0 .2 13.3.4 29.5.4s29.5-.2 29.5-.4-1.6-2.7-3.5-5.6c-3.9-5.7-5.1-9.5-6.5-20.2-.6-4.1-1.3-49-1.7-103.6-.5-82.2-.4-96.5.8-97.3.8-.5 4.5-.9 8.2-.9 10.4 0 16.4 4 23.6 15.5 1.7 2.7 3.1 4.3 3.1 3.5 0-2.7-10.4-55-11-54.8-.3 0-3.4.4-7 .8m224.8 3.9c-7.8 2.5-13.6 6.1-18.5 11.3-14.5 15.8-17.9 38.2-8.8 57.6 5 10.6 11.8 16.9 30.5 28.1 17.4 10.6 24.4 16.7 29.1 25.5 5.7 10.5 5.1 25.9-1.2 34.6-7.8 10.7-25.2 14.9-37 8.9-5-2.5-11.4-10.1-13.3-15.6-2-5.9-2.1-14.7-.1-17.7 1.8-2.7 1-5.6-1.5-5.6-2.9 0-8.1 5-10.3 10-1.3 2.8-2.1 7.2-2.3 11.9-.3 6.8-.6 7.7-3.4 10.6-5.4 5.6-11.8 8.3-24.5 10.5-14.4 2.5-16.8 2.5-18.9.2-1.5-1.7-1.6-5.5-1.4-38.3l.3-36.4 15 .1c11.5 0 15.9.4 18.8 1.7l3.7 1.6v-29.1l-2.2.7c-7 2.1-10.5 2.5-22.5 2.5H558v-50.8l5.8-.6c3.1-.4 11.8-.3 19.2.3l13.4.9 2.8 3.3c1.5 1.8 2.8 2.9 2.8 2.4 0-.6.7-5.7 1.5-11.5s1.5-11.5 1.5-12.8V173h-90.9l2.1 4.7c1.8 4 2.2 7.9 3 29.7.5 13.8.8 45 .6 69.3l-.3 44.2-4 4.1c-6 6.2-12.3 9.8-21 12-11.1 2.8-15.8 2.7-18.4-.6-2.1-2.6-2.1-3.5-2-54.8.1-71.7 1-101.1 3.2-105.3.9-1.8 1.7-3.4 1.7-3.8 0-.3-10-.5-22.1-.5h-22.1l.6 2.2c3.3 11.4 3.8 16.4 4.3 48.8.2 18.4 0 53.5-.5 78-1 43.3-1.5 48.8-4.7 56.2-.7 1.6 4.3 1.7 84.8 1.7h85.5l.5-2.2c.3-1.2 1.1-5.8 1.8-10.2.6-4.4 1.5-8.4 1.9-8.8.3-.4 2 1.4 3.7 4.1 8 12.9 25.1 20.3 43.3 18.7 23.6-2 39.9-11.6 48.3-28.4 5.2-10.3 7-19.9 6.5-33.5-.4-10.4-.7-11.9-3.9-18.7-6.5-13.5-15.3-21.3-39.9-35.3-21.4-12.2-25.5-17.3-25.5-31.6 0-7.2.4-9.2 2.5-13 1.4-2.4 4.5-5.8 6.8-7.5 4-2.7 5.1-3 12.5-3 10.4 0 16.2 2.2 23.4 8.6 2.9 2.7 5.7 4.9 6.1 4.9.6 0 7.2-23.2 7.2-25.3 0-.3-1.3 0-2.9.6-2.6.9-4 .7-9.8-1.8-15.7-6.6-19.1-7.5-30.8-7.4-7.8 0-12.6.5-16.7 1.8M518.7 340.7c-.6 8.1-2.4 15.9-3.4 14.9-.7-.6 2.7-22.6 3.5-22.6.3 0 .2 3.5-.1 7.7"/><path d="M263 173c0 .5.4 1 1 1 .5 0 1.7 1.4 2.6 3.2 2.5 4.8 1.4 13.5-5 41.8-3 13.5-8.3 37.5-11.6 53.5-11.8 56.3-15.8 72.8-18.1 74.9-.8.8-1 .6-.5-.9.3-1.1 1-5.2 1.6-9 .5-3.9 1.3-8.5 1.6-10.4l.5-3.4-6.3 5.7c-3.5 3.1-8.1 6.5-10.3 7.6-4.1 1.9-24.3 6-30.1 6-6.5 0-6.7-1.6-5.8-42.8l.7-34.4 14.6.4c10.2.3 15.7.9 18.3 2.1 2 .8 3.9 1.3 4.2.9.7-.6.8-28.2.1-28.2-.2 0-3 .7-6.2 1.5-3.6 1-10.4 1.5-18.5 1.5H183v-50.9l5.3-.6c2.8-.3 11.2-.2 18.5.3 12.6.9 13.5 1.1 16.3 3.8 1.6 1.5 3 2.6 3.3 2.3.2-.2 1-6.1 1.8-13.2l1.4-12.7h-45.4c-42.9 0-45.4.1-44.7 1.7 4 9.3 4 8.6 3.9 91.3 0 69.2-.2 80.1-1.5 84.5-.9 2.7-1.8 5.7-2 6.5-.4 1.3 7.2 1.5 63 1.8 60.7.3 63.3.2 62.6-1.5-2-5.1-1.2-14.7 3.1-35.6l.6-2.7H285c18.6 0 16.3-2.4 18.1 19.3 1 11.5 1 15.3.1 16.8-.7 1-1.2 2.2-1.2 2.6 0 .5 11 1 24.5 1.1 13.5.2 24.5.1 24.5-.2s-1.3-2.4-2.9-4.8c-7.3-11-12.2-29.6-24.5-92.3-3-15.4-7.4-37-9.6-48-3.2-15.4-4.1-21.6-3.8-26.9.4-6.4.6-7 4.1-10.2 2-1.9 3.7-3.6 3.7-3.9s-12.4-.5-27.5-.5c-17.7 0-27.5.4-27.5 1m27.4 76.5c2.6 16.5 4.9 31 5.1 32.2.5 2.3.4 2.3-10.6 2.3s-11.1 0-10.6-2.3c.3-1.2 2.6-15.3 5.2-31.2 4.8-29.6 5.3-32.1 5.9-31.4.2.2 2.5 13.9 5 30.4"/></svg>