<svg width="1737" height="296" xmlns="http://www.w3.org/2000/svg" xmlns:xlink="http://www.w3.org/1999/xlink" xml:space="preserve" overflow="hidden"><g transform="translate(-828 -738)"><path d="M828.003 1020.23 1089.33 1020.23 1089.33 1034 828 1034ZM838.316 999.581 1079.02 999.581 1079.02 1016.79 838.316 1016.79ZM2521.55 876.019C2516.09 876.019 2511.59 878.008 2508.03 881.987 2504.47 885.965 2502.72 891.369 2502.78 898.198L2540.15 898.198C2539.97 890.953 2538.1 885.446 2534.54 881.675 2530.98 877.904 2526.65 876.019 2521.55 876.019ZM1747.87 876.019C1742.41 876.019 1737.9 878.008 1734.34 881.987 1730.78 885.965 1729.03 891.369 1729.09 898.198L1766.47 898.198C1766.29 890.953 1764.42 885.446 1760.86 881.675 1757.3 877.904 1752.97 876.019 1747.87 876.019ZM1465.91 876.019C1460.45 876.019 1455.94 878.008 1452.38 881.987 1448.82 885.965 1447.07 891.369 1447.13 898.198L1484.5 898.198C1484.33 890.953 1482.46 885.446 1478.9 881.675 1475.34 877.904 1471.01 876.019 1465.91 876.019ZM2372.18 859.006 2398.43 859.006 2416.23 907.283 2421.39 923.405C2422.75 919.308 2423.61 916.606 2423.97 915.3 2424.8 912.628 2425.69 909.955 2426.64 907.283L2444.61 859.006 2470.33 859.006 2432.78 953.6 2410.26 953.6ZM2332.7 859.006 2357.71 859.006 2357.71 953.6 2332.7 953.6ZM2520.04 856.869C2534.1 856.869 2545.19 861.515 2553.32 870.809 2561.45 880.101 2565.33 894.338 2564.98 913.518L2502.33 913.518C2502.51 920.941 2504.53 926.716 2508.38 930.843 2512.24 934.969 2517.04 937.033 2522.8 937.033 2526.71 937.033 2530.01 935.964 2532.68 933.827 2535.35 931.689 2537.36 928.245 2538.73 923.494L2563.64 927.681C2560.44 936.825 2555.38 943.787 2548.47 948.568 2541.56 953.348 2532.91 955.738 2522.53 955.738 2506.1 955.738 2493.94 950.364 2486.05 939.616 2479.82 931.006 2476.7 920.139 2476.7 907.016 2476.7 891.339 2480.8 879.062 2488.98 870.185 2497.17 861.308 2507.52 856.869 2520.04 856.869ZM2163.26 856.869C2174.77 856.869 2183.92 859.348 2190.71 864.306 2197.5 869.264 2202.38 876.821 2205.35 886.975L2180.7 891.429C2179.87 886.5 2177.99 882.788 2175.05 880.294 2172.11 877.801 2168.3 876.554 2163.61 876.554 2157.39 876.554 2152.42 878.706 2148.71 883.011 2145 887.316 2143.15 894.516 2143.15 904.611 2143.15 915.834 2145.03 923.761 2148.8 928.393 2152.57 933.025 2157.62 935.341 2163.97 935.341 2168.72 935.341 2172.6 933.99 2175.63 931.288 2178.65 928.586 2180.79 923.94 2182.04 917.348L2206.6 921.534C2204.04 932.817 2199.15 941.338 2191.91 947.098 2184.68 952.858 2174.98 955.738 2162.81 955.738 2148.99 955.738 2137.97 951.374 2129.76 942.645 2121.54 933.915 2117.43 921.832 2117.43 906.392 2117.43 890.775 2121.55 878.617 2129.8 869.918 2138.05 861.218 2149.2 856.869 2163.26 856.869ZM2094.43 856.869C2100.12 856.869 2105.61 858.442 2110.89 861.589L2103.15 883.412C2098.94 880.681 2095.02 879.315 2091.4 879.315 2087.9 879.315 2084.94 880.28 2082.51 882.209 2080.07 884.139 2078.16 887.628 2076.77 892.675 2075.37 897.723 2074.67 908.293 2074.67 924.385L2074.67 953.6 2049.67 953.6 2049.67 859.006 2072.9 859.006 2072.9 872.456C2076.87 866.102 2080.44 861.916 2083.62 859.897 2086.79 857.878 2090.4 856.869 2094.43 856.869ZM1746.36 856.869C1760.42 856.869 1771.51 861.515 1779.64 870.809 1787.77 880.101 1791.65 894.338 1791.3 913.518L1728.65 913.518C1728.83 920.941 1730.84 926.716 1734.7 930.843 1738.56 934.969 1743.36 937.033 1749.12 937.033 1753.03 937.033 1756.32 935.964 1758.99 933.827 1761.66 931.689 1763.68 928.245 1765.04 923.494L1789.96 927.681C1786.76 936.825 1781.7 943.787 1774.79 948.568 1767.88 953.348 1759.23 955.738 1748.85 955.738 1732.42 955.738 1720.25 950.364 1712.36 939.616 1706.13 931.006 1703.02 920.139 1703.02 907.016 1703.02 891.339 1707.11 879.062 1715.3 870.185 1723.49 861.308 1733.84 856.869 1746.36 856.869ZM1654.48 856.869C1659.99 856.869 1665.04 857.863 1669.6 859.852 1674.17 861.842 1677.63 864.38 1679.97 867.468 1682.31 870.556 1683.94 874.06 1684.86 877.979 1685.78 881.898 1686.24 887.509 1686.24 894.813L1686.24 953.6 1661.24 953.6 1661.24 905.324C1661.24 895.11 1660.7 888.504 1659.64 885.505 1658.57 882.507 1656.83 880.176 1654.43 878.513 1652.03 876.85 1649.14 876.019 1645.75 876.019 1641.42 876.019 1637.54 877.207 1634.1 879.582 1630.66 881.957 1628.3 885.104 1627.02 889.023 1625.75 892.943 1625.11 900.187 1625.11 910.757L1625.11 953.6 1600.1 953.6 1600.1 859.006 1623.33 859.006 1623.33 872.901C1631.58 862.213 1641.96 856.869 1654.48 856.869ZM1571.76 856.869C1577.46 856.869 1582.95 858.442 1588.23 861.589L1580.49 883.412C1576.27 880.681 1572.36 879.315 1568.74 879.315 1565.24 879.315 1562.27 880.28 1559.84 882.209 1557.41 884.139 1555.49 887.628 1554.1 892.675 1552.71 897.723 1552.01 908.293 1552.01 924.385L1552.01 953.6 1527 953.6 1527 859.006 1550.23 859.006 1550.23 872.456C1554.2 866.102 1557.78 861.916 1560.95 859.897 1564.13 857.878 1567.73 856.869 1571.76 856.869ZM1464.39 856.869C1478.45 856.869 1489.55 861.515 1497.67 870.809 1505.8 880.101 1509.69 894.338 1509.33 913.518L1446.68 913.518C1446.86 920.941 1448.88 926.716 1452.73 930.843 1456.59 934.969 1461.4 937.033 1467.15 937.033 1471.07 937.033 1474.36 935.964 1477.03 933.827 1479.7 931.689 1481.72 928.245 1483.08 923.494L1508 927.681C1504.79 936.825 1499.74 943.787 1492.82 948.568 1485.91 953.348 1477.27 955.738 1466.88 955.738 1450.45 955.738 1438.29 950.364 1430.4 939.616 1424.17 931.006 1421.06 920.139 1421.06 907.016 1421.06 891.339 1425.15 879.062 1433.34 870.185 1441.52 861.308 1451.87 856.869 1464.39 856.869ZM1310.62 856.869C1316.13 856.869 1321.18 857.863 1325.74 859.852 1330.31 861.842 1333.77 864.38 1336.11 867.468 1338.45 870.556 1340.09 874.06 1341.01 877.979 1341.92 881.898 1342.38 887.509 1342.38 894.813L1342.38 953.6 1317.38 953.6 1317.38 905.324C1317.38 895.11 1316.85 888.504 1315.78 885.505 1314.71 882.507 1312.97 880.176 1310.57 878.513 1308.17 876.85 1305.28 876.019 1301.9 876.019 1297.56 876.019 1293.68 877.207 1290.24 879.582 1286.8 881.957 1284.44 885.104 1283.16 889.023 1281.89 892.943 1281.25 900.187 1281.25 910.757L1281.25 953.6 1256.25 953.6 1256.25 859.006 1279.47 859.006 1279.47 872.901C1287.72 862.213 1298.1 856.869 1310.62 856.869ZM1974.86 853.484 1957.24 901.939 1992.83 901.939ZM1836.29 825.605 1836.29 859.006 1853.37 859.006 1853.37 878.958 1836.29 878.958 1836.29 917.081C1836.29 924.801 1836.45 929.299 1836.78 930.575 1837.1 931.852 1837.84 932.906 1839 933.737 1840.16 934.569 1841.57 934.984 1843.23 934.984 1845.54 934.984 1848.89 934.183 1853.28 932.58L1855.42 951.997C1849.61 954.491 1843.02 955.738 1835.66 955.738 1831.16 955.738 1827.09 954.981 1823.47 953.467 1819.85 951.953 1817.2 949.993 1815.51 947.588 1813.82 945.183 1812.65 941.932 1811.99 937.835 1811.46 934.925 1811.19 929.046 1811.19 920.199L1811.19 878.958 1799.71 878.958 1799.71 859.006 1811.19 859.006 1811.19 840.212ZM1392.71 825.605 1392.71 859.006 1409.79 859.006 1409.79 878.958 1392.71 878.958 1392.71 917.081C1392.71 924.801 1392.87 929.299 1393.2 930.575 1393.52 931.852 1394.27 932.906 1395.42 933.737 1396.58 934.569 1397.99 934.984 1399.65 934.984 1401.96 934.984 1405.32 934.183 1409.71 932.58L1411.84 951.997C1406.03 954.491 1399.44 955.738 1392.09 955.738 1387.58 955.738 1383.51 954.981 1379.9 953.467 1376.28 951.953 1373.62 949.993 1371.93 947.588 1370.24 945.183 1369.07 941.932 1368.42 937.835 1367.88 934.925 1367.61 929.046 1367.61 920.199L1367.61 878.958 1356.14 878.958 1356.14 859.006 1367.61 859.006 1367.61 840.212ZM2332.7 823.021 2357.71 823.021 2357.71 846.18 2332.7 846.18ZM2222.58 823.021 2247.58 823.021 2247.58 871.031C2255.65 861.589 2265.29 856.869 2276.5 856.869 2282.26 856.869 2287.45 857.938 2292.08 860.075 2296.7 862.213 2300.19 864.945 2302.53 868.27 2304.88 871.595 2306.48 875.277 2307.34 879.315 2308.2 883.352 2308.63 889.617 2308.63 898.109L2308.63 953.6 2283.62 953.6 2283.62 903.631C2283.62 893.714 2283.15 887.42 2282.2 884.748 2281.25 882.076 2279.57 879.953 2277.17 878.38 2274.77 876.806 2271.76 876.019 2268.14 876.019 2263.99 876.019 2260.28 877.028 2257.02 879.047 2253.75 881.067 2251.36 884.11 2249.85 888.177 2248.34 892.245 2247.58 898.257 2247.58 906.214L2247.58 953.6 2222.58 953.6ZM1961.24 823.021 1989.09 823.021 2041.33 953.6 2012.67 953.6 2001.28 923.94 1949.14 923.94 1938.37 953.6 1910.43 953.6ZM1204.22 823.021 1230.56 823.021 1230.56 953.6 1204.22 953.6ZM1053.81 813.721 1069.84 813.721 1072.71 815.173 1074.15 838.383 1075.58 876.098 1075.58 912.369 1074.15 957.583 1073.91 988.043 1069.84 989.256 1055.49 989.256 1051.18 988.043 1049.5 957.583 1048.07 912.611 1048.07 876.342 1049.5 838.383 1050.82 815.047ZM988.478 813.721 1004.5 813.721 1007.37 815.173 1008.81 838.383 1010.25 876.098 1010.25 912.369 1008.81 957.583 1008.57 988.043 1004.5 989.256 990.151 989.256 985.845 988.043 984.17 957.583 982.737 912.611 982.737 876.342 984.17 838.383 985.488 815.047ZM909.388 813.721 925.416 813.721 928.286 815.173 929.722 838.383 931.158 876.098 931.158 912.369 929.722 957.583 929.486 988.043 925.416 989.256 911.063 989.256 906.755 988.043 905.082 957.583 903.649 912.611 903.649 876.342 905.082 838.383 906.401 815.047ZM847.498 813.721 863.522 813.721 866.391 815.173 867.827 838.383 869.263 876.098 869.263 912.369 867.827 957.583 867.588 988.043 863.522 989.256 849.171 989.256 844.865 988.043 843.193 957.583 841.754 912.611 841.754 876.342 843.193 838.383 844.506 815.047ZM838.316 782.744 1079.02 782.744 1079.02 806.837 838.316 806.837ZM956.19 738 1082.46 766.942 1077.39 775.861 835.565 775.861 828 768.628Z" fill-rule="evenodd"/></g></svg>