<svg width="2090" height="2471" xmlns="http://www.w3.org/2000/svg" xmlns:xlink="http://www.w3.org/1999/xlink" xml:space="preserve" overflow="hidden"><defs><clipPath id="clip0"><rect x="1317" y="164" width="2090" height="2471"/></clipPath></defs><g clip-path="url(#clip0)" transform="translate(-1317 -164)"><path d="M2327.76 2620.08C1907.91 2331.73 1541.58 1929.38 1385.81 1436.17 1288.5 1144.14 1325.32 834.024 1318 532.066 1318 409.377 1318 286.689 1318 164 2014.34 164 2710.67 164 3407 164 3404.31 486.983 3411.19 810.244 3400.02 1133 3354.34 1641.03 3045.65 2088.16 2664.34 2409.84 2566.15 2492.21 2463.59 2570.55 2352.68 2635L2344.53 2630.62 2327.76 2620.08 2327.76 2620.08ZM2393.8 2550.22C2820.4 2260.56 3193.5 1843.25 3316.45 1331.23 3377.83 1076.18 3348.54 812.038 3356.12 552.399 3356.34 439.685 3356.55 326.972 3356.77 214.258 2693.93 214.258 2031.08 214.258 1368.24 214.258 1370.07 513.885 1363.52 813.781 1373.16 1113.2 1416.72 1614.65 1724.61 2051.19 2093.31 2375.23 2187.95 2425.44 2285.19 2598.86 2393.8 2550.22L2393.8 2550.22ZM1865.91 1223.56C1759.44 1150.3 1619.89 1227.8 1505.43 1180.81 1478.4 962.283 1494.47 787.938 1493.29 528.125 1562.36 478.927 1655.89 488.028 1744.41 489.416 1808.71 486.906 1868.13 512.751 1928.49 487.517 2009.51 490.012 2082.91 471.35 2158.02 484.724 2257.5 528.864 2246.11 604.401 2253.55 717.041 2243.3 868.193 2249.09 915.798 2244.92 1040.08 2223.83 1191.41 2120.88 1191.6 2021.23 1188.58 1954.67 1173.42 1921.83 1211.05 1865.91 1223.56ZM1888.48 1187.03C1951.06 1122.81 1815.33 1093.01 1851.88 1177.84 1861.03 1186.73 1875.93 1194.6 1888.48 1187.03ZM1811.68 1158.46C1797.74 1091.13 1610.26 1171.9 1550.95 1113.04 1536.46 929.128 1545.02 743.864 1547.28 559.549 1481.75 622.073 1519.66 933.994 1515.56 1039.94 1521.55 1125.25 1538.4 1183.48 1632.11 1158.4 1691.79 1157.46 1752.48 1162.34 1811.68 1158.46ZM2059.97 1155.46C2166.24 1175.92 2216.29 1143.73 2205.53 1032.3 2227.96 928.99 2220.98 744.794 2221.99 633.163 2187.76 574.32 2221.81 554.953 2179.56 538.838 2191.87 724.739 2184.65 911.7 2182.54 1097.95 2141.46 1179.6 1961.08 1091.25 1931.77 1154.17 1974.27 1161.26 2017.19 1154.65 2059.97 1155.46ZM1834.9 1112.75C1796.72 1060.77 1659.73 1087.07 1598.24 1084.22 1590.47 1147.82 1785.81 1099.34 1834.9 1112.75ZM2047.53 1113.43C2102.34 1134.58 2205.2 1089.15 2107.36 1070.81 2054.66 1108.51 1903.72 1048.68 1904.62 1112.83 1950.72 1120.12 2000.35 1111.36 2047.53 1113.43ZM1581.65 1084.08C1618.83 979.127 1587.52 856.074 1598.06 743.865 1584.76 684.9 1626.41 549.906 1579.67 535.843 1546.42 643.556 1573.49 764.893 1564.35 877.73 1576.23 933.198 1542.42 1063.97 1581.65 1084.08ZM2163.29 1070.02C2168.04 898.983 2165.53 727.76 2166.71 556.638 2129.67 479.539 2125.92 561.652 2130.8 600.805 2132.01 747.276 2124.83 894.436 2133.23 1040.37 2136.79 1048.02 2148.57 1079.9 2163.29 1070.02ZM1850.58 1065.93C1842.92 893.507 1863.2 717.909 1846.3 545.565 1793.25 511.739 1667.07 516.15 1622.79 529.231 1618.64 700.959 1621.41 872.765 1623.29 1044.51 1690.36 1075.01 1779.73 1055.11 1850.58 1065.93ZM1927.06 1062.15C2012.13 1064.06 2150.3 1081.12 2108.3 950.151 2105.6 803.625 2113.79 656.325 2107.42 510.331 2030.6 541.733 1847.64 474.431 1875.13 618.488 1869.54 765.669 1873.75 916.448 1875.08 1061.27 1887.81 1074.4 1911.67 1058.17 1927.06 1062.15Z" fill-rule="evenodd"/><path d="M2849.33 1224C2742.85 1150.72 2603.29 1228.24 2488.82 1181.23 2461.79 962.623 2477.86 788.209 2476.68 528.294 2545.75 479.076 2639.29 488.181 2727.82 489.569 2792.13 487.058 2851.55 512.914 2911.91 487.67 2992.94 490.166 3066.35 471.496 3141.47 484.875 3240.96 529.033 3229.56 604.599 3237 717.285 3226.75 868.496 3232.54 916.12 3228.37 1040.45 3207.29 1191.84 3104.33 1192.03 3004.66 1189.01 2938.09 1173.84 2905.26 1211.49 2849.33 1224ZM2871.9 1187.46C2934.49 1123.21 2798.75 1093.4 2835.3 1178.27 2844.45 1187.16 2859.35 1195.03 2871.9 1187.46ZM2795.09 1158.88C2781.16 1091.52 2593.66 1172.32 2534.35 1113.44 2519.86 929.455 2528.41 744.118 2530.67 559.73 2465.14 622.278 2503.05 934.323 2498.95 1040.31 2504.94 1125.65 2521.8 1183.91 2615.51 1158.81 2675.2 1157.88 2735.89 1162.76 2795.09 1158.88ZM3043.4 1155.87C3149.68 1176.35 3199.74 1144.15 3188.98 1032.67 3211.41 929.317 3204.43 745.048 3205.44 633.373 3171.21 574.507 3205.26 555.132 3163.01 539.011 3175.32 724.985 3168.1 912.02 3165.99 1098.35 3124.91 1180.02 2944.51 1091.64 2915.2 1154.58 2957.7 1161.68 3000.62 1155.07 3043.4 1155.87ZM2818.31 1113.15C2780.13 1061.15 2643.13 1087.46 2581.63 1084.61 2573.87 1148.23 2769.22 1099.74 2818.31 1113.15ZM3030.97 1113.83C3085.78 1134.98 3188.65 1089.54 3090.8 1071.19 3038.09 1108.91 2887.14 1049.06 2888.04 1113.23 2934.15 1120.52 2983.78 1111.76 3030.97 1113.83ZM2565.05 1084.47C2602.23 979.473 2570.92 856.372 2581.46 744.119 2568.16 685.131 2609.81 550.084 2563.07 536.014 2529.81 643.77 2556.88 765.155 2547.75 878.037 2559.62 933.526 2525.82 1064.35 2565.05 1084.47ZM3146.73 1070.41C3151.49 899.298 3148.97 728.007 3150.15 556.818 3113.12 479.689 3109.36 561.834 3114.24 601.003 3115.45 747.531 3108.28 894.75 3116.68 1040.74 3120.24 1048.4 3132.02 1080.29 3146.73 1070.41ZM2834 1066.31C2826.34 893.82 2846.62 718.153 2829.72 545.74 2776.67 511.901 2650.47 516.314 2606.19 529.4 2602.04 701.196 2604.81 873.07 2606.69 1044.89 2673.77 1075.39 2763.14 1055.49 2834 1066.31ZM2910.49 1062.53C2995.57 1064.44 3133.75 1081.51 3091.74 950.486 3089.04 803.902 3097.24 656.544 3090.86 510.492 3014.04 541.907 2831.06 474.579 2858.55 618.692 2852.96 765.931 2857.18 916.771 2858.5 1061.65 2871.23 1074.78 2895.09 1058.55 2910.49 1062.53Z" fill-rule="evenodd"/><path d="M2359.33 2254C2252.85 2180.82 2113.29 2258.24 1998.82 2211.29 1971.79 1992.98 1987.86 1818.8 1986.68 1559.23 2055.75 1510.08 2149.29 1519.17 2237.82 1520.56 2302.13 1518.05 2361.55 1543.87 2421.91 1518.66 2502.94 1521.15 2576.35 1502.51 2651.47 1515.87 2750.96 1559.97 2739.56 1635.43 2747 1747.97 2736.75 1898.97 2742.54 1946.53 2738.37 2070.7 2717.29 2221.88 2614.33 2222.08 2514.66 2219.06 2448.09 2203.91 2415.26 2241.51 2359.33 2254ZM2381.9 2217.51C2444.49 2153.35 2308.75 2123.58 2345.3 2208.33 2354.45 2217.21 2369.35 2225.07 2381.9 2217.51ZM2305.09 2188.97C2291.16 2121.69 2103.66 2202.39 2044.35 2143.59 2029.86 1959.85 2038.41 1774.76 2040.67 1590.62 1975.14 1653.09 2013.05 1964.71 2008.95 2070.56 2014.94 2155.78 2031.8 2213.96 2125.51 2188.9 2185.2 2187.97 2245.89 2192.84 2305.09 2188.97ZM2553.4 2185.96C2659.68 2206.41 2709.74 2174.25 2698.98 2062.93 2721.41 1959.71 2714.43 1775.69 2715.44 1664.17 2681.21 1605.38 2715.26 1586.03 2673.01 1569.93 2685.32 1755.66 2678.1 1942.44 2675.99 2128.52 2634.91 2210.08 2454.51 2121.82 2425.2 2184.68 2467.7 2191.76 2510.62 2185.16 2553.4 2185.96ZM2328.31 2143.3C2290.13 2091.37 2153.13 2117.65 2091.63 2114.79 2083.87 2178.33 2279.22 2129.9 2328.31 2143.3ZM2540.97 2143.98C2595.78 2165.1 2698.65 2119.72 2600.8 2101.4 2548.09 2139.07 2397.14 2079.29 2398.04 2143.38 2444.15 2150.66 2493.78 2141.91 2540.97 2143.98ZM2075.05 2114.66C2112.23 2009.8 2080.92 1886.87 2091.46 1774.76 2078.16 1715.86 2119.81 1580.99 2073.07 1566.94 2039.82 1674.55 2066.88 1795.77 2057.75 1908.5 2069.62 1963.92 2035.82 2094.56 2075.05 2114.66ZM2656.73 2100.61C2661.49 1929.73 2658.97 1758.67 2660.15 1587.71 2623.12 1510.69 2619.36 1592.72 2624.24 1631.84 2625.45 1778.17 2618.28 1925.19 2626.68 2070.98 2630.24 2078.63 2642.02 2110.48 2656.73 2100.61ZM2344 2096.52C2336.34 1924.26 2356.62 1748.83 2339.72 1576.65 2286.67 1542.86 2160.47 1547.27 2116.19 1560.33 2112.04 1731.9 2114.81 1903.54 2116.69 2075.13 2183.77 2105.59 2273.14 2085.72 2344 2096.52ZM2420.49 2092.75C2505.57 2094.65 2643.75 2111.7 2601.74 1980.85 2599.04 1834.47 2607.24 1687.31 2600.86 1541.45 2524.04 1572.82 2341.06 1505.59 2368.55 1649.51 2362.96 1796.55 2367.18 1947.18 2368.5 2091.87 2381.23 2104.98 2405.09 2088.77 2420.49 2092.75Z" fill-rule="evenodd"/><path d="M1618.48 1109.8C1607.1 1105.27 1596.82 1093.15 1600.92 1089.11 1602.66 1087.4 1644.65 1086 1694.23 1086 1781.11 1086 1785.17 1086.38 1806.19 1096.53L1828 1107.06 1784.38 1109.97C1722.66 1114.08 1628.98 1113.99 1618.48 1109.8L1618.48 1109.8Z" stroke="#FFFFFF" stroke-width="4.35633" stroke-miterlimit="8" fill="#FFFFFF" fill-rule="evenodd"/></g></svg>