<svg width="2439" height="2439" xmlns="http://www.w3.org/2000/svg" xmlns:xlink="http://www.w3.org/1999/xlink" xml:space="preserve" overflow="hidden"><g transform="translate(286 154)"><path d="M1093.74 2206.56 1070.81 2232.54 1090.49 2211.41ZM644.821 2181.07 613.684 2196.31 639.969 2184.31ZM1112.71 2174.21 1099.57 2197.82 1107.06 2186.63ZM753.886 2174.21 759.545 2186.63 767.03 2197.83ZM1191.88 2158.48 1201.86 2167.79 1213.06 2175.27ZM674.728 2158.46 653.558 2175.24 664.75 2167.76ZM1128.81 2126.21 1117.34 2164.05 1119.99 2158.23ZM707.968 2120.27 682.892 2150.84 687.57 2146.48ZM1518.78 2056.71 1507 2091.09 1518.38 2059.3ZM1523.64 2018.97 1520.67 2044.72 1523.83 2024.61ZM342.966 2018.94 342.784 2024.59 345.945 2044.71ZM1625.11 1985.67 1627.67 1986.29 1661.4 1987.94ZM241.521 1985.64 205.244 1987.91 238.968 1986.25ZM1520.63 1978.18 1523.15 2003.64 1522.62 1987.34ZM345.978 1978.15 343.987 1987.32 343.461 2003.63ZM1588.39 1975.72 1593.54 1978.05 1613.33 1982.83ZM278.248 1975.68 253.31 1982.79 273.1 1978.01ZM1551.85 1957.33 1559.56 1962.67 1574.43 1969.4ZM314.784 1957.29 292.213 1969.36 307.074 1962.64ZM1853.59 1757.2 1855.86 1793.47 1854.2 1759.75ZM1843.64 1720.47 1850.74 1745.4 1845.96 1725.62ZM23.0016 1720.44 20.6711 1725.59 15.8934 1745.38ZM1825.24 1683.94 1837.31 1706.5 1830.59 1691.65ZM41.3954 1683.9 36.0466 1691.61 29.3193 1706.48ZM1912.66 1652.76 1886.9 1655.74 1892.55 1655.92ZM-46.0002 1652.73-25.8864 1655.89-20.2384 1655.71ZM1846.1 1652.73 1855.27 1654.72 1871.58 1655.24ZM20.5555 1652.7-4.91949 1655.22 11.3854 1654.69ZM1959.03 1639.09 1924.64 1650.88 1927.23 1650.47ZM2049.03 1353.88 2064.27 1385.01 2052.27 1358.73ZM2026.41 1323.98 2043.19 1345.14 2035.72 1333.95ZM-159.748 1323.94-169.06 1333.93-176.539 1345.13ZM1988.23 1290.74 2018.8 1315.81 2014.43 1311.13ZM2032.01 1249.42 1994.16 1260.89 2026.18 1252.08ZM-165.337 1249.42-159.512 1252.08C-149.441 1255.73-138.766 1258.7-127.487 1260.89L-127.487 1260.89ZM2065.77 1231.66 2042.16 1244.8 2054.58 1239.14ZM-199.106 1231.66-187.912 1239.14-175.488 1244.8ZM2100.5 1202.89 2074.51 1225.82 2079.36 1222.58ZM2074.51 904.951 2100.5 927.877 2079.36 908.193ZM933.336 902.886C1000.65 902.886 1058.4 943.81 1083.07 1002.13L1089.22 1021.96 1092.53 1032.64 1092.55 1032.81 1095.84 1065.39C1095.84 1076.6 1094.7 1087.56 1092.53 1098.14L1085.55 1120.63 1083.07 1128.64 1082.1 1130.42 1068.08 1156.24 1055.59 1171.39 1048.24 1180.29C1033.54 1194.99 1016.03 1206.89 996.589 1215.12L988.046 1217.77 966.086 1224.58C955.507 1226.75 944.555 1227.89 933.336 1227.89 910.9 1227.89 889.525 1223.34 870.084 1215.12L869.017 1214.54 842.481 1200.13C799.256 1170.93 770.836 1121.48 770.836 1065.39 770.836 1042.95 775.383 1021.57 783.606 1002.13L798.494 974.705 798.589 974.53C827.791 931.305 877.245 902.885 933.336 902.886ZM2042.16 885.975 2065.77 899.112 2054.58 891.631ZM-175.489 885.972-187.911 891.631-199.105 899.114ZM-127.487 869.878-127.487 869.878C-138.766 872.075-149.441 875.042-159.512 878.694L-165.337 881.348ZM1980.13 868.574 1994.16 869.878 2032.01 881.347 2026.18 878.695C2016.11 875.042 2005.44 872.075 1994.16 869.878ZM2014.43 819.644 1985.83 841.298 1988.22 840.04ZM2037.27 794.504 2014.44 819.629 2035.72 796.819ZM2054.54 767.058 2043.19 785.628 2052.27 772.037ZM2065.86 739.478 2059.55 756.101 2064.27 745.75ZM1954.6 490.096 1967.34 496.635 1959.04 491.683ZM-56.5408 479.806-67.6412 482.292-78.2931 486.307ZM1922.41 479.545 1938.83 484.451 1927.23 480.303ZM1871.58 475.529 1855.27 476.055 1846.11 478.045ZM1892.55 474.852 1887.37 475.019 1905.21 476.842ZM-15.4816 474.51 23.5486 478.366 16.9036 476.838ZM-15.493 474.51-42.3309 476.624-47.4987 477.781ZM1831.62 436.842 1825.25 446.824 1830.59 439.124ZM26.9359 419.541 29.7012 427.079 31.5263 430.06ZM15.3937 384.527 16.2989 390.544 18.3815 396.221ZM1854.61 362.8 1853.68 373.168 1854.2 371.018ZM10.9725 350.942 10.8171 354.101 11.8854 361.202ZM1854.92 330.888 1855.65 341.457 1855.86 337.282ZM292.215 161.407 314.784 173.479 307.074 168.132ZM1574.43 161.37 1559.56 168.097 1551.85 173.445ZM253.316 147.982 278.247 155.086 273.1 152.757ZM1613.33 147.945 1593.54 152.721 1588.39 155.051ZM205.249 142.864 241.519 145.134 238.968 144.519ZM1661.4 142.828 1627.67 144.483 1625.12 145.099ZM1522.8 137.947 1522.15 145.612 1522.62 143.428ZM343.198 130.744 343.133 135.264 343.965 139.777ZM1523.22 102.325 1523.66 111.321 1523.83 106.156ZM343.696 95.9855 343.694 95.994 343.694 96.0025 343.694 95.9939ZM353.315 56.034 351.656 59.7897 350.797 63.6981ZM1504.86 36.0939 1508.18 42.9848 1507 39.6679ZM1165.59 1.55692 1158.64 10.4836 1156.45 14.6282ZM683.472-19.1434 691.422-10.8882 689.369-13.7113ZM1186.81-22.9739 1179.04-15.7298 1175.72-11.4651ZM1117.34-33.284 1128.8 4.55043 1119.99-27.4619ZM1210.28-42.6439 1201.86-37.0172 1198.14-33.5511ZM655.537-43.2102 665.188-35.9826 660.745-40.0744ZM1235.57-57.6434 1226.64-53.5676 1222.6-50.8687ZM626.2-60.1492 635.316-55.3864 629.173-59.0856ZM1099.57-67.0511 1112.71-43.4443 1107.06-55.8616ZM767.029-67.0559 759.546-55.8617 753.887-43.4397ZM1259.2-67.1565 1252.93-65.5702 1248.63-63.6089ZM1070.81-101.776 1093.74-75.7856 1090.49-80.6358ZM933.3-153.347C970.801-153.347 1008.3-143.679 1040.53-124.343L1049.1-117.952 1049.84-118.335C1076.39-129.641 1105.17-134.727 1133.85-134.053 1186.53-132.815 1238.89-112.148 1276.55-74.9119L1278.56-72.4451 1298.85-75.9824C1308.18-76.9125 1317.56-77.1687 1326.91-76.7828 1389.27-74.2088 1450.37-43.0864 1487.66 7.24136L1494.09 17.1427 1505.13 16.5747C1579.04 20.1712 1649.12 66.2812 1681.91 132.548L1687.51 145.975 1689.59 146.226C1763.49 160.883 1826.21 219.043 1847.91 290.875L1852.43 311.075 1871.36 319.451C1937.58 354.748 1982.39 427.607 1982.35 502.951L1982.2 504.849 2005.98 522.898C2054.69 566.815 2081.2 634.498 2074.69 699.833L2070.9 720.07 2088.81 739.445C2129.25 791.48 2143.16 863.223 2124.95 926.58L2116.32 949.109 2123.06 958.159C2161.74 1022.61 2161.74 1108.16 2123.06 1172.61L2116.38 1181.58 2125.38 1205.74C2143 1268.95 2128.82 1340.25 2088.35 1391.9L2070.79 1410.78 2073.53 1421.62C2084.59 1495.97 2051.86 1575 1991.46 1619.75L1981.72 1625.56 1982.15 1625.31 1980.13 1657.05C1969.95 1724.2 1925.43 1785.57 1864.04 1815.03L1852.06 1819.5 1850.4 1830.85C1832.17 1903.77 1771.68 1964.26 1698.76 1982.49L1687.41 1984.15 1682.94 1996.11C1653.48 2057.51 1592.11 2102.03 1524.96 2112.21L1493.21 2114.22 1487.66 2123.53C1435.45 2193.99 1336.58 2226.8 1252.93 2196.34L1221.79 2181.1 1226.64 2184.34C1235.18 2189.09 1243.97 2193.08 1252.93 2196.34L1278.68 2202.85 1259.81 2220.41C1208.16 2260.88 1136.86 2275.06 1073.65 2257.44L1049.49 2248.44 1040.53 2255.11C965.332 2300.23 861.426 2292.71 795.801 2232.55L772.862 2206.55 776.107 2211.41C782.177 2219.06 788.769 2226.11 795.8 2232.56L817.1 2248.43 792.952 2257.43C729.742 2275.04 658.448 2260.86 606.79 2220.4L587.915 2202.83 577.08 2205.57C490.343 2218.48 397.224 2171.77 359.615 2091.08L347.827 2056.68 348.234 2059.28C351.08 2070.37 354.914 2080.99 359.615 2091.08L373.396 2114.19 341.664 2112.18C274.51 2101.99 213.146 2057.48 183.683 1996.08L179.215 1984.11 198.744 1986.96 167.874 1982.45C82.8 1961.18 14.6442 1882.4 10.7775 1793.45L13.0497 1757.16 12.433 1759.72C10.8148 1771.06 10.2937 1782.34 10.7771 1793.45L14.575 1819.46 2.61356 1815C-58.7841 1785.53-103.298 1724.17-113.484 1657.02L-115.496 1625.28-92.3752 1639.06C-82.2889 1643.76-71.6716 1647.6-60.5733 1650.44L-57.978 1650.85-92.3749 1639.06C-184.593 1596.08-232.428 1480.6-197.613 1385L-182.368 1353.85-185.61 1358.71C-190.359 1367.25-194.349 1376.03-197.613 1385L-204.128 1410.76-221.686 1391.89C-262.149 1340.23-276.331 1268.94-258.716 1205.73L-249.712 1181.58-233.835 1202.89C-227.389 1209.92-220.339 1216.51-212.686 1222.58L-207.832 1225.82-233.834 1202.89C-302.584 1127.89-302.584 1002.89-233.834 927.886L-207.833 904.948-212.686 908.193C-220.34 914.263-227.389 920.855-233.834 927.886L-249.713 949.194-258.716 925.043C-276.33 861.833-262.149 790.539-221.686 738.881L-204.231 720.126-201.968 732.209C-190.089 774.762-162.734 814.336-116.698 843.198L-81.9959 860.983-83.0009 865.744-79.1467 865.386 761.591 1031.46 758.171 1065.39 761.591 1099.31-79.1468 1265.39-94.8127 1263.93-83.0014 1265.03-81.9865 1269.83-121.559 1290.71C-131.139 1297.05-139.866 1303.88-147.773 1311.11L-152.139 1315.79-121.559 1290.71C-108.786 1282.24-94.4971 1274.63-78.6179 1268.06L761.636 1099.76 761.73 1100.69C764.063 1112.09 767.504 1123.09 771.937 1133.57L787.618 1162.46 74.4553 1637.61 71.2031 1638.78 73.6172 1642.45 59.1146 1658.35 59.1124 1658.35 59.115 1658.35C64.2765 1652.12 69.887 1645.96 75.9639 1639.88L787.833 1162.85 788.086 1163.32C800.678 1181.96 816.762 1198.04 835.399 1210.63L835.824 1210.87 358.806 1922.72 356.226 1925.08 359.896 1927.49 352.571 1947.76 352.57 1947.77 352.571 1947.76C354.955 1940.03 357.78 1932.19 361.069 1924.25L836.222 1211.08 865.154 1226.79C875.632 1231.22 886.631 1234.66 898.034 1236.99L898.916 1237.08 730.621 2077.32 728.84 2080.7 733.658 2081.71 737.792 2126.21C739.99 2137.49 742.956 2148.16 746.609 2158.23L749.263 2164.06 737.793 2126.21C734.863 2111.17 733.3 2095.05 733.3 2077.87L899.373 1237.13 933.336 1240.55 967.229 1237.13 1133.3 2077.87 1132.94 2081.73 1137.76 2080.71 1158.64 2120.29C1164.98 2129.87 1171.81 2138.59 1179.04 2146.5L1183.72 2150.87 1158.64 2120.29C1150.18 2107.51 1142.57 2093.23 1135.99 2077.35L967.69 1237.09 968.638 1236.99C980.04 1234.66 991.04 1231.22 1001.52 1226.78L1030.39 1211.11 1505.54 1924.27 1506.72 1927.53 1510.4 1925.1 1526.3 1939.61 1526.3 1939.61 1507.83 1922.76 1030.8 1210.89 1031.27 1210.63C1049.91 1198.04 1065.99 1181.96 1078.59 1163.32L1078.82 1162.9 1790.67 1639.91 1793.03 1642.49 1795.45 1638.81 1815.72 1646.13 1815.73 1646.13 1815.72 1646.13C1807.99 1643.75 1800.15 1640.92 1792.21 1637.63L1079.04 1162.48 1094.74 1133.57C1099.17 1123.09 1102.61 1112.09 1104.94 1100.69L1105.03 1099.79 1945.28 1268.08 1948.65 1269.86 1949.67 1265.03 1994.16 1260.89 1994.16 1260.89 1945.82 1265.39 1105.08 1099.31 1108.5 1065.39 1105.08 1031.46 1945.82 865.386 1949.67 865.744 1948.66 860.955 1945.28 862.689 1105.03 1030.99 1104.94 1030.08C1102.61 1018.68 1099.17 1007.68 1094.74 997.203L1079.04 968.289 1792.21 493.137 1795.45 491.963 1793.03 488.276 1807.52 472.384 1810.55 468.023 1790.67 490.856 1078.82 967.874 1078.59 967.449C1065.99 948.811 1049.91 932.727 1031.27 920.136L1030.8 919.882 1507.83 208.014C1513.91 201.937 1520.07 196.326 1526.3 191.164L1526.31 191.16 1526.3 191.165 1510.4 205.667 1506.72 203.243 1514.04 182.984 1514.55 180.647 1505.54 206.498 1030.39 919.659 1001.52 903.986C991.04 899.554 980.04 896.113 968.638 893.779L967.691 893.684 1135.99 53.4246 1137.67 50.0406 1132.94 49.0417 1133.3 52.9027 967.23 893.638 933.336 890.22 899.373 893.644 733.301 52.9028C733.3 35.7152 734.863 19.6023 737.792 4.56305L749.262-33.2868 746.609-27.4619C742.956-17.3912 739.99-6.71606 737.792 4.56305L733.657 49.0569 728.931 50.0544 730.621 53.4493 898.917 893.69 898.034 893.779C886.631 896.113 875.632 899.554 865.154 903.986L836.223 919.689 361.069 206.523C356.958 196.598 353.572 186.828 350.866 177.23L350.864 177.219 350.866 177.23 359.931 203.257 356.227 205.696 358.806 208.049 835.824 919.906 835.399 920.136C816.762 932.728 800.678 948.811 788.087 967.449L787.833 967.917 75.9638 490.891C66.8488 481.776 58.7826 472.467 51.7067 463.022L51.6988 463.01 51.7064 463.022 73.6635 488.249 71.2036 491.987 74.4553 493.162 787.618 968.312 771.937 997.203C767.505 1007.68 764.063 1018.68 761.73 1030.08L761.636 1031.01-78.6178 862.714C-259.243 787.896-234.087 579.486-113.158 503.065L-86.6407 489.454-91.2925 491.208C-98.8858 494.687-106.181 498.656-113.158 503.065L-115.485 504.832-114.241 479.268C-106.103 413.124-64.4984 351.865-5.87515 320.107L14.2168 311.082 12.5726 318.431 12.5717 318.45 12.5729 318.431C24.9249 234.298 93.9094 162.75 177.052 146.261L178.984 146.028 186.504 129.05C220.012 64.6803 288.906 20.1396 361.489 16.6069L372.454 17.2762 366.128 27.0211 366.124 27.0292 366.128 27.0211C400.986-34.8352 469.548-73.8623 539.697-76.7578 549.051-77.1439 558.432-76.8876 567.766-75.9576L588.039-72.423 590.057-74.8987C627.714-112.134 680.075-132.801 732.755-134.039 761.437-134.713 790.215-129.627 816.765-118.321L817.487-117.945 795.8-101.785C788.769-95.3394 782.177-88.2899 776.107-80.6358L772.863-75.7828 795.801-101.785C833.3-136.16 883.301-153.347 933.3-153.347Z" fill-rule="evenodd"/></g></svg>