<svg width="604" height="511" xmlns="http://www.w3.org/2000/svg" xmlns:xlink="http://www.w3.org/1999/xlink" xml:space="preserve" overflow="hidden"><defs><clipPath id="clip0"><rect x="812" y="532" width="604" height="511"/></clipPath></defs><g clip-path="url(#clip0)" transform="translate(-812 -532)"><path d="M968.884 898.566C972.862 900.06 976.591 903.049 980.073 907.531 992.005 919.486 996.978 932.432 994.988 946.377 993.995 957.338 989.022 968.295 981.069 980.25 981.729 980.914 982.393 981.575 983.056 982.239 995.655 991.537 1008.25 1000.84 1020.85 1010.14 1020.51 1010.79 1020.18 1011.46 1019.85 1012.13 1010.57 1009.13 1001.29 1006.15 992.005 1003.16 982.062 1000.17 974.107 995.193 967.144 989.214 966.15 988.219 964.161 987.224 963.168 984.232 962.171 981.248 962.171 977.262 963.168 973.279 965.157 969.293 967.147 965.307 969.134 961.324 974.103 946.377 972.117 934.429 962.171 925.462L960.181 934.429C956.868 961.651 953.552 988.88 950.235 1016.11 945.266 1003.15 942.282 993.2 941.286 987.22 938.303 958.329 937.31 936.419 940.293 920.484 942.282 908.529 947.252 901.551 956.205 898.567 960.679 897.071 964.906 897.071 968.884 898.566ZM1083.5 889.596C1085.49 890.598 1086.48 891.593 1087.47 894.577 1087.14 896.236 1086.81 897.899 1086.48 899.558L1084.49 904.543C1083.49 902.546 1082.5 900.557 1081.51 898.567 1070.57 917.493 1062.61 940.405 1057.64 967.3 1065.6 964.308 1071.56 958.332 1074.54 949.369 1075.21 944.714 1075.87 940.071 1076.53 935.424 1076.53 931.107 1076.53 926.784 1076.53 922.474 1077.86 920.808 1079.18 919.152 1080.51 917.493 1082.17 916.828 1083.82 916.161 1085.48 915.503 1088.47 916.498 1091.45 917.493 1092.44 920.484 1098.41 933.761 1104.38 947.042 1110.35 960.325 1110.01 960.656 1109.68 960.983 1109.35 961.32 1104.38 955.671 1099.4 950.033 1094.43 944.384 1094.43 945.379 1094.43 946.374 1094.43 947.375 1093.44 958.329 1089.46 967.296 1082.5 976.26 1075.54 985.227 1067.58 991.2 1057.64 996.181 1048.69 998.522 1039.73 998.191 1030.78 995.186 1026.81 990.205 1026.81 982.236 1030.78 971.286 1037.75 953.355 1045.7 936.419 1054.65 921.479 1058.63 913.507 1064.6 904.543 1073.55 893.582 1076.53 889.596 1080.51 888.601 1083.5 889.596ZM1161.06 871.672C1165.04 871.672 1168.02 872.667 1171.01 875.651 1173.99 878.643 1175.98 882.625 1177.97 887.607 1179.96 895.572 1181.95 903.548 1183.94 911.513 1187.59 928.112 1191.23 944.714 1194.88 961.32 1194.22 961.651 1193.55 961.978 1192.89 962.315 1187.59 955.007 1182.28 947.706 1176.98 940.405 1173.33 930.77 1169.69 921.141 1166.04 911.513 1163.06 924.464 1159.08 941.4 1152.11 960.325 1151.45 961.32 1150.78 962.315 1150.13 963.31 1149.46 964.305 1148.8 965.3 1148.14 966.302 1142.17 965.32 1136.2 962.663 1130.24 956.336 1130.57 956.336 1130.9 956.336 1131.23 956.336 1130.57 930.766 1129.9 905.203 1129.24 879.637 1132.89 889.266 1136.53 898.894 1140.18 908.529 1143.17 897.568 1145.16 889.596 1148.14 883.627 1151.12 875.655 1155.1 871.672 1161.06 871.672ZM1253.55 845.768C1254.55 845.775 1256.54 846.77 1259.52 847.765 1256.21 852.739 1252.89 857.724 1249.58 862.705 1245.93 870.013 1242.28 877.314 1238.63 884.622 1236.64 889.596 1235.65 894.58 1234.66 901.551 1233.66 909.524 1234.66 914.508 1235.65 917.493 1237.64 920.484 1240.62 923.469 1244.6 924.464 1250.24 925.789 1255.87 927.118 1261.51 928.45 1266.81 929.445 1272.11 930.439 1277.42 931.434 1277.75 932.098 1278.08 932.759 1278.41 933.431 1271.12 936.085 1263.83 938.742 1256.54 941.396 1247.59 943.386 1240.62 943.386 1233.66 941.396 1225.71 938.405 1219.74 934.425 1214.77 927.451 1207.81 917.486 1206.81 906.529 1210.79 895.568 1217.75 874.653 1229.68 858.718 1246.59 848.753 1249.58 846.763 1251.56 845.768 1253.55 845.768ZM1329.13 829.834C1328.36 830.612 1325.44 831.731 1324.16 832.818 1317.18 838.77 1311.23 848.76 1308.25 861.71 1307.92 863.042 1307.59 864.364 1307.26 865.696 1307.92 867.021 1308.58 868.35 1309.25 869.675 1309.58 869.345 1309.91 869.011 1310.24 868.68 1316.2 861.71 1320.18 855.73 1323.17 849.755 1326.15 842.784 1328.14 836.805 1329.13 829.834ZM913.689 820.992C921.149 819.623 928.359 819.872 935.32 821.865 920.401 828.835 909.465 835.81 900.516 843.775 888.581 854.735 881.618 868.677 879.631 886.608 879.301 889.593 878.968 892.584 878.634 895.572 886.924 894.577 895.21 893.582 903.496 892.587 912.445 892.257 921.398 891.923 930.347 891.593 930.347 892.918 930.347 894.247 930.347 895.572 921.727 901.221 913.108 906.866 904.489 912.508 894.547 919.479 885.594 923.469 877.638 926.46 877.968 929.111 878.301 931.764 878.631 934.425 879.628 951.355 884.597 976.257 891.56 1007.14 894.543 1018.76 897.526 1030.38 900.509 1042.01 899.846 1042.34 899.183 1042.66 898.519 1043 881.614 1022.08 868.685 998.177 859.733 970.281 855.756 959.327 852.773 948.37 850.783 937.41 850.453 935.751 850.124 934.088 849.79 932.429 837.195 932.746 824.599 933.062 812 933.376 812 932.959 812 932.549 812 932.133 817.966 928.247 823.936 924.36 829.902 920.481 836.531 916.157 843.161 911.841 849.79 907.524 849.79 898.56 850.783 889.593 853.77 880.629 860.729 856.722 872.665 839.792 890.564 829.827 898.521 825.349 906.23 822.361 913.689 820.992ZM852.777 791.982C849.793 792.98 847.804 795.968 846.811 800.949 846.147 804.928 845.484 808.915 844.821 812.905 844.821 813.562 844.821 814.23 844.821 814.894 845.151 815.224 845.481 815.551 845.814 815.889 846.147 815.889 846.477 815.889 846.811 815.889 848.862 815.077 850.361 812.608 851.78 809.913 854.028 804.932 856.083 799.948 856.753 794.973 856.753 794.309 856.753 793.641 856.753 792.98 855.43 792.646 854.103 792.316 852.777 791.982ZM889.573 784.013C889.175 784.419 886.804 786.56 886.381 786.956 884.305 788.904 883.456 791.576 882.611 794.973 882.944 795.304 883.274 795.631 883.607 795.968 886.591 794.973 888.581 793.975 889.573 791.982 890.567 788.994 890.567 787.001 889.573 784.013ZM1076.04 778.536C1077.53 778.536 1079.02 779.034 1080.51 780.03 1087.27 782.285 1082.64 791.386 1080.34 794.464 1076.63 795.648 1072.89 794.219 1068.58 790.987 1067.59 786.006 1068.58 783.018 1071.56 780.03 1073.05 779.034 1074.54 778.536 1076.04 778.536ZM889.82 777.782C891.56 777.782 893.052 778.529 894.543 780.023 896.53 783.011 896.347 786.911 894.543 790.98 892.371 795.882 888.577 799.077 883.604 798.082 883.274 798.085 882.944 797.958 882.611 797.958 881.614 802.939 882.611 804.928 885.594 805.923 887.584 805.266 889.573 804.598 891.56 803.934 893.88 802.601 896.203 801.28 898.519 799.948 898.849 800.285 899.179 800.612 899.513 800.949 898.519 802.274 897.526 803.6 896.53 804.928 892.553 809.91 888.577 811.899 884.597 810.905 880.617 809.91 877.638 806.925 876.645 801.94 875.648 797.955 875.648 793.972 876.645 789.985 877.638 785.004 880.621 782.016 883.604 780.023 886.091 778.529 888.079 777.782 889.82 777.782ZM860.733 765.087C862.722 765.087 863.716 766.082 863.716 768.075 864.712 774.051 865.706 780.027 865.706 785.004 865.376 788.326 865.042 791.645 864.712 794.97 865.042 796.96 865.376 798.949 865.706 800.946 866.702 804.925 867.695 808.911 868.689 812.901 868.355 812.901 868.026 812.901 867.695 812.901 866.369 809.572 865.042 806.257 863.716 802.935 863.052 804.588 862.393 806.257 861.729 807.917 859.671 811.958 856.781 815.452 853.773 818.877 849.793 823.851 845.817 823.851 841.838 820.867 840.844 819.872 839.848 818.877 838.854 815.885 837.861 810.905 839.848 804.925 842.831 798.949 845.814 790.984 849.793 787.992 854.766 789.985 855.43 790.319 856.093 790.65 856.756 790.984 857.09 788.99 857.419 786.994 857.75 785.004 857.746 779.693 857.746 774.381 857.746 769.07 857.746 766.082 858.743 765.087 860.733 765.087ZM1062.61 708.302C1066.59 708.309 1073.55 709.304 1082.5 712.292 1075.54 713.951 1068.58 715.61 1061.62 717.273 1053.66 720.261 1047.7 723.249 1042.72 726.237 1033.78 733.208 1026.81 741.177 1021.84 751.139 1016.87 761.097 1014.88 772.054 1014.88 783.015 1014.88 793.972 1017.86 803.934 1022.84 812.901 1027.81 822.86 1035.76 829.83 1045.71 834.812 1056.65 840.787 1068.58 842.777 1080.51 840.787 1093.44 839.792 1104.38 834.812 1113.33 825.841 1123.27 816.877 1129.24 803.93 1130.24 788.987 1131.23 774.044 1127.25 761.094 1118.3 750.137 1112.33 742.168 1105.37 737.187 1098.41 735.197 1091.45 733.204 1084.49 733.204 1075.53 735.197 1068.58 736.192 1061.61 739.18 1055.65 744.161 1052.82 746.815 1050.5 749.469 1048.68 752.127 1048.02 751.793 1047.36 751.462 1046.7 751.132 1047.69 742.168 1052.66 734.195 1061.61 728.22 1069.56 723.242 1079.51 720.254 1090.45 719.256 1103.38 718.258 1114.32 722.244 1125.26 730.213 1134.21 738.182 1142.17 748.14 1147.14 760.096 1152.11 773.046 1154.1 785.996 1153.1 798.942 1152.11 812.894 1147.14 824.839 1140.18 835.799 1131.23 848.749 1119.29 858.712 1104.38 865.686 1083.49 874.65 1061.61 873.651 1039.73 862.694 1016.86 851.741 1002.93 835.799 995.978 812.894 991.005 793.965 991.998 776.034 998.961 757.108 1006.91 738.182 1018.85 724.237 1035.76 715.273 1044.71 710.292 1053.66 708.302 1062.61 708.302ZM1338 685.756C1330.71 685.969 1323.3 687.24 1315.69 689.361L1303.44 694.589 1320.18 708.313C1319.85 709.311 1319.52 710.306 1319.19 711.301L1294.22 699.71 1284.38 707.158C1276.77 717.326 1270.85 727.494 1268.31 737.666 1265.77 748.68 1266.62 762.24 1270.85 776.648 1274.23 789.359 1281 798.681 1291.15 806.307 1295.81 809.272 1300.88 811.815 1306.38 813.722L1315.27 815.524 1319.32 813.019C1323.17 811.399 1327.15 810.402 1331.12 809.903 1335.1 809.903 1338.08 810.898 1341.07 811.892L1343.94 817.064 1361.38 813.933C1373.22 809.701 1383.37 802.916 1390.99 795.292 1398.6 786.817 1402.84 776.646 1403.68 764.782 1404.53 754.61 1403.68 743.596 1399.45 732.579 1396.07 721.561 1390.99 712.239 1383.37 703.763 1375.76 696.137 1368.15 691.05 1359.69 688.511 1352.49 686.392 1345.3 685.545 1338 685.756ZM1013.88 666.471C1014.21 667.136 1014.55 667.8 1014.88 668.464 998.968 683.408 987.032 692.371 979.076 696.358 971.12 700.344 964.161 703.328 957.198 705.321 960.181 725.242 963.164 745.166 966.147 765.087 967.144 779.362 968.137 793.641 969.13 807.92 969.13 823.855 968.133 837.799 966.147 849.751 963.497 857.059 960.844 864.36 958.191 871.668 957.531 871.331 956.868 871.004 956.201 870.674 952.885 855.396 949.572 840.123 946.255 824.846 943.272 796.292 940.289 767.738 937.306 739.183 937.306 726.233 938.299 715.277 939.296 708.306 937.969 708.636 936.646 708.97 935.316 709.301 910.455 707.976 885.594 706.647 860.729 705.318 883.934 698.677 907.139 692.037 930.343 685.394L971.12 678.426C985.375 674.444 999.631 670.461 1013.88 666.471ZM1142.17 652.526C1145.16 663.817 1148.14 675.108 1151.12 686.392 1154.1 699.345 1158.08 709.304 1163.06 718.268 1163.39 717.604 1163.72 716.939 1164.05 716.275 1166.37 697.349 1168.69 678.423 1171.01 659.497 1171.67 659.497 1172.33 659.497 1173 659.497 1179.96 680.416 1183.94 697.352 1184.93 708.309 1185.93 724.244 1181.95 735.204 1173 742.175 1169.02 745.163 1164.05 746.158 1159.07 744.168 1154.1 743.17 1149.13 740.182 1146.15 735.204 1141.17 725.239 1138.19 715.28 1137.2 704.323 1136.21 693.37 1138.19 675.438 1142.17 652.526ZM1342.81 609.387C1345.3 609.491 1347.54 610.206 1349.02 611.687 1355.98 619.656 1355.98 626.63 1348.03 633.604 1345.05 636.592 1340.07 636.592 1335.1 634.599 1330.13 631.611 1327.14 627.625 1327.14 620.65 1325.55 614.245 1335.33 609.073 1342.81 609.387ZM1246.6 605.714C1257.87 606.048 1269.15 606.379 1280.41 606.713 1286.37 607.7 1292.34 608.699 1297.31 610.692 1310.24 616.668 1316.21 623.642 1317.2 630.616 1317.2 636.592 1313.22 642.568 1306.26 649.542 1298.97 654.853 1291.67 660.168 1284.38 665.48 1281.73 667.803 1279.08 670.131 1276.43 672.454L1293.48 686.429 1312.22 678.43C1321.18 675.938 1329.88 674.443 1338.45 674.194 1347.03 673.944 1355.49 674.941 1363.94 677.432 1373.89 680.416 1382.84 686.395 1391.78 695.359 1400.73 705.321 1406.7 716.278 1410.68 729.228 1415.65 742.178 1416.65 755.125 1415.65 767.08 1414.66 781.025 1409.68 792.98 1400.73 802.942 1391.78 811.903 1379.85 819.879 1365.93 824.853L1345.95 828.44 1345.92 831.453C1345.3 835.065 1344.05 838.8 1342.06 842.784 1338.08 851.751 1332.11 859.72 1325.15 867.685 1322.83 869.675 1320.51 871.672 1318.19 873.662 1314.22 876.653 1311.23 877.648 1308.25 876.653 1307.59 875.982 1306.92 875.321 1306.26 874.656 1305.93 878.643 1305.6 882.622 1305.27 886.612 1305.27 897.572 1307.26 905.537 1311.23 910.519 1313.22 913.503 1315.21 914.505 1318.19 914.505 1323.16 915.5 1329.13 914.505 1336.09 911.513 1346.7 904.87 1357.31 898.236 1367.92 891.593 1374.55 886.939 1381.17 882.295 1387.81 877.648 1388.47 877.978 1389.13 878.305 1389.79 878.643 1373.88 898.563 1360.95 913.503 1350.01 922.47 1345.37 925.125 1340.74 927.782 1336.09 930.436 1326.14 934.422 1318.19 935.417 1311.23 934.422 1302.28 932.425 1296.31 928.446 1291.34 921.472 1287.36 914.502 1284.38 908.522 1283.39 902.546 1280.4 891.586 1280.4 880.629 1281.4 870.67 1282.39 860.705 1285.38 850.742 1291.35 839.789 1293.83 835.803 1296.32 832.066 1299.05 828.704L1302.97 824.945 1301.29 824.605C1294.83 822.363 1288.86 819.374 1283.39 815.889 1271.45 806.925 1263.5 795.968 1259.52 781.028 1254.55 764.092 1253.55 748.154 1256.54 735.208 1259.52 723.252 1266.48 711.301 1275.43 699.349L1282.27 694.165 1278.42 692.375C1267.48 687.397 1260.52 682.413 1257.53 677.435 1255.55 672.454 1255.55 668.471 1258.53 665.48 1267.48 656.182 1276.43 646.888 1285.38 637.59 1286.37 636.595 1287.37 635.597 1288.36 634.602 1286.37 634.272 1284.38 633.938 1282.4 633.607 1276.43 633.277 1270.47 632.943 1264.5 632.609 1255.88 634.272 1247.26 635.931 1238.64 637.59 1235.66 638.588 1232.68 639.583 1229.69 640.578 1229.03 641.242 1228.37 641.907 1227.7 642.571 1227.04 652.867 1226.38 663.16 1225.72 673.449 1221.74 723.256 1215.77 768.082 1206.82 808.922 1204.5 813.239 1202.18 817.555 1199.86 821.872 1199.86 796.97 1199.86 772.065 1199.86 747.163 1199.86 722.261 1199.86 697.359 1199.86 672.454 1199.53 661.501 1199.2 650.54 1198.87 639.583 1198.87 634.602 1200.85 629.618 1203.84 624.64 1206.82 619.659 1211.79 616.671 1216.77 614.678 1225.72 609.7 1235.66 606.713 1246.6 605.714ZM1115.32 568.854C1114.18 568.127 1112.1 568.699 1110.35 570.847 1106.37 574.83 1103.39 580.809 1100.4 589.773 1100.4 590.103 1100.4 590.434 1100.4 590.768 1100.73 592.096 1101.07 593.425 1101.4 594.754 1101.73 594.423 1102.06 594.089 1102.39 593.756 1106.37 591.766 1109.35 587.78 1112.34 582.798 1114.32 578.812 1115.32 573.835 1115.32 568.854ZM1112.33 556.898C1116.31 555.904 1119.9 556.51 1122.27 558.891 1126.25 561.883 1127.25 566.857 1125.26 573.835 1123.27 581.8 1119.29 588.775 1113.32 593.756 1110.34 596.743 1106.37 598.736 1103.38 598.736 1101.39 598.736 1100.4 597.742 1099.4 596.743 1099.08 596.082 1098.74 595.418 1098.41 594.754 1096.42 603.718 1096.42 610.692 1099.41 615.673 1100.4 618.661 1101.4 619.656 1103.39 620.65 1107.37 621.649 1112.33 620.65 1117.31 617.663 1122.28 614.675 1129.24 610.692 1136.2 603.718 1136.54 603.718 1136.86 603.718 1137.2 603.718 1131.23 620.647 1121.28 629.614 1106.37 631.607 1097.42 632.602 1091.45 628.62 1086.48 618.657 1081.5 607.7 1081.5 596.74 1085.48 583.793 1090.45 568.85 1099.4 559.886 1112.33 556.898ZM1041.73 532C1046.7 540.964 1050.68 548.933 1051.67 555.907 1054.66 570.847 1055.65 586.785 1055.65 602.723 1055.65 610.361 1055.65 618 1055.65 625.635 1055.99 628.623 1056.32 631.611 1056.65 634.599 1056.98 635.597 1057.31 636.592 1057.64 637.587 1057.98 637.587 1058.31 637.587 1058.64 637.587 1066.93 634.599 1075.21 631.611 1083.5 628.623 1083.83 629.287 1084.16 629.952 1084.49 630.616 1080.18 634.602 1075.88 638.585 1071.57 642.568 1066.59 647.549 1060.63 649.538 1055.65 650.533 1054 650.203 1052.34 649.872 1050.68 649.538 1046.7 646.55 1043.72 641.57 1040.73 634.599 1039.74 628.289 1038.75 621.982 1037.75 615.673 1038.08 602.723 1038.41 589.776 1038.74 576.823 1039.41 565.866 1040.07 554.909 1040.73 543.952 1041.07 539.969 1041.4 535.986 1041.73 532Z" fill-rule="evenodd"/></g></svg>