<svg width="837" height="441" xmlns="http://www.w3.org/2000/svg" xmlns:xlink="http://www.w3.org/1999/xlink" xml:space="preserve" overflow="hidden"><defs><clipPath id="clip0"><rect x="2385" y="1327" width="837" height="441"/></clipPath></defs><g clip-path="url(#clip0)" transform="translate(-2385 -1327)"><path d="M3039.85 1583.39C3030.73 1583.39 3023.36 1590.74 3023.36 1599.85L3023.36 1628.04C3023.36 1637.14 3030.73 1644.5 3039.85 1644.5 3048.98 1644.5 3056.35 1637.14 3056.35 1628.04L3056.35 1599.85C3056.35 1590.74 3048.98 1583.39 3039.85 1583.39ZM3039.85 1507.4C3030.73 1507.4 3023.36 1514.76 3023.36 1523.86L3023.36 1552.05C3023.36 1561.15 3030.73 1568.51 3039.85 1568.51 3048.98 1568.51 3056.35 1561.15 3056.35 1552.05L3056.35 1523.86C3056.35 1514.76 3048.98 1507.4 3039.85 1507.4ZM3168.04 1431.43C3158.91 1431.43 3151.54 1438.79 3151.54 1447.89L3151.54 1476.06C3151.54 1485.16 3158.91 1492.52 3168.04 1492.52 3177.16 1492.52 3184.54 1485.16 3184.54 1476.06L3184.54 1447.89C3184.54 1438.79 3177.16 1431.43 3168.04 1431.43ZM3103.95 1431.43C3094.82 1431.43 3087.45 1438.79 3087.45 1447.89L3087.45 1476.06C3087.45 1485.16 3094.82 1492.52 3103.95 1492.52 3113.07 1492.52 3120.44 1485.16 3120.44 1476.06L3120.44 1447.89C3120.44 1438.79 3113.07 1431.43 3103.95 1431.43ZM3039.85 1431.43C3030.73 1431.43 3023.36 1438.79 3023.36 1447.89L3023.36 1476.06C3023.36 1485.16 3030.73 1492.52 3039.85 1492.52 3048.98 1492.52 3056.35 1485.16 3056.35 1476.06L3056.35 1447.89C3056.35 1438.79 3048.98 1431.43 3039.85 1431.43ZM2516.21 1423.18 2532.7 1425.82C2546.25 1427.99 2558.47 1435.73 2566.27 1446.96L2609.53 1509.28C2585.94 1503.71 2558.22 1497.29 2525.73 1489.73L2506.93 1434.19C2505.96 1431.32 2506.53 1428.25 2508.47 1426.02 2510.41 1423.8 2513.32 1422.65 2516.21 1423.18ZM2414.46 1421.55 2436.47 1431.22C2438.81 1432.18 2440.57 1434.17 2441.24 1436.6L2456.72 1491.07C2488.46 1498.36 2666.93 1539.25 2725.65 1554.74 2772.83 1567.26 2783.52 1593.58 2785.74 1608.15 2786.64 1614.27 2784.91 1620.48 2781.02 1625.35 2777.2 1630.15 2771.45 1633.16 2765.38 1633.57 2729.13 1636.08 2658.08 1619.58 2642.03 1615.69L2505.81 1687.03C2495.57 1692.41 2483.74 1693.79 2472.51 1690.96L2453.64 1686.17C2452.51 1685.84 2451.49 1685.36 2450.56 1684.65 2449.09 1683.51 2447.99 1681.92 2447.51 1680.06 2446.84 1677.09 2447.74 1673.86 2450.07 1671.83L2539.88 1590.26C2516.99 1583.11 2471.19 1568.67 2441.47 1558.37 2418.42 1550.45 2404.21 1538.84 2396.36 1530.55 2387.54 1521.19 2384.04 1507.85 2387.07 1494.89L2402.89 1427.39C2403.49 1424.98 2405.08 1422.92 2407.34 1421.8 2409.6 1420.67 2412.18 1420.64 2414.46 1421.55ZM3168.04 1355.44C3158.91 1355.44 3151.54 1362.8 3151.54 1371.9L3151.54 1400.09C3151.54 1409.19 3158.91 1416.55 3168.04 1416.55 3177.16 1416.55 3184.54 1409.19 3184.54 1400.09L3184.54 1371.9C3184.54 1362.8 3177.16 1355.44 3168.04 1355.44ZM3103.95 1355.44C3094.82 1355.44 3087.45 1362.8 3087.45 1371.9L3087.45 1400.09C3087.45 1409.19 3094.82 1416.55 3103.95 1416.55 3113.07 1416.55 3120.44 1409.19 3120.44 1400.09L3120.44 1371.9C3120.44 1362.8 3113.07 1355.44 3103.95 1355.44ZM3039.85 1355.44C3030.73 1355.44 3023.36 1362.8 3023.36 1371.9L3023.36 1400.09C3023.36 1409.19 3030.73 1416.55 3039.85 1416.55 3048.98 1416.55 3056.35 1409.19 3056.35 1400.09L3056.35 1371.9C3056.35 1362.8 3048.98 1355.44 3039.85 1355.44ZM2985.89 1327 3221.98 1327 3222 1327 3222 1618.97 3222 1618.97 3222 1656.97 3222 1768 3031.18 1768 2985.89 1768 2985.89 1656.97 2985.89 1656.97Z" fill-rule="evenodd"/></g></svg>