<svg width="654" height="442" xmlns="http://www.w3.org/2000/svg" xmlns:xlink="http://www.w3.org/1999/xlink" xml:space="preserve" overflow="hidden"><defs><clipPath id="clip0"><rect x="3050" y="1129" width="654" height="442"/></clipPath></defs><g clip-path="url(#clip0)" transform="translate(-3050 -1129)"><path d="M3652.75 1130.98 3704 1139.62 3704 1571 3652.75 1571 3652.75 1130.98ZM3646.72 1129 3646.72 1571 3519 1571 3519 1146.64 3646.72 1129Z" fill-rule="evenodd"/><path d="M3417.46 1172.8 3464 1180.61 3464 1571 3417.46 1571 3417.46 1172.8ZM3411.99 1171 3411.99 1571 3296 1571 3296 1186.97 3411.99 1171Z" fill-rule="evenodd"/><path d="M3106.97 1258.01 3114.19 1259.17C3120.12 1260.13 3125.46 1263.55 3128.87 1268.52L3147.8 1296.06C3137.48 1293.6 3125.35 1290.76 3111.14 1287.42L3102.91 1262.87C3102.49 1261.6 3102.74 1260.24 3103.58 1259.26 3104.43 1258.28 3105.71 1257.77 3106.97 1258.01ZM3062.45 1257.28 3072.08 1261.56C3073.11 1261.98 3073.88 1262.86 3074.17 1263.94L3080.94 1288.01C3094.83 1291.24 3172.91 1309.31 3198.61 1316.16 3219.25 1321.69 3223.93 1333.32 3224.9 1339.76 3225.29 1342.47 3224.54 1345.21 3222.84 1347.37 3221.16 1349.49 3218.65 1350.82 3215.99 1351 3200.13 1352.11 3169.05 1344.81 3162.02 1343.09L3102.42 1374.63C3097.94 1377.01 3092.76 1377.62 3087.85 1376.37L3079.59 1374.25C3079.1 1374.1 3078.66 1373.89 3078.25 1373.57 3077.61 1373.07 3077.12 1372.37 3076.92 1371.55 3076.62 1370.24 3077.02 1368.81 3078.03 1367.91L3117.33 1331.86C3107.31 1328.69 3087.27 1322.31 3074.27 1317.76 3064.19 1314.26 3057.97 1309.13 3054.54 1305.46 3050.68 1301.32 3049.14 1295.43 3050.47 1289.7L3057.39 1259.87C3057.65 1258.8 3058.35 1257.89 3059.34 1257.39 3060.33 1256.9 3061.46 1256.88 3062.45 1257.28Z" fill-rule="evenodd"/></g></svg>