<svg xmlns="http://www.w3.org/2000/svg" viewBox="0 0 654 693">
  <g transform="translate(-1012, -1105)">
  <g fill-rule="evenodd">
    <path fill="#269" d="M1666 1605.93c0 42.56-34.45 77.07-76.94 77.07h-500.12c-42.49 0-76.94-34.51-76.94-77.07v-379.3c0-42.56 111.39-121.63 153.88-121.63h396.73c59.51 0 103.39 44.54 103.39 103.56z"/>
    <path fill="#b4c7e7" d="M1628 1683c0 42.52-34.51 77-77.07 77h-423.86c-42.56 0-77.07-34.48-77.07-77v-461.99c0-79.29-.4-77 96.33-77h404.6c42.56 0 77.07 34.47 77.07 77z"/>
    <path fill="#dae3f3" d="M1589 1702.2c0 31.92-25.83 57.8-57.7 57.8h-461.6c-31.87 0-57.7-25.88-57.7-57.8v-462.4c0-31.92 25.83-57.8 57.7-57.8h461.6c31.87 0 57.7 25.88 57.7 57.8z"/>
    <path fill="#3b88c3" d="M1589 1721.07c0 42.48-34.46 76.93-76.97 76.93h-404.06c-42.51 0-76.97-34.45-76.97-76.93v-423.14c0-42.48 34.46-76.93 76.97-76.93h404.06c42.51 0 76.97 34.45 76.97 76.93z"/>
    <path fill="#55acee" d="M1551 1721c0 42.52-34.49 77-77.04 77h-365.92c-42.55 0-77.04-34.48-77.04-77v-385c0-42.52 34.49-77 77.04-77h372.38c42.54 0 70.58 28.03 70.58 70.55z"/>
    <path fill="#269" d="M1108 1220.5c-32.41 0-33.23-37-19.2-52.94 15.97-18.11 40.8-24.06 85.21-24.06H1204V1105h-52.2c-76.21 0-139.8 48.12-139.8 103.47V1721c0 42.52 34.39 77 76.8 77h38.4v-577.5z"/>
  </g>
  </g>
</svg>
