<svg xmlns="http://www.w3.org/2000/svg" xml:space="preserve" width="693" height="673" overflow="hidden"><defs><clipPath id="a"><path d="M1864 1125h693v673h-693z"/></clipPath></defs><g fill-rule="evenodd" clip-path="url(#a)" transform="translate(-1864 -1125)"><path fill="#ccd6dd" d="m2325.75 1664 96.25-96.25L1979.25 1125H1883v96.25Z"/><path fill="#9aaab4" d="M1883 1125v96.25L2325.86 1664l48.14-48.12Z"/><path fill="#e22b00" d="M2506.81 1736.91c5.45-5.48 8.79-12.08 10.19-18.68l-100.6-119.55-13.46-13.54c-10.82-10.89-30.13-9.13-43.14 3.95l-11.78 11.81c-13 13.07-14.74 32.48-3.92 43.36l14.22 14.3L2476.35 1759c6.62-1.39 13.21-4.77 18.69-10.27z"/><path fill="red" d="M2506.81 1737.18c5.45-5.48 8.79-12.08 10.19-18.69l-25.76-30.62-14.14 71.13c6.35-1.49 12.69-4.69 17.94-10zm-63.53-106.31-17.04 85.75 24.18 20.58 15.74-79.16Zm-26.88-31.99-13.46-13.55c-1.84-1.86-3.99-3.21-6.25-4.33l-18.77 94.45 24.18 20.59 18.37-92.35zm-46.08-17.15a39.1 39.1 0 0 0-10.52 7.57l-11.78 11.8c-4.88 4.9-8.16 10.7-9.81 16.6-2.73 9.85-.88 19.99 5.89 26.78l11.44 11.51zq0-.03 0 0"/><path fill="red" d="M2451 1745c0-29.27 23.73-53 53-53s53 23.73 53 53-23.73 53-53 53-53-23.73-53-53m-16.83-210.17c7.77 7.77 7.77 20.38 0 28.13l-117.21 117.21c-7.77 7.77-20.36 7.77-28.13 0s-7.77-20.36 0-28.13l117.21-117.21c7.74-7.77 20.36-7.77 28.13 0"/><path fill="red" d="M2255 1680.5c0-18.5 15-33.5 33.5-33.5s33.5 15 33.5 33.5-15 33.5-33.5 33.5-33.5-15-33.5-33.5m145-145.5c0-18.78 15.22-34 34-34s34 15.22 34 34-15.22 34-34 34-34-15.22-34-34"/><path fill="#e22b00" d="M2269 1680.5c0-10.77 8.73-19.5 19.5-19.5s19.5 8.73 19.5 19.5-8.73 19.5-19.5 19.5-19.5-8.73-19.5-19.5m146-145.5c0-10.49 8.51-19 19-19s19 8.51 19 19-8.51 19-19 19-19-8.51-19-19m101.67 135.29c5.78 5.72 5.78 15 0 20.7l-67.43 66.72c-5.78 5.72-15.12 5.72-20.9 0a14.523 14.523 0 0 1 0-20.7l67.42-66.72c5.76-5.72 15.13-5.72 20.91 0"/><path fill="#ccd6dd" d="m2094.43 1664-96.43-96.25L2441.57 1125H2538v96.25Z"/><path fill="#9aaab4" d="M2538 1125v96.25L2095.14 1664l-48.14-48.12Z"/><path fill="#e22b00" d="M1913.25 1736.91c-5.48-5.48-8.84-12.08-10.25-18.68l101.17-119.55 13.53-13.54c10.89-10.89 30.31-9.13 43.39 3.95l11.83 11.81c13.07 13.07 14.83 32.48 3.94 43.36l-14.3 14.3-118.7 100.44c-6.66-1.39-13.28-4.77-18.8-10.27z"/><path fill="red" d="M1913.25 1737.18c-5.48-5.48-8.84-12.08-10.25-18.69l25.9-30.62 14.23 71.13c-6.39-1.49-12.76-4.69-18.05-10zm63.88-106.31 17.14 85.75-24.32 20.58-15.82-79.16Zm27.04-31.99 13.53-13.55c1.86-1.86 4.02-3.21 6.29-4.33l18.88 94.45-24.32 20.59-18.47-92.35zm46.34-17.15c3.77 1.84 7.38 4.35 10.58 7.57l11.83 11.82c4.9 4.9 8.2 10.7 9.86 16.6 2.74 9.85.89 19.99-5.92 26.78l-11.5 11.51zq0-.03 0 0"/><path fill="red" d="M1864 1745c0-29.27 23.73-53 53-53s53 23.73 53 53-23.73 53-53 53-53-23.73-53-53m122.83-210.17c-7.77 7.77-7.77 20.38 0 28.13l117.21 117.21c7.77 7.77 20.36 7.77 28.13 0s7.77-20.36 0-28.13l-117.21-117.21c-7.74-7.77-20.36-7.77-28.13 0"/><path fill="red" d="M2098 1680.5c0-18.5 15.22-33.5 34-33.5s34 15 34 33.5-15.22 33.5-34 33.5-34-15-34-33.5M1953 1535c0-18.78 15-34 33.5-34s33.5 15.22 33.5 34-15 34-33.5 34-33.5-15.22-33.5-34"/><path fill="#e22b00" d="M2113 1680.5c0-10.77 8.51-19.5 19-19.5s19 8.73 19 19.5-8.51 19.5-19 19.5-19-8.73-19-19.5M1967 1535c0-10.49 8.73-19 19.5-19s19.5 8.51 19.5 19-8.73 19-19.5 19-19.5-8.51-19.5-19m-62.71 135.29c-5.72 5.72-5.72 15 0 20.7l66.73 66.72c5.72 5.72 14.97 5.72 20.69 0s5.72-14.98 0-20.7l-66.73-66.72c-5.7-5.72-14.97-5.72-20.69 0"/><path fill="red" d="m2367 1199.6 6.09 3.85c4.85 4.55 7.85 10.84 7.85 17.78 0 13.88-12 25.14-26.81 25.14-7.4 0-14.11-2.81-18.96-7.36l-2.33-5.28Zm163.45-8.9 7.55 1.43v29.1l-17.83 17.81-.15-.03c-9.63-3.82-16.38-12.75-16.38-23.17 0-13.88 12.01-25.14 26.81-25.14m-507.58-22.19 31.11 31.07-4.6 10.42c-4.85 4.55-11.55 7.36-18.96 7.36-14.81 0-26.81-11.26-26.81-25.14 0-10.42 6.75-19.35 16.38-23.17Zm418.81-43.51H2538v53.17l-23.5 14.86c-9.79 3.88-20.56 6.03-31.87 6.03l-6.78-.64 4.17 9.43c0 13.88-12.01 25.14-26.82 25.14-14.8 0-26.81-11.26-26.81-25.14 0-6.95 3-13.23 7.86-17.78l5.92-3.74-15.43-9.76-14.5-20.16Zm-487.24 0h24.88l19.94 19.92-2.84 6.43c-4.85 4.55-11.55 7.36-18.95 7.36-14.81 0-26.82-11.26-26.82-25.14Zm-71.44 0h44.35l12.96 8.2c14.82 13.89 23.98 33.08 23.98 54.28l-3.67 17.07 5.95-1.13c14.81 0 26.81 11.25 26.81 25.14s-12 25.14-26.81 25.14c-7.4 0-14.11-2.81-18.96-7.36l-4.03-9.12-3.27 4.55-22.5 14.23-34.81-34.77Z"/></g></svg>