<?xml version="1.0" encoding="UTF-8"?>
<svg xmlns="http://www.w3.org/2000/svg" id="Solid" viewBox="0 0 64 64" width="512" height="512"><path d="M45,5.329A5.329,5.329,0,0,0,37.437.491L34.514,1.84a6,6,0,0,1-5.028,0L26.563.491A5.329,5.329,0,0,0,19,5.329V10H45Z"/><circle cx="32" cy="49" r="1"/><path d="M32,39a12.958,12.958,0,0,1-3.5-.493L32,44.114l3.505-5.607A12.958,12.958,0,0,1,32,39Z"/><path d="M38.886,37.006l-.138.084L33.054,46.2a3,3,0,0,1,1.9,2.328l6.162-4.74A3.785,3.785,0,0,0,38.886,37.006Z"/><path d="M25.252,37.09l-.138-.084a3.785,3.785,0,0,0-2.228,6.783l6.162,4.74a3,3,0,0,1,1.9-2.328Z"/><path d="M23.032,60h4a18.193,18.193,0,0,1,2.888-8.849,2.988,2.988,0,0,1-.824-1.449A13.361,13.361,0,0,0,23.032,60Z"/><path d="M34.084,51.151A18.2,18.2,0,0,1,36.972,60h3.992a13.374,13.374,0,0,0-6.056-10.3A2.988,2.988,0,0,1,34.084,51.151Z"/><path d="M55.563,50.584a9,9,0,0,0-6.894-7.866l-4.149-.976a5.732,5.732,0,0,1-2.187,3.632L37.485,49.1A15.371,15.371,0,0,1,43,60.944,1.049,1.049,0,0,1,42,62H36a1,1,0,0,1-1-1,16.146,16.146,0,0,0-2.792-9.021c-.07.005-.137.021-.208.021s-.138-.016-.208-.021A16.146,16.146,0,0,0,29,61a1,1,0,0,1-1,1H22a1,1,0,0,1-1-1,15.421,15.421,0,0,1,5.515-11.9l-4.848-3.73a5.729,5.729,0,0,1-2.185-3.623l-4.151.967a9,9,0,0,0-6.894,7.866L7.205,62.9A1,1,0,0,0,8.2,64H14V55a1,1,0,0,1,2,0v9H48V55a1,1,0,0,1,2,0v9h5.8a1,1,0,0,0,1-1.1Z"/><path d="M16,21a3,3,0,0,0,3,3V18.72c-.514-.085-1.03-.182-1.547-.279A2.99,2.99,0,0,0,16,21Z"/><path d="M45,18.72V24a2.993,2.993,0,0,0,1.547-5.559C46.03,18.538,45.514,18.635,45,18.72Z"/><path d="M43,19.03a78.458,78.458,0,0,1-11,.747,78.458,78.458,0,0,1-11-.747V26a11,11,0,0,0,22,0ZM27,23a1,1,0,0,1-2,0V22a1,1,0,0,1,2,0Zm8.207,8.672a4.544,4.544,0,0,1-6.414,0,1,1,0,1,1,1.414-1.414,2.54,2.54,0,0,0,3.586,0,1,1,0,1,1,1.414,1.414ZM39,23a1,1,0,0,1-2,0V22a1,1,0,0,1,2,0Z"/><path d="M14.884,15.877A75.782,75.782,0,0,0,32,17.778a75.782,75.782,0,0,0,17.116-1.9.96.96,0,0,0,.2-1.826L45,12H19l-4.314,2.051A.96.96,0,0,0,14.884,15.877Z"/></svg>
