<svg width="1356" height="1758" xmlns="http://www.w3.org/2000/svg" xmlns:xlink="http://www.w3.org/1999/xlink" xml:space="preserve" overflow="hidden"><defs><clipPath id="clip0"><rect x="1521" y="358" width="1356" height="1758"/></clipPath></defs><g clip-path="url(#clip0)" transform="translate(-1521 -358)"><path d="M1903.51 1961.93 1941.89 2077.07C1952.85 2109.92 1908.51 2129.09 1888.91 2104.6L1820.6 2019.21C1811 2007.2 1812.32 1989.82 1823.62 1979.4L1855.92 1949.66C1871.54 1935.27 1896.8 1941.79 1903.51 1961.93ZM2493.61 1960.62 2453.12 2076.68C2441.02 2111.35 2489.66 2128.89 2509.09 2104.61L2577.4 2019.21C2587.01 2007.21 2585.68 1989.82 2574.38 1979.4L2541.07 1948.73C2525.58 1934.47 2500.55 1940.74 2493.61 1960.62ZM2401.11 1805.32C2292.65 1922.28 2288.13 1921 2292.46 1940.9L2325.43 2092.54C2331.8 2121.87 2374.7 2123.71 2384.38 2095.99L2470.05 1850.45C2474.17 1838.64 2468.91 1823.49 2458.57 1816.45 2452.96 1812.63 2447.56 1808.39 2442.42 1803.74 2430.45 1792.91 2412.09 1793.48 2401.11 1805.32ZM1955.55 1803.76C1950.43 1808.38 1945.06 1812.6 1939.46 1816.41 1929.29 1823.33 1924.01 1838.33 1927.9 1850.01L2009.77 2095.58C2019.08 2123.51 2065.94 2123.07 2072.57 2092.54 2107.88 1930.16 2112.25 1929.73 2098.4 1914.8L1996.88 1805.32C1985.9 1793.47 1967.53 1792.92 1955.55 1803.76ZM2875.31 2076.48C2825.37 1936.48 2691.95 1842.42 2543.23 1842.42 2531.94 1842.42 2527.43 1856.6 2534.82 1863.4L2654.19 1973.34C2665.5 1983.75 2666.82 2001.14 2657.22 2013.15L2590.11 2097.02C2584.13 2104.5 2589.45 2115.59 2599.03 2115.59L2847.08 2115.59C2869.26 2115.59 2881.75 2094.59 2875.31 2076.48ZM1740.78 2013.14C1731.18 2001.14 1732.5 1983.75 1743.81 1973.34 1871.4 1855.82 1869.83 1860.9 1866.46 1850.79 1863.09 1840.67 1851.11 1842.42 1854.77 1842.42 1706.05 1842.42 1572.63 1936.47 1522.69 2076.48 1516.27 2094.54 1528.69 2115.58 1550.92 2115.58L1797.89 2115.58C1807.9 2115.58 1813.47 2104 1807.22 2096.18L1740.78 2013.14ZM2246.68 2005.9C2244.24 1994.67 2230.3 1990.4 2222.18 1998.53 2207.37 2013.34 2190.9 2013.54 2176.05 1998.65 2167.85 1990.42 2153.8 1994.46 2151.34 2005.81L2131.33 2097.85C2129.34 2106.97 2136.29 2115.59 2145.63 2115.59L2252.38 2115.59C2261.71 2115.59 2268.66 2106.97 2266.68 2097.85L2246.68 2005.9ZM2209.73 1925.62 2329.86 1796.07C2339.8 1785.35 2329.65 1768.44 2315.46 1771.95 2238.89 1790.91 2159.15 1791.05 2083.38 1772.97 2069.22 1769.59 2059.21 1786.45 2069.1 1797.12L2188.27 1925.62C2194.06 1931.86 2203.94 1931.86 2209.73 1925.62ZM2688.73 1001.56 2688.73 1174.44C2688.73 1204.89 2729.59 1215.16 2743.83 1188.23 2755.69 1165.82 2762.41 1140.28 2762.41 1113.22L2762.41 990.234C2762.41 965.826 2734.4 952.287 2715.09 967.213 2701.02 978.085 2688.73 983.825 2688.73 1001.56ZM2630.7 1070.83 2630.7 1289.96C2630.7 1486.83 2420.62 1657 2318.15 1710.23 2223.54 1759.38 2141.41 1730.21 2081.21 1711.95 1993.24 1685.27 1865.87 1598.08 1811.68 1491.7 1811.6 1491.63 1811.57 1491.56 1811.57 1491.48 1754.28 1379.65 1761.66 1298.3 1763.83 1078.82 1764.02 1059.09 1783.29 1045.24 1802.06 1051.3 2136.71 1159.51 2424.49 1122.62 2589.04 1044.33 2608.39 1035.12 2630.7 1049.4 2630.7 1070.83ZM2122.17 1211.11C2122.17 1172.44 2063.63 1172.39 2063.63 1211.11L2063.63 1256.77C2063.63 1295.43 2122.17 1295.49 2122.17 1256.77L2122.17 1211.11ZM2334.36 1211.11C2334.36 1172.44 2275.83 1172.39 2275.83 1211.11L2275.83 1256.77C2275.83 1295.43 2334.36 1295.49 2334.36 1256.77L2334.36 1211.11ZM2293.51 864.14C2255.2 858.488 2263.82 800.556 2302.05 806.237 2479.21 832.39 2662.59 805.454 2825.88 717.022 2832.07 713.664 2836.87 708.136 2839.26 701.504 2857.83 649.714 2868.97 592.641 2872.13 530.38 2873.04 513.069 2858.26 495.843 2834.66 500.712 2710.2 526.357 2580.33 508.577 2468.92 450.666 2013.29 213.749 1631.93 465.296 1631.93 819.824 1631.93 1163.05 1625.56 1165.36 1651.16 1208.22 1666.41 1233.76 1705.62 1222.98 1705.61 1193.23 1705.58 983.126 1704.91 958.557 1707.7 955.766 1712.49 941.681 1728.48 932.792 1744.03 938.279 1771.46 948.255 1758.71 967.223 1775.56 978.886 1792.49 994.134 2179.2 1127.47 2503.02 1014.63 2505.92 1014.63 2621.9 978.901 2720.28 885.142 2742.46 864.009 2720.77 827.287 2691.46 836.158 2560.41 875.81 2424.12 883.423 2293.51 864.14Z" fill-rule="evenodd"/></g></svg>