<svg id="Layer_1" height="512" viewBox="0 0 66 66" width="512" xmlns="http://www.w3.org/2000/svg"><g><g><g><path d="m57.3 34.6c-1.4-2.3-3.2-2.8-4.4-2.8-3.1 0-4.8 2.6-6.2 3.3-10 6-27.6-12.3-17.5-32.7.2-.3.1-.7-.1-1s-.6-.4-1-.3c-.5.1-12.6 3.5-16.5 12.3-1.4 3.3-1.5 6.8-.3 10.6l-1.6-1.2c-.3-.2-.7-.3-1.1 0-.3.2-.5.6-.4 1 0 .2.8 4.1 3.3 7.1l-.6-.1c-.3-.1-.6 0-.9.3-.2.2-.3.5-.3.9 0 .1.6 2.9 4.2 4.9l-1.1.1c-.3.1-.6.3-.7.6s-.1.6.1.9 4.5 7.1 11.7 8.9c-5.6 1.9-13.6 4.5-16.3 4.5h-.1c-.5 0-.9.3-1 .7-.1.5.1.9.5 1.1l3.5 1.6-2 2c-.3.3-.4.7-.2 1.1s.6.6 1 .5l3.2-.5-.5 2.4c-.1.4 0 .7.3 1 .3.2.7.3 1 .2l2.3-1 .1 1.8c0 .4.3.7.6.9.1.1 3.4 1.4 7.4 1.4 3.3 0 6.1-.9 8.4-2.8.4-.3.5-.9.2-1.3-.1-.2-2.7-3.8-.3-8.5.9-.1 2.7-.3 5-.7 6.6-1.2 12.5-5.2 16.6-11.2 2.1-3.1 4-2.1 5-2.1.5 0 1-.4 1-1-.1-.9-1.1-1-2.3-2.9zm-5.3 2.2c-.6 0-1-.5-1-1 0-.6.5-1 1-1 .6 0 1 .5 1 1 0 .6-.4 1-1 1z"/></g></g><g><g><path d="m49.2 30.9c-2.3 1-2.8 3.5-6.6 3.5-3.5 0-7.5-2.6-10.3-6.6.3-5.7 2.4-14.8 10.6-21.6.3-.3.7-.3 1.1-.1.3.2.5.6.5 1l-.5 2 1.4-.6c.4-.2.8-.1 1.1.2s.4.7.2 1.1c0 0-.8 2-.6 4.9.1 1.8.7 3.7 1.9 5.6 1.3 2.1 3.1 6.1 1.2 10.6z"/></g></g></g></svg>