<?xml version="1.0" encoding="UTF-8"?>
<svg xmlns="http://www.w3.org/2000/svg" xmlns:xlink="http://www.w3.org/1999/xlink" version="1.1" id="Capa_1" x="0px" y="0px" viewBox="0 0 512 512" style="enable-background:new 0 0 512 512;" xml:space="preserve" width="512" height="512">
<g>
	<g>
		<g>
			<g>
				<path style="fill:none;stroke:#000000;stroke-width:30;stroke-linecap:round;stroke-linejoin:round;stroke-miterlimit:10;" d="&#10;&#9;&#9;&#9;&#9;&#9;M86.655,111.568V54.81c0-16.463,13.597-29.808,30.37-29.808h0c16.773,0,30.37,13.346,30.37,29.808v57.758"/>
				<path style="fill:none;stroke:#000000;stroke-width:30;stroke-linecap:round;stroke-linejoin:round;stroke-miterlimit:10;" d="&#10;&#9;&#9;&#9;&#9;&#9;M147.395,112.568V44.808c0-16.463,13.597-29.808,30.37-29.808h0c16.773,0,30.37,13.346,30.37,29.808v70.76"/>
				<path style="fill:none;stroke:#000000;stroke-width:30;stroke-linecap:round;stroke-linejoin:round;stroke-miterlimit:10;" d="&#10;&#9;&#9;&#9;&#9;&#9;M208.135,144.131V61.929c0-16.463,13.597-29.808,30.37-29.808h0c16.773,0,30.37,13.346,30.37,29.808v62.2"/>
				<path style="fill:none;stroke:#000000;stroke-width:30;stroke-linecap:round;stroke-linejoin:round;stroke-miterlimit:10;" d="&#10;&#9;&#9;&#9;&#9;&#9;M268.875,141.249v-62.2c0-16.463,13.597-29.808,30.37-29.808h0c16.773,0,30.37,13.346,30.37,29.808v62.2"/>
				<path style="fill:none;stroke:#000000;stroke-width:30;stroke-linecap:round;stroke-linejoin:round;stroke-miterlimit:10;" d="&#10;&#9;&#9;&#9;&#9;&#9;M136.757,205.276v-20.003c39.421,0,71.378-31.366,71.378-70.058v0v0H85.176c-13.418,0-24.296,10.677-24.296,23.847v88.257&#10;&#9;&#9;&#9;&#9;&#9;c0,15.317,7.555,29.648,20.192,38.301l36.291,24.85l-0.015,128.822"/>
			</g>
		</g>
		
			<polyline style="fill:none;stroke:#000000;stroke-width:30;stroke-linecap:round;stroke-linejoin:round;stroke-miterlimit:10;" points="&#10;&#9;&#9;&#9;238.853,497 97.025,497 97.025,423.671 238.505,423.671 &#9;&#9;"/>
	</g>
	<g>
		<g>
			<g>
				<path style="fill:none;stroke:#000000;stroke-width:30;stroke-linecap:round;stroke-linejoin:round;stroke-miterlimit:10;" d="&#10;&#9;&#9;&#9;&#9;&#9;M208.159,225.864v-56.758c0-16.463,13.597-29.808,30.37-29.808h0c16.773,0,30.37,13.346,30.37,29.808v57.758"/>
				<path style="fill:none;stroke:#000000;stroke-width:30;stroke-linecap:round;stroke-linejoin:round;stroke-miterlimit:10;" d="&#10;&#9;&#9;&#9;&#9;&#9;M268.9,226.865v-67.759c0-16.463,13.597-29.808,30.37-29.808h0c16.773,0,30.37,13.346,30.37,29.808v70.406"/>
				<path style="fill:none;stroke:#000000;stroke-width:30;stroke-linecap:round;stroke-linejoin:round;stroke-miterlimit:10;" d="&#10;&#9;&#9;&#9;&#9;&#9;M360.01,268.234L360.01,268.234c-16.773,0-30.37-13.346-30.37-29.808v-62.2c0-16.463,13.597-29.808,30.37-29.808h0&#10;&#9;&#9;&#9;&#9;&#9;c16.773,0,30.37,13.346,30.37,29.808v62.2C390.38,254.888,376.783,268.234,360.01,268.234z"/>
				<path style="fill:none;stroke:#000000;stroke-width:30;stroke-linecap:round;stroke-linejoin:round;stroke-miterlimit:10;" d="&#10;&#9;&#9;&#9;&#9;&#9;M420.75,285.354L420.75,285.354c-16.773,0-30.37-13.346-30.37-29.808v-62.2c0-16.463,13.597-29.808,30.37-29.808h0&#10;&#9;&#9;&#9;&#9;&#9;c16.773,0,30.37,13.346,30.37,29.808v62.2C451.12,272.008,437.523,285.354,420.75,285.354z"/>
				<path style="fill:none;stroke:#000000;stroke-width:30;stroke-linecap:round;stroke-linejoin:round;stroke-miterlimit:10;" d="&#10;&#9;&#9;&#9;&#9;&#9;M258.262,319.572v-20.003c39.421,0,71.378-31.366,71.378-70.058v0H206.68c-13.418,0-24.296,10.677-24.296,23.847v68.254&#10;&#9;&#9;&#9;&#9;&#9;c0,15.317,7.555,29.648,20.192,38.301l36.291,24.85L238.853,497H394.4l0.012-118.374l14.096-23.19&#10;&#9;&#9;&#9;&#9;&#9;c8.673-14.27,13.26-30.648,13.26-47.347v-18.06"/>
			</g>
		</g>
	</g>
</g>















</svg>
