<svg id="Layer_1" height="512" viewBox="0 0 64 64" width="512" xmlns="http://www.w3.org/2000/svg" data-name="Layer 1"><path d="m37 23h-10l11-22h10z"/><path d="m30.88 10.76-5 10-9.88-19.76h10z"/><path d="m32 25a19 19 0 1 0 19 19 19 19 0 0 0 -19-19zm13 16.3a1.209 1.209 0 0 1 -.61 1.05l-6.39 3.65 2.469 7.407a1.21 1.21 0 0 1 -1.748 1.434l-6.721-3.841-6.721 3.841a1.21 1.21 0 0 1 -1.748-1.434l2.469-7.407-6.39-3.652a1.209 1.209 0 0 1 -.61-1.048v-.215a1.21 1.21 0 0 1 1.076-1.2l7.924-.885 2.706-7.215a1.21 1.21 0 0 1 1.133-.785h.322a1.21 1.21 0 0 1 1.133.785l2.706 7.215 7.924.88a1.21 1.21 0 0 1 1.076 1.203z"/><path d="m41 24h-18a1 1 0 0 1 0-2h18a1 1 0 0 1 0 2z"/></svg>