<svg id="Layer_2" enable-background="new 0 0 100 100" viewBox="0 0 100 100" xmlns="http://www.w3.org/2000/svg"><path d="m22.2573681 57.6762581-3.8636856 6.662632c-1.3500652-.3182907-2.4257889-1.1634865-3.3038816-2.6013832-.4499989-.7463799-.4171047-1.7451973.0878296-2.5465126l1.3171721-2.0635529c0-.0109177.0109863-.0109177.0109863-.0219078l.1646042-.2634201c.5159225-.8013153 1.4050007-1.2623024 2.2611198-1.1744728 1.4269065.1426964 2.5026321.7902603 3.3258552 2.0086174z"/><path d="m31.6969738 61.8802071-5.8613167 8.8688774c-3.8088169-.4829559-4.6869087-2.4148026-4.8954601-4.225853l4.5002632-7.7602615c1.8330917-1.5586853 3.8856583-1.4598694 5.1259861-.6366463 1.2183552.8012505 1.6244755 2.1623039 1.1305275 3.7538834z"/><path d="m38.173027 69.0587616-4.7198029 6.519928c-2.2830925-.1098022-3.8636856-1.0757217-4.895462-2.9746017l5.6198692-8.4956589c1.5476303-.1975632 2.7879601.0877609 3.5014458.8671036.7902642.8671035.9659234 2.3489532.4939499 4.083229z"/><path d="m42.9916458 75.6554718-1.0867119 1.8001251c-.5707245.9439468-1.5696068 1.5367126-2.6782227 1.5805969-1.1305275.0438766-2.0525665-.4390106-2.6782265-1.3061829-.0877609-.1317139-.1865768-.2744141-.2853279-.4171066l4.3905258-6.06987c1.4598045-.2525024 1.9537506.1755905 2.2830276.6146698.7903291 1.0207902.8123018 2.5574341.0549356 3.7977677z"/><path d="m80.9477005 60.4094162c-.7683563 1.2073669-2.2062531 1.8878937-4.3685532 2.0854607l-12.3154602-7.6504593c-.7682915-.4719734-1.7890816-.2415161-2.2611198.5268402-.4829636.7793427-.2414474 1.7891464.5269051 2.2721062l12.0190811 7.4638824c-.032959 1.119606-.2963791 1.9757233-.8451996 2.5684891-.75737.8232193-2.1294098 1.2732239-4.0612488 1.3610458l-10.2079582-5.7515755c-.7903328-.4500656-1.7891464-.1756592-2.2391472.6256599-.4500656.7902603-.164669 1.7891464.6255913 2.2391434l9.6921043 5.4661865c-.2524338 1.4708557-1.3390732 2.9526291-5.1698685 3.4685516l-9.4834862-4.5222397c-.8232231-.395195-1.8001289-.0439453-2.1952629.779274-.395195.8232269-.0439453 1.8001328.7792778 2.1952667l8.9786186 4.2807922c-.1426315.8890762-.7134209 1.3720398-1.8988838 1.6684189-.8342094.2194748-1.7891426.1865768-2.8099327-.0658569l-9.681118-2.4806595c1.1964455-2.326973 1.0317764-5.1149979-.4829597-7.0907211-1.1415138-1.4817734-2.5903969-1.931839-3.841713-1.9757233.1317101-2.0306625-.4171028-3.8307266-1.6024971-5.1259232-1.185463-1.3061829-2.886776-1.9867096-4.9064484-2.0196686.0219727-2.1732903-.9769096-4.138092-2.8209229-5.3564491-1.9647369-1.2951965-4.9722366-1.6903267-7.771183-.0548668-1.350132-1.7013168-3.1721706-2.7111855-5.3455276-2.9197388-1.4817753-.1536179-2.9525642.3402634-4.1051311 1.2732887l-2.7111187-3.578289c-.9110527-1.2073669-2.1184206-2.1732864-3.4794731-2.7660522l-6.465066-2.8648033 4.6319733-24.0930252 15.5095396 7.2444077c3.4685535 1.5366459 7.1017113 2.6672382 11.0421696 3.4465122-1.1634865 1.7232914-2.3379593 3.4465809-3.5343399 5.2247372-.5927639.8781586-.9000664 1.8879623-.9000664 2.9416466 0 2.4038162 1.6134872 4.5003281 3.9075661 5.1149979 1.0976334.2963829 2.2501335.2414474 3.3477631-.1865768 3.1831589-1.2513161 6.0808563-3.7429619 8.8578949-7.5956573l4.2478294-1.2073708 13.654541 7.3431587 15.9925003 14.2033577c.0219727.0109863.0438766.0328941.0658569.0438805l1.2293396 1.0976295c.6915131.6146736.8671036 1.6354599.395134 2.3709221z"/><path d="m97.5 45.8548126-6.1248016 1.4159203c-1.5037537.3402634-2.9196701 1.0427628-4.0941467 2.0415764-2.0415802 1.7232895-4.2149353 3.1721725-6.6296692 4.4125023l-15.3449326-13.6215783c-.0877686-.0878296-.1975708-.1536865-.3073044-.2195396l-14.4228973-7.749279c-.2414436-.1317101-.5049324-.1975632-.7793427-.1975632-.153614 0-.3073006.0219059-.4499969.0658531l-5.4442787 1.5476341c-.3621674.1098022-.6805267.3292732-.9000664.6476288-2.4915771 3.5782928-5.0161171 5.8284225-7.6834183 6.8821068-.4280281.1756592-.8780937.1976318-1.3061867.0878296-1.0207901-.2744102-1.470787-1.1744766-1.470787-1.9428291 0-.395134.1097374-.7792778.3402634-1.108551 1.6793404-2.4696732 3.3148689-4.895462 4.9393425-7.3102665l.0219727-.0219727c0-.0109215 0-.0109215.0109215-.0109215l.230526-.3512497c.1097374-.1536846.2085533-.3073692.2963829-.4390793 1.0646706-1.5696049 2.7440758-2.6782227 4.5990791-3.018486 4.6868401-.8561192 9.2859192-1.2622375 13.6874313-1.1963806.5049362 0 1.0647392.0767746 1.6684227.2194729l10.109211 2.4038143c1.470787.3402634 3.018486.3732243 4.5112534.1098042l3.1611786-.5927639c.7682877-.1426983 1.536644-.3621712 2.2830276-.6805267l14.3460541-6.102829z"/></svg>