<svg id="Capa_1" enable-background="new 0 0 512 512" height="512" viewBox="0 0 512 512" width="512" xmlns="http://www.w3.org/2000/svg"><g><circle cx="256.001" cy="256" r="47"/><path d="m452.2 268.453c-3.098-4.158-6.383-8.311-9.828-12.454 3.445-4.142 6.73-8.295 9.828-12.453 33.504-44.964 42.561-86 25.502-115.547-23.332-40.414-82.354-41.348-128.529-33.437-1.86-5.043-3.811-9.952-5.857-14.703-22.188-51.498-53.197-79.859-87.315-79.859s-65.127 28.361-87.315 79.859c-2.047 4.751-3.998 9.66-5.858 14.703-46.188-7.914-105.2-6.972-128.53 33.437-17.059 29.547-8.003 70.582 25.502 115.546 3.098 4.157 6.382 8.311 9.828 12.453-3.446 4.142-6.73 8.296-9.829 12.454-33.504 44.964-42.561 85.999-25.502 115.546 23.333 40.415 82.354 41.349 128.53 33.438 1.86 5.043 3.811 9.953 5.858 14.704 22.189 51.499 53.197 79.86 87.316 79.86s65.127-28.361 87.315-79.859c2.047-4.751 3.998-9.661 5.858-14.704 45.892 7.863 105.154 7.049 128.529-33.437 17.058-29.547 8.002-70.583-25.503-115.547zm-59.97-147.822c30.036 0 51.163 7.943 59.491 22.368 10.539 18.254 1.945 48.369-23.578 82.622-1.977 2.652-4.041 5.304-6.178 7.953-14.996-15.159-32.105-29.965-50.866-44.027-2.796-23.273-7.063-45.49-12.692-66.052 11.921-1.88 23.268-2.864 33.823-2.864zm-136.23 235.406c-30.478-13.933-59.959-31.022-86.691-49.986-3.077-32.846-3.079-67.237 0-100.105 26.695-18.936 56.161-36.028 86.692-49.985 30.486 13.936 59.959 31.023 86.693 49.986 3.076 32.835 3.079 67.235.001 100.103-26.701 18.94-56.165 36.029-86.695 49.987zm81.311-10.227c-2.285 12.707-5.066 24.925-8.312 36.535-11.627-2.998-23.6-6.714-35.76-11.088 15.043-7.829 29.483-16.141 44.072-25.447zm-118.55 25.447c-12.161 4.374-24.132 8.09-35.758 11.087-3.247-11.61-6.027-23.827-8.312-36.534 14.893 9.503 29.395 17.81 44.07 25.447zm-81.194-89.747c-9.879-8.347-19.084-16.879-27.528-25.511 8.443-8.633 17.649-17.165 27.528-25.512-.743 16.743-.767 33.738 0 51.023zm37.124-115.324c2.285-12.706 5.065-24.923 8.312-36.532 11.625 2.998 23.597 6.713 35.757 11.087-14.867 7.737-29.306 16.029-44.069 25.445zm118.548-25.445c12.161-4.373 24.134-8.09 35.759-11.087 3.247 11.61 6.028 23.827 8.312 36.534-14.396-9.185-28.843-17.523-44.071-25.447zm81.195 89.748c9.879 8.346 19.083 16.878 27.526 25.51-8.442 8.632-17.648 17.164-27.526 25.51.731-16.512.779-33.423 0-51.02zm-178.197-138.759c16.902-39.23 38.686-61.73 59.764-61.73s42.86 22.5 59.764 61.73c1.304 3.026 2.562 6.129 3.785 9.291-20.554 5.392-41.925 12.803-63.55 22.06-21.624-9.256-42.995-16.668-63.548-22.06 1.222-3.162 2.481-6.265 3.785-9.291zm-135.959 51.269c8.329-14.424 29.456-22.368 59.492-22.368 10.555 0 21.902.984 33.823 2.863-5.628 20.562-9.896 42.778-12.691 66.051-18.762 14.062-35.872 28.869-50.868 44.028-2.136-2.649-4.201-5.3-6.177-7.952-25.524-34.253-34.118-64.367-23.579-82.622zm59.491 248.369c-30.036 0-51.163-7.944-59.491-22.369-10.539-18.254-1.945-48.369 23.578-82.622 1.976-2.652 4.043-5.304 6.178-7.954 14.996 15.159 32.106 29.966 50.868 44.028 2.796 23.273 7.063 45.49 12.691 66.053-11.92 1.88-23.269 2.864-33.824 2.864zm195.995 28.902c-16.903 39.23-38.685 61.73-59.763 61.73s-42.861-22.5-59.764-61.73c-1.305-3.027-2.563-6.13-3.786-9.293 20.554-5.392 41.925-12.804 63.549-22.061 21.625 9.257 42.996 16.669 63.55 22.061-1.222 3.163-2.481 6.266-3.786 9.293zm135.958-51.27c-8.328 14.424-29.456 22.368-59.491 22.368-10.555 0-21.902-.984-33.823-2.863 5.628-20.563 9.895-42.78 12.691-66.053 18.761-14.062 35.871-28.868 50.866-44.027 2.137 2.649 4.202 5.301 6.179 7.954 25.524 34.252 34.117 64.367 23.578 82.621z"/></g></svg>