<svg height="426pt" viewBox="-42 0 426 426.66667" width="426pt" xmlns="http://www.w3.org/2000/svg"><path d="m11 21.332031h10.667969v64h298.664062v-64h10.667969c5.890625 0 10.667969-4.773437 10.667969-10.664062s-4.777344-10.667969-10.667969-10.667969h-320c-5.890625 0-10.667969 4.777344-10.667969 10.667969s4.777344 10.664062 10.667969 10.664062zm0 0"/><path d="m331 341.332031c5.890625 0 10.667969-4.773437 10.667969-10.664062s-4.777344-10.667969-10.667969-10.667969h-320c-5.890625 0-10.667969 4.777344-10.667969 10.667969s4.777344 10.664062 10.667969 10.664062h10.667969v64h-10.667969c-5.890625 0-10.667969 4.777344-10.667969 10.667969s4.777344 10.667969 10.667969 10.667969h320c5.890625 0 10.667969-4.777344 10.667969-10.667969s-4.777344-10.667969-10.667969-10.667969h-10.667969v-64zm0 0"/><path d="m331 106.667969h-320c-5.890625 0-10.667969 4.773437-10.667969 10.664062s4.777344 10.667969 10.667969 10.667969h10.667969v170.667969h298.664062v-170.667969h10.667969c5.890625 0 10.667969-4.777344 10.667969-10.667969s-4.777344-10.664062-10.667969-10.664062zm-160 149.332031c-23.554688-.027344-42.640625-19.113281-42.667969-42.667969 0-19.070312 22.3125-64 42.667969-64s42.667969 44.929688 42.667969 64c-.027344 23.554688-19.113281 42.640625-42.667969 42.667969zm0 0"/><path d="m171 171.40625c-7.3125 5.769531-21.332031 29.886719-21.332031 41.925781 0 11.785157 9.550781 21.335938 21.332031 21.335938s21.332031-9.550781 21.332031-21.335938c0-12.039062-14.019531-36.15625-21.332031-41.925781zm0 0"/></svg>