<svg id="Layer_1" height="512" viewBox="0 0 60 60" width="512" xmlns="http://www.w3.org/2000/svg"><path d="m6.55 23.59c.03.01 2.12.72 3.09 2.77.75 1.61.65 3.66-.32 6.09-1.28 3.23-2.64 6.83-4.02 10.71-.56 1.59-.33 3.29.64 4.67.98 1.38 2.5 2.17 4.19 2.17h6.98c2.14 0 4.02-1.52 4.46-3.61l2.31-10.81 6.31-.09c2.92-.04 5.38-2.07 5.97-4.93l.95-4.57h13.96c.55 0 1-.45 1-1v-.48h1.93c.56 0 1-.45 1-1v-.74h-49.13c.05.37.31.7.68.82zm20.59 2.44c-.06 1.39.19 3.58 2.05 4.64.16.09.32.13.49.13.35 0 .69-.18.87-.51.27-.48.1-1.09-.38-1.36-.99-.56-1.08-2.01-1.03-2.93h5.92l-.86 4.16c-.4 1.94-2.06 3.31-4.04 3.34l-5.86.09 1.33-6.2c.17-.75.79-1.28 1.51-1.36z"/><path d="m54 11.74h-4.59v-.74c0-.55-.45-1-1-1s-1 .45-1 1v.74h-35.76c-.76 0-1.48.21-2.1.58-.58-.6-1.51-1.11-2.89-1.01-.55.04-.97.52-.92 1.07.04.55.53.96 1.07.92.71-.06 1.11.18 1.33.41-.22.36-.39.76-.49 1.19l-.73 3.13v.02l-.64 2.71h48.72v-8.03c0-.55-.44-.99-1-.99z"/></svg>