<svg id="Capa_1" enable-background="new 0 0 512 512" height="512" viewBox="0 0 512 512" width="512" xmlns="http://www.w3.org/2000/svg"><g><path d="m112 62h288c17.121 0 31-13.879 31-31 0-17.121-13.879-31-31-31h-288c-17.121 0-31 13.879-31 31 0 17.121 13.879 31 31 31z"/><path d="m61.147 271.556 59.853 35.468 59.853-35.469c4.715-2.795 10.579-2.795 15.294 0l59.853 35.469 59.853-35.469c4.715-2.795 10.579-2.795 15.294 0l59.853 35.469 59.853-35.469c4.715-2.795 10.579-2.795 15.294 0l42.827 25.379c-5.471-37.083-21.93-71.752-47.709-99.679l-.793-.859c-66.365 16.944-134.767 25.492-204.472 25.492s-138.107-8.548-204.472-25.491l-.793.859c-25.779 27.927-42.239 62.596-47.709 99.679l42.827-25.379c4.715-2.795 10.579-2.795 15.294 0z"/><path d="m458.5 301.896-59.853 35.469c-4.715 2.795-10.579 2.795-15.294 0l-59.853-35.469-59.853 35.469c-4.715 2.795-10.579 2.795-15.294 0l-59.853-35.469-59.853 35.469c-4.715 2.795-10.579 2.795-15.294 0l-59.853-35.469-52.302 30.993c.465 10.45 1.788 20.678 3.902 30.62 80.819 25.484 164.9 38.379 250.9 38.379s170.081-12.894 250.899-38.379c2.114-9.941 3.438-20.17 3.902-30.62z"/><path d="m16.103 398.169c28.693 66.871 95.181 113.831 172.437 113.831h134.92c77.256 0 143.744-46.96 172.437-113.831-77.564 22.394-157.891 33.719-239.897 33.719s-162.333-11.325-239.897-33.719z"/><path d="m437.095 171.072-16.159-17.506c-15.879-17.203-25.884-38.655-28.936-61.566h-272c-3.052 22.911-13.057 44.363-28.936 61.566l-16.159 17.506c58.191 13.608 118.817 20.815 181.095 20.815s122.904-7.206 181.095-20.815z"/></g></svg>