<svg height="512" viewBox="0 0 64 64" width="512" xmlns="http://www.w3.org/2000/svg"><g id="Layer_3" data-name="Layer 3"><path d="m59 33a8.1 8.1 0 0 0 -5.83 2.505 4.117 4.117 0 0 1 -6.348 0 8.034 8.034 0 0 0 -11.658 0 4.112 4.112 0 0 1 -6.343 0 8.032 8.032 0 0 0 -11.656 0 4.107 4.107 0 0 1 -6.338 0 8.084 8.084 0 0 0 -5.827-2.505 2 2 0 0 0 -2 2v9a2 2 0 0 0 2 2 4.217 4.217 0 0 1 3.169 1.494 8.029 8.029 0 0 0 11.654 0 4.109 4.109 0 0 1 6.341 0 8.034 8.034 0 0 0 11.658 0 4.113 4.113 0 0 1 6.344 0 8.037 8.037 0 0 0 11.66 0 4.223 4.223 0 0 1 3.174-1.494 2 2 0 0 0 2-2v-9a2 2 0 0 0 -2-2z"/><path d="m59 14a8.1 8.1 0 0 0 -5.83 2.5 4.117 4.117 0 0 1 -6.348 0 8.034 8.034 0 0 0 -11.658 0 4.112 4.112 0 0 1 -6.343 0 8.032 8.032 0 0 0 -11.656 0 4.107 4.107 0 0 1 -6.338 0 8.084 8.084 0 0 0 -5.827-2.5 2 2 0 0 0 -2 2v9a2 2 0 0 0 2 2 4.217 4.217 0 0 1 3.169 1.494 8.029 8.029 0 0 0 11.654 0 4.109 4.109 0 0 1 6.341 0 8.034 8.034 0 0 0 11.658 0 4.113 4.113 0 0 1 6.344 0 8.037 8.037 0 0 0 11.66 0 4.223 4.223 0 0 1 3.174-1.494 2 2 0 0 0 2-2v-9a2 2 0 0 0 -2-2z"/></g></svg>