<svg id="Layer_1" enable-background="new 0 0 480.002 480.002" height="512" viewBox="0 0 480.002 480.002" width="512" xmlns="http://www.w3.org/2000/svg"><g><path d="m222.55 467.711c2.37 3.74 1.26 8.68-2.47 11.05-3.736 2.36-8.684 1.25-11.04-2.47l-143.993-227.014c-3.821-6.024 2.006-13.493 8.787-11.281.347.113.694.225 1.042.335 1.732.549 3.229 1.664 4.202 3.198z"/><path d="m478.76 220.081c-2.396 3.757-7.355 4.831-11.05 2.47l-226.182-143.472c-2.338-1.483-2.942-3.43-3.533-5.244-2.212-6.781 5.258-12.608 11.281-8.787l227.014 143.993c3.73 2.37 4.83 7.31 2.47 11.04z"/><path d="m202.76 168.821-21.964-21.964c-2.97-2.97-3.129-7.72-.381-10.897 13.599-15.724 26.725-33.318 37.007-51.357 1.778-3.12 6.446-2.489 7.346.987 6.881 26.572 4.117 55.711-9.298 81.355-2.488 4.754-8.917 5.669-12.71 1.876z"/><path d="m413.63 402.321c-12.329-12.309-279.15-279.16-279.15-279.16-3.13-3.12-3.13-8.19 0-11.31 3.113-3.114 8.184-3.127 11.31 0l12.289 12.289c3.292 3.292 8.707 3.102 11.727-.44 15.627-18.33 31.781-40.791 41.666-62.544 1.108-2.439.919-5.275-.507-7.543-20.22-32.176-56.038-53.61-96.762-53.611-62.816-.002-114.204 51.386-114.203 114.202.001 40.725 21.436 76.543 53.612 96.763 2.274 1.429 5.117 1.608 7.563.499 26.233-11.894 53.759-33.066 75.207-52.929 3.148-2.915 8.038-2.805 11.072.229 3.199 3.199 3.126 8.423-.188 11.503-18.778 17.451-40.467 34.503-62.665 47.155-3.127 1.782-2.482 6.447 1.002 7.35 35.127 9.098 74.07 1.17 103.447-24.412l213.27 213.27c3.119 3.119 8.19 3.12 11.31 0 3.13-3.121 3.128-8.188 0-11.311zm-331.28-330.74c-13.57 10.16-21.35 25.7-21.35 42.62 0 4.42-3.58 8-8 8s-8-3.58-8-8c0-22.01 10.12-42.21 27.76-55.42 3.54-2.65 8.55-1.93 11.2 1.6 2.65 3.54 1.93 8.56-1.61 11.2zm31.85-10.58c-1.351 0-2.975.07-3.01.07-4.24 0-7.78-3.33-7.98-7.61-.22-4.42 3.19-8.17 7.6-8.38 1.13-.05 2.27-.08 3.39-.08 4.42 0 8 3.58 8 8s-3.58 8-8 8z"/></g></svg>