<svg height="512" viewBox="0 0 32 32" width="512" xmlns="http://www.w3.org/2000/svg"><g id="Style_2_copy_3"><g><path d="m16 0c-8.837 0-16 7.163-16 16 0 8.836 7.163 16 16 16s16-7.164 16-16c0-8.837-7.163-16-16-16z" fill="#333"/></g><g id="Layer_x0020_1" fill="#fefefe"><path d="m6.532 21.561c2.452 2.129 5.138 4.108 8.75 4.109.07 0 .141-.001.214-.003 2.298-.053 4.897-.829 6.915-2.096l.012-.008c.264-.159.529-.338.777-.538.156-.115.262-.293.262-.48-.006-.333-.288-.557-.592-.557-.095-.001-.194.021-.287.066-.103.041-.21.088-.309.131l-.148.062-.19.077v.001c-2.075.841-4.255 1.335-6.272 1.38-.074.002-.148.002-.222.002-3.172.001-5.761-1.471-8.371-2.921-.092-.048-.185-.073-.276-.073-.119 0-.238.044-.326.126s-.14.202-.139.324c0 .16.084.305.202.398z"/><path d="m25.667 20.813c-.008-.202-.05-.355-.135-.482l-.008-.013-.01-.013c-.086-.094-.168-.128-.257-.168-.264-.102-.65-.156-1.113-.157-.334 0-.703.032-1.072.112l-.001-.024-.371.123-.006.004-.21.068v.009c-.247.102-.471.231-.679.38-.13.098-.238.226-.244.422-.003.107.052.231.142.304s.194.097.286.097c.023 0 .043-.001.062-.004l.016-.001.015-.003c.181-.039.447-.064.757-.108.266-.029.548-.052.792-.052.173 0 .329.012.436.035.054.012.093.025.116.037.008.003.014.005.016.008.005.015.011.053.01.107.004.204-.084.585-.202.955-.116.371-.258.743-.351.99-.023.057-.035.12-.035.188-.003.099.038.219.124.3.083.079.192.112.283.112h.004c.137-.002.253-.057.354-.135.944-.85 1.272-2.206 1.286-2.968l-.004-.123z"/><path d="m17.035 11.71c-.555.042-1.196.084-1.836.169-.982.13-1.963.3-2.774.685-1.579.64-2.647 2.006-2.647 4.013 0 2.52 1.622 3.801 3.672 3.801.683 0 1.238-.087 1.749-.213.812-.257 1.493-.726 2.306-1.581.469.64.597.94 1.408 1.623.213.084.427.084.597-.041.514-.428 1.409-1.197 1.877-1.624.215-.17.171-.427.042-.639-.468-.598-.938-1.111-.938-2.265v-3.843c0-1.623.128-3.118-1.066-4.227-.981-.896-2.518-1.239-3.713-1.239h-.512c-2.176.127-4.481 1.067-4.994 3.758-.086.342.172.469.342.511l2.389.299c.257-.043.386-.257.427-.469.214-.94.982-1.41 1.836-1.495h.172c.512 0 1.066.214 1.365.641.341.513.3 1.195.3 1.794zm-.469 5.08c-.299.596-.811.98-1.366 1.111-.086 0-.213.041-.342.041-.938 0-1.493-.727-1.493-1.793 0-1.368.812-2.008 1.836-2.307.555-.127 1.195-.172 1.836-.172v.513c-.002.985.04 1.753-.471 2.607z"/></g></g></svg>