<svg width="1760" height="1760" xmlns="http://www.w3.org/2000/svg" xmlns:xlink="http://www.w3.org/1999/xlink" xml:space="preserve" overflow="hidden"><defs><clipPath id="clip0"><rect x="487" y="326" width="1760" height="1760"/></clipPath></defs><g clip-path="url(#clip0)" transform="translate(-487 -326)"><path d="M860.725 1465.21C854.18 1465.21 847.635 1467.63 842.795 1472.15 837.955 1476.65 835.095 1483.25 835.15 1489.96 835.15 1498.76 839.77 1506.74 846.26 1511.85 981.12 1628.95 1128.85 1737.8 1327.51 1737.85 1331.36 1737.85 1335.26 1737.8 1339.28 1737.68 1465.67 1734.77 1608.61 1692.09 1719.6 1622.4L1720.27 1621.96C1734.78 1613.22 1749.36 1603.37 1763 1592.37 1771.58 1586.05 1777.41 1576.26 1777.41 1565.97 1777.08 1547.66 1761.57 1535.34 1744.85 1535.34 1739.62 1535.28 1734.18 1536.49 1729.07 1538.97 1723.4 1541.22 1717.51 1543.81 1712.07 1546.17L1703.93 1549.58 1693.48 1553.82 1693.48 1553.87C1579.35 1600.13 1459.45 1627.3 1348.52 1629.77 1344.45 1629.88 1340.38 1629.88 1336.31 1629.88 1161.85 1629.94 1019.45 1548.98 875.905 1469.23 870.845 1466.59 865.73 1465.21 860.725 1465.21ZM1814.92 1424.9C1796.55 1424.9 1776.26 1426.66 1755.96 1431.06L1755.91 1429.74 1735.5 1436.5 1735.17 1436.72 1723.62 1440.46 1723.62 1440.96C1710.03 1446.57 1697.72 1453.66 1686.27 1461.86 1679.12 1467.25 1673.18 1474.29 1672.85 1485.07 1672.69 1490.95 1675.72 1497.77 1680.66 1501.79 1685.61 1505.8 1691.33 1507.12 1696.39 1507.12 1697.66 1507.12 1698.76 1507.07 1699.8 1506.9L1700.68 1506.85 1701.51 1506.68C1711.47 1504.54 1726.09 1503.16 1743.14 1500.74 1757.77 1499.15 1773.28 1497.88 1786.7 1497.88 1796.22 1497.88 1804.8 1498.54 1810.68 1499.81 1813.66 1500.47 1815.8 1501.18 1817.07 1501.84 1817.51 1502.01 1817.83 1502.12 1817.94 1502.28 1818.22 1503.11 1818.55 1505.2 1818.49 1508.17 1818.71 1519.39 1813.87 1540.34 1807.38 1560.69 1801.01 1581.1 1793.19 1601.56 1788.08 1615.14 1786.81 1618.28 1786.16 1621.74 1786.16 1625.48 1785.99 1630.93 1788.24 1637.53 1792.97 1641.98 1797.54 1646.33 1803.53 1648.14 1808.54 1648.14L1808.76 1648.14C1816.29 1648.03 1822.67 1645.01 1828.23 1640.72 1880.15 1593.97 1898.19 1519.39 1898.96 1477.48L1898.74 1470.71 1898.68 1470.71C1898.24 1459.6 1895.93 1451.19 1891.26 1444.2L1890.82 1443.49 1890.27 1442.77C1885.54 1437.6 1881.03 1435.73 1876.13 1433.53 1861.61 1427.92 1840.38 1424.95 1814.92 1424.9ZM1424.04 1077.85 1424.04 1106.06C1423.93 1160.24 1426.24 1202.48 1398.13 1249.45 1381.69 1282.23 1353.53 1303.35 1323 1310.55 1318.27 1310.55 1311.29 1312.81 1304.19 1312.81 1252.6 1312.81 1222.08 1272.82 1222.08 1214.19 1222.08 1138.95 1266.74 1103.75 1323.05 1087.31 1353.58 1080.32 1388.78 1077.85 1424.04 1077.85ZM1323 674.095C1203.32 681.08 1076.54 732.78 1048.33 880.785 1043.6 899.595 1057.79 906.58 1067.14 908.89L1198.54 925.335C1212.67 922.97 1219.77 911.2 1222.02 899.54 1233.79 847.84 1276.03 821.99 1323 817.315L1332.46 817.315C1360.62 817.315 1391.09 829.085 1407.54 852.57 1426.29 880.785 1424.04 918.295 1424.04 951.24L1423.93 970.049C1393.4 972.36 1358.14 974.67 1322.95 979.345 1268.94 986.495 1214.98 995.845 1170.38 1017.02 1083.53 1052.22 1024.79 1127.35 1024.79 1237.73 1024.79 1376.33 1114 1446.79 1226.75 1446.79 1264.32 1446.79 1294.84 1442 1322.95 1435.07 1367.6 1420.94 1405.06 1395.14 1449.78 1348.12 1475.57 1383.32 1482.61 1399.82 1527.22 1437.38 1538.93 1442 1550.7 1442 1560.05 1435.13 1588.32 1411.59 1637.55 1369.29 1663.29 1345.81 1675.11 1336.46 1672.69 1322.32 1665.6 1310.66 1639.85 1277.77 1614.01 1249.56 1614.01 1186.09L1614.01 974.724C1614.01 885.46 1621.04 803.235 1555.38 742.24 1501.42 692.96 1416.89 674.095 1351.16 674.095ZM1367 326C1853.04 326 2247 719.965 2247 1206 2247 1691.98 1853.04 2086 1367 2086 880.965 2086 487 1691.98 487 1206 487 719.965 880.965 326 1367 326Z" fill="#333333" fill-rule="evenodd"/></g></svg>