<?xml version="1.0" encoding="iso-8859-1"?>
<!-- Generator: Adobe Illustrator 19.0.0, SVG Export Plug-In . SVG Version: 6.00 Build 0)  -->
<svg version="1.1" id="Layer_1" xmlns="http://www.w3.org/2000/svg" xmlns:xlink="http://www.w3.org/1999/xlink" x="0px" y="0px"
	 viewBox="0 0 512 512" style="enable-background:new 0 0 512 512;" xml:space="preserve">
<g>
	<g>
		<path d="M256.969,217.416L7.79,466.595c-10.387,10.387-10.387,27.228,0,37.614c10.387,10.387,27.228,10.387,37.614,0
			l249.178-249.178L256.969,217.416z"/>
	</g>
</g>
<g>
	<g>
		<path d="M511.887,72.965l-1.006-26.884c-0.914-24.444-20.52-44.05-44.964-44.964l-26.884-1.005
			c-44.708-1.672-88.093,15.355-119.729,46.991l-44.655,44.655c-9.277,9.277-9.277,24.317,0,33.593l37.191,37.191l-36.347,36.347
			l37.614,37.614l36.347-36.347l37.191,37.191c9.277,9.277,24.317,9.277,33.593,0l44.655-44.655
			C496.531,161.058,513.559,117.675,511.887,72.965z"/>
	</g>
</g>
<g>
</g>
<g>
</g>
<g>
</g>
<g>
</g>
<g>
</g>
<g>
</g>
<g>
</g>
<g>
</g>
<g>
</g>
<g>
</g>
<g>
</g>
<g>
</g>
<g>
</g>
<g>
</g>
<g>
</g>
</svg>
