<svg id="Layer_1" height="512" viewBox="0 0 65 65" width="512" xmlns="http://www.w3.org/2000/svg"><path d="m57.852 28.521c.508 0 1.357 0 1.737-.585.673-.673-.001-1.424-.375-1.833 0-.002 0-.003 0-.005 0-.163-.078-.308-.198-.399l-.47-.587c-.037-.047-.082-.086-.134-.117-.427-.256-.696-.36-.932-.36-.402 0-.64.259-.706.769-.034.265-.034.27-.34.27-.378 0-.953-.13-1.765-.403.074-.206.254-.533.362-.729.137-.249.268-.49.347-.688.014-.036.024-.075.03-.113.143-.989-.728-1.248-1.146-1.373-.13-.039-.349-.104-.387-.137-.213-.427-.271-1.167-.326-1.882-.1-1.28-.212-2.731-1.439-2.731-.08 0-.166.008-.236.021-1.507.21-2.327.566-2.661 1.152-.329.58-.083 1.165.114 1.635.112.266.238.566.167.684-.058.096-.386.42-2.198.576-1.476 0-5.637-5.115-6.173-6.667.601-.142 1.941-.476 5.004-1.262.165-.042.297-.165.351-.326.264-.791-.438-1.29-.95-1.655-.134-.095-.292-.208-.422-.328.373.024.87.105 1.316.178.896.146 1.579.241 1.873.046 1.052-.658 1.479-1.708 1.857-2.633.524-1.288.886-2.016 2.197-2.016.192 0 .367-.11.451-.284.083-.173.06-.379-.061-.529-.131-.163-.261-.351-.396-.544-.452-.651-.966-1.389-1.728-1.643-.041-.014-.083-.022-.125-.025-.065-.12-.165-.229-.295-.322-1.137-.758-2.486-.962-3.791-1.159-.679-.103-1.379-.208-2.036-.396-.168-.042-.336-.117-.498-.187-.299-.128-.606-.261-.93-.261-.118 0-.231.018-.387.073-3.653 1.686-3.859 1.853-3.786 2.387.063.453.518.526.883.584.276.044.74.119.858.295.036.053.039.133.029.211-.093.046-.271.098-.374.129-.328.097-.668.197-.759.552-.044.171.043.44.168.565.077.077.181.172.297.278.023.022.052.047.083.076-.601-.271-1.255-.466-1.775.072-.123.163-.173.362-.143.561.005.031.011.061.019.09-.442-.209-.906-.372-1.361-.372-.57 0-1.327.26-1.705 1.521-.111.448-.058.855.159 1.212.481.789 1.645 1.061 2.414 1.241.121.028.269.063.379.093-.014.05-.055.146-.08.207-.106.251-.239.563-.049.853.086.129.304.244.458.255.733.055 1.192-.189 1.493-.482.069.057.159.103.273.129.198.045.538.03.959 0 .062-.004.124-.009.187-.013-.491.51-1.097 1.012-1.829 1.287-.097.007-.259.004-.464.004-1.912.01-3.906.101-4.182 1.349-.082.66.23 1.263.507 1.795.06.114.117.226.17.335-.068-.06-.136-.119-.2-.176-1.755-1.545-3.252-2.766-4.287-2.186-.428.256-.632.742-.813 1.171-.079.187-.21.499-.257.539-.141-.046-.148-.549-.153-.917-.007-.481-.015-1.027-.213-1.489-.673-1.748-4.907-1.937-6.696-1.937-.923 0-1.714.053-2.116.143-.485.108-.868.193-.9.616-.028.356.264.507.41.568-.102.125-.24.262-.368.389-.363.359-.737.731-.738 1.203 0 .163.046.405.272.631.156.156.353.239.568.239.443 0 .812-.338 1.203-.696.125-.114.311-.285.432-.375.062.242-.085.599-.314 1.107-.204.452-.415.92-.415 1.397 0 .133.053.26.146.354.535.535.803 1.024.784 1.214l-.087.086c-.007.004-.077.037-.33.037-.105 0-.212-.005-.315-.01-.109-.005-.213-.009-.307-.009-.173 0-.579 0-.78.326-.064.104-.15.317-.03.601.077.262.316.636 1.051.636.333 0 .718-.069 1.126-.142.705-.125 1.512-.205 1.631-.026.034.05.178.359-.271 1.433-.06.118-.181.131-.23.131-.394 0-.812-.138-1.254-.283-.648-.213-1.416-.4-1.972-.242-1.255.314-2.011 1.36-2.584 2.354-.068.087-.102.175-.111.261-.396-.069-.853-.127-1.289-.127-.899 0-1.483.258-1.736.767-.315.634-.044 1.48.834 2.637.624.934 1.802.991 2.941 1.047 1.396.068 2.266.158 2.532 1.112.236.803-.055 1.172-.313 1.497-.172.218-.409.517-.287.896.138.428.61.629 1.623.918 1.788.488 3.466.502 4.58.512-.055.097-.089.214-.089.355 0 .133.031.276.127.4-.542.195-1.071.303-1.594.324-.031-.049-.068-.113-.096-.162-.152-.267-.383-.67-.839-.67-.033 0-.135.015-.167.021-.726.146-1.104.723-1.407 1.186-.079.12-.158.241-.197.303-.128.128-.412.292-.686.45-.59.34-1.2.691-1.303 1.242-.034.178-.027.448.17.691.072.108.161.19.262.255-.022.02-.043.04-.064.061-.417.417-.649.904-.854 1.334-.127.268-.241.507-.379.69-.035-.008-.072-.018-.102-.025-.331-.085-.791-.071-.996.076-.648.253-1.208.597-1.749.929-.376.231-.761.468-1.125.654-.127.042-.613.042-.82.042-.465 0-.867 0-.939.447-.035.215.149.469.344.567.149.074.348.108.642.108.868 0 2.583-.304 3.511-.481.014.104.047.217.109.339.042.063.087.127.138.192-.154-.023-.293-.046-.416-.065-.393-.062-.633-.094-.656-.094-.041 0-.082.005-.121.015-.497.124-.716.537-.877.839-.097.183-.189.356-.279.401-.218.094-.533.105-.783.105l-.711-.011c-.447 0-1.378 0-1.727.816-.241.482-.079 1.063.239 1.643-.407-.25-.81-.415-1.339-.429-.229-.033-1.048-.141-1.928-.141-.903 0-1.528.112-1.878.323-.315.157-.389.45-.406.673-.063-.027-.122-.056-.165-.075-.225-.105-.374-.175-.54-.175-.173 0-.36.1-.451.247-.108.175-.088.452.035.616.632.844 3.062 2.243 4.454 2.863-.284.06-.771.059-1.278.043-.198-.006-.396-.012-.589-.012-.562 0-1.879 0-2.135 1.153-.001.04-.005.077-.005.113 0 .146.037.279.089.399-.257-.129-.501-.243-.75-.243-.328 0-.593.209-.686.604-.156 1.556.886 3.708 2.413 4.049.121.027.102.025 1.212-.108-.008.041-.012.08-.01.116.006.098.034.18.075.252-2.431.746-2.431.748-2.361 1.21.034.225.24.404.466.428.872.091 1.791.137 2.732.137 1.274 0 2.355-.081 3.145-.141.495-.037.885-.063 1.084-.058.007.004.014.008.021.011.052.026.105.048.159.066-.515.409-1.575.926-2.333 1.294-1.579.769-2.41 1.197-2.57 1.787-.057.208-.022.421.16.676.171.172.43.235.954.235.819 0 2.326-.179 3.236-.359-.224.279-.369.583-.232.908.195.463.781.465.978.465.104.033.282-.008.483-.028.536-.076 1.009-.322 1.467-.56.455-.236.885-.459 1.403-.522.283 0 .949.284 1.537.534.914.39 1.95.831 2.781.831.074 0 .146-.003.217-.011.037-.003.074-.011.109-.023.545-.183.578-.748.598-1.087.002-.032.004-.07.006-.106.111.044.24.136.367.264.014.014.029.027.045.04.007.026.015.063.021.089.038.171.153.691.694.691.041 0 .082-.005.121-.015.498-.125.801-.55 1.044-.891.111-.156.237-.333.306-.38.223-.133.501-.218.796-.308.509-.155 1.036-.315 1.374-.767.026-.035.048-.074.064-.114.206-.517-.094-1.109-.358-1.632-.056-.111-.129-.255-.183-.376.528.034.651.277.878 1.039.24.802.68 2.143 2.714 1.065.431-.287.742-.701 1.043-1.102.325-.434.633-.842.953-.99.051.013.181.132.258.203.223.206.528.487.978.487.036 0 .073-.004.108-.012 1.027-.229 2.775-.741 2.958-1.704 0-.291-.155-.543-.322-.759.638-.116 1.168.047 1.794.259.545.185 1.16.393 1.996.454.137.03.288.023.44-.008.002.002.003.005.004.008.018.034.038.065.063.095.515.616 1.846.39 3.161.048.577-.15 1.174-.306 1.53-.306.087 0 .13.01.161.019.063.016.151.169.229.304.158.277.376.658.789.757.72.29 1.407.117 1.736-.018.078.248.317.424.607.424.355 0 .635-.264.63-.53.068-.48.019-.967-.03-1.438-.056-.531-.107-1.034.021-1.481.034-.137.204-.239.461-.381.171-.094.348-.191.455-.303.844-.703 5.642-7.643 6.097-9.011.411-1.337.248-2.325.074-3.372-.071-.433-.147-.888-.186-1.357.005-.035.052-.129.082-.191.083-.167.187-.374.177-.724-.081-.409-.354-.729-.594-1.01-.034-.04-.076-.09-.116-.141.505.241 1.168.475 1.614-.15.285-.572-.116-1.064-.383-1.391-.089-.109-.239-.294-.256-.331.01-.04.015-.08.015-.121 0-.209.166-.401.44-.691.3-.317.64-.677.64-1.197 0-.656-.33-1.139-.622-1.564-.214-.313-.416-.608-.458-.867 0-.421.127-.866.261-1.336.179-.627.363-1.276.28-1.904 0-.452-.355-.736-.693-.945.117-.007.237-.008.353-.008zm-9.301-21.833c.18-.24.614-.597.872-.808.152-.125.3-.246.436-.365.014.07.026.142.031.195-.712.697-1.119.917-1.339.978zm-24.503 35.734c-.039.188-.046.382.018.574.011.034.027.068.045.1.051.085.114.16.188.227-.391-.033-.828-.078-1.309-.133.378-.256.741-.528 1.058-.768zm-12.065 6.896c.331.03.714.193.937.337-.245.146-.567.216-.914.257.061-.214.015-.445-.023-.594z"/></svg>